<?xml version="1.0" encoding="utf-8" ?>
<svg xmlns="http://www.w3.org/2000/svg" xmlns:xlink="http://www.w3.org/1999/xlink" width="702" height="1787">
	<clipPath id="cl_775">
		<rect x="-10" y="-5" width="702" height="1787"/>
	</clipPath>
	<g clip-path="url(#cl_775)">
		<path fill="none" stroke="black" stroke-width="1" stroke-linecap="square" stroke-miterlimit="4" transform="translate(0.5 0.5)" d="M58 1022L128 1022"/>
		<path fill="none" stroke="black" stroke-width="1" stroke-linecap="square" stroke-miterlimit="4" transform="translate(0.5 0.5)" d="M129 1022L129 605"/>
		<path fill="none" stroke="black" stroke-width="1" stroke-linecap="square" stroke-miterlimit="4" transform="translate(0.5 0.5)" d="M129 1022L129 1440"/>
		<path fill="none" stroke="black" stroke-width="1" stroke-linecap="square" stroke-miterlimit="4" transform="translate(0.5 0.5)" d="M129 1441L143 1441"/>
		<path fill="none" stroke="black" stroke-width="1" stroke-linecap="square" stroke-miterlimit="4" transform="translate(0.5 0.5)" d="M129 604L143 604"/>
		<rect fill="silver" x="4" y="1016" width="53" height="21"/>
		<rect fill="white" y="1012" width="53" height="21"/>
		<rect fill="white" x="5" y="1039" width="110" height="48"/>
		<text fill="gray" font-size="9" font-family="Segoe UI" x="5, 10.805176, 12.984863, 15.164551, 17.629883, 22.929688, 27.508789, 30.558594, 35.265137, 39.083984, 41.549316, 46.840332, 51.546875, 54.675781, 57.725586, 62.304688, 64.484375, 69.577637, 71.757324, 76.850586, 82.150391, 84.615723, 87.665527, 92.938965, 95.404297, 98.454102, 103.54736, " y="1049, ">
				All dates pertaining to the
		</text>
		<text fill="gray" font-size="9" font-family="Segoe UI" x="5, 9.706543, 14.017578, 18.724121, 23.817383, 26.867188, 28.818359, 31.283691, 33.463379, 38.556641, 41.021973, 46.312988, 50.89209, 54.020996, 57.070801, 59.250488, 63.407715, 68.500977, 70.680664, 75.259766, 78.388672, 80.854004, 83.903809, 88.99707, 93.703613, 96.168945, 99.987793, 103.0376, 107.6167, 110.74561, " y="1061, ">
				event, in particular the start
		</text>
		<text fill="gray" font-size="9" font-family="Segoe UI" x="5, 9.5791016, 14.672363, 19.972168, 22.4375, 27.144043, 32.237305, 37.537109, 40.002441, 45.302246, 49.881348, 52.931152, 57.637695, 60.103027, 64.682129, 69.775391, 75.075195, 77.540527, 82.119629, 87.212891, " y="1073, ">
				and end date and any
		</text>
		<text fill="gray" font-size="9" font-family="Segoe UI" x="5, 8.1289062, 12.835449, 16.992676, 22.085938, 25.214844, 28.34375, 33.050293, 38.143555, 42.300781, 47.007324, 49.472656, 51.652344, 56.745605, 59.5625, 64.835938, 67.964844, 75.716797, 80.295898, 83.345703, 85.525391, 90.798828, " y="1085, ">
				recurrence information
		</text>
		<rect fill="white" x="9" y="1014" width="32" height="16"/>
		<text font-size="12" font-weight="600" font-family="Segoe UI" x="9, 16.429688, 22.886719, 27.509766, 34.001953, " y="1027, ">
				dates
		</text>
		<rect fill="none" stroke="black" stroke-width="1" stroke-linecap="square" stroke-miterlimit="4" transform="translate(0.5 0.5)" y="1012" width="52" height="20"/>
		<path fill="white" d="M221 19L221 0L144 0L144 19L144 1207L357 1207L357 19L221 19Z"/>
		<rect fill="white" x="164" y="2" width="51" height="16"/>
		<text font-size="12" font-style="italic" font-family="Segoe UI" x="164, 170.50391, 174.38281, 178.26172, 182.5332, 185.63867, 192.14258, 198.83984, 202.73047, 208.57227, " y="15, ">
				attributes
		</text>
		<path fill="none" stroke="black" stroke-width="1" stroke-linecap="square" stroke-miterlimit="4" transform="translate(0.5 0.5)" d="M221 19L221 0L144 0L144 19L144 1207L357 1207L357 19L221 19Z"/>
		<path fill="white" d="M349 47L349 28L158 28L158 47L158 1150L349 1150L349 47Z"/>
		<rect fill="white" x="163" y="1153" width="179" height="48"/>
		<text fill="gray" font-size="9" font-family="Segoe UI" x="163, 168.80518, 171.27051, 176.57031, 179.69922, 184.97266, 190.06592, 195.35693, 197.82227, 203.0957, 205.9126, 208.37793, 212.95703, 216.00684, 219.05664, 222.18555, 224.36523, 229.65625, 234.74951, 237.79932, 242.50586, 246.32471, 248.79004, 251.60693, 256.88037, 260.00928, 262.47461, 267.05371, 269.2334, 271.41309, 273.87842, 278.58496, 280.76465, 285.47119, 293.22314, 297.92969, 303.02295, 306.07275, 309.8916, 312.35693, 317.63037, 320.44727, 322.9126, 327.4917, 329.95703, 336.13135, " y="1163, ">
				A group of attributes for all elements of a G2
		</text>
		<text fill="gray" font-size="9" font-family="Segoe UI" x="163, 165.39502, 168.44482, 173.15137, 180.90332, 183.36865, 188.0752, 192.20605, 196.36328, 201.06982, 206.36084, 209.41064, 211.87598, 214.05566, 217.10547, 220.92432, 223.38965, 226.51855, 231.79199, 237.06543, 240.11523, 242.58057, 247.28711, 249.4668, 254.17334, 261.92529, 266.63184, 271.7251, 274.7749, 276.72607, 279.19141, 282.24121, 287.33447, 292.04102, 294.50635, 296.68604, 299.73584, 304.44238, 312.19434, 320.27588, 324.98242, 328.03223, " y="1175, ">
				Item except its root element, the itemMeta
		</text>
		<text fill="gray" font-size="9" font-family="Segoe UI" x="163, 167.70654, 169.88623, 174.59277, 182.34473, 187.05127, 192.14453, 195.19434, 197.65967, 202.23877, 207.33203, 212.63184, 215.09717, 219.67627, 221.85596, 224.03564, 226.50098, 231.77441, 234.59131, 237.05664, 239.23633, 242.28613, 246.10498, 248.57031, 252.72754, 257.8208, 260.00049, 262.18018, 267.47998, 270.60889, 275.31543, 280.40869, 282.87402, 289.37793, 294.47119, 296.65088, 300.80811, 305.90137, 308.3667, 312.9458, 316.07471, " y="1187, ">
				element and all of its children which are
		</text>
		<text fill="gray" font-size="9" font-family="Segoe UI" x="163, 170.75195, 175.33105, 180.42432, 185.72412, 190.30322, 193.35303, 198.62646, 201.75537, 206.11035, " y="1199, ">
				mandatory.
		</text>
		<rect fill="white" x="200" y="30" width="143" height="16"/>
		<text font-size="12" font-weight="600" font-family="Segoe UI" x="200, 205.75977, 213.0957, 224.08789, 235.08008, 242.41602, 249.67578, 256.68945, 264.02539, 273.53516, 280.02734, 284.80273, 293, 297.66992, 302.33984, 307.16211, 310.57227, 318.01367, 325.27344, 329.89648, 336.38867, " y="43, ">
				commonPowerAttributes
		</text>
		<rect fill="white" x="178" y="30" width="20" height="16"/>
		<text fill="gray" font-size="12" font-family="Segoe UI" x="178, 185.06641, 189.23828, " y="43, ">
				grp
		</text>
		<path fill="none" stroke="gray" stroke-width="1" stroke-linecap="square" stroke-miterlimit="4" transform="translate(0.5 0.5)" d="M158 47L158 1150L349 1150L349 47L349 47"/>
		<path fill="none" stroke="black" stroke-width="1" stroke-linecap="square" stroke-miterlimit="4" transform="translate(0.5 0.5)" d="M349 47L349 28L158 28L158 47"/>
		<rect x="163" y="33" width="11" height="11"/>
		<rect fill="white" x="164" y="34" width="9" height="9"/>
		<rect x="165" y="38" width="7" height="1"/>
		<rect fill="silver" x="170" y="61" width="52" height="21"/>
		<rect fill="white" x="166" y="57" width="52" height="21"/>
		<rect fill="white" x="171" y="84" width="101" height="24"/>
		<text fill="gray" font-size="9" font-family="Segoe UI" x="171, 175.71533, 180.80859, 185.51514, 187.98047, 190.16016, 195.43359, 199.59082, 204.16992, 206.34961, 208.81494, 210.99463, 216.29443, 221.00098, 226.09424, 229.14404, 231.32373, 234.14062, 236.32031, 241.02686, 244.15576, 246.62109, 251.89453, 254.71143, 257.17676, 260.22656, 265.31982, " y="94, ">
				The local identifier of the
		</text>
		<text fill="gray" font-size="9" font-family="Segoe UI" x="171, 176.29102, 179.41992, 184.69336, 189.98438, 194.69092, 197.81982, 200.86963, 205.22461, " y="106, ">
				property.
		</text>
		<rect fill="white" x="175" y="59" width="36" height="16"/>
		<text font-size="12" font-weight="600" font-family="Segoe UI" x="175, 178.41016, " y="72, ">
				id
		</text>
		<rect fill="none" stroke="black" stroke-width="1" stroke-linecap="square" stroke-miterlimit="4" transform="translate(0.5 0.5)" x="166" y="57" width="51" height="20"/>
		<rect fill="silver" x="170" y="119" width="58" height="21"/>
		<rect fill="white" x="166" y="115" width="58" height="21"/>
		<rect fill="white" x="171" y="142" width="121" height="120"/>
		<text fill="gray" font-size="9" font-family="Segoe UI" x="171, 173.39502, 176.21191, 178.67725, 181.72705, 186.82031, 191.52686, 193.99219, 199.2832, 202.41211, 207.68555, 212.97656, 217.68311, 220.81201, 223.86182, 228.2168, 230.68213, 234.99316, 239.57227, 241.75195, 246.84521, 251.55176, 254.01709, 256.19678, 260.01562, 262.48096, 267.57422, 272.84766, " y="152, ">
				If the property value is not
		</text>
		<text fill="gray" font-size="9" font-family="Segoe UI" x="171, 176.2998, 181.00635, 183.82324, 186.00293, 191.09619, 195.80273, 201.10254, 203.05371, 205.51904, 209.33789, 214.62891, 219.33545, 223.49268, 225.67236, 228.48926, 230.66895, 235.37549, 239.19434, 241.65967, 248.16357, 253.25684, 255.43652, 259.59375, 264.68701, 267.15234, 271.85889, 276.95215, 280.00195, 282.18164, 285.23145, " y="164, ">
				defined, specifies which entity
		</text>
		<text fill="gray" font-size="9" font-family="Segoe UI" x="171, 173.71582, 179.00684, 183.71338, 186.84229, 190.66113, 195.93457, 201.02783, 202.979, 205.44434, 210.71777, 213.84668, 219.14648, 223.72559, 228.81885, 230.99854, 234.81738, 239.39648, 242.44629, 244.62598, 249.89941, 254.99268, 257.45801, 262.73145, " y="176, ">
				(person, organisation or
		</text>
		<text fill="gray" font-size="9" font-family="Segoe UI" x="171, 174.81885, 179.17383, 182.99268, 186.04248, 190.74902, 198.50098, 201.2168, 203.68213, 210.18604, 212.36572, 214.54541, 216.7251, 219.19043, 223.89697, 229.19678, 231.37646, 234.42627, 236.8916, 239.94141, 245.03467, 249.74121, 252.20654, 257.49756, 260.62646, 265.8999, 271.19092, 275.89746, 279.02637, 282.07617, " y="188, ">
				system) will edit the property
		</text>
		<text fill="gray" font-size="9" font-family="Segoe UI" x="171, 175.31104, 179.89014, 182.06982, 187.16309, 191.86963, 194.33496, 197.93408, 200.39941, 205.10596, 209.23682, 214.52783, 217.65674, 222.36328, 226.18213, 230.00098, 234.70752, 240.00732, 242.47266, 247.76367, 252.11865, 254.58398, 259.16309, 261.62842, 268.41357, 273.98584, 279.25928, 284.55908, 289.26562, " y="200, ">
				value - expressed by a QCode.
		</text>
		<text fill="gray" font-size="9" font-family="Segoe UI" x="171, 173.39502, 176.21191, 178.67725, 181.72705, 186.82031, 191.52686, 193.99219, 199.2832, 202.41211, 207.68555, 212.97656, 217.68311, 220.81201, 223.86182, 228.2168, 230.68213, 234.99316, 239.57227, 241.75195, 246.84521, 251.55176, 254.01709, 256.19678, " y="212, ">
				If the property value is
		</text>
		<text fill="gray" font-size="9" font-family="Segoe UI" x="171, 176.2998, 181.00635, 183.82324, 186.00293, 191.09619, 195.80273, 201.10254, 203.05371, 205.51904, 209.33789, 214.62891, 219.33545, 223.49268, 225.67236, 228.48926, 230.66895, 235.37549, 239.19434, 241.65967, 248.16357, 253.25684, 255.43652, 259.59375, 264.68701, 267.15234, 271.85889, 276.95215, 280.00195, 282.18164, 285.23145, " y="224, ">
				defined, specifies which entity
		</text>
		<text fill="gray" font-size="9" font-family="Segoe UI" x="171, 173.71582, 179.00684, 183.71338, 186.84229, 190.66113, 195.93457, 201.02783, 202.979, 205.44434, 210.71777, 213.84668, 219.14648, 223.72559, 228.81885, 230.99854, 234.81738, 239.39648, 242.44629, 244.62598, 249.89941, 254.99268, 257.45801, 262.73145, " y="236, ">
				(person, organisation or
		</text>
		<text fill="gray" font-size="9" font-family="Segoe UI" x="171, 174.81885, 179.17383, 182.99268, 186.04248, 190.74902, 198.50098, 201.2168, 203.68213, 208.77539, 213.35449, 217.17334, 219.63867, 224.34521, 229.64502, 231.82471, 234.87451, 239.58105, 244.88086, 247.34619, 250.396, 255.48926, " y="248, ">
				system) has edited the
		</text>
		<text fill="gray" font-size="9" font-family="Segoe UI" x="171, 176.29102, 179.41992, 184.69336, 189.98438, 194.69092, 197.81982, 200.86963, 205.22461, 207.68994, 212.00098, 216.58008, 218.75977, 223.85303, 228.55957, " y="260, ">
				property value.
		</text>
		<rect fill="white" x="175" y="117" width="42" height="16"/>
		<text font-size="12" font-weight="600" font-family="Segoe UI" x="175, 180.75977, 185.48828, 191.98047, 198.4375, 203.06055, 210.39648, " y="130, ">
				creator
		</text>
		<rect fill="none" stroke="black" stroke-width="1" stroke-linecap="square" stroke-miterlimit="4" transform="translate(0.5 0.5)" x="166" y="115" width="57" height="20"/>
		<rect fill="silver" x="170" y="273" width="73" height="21"/>
		<rect fill="white" x="166" y="269" width="73" height="21"/>
		<rect fill="white" x="171" y="296" width="120" height="108"/>
		<text fill="gray" font-size="9" font-family="Segoe UI" x="171, 173.39502, 176.21191, 178.67725, 181.72705, 186.82031, 191.52686, 193.99219, 199.2832, 202.41211, 207.68555, 212.97656, 217.68311, 220.81201, 223.86182, 228.2168, 230.68213, 234.99316, 239.57227, 241.75195, 246.84521, 251.55176, 254.01709, 256.19678, 260.01562, 262.48096, 267.57422, 272.84766, " y="306, ">
				If the property value is not
		</text>
		<text fill="gray" font-size="9" font-family="Segoe UI" x="171, 176.2998, 181.00635, 183.82324, 186.00293, 191.09619, 195.80273, 201.10254, 203.05371, 205.51904, 209.33789, 214.62891, 219.33545, 223.49268, 225.67236, 228.48926, 230.66895, 235.37549, 239.19434, 241.65967, 248.16357, 253.25684, 255.43652, 259.59375, 264.68701, 267.15234, 271.85889, 276.95215, 280.00195, 282.18164, 285.23145, " y="318, ">
				defined, specifies which entity
		</text>
		<text fill="gray" font-size="9" font-family="Segoe UI" x="171, 173.71582, 179.00684, 183.71338, 186.84229, 190.66113, 195.93457, 201.02783, 202.979, 205.44434, 210.71777, 213.84668, 219.14648, 223.72559, 228.81885, 230.99854, 234.81738, 239.39648, 242.44629, 244.62598, 249.89941, 254.99268, 257.45801, 262.73145, " y="330, ">
				(person, organisation or
		</text>
		<text fill="gray" font-size="9" font-family="Segoe UI" x="171, 174.81885, 179.17383, 182.99268, 186.04248, 190.74902, 198.50098, 201.2168, 203.68213, 210.18604, 212.36572, 214.54541, 216.7251, 219.19043, 223.89697, 229.19678, 231.37646, 234.42627, 236.8916, 239.94141, 245.03467, 249.74121, 252.20654, 257.49756, 260.62646, 265.8999, 271.19092, 275.89746, 279.02637, 282.07617, " y="342, ">
				system) will edit the property
		</text>
		<text fill="gray" font-size="9" font-family="Segoe UI" x="171, 174.59912, 177.06445, 181.771, 185.90186, 191.19287, 194.32178, 199.02832, 202.84717, 206.66602, 211.37256, 216.67236, 219.1377, 224.42871, 228.78369, 231.24902, 235.82812, 238.29346, 244.47656, 249.85986, 252.25488, 254.20605, 256.67139, 259.06641, 261.8833, 264.34863, 267.39844, 272.4917, " y="354, ">
				- expressed by a URI. If the
		</text>
		<text fill="gray" font-size="9" font-family="Segoe UI" x="171, 176.29102, 179.41992, 184.69336, 189.98438, 194.69092, 197.81982, 200.86963, 205.22461, 207.68994, 212.00098, 216.58008, 218.75977, 223.85303, 228.55957, 231.0249, 233.20459, 237.02344, 239.48877, 244.78857, 249.49512, 252.31201, 254.4917, 259.58496, 264.2915, 269.59131, " y="366, ">
				property value is defined,
		</text>
		<text fill="gray" font-size="9" font-family="Segoe UI" x="171, 174.81885, 180.10986, 184.81641, 188.97363, 191.15332, 193.97021, 196.1499, 200.85645, 204.67529, 207.14062, 213.64453, 218.73779, 220.91748, 225.07471, 230.16797, 232.6333, 237.33984, 242.43311, 245.48291, 247.6626, 250.7124, 255.06738, 257.53271, 260.24854, 265.53955, 270.24609, 273.375, 277.19385, 282.46729, 287.56055, " y="378, ">
				specifies which entity (person,
		</text>
		<text fill="gray" font-size="9" font-family="Segoe UI" x="171, 176.27344, 179.40234, 184.70215, 189.28125, 194.37451, 196.5542, 200.37305, 204.95215, 208.00195, 210.18164, 215.45508, 220.54834, 223.01367, 228.28711, 231.41602, 233.88135, 237.7002, 242.05518, 245.87402, 248.92383, 253.63037, 261.38232, 264.09814, 266.56348, 271.65674, 276.23584, " y="390, ">
				organisation or system) has
		</text>
		<text fill="gray" font-size="9" font-family="Segoe UI" x="171, 175.70654, 181.00635, 183.18604, 186.23584, 190.94238, 196.24219, 198.70752, 201.75732, 206.85059, 211.55713, 214.02246, 219.31348, 222.44238, 227.71582, 233.00684, 237.71338, 240.84229, 243.89209, 248.24707, " y="402, ">
				edited the property.
		</text>
		<rect fill="white" x="175" y="271" width="57" height="16"/>
		<text font-size="12" font-weight="600" font-family="Segoe UI" x="175, 180.75977, 185.48828, 191.98047, 198.4375, 203.06055, 210.39648, 215.20703, 222.4668, 227.28906, " y="284, ">
				creatoruri
		</text>
		<rect fill="none" stroke="black" stroke-width="1" stroke-linecap="square" stroke-miterlimit="4" transform="translate(0.5 0.5)" x="166" y="269" width="72" height="20"/>
		<rect fill="silver" x="170" y="415" width="69" height="21"/>
		<rect fill="white" x="166" y="411" width="69" height="21"/>
		<rect fill="white" x="171" y="438" width="119" height="72"/>
		<text fill="gray" font-size="9" font-family="Segoe UI" x="171, 175.71533, 180.80859, 185.51514, 187.98047, 193.28027, 197.85938, 200.90918, 205.61572, 208.08105, 210.79688, 215.37598, 220.46924, 225.76904, 227.72021, 230.18555, 235.45898, 240.75, 243.7998, 245.97949, 251.25293, 256.34619, 260.92529, 263.10498, 265.28467, 269.63965, 271.59082, 274.05615, 277.10596, 282.19922, " y="448, ">
				The date (and, optionally, the
		</text>
		<text fill="gray" font-size="9" font-family="Segoe UI" x="171, 174.0498, 176.22949, 183.98145, 188.68799, 191.40381, 193.86914, 200.37305, 205.46631, 210.17285, 215.26611, 217.73145, 220.78125, 225.87451, 230.58105, 233.04639, 238.3374, 241.46631, 246.73975, 252.03076, 256.7373, 259.86621, 262.91602, 267.271, 269.73633, 276.24023, 280.81934, " y="460, ">
				time) when the property was
		</text>
		<text fill="gray" font-size="9" font-family="Segoe UI" x="171, 173.17969, 177.75879, 181.57764, 184.62744, 187.09277, 194.84473, 200.11816, 205.41797, 207.59766, 210.41455, 212.59424, 217.30078, 222.60059, 224.55176, 227.01709, 231.73242, 236.82568, 241.53223, 243.99756, 246.17725, 251.27051, 253.4502, 256.5, 258.67969, 263.25879, 265.43848, 267.90381, 272.21484, 276.79395, 278.97363, 284.06689, " y="472, ">
				last modified. The initial value
		</text>
		<text fill="gray" font-size="9" font-family="Segoe UI" x="171, 173.17969, 176.99854, 179.46387, 182.51367, 187.60693, 192.31348, 194.77881, 200.07861, 204.65771, 207.70752, 212.41406, 214.87939, 217.59521, 222.17432, 227.26758, 232.56738, 234.51855, 236.98389, 242.25732, 247.54834, 250.59814, 252.77783, 258.05127, 263.14453, 267.72363, 269.90332, 272.08301, 276.43799, " y="484, ">
				is the date (and, optionally,
		</text>
		<text fill="gray" font-size="9" font-family="Segoe UI" x="171, 174.0498, 179.14307, 183.84961, 186.31494, 189.36475, 191.54443, 199.29639, 204.00293, 206.71875, 209.18408, 214.45752, 217.27441, 219.73975, 223.89697, 227.02588, 231.73242, 236.31152, 239.36133, 241.54102, 246.81445, 251.90771, 254.37305, 259.64648, 262.46338, 264.92871, 267.97852, 273.07178, " y="496, ">
				the time) of creation of the
		</text>
		<text fill="gray" font-size="9" font-family="Segoe UI" x="171, 176.29102, 179.41992, 184.69336, 189.98438, 194.69092, 197.81982, 200.86963, 205.22461, " y="508, ">
				property.
		</text>
		<rect fill="white" x="175" y="413" width="53" height="16"/>
		<text font-size="12" font-weight="600" font-family="Segoe UI" x="175, 185.99219, 193.32812, 200.75781, 204.16797, 208.76758, 212.17773, 218.66992, " y="426, ">
				modified
		</text>
		<rect fill="none" stroke="black" stroke-width="1" stroke-linecap="square" stroke-miterlimit="4" transform="translate(0.5 0.5)" x="166" y="411" width="68" height="20"/>
		<rect fill="silver" x="170" y="521" width="59" height="21"/>
		<rect fill="white" x="166" y="517" width="59" height="21"/>
		<rect fill="white" x="171" y="544" width="118" height="108"/>
		<text fill="gray" font-size="9" font-family="Segoe UI" x="171, 173.39502, 176.21191, 178.67725, 182.49609, 187.20264, 190.25244, 192.71777, 195.76758, 201.04102, 203.50635, 206.55615, 209.68506, 214.77832, 219.48486, 221.9502, 225, 230.09326, " y="554, ">
				If set to true the
		</text>
		<text fill="gray" font-size="9" font-family="Segoe UI" x="171, 175.15723, 180.43066, 183.55957, 186.68848, 191.39502, 195.21387, 200.50488, 205.77832, 210.87158, 216.17139, 218.35107, 223.44434, 228.74414, 231.20947, 236.50049, 239.62939, 244.90283, 250.19385, 254.90039, 258.0293, 261.0791, 265.43408, 267.89941, 274.40332, 278.98242, " y="566, ">
				corresponding property was
		</text>
		<text fill="gray" font-size="9" font-family="Segoe UI" x="171, 175.5791, 180.87891, 186.17871, 190.88525, 196.18506, 198.65039, 201.7002, 206.97363, 209.43896, 212.48877, 217.58203, 222.28857, 224.75391, 230.92822, 235.77979, 238.24512, 240.64014, 243.68994, 248.39648, 256.14844, 258.61377, 261.43066, 266.7041, 269.83301, 272.29834, " y="578, ">
				added to the G2 Item for a
		</text>
		<text fill="gray" font-size="9" font-family="Segoe UI" x="171, 174.81885, 180.10986, 184.81641, 188.97363, 191.15332, 193.97021, 196.1499, 200.30713, 202.77246, 206.92969, 212.02295, 215.8418, 218.8916, 224.16504, 231.91699, 236.62354, 239.75244, 242.21777, 247.49121, 250.62012, 253.08545, 258.38525, 261.51416, 266.7876, 271.88086, 277.17188, 279.63721, 284.91064, " y="590, ">
				specific customer or group of
		</text>
		<text fill="gray" font-size="9" font-family="Segoe UI" x="171, 175.15723, 180.25049, 184.06934, 187.11914, 192.39258, 200.14453, 204.85107, 207.97998, 211.79883, 214.26416, 219.5376, 224.63086, 226.81055, 231.16553, 233.1167, 235.58203, 240.29736, 245.39062, 250.09717, 252.5625, 257.8623, 262.56885, 265.38574, 269.96484, 275.05811, 277.23779, " y="602, ">
				customers only. The default
		</text>
		<text fill="gray" font-size="9" font-family="Segoe UI" x="171, 175.31104, 179.89014, 182.06982, 187.16309, 191.86963, 194.33496, 199.6084, 202.42529, 204.89062, 207.94043, 213.03369, 215.21338, 219.03223, 221.49756, 226.78857, 229.91748, 235.19092, 240.48193, 245.18848, 248.31738, 251.36719, 255.72217, 258.1875, 260.36719, 264.18604, 266.65137, 269.46826, 274.04736, 276.22705, 280.0459, " y="614, ">
				value of this property is false
		</text>
		<text fill="gray" font-size="9" font-family="Segoe UI" x="171, 177.50391, 182.59717, 184.77686, 188.93408, 194.02734, 196.49268, 201.07178, 206.36279, 211.65381, 213.8335, 216.01318, 220.71973, 224.53857, 227.00391, 233.50781, 238.60107, 243.30762, 248.40088, 250.86621, 253.91602, 259.00928, 261.18896, " y="626, ">
				which applies when this
		</text>
		<text fill="gray" font-size="9" font-family="Segoe UI" x="171, 175.5791, 178.62891, 181.67871, 184.80762, 186.9873, 192.27832, 197.37158, 200.42139, 205.12793, 207.59326, 209.77295, 213.5918, 216.05713, 221.15039, 226.42383, 229.47363, 231.93896, 237.03223, 240.85107, 245.55762, 250.85742, 253.32275, 259.82666, 262.00635, 265.05615, 270.14941, 272.61475, 275.66455, 280.75781, " y="638, ">
				attribute is not used with the
		</text>
		<text fill="gray" font-size="9" font-family="Segoe UI" x="171, 176.29102, 179.41992, 184.69336, 189.98438, 194.69092, 197.81982, 200.86963, 205.22461, " y="650, ">
				property.
		</text>
		<rect fill="white" x="175" y="519" width="43" height="16"/>
		<text font-size="12" font-weight="600" font-family="Segoe UI" x="175, 180.75977, 188.01953, 193.29883, 197.92188, 205.25781, " y="532, ">
				custom
		</text>
		<rect fill="none" stroke="black" stroke-width="1" stroke-linecap="square" stroke-miterlimit="4" transform="translate(0.5 0.5)" x="166" y="517" width="58" height="20"/>
		<rect fill="silver" x="170" y="663" width="52" height="21"/>
		<rect fill="white" x="166" y="659" width="52" height="21"/>
		<rect fill="white" x="171" y="686" width="118" height="48"/>
		<text fill="gray" font-size="9" font-family="Segoe UI" x="171, 173.39502, 178.48828, 183.78809, 185.96777, 190.125, 194.7041, 197.75391, 202.46045, 206.2793, 208.74463, 214.03564, 218.39062, 220.85596, 227.35986, 232.45312, 234.63281, 238.79004, 243.8833, 246.34863, 254.10059, 258.80713, 263.38623, 268.47949, 272.29834, 274.76367, 277.81348, 282.90674, " y="696, ">
				Indicates by which means the
		</text>
		<text fill="gray" font-size="9" font-family="Segoe UI" x="171, 175.31104, 179.89014, 182.06982, 187.16309, 191.86963, 194.33496, 200.83887, 205.41797, 209.23682, 211.70215, 216.40869, 220.53955, 223.58936, 226.71826, 231.29736, 235.45459, 238.50439, 243.21094, 248.51074, 250.97607, 253.79297, 256.92188, 262.19531, 269.94727, 272.4126, 275.4624, 280.55566, " y="708, ">
				value was extracted from the
		</text>
		<text fill="gray" font-size="9" font-family="Segoe UI" x="171, 175.15723, 180.43066, 185.52393, 188.57373, 193.28027, 198.37354, 201.42334, 203.88867, 207.48779, 209.95312, 214.65967, 218.79053, 224.08154, 227.21045, 231.91699, 235.73584, 239.55469, 244.26123, 249.56104, 252.02637, 257.31738, 261.67236, 264.1377, " y="720, ">
				content - expressed by a
		</text>
		<text fill="gray" font-size="9" font-family="Segoe UI" x="171, 177.78516, 183.35742, 188.63086, 193.93066, " y="732, ">
				QCode
		</text>
		<rect fill="white" x="175" y="661" width="36" height="16"/>
		<text font-size="12" font-weight="600" font-family="Segoe UI" x="175, 182.22461, 189.56055, " y="674, ">
				how
		</text>
		<rect fill="none" stroke="black" stroke-width="1" stroke-linecap="square" stroke-miterlimit="4" transform="translate(0.5 0.5)" x="166" y="659" width="51" height="20"/>
		<rect fill="silver" x="170" y="745" width="57" height="21"/>
		<rect fill="white" x="166" y="741" width="57" height="21"/>
		<rect fill="white" x="171" y="768" width="118" height="36"/>
		<text fill="gray" font-size="9" font-family="Segoe UI" x="171, 173.39502, 178.48828, 183.78809, 185.96777, 190.125, 194.7041, 197.75391, 202.46045, 206.2793, 208.74463, 214.03564, 218.39062, 220.85596, 227.35986, 232.45312, 234.63281, 238.79004, 243.8833, 246.34863, 254.10059, 258.80713, 263.38623, 268.47949, 272.29834, 274.76367, 277.81348, 282.90674, " y="778, ">
				Indicates by which means the
		</text>
		<text fill="gray" font-size="9" font-family="Segoe UI" x="171, 175.31104, 179.89014, 182.06982, 187.16309, 191.86963, 194.33496, 200.83887, 205.41797, 209.23682, 211.70215, 216.40869, 220.53955, 223.58936, 226.71826, 231.29736, 235.45459, 238.50439, 243.21094, 248.51074, 250.97607, 253.79297, 256.92188, 262.19531, 269.94727, 272.4126, 275.4624, 280.55566, " y="790, ">
				value was extracted from the
		</text>
		<text fill="gray" font-size="9" font-family="Segoe UI" x="171, 175.15723, 180.43066, 185.52393, 188.57373, 193.28027, 198.37354, 201.42334, 203.88867, 207.48779, 209.95312, 214.65967, 218.79053, 224.08154, 227.21045, 231.91699, 235.73584, 239.55469, 244.26123, 249.56104, 252.02637, 257.31738, 261.67236, 264.1377, 268.7168, 271.18213, 277.36523, 282.74854, " y="802, ">
				content - expressed by a URI
		</text>
		<rect fill="white" x="175" y="743" width="41" height="16"/>
		<text font-size="12" font-weight="600" font-family="Segoe UI" x="175, 182.22461, 189.56055, 199.12891, 206.38867, 211.21094, " y="756, ">
				howuri
		</text>
		<rect fill="none" stroke="black" stroke-width="1" stroke-linecap="square" stroke-miterlimit="4" transform="translate(0.5 0.5)" x="166" y="741" width="56" height="20"/>
		<rect fill="silver" x="170" y="815" width="52" height="21"/>
		<rect fill="white" x="166" y="811" width="52" height="21"/>
		<rect fill="white" x="171" y="838" width="113" height="36"/>
		<text fill="gray" font-size="9" font-family="Segoe UI" x="171, 179.40674, 184.5, 188.85498, 191.32031, 194.37012, 199.46338, 204.16992, 206.63525, 214.38721, 219.09375, 222.14355, 226.72266, 232.02246, 236.60156, 239.65137, 244.23047, 246.6958, 251.78906, 256.36816, 260.18701, 262.65234, 267.94336, 272.6499, 277.35645, " y="848, ">
				Why the metadata has been
		</text>
		<text fill="gray" font-size="9" font-family="Segoe UI" x="171, 173.17969, 178.27295, 182.43018, 184.60986, 189.70312, 195.00293, 199.70947, 205.00928, 207.47461, 211.07373, 213.53906, 218.24561, 222.37646, 227.66748, 230.79639, 235.50293, 239.32178, 243.14062, 247.84717, 253.14697, 255.6123, 260.90332, 265.2583, 267.72363, " y="860, ">
				included - expressed by a
		</text>
		<text fill="gray" font-size="9" font-family="Segoe UI" x="171, 177.78516, 183.35742, 188.63086, 193.93066, " y="872, ">
				QCode
		</text>
		<rect fill="white" x="175" y="813" width="36" height="16"/>
		<text font-size="12" font-weight="600" font-family="Segoe UI" x="175, 184.56836, 191.79297, " y="826, ">
				why
		</text>
		<rect fill="none" stroke="black" stroke-width="1" stroke-linecap="square" stroke-miterlimit="4" transform="translate(0.5 0.5)" x="166" y="811" width="51" height="20"/>
		<rect fill="silver" x="170" y="885" width="56" height="21"/>
		<rect fill="white" x="166" y="881" width="56" height="21"/>
		<rect fill="white" x="171" y="908" width="119" height="24"/>
		<text fill="gray" font-size="9" font-family="Segoe UI" x="171, 179.40674, 184.5, 188.85498, 191.32031, 194.37012, 199.46338, 204.16992, 206.63525, 214.38721, 219.09375, 222.14355, 226.72266, 232.02246, 236.60156, 239.65137, 244.23047, 246.6958, 251.78906, 256.36816, 260.18701, 262.65234, 267.94336, 272.6499, 277.35645, " y="918, ">
				Why the metadata has been
		</text>
		<text fill="gray" font-size="9" font-family="Segoe UI" x="171, 173.17969, 178.27295, 182.43018, 184.60986, 189.70312, 195.00293, 199.70947, 205.00928, 207.47461, 211.07373, 213.53906, 218.24561, 222.37646, 227.66748, 230.79639, 235.50293, 239.32178, 243.14062, 247.84717, 253.14697, 255.6123, 260.90332, 265.2583, 267.72363, 272.30273, 274.76807, 280.95117, 286.33447, " y="930, ">
				included - expressed by a URI
		</text>
		<rect fill="white" x="175" y="883" width="40" height="16"/>
		<text font-size="12" font-weight="600" font-family="Segoe UI" x="175, 184.56836, 191.79297, 198.25, 205.50977, 210.33203, " y="896, ">
				whyuri
		</text>
		<rect fill="none" stroke="black" stroke-width="1" stroke-linecap="square" stroke-miterlimit="4" transform="translate(0.5 0.5)" x="166" y="881" width="55" height="20"/>
		<rect fill="silver" x="170" y="943" width="97" height="21"/>
		<rect fill="white" x="166" y="939" width="97" height="21"/>
		<rect fill="white" x="171" y="966" width="117" height="72"/>
		<text fill="gray" font-size="9" font-family="Segoe UI" x="171, 177.78516, 182.87842, 187.58496, 190.05029, 195.32373, 198.45264, 200.91797, 208.66992, 213.24902, 218.34229, 222.69727, 225.1626, 229.31982, 234.59326, 239.68652, 243.50537, 246.55518, 249.68408, 254.26318, 256.44287, 261.53613, 264.58594, 268.40479, 270.87012, 273.91992, 279.01318, 283.59229, " y="976, ">
				One or many constraints that
		</text>
		<text fill="gray" font-size="9" font-family="Segoe UI" x="171, 175.5791, 180.87012, 186.16113, 188.34082, 192.6958, 195.16113, 198.21094, 203.48438, 205.94971, 211.24072, 216.33398, 221.625, 223.80469, 225.98438, 229.80322, 234.89648, 237.07617, 242.16943, 247.46924, 249.93457, 252.98438, 258.07764, 262.78418, 265.24951, 269.56055, 274.13965, 276.31934, 281.4126, " y="988, ">
				apply to publishing the value
		</text>
		<text fill="gray" font-size="9" font-family="Segoe UI" x="171, 176.27344, 179.09033, 181.55566, 184.60547, 189.69873, 194.40527, 196.87061, 202.16162, 205.29053, 210.56396, 215.85498, 220.56152, 223.69043, 226.74023, 231.09521, 233.56055, 237.15967, 239.625, 244.33154, 248.4624, 253.75342, 256.88232, 261.58887, 265.40771, 269.22656, 273.93311, " y="1000, ">
				of the property - expressed
		</text>
		<text fill="gray" font-size="9" font-family="Segoe UI" x="171, 176.29102, 180.646, 183.11133, 187.69043, 190.15576, 196.94092, 202.51318, 207.78662, 213.08643, 217.79297, 219.74414, 222.20947, 226.76221, 231.34131, 235.49854, 240.5918, 243.05713, 247.21436, 252.48779, 257.58105, 261.3999, 264.44971, 267.57861, 272.15771, 274.3374, 279.43066, " y="1012, ">
				by a QCode. Each constraint
		</text>
		<text fill="gray" font-size="9" font-family="Segoe UI" x="171, 175.5791, 180.87012, 186.16113, 188.34082, 190.52051, 195.22705, 199.0459, 201.51123, 204.56104, 209.83447, 212.2998, 216.87891, 219.05859, 221.23828, 223.70361, 229.00342, 233.70996, 237.52881, 241.68604, 246.39258, 251.48584, 256.78564, 261.36475, 266.45801, " y="1024, ">
				applies to all descendant
		</text>
		<text fill="gray" font-size="9" font-family="Segoe UI" x="171, 175.70654, 177.88623, 182.59277, 190.34473, 195.05127, 200.14453, 203.19434, 207.01318, " y="1036, ">
				elements.
		</text>
		<rect fill="white" x="175" y="941" width="81" height="16"/>
		<text font-size="12" font-weight="600" font-family="Segoe UI" x="175, 182.44141, 189.70117, 197.14258, 202.90234, 210.23828, 217.49805, 222.77734, 227.44727, 232.22266, 238.67969, 242.08984, 249.34961, " y="954, ">
				pubconstraint
		</text>
		<rect fill="none" stroke="black" stroke-width="1" stroke-linecap="square" stroke-miterlimit="4" transform="translate(0.5 0.5)" x="166" y="939" width="96" height="20"/>
		<rect fill="silver" x="170" y="1049" width="112" height="21"/>
		<rect fill="white" x="166" y="1045" width="112" height="21"/>
		<rect fill="white" x="171" y="1072" width="117" height="72"/>
		<text fill="gray" font-size="9" font-family="Segoe UI" x="171, 177.78516, 182.87842, 187.58496, 190.05029, 195.32373, 198.45264, 200.91797, 208.66992, 213.24902, 218.34229, 222.69727, 225.1626, 229.31982, 234.59326, 239.68652, 243.50537, 246.55518, 249.68408, 254.26318, 256.44287, 261.53613, 264.58594, 268.40479, 270.87012, 273.91992, 279.01318, 283.59229, " y="1082, ">
				One or many constraints that
		</text>
		<text fill="gray" font-size="9" font-family="Segoe UI" x="171, 175.5791, 180.87012, 186.16113, 188.34082, 192.6958, 195.16113, 198.21094, 203.48438, 205.94971, 211.24072, 216.33398, 221.625, 223.80469, 225.98438, 229.80322, 234.89648, 237.07617, 242.16943, 247.46924, 249.93457, 252.98438, 258.07764, 262.78418, 265.24951, 269.56055, 274.13965, 276.31934, 281.4126, " y="1094, ">
				apply to publishing the value
		</text>
		<text fill="gray" font-size="9" font-family="Segoe UI" x="171, 176.27344, 179.09033, 181.55566, 184.60547, 189.69873, 194.40527, 196.87061, 202.16162, 205.29053, 210.56396, 215.85498, 220.56152, 223.69043, 226.74023, 231.09521, 233.56055, 237.15967, 239.625, 244.33154, 248.4624, 253.75342, 256.88232, 261.58887, 265.40771, 269.22656, 273.93311, " y="1106, ">
				of the property - expressed
		</text>
		<text fill="gray" font-size="9" font-family="Segoe UI" x="171, 176.29102, 180.646, 183.11133, 187.69043, 190.15576, 196.33887, 201.72217, 204.11719, 206.06836, 208.53369, 213.08643, 217.66553, 221.82275, 226.91602, 229.38135, 233.53857, 238.81201, 243.90527, 247.72412, 250.77393, 253.90283, 258.48193, 260.66162, 265.75488, " y="1118, ">
				by a URI. Each constraint
		</text>
		<text fill="gray" font-size="9" font-family="Segoe UI" x="171, 175.5791, 180.87012, 186.16113, 188.34082, 190.52051, 195.22705, 199.0459, 201.51123, 204.56104, 209.83447, 212.2998, 216.87891, 219.05859, 221.23828, 223.70361, 229.00342, 233.70996, 237.52881, 241.68604, 246.39258, 251.48584, 256.78564, 261.36475, 266.45801, " y="1130, ">
				applies to all descendant
		</text>
		<text fill="gray" font-size="9" font-family="Segoe UI" x="171, 175.70654, 177.88623, 182.59277, 190.34473, 195.05127, 200.14453, 203.19434, 207.01318, " y="1142, ">
				elements.
		</text>
		<rect fill="white" x="175" y="1047" width="96" height="16"/>
		<text font-size="12" font-weight="600" font-family="Segoe UI" x="175, 182.44141, 189.70117, 197.14258, 202.90234, 210.23828, 217.49805, 222.77734, 227.44727, 232.22266, 238.67969, 242.08984, 249.34961, 254.01953, 261.2793, 266.10156, " y="1060, ">
				pubconstrainturi
		</text>
		<rect fill="none" stroke="black" stroke-width="1" stroke-linecap="square" stroke-miterlimit="4" transform="translate(0.5 0.5)" x="166" y="1045" width="111" height="20"/>
		<rect x="149" y="5" width="11" height="11"/>
		<rect fill="white" x="150" y="6" width="9" height="9"/>
		<rect x="151" y="10" width="7" height="1"/>
		<path fill="none" stroke="black" stroke-width="1" stroke-linecap="square" stroke-miterlimit="4" transform="translate(0.5 0.5)" d="M189 1441L197 1441"/>
		<path fill="none" stroke="black" stroke-width="1" stroke-linecap="square" stroke-miterlimit="4" transform="translate(0.5 0.5)" d="M198 1441L198 1231"/>
		<path transform="translate(0.5 0.5)" d="M198.5 1441L198.5 1443L198.5 1443.5L197.5 1443.5L197.5 1443L197.5 1440.5L198.5 1440.5L198.5 1441ZM198.5 1447L198.5 1449L198.5 1449.5L197.5 1449.5L197.5 1449L197.5 1446.5L198.5 1446.5L198.5 1447ZM198.5 1453L198.5 1455L198.5 1455.5L197.5 1455.5L197.5 1455L197.5 1452.5L198.5 1452.5L198.5 1453ZM198.5 1459L198.5 1461L198.5 1461.5L197.5 1461.5L197.5 1461L197.5 1458.5L198.5 1458.5L198.5 1459ZM198.5 1465L198.5 1467L198.5 1467.5L197.5 1467.5L197.5 1467L197.5 1464.5L198.5 1464.5L198.5 1465ZM198.5 1471L198.5 1473L198.5 1473.5L197.5 1473.5L197.5 1473L197.5 1470.5L198.5 1470.5L198.5 1471ZM198.5 1477L198.5 1479L198.5 1479.5L197.5 1479.5L197.5 1479L197.5 1476.5L198.5 1476.5L198.5 1477ZM198.5 1483L198.5 1485L198.5 1485.5L197.5 1485.5L197.5 1485L197.5 1482.5L198.5 1482.5L198.5 1483ZM198.5 1489L198.5 1491L198.5 1491.5L197.5 1491.5L197.5 1491L197.5 1488.5L198.5 1488.5L198.5 1489ZM198.5 1495L198.5 1497L198.5 1497.5L197.5 1497.5L197.5 1497L197.5 1494.5L198.5 1494.5L198.5 1495ZM198.5 1501L198.5 1503L198.5 1503.5L197.5 1503.5L197.5 1503L197.5 1500.5L198.5 1500.5L198.5 1501ZM198.5 1507L198.5 1509L198.5 1509.5L197.5 1509.5L197.5 1509L197.5 1506.5L198.5 1506.5L198.5 1507ZM198.5 1513L198.5 1515L198.5 1515.5L197.5 1515.5L197.5 1515L197.5 1512.5L198.5 1512.5L198.5 1513ZM198.5 1519L198.5 1521L198.5 1521.5L197.5 1521.5L197.5 1521L197.5 1518.5L198.5 1518.5L198.5 1519ZM198.5 1525L198.5 1527L198.5 1527.5L197.5 1527.5L197.5 1527L197.5 1524.5L198.5 1524.5L198.5 1525ZM198.5 1531L198.5 1533L198.5 1533.5L197.5 1533.5L197.5 1533L197.5 1530.5L198.5 1530.5L198.5 1531ZM198.5 1537L198.5 1539L198.5 1539.5L197.5 1539.5L197.5 1539L197.5 1536.5L198.5 1536.5L198.5 1537ZM198.5 1543L198.5 1545L198.5 1545.5L197.5 1545.5L197.5 1545L197.5 1542.5L198.5 1542.5L198.5 1543ZM198.5 1549L198.5 1551L198.5 1551.5L197.5 1551.5L197.5 1551L197.5 1548.5L198.5 1548.5L198.5 1549ZM198.5 1555L198.5 1557L198.5 1557.5L197.5 1557.5L197.5 1557L197.5 1554.5L198.5 1554.5L198.5 1555ZM198.5 1561L198.5 1563L198.5 1563.5L197.5 1563.5L197.5 1563L197.5 1560.5L198.5 1560.5L198.5 1561ZM198.5 1567L198.5 1569L198.5 1569.5L197.5 1569.5L197.5 1569L197.5 1566.5L198.5 1566.5L198.5 1567ZM198.5 1573L198.5 1575L198.5 1575.5L197.5 1575.5L197.5 1575L197.5 1572.5L198.5 1572.5L198.5 1573ZM198.5 1579L198.5 1581L198.5 1581.5L197.5 1581.5L197.5 1581L197.5 1578.5L198.5 1578.5L198.5 1579ZM198.5 1585L198.5 1587L198.5 1587.5L197.5 1587.5L197.5 1587L197.5 1584.5L198.5 1584.5L198.5 1585ZM198.5 1591L198.5 1593L198.5 1593.5L197.5 1593.5L197.5 1593L197.5 1590.5L198.5 1590.5L198.5 1591ZM198.5 1597L198.5 1599L198.5 1599.5L197.5 1599.5L197.5 1599L197.5 1596.5L198.5 1596.5L198.5 1597ZM198.5 1603L198.5 1605L198.5 1605.5L197.5 1605.5L197.5 1605L197.5 1602.5L198.5 1602.5L198.5 1603ZM198.5 1609L198.5 1611L198.5 1611.5L197.5 1611.5L197.5 1611L197.5 1608.5L198.5 1608.5L198.5 1609ZM198.5 1615L198.5 1617L198.5 1617.5L197.5 1617.5L197.5 1617L197.5 1614.5L198.5 1614.5L198.5 1615ZM198.5 1621L198.5 1623L198.5 1623.5L197.5 1623.5L197.5 1623L197.5 1620.5L198.5 1620.5L198.5 1621ZM198.5 1627L198.5 1629L198.5 1629.5L197.5 1629.5L197.5 1629L197.5 1626.5L198.5 1626.5L198.5 1627ZM198.5 1633L198.5 1635L198.5 1635.5L197.5 1635.5L197.5 1635L197.5 1632.5L198.5 1632.5L198.5 1633ZM198.5 1639L198.5 1641L198.5 1641.5L197.5 1641.5L197.5 1641L197.5 1638.5L198.5 1638.5L198.5 1639ZM198.5 1645L198.5 1647.5L197.5 1647.5L197.5 1644.5L198.5 1644.5L198.5 1645Z"/>
		<path fill="none" stroke="black" stroke-width="1" stroke-linecap="square" stroke-miterlimit="4" transform="translate(0.5 0.5)" d="M198 1230L212 1230"/>
		<path transform="translate(0.5 0.5)" d="M198 1317.5L200 1317.5L200.5 1317.5L200.5 1318.5L200 1318.5L197.5 1318.5L197.5 1317.5L198 1317.5ZM204 1317.5L206 1317.5L206.5 1317.5L206.5 1318.5L206 1318.5L203.5 1318.5L203.5 1317.5L204 1317.5ZM210 1317.5L212.5 1317.5L212.5 1318.5L209.5 1318.5L209.5 1317.5L210 1317.5Z"/>
		<path transform="translate(0.5 0.5)" d="M198 1487.5L200 1487.5L200.5 1487.5L200.5 1488.5L200 1488.5L197.5 1488.5L197.5 1487.5L198 1487.5ZM204 1487.5L206 1487.5L206.5 1487.5L206.5 1488.5L206 1488.5L203.5 1488.5L203.5 1487.5L204 1487.5ZM210 1487.5L212.5 1487.5L212.5 1488.5L209.5 1488.5L209.5 1487.5L210 1487.5Z"/>
		<path transform="translate(0.5 0.5)" d="M198 1651.5L200 1651.5L200.5 1651.5L200.5 1652.5L200 1652.5L197.5 1652.5L197.5 1651.5L198 1651.5ZM204 1651.5L206 1651.5L206.5 1651.5L206.5 1652.5L206 1652.5L203.5 1652.5L203.5 1651.5L204 1651.5ZM210 1651.5L212.5 1651.5L212.5 1652.5L209.5 1652.5L209.5 1651.5L210 1651.5Z"/>
		<path fill="silver" d="M148 1440L153 1435L178 1435L183 1440L183 1451L178 1456L153 1456L148 1451L148 1440Z"/>
		<path fill="white" d="M144 1436L149 1431L174 1431L179 1436L179 1447L174 1452L149 1452L144 1447L144 1436Z"/>
		<path fill="none" stroke="black" stroke-width="1" stroke-linecap="square" stroke-miterlimit="4" transform="translate(0.5 0.5)" d="M149 1441L173 1441"/>
		<rect x="155" y="1440" width="3" height="3"/>
		<rect x="160" y="1440" width="3" height="3"/>
		<rect x="165" y="1440" width="3" height="3"/>
		<path fill="none" stroke="black" stroke-width="1" stroke-linecap="square" stroke-miterlimit="4" transform="translate(0.5 0.5)" d="M144 1436L149 1431L173 1431L178 1436L178 1446L173 1451L149 1451L144 1446L144 1436Z"/>
		<rect fill="silver" x="217" y="1224" width="52" height="21"/>
		<rect fill="white" x="213" y="1220" width="52" height="21"/>
		<rect fill="white" x="218" y="1247" width="76" height="24"/>
		<text fill="gray" font-size="9" font-family="Segoe UI" x="218, 222.71533, 227.80859, 232.51514, 234.98047, 240.28027, 244.85938, 247.90918, 252.61572, 255.08105, 258.13086, 263.22412, 267.93066, 270.396, 275.10254, 279.41357, 284.12012, 289.21338, " y="1257, ">
				The date the event
		</text>
		<text fill="gray" font-size="9" font-family="Segoe UI" x="218, 222.15723, 227.43066, 235.18262, 242.93457, 247.64111, 252.73438, 256.8916, 261.59814, 265.41699, " y="1269, ">
				commences.
		</text>
		<rect fill="white" x="222" y="1222" width="31" height="16"/>
		<text font-size="12" font-weight="600" font-family="Segoe UI" x="222, 227.2793, 231.94922, 238.40625, 243.52734, " y="1235, ">
				start
		</text>
		<path fill="none" stroke="black" stroke-width="1" stroke-linecap="square" stroke-miterlimit="4" transform="translate(0.5 0.5)" d="M215 1222L220 1222"/>
		<path fill="none" stroke="black" stroke-width="1" stroke-linecap="square" stroke-miterlimit="4" transform="translate(0.5 0.5)" d="M215 1224L219 1224"/>
		<path fill="none" stroke="black" stroke-width="1" stroke-linecap="square" stroke-miterlimit="4" transform="translate(0.5 0.5)" d="M215 1226L219 1226"/>
		<rect fill="none" stroke="black" stroke-width="1" stroke-linecap="square" stroke-miterlimit="4" transform="translate(0.5 0.5)" x="213" y="1220" width="51" height="20"/>
		<rect x="259" y="1225" width="11" height="11"/>
		<rect fill="white" x="260" y="1226" width="9" height="9"/>
		<rect x="261" y="1230" width="7" height="1"/>
		<rect x="264" y="1227" width="1" height="7"/>
		<path fill="none" stroke="black" stroke-width="1" stroke-linecap="square" stroke-miterlimit="4" transform="translate(0.5 0.5)" d="M258 1318L266 1318"/>
		<path fill="none" stroke="black" stroke-width="1" stroke-linecap="square" stroke-miterlimit="4" transform="translate(0.5 0.5)" d="M267 1318L267 1294"/>
		<path fill="none" stroke="black" stroke-width="1" stroke-linecap="square" stroke-miterlimit="4" transform="translate(0.5 0.5)" d="M267 1318L267 1343"/>
		<path fill="none" stroke="black" stroke-width="1" stroke-linecap="square" stroke-miterlimit="4" transform="translate(0.5 0.5)" d="M267 1293L281 1293"/>
		<path fill="none" stroke="black" stroke-width="1" stroke-linecap="square" stroke-miterlimit="4" transform="translate(0.5 0.5)" d="M267 1344L281 1344"/>
		<path fill="silver" d="M217 1317L222 1312L247 1312L252 1317L252 1328L247 1333L222 1333L217 1328L217 1317Z"/>
		<path fill="white" d="M213 1313L218 1308L243 1308L248 1313L248 1324L243 1329L218 1329L213 1324L213 1313Z"/>
		<path fill="none" stroke="black" stroke-width="1" stroke-linecap="square" stroke-miterlimit="4" transform="translate(0.5 0.5)" d="M218 1318L223 1318L227 1314"/>
		<path fill="none" stroke="black" stroke-width="1" stroke-linecap="square" stroke-miterlimit="4" transform="translate(0.5 0.5)" d="M233 1318L241 1318"/>
		<path fill="none" stroke="black" stroke-width="1" stroke-linecap="square" stroke-miterlimit="4" transform="translate(0.5 0.5)" d="M233 1314L237 1314L237 1322L233 1322"/>
		<rect x="229" y="1313" width="3" height="3"/>
		<rect x="229" y="1317" width="3" height="3"/>
		<rect x="229" y="1321" width="3" height="3"/>
		<path transform="translate(0.5 0.5)" d="M216.889 1308.4L217.793 1307.5L218.929 1307.5L219.429 1307.5L219.429 1308.5L218.929 1308.5L218 1308.5L218 1308L218.354 1308.35L217.243 1309.46L216.536 1308.76L216.889 1308.4ZM222.929 1307.5L224.929 1307.5L225.429 1307.5L225.429 1308.5L224.929 1308.5L222.429 1308.5L222.429 1307.5L222.929 1307.5ZM228.929 1307.5L230.929 1307.5L231.429 1307.5L231.429 1308.5L230.929 1308.5L228.429 1308.5L228.429 1307.5L228.929 1307.5ZM234.929 1307.5L236.929 1307.5L237.429 1307.5L237.429 1308.5L236.929 1308.5L234.429 1308.5L234.429 1307.5L234.929 1307.5ZM240.929 1307.5L242.207 1307.5L243.01 1308.3L243.364 1308.66L242.657 1309.36L242.303 1309.01L241.646 1308.35L242 1308L242 1308.5L240.429 1308.5L240.429 1307.5L240.929 1307.5ZM245.839 1311.13L247.253 1312.55L247.607 1312.9L246.899 1313.61L246.546 1313.25L244.778 1311.49L245.485 1310.78L245.839 1311.13ZM247.5 1316.86L247.5 1318.86L247.5 1319.36L246.5 1319.36L246.5 1318.86L246.5 1316.36L247.5 1316.36L247.5 1316.86ZM247.5 1322.86L247.5 1323.21L246.04 1324.67L245.686 1325.02L244.979 1324.31L245.333 1323.96L246.646 1322.65L247 1323L246.5 1323L246.5 1322.36L247.5 1322.36L247.5 1322.86ZM243.211 1327.5L242.207 1328.5L241.213 1328.5L240.713 1328.5L240.713 1327.5L241.213 1327.5L242 1327.5L242 1328L241.646 1327.65L242.858 1326.44L243.565 1327.14L243.211 1327.5ZM237.213 1328.5L235.213 1328.5L234.713 1328.5L234.713 1327.5L235.213 1327.5L237.713 1327.5L237.713 1328.5L237.213 1328.5ZM231.213 1328.5L229.213 1328.5L228.713 1328.5L228.713 1327.5L229.213 1327.5L231.713 1327.5L231.713 1328.5L231.213 1328.5ZM225.213 1328.5L223.213 1328.5L222.713 1328.5L222.713 1327.5L223.213 1327.5L225.713 1327.5L225.713 1328.5L225.213 1328.5ZM219.213 1328.5L217.793 1328.5L217.09 1327.8L216.737 1327.44L217.444 1326.74L217.797 1327.09L218.354 1327.65L218 1328L218 1327.5L219.713 1327.5L219.713 1328.5L219.213 1328.5ZM214.262 1324.97L212.847 1323.55L212.494 1323.2L213.201 1322.49L213.555 1322.85L215.322 1324.62L214.615 1325.32L214.262 1324.97ZM212.5 1319.28L212.5 1317.28L212.5 1316.78L213.5 1316.78L213.5 1317.28L213.5 1319.78L212.5 1319.78L212.5 1319.28ZM212.5 1313.28L212.5 1312.79L214.414 1310.88L215.121 1311.59L213.354 1313.35L213 1313L213.5 1313L213.5 1313.78L212.5 1313.78L212.5 1313.28Z"/>
		<rect fill="silver" x="286" y="1287" width="52" height="21"/>
		<rect fill="white" x="282" y="1283" width="52" height="21"/>
		<rect fill="white" x="287" y="1310" width="99" height="12"/>
		<text fill="gray" font-size="9" font-family="Segoe UI" x="287, 291.71533, 296.80859, 301.51514, 303.98047, 309.28027, 313.85938, 316.90918, 321.61572, 324.08105, 327.13086, 332.22412, 336.93066, 339.396, 344.10254, 348.41357, 353.12012, 358.21338, 361.26318, 363.72852, 368.43506, 373.52832, 378.82812, 382.64697, " y="1320, ">
				The date the event ends.
		</text>
		<rect fill="white" x="291" y="1285" width="31" height="16"/>
		<text font-size="12" font-weight="600" font-family="Segoe UI" x="291, 297.49219, 304.75195, " y="1298, ">
				end
		</text>
		<path fill="none" stroke="black" stroke-width="1" stroke-linecap="square" stroke-miterlimit="4" transform="translate(0.5 0.5)" d="M284 1285L289 1285"/>
		<path fill="none" stroke="black" stroke-width="1" stroke-linecap="square" stroke-miterlimit="4" transform="translate(0.5 0.5)" d="M284 1287L288 1287"/>
		<path fill="none" stroke="black" stroke-width="1" stroke-linecap="square" stroke-miterlimit="4" transform="translate(0.5 0.5)" d="M284 1289L288 1289"/>
		<rect fill="none" stroke="black" stroke-width="1" stroke-linecap="square" stroke-miterlimit="4" transform="translate(0.5 0.5)" x="282" y="1283" width="51" height="20"/>
		<rect x="328" y="1288" width="11" height="11"/>
		<rect fill="white" x="329" y="1289" width="9" height="9"/>
		<rect x="330" y="1293" width="7" height="1"/>
		<rect x="333" y="1290" width="1" height="7"/>
		<rect fill="silver" x="286" y="1338" width="71" height="21"/>
		<rect fill="white" x="282" y="1334" width="71" height="21"/>
		<rect fill="white" x="287" y="1361" width="118" height="12"/>
		<text fill="gray" font-size="9" font-family="Segoe UI" x="287, 291.71533, 296.80859, 301.51514, 303.98047, 309.27148, 313.97803, 317.10693, 319.28662, 324.56006, 329.85986, 332.3252, 335.375, 340.46826, 345.1748, 347.64014, 352.34668, 356.65771, 361.36426, 366.45752, 369.50732, 371.97266, 378.47656, 380.65625, 382.83594, 385.01562, 387.48096, 389.66064, 394.23975, 398.05859, 401.1084, " y="1371, ">
				The period the event will last.
		</text>
		<rect fill="white" x="291" y="1336" width="50" height="16"/>
		<text font-size="12" font-weight="600" font-family="Segoe UI" x="291, 298.42969, 305.68945, 310.46484, 316.92188, 321.5918, 325.00195, 332.33789, " y="1349, ">
				duration
		</text>
		<path fill="none" stroke="black" stroke-width="1" stroke-linecap="square" stroke-miterlimit="4" transform="translate(0.5 0.5)" d="M284 1336L289 1336"/>
		<path fill="none" stroke="black" stroke-width="1" stroke-linecap="square" stroke-miterlimit="4" transform="translate(0.5 0.5)" d="M284 1338L288 1338"/>
		<path fill="none" stroke="black" stroke-width="1" stroke-linecap="square" stroke-miterlimit="4" transform="translate(0.5 0.5)" d="M284 1340L288 1340"/>
		<rect fill="none" stroke="black" stroke-width="1" stroke-linecap="square" stroke-miterlimit="4" transform="translate(0.5 0.5)" x="282" y="1334" width="70" height="20"/>
		<rect x="347" y="1339" width="11" height="11"/>
		<rect fill="white" x="348" y="1340" width="9" height="9"/>
		<rect x="349" y="1344" width="7" height="1"/>
		<rect x="352" y="1341" width="1" height="7"/>
		<rect x="247" y="1313" width="11" height="11"/>
		<rect fill="white" x="248" y="1314" width="9" height="9"/>
		<rect x="249" y="1318" width="7" height="1"/>
		<path fill="none" stroke="black" stroke-width="1" stroke-linecap="square" stroke-miterlimit="4" transform="translate(0.5 0.5)" d="M326 1488L345 1488"/>
		<path fill="silver" d="M217 1487L222 1482L315 1482L320 1487L320 1498L315 1503L222 1503L217 1498L217 1487Z"/>
		<path fill="white" d="M213 1483L218 1478L311 1478L316 1483L316 1494L311 1499L218 1499L213 1494L213 1483Z"/>
		<rect fill="white" x="218" y="1505" width="113" height="48"/>
		<text fill="gray" font-size="9" font-family="Segoe UI" x="218, 223.80518, 226.27051, 231.57031, 234.69922, 239.97266, 245.06592, 250.35693, 252.82227, 258.0957, 260.9126, 263.37793, 268.08447, 270.26416, 274.9707, 282.72266, 287.4292, 292.52246, 295.57227, 299.39111, 301.85645, 304.90625, " y="1515, ">
				A group of elements to
		</text>
		<text fill="gray" font-size="9" font-family="Segoe UI" x="218, 222.70654, 226.8374, 232.12842, 235.25732, 239.96387, 243.78271, 247.60156, 250.06689, 254.646, 257.11133, 260.24023, 264.94678, 269.104, 274.19727, 277.32617, 280.45508, 285.16162, 290.25488, 294.41211, 299.11865, 301.58398, 304.2998, 310.47412, 313.60303, 318.87646, 323.96973, " y="1527, ">
				express a recurrence (Group
		</text>
		<text fill="gray" font-size="9" font-family="Segoe UI" x="218, 223.2998, 228.00635, 230.82324, 233.00293, 238.09619, 242.80273, 248.10254, 250.56787, 252.74756, 257.84082, 260.30615, 263.35596, 268.44922, 270.62891, 274.44775, 276.91309, 282.22168, 290.30322, 294.53955, 297.00488, 301.78613, 305.94336, 311.03662, 315.74316, 323.49512, " y="1539, ">
				defined in this XML Schema
		</text>
		<text fill="gray" font-size="9" font-family="Segoe UI" x="218, 223.27344, 228.3667, 230.54639, 234.90137, " y="1551, ">
				only)
		</text>
		<rect fill="white" x="218" y="1480" width="93" height="16"/>
		<text font-size="12" font-family="Segoe UI" x="218, 224.82617, 231.10156, 236.64453, 243.43555, 247.60742, 251.7793, 258.05469, 264.8457, 270.38867, 276.66406, 284.89648, 289.06836, 296.09961, 302.89062, " y="1493, ">
				RecurrenceGroup
		</text>
		<path transform="translate(0.5 0.5)" d="M216.889 1478.4L217.793 1477.5L218.929 1477.5L219.429 1477.5L219.429 1478.5L218.929 1478.5L218 1478.5L218 1478L218.354 1478.35L217.243 1479.46L216.536 1478.76L216.889 1478.4ZM222.929 1477.5L224.929 1477.5L225.429 1477.5L225.429 1478.5L224.929 1478.5L222.429 1478.5L222.429 1477.5L222.929 1477.5ZM228.929 1477.5L230.929 1477.5L231.429 1477.5L231.429 1478.5L230.929 1478.5L228.429 1478.5L228.429 1477.5L228.929 1477.5ZM234.929 1477.5L236.929 1477.5L237.429 1477.5L237.429 1478.5L236.929 1478.5L234.429 1478.5L234.429 1477.5L234.929 1477.5ZM240.929 1477.5L242.929 1477.5L243.429 1477.5L243.429 1478.5L242.929 1478.5L240.429 1478.5L240.429 1477.5L240.929 1477.5ZM246.929 1477.5L248.929 1477.5L249.429 1477.5L249.429 1478.5L248.929 1478.5L246.429 1478.5L246.429 1477.5L246.929 1477.5ZM252.929 1477.5L254.929 1477.5L255.429 1477.5L255.429 1478.5L254.929 1478.5L252.429 1478.5L252.429 1477.5L252.929 1477.5ZM258.929 1477.5L260.929 1477.5L261.429 1477.5L261.429 1478.5L260.929 1478.5L258.429 1478.5L258.429 1477.5L258.929 1477.5ZM264.929 1477.5L266.929 1477.5L267.429 1477.5L267.429 1478.5L266.929 1478.5L264.429 1478.5L264.429 1477.5L264.929 1477.5ZM270.929 1477.5L272.929 1477.5L273.429 1477.5L273.429 1478.5L272.929 1478.5L270.429 1478.5L270.429 1477.5L270.929 1477.5ZM276.929 1477.5L278.929 1477.5L279.429 1477.5L279.429 1478.5L278.929 1478.5L276.429 1478.5L276.429 1477.5L276.929 1477.5ZM282.929 1477.5L284.929 1477.5L285.429 1477.5L285.429 1478.5L284.929 1478.5L282.429 1478.5L282.429 1477.5L282.929 1477.5ZM288.929 1477.5L290.929 1477.5L291.429 1477.5L291.429 1478.5L290.929 1478.5L288.429 1478.5L288.429 1477.5L288.929 1477.5ZM294.929 1477.5L296.929 1477.5L297.429 1477.5L297.429 1478.5L296.929 1478.5L294.429 1478.5L294.429 1477.5L294.929 1477.5ZM300.929 1477.5L302.929 1477.5L303.429 1477.5L303.429 1478.5L302.929 1478.5L300.429 1478.5L300.429 1477.5L300.929 1477.5ZM306.929 1477.5L308.929 1477.5L309.429 1477.5L309.429 1478.5L308.929 1478.5L306.429 1478.5L306.429 1477.5L306.929 1477.5ZM312.425 1479.72L313.839 1481.13L314.192 1481.49L313.485 1482.19L313.132 1481.84L311.364 1480.07L312.071 1479.36L312.425 1479.72ZM315.5 1484.86L315.5 1486.86L315.5 1487.36L314.5 1487.36L314.5 1486.86L314.5 1484.36L315.5 1484.36L315.5 1484.86ZM315.5 1490.86L315.5 1492.86L315.5 1493.36L314.5 1493.36L314.5 1492.86L314.5 1490.36L315.5 1490.36L315.5 1490.86ZM312.626 1496.08L311.211 1497.5L310.858 1497.85L310.151 1497.14L310.504 1496.79L312.272 1495.02L312.979 1495.73L312.626 1496.08ZM307.213 1498.5L305.213 1498.5L304.713 1498.5L304.713 1497.5L305.213 1497.5L307.713 1497.5L307.713 1498.5L307.213 1498.5ZM301.213 1498.5L299.213 1498.5L298.713 1498.5L298.713 1497.5L299.213 1497.5L301.713 1497.5L301.713 1498.5L301.213 1498.5ZM295.213 1498.5L293.213 1498.5L292.713 1498.5L292.713 1497.5L293.213 1497.5L295.713 1497.5L295.713 1498.5L295.213 1498.5ZM289.213 1498.5L287.213 1498.5L286.713 1498.5L286.713 1497.5L287.213 1497.5L289.713 1497.5L289.713 1498.5L289.213 1498.5ZM283.213 1498.5L281.213 1498.5L280.713 1498.5L280.713 1497.5L281.213 1497.5L283.713 1497.5L283.713 1498.5L283.213 1498.5ZM277.213 1498.5L275.213 1498.5L274.713 1498.5L274.713 1497.5L275.213 1497.5L277.713 1497.5L277.713 1498.5L277.213 1498.5ZM271.213 1498.5L269.213 1498.5L268.713 1498.5L268.713 1497.5L269.213 1497.5L271.713 1497.5L271.713 1498.5L271.213 1498.5ZM265.213 1498.5L263.213 1498.5L262.713 1498.5L262.713 1497.5L263.213 1497.5L265.713 1497.5L265.713 1498.5L265.213 1498.5ZM259.213 1498.5L257.213 1498.5L256.713 1498.5L256.713 1497.5L257.213 1497.5L259.713 1497.5L259.713 1498.5L259.213 1498.5ZM253.213 1498.5L251.213 1498.5L250.713 1498.5L250.713 1497.5L251.213 1497.5L253.713 1497.5L253.713 1498.5L253.213 1498.5ZM247.213 1498.5L245.213 1498.5L244.713 1498.5L244.713 1497.5L245.213 1497.5L247.713 1497.5L247.713 1498.5L247.213 1498.5ZM241.213 1498.5L239.213 1498.5L238.713 1498.5L238.713 1497.5L239.213 1497.5L241.713 1497.5L241.713 1498.5L241.213 1498.5ZM235.213 1498.5L233.213 1498.5L232.713 1498.5L232.713 1497.5L233.213 1497.5L235.713 1497.5L235.713 1498.5L235.213 1498.5ZM229.213 1498.5L227.213 1498.5L226.713 1498.5L226.713 1497.5L227.213 1497.5L229.713 1497.5L229.713 1498.5L229.213 1498.5ZM223.213 1498.5L221.213 1498.5L220.713 1498.5L220.713 1497.5L221.213 1497.5L223.713 1497.5L223.713 1498.5L223.213 1498.5ZM217.09 1497.8L215.676 1496.38L215.322 1496.03L216.029 1495.32L216.383 1495.68L218.151 1497.44L217.444 1498.15L217.09 1497.8ZM212.847 1493.55L212.5 1493.21L212.5 1491.28L212.5 1490.78L213.5 1490.78L213.5 1491.28L213.5 1493L213 1493L213.354 1492.65L213.908 1493.2L213.201 1493.91L212.847 1493.55ZM212.5 1487.28L212.5 1485.28L212.5 1484.78L213.5 1484.78L213.5 1485.28L213.5 1487.78L212.5 1487.78L212.5 1487.28ZM212.646 1482.65L214.414 1480.88L215.121 1481.59L213 1483.71L212.293 1483L212.646 1482.65Z"/>
		<path transform="translate(0.5 0.5)" d="M391 1487.5L393 1487.5L393.5 1487.5L393.5 1488.5L393 1488.5L390.5 1488.5L390.5 1487.5L391 1487.5ZM397 1487.5L399.5 1487.5L399.5 1488.5L396.5 1488.5L396.5 1487.5L397 1487.5Z"/>
		<path transform="translate(0.5 0.5)" d="M399.5 1488L399.5 1486L399.5 1485.5L400.5 1485.5L400.5 1486L400.5 1488.5L399.5 1488.5L399.5 1488ZM399.5 1482L399.5 1480L399.5 1479.5L400.5 1479.5L400.5 1480L400.5 1482.5L399.5 1482.5L399.5 1482ZM399.5 1476L399.5 1474L399.5 1473.5L400.5 1473.5L400.5 1474L400.5 1476.5L399.5 1476.5L399.5 1476ZM399.5 1470L399.5 1468L399.5 1467.5L400.5 1467.5L400.5 1468L400.5 1470.5L399.5 1470.5L399.5 1470ZM399.5 1464L399.5 1462L399.5 1461.5L400.5 1461.5L400.5 1462L400.5 1464.5L399.5 1464.5L399.5 1464ZM399.5 1458L399.5 1456L399.5 1455.5L400.5 1455.5L400.5 1456L400.5 1458.5L399.5 1458.5L399.5 1458ZM399.5 1452L399.5 1450L399.5 1449.5L400.5 1449.5L400.5 1450L400.5 1452.5L399.5 1452.5L399.5 1452ZM399.5 1446L399.5 1444L399.5 1443.5L400.5 1443.5L400.5 1444L400.5 1446.5L399.5 1446.5L399.5 1446ZM399.5 1440L399.5 1438L399.5 1437.5L400.5 1437.5L400.5 1438L400.5 1440.5L399.5 1440.5L399.5 1440ZM399.5 1434L399.5 1432L399.5 1431.5L400.5 1431.5L400.5 1432L400.5 1434.5L399.5 1434.5L399.5 1434ZM399.5 1428L399.5 1426L399.5 1425.5L400.5 1425.5L400.5 1426L400.5 1428.5L399.5 1428.5L399.5 1428ZM399.5 1422L399.5 1420.5L400.5 1420.5L400.5 1422.5L399.5 1422.5L399.5 1422Z"/>
		<path transform="translate(0.5 0.5)" d="M400.5 1488L400.5 1490L400.5 1490.5L399.5 1490.5L399.5 1490L399.5 1487.5L400.5 1487.5L400.5 1488ZM400.5 1494L400.5 1496L400.5 1496.5L399.5 1496.5L399.5 1496L399.5 1493.5L400.5 1493.5L400.5 1494ZM400.5 1500L400.5 1502L400.5 1502.5L399.5 1502.5L399.5 1502L399.5 1499.5L400.5 1499.5L400.5 1500ZM400.5 1506L400.5 1508L400.5 1508.5L399.5 1508.5L399.5 1508L399.5 1505.5L400.5 1505.5L400.5 1506ZM400.5 1512L400.5 1514L400.5 1514.5L399.5 1514.5L399.5 1514L399.5 1511.5L400.5 1511.5L400.5 1512ZM400.5 1518L400.5 1520L400.5 1520.5L399.5 1520.5L399.5 1520L399.5 1517.5L400.5 1517.5L400.5 1518ZM400.5 1524L400.5 1526L400.5 1526.5L399.5 1526.5L399.5 1526L399.5 1523.5L400.5 1523.5L400.5 1524ZM400.5 1530L400.5 1532L400.5 1532.5L399.5 1532.5L399.5 1532L399.5 1529.5L400.5 1529.5L400.5 1530ZM400.5 1536L400.5 1538L400.5 1538.5L399.5 1538.5L399.5 1538L399.5 1535.5L400.5 1535.5L400.5 1536ZM400.5 1542L400.5 1544L400.5 1544.5L399.5 1544.5L399.5 1544L399.5 1541.5L400.5 1541.5L400.5 1542ZM400.5 1548L400.5 1550L400.5 1550.5L399.5 1550.5L399.5 1550L399.5 1547.5L400.5 1547.5L400.5 1548ZM400.5 1554L400.5 1556.5L399.5 1556.5L399.5 1553.5L400.5 1553.5L400.5 1554Z"/>
		<path transform="translate(0.5 0.5)" d="M400 1419.5L402 1419.5L402.5 1419.5L402.5 1420.5L402 1420.5L399.5 1420.5L399.5 1419.5L400 1419.5ZM406 1419.5L408 1419.5L408.5 1419.5L408.5 1420.5L408 1420.5L405.5 1420.5L405.5 1419.5L406 1419.5ZM412 1419.5L414.5 1419.5L414.5 1420.5L411.5 1420.5L411.5 1419.5L412 1419.5Z"/>
		<path transform="translate(0.5 0.5)" d="M400 1556.5L402 1556.5L402.5 1556.5L402.5 1557.5L402 1557.5L399.5 1557.5L399.5 1556.5L400 1556.5ZM406 1556.5L408 1556.5L408.5 1556.5L408.5 1557.5L408 1557.5L405.5 1557.5L405.5 1556.5L406 1556.5ZM412 1556.5L414.5 1556.5L414.5 1557.5L411.5 1557.5L411.5 1556.5L412 1556.5Z"/>
		<path fill="silver" d="M350 1487L355 1482L380 1482L385 1487L385 1498L380 1503L355 1503L350 1498L350 1487Z"/>
		<path fill="white" d="M346 1483L351 1478L376 1478L381 1483L381 1494L376 1499L351 1499L346 1494L346 1483Z"/>
		<path fill="none" stroke="black" stroke-width="1" stroke-linecap="square" stroke-miterlimit="4" transform="translate(0.5 0.5)" d="M351 1488L375 1488"/>
		<rect x="357" y="1487" width="3" height="3"/>
		<rect x="362" y="1487" width="3" height="3"/>
		<rect x="367" y="1487" width="3" height="3"/>
		<path fill="none" stroke="black" stroke-width="1" stroke-linecap="square" stroke-miterlimit="4" transform="translate(0.5 0.5)" d="M346 1483L351 1478L375 1478L380 1483L380 1493L375 1498L351 1498L346 1493L346 1483Z"/>
		<path fill="none" stroke="black" stroke-width="1" stroke-linecap="square" stroke-miterlimit="4" transform="translate(0.5 0.5)" d="M460 1420L551 1420"/>
		<path fill="none" stroke="black" stroke-width="1" stroke-linecap="square" stroke-miterlimit="4" transform="translate(0.5 0.5)" d="M552 1420L552 1396"/>
		<path fill="none" stroke="black" stroke-width="1" stroke-linecap="square" stroke-miterlimit="4" transform="translate(0.5 0.5)" d="M552 1420L552 1445"/>
		<path fill="none" stroke="black" stroke-width="1" stroke-linecap="square" stroke-miterlimit="4" transform="translate(0.5 0.5)" d="M552 1395L566 1395"/>
		<path fill="none" stroke="black" stroke-width="1" stroke-linecap="square" stroke-miterlimit="4" transform="translate(0.5 0.5)" d="M552 1446L566 1446"/>
		<path fill="silver" d="M422 1422L427 1417L452 1417L457 1422L457 1433L452 1438L427 1438L422 1433L422 1422Z"/>
		<path fill="white" d="M418 1418L423 1413L447 1413L452 1418L452 1428L447 1433L423 1433L418 1428L418 1418Z"/>
		<path transform="translate(0.5 0.5)" d="M421.889 1413.4L422.793 1412.5L423.929 1412.5L424.429 1412.5L424.429 1413.5L423.929 1413.5L423 1413.5L423 1413L423.354 1413.35L422.243 1414.46L421.536 1413.76L421.889 1413.4ZM427.929 1412.5L429.929 1412.5L430.429 1412.5L430.429 1413.5L429.929 1413.5L427.429 1413.5L427.429 1412.5L427.929 1412.5ZM433.929 1412.5L435.929 1412.5L436.429 1412.5L436.429 1413.5L435.929 1413.5L433.429 1413.5L433.429 1412.5L433.929 1412.5ZM439.929 1412.5L441.929 1412.5L442.429 1412.5L442.429 1413.5L441.929 1413.5L439.429 1413.5L439.429 1412.5L439.929 1412.5ZM445.929 1412.5L447.207 1412.5L448.01 1413.3L448.364 1413.66L447.657 1414.36L447.303 1414.01L446.646 1413.35L447 1413L447 1413.5L445.429 1413.5L445.429 1412.5L445.929 1412.5ZM450.839 1416.13L452.253 1417.55L452.607 1417.9L451.899 1418.61L451.546 1418.25L449.778 1416.49L450.485 1415.78L450.839 1416.13ZM452.5 1421.86L452.5 1423.86L452.5 1424.36L451.5 1424.36L451.5 1423.86L451.5 1421.36L452.5 1421.36L452.5 1421.86ZM452.5 1427.86L452.5 1428.21L451.04 1429.67L450.686 1430.02L449.979 1429.31L450.333 1428.96L451.646 1427.65L452 1428L451.5 1428L451.5 1427.36L452.5 1427.36L452.5 1427.86ZM448.211 1432.5L447.207 1433.5L446.213 1433.5L445.713 1433.5L445.713 1432.5L446.213 1432.5L447 1432.5L447 1433L446.646 1432.65L447.858 1431.44L448.565 1432.14L448.211 1432.5ZM442.213 1433.5L440.213 1433.5L439.713 1433.5L439.713 1432.5L440.213 1432.5L442.713 1432.5L442.713 1433.5L442.213 1433.5ZM436.213 1433.5L434.213 1433.5L433.713 1433.5L433.713 1432.5L434.213 1432.5L436.713 1432.5L436.713 1433.5L436.213 1433.5ZM430.213 1433.5L428.213 1433.5L427.713 1433.5L427.713 1432.5L428.213 1432.5L430.713 1432.5L430.713 1433.5L430.213 1433.5ZM424.213 1433.5L422.793 1433.5L422.09 1432.8L421.737 1432.44L422.444 1431.74L422.797 1432.09L423.354 1432.65L423 1433L423 1432.5L424.713 1432.5L424.713 1433.5L424.213 1433.5ZM419.262 1429.97L417.847 1428.55L417.494 1428.2L418.201 1427.49L418.555 1427.85L420.322 1429.62L419.615 1430.32L419.262 1429.97ZM417.5 1424.28L417.5 1422.28L417.5 1421.78L418.5 1421.78L418.5 1422.28L418.5 1424.78L417.5 1424.78L417.5 1424.28ZM417.5 1418.28L417.5 1417.79L419.414 1415.88L420.121 1416.59L418.354 1418.35L418 1418L418.5 1418L418.5 1418.78L417.5 1418.78L417.5 1418.28Z"/>
		<path fill="white" d="M415 1415L420 1410L445 1410L450 1415L450 1426L445 1431L420 1431L415 1426L415 1415Z"/>
		<path fill="none" stroke="black" stroke-width="1" stroke-linecap="square" stroke-miterlimit="4" transform="translate(0.5 0.5)" d="M434 1431L440 1437L443 1434"/>
		<rect fill="white" x="420" y="1456" width="118" height="48"/>
		<text fill="gray" font-size="9" font-family="Segoe UI" x="420, 424.71533, 429.80859, 431.98828, 435.80713, 438.27246, 442.42969, 447.52295, 452.79639, 454.97607, 459.1333, 463.83984, 466.30518, 470.88428, 475.97754, 481.27734, 483.74268, 485.92236, 488.97217, 492.79102, 495.25635, 499.41357, 503.99268, 507.12158, 512.42139, 514.60107, 519.69434, 524.27344, 526.45312, 528.63281, 531.68262, " y="1466, ">
				This choice and its cardinality
		</text>
		<text fill="gray" font-size="9" font-family="Segoe UI" x="420, 423.12891, 427.83545, 433.13525, 438.22852, 440.4082, 443.53711, 448.24365, 452.0625, 454.52783, 457.57764, 462.6709, 467.25, 470.2998, 472.76514, 475.81494, 480.9082, 485.61475, 488.74365, 493.4502, 495.91553, 498.09521, 501.91406, 504.37939, 508.9585, 512.0083, 514.47363, 516.65332, 521.35986, 525.93896, 529.75781, " y="1478, ">
				requires that there is at least
		</text>
		<text fill="gray" font-size="9" font-family="Segoe UI" x="420, 425.27344, 430.3667, 435.07324, 437.53857, 440.66748, 446.97803, 451.55713, 454.60693, 459.31348, 461.77881, 467.05225, 470.18115, 472.64648, 475.77539, 481.15869, 486.25195, 488.43164, 493.13818, 495.60352, 500.31006, 502.48975, 507.19629, 514.94824, 519.65479, 524.74805, " y="1490, ">
				one rDate or rRule element
		</text>
		<text fill="gray" font-size="9" font-family="Segoe UI" x="420, 425.29102, 428.41992, 433.12646, 436.94531, 441.65186, 446.74512, 449.79492, " y="1502, ">
				present.
		</text>
		<path fill="none" stroke="black" stroke-width="1" stroke-linecap="square" stroke-miterlimit="4" transform="translate(0.5 0.5)" d="M420 1420L425 1420L429 1416"/>
		<path fill="none" stroke="black" stroke-width="1" stroke-linecap="square" stroke-miterlimit="4" transform="translate(0.5 0.5)" d="M435 1420L443 1420"/>
		<path fill="none" stroke="black" stroke-width="1" stroke-linecap="square" stroke-miterlimit="4" transform="translate(0.5 0.5)" d="M435 1416L439 1416L439 1424L435 1424"/>
		<rect x="431" y="1415" width="3" height="3"/>
		<rect x="431" y="1419" width="3" height="3"/>
		<rect x="431" y="1423" width="3" height="3"/>
		<text font-size="12" font-family="Segoe UI" x="419.76562, " y="1450, ">
				0
		</text>
		<text font-size="12" font-family="Symbol" x="434.72266, " y="1449, ">
				
		</text>
		<text font-size="12" font-family="Segoe UI" x="427.89844, 430.5, " y="1450, ">
				..
		</text>
		<path transform="translate(0.5 0.5)" d="M418.889 1410.4L419.793 1409.5L420.929 1409.5L421.429 1409.5L421.429 1410.5L420.929 1410.5L420 1410.5L420 1410L420.354 1410.35L419.243 1411.46L418.536 1410.76L418.889 1410.4ZM424.929 1409.5L426.929 1409.5L427.429 1409.5L427.429 1410.5L426.929 1410.5L424.429 1410.5L424.429 1409.5L424.929 1409.5ZM430.929 1409.5L432.929 1409.5L433.429 1409.5L433.429 1410.5L432.929 1410.5L430.429 1410.5L430.429 1409.5L430.929 1409.5ZM436.929 1409.5L438.929 1409.5L439.429 1409.5L439.429 1410.5L438.929 1410.5L436.429 1410.5L436.429 1409.5L436.929 1409.5ZM442.929 1409.5L444.207 1409.5L445.01 1410.3L445.364 1410.66L444.657 1411.36L444.303 1411.01L443.646 1410.35L444 1410L444 1410.5L442.429 1410.5L442.429 1409.5L442.929 1409.5ZM447.839 1413.13L449.253 1414.55L449.607 1414.9L448.899 1415.61L448.546 1415.25L446.778 1413.49L447.485 1412.78L447.839 1413.13ZM449.5 1418.86L449.5 1420.86L449.5 1421.36L448.5 1421.36L448.5 1420.86L448.5 1418.36L449.5 1418.36L449.5 1418.86ZM449.5 1424.86L449.5 1425.21L448.04 1426.67L447.686 1427.02L446.979 1426.31L447.333 1425.96L448.646 1424.65L449 1425L448.5 1425L448.5 1424.36L449.5 1424.36L449.5 1424.86ZM445.211 1429.5L444.207 1430.5L443.213 1430.5L442.713 1430.5L442.713 1429.5L443.213 1429.5L444 1429.5L444 1430L443.646 1429.65L444.858 1428.44L445.565 1429.14L445.211 1429.5ZM439.213 1430.5L437.213 1430.5L436.713 1430.5L436.713 1429.5L437.213 1429.5L439.713 1429.5L439.713 1430.5L439.213 1430.5ZM433.213 1430.5L431.213 1430.5L430.713 1430.5L430.713 1429.5L431.213 1429.5L433.713 1429.5L433.713 1430.5L433.213 1430.5ZM427.213 1430.5L425.213 1430.5L424.713 1430.5L424.713 1429.5L425.213 1429.5L427.713 1429.5L427.713 1430.5L427.213 1430.5ZM421.213 1430.5L419.793 1430.5L419.09 1429.8L418.737 1429.44L419.444 1428.74L419.797 1429.09L420.354 1429.65L420 1430L420 1429.5L421.713 1429.5L421.713 1430.5L421.213 1430.5ZM416.262 1426.97L414.847 1425.55L414.494 1425.2L415.201 1424.49L415.555 1424.85L417.322 1426.62L416.615 1427.32L416.262 1426.97ZM414.5 1421.28L414.5 1419.28L414.5 1418.78L415.5 1418.78L415.5 1419.28L415.5 1421.78L414.5 1421.78L414.5 1421.28ZM414.5 1415.28L414.5 1414.79L416.414 1412.88L417.121 1413.59L415.354 1415.35L415 1415L415.5 1415L415.5 1415.78L414.5 1415.78L414.5 1415.28Z"/>
		<rect fill="silver" x="571" y="1389" width="54" height="21"/>
		<rect fill="white" x="567" y="1385" width="54" height="21"/>
		<rect fill="white" x="572" y="1412" width="110" height="12"/>
		<text fill="gray" font-size="9" font-family="Segoe UI" x="572, 576.55273, 580.68359, 585.97461, 588.1543, 590.33398, 594.49121, 596.6709, 599.7207, 602.18604, 607.48584, 612.06494, 615.11475, 619.82129, 623.64014, 626.10547, 631.37891, 634.1958, 636.66113, 639.79004, 644.49658, 648.65381, 653.74707, 656.87598, 660.00488, 664.71143, 669.80469, 673.96191, 678.66846, " y="1422, ">
				Explicit dates of recurrence.
		</text>
		<rect fill="white" x="576" y="1387" width="33" height="16"/>
		<text font-size="12" font-weight="600" font-family="Segoe UI" x="576, 580.77539, 589.62305, 596.08008, 600.70312, " y="1400, ">
				rDate
		</text>
		<path fill="none" stroke="black" stroke-width="1" stroke-linecap="square" stroke-miterlimit="4" transform="translate(0.5 0.5)" d="M569 1387L574 1387"/>
		<path fill="none" stroke="black" stroke-width="1" stroke-linecap="square" stroke-miterlimit="4" transform="translate(0.5 0.5)" d="M569 1389L573 1389"/>
		<path fill="none" stroke="black" stroke-width="1" stroke-linecap="square" stroke-miterlimit="4" transform="translate(0.5 0.5)" d="M569 1391L573 1391"/>
		<rect fill="none" stroke="black" stroke-width="1" stroke-linecap="square" stroke-miterlimit="4" transform="translate(0.5 0.5)" x="567" y="1385" width="53" height="20"/>
		<rect x="615" y="1390" width="11" height="11"/>
		<rect fill="white" x="616" y="1391" width="9" height="9"/>
		<rect x="617" y="1395" width="7" height="1"/>
		<rect x="620" y="1392" width="1" height="7"/>
		<rect fill="silver" x="571" y="1440" width="52" height="21"/>
		<rect fill="white" x="567" y="1436" width="52" height="21"/>
		<rect fill="white" x="572" y="1463" width="79" height="12"/>
		<text fill="gray" font-size="9" font-family="Segoe UI" x="572, 577.3833, 582.47656, 584.65625, 589.36279, 591.82812, 594.64502, 599.91846, 603.04736, 605.5127, 608.6416, 613.34814, 617.50537, 622.59863, 625.72754, 628.85645, 633.56299, 638.65625, 642.81348, 647.52002, " y="1473, ">
				Rule for recurrence.
		</text>
		<rect fill="white" x="576" y="1438" width="31" height="16"/>
		<text font-size="12" font-weight="600" font-family="Segoe UI" x="576, 580.77539, 588.60938, 595.86914, 599.2793, " y="1451, ">
				rRule
		</text>
		<rect fill="none" stroke="black" stroke-width="1" stroke-linecap="square" stroke-miterlimit="4" transform="translate(0.5 0.5)" x="567" y="1436" width="51" height="20"/>
		<rect x="613" y="1441" width="11" height="11"/>
		<rect fill="white" x="614" y="1442" width="9" height="9"/>
		<rect x="615" y="1446" width="7" height="1"/>
		<rect x="618" y="1443" width="1" height="7"/>
		<rect x="449" y="1415" width="11" height="11"/>
		<rect fill="white" x="450" y="1416" width="9" height="9"/>
		<rect x="451" y="1420" width="7" height="1"/>
		<path fill="none" stroke="black" stroke-width="1" stroke-linecap="square" stroke-miterlimit="4" transform="translate(0.5 0.5)" d="M460 1557L468 1557"/>
		<path fill="none" stroke="black" stroke-width="1" stroke-linecap="square" stroke-miterlimit="4" transform="translate(0.5 0.5)" d="M469 1557L469 1527"/>
		<path fill="none" stroke="black" stroke-width="1" stroke-linecap="square" stroke-miterlimit="4" transform="translate(0.5 0.5)" d="M469 1557L469 1588"/>
		<path fill="none" stroke="black" stroke-width="1" stroke-linecap="square" stroke-miterlimit="4" transform="translate(0.5 0.5)" d="M469 1526L483 1526"/>
		<path fill="none" stroke="black" stroke-width="1" stroke-linecap="square" stroke-miterlimit="4" transform="translate(0.5 0.5)" d="M469 1589L483 1589"/>
		<path fill="silver" d="M422 1559L427 1554L452 1554L457 1559L457 1570L452 1575L427 1575L422 1570L422 1559Z"/>
		<path fill="white" d="M418 1555L423 1550L447 1550L452 1555L452 1565L447 1570L423 1570L418 1565L418 1555Z"/>
		<path transform="translate(0.5 0.5)" d="M421.889 1550.4L422.793 1549.5L423.929 1549.5L424.429 1549.5L424.429 1550.5L423.929 1550.5L423 1550.5L423 1550L423.354 1550.35L422.243 1551.46L421.536 1550.76L421.889 1550.4ZM427.929 1549.5L429.929 1549.5L430.429 1549.5L430.429 1550.5L429.929 1550.5L427.429 1550.5L427.429 1549.5L427.929 1549.5ZM433.929 1549.5L435.929 1549.5L436.429 1549.5L436.429 1550.5L435.929 1550.5L433.429 1550.5L433.429 1549.5L433.929 1549.5ZM439.929 1549.5L441.929 1549.5L442.429 1549.5L442.429 1550.5L441.929 1550.5L439.429 1550.5L439.429 1549.5L439.929 1549.5ZM445.929 1549.5L447.207 1549.5L448.01 1550.3L448.364 1550.66L447.657 1551.36L447.303 1551.01L446.646 1550.35L447 1550L447 1550.5L445.429 1550.5L445.429 1549.5L445.929 1549.5ZM450.839 1553.13L452.253 1554.55L452.607 1554.9L451.899 1555.61L451.546 1555.25L449.778 1553.49L450.485 1552.78L450.839 1553.13ZM452.5 1558.86L452.5 1560.86L452.5 1561.36L451.5 1561.36L451.5 1560.86L451.5 1558.36L452.5 1558.36L452.5 1558.86ZM452.5 1564.86L452.5 1565.21L451.04 1566.67L450.686 1567.02L449.979 1566.31L450.333 1565.96L451.646 1564.65L452 1565L451.5 1565L451.5 1564.36L452.5 1564.36L452.5 1564.86ZM448.211 1569.5L447.207 1570.5L446.213 1570.5L445.713 1570.5L445.713 1569.5L446.213 1569.5L447 1569.5L447 1570L446.646 1569.65L447.858 1568.44L448.565 1569.14L448.211 1569.5ZM442.213 1570.5L440.213 1570.5L439.713 1570.5L439.713 1569.5L440.213 1569.5L442.713 1569.5L442.713 1570.5L442.213 1570.5ZM436.213 1570.5L434.213 1570.5L433.713 1570.5L433.713 1569.5L434.213 1569.5L436.713 1569.5L436.713 1570.5L436.213 1570.5ZM430.213 1570.5L428.213 1570.5L427.713 1570.5L427.713 1569.5L428.213 1569.5L430.713 1569.5L430.713 1570.5L430.213 1570.5ZM424.213 1570.5L422.793 1570.5L422.09 1569.8L421.737 1569.44L422.444 1568.74L422.797 1569.09L423.354 1569.65L423 1570L423 1569.5L424.713 1569.5L424.713 1570.5L424.213 1570.5ZM419.262 1566.97L417.847 1565.55L417.494 1565.2L418.201 1564.49L418.555 1564.85L420.322 1566.62L419.615 1567.32L419.262 1566.97ZM417.5 1561.28L417.5 1559.28L417.5 1558.78L418.5 1558.78L418.5 1559.28L418.5 1561.78L417.5 1561.78L417.5 1561.28ZM417.5 1555.28L417.5 1554.79L419.414 1552.88L420.121 1553.59L418.354 1555.35L418 1555L418.5 1555L418.5 1555.78L417.5 1555.78L417.5 1555.28Z"/>
		<path fill="white" d="M415 1552L420 1547L445 1547L450 1552L450 1563L445 1568L420 1568L415 1563L415 1552Z"/>
		<path fill="none" stroke="black" stroke-width="1" stroke-linecap="square" stroke-miterlimit="4" transform="translate(0.5 0.5)" d="M434 1568L440 1574L443 1571"/>
		<path fill="none" stroke="black" stroke-width="1" stroke-linecap="square" stroke-miterlimit="4" transform="translate(0.5 0.5)" d="M420 1557L425 1557L429 1553"/>
		<path fill="none" stroke="black" stroke-width="1" stroke-linecap="square" stroke-miterlimit="4" transform="translate(0.5 0.5)" d="M435 1557L443 1557"/>
		<path fill="none" stroke="black" stroke-width="1" stroke-linecap="square" stroke-miterlimit="4" transform="translate(0.5 0.5)" d="M435 1553L439 1553L439 1561L435 1561"/>
		<rect x="431" y="1552" width="3" height="3"/>
		<rect x="431" y="1556" width="3" height="3"/>
		<rect x="431" y="1560" width="3" height="3"/>
		<text font-size="12" font-family="Segoe UI" x="419.76562, " y="1587, ">
				0
		</text>
		<text font-size="12" font-family="Symbol" x="434.72266, " y="1586, ">
				
		</text>
		<text font-size="12" font-family="Segoe UI" x="427.89844, 430.5, " y="1587, ">
				..
		</text>
		<path transform="translate(0.5 0.5)" d="M418.889 1547.4L419.793 1546.5L420.929 1546.5L421.429 1546.5L421.429 1547.5L420.929 1547.5L420 1547.5L420 1547L420.354 1547.35L419.243 1548.46L418.536 1547.76L418.889 1547.4ZM424.929 1546.5L426.929 1546.5L427.429 1546.5L427.429 1547.5L426.929 1547.5L424.429 1547.5L424.429 1546.5L424.929 1546.5ZM430.929 1546.5L432.929 1546.5L433.429 1546.5L433.429 1547.5L432.929 1547.5L430.429 1547.5L430.429 1546.5L430.929 1546.5ZM436.929 1546.5L438.929 1546.5L439.429 1546.5L439.429 1547.5L438.929 1547.5L436.429 1547.5L436.429 1546.5L436.929 1546.5ZM442.929 1546.5L444.207 1546.5L445.01 1547.3L445.364 1547.66L444.657 1548.36L444.303 1548.01L443.646 1547.35L444 1547L444 1547.5L442.429 1547.5L442.429 1546.5L442.929 1546.5ZM447.839 1550.13L449.253 1551.55L449.607 1551.9L448.899 1552.61L448.546 1552.25L446.778 1550.49L447.485 1549.78L447.839 1550.13ZM449.5 1555.86L449.5 1557.86L449.5 1558.36L448.5 1558.36L448.5 1557.86L448.5 1555.36L449.5 1555.36L449.5 1555.86ZM449.5 1561.86L449.5 1562.21L448.04 1563.67L447.686 1564.02L446.979 1563.31L447.333 1562.96L448.646 1561.65L449 1562L448.5 1562L448.5 1561.36L449.5 1561.36L449.5 1561.86ZM445.211 1566.5L444.207 1567.5L443.213 1567.5L442.713 1567.5L442.713 1566.5L443.213 1566.5L444 1566.5L444 1567L443.646 1566.65L444.858 1565.44L445.565 1566.14L445.211 1566.5ZM439.213 1567.5L437.213 1567.5L436.713 1567.5L436.713 1566.5L437.213 1566.5L439.713 1566.5L439.713 1567.5L439.213 1567.5ZM433.213 1567.5L431.213 1567.5L430.713 1567.5L430.713 1566.5L431.213 1566.5L433.713 1566.5L433.713 1567.5L433.213 1567.5ZM427.213 1567.5L425.213 1567.5L424.713 1567.5L424.713 1566.5L425.213 1566.5L427.713 1566.5L427.713 1567.5L427.213 1567.5ZM421.213 1567.5L419.793 1567.5L419.09 1566.8L418.737 1566.44L419.444 1565.74L419.797 1566.09L420.354 1566.65L420 1567L420 1566.5L421.713 1566.5L421.713 1567.5L421.213 1567.5ZM416.262 1563.97L414.847 1562.55L414.494 1562.2L415.201 1561.49L415.555 1561.85L417.322 1563.62L416.615 1564.32L416.262 1563.97ZM414.5 1558.28L414.5 1556.28L414.5 1555.78L415.5 1555.78L415.5 1556.28L415.5 1558.78L414.5 1558.78L414.5 1558.28ZM414.5 1552.28L414.5 1551.79L416.414 1549.88L417.121 1550.59L415.354 1552.35L415 1552L415.5 1552L415.5 1552.78L414.5 1552.78L414.5 1552.28Z"/>
		<rect fill="silver" x="488" y="1520" width="62" height="21"/>
		<rect fill="white" x="484" y="1516" width="62" height="21"/>
		<rect fill="white" x="489" y="1543" width="114" height="24"/>
		<text fill="gray" font-size="9" font-family="Segoe UI" x="489, 493.55273, 497.68359, 502.97461, 505.1543, 507.33398, 511.49121, 513.6709, 516.7207, 519.18604, 524.48584, 529.06494, 532.11475, 536.82129, 540.64014, 543.10547, 546.15527, 551.42871, 553.89404, 559.18506, 563.8916, 566.35693, 571.06348, 575.19434, 579.35156, 581.53125, 586.62451, 591.92432, 596.63086, " y="1553, ">
				Explicit dates to be excluded
		</text>
		<text fill="gray" font-size="9" font-family="Segoe UI" x="489, 491.81689, 494.9458, 500.21924, 507.97119, 510.43652, 515.01562, 520.10889, 524.46387, 526.9292, 530.05811, 534.76465, 538.92188, 544.01514, 547.14404, 550.27295, 554.97949, 560.07275, 564.22998, 568.93652, " y="1565, ">
				from any recurrence.
		</text>
		<rect fill="white" x="493" y="1518" width="41" height="16"/>
		<text font-size="12" font-weight="600" font-family="Segoe UI" x="493, 499.49219, 506.11914, 514.9668, 521.42383, 526.04688, " y="1531, ">
				exDate
		</text>
		<path fill="none" stroke="black" stroke-width="1" stroke-linecap="square" stroke-miterlimit="4" transform="translate(0.5 0.5)" d="M486 1518L491 1518"/>
		<path fill="none" stroke="black" stroke-width="1" stroke-linecap="square" stroke-miterlimit="4" transform="translate(0.5 0.5)" d="M486 1520L490 1520"/>
		<path fill="none" stroke="black" stroke-width="1" stroke-linecap="square" stroke-miterlimit="4" transform="translate(0.5 0.5)" d="M486 1522L490 1522"/>
		<rect fill="none" stroke="black" stroke-width="1" stroke-linecap="square" stroke-miterlimit="4" transform="translate(0.5 0.5)" x="484" y="1516" width="61" height="20"/>
		<rect x="540" y="1521" width="11" height="11"/>
		<rect fill="white" x="541" y="1522" width="9" height="9"/>
		<rect x="542" y="1526" width="7" height="1"/>
		<rect x="545" y="1523" width="1" height="7"/>
		<rect fill="silver" x="488" y="1583" width="61" height="21"/>
		<rect fill="white" x="484" y="1579" width="61" height="21"/>
		<rect fill="white" x="489" y="1606" width="118" height="24"/>
		<text fill="gray" font-size="9" font-family="Segoe UI" x="489, 494.3833, 499.47656, 501.65625, 506.36279, 508.82812, 511.64502, 516.91846, 520.04736, 522.5127, 527.8125, 532.3916, 535.44141, 540.14795, 543.9668, 546.43213, 549.48193, 554.75537, 557.2207, 562.51172, 567.21826, 569.68359, 574.39014, 578.521, 582.67822, 584.85791, 589.95117, 595.25098, 599.95752, " y="1616, ">
				Rule for dates to be excluded
		</text>
		<text fill="gray" font-size="9" font-family="Segoe UI" x="489, 491.81689, 494.9458, 500.21924, 507.97119, 510.43652, 513.56543, 518.27197, 522.4292, 527.52246, 530.65137, 533.78027, 538.48682, 543.58008, 547.7373, 552.44385, " y="1628, ">
				from recurrence.
		</text>
		<rect fill="white" x="493" y="1581" width="40" height="16"/>
		<text font-size="12" font-weight="600" font-family="Segoe UI" x="493, 499.49219, 506.11914, 513.95312, 521.21289, 524.62305, " y="1594, ">
				exRule
		</text>
		<rect fill="none" stroke="black" stroke-width="1" stroke-linecap="square" stroke-miterlimit="4" transform="translate(0.5 0.5)" x="484" y="1579" width="60" height="20"/>
		<rect x="539" y="1584" width="11" height="11"/>
		<rect fill="white" x="540" y="1585" width="9" height="9"/>
		<rect x="541" y="1589" width="7" height="1"/>
		<rect x="544" y="1586" width="1" height="7"/>
		<rect x="449" y="1552" width="11" height="11"/>
		<rect fill="white" x="450" y="1553" width="9" height="9"/>
		<rect x="451" y="1557" width="7" height="1"/>
		<rect x="380" y="1483" width="11" height="11"/>
		<rect fill="white" x="381" y="1484" width="9" height="9"/>
		<rect x="382" y="1488" width="7" height="1"/>
		<rect x="315" y="1483" width="11" height="11"/>
		<rect fill="white" x="316" y="1484" width="9" height="9"/>
		<rect x="317" y="1488" width="7" height="1"/>
		<rect fill="silver" x="217" y="1646" width="96" height="21"/>
		<rect fill="white" x="213" y="1642" width="96" height="21"/>
		<rect fill="white" x="218" y="1669" width="121" height="108"/>
		<text fill="gray" font-size="9" font-family="Segoe UI" x="218, 224.31055, 228.86328, 233.90381, 239.28711, 243.83984, 249.41211, 254.57129, 259.28662, 263.83936, 270.1499, 272.61523, 274.79492, 279.88818, 282.35352, 289.08594, 293.79248, 300.29639, 304.11523, 312.19678, 316.43311, 320.03223, 326.20654, " y="1679, ">
				DEPRECATED in NewsML-G2
		</text>
		<text fill="gray" font-size="9" font-family="Segoe UI" x="218, 222.85156, 224.80273, 229.6543, 234.50586, 236.97119, 241.55029, 246.64355, 251.94336, 254.40869, 259.50195, 261.68164, 266.98145, 272.07471, 276.78125, 279.91016, 281.86133, 284.32666, 289.41992, 293.23877, 297.94531, 300.41064, 303.46045, 308.55371, " y="1691, ">
				2.24 and higher; use the
		</text>
		<text fill="gray" font-size="9" font-family="Segoe UI" x="218, 226.5957, 230.75293, 236.02637, 241.11963, 243.93652, 246.11621, 249.24512, 256.99707, 261.57617, 264.62598, 266.80566, 272.0791, 277.17236, 280.99121, 284.04102, 288.62012, 291.66992, 296.76318, 300.58203, 303.04736, 308.3208, " y="1703, ">
				@confirmationstatus or
		</text>
		<text fill="gray" font-size="9" font-family="Segoe UI" x="218, 226.5957, 230.75293, 236.02637, 241.11963, 243.93652, 246.11621, 249.24512, 256.99707, 261.57617, 264.62598, 266.80566, 272.0791, 277.17236, 280.99121, 284.04102, 288.62012, 291.66992, 296.76318, 300.58203, 305.67529, 308.8042, " y="1715, ">
				@confirmationstatusuri
		</text>
		<text fill="gray" font-size="9" font-family="Segoe UI" x="218, 222.5791, 225.62891, 228.67871, 231.80762, 233.9873, 239.27832, 244.37158, 247.42139, 252.12793, 255.94678, 258.41211, 263.68555, 268.77881, 271.24414, 275.06299, 278.11279, 282.69189, 285.8208, 288.87061, 290.82178, 293.28711, 297.99365, 303.08691, 308.38672, 310.85205, 315.43115, 320.52441, 325.82422, 329.33105, 334.60449, " y="1727, ">
				attributes on start, end and/or
		</text>
		<text fill="gray" font-size="9" font-family="Segoe UI" x="218, 223.2998, 228.39307, 231.52197, 236.10107, 239.15088, 241.33057, 246.604, 251.69727, 254.1626, 258.7417, 262.56055, 265.02588, 268.15479, 272.86133, 278.16113, 283.25439, 285.43408, 288.56299, 293.26953, 298.56934, 300.52051, 303.23633, 309.74023, 314.31934, 318.13818, " y="1739, ">
				duration as required.(was:
		</text>
		<text fill="gray" font-size="9" font-family="Segoe UI" x="218, 220.81689, 222.99658, 227.57568, 232.87549, 236.69434, 239.15967, 242.20947, 247.48291, 249.94824, 252.12793, 257.22119, 262.521, 264.70068, 268.85791, 273.43701, 276.48682, 281.19336, 283.65869, 285.83838, 288.65527, 291.12061, 294.93945, 297.98926, 302.56836, 305.69727, 308.74707, 311.2124, 315.7915, 320.88477, 326.18457, 329.69141, 334.96484, " y="1751, ">
				flags to indicate if start and/or
		</text>
		<text fill="gray" font-size="9" font-family="Segoe UI" x="218, 222.70654, 227.7998, 233.09961, 235.56494, 240.86475, 245.44385, 248.49365, 253.2002, 255.66553, 260.24463, 265.33789, 270.6377, 273.10303, 276.15283, 278.33252, 286.08447, 290.79102, 294.60986, 297.0752, 301.6543, 304.7832, " y="1763, ">
				end date and times are
		</text>
		<text fill="gray" font-size="9" font-family="Segoe UI" x="218, 222.15723, 227.43066, 232.52393, 235.34082, 237.52051, 240.64941, 248.40137, 253.10791, 258.40771, 260.35889, " y="1775, ">
				confirmed.)
		</text>
		<rect fill="white" x="222" y="1644" width="75" height="16"/>
		<text font-size="12" font-weight="600" font-family="Segoe UI" x="222, 227.75977, 235.0957, 242.35547, 246.95508, 250.36523, 255.17578, 266.16797, 272.625, 277.29492, 280.70508, 288.04102, " y="1657, ">
				confirmation
		</text>
		<rect fill="none" stroke="black" stroke-width="1" stroke-linecap="square" stroke-miterlimit="4" transform="translate(0.5 0.5)" x="213" y="1642" width="95" height="20"/>
		<rect x="303" y="1647" width="11" height="11"/>
		<rect fill="white" x="304" y="1648" width="9" height="9"/>
		<rect x="305" y="1652" width="7" height="1"/>
		<rect x="308" y="1649" width="1" height="7"/>
		<rect x="178" y="1436" width="11" height="11"/>
		<rect fill="white" x="179" y="1437" width="9" height="9"/>
		<rect x="180" y="1441" width="7" height="1"/>
		<rect x="47" y="1017" width="11" height="11"/>
		<rect fill="white" x="48" y="1018" width="9" height="9"/>
		<rect x="49" y="1022" width="7" height="1"/>
	</g>
</svg>
