<?xml version="1.0" encoding="utf-8" ?>
<svg xmlns="http://www.w3.org/2000/svg" xmlns:xlink="http://www.w3.org/1999/xlink" width="407" height="2783">
	<clipPath id="cl_847">
		<rect x="-10" y="-5" width="407" height="2783"/>
	</clipPath>
	<g clip-path="url(#cl_847)">
		<rect fill="#FFFFC0" x="135" width="237" height="1914"/>
		<rect fill="none" stroke="gray" stroke-width="1" stroke-linecap="square" stroke-miterlimit="4" transform="translate(0.5 0.5)" x="135" width="236" height="1913"/>
		<path fill="none" stroke="black" stroke-width="1" stroke-linecap="square" stroke-miterlimit="4" transform="translate(0.5 0.5)" d="M67 1331L147 1331"/>
		<path fill="none" stroke="black" stroke-width="1" stroke-linecap="square" stroke-miterlimit="4" transform="translate(0.5 0.5)" d="M148 1331L148 883"/>
		<path fill="none" stroke="black" stroke-width="1" stroke-linecap="square" stroke-miterlimit="4" transform="translate(0.5 0.5)" d="M148 1331L148 2321"/>
		<path transform="translate(0.5 0.5)" d="M148.5 2322L148.5 2324L148.5 2324.5L147.5 2324.5L147.5 2324L147.5 2321.5L148.5 2321.5L148.5 2322ZM148.5 2328L148.5 2330L148.5 2330.5L147.5 2330.5L147.5 2330L147.5 2327.5L148.5 2327.5L148.5 2328ZM148.5 2334L148.5 2336L148.5 2336.5L147.5 2336.5L147.5 2336L147.5 2333.5L148.5 2333.5L148.5 2334ZM148.5 2340L148.5 2342L148.5 2342.5L147.5 2342.5L147.5 2342L147.5 2339.5L148.5 2339.5L148.5 2340ZM148.5 2346L148.5 2348L148.5 2348.5L147.5 2348.5L147.5 2348L147.5 2345.5L148.5 2345.5L148.5 2346ZM148.5 2352L148.5 2354L148.5 2354.5L147.5 2354.5L147.5 2354L147.5 2351.5L148.5 2351.5L148.5 2352ZM148.5 2358L148.5 2360L148.5 2360.5L147.5 2360.5L147.5 2360L147.5 2357.5L148.5 2357.5L148.5 2358ZM148.5 2364L148.5 2366L148.5 2366.5L147.5 2366.5L147.5 2366L147.5 2363.5L148.5 2363.5L148.5 2364ZM148.5 2370L148.5 2372L148.5 2372.5L147.5 2372.5L147.5 2372L147.5 2369.5L148.5 2369.5L148.5 2370ZM148.5 2376L148.5 2378L148.5 2378.5L147.5 2378.5L147.5 2378L147.5 2375.5L148.5 2375.5L148.5 2376ZM148.5 2382L148.5 2384L148.5 2384.5L147.5 2384.5L147.5 2384L147.5 2381.5L148.5 2381.5L148.5 2382ZM148.5 2388L148.5 2390L148.5 2390.5L147.5 2390.5L147.5 2390L147.5 2387.5L148.5 2387.5L148.5 2388ZM148.5 2394L148.5 2396L148.5 2396.5L147.5 2396.5L147.5 2396L147.5 2393.5L148.5 2393.5L148.5 2394ZM148.5 2400L148.5 2402L148.5 2402.5L147.5 2402.5L147.5 2402L147.5 2399.5L148.5 2399.5L148.5 2400ZM148.5 2406L148.5 2408L148.5 2408.5L147.5 2408.5L147.5 2408L147.5 2405.5L148.5 2405.5L148.5 2406ZM148.5 2412L148.5 2414L148.5 2414.5L147.5 2414.5L147.5 2414L147.5 2411.5L148.5 2411.5L148.5 2412ZM148.5 2418L148.5 2420L148.5 2420.5L147.5 2420.5L147.5 2420L147.5 2417.5L148.5 2417.5L148.5 2418ZM148.5 2424L148.5 2426L148.5 2426.5L147.5 2426.5L147.5 2426L147.5 2423.5L148.5 2423.5L148.5 2424ZM148.5 2430L148.5 2432L148.5 2432.5L147.5 2432.5L147.5 2432L147.5 2429.5L148.5 2429.5L148.5 2430ZM148.5 2436L148.5 2438L148.5 2438.5L147.5 2438.5L147.5 2438L147.5 2435.5L148.5 2435.5L148.5 2436ZM148.5 2442L148.5 2444L148.5 2444.5L147.5 2444.5L147.5 2444L147.5 2441.5L148.5 2441.5L148.5 2442ZM148.5 2448L148.5 2450L148.5 2450.5L147.5 2450.5L147.5 2450L147.5 2447.5L148.5 2447.5L148.5 2448ZM148.5 2454L148.5 2456L148.5 2456.5L147.5 2456.5L147.5 2456L147.5 2453.5L148.5 2453.5L148.5 2454ZM148.5 2460L148.5 2462L148.5 2462.5L147.5 2462.5L147.5 2462L147.5 2459.5L148.5 2459.5L148.5 2460ZM148.5 2466L148.5 2468L148.5 2468.5L147.5 2468.5L147.5 2468L147.5 2465.5L148.5 2465.5L148.5 2466ZM148.5 2472L148.5 2474L148.5 2474.5L147.5 2474.5L147.5 2474L147.5 2471.5L148.5 2471.5L148.5 2472ZM148.5 2478L148.5 2480L148.5 2480.5L147.5 2480.5L147.5 2480L147.5 2477.5L148.5 2477.5L148.5 2478ZM148.5 2484L148.5 2486L148.5 2486.5L147.5 2486.5L147.5 2486L147.5 2483.5L148.5 2483.5L148.5 2484ZM148.5 2490L148.5 2492L148.5 2492.5L147.5 2492.5L147.5 2492L147.5 2489.5L148.5 2489.5L148.5 2490ZM148.5 2496L148.5 2498L148.5 2498.5L147.5 2498.5L147.5 2498L147.5 2495.5L148.5 2495.5L148.5 2496ZM148.5 2502L148.5 2504L148.5 2504.5L147.5 2504.5L147.5 2504L147.5 2501.5L148.5 2501.5L148.5 2502ZM148.5 2508L148.5 2510L148.5 2510.5L147.5 2510.5L147.5 2510L147.5 2507.5L148.5 2507.5L148.5 2508ZM148.5 2514L148.5 2516L148.5 2516.5L147.5 2516.5L147.5 2516L147.5 2513.5L148.5 2513.5L148.5 2514ZM148.5 2520L148.5 2522L148.5 2522.5L147.5 2522.5L147.5 2522L147.5 2519.5L148.5 2519.5L148.5 2520ZM148.5 2526L148.5 2528L148.5 2528.5L147.5 2528.5L147.5 2528L147.5 2525.5L148.5 2525.5L148.5 2526ZM148.5 2532L148.5 2534L148.5 2534.5L147.5 2534.5L147.5 2534L147.5 2531.5L148.5 2531.5L148.5 2532ZM148.5 2538L148.5 2540L148.5 2540.5L147.5 2540.5L147.5 2540L147.5 2537.5L148.5 2537.5L148.5 2538ZM148.5 2544L148.5 2546L148.5 2546.5L147.5 2546.5L147.5 2546L147.5 2543.5L148.5 2543.5L148.5 2544ZM148.5 2550L148.5 2552L148.5 2552.5L147.5 2552.5L147.5 2552L147.5 2549.5L148.5 2549.5L148.5 2550ZM148.5 2556L148.5 2558L148.5 2558.5L147.5 2558.5L147.5 2558L147.5 2555.5L148.5 2555.5L148.5 2556ZM148.5 2562L148.5 2564L148.5 2564.5L147.5 2564.5L147.5 2564L147.5 2561.5L148.5 2561.5L148.5 2562ZM148.5 2568L148.5 2570L148.5 2570.5L147.5 2570.5L147.5 2570L147.5 2567.5L148.5 2567.5L148.5 2568ZM148.5 2574L148.5 2576L148.5 2576.5L147.5 2576.5L147.5 2576L147.5 2573.5L148.5 2573.5L148.5 2574ZM148.5 2580L148.5 2582L148.5 2582.5L147.5 2582.5L147.5 2582L147.5 2579.5L148.5 2579.5L148.5 2580ZM148.5 2586L148.5 2588L148.5 2588.5L147.5 2588.5L147.5 2588L147.5 2585.5L148.5 2585.5L148.5 2586ZM148.5 2592L148.5 2594L148.5 2594.5L147.5 2594.5L147.5 2594L147.5 2591.5L148.5 2591.5L148.5 2592ZM148.5 2598L148.5 2600L148.5 2600.5L147.5 2600.5L147.5 2600L147.5 2597.5L148.5 2597.5L148.5 2598ZM148.5 2604L148.5 2606L148.5 2606.5L147.5 2606.5L147.5 2606L147.5 2603.5L148.5 2603.5L148.5 2604ZM148.5 2610L148.5 2612L148.5 2612.5L147.5 2612.5L147.5 2612L147.5 2609.5L148.5 2609.5L148.5 2610ZM148.5 2616L148.5 2618L148.5 2618.5L147.5 2618.5L147.5 2618L147.5 2615.5L148.5 2615.5L148.5 2616ZM148.5 2622L148.5 2624L148.5 2624.5L147.5 2624.5L147.5 2624L147.5 2621.5L148.5 2621.5L148.5 2622ZM148.5 2628L148.5 2630L148.5 2630.5L147.5 2630.5L147.5 2630L147.5 2627.5L148.5 2627.5L148.5 2628ZM148.5 2634L148.5 2636L148.5 2636.5L147.5 2636.5L147.5 2636L147.5 2633.5L148.5 2633.5L148.5 2634ZM148.5 2640L148.5 2642L148.5 2642.5L147.5 2642.5L147.5 2642L147.5 2639.5L148.5 2639.5L148.5 2640ZM148.5 2646L148.5 2648L148.5 2648.5L147.5 2648.5L147.5 2648L147.5 2645.5L148.5 2645.5L148.5 2646ZM148.5 2652L148.5 2654L148.5 2654.5L147.5 2654.5L147.5 2654L147.5 2651.5L148.5 2651.5L148.5 2652ZM148.5 2658L148.5 2660L148.5 2660.5L147.5 2660.5L147.5 2660L147.5 2657.5L148.5 2657.5L148.5 2658ZM148.5 2664L148.5 2666L148.5 2666.5L147.5 2666.5L147.5 2666L147.5 2663.5L148.5 2663.5L148.5 2664ZM148.5 2670L148.5 2672L148.5 2672.5L147.5 2672.5L147.5 2672L147.5 2669.5L148.5 2669.5L148.5 2670ZM148.5 2676L148.5 2678L148.5 2678.5L147.5 2678.5L147.5 2678L147.5 2675.5L148.5 2675.5L148.5 2676ZM148.5 2682L148.5 2684L148.5 2684.5L147.5 2684.5L147.5 2684L147.5 2681.5L148.5 2681.5L148.5 2682ZM148.5 2688L148.5 2690L148.5 2690.5L147.5 2690.5L147.5 2690L147.5 2687.5L148.5 2687.5L148.5 2688ZM148.5 2694L148.5 2696L148.5 2696.5L147.5 2696.5L147.5 2696L147.5 2693.5L148.5 2693.5L148.5 2694ZM148.5 2700L148.5 2702L148.5 2702.5L147.5 2702.5L147.5 2702L147.5 2699.5L148.5 2699.5L148.5 2700ZM148.5 2706L148.5 2708L148.5 2708.5L147.5 2708.5L147.5 2708L147.5 2705.5L148.5 2705.5L148.5 2706ZM148.5 2712L148.5 2714L148.5 2714.5L147.5 2714.5L147.5 2714L147.5 2711.5L148.5 2711.5L148.5 2712ZM148.5 2718L148.5 2720L148.5 2720.5L147.5 2720.5L147.5 2720L147.5 2717.5L148.5 2717.5L148.5 2718ZM148.5 2724L148.5 2726L148.5 2726.5L147.5 2726.5L147.5 2726L147.5 2723.5L148.5 2723.5L148.5 2724ZM148.5 2730L148.5 2732L148.5 2732.5L147.5 2732.5L147.5 2732L147.5 2729.5L148.5 2729.5L148.5 2730ZM148.5 2736L148.5 2738.5L147.5 2738.5L147.5 2735.5L148.5 2735.5L148.5 2736Z"/>
		<path transform="translate(0.5 0.5)" d="M148 1780.5L150 1780.5L150.5 1780.5L150.5 1781.5L150 1781.5L147.5 1781.5L147.5 1780.5L148 1780.5ZM154 1780.5L156 1780.5L156.5 1780.5L156.5 1781.5L156 1781.5L153.5 1781.5L153.5 1780.5L154 1780.5ZM160 1780.5L162.5 1780.5L162.5 1781.5L159.5 1781.5L159.5 1780.5L160 1780.5Z"/>
		<path transform="translate(0.5 0.5)" d="M148 2739.5L150 2739.5L150.5 2739.5L150.5 2740.5L150 2740.5L147.5 2740.5L147.5 2739.5L148 2739.5ZM154 2739.5L156 2739.5L156.5 2739.5L156.5 2740.5L156 2740.5L153.5 2740.5L153.5 2739.5L154 2739.5ZM160 2739.5L162.5 2739.5L162.5 2740.5L159.5 2740.5L159.5 2739.5L160 2739.5Z"/>
		<path fill="none" stroke="black" stroke-width="1" stroke-linecap="square" stroke-miterlimit="4" transform="translate(0.5 0.5)" d="M148 2322L162 2322"/>
		<path fill="none" stroke="black" stroke-width="1" stroke-linecap="square" stroke-miterlimit="4" transform="translate(0.5 0.5)" d="M148 882L162 882"/>
		<rect fill="silver" x="4" y="1325" width="62" height="21"/>
		<rect fill="white" y="1321" width="62" height="21"/>
		<rect fill="#FFFFC0" x="143" y="8" width="78" height="16"/>
		<text fill="gray" font-size="12" font-weight="600" font-family="Segoe UI" x="143, 149.24023, 152.65039, 159.14258, 165.76953, 173.14062, 177.86914, 185.20508, 192.64648, 199.13867, 205.5957, 213.03711, " y="21, ">
				FlexPropType
		</text>
		<rect fill="white" x="5" y="1348" width="115" height="48"/>
		<text fill="gray" font-size="9" font-family="Segoe UI" x="5, 10.805176, 13.270508, 16.399414, 21.105957, 23.285645, 27.864746, 30.914551, 35.621094, 40.920898, 43.38623, 47.543457, 52.816895, 57.910156, 62.067383, 66.773926, 72.064941, 75.114746, 77.065918, 79.53125, 86.035156, 91.128418, 95.834961, 98.963867, 103.67041, 106.13574, 109.18555, 114.27881, " y="1358, ">
				A related concept, where the
		</text>
		<text fill="gray" font-size="9" font-family="Segoe UI" x="5, 8.1289062, 12.835449, 15.015137, 19.594238, 22.644043, 24.82373, 30.097168, 35.19043, 39.009277, 44.102539, 46.282227, 51.573242, 54.038574, 56.218262, 60.037109, 62.502441, 67.802246, 69.981934, 72.798828, 75.615723, 80.322266, 83.451172, 88.157715, 93.250977, 96.300781, 98.766113, 101.58301, 104.71191, 109.98535, " y="1370, ">
				relationship is different from
		</text>
		<text fill="gray" font-size="9" font-family="Segoe UI" x="5, 7.0698242, 10.888672, 15.467773, 23.219727, 27.92627, 33.731445, 37.550293, 39.620117, 41.571289, 44.036621, 46.106445, 51.397461, 54.526367, 59.799805, 64.378906, 69.678711, 74.385254, 77.51416, 79.583984, 82.049316, 87.322754, " y="1382, ">
				&apos;sameAs&apos;, &apos;broader&apos; or
		</text>
		<text fill="gray" font-size="9" font-family="Segoe UI" x="5, 7.0698242, 12.163086, 16.742188, 19.871094, 23, 28.273438, 34.777344, 39.483887, 42.612793, 44.682617, " y="1394, ">
				&apos;narrower&apos;.
		</text>
		<rect fill="white" x="9" y="1323" width="41" height="16"/>
		<text font-size="12" font-weight="600" font-family="Segoe UI" x="9, 13.728516, 20.220703, 23.630859, 30.087891, 34.710938, 41.203125, " y="1336, ">
				related
		</text>
		<rect fill="#FFFFC0" x="225" y="8" width="59" height="16"/>
		<text fill="gray" font-size="12" font-family="Segoe UI" x="225, 228.62109, 234.89648, 240.4043, 244.4707, 250.74609, 257.53711, 262.62891, 265.53516, 272.56641, 279.35742, " y="21, ">
				(extension)
		</text>
		<rect fill="none" stroke="black" stroke-width="1" stroke-linecap="square" stroke-miterlimit="4" transform="translate(0.5 0.5)" y="1321" width="61" height="20"/>
		<path fill="white" d="M240 55L240 36L163 36L163 55L163 1727L310 1727L310 55L240 55Z"/>
		<rect fill="white" x="183" y="38" width="51" height="16"/>
		<text font-size="12" font-style="italic" font-family="Segoe UI" x="183, 189.50391, 193.38281, 197.26172, 201.5332, 204.63867, 211.14258, 217.83984, 221.73047, 227.57227, " y="51, ">
				attributes
		</text>
		<path fill="none" stroke="black" stroke-width="1" stroke-linecap="square" stroke-miterlimit="4" transform="translate(0.5 0.5)" d="M240 55L240 36L163 36L163 55L163 1727L310 1727L310 55L240 55Z"/>
		<rect fill="silver" x="181" y="68" width="52" height="21"/>
		<rect fill="white" x="177" y="64" width="52" height="21"/>
		<rect fill="white" x="182" y="91" width="101" height="24"/>
		<text fill="gray" font-size="9" font-family="Segoe UI" x="182, 186.71533, 191.80859, 196.51514, 198.98047, 201.16016, 206.43359, 210.59082, 215.16992, 217.34961, 219.81494, 221.99463, 227.29443, 232.00098, 237.09424, 240.14404, 242.32373, 245.14062, 247.32031, 252.02686, 255.15576, 257.62109, 262.89453, 265.71143, 268.17676, 271.22656, 276.31982, " y="101, ">
				The local identifier of the
		</text>
		<text fill="gray" font-size="9" font-family="Segoe UI" x="182, 187.29102, 190.41992, 195.69336, 200.98438, 205.69092, 208.81982, 211.86963, 216.22461, " y="113, ">
				property.
		</text>
		<rect fill="white" x="186" y="66" width="36" height="16"/>
		<text font-size="12" font-weight="600" font-family="Segoe UI" x="186, 189.41016, " y="79, ">
				id
		</text>
		<rect fill="none" stroke="black" stroke-width="1" stroke-linecap="square" stroke-miterlimit="4" transform="translate(0.5 0.5)" x="177" y="64" width="51" height="20"/>
		<rect fill="silver" x="181" y="126" width="58" height="21"/>
		<rect fill="white" x="177" y="122" width="58" height="21"/>
		<rect fill="white" x="182" y="149" width="121" height="120"/>
		<text fill="gray" font-size="9" font-family="Segoe UI" x="182, 184.39502, 187.21191, 189.67725, 192.72705, 197.82031, 202.52686, 204.99219, 210.2832, 213.41211, 218.68555, 223.97656, 228.68311, 231.81201, 234.86182, 239.2168, 241.68213, 245.99316, 250.57227, 252.75195, 257.84521, 262.55176, 265.01709, 267.19678, 271.01562, 273.48096, 278.57422, 283.84766, " y="159, ">
				If the property value is not
		</text>
		<text fill="gray" font-size="9" font-family="Segoe UI" x="182, 187.2998, 192.00635, 194.82324, 197.00293, 202.09619, 206.80273, 212.10254, 214.05371, 216.51904, 220.33789, 225.62891, 230.33545, 234.49268, 236.67236, 239.48926, 241.66895, 246.37549, 250.19434, 252.65967, 259.16357, 264.25684, 266.43652, 270.59375, 275.68701, 278.15234, 282.85889, 287.95215, 291.00195, 293.18164, 296.23145, " y="171, ">
				defined, specifies which entity
		</text>
		<text fill="gray" font-size="9" font-family="Segoe UI" x="182, 184.71582, 190.00684, 194.71338, 197.84229, 201.66113, 206.93457, 212.02783, 213.979, 216.44434, 221.71777, 224.84668, 230.14648, 234.72559, 239.81885, 241.99854, 245.81738, 250.39648, 253.44629, 255.62598, 260.89941, 265.99268, 268.45801, 273.73145, " y="183, ">
				(person, organisation or
		</text>
		<text fill="gray" font-size="9" font-family="Segoe UI" x="182, 185.81885, 190.17383, 193.99268, 197.04248, 201.74902, 209.50098, 212.2168, 214.68213, 221.18604, 223.36572, 225.54541, 227.7251, 230.19043, 234.89697, 240.19678, 242.37646, 245.42627, 247.8916, 250.94141, 256.03467, 260.74121, 263.20654, 268.49756, 271.62646, 276.8999, 282.19092, 286.89746, 290.02637, 293.07617, " y="195, ">
				system) will edit the property
		</text>
		<text fill="gray" font-size="9" font-family="Segoe UI" x="182, 186.31104, 190.89014, 193.06982, 198.16309, 202.86963, 205.33496, 208.93408, 211.39941, 216.10596, 220.23682, 225.52783, 228.65674, 233.36328, 237.18213, 241.00098, 245.70752, 251.00732, 253.47266, 258.76367, 263.11865, 265.58398, 270.16309, 272.62842, 279.41357, 284.98584, 290.25928, 295.55908, 300.26562, " y="207, ">
				value - expressed by a QCode.
		</text>
		<text fill="gray" font-size="9" font-family="Segoe UI" x="182, 184.39502, 187.21191, 189.67725, 192.72705, 197.82031, 202.52686, 204.99219, 210.2832, 213.41211, 218.68555, 223.97656, 228.68311, 231.81201, 234.86182, 239.2168, 241.68213, 245.99316, 250.57227, 252.75195, 257.84521, 262.55176, 265.01709, 267.19678, " y="219, ">
				If the property value is
		</text>
		<text fill="gray" font-size="9" font-family="Segoe UI" x="182, 187.2998, 192.00635, 194.82324, 197.00293, 202.09619, 206.80273, 212.10254, 214.05371, 216.51904, 220.33789, 225.62891, 230.33545, 234.49268, 236.67236, 239.48926, 241.66895, 246.37549, 250.19434, 252.65967, 259.16357, 264.25684, 266.43652, 270.59375, 275.68701, 278.15234, 282.85889, 287.95215, 291.00195, 293.18164, 296.23145, " y="231, ">
				defined, specifies which entity
		</text>
		<text fill="gray" font-size="9" font-family="Segoe UI" x="182, 184.71582, 190.00684, 194.71338, 197.84229, 201.66113, 206.93457, 212.02783, 213.979, 216.44434, 221.71777, 224.84668, 230.14648, 234.72559, 239.81885, 241.99854, 245.81738, 250.39648, 253.44629, 255.62598, 260.89941, 265.99268, 268.45801, 273.73145, " y="243, ">
				(person, organisation or
		</text>
		<text fill="gray" font-size="9" font-family="Segoe UI" x="182, 185.81885, 190.17383, 193.99268, 197.04248, 201.74902, 209.50098, 212.2168, 214.68213, 219.77539, 224.35449, 228.17334, 230.63867, 235.34521, 240.64502, 242.82471, 245.87451, 250.58105, 255.88086, 258.34619, 261.396, 266.48926, " y="255, ">
				system) has edited the
		</text>
		<text fill="gray" font-size="9" font-family="Segoe UI" x="182, 187.29102, 190.41992, 195.69336, 200.98438, 205.69092, 208.81982, 211.86963, 216.22461, 218.68994, 223.00098, 227.58008, 229.75977, 234.85303, 239.55957, " y="267, ">
				property value.
		</text>
		<rect fill="white" x="186" y="124" width="42" height="16"/>
		<text font-size="12" font-weight="600" font-family="Segoe UI" x="186, 191.75977, 196.48828, 202.98047, 209.4375, 214.06055, 221.39648, " y="137, ">
				creator
		</text>
		<rect fill="none" stroke="black" stroke-width="1" stroke-linecap="square" stroke-miterlimit="4" transform="translate(0.5 0.5)" x="177" y="122" width="57" height="20"/>
		<rect fill="silver" x="181" y="280" width="73" height="21"/>
		<rect fill="white" x="177" y="276" width="73" height="21"/>
		<rect fill="white" x="182" y="303" width="120" height="108"/>
		<text fill="gray" font-size="9" font-family="Segoe UI" x="182, 184.39502, 187.21191, 189.67725, 192.72705, 197.82031, 202.52686, 204.99219, 210.2832, 213.41211, 218.68555, 223.97656, 228.68311, 231.81201, 234.86182, 239.2168, 241.68213, 245.99316, 250.57227, 252.75195, 257.84521, 262.55176, 265.01709, 267.19678, 271.01562, 273.48096, 278.57422, 283.84766, " y="313, ">
				If the property value is not
		</text>
		<text fill="gray" font-size="9" font-family="Segoe UI" x="182, 187.2998, 192.00635, 194.82324, 197.00293, 202.09619, 206.80273, 212.10254, 214.05371, 216.51904, 220.33789, 225.62891, 230.33545, 234.49268, 236.67236, 239.48926, 241.66895, 246.37549, 250.19434, 252.65967, 259.16357, 264.25684, 266.43652, 270.59375, 275.68701, 278.15234, 282.85889, 287.95215, 291.00195, 293.18164, 296.23145, " y="325, ">
				defined, specifies which entity
		</text>
		<text fill="gray" font-size="9" font-family="Segoe UI" x="182, 184.71582, 190.00684, 194.71338, 197.84229, 201.66113, 206.93457, 212.02783, 213.979, 216.44434, 221.71777, 224.84668, 230.14648, 234.72559, 239.81885, 241.99854, 245.81738, 250.39648, 253.44629, 255.62598, 260.89941, 265.99268, 268.45801, 273.73145, " y="337, ">
				(person, organisation or
		</text>
		<text fill="gray" font-size="9" font-family="Segoe UI" x="182, 185.81885, 190.17383, 193.99268, 197.04248, 201.74902, 209.50098, 212.2168, 214.68213, 221.18604, 223.36572, 225.54541, 227.7251, 230.19043, 234.89697, 240.19678, 242.37646, 245.42627, 247.8916, 250.94141, 256.03467, 260.74121, 263.20654, 268.49756, 271.62646, 276.8999, 282.19092, 286.89746, 290.02637, 293.07617, " y="349, ">
				system) will edit the property
		</text>
		<text fill="gray" font-size="9" font-family="Segoe UI" x="182, 185.59912, 188.06445, 192.771, 196.90186, 202.19287, 205.32178, 210.02832, 213.84717, 217.66602, 222.37256, 227.67236, 230.1377, 235.42871, 239.78369, 242.24902, 246.82812, 249.29346, 255.47656, 260.85986, 263.25488, 265.20605, 267.67139, 270.06641, 272.8833, 275.34863, 278.39844, 283.4917, " y="361, ">
				- expressed by a URI. If the
		</text>
		<text fill="gray" font-size="9" font-family="Segoe UI" x="182, 187.29102, 190.41992, 195.69336, 200.98438, 205.69092, 208.81982, 211.86963, 216.22461, 218.68994, 223.00098, 227.58008, 229.75977, 234.85303, 239.55957, 242.0249, 244.20459, 248.02344, 250.48877, 255.78857, 260.49512, 263.31201, 265.4917, 270.58496, 275.2915, 280.59131, " y="373, ">
				property value is defined,
		</text>
		<text fill="gray" font-size="9" font-family="Segoe UI" x="182, 185.81885, 191.10986, 195.81641, 199.97363, 202.15332, 204.97021, 207.1499, 211.85645, 215.67529, 218.14062, 224.64453, 229.73779, 231.91748, 236.07471, 241.16797, 243.6333, 248.33984, 253.43311, 256.48291, 258.6626, 261.7124, 266.06738, 268.53271, 271.24854, 276.53955, 281.24609, 284.375, 288.19385, 293.46729, 298.56055, " y="385, ">
				specifies which entity (person,
		</text>
		<text fill="gray" font-size="9" font-family="Segoe UI" x="182, 187.27344, 190.40234, 195.70215, 200.28125, 205.37451, 207.5542, 211.37305, 215.95215, 219.00195, 221.18164, 226.45508, 231.54834, 234.01367, 239.28711, 242.41602, 244.88135, 248.7002, 253.05518, 256.87402, 259.92383, 264.63037, 272.38232, 275.09814, 277.56348, 282.65674, 287.23584, " y="397, ">
				organisation or system) has
		</text>
		<text fill="gray" font-size="9" font-family="Segoe UI" x="182, 186.70654, 192.00635, 194.18604, 197.23584, 201.94238, 207.24219, 209.70752, 212.75732, 217.85059, 222.55713, 225.02246, 230.31348, 233.44238, 238.71582, 244.00684, 248.71338, 251.84229, 254.89209, 259.24707, " y="409, ">
				edited the property.
		</text>
		<rect fill="white" x="186" y="278" width="57" height="16"/>
		<text font-size="12" font-weight="600" font-family="Segoe UI" x="186, 191.75977, 196.48828, 202.98047, 209.4375, 214.06055, 221.39648, 226.20703, 233.4668, 238.28906, " y="291, ">
				creatoruri
		</text>
		<rect fill="none" stroke="black" stroke-width="1" stroke-linecap="square" stroke-miterlimit="4" transform="translate(0.5 0.5)" x="177" y="276" width="72" height="20"/>
		<rect fill="silver" x="181" y="422" width="69" height="21"/>
		<rect fill="white" x="177" y="418" width="69" height="21"/>
		<rect fill="white" x="182" y="445" width="119" height="72"/>
		<text fill="gray" font-size="9" font-family="Segoe UI" x="182, 186.71533, 191.80859, 196.51514, 198.98047, 204.28027, 208.85938, 211.90918, 216.61572, 219.08105, 221.79688, 226.37598, 231.46924, 236.76904, 238.72021, 241.18555, 246.45898, 251.75, 254.7998, 256.97949, 262.25293, 267.34619, 271.92529, 274.10498, 276.28467, 280.63965, 282.59082, 285.05615, 288.10596, 293.19922, " y="455, ">
				The date (and, optionally, the
		</text>
		<text fill="gray" font-size="9" font-family="Segoe UI" x="182, 185.0498, 187.22949, 194.98145, 199.68799, 202.40381, 204.86914, 211.37305, 216.46631, 221.17285, 226.26611, 228.73145, 231.78125, 236.87451, 241.58105, 244.04639, 249.3374, 252.46631, 257.73975, 263.03076, 267.7373, 270.86621, 273.91602, 278.271, 280.73633, 287.24023, 291.81934, " y="467, ">
				time) when the property was
		</text>
		<text fill="gray" font-size="9" font-family="Segoe UI" x="182, 184.17969, 188.75879, 192.57764, 195.62744, 198.09277, 205.84473, 211.11816, 216.41797, 218.59766, 221.41455, 223.59424, 228.30078, 233.60059, 235.55176, 238.01709, 242.73242, 247.82568, 252.53223, 254.99756, 257.17725, 262.27051, 264.4502, 267.5, 269.67969, 274.25879, 276.43848, 278.90381, 283.21484, 287.79395, 289.97363, 295.06689, " y="479, ">
				last modified. The initial value
		</text>
		<text fill="gray" font-size="9" font-family="Segoe UI" x="182, 184.17969, 187.99854, 190.46387, 193.51367, 198.60693, 203.31348, 205.77881, 211.07861, 215.65771, 218.70752, 223.41406, 225.87939, 228.59521, 233.17432, 238.26758, 243.56738, 245.51855, 247.98389, 253.25732, 258.54834, 261.59814, 263.77783, 269.05127, 274.14453, 278.72363, 280.90332, 283.08301, 287.43799, " y="491, ">
				is the date (and, optionally,
		</text>
		<text fill="gray" font-size="9" font-family="Segoe UI" x="182, 185.0498, 190.14307, 194.84961, 197.31494, 200.36475, 202.54443, 210.29639, 215.00293, 217.71875, 220.18408, 225.45752, 228.27441, 230.73975, 234.89697, 238.02588, 242.73242, 247.31152, 250.36133, 252.54102, 257.81445, 262.90771, 265.37305, 270.64648, 273.46338, 275.92871, 278.97852, 284.07178, " y="503, ">
				the time) of creation of the
		</text>
		<text fill="gray" font-size="9" font-family="Segoe UI" x="182, 187.29102, 190.41992, 195.69336, 200.98438, 205.69092, 208.81982, 211.86963, 216.22461, " y="515, ">
				property.
		</text>
		<rect fill="white" x="186" y="420" width="53" height="16"/>
		<text font-size="12" font-weight="600" font-family="Segoe UI" x="186, 196.99219, 204.32812, 211.75781, 215.16797, 219.76758, 223.17773, 229.66992, " y="433, ">
				modified
		</text>
		<rect fill="none" stroke="black" stroke-width="1" stroke-linecap="square" stroke-miterlimit="4" transform="translate(0.5 0.5)" x="177" y="418" width="68" height="20"/>
		<rect fill="silver" x="181" y="528" width="59" height="21"/>
		<rect fill="white" x="177" y="524" width="59" height="21"/>
		<rect fill="white" x="182" y="551" width="118" height="108"/>
		<text fill="gray" font-size="9" font-family="Segoe UI" x="182, 184.39502, 187.21191, 189.67725, 193.49609, 198.20264, 201.25244, 203.71777, 206.76758, 212.04102, 214.50635, 217.55615, 220.68506, 225.77832, 230.48486, 232.9502, 236, 241.09326, " y="561, ">
				If set to true the
		</text>
		<text fill="gray" font-size="9" font-family="Segoe UI" x="182, 186.15723, 191.43066, 194.55957, 197.68848, 202.39502, 206.21387, 211.50488, 216.77832, 221.87158, 227.17139, 229.35107, 234.44434, 239.74414, 242.20947, 247.50049, 250.62939, 255.90283, 261.19385, 265.90039, 269.0293, 272.0791, 276.43408, 278.89941, 285.40332, 289.98242, " y="573, ">
				corresponding property was
		</text>
		<text fill="gray" font-size="9" font-family="Segoe UI" x="182, 186.5791, 191.87891, 197.17871, 201.88525, 207.18506, 209.65039, 212.7002, 217.97363, 220.43896, 223.48877, 228.58203, 233.28857, 235.75391, 241.92822, 246.77979, 249.24512, 251.64014, 254.68994, 259.39648, 267.14844, 269.61377, 272.43066, 277.7041, 280.83301, 283.29834, " y="585, ">
				added to the G2 Item for a
		</text>
		<text fill="gray" font-size="9" font-family="Segoe UI" x="182, 185.81885, 191.10986, 195.81641, 199.97363, 202.15332, 204.97021, 207.1499, 211.30713, 213.77246, 217.92969, 223.02295, 226.8418, 229.8916, 235.16504, 242.91699, 247.62354, 250.75244, 253.21777, 258.49121, 261.62012, 264.08545, 269.38525, 272.51416, 277.7876, 282.88086, 288.17188, 290.63721, 295.91064, " y="597, ">
				specific customer or group of
		</text>
		<text fill="gray" font-size="9" font-family="Segoe UI" x="182, 186.15723, 191.25049, 195.06934, 198.11914, 203.39258, 211.14453, 215.85107, 218.97998, 222.79883, 225.26416, 230.5376, 235.63086, 237.81055, 242.16553, 244.1167, 246.58203, 251.29736, 256.39062, 261.09717, 263.5625, 268.8623, 273.56885, 276.38574, 280.96484, 286.05811, 288.23779, " y="609, ">
				customers only. The default
		</text>
		<text fill="gray" font-size="9" font-family="Segoe UI" x="182, 186.31104, 190.89014, 193.06982, 198.16309, 202.86963, 205.33496, 210.6084, 213.42529, 215.89062, 218.94043, 224.03369, 226.21338, 230.03223, 232.49756, 237.78857, 240.91748, 246.19092, 251.48193, 256.18848, 259.31738, 262.36719, 266.72217, 269.1875, 271.36719, 275.18604, 277.65137, 280.46826, 285.04736, 287.22705, 291.0459, " y="621, ">
				value of this property is false
		</text>
		<text fill="gray" font-size="9" font-family="Segoe UI" x="182, 188.50391, 193.59717, 195.77686, 199.93408, 205.02734, 207.49268, 212.07178, 217.36279, 222.65381, 224.8335, 227.01318, 231.71973, 235.53857, 238.00391, 244.50781, 249.60107, 254.30762, 259.40088, 261.86621, 264.91602, 270.00928, 272.18896, " y="633, ">
				which applies when this
		</text>
		<text fill="gray" font-size="9" font-family="Segoe UI" x="182, 186.5791, 189.62891, 192.67871, 195.80762, 197.9873, 203.27832, 208.37158, 211.42139, 216.12793, 218.59326, 220.77295, 224.5918, 227.05713, 232.15039, 237.42383, 240.47363, 242.93896, 248.03223, 251.85107, 256.55762, 261.85742, 264.32275, 270.82666, 273.00635, 276.05615, 281.14941, 283.61475, 286.66455, 291.75781, " y="645, ">
				attribute is not used with the
		</text>
		<text fill="gray" font-size="9" font-family="Segoe UI" x="182, 187.29102, 190.41992, 195.69336, 200.98438, 205.69092, 208.81982, 211.86963, 216.22461, " y="657, ">
				property.
		</text>
		<rect fill="white" x="186" y="526" width="43" height="16"/>
		<text font-size="12" font-weight="600" font-family="Segoe UI" x="186, 191.75977, 199.01953, 204.29883, 208.92188, 216.25781, " y="539, ">
				custom
		</text>
		<rect fill="none" stroke="black" stroke-width="1" stroke-linecap="square" stroke-miterlimit="4" transform="translate(0.5 0.5)" x="177" y="524" width="58" height="20"/>
		<rect fill="silver" x="181" y="670" width="52" height="21"/>
		<rect fill="white" x="177" y="666" width="52" height="21"/>
		<rect fill="white" x="182" y="693" width="118" height="48"/>
		<text fill="gray" font-size="9" font-family="Segoe UI" x="182, 184.39502, 189.48828, 194.78809, 196.96777, 201.125, 205.7041, 208.75391, 213.46045, 217.2793, 219.74463, 225.03564, 229.39062, 231.85596, 238.35986, 243.45312, 245.63281, 249.79004, 254.8833, 257.34863, 265.10059, 269.80713, 274.38623, 279.47949, 283.29834, 285.76367, 288.81348, 293.90674, " y="703, ">
				Indicates by which means the
		</text>
		<text fill="gray" font-size="9" font-family="Segoe UI" x="182, 186.31104, 190.89014, 193.06982, 198.16309, 202.86963, 205.33496, 211.83887, 216.41797, 220.23682, 222.70215, 227.40869, 231.53955, 234.58936, 237.71826, 242.29736, 246.45459, 249.50439, 254.21094, 259.51074, 261.97607, 264.79297, 267.92188, 273.19531, 280.94727, 283.4126, 286.4624, 291.55566, " y="715, ">
				value was extracted from the
		</text>
		<text fill="gray" font-size="9" font-family="Segoe UI" x="182, 186.15723, 191.43066, 196.52393, 199.57373, 204.28027, 209.37354, 212.42334, 214.88867, 218.48779, 220.95312, 225.65967, 229.79053, 235.08154, 238.21045, 242.91699, 246.73584, 250.55469, 255.26123, 260.56104, 263.02637, 268.31738, 272.67236, 275.1377, " y="727, ">
				content - expressed by a
		</text>
		<text fill="gray" font-size="9" font-family="Segoe UI" x="182, 188.78516, 194.35742, 199.63086, 204.93066, " y="739, ">
				QCode
		</text>
		<rect fill="white" x="186" y="668" width="36" height="16"/>
		<text font-size="12" font-weight="600" font-family="Segoe UI" x="186, 193.22461, 200.56055, " y="681, ">
				how
		</text>
		<rect fill="none" stroke="black" stroke-width="1" stroke-linecap="square" stroke-miterlimit="4" transform="translate(0.5 0.5)" x="177" y="666" width="51" height="20"/>
		<rect fill="silver" x="181" y="752" width="57" height="21"/>
		<rect fill="white" x="177" y="748" width="57" height="21"/>
		<rect fill="white" x="182" y="775" width="118" height="36"/>
		<text fill="gray" font-size="9" font-family="Segoe UI" x="182, 184.39502, 189.48828, 194.78809, 196.96777, 201.125, 205.7041, 208.75391, 213.46045, 217.2793, 219.74463, 225.03564, 229.39062, 231.85596, 238.35986, 243.45312, 245.63281, 249.79004, 254.8833, 257.34863, 265.10059, 269.80713, 274.38623, 279.47949, 283.29834, 285.76367, 288.81348, 293.90674, " y="785, ">
				Indicates by which means the
		</text>
		<text fill="gray" font-size="9" font-family="Segoe UI" x="182, 186.31104, 190.89014, 193.06982, 198.16309, 202.86963, 205.33496, 211.83887, 216.41797, 220.23682, 222.70215, 227.40869, 231.53955, 234.58936, 237.71826, 242.29736, 246.45459, 249.50439, 254.21094, 259.51074, 261.97607, 264.79297, 267.92188, 273.19531, 280.94727, 283.4126, 286.4624, 291.55566, " y="797, ">
				value was extracted from the
		</text>
		<text fill="gray" font-size="9" font-family="Segoe UI" x="182, 186.15723, 191.43066, 196.52393, 199.57373, 204.28027, 209.37354, 212.42334, 214.88867, 218.48779, 220.95312, 225.65967, 229.79053, 235.08154, 238.21045, 242.91699, 246.73584, 250.55469, 255.26123, 260.56104, 263.02637, 268.31738, 272.67236, 275.1377, 279.7168, 282.18213, 288.36523, 293.74854, " y="809, ">
				content - expressed by a URI
		</text>
		<rect fill="white" x="186" y="750" width="41" height="16"/>
		<text font-size="12" font-weight="600" font-family="Segoe UI" x="186, 193.22461, 200.56055, 210.12891, 217.38867, 222.21094, " y="763, ">
				howuri
		</text>
		<rect fill="none" stroke="black" stroke-width="1" stroke-linecap="square" stroke-miterlimit="4" transform="translate(0.5 0.5)" x="177" y="748" width="56" height="20"/>
		<rect fill="silver" x="181" y="822" width="52" height="21"/>
		<rect fill="white" x="177" y="818" width="52" height="21"/>
		<rect fill="white" x="182" y="845" width="113" height="36"/>
		<text fill="gray" font-size="9" font-family="Segoe UI" x="182, 190.40674, 195.5, 199.85498, 202.32031, 205.37012, 210.46338, 215.16992, 217.63525, 225.38721, 230.09375, 233.14355, 237.72266, 243.02246, 247.60156, 250.65137, 255.23047, 257.6958, 262.78906, 267.36816, 271.18701, 273.65234, 278.94336, 283.6499, 288.35645, " y="855, ">
				Why the metadata has been
		</text>
		<text fill="gray" font-size="9" font-family="Segoe UI" x="182, 184.17969, 189.27295, 193.43018, 195.60986, 200.70312, 206.00293, 210.70947, 216.00928, 218.47461, 222.07373, 224.53906, 229.24561, 233.37646, 238.66748, 241.79639, 246.50293, 250.32178, 254.14062, 258.84717, 264.14697, 266.6123, 271.90332, 276.2583, 278.72363, " y="867, ">
				included - expressed by a
		</text>
		<text fill="gray" font-size="9" font-family="Segoe UI" x="182, 188.78516, 194.35742, 199.63086, 204.93066, " y="879, ">
				QCode
		</text>
		<rect fill="white" x="186" y="820" width="36" height="16"/>
		<text font-size="12" font-weight="600" font-family="Segoe UI" x="186, 195.56836, 202.79297, " y="833, ">
				why
		</text>
		<rect fill="none" stroke="black" stroke-width="1" stroke-linecap="square" stroke-miterlimit="4" transform="translate(0.5 0.5)" x="177" y="818" width="51" height="20"/>
		<rect fill="silver" x="181" y="892" width="56" height="21"/>
		<rect fill="white" x="177" y="888" width="56" height="21"/>
		<rect fill="white" x="182" y="915" width="119" height="24"/>
		<text fill="gray" font-size="9" font-family="Segoe UI" x="182, 190.40674, 195.5, 199.85498, 202.32031, 205.37012, 210.46338, 215.16992, 217.63525, 225.38721, 230.09375, 233.14355, 237.72266, 243.02246, 247.60156, 250.65137, 255.23047, 257.6958, 262.78906, 267.36816, 271.18701, 273.65234, 278.94336, 283.6499, 288.35645, " y="925, ">
				Why the metadata has been
		</text>
		<text fill="gray" font-size="9" font-family="Segoe UI" x="182, 184.17969, 189.27295, 193.43018, 195.60986, 200.70312, 206.00293, 210.70947, 216.00928, 218.47461, 222.07373, 224.53906, 229.24561, 233.37646, 238.66748, 241.79639, 246.50293, 250.32178, 254.14062, 258.84717, 264.14697, 266.6123, 271.90332, 276.2583, 278.72363, 283.30273, 285.76807, 291.95117, 297.33447, " y="937, ">
				included - expressed by a URI
		</text>
		<rect fill="white" x="186" y="890" width="40" height="16"/>
		<text font-size="12" font-weight="600" font-family="Segoe UI" x="186, 195.56836, 202.79297, 209.25, 216.50977, 221.33203, " y="903, ">
				whyuri
		</text>
		<rect fill="none" stroke="black" stroke-width="1" stroke-linecap="square" stroke-miterlimit="4" transform="translate(0.5 0.5)" x="177" y="888" width="55" height="20"/>
		<rect fill="silver" x="181" y="950" width="97" height="21"/>
		<rect fill="white" x="177" y="946" width="97" height="21"/>
		<rect fill="white" x="182" y="973" width="117" height="72"/>
		<text fill="gray" font-size="9" font-family="Segoe UI" x="182, 188.78516, 193.87842, 198.58496, 201.05029, 206.32373, 209.45264, 211.91797, 219.66992, 224.24902, 229.34229, 233.69727, 236.1626, 240.31982, 245.59326, 250.68652, 254.50537, 257.55518, 260.68408, 265.26318, 267.44287, 272.53613, 275.58594, 279.40479, 281.87012, 284.91992, 290.01318, 294.59229, " y="983, ">
				One or many constraints that
		</text>
		<text fill="gray" font-size="9" font-family="Segoe UI" x="182, 186.5791, 191.87012, 197.16113, 199.34082, 203.6958, 206.16113, 209.21094, 214.48438, 216.94971, 222.24072, 227.33398, 232.625, 234.80469, 236.98438, 240.80322, 245.89648, 248.07617, 253.16943, 258.46924, 260.93457, 263.98438, 269.07764, 273.78418, 276.24951, 280.56055, 285.13965, 287.31934, 292.4126, " y="995, ">
				apply to publishing the value
		</text>
		<text fill="gray" font-size="9" font-family="Segoe UI" x="182, 187.27344, 190.09033, 192.55566, 195.60547, 200.69873, 205.40527, 207.87061, 213.16162, 216.29053, 221.56396, 226.85498, 231.56152, 234.69043, 237.74023, 242.09521, 244.56055, 248.15967, 250.625, 255.33154, 259.4624, 264.75342, 267.88232, 272.58887, 276.40771, 280.22656, 284.93311, " y="1007, ">
				of the property - expressed
		</text>
		<text fill="gray" font-size="9" font-family="Segoe UI" x="182, 187.29102, 191.646, 194.11133, 198.69043, 201.15576, 207.94092, 213.51318, 218.78662, 224.08643, 228.79297, 230.74414, 233.20947, 237.76221, 242.34131, 246.49854, 251.5918, 254.05713, 258.21436, 263.48779, 268.58105, 272.3999, 275.44971, 278.57861, 283.15771, 285.3374, 290.43066, " y="1019, ">
				by a QCode. Each constraint
		</text>
		<text fill="gray" font-size="9" font-family="Segoe UI" x="182, 186.5791, 191.87012, 197.16113, 199.34082, 201.52051, 206.22705, 210.0459, 212.51123, 215.56104, 220.83447, 223.2998, 227.87891, 230.05859, 232.23828, 234.70361, 240.00342, 244.70996, 248.52881, 252.68604, 257.39258, 262.48584, 267.78564, 272.36475, 277.45801, " y="1031, ">
				applies to all descendant
		</text>
		<text fill="gray" font-size="9" font-family="Segoe UI" x="182, 186.70654, 188.88623, 193.59277, 201.34473, 206.05127, 211.14453, 214.19434, 218.01318, " y="1043, ">
				elements.
		</text>
		<rect fill="white" x="186" y="948" width="81" height="16"/>
		<text font-size="12" font-weight="600" font-family="Segoe UI" x="186, 193.44141, 200.70117, 208.14258, 213.90234, 221.23828, 228.49805, 233.77734, 238.44727, 243.22266, 249.67969, 253.08984, 260.34961, " y="961, ">
				pubconstraint
		</text>
		<rect fill="none" stroke="black" stroke-width="1" stroke-linecap="square" stroke-miterlimit="4" transform="translate(0.5 0.5)" x="177" y="946" width="96" height="20"/>
		<rect fill="silver" x="181" y="1056" width="112" height="21"/>
		<rect fill="white" x="177" y="1052" width="112" height="21"/>
		<rect fill="white" x="182" y="1079" width="117" height="72"/>
		<text fill="gray" font-size="9" font-family="Segoe UI" x="182, 188.78516, 193.87842, 198.58496, 201.05029, 206.32373, 209.45264, 211.91797, 219.66992, 224.24902, 229.34229, 233.69727, 236.1626, 240.31982, 245.59326, 250.68652, 254.50537, 257.55518, 260.68408, 265.26318, 267.44287, 272.53613, 275.58594, 279.40479, 281.87012, 284.91992, 290.01318, 294.59229, " y="1089, ">
				One or many constraints that
		</text>
		<text fill="gray" font-size="9" font-family="Segoe UI" x="182, 186.5791, 191.87012, 197.16113, 199.34082, 203.6958, 206.16113, 209.21094, 214.48438, 216.94971, 222.24072, 227.33398, 232.625, 234.80469, 236.98438, 240.80322, 245.89648, 248.07617, 253.16943, 258.46924, 260.93457, 263.98438, 269.07764, 273.78418, 276.24951, 280.56055, 285.13965, 287.31934, 292.4126, " y="1101, ">
				apply to publishing the value
		</text>
		<text fill="gray" font-size="9" font-family="Segoe UI" x="182, 187.27344, 190.09033, 192.55566, 195.60547, 200.69873, 205.40527, 207.87061, 213.16162, 216.29053, 221.56396, 226.85498, 231.56152, 234.69043, 237.74023, 242.09521, 244.56055, 248.15967, 250.625, 255.33154, 259.4624, 264.75342, 267.88232, 272.58887, 276.40771, 280.22656, 284.93311, " y="1113, ">
				of the property - expressed
		</text>
		<text fill="gray" font-size="9" font-family="Segoe UI" x="182, 187.29102, 191.646, 194.11133, 198.69043, 201.15576, 207.33887, 212.72217, 215.11719, 217.06836, 219.53369, 224.08643, 228.66553, 232.82275, 237.91602, 240.38135, 244.53857, 249.81201, 254.90527, 258.72412, 261.77393, 264.90283, 269.48193, 271.66162, 276.75488, " y="1125, ">
				by a URI. Each constraint
		</text>
		<text fill="gray" font-size="9" font-family="Segoe UI" x="182, 186.5791, 191.87012, 197.16113, 199.34082, 201.52051, 206.22705, 210.0459, 212.51123, 215.56104, 220.83447, 223.2998, 227.87891, 230.05859, 232.23828, 234.70361, 240.00342, 244.70996, 248.52881, 252.68604, 257.39258, 262.48584, 267.78564, 272.36475, 277.45801, " y="1137, ">
				applies to all descendant
		</text>
		<text fill="gray" font-size="9" font-family="Segoe UI" x="182, 186.70654, 188.88623, 193.59277, 201.34473, 206.05127, 211.14453, 214.19434, 218.01318, " y="1149, ">
				elements.
		</text>
		<rect fill="white" x="186" y="1054" width="96" height="16"/>
		<text font-size="12" font-weight="600" font-family="Segoe UI" x="186, 193.44141, 200.70117, 208.14258, 213.90234, 221.23828, 228.49805, 233.77734, 238.44727, 243.22266, 249.67969, 253.08984, 260.34961, 265.01953, 272.2793, 277.10156, " y="1067, ">
				pubconstrainturi
		</text>
		<rect fill="none" stroke="black" stroke-width="1" stroke-linecap="square" stroke-miterlimit="4" transform="translate(0.5 0.5)" x="177" y="1052" width="111" height="20"/>
		<rect fill="silver" x="181" y="1162" width="52" height="21"/>
		<rect fill="white" x="177" y="1158" width="52" height="21"/>
		<rect fill="white" x="182" y="1185" width="121" height="48"/>
		<text fill="gray" font-size="9" font-family="Segoe UI" x="182, 187.80518, 190.27051, 194.42773, 199.70117, 204.79443, 208.95166, 213.6582, 218.94922, 221.99902, 224.46436, 226.64404, 231.94385, 236.65039, 241.74365, 244.79346, 246.97314, 249.79004, 251.96973, 256.67627, 259.80518, 262.27051, 266.97705, 271.10791, 276.39893, 279.52783, 284.23438, 288.05322, 291.87207, 296.57861, " y="1195, ">
				A concept identifier expressed
		</text>
		<text fill="gray" font-size="9" font-family="Segoe UI" x="182, 186.5791, 190.39795, 192.86328, 197.44238, 199.90771, 203.72656, 206.77637, 209.90527, 212.08496, 217.17822, 222.47803, 224.94336, 230.2168, 233.03369, 235.49902, 238.54883, 243.64209, 248.34863, 250.81396, 253.63086, 258.9043, 262.0332, 269.78516, 272.25049, 276.06934, 279.88818, 283.70703, 285.6582, 289.81543, 293.97266, 298.12988, " y="1207, ">
				as a string of the form sss:ccc,
		</text>
		<text fill="gray" font-size="9" font-family="Segoe UI" x="182, 188.50391, 193.59717, 198.30371, 201.43262, 206.13916, 208.60449, 212.42334, 216.24219, 220.06104, 222.52637, 224.70605, 228.5249, 230.99023, 235.56934, 238.03467, 241.85352, 246.01074, 251.104, 255.81055, 263.5625, 268.26904, 270.73438, 275.31348, 277.49316, 279.67285, 284.25195, " y="1219, ">
				where sss is a scheme alias
		</text>
		<text fill="gray" font-size="9" font-family="Segoe UI" x="182, 186.5791, 191.67236, 196.97217, 199.4375, 203.59473, 207.75195, 211.90918, 214.37451, 216.5542, 220.37305, 222.83838, 227.41748, 229.88281, 234.04004, 239.31348, 244.61328, " y="1231, ">
				and ccc is a code
		</text>
		<rect fill="white" x="186" y="1160" width="36" height="16"/>
		<text font-size="12" font-weight="600" font-family="Segoe UI" x="186, 193.42969, 199.18945, 206.52539, 213.95508, " y="1173, ">
				qcode
		</text>
		<rect fill="none" stroke="black" stroke-width="1" stroke-linecap="square" stroke-miterlimit="4" transform="translate(0.5 0.5)" x="177" y="1158" width="51" height="20"/>
		<rect fill="silver" x="181" y="1244" width="52" height="21"/>
		<rect fill="white" x="177" y="1240" width="52" height="21"/>
		<rect fill="white" x="182" y="1267" width="95" height="24"/>
		<text fill="gray" font-size="9" font-family="Segoe UI" x="182, 187.80518, 190.27051, 196.45361, 201.83691, 204.23193, 206.69727, 213.20117, 218.29443, 220.47412, 224.63135, 229.72461, 232.18994, 234.36963, 239.66943, 244.37598, 249.46924, 252.51904, 254.69873, 257.51562, 259.69531, 264.40186, 268.2207, 270.68604, " y="1277, ">
				A URI which identifies a
		</text>
		<text fill="gray" font-size="9" font-family="Segoe UI" x="182, 186.15723, 191.43066, 196.52393, 200.68115, 205.3877, 210.67871, 213.72852, " y="1289, ">
				concept.
		</text>
		<rect fill="white" x="186" y="1242" width="36" height="16"/>
		<text font-size="12" font-weight="600" font-family="Segoe UI" x="186, 193.25977, 198.08203, " y="1255, ">
				uri
		</text>
		<rect fill="none" stroke="black" stroke-width="1" stroke-linecap="square" stroke-miterlimit="4" transform="translate(0.5 0.5)" x="177" y="1240" width="51" height="20"/>
		<rect fill="silver" x="181" y="1302" width="52" height="21"/>
		<rect fill="white" x="177" y="1298" width="52" height="21"/>
		<rect fill="white" x="182" y="1325" width="121" height="24"/>
		<text fill="gray" font-size="9" font-family="Segoe UI" x="182, 187.80518, 190.27051, 194.42773, 199.70117, 204.79443, 208.95166, 213.6582, 218.94922, 221.99902, 224.46436, 226.64404, 231.94385, 236.65039, 241.74365, 244.79346, 246.97314, 249.79004, 251.96973, 256.67627, 259.80518, 262.27051, 266.97705, 271.10791, 276.39893, 279.52783, 284.23438, 288.05322, 291.87207, 296.57861, " y="1335, ">
				A concept identifier expressed
		</text>
		<text fill="gray" font-size="9" font-family="Segoe UI" x="182, 186.5791, 190.39795, 192.86328, 197.44238, 199.90771, 202.72461, 205.85352, 210.56006, 215.2666, 217.73193, 220.78174, 225.48828, 229.61914, 232.66895, 235.13428, 238.95312, 242.00293, 245.13184, 247.31152, 252.40479, " y="1347, ">
				as a free text string
		</text>
		<rect fill="white" x="186" y="1300" width="36" height="16"/>
		<text font-size="12" font-weight="600" font-family="Segoe UI" x="186, 189.41016, 192.82031, 197.44336, 203.93555, 208.71094, 215.16797, " y="1313, ">
				literal
		</text>
		<rect fill="none" stroke="black" stroke-width="1" stroke-linecap="square" stroke-miterlimit="4" transform="translate(0.5 0.5)" x="177" y="1298" width="51" height="20"/>
		<rect fill="silver" x="181" y="1360" width="52" height="21"/>
		<rect fill="white" x="177" y="1356" width="52" height="21"/>
		<rect fill="white" x="182" y="1383" width="119" height="48"/>
		<text fill="gray" font-size="9" font-family="Segoe UI" x="182, 186.71533, 191.80859, 196.51514, 198.98047, 202.03027, 206.38525, 211.67627, 216.38281, 218.84814, 224.12158, 226.93848, 229.40381, 232.45361, 237.54688, 242.25342, 244.71875, 248.87598, 254.14941, 259.24268, 263.3999, 268.10645, 273.39746, " y="1393, ">
				The type of the concept
		</text>
		<text fill="gray" font-size="9" font-family="Segoe UI" x="182, 186.5791, 190.39795, 194.2168, 196.39648, 201.69629, 206.78955, 211.49609, 216.7959, 219.26123, 223.84033, 227.65918, 230.12451, 234.28174, 239.55518, 244.64844, 247.69824, 250.82715, 256.10059, 258.28027, 260.45996, 265.1665, " y="1405, ">
				assigned as controlled
		</text>
		<text fill="gray" font-size="9" font-family="Segoe UI" x="182, 187.29102, 190.41992, 195.69336, 200.98438, 205.69092, 208.81982, 211.86963, 216.22461, 218.68994, 223.00098, 227.58008, 229.75977, 234.85303, 239.55957, 242.0249, 245.62402, 248.08936, 252.7959, 256.92676, 262.21777, 265.34668, 270.05322, 273.87207, 277.69092, 282.39746, 287.69727, 290.1626, 295.45361, " y="1417, ">
				property value - expressed by
		</text>
		<text fill="gray" font-size="9" font-family="Segoe UI" x="182, 186.5791, 189.04443, 195.82959, 201.40186, 206.67529, 211.9751, " y="1429, ">
				a QCode
		</text>
		<rect fill="white" x="186" y="1358" width="36" height="16"/>
		<text font-size="12" font-weight="600" font-family="Segoe UI" x="186, 190.66992, 197.12695, 204.56836, " y="1371, ">
				type
		</text>
		<rect fill="none" stroke="black" stroke-width="1" stroke-linecap="square" stroke-miterlimit="4" transform="translate(0.5 0.5)" x="177" y="1356" width="51" height="20"/>
		<rect fill="silver" x="181" y="1442" width="58" height="21"/>
		<rect fill="white" x="177" y="1438" width="58" height="21"/>
		<rect fill="white" x="182" y="1465" width="119" height="48"/>
		<text fill="gray" font-size="9" font-family="Segoe UI" x="182, 186.71533, 191.80859, 196.51514, 198.98047, 202.03027, 206.38525, 211.67627, 216.38281, 218.84814, 224.12158, 226.93848, 229.40381, 232.45361, 237.54688, 242.25342, 244.71875, 248.87598, 254.14941, 259.24268, 263.3999, 268.10645, 273.39746, " y="1475, ">
				The type of the concept
		</text>
		<text fill="gray" font-size="9" font-family="Segoe UI" x="182, 186.5791, 190.39795, 194.2168, 196.39648, 201.69629, 206.78955, 211.49609, 216.7959, 219.26123, 223.84033, 227.65918, 230.12451, 234.28174, 239.55518, 244.64844, 247.69824, 250.82715, 256.10059, 258.28027, 260.45996, 265.1665, " y="1487, ">
				assigned as controlled
		</text>
		<text fill="gray" font-size="9" font-family="Segoe UI" x="182, 187.29102, 190.41992, 195.69336, 200.98438, 205.69092, 208.81982, 211.86963, 216.22461, 218.68994, 223.00098, 227.58008, 229.75977, 234.85303, 239.55957, 242.0249, 245.62402, 248.08936, 252.7959, 256.92676, 262.21777, 265.34668, 270.05322, 273.87207, 277.69092, 282.39746, 287.69727, 290.1626, 295.45361, " y="1499, ">
				property value - expressed by
		</text>
		<text fill="gray" font-size="9" font-family="Segoe UI" x="182, 186.5791, 189.04443, 195.22754, 200.61084, " y="1511, ">
				a URI
		</text>
		<rect fill="white" x="186" y="1440" width="42" height="16"/>
		<text font-size="12" font-weight="600" font-family="Segoe UI" x="186, 190.66992, 197.12695, 204.56836, 211.06055, 218.32031, 223.14258, " y="1453, ">
				typeuri
		</text>
		<rect fill="none" stroke="black" stroke-width="1" stroke-linecap="square" stroke-miterlimit="4" transform="translate(0.5 0.5)" x="177" y="1438" width="57" height="20"/>
		<rect fill="silver" x="181" y="1524" width="66" height="21"/>
		<rect fill="white" x="177" y="1520" width="66" height="21"/>
		<rect fill="white" x="182" y="1547" width="121" height="84"/>
		<text fill="gray" font-size="9" font-family="Segoe UI" x="182, 186.78125, 192.07227, 196.77881, 200.93604, 203.11572, 205.93262, 208.1123, 212.81885, 216.6377, 219.10303, 222.15283, 227.24609, 231.95264, 234.41797, 236.59766, 241.17676, 246.27002, 251.56982, 256.66309, 261.24219, 266.54199, 271.24854, 273.71387, 278.9873, 281.8042, 284.26953, 287.31934, 292.4126, 294.59229, " y="1557, ">
				Specifies the language of this
		</text>
		<text fill="gray" font-size="9" font-family="Segoe UI" x="182, 187.29102, 190.41992, 195.69336, 200.98438, 205.69092, 208.81982, 211.86963, 216.22461, 218.68994, 223.26904, 228.3623, 233.66211, 236.12744, 241.41846, 246.69189, 249.7417, 254.44824, 259.5415, 262.59131, 264.771, 269.3501, 271.52979, 273.70947, 278.06445, 280.52979, 285.10889, 287.28857, " y="1569, ">
				property and potentially all
		</text>
		<text fill="gray" font-size="9" font-family="Segoe UI" x="182, 187.2998, 192.00635, 195.8252, 199.98242, 204.68896, 209.78223, 215.08203, 219.66113, 224.75439, 227.8042, 230.26953, 235.56055, 238.68945, 243.96289, 249.25391, 253.96045, 257.08936, 260.13916, 262.31885, 267.02539, 270.84424, " y="1581, ">
				descendant properties.
		</text>
		<text fill="gray" font-size="9" font-family="Segoe UI" x="182, 186.13086, 193.88281, 196.0625, 198.01367, 200.19336, 204.77246, 209.86572, 215.16553, 217.63086, 221.94189, 226.521, 228.70068, 233.79395, 238.50049, 242.31934, 244.78467, 250.05811, 252.875, 255.34033, 260.64014, 265.34668, 269.16553, 273.32275, 278.0293, 283.12256, 288.42236, 293.00146, 298.09473, " y="1593, ">
				xml:lang values of descendant
		</text>
		<text fill="gray" font-size="9" font-family="Segoe UI" x="182, 187.29102, 190.41992, 195.69336, 200.98438, 205.69092, 208.81982, 211.86963, 214.04932, 218.75586, 222.57471, 225.04004, 230.31348, 234.62451, 239.33105, 242.45996, 245.58887, 247.76855, 253.06836, 257.7749, 260.24023, 263.29004, 268.3833, 270.56299, 274.38184, 276.84717, 281.1582, 285.7373, 287.91699, 293.01025, 297.7168, " y="1605, ">
				properties override this value.
		</text>
		<text fill="gray" font-size="9" font-family="Segoe UI" x="182, 186.93066, 191.50977, 193.68945, 198.78271, 203.48926, 207.30811, 209.77344, 214.35254, 217.48145, 222.18799, 224.65332, 229.95312, 234.65967, 237.70947, 242.41602, 245.54492, 253.29688, 255.47656, 260.56982, 265.27637, 270.57617, 273.0415, 278.33252, " y="1617, ">
				Values are determined by
		</text>
		<text fill="gray" font-size="9" font-family="Segoe UI" x="182, 184.39502, 189.48828, 192.53809, 197.24463, 200.37354, 205.4668, 210.17334, 213.22314, 215.68848, 220.84766, 226.41992, 231.46045, 233.92578, 238.77734, 243.62891, " y="1629, ">
				Internet BCP 47.
		</text>
		<rect fill="white" x="186" y="1522" width="50" height="16"/>
		<text font-size="12" font-weight="600" font-family="Segoe UI" x="186, 192.62695, 203.61914, 207.0293, 210.28125, 213.69141, 220.14844, 227.4082, " y="1535, ">
				xml:lang
		</text>
		<path fill="none" stroke="black" stroke-width="2" stroke-miterlimit="4" transform="translate(0.5 0.5)" d="M179 1538L183 1534"/>
		<path fill="none" stroke="black" stroke-width="1" stroke-linecap="square" stroke-miterlimit="4" transform="translate(0.5 0.5)" d="M180 1534L183 1534L183 1537"/>
		<rect fill="none" stroke="black" stroke-width="1" stroke-linecap="square" stroke-miterlimit="4" transform="translate(0.5 0.5)" x="177" y="1520" width="65" height="20"/>
		<rect fill="silver" x="181" y="1642" width="52" height="21"/>
		<rect fill="white" x="177" y="1638" width="52" height="21"/>
		<rect fill="white" x="182" y="1665" width="116" height="24"/>
		<text fill="gray" font-size="9" font-family="Segoe UI" x="182, 186.71533, 191.80859, 196.51514, 198.98047, 204.28027, 206.45996, 209.58887, 214.29541, 218.45264, 221.50244, 223.68213, 228.95557, 234.04883, 238.62793, 240.80762, 242.9873, 246.03711, 250.39209, 252.85742, 258.13086, 260.94775, 263.41309, 266.46289, 271.16943, 275.30029, 278.3501, 283.44336, 288.02246, " y="1675, ">
				The directionality of textual
		</text>
		<text fill="gray" font-size="9" font-family="Segoe UI" x="182, 186.15723, 191.43066, 196.52393, 199.57373, 204.28027, 209.37354, 212.42334, 214.88867, 217.60449, 222.31104, 227.4043, 232.49756, 240.24951, 244.95605, 248.08496, 252.66406, 255.71387, 257.89355, 263.16699, 268.26025, 270.21143, 272.67676, 274.85645, 277.90625, 281.03516, 282.98633, 285.45166, 288.58057, 291.63037, 293.81006, " y="1687, ">
				content (enumeration: ltr, rtl)
		</text>
		<rect fill="white" x="186" y="1640" width="36" height="16"/>
		<text font-size="12" font-weight="600" font-family="Segoe UI" x="186, 193.42969, 196.83984, " y="1653, ">
				dir
		</text>
		<rect fill="none" stroke="black" stroke-width="1" stroke-linecap="square" stroke-miterlimit="4" transform="translate(0.5 0.5)" x="177" y="1638" width="51" height="20"/>
		<path fill="silver" d="M181 1705L186 1700L254 1700L259 1705L259 1716L254 1721L186 1721L181 1716L181 1705Z"/>
		<path fill="white" d="M177 1701L182 1696L250 1696L255 1701L255 1712L250 1717L182 1717L177 1712L177 1701Z"/>
		<rect fill="white" x="204" y="1698" width="46" height="16"/>
		<text font-size="12" font-weight="600" font-family="Segoe UI" x="204, 211.10742, 218.21484, 225.55078, 230.2207, 237.44531, 243.9375, " y="1711, ">
				##other
		</text>
		<rect fill="white" x="182" y="1698" width="20" height="16"/>
		<text fill="gray" font-size="12" font-family="Segoe UI" x="182, 188.10547, 194.89648, " y="1711, ">
				any
		</text>
		<path fill="none" stroke="black" stroke-width="1" stroke-linecap="square" stroke-miterlimit="4" transform="translate(0.5 0.5)" d="M177 1701L182 1696L249 1696L254 1701L254 1711L249 1716L182 1716L177 1711L177 1701Z"/>
		<rect x="168" y="41" width="11" height="11"/>
		<rect fill="white" x="169" y="42" width="9" height="9"/>
		<rect x="170" y="46" width="7" height="1"/>
		<path fill="none" stroke="black" stroke-width="1" stroke-linecap="square" stroke-miterlimit="4" transform="translate(0.5 0.5)" d="M208 1781L216 1781"/>
		<path fill="none" stroke="black" stroke-width="1" stroke-linecap="square" stroke-miterlimit="4" transform="translate(0.5 0.5)" d="M217 1781L217 1751"/>
		<path fill="none" stroke="black" stroke-width="1" stroke-linecap="square" stroke-miterlimit="4" transform="translate(0.5 0.5)" d="M217 1781L217 1812"/>
		<path fill="none" stroke="black" stroke-width="1" stroke-linecap="square" stroke-miterlimit="4" transform="translate(0.5 0.5)" d="M217 1750L231 1750"/>
		<path fill="none" stroke="black" stroke-width="1" stroke-linecap="square" stroke-miterlimit="4" transform="translate(0.5 0.5)" d="M217 1813L231 1813"/>
		<path fill="silver" d="M170 1783L175 1778L200 1778L205 1783L205 1794L200 1799L175 1799L170 1794L170 1783Z"/>
		<path fill="white" d="M166 1779L171 1774L195 1774L200 1779L200 1789L195 1794L171 1794L166 1789L166 1779Z"/>
		<path transform="translate(0.5 0.5)" d="M169.889 1774.4L170.793 1773.5L171.929 1773.5L172.429 1773.5L172.429 1774.5L171.929 1774.5L171 1774.5L171 1774L171.354 1774.35L170.243 1775.46L169.536 1774.76L169.889 1774.4ZM175.929 1773.5L177.929 1773.5L178.429 1773.5L178.429 1774.5L177.929 1774.5L175.429 1774.5L175.429 1773.5L175.929 1773.5ZM181.929 1773.5L183.929 1773.5L184.429 1773.5L184.429 1774.5L183.929 1774.5L181.429 1774.5L181.429 1773.5L181.929 1773.5ZM187.929 1773.5L189.929 1773.5L190.429 1773.5L190.429 1774.5L189.929 1774.5L187.429 1774.5L187.429 1773.5L187.929 1773.5ZM193.929 1773.5L195.207 1773.5L196.01 1774.3L196.364 1774.66L195.657 1775.36L195.303 1775.01L194.646 1774.35L195 1774L195 1774.5L193.429 1774.5L193.429 1773.5L193.929 1773.5ZM198.839 1777.13L200.253 1778.55L200.607 1778.9L199.899 1779.61L199.546 1779.25L197.778 1777.49L198.485 1776.78L198.839 1777.13ZM200.5 1782.86L200.5 1784.86L200.5 1785.36L199.5 1785.36L199.5 1784.86L199.5 1782.36L200.5 1782.36L200.5 1782.86ZM200.5 1788.86L200.5 1789.21L199.04 1790.67L198.686 1791.02L197.979 1790.31L198.333 1789.96L199.646 1788.65L200 1789L199.5 1789L199.5 1788.36L200.5 1788.36L200.5 1788.86ZM196.211 1793.5L195.207 1794.5L194.213 1794.5L193.713 1794.5L193.713 1793.5L194.213 1793.5L195 1793.5L195 1794L194.646 1793.65L195.858 1792.44L196.565 1793.14L196.211 1793.5ZM190.213 1794.5L188.213 1794.5L187.713 1794.5L187.713 1793.5L188.213 1793.5L190.713 1793.5L190.713 1794.5L190.213 1794.5ZM184.213 1794.5L182.213 1794.5L181.713 1794.5L181.713 1793.5L182.213 1793.5L184.713 1793.5L184.713 1794.5L184.213 1794.5ZM178.213 1794.5L176.213 1794.5L175.713 1794.5L175.713 1793.5L176.213 1793.5L178.713 1793.5L178.713 1794.5L178.213 1794.5ZM172.213 1794.5L170.793 1794.5L170.09 1793.8L169.737 1793.44L170.444 1792.74L170.797 1793.09L171.354 1793.65L171 1794L171 1793.5L172.713 1793.5L172.713 1794.5L172.213 1794.5ZM167.262 1790.97L165.847 1789.55L165.494 1789.2L166.201 1788.49L166.555 1788.85L168.322 1790.62L167.615 1791.32L167.262 1790.97ZM165.5 1785.28L165.5 1783.28L165.5 1782.78L166.5 1782.78L166.5 1783.28L166.5 1785.78L165.5 1785.78L165.5 1785.28ZM165.5 1779.28L165.5 1778.79L167.414 1776.88L168.121 1777.59L166.354 1779.35L166 1779L166.5 1779L166.5 1779.78L165.5 1779.78L165.5 1779.28Z"/>
		<path fill="white" d="M163 1776L168 1771L193 1771L198 1776L198 1787L193 1792L168 1792L163 1787L163 1776Z"/>
		<path fill="none" stroke="black" stroke-width="1" stroke-linecap="square" stroke-miterlimit="4" transform="translate(0.5 0.5)" d="M182 1792L188 1798L191 1795"/>
		<path fill="none" stroke="black" stroke-width="1" stroke-linecap="square" stroke-miterlimit="4" transform="translate(0.5 0.5)" d="M168 1781L173 1781L177 1777"/>
		<path fill="none" stroke="black" stroke-width="1" stroke-linecap="square" stroke-miterlimit="4" transform="translate(0.5 0.5)" d="M183 1781L191 1781"/>
		<path fill="none" stroke="black" stroke-width="1" stroke-linecap="square" stroke-miterlimit="4" transform="translate(0.5 0.5)" d="M183 1777L187 1777L187 1785L183 1785"/>
		<rect x="179" y="1776" width="3" height="3"/>
		<rect x="179" y="1780" width="3" height="3"/>
		<rect x="179" y="1784" width="3" height="3"/>
		<text font-size="12" font-family="Segoe UI" x="167.76562, " y="1811, ">
				0
		</text>
		<text font-size="12" font-family="Symbol" x="182.72266, " y="1810, ">
				
		</text>
		<text font-size="12" font-family="Segoe UI" x="175.89844, 178.5, " y="1811, ">
				..
		</text>
		<path transform="translate(0.5 0.5)" d="M166.889 1771.4L167.793 1770.5L168.929 1770.5L169.429 1770.5L169.429 1771.5L168.929 1771.5L168 1771.5L168 1771L168.354 1771.35L167.243 1772.46L166.536 1771.76L166.889 1771.4ZM172.929 1770.5L174.929 1770.5L175.429 1770.5L175.429 1771.5L174.929 1771.5L172.429 1771.5L172.429 1770.5L172.929 1770.5ZM178.929 1770.5L180.929 1770.5L181.429 1770.5L181.429 1771.5L180.929 1771.5L178.429 1771.5L178.429 1770.5L178.929 1770.5ZM184.929 1770.5L186.929 1770.5L187.429 1770.5L187.429 1771.5L186.929 1771.5L184.429 1771.5L184.429 1770.5L184.929 1770.5ZM190.929 1770.5L192.207 1770.5L193.01 1771.3L193.364 1771.66L192.657 1772.36L192.303 1772.01L191.646 1771.35L192 1771L192 1771.5L190.429 1771.5L190.429 1770.5L190.929 1770.5ZM195.839 1774.13L197.253 1775.55L197.607 1775.9L196.899 1776.61L196.546 1776.25L194.778 1774.49L195.485 1773.78L195.839 1774.13ZM197.5 1779.86L197.5 1781.86L197.5 1782.36L196.5 1782.36L196.5 1781.86L196.5 1779.36L197.5 1779.36L197.5 1779.86ZM197.5 1785.86L197.5 1786.21L196.04 1787.67L195.686 1788.02L194.979 1787.31L195.333 1786.96L196.646 1785.65L197 1786L196.5 1786L196.5 1785.36L197.5 1785.36L197.5 1785.86ZM193.211 1790.5L192.207 1791.5L191.213 1791.5L190.713 1791.5L190.713 1790.5L191.213 1790.5L192 1790.5L192 1791L191.646 1790.65L192.858 1789.44L193.565 1790.14L193.211 1790.5ZM187.213 1791.5L185.213 1791.5L184.713 1791.5L184.713 1790.5L185.213 1790.5L187.713 1790.5L187.713 1791.5L187.213 1791.5ZM181.213 1791.5L179.213 1791.5L178.713 1791.5L178.713 1790.5L179.213 1790.5L181.713 1790.5L181.713 1791.5L181.213 1791.5ZM175.213 1791.5L173.213 1791.5L172.713 1791.5L172.713 1790.5L173.213 1790.5L175.713 1790.5L175.713 1791.5L175.213 1791.5ZM169.213 1791.5L167.793 1791.5L167.09 1790.8L166.737 1790.44L167.444 1789.74L167.797 1790.09L168.354 1790.65L168 1791L168 1790.5L169.713 1790.5L169.713 1791.5L169.213 1791.5ZM164.262 1787.97L162.847 1786.55L162.494 1786.2L163.201 1785.49L163.555 1785.85L165.322 1787.62L164.615 1788.32L164.262 1787.97ZM162.5 1782.28L162.5 1780.28L162.5 1779.78L163.5 1779.78L163.5 1780.28L163.5 1782.78L162.5 1782.78L162.5 1782.28ZM162.5 1776.28L162.5 1775.79L164.414 1773.88L165.121 1774.59L163.354 1776.35L163 1776L163.5 1776L163.5 1776.78L162.5 1776.78L162.5 1776.28Z"/>
		<rect fill="silver" x="236" y="1744" width="54" height="21"/>
		<rect fill="white" x="232" y="1740" width="54" height="21"/>
		<rect fill="#FFFFC0" x="237" y="1767" width="115" height="24"/>
		<text fill="gray" font-size="9" font-family="Segoe UI" x="237, 242.80518, 245.27051, 250.36377, 254.94287, 257.99268, 263.08594, 266.21484, 270.79395, 272.97363, 275.43896, 277.61865, 282.19775, 287.29102, 292.59082, 297.68408, 302.26318, 307.56299, 312.26953, 314.73486, 319.82812, 324.40723, 332.15918, 336.86572, 339.33105, 342.14795, 347.42139, " y="1777, ">
				A natural language name for
		</text>
		<text fill="gray" font-size="9" font-family="Segoe UI" x="237, 240.0498, 245.14307, 249.84961, 252.31494, 256.47217, 261.74561, 266.83887, 270.99609, 275.70264, 280.99365, 284.04346, " y="1789, ">
				the concept.
		</text>
		<rect fill="white" x="241" y="1742" width="33" height="16"/>
		<text font-size="12" font-weight="600" font-family="Segoe UI" x="241, 248.25977, 254.7168, 265.70898, " y="1755, ">
				name
		</text>
		<path fill="none" stroke="black" stroke-width="1" stroke-linecap="square" stroke-miterlimit="4" transform="translate(0.5 0.5)" d="M234 1742L239 1742"/>
		<path fill="none" stroke="black" stroke-width="1" stroke-linecap="square" stroke-miterlimit="4" transform="translate(0.5 0.5)" d="M234 1744L238 1744"/>
		<path fill="none" stroke="black" stroke-width="1" stroke-linecap="square" stroke-miterlimit="4" transform="translate(0.5 0.5)" d="M234 1746L238 1746"/>
		<path fill="none" stroke="black" stroke-width="2" stroke-miterlimit="4" transform="translate(0.5 0.5)" d="M234 1758L238 1754"/>
		<path fill="none" stroke="black" stroke-width="1" stroke-linecap="square" stroke-miterlimit="4" transform="translate(0.5 0.5)" d="M235 1754L238 1754L238 1757"/>
		<rect fill="none" stroke="black" stroke-width="1" stroke-linecap="square" stroke-miterlimit="4" transform="translate(0.5 0.5)" x="232" y="1740" width="53" height="20"/>
		<rect x="280" y="1745" width="11" height="11"/>
		<rect fill="white" x="281" y="1746" width="9" height="9"/>
		<rect x="282" y="1750" width="7" height="1"/>
		<rect x="285" y="1747" width="1" height="7"/>
		<rect fill="silver" x="236" y="1807" width="98" height="21"/>
		<rect fill="white" x="232" y="1803" width="98" height="21"/>
		<rect fill="#FFFFC0" x="237" y="1830" width="121" height="72"/>
		<text fill="gray" font-size="9" font-family="Segoe UI" x="237, 242.11963, 246.82617, 252.11719, 255.24609, 259.95264, 263.77148, 268.47803, 273.57129, 276.62109, 280.43994, 282.90527, 285.95508, 291.04834, 295.75488, 298.22021, 303.51123, 308.78467, 312.60352, 314.7832, 317.83301, 320.0127, 325.28613, 330.37939, 332.84473, 338.11816, 340.93506, 343.40039, " y="1840, ">
				Represents the position of a
		</text>
		<text fill="gray" font-size="9" font-family="Segoe UI" x="237, 241.15723, 246.43066, 251.52393, 255.68115, 260.3877, 265.67871, 268.72852, 271.19385, 273.37354, 278.4668, 280.93213, 285.51123, 287.97656, 293.06982, 295.24951, 299.95605, 303.08496, 307.66406, 310.79297, 314.9502, 320.04346, 322.22314, 326.38037, 330.95947, " y="1852, ">
				concept in a hierarchical
		</text>
		<text fill="gray" font-size="9" font-family="Segoe UI" x="237, 240.0498, 244.62891, 248.75977, 254.0332, 259.12646, 264.3999, 272.15186, 276.50684, 278.97217, 282.02197, 285.15088, 289.85742, 294.56396, 297.0293, 302.32031, 306.67529, 309.14062, 313.71973, 316.18506, 320.00391, 324.71045, 330.01025, 335.10352, 339.81006, 344.90332, 349.06055, " y="1864, ">
				taxonomy tree by a sequence
		</text>
		<text fill="gray" font-size="9" font-family="Segoe UI" x="237, 242.27344, 245.09033, 247.55566, 254.34082, 259.91309, 265.18652, 270.48633, 275.19287, 277.6582, 280.70801, 285.98145, 290.45508, 295.16162, 300.25488, 304.07373, 306.53906, 309.66797, 314.37451, 319.66553, 322.79443, 327.50098, 331.31982, 336.02637, 341.11963, 344.16943, 346.34912, 351.44238, " y="1876, ">
				of QCode tokens representing
		</text>
		<text fill="gray" font-size="9" font-family="Segoe UI" x="237, 240.0498, 245.14307, 249.84961, 252.31494, 256.89404, 261.9873, 266.14453, 270.85107, 274.66992, 277.71973, 282.99316, 286.12207, 288.5874, 292.74463, 298.01807, 303.11133, 307.26855, 311.9751, 317.26611, 320.31592, 324.13477, 326.6001, 331.1792, 336.27246, " y="1888, ">
				the ancestor concepts and
		</text>
		<text fill="gray" font-size="9" font-family="Segoe UI" x="237, 240.0498, 245.14307, 247.32275, 251.1416, 253.60693, 257.76416, 263.0376, 268.13086, 272.28809, 276.99463, 282.28564, " y="1900, ">
				this concept
		</text>
		<rect fill="white" x="241" y="1805" width="77" height="16"/>
		<text font-size="12" font-weight="600" font-family="Segoe UI" x="241, 248.22461, 251.63477, 258.12695, 262.90234, 269.35938, 274.08789, 279.84766, 287.07227, 293.5293, 297.33203, 304.5918, 309.19141, " y="1818, ">
				hierarchyInfo
		</text>
		<path fill="none" stroke="black" stroke-width="1" stroke-linecap="square" stroke-miterlimit="4" transform="translate(0.5 0.5)" d="M234 1805L239 1805"/>
		<path fill="none" stroke="black" stroke-width="1" stroke-linecap="square" stroke-miterlimit="4" transform="translate(0.5 0.5)" d="M234 1807L238 1807"/>
		<path fill="none" stroke="black" stroke-width="1" stroke-linecap="square" stroke-miterlimit="4" transform="translate(0.5 0.5)" d="M234 1809L238 1809"/>
		<path fill="none" stroke="black" stroke-width="2" stroke-miterlimit="4" transform="translate(0.5 0.5)" d="M234 1821L238 1817"/>
		<path fill="none" stroke="black" stroke-width="1" stroke-linecap="square" stroke-miterlimit="4" transform="translate(0.5 0.5)" d="M235 1817L238 1817L238 1820"/>
		<rect fill="none" stroke="black" stroke-width="1" stroke-linecap="square" stroke-miterlimit="4" transform="translate(0.5 0.5)" x="232" y="1803" width="97" height="20"/>
		<rect x="324" y="1808" width="11" height="11"/>
		<rect fill="white" x="325" y="1809" width="9" height="9"/>
		<rect x="326" y="1813" width="7" height="1"/>
		<rect x="329" y="1810" width="1" height="7"/>
		<rect x="197" y="1776" width="11" height="11"/>
		<rect fill="white" x="198" y="1777" width="9" height="9"/>
		<rect x="199" y="1781" width="7" height="1"/>
		<path fill="white" d="M240 1945L240 1926L163 1926L163 1945L163 2717L372 2717L372 1945L240 1945Z"/>
		<rect fill="white" x="183" y="1928" width="51" height="16"/>
		<text font-size="12" font-style="italic" font-family="Segoe UI" x="183, 189.50391, 193.38281, 197.26172, 201.5332, 204.63867, 211.14258, 217.83984, 221.73047, 227.57227, " y="1941, ">
				attributes
		</text>
		<path fill="none" stroke="black" stroke-width="1" stroke-linecap="square" stroke-miterlimit="4" transform="translate(0.5 0.5)" d="M240 1945L240 1926L163 1926L163 1945L163 2717L372 2717L372 1945L240 1945Z"/>
		<rect fill="silver" x="181" y="1958" width="52" height="21"/>
		<rect fill="white" x="177" y="1954" width="52" height="21"/>
		<rect fill="white" x="182" y="1981" width="120" height="60"/>
		<text fill="gray" font-size="9" font-family="Segoe UI" x="182, 186.71533, 191.80859, 196.51514, 198.98047, 201.16016, 206.45996, 211.1665, 216.25977, 219.30957, 221.48926, 224.30615, 226.48584, 231.19238, 234.32129, 236.78662, 242.06006, 244.87695, 247.34229, 250.39209, 255.48535, " y="1991, ">
				The identifier of the
		</text>
		<text fill="gray" font-size="9" font-family="Segoe UI" x="182, 185.12891, 189.83545, 192.01514, 196.59424, 199.64404, 201.82373, 207.09717, 212.19043, 216.00928, 221.10254, 223.28223, 228.57324, 231.03857, 236.32959, 241.03613, 244.08594, 250.58984, 255.29639, 260.00293, 265.09619, 267.56152, 270.61133, 275.70459, " y="2003, ">
				relationship between the
		</text>
		<text fill="gray" font-size="9" font-family="Segoe UI" x="182, 186.15723, 191.25049, 194.37939, 197.5083, 202.21484, 207.30811, 210.35791, 212.82324, 216.98047, 222.25391, 227.34717, 231.50439, 236.21094, 241.50195, 244.55176, 247.01709, 251.59619, 256.68945, 261.98926, 264.45459, 267.50439, 272.59766, " y="2015, ">
				current concept and the
		</text>
		<text fill="gray" font-size="9" font-family="Segoe UI" x="182, 185.0498, 189.62891, 192.75781, 198.05762, 202.76416, 205.81396, 208.2793, 212.43652, 217.70996, 222.80322, 226.96045, 231.66699, 236.95801, 240.00781, 242.47314, 246.07227, 248.5376, 253.24414, 257.375, 262.66602, 265.79492, 270.50146, 274.32031, 278.13916, 282.8457, 288.14551, 290.61084, 295.90186, " y="2027, ">
				target concept - expressed by
		</text>
		<text fill="gray" font-size="9" font-family="Segoe UI" x="182, 186.5791, 189.04443, 195.82959, 201.40186, 206.67529, 211.9751, " y="2039, ">
				a QCode
		</text>
		<rect fill="white" x="186" y="1956" width="36" height="16"/>
		<text font-size="12" font-weight="600" font-family="Segoe UI" x="186, 190.72852, 197.2207, " y="1969, ">
				rel
		</text>
		<rect fill="none" stroke="black" stroke-width="1" stroke-linecap="square" stroke-miterlimit="4" transform="translate(0.5 0.5)" x="177" y="1954" width="51" height="20"/>
		<rect fill="silver" x="181" y="2052" width="52" height="21"/>
		<rect fill="white" x="177" y="2048" width="52" height="21"/>
		<rect fill="white" x="182" y="2075" width="120" height="60"/>
		<text fill="gray" font-size="9" font-family="Segoe UI" x="182, 186.71533, 191.80859, 196.51514, 198.98047, 201.16016, 206.45996, 211.1665, 216.25977, 219.30957, 221.48926, 224.30615, 226.48584, 231.19238, 234.32129, 236.78662, 242.06006, 244.87695, 247.34229, 250.39209, 255.48535, " y="2085, ">
				The identifier of the
		</text>
		<text fill="gray" font-size="9" font-family="Segoe UI" x="182, 185.12891, 189.83545, 192.01514, 196.59424, 199.64404, 201.82373, 207.09717, 212.19043, 216.00928, 221.10254, 223.28223, 228.57324, 231.03857, 236.32959, 241.03613, 244.08594, 250.58984, 255.29639, 260.00293, 265.09619, 267.56152, 270.61133, 275.70459, " y="2097, ">
				relationship between the
		</text>
		<text fill="gray" font-size="9" font-family="Segoe UI" x="182, 186.15723, 191.25049, 194.37939, 197.5083, 202.21484, 207.30811, 210.35791, 212.82324, 216.98047, 222.25391, 227.34717, 231.50439, 236.21094, 241.50195, 244.55176, 247.01709, 251.59619, 256.68945, 261.98926, 264.45459, 267.50439, 272.59766, " y="2109, ">
				current concept and the
		</text>
		<text fill="gray" font-size="9" font-family="Segoe UI" x="182, 185.0498, 189.62891, 192.75781, 198.05762, 202.76416, 205.81396, 208.2793, 212.43652, 217.70996, 222.80322, 226.96045, 231.66699, 236.95801, 240.00781, 242.47314, 246.07227, 248.5376, 253.24414, 257.375, 262.66602, 265.79492, 270.50146, 274.32031, 278.13916, 282.8457, 288.14551, 290.61084, 295.90186, " y="2121, ">
				target concept - expressed by
		</text>
		<text fill="gray" font-size="9" font-family="Segoe UI" x="182, 186.5791, 189.04443, 195.22754, 200.61084, " y="2133, ">
				a URI
		</text>
		<rect fill="white" x="186" y="2050" width="36" height="16"/>
		<text font-size="12" font-weight="600" font-family="Segoe UI" x="186, 190.72852, 197.2207, 200.63086, 207.89062, 212.71289, " y="2063, ">
				reluri
		</text>
		<rect fill="none" stroke="black" stroke-width="1" stroke-linecap="square" stroke-miterlimit="4" transform="translate(0.5 0.5)" x="177" y="2048" width="51" height="20"/>
		<rect fill="silver" x="181" y="2146" width="52" height="21"/>
		<rect fill="white" x="177" y="2142" width="52" height="21"/>
		<rect fill="white" x="182" y="2169" width="110" height="48"/>
		<text fill="gray" font-size="9" font-family="Segoe UI" x="182, 186.71533, 191.80859, 196.51514, 198.98047, 202.10938, 206.68848, 211.78174, 216.25537, 218.7207, 223.99414, 226.81104, 229.27637, 232.32617, 237.41943, 242.12598, 244.59131, 248.74854, 253.8418, 256.9707, 260.09961, 264.80615, 269.89941, " y="2179, ">
				The rank of the current
		</text>
		<text fill="gray" font-size="9" font-family="Segoe UI" x="182, 186.15723, 191.43066, 196.52393, 200.68115, 205.3877, 210.67871, 213.72852, 216.19385, 220.77295, 228.5249, 233.79834, 238.8916, 244.19141, 246.65674, 250.81396, 256.0874, 261.18066, 265.33789, 270.04443, 275.33545, 278.38525, " y="2191, ">
				concept among concepts
		</text>
		<text fill="gray" font-size="9" font-family="Segoe UI" x="182, 187.09326, 191.67236, 195.9834, 198.16309, 203.25635, 208.55615, 211.02148, 215.60059, 218.06592, 221.19482, 225.90137, 228.08105, 232.66016, 235.70996, 237.88965, 243.16309, 248.25635, 252.0752, 257.16846, 259.34814, 264.63916, 267.10449, 270.1543, 275.42773, 277.89307, 280.94287, 286.03613, " y="2203, ">
				having a relationship to the
		</text>
		<text fill="gray" font-size="9" font-family="Segoe UI" x="182, 185.0498, 189.62891, 192.75781, 198.05762, 202.76416, 205.81396, 208.2793, 212.43652, 217.70996, 222.80322, 226.96045, 231.66699, 236.95801, 240.00781, " y="2215, ">
				target concept.
		</text>
		<rect fill="white" x="186" y="2144" width="36" height="16"/>
		<text font-size="12" font-weight="600" font-family="Segoe UI" x="186, 190.77539, 197.23242, 204.49219, " y="2157, ">
				rank
		</text>
		<rect fill="none" stroke="black" stroke-width="1" stroke-linecap="square" stroke-miterlimit="4" transform="translate(0.5 0.5)" x="177" y="2142" width="51" height="20"/>
		<path fill="white" d="M351 2243L351 2224L177 2224L177 2243L177 2392L351 2392L351 2243Z"/>
		<rect fill="white" x="182" y="2395" width="165" height="24"/>
		<text fill="gray" font-size="9" font-family="Segoe UI" x="182, 187.80518, 190.27051, 195.57031, 198.69922, 203.97266, 209.06592, 214.35693, 216.82227, 222.0957, 224.9126, 227.37793, 231.95703, 235.00684, 238.05664, 241.18555, 243.36523, 248.65625, 253.74951, 256.79932, 261.50586, 265.32471, 267.79004, 272.49658, 276.62744, 281.91846, 285.04736, 289.75391, 293.57275, 297.3916, 299.57129, 304.66455, 309.96436, 312.42969, 315.47949, 320.57275, 325.2793, 327.74463, 330.79443, 332.97412, 340.72607, " y="2405, ">
				A group of attributes expressing the time
		</text>
		<text fill="gray" font-size="9" font-family="Segoe UI" x="182, 187.29102, 191.99756, 195.12646, 197.30615, 202.57959, 207.87939, 210.34473, 215.61816, 218.43506, 220.90039, 225.21143, 229.79053, 231.97021, 234.1499, 239.44971, 241.62939, 244.6792, 249.03418, 251.49951, 256.77295, 259.58984, 262.05518, 266.63428, 269.09961, 272.22852, 276.93506, 279.11475, 283.69385, 286.74365, 288.92334, 294.19678, 299.29004, 303.10889, 308.20215, 310.38184, " y="2417, ">
				period of validity of a relationship
		</text>
		<rect fill="white" x="219" y="2226" width="126" height="16"/>
		<text font-size="12" font-weight="600" font-family="Segoe UI" x="219, 223.66992, 227.08008, 238.07227, 244.56445, 251.66602, 258.12305, 261.5332, 264.94336, 272.37305, 275.7832, 280.45312, 286.91016, 295.10742, 299.77734, 304.44727, 309.26953, 312.67969, 320.12109, 327.38086, 332.00391, 338.49609, " y="2239, ">
				timeValidityAttributes
		</text>
		<rect fill="white" x="197" y="2226" width="20" height="16"/>
		<text fill="gray" font-size="12" font-family="Segoe UI" x="197, 204.06641, 208.23828, " y="2239, ">
				grp
		</text>
		<path fill="none" stroke="gray" stroke-width="1" stroke-linecap="square" stroke-miterlimit="4" transform="translate(0.5 0.5)" d="M177 2243L177 2392L351 2392L351 2243L351 2243"/>
		<path fill="none" stroke="black" stroke-width="1" stroke-linecap="square" stroke-miterlimit="4" transform="translate(0.5 0.5)" d="M351 2243L351 2224L177 2224L177 2243"/>
		<rect x="182" y="2229" width="11" height="11"/>
		<rect fill="white" x="183" y="2230" width="9" height="9"/>
		<rect x="184" y="2234" width="7" height="1"/>
		<rect fill="silver" x="189" y="2257" width="72" height="21"/>
		<rect fill="white" x="185" y="2253" width="72" height="21"/>
		<rect fill="white" x="190" y="2280" width="117" height="36"/>
		<text fill="gray" font-size="9" font-family="Segoe UI" x="190, 194.71533, 199.80859, 204.51514, 206.98047, 212.28027, 216.85938, 219.90918, 224.61572, 227.08105, 229.79688, 234.37598, 239.46924, 244.76904, 246.72021, 249.18555, 254.45898, 259.75, 262.7998, 264.97949, 270.25293, 275.34619, 279.92529, 282.10498, 284.28467, 288.63965, 290.59082, 293.05615, 296.10596, 301.19922, " y="2290, ">
				The date (and, optionally, the
		</text>
		<text fill="gray" font-size="9" font-family="Segoe UI" x="190, 193.0498, 195.22949, 202.98145, 207.68799, 210.40381, 212.86914, 218.16016, 222.8667, 225.68359, 230.95703, 234.08594, 238.79248, 241.25781, 247.76172, 252.85498, 255.03467, 259.19189, 264.28516, 266.75049, " y="2302, ">
				time) before which a
		</text>
		<text fill="gray" font-size="9" font-family="Segoe UI" x="190, 193.12891, 197.83545, 200.01514, 204.59424, 207.64404, 209.82373, 215.09717, 220.19043, 224.00928, 229.10254, 231.28223, 236.57324, 239.03857, 241.21826, 245.03711, 247.50244, 252.5957, 257.86914, 260.91895, 263.38428, 267.69531, 272.27441, 274.4541, 276.63379, 281.93359, " y="2314, ">
				relationship is not valid.
		</text>
		<rect fill="white" x="194" y="2255" width="56" height="16"/>
		<text font-size="12" font-weight="600" font-family="Segoe UI" x="194, 200.32227, 206.7793, 210.18945, 213.59961, 221.0293, 225.62891, 230.35742, 237.69336, " y="2268, ">
				validfrom
		</text>
		<rect fill="none" stroke="black" stroke-width="1" stroke-linecap="square" stroke-miterlimit="4" transform="translate(0.5 0.5)" x="185" y="2253" width="71" height="20"/>
		<rect fill="silver" x="189" y="2327" width="56" height="21"/>
		<rect fill="white" x="185" y="2323" width="56" height="21"/>
		<rect fill="white" x="190" y="2350" width="117" height="36"/>
		<text fill="gray" font-size="9" font-family="Segoe UI" x="190, 194.71533, 199.80859, 204.51514, 206.98047, 212.28027, 216.85938, 219.90918, 224.61572, 227.08105, 229.79688, 234.37598, 239.46924, 244.76904, 246.72021, 249.18555, 254.45898, 259.75, 262.7998, 264.97949, 270.25293, 275.34619, 279.92529, 282.10498, 284.28467, 288.63965, 290.59082, 293.05615, 296.10596, 301.19922, " y="2360, ">
				The date (and, optionally, the
		</text>
		<text fill="gray" font-size="9" font-family="Segoe UI" x="190, 193.0498, 195.22949, 202.98145, 207.68799, 210.40381, 212.86914, 217.44824, 220.26514, 223.31494, 228.02148, 231.15039, 233.61572, 240.11963, 245.21289, 247.39258, 251.5498, 256.64307, 259.1084, " y="2372, ">
				time) after which a
		</text>
		<text fill="gray" font-size="9" font-family="Segoe UI" x="190, 193.12891, 197.83545, 200.01514, 204.59424, 207.64404, 209.82373, 215.09717, 220.19043, 224.00928, 229.10254, 231.28223, 236.57324, 239.03857, 241.21826, 245.03711, 247.50244, 252.5957, 257.86914, 260.91895, 263.38428, 267.69531, 272.27441, 274.4541, 276.63379, 281.93359, " y="2384, ">
				relationship is not valid.
		</text>
		<rect fill="white" x="194" y="2325" width="40" height="16"/>
		<text font-size="12" font-weight="600" font-family="Segoe UI" x="194, 200.32227, 206.7793, 210.18945, 213.59961, 221.0293, 225.65234, " y="2338, ">
				validto
		</text>
		<rect fill="none" stroke="black" stroke-width="1" stroke-linecap="square" stroke-miterlimit="4" transform="translate(0.5 0.5)" x="185" y="2323" width="55" height="20"/>
		<path fill="white" d="M364 2445L364 2426L177 2426L177 2445L177 2710L364 2710L364 2445Z"/>
		<rect fill="white" x="219" y="2428" width="139" height="16"/>
		<text font-size="12" font-weight="600" font-family="Segoe UI" x="219, 225.45703, 230.23242, 237.67383, 241.08398, 245.75391, 250.5293, 256.98633, 262.24219, 268.69922, 275.80078, 282.25781, 285.66797, 292.92773, 299.41992, 307.61719, 312.28711, 316.95703, 321.7793, 325.18945, 332.63086, 339.89062, 344.51367, 351.00586, " y="2441, ">
				arbitraryValueAttributes
		</text>
		<rect fill="white" x="197" y="2428" width="20" height="16"/>
		<text fill="gray" font-size="12" font-family="Segoe UI" x="197, 204.06641, 208.23828, " y="2441, ">
				grp
		</text>
		<path fill="none" stroke="gray" stroke-width="1" stroke-linecap="square" stroke-miterlimit="4" transform="translate(0.5 0.5)" d="M177 2445L177 2710L364 2710L364 2445L364 2445"/>
		<path fill="none" stroke="black" stroke-width="1" stroke-linecap="square" stroke-miterlimit="4" transform="translate(0.5 0.5)" d="M364 2445L364 2426L177 2426L177 2445"/>
		<rect x="182" y="2431" width="11" height="11"/>
		<rect fill="white" x="183" y="2432" width="9" height="9"/>
		<rect x="184" y="2436" width="7" height="1"/>
		<rect fill="silver" x="189" y="2459" width="52" height="21"/>
		<rect fill="white" x="185" y="2455" width="52" height="21"/>
		<rect fill="white" x="190" y="2482" width="121" height="24"/>
		<text fill="gray" font-size="9" font-family="Segoe UI" x="190, 194.71533, 199.80859, 204.51514, 206.98047, 210.10938, 214.81592, 216.99561, 221.57471, 224.62451, 229.33105, 234.63086, 237.09619, 241.40723, 245.98633, 248.16602, 253.25928, 257.96582, 260.43115, 263.14697, 266.96582, 271.67236, 276.37891, 278.84424, 286.59619, 291.86963, 294.99854, 299.70508, 302.17041, 304.3501, " y="2492, ">
				The related value (see more in
		</text>
		<text fill="gray" font-size="9" font-family="Segoe UI" x="190, 193.0498, 198.14307, 202.84961, 205.31494, 209.13379, 214.4248, 219.13135, 223.28857, 225.75391, 231.05371, 236.32715, 240.48438, 245.57764, 253.32959, 258.03613, 263.12939, 266.1792, " y="2504, ">
				the spec document)
		</text>
		<rect fill="white" x="194" y="2457" width="36" height="16"/>
		<text font-size="12" font-weight="600" font-family="Segoe UI" x="194, 200.32227, 206.7793, 210.18945, 217.44922, " y="2470, ">
				value
		</text>
		<rect fill="none" stroke="black" stroke-width="1" stroke-linecap="square" stroke-miterlimit="4" transform="translate(0.5 0.5)" x="185" y="2455" width="51" height="20"/>
		<rect fill="silver" x="189" y="2517" width="98" height="21"/>
		<rect fill="white" x="185" y="2513" width="98" height="21"/>
		<rect fill="white" x="190" y="2540" width="119" height="48"/>
		<text fill="gray" font-size="9" font-family="Segoe UI" x="190, 194.71533, 199.80859, 204.51514, 206.98047, 212.28027, 216.85938, 219.90918, 224.48828, 227.53809, 231.89307, 237.18408, 241.89062, 244.35596, 249.62939, 252.44629, 254.91162, 257.96143, 263.05469, 267.76123, 270.22656, 274.5376, 279.1167, 281.29639, 286.38965, " y="2550, ">
				The datatype of the value
		</text>
		<text fill="gray" font-size="9" font-family="Segoe UI" x="190, 194.5791, 197.62891, 200.67871, 203.80762, 205.9873, 211.27832, 216.37158, 219.42139, 224.12793, 226.59326, 231.09326, 233.55859, 235.73828, 238.78809, 241.25342, 249.33496, 255.51807, 260.29932, 265.01465, 267.47998, 272.771, 277.47754, 279.94287, 285.21631, 290.30957, 295.01611, 297.48145, 302.75488, " y="2562, ">
				attribute  it MUST be one of
		</text>
		<text fill="gray" font-size="9" font-family="Segoe UI" x="190, 193.0498, 198.14307, 202.84961, 205.31494, 210.60596, 215.69922, 217.87891, 220.05859, 223.1084, 226.70752, 228.88721, 233.98047, 236.4458, 241.74561, 246.32471, 249.37451, 253.95361, 257.00342, 261.3584, 266.64941, 271.35596, 275.1748, 277.64014, 282.93994, 287.64648, 290.46338, 292.64307, 297.73633, 302.44287, " y="2574, ">
				the built-in datatypes defined
		</text>
		<text fill="gray" font-size="9" font-family="Segoe UI" x="190, 195.29102, 199.646, 202.11133, 207.41992, 215.50146, 219.73779, 222.20312, 226.98438, 231.1416, 236.23486, 240.94141, 248.69336, 253.27246, 255.73779, 260.04883, 264.75537, 267.88428, 271.70312, 273.88281, 279.15625, 284.24951, 286.71484, 291.56641, 293.51758, 298.36914, " y="2586, ">
				by XML Schema version 1.0.
		</text>
		<rect fill="white" x="194" y="2515" width="82" height="16"/>
		<text font-size="12" font-weight="600" font-family="Segoe UI" x="194, 200.32227, 206.7793, 210.18945, 217.44922, 223.94141, 231.37109, 237.82812, 242.49805, 248.95508, 253.625, 260.08203, 267.52344, " y="2528, ">
				valuedatatype
		</text>
		<rect fill="none" stroke="black" stroke-width="1" stroke-linecap="square" stroke-miterlimit="4" transform="translate(0.5 0.5)" x="185" y="2513" width="97" height="20"/>
		<rect fill="silver" x="189" y="2599" width="70" height="21"/>
		<rect fill="white" x="185" y="2595" width="70" height="21"/>
		<rect fill="white" x="190" y="2622" width="83" height="24"/>
		<text fill="gray" font-size="9" font-family="Segoe UI" x="190, 194.71533, 199.80859, 204.51514, 206.98047, 212.07373, 217.16699, 219.34668, 222.39648, 224.86182, 230.13525, 232.95215, 235.41748, 238.46729, 243.56055, 248.26709, 250.73242, 255.04346, 259.62256, 261.80225, 266.89551, " y="2632, ">
				The unit of the value
		</text>
		<text fill="gray" font-size="9" font-family="Segoe UI" x="190, 194.5791, 197.62891, 200.67871, 203.80762, 205.9873, 211.27832, 216.37158, 219.42139, 224.12793, " y="2644, ">
				attribute.
		</text>
		<rect fill="white" x="194" y="2597" width="54" height="16"/>
		<text font-size="12" font-weight="600" font-family="Segoe UI" x="194, 200.32227, 206.7793, 210.18945, 217.44922, 223.94141, 231.20117, 238.46094, 241.87109, " y="2610, ">
				valueunit
		</text>
		<rect fill="none" stroke="black" stroke-width="1" stroke-linecap="square" stroke-miterlimit="4" transform="translate(0.5 0.5)" x="185" y="2595" width="69" height="20"/>
		<rect fill="silver" x="189" y="2657" width="86" height="21"/>
		<rect fill="white" x="185" y="2653" width="86" height="21"/>
		<rect fill="white" x="190" y="2680" width="120" height="24"/>
		<text fill="gray" font-size="9" font-family="Segoe UI" x="190, 194.71533, 199.80859, 204.51514, 206.98047, 212.07373, 217.16699, 219.34668, 222.39648, 224.86182, 230.13525, 232.95215, 235.41748, 238.46729, 243.56055, 248.26709, 250.73242, 255.04346, 259.62256, 261.80225, 266.89551, 271.60205, 274.06738, 278.64648, 281.69629, 284.74609, 287.875, 290.05469, 295.3457, 300.43896, 303.48877, " y="2690, ">
				The unit of the value attribute
		</text>
		<text fill="gray" font-size="9" font-family="Segoe UI" x="190, 193.59912, 196.06445, 200.771, 204.90186, 210.19287, 213.32178, 218.02832, 221.84717, 225.66602, 230.37256, 235.67236, 238.1377, 243.42871, 247.78369, 250.24902, 254.82812, 257.29346, 263.47656, 268.85986, " y="2702, ">
				- expressed by a URI
		</text>
		<rect fill="white" x="194" y="2655" width="70" height="16"/>
		<text font-size="12" font-weight="600" font-family="Segoe UI" x="194, 200.32227, 206.7793, 210.18945, 217.44922, 223.94141, 231.20117, 238.46094, 241.87109, 246.54102, 253.80078, 258.62305, " y="2668, ">
				valueunituri
		</text>
		<rect fill="none" stroke="black" stroke-width="1" stroke-linecap="square" stroke-miterlimit="4" transform="translate(0.5 0.5)" x="185" y="2653" width="85" height="20"/>
		<rect x="168" y="1931" width="11" height="11"/>
		<rect fill="white" x="169" y="1932" width="9" height="9"/>
		<rect x="170" y="1936" width="7" height="1"/>
		<path fill="none" stroke="black" stroke-width="1" stroke-linecap="square" stroke-miterlimit="4" transform="translate(0.5 0.5)" d="M208 2740L217 2740"/>
		<path fill="silver" d="M170 2742L175 2737L200 2737L205 2742L205 2753L200 2758L175 2758L170 2753L170 2742Z"/>
		<path fill="white" d="M166 2738L171 2733L195 2733L200 2738L200 2748L195 2753L171 2753L166 2748L166 2738Z"/>
		<path transform="translate(0.5 0.5)" d="M169.889 2733.4L170.793 2732.5L171.929 2732.5L172.429 2732.5L172.429 2733.5L171.929 2733.5L171 2733.5L171 2733L171.354 2733.35L170.243 2734.46L169.536 2733.76L169.889 2733.4ZM175.929 2732.5L177.929 2732.5L178.429 2732.5L178.429 2733.5L177.929 2733.5L175.429 2733.5L175.429 2732.5L175.929 2732.5ZM181.929 2732.5L183.929 2732.5L184.429 2732.5L184.429 2733.5L183.929 2733.5L181.429 2733.5L181.429 2732.5L181.929 2732.5ZM187.929 2732.5L189.929 2732.5L190.429 2732.5L190.429 2733.5L189.929 2733.5L187.429 2733.5L187.429 2732.5L187.929 2732.5ZM193.929 2732.5L195.207 2732.5L196.01 2733.3L196.364 2733.66L195.657 2734.36L195.303 2734.01L194.646 2733.35L195 2733L195 2733.5L193.429 2733.5L193.429 2732.5L193.929 2732.5ZM198.839 2736.13L200.253 2737.55L200.607 2737.9L199.9 2738.61L199.546 2738.25L197.778 2736.49L198.485 2735.78L198.839 2736.13ZM200.5 2741.86L200.5 2743.86L200.5 2744.36L199.5 2744.36L199.5 2743.86L199.5 2741.36L200.5 2741.36L200.5 2741.86ZM200.5 2747.86L200.5 2748.21L199.04 2749.67L198.686 2750.02L197.979 2749.31L198.333 2748.96L199.646 2747.65L200 2748L199.5 2748L199.5 2747.36L200.5 2747.36L200.5 2747.86ZM196.211 2752.5L195.207 2753.5L194.213 2753.5L193.713 2753.5L193.713 2752.5L194.213 2752.5L195 2752.5L195 2753L194.646 2752.65L195.858 2751.44L196.565 2752.14L196.211 2752.5ZM190.213 2753.5L188.213 2753.5L187.713 2753.5L187.713 2752.5L188.213 2752.5L190.713 2752.5L190.713 2753.5L190.213 2753.5ZM184.213 2753.5L182.213 2753.5L181.713 2753.5L181.713 2752.5L182.213 2752.5L184.713 2752.5L184.713 2753.5L184.213 2753.5ZM178.213 2753.5L176.213 2753.5L175.713 2753.5L175.713 2752.5L176.213 2752.5L178.713 2752.5L178.713 2753.5L178.213 2753.5ZM172.213 2753.5L170.793 2753.5L170.09 2752.8L169.737 2752.44L170.444 2751.74L170.797 2752.09L171.354 2752.65L171 2753L171 2752.5L172.713 2752.5L172.713 2753.5L172.213 2753.5ZM167.262 2749.97L165.847 2748.55L165.494 2748.2L166.201 2747.49L166.555 2747.85L168.322 2749.62L167.615 2750.32L167.262 2749.97ZM165.5 2744.28L165.5 2742.28L165.5 2741.78L166.5 2741.78L166.5 2742.28L166.5 2744.78L165.5 2744.78L165.5 2744.28ZM165.5 2738.28L165.5 2737.79L167.414 2735.88L168.121 2736.59L166.354 2738.35L166 2738L166.5 2738L166.5 2738.78L165.5 2738.78L165.5 2738.28Z"/>
		<path fill="white" d="M163 2735L168 2730L193 2730L198 2735L198 2746L193 2751L168 2751L163 2746L163 2735Z"/>
		<path fill="none" stroke="black" stroke-width="1" stroke-linecap="square" stroke-miterlimit="4" transform="translate(0.5 0.5)" d="M182 2751L188 2757L191 2754"/>
		<path fill="none" stroke="black" stroke-width="1" stroke-linecap="square" stroke-miterlimit="4" transform="translate(0.5 0.5)" d="M168 2740L173 2740L177 2736"/>
		<path fill="none" stroke="black" stroke-width="1" stroke-linecap="square" stroke-miterlimit="4" transform="translate(0.5 0.5)" d="M183 2740L191 2740"/>
		<path fill="none" stroke="black" stroke-width="1" stroke-linecap="square" stroke-miterlimit="4" transform="translate(0.5 0.5)" d="M183 2736L187 2736L187 2744L183 2744"/>
		<rect x="179" y="2735" width="3" height="3"/>
		<rect x="179" y="2739" width="3" height="3"/>
		<rect x="179" y="2743" width="3" height="3"/>
		<text font-size="12" font-family="Segoe UI" x="167.76562, " y="2770, ">
				0
		</text>
		<text font-size="12" font-family="Symbol" x="182.72266, " y="2769, ">
				
		</text>
		<text font-size="12" font-family="Segoe UI" x="175.89844, 178.5, " y="2770, ">
				..
		</text>
		<path transform="translate(0.5 0.5)" d="M166.889 2730.4L167.793 2729.5L168.929 2729.5L169.429 2729.5L169.429 2730.5L168.929 2730.5L168 2730.5L168 2730L168.354 2730.35L167.243 2731.46L166.536 2730.76L166.889 2730.4ZM172.929 2729.5L174.929 2729.5L175.429 2729.5L175.429 2730.5L174.929 2730.5L172.429 2730.5L172.429 2729.5L172.929 2729.5ZM178.929 2729.5L180.929 2729.5L181.429 2729.5L181.429 2730.5L180.929 2730.5L178.429 2730.5L178.429 2729.5L178.929 2729.5ZM184.929 2729.5L186.929 2729.5L187.429 2729.5L187.429 2730.5L186.929 2730.5L184.429 2730.5L184.429 2729.5L184.929 2729.5ZM190.929 2729.5L192.207 2729.5L193.01 2730.3L193.364 2730.66L192.657 2731.36L192.303 2731.01L191.646 2730.35L192 2730L192 2730.5L190.429 2730.5L190.429 2729.5L190.929 2729.5ZM195.839 2733.13L197.253 2734.55L197.607 2734.9L196.9 2735.61L196.546 2735.25L194.778 2733.49L195.485 2732.78L195.839 2733.13ZM197.5 2738.86L197.5 2740.86L197.5 2741.36L196.5 2741.36L196.5 2740.86L196.5 2738.36L197.5 2738.36L197.5 2738.86ZM197.5 2744.86L197.5 2745.21L196.04 2746.67L195.686 2747.02L194.979 2746.31L195.333 2745.96L196.646 2744.65L197 2745L196.5 2745L196.5 2744.36L197.5 2744.36L197.5 2744.86ZM193.211 2749.5L192.207 2750.5L191.213 2750.5L190.713 2750.5L190.713 2749.5L191.213 2749.5L192 2749.5L192 2750L191.646 2749.65L192.858 2748.44L193.565 2749.14L193.211 2749.5ZM187.213 2750.5L185.213 2750.5L184.713 2750.5L184.713 2749.5L185.213 2749.5L187.713 2749.5L187.713 2750.5L187.213 2750.5ZM181.213 2750.5L179.213 2750.5L178.713 2750.5L178.713 2749.5L179.213 2749.5L181.713 2749.5L181.713 2750.5L181.213 2750.5ZM175.213 2750.5L173.213 2750.5L172.713 2750.5L172.713 2749.5L173.213 2749.5L175.713 2749.5L175.713 2750.5L175.213 2750.5ZM169.213 2750.5L167.793 2750.5L167.09 2749.8L166.737 2749.44L167.444 2748.74L167.797 2749.09L168.354 2749.65L168 2750L168 2749.5L169.713 2749.5L169.713 2750.5L169.213 2750.5ZM164.262 2746.97L162.847 2745.55L162.494 2745.2L163.201 2744.49L163.555 2744.85L165.322 2746.62L164.615 2747.32L164.262 2746.97ZM162.5 2741.28L162.5 2739.28L162.5 2738.78L163.5 2738.78L163.5 2739.28L163.5 2741.78L162.5 2741.78L162.5 2741.28ZM162.5 2735.28L162.5 2734.79L164.414 2732.88L165.121 2733.59L163.354 2735.35L163 2735L163.5 2735L163.5 2735.78L162.5 2735.78L162.5 2735.28Z"/>
		<rect fill="silver" x="222" y="2734" width="62" height="21"/>
		<rect fill="white" x="218" y="2730" width="62" height="21"/>
		<rect fill="white" x="227" y="2732" width="41" height="16"/>
		<text font-size="12" font-weight="600" font-family="Segoe UI" x="227, 231.72852, 238.2207, 241.63086, 248.08789, 252.71094, 259.20312, " y="2745, ">
				related
		</text>
		<rect fill="none" stroke="black" stroke-width="1" stroke-linecap="square" stroke-miterlimit="4" transform="translate(0.5 0.5)" x="218" y="2730" width="61" height="20"/>
		<rect x="274" y="2735" width="11" height="11"/>
		<rect fill="white" x="275" y="2736" width="9" height="9"/>
		<rect x="276" y="2740" width="7" height="1"/>
		<rect x="279" y="2737" width="1" height="7"/>
		<rect x="197" y="2735" width="11" height="11"/>
		<rect fill="white" x="198" y="2736" width="9" height="9"/>
		<rect x="199" y="2740" width="7" height="1"/>
		<rect x="56" y="1326" width="11" height="11"/>
		<rect fill="white" x="57" y="1327" width="9" height="9"/>
		<rect x="58" y="1331" width="7" height="1"/>
	</g>
</svg>
