<?xml version="1.0" encoding="utf-8" ?>
<svg xmlns="http://www.w3.org/2000/svg" xmlns:xlink="http://www.w3.org/1999/xlink" width="374" height="1690">
	<clipPath id="cl_799">
		<rect x="-10" y="-5" width="374" height="1690"/>
	</clipPath>
	<g clip-path="url(#cl_799)">
		<path fill="none" stroke="black" stroke-width="1" stroke-linecap="square" stroke-miterlimit="4" transform="translate(0.5 0.5)" d="M57 840L139 840"/>
		<rect fill="silver" x="4" y="834" width="52" height="21"/>
		<rect fill="white" y="830" width="52" height="21"/>
		<rect fill="white" x="5" y="857" width="120" height="36"/>
		<text fill="gray" font-size="9" font-family="Segoe UI" x="5, 11.389648, 15.96875, 19.787598, 24.880859, 27.346191, 31.657227, 36.236328, 38.416016, 43.509277, 48.21582, 50.681152, 55.95459, 58.771484, 61.236816, 66.527832, 71.106934, 74.23584, 77.285645, 81.104492, 83.569824, 88.843262, 91.660156, 94.125488, 98.70459, 103.79785, 106.26318, 108.44287, 111.49268, 116.19922, " y="867, ">
				Hash value of parts of an item
		</text>
		<text fill="gray" font-size="9" font-family="Segoe UI" x="5, 9.5791016, 13.397949, 15.863281, 21.163086, 25.869629, 28.686523, 30.866211, 35.959473, 40.666016, 45.96582, 48.431152, 53.722168, 58.077148, 60.54248, 63.592285, 68.685547, 73.39209, 75.857422, 80.950684, 85.529785, 89.348633, 94.441895, 98.260742, 102.41797, 107.69141, 112.98242, " y="879, ">
				as defined by the hashscope
		</text>
		<text fill="gray" font-size="9" font-family="Segoe UI" x="5, 9.5791016, 12.628906, 15.678711, 18.807617, 20.987305, 26.27832, 31.371582, 34.421387, " y="891, ">
				attribute
		</text>
		<rect fill="white" x="9" y="832" width="31" height="16"/>
		<text font-size="12" font-weight="600" font-family="Segoe UI" x="9, 16.224609, 22.681641, 27.960938, " y="845, ">
				hash
		</text>
		<path fill="none" stroke="black" stroke-width="1" stroke-linecap="square" stroke-miterlimit="4" transform="translate(0.5 0.5)" d="M2 832L7 832"/>
		<path fill="none" stroke="black" stroke-width="1" stroke-linecap="square" stroke-miterlimit="4" transform="translate(0.5 0.5)" d="M2 834L6 834"/>
		<path fill="none" stroke="black" stroke-width="1" stroke-linecap="square" stroke-miterlimit="4" transform="translate(0.5 0.5)" d="M2 836L6 836"/>
		<rect fill="none" stroke="black" stroke-width="1" stroke-linecap="square" stroke-miterlimit="4" transform="translate(0.5 0.5)" y="830" width="51" height="20"/>
		<path fill="white" d="M217 19L217 0L140 0L140 19L140 1679L353 1679L353 19L217 19Z"/>
		<rect fill="white" x="160" y="2" width="51" height="16"/>
		<text font-size="12" font-style="italic" font-family="Segoe UI" x="160, 166.50391, 170.38281, 174.26172, 178.5332, 181.63867, 188.14258, 194.83984, 198.73047, 204.57227, " y="15, ">
				attributes
		</text>
		<path fill="none" stroke="black" stroke-width="1" stroke-linecap="square" stroke-miterlimit="4" transform="translate(0.5 0.5)" d="M217 19L217 0L140 0L140 19L140 1679L353 1679L353 19L217 19Z"/>
		<rect fill="silver" x="158" y="32" width="69" height="21"/>
		<rect fill="white" x="154" y="28" width="69" height="21"/>
		<rect fill="white" x="159" y="55" width="113" height="72"/>
		<text fill="gray" font-size="9" font-family="Segoe UI" x="159, 163.71533, 168.80859, 173.51514, 175.98047, 181.07373, 185.65283, 189.47168, 194.56494, 197.03027, 201.60938, 203.78906, 209.08887, 214.3623, 217.49121, 219.6709, 222.7207, 227.81396, 235.56592, 238.03125, 243.12451, 246.94336, 251.6499, 256.94971, 259.41504, 262.23193, 267.50537, " y="65, ">
				The hash algorithm used for
		</text>
		<text fill="gray" font-size="9" font-family="Segoe UI" x="159, 163.15723, 166.28613, 170.99268, 175.57178, 178.62158, 180.80127, 185.89453, 191.19434, 193.65967, 196.70947, 201.80273, 206.50928, 208.97461, 214.06787, 218.64697, 222.46582, 227.55908, 230.02441, 234.33545, 238.91455, 241.09424, 246.1875, 250.89404, 253.35938, " y="77, ">
				creating the hash value -
		</text>
		<text fill="gray" font-size="9" font-family="Segoe UI" x="159, 163.70654, 167.8374, 173.12842, 176.25732, 180.96387, 184.78271, 188.60156, 193.30811, 198.60791, 201.07324, 206.36426, 210.71924, 213.18457, 217.76367, 220.229, 227.01416, 232.58643, 237.85986, 243.15967, 247.86621, 250.33154, " y="89, ">
				expressed by a QCode /
		</text>
		<text fill="gray" font-size="9" font-family="Segoe UI" x="159, 163.70654, 165.88623, 168.93604, 174.0293, 178.73584, 181.86475, 184.33008, 187.37988, 192.47314, 197.17969, 199.64502, 204.73828, 209.31738, 213.13623, 218.22949, 221.2793, 225.63428, 230.92529, 235.63184, 238.09717, 243.37061, 246.49951, 248.96484, 252.01465, 257.10791, " y="101, ">
				either the hashtype or the
		</text>
		<text fill="gray" font-size="9" font-family="Segoe UI" x="159, 164.09326, 168.67236, 172.49121, 177.58447, 180.63428, 184.98926, 190.28027, 194.98682, 200.08008, 203.20898, 205.38867, 207.854, 212.43311, 215.48291, 218.53271, 221.66162, 223.84131, 229.13232, 234.22559, 237.27539, 241.98193, 244.44727, 252.52881, 258.71191, 263.49316, " y="113, ">
				hashtypeuri attribute MUST
		</text>
		<text fill="gray" font-size="9" font-family="Segoe UI" x="159, 164.29102, 168.99756, 171.46289, 176.55615, 180.375, 185.08154, " y="125, ">
				be used
		</text>
		<rect fill="white" x="163" y="30" width="53" height="16"/>
		<text font-size="12" font-weight="600" font-family="Segoe UI" x="163, 170.22461, 176.68164, 181.96094, 189.18555, 193.85547, 200.3125, 207.75391, " y="43, ">
				hashtype
		</text>
		<rect fill="none" stroke="black" stroke-width="1" stroke-linecap="square" stroke-miterlimit="4" transform="translate(0.5 0.5)" x="154" y="28" width="68" height="20"/>
		<rect fill="silver" x="158" y="138" width="84" height="21"/>
		<rect fill="white" x="154" y="134" width="84" height="21"/>
		<rect fill="white" x="159" y="161" width="113" height="72"/>
		<text fill="gray" font-size="9" font-family="Segoe UI" x="159, 163.71533, 168.80859, 173.51514, 175.98047, 181.07373, 185.65283, 189.47168, 194.56494, 197.03027, 201.60938, 203.78906, 209.08887, 214.3623, 217.49121, 219.6709, 222.7207, 227.81396, 235.56592, 238.03125, 243.12451, 246.94336, 251.6499, 256.94971, 259.41504, 262.23193, 267.50537, " y="171, ">
				The hash algorithm used for
		</text>
		<text fill="gray" font-size="9" font-family="Segoe UI" x="159, 163.15723, 166.28613, 170.99268, 175.57178, 178.62158, 180.80127, 185.89453, 191.19434, 193.65967, 196.70947, 201.80273, 206.50928, 208.97461, 214.06787, 218.64697, 222.46582, 227.55908, 230.02441, 234.33545, 238.91455, 241.09424, 246.1875, 250.89404, 253.35938, " y="183, ">
				creating the hash value -
		</text>
		<text fill="gray" font-size="9" font-family="Segoe UI" x="159, 163.70654, 167.8374, 173.12842, 176.25732, 180.96387, 184.78271, 188.60156, 193.30811, 198.60791, 201.07324, 206.36426, 210.71924, 213.18457, 217.76367, 220.229, 226.41211, 231.79541, 234.19043, 236.65576, 240.1626, 242.62793, 247.33447, 249.51416, 252.56396, 257.65723, 262.36377, " y="195, ">
				expressed by a URI / either
		</text>
		<text fill="gray" font-size="9" font-family="Segoe UI" x="159, 162.0498, 167.14307, 171.84961, 174.31494, 179.4082, 183.9873, 187.80615, 192.89941, 195.94922, 200.3042, 205.59521, 210.30176, 212.76709, 218.04053, 221.16943, 223.63477, 226.68457, 231.77783, " y="207, ">
				the hashtype or the
		</text>
		<text fill="gray" font-size="9" font-family="Segoe UI" x="159, 164.09326, 168.67236, 172.49121, 177.58447, 180.63428, 184.98926, 190.28027, 194.98682, 200.08008, 203.20898, 205.38867, 207.854, 212.43311, 215.48291, 218.53271, 221.66162, 223.84131, 229.13232, 234.22559, 237.27539, 241.98193, 244.44727, 252.52881, 258.71191, 263.49316, " y="219, ">
				hashtypeuri attribute MUST
		</text>
		<text fill="gray" font-size="9" font-family="Segoe UI" x="159, 164.29102, 168.99756, 171.46289, 176.55615, 180.375, 185.08154, " y="231, ">
				be used
		</text>
		<rect fill="white" x="163" y="136" width="68" height="16"/>
		<text font-size="12" font-weight="600" font-family="Segoe UI" x="163, 170.22461, 176.68164, 181.96094, 189.18555, 193.85547, 200.3125, 207.75391, 214.24609, 221.50586, 226.32812, " y="149, ">
				hashtypeuri
		</text>
		<rect fill="none" stroke="black" stroke-width="1" stroke-linecap="square" stroke-miterlimit="4" transform="translate(0.5 0.5)" x="154" y="134" width="83" height="20"/>
		<rect fill="silver" x="158" y="244" width="52" height="21"/>
		<rect fill="white" x="154" y="240" width="52" height="21"/>
		<rect fill="white" x="159" y="267" width="121" height="96"/>
		<text fill="gray" font-size="9" font-family="Segoe UI" x="159, 163.71533, 168.80859, 173.51514, 175.98047, 179.79932, 183.95654, 189.22998, 194.521, 199.22754, 201.69287, 206.96631, 209.7832, 212.24854, 216.82764, 219.29297, 225.46729, 230.31885, 232.78418, 234.96387, 238.01367, 242.72021, 250.47217, 252.54199, " y="277, ">
				The scope of a G2 item&apos;s
		</text>
		<text fill="gray" font-size="9" font-family="Segoe UI" x="159, 163.15723, 168.43066, 173.52393, 176.57373, 181.28027, 186.37354, 189.42334, 191.88867, 198.39258, 203.48584, 205.66553, 209.82275, 214.91602, 217.38135, 219.56104, 223.37988, 225.84521, 228.89502, 233.98828, 238.69482, 241.16016, 244.28906, 248.99561, 251.8125, 256.51904, 259.64795, 264.35449, 269.44775, 273.60498, " y="289, ">
				content which is the reference
		</text>
		<text fill="gray" font-size="9" font-family="Segoe UI" x="159, 161.81689, 167.09033, 170.21924, 172.68457, 176.8418, 179.9707, 184.67725, 189.25635, 192.30615, 194.48584, 199.5791, 204.87891, 207.34424, 210.39404, 215.4873, 220.19385, 222.65918, 227.75244, 232.33154, 236.15039, 241.24365, 243.70898, 248.02002, 252.59912, 254.77881, 259.87207, 264.57861, 267.04395, " y="301, ">
				for creating the hash value -
		</text>
		<text fill="gray" font-size="9" font-family="Segoe UI" x="159, 163.70654, 167.8374, 173.12842, 176.25732, 180.96387, 184.78271, 188.60156, 193.30811, 198.60791, 201.07324, 206.36426, 210.71924, 213.18457, 217.76367, 220.229, 227.01416, 232.58643, 237.85986, 243.15967, 247.86621, 249.81738, 252.28271, 254.67773, 257.49463, 259.95996, 263.00977, 268.10303, " y="313, ">
				expressed by a QCode. If the
		</text>
		<text fill="gray" font-size="9" font-family="Segoe UI" x="159, 163.5791, 166.62891, 169.67871, 172.80762, 174.9873, 180.27832, 185.37158, 188.42139, 193.12793, 195.59326, 197.77295, 201.5918, 204.05713, 209.33057, 217.08252, 219.26221, 222.31201, 225.36182, 230.06836, 235.36816, 237.8335, 242.92676, 245.97656, 249.02637, 254.31738, 256.26855, 259.77539, " y="325, ">
				attribute is omitted http://
		</text>
		<text fill="gray" font-size="9" font-family="Segoe UI" x="159, 163.15723, 167.46826, 169.41943, 171.59912, 176.89014, 179.93994, 184.09717, 186.04834, 191.32178, 194.45068, 199.75049, 203.25732, 208.35059, 213.05713, 219.56104, 223.37988, 227.53711, 232.81055, 238.11035, 242.81689, 246.63574, " y="337, ">
				cv.iptc.org/newscodes/
		</text>
		<text fill="gray" font-size="9" font-family="Segoe UI" x="159, 164.09326, 168.67236, 172.49121, 177.58447, 181.40332, 185.56055, 190.83398, 196.125, 200.83154, 204.33838, 208.49561, 213.76904, 218.8623, 221.91211, 226.61865, 231.71191, 234.76172, 237.22705, 239.40674, 243.22559, 245.69092, 248.74072, 253.83398, " y="349, ">
				hashscope/content is the
		</text>
		<text fill="gray" font-size="9" font-family="Segoe UI" x="159, 164.2998, 169.00635, 171.82324, 176.40234, 181.49561, 183.67529, 186.7251, 189.19043, 193.50146, 198.08057, 200.26025, 205.35352, 210.06006, " y="361, ">
				default value.
		</text>
		<rect fill="white" x="163" y="242" width="36" height="16"/>
		<text font-size="12" font-weight="600" font-family="Segoe UI" x="163, 168.2793, 174.03906, 181.375, 188.81641, " y="255, ">
				scope
		</text>
		<rect fill="none" stroke="black" stroke-width="1" stroke-linecap="square" stroke-miterlimit="4" transform="translate(0.5 0.5)" x="154" y="240" width="51" height="20"/>
		<rect fill="silver" x="158" y="374" width="65" height="21"/>
		<rect fill="white" x="154" y="370" width="65" height="21"/>
		<rect fill="white" x="159" y="397" width="121" height="96"/>
		<text fill="gray" font-size="9" font-family="Segoe UI" x="159, 163.71533, 168.80859, 173.51514, 175.98047, 179.79932, 183.95654, 189.22998, 194.521, 199.22754, 201.69287, 206.96631, 209.7832, 212.24854, 216.82764, 219.29297, 225.46729, 230.31885, 232.78418, 234.96387, 238.01367, 242.72021, 250.47217, 252.54199, " y="407, ">
				The scope of a G2 item&apos;s
		</text>
		<text fill="gray" font-size="9" font-family="Segoe UI" x="159, 163.15723, 168.43066, 173.52393, 176.57373, 181.28027, 186.37354, 189.42334, 191.88867, 198.39258, 203.48584, 205.66553, 209.82275, 214.91602, 217.38135, 219.56104, 223.37988, 225.84521, 228.89502, 233.98828, 238.69482, 241.16016, 244.28906, 248.99561, 251.8125, 256.51904, 259.64795, 264.35449, 269.44775, 273.60498, " y="419, ">
				content which is the reference
		</text>
		<text fill="gray" font-size="9" font-family="Segoe UI" x="159, 161.81689, 167.09033, 170.21924, 172.68457, 176.8418, 179.9707, 184.67725, 189.25635, 192.30615, 194.48584, 199.5791, 204.87891, 207.34424, 210.39404, 215.4873, 220.19385, 222.65918, 227.75244, 232.33154, 236.15039, 241.24365, 243.70898, 248.02002, 252.59912, 254.77881, 259.87207, 264.57861, 267.04395, " y="431, ">
				for creating the hash value -
		</text>
		<text fill="gray" font-size="9" font-family="Segoe UI" x="159, 163.70654, 167.8374, 173.12842, 176.25732, 180.96387, 184.78271, 188.60156, 193.30811, 198.60791, 201.07324, 206.36426, 210.71924, 213.18457, 217.76367, 220.229, 226.41211, 231.79541, 234.19043, 236.1416, 238.60693, 241.00195, 243.81885, 246.28418, 249.33398, 254.42725, " y="443, ">
				expressed by a URI. If the
		</text>
		<text fill="gray" font-size="9" font-family="Segoe UI" x="159, 163.5791, 166.62891, 169.67871, 172.80762, 174.9873, 180.27832, 185.37158, 188.42139, 193.12793, 195.59326, 197.77295, 201.5918, 204.05713, 209.33057, 217.08252, 219.26221, 222.31201, 225.36182, 230.06836, 235.36816, 237.8335, 242.92676, 245.97656, 249.02637, 254.31738, 256.26855, 259.77539, " y="455, ">
				attribute is omitted http://
		</text>
		<text fill="gray" font-size="9" font-family="Segoe UI" x="159, 163.15723, 167.46826, 169.41943, 171.59912, 176.89014, 179.93994, 184.09717, 186.04834, 191.32178, 194.45068, 199.75049, 203.25732, 208.35059, 213.05713, 219.56104, 223.37988, 227.53711, 232.81055, 238.11035, 242.81689, 246.63574, " y="467, ">
				cv.iptc.org/newscodes/
		</text>
		<text fill="gray" font-size="9" font-family="Segoe UI" x="159, 164.09326, 168.67236, 172.49121, 177.58447, 181.40332, 185.56055, 190.83398, 196.125, 200.83154, 204.33838, 208.49561, 213.76904, 218.8623, 221.91211, 226.61865, 231.71191, 234.76172, 237.22705, 239.40674, 243.22559, 245.69092, 248.74072, 253.83398, " y="479, ">
				hashscope/content is the
		</text>
		<text fill="gray" font-size="9" font-family="Segoe UI" x="159, 164.2998, 169.00635, 171.82324, 176.40234, 181.49561, 183.67529, 186.7251, 189.19043, 193.50146, 198.08057, 200.26025, 205.35352, 210.06006, " y="491, ">
				default value.
		</text>
		<rect fill="white" x="163" y="372" width="49" height="16"/>
		<text font-size="12" font-weight="600" font-family="Segoe UI" x="163, 168.2793, 174.03906, 181.375, 188.81641, 195.30859, 202.56836, 207.39062, " y="385, ">
				scopeuri
		</text>
		<rect fill="none" stroke="black" stroke-width="1" stroke-linecap="square" stroke-miterlimit="4" transform="translate(0.5 0.5)" x="154" y="370" width="64" height="20"/>
		<path fill="white" d="M345 519L345 500L154 500L154 519L154 1622L345 1622L345 519Z"/>
		<rect fill="white" x="159" y="1625" width="179" height="48"/>
		<text fill="gray" font-size="9" font-family="Segoe UI" x="159, 164.80518, 167.27051, 172.57031, 175.69922, 180.97266, 186.06592, 191.35693, 193.82227, 199.0957, 201.9126, 204.37793, 208.95703, 212.00684, 215.05664, 218.18555, 220.36523, 225.65625, 230.74951, 233.79932, 238.50586, 242.32471, 244.79004, 247.60693, 252.88037, 256.00928, 258.47461, 263.05371, 265.2334, 267.41309, 269.87842, 274.58496, 276.76465, 281.47119, 289.22314, 293.92969, 299.02295, 302.07275, 305.8916, 308.35693, 313.63037, 316.44727, 318.9126, 323.4917, 325.95703, 332.13135, " y="1635, ">
				A group of attributes for all elements of a G2
		</text>
		<text fill="gray" font-size="9" font-family="Segoe UI" x="159, 161.39502, 164.44482, 169.15137, 176.90332, 179.36865, 184.0752, 188.20605, 192.36328, 197.06982, 202.36084, 205.41064, 207.87598, 210.05566, 213.10547, 216.92432, 219.38965, 222.51855, 227.79199, 233.06543, 236.11523, 238.58057, 243.28711, 245.4668, 250.17334, 257.92529, 262.63184, 267.7251, 270.7749, 272.72607, 275.19141, 278.24121, 283.33447, 288.04102, 290.50635, 292.68604, 295.73584, 300.44238, 308.19434, 316.27588, 320.98242, 324.03223, " y="1647, ">
				Item except its root element, the itemMeta
		</text>
		<text fill="gray" font-size="9" font-family="Segoe UI" x="159, 163.70654, 165.88623, 170.59277, 178.34473, 183.05127, 188.14453, 191.19434, 193.65967, 198.23877, 203.33203, 208.63184, 211.09717, 215.67627, 217.85596, 220.03564, 222.50098, 227.77441, 230.59131, 233.05664, 235.23633, 238.28613, 242.10498, 244.57031, 248.72754, 253.8208, 256.00049, 258.18018, 263.47998, 266.60889, 271.31543, 276.40869, 278.87402, 285.37793, 290.47119, 292.65088, 296.80811, 301.90137, 304.3667, 308.9458, 312.07471, " y="1659, ">
				element and all of its children which are
		</text>
		<text fill="gray" font-size="9" font-family="Segoe UI" x="159, 166.75195, 171.33105, 176.42432, 181.72412, 186.30322, 189.35303, 194.62646, 197.75537, 202.11035, " y="1671, ">
				mandatory.
		</text>
		<rect fill="white" x="196" y="502" width="143" height="16"/>
		<text font-size="12" font-weight="600" font-family="Segoe UI" x="196, 201.75977, 209.0957, 220.08789, 231.08008, 238.41602, 245.67578, 252.68945, 260.02539, 269.53516, 276.02734, 280.80273, 289, 293.66992, 298.33984, 303.16211, 306.57227, 314.01367, 321.27344, 325.89648, 332.38867, " y="515, ">
				commonPowerAttributes
		</text>
		<rect fill="white" x="174" y="502" width="20" height="16"/>
		<text fill="gray" font-size="12" font-family="Segoe UI" x="174, 181.06641, 185.23828, " y="515, ">
				grp
		</text>
		<path fill="none" stroke="gray" stroke-width="1" stroke-linecap="square" stroke-miterlimit="4" transform="translate(0.5 0.5)" d="M154 519L154 1622L345 1622L345 519L345 519"/>
		<path fill="none" stroke="black" stroke-width="1" stroke-linecap="square" stroke-miterlimit="4" transform="translate(0.5 0.5)" d="M345 519L345 500L154 500L154 519"/>
		<rect x="159" y="505" width="11" height="11"/>
		<rect fill="white" x="160" y="506" width="9" height="9"/>
		<rect x="161" y="510" width="7" height="1"/>
		<rect fill="silver" x="166" y="533" width="52" height="21"/>
		<rect fill="white" x="162" y="529" width="52" height="21"/>
		<rect fill="white" x="167" y="556" width="101" height="24"/>
		<text fill="gray" font-size="9" font-family="Segoe UI" x="167, 171.71533, 176.80859, 181.51514, 183.98047, 186.16016, 191.43359, 195.59082, 200.16992, 202.34961, 204.81494, 206.99463, 212.29443, 217.00098, 222.09424, 225.14404, 227.32373, 230.14062, 232.32031, 237.02686, 240.15576, 242.62109, 247.89453, 250.71143, 253.17676, 256.22656, 261.31982, " y="566, ">
				The local identifier of the
		</text>
		<text fill="gray" font-size="9" font-family="Segoe UI" x="167, 172.29102, 175.41992, 180.69336, 185.98438, 190.69092, 193.81982, 196.86963, 201.22461, " y="578, ">
				property.
		</text>
		<rect fill="white" x="171" y="531" width="36" height="16"/>
		<text font-size="12" font-weight="600" font-family="Segoe UI" x="171, 174.41016, " y="544, ">
				id
		</text>
		<rect fill="none" stroke="black" stroke-width="1" stroke-linecap="square" stroke-miterlimit="4" transform="translate(0.5 0.5)" x="162" y="529" width="51" height="20"/>
		<rect fill="silver" x="166" y="591" width="58" height="21"/>
		<rect fill="white" x="162" y="587" width="58" height="21"/>
		<rect fill="white" x="167" y="614" width="121" height="120"/>
		<text fill="gray" font-size="9" font-family="Segoe UI" x="167, 169.39502, 172.21191, 174.67725, 177.72705, 182.82031, 187.52686, 189.99219, 195.2832, 198.41211, 203.68555, 208.97656, 213.68311, 216.81201, 219.86182, 224.2168, 226.68213, 230.99316, 235.57227, 237.75195, 242.84521, 247.55176, 250.01709, 252.19678, 256.01562, 258.48096, 263.57422, 268.84766, " y="624, ">
				If the property value is not
		</text>
		<text fill="gray" font-size="9" font-family="Segoe UI" x="167, 172.2998, 177.00635, 179.82324, 182.00293, 187.09619, 191.80273, 197.10254, 199.05371, 201.51904, 205.33789, 210.62891, 215.33545, 219.49268, 221.67236, 224.48926, 226.66895, 231.37549, 235.19434, 237.65967, 244.16357, 249.25684, 251.43652, 255.59375, 260.68701, 263.15234, 267.85889, 272.95215, 276.00195, 278.18164, 281.23145, " y="636, ">
				defined, specifies which entity
		</text>
		<text fill="gray" font-size="9" font-family="Segoe UI" x="167, 169.71582, 175.00684, 179.71338, 182.84229, 186.66113, 191.93457, 197.02783, 198.979, 201.44434, 206.71777, 209.84668, 215.14648, 219.72559, 224.81885, 226.99854, 230.81738, 235.39648, 238.44629, 240.62598, 245.89941, 250.99268, 253.45801, 258.73145, " y="648, ">
				(person, organisation or
		</text>
		<text fill="gray" font-size="9" font-family="Segoe UI" x="167, 170.81885, 175.17383, 178.99268, 182.04248, 186.74902, 194.50098, 197.2168, 199.68213, 206.18604, 208.36572, 210.54541, 212.7251, 215.19043, 219.89697, 225.19678, 227.37646, 230.42627, 232.8916, 235.94141, 241.03467, 245.74121, 248.20654, 253.49756, 256.62646, 261.8999, 267.19092, 271.89746, 275.02637, 278.07617, " y="660, ">
				system) will edit the property
		</text>
		<text fill="gray" font-size="9" font-family="Segoe UI" x="167, 171.31104, 175.89014, 178.06982, 183.16309, 187.86963, 190.33496, 193.93408, 196.39941, 201.10596, 205.23682, 210.52783, 213.65674, 218.36328, 222.18213, 226.00098, 230.70752, 236.00732, 238.47266, 243.76367, 248.11865, 250.58398, 255.16309, 257.62842, 264.41357, 269.98584, 275.25928, 280.55908, 285.26562, " y="672, ">
				value - expressed by a QCode.
		</text>
		<text fill="gray" font-size="9" font-family="Segoe UI" x="167, 169.39502, 172.21191, 174.67725, 177.72705, 182.82031, 187.52686, 189.99219, 195.2832, 198.41211, 203.68555, 208.97656, 213.68311, 216.81201, 219.86182, 224.2168, 226.68213, 230.99316, 235.57227, 237.75195, 242.84521, 247.55176, 250.01709, 252.19678, " y="684, ">
				If the property value is
		</text>
		<text fill="gray" font-size="9" font-family="Segoe UI" x="167, 172.2998, 177.00635, 179.82324, 182.00293, 187.09619, 191.80273, 197.10254, 199.05371, 201.51904, 205.33789, 210.62891, 215.33545, 219.49268, 221.67236, 224.48926, 226.66895, 231.37549, 235.19434, 237.65967, 244.16357, 249.25684, 251.43652, 255.59375, 260.68701, 263.15234, 267.85889, 272.95215, 276.00195, 278.18164, 281.23145, " y="696, ">
				defined, specifies which entity
		</text>
		<text fill="gray" font-size="9" font-family="Segoe UI" x="167, 169.71582, 175.00684, 179.71338, 182.84229, 186.66113, 191.93457, 197.02783, 198.979, 201.44434, 206.71777, 209.84668, 215.14648, 219.72559, 224.81885, 226.99854, 230.81738, 235.39648, 238.44629, 240.62598, 245.89941, 250.99268, 253.45801, 258.73145, " y="708, ">
				(person, organisation or
		</text>
		<text fill="gray" font-size="9" font-family="Segoe UI" x="167, 170.81885, 175.17383, 178.99268, 182.04248, 186.74902, 194.50098, 197.2168, 199.68213, 204.77539, 209.35449, 213.17334, 215.63867, 220.34521, 225.64502, 227.82471, 230.87451, 235.58105, 240.88086, 243.34619, 246.396, 251.48926, " y="720, ">
				system) has edited the
		</text>
		<text fill="gray" font-size="9" font-family="Segoe UI" x="167, 172.29102, 175.41992, 180.69336, 185.98438, 190.69092, 193.81982, 196.86963, 201.22461, 203.68994, 208.00098, 212.58008, 214.75977, 219.85303, 224.55957, " y="732, ">
				property value.
		</text>
		<rect fill="white" x="171" y="589" width="42" height="16"/>
		<text font-size="12" font-weight="600" font-family="Segoe UI" x="171, 176.75977, 181.48828, 187.98047, 194.4375, 199.06055, 206.39648, " y="602, ">
				creator
		</text>
		<rect fill="none" stroke="black" stroke-width="1" stroke-linecap="square" stroke-miterlimit="4" transform="translate(0.5 0.5)" x="162" y="587" width="57" height="20"/>
		<rect fill="silver" x="166" y="745" width="73" height="21"/>
		<rect fill="white" x="162" y="741" width="73" height="21"/>
		<rect fill="white" x="167" y="768" width="120" height="108"/>
		<text fill="gray" font-size="9" font-family="Segoe UI" x="167, 169.39502, 172.21191, 174.67725, 177.72705, 182.82031, 187.52686, 189.99219, 195.2832, 198.41211, 203.68555, 208.97656, 213.68311, 216.81201, 219.86182, 224.2168, 226.68213, 230.99316, 235.57227, 237.75195, 242.84521, 247.55176, 250.01709, 252.19678, 256.01562, 258.48096, 263.57422, 268.84766, " y="778, ">
				If the property value is not
		</text>
		<text fill="gray" font-size="9" font-family="Segoe UI" x="167, 172.2998, 177.00635, 179.82324, 182.00293, 187.09619, 191.80273, 197.10254, 199.05371, 201.51904, 205.33789, 210.62891, 215.33545, 219.49268, 221.67236, 224.48926, 226.66895, 231.37549, 235.19434, 237.65967, 244.16357, 249.25684, 251.43652, 255.59375, 260.68701, 263.15234, 267.85889, 272.95215, 276.00195, 278.18164, 281.23145, " y="790, ">
				defined, specifies which entity
		</text>
		<text fill="gray" font-size="9" font-family="Segoe UI" x="167, 169.71582, 175.00684, 179.71338, 182.84229, 186.66113, 191.93457, 197.02783, 198.979, 201.44434, 206.71777, 209.84668, 215.14648, 219.72559, 224.81885, 226.99854, 230.81738, 235.39648, 238.44629, 240.62598, 245.89941, 250.99268, 253.45801, 258.73145, " y="802, ">
				(person, organisation or
		</text>
		<text fill="gray" font-size="9" font-family="Segoe UI" x="167, 170.81885, 175.17383, 178.99268, 182.04248, 186.74902, 194.50098, 197.2168, 199.68213, 206.18604, 208.36572, 210.54541, 212.7251, 215.19043, 219.89697, 225.19678, 227.37646, 230.42627, 232.8916, 235.94141, 241.03467, 245.74121, 248.20654, 253.49756, 256.62646, 261.8999, 267.19092, 271.89746, 275.02637, 278.07617, " y="814, ">
				system) will edit the property
		</text>
		<text fill="gray" font-size="9" font-family="Segoe UI" x="167, 170.59912, 173.06445, 177.771, 181.90186, 187.19287, 190.32178, 195.02832, 198.84717, 202.66602, 207.37256, 212.67236, 215.1377, 220.42871, 224.78369, 227.24902, 231.82812, 234.29346, 240.47656, 245.85986, 248.25488, 250.20605, 252.67139, 255.06641, 257.8833, 260.34863, 263.39844, 268.4917, " y="826, ">
				- expressed by a URI. If the
		</text>
		<text fill="gray" font-size="9" font-family="Segoe UI" x="167, 172.29102, 175.41992, 180.69336, 185.98438, 190.69092, 193.81982, 196.86963, 201.22461, 203.68994, 208.00098, 212.58008, 214.75977, 219.85303, 224.55957, 227.0249, 229.20459, 233.02344, 235.48877, 240.78857, 245.49512, 248.31201, 250.4917, 255.58496, 260.2915, 265.59131, " y="838, ">
				property value is defined,
		</text>
		<text fill="gray" font-size="9" font-family="Segoe UI" x="167, 170.81885, 176.10986, 180.81641, 184.97363, 187.15332, 189.97021, 192.1499, 196.85645, 200.67529, 203.14062, 209.64453, 214.73779, 216.91748, 221.07471, 226.16797, 228.6333, 233.33984, 238.43311, 241.48291, 243.6626, 246.7124, 251.06738, 253.53271, 256.24854, 261.53955, 266.24609, 269.375, 273.19385, 278.46729, 283.56055, " y="850, ">
				specifies which entity (person,
		</text>
		<text fill="gray" font-size="9" font-family="Segoe UI" x="167, 172.27344, 175.40234, 180.70215, 185.28125, 190.37451, 192.5542, 196.37305, 200.95215, 204.00195, 206.18164, 211.45508, 216.54834, 219.01367, 224.28711, 227.41602, 229.88135, 233.7002, 238.05518, 241.87402, 244.92383, 249.63037, 257.38232, 260.09814, 262.56348, 267.65674, 272.23584, " y="862, ">
				organisation or system) has
		</text>
		<text fill="gray" font-size="9" font-family="Segoe UI" x="167, 171.70654, 177.00635, 179.18604, 182.23584, 186.94238, 192.24219, 194.70752, 197.75732, 202.85059, 207.55713, 210.02246, 215.31348, 218.44238, 223.71582, 229.00684, 233.71338, 236.84229, 239.89209, 244.24707, " y="874, ">
				edited the property.
		</text>
		<rect fill="white" x="171" y="743" width="57" height="16"/>
		<text font-size="12" font-weight="600" font-family="Segoe UI" x="171, 176.75977, 181.48828, 187.98047, 194.4375, 199.06055, 206.39648, 211.20703, 218.4668, 223.28906, " y="756, ">
				creatoruri
		</text>
		<rect fill="none" stroke="black" stroke-width="1" stroke-linecap="square" stroke-miterlimit="4" transform="translate(0.5 0.5)" x="162" y="741" width="72" height="20"/>
		<rect fill="silver" x="166" y="887" width="69" height="21"/>
		<rect fill="white" x="162" y="883" width="69" height="21"/>
		<rect fill="white" x="167" y="910" width="119" height="72"/>
		<text fill="gray" font-size="9" font-family="Segoe UI" x="167, 171.71533, 176.80859, 181.51514, 183.98047, 189.28027, 193.85938, 196.90918, 201.61572, 204.08105, 206.79688, 211.37598, 216.46924, 221.76904, 223.72021, 226.18555, 231.45898, 236.75, 239.7998, 241.97949, 247.25293, 252.34619, 256.92529, 259.10498, 261.28467, 265.63965, 267.59082, 270.05615, 273.10596, 278.19922, " y="920, ">
				The date (and, optionally, the
		</text>
		<text fill="gray" font-size="9" font-family="Segoe UI" x="167, 170.0498, 172.22949, 179.98145, 184.68799, 187.40381, 189.86914, 196.37305, 201.46631, 206.17285, 211.26611, 213.73145, 216.78125, 221.87451, 226.58105, 229.04639, 234.3374, 237.46631, 242.73975, 248.03076, 252.7373, 255.86621, 258.91602, 263.271, 265.73633, 272.24023, 276.81934, " y="932, ">
				time) when the property was
		</text>
		<text fill="gray" font-size="9" font-family="Segoe UI" x="167, 169.17969, 173.75879, 177.57764, 180.62744, 183.09277, 190.84473, 196.11816, 201.41797, 203.59766, 206.41455, 208.59424, 213.30078, 218.60059, 220.55176, 223.01709, 227.73242, 232.82568, 237.53223, 239.99756, 242.17725, 247.27051, 249.4502, 252.5, 254.67969, 259.25879, 261.43848, 263.90381, 268.21484, 272.79395, 274.97363, 280.06689, " y="944, ">
				last modified. The initial value
		</text>
		<text fill="gray" font-size="9" font-family="Segoe UI" x="167, 169.17969, 172.99854, 175.46387, 178.51367, 183.60693, 188.31348, 190.77881, 196.07861, 200.65771, 203.70752, 208.41406, 210.87939, 213.59521, 218.17432, 223.26758, 228.56738, 230.51855, 232.98389, 238.25732, 243.54834, 246.59814, 248.77783, 254.05127, 259.14453, 263.72363, 265.90332, 268.08301, 272.43799, " y="956, ">
				is the date (and, optionally,
		</text>
		<text fill="gray" font-size="9" font-family="Segoe UI" x="167, 170.0498, 175.14307, 179.84961, 182.31494, 185.36475, 187.54443, 195.29639, 200.00293, 202.71875, 205.18408, 210.45752, 213.27441, 215.73975, 219.89697, 223.02588, 227.73242, 232.31152, 235.36133, 237.54102, 242.81445, 247.90771, 250.37305, 255.64648, 258.46338, 260.92871, 263.97852, 269.07178, " y="968, ">
				the time) of creation of the
		</text>
		<text fill="gray" font-size="9" font-family="Segoe UI" x="167, 172.29102, 175.41992, 180.69336, 185.98438, 190.69092, 193.81982, 196.86963, 201.22461, " y="980, ">
				property.
		</text>
		<rect fill="white" x="171" y="885" width="53" height="16"/>
		<text font-size="12" font-weight="600" font-family="Segoe UI" x="171, 181.99219, 189.32812, 196.75781, 200.16797, 204.76758, 208.17773, 214.66992, " y="898, ">
				modified
		</text>
		<rect fill="none" stroke="black" stroke-width="1" stroke-linecap="square" stroke-miterlimit="4" transform="translate(0.5 0.5)" x="162" y="883" width="68" height="20"/>
		<rect fill="silver" x="166" y="993" width="59" height="21"/>
		<rect fill="white" x="162" y="989" width="59" height="21"/>
		<rect fill="white" x="167" y="1016" width="118" height="108"/>
		<text fill="gray" font-size="9" font-family="Segoe UI" x="167, 169.39502, 172.21191, 174.67725, 178.49609, 183.20264, 186.25244, 188.71777, 191.76758, 197.04102, 199.50635, 202.55615, 205.68506, 210.77832, 215.48486, 217.9502, 221, 226.09326, " y="1026, ">
				If set to true the
		</text>
		<text fill="gray" font-size="9" font-family="Segoe UI" x="167, 171.15723, 176.43066, 179.55957, 182.68848, 187.39502, 191.21387, 196.50488, 201.77832, 206.87158, 212.17139, 214.35107, 219.44434, 224.74414, 227.20947, 232.50049, 235.62939, 240.90283, 246.19385, 250.90039, 254.0293, 257.0791, 261.43408, 263.89941, 270.40332, 274.98242, " y="1038, ">
				corresponding property was
		</text>
		<text fill="gray" font-size="9" font-family="Segoe UI" x="167, 171.5791, 176.87891, 182.17871, 186.88525, 192.18506, 194.65039, 197.7002, 202.97363, 205.43896, 208.48877, 213.58203, 218.28857, 220.75391, 226.92822, 231.77979, 234.24512, 236.64014, 239.68994, 244.39648, 252.14844, 254.61377, 257.43066, 262.7041, 265.83301, 268.29834, " y="1050, ">
				added to the G2 Item for a
		</text>
		<text fill="gray" font-size="9" font-family="Segoe UI" x="167, 170.81885, 176.10986, 180.81641, 184.97363, 187.15332, 189.97021, 192.1499, 196.30713, 198.77246, 202.92969, 208.02295, 211.8418, 214.8916, 220.16504, 227.91699, 232.62354, 235.75244, 238.21777, 243.49121, 246.62012, 249.08545, 254.38525, 257.51416, 262.7876, 267.88086, 273.17188, 275.63721, 280.91064, " y="1062, ">
				specific customer or group of
		</text>
		<text fill="gray" font-size="9" font-family="Segoe UI" x="167, 171.15723, 176.25049, 180.06934, 183.11914, 188.39258, 196.14453, 200.85107, 203.97998, 207.79883, 210.26416, 215.5376, 220.63086, 222.81055, 227.16553, 229.1167, 231.58203, 236.29736, 241.39062, 246.09717, 248.5625, 253.8623, 258.56885, 261.38574, 265.96484, 271.05811, 273.23779, " y="1074, ">
				customers only. The default
		</text>
		<text fill="gray" font-size="9" font-family="Segoe UI" x="167, 171.31104, 175.89014, 178.06982, 183.16309, 187.86963, 190.33496, 195.6084, 198.42529, 200.89062, 203.94043, 209.03369, 211.21338, 215.03223, 217.49756, 222.78857, 225.91748, 231.19092, 236.48193, 241.18848, 244.31738, 247.36719, 251.72217, 254.1875, 256.36719, 260.18604, 262.65137, 265.46826, 270.04736, 272.22705, 276.0459, " y="1086, ">
				value of this property is false
		</text>
		<text fill="gray" font-size="9" font-family="Segoe UI" x="167, 173.50391, 178.59717, 180.77686, 184.93408, 190.02734, 192.49268, 197.07178, 202.36279, 207.65381, 209.8335, 212.01318, 216.71973, 220.53857, 223.00391, 229.50781, 234.60107, 239.30762, 244.40088, 246.86621, 249.91602, 255.00928, 257.18896, " y="1098, ">
				which applies when this
		</text>
		<text fill="gray" font-size="9" font-family="Segoe UI" x="167, 171.5791, 174.62891, 177.67871, 180.80762, 182.9873, 188.27832, 193.37158, 196.42139, 201.12793, 203.59326, 205.77295, 209.5918, 212.05713, 217.15039, 222.42383, 225.47363, 227.93896, 233.03223, 236.85107, 241.55762, 246.85742, 249.32275, 255.82666, 258.00635, 261.05615, 266.14941, 268.61475, 271.66455, 276.75781, " y="1110, ">
				attribute is not used with the
		</text>
		<text fill="gray" font-size="9" font-family="Segoe UI" x="167, 172.29102, 175.41992, 180.69336, 185.98438, 190.69092, 193.81982, 196.86963, 201.22461, " y="1122, ">
				property.
		</text>
		<rect fill="white" x="171" y="991" width="43" height="16"/>
		<text font-size="12" font-weight="600" font-family="Segoe UI" x="171, 176.75977, 184.01953, 189.29883, 193.92188, 201.25781, " y="1004, ">
				custom
		</text>
		<rect fill="none" stroke="black" stroke-width="1" stroke-linecap="square" stroke-miterlimit="4" transform="translate(0.5 0.5)" x="162" y="989" width="58" height="20"/>
		<rect fill="silver" x="166" y="1135" width="52" height="21"/>
		<rect fill="white" x="162" y="1131" width="52" height="21"/>
		<rect fill="white" x="167" y="1158" width="118" height="48"/>
		<text fill="gray" font-size="9" font-family="Segoe UI" x="167, 169.39502, 174.48828, 179.78809, 181.96777, 186.125, 190.7041, 193.75391, 198.46045, 202.2793, 204.74463, 210.03564, 214.39062, 216.85596, 223.35986, 228.45312, 230.63281, 234.79004, 239.8833, 242.34863, 250.10059, 254.80713, 259.38623, 264.47949, 268.29834, 270.76367, 273.81348, 278.90674, " y="1168, ">
				Indicates by which means the
		</text>
		<text fill="gray" font-size="9" font-family="Segoe UI" x="167, 171.31104, 175.89014, 178.06982, 183.16309, 187.86963, 190.33496, 196.83887, 201.41797, 205.23682, 207.70215, 212.40869, 216.53955, 219.58936, 222.71826, 227.29736, 231.45459, 234.50439, 239.21094, 244.51074, 246.97607, 249.79297, 252.92188, 258.19531, 265.94727, 268.4126, 271.4624, 276.55566, " y="1180, ">
				value was extracted from the
		</text>
		<text fill="gray" font-size="9" font-family="Segoe UI" x="167, 171.15723, 176.43066, 181.52393, 184.57373, 189.28027, 194.37354, 197.42334, 199.88867, 203.48779, 205.95312, 210.65967, 214.79053, 220.08154, 223.21045, 227.91699, 231.73584, 235.55469, 240.26123, 245.56104, 248.02637, 253.31738, 257.67236, 260.1377, " y="1192, ">
				content - expressed by a
		</text>
		<text fill="gray" font-size="9" font-family="Segoe UI" x="167, 173.78516, 179.35742, 184.63086, 189.93066, " y="1204, ">
				QCode
		</text>
		<rect fill="white" x="171" y="1133" width="36" height="16"/>
		<text font-size="12" font-weight="600" font-family="Segoe UI" x="171, 178.22461, 185.56055, " y="1146, ">
				how
		</text>
		<rect fill="none" stroke="black" stroke-width="1" stroke-linecap="square" stroke-miterlimit="4" transform="translate(0.5 0.5)" x="162" y="1131" width="51" height="20"/>
		<rect fill="silver" x="166" y="1217" width="57" height="21"/>
		<rect fill="white" x="162" y="1213" width="57" height="21"/>
		<rect fill="white" x="167" y="1240" width="118" height="36"/>
		<text fill="gray" font-size="9" font-family="Segoe UI" x="167, 169.39502, 174.48828, 179.78809, 181.96777, 186.125, 190.7041, 193.75391, 198.46045, 202.2793, 204.74463, 210.03564, 214.39062, 216.85596, 223.35986, 228.45312, 230.63281, 234.79004, 239.8833, 242.34863, 250.10059, 254.80713, 259.38623, 264.47949, 268.29834, 270.76367, 273.81348, 278.90674, " y="1250, ">
				Indicates by which means the
		</text>
		<text fill="gray" font-size="9" font-family="Segoe UI" x="167, 171.31104, 175.89014, 178.06982, 183.16309, 187.86963, 190.33496, 196.83887, 201.41797, 205.23682, 207.70215, 212.40869, 216.53955, 219.58936, 222.71826, 227.29736, 231.45459, 234.50439, 239.21094, 244.51074, 246.97607, 249.79297, 252.92188, 258.19531, 265.94727, 268.4126, 271.4624, 276.55566, " y="1262, ">
				value was extracted from the
		</text>
		<text fill="gray" font-size="9" font-family="Segoe UI" x="167, 171.15723, 176.43066, 181.52393, 184.57373, 189.28027, 194.37354, 197.42334, 199.88867, 203.48779, 205.95312, 210.65967, 214.79053, 220.08154, 223.21045, 227.91699, 231.73584, 235.55469, 240.26123, 245.56104, 248.02637, 253.31738, 257.67236, 260.1377, 264.7168, 267.18213, 273.36523, 278.74854, " y="1274, ">
				content - expressed by a URI
		</text>
		<rect fill="white" x="171" y="1215" width="41" height="16"/>
		<text font-size="12" font-weight="600" font-family="Segoe UI" x="171, 178.22461, 185.56055, 195.12891, 202.38867, 207.21094, " y="1228, ">
				howuri
		</text>
		<rect fill="none" stroke="black" stroke-width="1" stroke-linecap="square" stroke-miterlimit="4" transform="translate(0.5 0.5)" x="162" y="1213" width="56" height="20"/>
		<rect fill="silver" x="166" y="1287" width="52" height="21"/>
		<rect fill="white" x="162" y="1283" width="52" height="21"/>
		<rect fill="white" x="167" y="1310" width="113" height="36"/>
		<text fill="gray" font-size="9" font-family="Segoe UI" x="167, 175.40674, 180.5, 184.85498, 187.32031, 190.37012, 195.46338, 200.16992, 202.63525, 210.38721, 215.09375, 218.14355, 222.72266, 228.02246, 232.60156, 235.65137, 240.23047, 242.6958, 247.78906, 252.36816, 256.18701, 258.65234, 263.94336, 268.6499, 273.35645, " y="1320, ">
				Why the metadata has been
		</text>
		<text fill="gray" font-size="9" font-family="Segoe UI" x="167, 169.17969, 174.27295, 178.43018, 180.60986, 185.70312, 191.00293, 195.70947, 201.00928, 203.47461, 207.07373, 209.53906, 214.24561, 218.37646, 223.66748, 226.79639, 231.50293, 235.32178, 239.14062, 243.84717, 249.14697, 251.6123, 256.90332, 261.2583, 263.72363, " y="1332, ">
				included - expressed by a
		</text>
		<text fill="gray" font-size="9" font-family="Segoe UI" x="167, 173.78516, 179.35742, 184.63086, 189.93066, " y="1344, ">
				QCode
		</text>
		<rect fill="white" x="171" y="1285" width="36" height="16"/>
		<text font-size="12" font-weight="600" font-family="Segoe UI" x="171, 180.56836, 187.79297, " y="1298, ">
				why
		</text>
		<rect fill="none" stroke="black" stroke-width="1" stroke-linecap="square" stroke-miterlimit="4" transform="translate(0.5 0.5)" x="162" y="1283" width="51" height="20"/>
		<rect fill="silver" x="166" y="1357" width="56" height="21"/>
		<rect fill="white" x="162" y="1353" width="56" height="21"/>
		<rect fill="white" x="167" y="1380" width="119" height="24"/>
		<text fill="gray" font-size="9" font-family="Segoe UI" x="167, 175.40674, 180.5, 184.85498, 187.32031, 190.37012, 195.46338, 200.16992, 202.63525, 210.38721, 215.09375, 218.14355, 222.72266, 228.02246, 232.60156, 235.65137, 240.23047, 242.6958, 247.78906, 252.36816, 256.18701, 258.65234, 263.94336, 268.6499, 273.35645, " y="1390, ">
				Why the metadata has been
		</text>
		<text fill="gray" font-size="9" font-family="Segoe UI" x="167, 169.17969, 174.27295, 178.43018, 180.60986, 185.70312, 191.00293, 195.70947, 201.00928, 203.47461, 207.07373, 209.53906, 214.24561, 218.37646, 223.66748, 226.79639, 231.50293, 235.32178, 239.14062, 243.84717, 249.14697, 251.6123, 256.90332, 261.2583, 263.72363, 268.30273, 270.76807, 276.95117, 282.33447, " y="1402, ">
				included - expressed by a URI
		</text>
		<rect fill="white" x="171" y="1355" width="40" height="16"/>
		<text font-size="12" font-weight="600" font-family="Segoe UI" x="171, 180.56836, 187.79297, 194.25, 201.50977, 206.33203, " y="1368, ">
				whyuri
		</text>
		<rect fill="none" stroke="black" stroke-width="1" stroke-linecap="square" stroke-miterlimit="4" transform="translate(0.5 0.5)" x="162" y="1353" width="55" height="20"/>
		<rect fill="silver" x="166" y="1415" width="97" height="21"/>
		<rect fill="white" x="162" y="1411" width="97" height="21"/>
		<rect fill="white" x="167" y="1438" width="117" height="72"/>
		<text fill="gray" font-size="9" font-family="Segoe UI" x="167, 173.78516, 178.87842, 183.58496, 186.05029, 191.32373, 194.45264, 196.91797, 204.66992, 209.24902, 214.34229, 218.69727, 221.1626, 225.31982, 230.59326, 235.68652, 239.50537, 242.55518, 245.68408, 250.26318, 252.44287, 257.53613, 260.58594, 264.40479, 266.87012, 269.91992, 275.01318, 279.59229, " y="1448, ">
				One or many constraints that
		</text>
		<text fill="gray" font-size="9" font-family="Segoe UI" x="167, 171.5791, 176.87012, 182.16113, 184.34082, 188.6958, 191.16113, 194.21094, 199.48438, 201.94971, 207.24072, 212.33398, 217.625, 219.80469, 221.98438, 225.80322, 230.89648, 233.07617, 238.16943, 243.46924, 245.93457, 248.98438, 254.07764, 258.78418, 261.24951, 265.56055, 270.13965, 272.31934, 277.4126, " y="1460, ">
				apply to publishing the value
		</text>
		<text fill="gray" font-size="9" font-family="Segoe UI" x="167, 172.27344, 175.09033, 177.55566, 180.60547, 185.69873, 190.40527, 192.87061, 198.16162, 201.29053, 206.56396, 211.85498, 216.56152, 219.69043, 222.74023, 227.09521, 229.56055, 233.15967, 235.625, 240.33154, 244.4624, 249.75342, 252.88232, 257.58887, 261.40771, 265.22656, 269.93311, " y="1472, ">
				of the property - expressed
		</text>
		<text fill="gray" font-size="9" font-family="Segoe UI" x="167, 172.29102, 176.646, 179.11133, 183.69043, 186.15576, 192.94092, 198.51318, 203.78662, 209.08643, 213.79297, 215.74414, 218.20947, 222.76221, 227.34131, 231.49854, 236.5918, 239.05713, 243.21436, 248.48779, 253.58105, 257.3999, 260.44971, 263.57861, 268.15771, 270.3374, 275.43066, " y="1484, ">
				by a QCode. Each constraint
		</text>
		<text fill="gray" font-size="9" font-family="Segoe UI" x="167, 171.5791, 176.87012, 182.16113, 184.34082, 186.52051, 191.22705, 195.0459, 197.51123, 200.56104, 205.83447, 208.2998, 212.87891, 215.05859, 217.23828, 219.70361, 225.00342, 229.70996, 233.52881, 237.68604, 242.39258, 247.48584, 252.78564, 257.36475, 262.45801, " y="1496, ">
				applies to all descendant
		</text>
		<text fill="gray" font-size="9" font-family="Segoe UI" x="167, 171.70654, 173.88623, 178.59277, 186.34473, 191.05127, 196.14453, 199.19434, 203.01318, " y="1508, ">
				elements.
		</text>
		<rect fill="white" x="171" y="1413" width="81" height="16"/>
		<text font-size="12" font-weight="600" font-family="Segoe UI" x="171, 178.44141, 185.70117, 193.14258, 198.90234, 206.23828, 213.49805, 218.77734, 223.44727, 228.22266, 234.67969, 238.08984, 245.34961, " y="1426, ">
				pubconstraint
		</text>
		<rect fill="none" stroke="black" stroke-width="1" stroke-linecap="square" stroke-miterlimit="4" transform="translate(0.5 0.5)" x="162" y="1411" width="96" height="20"/>
		<rect fill="silver" x="166" y="1521" width="112" height="21"/>
		<rect fill="white" x="162" y="1517" width="112" height="21"/>
		<rect fill="white" x="167" y="1544" width="117" height="72"/>
		<text fill="gray" font-size="9" font-family="Segoe UI" x="167, 173.78516, 178.87842, 183.58496, 186.05029, 191.32373, 194.45264, 196.91797, 204.66992, 209.24902, 214.34229, 218.69727, 221.1626, 225.31982, 230.59326, 235.68652, 239.50537, 242.55518, 245.68408, 250.26318, 252.44287, 257.53613, 260.58594, 264.40479, 266.87012, 269.91992, 275.01318, 279.59229, " y="1554, ">
				One or many constraints that
		</text>
		<text fill="gray" font-size="9" font-family="Segoe UI" x="167, 171.5791, 176.87012, 182.16113, 184.34082, 188.6958, 191.16113, 194.21094, 199.48438, 201.94971, 207.24072, 212.33398, 217.625, 219.80469, 221.98438, 225.80322, 230.89648, 233.07617, 238.16943, 243.46924, 245.93457, 248.98438, 254.07764, 258.78418, 261.24951, 265.56055, 270.13965, 272.31934, 277.4126, " y="1566, ">
				apply to publishing the value
		</text>
		<text fill="gray" font-size="9" font-family="Segoe UI" x="167, 172.27344, 175.09033, 177.55566, 180.60547, 185.69873, 190.40527, 192.87061, 198.16162, 201.29053, 206.56396, 211.85498, 216.56152, 219.69043, 222.74023, 227.09521, 229.56055, 233.15967, 235.625, 240.33154, 244.4624, 249.75342, 252.88232, 257.58887, 261.40771, 265.22656, 269.93311, " y="1578, ">
				of the property - expressed
		</text>
		<text fill="gray" font-size="9" font-family="Segoe UI" x="167, 172.29102, 176.646, 179.11133, 183.69043, 186.15576, 192.33887, 197.72217, 200.11719, 202.06836, 204.53369, 209.08643, 213.66553, 217.82275, 222.91602, 225.38135, 229.53857, 234.81201, 239.90527, 243.72412, 246.77393, 249.90283, 254.48193, 256.66162, 261.75488, " y="1590, ">
				by a URI. Each constraint
		</text>
		<text fill="gray" font-size="9" font-family="Segoe UI" x="167, 171.5791, 176.87012, 182.16113, 184.34082, 186.52051, 191.22705, 195.0459, 197.51123, 200.56104, 205.83447, 208.2998, 212.87891, 215.05859, 217.23828, 219.70361, 225.00342, 229.70996, 233.52881, 237.68604, 242.39258, 247.48584, 252.78564, 257.36475, 262.45801, " y="1602, ">
				applies to all descendant
		</text>
		<text fill="gray" font-size="9" font-family="Segoe UI" x="167, 171.70654, 173.88623, 178.59277, 186.34473, 191.05127, 196.14453, 199.19434, 203.01318, " y="1614, ">
				elements.
		</text>
		<rect fill="white" x="171" y="1519" width="96" height="16"/>
		<text font-size="12" font-weight="600" font-family="Segoe UI" x="171, 178.44141, 185.70117, 193.14258, 198.90234, 206.23828, 213.49805, 218.77734, 223.44727, 228.22266, 234.67969, 238.08984, 245.34961, 250.01953, 257.2793, 262.10156, " y="1532, ">
				pubconstrainturi
		</text>
		<rect fill="none" stroke="black" stroke-width="1" stroke-linecap="square" stroke-miterlimit="4" transform="translate(0.5 0.5)" x="162" y="1517" width="111" height="20"/>
		<rect x="145" y="5" width="11" height="11"/>
		<rect fill="white" x="146" y="6" width="9" height="9"/>
		<rect x="147" y="10" width="7" height="1"/>
		<rect x="46" y="835" width="11" height="11"/>
		<rect fill="white" x="47" y="836" width="9" height="9"/>
		<rect x="48" y="840" width="7" height="1"/>
	</g>
</svg>
