<?xml version="1.0" encoding="utf-8" ?>
<svg xmlns="http://www.w3.org/2000/svg" xmlns:xlink="http://www.w3.org/1999/xlink" width="396" height="1833">
	<clipPath id="cl_7a7">
		<rect x="-10" y="-5" width="396" height="1833"/>
	</clipPath>
	<g clip-path="url(#cl_7a7)">
		<rect fill="#FFFFC0" x="139" width="237" height="1823"/>
		<rect fill="none" stroke="gray" stroke-width="1" stroke-linecap="square" stroke-miterlimit="4" transform="translate(0.5 0.5)" x="139" width="236" height="1822"/>
		<path fill="none" stroke="black" stroke-width="1" stroke-linecap="square" stroke-miterlimit="4" transform="translate(0.5 0.5)" d="M81 1226L151 1226"/>
		<path fill="none" stroke="black" stroke-width="1" stroke-linecap="square" stroke-miterlimit="4" transform="translate(0.5 0.5)" d="M152 1226L152 794"/>
		<path transform="translate(0.5 0.5)" d="M152.5 1226L152.5 1228L152.5 1228.5L151.5 1228.5L151.5 1228L151.5 1225.5L152.5 1225.5L152.5 1226ZM152.5 1232L152.5 1234L152.5 1234.5L151.5 1234.5L151.5 1234L151.5 1231.5L152.5 1231.5L152.5 1232ZM152.5 1238L152.5 1240L152.5 1240.5L151.5 1240.5L151.5 1240L151.5 1237.5L152.5 1237.5L152.5 1238ZM152.5 1244L152.5 1246L152.5 1246.5L151.5 1246.5L151.5 1246L151.5 1243.5L152.5 1243.5L152.5 1244ZM152.5 1250L152.5 1252L152.5 1252.5L151.5 1252.5L151.5 1252L151.5 1249.5L152.5 1249.5L152.5 1250ZM152.5 1256L152.5 1258L152.5 1258.5L151.5 1258.5L151.5 1258L151.5 1255.5L152.5 1255.5L152.5 1256ZM152.5 1262L152.5 1264L152.5 1264.5L151.5 1264.5L151.5 1264L151.5 1261.5L152.5 1261.5L152.5 1262ZM152.5 1268L152.5 1270L152.5 1270.5L151.5 1270.5L151.5 1270L151.5 1267.5L152.5 1267.5L152.5 1268ZM152.5 1274L152.5 1276L152.5 1276.5L151.5 1276.5L151.5 1276L151.5 1273.5L152.5 1273.5L152.5 1274ZM152.5 1280L152.5 1282L152.5 1282.5L151.5 1282.5L151.5 1282L151.5 1279.5L152.5 1279.5L152.5 1280ZM152.5 1286L152.5 1288L152.5 1288.5L151.5 1288.5L151.5 1288L151.5 1285.5L152.5 1285.5L152.5 1286ZM152.5 1292L152.5 1294L152.5 1294.5L151.5 1294.5L151.5 1294L151.5 1291.5L152.5 1291.5L152.5 1292ZM152.5 1298L152.5 1300L152.5 1300.5L151.5 1300.5L151.5 1300L151.5 1297.5L152.5 1297.5L152.5 1298ZM152.5 1304L152.5 1306L152.5 1306.5L151.5 1306.5L151.5 1306L151.5 1303.5L152.5 1303.5L152.5 1304ZM152.5 1310L152.5 1312L152.5 1312.5L151.5 1312.5L151.5 1312L151.5 1309.5L152.5 1309.5L152.5 1310ZM152.5 1316L152.5 1318L152.5 1318.5L151.5 1318.5L151.5 1318L151.5 1315.5L152.5 1315.5L152.5 1316ZM152.5 1322L152.5 1324L152.5 1324.5L151.5 1324.5L151.5 1324L151.5 1321.5L152.5 1321.5L152.5 1322ZM152.5 1328L152.5 1330L152.5 1330.5L151.5 1330.5L151.5 1330L151.5 1327.5L152.5 1327.5L152.5 1328ZM152.5 1334L152.5 1336L152.5 1336.5L151.5 1336.5L151.5 1336L151.5 1333.5L152.5 1333.5L152.5 1334ZM152.5 1340L152.5 1342L152.5 1342.5L151.5 1342.5L151.5 1342L151.5 1339.5L152.5 1339.5L152.5 1340ZM152.5 1346L152.5 1348L152.5 1348.5L151.5 1348.5L151.5 1348L151.5 1345.5L152.5 1345.5L152.5 1346ZM152.5 1352L152.5 1354L152.5 1354.5L151.5 1354.5L151.5 1354L151.5 1351.5L152.5 1351.5L152.5 1352ZM152.5 1358L152.5 1360L152.5 1360.5L151.5 1360.5L151.5 1360L151.5 1357.5L152.5 1357.5L152.5 1358ZM152.5 1364L152.5 1366L152.5 1366.5L151.5 1366.5L151.5 1366L151.5 1363.5L152.5 1363.5L152.5 1364ZM152.5 1370L152.5 1372L152.5 1372.5L151.5 1372.5L151.5 1372L151.5 1369.5L152.5 1369.5L152.5 1370ZM152.5 1376L152.5 1378L152.5 1378.5L151.5 1378.5L151.5 1378L151.5 1375.5L152.5 1375.5L152.5 1376ZM152.5 1382L152.5 1384L152.5 1384.5L151.5 1384.5L151.5 1384L151.5 1381.5L152.5 1381.5L152.5 1382ZM152.5 1388L152.5 1390L152.5 1390.5L151.5 1390.5L151.5 1390L151.5 1387.5L152.5 1387.5L152.5 1388ZM152.5 1394L152.5 1396L152.5 1396.5L151.5 1396.5L151.5 1396L151.5 1393.5L152.5 1393.5L152.5 1394ZM152.5 1400L152.5 1402L152.5 1402.5L151.5 1402.5L151.5 1402L151.5 1399.5L152.5 1399.5L152.5 1400ZM152.5 1406L152.5 1408L152.5 1408.5L151.5 1408.5L151.5 1408L151.5 1405.5L152.5 1405.5L152.5 1406ZM152.5 1412L152.5 1414L152.5 1414.5L151.5 1414.5L151.5 1414L151.5 1411.5L152.5 1411.5L152.5 1412ZM152.5 1418L152.5 1420L152.5 1420.5L151.5 1420.5L151.5 1420L151.5 1417.5L152.5 1417.5L152.5 1418ZM152.5 1424L152.5 1426L152.5 1426.5L151.5 1426.5L151.5 1426L151.5 1423.5L152.5 1423.5L152.5 1424ZM152.5 1430L152.5 1432L152.5 1432.5L151.5 1432.5L151.5 1432L151.5 1429.5L152.5 1429.5L152.5 1430ZM152.5 1436L152.5 1438L152.5 1438.5L151.5 1438.5L151.5 1438L151.5 1435.5L152.5 1435.5L152.5 1436ZM152.5 1442L152.5 1444L152.5 1444.5L151.5 1444.5L151.5 1444L151.5 1441.5L152.5 1441.5L152.5 1442ZM152.5 1448L152.5 1450L152.5 1450.5L151.5 1450.5L151.5 1450L151.5 1447.5L152.5 1447.5L152.5 1448ZM152.5 1454L152.5 1456L152.5 1456.5L151.5 1456.5L151.5 1456L151.5 1453.5L152.5 1453.5L152.5 1454ZM152.5 1460L152.5 1462L152.5 1462.5L151.5 1462.5L151.5 1462L151.5 1459.5L152.5 1459.5L152.5 1460ZM152.5 1466L152.5 1468L152.5 1468.5L151.5 1468.5L151.5 1468L151.5 1465.5L152.5 1465.5L152.5 1466ZM152.5 1472L152.5 1474L152.5 1474.5L151.5 1474.5L151.5 1474L151.5 1471.5L152.5 1471.5L152.5 1472ZM152.5 1478L152.5 1480L152.5 1480.5L151.5 1480.5L151.5 1480L151.5 1477.5L152.5 1477.5L152.5 1478ZM152.5 1484L152.5 1486L152.5 1486.5L151.5 1486.5L151.5 1486L151.5 1483.5L152.5 1483.5L152.5 1484ZM152.5 1490L152.5 1492L152.5 1492.5L151.5 1492.5L151.5 1492L151.5 1489.5L152.5 1489.5L152.5 1490ZM152.5 1496L152.5 1498L152.5 1498.5L151.5 1498.5L151.5 1498L151.5 1495.5L152.5 1495.5L152.5 1496ZM152.5 1502L152.5 1504L152.5 1504.5L151.5 1504.5L151.5 1504L151.5 1501.5L152.5 1501.5L152.5 1502ZM152.5 1508L152.5 1510L152.5 1510.5L151.5 1510.5L151.5 1510L151.5 1507.5L152.5 1507.5L152.5 1508ZM152.5 1514L152.5 1516L152.5 1516.5L151.5 1516.5L151.5 1516L151.5 1513.5L152.5 1513.5L152.5 1514ZM152.5 1520L152.5 1522L152.5 1522.5L151.5 1522.5L151.5 1522L151.5 1519.5L152.5 1519.5L152.5 1520ZM152.5 1526L152.5 1528L152.5 1528.5L151.5 1528.5L151.5 1528L151.5 1525.5L152.5 1525.5L152.5 1526ZM152.5 1532L152.5 1534L152.5 1534.5L151.5 1534.5L151.5 1534L151.5 1531.5L152.5 1531.5L152.5 1532ZM152.5 1538L152.5 1540L152.5 1540.5L151.5 1540.5L151.5 1540L151.5 1537.5L152.5 1537.5L152.5 1538ZM152.5 1544L152.5 1546L152.5 1546.5L151.5 1546.5L151.5 1546L151.5 1543.5L152.5 1543.5L152.5 1544ZM152.5 1550L152.5 1552L152.5 1552.5L151.5 1552.5L151.5 1552L151.5 1549.5L152.5 1549.5L152.5 1550ZM152.5 1556L152.5 1558L152.5 1558.5L151.5 1558.5L151.5 1558L151.5 1555.5L152.5 1555.5L152.5 1556ZM152.5 1562L152.5 1564L152.5 1564.5L151.5 1564.5L151.5 1564L151.5 1561.5L152.5 1561.5L152.5 1562ZM152.5 1568L152.5 1570L152.5 1570.5L151.5 1570.5L151.5 1570L151.5 1567.5L152.5 1567.5L152.5 1568ZM152.5 1574L152.5 1576L152.5 1576.5L151.5 1576.5L151.5 1576L151.5 1573.5L152.5 1573.5L152.5 1574ZM152.5 1580L152.5 1582L152.5 1582.5L151.5 1582.5L151.5 1582L151.5 1579.5L152.5 1579.5L152.5 1580ZM152.5 1586L152.5 1588L152.5 1588.5L151.5 1588.5L151.5 1588L151.5 1585.5L152.5 1585.5L152.5 1586ZM152.5 1592L152.5 1594L152.5 1594.5L151.5 1594.5L151.5 1594L151.5 1591.5L152.5 1591.5L152.5 1592ZM152.5 1598L152.5 1600L152.5 1600.5L151.5 1600.5L151.5 1600L151.5 1597.5L152.5 1597.5L152.5 1598ZM152.5 1604L152.5 1606L152.5 1606.5L151.5 1606.5L151.5 1606L151.5 1603.5L152.5 1603.5L152.5 1604ZM152.5 1610L152.5 1612L152.5 1612.5L151.5 1612.5L151.5 1612L151.5 1609.5L152.5 1609.5L152.5 1610ZM152.5 1616L152.5 1618L152.5 1618.5L151.5 1618.5L151.5 1618L151.5 1615.5L152.5 1615.5L152.5 1616ZM152.5 1622L152.5 1624L152.5 1624.5L151.5 1624.5L151.5 1624L151.5 1621.5L152.5 1621.5L152.5 1622ZM152.5 1628L152.5 1630L152.5 1630.5L151.5 1630.5L151.5 1630L151.5 1627.5L152.5 1627.5L152.5 1628ZM152.5 1634L152.5 1636L152.5 1636.5L151.5 1636.5L151.5 1636L151.5 1633.5L152.5 1633.5L152.5 1634ZM152.5 1640L152.5 1642L152.5 1642.5L151.5 1642.5L151.5 1642L151.5 1639.5L152.5 1639.5L152.5 1640ZM152.5 1646L152.5 1648L152.5 1648.5L151.5 1648.5L151.5 1648L151.5 1645.5L152.5 1645.5L152.5 1646ZM152.5 1652L152.5 1654.5L151.5 1654.5L151.5 1651.5L152.5 1651.5L152.5 1652Z"/>
		<path transform="translate(0.5 0.5)" d="M152 1658.5L154 1658.5L154.5 1658.5L154.5 1659.5L154 1659.5L151.5 1659.5L151.5 1658.5L152 1658.5ZM158 1658.5L160 1658.5L160.5 1658.5L160.5 1659.5L160 1659.5L157.5 1659.5L157.5 1658.5L158 1658.5ZM164 1658.5L166.5 1658.5L166.5 1659.5L163.5 1659.5L163.5 1658.5L164 1658.5Z"/>
		<path fill="none" stroke="black" stroke-width="1" stroke-linecap="square" stroke-miterlimit="4" transform="translate(0.5 0.5)" d="M152 793L166 793"/>
		<rect fill="silver" x="4" y="1220" width="76" height="21"/>
		<rect fill="white" y="1216" width="76" height="21"/>
		<rect fill="#FFFFC0" x="147" y="8" width="99" height="16"/>
		<text fill="gray" font-size="12" font-weight="600" font-family="Segoe UI" x="147, 156.09961, 163.35938, 169.81641, 173.22656, 180.76172, 187.25391, 190.66406, 198.03516, 202.76367, 210.09961, 217.54102, 224.0332, 230.49023, 237.93164, " y="21, ">
				QualRelPropType
		</text>
		<rect fill="white" x="5" y="1243" width="119" height="36"/>
		<text fill="gray" font-size="9" font-family="Segoe UI" x="5, 9.715332, 14.808594, 19.515137, 21.980469, 27.07373, 31.652832, 34.702637, 39.795898, 42.924805, 47.631348, 50.09668, 55.370117, 58.187012, 60.652344, 63.702148, 68.79541, 73.501953, 75.967285, 78.146973, 81.196777, 85.90332, 93.655273, 95.606445, 98.071777, 101.89062, 106.59717, 109.64697, 112.1123, 114.29199, " y="1253, ">
				The nature of the item, set in
		</text>
		<text fill="gray" font-size="9" font-family="Segoe UI" x="5, 9.5791016, 13.736328, 17.893555, 23.166992, 26.295898, 31.595703, 36.174805, 41.268066, 45.425293, 50.131836, 52.597168, 59.101074, 61.280762, 64.330566, 69.423828, 71.88916, 74.938965, 80.032227, 84.73877, 87.204102, 91.022949, 94.072754, 97.20166, 102.29492, 106.45215, 109.50195, 114.59521, 117.72412, " y="1265, ">
				accordance with the structure
		</text>
		<text fill="gray" font-size="9" font-family="Segoe UI" x="5, 10.273438, 13.090332, 15.555664, 17.735352, 20.785156, 24.604004, 27.069336, 31.226562, 36.5, 41.593262, 44.643066, 49.349609, 54.442871, 57.492676, " y="1277, ">
				of its content.
		</text>
		<rect fill="white" x="9" y="1218" width="55" height="16"/>
		<text font-size="12" font-weight="600" font-family="Segoe UI" x="9, 12.410156, 17.033203, 23.525391, 34.517578, 42.005859, 45.416016, 51.873047, 57.152344, " y="1231, ">
				itemClass
		</text>
		<rect fill="none" stroke="black" stroke-width="1" stroke-linecap="square" stroke-miterlimit="4" transform="translate(0.5 0.5)" y="1216" width="75" height="20"/>
		<path fill="white" d="M244 55L244 36L167 36L167 55L167 1549L314 1549L314 55L244 55Z"/>
		<rect fill="white" x="187" y="38" width="51" height="16"/>
		<text font-size="12" font-style="italic" font-family="Segoe UI" x="187, 193.50391, 197.38281, 201.26172, 205.5332, 208.63867, 215.14258, 221.83984, 225.73047, 231.57227, " y="51, ">
				attributes
		</text>
		<path fill="none" stroke="black" stroke-width="1" stroke-linecap="square" stroke-miterlimit="4" transform="translate(0.5 0.5)" d="M244 55L244 36L167 36L167 55L167 1549L314 1549L314 55L244 55Z"/>
		<rect fill="silver" x="185" y="68" width="52" height="21"/>
		<rect fill="white" x="181" y="64" width="52" height="21"/>
		<rect fill="white" x="186" y="91" width="101" height="24"/>
		<text fill="gray" font-size="9" font-family="Segoe UI" x="186, 190.71533, 195.80859, 200.51514, 202.98047, 205.16016, 210.43359, 214.59082, 219.16992, 221.34961, 223.81494, 225.99463, 231.29443, 236.00098, 241.09424, 244.14404, 246.32373, 249.14062, 251.32031, 256.02686, 259.15576, 261.62109, 266.89453, 269.71143, 272.17676, 275.22656, 280.31982, " y="101, ">
				The local identifier of the
		</text>
		<text fill="gray" font-size="9" font-family="Segoe UI" x="186, 191.29102, 194.41992, 199.69336, 204.98438, 209.69092, 212.81982, 215.86963, 220.22461, " y="113, ">
				property.
		</text>
		<rect fill="white" x="190" y="66" width="36" height="16"/>
		<text font-size="12" font-weight="600" font-family="Segoe UI" x="190, 193.41016, " y="79, ">
				id
		</text>
		<rect fill="none" stroke="black" stroke-width="1" stroke-linecap="square" stroke-miterlimit="4" transform="translate(0.5 0.5)" x="181" y="64" width="51" height="20"/>
		<rect fill="silver" x="185" y="126" width="58" height="21"/>
		<rect fill="white" x="181" y="122" width="58" height="21"/>
		<rect fill="white" x="186" y="149" width="121" height="120"/>
		<text fill="gray" font-size="9" font-family="Segoe UI" x="186, 188.39502, 191.21191, 193.67725, 196.72705, 201.82031, 206.52686, 208.99219, 214.2832, 217.41211, 222.68555, 227.97656, 232.68311, 235.81201, 238.86182, 243.2168, 245.68213, 249.99316, 254.57227, 256.75195, 261.84521, 266.55176, 269.01709, 271.19678, 275.01562, 277.48096, 282.57422, 287.84766, " y="159, ">
				If the property value is not
		</text>
		<text fill="gray" font-size="9" font-family="Segoe UI" x="186, 191.2998, 196.00635, 198.82324, 201.00293, 206.09619, 210.80273, 216.10254, 218.05371, 220.51904, 224.33789, 229.62891, 234.33545, 238.49268, 240.67236, 243.48926, 245.66895, 250.37549, 254.19434, 256.65967, 263.16357, 268.25684, 270.43652, 274.59375, 279.68701, 282.15234, 286.85889, 291.95215, 295.00195, 297.18164, 300.23145, " y="171, ">
				defined, specifies which entity
		</text>
		<text fill="gray" font-size="9" font-family="Segoe UI" x="186, 188.71582, 194.00684, 198.71338, 201.84229, 205.66113, 210.93457, 216.02783, 217.979, 220.44434, 225.71777, 228.84668, 234.14648, 238.72559, 243.81885, 245.99854, 249.81738, 254.39648, 257.44629, 259.62598, 264.89941, 269.99268, 272.45801, 277.73145, " y="183, ">
				(person, organisation or
		</text>
		<text fill="gray" font-size="9" font-family="Segoe UI" x="186, 189.81885, 194.17383, 197.99268, 201.04248, 205.74902, 213.50098, 216.2168, 218.68213, 225.18604, 227.36572, 229.54541, 231.7251, 234.19043, 238.89697, 244.19678, 246.37646, 249.42627, 251.8916, 254.94141, 260.03467, 264.74121, 267.20654, 272.49756, 275.62646, 280.8999, 286.19092, 290.89746, 294.02637, 297.07617, " y="195, ">
				system) will edit the property
		</text>
		<text fill="gray" font-size="9" font-family="Segoe UI" x="186, 190.31104, 194.89014, 197.06982, 202.16309, 206.86963, 209.33496, 212.93408, 215.39941, 220.10596, 224.23682, 229.52783, 232.65674, 237.36328, 241.18213, 245.00098, 249.70752, 255.00732, 257.47266, 262.76367, 267.11865, 269.58398, 274.16309, 276.62842, 283.41357, 288.98584, 294.25928, 299.55908, 304.26562, " y="207, ">
				value - expressed by a QCode.
		</text>
		<text fill="gray" font-size="9" font-family="Segoe UI" x="186, 188.39502, 191.21191, 193.67725, 196.72705, 201.82031, 206.52686, 208.99219, 214.2832, 217.41211, 222.68555, 227.97656, 232.68311, 235.81201, 238.86182, 243.2168, 245.68213, 249.99316, 254.57227, 256.75195, 261.84521, 266.55176, 269.01709, 271.19678, " y="219, ">
				If the property value is
		</text>
		<text fill="gray" font-size="9" font-family="Segoe UI" x="186, 191.2998, 196.00635, 198.82324, 201.00293, 206.09619, 210.80273, 216.10254, 218.05371, 220.51904, 224.33789, 229.62891, 234.33545, 238.49268, 240.67236, 243.48926, 245.66895, 250.37549, 254.19434, 256.65967, 263.16357, 268.25684, 270.43652, 274.59375, 279.68701, 282.15234, 286.85889, 291.95215, 295.00195, 297.18164, 300.23145, " y="231, ">
				defined, specifies which entity
		</text>
		<text fill="gray" font-size="9" font-family="Segoe UI" x="186, 188.71582, 194.00684, 198.71338, 201.84229, 205.66113, 210.93457, 216.02783, 217.979, 220.44434, 225.71777, 228.84668, 234.14648, 238.72559, 243.81885, 245.99854, 249.81738, 254.39648, 257.44629, 259.62598, 264.89941, 269.99268, 272.45801, 277.73145, " y="243, ">
				(person, organisation or
		</text>
		<text fill="gray" font-size="9" font-family="Segoe UI" x="186, 189.81885, 194.17383, 197.99268, 201.04248, 205.74902, 213.50098, 216.2168, 218.68213, 223.77539, 228.35449, 232.17334, 234.63867, 239.34521, 244.64502, 246.82471, 249.87451, 254.58105, 259.88086, 262.34619, 265.396, 270.48926, " y="255, ">
				system) has edited the
		</text>
		<text fill="gray" font-size="9" font-family="Segoe UI" x="186, 191.29102, 194.41992, 199.69336, 204.98438, 209.69092, 212.81982, 215.86963, 220.22461, 222.68994, 227.00098, 231.58008, 233.75977, 238.85303, 243.55957, " y="267, ">
				property value.
		</text>
		<rect fill="white" x="190" y="124" width="42" height="16"/>
		<text font-size="12" font-weight="600" font-family="Segoe UI" x="190, 195.75977, 200.48828, 206.98047, 213.4375, 218.06055, 225.39648, " y="137, ">
				creator
		</text>
		<rect fill="none" stroke="black" stroke-width="1" stroke-linecap="square" stroke-miterlimit="4" transform="translate(0.5 0.5)" x="181" y="122" width="57" height="20"/>
		<rect fill="silver" x="185" y="280" width="73" height="21"/>
		<rect fill="white" x="181" y="276" width="73" height="21"/>
		<rect fill="white" x="186" y="303" width="120" height="108"/>
		<text fill="gray" font-size="9" font-family="Segoe UI" x="186, 188.39502, 191.21191, 193.67725, 196.72705, 201.82031, 206.52686, 208.99219, 214.2832, 217.41211, 222.68555, 227.97656, 232.68311, 235.81201, 238.86182, 243.2168, 245.68213, 249.99316, 254.57227, 256.75195, 261.84521, 266.55176, 269.01709, 271.19678, 275.01562, 277.48096, 282.57422, 287.84766, " y="313, ">
				If the property value is not
		</text>
		<text fill="gray" font-size="9" font-family="Segoe UI" x="186, 191.2998, 196.00635, 198.82324, 201.00293, 206.09619, 210.80273, 216.10254, 218.05371, 220.51904, 224.33789, 229.62891, 234.33545, 238.49268, 240.67236, 243.48926, 245.66895, 250.37549, 254.19434, 256.65967, 263.16357, 268.25684, 270.43652, 274.59375, 279.68701, 282.15234, 286.85889, 291.95215, 295.00195, 297.18164, 300.23145, " y="325, ">
				defined, specifies which entity
		</text>
		<text fill="gray" font-size="9" font-family="Segoe UI" x="186, 188.71582, 194.00684, 198.71338, 201.84229, 205.66113, 210.93457, 216.02783, 217.979, 220.44434, 225.71777, 228.84668, 234.14648, 238.72559, 243.81885, 245.99854, 249.81738, 254.39648, 257.44629, 259.62598, 264.89941, 269.99268, 272.45801, 277.73145, " y="337, ">
				(person, organisation or
		</text>
		<text fill="gray" font-size="9" font-family="Segoe UI" x="186, 189.81885, 194.17383, 197.99268, 201.04248, 205.74902, 213.50098, 216.2168, 218.68213, 225.18604, 227.36572, 229.54541, 231.7251, 234.19043, 238.89697, 244.19678, 246.37646, 249.42627, 251.8916, 254.94141, 260.03467, 264.74121, 267.20654, 272.49756, 275.62646, 280.8999, 286.19092, 290.89746, 294.02637, 297.07617, " y="349, ">
				system) will edit the property
		</text>
		<text fill="gray" font-size="9" font-family="Segoe UI" x="186, 189.59912, 192.06445, 196.771, 200.90186, 206.19287, 209.32178, 214.02832, 217.84717, 221.66602, 226.37256, 231.67236, 234.1377, 239.42871, 243.78369, 246.24902, 250.82812, 253.29346, 259.47656, 264.85986, 267.25488, 269.20605, 271.67139, 274.06641, 276.8833, 279.34863, 282.39844, 287.4917, " y="361, ">
				- expressed by a URI. If the
		</text>
		<text fill="gray" font-size="9" font-family="Segoe UI" x="186, 191.29102, 194.41992, 199.69336, 204.98438, 209.69092, 212.81982, 215.86963, 220.22461, 222.68994, 227.00098, 231.58008, 233.75977, 238.85303, 243.55957, 246.0249, 248.20459, 252.02344, 254.48877, 259.78857, 264.49512, 267.31201, 269.4917, 274.58496, 279.2915, 284.59131, " y="373, ">
				property value is defined,
		</text>
		<text fill="gray" font-size="9" font-family="Segoe UI" x="186, 189.81885, 195.10986, 199.81641, 203.97363, 206.15332, 208.97021, 211.1499, 215.85645, 219.67529, 222.14062, 228.64453, 233.73779, 235.91748, 240.07471, 245.16797, 247.6333, 252.33984, 257.43311, 260.48291, 262.6626, 265.7124, 270.06738, 272.53271, 275.24854, 280.53955, 285.24609, 288.375, 292.19385, 297.46729, 302.56055, " y="385, ">
				specifies which entity (person,
		</text>
		<text fill="gray" font-size="9" font-family="Segoe UI" x="186, 191.27344, 194.40234, 199.70215, 204.28125, 209.37451, 211.5542, 215.37305, 219.95215, 223.00195, 225.18164, 230.45508, 235.54834, 238.01367, 243.28711, 246.41602, 248.88135, 252.7002, 257.05518, 260.87402, 263.92383, 268.63037, 276.38232, 279.09814, 281.56348, 286.65674, 291.23584, " y="397, ">
				organisation or system) has
		</text>
		<text fill="gray" font-size="9" font-family="Segoe UI" x="186, 190.70654, 196.00635, 198.18604, 201.23584, 205.94238, 211.24219, 213.70752, 216.75732, 221.85059, 226.55713, 229.02246, 234.31348, 237.44238, 242.71582, 248.00684, 252.71338, 255.84229, 258.89209, 263.24707, " y="409, ">
				edited the property.
		</text>
		<rect fill="white" x="190" y="278" width="57" height="16"/>
		<text font-size="12" font-weight="600" font-family="Segoe UI" x="190, 195.75977, 200.48828, 206.98047, 213.4375, 218.06055, 225.39648, 230.20703, 237.4668, 242.28906, " y="291, ">
				creatoruri
		</text>
		<rect fill="none" stroke="black" stroke-width="1" stroke-linecap="square" stroke-miterlimit="4" transform="translate(0.5 0.5)" x="181" y="276" width="72" height="20"/>
		<rect fill="silver" x="185" y="422" width="69" height="21"/>
		<rect fill="white" x="181" y="418" width="69" height="21"/>
		<rect fill="white" x="186" y="445" width="119" height="72"/>
		<text fill="gray" font-size="9" font-family="Segoe UI" x="186, 190.71533, 195.80859, 200.51514, 202.98047, 208.28027, 212.85938, 215.90918, 220.61572, 223.08105, 225.79688, 230.37598, 235.46924, 240.76904, 242.72021, 245.18555, 250.45898, 255.75, 258.7998, 260.97949, 266.25293, 271.34619, 275.92529, 278.10498, 280.28467, 284.63965, 286.59082, 289.05615, 292.10596, 297.19922, " y="455, ">
				The date (and, optionally, the
		</text>
		<text fill="gray" font-size="9" font-family="Segoe UI" x="186, 189.0498, 191.22949, 198.98145, 203.68799, 206.40381, 208.86914, 215.37305, 220.46631, 225.17285, 230.26611, 232.73145, 235.78125, 240.87451, 245.58105, 248.04639, 253.3374, 256.46631, 261.73975, 267.03076, 271.7373, 274.86621, 277.91602, 282.271, 284.73633, 291.24023, 295.81934, " y="467, ">
				time) when the property was
		</text>
		<text fill="gray" font-size="9" font-family="Segoe UI" x="186, 188.17969, 192.75879, 196.57764, 199.62744, 202.09277, 209.84473, 215.11816, 220.41797, 222.59766, 225.41455, 227.59424, 232.30078, 237.60059, 239.55176, 242.01709, 246.73242, 251.82568, 256.53223, 258.99756, 261.17725, 266.27051, 268.4502, 271.5, 273.67969, 278.25879, 280.43848, 282.90381, 287.21484, 291.79395, 293.97363, 299.06689, " y="479, ">
				last modified. The initial value
		</text>
		<text fill="gray" font-size="9" font-family="Segoe UI" x="186, 188.17969, 191.99854, 194.46387, 197.51367, 202.60693, 207.31348, 209.77881, 215.07861, 219.65771, 222.70752, 227.41406, 229.87939, 232.59521, 237.17432, 242.26758, 247.56738, 249.51855, 251.98389, 257.25732, 262.54834, 265.59814, 267.77783, 273.05127, 278.14453, 282.72363, 284.90332, 287.08301, 291.43799, " y="491, ">
				is the date (and, optionally,
		</text>
		<text fill="gray" font-size="9" font-family="Segoe UI" x="186, 189.0498, 194.14307, 198.84961, 201.31494, 204.36475, 206.54443, 214.29639, 219.00293, 221.71875, 224.18408, 229.45752, 232.27441, 234.73975, 238.89697, 242.02588, 246.73242, 251.31152, 254.36133, 256.54102, 261.81445, 266.90771, 269.37305, 274.64648, 277.46338, 279.92871, 282.97852, 288.07178, " y="503, ">
				the time) of creation of the
		</text>
		<text fill="gray" font-size="9" font-family="Segoe UI" x="186, 191.29102, 194.41992, 199.69336, 204.98438, 209.69092, 212.81982, 215.86963, 220.22461, " y="515, ">
				property.
		</text>
		<rect fill="white" x="190" y="420" width="53" height="16"/>
		<text font-size="12" font-weight="600" font-family="Segoe UI" x="190, 200.99219, 208.32812, 215.75781, 219.16797, 223.76758, 227.17773, 233.66992, " y="433, ">
				modified
		</text>
		<rect fill="none" stroke="black" stroke-width="1" stroke-linecap="square" stroke-miterlimit="4" transform="translate(0.5 0.5)" x="181" y="418" width="68" height="20"/>
		<rect fill="silver" x="185" y="528" width="59" height="21"/>
		<rect fill="white" x="181" y="524" width="59" height="21"/>
		<rect fill="white" x="186" y="551" width="118" height="108"/>
		<text fill="gray" font-size="9" font-family="Segoe UI" x="186, 188.39502, 191.21191, 193.67725, 197.49609, 202.20264, 205.25244, 207.71777, 210.76758, 216.04102, 218.50635, 221.55615, 224.68506, 229.77832, 234.48486, 236.9502, 240, 245.09326, " y="561, ">
				If set to true the
		</text>
		<text fill="gray" font-size="9" font-family="Segoe UI" x="186, 190.15723, 195.43066, 198.55957, 201.68848, 206.39502, 210.21387, 215.50488, 220.77832, 225.87158, 231.17139, 233.35107, 238.44434, 243.74414, 246.20947, 251.50049, 254.62939, 259.90283, 265.19385, 269.90039, 273.0293, 276.0791, 280.43408, 282.89941, 289.40332, 293.98242, " y="573, ">
				corresponding property was
		</text>
		<text fill="gray" font-size="9" font-family="Segoe UI" x="186, 190.5791, 195.87891, 201.17871, 205.88525, 211.18506, 213.65039, 216.7002, 221.97363, 224.43896, 227.48877, 232.58203, 237.28857, 239.75391, 245.92822, 250.77979, 253.24512, 255.64014, 258.68994, 263.39648, 271.14844, 273.61377, 276.43066, 281.7041, 284.83301, 287.29834, " y="585, ">
				added to the G2 Item for a
		</text>
		<text fill="gray" font-size="9" font-family="Segoe UI" x="186, 189.81885, 195.10986, 199.81641, 203.97363, 206.15332, 208.97021, 211.1499, 215.30713, 217.77246, 221.92969, 227.02295, 230.8418, 233.8916, 239.16504, 246.91699, 251.62354, 254.75244, 257.21777, 262.49121, 265.62012, 268.08545, 273.38525, 276.51416, 281.7876, 286.88086, 292.17188, 294.63721, 299.91064, " y="597, ">
				specific customer or group of
		</text>
		<text fill="gray" font-size="9" font-family="Segoe UI" x="186, 190.15723, 195.25049, 199.06934, 202.11914, 207.39258, 215.14453, 219.85107, 222.97998, 226.79883, 229.26416, 234.5376, 239.63086, 241.81055, 246.16553, 248.1167, 250.58203, 255.29736, 260.39062, 265.09717, 267.5625, 272.8623, 277.56885, 280.38574, 284.96484, 290.05811, 292.23779, " y="609, ">
				customers only. The default
		</text>
		<text fill="gray" font-size="9" font-family="Segoe UI" x="186, 190.31104, 194.89014, 197.06982, 202.16309, 206.86963, 209.33496, 214.6084, 217.42529, 219.89062, 222.94043, 228.03369, 230.21338, 234.03223, 236.49756, 241.78857, 244.91748, 250.19092, 255.48193, 260.18848, 263.31738, 266.36719, 270.72217, 273.1875, 275.36719, 279.18604, 281.65137, 284.46826, 289.04736, 291.22705, 295.0459, " y="621, ">
				value of this property is false
		</text>
		<text fill="gray" font-size="9" font-family="Segoe UI" x="186, 192.50391, 197.59717, 199.77686, 203.93408, 209.02734, 211.49268, 216.07178, 221.36279, 226.65381, 228.8335, 231.01318, 235.71973, 239.53857, 242.00391, 248.50781, 253.60107, 258.30762, 263.40088, 265.86621, 268.91602, 274.00928, 276.18896, " y="633, ">
				which applies when this
		</text>
		<text fill="gray" font-size="9" font-family="Segoe UI" x="186, 190.5791, 193.62891, 196.67871, 199.80762, 201.9873, 207.27832, 212.37158, 215.42139, 220.12793, 222.59326, 224.77295, 228.5918, 231.05713, 236.15039, 241.42383, 244.47363, 246.93896, 252.03223, 255.85107, 260.55762, 265.85742, 268.32275, 274.82666, 277.00635, 280.05615, 285.14941, 287.61475, 290.66455, 295.75781, " y="645, ">
				attribute is not used with the
		</text>
		<text fill="gray" font-size="9" font-family="Segoe UI" x="186, 191.29102, 194.41992, 199.69336, 204.98438, 209.69092, 212.81982, 215.86963, 220.22461, " y="657, ">
				property.
		</text>
		<rect fill="white" x="190" y="526" width="43" height="16"/>
		<text font-size="12" font-weight="600" font-family="Segoe UI" x="190, 195.75977, 203.01953, 208.29883, 212.92188, 220.25781, " y="539, ">
				custom
		</text>
		<rect fill="none" stroke="black" stroke-width="1" stroke-linecap="square" stroke-miterlimit="4" transform="translate(0.5 0.5)" x="181" y="524" width="58" height="20"/>
		<rect fill="silver" x="185" y="670" width="52" height="21"/>
		<rect fill="white" x="181" y="666" width="52" height="21"/>
		<rect fill="white" x="186" y="693" width="118" height="48"/>
		<text fill="gray" font-size="9" font-family="Segoe UI" x="186, 188.39502, 193.48828, 198.78809, 200.96777, 205.125, 209.7041, 212.75391, 217.46045, 221.2793, 223.74463, 229.03564, 233.39062, 235.85596, 242.35986, 247.45312, 249.63281, 253.79004, 258.8833, 261.34863, 269.10059, 273.80713, 278.38623, 283.47949, 287.29834, 289.76367, 292.81348, 297.90674, " y="703, ">
				Indicates by which means the
		</text>
		<text fill="gray" font-size="9" font-family="Segoe UI" x="186, 190.31104, 194.89014, 197.06982, 202.16309, 206.86963, 209.33496, 215.83887, 220.41797, 224.23682, 226.70215, 231.40869, 235.53955, 238.58936, 241.71826, 246.29736, 250.45459, 253.50439, 258.21094, 263.51074, 265.97607, 268.79297, 271.92188, 277.19531, 284.94727, 287.4126, 290.4624, 295.55566, " y="715, ">
				value was extracted from the
		</text>
		<text fill="gray" font-size="9" font-family="Segoe UI" x="186, 190.15723, 195.43066, 200.52393, 203.57373, 208.28027, 213.37354, 216.42334, 218.88867, 222.48779, 224.95312, 229.65967, 233.79053, 239.08154, 242.21045, 246.91699, 250.73584, 254.55469, 259.26123, 264.56104, 267.02637, 272.31738, 276.67236, 279.1377, " y="727, ">
				content - expressed by a
		</text>
		<text fill="gray" font-size="9" font-family="Segoe UI" x="186, 192.78516, 198.35742, 203.63086, 208.93066, " y="739, ">
				QCode
		</text>
		<rect fill="white" x="190" y="668" width="36" height="16"/>
		<text font-size="12" font-weight="600" font-family="Segoe UI" x="190, 197.22461, 204.56055, " y="681, ">
				how
		</text>
		<rect fill="none" stroke="black" stroke-width="1" stroke-linecap="square" stroke-miterlimit="4" transform="translate(0.5 0.5)" x="181" y="666" width="51" height="20"/>
		<rect fill="silver" x="185" y="752" width="57" height="21"/>
		<rect fill="white" x="181" y="748" width="57" height="21"/>
		<rect fill="white" x="186" y="775" width="118" height="36"/>
		<text fill="gray" font-size="9" font-family="Segoe UI" x="186, 188.39502, 193.48828, 198.78809, 200.96777, 205.125, 209.7041, 212.75391, 217.46045, 221.2793, 223.74463, 229.03564, 233.39062, 235.85596, 242.35986, 247.45312, 249.63281, 253.79004, 258.8833, 261.34863, 269.10059, 273.80713, 278.38623, 283.47949, 287.29834, 289.76367, 292.81348, 297.90674, " y="785, ">
				Indicates by which means the
		</text>
		<text fill="gray" font-size="9" font-family="Segoe UI" x="186, 190.31104, 194.89014, 197.06982, 202.16309, 206.86963, 209.33496, 215.83887, 220.41797, 224.23682, 226.70215, 231.40869, 235.53955, 238.58936, 241.71826, 246.29736, 250.45459, 253.50439, 258.21094, 263.51074, 265.97607, 268.79297, 271.92188, 277.19531, 284.94727, 287.4126, 290.4624, 295.55566, " y="797, ">
				value was extracted from the
		</text>
		<text fill="gray" font-size="9" font-family="Segoe UI" x="186, 190.15723, 195.43066, 200.52393, 203.57373, 208.28027, 213.37354, 216.42334, 218.88867, 222.48779, 224.95312, 229.65967, 233.79053, 239.08154, 242.21045, 246.91699, 250.73584, 254.55469, 259.26123, 264.56104, 267.02637, 272.31738, 276.67236, 279.1377, 283.7168, 286.18213, 292.36523, 297.74854, " y="809, ">
				content - expressed by a URI
		</text>
		<rect fill="white" x="190" y="750" width="41" height="16"/>
		<text font-size="12" font-weight="600" font-family="Segoe UI" x="190, 197.22461, 204.56055, 214.12891, 221.38867, 226.21094, " y="763, ">
				howuri
		</text>
		<rect fill="none" stroke="black" stroke-width="1" stroke-linecap="square" stroke-miterlimit="4" transform="translate(0.5 0.5)" x="181" y="748" width="56" height="20"/>
		<rect fill="silver" x="185" y="822" width="52" height="21"/>
		<rect fill="white" x="181" y="818" width="52" height="21"/>
		<rect fill="white" x="186" y="845" width="113" height="36"/>
		<text fill="gray" font-size="9" font-family="Segoe UI" x="186, 194.40674, 199.5, 203.85498, 206.32031, 209.37012, 214.46338, 219.16992, 221.63525, 229.38721, 234.09375, 237.14355, 241.72266, 247.02246, 251.60156, 254.65137, 259.23047, 261.6958, 266.78906, 271.36816, 275.18701, 277.65234, 282.94336, 287.6499, 292.35645, " y="855, ">
				Why the metadata has been
		</text>
		<text fill="gray" font-size="9" font-family="Segoe UI" x="186, 188.17969, 193.27295, 197.43018, 199.60986, 204.70312, 210.00293, 214.70947, 220.00928, 222.47461, 226.07373, 228.53906, 233.24561, 237.37646, 242.66748, 245.79639, 250.50293, 254.32178, 258.14062, 262.84717, 268.14697, 270.6123, 275.90332, 280.2583, 282.72363, " y="867, ">
				included - expressed by a
		</text>
		<text fill="gray" font-size="9" font-family="Segoe UI" x="186, 192.78516, 198.35742, 203.63086, 208.93066, " y="879, ">
				QCode
		</text>
		<rect fill="white" x="190" y="820" width="36" height="16"/>
		<text font-size="12" font-weight="600" font-family="Segoe UI" x="190, 199.56836, 206.79297, " y="833, ">
				why
		</text>
		<rect fill="none" stroke="black" stroke-width="1" stroke-linecap="square" stroke-miterlimit="4" transform="translate(0.5 0.5)" x="181" y="818" width="51" height="20"/>
		<rect fill="silver" x="185" y="892" width="56" height="21"/>
		<rect fill="white" x="181" y="888" width="56" height="21"/>
		<rect fill="white" x="186" y="915" width="119" height="24"/>
		<text fill="gray" font-size="9" font-family="Segoe UI" x="186, 194.40674, 199.5, 203.85498, 206.32031, 209.37012, 214.46338, 219.16992, 221.63525, 229.38721, 234.09375, 237.14355, 241.72266, 247.02246, 251.60156, 254.65137, 259.23047, 261.6958, 266.78906, 271.36816, 275.18701, 277.65234, 282.94336, 287.6499, 292.35645, " y="925, ">
				Why the metadata has been
		</text>
		<text fill="gray" font-size="9" font-family="Segoe UI" x="186, 188.17969, 193.27295, 197.43018, 199.60986, 204.70312, 210.00293, 214.70947, 220.00928, 222.47461, 226.07373, 228.53906, 233.24561, 237.37646, 242.66748, 245.79639, 250.50293, 254.32178, 258.14062, 262.84717, 268.14697, 270.6123, 275.90332, 280.2583, 282.72363, 287.30273, 289.76807, 295.95117, 301.33447, " y="937, ">
				included - expressed by a URI
		</text>
		<rect fill="white" x="190" y="890" width="40" height="16"/>
		<text font-size="12" font-weight="600" font-family="Segoe UI" x="190, 199.56836, 206.79297, 213.25, 220.50977, 225.33203, " y="903, ">
				whyuri
		</text>
		<rect fill="none" stroke="black" stroke-width="1" stroke-linecap="square" stroke-miterlimit="4" transform="translate(0.5 0.5)" x="181" y="888" width="55" height="20"/>
		<rect fill="silver" x="185" y="950" width="97" height="21"/>
		<rect fill="white" x="181" y="946" width="97" height="21"/>
		<rect fill="white" x="186" y="973" width="117" height="72"/>
		<text fill="gray" font-size="9" font-family="Segoe UI" x="186, 192.78516, 197.87842, 202.58496, 205.05029, 210.32373, 213.45264, 215.91797, 223.66992, 228.24902, 233.34229, 237.69727, 240.1626, 244.31982, 249.59326, 254.68652, 258.50537, 261.55518, 264.68408, 269.26318, 271.44287, 276.53613, 279.58594, 283.40479, 285.87012, 288.91992, 294.01318, 298.59229, " y="983, ">
				One or many constraints that
		</text>
		<text fill="gray" font-size="9" font-family="Segoe UI" x="186, 190.5791, 195.87012, 201.16113, 203.34082, 207.6958, 210.16113, 213.21094, 218.48438, 220.94971, 226.24072, 231.33398, 236.625, 238.80469, 240.98438, 244.80322, 249.89648, 252.07617, 257.16943, 262.46924, 264.93457, 267.98438, 273.07764, 277.78418, 280.24951, 284.56055, 289.13965, 291.31934, 296.4126, " y="995, ">
				apply to publishing the value
		</text>
		<text fill="gray" font-size="9" font-family="Segoe UI" x="186, 191.27344, 194.09033, 196.55566, 199.60547, 204.69873, 209.40527, 211.87061, 217.16162, 220.29053, 225.56396, 230.85498, 235.56152, 238.69043, 241.74023, 246.09521, 248.56055, 252.15967, 254.625, 259.33154, 263.4624, 268.75342, 271.88232, 276.58887, 280.40771, 284.22656, 288.93311, " y="1007, ">
				of the property - expressed
		</text>
		<text fill="gray" font-size="9" font-family="Segoe UI" x="186, 191.29102, 195.646, 198.11133, 202.69043, 205.15576, 211.94092, 217.51318, 222.78662, 228.08643, 232.79297, 234.74414, 237.20947, 241.76221, 246.34131, 250.49854, 255.5918, 258.05713, 262.21436, 267.48779, 272.58105, 276.3999, 279.44971, 282.57861, 287.15771, 289.3374, 294.43066, " y="1019, ">
				by a QCode. Each constraint
		</text>
		<text fill="gray" font-size="9" font-family="Segoe UI" x="186, 190.5791, 195.87012, 201.16113, 203.34082, 205.52051, 210.22705, 214.0459, 216.51123, 219.56104, 224.83447, 227.2998, 231.87891, 234.05859, 236.23828, 238.70361, 244.00342, 248.70996, 252.52881, 256.68604, 261.39258, 266.48584, 271.78564, 276.36475, 281.45801, " y="1031, ">
				applies to all descendant
		</text>
		<text fill="gray" font-size="9" font-family="Segoe UI" x="186, 190.70654, 192.88623, 197.59277, 205.34473, 210.05127, 215.14453, 218.19434, 222.01318, " y="1043, ">
				elements.
		</text>
		<rect fill="white" x="190" y="948" width="81" height="16"/>
		<text font-size="12" font-weight="600" font-family="Segoe UI" x="190, 197.44141, 204.70117, 212.14258, 217.90234, 225.23828, 232.49805, 237.77734, 242.44727, 247.22266, 253.67969, 257.08984, 264.34961, " y="961, ">
				pubconstraint
		</text>
		<rect fill="none" stroke="black" stroke-width="1" stroke-linecap="square" stroke-miterlimit="4" transform="translate(0.5 0.5)" x="181" y="946" width="96" height="20"/>
		<rect fill="silver" x="185" y="1056" width="112" height="21"/>
		<rect fill="white" x="181" y="1052" width="112" height="21"/>
		<rect fill="white" x="186" y="1079" width="117" height="72"/>
		<text fill="gray" font-size="9" font-family="Segoe UI" x="186, 192.78516, 197.87842, 202.58496, 205.05029, 210.32373, 213.45264, 215.91797, 223.66992, 228.24902, 233.34229, 237.69727, 240.1626, 244.31982, 249.59326, 254.68652, 258.50537, 261.55518, 264.68408, 269.26318, 271.44287, 276.53613, 279.58594, 283.40479, 285.87012, 288.91992, 294.01318, 298.59229, " y="1089, ">
				One or many constraints that
		</text>
		<text fill="gray" font-size="9" font-family="Segoe UI" x="186, 190.5791, 195.87012, 201.16113, 203.34082, 207.6958, 210.16113, 213.21094, 218.48438, 220.94971, 226.24072, 231.33398, 236.625, 238.80469, 240.98438, 244.80322, 249.89648, 252.07617, 257.16943, 262.46924, 264.93457, 267.98438, 273.07764, 277.78418, 280.24951, 284.56055, 289.13965, 291.31934, 296.4126, " y="1101, ">
				apply to publishing the value
		</text>
		<text fill="gray" font-size="9" font-family="Segoe UI" x="186, 191.27344, 194.09033, 196.55566, 199.60547, 204.69873, 209.40527, 211.87061, 217.16162, 220.29053, 225.56396, 230.85498, 235.56152, 238.69043, 241.74023, 246.09521, 248.56055, 252.15967, 254.625, 259.33154, 263.4624, 268.75342, 271.88232, 276.58887, 280.40771, 284.22656, 288.93311, " y="1113, ">
				of the property - expressed
		</text>
		<text fill="gray" font-size="9" font-family="Segoe UI" x="186, 191.29102, 195.646, 198.11133, 202.69043, 205.15576, 211.33887, 216.72217, 219.11719, 221.06836, 223.53369, 228.08643, 232.66553, 236.82275, 241.91602, 244.38135, 248.53857, 253.81201, 258.90527, 262.72412, 265.77393, 268.90283, 273.48193, 275.66162, 280.75488, " y="1125, ">
				by a URI. Each constraint
		</text>
		<text fill="gray" font-size="9" font-family="Segoe UI" x="186, 190.5791, 195.87012, 201.16113, 203.34082, 205.52051, 210.22705, 214.0459, 216.51123, 219.56104, 224.83447, 227.2998, 231.87891, 234.05859, 236.23828, 238.70361, 244.00342, 248.70996, 252.52881, 256.68604, 261.39258, 266.48584, 271.78564, 276.36475, 281.45801, " y="1137, ">
				applies to all descendant
		</text>
		<text fill="gray" font-size="9" font-family="Segoe UI" x="186, 190.70654, 192.88623, 197.59277, 205.34473, 210.05127, 215.14453, 218.19434, 222.01318, " y="1149, ">
				elements.
		</text>
		<rect fill="white" x="190" y="1054" width="96" height="16"/>
		<text font-size="12" font-weight="600" font-family="Segoe UI" x="190, 197.44141, 204.70117, 212.14258, 217.90234, 225.23828, 232.49805, 237.77734, 242.44727, 247.22266, 253.67969, 257.08984, 264.34961, 269.01953, 276.2793, 281.10156, " y="1067, ">
				pubconstrainturi
		</text>
		<rect fill="none" stroke="black" stroke-width="1" stroke-linecap="square" stroke-miterlimit="4" transform="translate(0.5 0.5)" x="181" y="1052" width="111" height="20"/>
		<rect fill="silver" x="185" y="1162" width="52" height="21"/>
		<rect fill="white" x="181" y="1158" width="52" height="21"/>
		<rect fill="white" x="186" y="1185" width="121" height="72"/>
		<text fill="gray" font-size="9" font-family="Segoe UI" x="186, 191.80518, 194.27051, 198.42773, 203.70117, 208.79443, 212.95166, 217.6582, 222.94922, 225.99902, 228.46436, 230.64404, 235.94385, 240.65039, 245.74365, 248.79346, 250.97314, 253.79004, 255.96973, 260.67627, 263.80518, 266.27051, 270.97705, 275.10791, 280.39893, 283.52783, 288.23438, 292.05322, 295.87207, 300.57861, " y="1195, ">
				A concept identifier expressed
		</text>
		<text fill="gray" font-size="9" font-family="Segoe UI" x="186, 190.5791, 194.39795, 196.86328, 201.44238, 203.90771, 207.72656, 210.77637, 213.90527, 216.08496, 221.17822, 226.47803, 228.94336, 234.2168, 237.03369, 239.49902, 242.54883, 247.64209, 252.34863, 254.81396, 257.63086, 262.9043, 266.0332, 273.78516, 276.25049, 280.06934, 283.88818, 287.70703, 289.6582, 293.81543, 297.97266, 302.12988, " y="1207, ">
				as a string of the form sss:ccc,
		</text>
		<text fill="gray" font-size="9" font-family="Segoe UI" x="186, 192.50391, 197.59717, 202.30371, 205.43262, 210.13916, 212.60449, 216.42334, 220.24219, 224.06104, 226.52637, 228.70605, 232.5249, 234.99023, 239.56934, 242.03467, 245.85352, 250.01074, 255.104, 259.81055, 267.5625, 272.26904, 274.73438, 279.31348, 281.49316, 283.67285, 288.25195, " y="1219, ">
				where sss is a scheme alias
		</text>
		<text fill="gray" font-size="9" font-family="Segoe UI" x="186, 190.5791, 195.67236, 200.97217, 203.4375, 207.59473, 211.75195, 215.90918, 218.37451, 220.5542, 224.37305, 226.83838, 231.41748, 233.88281, 238.04004, 243.31348, 248.61328, 253.31982, 255.271, 257.73633, 262.28906, 264.46875, 267.51855, 272.61182, 277.31836, 280.44727, 282.9126, 285.9624, 291.05566, " y="1231, ">
				and ccc is a code. Either the
		</text>
		<text fill="gray" font-size="9" font-family="Segoe UI" x="186, 191.2998, 195.45703, 200.73047, 206.03027, 210.73682, 213.20215, 218.47559, 221.60449, 224.06982, 227.11963, 232.21289, 236.91943, 239.38477, 244.47803, 247.60693, 249.78662, 252.25195, 256.83105, 259.88086, 262.93066, 266.05957, 268.23926, 273.53027, 278.62354, 281.67334, " y="1243, ">
				qcode or the uri attribute
		</text>
		<text fill="gray" font-size="9" font-family="Segoe UI" x="186, 194.08154, 200.26465, 205.0459, 209.76123, 212.22656, 217.51758, 222.22412, 224.68945, 229.78271, 233.60156, 238.30811, " y="1255, ">
				MUST be used
		</text>
		<rect fill="white" x="190" y="1160" width="36" height="16"/>
		<text font-size="12" font-weight="600" font-family="Segoe UI" x="190, 197.42969, 203.18945, 210.52539, 217.95508, " y="1173, ">
				qcode
		</text>
		<rect fill="none" stroke="black" stroke-width="1" stroke-linecap="square" stroke-miterlimit="4" transform="translate(0.5 0.5)" x="181" y="1158" width="51" height="20"/>
		<rect fill="silver" x="185" y="1268" width="52" height="21"/>
		<rect fill="white" x="181" y="1264" width="52" height="21"/>
		<rect fill="white" x="186" y="1291" width="113" height="48"/>
		<text fill="gray" font-size="9" font-family="Segoe UI" x="186, 191.80518, 194.27051, 200.45361, 205.83691, 208.23193, 210.69727, 217.20117, 222.29443, 224.47412, 228.63135, 233.72461, 236.18994, 238.36963, 243.66943, 248.37598, 253.46924, 256.51904, 258.69873, 261.51562, 263.69531, 268.40186, 272.2207, 274.68604, " y="1301, ">
				A URI which identifies a
		</text>
		<text fill="gray" font-size="9" font-family="Segoe UI" x="186, 190.15723, 195.43066, 200.52393, 204.68115, 209.3877, 214.67871, 217.72852, 222.65918, 226.2583, 228.72363, 233.43018, 235.60986, 238.65967, 243.75293, 248.45947, 251.58838, 254.05371, 257.10352, 262.19678, 266.90332, 271.83398, 277.13379, 281.29102, 286.56445, 291.86426, " y="1313, ">
				concept - either the qcode
		</text>
		<text fill="gray" font-size="9" font-family="Segoe UI" x="186, 191.27344, 194.40234, 196.86768, 199.91748, 205.01074, 209.71729, 212.18262, 217.27588, 220.40479, 222.58447, 225.0498, 229.62891, 232.67871, 235.72852, 238.85742, 241.03711, 246.32812, 251.42139, 254.47119, 259.17773, 261.64307, 269.72461, 275.90771, 280.68896, 285.4043, 287.86963, 293.16064, " y="1325, ">
				or the uri attribute MUST be
		</text>
		<text fill="gray" font-size="9" font-family="Segoe UI" x="186, 191.09326, 194.91211, 199.61865, " y="1337, ">
				used
		</text>
		<rect fill="white" x="190" y="1266" width="36" height="16"/>
		<text font-size="12" font-weight="600" font-family="Segoe UI" x="190, 197.25977, 202.08203, " y="1279, ">
				uri
		</text>
		<rect fill="none" stroke="black" stroke-width="1" stroke-linecap="square" stroke-miterlimit="4" transform="translate(0.5 0.5)" x="181" y="1264" width="51" height="20"/>
		<path fill="silver" d="M185 1355L190 1350L258 1350L263 1355L263 1366L258 1371L190 1371L185 1366L185 1355Z"/>
		<path fill="white" d="M181 1351L186 1346L254 1346L259 1351L259 1362L254 1367L186 1367L181 1362L181 1351Z"/>
		<rect fill="white" x="208" y="1348" width="46" height="16"/>
		<text font-size="12" font-weight="600" font-family="Segoe UI" x="208, 215.10742, 222.21484, 229.55078, 234.2207, 241.44531, 247.9375, " y="1361, ">
				##other
		</text>
		<rect fill="white" x="186" y="1348" width="20" height="16"/>
		<text fill="gray" font-size="12" font-family="Segoe UI" x="186, 192.10547, 198.89648, " y="1361, ">
				any
		</text>
		<path fill="none" stroke="black" stroke-width="1" stroke-linecap="square" stroke-miterlimit="4" transform="translate(0.5 0.5)" d="M181 1351L186 1346L253 1346L258 1351L258 1361L253 1366L186 1366L181 1361L181 1351Z"/>
		<rect fill="silver" x="185" y="1378" width="66" height="21"/>
		<rect fill="white" x="181" y="1374" width="66" height="21"/>
		<rect fill="white" x="186" y="1401" width="121" height="84"/>
		<text fill="gray" font-size="9" font-family="Segoe UI" x="186, 190.78125, 196.07227, 200.77881, 204.93604, 207.11572, 209.93262, 212.1123, 216.81885, 220.6377, 223.10303, 226.15283, 231.24609, 235.95264, 238.41797, 240.59766, 245.17676, 250.27002, 255.56982, 260.66309, 265.24219, 270.54199, 275.24854, 277.71387, 282.9873, 285.8042, 288.26953, 291.31934, 296.4126, 298.59229, " y="1411, ">
				Specifies the language of this
		</text>
		<text fill="gray" font-size="9" font-family="Segoe UI" x="186, 191.29102, 194.41992, 199.69336, 204.98438, 209.69092, 212.81982, 215.86963, 220.22461, 222.68994, 227.26904, 232.3623, 237.66211, 240.12744, 245.41846, 250.69189, 253.7417, 258.44824, 263.5415, 266.59131, 268.771, 273.3501, 275.52979, 277.70947, 282.06445, 284.52979, 289.10889, 291.28857, " y="1423, ">
				property and potentially all
		</text>
		<text fill="gray" font-size="9" font-family="Segoe UI" x="186, 191.2998, 196.00635, 199.8252, 203.98242, 208.68896, 213.78223, 219.08203, 223.66113, 228.75439, 231.8042, 234.26953, 239.56055, 242.68945, 247.96289, 253.25391, 257.96045, 261.08936, 264.13916, 266.31885, 271.02539, 274.84424, " y="1435, ">
				descendant properties.
		</text>
		<text fill="gray" font-size="9" font-family="Segoe UI" x="186, 190.13086, 197.88281, 200.0625, 202.01367, 204.19336, 208.77246, 213.86572, 219.16553, 221.63086, 225.94189, 230.521, 232.70068, 237.79395, 242.50049, 246.31934, 248.78467, 254.05811, 256.875, 259.34033, 264.64014, 269.34668, 273.16553, 277.32275, 282.0293, 287.12256, 292.42236, 297.00146, 302.09473, " y="1447, ">
				xml:lang values of descendant
		</text>
		<text fill="gray" font-size="9" font-family="Segoe UI" x="186, 191.29102, 194.41992, 199.69336, 204.98438, 209.69092, 212.81982, 215.86963, 218.04932, 222.75586, 226.57471, 229.04004, 234.31348, 238.62451, 243.33105, 246.45996, 249.58887, 251.76855, 257.06836, 261.7749, 264.24023, 267.29004, 272.3833, 274.56299, 278.38184, 280.84717, 285.1582, 289.7373, 291.91699, 297.01025, 301.7168, " y="1459, ">
				properties override this value.
		</text>
		<text fill="gray" font-size="9" font-family="Segoe UI" x="186, 190.93066, 195.50977, 197.68945, 202.78271, 207.48926, 211.30811, 213.77344, 218.35254, 221.48145, 226.18799, 228.65332, 233.95312, 238.65967, 241.70947, 246.41602, 249.54492, 257.29688, 259.47656, 264.56982, 269.27637, 274.57617, 277.0415, 282.33252, " y="1471, ">
				Values are determined by
		</text>
		<text fill="gray" font-size="9" font-family="Segoe UI" x="186, 188.39502, 193.48828, 196.53809, 201.24463, 204.37354, 209.4668, 214.17334, 217.22314, 219.68848, 224.84766, 230.41992, 235.46045, 237.92578, 242.77734, 247.62891, " y="1483, ">
				Internet BCP 47.
		</text>
		<rect fill="white" x="190" y="1376" width="50" height="16"/>
		<text font-size="12" font-weight="600" font-family="Segoe UI" x="190, 196.62695, 207.61914, 211.0293, 214.28125, 217.69141, 224.14844, 231.4082, " y="1389, ">
				xml:lang
		</text>
		<path fill="none" stroke="black" stroke-width="2" stroke-miterlimit="4" transform="translate(0.5 0.5)" d="M183 1392L187 1388"/>
		<path fill="none" stroke="black" stroke-width="1" stroke-linecap="square" stroke-miterlimit="4" transform="translate(0.5 0.5)" d="M184 1388L187 1388L187 1391"/>
		<rect fill="none" stroke="black" stroke-width="1" stroke-linecap="square" stroke-miterlimit="4" transform="translate(0.5 0.5)" x="181" y="1374" width="65" height="20"/>
		<rect fill="silver" x="185" y="1496" width="52" height="21"/>
		<rect fill="white" x="181" y="1492" width="52" height="21"/>
		<rect fill="white" x="186" y="1519" width="116" height="24"/>
		<text fill="gray" font-size="9" font-family="Segoe UI" x="186, 190.71533, 195.80859, 200.51514, 202.98047, 208.28027, 210.45996, 213.58887, 218.29541, 222.45264, 225.50244, 227.68213, 232.95557, 238.04883, 242.62793, 244.80762, 246.9873, 250.03711, 254.39209, 256.85742, 262.13086, 264.94775, 267.41309, 270.46289, 275.16943, 279.30029, 282.3501, 287.44336, 292.02246, " y="1529, ">
				The directionality of textual
		</text>
		<text fill="gray" font-size="9" font-family="Segoe UI" x="186, 190.15723, 195.43066, 200.52393, 203.57373, 208.28027, 213.37354, 216.42334, 218.88867, 221.60449, 226.31104, 231.4043, 236.49756, 244.24951, 248.95605, 252.08496, 256.66406, 259.71387, 261.89355, 267.16699, 272.26025, 274.21143, 276.67676, 278.85645, 281.90625, 285.03516, 286.98633, 289.45166, 292.58057, 295.63037, 297.81006, " y="1541, ">
				content (enumeration: ltr, rtl)
		</text>
		<rect fill="white" x="190" y="1494" width="36" height="16"/>
		<text font-size="12" font-weight="600" font-family="Segoe UI" x="190, 197.42969, 200.83984, " y="1507, ">
				dir
		</text>
		<rect fill="none" stroke="black" stroke-width="1" stroke-linecap="square" stroke-miterlimit="4" transform="translate(0.5 0.5)" x="181" y="1492" width="51" height="20"/>
		<rect x="172" y="41" width="11" height="11"/>
		<rect fill="white" x="173" y="42" width="9" height="9"/>
		<rect x="174" y="46" width="7" height="1"/>
		<path fill="none" stroke="black" stroke-width="1" stroke-linecap="square" stroke-miterlimit="4" transform="translate(0.5 0.5)" d="M212 1659L220 1659"/>
		<path fill="none" stroke="black" stroke-width="1" stroke-linecap="square" stroke-miterlimit="4" transform="translate(0.5 0.5)" d="M221 1659L221 1573"/>
		<path fill="none" stroke="black" stroke-width="1" stroke-linecap="square" stroke-miterlimit="4" transform="translate(0.5 0.5)" d="M221 1659L221 1745"/>
		<path fill="none" stroke="black" stroke-width="1" stroke-linecap="square" stroke-miterlimit="4" transform="translate(0.5 0.5)" d="M221 1572L235 1572"/>
		<path fill="none" stroke="black" stroke-width="1" stroke-linecap="square" stroke-miterlimit="4" transform="translate(0.5 0.5)" d="M221 1635L235 1635"/>
		<path fill="none" stroke="black" stroke-width="1" stroke-linecap="square" stroke-miterlimit="4" transform="translate(0.5 0.5)" d="M221 1746L235 1746"/>
		<path fill="silver" d="M174 1661L179 1656L204 1656L209 1661L209 1672L204 1677L179 1677L174 1672L174 1661Z"/>
		<path fill="white" d="M170 1657L175 1652L199 1652L204 1657L204 1667L199 1672L175 1672L170 1667L170 1657Z"/>
		<path transform="translate(0.5 0.5)" d="M173.889 1652.4L174.793 1651.5L175.929 1651.5L176.429 1651.5L176.429 1652.5L175.929 1652.5L175 1652.5L175 1652L175.354 1652.35L174.243 1653.46L173.536 1652.76L173.889 1652.4ZM179.929 1651.5L181.929 1651.5L182.429 1651.5L182.429 1652.5L181.929 1652.5L179.429 1652.5L179.429 1651.5L179.929 1651.5ZM185.929 1651.5L187.929 1651.5L188.429 1651.5L188.429 1652.5L187.929 1652.5L185.429 1652.5L185.429 1651.5L185.929 1651.5ZM191.929 1651.5L193.929 1651.5L194.429 1651.5L194.429 1652.5L193.929 1652.5L191.429 1652.5L191.429 1651.5L191.929 1651.5ZM197.929 1651.5L199.207 1651.5L200.01 1652.3L200.364 1652.66L199.657 1653.36L199.303 1653.01L198.646 1652.35L199 1652L199 1652.5L197.429 1652.5L197.429 1651.5L197.929 1651.5ZM202.839 1655.13L204.253 1656.55L204.607 1656.9L203.899 1657.61L203.546 1657.25L201.778 1655.49L202.485 1654.78L202.839 1655.13ZM204.5 1660.86L204.5 1662.86L204.5 1663.36L203.5 1663.36L203.5 1662.86L203.5 1660.36L204.5 1660.36L204.5 1660.86ZM204.5 1666.86L204.5 1667.21L203.04 1668.67L202.686 1669.02L201.979 1668.31L202.333 1667.96L203.646 1666.65L204 1667L203.5 1667L203.5 1666.36L204.5 1666.36L204.5 1666.86ZM200.211 1671.5L199.207 1672.5L198.213 1672.5L197.713 1672.5L197.713 1671.5L198.213 1671.5L199 1671.5L199 1672L198.646 1671.65L199.858 1670.44L200.565 1671.14L200.211 1671.5ZM194.213 1672.5L192.213 1672.5L191.713 1672.5L191.713 1671.5L192.213 1671.5L194.713 1671.5L194.713 1672.5L194.213 1672.5ZM188.213 1672.5L186.213 1672.5L185.713 1672.5L185.713 1671.5L186.213 1671.5L188.713 1671.5L188.713 1672.5L188.213 1672.5ZM182.213 1672.5L180.213 1672.5L179.713 1672.5L179.713 1671.5L180.213 1671.5L182.713 1671.5L182.713 1672.5L182.213 1672.5ZM176.213 1672.5L174.793 1672.5L174.09 1671.8L173.737 1671.44L174.444 1670.74L174.797 1671.09L175.354 1671.65L175 1672L175 1671.5L176.713 1671.5L176.713 1672.5L176.213 1672.5ZM171.262 1668.97L169.847 1667.55L169.494 1667.2L170.201 1666.49L170.555 1666.85L172.322 1668.62L171.615 1669.32L171.262 1668.97ZM169.5 1663.28L169.5 1661.28L169.5 1660.78L170.5 1660.78L170.5 1661.28L170.5 1663.78L169.5 1663.78L169.5 1663.28ZM169.5 1657.28L169.5 1656.79L171.414 1654.88L172.121 1655.59L170.354 1657.35L170 1657L170.5 1657L170.5 1657.78L169.5 1657.78L169.5 1657.28Z"/>
		<path fill="white" d="M167 1654L172 1649L197 1649L202 1654L202 1665L197 1670L172 1670L167 1665L167 1654Z"/>
		<path fill="none" stroke="black" stroke-width="1" stroke-linecap="square" stroke-miterlimit="4" transform="translate(0.5 0.5)" d="M186 1670L192 1676L195 1673"/>
		<path fill="none" stroke="black" stroke-width="1" stroke-linecap="square" stroke-miterlimit="4" transform="translate(0.5 0.5)" d="M172 1659L177 1659L181 1655"/>
		<path fill="none" stroke="black" stroke-width="1" stroke-linecap="square" stroke-miterlimit="4" transform="translate(0.5 0.5)" d="M187 1659L195 1659"/>
		<path fill="none" stroke="black" stroke-width="1" stroke-linecap="square" stroke-miterlimit="4" transform="translate(0.5 0.5)" d="M187 1655L191 1655L191 1663L187 1663"/>
		<rect x="183" y="1654" width="3" height="3"/>
		<rect x="183" y="1658" width="3" height="3"/>
		<rect x="183" y="1662" width="3" height="3"/>
		<text font-size="12" font-family="Segoe UI" x="171.76562, " y="1689, ">
				0
		</text>
		<text font-size="12" font-family="Symbol" x="186.72266, " y="1688, ">
				
		</text>
		<text font-size="12" font-family="Segoe UI" x="179.89844, 182.5, " y="1689, ">
				..
		</text>
		<path transform="translate(0.5 0.5)" d="M170.889 1649.4L171.793 1648.5L172.929 1648.5L173.429 1648.5L173.429 1649.5L172.929 1649.5L172 1649.5L172 1649L172.354 1649.35L171.243 1650.46L170.536 1649.76L170.889 1649.4ZM176.929 1648.5L178.929 1648.5L179.429 1648.5L179.429 1649.5L178.929 1649.5L176.429 1649.5L176.429 1648.5L176.929 1648.5ZM182.929 1648.5L184.929 1648.5L185.429 1648.5L185.429 1649.5L184.929 1649.5L182.429 1649.5L182.429 1648.5L182.929 1648.5ZM188.929 1648.5L190.929 1648.5L191.429 1648.5L191.429 1649.5L190.929 1649.5L188.429 1649.5L188.429 1648.5L188.929 1648.5ZM194.929 1648.5L196.207 1648.5L197.01 1649.3L197.364 1649.66L196.657 1650.36L196.303 1650.01L195.646 1649.35L196 1649L196 1649.5L194.429 1649.5L194.429 1648.5L194.929 1648.5ZM199.839 1652.13L201.253 1653.55L201.607 1653.9L200.899 1654.61L200.546 1654.25L198.778 1652.49L199.485 1651.78L199.839 1652.13ZM201.5 1657.86L201.5 1659.86L201.5 1660.36L200.5 1660.36L200.5 1659.86L200.5 1657.36L201.5 1657.36L201.5 1657.86ZM201.5 1663.86L201.5 1664.21L200.04 1665.67L199.686 1666.02L198.979 1665.31L199.333 1664.96L200.646 1663.65L201 1664L200.5 1664L200.5 1663.36L201.5 1663.36L201.5 1663.86ZM197.211 1668.5L196.207 1669.5L195.213 1669.5L194.713 1669.5L194.713 1668.5L195.213 1668.5L196 1668.5L196 1669L195.646 1668.65L196.858 1667.44L197.565 1668.14L197.211 1668.5ZM191.213 1669.5L189.213 1669.5L188.713 1669.5L188.713 1668.5L189.213 1668.5L191.713 1668.5L191.713 1669.5L191.213 1669.5ZM185.213 1669.5L183.213 1669.5L182.713 1669.5L182.713 1668.5L183.213 1668.5L185.713 1668.5L185.713 1669.5L185.213 1669.5ZM179.213 1669.5L177.213 1669.5L176.713 1669.5L176.713 1668.5L177.213 1668.5L179.713 1668.5L179.713 1669.5L179.213 1669.5ZM173.213 1669.5L171.793 1669.5L171.09 1668.8L170.737 1668.44L171.444 1667.74L171.797 1668.09L172.354 1668.65L172 1669L172 1668.5L173.713 1668.5L173.713 1669.5L173.213 1669.5ZM168.262 1665.97L166.847 1664.55L166.494 1664.2L167.201 1663.49L167.555 1663.85L169.322 1665.62L168.615 1666.32L168.262 1665.97ZM166.5 1660.28L166.5 1658.28L166.5 1657.78L167.5 1657.78L167.5 1658.28L167.5 1660.78L166.5 1660.78L166.5 1660.28ZM166.5 1654.28L166.5 1653.79L168.414 1651.88L169.121 1652.59L167.354 1654.35L167 1654L167.5 1654L167.5 1654.78L166.5 1654.78L166.5 1654.28Z"/>
		<rect fill="silver" x="240" y="1566" width="54" height="21"/>
		<rect fill="white" x="236" y="1562" width="54" height="21"/>
		<rect fill="#FFFFC0" x="241" y="1589" width="115" height="24"/>
		<text fill="gray" font-size="9" font-family="Segoe UI" x="241, 246.80518, 249.27051, 254.36377, 258.94287, 261.99268, 267.08594, 270.21484, 274.79395, 276.97363, 279.43896, 281.61865, 286.19775, 291.29102, 296.59082, 301.68408, 306.26318, 311.56299, 316.26953, 318.73486, 323.82812, 328.40723, 336.15918, 340.86572, 343.33105, 346.14795, 351.42139, " y="1599, ">
				A natural language name for
		</text>
		<text fill="gray" font-size="9" font-family="Segoe UI" x="241, 244.0498, 249.14307, 253.84961, 256.31494, 260.47217, 265.74561, 270.83887, 274.99609, 279.70264, 284.99365, 288.04346, " y="1611, ">
				the concept.
		</text>
		<rect fill="white" x="245" y="1564" width="33" height="16"/>
		<text font-size="12" font-weight="600" font-family="Segoe UI" x="245, 252.25977, 258.7168, 269.70898, " y="1577, ">
				name
		</text>
		<path fill="none" stroke="black" stroke-width="1" stroke-linecap="square" stroke-miterlimit="4" transform="translate(0.5 0.5)" d="M238 1564L243 1564"/>
		<path fill="none" stroke="black" stroke-width="1" stroke-linecap="square" stroke-miterlimit="4" transform="translate(0.5 0.5)" d="M238 1566L242 1566"/>
		<path fill="none" stroke="black" stroke-width="1" stroke-linecap="square" stroke-miterlimit="4" transform="translate(0.5 0.5)" d="M238 1568L242 1568"/>
		<path fill="none" stroke="black" stroke-width="2" stroke-miterlimit="4" transform="translate(0.5 0.5)" d="M238 1580L242 1576"/>
		<path fill="none" stroke="black" stroke-width="1" stroke-linecap="square" stroke-miterlimit="4" transform="translate(0.5 0.5)" d="M239 1576L242 1576L242 1579"/>
		<rect fill="none" stroke="black" stroke-width="1" stroke-linecap="square" stroke-miterlimit="4" transform="translate(0.5 0.5)" x="236" y="1562" width="53" height="20"/>
		<rect x="284" y="1567" width="11" height="11"/>
		<rect fill="white" x="285" y="1568" width="9" height="9"/>
		<rect x="286" y="1572" width="7" height="1"/>
		<rect x="289" y="1569" width="1" height="7"/>
		<rect fill="silver" x="240" y="1629" width="98" height="21"/>
		<rect fill="white" x="236" y="1625" width="98" height="21"/>
		<rect fill="#FFFFC0" x="241" y="1652" width="121" height="72"/>
		<text fill="gray" font-size="9" font-family="Segoe UI" x="241, 246.11963, 250.82617, 256.11719, 259.24609, 263.95264, 267.77148, 272.47803, 277.57129, 280.62109, 284.43994, 286.90527, 289.95508, 295.04834, 299.75488, 302.22021, 307.51123, 312.78467, 316.60352, 318.7832, 321.83301, 324.0127, 329.28613, 334.37939, 336.84473, 342.11816, 344.93506, 347.40039, " y="1662, ">
				Represents the position of a
		</text>
		<text fill="gray" font-size="9" font-family="Segoe UI" x="241, 245.15723, 250.43066, 255.52393, 259.68115, 264.3877, 269.67871, 272.72852, 275.19385, 277.37354, 282.4668, 284.93213, 289.51123, 291.97656, 297.06982, 299.24951, 303.95605, 307.08496, 311.66406, 314.79297, 318.9502, 324.04346, 326.22314, 330.38037, 334.95947, " y="1674, ">
				concept in a hierarchical
		</text>
		<text fill="gray" font-size="9" font-family="Segoe UI" x="241, 244.0498, 248.62891, 252.75977, 258.0332, 263.12646, 268.3999, 276.15186, 280.50684, 282.97217, 286.02197, 289.15088, 293.85742, 298.56396, 301.0293, 306.32031, 310.67529, 313.14062, 317.71973, 320.18506, 324.00391, 328.71045, 334.01025, 339.10352, 343.81006, 348.90332, 353.06055, " y="1686, ">
				taxonomy tree by a sequence
		</text>
		<text fill="gray" font-size="9" font-family="Segoe UI" x="241, 246.27344, 249.09033, 251.55566, 258.34082, 263.91309, 269.18652, 274.48633, 279.19287, 281.6582, 284.70801, 289.98145, 294.45508, 299.16162, 304.25488, 308.07373, 310.53906, 313.66797, 318.37451, 323.66553, 326.79443, 331.50098, 335.31982, 340.02637, 345.11963, 348.16943, 350.34912, 355.44238, " y="1698, ">
				of QCode tokens representing
		</text>
		<text fill="gray" font-size="9" font-family="Segoe UI" x="241, 244.0498, 249.14307, 253.84961, 256.31494, 260.89404, 265.9873, 270.14453, 274.85107, 278.66992, 281.71973, 286.99316, 290.12207, 292.5874, 296.74463, 302.01807, 307.11133, 311.26855, 315.9751, 321.26611, 324.31592, 328.13477, 330.6001, 335.1792, 340.27246, " y="1710, ">
				the ancestor concepts and
		</text>
		<text fill="gray" font-size="9" font-family="Segoe UI" x="241, 244.0498, 249.14307, 251.32275, 255.1416, 257.60693, 261.76416, 267.0376, 272.13086, 276.28809, 280.99463, 286.28564, " y="1722, ">
				this concept
		</text>
		<rect fill="white" x="245" y="1627" width="77" height="16"/>
		<text font-size="12" font-weight="600" font-family="Segoe UI" x="245, 252.22461, 255.63477, 262.12695, 266.90234, 273.35938, 278.08789, 283.84766, 291.07227, 297.5293, 301.33203, 308.5918, 313.19141, " y="1640, ">
				hierarchyInfo
		</text>
		<path fill="none" stroke="black" stroke-width="1" stroke-linecap="square" stroke-miterlimit="4" transform="translate(0.5 0.5)" d="M238 1627L243 1627"/>
		<path fill="none" stroke="black" stroke-width="1" stroke-linecap="square" stroke-miterlimit="4" transform="translate(0.5 0.5)" d="M238 1629L242 1629"/>
		<path fill="none" stroke="black" stroke-width="1" stroke-linecap="square" stroke-miterlimit="4" transform="translate(0.5 0.5)" d="M238 1631L242 1631"/>
		<path fill="none" stroke="black" stroke-width="2" stroke-miterlimit="4" transform="translate(0.5 0.5)" d="M238 1643L242 1639"/>
		<path fill="none" stroke="black" stroke-width="1" stroke-linecap="square" stroke-miterlimit="4" transform="translate(0.5 0.5)" d="M239 1639L242 1639L242 1642"/>
		<rect fill="none" stroke="black" stroke-width="1" stroke-linecap="square" stroke-miterlimit="4" transform="translate(0.5 0.5)" x="236" y="1625" width="97" height="20"/>
		<rect x="328" y="1630" width="11" height="11"/>
		<rect fill="white" x="329" y="1631" width="9" height="9"/>
		<rect x="330" y="1635" width="7" height="1"/>
		<rect x="333" y="1632" width="1" height="7"/>
		<rect fill="silver" x="240" y="1740" width="62" height="21"/>
		<rect fill="white" x="236" y="1736" width="62" height="21"/>
		<rect fill="#FFFFC0" x="241" y="1763" width="115" height="48"/>
		<text fill="gray" font-size="9" font-family="Segoe UI" x="241, 246.80518, 249.27051, 252.39941, 257.10596, 259.28564, 263.86475, 266.91455, 271.62109, 276.9209, 279.38623, 283.54346, 288.81689, 293.91016, 298.06738, 302.77393, 308.06494, 311.11475, 313.06592, 315.53125, 322.03516, 327.12842, 331.83496, 334.96387, 339.67041, 342.13574, 345.18555, 350.27881, " y="1773, ">
				A related concept, where the
		</text>
		<text fill="gray" font-size="9" font-family="Segoe UI" x="241, 244.12891, 248.83545, 251.01514, 255.59424, 258.64404, 260.82373, 266.09717, 271.19043, 275.00928, 280.10254, 282.28223, 287.57324, 290.03857, 292.21826, 296.03711, 298.50244, 303.80225, 305.98193, 308.79883, 311.61572, 316.32227, 319.45117, 324.15771, 329.25098, 332.30078, 334.76611, 337.58301, 340.71191, 345.98535, " y="1785, ">
				relationship is different from
		</text>
		<text fill="gray" font-size="9" font-family="Segoe UI" x="241, 243.06982, 246.88867, 251.46777, 259.21973, 263.92627, 269.73145, 273.55029, 275.62012, 277.57129, 280.03662, 282.10645, 287.39746, 290.52637, 295.7998, 300.37891, 305.67871, 310.38525, 313.51416, 315.58398, 318.04932, 323.32275, " y="1797, ">
				&apos;sameAs&apos;, &apos;broader&apos; or
		</text>
		<text fill="gray" font-size="9" font-family="Segoe UI" x="241, 243.06982, 248.16309, 252.74219, 255.87109, 259, 264.27344, 270.77734, 275.48389, 278.61279, 280.68262, " y="1809, ">
				&apos;narrower&apos;.
		</text>
		<rect fill="white" x="245" y="1738" width="41" height="16"/>
		<text font-size="12" font-weight="600" font-family="Segoe UI" x="245, 249.72852, 256.2207, 259.63086, 266.08789, 270.71094, 277.20312, " y="1751, ">
				related
		</text>
		<path fill="none" stroke="black" stroke-width="2" stroke-miterlimit="4" transform="translate(0.5 0.5)" d="M238 1754L242 1750"/>
		<path fill="none" stroke="black" stroke-width="1" stroke-linecap="square" stroke-miterlimit="4" transform="translate(0.5 0.5)" d="M239 1750L242 1750L242 1753"/>
		<rect fill="none" stroke="black" stroke-width="1" stroke-linecap="square" stroke-miterlimit="4" transform="translate(0.5 0.5)" x="236" y="1736" width="61" height="20"/>
		<rect x="292" y="1741" width="11" height="11"/>
		<rect fill="white" x="293" y="1742" width="9" height="9"/>
		<rect x="294" y="1746" width="7" height="1"/>
		<rect x="297" y="1743" width="1" height="7"/>
		<rect x="201" y="1654" width="11" height="11"/>
		<rect fill="white" x="202" y="1655" width="9" height="9"/>
		<rect x="203" y="1659" width="7" height="1"/>
		<rect x="70" y="1221" width="11" height="11"/>
		<rect fill="white" x="71" y="1222" width="9" height="9"/>
		<rect x="72" y="1226" width="7" height="1"/>
	</g>
</svg>
