<?xml version="1.0" encoding="utf-8" ?>
<svg xmlns="http://www.w3.org/2000/svg" xmlns:xlink="http://www.w3.org/1999/xlink" width="371" height="1278">
	<clipPath id="cl_178">
		<rect x="-10" y="-5" width="371" height="1278"/>
	</clipPath>
	<g clip-path="url(#cl_178)">
		<path fill="none" stroke="black" stroke-width="1" stroke-linecap="square" stroke-miterlimit="4" transform="translate(0.5 0.5)" d="M87 634L136 634"/>
		<rect fill="silver" x="4" y="628" width="82" height="21"/>
		<rect fill="white" y="624" width="82" height="21"/>
		<rect fill="white" x="5" y="651" width="117" height="36"/>
		<text fill="gray" font-size="9" font-family="Segoe UI" x="5, 11.732422, 16.825684, 24.577637, 29.868652, 34.575195, 37.704102, 40.169434, 45.442871, 48.259766, 50.725098, 56.016113, 58.195801, 62.774902, 67.868164, 72.961426, 77.667969, 82.967773, 85.433105, 91.607422, 96.458984, 98.924316, 101.104, 104.15381, 108.86035, 116.6123, " y="661, ">
				Number of planned G2 items
		</text>
		<text fill="gray" font-size="9" font-family="Segoe UI" x="5, 10.273438, 13.090332, 15.555664, 18.605469, 23.69873, 25.878418, 29.697266, 32.162598, 36.63623, 38.815918, 43.90918, 49.208984, 51.674316, 56.380859, 60.511719, 65.802734, 68.931641, 73.638184, 77.457031, 81.275879, 85.982422, 91.282227, 93.747559, 99.038574, 103.39355, 105.85889, " y="673, ">
				of this kind expressed by a
		</text>
		<text fill="gray" font-size="9" font-family="Segoe UI" x="5, 8.1289062, 12.708008, 17.80127, 23.101074, 27.807617, " y="685, ">
				range.
		</text>
		<rect fill="white" x="9" y="626" width="61" height="16"/>
		<text font-size="12" font-weight="600" font-family="Segoe UI" x="9, 12.410156, 17.033203, 23.525391, 34.517578, 42.005859, 49.341797, 56.601562, 63.861328, " y="639, ">
				itemCount
		</text>
		<rect fill="none" stroke="black" stroke-width="1" stroke-linecap="square" stroke-miterlimit="4" transform="translate(0.5 0.5)" y="624" width="81" height="20"/>
		<path fill="white" d="M214 19L214 0L137 0L137 19L137 1267L350 1267L350 19L214 19Z"/>
		<rect fill="white" x="157" y="2" width="51" height="16"/>
		<text font-size="12" font-style="italic" font-family="Segoe UI" x="157, 163.50391, 167.38281, 171.26172, 175.5332, 178.63867, 185.14258, 191.83984, 195.73047, 201.57227, " y="15, ">
				attributes
		</text>
		<path fill="none" stroke="black" stroke-width="1" stroke-linecap="square" stroke-miterlimit="4" transform="translate(0.5 0.5)" d="M214 19L214 0L137 0L137 19L137 1267L350 1267L350 19L214 19Z"/>
		<path fill="white" d="M342 47L342 28L151 28L151 47L151 1150L342 1150L342 47Z"/>
		<rect fill="white" x="156" y="1153" width="179" height="48"/>
		<text fill="gray" font-size="9" font-family="Segoe UI" x="156, 161.80518, 164.27051, 169.57031, 172.69922, 177.97266, 183.06592, 188.35693, 190.82227, 196.0957, 198.9126, 201.37793, 205.95703, 209.00684, 212.05664, 215.18555, 217.36523, 222.65625, 227.74951, 230.79932, 235.50586, 239.32471, 241.79004, 244.60693, 249.88037, 253.00928, 255.47461, 260.05371, 262.2334, 264.41309, 266.87842, 271.58496, 273.76465, 278.47119, 286.22314, 290.92969, 296.02295, 299.07275, 302.8916, 305.35693, 310.63037, 313.44727, 315.9126, 320.4917, 322.95703, 329.13135, " y="1163, ">
				A group of attributes for all elements of a G2
		</text>
		<text fill="gray" font-size="9" font-family="Segoe UI" x="156, 158.39502, 161.44482, 166.15137, 173.90332, 176.36865, 181.0752, 185.20605, 189.36328, 194.06982, 199.36084, 202.41064, 204.87598, 207.05566, 210.10547, 213.92432, 216.38965, 219.51855, 224.79199, 230.06543, 233.11523, 235.58057, 240.28711, 242.4668, 247.17334, 254.92529, 259.63184, 264.7251, 267.7749, 269.72607, 272.19141, 275.24121, 280.33447, 285.04102, 287.50635, 289.68604, 292.73584, 297.44238, 305.19434, 313.27588, 317.98242, 321.03223, " y="1175, ">
				Item except its root element, the itemMeta
		</text>
		<text fill="gray" font-size="9" font-family="Segoe UI" x="156, 160.70654, 162.88623, 167.59277, 175.34473, 180.05127, 185.14453, 188.19434, 190.65967, 195.23877, 200.33203, 205.63184, 208.09717, 212.67627, 214.85596, 217.03564, 219.50098, 224.77441, 227.59131, 230.05664, 232.23633, 235.28613, 239.10498, 241.57031, 245.72754, 250.8208, 253.00049, 255.18018, 260.47998, 263.60889, 268.31543, 273.40869, 275.87402, 282.37793, 287.47119, 289.65088, 293.80811, 298.90137, 301.3667, 305.9458, 309.07471, " y="1187, ">
				element and all of its children which are
		</text>
		<text fill="gray" font-size="9" font-family="Segoe UI" x="156, 163.75195, 168.33105, 173.42432, 178.72412, 183.30322, 186.35303, 191.62646, 194.75537, 199.11035, " y="1199, ">
				mandatory.
		</text>
		<rect fill="white" x="193" y="30" width="143" height="16"/>
		<text font-size="12" font-weight="600" font-family="Segoe UI" x="193, 198.75977, 206.0957, 217.08789, 228.08008, 235.41602, 242.67578, 249.68945, 257.02539, 266.53516, 273.02734, 277.80273, 286, 290.66992, 295.33984, 300.16211, 303.57227, 311.01367, 318.27344, 322.89648, 329.38867, " y="43, ">
				commonPowerAttributes
		</text>
		<rect fill="white" x="171" y="30" width="20" height="16"/>
		<text fill="gray" font-size="12" font-family="Segoe UI" x="171, 178.06641, 182.23828, " y="43, ">
				grp
		</text>
		<path fill="none" stroke="gray" stroke-width="1" stroke-linecap="square" stroke-miterlimit="4" transform="translate(0.5 0.5)" d="M151 47L151 1150L342 1150L342 47L342 47"/>
		<path fill="none" stroke="black" stroke-width="1" stroke-linecap="square" stroke-miterlimit="4" transform="translate(0.5 0.5)" d="M342 47L342 28L151 28L151 47"/>
		<rect x="156" y="33" width="11" height="11"/>
		<rect fill="white" x="157" y="34" width="9" height="9"/>
		<rect x="158" y="38" width="7" height="1"/>
		<rect fill="silver" x="163" y="61" width="52" height="21"/>
		<rect fill="white" x="159" y="57" width="52" height="21"/>
		<rect fill="white" x="164" y="84" width="101" height="24"/>
		<text fill="gray" font-size="9" font-family="Segoe UI" x="164, 168.71533, 173.80859, 178.51514, 180.98047, 183.16016, 188.43359, 192.59082, 197.16992, 199.34961, 201.81494, 203.99463, 209.29443, 214.00098, 219.09424, 222.14404, 224.32373, 227.14062, 229.32031, 234.02686, 237.15576, 239.62109, 244.89453, 247.71143, 250.17676, 253.22656, 258.31982, " y="94, ">
				The local identifier of the
		</text>
		<text fill="gray" font-size="9" font-family="Segoe UI" x="164, 169.29102, 172.41992, 177.69336, 182.98438, 187.69092, 190.81982, 193.86963, 198.22461, " y="106, ">
				property.
		</text>
		<rect fill="white" x="168" y="59" width="36" height="16"/>
		<text font-size="12" font-weight="600" font-family="Segoe UI" x="168, 171.41016, " y="72, ">
				id
		</text>
		<rect fill="none" stroke="black" stroke-width="1" stroke-linecap="square" stroke-miterlimit="4" transform="translate(0.5 0.5)" x="159" y="57" width="51" height="20"/>
		<rect fill="silver" x="163" y="119" width="58" height="21"/>
		<rect fill="white" x="159" y="115" width="58" height="21"/>
		<rect fill="white" x="164" y="142" width="121" height="120"/>
		<text fill="gray" font-size="9" font-family="Segoe UI" x="164, 166.39502, 169.21191, 171.67725, 174.72705, 179.82031, 184.52686, 186.99219, 192.2832, 195.41211, 200.68555, 205.97656, 210.68311, 213.81201, 216.86182, 221.2168, 223.68213, 227.99316, 232.57227, 234.75195, 239.84521, 244.55176, 247.01709, 249.19678, 253.01562, 255.48096, 260.57422, 265.84766, " y="152, ">
				If the property value is not
		</text>
		<text fill="gray" font-size="9" font-family="Segoe UI" x="164, 169.2998, 174.00635, 176.82324, 179.00293, 184.09619, 188.80273, 194.10254, 196.05371, 198.51904, 202.33789, 207.62891, 212.33545, 216.49268, 218.67236, 221.48926, 223.66895, 228.37549, 232.19434, 234.65967, 241.16357, 246.25684, 248.43652, 252.59375, 257.68701, 260.15234, 264.85889, 269.95215, 273.00195, 275.18164, 278.23145, " y="164, ">
				defined, specifies which entity
		</text>
		<text fill="gray" font-size="9" font-family="Segoe UI" x="164, 166.71582, 172.00684, 176.71338, 179.84229, 183.66113, 188.93457, 194.02783, 195.979, 198.44434, 203.71777, 206.84668, 212.14648, 216.72559, 221.81885, 223.99854, 227.81738, 232.39648, 235.44629, 237.62598, 242.89941, 247.99268, 250.45801, 255.73145, " y="176, ">
				(person, organisation or
		</text>
		<text fill="gray" font-size="9" font-family="Segoe UI" x="164, 167.81885, 172.17383, 175.99268, 179.04248, 183.74902, 191.50098, 194.2168, 196.68213, 203.18604, 205.36572, 207.54541, 209.7251, 212.19043, 216.89697, 222.19678, 224.37646, 227.42627, 229.8916, 232.94141, 238.03467, 242.74121, 245.20654, 250.49756, 253.62646, 258.8999, 264.19092, 268.89746, 272.02637, 275.07617, " y="188, ">
				system) will edit the property
		</text>
		<text fill="gray" font-size="9" font-family="Segoe UI" x="164, 168.31104, 172.89014, 175.06982, 180.16309, 184.86963, 187.33496, 190.93408, 193.39941, 198.10596, 202.23682, 207.52783, 210.65674, 215.36328, 219.18213, 223.00098, 227.70752, 233.00732, 235.47266, 240.76367, 245.11865, 247.58398, 252.16309, 254.62842, 261.41357, 266.98584, 272.25928, 277.55908, 282.26562, " y="200, ">
				value - expressed by a QCode.
		</text>
		<text fill="gray" font-size="9" font-family="Segoe UI" x="164, 166.39502, 169.21191, 171.67725, 174.72705, 179.82031, 184.52686, 186.99219, 192.2832, 195.41211, 200.68555, 205.97656, 210.68311, 213.81201, 216.86182, 221.2168, 223.68213, 227.99316, 232.57227, 234.75195, 239.84521, 244.55176, 247.01709, 249.19678, " y="212, ">
				If the property value is
		</text>
		<text fill="gray" font-size="9" font-family="Segoe UI" x="164, 169.2998, 174.00635, 176.82324, 179.00293, 184.09619, 188.80273, 194.10254, 196.05371, 198.51904, 202.33789, 207.62891, 212.33545, 216.49268, 218.67236, 221.48926, 223.66895, 228.37549, 232.19434, 234.65967, 241.16357, 246.25684, 248.43652, 252.59375, 257.68701, 260.15234, 264.85889, 269.95215, 273.00195, 275.18164, 278.23145, " y="224, ">
				defined, specifies which entity
		</text>
		<text fill="gray" font-size="9" font-family="Segoe UI" x="164, 166.71582, 172.00684, 176.71338, 179.84229, 183.66113, 188.93457, 194.02783, 195.979, 198.44434, 203.71777, 206.84668, 212.14648, 216.72559, 221.81885, 223.99854, 227.81738, 232.39648, 235.44629, 237.62598, 242.89941, 247.99268, 250.45801, 255.73145, " y="236, ">
				(person, organisation or
		</text>
		<text fill="gray" font-size="9" font-family="Segoe UI" x="164, 167.81885, 172.17383, 175.99268, 179.04248, 183.74902, 191.50098, 194.2168, 196.68213, 201.77539, 206.35449, 210.17334, 212.63867, 217.34521, 222.64502, 224.82471, 227.87451, 232.58105, 237.88086, 240.34619, 243.396, 248.48926, " y="248, ">
				system) has edited the
		</text>
		<text fill="gray" font-size="9" font-family="Segoe UI" x="164, 169.29102, 172.41992, 177.69336, 182.98438, 187.69092, 190.81982, 193.86963, 198.22461, 200.68994, 205.00098, 209.58008, 211.75977, 216.85303, 221.55957, " y="260, ">
				property value.
		</text>
		<rect fill="white" x="168" y="117" width="42" height="16"/>
		<text font-size="12" font-weight="600" font-family="Segoe UI" x="168, 173.75977, 178.48828, 184.98047, 191.4375, 196.06055, 203.39648, " y="130, ">
				creator
		</text>
		<rect fill="none" stroke="black" stroke-width="1" stroke-linecap="square" stroke-miterlimit="4" transform="translate(0.5 0.5)" x="159" y="115" width="57" height="20"/>
		<rect fill="silver" x="163" y="273" width="73" height="21"/>
		<rect fill="white" x="159" y="269" width="73" height="21"/>
		<rect fill="white" x="164" y="296" width="120" height="108"/>
		<text fill="gray" font-size="9" font-family="Segoe UI" x="164, 166.39502, 169.21191, 171.67725, 174.72705, 179.82031, 184.52686, 186.99219, 192.2832, 195.41211, 200.68555, 205.97656, 210.68311, 213.81201, 216.86182, 221.2168, 223.68213, 227.99316, 232.57227, 234.75195, 239.84521, 244.55176, 247.01709, 249.19678, 253.01562, 255.48096, 260.57422, 265.84766, " y="306, ">
				If the property value is not
		</text>
		<text fill="gray" font-size="9" font-family="Segoe UI" x="164, 169.2998, 174.00635, 176.82324, 179.00293, 184.09619, 188.80273, 194.10254, 196.05371, 198.51904, 202.33789, 207.62891, 212.33545, 216.49268, 218.67236, 221.48926, 223.66895, 228.37549, 232.19434, 234.65967, 241.16357, 246.25684, 248.43652, 252.59375, 257.68701, 260.15234, 264.85889, 269.95215, 273.00195, 275.18164, 278.23145, " y="318, ">
				defined, specifies which entity
		</text>
		<text fill="gray" font-size="9" font-family="Segoe UI" x="164, 166.71582, 172.00684, 176.71338, 179.84229, 183.66113, 188.93457, 194.02783, 195.979, 198.44434, 203.71777, 206.84668, 212.14648, 216.72559, 221.81885, 223.99854, 227.81738, 232.39648, 235.44629, 237.62598, 242.89941, 247.99268, 250.45801, 255.73145, " y="330, ">
				(person, organisation or
		</text>
		<text fill="gray" font-size="9" font-family="Segoe UI" x="164, 167.81885, 172.17383, 175.99268, 179.04248, 183.74902, 191.50098, 194.2168, 196.68213, 203.18604, 205.36572, 207.54541, 209.7251, 212.19043, 216.89697, 222.19678, 224.37646, 227.42627, 229.8916, 232.94141, 238.03467, 242.74121, 245.20654, 250.49756, 253.62646, 258.8999, 264.19092, 268.89746, 272.02637, 275.07617, " y="342, ">
				system) will edit the property
		</text>
		<text fill="gray" font-size="9" font-family="Segoe UI" x="164, 167.59912, 170.06445, 174.771, 178.90186, 184.19287, 187.32178, 192.02832, 195.84717, 199.66602, 204.37256, 209.67236, 212.1377, 217.42871, 221.78369, 224.24902, 228.82812, 231.29346, 237.47656, 242.85986, 245.25488, 247.20605, 249.67139, 252.06641, 254.8833, 257.34863, 260.39844, 265.4917, " y="354, ">
				- expressed by a URI. If the
		</text>
		<text fill="gray" font-size="9" font-family="Segoe UI" x="164, 169.29102, 172.41992, 177.69336, 182.98438, 187.69092, 190.81982, 193.86963, 198.22461, 200.68994, 205.00098, 209.58008, 211.75977, 216.85303, 221.55957, 224.0249, 226.20459, 230.02344, 232.48877, 237.78857, 242.49512, 245.31201, 247.4917, 252.58496, 257.2915, 262.59131, " y="366, ">
				property value is defined,
		</text>
		<text fill="gray" font-size="9" font-family="Segoe UI" x="164, 167.81885, 173.10986, 177.81641, 181.97363, 184.15332, 186.97021, 189.1499, 193.85645, 197.67529, 200.14062, 206.64453, 211.73779, 213.91748, 218.07471, 223.16797, 225.6333, 230.33984, 235.43311, 238.48291, 240.6626, 243.7124, 248.06738, 250.53271, 253.24854, 258.53955, 263.24609, 266.375, 270.19385, 275.46729, 280.56055, " y="378, ">
				specifies which entity (person,
		</text>
		<text fill="gray" font-size="9" font-family="Segoe UI" x="164, 169.27344, 172.40234, 177.70215, 182.28125, 187.37451, 189.5542, 193.37305, 197.95215, 201.00195, 203.18164, 208.45508, 213.54834, 216.01367, 221.28711, 224.41602, 226.88135, 230.7002, 235.05518, 238.87402, 241.92383, 246.63037, 254.38232, 257.09814, 259.56348, 264.65674, 269.23584, " y="390, ">
				organisation or system) has
		</text>
		<text fill="gray" font-size="9" font-family="Segoe UI" x="164, 168.70654, 174.00635, 176.18604, 179.23584, 183.94238, 189.24219, 191.70752, 194.75732, 199.85059, 204.55713, 207.02246, 212.31348, 215.44238, 220.71582, 226.00684, 230.71338, 233.84229, 236.89209, 241.24707, " y="402, ">
				edited the property.
		</text>
		<rect fill="white" x="168" y="271" width="57" height="16"/>
		<text font-size="12" font-weight="600" font-family="Segoe UI" x="168, 173.75977, 178.48828, 184.98047, 191.4375, 196.06055, 203.39648, 208.20703, 215.4668, 220.28906, " y="284, ">
				creatoruri
		</text>
		<rect fill="none" stroke="black" stroke-width="1" stroke-linecap="square" stroke-miterlimit="4" transform="translate(0.5 0.5)" x="159" y="269" width="72" height="20"/>
		<rect fill="silver" x="163" y="415" width="69" height="21"/>
		<rect fill="white" x="159" y="411" width="69" height="21"/>
		<rect fill="white" x="164" y="438" width="119" height="72"/>
		<text fill="gray" font-size="9" font-family="Segoe UI" x="164, 168.71533, 173.80859, 178.51514, 180.98047, 186.28027, 190.85938, 193.90918, 198.61572, 201.08105, 203.79688, 208.37598, 213.46924, 218.76904, 220.72021, 223.18555, 228.45898, 233.75, 236.7998, 238.97949, 244.25293, 249.34619, 253.92529, 256.10498, 258.28467, 262.63965, 264.59082, 267.05615, 270.10596, 275.19922, " y="448, ">
				The date (and, optionally, the
		</text>
		<text fill="gray" font-size="9" font-family="Segoe UI" x="164, 167.0498, 169.22949, 176.98145, 181.68799, 184.40381, 186.86914, 193.37305, 198.46631, 203.17285, 208.26611, 210.73145, 213.78125, 218.87451, 223.58105, 226.04639, 231.3374, 234.46631, 239.73975, 245.03076, 249.7373, 252.86621, 255.91602, 260.271, 262.73633, 269.24023, 273.81934, " y="460, ">
				time) when the property was
		</text>
		<text fill="gray" font-size="9" font-family="Segoe UI" x="164, 166.17969, 170.75879, 174.57764, 177.62744, 180.09277, 187.84473, 193.11816, 198.41797, 200.59766, 203.41455, 205.59424, 210.30078, 215.60059, 217.55176, 220.01709, 224.73242, 229.82568, 234.53223, 236.99756, 239.17725, 244.27051, 246.4502, 249.5, 251.67969, 256.25879, 258.43848, 260.90381, 265.21484, 269.79395, 271.97363, 277.06689, " y="472, ">
				last modified. The initial value
		</text>
		<text fill="gray" font-size="9" font-family="Segoe UI" x="164, 166.17969, 169.99854, 172.46387, 175.51367, 180.60693, 185.31348, 187.77881, 193.07861, 197.65771, 200.70752, 205.41406, 207.87939, 210.59521, 215.17432, 220.26758, 225.56738, 227.51855, 229.98389, 235.25732, 240.54834, 243.59814, 245.77783, 251.05127, 256.14453, 260.72363, 262.90332, 265.08301, 269.43799, " y="484, ">
				is the date (and, optionally,
		</text>
		<text fill="gray" font-size="9" font-family="Segoe UI" x="164, 167.0498, 172.14307, 176.84961, 179.31494, 182.36475, 184.54443, 192.29639, 197.00293, 199.71875, 202.18408, 207.45752, 210.27441, 212.73975, 216.89697, 220.02588, 224.73242, 229.31152, 232.36133, 234.54102, 239.81445, 244.90771, 247.37305, 252.64648, 255.46338, 257.92871, 260.97852, 266.07178, " y="496, ">
				the time) of creation of the
		</text>
		<text fill="gray" font-size="9" font-family="Segoe UI" x="164, 169.29102, 172.41992, 177.69336, 182.98438, 187.69092, 190.81982, 193.86963, 198.22461, " y="508, ">
				property.
		</text>
		<rect fill="white" x="168" y="413" width="53" height="16"/>
		<text font-size="12" font-weight="600" font-family="Segoe UI" x="168, 178.99219, 186.32812, 193.75781, 197.16797, 201.76758, 205.17773, 211.66992, " y="426, ">
				modified
		</text>
		<rect fill="none" stroke="black" stroke-width="1" stroke-linecap="square" stroke-miterlimit="4" transform="translate(0.5 0.5)" x="159" y="411" width="68" height="20"/>
		<rect fill="silver" x="163" y="521" width="59" height="21"/>
		<rect fill="white" x="159" y="517" width="59" height="21"/>
		<rect fill="white" x="164" y="544" width="118" height="108"/>
		<text fill="gray" font-size="9" font-family="Segoe UI" x="164, 166.39502, 169.21191, 171.67725, 175.49609, 180.20264, 183.25244, 185.71777, 188.76758, 194.04102, 196.50635, 199.55615, 202.68506, 207.77832, 212.48486, 214.9502, 218, 223.09326, " y="554, ">
				If set to true the
		</text>
		<text fill="gray" font-size="9" font-family="Segoe UI" x="164, 168.15723, 173.43066, 176.55957, 179.68848, 184.39502, 188.21387, 193.50488, 198.77832, 203.87158, 209.17139, 211.35107, 216.44434, 221.74414, 224.20947, 229.50049, 232.62939, 237.90283, 243.19385, 247.90039, 251.0293, 254.0791, 258.43408, 260.89941, 267.40332, 271.98242, " y="566, ">
				corresponding property was
		</text>
		<text fill="gray" font-size="9" font-family="Segoe UI" x="164, 168.5791, 173.87891, 179.17871, 183.88525, 189.18506, 191.65039, 194.7002, 199.97363, 202.43896, 205.48877, 210.58203, 215.28857, 217.75391, 223.92822, 228.77979, 231.24512, 233.64014, 236.68994, 241.39648, 249.14844, 251.61377, 254.43066, 259.7041, 262.83301, 265.29834, " y="578, ">
				added to the G2 Item for a
		</text>
		<text fill="gray" font-size="9" font-family="Segoe UI" x="164, 167.81885, 173.10986, 177.81641, 181.97363, 184.15332, 186.97021, 189.1499, 193.30713, 195.77246, 199.92969, 205.02295, 208.8418, 211.8916, 217.16504, 224.91699, 229.62354, 232.75244, 235.21777, 240.49121, 243.62012, 246.08545, 251.38525, 254.51416, 259.7876, 264.88086, 270.17188, 272.63721, 277.91064, " y="590, ">
				specific customer or group of
		</text>
		<text fill="gray" font-size="9" font-family="Segoe UI" x="164, 168.15723, 173.25049, 177.06934, 180.11914, 185.39258, 193.14453, 197.85107, 200.97998, 204.79883, 207.26416, 212.5376, 217.63086, 219.81055, 224.16553, 226.1167, 228.58203, 233.29736, 238.39062, 243.09717, 245.5625, 250.8623, 255.56885, 258.38574, 262.96484, 268.05811, 270.23779, " y="602, ">
				customers only. The default
		</text>
		<text fill="gray" font-size="9" font-family="Segoe UI" x="164, 168.31104, 172.89014, 175.06982, 180.16309, 184.86963, 187.33496, 192.6084, 195.42529, 197.89062, 200.94043, 206.03369, 208.21338, 212.03223, 214.49756, 219.78857, 222.91748, 228.19092, 233.48193, 238.18848, 241.31738, 244.36719, 248.72217, 251.1875, 253.36719, 257.18604, 259.65137, 262.46826, 267.04736, 269.22705, 273.0459, " y="614, ">
				value of this property is false
		</text>
		<text fill="gray" font-size="9" font-family="Segoe UI" x="164, 170.50391, 175.59717, 177.77686, 181.93408, 187.02734, 189.49268, 194.07178, 199.36279, 204.65381, 206.8335, 209.01318, 213.71973, 217.53857, 220.00391, 226.50781, 231.60107, 236.30762, 241.40088, 243.86621, 246.91602, 252.00928, 254.18896, " y="626, ">
				which applies when this
		</text>
		<text fill="gray" font-size="9" font-family="Segoe UI" x="164, 168.5791, 171.62891, 174.67871, 177.80762, 179.9873, 185.27832, 190.37158, 193.42139, 198.12793, 200.59326, 202.77295, 206.5918, 209.05713, 214.15039, 219.42383, 222.47363, 224.93896, 230.03223, 233.85107, 238.55762, 243.85742, 246.32275, 252.82666, 255.00635, 258.05615, 263.14941, 265.61475, 268.66455, 273.75781, " y="638, ">
				attribute is not used with the
		</text>
		<text fill="gray" font-size="9" font-family="Segoe UI" x="164, 169.29102, 172.41992, 177.69336, 182.98438, 187.69092, 190.81982, 193.86963, 198.22461, " y="650, ">
				property.
		</text>
		<rect fill="white" x="168" y="519" width="43" height="16"/>
		<text font-size="12" font-weight="600" font-family="Segoe UI" x="168, 173.75977, 181.01953, 186.29883, 190.92188, 198.25781, " y="532, ">
				custom
		</text>
		<rect fill="none" stroke="black" stroke-width="1" stroke-linecap="square" stroke-miterlimit="4" transform="translate(0.5 0.5)" x="159" y="517" width="58" height="20"/>
		<rect fill="silver" x="163" y="663" width="52" height="21"/>
		<rect fill="white" x="159" y="659" width="52" height="21"/>
		<rect fill="white" x="164" y="686" width="118" height="48"/>
		<text fill="gray" font-size="9" font-family="Segoe UI" x="164, 166.39502, 171.48828, 176.78809, 178.96777, 183.125, 187.7041, 190.75391, 195.46045, 199.2793, 201.74463, 207.03564, 211.39062, 213.85596, 220.35986, 225.45312, 227.63281, 231.79004, 236.8833, 239.34863, 247.10059, 251.80713, 256.38623, 261.47949, 265.29834, 267.76367, 270.81348, 275.90674, " y="696, ">
				Indicates by which means the
		</text>
		<text fill="gray" font-size="9" font-family="Segoe UI" x="164, 168.31104, 172.89014, 175.06982, 180.16309, 184.86963, 187.33496, 193.83887, 198.41797, 202.23682, 204.70215, 209.40869, 213.53955, 216.58936, 219.71826, 224.29736, 228.45459, 231.50439, 236.21094, 241.51074, 243.97607, 246.79297, 249.92188, 255.19531, 262.94727, 265.4126, 268.4624, 273.55566, " y="708, ">
				value was extracted from the
		</text>
		<text fill="gray" font-size="9" font-family="Segoe UI" x="164, 168.15723, 173.43066, 178.52393, 181.57373, 186.28027, 191.37354, 194.42334, 196.88867, 200.48779, 202.95312, 207.65967, 211.79053, 217.08154, 220.21045, 224.91699, 228.73584, 232.55469, 237.26123, 242.56104, 245.02637, 250.31738, 254.67236, 257.1377, " y="720, ">
				content - expressed by a
		</text>
		<text fill="gray" font-size="9" font-family="Segoe UI" x="164, 170.78516, 176.35742, 181.63086, 186.93066, " y="732, ">
				QCode
		</text>
		<rect fill="white" x="168" y="661" width="36" height="16"/>
		<text font-size="12" font-weight="600" font-family="Segoe UI" x="168, 175.22461, 182.56055, " y="674, ">
				how
		</text>
		<rect fill="none" stroke="black" stroke-width="1" stroke-linecap="square" stroke-miterlimit="4" transform="translate(0.5 0.5)" x="159" y="659" width="51" height="20"/>
		<rect fill="silver" x="163" y="745" width="57" height="21"/>
		<rect fill="white" x="159" y="741" width="57" height="21"/>
		<rect fill="white" x="164" y="768" width="118" height="36"/>
		<text fill="gray" font-size="9" font-family="Segoe UI" x="164, 166.39502, 171.48828, 176.78809, 178.96777, 183.125, 187.7041, 190.75391, 195.46045, 199.2793, 201.74463, 207.03564, 211.39062, 213.85596, 220.35986, 225.45312, 227.63281, 231.79004, 236.8833, 239.34863, 247.10059, 251.80713, 256.38623, 261.47949, 265.29834, 267.76367, 270.81348, 275.90674, " y="778, ">
				Indicates by which means the
		</text>
		<text fill="gray" font-size="9" font-family="Segoe UI" x="164, 168.31104, 172.89014, 175.06982, 180.16309, 184.86963, 187.33496, 193.83887, 198.41797, 202.23682, 204.70215, 209.40869, 213.53955, 216.58936, 219.71826, 224.29736, 228.45459, 231.50439, 236.21094, 241.51074, 243.97607, 246.79297, 249.92188, 255.19531, 262.94727, 265.4126, 268.4624, 273.55566, " y="790, ">
				value was extracted from the
		</text>
		<text fill="gray" font-size="9" font-family="Segoe UI" x="164, 168.15723, 173.43066, 178.52393, 181.57373, 186.28027, 191.37354, 194.42334, 196.88867, 200.48779, 202.95312, 207.65967, 211.79053, 217.08154, 220.21045, 224.91699, 228.73584, 232.55469, 237.26123, 242.56104, 245.02637, 250.31738, 254.67236, 257.1377, 261.7168, 264.18213, 270.36523, 275.74854, " y="802, ">
				content - expressed by a URI
		</text>
		<rect fill="white" x="168" y="743" width="41" height="16"/>
		<text font-size="12" font-weight="600" font-family="Segoe UI" x="168, 175.22461, 182.56055, 192.12891, 199.38867, 204.21094, " y="756, ">
				howuri
		</text>
		<rect fill="none" stroke="black" stroke-width="1" stroke-linecap="square" stroke-miterlimit="4" transform="translate(0.5 0.5)" x="159" y="741" width="56" height="20"/>
		<rect fill="silver" x="163" y="815" width="52" height="21"/>
		<rect fill="white" x="159" y="811" width="52" height="21"/>
		<rect fill="white" x="164" y="838" width="113" height="36"/>
		<text fill="gray" font-size="9" font-family="Segoe UI" x="164, 172.40674, 177.5, 181.85498, 184.32031, 187.37012, 192.46338, 197.16992, 199.63525, 207.38721, 212.09375, 215.14355, 219.72266, 225.02246, 229.60156, 232.65137, 237.23047, 239.6958, 244.78906, 249.36816, 253.18701, 255.65234, 260.94336, 265.6499, 270.35645, " y="848, ">
				Why the metadata has been
		</text>
		<text fill="gray" font-size="9" font-family="Segoe UI" x="164, 166.17969, 171.27295, 175.43018, 177.60986, 182.70312, 188.00293, 192.70947, 198.00928, 200.47461, 204.07373, 206.53906, 211.24561, 215.37646, 220.66748, 223.79639, 228.50293, 232.32178, 236.14062, 240.84717, 246.14697, 248.6123, 253.90332, 258.2583, 260.72363, " y="860, ">
				included - expressed by a
		</text>
		<text fill="gray" font-size="9" font-family="Segoe UI" x="164, 170.78516, 176.35742, 181.63086, 186.93066, " y="872, ">
				QCode
		</text>
		<rect fill="white" x="168" y="813" width="36" height="16"/>
		<text font-size="12" font-weight="600" font-family="Segoe UI" x="168, 177.56836, 184.79297, " y="826, ">
				why
		</text>
		<rect fill="none" stroke="black" stroke-width="1" stroke-linecap="square" stroke-miterlimit="4" transform="translate(0.5 0.5)" x="159" y="811" width="51" height="20"/>
		<rect fill="silver" x="163" y="885" width="56" height="21"/>
		<rect fill="white" x="159" y="881" width="56" height="21"/>
		<rect fill="white" x="164" y="908" width="119" height="24"/>
		<text fill="gray" font-size="9" font-family="Segoe UI" x="164, 172.40674, 177.5, 181.85498, 184.32031, 187.37012, 192.46338, 197.16992, 199.63525, 207.38721, 212.09375, 215.14355, 219.72266, 225.02246, 229.60156, 232.65137, 237.23047, 239.6958, 244.78906, 249.36816, 253.18701, 255.65234, 260.94336, 265.6499, 270.35645, " y="918, ">
				Why the metadata has been
		</text>
		<text fill="gray" font-size="9" font-family="Segoe UI" x="164, 166.17969, 171.27295, 175.43018, 177.60986, 182.70312, 188.00293, 192.70947, 198.00928, 200.47461, 204.07373, 206.53906, 211.24561, 215.37646, 220.66748, 223.79639, 228.50293, 232.32178, 236.14062, 240.84717, 246.14697, 248.6123, 253.90332, 258.2583, 260.72363, 265.30273, 267.76807, 273.95117, 279.33447, " y="930, ">
				included - expressed by a URI
		</text>
		<rect fill="white" x="168" y="883" width="40" height="16"/>
		<text font-size="12" font-weight="600" font-family="Segoe UI" x="168, 177.56836, 184.79297, 191.25, 198.50977, 203.33203, " y="896, ">
				whyuri
		</text>
		<rect fill="none" stroke="black" stroke-width="1" stroke-linecap="square" stroke-miterlimit="4" transform="translate(0.5 0.5)" x="159" y="881" width="55" height="20"/>
		<rect fill="silver" x="163" y="943" width="97" height="21"/>
		<rect fill="white" x="159" y="939" width="97" height="21"/>
		<rect fill="white" x="164" y="966" width="117" height="72"/>
		<text fill="gray" font-size="9" font-family="Segoe UI" x="164, 170.78516, 175.87842, 180.58496, 183.05029, 188.32373, 191.45264, 193.91797, 201.66992, 206.24902, 211.34229, 215.69727, 218.1626, 222.31982, 227.59326, 232.68652, 236.50537, 239.55518, 242.68408, 247.26318, 249.44287, 254.53613, 257.58594, 261.40479, 263.87012, 266.91992, 272.01318, 276.59229, " y="976, ">
				One or many constraints that
		</text>
		<text fill="gray" font-size="9" font-family="Segoe UI" x="164, 168.5791, 173.87012, 179.16113, 181.34082, 185.6958, 188.16113, 191.21094, 196.48438, 198.94971, 204.24072, 209.33398, 214.625, 216.80469, 218.98438, 222.80322, 227.89648, 230.07617, 235.16943, 240.46924, 242.93457, 245.98438, 251.07764, 255.78418, 258.24951, 262.56055, 267.13965, 269.31934, 274.4126, " y="988, ">
				apply to publishing the value
		</text>
		<text fill="gray" font-size="9" font-family="Segoe UI" x="164, 169.27344, 172.09033, 174.55566, 177.60547, 182.69873, 187.40527, 189.87061, 195.16162, 198.29053, 203.56396, 208.85498, 213.56152, 216.69043, 219.74023, 224.09521, 226.56055, 230.15967, 232.625, 237.33154, 241.4624, 246.75342, 249.88232, 254.58887, 258.40771, 262.22656, 266.93311, " y="1000, ">
				of the property - expressed
		</text>
		<text fill="gray" font-size="9" font-family="Segoe UI" x="164, 169.29102, 173.646, 176.11133, 180.69043, 183.15576, 189.94092, 195.51318, 200.78662, 206.08643, 210.79297, 212.74414, 215.20947, 219.76221, 224.34131, 228.49854, 233.5918, 236.05713, 240.21436, 245.48779, 250.58105, 254.3999, 257.44971, 260.57861, 265.15771, 267.3374, 272.43066, " y="1012, ">
				by a QCode. Each constraint
		</text>
		<text fill="gray" font-size="9" font-family="Segoe UI" x="164, 168.5791, 173.87012, 179.16113, 181.34082, 183.52051, 188.22705, 192.0459, 194.51123, 197.56104, 202.83447, 205.2998, 209.87891, 212.05859, 214.23828, 216.70361, 222.00342, 226.70996, 230.52881, 234.68604, 239.39258, 244.48584, 249.78564, 254.36475, 259.45801, " y="1024, ">
				applies to all descendant
		</text>
		<text fill="gray" font-size="9" font-family="Segoe UI" x="164, 168.70654, 170.88623, 175.59277, 183.34473, 188.05127, 193.14453, 196.19434, 200.01318, " y="1036, ">
				elements.
		</text>
		<rect fill="white" x="168" y="941" width="81" height="16"/>
		<text font-size="12" font-weight="600" font-family="Segoe UI" x="168, 175.44141, 182.70117, 190.14258, 195.90234, 203.23828, 210.49805, 215.77734, 220.44727, 225.22266, 231.67969, 235.08984, 242.34961, " y="954, ">
				pubconstraint
		</text>
		<rect fill="none" stroke="black" stroke-width="1" stroke-linecap="square" stroke-miterlimit="4" transform="translate(0.5 0.5)" x="159" y="939" width="96" height="20"/>
		<rect fill="silver" x="163" y="1049" width="112" height="21"/>
		<rect fill="white" x="159" y="1045" width="112" height="21"/>
		<rect fill="white" x="164" y="1072" width="117" height="72"/>
		<text fill="gray" font-size="9" font-family="Segoe UI" x="164, 170.78516, 175.87842, 180.58496, 183.05029, 188.32373, 191.45264, 193.91797, 201.66992, 206.24902, 211.34229, 215.69727, 218.1626, 222.31982, 227.59326, 232.68652, 236.50537, 239.55518, 242.68408, 247.26318, 249.44287, 254.53613, 257.58594, 261.40479, 263.87012, 266.91992, 272.01318, 276.59229, " y="1082, ">
				One or many constraints that
		</text>
		<text fill="gray" font-size="9" font-family="Segoe UI" x="164, 168.5791, 173.87012, 179.16113, 181.34082, 185.6958, 188.16113, 191.21094, 196.48438, 198.94971, 204.24072, 209.33398, 214.625, 216.80469, 218.98438, 222.80322, 227.89648, 230.07617, 235.16943, 240.46924, 242.93457, 245.98438, 251.07764, 255.78418, 258.24951, 262.56055, 267.13965, 269.31934, 274.4126, " y="1094, ">
				apply to publishing the value
		</text>
		<text fill="gray" font-size="9" font-family="Segoe UI" x="164, 169.27344, 172.09033, 174.55566, 177.60547, 182.69873, 187.40527, 189.87061, 195.16162, 198.29053, 203.56396, 208.85498, 213.56152, 216.69043, 219.74023, 224.09521, 226.56055, 230.15967, 232.625, 237.33154, 241.4624, 246.75342, 249.88232, 254.58887, 258.40771, 262.22656, 266.93311, " y="1106, ">
				of the property - expressed
		</text>
		<text fill="gray" font-size="9" font-family="Segoe UI" x="164, 169.29102, 173.646, 176.11133, 180.69043, 183.15576, 189.33887, 194.72217, 197.11719, 199.06836, 201.53369, 206.08643, 210.66553, 214.82275, 219.91602, 222.38135, 226.53857, 231.81201, 236.90527, 240.72412, 243.77393, 246.90283, 251.48193, 253.66162, 258.75488, " y="1118, ">
				by a URI. Each constraint
		</text>
		<text fill="gray" font-size="9" font-family="Segoe UI" x="164, 168.5791, 173.87012, 179.16113, 181.34082, 183.52051, 188.22705, 192.0459, 194.51123, 197.56104, 202.83447, 205.2998, 209.87891, 212.05859, 214.23828, 216.70361, 222.00342, 226.70996, 230.52881, 234.68604, 239.39258, 244.48584, 249.78564, 254.36475, 259.45801, " y="1130, ">
				applies to all descendant
		</text>
		<text fill="gray" font-size="9" font-family="Segoe UI" x="164, 168.70654, 170.88623, 175.59277, 183.34473, 188.05127, 193.14453, 196.19434, 200.01318, " y="1142, ">
				elements.
		</text>
		<rect fill="white" x="168" y="1047" width="96" height="16"/>
		<text font-size="12" font-weight="600" font-family="Segoe UI" x="168, 175.44141, 182.70117, 190.14258, 195.90234, 203.23828, 210.49805, 215.77734, 220.44727, 225.22266, 231.67969, 235.08984, 242.34961, 247.01953, 254.2793, 259.10156, " y="1060, ">
				pubconstrainturi
		</text>
		<rect fill="none" stroke="black" stroke-width="1" stroke-linecap="square" stroke-miterlimit="4" transform="translate(0.5 0.5)" x="159" y="1045" width="111" height="20"/>
		<rect fill="silver" x="155" y="1212" width="78" height="21"/>
		<rect fill="white" x="151" y="1208" width="78" height="21"/>
		<rect fill="white" x="160" y="1210" width="62" height="16"/>
		<text font-size="12" font-weight="600" font-family="Segoe UI" x="160, 164.77539, 171.23242, 178.49219, 185.92188, 192.41406, 197.01367, 201.74219, 209.07812, " y="1223, ">
				rangefrom
		</text>
		<rect fill="none" stroke="black" stroke-width="1" stroke-linecap="square" stroke-miterlimit="4" transform="translate(0.5 0.5)" x="151" y="1208" width="77" height="20"/>
		<rect fill="silver" x="155" y="1240" width="62" height="21"/>
		<rect fill="white" x="151" y="1236" width="62" height="21"/>
		<rect fill="white" x="160" y="1238" width="46" height="16"/>
		<text font-size="12" font-weight="600" font-family="Segoe UI" x="160, 164.77539, 171.23242, 178.49219, 185.92188, 192.41406, 197.03711, " y="1251, ">
				rangeto
		</text>
		<rect fill="none" stroke="black" stroke-width="1" stroke-linecap="square" stroke-miterlimit="4" transform="translate(0.5 0.5)" x="151" y="1236" width="61" height="20"/>
		<rect x="142" y="5" width="11" height="11"/>
		<rect fill="white" x="143" y="6" width="9" height="9"/>
		<rect x="144" y="10" width="7" height="1"/>
		<rect x="76" y="629" width="11" height="11"/>
		<rect fill="white" x="77" y="630" width="9" height="9"/>
		<rect x="78" y="634" width="7" height="1"/>
	</g>
</svg>
