<?xml version="1.0" encoding="utf-8" ?>
<svg xmlns="http://www.w3.org/2000/svg" xmlns:xlink="http://www.w3.org/1999/xlink" width="385" height="1356">
	<clipPath id="cl_15e">
		<rect x="-10" y="-5" width="385" height="1356"/>
	</clipPath>
	<g clip-path="url(#cl_15e)">
		<path fill="none" stroke="black" stroke-width="1" stroke-linecap="square" stroke-miterlimit="4" transform="translate(0.5 0.5)" d="M91 941L135 941"/>
		<path fill="none" stroke="black" stroke-width="1" stroke-linecap="square" stroke-miterlimit="4" transform="translate(0.5 0.5)" d="M136 941L136 621"/>
		<path fill="none" stroke="black" stroke-width="1" stroke-linecap="square" stroke-miterlimit="4" transform="translate(0.5 0.5)" d="M136 941L136 1261"/>
		<path fill="none" stroke="black" stroke-width="1" stroke-linecap="square" stroke-miterlimit="4" transform="translate(0.5 0.5)" d="M136 1262L150 1262"/>
		<path fill="none" stroke="black" stroke-width="1" stroke-linecap="square" stroke-miterlimit="4" transform="translate(0.5 0.5)" d="M136 620L150 620"/>
		<rect fill="silver" x="4" y="935" width="86" height="21"/>
		<rect fill="white" y="931" width="86" height="21"/>
		<rect fill="white" x="5" y="958" width="117" height="60"/>
		<text fill="gray" font-size="9" font-family="Segoe UI" x="7.465332, 13.270508, 15.73584, 20.829102, 23.008789, 26.827637, 29.877441, 35.150879, 38.279785, 42.634766, 45.100098, 50.373535, 53.19043, 55.655762, 58.705566, 63.798828, 68.505371, 70.970703, 75.12793, 78.256836, 82.963379, 87.54248, 90.592285, 92.771973, 98.04541, 103.13867, 105.604, 110.18311, 115.27637, " y="968, ">
				A history of the creation and
		</text>
		<text fill="gray" font-size="9" font-family="Segoe UI" x="5, 12.751953, 18.025391, 23.325195, 25.504883, 28.321777, 30.501465, 34.658691, 39.237793, 42.287598, 44.467285, 49.740723, 54.833984, 58.652832, 61.118164, 66.391602, 69.208496, 71.673828, 74.723633, 79.816895, 84.523438, 86.98877, 91.145996, 96.419434, 101.5127, 104.5625, 109.26904, 114.3623, " y="980, ">
				modifications of the content
		</text>
		<text fill="gray" font-size="9" font-family="Segoe UI" x="5, 10.273438, 15.564453, 17.744141, 22.450684, 26.60791, 29.657715, 32.123047, 37.396484, 40.213379, 42.678711, 45.728516, 50.821777, 53.001465, 56.820312, 59.285645, 61.465332, 64.515137, 69.22168, 76.973633, 78.924805, 81.390137, 86.09668, 90.227539, 95.518555, 98.647461, 103.354, 107.17285, 110.9917, 115.69824, " y="992, ">
				object of this item, expressed
		</text>
		<text fill="gray" font-size="9" font-family="Segoe UI" x="5, 9.5791016, 13.397949, 15.863281, 20.442383, 22.907715, 26.726562, 31.433105, 36.73291, 41.826172, 46.532715, 51.625977, 55.783203, 60.489746, 62.955078, 68.228516, 71.04541, 73.510742, 78.604004, 83.877441, 89.168457, 92.987305, " y="1004, ">
				as a sequence of hops.
		</text>
		<rect fill="white" x="9" y="933" width="65" height="16"/>
		<text font-size="12" font-weight="600" font-family="Segoe UI" x="9, 16.224609, 23.560547, 31.001953, 40.195312, 43.605469, 48.884766, 53.507812, 60.84375, 66.099609, " y="946, ">
				hopHistory
		</text>
		<rect fill="none" stroke="black" stroke-width="1" stroke-linecap="square" stroke-miterlimit="4" transform="translate(0.5 0.5)" y="931" width="85" height="20"/>
		<path fill="white" d="M228 19L228 0L151 0L151 19L151 1239L364 1239L364 19L228 19Z"/>
		<rect fill="white" x="171" y="2" width="51" height="16"/>
		<text font-size="12" font-style="italic" font-family="Segoe UI" x="171, 177.50391, 181.38281, 185.26172, 189.5332, 192.63867, 199.14258, 205.83984, 209.73047, 215.57227, " y="15, ">
				attributes
		</text>
		<path fill="none" stroke="black" stroke-width="1" stroke-linecap="square" stroke-miterlimit="4" transform="translate(0.5 0.5)" d="M228 19L228 0L151 0L151 19L151 1239L364 1239L364 19L228 19Z"/>
		<path fill="white" d="M356 47L356 28L165 28L165 47L165 1150L356 1150L356 47Z"/>
		<rect fill="white" x="170" y="1153" width="179" height="48"/>
		<text fill="gray" font-size="9" font-family="Segoe UI" x="170, 175.80518, 178.27051, 183.57031, 186.69922, 191.97266, 197.06592, 202.35693, 204.82227, 210.0957, 212.9126, 215.37793, 219.95703, 223.00684, 226.05664, 229.18555, 231.36523, 236.65625, 241.74951, 244.79932, 249.50586, 253.32471, 255.79004, 258.60693, 263.88037, 267.00928, 269.47461, 274.05371, 276.2334, 278.41309, 280.87842, 285.58496, 287.76465, 292.47119, 300.22314, 304.92969, 310.02295, 313.07275, 316.8916, 319.35693, 324.63037, 327.44727, 329.9126, 334.4917, 336.95703, 343.13135, " y="1163, ">
				A group of attributes for all elements of a G2
		</text>
		<text fill="gray" font-size="9" font-family="Segoe UI" x="170, 172.39502, 175.44482, 180.15137, 187.90332, 190.36865, 195.0752, 199.20605, 203.36328, 208.06982, 213.36084, 216.41064, 218.87598, 221.05566, 224.10547, 227.92432, 230.38965, 233.51855, 238.79199, 244.06543, 247.11523, 249.58057, 254.28711, 256.4668, 261.17334, 268.92529, 273.63184, 278.7251, 281.7749, 283.72607, 286.19141, 289.24121, 294.33447, 299.04102, 301.50635, 303.68604, 306.73584, 311.44238, 319.19434, 327.27588, 331.98242, 335.03223, " y="1175, ">
				Item except its root element, the itemMeta
		</text>
		<text fill="gray" font-size="9" font-family="Segoe UI" x="170, 174.70654, 176.88623, 181.59277, 189.34473, 194.05127, 199.14453, 202.19434, 204.65967, 209.23877, 214.33203, 219.63184, 222.09717, 226.67627, 228.85596, 231.03564, 233.50098, 238.77441, 241.59131, 244.05664, 246.23633, 249.28613, 253.10498, 255.57031, 259.72754, 264.8208, 267.00049, 269.18018, 274.47998, 277.60889, 282.31543, 287.40869, 289.87402, 296.37793, 301.47119, 303.65088, 307.80811, 312.90137, 315.3667, 319.9458, 323.07471, " y="1187, ">
				element and all of its children which are
		</text>
		<text fill="gray" font-size="9" font-family="Segoe UI" x="170, 177.75195, 182.33105, 187.42432, 192.72412, 197.30322, 200.35303, 205.62646, 208.75537, 213.11035, " y="1199, ">
				mandatory.
		</text>
		<rect fill="white" x="207" y="30" width="143" height="16"/>
		<text font-size="12" font-weight="600" font-family="Segoe UI" x="207, 212.75977, 220.0957, 231.08789, 242.08008, 249.41602, 256.67578, 263.68945, 271.02539, 280.53516, 287.02734, 291.80273, 300, 304.66992, 309.33984, 314.16211, 317.57227, 325.01367, 332.27344, 336.89648, 343.38867, " y="43, ">
				commonPowerAttributes
		</text>
		<rect fill="white" x="185" y="30" width="20" height="16"/>
		<text fill="gray" font-size="12" font-family="Segoe UI" x="185, 192.06641, 196.23828, " y="43, ">
				grp
		</text>
		<path fill="none" stroke="gray" stroke-width="1" stroke-linecap="square" stroke-miterlimit="4" transform="translate(0.5 0.5)" d="M165 47L165 1150L356 1150L356 47L356 47"/>
		<path fill="none" stroke="black" stroke-width="1" stroke-linecap="square" stroke-miterlimit="4" transform="translate(0.5 0.5)" d="M356 47L356 28L165 28L165 47"/>
		<rect x="170" y="33" width="11" height="11"/>
		<rect fill="white" x="171" y="34" width="9" height="9"/>
		<rect x="172" y="38" width="7" height="1"/>
		<rect fill="silver" x="177" y="61" width="52" height="21"/>
		<rect fill="white" x="173" y="57" width="52" height="21"/>
		<rect fill="white" x="178" y="84" width="101" height="24"/>
		<text fill="gray" font-size="9" font-family="Segoe UI" x="178, 182.71533, 187.80859, 192.51514, 194.98047, 197.16016, 202.43359, 206.59082, 211.16992, 213.34961, 215.81494, 217.99463, 223.29443, 228.00098, 233.09424, 236.14404, 238.32373, 241.14062, 243.32031, 248.02686, 251.15576, 253.62109, 258.89453, 261.71143, 264.17676, 267.22656, 272.31982, " y="94, ">
				The local identifier of the
		</text>
		<text fill="gray" font-size="9" font-family="Segoe UI" x="178, 183.29102, 186.41992, 191.69336, 196.98438, 201.69092, 204.81982, 207.86963, 212.22461, " y="106, ">
				property.
		</text>
		<rect fill="white" x="182" y="59" width="36" height="16"/>
		<text font-size="12" font-weight="600" font-family="Segoe UI" x="182, 185.41016, " y="72, ">
				id
		</text>
		<rect fill="none" stroke="black" stroke-width="1" stroke-linecap="square" stroke-miterlimit="4" transform="translate(0.5 0.5)" x="173" y="57" width="51" height="20"/>
		<rect fill="silver" x="177" y="119" width="58" height="21"/>
		<rect fill="white" x="173" y="115" width="58" height="21"/>
		<rect fill="white" x="178" y="142" width="121" height="120"/>
		<text fill="gray" font-size="9" font-family="Segoe UI" x="178, 180.39502, 183.21191, 185.67725, 188.72705, 193.82031, 198.52686, 200.99219, 206.2832, 209.41211, 214.68555, 219.97656, 224.68311, 227.81201, 230.86182, 235.2168, 237.68213, 241.99316, 246.57227, 248.75195, 253.84521, 258.55176, 261.01709, 263.19678, 267.01562, 269.48096, 274.57422, 279.84766, " y="152, ">
				If the property value is not
		</text>
		<text fill="gray" font-size="9" font-family="Segoe UI" x="178, 183.2998, 188.00635, 190.82324, 193.00293, 198.09619, 202.80273, 208.10254, 210.05371, 212.51904, 216.33789, 221.62891, 226.33545, 230.49268, 232.67236, 235.48926, 237.66895, 242.37549, 246.19434, 248.65967, 255.16357, 260.25684, 262.43652, 266.59375, 271.68701, 274.15234, 278.85889, 283.95215, 287.00195, 289.18164, 292.23145, " y="164, ">
				defined, specifies which entity
		</text>
		<text fill="gray" font-size="9" font-family="Segoe UI" x="178, 180.71582, 186.00684, 190.71338, 193.84229, 197.66113, 202.93457, 208.02783, 209.979, 212.44434, 217.71777, 220.84668, 226.14648, 230.72559, 235.81885, 237.99854, 241.81738, 246.39648, 249.44629, 251.62598, 256.89941, 261.99268, 264.45801, 269.73145, " y="176, ">
				(person, organisation or
		</text>
		<text fill="gray" font-size="9" font-family="Segoe UI" x="178, 181.81885, 186.17383, 189.99268, 193.04248, 197.74902, 205.50098, 208.2168, 210.68213, 217.18604, 219.36572, 221.54541, 223.7251, 226.19043, 230.89697, 236.19678, 238.37646, 241.42627, 243.8916, 246.94141, 252.03467, 256.74121, 259.20654, 264.49756, 267.62646, 272.8999, 278.19092, 282.89746, 286.02637, 289.07617, " y="188, ">
				system) will edit the property
		</text>
		<text fill="gray" font-size="9" font-family="Segoe UI" x="178, 182.31104, 186.89014, 189.06982, 194.16309, 198.86963, 201.33496, 204.93408, 207.39941, 212.10596, 216.23682, 221.52783, 224.65674, 229.36328, 233.18213, 237.00098, 241.70752, 247.00732, 249.47266, 254.76367, 259.11865, 261.58398, 266.16309, 268.62842, 275.41357, 280.98584, 286.25928, 291.55908, 296.26562, " y="200, ">
				value - expressed by a QCode.
		</text>
		<text fill="gray" font-size="9" font-family="Segoe UI" x="178, 180.39502, 183.21191, 185.67725, 188.72705, 193.82031, 198.52686, 200.99219, 206.2832, 209.41211, 214.68555, 219.97656, 224.68311, 227.81201, 230.86182, 235.2168, 237.68213, 241.99316, 246.57227, 248.75195, 253.84521, 258.55176, 261.01709, 263.19678, " y="212, ">
				If the property value is
		</text>
		<text fill="gray" font-size="9" font-family="Segoe UI" x="178, 183.2998, 188.00635, 190.82324, 193.00293, 198.09619, 202.80273, 208.10254, 210.05371, 212.51904, 216.33789, 221.62891, 226.33545, 230.49268, 232.67236, 235.48926, 237.66895, 242.37549, 246.19434, 248.65967, 255.16357, 260.25684, 262.43652, 266.59375, 271.68701, 274.15234, 278.85889, 283.95215, 287.00195, 289.18164, 292.23145, " y="224, ">
				defined, specifies which entity
		</text>
		<text fill="gray" font-size="9" font-family="Segoe UI" x="178, 180.71582, 186.00684, 190.71338, 193.84229, 197.66113, 202.93457, 208.02783, 209.979, 212.44434, 217.71777, 220.84668, 226.14648, 230.72559, 235.81885, 237.99854, 241.81738, 246.39648, 249.44629, 251.62598, 256.89941, 261.99268, 264.45801, 269.73145, " y="236, ">
				(person, organisation or
		</text>
		<text fill="gray" font-size="9" font-family="Segoe UI" x="178, 181.81885, 186.17383, 189.99268, 193.04248, 197.74902, 205.50098, 208.2168, 210.68213, 215.77539, 220.35449, 224.17334, 226.63867, 231.34521, 236.64502, 238.82471, 241.87451, 246.58105, 251.88086, 254.34619, 257.396, 262.48926, " y="248, ">
				system) has edited the
		</text>
		<text fill="gray" font-size="9" font-family="Segoe UI" x="178, 183.29102, 186.41992, 191.69336, 196.98438, 201.69092, 204.81982, 207.86963, 212.22461, 214.68994, 219.00098, 223.58008, 225.75977, 230.85303, 235.55957, " y="260, ">
				property value.
		</text>
		<rect fill="white" x="182" y="117" width="42" height="16"/>
		<text font-size="12" font-weight="600" font-family="Segoe UI" x="182, 187.75977, 192.48828, 198.98047, 205.4375, 210.06055, 217.39648, " y="130, ">
				creator
		</text>
		<rect fill="none" stroke="black" stroke-width="1" stroke-linecap="square" stroke-miterlimit="4" transform="translate(0.5 0.5)" x="173" y="115" width="57" height="20"/>
		<rect fill="silver" x="177" y="273" width="73" height="21"/>
		<rect fill="white" x="173" y="269" width="73" height="21"/>
		<rect fill="white" x="178" y="296" width="120" height="108"/>
		<text fill="gray" font-size="9" font-family="Segoe UI" x="178, 180.39502, 183.21191, 185.67725, 188.72705, 193.82031, 198.52686, 200.99219, 206.2832, 209.41211, 214.68555, 219.97656, 224.68311, 227.81201, 230.86182, 235.2168, 237.68213, 241.99316, 246.57227, 248.75195, 253.84521, 258.55176, 261.01709, 263.19678, 267.01562, 269.48096, 274.57422, 279.84766, " y="306, ">
				If the property value is not
		</text>
		<text fill="gray" font-size="9" font-family="Segoe UI" x="178, 183.2998, 188.00635, 190.82324, 193.00293, 198.09619, 202.80273, 208.10254, 210.05371, 212.51904, 216.33789, 221.62891, 226.33545, 230.49268, 232.67236, 235.48926, 237.66895, 242.37549, 246.19434, 248.65967, 255.16357, 260.25684, 262.43652, 266.59375, 271.68701, 274.15234, 278.85889, 283.95215, 287.00195, 289.18164, 292.23145, " y="318, ">
				defined, specifies which entity
		</text>
		<text fill="gray" font-size="9" font-family="Segoe UI" x="178, 180.71582, 186.00684, 190.71338, 193.84229, 197.66113, 202.93457, 208.02783, 209.979, 212.44434, 217.71777, 220.84668, 226.14648, 230.72559, 235.81885, 237.99854, 241.81738, 246.39648, 249.44629, 251.62598, 256.89941, 261.99268, 264.45801, 269.73145, " y="330, ">
				(person, organisation or
		</text>
		<text fill="gray" font-size="9" font-family="Segoe UI" x="178, 181.81885, 186.17383, 189.99268, 193.04248, 197.74902, 205.50098, 208.2168, 210.68213, 217.18604, 219.36572, 221.54541, 223.7251, 226.19043, 230.89697, 236.19678, 238.37646, 241.42627, 243.8916, 246.94141, 252.03467, 256.74121, 259.20654, 264.49756, 267.62646, 272.8999, 278.19092, 282.89746, 286.02637, 289.07617, " y="342, ">
				system) will edit the property
		</text>
		<text fill="gray" font-size="9" font-family="Segoe UI" x="178, 181.59912, 184.06445, 188.771, 192.90186, 198.19287, 201.32178, 206.02832, 209.84717, 213.66602, 218.37256, 223.67236, 226.1377, 231.42871, 235.78369, 238.24902, 242.82812, 245.29346, 251.47656, 256.85986, 259.25488, 261.20605, 263.67139, 266.06641, 268.8833, 271.34863, 274.39844, 279.4917, " y="354, ">
				- expressed by a URI. If the
		</text>
		<text fill="gray" font-size="9" font-family="Segoe UI" x="178, 183.29102, 186.41992, 191.69336, 196.98438, 201.69092, 204.81982, 207.86963, 212.22461, 214.68994, 219.00098, 223.58008, 225.75977, 230.85303, 235.55957, 238.0249, 240.20459, 244.02344, 246.48877, 251.78857, 256.49512, 259.31201, 261.4917, 266.58496, 271.2915, 276.59131, " y="366, ">
				property value is defined,
		</text>
		<text fill="gray" font-size="9" font-family="Segoe UI" x="178, 181.81885, 187.10986, 191.81641, 195.97363, 198.15332, 200.97021, 203.1499, 207.85645, 211.67529, 214.14062, 220.64453, 225.73779, 227.91748, 232.07471, 237.16797, 239.6333, 244.33984, 249.43311, 252.48291, 254.6626, 257.7124, 262.06738, 264.53271, 267.24854, 272.53955, 277.24609, 280.375, 284.19385, 289.46729, 294.56055, " y="378, ">
				specifies which entity (person,
		</text>
		<text fill="gray" font-size="9" font-family="Segoe UI" x="178, 183.27344, 186.40234, 191.70215, 196.28125, 201.37451, 203.5542, 207.37305, 211.95215, 215.00195, 217.18164, 222.45508, 227.54834, 230.01367, 235.28711, 238.41602, 240.88135, 244.7002, 249.05518, 252.87402, 255.92383, 260.63037, 268.38232, 271.09814, 273.56348, 278.65674, 283.23584, " y="390, ">
				organisation or system) has
		</text>
		<text fill="gray" font-size="9" font-family="Segoe UI" x="178, 182.70654, 188.00635, 190.18604, 193.23584, 197.94238, 203.24219, 205.70752, 208.75732, 213.85059, 218.55713, 221.02246, 226.31348, 229.44238, 234.71582, 240.00684, 244.71338, 247.84229, 250.89209, 255.24707, " y="402, ">
				edited the property.
		</text>
		<rect fill="white" x="182" y="271" width="57" height="16"/>
		<text font-size="12" font-weight="600" font-family="Segoe UI" x="182, 187.75977, 192.48828, 198.98047, 205.4375, 210.06055, 217.39648, 222.20703, 229.4668, 234.28906, " y="284, ">
				creatoruri
		</text>
		<rect fill="none" stroke="black" stroke-width="1" stroke-linecap="square" stroke-miterlimit="4" transform="translate(0.5 0.5)" x="173" y="269" width="72" height="20"/>
		<rect fill="silver" x="177" y="415" width="69" height="21"/>
		<rect fill="white" x="173" y="411" width="69" height="21"/>
		<rect fill="white" x="178" y="438" width="119" height="72"/>
		<text fill="gray" font-size="9" font-family="Segoe UI" x="178, 182.71533, 187.80859, 192.51514, 194.98047, 200.28027, 204.85938, 207.90918, 212.61572, 215.08105, 217.79688, 222.37598, 227.46924, 232.76904, 234.72021, 237.18555, 242.45898, 247.75, 250.7998, 252.97949, 258.25293, 263.34619, 267.92529, 270.10498, 272.28467, 276.63965, 278.59082, 281.05615, 284.10596, 289.19922, " y="448, ">
				The date (and, optionally, the
		</text>
		<text fill="gray" font-size="9" font-family="Segoe UI" x="178, 181.0498, 183.22949, 190.98145, 195.68799, 198.40381, 200.86914, 207.37305, 212.46631, 217.17285, 222.26611, 224.73145, 227.78125, 232.87451, 237.58105, 240.04639, 245.3374, 248.46631, 253.73975, 259.03076, 263.7373, 266.86621, 269.91602, 274.271, 276.73633, 283.24023, 287.81934, " y="460, ">
				time) when the property was
		</text>
		<text fill="gray" font-size="9" font-family="Segoe UI" x="178, 180.17969, 184.75879, 188.57764, 191.62744, 194.09277, 201.84473, 207.11816, 212.41797, 214.59766, 217.41455, 219.59424, 224.30078, 229.60059, 231.55176, 234.01709, 238.73242, 243.82568, 248.53223, 250.99756, 253.17725, 258.27051, 260.4502, 263.5, 265.67969, 270.25879, 272.43848, 274.90381, 279.21484, 283.79395, 285.97363, 291.06689, " y="472, ">
				last modified. The initial value
		</text>
		<text fill="gray" font-size="9" font-family="Segoe UI" x="178, 180.17969, 183.99854, 186.46387, 189.51367, 194.60693, 199.31348, 201.77881, 207.07861, 211.65771, 214.70752, 219.41406, 221.87939, 224.59521, 229.17432, 234.26758, 239.56738, 241.51855, 243.98389, 249.25732, 254.54834, 257.59814, 259.77783, 265.05127, 270.14453, 274.72363, 276.90332, 279.08301, 283.43799, " y="484, ">
				is the date (and, optionally,
		</text>
		<text fill="gray" font-size="9" font-family="Segoe UI" x="178, 181.0498, 186.14307, 190.84961, 193.31494, 196.36475, 198.54443, 206.29639, 211.00293, 213.71875, 216.18408, 221.45752, 224.27441, 226.73975, 230.89697, 234.02588, 238.73242, 243.31152, 246.36133, 248.54102, 253.81445, 258.90771, 261.37305, 266.64648, 269.46338, 271.92871, 274.97852, 280.07178, " y="496, ">
				the time) of creation of the
		</text>
		<text fill="gray" font-size="9" font-family="Segoe UI" x="178, 183.29102, 186.41992, 191.69336, 196.98438, 201.69092, 204.81982, 207.86963, 212.22461, " y="508, ">
				property.
		</text>
		<rect fill="white" x="182" y="413" width="53" height="16"/>
		<text font-size="12" font-weight="600" font-family="Segoe UI" x="182, 192.99219, 200.32812, 207.75781, 211.16797, 215.76758, 219.17773, 225.66992, " y="426, ">
				modified
		</text>
		<rect fill="none" stroke="black" stroke-width="1" stroke-linecap="square" stroke-miterlimit="4" transform="translate(0.5 0.5)" x="173" y="411" width="68" height="20"/>
		<rect fill="silver" x="177" y="521" width="59" height="21"/>
		<rect fill="white" x="173" y="517" width="59" height="21"/>
		<rect fill="white" x="178" y="544" width="118" height="108"/>
		<text fill="gray" font-size="9" font-family="Segoe UI" x="178, 180.39502, 183.21191, 185.67725, 189.49609, 194.20264, 197.25244, 199.71777, 202.76758, 208.04102, 210.50635, 213.55615, 216.68506, 221.77832, 226.48486, 228.9502, 232, 237.09326, " y="554, ">
				If set to true the
		</text>
		<text fill="gray" font-size="9" font-family="Segoe UI" x="178, 182.15723, 187.43066, 190.55957, 193.68848, 198.39502, 202.21387, 207.50488, 212.77832, 217.87158, 223.17139, 225.35107, 230.44434, 235.74414, 238.20947, 243.50049, 246.62939, 251.90283, 257.19385, 261.90039, 265.0293, 268.0791, 272.43408, 274.89941, 281.40332, 285.98242, " y="566, ">
				corresponding property was
		</text>
		<text fill="gray" font-size="9" font-family="Segoe UI" x="178, 182.5791, 187.87891, 193.17871, 197.88525, 203.18506, 205.65039, 208.7002, 213.97363, 216.43896, 219.48877, 224.58203, 229.28857, 231.75391, 237.92822, 242.77979, 245.24512, 247.64014, 250.68994, 255.39648, 263.14844, 265.61377, 268.43066, 273.7041, 276.83301, 279.29834, " y="578, ">
				added to the G2 Item for a
		</text>
		<text fill="gray" font-size="9" font-family="Segoe UI" x="178, 181.81885, 187.10986, 191.81641, 195.97363, 198.15332, 200.97021, 203.1499, 207.30713, 209.77246, 213.92969, 219.02295, 222.8418, 225.8916, 231.16504, 238.91699, 243.62354, 246.75244, 249.21777, 254.49121, 257.62012, 260.08545, 265.38525, 268.51416, 273.7876, 278.88086, 284.17188, 286.63721, 291.91064, " y="590, ">
				specific customer or group of
		</text>
		<text fill="gray" font-size="9" font-family="Segoe UI" x="178, 182.15723, 187.25049, 191.06934, 194.11914, 199.39258, 207.14453, 211.85107, 214.97998, 218.79883, 221.26416, 226.5376, 231.63086, 233.81055, 238.16553, 240.1167, 242.58203, 247.29736, 252.39062, 257.09717, 259.5625, 264.8623, 269.56885, 272.38574, 276.96484, 282.05811, 284.23779, " y="602, ">
				customers only. The default
		</text>
		<text fill="gray" font-size="9" font-family="Segoe UI" x="178, 182.31104, 186.89014, 189.06982, 194.16309, 198.86963, 201.33496, 206.6084, 209.42529, 211.89062, 214.94043, 220.03369, 222.21338, 226.03223, 228.49756, 233.78857, 236.91748, 242.19092, 247.48193, 252.18848, 255.31738, 258.36719, 262.72217, 265.1875, 267.36719, 271.18604, 273.65137, 276.46826, 281.04736, 283.22705, 287.0459, " y="614, ">
				value of this property is false
		</text>
		<text fill="gray" font-size="9" font-family="Segoe UI" x="178, 184.50391, 189.59717, 191.77686, 195.93408, 201.02734, 203.49268, 208.07178, 213.36279, 218.65381, 220.8335, 223.01318, 227.71973, 231.53857, 234.00391, 240.50781, 245.60107, 250.30762, 255.40088, 257.86621, 260.91602, 266.00928, 268.18896, " y="626, ">
				which applies when this
		</text>
		<text fill="gray" font-size="9" font-family="Segoe UI" x="178, 182.5791, 185.62891, 188.67871, 191.80762, 193.9873, 199.27832, 204.37158, 207.42139, 212.12793, 214.59326, 216.77295, 220.5918, 223.05713, 228.15039, 233.42383, 236.47363, 238.93896, 244.03223, 247.85107, 252.55762, 257.85742, 260.32275, 266.82666, 269.00635, 272.05615, 277.14941, 279.61475, 282.66455, 287.75781, " y="638, ">
				attribute is not used with the
		</text>
		<text fill="gray" font-size="9" font-family="Segoe UI" x="178, 183.29102, 186.41992, 191.69336, 196.98438, 201.69092, 204.81982, 207.86963, 212.22461, " y="650, ">
				property.
		</text>
		<rect fill="white" x="182" y="519" width="43" height="16"/>
		<text font-size="12" font-weight="600" font-family="Segoe UI" x="182, 187.75977, 195.01953, 200.29883, 204.92188, 212.25781, " y="532, ">
				custom
		</text>
		<rect fill="none" stroke="black" stroke-width="1" stroke-linecap="square" stroke-miterlimit="4" transform="translate(0.5 0.5)" x="173" y="517" width="58" height="20"/>
		<rect fill="silver" x="177" y="663" width="52" height="21"/>
		<rect fill="white" x="173" y="659" width="52" height="21"/>
		<rect fill="white" x="178" y="686" width="118" height="48"/>
		<text fill="gray" font-size="9" font-family="Segoe UI" x="178, 180.39502, 185.48828, 190.78809, 192.96777, 197.125, 201.7041, 204.75391, 209.46045, 213.2793, 215.74463, 221.03564, 225.39062, 227.85596, 234.35986, 239.45312, 241.63281, 245.79004, 250.8833, 253.34863, 261.10059, 265.80713, 270.38623, 275.47949, 279.29834, 281.76367, 284.81348, 289.90674, " y="696, ">
				Indicates by which means the
		</text>
		<text fill="gray" font-size="9" font-family="Segoe UI" x="178, 182.31104, 186.89014, 189.06982, 194.16309, 198.86963, 201.33496, 207.83887, 212.41797, 216.23682, 218.70215, 223.40869, 227.53955, 230.58936, 233.71826, 238.29736, 242.45459, 245.50439, 250.21094, 255.51074, 257.97607, 260.79297, 263.92188, 269.19531, 276.94727, 279.4126, 282.4624, 287.55566, " y="708, ">
				value was extracted from the
		</text>
		<text fill="gray" font-size="9" font-family="Segoe UI" x="178, 182.15723, 187.43066, 192.52393, 195.57373, 200.28027, 205.37354, 208.42334, 210.88867, 214.48779, 216.95312, 221.65967, 225.79053, 231.08154, 234.21045, 238.91699, 242.73584, 246.55469, 251.26123, 256.56104, 259.02637, 264.31738, 268.67236, 271.1377, " y="720, ">
				content - expressed by a
		</text>
		<text fill="gray" font-size="9" font-family="Segoe UI" x="178, 184.78516, 190.35742, 195.63086, 200.93066, " y="732, ">
				QCode
		</text>
		<rect fill="white" x="182" y="661" width="36" height="16"/>
		<text font-size="12" font-weight="600" font-family="Segoe UI" x="182, 189.22461, 196.56055, " y="674, ">
				how
		</text>
		<rect fill="none" stroke="black" stroke-width="1" stroke-linecap="square" stroke-miterlimit="4" transform="translate(0.5 0.5)" x="173" y="659" width="51" height="20"/>
		<rect fill="silver" x="177" y="745" width="57" height="21"/>
		<rect fill="white" x="173" y="741" width="57" height="21"/>
		<rect fill="white" x="178" y="768" width="118" height="36"/>
		<text fill="gray" font-size="9" font-family="Segoe UI" x="178, 180.39502, 185.48828, 190.78809, 192.96777, 197.125, 201.7041, 204.75391, 209.46045, 213.2793, 215.74463, 221.03564, 225.39062, 227.85596, 234.35986, 239.45312, 241.63281, 245.79004, 250.8833, 253.34863, 261.10059, 265.80713, 270.38623, 275.47949, 279.29834, 281.76367, 284.81348, 289.90674, " y="778, ">
				Indicates by which means the
		</text>
		<text fill="gray" font-size="9" font-family="Segoe UI" x="178, 182.31104, 186.89014, 189.06982, 194.16309, 198.86963, 201.33496, 207.83887, 212.41797, 216.23682, 218.70215, 223.40869, 227.53955, 230.58936, 233.71826, 238.29736, 242.45459, 245.50439, 250.21094, 255.51074, 257.97607, 260.79297, 263.92188, 269.19531, 276.94727, 279.4126, 282.4624, 287.55566, " y="790, ">
				value was extracted from the
		</text>
		<text fill="gray" font-size="9" font-family="Segoe UI" x="178, 182.15723, 187.43066, 192.52393, 195.57373, 200.28027, 205.37354, 208.42334, 210.88867, 214.48779, 216.95312, 221.65967, 225.79053, 231.08154, 234.21045, 238.91699, 242.73584, 246.55469, 251.26123, 256.56104, 259.02637, 264.31738, 268.67236, 271.1377, 275.7168, 278.18213, 284.36523, 289.74854, " y="802, ">
				content - expressed by a URI
		</text>
		<rect fill="white" x="182" y="743" width="41" height="16"/>
		<text font-size="12" font-weight="600" font-family="Segoe UI" x="182, 189.22461, 196.56055, 206.12891, 213.38867, 218.21094, " y="756, ">
				howuri
		</text>
		<rect fill="none" stroke="black" stroke-width="1" stroke-linecap="square" stroke-miterlimit="4" transform="translate(0.5 0.5)" x="173" y="741" width="56" height="20"/>
		<rect fill="silver" x="177" y="815" width="52" height="21"/>
		<rect fill="white" x="173" y="811" width="52" height="21"/>
		<rect fill="white" x="178" y="838" width="113" height="36"/>
		<text fill="gray" font-size="9" font-family="Segoe UI" x="178, 186.40674, 191.5, 195.85498, 198.32031, 201.37012, 206.46338, 211.16992, 213.63525, 221.38721, 226.09375, 229.14355, 233.72266, 239.02246, 243.60156, 246.65137, 251.23047, 253.6958, 258.78906, 263.36816, 267.18701, 269.65234, 274.94336, 279.6499, 284.35645, " y="848, ">
				Why the metadata has been
		</text>
		<text fill="gray" font-size="9" font-family="Segoe UI" x="178, 180.17969, 185.27295, 189.43018, 191.60986, 196.70312, 202.00293, 206.70947, 212.00928, 214.47461, 218.07373, 220.53906, 225.24561, 229.37646, 234.66748, 237.79639, 242.50293, 246.32178, 250.14062, 254.84717, 260.14697, 262.6123, 267.90332, 272.2583, 274.72363, " y="860, ">
				included - expressed by a
		</text>
		<text fill="gray" font-size="9" font-family="Segoe UI" x="178, 184.78516, 190.35742, 195.63086, 200.93066, " y="872, ">
				QCode
		</text>
		<rect fill="white" x="182" y="813" width="36" height="16"/>
		<text font-size="12" font-weight="600" font-family="Segoe UI" x="182, 191.56836, 198.79297, " y="826, ">
				why
		</text>
		<rect fill="none" stroke="black" stroke-width="1" stroke-linecap="square" stroke-miterlimit="4" transform="translate(0.5 0.5)" x="173" y="811" width="51" height="20"/>
		<rect fill="silver" x="177" y="885" width="56" height="21"/>
		<rect fill="white" x="173" y="881" width="56" height="21"/>
		<rect fill="white" x="178" y="908" width="119" height="24"/>
		<text fill="gray" font-size="9" font-family="Segoe UI" x="178, 186.40674, 191.5, 195.85498, 198.32031, 201.37012, 206.46338, 211.16992, 213.63525, 221.38721, 226.09375, 229.14355, 233.72266, 239.02246, 243.60156, 246.65137, 251.23047, 253.6958, 258.78906, 263.36816, 267.18701, 269.65234, 274.94336, 279.6499, 284.35645, " y="918, ">
				Why the metadata has been
		</text>
		<text fill="gray" font-size="9" font-family="Segoe UI" x="178, 180.17969, 185.27295, 189.43018, 191.60986, 196.70312, 202.00293, 206.70947, 212.00928, 214.47461, 218.07373, 220.53906, 225.24561, 229.37646, 234.66748, 237.79639, 242.50293, 246.32178, 250.14062, 254.84717, 260.14697, 262.6123, 267.90332, 272.2583, 274.72363, 279.30273, 281.76807, 287.95117, 293.33447, " y="930, ">
				included - expressed by a URI
		</text>
		<rect fill="white" x="182" y="883" width="40" height="16"/>
		<text font-size="12" font-weight="600" font-family="Segoe UI" x="182, 191.56836, 198.79297, 205.25, 212.50977, 217.33203, " y="896, ">
				whyuri
		</text>
		<rect fill="none" stroke="black" stroke-width="1" stroke-linecap="square" stroke-miterlimit="4" transform="translate(0.5 0.5)" x="173" y="881" width="55" height="20"/>
		<rect fill="silver" x="177" y="943" width="97" height="21"/>
		<rect fill="white" x="173" y="939" width="97" height="21"/>
		<rect fill="white" x="178" y="966" width="117" height="72"/>
		<text fill="gray" font-size="9" font-family="Segoe UI" x="178, 184.78516, 189.87842, 194.58496, 197.05029, 202.32373, 205.45264, 207.91797, 215.66992, 220.24902, 225.34229, 229.69727, 232.1626, 236.31982, 241.59326, 246.68652, 250.50537, 253.55518, 256.68408, 261.26318, 263.44287, 268.53613, 271.58594, 275.40479, 277.87012, 280.91992, 286.01318, 290.59229, " y="976, ">
				One or many constraints that
		</text>
		<text fill="gray" font-size="9" font-family="Segoe UI" x="178, 182.5791, 187.87012, 193.16113, 195.34082, 199.6958, 202.16113, 205.21094, 210.48438, 212.94971, 218.24072, 223.33398, 228.625, 230.80469, 232.98438, 236.80322, 241.89648, 244.07617, 249.16943, 254.46924, 256.93457, 259.98438, 265.07764, 269.78418, 272.24951, 276.56055, 281.13965, 283.31934, 288.4126, " y="988, ">
				apply to publishing the value
		</text>
		<text fill="gray" font-size="9" font-family="Segoe UI" x="178, 183.27344, 186.09033, 188.55566, 191.60547, 196.69873, 201.40527, 203.87061, 209.16162, 212.29053, 217.56396, 222.85498, 227.56152, 230.69043, 233.74023, 238.09521, 240.56055, 244.15967, 246.625, 251.33154, 255.4624, 260.75342, 263.88232, 268.58887, 272.40771, 276.22656, 280.93311, " y="1000, ">
				of the property - expressed
		</text>
		<text fill="gray" font-size="9" font-family="Segoe UI" x="178, 183.29102, 187.646, 190.11133, 194.69043, 197.15576, 203.94092, 209.51318, 214.78662, 220.08643, 224.79297, 226.74414, 229.20947, 233.76221, 238.34131, 242.49854, 247.5918, 250.05713, 254.21436, 259.48779, 264.58105, 268.3999, 271.44971, 274.57861, 279.15771, 281.3374, 286.43066, " y="1012, ">
				by a QCode. Each constraint
		</text>
		<text fill="gray" font-size="9" font-family="Segoe UI" x="178, 182.5791, 187.87012, 193.16113, 195.34082, 197.52051, 202.22705, 206.0459, 208.51123, 211.56104, 216.83447, 219.2998, 223.87891, 226.05859, 228.23828, 230.70361, 236.00342, 240.70996, 244.52881, 248.68604, 253.39258, 258.48584, 263.78564, 268.36475, 273.45801, " y="1024, ">
				applies to all descendant
		</text>
		<text fill="gray" font-size="9" font-family="Segoe UI" x="178, 182.70654, 184.88623, 189.59277, 197.34473, 202.05127, 207.14453, 210.19434, 214.01318, " y="1036, ">
				elements.
		</text>
		<rect fill="white" x="182" y="941" width="81" height="16"/>
		<text font-size="12" font-weight="600" font-family="Segoe UI" x="182, 189.44141, 196.70117, 204.14258, 209.90234, 217.23828, 224.49805, 229.77734, 234.44727, 239.22266, 245.67969, 249.08984, 256.34961, " y="954, ">
				pubconstraint
		</text>
		<rect fill="none" stroke="black" stroke-width="1" stroke-linecap="square" stroke-miterlimit="4" transform="translate(0.5 0.5)" x="173" y="939" width="96" height="20"/>
		<rect fill="silver" x="177" y="1049" width="112" height="21"/>
		<rect fill="white" x="173" y="1045" width="112" height="21"/>
		<rect fill="white" x="178" y="1072" width="117" height="72"/>
		<text fill="gray" font-size="9" font-family="Segoe UI" x="178, 184.78516, 189.87842, 194.58496, 197.05029, 202.32373, 205.45264, 207.91797, 215.66992, 220.24902, 225.34229, 229.69727, 232.1626, 236.31982, 241.59326, 246.68652, 250.50537, 253.55518, 256.68408, 261.26318, 263.44287, 268.53613, 271.58594, 275.40479, 277.87012, 280.91992, 286.01318, 290.59229, " y="1082, ">
				One or many constraints that
		</text>
		<text fill="gray" font-size="9" font-family="Segoe UI" x="178, 182.5791, 187.87012, 193.16113, 195.34082, 199.6958, 202.16113, 205.21094, 210.48438, 212.94971, 218.24072, 223.33398, 228.625, 230.80469, 232.98438, 236.80322, 241.89648, 244.07617, 249.16943, 254.46924, 256.93457, 259.98438, 265.07764, 269.78418, 272.24951, 276.56055, 281.13965, 283.31934, 288.4126, " y="1094, ">
				apply to publishing the value
		</text>
		<text fill="gray" font-size="9" font-family="Segoe UI" x="178, 183.27344, 186.09033, 188.55566, 191.60547, 196.69873, 201.40527, 203.87061, 209.16162, 212.29053, 217.56396, 222.85498, 227.56152, 230.69043, 233.74023, 238.09521, 240.56055, 244.15967, 246.625, 251.33154, 255.4624, 260.75342, 263.88232, 268.58887, 272.40771, 276.22656, 280.93311, " y="1106, ">
				of the property - expressed
		</text>
		<text fill="gray" font-size="9" font-family="Segoe UI" x="178, 183.29102, 187.646, 190.11133, 194.69043, 197.15576, 203.33887, 208.72217, 211.11719, 213.06836, 215.53369, 220.08643, 224.66553, 228.82275, 233.91602, 236.38135, 240.53857, 245.81201, 250.90527, 254.72412, 257.77393, 260.90283, 265.48193, 267.66162, 272.75488, " y="1118, ">
				by a URI. Each constraint
		</text>
		<text fill="gray" font-size="9" font-family="Segoe UI" x="178, 182.5791, 187.87012, 193.16113, 195.34082, 197.52051, 202.22705, 206.0459, 208.51123, 211.56104, 216.83447, 219.2998, 223.87891, 226.05859, 228.23828, 230.70361, 236.00342, 240.70996, 244.52881, 248.68604, 253.39258, 258.48584, 263.78564, 268.36475, 273.45801, " y="1130, ">
				applies to all descendant
		</text>
		<text fill="gray" font-size="9" font-family="Segoe UI" x="178, 182.70654, 184.88623, 189.59277, 197.34473, 202.05127, 207.14453, 210.19434, 214.01318, " y="1142, ">
				elements.
		</text>
		<rect fill="white" x="182" y="1047" width="96" height="16"/>
		<text font-size="12" font-weight="600" font-family="Segoe UI" x="182, 189.44141, 196.70117, 204.14258, 209.90234, 217.23828, 224.49805, 229.77734, 234.44727, 239.22266, 245.67969, 249.08984, 256.34961, 261.01953, 268.2793, 273.10156, " y="1060, ">
				pubconstrainturi
		</text>
		<rect fill="none" stroke="black" stroke-width="1" stroke-linecap="square" stroke-miterlimit="4" transform="translate(0.5 0.5)" x="173" y="1045" width="111" height="20"/>
		<path fill="silver" d="M169 1217L174 1212L242 1212L247 1217L247 1228L242 1233L174 1233L169 1228L169 1217Z"/>
		<path fill="white" d="M165 1213L170 1208L238 1208L243 1213L243 1224L238 1229L170 1229L165 1224L165 1213Z"/>
		<rect fill="white" x="192" y="1210" width="46" height="16"/>
		<text font-size="12" font-weight="600" font-family="Segoe UI" x="192, 199.10742, 206.21484, 213.55078, 218.2207, 225.44531, 231.9375, " y="1223, ">
				##other
		</text>
		<rect fill="white" x="170" y="1210" width="20" height="16"/>
		<text fill="gray" font-size="12" font-family="Segoe UI" x="170, 176.10547, 182.89648, " y="1223, ">
				any
		</text>
		<path fill="none" stroke="black" stroke-width="1" stroke-linecap="square" stroke-miterlimit="4" transform="translate(0.5 0.5)" d="M165 1213L170 1208L237 1208L242 1213L242 1223L237 1228L170 1228L165 1223L165 1213Z"/>
		<rect x="156" y="5" width="11" height="11"/>
		<rect fill="white" x="157" y="6" width="9" height="9"/>
		<rect x="158" y="10" width="7" height="1"/>
		<path fill="none" stroke="black" stroke-width="1" stroke-linecap="square" stroke-miterlimit="4" transform="translate(0.5 0.5)" d="M196 1262L205 1262"/>
		<path fill="silver" d="M155 1261L160 1256L185 1256L190 1261L190 1272L185 1277L160 1277L155 1272L155 1261Z"/>
		<path fill="white" d="M151 1257L156 1252L181 1252L186 1257L186 1268L181 1273L156 1273L151 1268L151 1257Z"/>
		<path fill="none" stroke="black" stroke-width="1" stroke-linecap="square" stroke-miterlimit="4" transform="translate(0.5 0.5)" d="M156 1262L180 1262"/>
		<rect x="162" y="1261" width="3" height="3"/>
		<rect x="167" y="1261" width="3" height="3"/>
		<rect x="172" y="1261" width="3" height="3"/>
		<path fill="none" stroke="black" stroke-width="1" stroke-linecap="square" stroke-miterlimit="4" transform="translate(0.5 0.5)" d="M151 1257L156 1252L180 1252L185 1257L185 1267L180 1272L156 1272L151 1267L151 1257Z"/>
		<rect fill="silver" x="213" y="1259" width="52" height="21"/>
		<rect fill="white" x="209" y="1255" width="52" height="21"/>
		<rect fill="none" stroke="black" stroke-width="1" stroke-linecap="square" stroke-miterlimit="4" transform="translate(0.5 0.5)" x="209" y="1255" width="51" height="20"/>
		<rect fill="white" x="206" y="1252" width="52" height="21"/>
		<path fill="none" stroke="black" stroke-width="1" stroke-linecap="square" stroke-miterlimit="4" transform="translate(0.5 0.5)" d="M243 1273L249 1279L252 1276"/>
		<rect fill="white" x="211" y="1298" width="121" height="48"/>
		<text fill="gray" font-size="9" font-family="Segoe UI" x="211, 216.80518, 219.27051, 223.08936, 225.26904, 230.3623, 235.66211, 237.8418, 242.54834, 245.01367, 250.10693, 255.38037, 260.67139, 263.13672, 268.41016, 271.22705, 273.69238, 276.74219, 281.83545, 286.54199, 289.00732, 295.39697, 300.67041, " y="1308, ">
				A single hop of the Hop
		</text>
		<text fill="gray" font-size="9" font-family="Segoe UI" x="211, 217.38965, 219.56934, 223.38818, 226.43799, 231.71143, 234.84033, 239.19531, 241.14648, 243.61182, 248.32715, 253.42041, 258.12695, 260.59229, 265.89209, 270.59863, 273.64844, 278.22754, 280.40723, 282.58691, 286.40576, 288.87109, 294.14453, 296.96143, 299.42676, 302.47656, 307.56982, 312.27637, 314.7417, 319.83496, 325.1084, " y="1320, ">
				History. The details of the hop
		</text>
		<text fill="gray" font-size="9" font-family="Segoe UI" x="211, 215.70654, 220.7998, 223.84961, 226.97852, 231.3335, 233.79883, 237.61768, 242.71094, 247.98438, 253.07764, 255.25732, 260.55713, 263.02246, 266.15137, 270.85791, 273.6748, 275.85449, 280.56104, 284.71826, 287.76807, 290.2334, 293.2832, 298.37646, " y="1332, ">
				entry should reflect the
		</text>
		<text fill="gray" font-size="9" font-family="Segoe UI" x="211, 215.5791, 219.73633, 222.78613, 224.96582, 230.23926, 235.33252, 239.15137, 241.6167, 244.6665, 249.24561, 253.71924, 258.42578, 263.51904, 265.98438, 271.27539, 275.63037, 278.0957, 282.6748, 285.14014, 290.43115, 295.01025, 298.13916, 301.18896, 305.54395, " y="1344, ">
				actions taken by a party.
		</text>
		<rect fill="white" x="215" y="1254" width="31" height="16"/>
		<text font-size="12" font-weight="600" font-family="Segoe UI" x="215, 222.22461, 229.56055, " y="1267, ">
				hop
		</text>
		<text font-size="12" font-family="Segoe UI" x="228.76562, " y="1292, ">
				1
		</text>
		<text font-size="12" font-family="Symbol" x="243.72266, " y="1291, ">
				¥
		</text>
		<text font-size="12" font-family="Segoe UI" x="236.89844, 239.5, " y="1292, ">
				..
		</text>
		<rect fill="none" stroke="black" stroke-width="1" stroke-linecap="square" stroke-miterlimit="4" transform="translate(0.5 0.5)" x="206" y="1252" width="51" height="20"/>
		<rect x="252" y="1257" width="11" height="11"/>
		<rect fill="white" x="253" y="1258" width="9" height="9"/>
		<rect x="254" y="1262" width="7" height="1"/>
		<rect x="257" y="1259" width="1" height="7"/>
		<rect x="185" y="1257" width="11" height="11"/>
		<rect fill="white" x="186" y="1258" width="9" height="9"/>
		<rect x="187" y="1262" width="7" height="1"/>
		<rect x="80" y="936" width="11" height="11"/>
		<rect fill="white" x="81" y="937" width="9" height="9"/>
		<rect x="82" y="941" width="7" height="1"/>
	</g>
</svg>
