<?xml version="1.0" encoding="utf-8" ?>
<svg xmlns="http://www.w3.org/2000/svg" xmlns:xlink="http://www.w3.org/1999/xlink" width="391" height="2591">
	<clipPath id="cl_14f">
		<rect x="-10" y="-5" width="391" height="2591"/>
	</clipPath>
	<g clip-path="url(#cl_14f)">
		<rect fill="#FFFFC0" x="134" width="237" height="2581"/>
		<rect fill="none" stroke="gray" stroke-width="1" stroke-linecap="square" stroke-miterlimit="4" transform="translate(0.5 0.5)" x="134" width="236" height="2580"/>
		<path fill="none" stroke="black" stroke-width="1" stroke-linecap="square" stroke-miterlimit="4" transform="translate(0.5 0.5)" d="M102 1757L146 1757"/>
		<path fill="none" stroke="black" stroke-width="1" stroke-linecap="square" stroke-miterlimit="4" transform="translate(0.5 0.5)" d="M147 1757L147 1086"/>
		<path transform="translate(0.5 0.5)" d="M147.5 1757L147.5 1759L147.5 1759.5L146.5 1759.5L146.5 1759L146.5 1756.5L147.5 1756.5L147.5 1757ZM147.5 1763L147.5 1765L147.5 1765.5L146.5 1765.5L146.5 1765L146.5 1762.5L147.5 1762.5L147.5 1763ZM147.5 1769L147.5 1771L147.5 1771.5L146.5 1771.5L146.5 1771L146.5 1768.5L147.5 1768.5L147.5 1769ZM147.5 1775L147.5 1777L147.5 1777.5L146.5 1777.5L146.5 1777L146.5 1774.5L147.5 1774.5L147.5 1775ZM147.5 1781L147.5 1783L147.5 1783.5L146.5 1783.5L146.5 1783L146.5 1780.5L147.5 1780.5L147.5 1781ZM147.5 1787L147.5 1789L147.5 1789.5L146.5 1789.5L146.5 1789L146.5 1786.5L147.5 1786.5L147.5 1787ZM147.5 1793L147.5 1795L147.5 1795.5L146.5 1795.5L146.5 1795L146.5 1792.5L147.5 1792.5L147.5 1793ZM147.5 1799L147.5 1801L147.5 1801.5L146.5 1801.5L146.5 1801L146.5 1798.5L147.5 1798.5L147.5 1799ZM147.5 1805L147.5 1807L147.5 1807.5L146.5 1807.5L146.5 1807L146.5 1804.5L147.5 1804.5L147.5 1805ZM147.5 1811L147.5 1813L147.5 1813.5L146.5 1813.5L146.5 1813L146.5 1810.5L147.5 1810.5L147.5 1811ZM147.5 1817L147.5 1819L147.5 1819.5L146.5 1819.5L146.5 1819L146.5 1816.5L147.5 1816.5L147.5 1817ZM147.5 1823L147.5 1825L147.5 1825.5L146.5 1825.5L146.5 1825L146.5 1822.5L147.5 1822.5L147.5 1823ZM147.5 1829L147.5 1831L147.5 1831.5L146.5 1831.5L146.5 1831L146.5 1828.5L147.5 1828.5L147.5 1829ZM147.5 1835L147.5 1837L147.5 1837.5L146.5 1837.5L146.5 1837L146.5 1834.5L147.5 1834.5L147.5 1835ZM147.5 1841L147.5 1843L147.5 1843.5L146.5 1843.5L146.5 1843L146.5 1840.5L147.5 1840.5L147.5 1841ZM147.5 1847L147.5 1849L147.5 1849.5L146.5 1849.5L146.5 1849L146.5 1846.5L147.5 1846.5L147.5 1847ZM147.5 1853L147.5 1855L147.5 1855.5L146.5 1855.5L146.5 1855L146.5 1852.5L147.5 1852.5L147.5 1853ZM147.5 1859L147.5 1861L147.5 1861.5L146.5 1861.5L146.5 1861L146.5 1858.5L147.5 1858.5L147.5 1859ZM147.5 1865L147.5 1867L147.5 1867.5L146.5 1867.5L146.5 1867L146.5 1864.5L147.5 1864.5L147.5 1865ZM147.5 1871L147.5 1873L147.5 1873.5L146.5 1873.5L146.5 1873L146.5 1870.5L147.5 1870.5L147.5 1871ZM147.5 1877L147.5 1879L147.5 1879.5L146.5 1879.5L146.5 1879L146.5 1876.5L147.5 1876.5L147.5 1877ZM147.5 1883L147.5 1885L147.5 1885.5L146.5 1885.5L146.5 1885L146.5 1882.5L147.5 1882.5L147.5 1883ZM147.5 1889L147.5 1891L147.5 1891.5L146.5 1891.5L146.5 1891L146.5 1888.5L147.5 1888.5L147.5 1889ZM147.5 1895L147.5 1897L147.5 1897.5L146.5 1897.5L146.5 1897L146.5 1894.5L147.5 1894.5L147.5 1895ZM147.5 1901L147.5 1903L147.5 1903.5L146.5 1903.5L146.5 1903L146.5 1900.5L147.5 1900.5L147.5 1901ZM147.5 1907L147.5 1909L147.5 1909.5L146.5 1909.5L146.5 1909L146.5 1906.5L147.5 1906.5L147.5 1907ZM147.5 1913L147.5 1915L147.5 1915.5L146.5 1915.5L146.5 1915L146.5 1912.5L147.5 1912.5L147.5 1913ZM147.5 1919L147.5 1921L147.5 1921.5L146.5 1921.5L146.5 1921L146.5 1918.5L147.5 1918.5L147.5 1919ZM147.5 1925L147.5 1927L147.5 1927.5L146.5 1927.5L146.5 1927L146.5 1924.5L147.5 1924.5L147.5 1925ZM147.5 1931L147.5 1933L147.5 1933.5L146.5 1933.5L146.5 1933L146.5 1930.5L147.5 1930.5L147.5 1931ZM147.5 1937L147.5 1939L147.5 1939.5L146.5 1939.5L146.5 1939L146.5 1936.5L147.5 1936.5L147.5 1937ZM147.5 1943L147.5 1945L147.5 1945.5L146.5 1945.5L146.5 1945L146.5 1942.5L147.5 1942.5L147.5 1943ZM147.5 1949L147.5 1951L147.5 1951.5L146.5 1951.5L146.5 1951L146.5 1948.5L147.5 1948.5L147.5 1949ZM147.5 1955L147.5 1957L147.5 1957.5L146.5 1957.5L146.5 1957L146.5 1954.5L147.5 1954.5L147.5 1955ZM147.5 1961L147.5 1963L147.5 1963.5L146.5 1963.5L146.5 1963L146.5 1960.5L147.5 1960.5L147.5 1961ZM147.5 1967L147.5 1969L147.5 1969.5L146.5 1969.5L146.5 1969L146.5 1966.5L147.5 1966.5L147.5 1967ZM147.5 1973L147.5 1975L147.5 1975.5L146.5 1975.5L146.5 1975L146.5 1972.5L147.5 1972.5L147.5 1973ZM147.5 1979L147.5 1981L147.5 1981.5L146.5 1981.5L146.5 1981L146.5 1978.5L147.5 1978.5L147.5 1979ZM147.5 1985L147.5 1987L147.5 1987.5L146.5 1987.5L146.5 1987L146.5 1984.5L147.5 1984.5L147.5 1985ZM147.5 1991L147.5 1993L147.5 1993.5L146.5 1993.5L146.5 1993L146.5 1990.5L147.5 1990.5L147.5 1991ZM147.5 1997L147.5 1999L147.5 1999.5L146.5 1999.5L146.5 1999L146.5 1996.5L147.5 1996.5L147.5 1997ZM147.5 2003L147.5 2005L147.5 2005.5L146.5 2005.5L146.5 2005L146.5 2002.5L147.5 2002.5L147.5 2003ZM147.5 2009L147.5 2011L147.5 2011.5L146.5 2011.5L146.5 2011L146.5 2008.5L147.5 2008.5L147.5 2009ZM147.5 2015L147.5 2017L147.5 2017.5L146.5 2017.5L146.5 2017L146.5 2014.5L147.5 2014.5L147.5 2015ZM147.5 2021L147.5 2023L147.5 2023.5L146.5 2023.5L146.5 2023L146.5 2020.5L147.5 2020.5L147.5 2021ZM147.5 2027L147.5 2029L147.5 2029.5L146.5 2029.5L146.5 2029L146.5 2026.5L147.5 2026.5L147.5 2027ZM147.5 2033L147.5 2035L147.5 2035.5L146.5 2035.5L146.5 2035L146.5 2032.5L147.5 2032.5L147.5 2033ZM147.5 2039L147.5 2041L147.5 2041.5L146.5 2041.5L146.5 2041L146.5 2038.5L147.5 2038.5L147.5 2039ZM147.5 2045L147.5 2047L147.5 2047.5L146.5 2047.5L146.5 2047L146.5 2044.5L147.5 2044.5L147.5 2045ZM147.5 2051L147.5 2053L147.5 2053.5L146.5 2053.5L146.5 2053L146.5 2050.5L147.5 2050.5L147.5 2051ZM147.5 2057L147.5 2059L147.5 2059.5L146.5 2059.5L146.5 2059L146.5 2056.5L147.5 2056.5L147.5 2057ZM147.5 2063L147.5 2065L147.5 2065.5L146.5 2065.5L146.5 2065L146.5 2062.5L147.5 2062.5L147.5 2063ZM147.5 2069L147.5 2071L147.5 2071.5L146.5 2071.5L146.5 2071L146.5 2068.5L147.5 2068.5L147.5 2069ZM147.5 2075L147.5 2077L147.5 2077.5L146.5 2077.5L146.5 2077L146.5 2074.5L147.5 2074.5L147.5 2075ZM147.5 2081L147.5 2083L147.5 2083.5L146.5 2083.5L146.5 2083L146.5 2080.5L147.5 2080.5L147.5 2081ZM147.5 2087L147.5 2089L147.5 2089.5L146.5 2089.5L146.5 2089L146.5 2086.5L147.5 2086.5L147.5 2087ZM147.5 2093L147.5 2095L147.5 2095.5L146.5 2095.5L146.5 2095L146.5 2092.5L147.5 2092.5L147.5 2093ZM147.5 2099L147.5 2101L147.5 2101.5L146.5 2101.5L146.5 2101L146.5 2098.5L147.5 2098.5L147.5 2099ZM147.5 2105L147.5 2107L147.5 2107.5L146.5 2107.5L146.5 2107L146.5 2104.5L147.5 2104.5L147.5 2105ZM147.5 2111L147.5 2113L147.5 2113.5L146.5 2113.5L146.5 2113L146.5 2110.5L147.5 2110.5L147.5 2111ZM147.5 2117L147.5 2119L147.5 2119.5L146.5 2119.5L146.5 2119L146.5 2116.5L147.5 2116.5L147.5 2117ZM147.5 2123L147.5 2125L147.5 2125.5L146.5 2125.5L146.5 2125L146.5 2122.5L147.5 2122.5L147.5 2123ZM147.5 2129L147.5 2131L147.5 2131.5L146.5 2131.5L146.5 2131L146.5 2128.5L147.5 2128.5L147.5 2129ZM147.5 2135L147.5 2137L147.5 2137.5L146.5 2137.5L146.5 2137L146.5 2134.5L147.5 2134.5L147.5 2135ZM147.5 2141L147.5 2143L147.5 2143.5L146.5 2143.5L146.5 2143L146.5 2140.5L147.5 2140.5L147.5 2141ZM147.5 2147L147.5 2149L147.5 2149.5L146.5 2149.5L146.5 2149L146.5 2146.5L147.5 2146.5L147.5 2147ZM147.5 2153L147.5 2155L147.5 2155.5L146.5 2155.5L146.5 2155L146.5 2152.5L147.5 2152.5L147.5 2153ZM147.5 2159L147.5 2161L147.5 2161.5L146.5 2161.5L146.5 2161L146.5 2158.5L147.5 2158.5L147.5 2159ZM147.5 2165L147.5 2167L147.5 2167.5L146.5 2167.5L146.5 2167L146.5 2164.5L147.5 2164.5L147.5 2165ZM147.5 2171L147.5 2173L147.5 2173.5L146.5 2173.5L146.5 2173L146.5 2170.5L147.5 2170.5L147.5 2171ZM147.5 2177L147.5 2179L147.5 2179.5L146.5 2179.5L146.5 2179L146.5 2176.5L147.5 2176.5L147.5 2177ZM147.5 2183L147.5 2185L147.5 2185.5L146.5 2185.5L146.5 2185L146.5 2182.5L147.5 2182.5L147.5 2183ZM147.5 2189L147.5 2191L147.5 2191.5L146.5 2191.5L146.5 2191L146.5 2188.5L147.5 2188.5L147.5 2189ZM147.5 2195L147.5 2197L147.5 2197.5L146.5 2197.5L146.5 2197L146.5 2194.5L147.5 2194.5L147.5 2195ZM147.5 2201L147.5 2203L147.5 2203.5L146.5 2203.5L146.5 2203L146.5 2200.5L147.5 2200.5L147.5 2201ZM147.5 2207L147.5 2209L147.5 2209.5L146.5 2209.5L146.5 2209L146.5 2206.5L147.5 2206.5L147.5 2207ZM147.5 2213L147.5 2215L147.5 2215.5L146.5 2215.5L146.5 2215L146.5 2212.5L147.5 2212.5L147.5 2213ZM147.5 2219L147.5 2221L147.5 2221.5L146.5 2221.5L146.5 2221L146.5 2218.5L147.5 2218.5L147.5 2219ZM147.5 2225L147.5 2227L147.5 2227.5L146.5 2227.5L146.5 2227L146.5 2224.5L147.5 2224.5L147.5 2225ZM147.5 2231L147.5 2233L147.5 2233.5L146.5 2233.5L146.5 2233L146.5 2230.5L147.5 2230.5L147.5 2231ZM147.5 2237L147.5 2239L147.5 2239.5L146.5 2239.5L146.5 2239L146.5 2236.5L147.5 2236.5L147.5 2237ZM147.5 2243L147.5 2245L147.5 2245.5L146.5 2245.5L146.5 2245L146.5 2242.5L147.5 2242.5L147.5 2243ZM147.5 2249L147.5 2251L147.5 2251.5L146.5 2251.5L146.5 2251L146.5 2248.5L147.5 2248.5L147.5 2249ZM147.5 2255L147.5 2257L147.5 2257.5L146.5 2257.5L146.5 2257L146.5 2254.5L147.5 2254.5L147.5 2255ZM147.5 2261L147.5 2263L147.5 2263.5L146.5 2263.5L146.5 2263L146.5 2260.5L147.5 2260.5L147.5 2261ZM147.5 2267L147.5 2269L147.5 2269.5L146.5 2269.5L146.5 2269L146.5 2266.5L147.5 2266.5L147.5 2267ZM147.5 2273L147.5 2275L147.5 2275.5L146.5 2275.5L146.5 2275L146.5 2272.5L147.5 2272.5L147.5 2273ZM147.5 2279L147.5 2281L147.5 2281.5L146.5 2281.5L146.5 2281L146.5 2278.5L147.5 2278.5L147.5 2279ZM147.5 2285L147.5 2287L147.5 2287.5L146.5 2287.5L146.5 2287L146.5 2284.5L147.5 2284.5L147.5 2285ZM147.5 2291L147.5 2293L147.5 2293.5L146.5 2293.5L146.5 2293L146.5 2290.5L147.5 2290.5L147.5 2291ZM147.5 2297L147.5 2299L147.5 2299.5L146.5 2299.5L146.5 2299L146.5 2296.5L147.5 2296.5L147.5 2297ZM147.5 2303L147.5 2305L147.5 2305.5L146.5 2305.5L146.5 2305L146.5 2302.5L147.5 2302.5L147.5 2303ZM147.5 2309L147.5 2311L147.5 2311.5L146.5 2311.5L146.5 2311L146.5 2308.5L147.5 2308.5L147.5 2309ZM147.5 2315L147.5 2317L147.5 2317.5L146.5 2317.5L146.5 2317L146.5 2314.5L147.5 2314.5L147.5 2315ZM147.5 2321L147.5 2323L147.5 2323.5L146.5 2323.5L146.5 2323L146.5 2320.5L147.5 2320.5L147.5 2321ZM147.5 2327L147.5 2329L147.5 2329.5L146.5 2329.5L146.5 2329L146.5 2326.5L147.5 2326.5L147.5 2327ZM147.5 2333L147.5 2335L147.5 2335.5L146.5 2335.5L146.5 2335L146.5 2332.5L147.5 2332.5L147.5 2333ZM147.5 2339L147.5 2341L147.5 2341.5L146.5 2341.5L146.5 2341L146.5 2338.5L147.5 2338.5L147.5 2339ZM147.5 2345L147.5 2347L147.5 2347.5L146.5 2347.5L146.5 2347L146.5 2344.5L147.5 2344.5L147.5 2345ZM147.5 2351L147.5 2353L147.5 2353.5L146.5 2353.5L146.5 2353L146.5 2350.5L147.5 2350.5L147.5 2351ZM147.5 2357L147.5 2359L147.5 2359.5L146.5 2359.5L146.5 2359L146.5 2356.5L147.5 2356.5L147.5 2357ZM147.5 2363L147.5 2365L147.5 2365.5L146.5 2365.5L146.5 2365L146.5 2362.5L147.5 2362.5L147.5 2363ZM147.5 2369L147.5 2371L147.5 2371.5L146.5 2371.5L146.5 2371L146.5 2368.5L147.5 2368.5L147.5 2369ZM147.5 2375L147.5 2377L147.5 2377.5L146.5 2377.5L146.5 2377L146.5 2374.5L147.5 2374.5L147.5 2375ZM147.5 2381L147.5 2383L147.5 2383.5L146.5 2383.5L146.5 2383L146.5 2380.5L147.5 2380.5L147.5 2381ZM147.5 2387L147.5 2389L147.5 2389.5L146.5 2389.5L146.5 2389L146.5 2386.5L147.5 2386.5L147.5 2387ZM147.5 2393L147.5 2395L147.5 2395.5L146.5 2395.5L146.5 2395L146.5 2392.5L147.5 2392.5L147.5 2393ZM147.5 2399L147.5 2401L147.5 2401.5L146.5 2401.5L146.5 2401L146.5 2398.5L147.5 2398.5L147.5 2399ZM147.5 2405L147.5 2407L147.5 2407.5L146.5 2407.5L146.5 2407L146.5 2404.5L147.5 2404.5L147.5 2405ZM147.5 2411L147.5 2413L147.5 2413.5L146.5 2413.5L146.5 2413L146.5 2410.5L147.5 2410.5L147.5 2411ZM147.5 2417L147.5 2419L147.5 2419.5L146.5 2419.5L146.5 2419L146.5 2416.5L147.5 2416.5L147.5 2417ZM147.5 2423L147.5 2425.5L146.5 2425.5L146.5 2422.5L147.5 2422.5L147.5 2423Z"/>
		<path transform="translate(0.5 0.5)" d="M147 2186.5L149 2186.5L149.5 2186.5L149.5 2187.5L149 2187.5L146.5 2187.5L146.5 2186.5L147 2186.5ZM153 2186.5L155 2186.5L155.5 2186.5L155.5 2187.5L155 2187.5L152.5 2187.5L152.5 2186.5L153 2186.5ZM159 2186.5L161.5 2186.5L161.5 2187.5L158.5 2187.5L158.5 2186.5L159 2186.5Z"/>
		<path transform="translate(0.5 0.5)" d="M147 2428.5L149 2428.5L149.5 2428.5L149.5 2429.5L149 2429.5L146.5 2429.5L146.5 2428.5L147 2428.5ZM153 2428.5L155 2428.5L155.5 2428.5L155.5 2429.5L155 2429.5L152.5 2429.5L152.5 2428.5L153 2428.5ZM159 2428.5L161.5 2428.5L161.5 2429.5L158.5 2429.5L158.5 2428.5L159 2428.5Z"/>
		<path fill="none" stroke="black" stroke-width="1" stroke-linecap="square" stroke-miterlimit="4" transform="translate(0.5 0.5)" d="M147 1085L161 1085"/>
		<rect fill="silver" x="4" y="1751" width="97" height="21"/>
		<rect fill="white" y="1747" width="97" height="21"/>
		<rect fill="#FFFFC0" x="142" y="8" width="117" height="16"/>
		<text fill="gray" font-size="12" font-weight="600" font-family="Segoe UI" x="142, 149.53516, 156.02734, 159.4375, 165.89453, 170.51758, 177.00977, 184.43945, 191.92773, 199.26367, 206.52344, 212.2832, 218.77539, 226.2168, 230.88672, 237.37891, 243.83594, 251.27734, " y="21, ">
				RelatedConceptType
		</text>
		<rect fill="white" x="5" y="1774" width="114" height="36"/>
		<text fill="gray" font-size="9" font-family="Segoe UI" x="5, 10.805176, 13.270508, 17.427734, 22.701172, 27.794434, 31.95166, 36.658203, 41.949219, 44.999023, 47.464355, 53.968262, 59.061523, 61.241211, 65.398438, 70.491699, 72.957031, 75.136719, 78.955566, 81.420898, 84.237793, 88.816895, 92.974121, 97.680664, 100.73047, 102.91016, 108.00342, " y="1784, ">
				A concept which is faceting
		</text>
		<text fill="gray" font-size="9" font-family="Segoe UI" x="5, 9.5791016, 14.672363, 19.945801, 22.995605, 28.088867, 32.79541, 35.924316, 38.389648, 42.546875, 47.820312, 52.913574, 57.070801, 61.777344, 67.068359, 70.118164, 72.583496, 77.162598, 80.981445, 84.800293, 89.506836, 92.635742, 95.685547, 100.39209, 105.69189, 108.15723, 113.44824, " y="1796, ">
				another concept asserted by
		</text>
		<text fill="gray" font-size="9" font-family="Segoe UI" x="5, 12.751953, 17.331055, 19.510742, 24.604004, 30.17627, 35.449707, 40.542969, 44.700195, 49.406738, 54.697754, " y="1808, ">
				mainConcept
		</text>
		<rect fill="white" x="9" y="1749" width="76" height="16"/>
		<text font-size="12" font-weight="600" font-family="Segoe UI" x="9, 13.599609, 20.056641, 25.816406, 32.308594, 36.978516, 44.466797, 51.802734, 59.0625, 64.822266, 71.314453, 78.755859, " y="1762, ">
				facetConcept
		</text>
		<rect fill="none" stroke="black" stroke-width="1" stroke-linecap="square" stroke-miterlimit="4" transform="translate(0.5 0.5)" y="1747" width="96" height="20"/>
		<path fill="white" d="M239 55L239 36L162 36L162 55L162 2133L309 2133L309 55L239 55Z"/>
		<rect fill="white" x="182" y="38" width="51" height="16"/>
		<text font-size="12" font-style="italic" font-family="Segoe UI" x="182, 188.50391, 192.38281, 196.26172, 200.5332, 203.63867, 210.14258, 216.83984, 220.73047, 226.57227, " y="51, ">
				attributes
		</text>
		<path fill="none" stroke="black" stroke-width="1" stroke-linecap="square" stroke-miterlimit="4" transform="translate(0.5 0.5)" d="M239 55L239 36L162 36L162 55L162 2133L309 2133L309 55L239 55Z"/>
		<rect fill="silver" x="180" y="68" width="52" height="21"/>
		<rect fill="white" x="176" y="64" width="52" height="21"/>
		<rect fill="white" x="181" y="91" width="101" height="24"/>
		<text fill="gray" font-size="9" font-family="Segoe UI" x="181, 185.71533, 190.80859, 195.51514, 197.98047, 200.16016, 205.43359, 209.59082, 214.16992, 216.34961, 218.81494, 220.99463, 226.29443, 231.00098, 236.09424, 239.14404, 241.32373, 244.14062, 246.32031, 251.02686, 254.15576, 256.62109, 261.89453, 264.71143, 267.17676, 270.22656, 275.31982, " y="101, ">
				The local identifier of the
		</text>
		<text fill="gray" font-size="9" font-family="Segoe UI" x="181, 186.29102, 189.41992, 194.69336, 199.98438, 204.69092, 207.81982, 210.86963, 215.22461, " y="113, ">
				property.
		</text>
		<rect fill="white" x="185" y="66" width="36" height="16"/>
		<text font-size="12" font-weight="600" font-family="Segoe UI" x="185, 188.41016, " y="79, ">
				id
		</text>
		<rect fill="none" stroke="black" stroke-width="1" stroke-linecap="square" stroke-miterlimit="4" transform="translate(0.5 0.5)" x="176" y="64" width="51" height="20"/>
		<rect fill="silver" x="180" y="126" width="58" height="21"/>
		<rect fill="white" x="176" y="122" width="58" height="21"/>
		<rect fill="white" x="181" y="149" width="121" height="120"/>
		<text fill="gray" font-size="9" font-family="Segoe UI" x="181, 183.39502, 186.21191, 188.67725, 191.72705, 196.82031, 201.52686, 203.99219, 209.2832, 212.41211, 217.68555, 222.97656, 227.68311, 230.81201, 233.86182, 238.2168, 240.68213, 244.99316, 249.57227, 251.75195, 256.84521, 261.55176, 264.01709, 266.19678, 270.01562, 272.48096, 277.57422, 282.84766, " y="159, ">
				If the property value is not
		</text>
		<text fill="gray" font-size="9" font-family="Segoe UI" x="181, 186.2998, 191.00635, 193.82324, 196.00293, 201.09619, 205.80273, 211.10254, 213.05371, 215.51904, 219.33789, 224.62891, 229.33545, 233.49268, 235.67236, 238.48926, 240.66895, 245.37549, 249.19434, 251.65967, 258.16357, 263.25684, 265.43652, 269.59375, 274.68701, 277.15234, 281.85889, 286.95215, 290.00195, 292.18164, 295.23145, " y="171, ">
				defined, specifies which entity
		</text>
		<text fill="gray" font-size="9" font-family="Segoe UI" x="181, 183.71582, 189.00684, 193.71338, 196.84229, 200.66113, 205.93457, 211.02783, 212.979, 215.44434, 220.71777, 223.84668, 229.14648, 233.72559, 238.81885, 240.99854, 244.81738, 249.39648, 252.44629, 254.62598, 259.89941, 264.99268, 267.45801, 272.73145, " y="183, ">
				(person, organisation or
		</text>
		<text fill="gray" font-size="9" font-family="Segoe UI" x="181, 184.81885, 189.17383, 192.99268, 196.04248, 200.74902, 208.50098, 211.2168, 213.68213, 220.18604, 222.36572, 224.54541, 226.7251, 229.19043, 233.89697, 239.19678, 241.37646, 244.42627, 246.8916, 249.94141, 255.03467, 259.74121, 262.20654, 267.49756, 270.62646, 275.8999, 281.19092, 285.89746, 289.02637, 292.07617, " y="195, ">
				system) will edit the property
		</text>
		<text fill="gray" font-size="9" font-family="Segoe UI" x="181, 185.31104, 189.89014, 192.06982, 197.16309, 201.86963, 204.33496, 207.93408, 210.39941, 215.10596, 219.23682, 224.52783, 227.65674, 232.36328, 236.18213, 240.00098, 244.70752, 250.00732, 252.47266, 257.76367, 262.11865, 264.58398, 269.16309, 271.62842, 278.41357, 283.98584, 289.25928, 294.55908, 299.26562, " y="207, ">
				value - expressed by a QCode.
		</text>
		<text fill="gray" font-size="9" font-family="Segoe UI" x="181, 183.39502, 186.21191, 188.67725, 191.72705, 196.82031, 201.52686, 203.99219, 209.2832, 212.41211, 217.68555, 222.97656, 227.68311, 230.81201, 233.86182, 238.2168, 240.68213, 244.99316, 249.57227, 251.75195, 256.84521, 261.55176, 264.01709, 266.19678, " y="219, ">
				If the property value is
		</text>
		<text fill="gray" font-size="9" font-family="Segoe UI" x="181, 186.2998, 191.00635, 193.82324, 196.00293, 201.09619, 205.80273, 211.10254, 213.05371, 215.51904, 219.33789, 224.62891, 229.33545, 233.49268, 235.67236, 238.48926, 240.66895, 245.37549, 249.19434, 251.65967, 258.16357, 263.25684, 265.43652, 269.59375, 274.68701, 277.15234, 281.85889, 286.95215, 290.00195, 292.18164, 295.23145, " y="231, ">
				defined, specifies which entity
		</text>
		<text fill="gray" font-size="9" font-family="Segoe UI" x="181, 183.71582, 189.00684, 193.71338, 196.84229, 200.66113, 205.93457, 211.02783, 212.979, 215.44434, 220.71777, 223.84668, 229.14648, 233.72559, 238.81885, 240.99854, 244.81738, 249.39648, 252.44629, 254.62598, 259.89941, 264.99268, 267.45801, 272.73145, " y="243, ">
				(person, organisation or
		</text>
		<text fill="gray" font-size="9" font-family="Segoe UI" x="181, 184.81885, 189.17383, 192.99268, 196.04248, 200.74902, 208.50098, 211.2168, 213.68213, 218.77539, 223.35449, 227.17334, 229.63867, 234.34521, 239.64502, 241.82471, 244.87451, 249.58105, 254.88086, 257.34619, 260.396, 265.48926, " y="255, ">
				system) has edited the
		</text>
		<text fill="gray" font-size="9" font-family="Segoe UI" x="181, 186.29102, 189.41992, 194.69336, 199.98438, 204.69092, 207.81982, 210.86963, 215.22461, 217.68994, 222.00098, 226.58008, 228.75977, 233.85303, 238.55957, " y="267, ">
				property value.
		</text>
		<rect fill="white" x="185" y="124" width="42" height="16"/>
		<text font-size="12" font-weight="600" font-family="Segoe UI" x="185, 190.75977, 195.48828, 201.98047, 208.4375, 213.06055, 220.39648, " y="137, ">
				creator
		</text>
		<rect fill="none" stroke="black" stroke-width="1" stroke-linecap="square" stroke-miterlimit="4" transform="translate(0.5 0.5)" x="176" y="122" width="57" height="20"/>
		<rect fill="silver" x="180" y="280" width="73" height="21"/>
		<rect fill="white" x="176" y="276" width="73" height="21"/>
		<rect fill="white" x="181" y="303" width="120" height="108"/>
		<text fill="gray" font-size="9" font-family="Segoe UI" x="181, 183.39502, 186.21191, 188.67725, 191.72705, 196.82031, 201.52686, 203.99219, 209.2832, 212.41211, 217.68555, 222.97656, 227.68311, 230.81201, 233.86182, 238.2168, 240.68213, 244.99316, 249.57227, 251.75195, 256.84521, 261.55176, 264.01709, 266.19678, 270.01562, 272.48096, 277.57422, 282.84766, " y="313, ">
				If the property value is not
		</text>
		<text fill="gray" font-size="9" font-family="Segoe UI" x="181, 186.2998, 191.00635, 193.82324, 196.00293, 201.09619, 205.80273, 211.10254, 213.05371, 215.51904, 219.33789, 224.62891, 229.33545, 233.49268, 235.67236, 238.48926, 240.66895, 245.37549, 249.19434, 251.65967, 258.16357, 263.25684, 265.43652, 269.59375, 274.68701, 277.15234, 281.85889, 286.95215, 290.00195, 292.18164, 295.23145, " y="325, ">
				defined, specifies which entity
		</text>
		<text fill="gray" font-size="9" font-family="Segoe UI" x="181, 183.71582, 189.00684, 193.71338, 196.84229, 200.66113, 205.93457, 211.02783, 212.979, 215.44434, 220.71777, 223.84668, 229.14648, 233.72559, 238.81885, 240.99854, 244.81738, 249.39648, 252.44629, 254.62598, 259.89941, 264.99268, 267.45801, 272.73145, " y="337, ">
				(person, organisation or
		</text>
		<text fill="gray" font-size="9" font-family="Segoe UI" x="181, 184.81885, 189.17383, 192.99268, 196.04248, 200.74902, 208.50098, 211.2168, 213.68213, 220.18604, 222.36572, 224.54541, 226.7251, 229.19043, 233.89697, 239.19678, 241.37646, 244.42627, 246.8916, 249.94141, 255.03467, 259.74121, 262.20654, 267.49756, 270.62646, 275.8999, 281.19092, 285.89746, 289.02637, 292.07617, " y="349, ">
				system) will edit the property
		</text>
		<text fill="gray" font-size="9" font-family="Segoe UI" x="181, 184.59912, 187.06445, 191.771, 195.90186, 201.19287, 204.32178, 209.02832, 212.84717, 216.66602, 221.37256, 226.67236, 229.1377, 234.42871, 238.78369, 241.24902, 245.82812, 248.29346, 254.47656, 259.85986, 262.25488, 264.20605, 266.67139, 269.06641, 271.8833, 274.34863, 277.39844, 282.4917, " y="361, ">
				- expressed by a URI. If the
		</text>
		<text fill="gray" font-size="9" font-family="Segoe UI" x="181, 186.29102, 189.41992, 194.69336, 199.98438, 204.69092, 207.81982, 210.86963, 215.22461, 217.68994, 222.00098, 226.58008, 228.75977, 233.85303, 238.55957, 241.0249, 243.20459, 247.02344, 249.48877, 254.78857, 259.49512, 262.31201, 264.4917, 269.58496, 274.2915, 279.59131, " y="373, ">
				property value is defined,
		</text>
		<text fill="gray" font-size="9" font-family="Segoe UI" x="181, 184.81885, 190.10986, 194.81641, 198.97363, 201.15332, 203.97021, 206.1499, 210.85645, 214.67529, 217.14062, 223.64453, 228.73779, 230.91748, 235.07471, 240.16797, 242.6333, 247.33984, 252.43311, 255.48291, 257.6626, 260.7124, 265.06738, 267.53271, 270.24854, 275.53955, 280.24609, 283.375, 287.19385, 292.46729, 297.56055, " y="385, ">
				specifies which entity (person,
		</text>
		<text fill="gray" font-size="9" font-family="Segoe UI" x="181, 186.27344, 189.40234, 194.70215, 199.28125, 204.37451, 206.5542, 210.37305, 214.95215, 218.00195, 220.18164, 225.45508, 230.54834, 233.01367, 238.28711, 241.41602, 243.88135, 247.7002, 252.05518, 255.87402, 258.92383, 263.63037, 271.38232, 274.09814, 276.56348, 281.65674, 286.23584, " y="397, ">
				organisation or system) has
		</text>
		<text fill="gray" font-size="9" font-family="Segoe UI" x="181, 185.70654, 191.00635, 193.18604, 196.23584, 200.94238, 206.24219, 208.70752, 211.75732, 216.85059, 221.55713, 224.02246, 229.31348, 232.44238, 237.71582, 243.00684, 247.71338, 250.84229, 253.89209, 258.24707, " y="409, ">
				edited the property.
		</text>
		<rect fill="white" x="185" y="278" width="57" height="16"/>
		<text font-size="12" font-weight="600" font-family="Segoe UI" x="185, 190.75977, 195.48828, 201.98047, 208.4375, 213.06055, 220.39648, 225.20703, 232.4668, 237.28906, " y="291, ">
				creatoruri
		</text>
		<rect fill="none" stroke="black" stroke-width="1" stroke-linecap="square" stroke-miterlimit="4" transform="translate(0.5 0.5)" x="176" y="276" width="72" height="20"/>
		<rect fill="silver" x="180" y="422" width="69" height="21"/>
		<rect fill="white" x="176" y="418" width="69" height="21"/>
		<rect fill="white" x="181" y="445" width="119" height="72"/>
		<text fill="gray" font-size="9" font-family="Segoe UI" x="181, 185.71533, 190.80859, 195.51514, 197.98047, 203.28027, 207.85938, 210.90918, 215.61572, 218.08105, 220.79688, 225.37598, 230.46924, 235.76904, 237.72021, 240.18555, 245.45898, 250.75, 253.7998, 255.97949, 261.25293, 266.34619, 270.92529, 273.10498, 275.28467, 279.63965, 281.59082, 284.05615, 287.10596, 292.19922, " y="455, ">
				The date (and, optionally, the
		</text>
		<text fill="gray" font-size="9" font-family="Segoe UI" x="181, 184.0498, 186.22949, 193.98145, 198.68799, 201.40381, 203.86914, 210.37305, 215.46631, 220.17285, 225.26611, 227.73145, 230.78125, 235.87451, 240.58105, 243.04639, 248.3374, 251.46631, 256.73975, 262.03076, 266.7373, 269.86621, 272.91602, 277.271, 279.73633, 286.24023, 290.81934, " y="467, ">
				time) when the property was
		</text>
		<text fill="gray" font-size="9" font-family="Segoe UI" x="181, 183.17969, 187.75879, 191.57764, 194.62744, 197.09277, 204.84473, 210.11816, 215.41797, 217.59766, 220.41455, 222.59424, 227.30078, 232.60059, 234.55176, 237.01709, 241.73242, 246.82568, 251.53223, 253.99756, 256.17725, 261.27051, 263.4502, 266.5, 268.67969, 273.25879, 275.43848, 277.90381, 282.21484, 286.79395, 288.97363, 294.06689, " y="479, ">
				last modified. The initial value
		</text>
		<text fill="gray" font-size="9" font-family="Segoe UI" x="181, 183.17969, 186.99854, 189.46387, 192.51367, 197.60693, 202.31348, 204.77881, 210.07861, 214.65771, 217.70752, 222.41406, 224.87939, 227.59521, 232.17432, 237.26758, 242.56738, 244.51855, 246.98389, 252.25732, 257.54834, 260.59814, 262.77783, 268.05127, 273.14453, 277.72363, 279.90332, 282.08301, 286.43799, " y="491, ">
				is the date (and, optionally,
		</text>
		<text fill="gray" font-size="9" font-family="Segoe UI" x="181, 184.0498, 189.14307, 193.84961, 196.31494, 199.36475, 201.54443, 209.29639, 214.00293, 216.71875, 219.18408, 224.45752, 227.27441, 229.73975, 233.89697, 237.02588, 241.73242, 246.31152, 249.36133, 251.54102, 256.81445, 261.90771, 264.37305, 269.64648, 272.46338, 274.92871, 277.97852, 283.07178, " y="503, ">
				the time) of creation of the
		</text>
		<text fill="gray" font-size="9" font-family="Segoe UI" x="181, 186.29102, 189.41992, 194.69336, 199.98438, 204.69092, 207.81982, 210.86963, 215.22461, " y="515, ">
				property.
		</text>
		<rect fill="white" x="185" y="420" width="53" height="16"/>
		<text font-size="12" font-weight="600" font-family="Segoe UI" x="185, 195.99219, 203.32812, 210.75781, 214.16797, 218.76758, 222.17773, 228.66992, " y="433, ">
				modified
		</text>
		<rect fill="none" stroke="black" stroke-width="1" stroke-linecap="square" stroke-miterlimit="4" transform="translate(0.5 0.5)" x="176" y="418" width="68" height="20"/>
		<rect fill="silver" x="180" y="528" width="59" height="21"/>
		<rect fill="white" x="176" y="524" width="59" height="21"/>
		<rect fill="white" x="181" y="551" width="118" height="108"/>
		<text fill="gray" font-size="9" font-family="Segoe UI" x="181, 183.39502, 186.21191, 188.67725, 192.49609, 197.20264, 200.25244, 202.71777, 205.76758, 211.04102, 213.50635, 216.55615, 219.68506, 224.77832, 229.48486, 231.9502, 235, 240.09326, " y="561, ">
				If set to true the
		</text>
		<text fill="gray" font-size="9" font-family="Segoe UI" x="181, 185.15723, 190.43066, 193.55957, 196.68848, 201.39502, 205.21387, 210.50488, 215.77832, 220.87158, 226.17139, 228.35107, 233.44434, 238.74414, 241.20947, 246.50049, 249.62939, 254.90283, 260.19385, 264.90039, 268.0293, 271.0791, 275.43408, 277.89941, 284.40332, 288.98242, " y="573, ">
				corresponding property was
		</text>
		<text fill="gray" font-size="9" font-family="Segoe UI" x="181, 185.5791, 190.87891, 196.17871, 200.88525, 206.18506, 208.65039, 211.7002, 216.97363, 219.43896, 222.48877, 227.58203, 232.28857, 234.75391, 240.92822, 245.77979, 248.24512, 250.64014, 253.68994, 258.39648, 266.14844, 268.61377, 271.43066, 276.7041, 279.83301, 282.29834, " y="585, ">
				added to the G2 Item for a
		</text>
		<text fill="gray" font-size="9" font-family="Segoe UI" x="181, 184.81885, 190.10986, 194.81641, 198.97363, 201.15332, 203.97021, 206.1499, 210.30713, 212.77246, 216.92969, 222.02295, 225.8418, 228.8916, 234.16504, 241.91699, 246.62354, 249.75244, 252.21777, 257.49121, 260.62012, 263.08545, 268.38525, 271.51416, 276.7876, 281.88086, 287.17188, 289.63721, 294.91064, " y="597, ">
				specific customer or group of
		</text>
		<text fill="gray" font-size="9" font-family="Segoe UI" x="181, 185.15723, 190.25049, 194.06934, 197.11914, 202.39258, 210.14453, 214.85107, 217.97998, 221.79883, 224.26416, 229.5376, 234.63086, 236.81055, 241.16553, 243.1167, 245.58203, 250.29736, 255.39062, 260.09717, 262.5625, 267.8623, 272.56885, 275.38574, 279.96484, 285.05811, 287.23779, " y="609, ">
				customers only. The default
		</text>
		<text fill="gray" font-size="9" font-family="Segoe UI" x="181, 185.31104, 189.89014, 192.06982, 197.16309, 201.86963, 204.33496, 209.6084, 212.42529, 214.89062, 217.94043, 223.03369, 225.21338, 229.03223, 231.49756, 236.78857, 239.91748, 245.19092, 250.48193, 255.18848, 258.31738, 261.36719, 265.72217, 268.1875, 270.36719, 274.18604, 276.65137, 279.46826, 284.04736, 286.22705, 290.0459, " y="621, ">
				value of this property is false
		</text>
		<text fill="gray" font-size="9" font-family="Segoe UI" x="181, 187.50391, 192.59717, 194.77686, 198.93408, 204.02734, 206.49268, 211.07178, 216.36279, 221.65381, 223.8335, 226.01318, 230.71973, 234.53857, 237.00391, 243.50781, 248.60107, 253.30762, 258.40088, 260.86621, 263.91602, 269.00928, 271.18896, " y="633, ">
				which applies when this
		</text>
		<text fill="gray" font-size="9" font-family="Segoe UI" x="181, 185.5791, 188.62891, 191.67871, 194.80762, 196.9873, 202.27832, 207.37158, 210.42139, 215.12793, 217.59326, 219.77295, 223.5918, 226.05713, 231.15039, 236.42383, 239.47363, 241.93896, 247.03223, 250.85107, 255.55762, 260.85742, 263.32275, 269.82666, 272.00635, 275.05615, 280.14941, 282.61475, 285.66455, 290.75781, " y="645, ">
				attribute is not used with the
		</text>
		<text fill="gray" font-size="9" font-family="Segoe UI" x="181, 186.29102, 189.41992, 194.69336, 199.98438, 204.69092, 207.81982, 210.86963, 215.22461, " y="657, ">
				property.
		</text>
		<rect fill="white" x="185" y="526" width="43" height="16"/>
		<text font-size="12" font-weight="600" font-family="Segoe UI" x="185, 190.75977, 198.01953, 203.29883, 207.92188, 215.25781, " y="539, ">
				custom
		</text>
		<rect fill="none" stroke="black" stroke-width="1" stroke-linecap="square" stroke-miterlimit="4" transform="translate(0.5 0.5)" x="176" y="524" width="58" height="20"/>
		<rect fill="silver" x="180" y="670" width="52" height="21"/>
		<rect fill="white" x="176" y="666" width="52" height="21"/>
		<rect fill="white" x="181" y="693" width="118" height="48"/>
		<text fill="gray" font-size="9" font-family="Segoe UI" x="181, 183.39502, 188.48828, 193.78809, 195.96777, 200.125, 204.7041, 207.75391, 212.46045, 216.2793, 218.74463, 224.03564, 228.39062, 230.85596, 237.35986, 242.45312, 244.63281, 248.79004, 253.8833, 256.34863, 264.10059, 268.80713, 273.38623, 278.47949, 282.29834, 284.76367, 287.81348, 292.90674, " y="703, ">
				Indicates by which means the
		</text>
		<text fill="gray" font-size="9" font-family="Segoe UI" x="181, 185.31104, 189.89014, 192.06982, 197.16309, 201.86963, 204.33496, 210.83887, 215.41797, 219.23682, 221.70215, 226.40869, 230.53955, 233.58936, 236.71826, 241.29736, 245.45459, 248.50439, 253.21094, 258.51074, 260.97607, 263.79297, 266.92188, 272.19531, 279.94727, 282.4126, 285.4624, 290.55566, " y="715, ">
				value was extracted from the
		</text>
		<text fill="gray" font-size="9" font-family="Segoe UI" x="181, 185.15723, 190.43066, 195.52393, 198.57373, 203.28027, 208.37354, 211.42334, 213.88867, 217.48779, 219.95312, 224.65967, 228.79053, 234.08154, 237.21045, 241.91699, 245.73584, 249.55469, 254.26123, 259.56104, 262.02637, 267.31738, 271.67236, 274.1377, " y="727, ">
				content - expressed by a
		</text>
		<text fill="gray" font-size="9" font-family="Segoe UI" x="181, 187.78516, 193.35742, 198.63086, 203.93066, " y="739, ">
				QCode
		</text>
		<rect fill="white" x="185" y="668" width="36" height="16"/>
		<text font-size="12" font-weight="600" font-family="Segoe UI" x="185, 192.22461, 199.56055, " y="681, ">
				how
		</text>
		<rect fill="none" stroke="black" stroke-width="1" stroke-linecap="square" stroke-miterlimit="4" transform="translate(0.5 0.5)" x="176" y="666" width="51" height="20"/>
		<rect fill="silver" x="180" y="752" width="57" height="21"/>
		<rect fill="white" x="176" y="748" width="57" height="21"/>
		<rect fill="white" x="181" y="775" width="118" height="36"/>
		<text fill="gray" font-size="9" font-family="Segoe UI" x="181, 183.39502, 188.48828, 193.78809, 195.96777, 200.125, 204.7041, 207.75391, 212.46045, 216.2793, 218.74463, 224.03564, 228.39062, 230.85596, 237.35986, 242.45312, 244.63281, 248.79004, 253.8833, 256.34863, 264.10059, 268.80713, 273.38623, 278.47949, 282.29834, 284.76367, 287.81348, 292.90674, " y="785, ">
				Indicates by which means the
		</text>
		<text fill="gray" font-size="9" font-family="Segoe UI" x="181, 185.31104, 189.89014, 192.06982, 197.16309, 201.86963, 204.33496, 210.83887, 215.41797, 219.23682, 221.70215, 226.40869, 230.53955, 233.58936, 236.71826, 241.29736, 245.45459, 248.50439, 253.21094, 258.51074, 260.97607, 263.79297, 266.92188, 272.19531, 279.94727, 282.4126, 285.4624, 290.55566, " y="797, ">
				value was extracted from the
		</text>
		<text fill="gray" font-size="9" font-family="Segoe UI" x="181, 185.15723, 190.43066, 195.52393, 198.57373, 203.28027, 208.37354, 211.42334, 213.88867, 217.48779, 219.95312, 224.65967, 228.79053, 234.08154, 237.21045, 241.91699, 245.73584, 249.55469, 254.26123, 259.56104, 262.02637, 267.31738, 271.67236, 274.1377, 278.7168, 281.18213, 287.36523, 292.74854, " y="809, ">
				content - expressed by a URI
		</text>
		<rect fill="white" x="185" y="750" width="41" height="16"/>
		<text font-size="12" font-weight="600" font-family="Segoe UI" x="185, 192.22461, 199.56055, 209.12891, 216.38867, 221.21094, " y="763, ">
				howuri
		</text>
		<rect fill="none" stroke="black" stroke-width="1" stroke-linecap="square" stroke-miterlimit="4" transform="translate(0.5 0.5)" x="176" y="748" width="56" height="20"/>
		<rect fill="silver" x="180" y="822" width="52" height="21"/>
		<rect fill="white" x="176" y="818" width="52" height="21"/>
		<rect fill="white" x="181" y="845" width="113" height="36"/>
		<text fill="gray" font-size="9" font-family="Segoe UI" x="181, 189.40674, 194.5, 198.85498, 201.32031, 204.37012, 209.46338, 214.16992, 216.63525, 224.38721, 229.09375, 232.14355, 236.72266, 242.02246, 246.60156, 249.65137, 254.23047, 256.6958, 261.78906, 266.36816, 270.18701, 272.65234, 277.94336, 282.6499, 287.35645, " y="855, ">
				Why the metadata has been
		</text>
		<text fill="gray" font-size="9" font-family="Segoe UI" x="181, 183.17969, 188.27295, 192.43018, 194.60986, 199.70312, 205.00293, 209.70947, 215.00928, 217.47461, 221.07373, 223.53906, 228.24561, 232.37646, 237.66748, 240.79639, 245.50293, 249.32178, 253.14062, 257.84717, 263.14697, 265.6123, 270.90332, 275.2583, 277.72363, " y="867, ">
				included - expressed by a
		</text>
		<text fill="gray" font-size="9" font-family="Segoe UI" x="181, 187.78516, 193.35742, 198.63086, 203.93066, " y="879, ">
				QCode
		</text>
		<rect fill="white" x="185" y="820" width="36" height="16"/>
		<text font-size="12" font-weight="600" font-family="Segoe UI" x="185, 194.56836, 201.79297, " y="833, ">
				why
		</text>
		<rect fill="none" stroke="black" stroke-width="1" stroke-linecap="square" stroke-miterlimit="4" transform="translate(0.5 0.5)" x="176" y="818" width="51" height="20"/>
		<rect fill="silver" x="180" y="892" width="56" height="21"/>
		<rect fill="white" x="176" y="888" width="56" height="21"/>
		<rect fill="white" x="181" y="915" width="119" height="24"/>
		<text fill="gray" font-size="9" font-family="Segoe UI" x="181, 189.40674, 194.5, 198.85498, 201.32031, 204.37012, 209.46338, 214.16992, 216.63525, 224.38721, 229.09375, 232.14355, 236.72266, 242.02246, 246.60156, 249.65137, 254.23047, 256.6958, 261.78906, 266.36816, 270.18701, 272.65234, 277.94336, 282.6499, 287.35645, " y="925, ">
				Why the metadata has been
		</text>
		<text fill="gray" font-size="9" font-family="Segoe UI" x="181, 183.17969, 188.27295, 192.43018, 194.60986, 199.70312, 205.00293, 209.70947, 215.00928, 217.47461, 221.07373, 223.53906, 228.24561, 232.37646, 237.66748, 240.79639, 245.50293, 249.32178, 253.14062, 257.84717, 263.14697, 265.6123, 270.90332, 275.2583, 277.72363, 282.30273, 284.76807, 290.95117, 296.33447, " y="937, ">
				included - expressed by a URI
		</text>
		<rect fill="white" x="185" y="890" width="40" height="16"/>
		<text font-size="12" font-weight="600" font-family="Segoe UI" x="185, 194.56836, 201.79297, 208.25, 215.50977, 220.33203, " y="903, ">
				whyuri
		</text>
		<rect fill="none" stroke="black" stroke-width="1" stroke-linecap="square" stroke-miterlimit="4" transform="translate(0.5 0.5)" x="176" y="888" width="55" height="20"/>
		<rect fill="silver" x="180" y="950" width="97" height="21"/>
		<rect fill="white" x="176" y="946" width="97" height="21"/>
		<rect fill="white" x="181" y="973" width="117" height="72"/>
		<text fill="gray" font-size="9" font-family="Segoe UI" x="181, 187.78516, 192.87842, 197.58496, 200.05029, 205.32373, 208.45264, 210.91797, 218.66992, 223.24902, 228.34229, 232.69727, 235.1626, 239.31982, 244.59326, 249.68652, 253.50537, 256.55518, 259.68408, 264.26318, 266.44287, 271.53613, 274.58594, 278.40479, 280.87012, 283.91992, 289.01318, 293.59229, " y="983, ">
				One or many constraints that
		</text>
		<text fill="gray" font-size="9" font-family="Segoe UI" x="181, 185.5791, 190.87012, 196.16113, 198.34082, 202.6958, 205.16113, 208.21094, 213.48438, 215.94971, 221.24072, 226.33398, 231.625, 233.80469, 235.98438, 239.80322, 244.89648, 247.07617, 252.16943, 257.46924, 259.93457, 262.98438, 268.07764, 272.78418, 275.24951, 279.56055, 284.13965, 286.31934, 291.4126, " y="995, ">
				apply to publishing the value
		</text>
		<text fill="gray" font-size="9" font-family="Segoe UI" x="181, 186.27344, 189.09033, 191.55566, 194.60547, 199.69873, 204.40527, 206.87061, 212.16162, 215.29053, 220.56396, 225.85498, 230.56152, 233.69043, 236.74023, 241.09521, 243.56055, 247.15967, 249.625, 254.33154, 258.4624, 263.75342, 266.88232, 271.58887, 275.40771, 279.22656, 283.93311, " y="1007, ">
				of the property - expressed
		</text>
		<text fill="gray" font-size="9" font-family="Segoe UI" x="181, 186.29102, 190.646, 193.11133, 197.69043, 200.15576, 206.94092, 212.51318, 217.78662, 223.08643, 227.79297, 229.74414, 232.20947, 236.76221, 241.34131, 245.49854, 250.5918, 253.05713, 257.21436, 262.48779, 267.58105, 271.3999, 274.44971, 277.57861, 282.15771, 284.3374, 289.43066, " y="1019, ">
				by a QCode. Each constraint
		</text>
		<text fill="gray" font-size="9" font-family="Segoe UI" x="181, 185.5791, 190.87012, 196.16113, 198.34082, 200.52051, 205.22705, 209.0459, 211.51123, 214.56104, 219.83447, 222.2998, 226.87891, 229.05859, 231.23828, 233.70361, 239.00342, 243.70996, 247.52881, 251.68604, 256.39258, 261.48584, 266.78564, 271.36475, 276.45801, " y="1031, ">
				applies to all descendant
		</text>
		<text fill="gray" font-size="9" font-family="Segoe UI" x="181, 185.70654, 187.88623, 192.59277, 200.34473, 205.05127, 210.14453, 213.19434, 217.01318, " y="1043, ">
				elements.
		</text>
		<rect fill="white" x="185" y="948" width="81" height="16"/>
		<text font-size="12" font-weight="600" font-family="Segoe UI" x="185, 192.44141, 199.70117, 207.14258, 212.90234, 220.23828, 227.49805, 232.77734, 237.44727, 242.22266, 248.67969, 252.08984, 259.34961, " y="961, ">
				pubconstraint
		</text>
		<rect fill="none" stroke="black" stroke-width="1" stroke-linecap="square" stroke-miterlimit="4" transform="translate(0.5 0.5)" x="176" y="946" width="96" height="20"/>
		<rect fill="silver" x="180" y="1056" width="112" height="21"/>
		<rect fill="white" x="176" y="1052" width="112" height="21"/>
		<rect fill="white" x="181" y="1079" width="117" height="72"/>
		<text fill="gray" font-size="9" font-family="Segoe UI" x="181, 187.78516, 192.87842, 197.58496, 200.05029, 205.32373, 208.45264, 210.91797, 218.66992, 223.24902, 228.34229, 232.69727, 235.1626, 239.31982, 244.59326, 249.68652, 253.50537, 256.55518, 259.68408, 264.26318, 266.44287, 271.53613, 274.58594, 278.40479, 280.87012, 283.91992, 289.01318, 293.59229, " y="1089, ">
				One or many constraints that
		</text>
		<text fill="gray" font-size="9" font-family="Segoe UI" x="181, 185.5791, 190.87012, 196.16113, 198.34082, 202.6958, 205.16113, 208.21094, 213.48438, 215.94971, 221.24072, 226.33398, 231.625, 233.80469, 235.98438, 239.80322, 244.89648, 247.07617, 252.16943, 257.46924, 259.93457, 262.98438, 268.07764, 272.78418, 275.24951, 279.56055, 284.13965, 286.31934, 291.4126, " y="1101, ">
				apply to publishing the value
		</text>
		<text fill="gray" font-size="9" font-family="Segoe UI" x="181, 186.27344, 189.09033, 191.55566, 194.60547, 199.69873, 204.40527, 206.87061, 212.16162, 215.29053, 220.56396, 225.85498, 230.56152, 233.69043, 236.74023, 241.09521, 243.56055, 247.15967, 249.625, 254.33154, 258.4624, 263.75342, 266.88232, 271.58887, 275.40771, 279.22656, 283.93311, " y="1113, ">
				of the property - expressed
		</text>
		<text fill="gray" font-size="9" font-family="Segoe UI" x="181, 186.29102, 190.646, 193.11133, 197.69043, 200.15576, 206.33887, 211.72217, 214.11719, 216.06836, 218.53369, 223.08643, 227.66553, 231.82275, 236.91602, 239.38135, 243.53857, 248.81201, 253.90527, 257.72412, 260.77393, 263.90283, 268.48193, 270.66162, 275.75488, " y="1125, ">
				by a URI. Each constraint
		</text>
		<text fill="gray" font-size="9" font-family="Segoe UI" x="181, 185.5791, 190.87012, 196.16113, 198.34082, 200.52051, 205.22705, 209.0459, 211.51123, 214.56104, 219.83447, 222.2998, 226.87891, 229.05859, 231.23828, 233.70361, 239.00342, 243.70996, 247.52881, 251.68604, 256.39258, 261.48584, 266.78564, 271.36475, 276.45801, " y="1137, ">
				applies to all descendant
		</text>
		<text fill="gray" font-size="9" font-family="Segoe UI" x="181, 185.70654, 187.88623, 192.59277, 200.34473, 205.05127, 210.14453, 213.19434, 217.01318, " y="1149, ">
				elements.
		</text>
		<rect fill="white" x="185" y="1054" width="96" height="16"/>
		<text font-size="12" font-weight="600" font-family="Segoe UI" x="185, 192.44141, 199.70117, 207.14258, 212.90234, 220.23828, 227.49805, 232.77734, 237.44727, 242.22266, 248.67969, 252.08984, 259.34961, 264.01953, 271.2793, 276.10156, " y="1067, ">
				pubconstrainturi
		</text>
		<rect fill="none" stroke="black" stroke-width="1" stroke-linecap="square" stroke-miterlimit="4" transform="translate(0.5 0.5)" x="176" y="1052" width="111" height="20"/>
		<rect fill="silver" x="180" y="1162" width="52" height="21"/>
		<rect fill="white" x="176" y="1158" width="52" height="21"/>
		<rect fill="white" x="181" y="1185" width="121" height="48"/>
		<text fill="gray" font-size="9" font-family="Segoe UI" x="181, 186.80518, 189.27051, 193.42773, 198.70117, 203.79443, 207.95166, 212.6582, 217.94922, 220.99902, 223.46436, 225.64404, 230.94385, 235.65039, 240.74365, 243.79346, 245.97314, 248.79004, 250.96973, 255.67627, 258.80518, 261.27051, 265.97705, 270.10791, 275.39893, 278.52783, 283.23438, 287.05322, 290.87207, 295.57861, " y="1195, ">
				A concept identifier expressed
		</text>
		<text fill="gray" font-size="9" font-family="Segoe UI" x="181, 185.5791, 189.39795, 191.86328, 196.44238, 198.90771, 202.72656, 205.77637, 208.90527, 211.08496, 216.17822, 221.47803, 223.94336, 229.2168, 232.03369, 234.49902, 237.54883, 242.64209, 247.34863, 249.81396, 252.63086, 257.9043, 261.0332, 268.78516, 271.25049, 275.06934, 278.88818, 282.70703, 284.6582, 288.81543, 292.97266, 297.12988, " y="1207, ">
				as a string of the form sss:ccc,
		</text>
		<text fill="gray" font-size="9" font-family="Segoe UI" x="181, 187.50391, 192.59717, 197.30371, 200.43262, 205.13916, 207.60449, 211.42334, 215.24219, 219.06104, 221.52637, 223.70605, 227.5249, 229.99023, 234.56934, 237.03467, 240.85352, 245.01074, 250.104, 254.81055, 262.5625, 267.26904, 269.73438, 274.31348, 276.49316, 278.67285, 283.25195, " y="1219, ">
				where sss is a scheme alias
		</text>
		<text fill="gray" font-size="9" font-family="Segoe UI" x="181, 185.5791, 190.67236, 195.97217, 198.4375, 202.59473, 206.75195, 210.90918, 213.37451, 215.5542, 219.37305, 221.83838, 226.41748, 228.88281, 233.04004, 238.31348, 243.61328, " y="1231, ">
				and ccc is a code
		</text>
		<rect fill="white" x="185" y="1160" width="36" height="16"/>
		<text font-size="12" font-weight="600" font-family="Segoe UI" x="185, 192.42969, 198.18945, 205.52539, 212.95508, " y="1173, ">
				qcode
		</text>
		<rect fill="none" stroke="black" stroke-width="1" stroke-linecap="square" stroke-miterlimit="4" transform="translate(0.5 0.5)" x="176" y="1158" width="51" height="20"/>
		<rect fill="silver" x="180" y="1244" width="52" height="21"/>
		<rect fill="white" x="176" y="1240" width="52" height="21"/>
		<rect fill="white" x="181" y="1267" width="95" height="24"/>
		<text fill="gray" font-size="9" font-family="Segoe UI" x="181, 186.80518, 189.27051, 195.45361, 200.83691, 203.23193, 205.69727, 212.20117, 217.29443, 219.47412, 223.63135, 228.72461, 231.18994, 233.36963, 238.66943, 243.37598, 248.46924, 251.51904, 253.69873, 256.51562, 258.69531, 263.40186, 267.2207, 269.68604, " y="1277, ">
				A URI which identifies a
		</text>
		<text fill="gray" font-size="9" font-family="Segoe UI" x="181, 185.15723, 190.43066, 195.52393, 199.68115, 204.3877, 209.67871, 212.72852, " y="1289, ">
				concept.
		</text>
		<rect fill="white" x="185" y="1242" width="36" height="16"/>
		<text font-size="12" font-weight="600" font-family="Segoe UI" x="185, 192.25977, 197.08203, " y="1255, ">
				uri
		</text>
		<rect fill="none" stroke="black" stroke-width="1" stroke-linecap="square" stroke-miterlimit="4" transform="translate(0.5 0.5)" x="176" y="1240" width="51" height="20"/>
		<rect fill="silver" x="180" y="1302" width="52" height="21"/>
		<rect fill="white" x="176" y="1298" width="52" height="21"/>
		<rect fill="white" x="181" y="1325" width="121" height="24"/>
		<text fill="gray" font-size="9" font-family="Segoe UI" x="181, 186.80518, 189.27051, 193.42773, 198.70117, 203.79443, 207.95166, 212.6582, 217.94922, 220.99902, 223.46436, 225.64404, 230.94385, 235.65039, 240.74365, 243.79346, 245.97314, 248.79004, 250.96973, 255.67627, 258.80518, 261.27051, 265.97705, 270.10791, 275.39893, 278.52783, 283.23438, 287.05322, 290.87207, 295.57861, " y="1335, ">
				A concept identifier expressed
		</text>
		<text fill="gray" font-size="9" font-family="Segoe UI" x="181, 185.5791, 189.39795, 191.86328, 196.44238, 198.90771, 201.72461, 204.85352, 209.56006, 214.2666, 216.73193, 219.78174, 224.48828, 228.61914, 231.66895, 234.13428, 237.95312, 241.00293, 244.13184, 246.31152, 251.40479, " y="1347, ">
				as a free text string
		</text>
		<rect fill="white" x="185" y="1300" width="36" height="16"/>
		<text font-size="12" font-weight="600" font-family="Segoe UI" x="185, 188.41016, 191.82031, 196.44336, 202.93555, 207.71094, 214.16797, " y="1313, ">
				literal
		</text>
		<rect fill="none" stroke="black" stroke-width="1" stroke-linecap="square" stroke-miterlimit="4" transform="translate(0.5 0.5)" x="176" y="1298" width="51" height="20"/>
		<rect fill="silver" x="180" y="1360" width="52" height="21"/>
		<rect fill="white" x="176" y="1356" width="52" height="21"/>
		<rect fill="white" x="181" y="1383" width="119" height="48"/>
		<text fill="gray" font-size="9" font-family="Segoe UI" x="181, 185.71533, 190.80859, 195.51514, 197.98047, 201.03027, 205.38525, 210.67627, 215.38281, 217.84814, 223.12158, 225.93848, 228.40381, 231.45361, 236.54688, 241.25342, 243.71875, 247.87598, 253.14941, 258.24268, 262.3999, 267.10645, 272.39746, " y="1393, ">
				The type of the concept
		</text>
		<text fill="gray" font-size="9" font-family="Segoe UI" x="181, 185.5791, 189.39795, 193.2168, 195.39648, 200.69629, 205.78955, 210.49609, 215.7959, 218.26123, 222.84033, 226.65918, 229.12451, 233.28174, 238.55518, 243.64844, 246.69824, 249.82715, 255.10059, 257.28027, 259.45996, 264.1665, " y="1405, ">
				assigned as controlled
		</text>
		<text fill="gray" font-size="9" font-family="Segoe UI" x="181, 186.29102, 189.41992, 194.69336, 199.98438, 204.69092, 207.81982, 210.86963, 215.22461, 217.68994, 222.00098, 226.58008, 228.75977, 233.85303, 238.55957, 241.0249, 244.62402, 247.08936, 251.7959, 255.92676, 261.21777, 264.34668, 269.05322, 272.87207, 276.69092, 281.39746, 286.69727, 289.1626, 294.45361, " y="1417, ">
				property value - expressed by
		</text>
		<text fill="gray" font-size="9" font-family="Segoe UI" x="181, 185.5791, 188.04443, 194.82959, 200.40186, 205.67529, 210.9751, " y="1429, ">
				a QCode
		</text>
		<rect fill="white" x="185" y="1358" width="36" height="16"/>
		<text font-size="12" font-weight="600" font-family="Segoe UI" x="185, 189.66992, 196.12695, 203.56836, " y="1371, ">
				type
		</text>
		<rect fill="none" stroke="black" stroke-width="1" stroke-linecap="square" stroke-miterlimit="4" transform="translate(0.5 0.5)" x="176" y="1356" width="51" height="20"/>
		<rect fill="silver" x="180" y="1442" width="58" height="21"/>
		<rect fill="white" x="176" y="1438" width="58" height="21"/>
		<rect fill="white" x="181" y="1465" width="119" height="48"/>
		<text fill="gray" font-size="9" font-family="Segoe UI" x="181, 185.71533, 190.80859, 195.51514, 197.98047, 201.03027, 205.38525, 210.67627, 215.38281, 217.84814, 223.12158, 225.93848, 228.40381, 231.45361, 236.54688, 241.25342, 243.71875, 247.87598, 253.14941, 258.24268, 262.3999, 267.10645, 272.39746, " y="1475, ">
				The type of the concept
		</text>
		<text fill="gray" font-size="9" font-family="Segoe UI" x="181, 185.5791, 189.39795, 193.2168, 195.39648, 200.69629, 205.78955, 210.49609, 215.7959, 218.26123, 222.84033, 226.65918, 229.12451, 233.28174, 238.55518, 243.64844, 246.69824, 249.82715, 255.10059, 257.28027, 259.45996, 264.1665, " y="1487, ">
				assigned as controlled
		</text>
		<text fill="gray" font-size="9" font-family="Segoe UI" x="181, 186.29102, 189.41992, 194.69336, 199.98438, 204.69092, 207.81982, 210.86963, 215.22461, 217.68994, 222.00098, 226.58008, 228.75977, 233.85303, 238.55957, 241.0249, 244.62402, 247.08936, 251.7959, 255.92676, 261.21777, 264.34668, 269.05322, 272.87207, 276.69092, 281.39746, 286.69727, 289.1626, 294.45361, " y="1499, ">
				property value - expressed by
		</text>
		<text fill="gray" font-size="9" font-family="Segoe UI" x="181, 185.5791, 188.04443, 194.22754, 199.61084, " y="1511, ">
				a URI
		</text>
		<rect fill="white" x="185" y="1440" width="42" height="16"/>
		<text font-size="12" font-weight="600" font-family="Segoe UI" x="185, 189.66992, 196.12695, 203.56836, 210.06055, 217.32031, 222.14258, " y="1453, ">
				typeuri
		</text>
		<rect fill="none" stroke="black" stroke-width="1" stroke-linecap="square" stroke-miterlimit="4" transform="translate(0.5 0.5)" x="176" y="1438" width="57" height="20"/>
		<rect fill="silver" x="180" y="1524" width="66" height="21"/>
		<rect fill="white" x="176" y="1520" width="66" height="21"/>
		<rect fill="white" x="181" y="1547" width="121" height="84"/>
		<text fill="gray" font-size="9" font-family="Segoe UI" x="181, 185.78125, 191.07227, 195.77881, 199.93604, 202.11572, 204.93262, 207.1123, 211.81885, 215.6377, 218.10303, 221.15283, 226.24609, 230.95264, 233.41797, 235.59766, 240.17676, 245.27002, 250.56982, 255.66309, 260.24219, 265.54199, 270.24854, 272.71387, 277.9873, 280.8042, 283.26953, 286.31934, 291.4126, 293.59229, " y="1557, ">
				Specifies the language of this
		</text>
		<text fill="gray" font-size="9" font-family="Segoe UI" x="181, 186.29102, 189.41992, 194.69336, 199.98438, 204.69092, 207.81982, 210.86963, 215.22461, 217.68994, 222.26904, 227.3623, 232.66211, 235.12744, 240.41846, 245.69189, 248.7417, 253.44824, 258.5415, 261.59131, 263.771, 268.3501, 270.52979, 272.70947, 277.06445, 279.52979, 284.10889, 286.28857, " y="1569, ">
				property and potentially all
		</text>
		<text fill="gray" font-size="9" font-family="Segoe UI" x="181, 186.2998, 191.00635, 194.8252, 198.98242, 203.68896, 208.78223, 214.08203, 218.66113, 223.75439, 226.8042, 229.26953, 234.56055, 237.68945, 242.96289, 248.25391, 252.96045, 256.08936, 259.13916, 261.31885, 266.02539, 269.84424, " y="1581, ">
				descendant properties.
		</text>
		<text fill="gray" font-size="9" font-family="Segoe UI" x="181, 185.13086, 192.88281, 195.0625, 197.01367, 199.19336, 203.77246, 208.86572, 214.16553, 216.63086, 220.94189, 225.521, 227.70068, 232.79395, 237.50049, 241.31934, 243.78467, 249.05811, 251.875, 254.34033, 259.64014, 264.34668, 268.16553, 272.32275, 277.0293, 282.12256, 287.42236, 292.00146, 297.09473, " y="1593, ">
				xml:lang values of descendant
		</text>
		<text fill="gray" font-size="9" font-family="Segoe UI" x="181, 186.29102, 189.41992, 194.69336, 199.98438, 204.69092, 207.81982, 210.86963, 213.04932, 217.75586, 221.57471, 224.04004, 229.31348, 233.62451, 238.33105, 241.45996, 244.58887, 246.76855, 252.06836, 256.7749, 259.24023, 262.29004, 267.3833, 269.56299, 273.38184, 275.84717, 280.1582, 284.7373, 286.91699, 292.01025, 296.7168, " y="1605, ">
				properties override this value.
		</text>
		<text fill="gray" font-size="9" font-family="Segoe UI" x="181, 185.93066, 190.50977, 192.68945, 197.78271, 202.48926, 206.30811, 208.77344, 213.35254, 216.48145, 221.18799, 223.65332, 228.95312, 233.65967, 236.70947, 241.41602, 244.54492, 252.29688, 254.47656, 259.56982, 264.27637, 269.57617, 272.0415, 277.33252, " y="1617, ">
				Values are determined by
		</text>
		<text fill="gray" font-size="9" font-family="Segoe UI" x="181, 183.39502, 188.48828, 191.53809, 196.24463, 199.37354, 204.4668, 209.17334, 212.22314, 214.68848, 219.84766, 225.41992, 230.46045, 232.92578, 237.77734, 242.62891, " y="1629, ">
				Internet BCP 47.
		</text>
		<rect fill="white" x="185" y="1522" width="50" height="16"/>
		<text font-size="12" font-weight="600" font-family="Segoe UI" x="185, 191.62695, 202.61914, 206.0293, 209.28125, 212.69141, 219.14844, 226.4082, " y="1535, ">
				xml:lang
		</text>
		<path fill="none" stroke="black" stroke-width="2" stroke-miterlimit="4" transform="translate(0.5 0.5)" d="M178 1538L182 1534"/>
		<path fill="none" stroke="black" stroke-width="1" stroke-linecap="square" stroke-miterlimit="4" transform="translate(0.5 0.5)" d="M179 1534L182 1534L182 1537"/>
		<rect fill="none" stroke="black" stroke-width="1" stroke-linecap="square" stroke-miterlimit="4" transform="translate(0.5 0.5)" x="176" y="1520" width="65" height="20"/>
		<rect fill="silver" x="180" y="1642" width="52" height="21"/>
		<rect fill="white" x="176" y="1638" width="52" height="21"/>
		<rect fill="white" x="181" y="1665" width="116" height="24"/>
		<text fill="gray" font-size="9" font-family="Segoe UI" x="181, 185.71533, 190.80859, 195.51514, 197.98047, 203.28027, 205.45996, 208.58887, 213.29541, 217.45264, 220.50244, 222.68213, 227.95557, 233.04883, 237.62793, 239.80762, 241.9873, 245.03711, 249.39209, 251.85742, 257.13086, 259.94775, 262.41309, 265.46289, 270.16943, 274.30029, 277.3501, 282.44336, 287.02246, " y="1675, ">
				The directionality of textual
		</text>
		<text fill="gray" font-size="9" font-family="Segoe UI" x="181, 185.15723, 190.43066, 195.52393, 198.57373, 203.28027, 208.37354, 211.42334, 213.88867, 216.60449, 221.31104, 226.4043, 231.49756, 239.24951, 243.95605, 247.08496, 251.66406, 254.71387, 256.89355, 262.16699, 267.26025, 269.21143, 271.67676, 273.85645, 276.90625, 280.03516, 281.98633, 284.45166, 287.58057, 290.63037, 292.81006, " y="1687, ">
				content (enumeration: ltr, rtl)
		</text>
		<rect fill="white" x="185" y="1640" width="36" height="16"/>
		<text font-size="12" font-weight="600" font-family="Segoe UI" x="185, 192.42969, 195.83984, " y="1653, ">
				dir
		</text>
		<rect fill="none" stroke="black" stroke-width="1" stroke-linecap="square" stroke-miterlimit="4" transform="translate(0.5 0.5)" x="176" y="1638" width="51" height="20"/>
		<path fill="silver" d="M180 1705L185 1700L253 1700L258 1705L258 1716L253 1721L185 1721L180 1716L180 1705Z"/>
		<path fill="white" d="M176 1701L181 1696L249 1696L254 1701L254 1712L249 1717L181 1717L176 1712L176 1701Z"/>
		<rect fill="white" x="203" y="1698" width="46" height="16"/>
		<text font-size="12" font-weight="600" font-family="Segoe UI" x="203, 210.10742, 217.21484, 224.55078, 229.2207, 236.44531, 242.9375, " y="1711, ">
				##other
		</text>
		<rect fill="white" x="181" y="1698" width="20" height="16"/>
		<text fill="gray" font-size="12" font-family="Segoe UI" x="181, 187.10547, 193.89648, " y="1711, ">
				any
		</text>
		<path fill="none" stroke="black" stroke-width="1" stroke-linecap="square" stroke-miterlimit="4" transform="translate(0.5 0.5)" d="M176 1701L181 1696L248 1696L253 1701L253 1711L248 1716L181 1716L176 1711L176 1701Z"/>
		<rect fill="silver" x="180" y="1728" width="52" height="21"/>
		<rect fill="white" x="176" y="1724" width="52" height="21"/>
		<rect fill="white" x="181" y="1751" width="120" height="60"/>
		<text fill="gray" font-size="9" font-family="Segoe UI" x="181, 185.71533, 190.80859, 195.51514, 197.98047, 200.16016, 205.45996, 210.1665, 215.25977, 218.30957, 220.48926, 223.30615, 225.48584, 230.19238, 233.32129, 235.78662, 241.06006, 243.87695, 246.34229, 249.39209, 254.48535, " y="1761, ">
				The identifier of the
		</text>
		<text fill="gray" font-size="9" font-family="Segoe UI" x="181, 184.12891, 188.83545, 191.01514, 195.59424, 198.64404, 200.82373, 206.09717, 211.19043, 215.00928, 220.10254, 222.28223, 227.57324, 230.03857, 235.32959, 240.03613, 243.08594, 249.58984, 254.29639, 259.00293, 264.09619, 266.56152, 269.61133, 274.70459, " y="1773, ">
				relationship between the
		</text>
		<text fill="gray" font-size="9" font-family="Segoe UI" x="181, 185.15723, 190.25049, 193.37939, 196.5083, 201.21484, 206.30811, 209.35791, 211.82324, 215.98047, 221.25391, 226.34717, 230.50439, 235.21094, 240.50195, 243.55176, 246.01709, 250.59619, 255.68945, 260.98926, 263.45459, 266.50439, 271.59766, " y="1785, ">
				current concept and the
		</text>
		<text fill="gray" font-size="9" font-family="Segoe UI" x="181, 184.0498, 188.62891, 191.75781, 197.05762, 201.76416, 204.81396, 207.2793, 211.43652, 216.70996, 221.80322, 225.96045, 230.66699, 235.95801, 239.00781, 241.47314, 245.07227, 247.5376, 252.24414, 256.375, 261.66602, 264.79492, 269.50146, 273.32031, 277.13916, 281.8457, 287.14551, 289.61084, 294.90186, " y="1797, ">
				target concept - expressed by
		</text>
		<text fill="gray" font-size="9" font-family="Segoe UI" x="181, 185.5791, 188.04443, 194.82959, 200.40186, 205.67529, 210.9751, " y="1809, ">
				a QCode
		</text>
		<rect fill="white" x="185" y="1726" width="36" height="16"/>
		<text font-size="12" font-weight="600" font-family="Segoe UI" x="185, 189.72852, 196.2207, " y="1739, ">
				rel
		</text>
		<rect fill="none" stroke="black" stroke-width="1" stroke-linecap="square" stroke-miterlimit="4" transform="translate(0.5 0.5)" x="176" y="1724" width="51" height="20"/>
		<rect fill="silver" x="180" y="1822" width="52" height="21"/>
		<rect fill="white" x="176" y="1818" width="52" height="21"/>
		<rect fill="white" x="181" y="1845" width="120" height="60"/>
		<text fill="gray" font-size="9" font-family="Segoe UI" x="181, 185.71533, 190.80859, 195.51514, 197.98047, 200.16016, 205.45996, 210.1665, 215.25977, 218.30957, 220.48926, 223.30615, 225.48584, 230.19238, 233.32129, 235.78662, 241.06006, 243.87695, 246.34229, 249.39209, 254.48535, " y="1855, ">
				The identifier of the
		</text>
		<text fill="gray" font-size="9" font-family="Segoe UI" x="181, 184.12891, 188.83545, 191.01514, 195.59424, 198.64404, 200.82373, 206.09717, 211.19043, 215.00928, 220.10254, 222.28223, 227.57324, 230.03857, 235.32959, 240.03613, 243.08594, 249.58984, 254.29639, 259.00293, 264.09619, 266.56152, 269.61133, 274.70459, " y="1867, ">
				relationship between the
		</text>
		<text fill="gray" font-size="9" font-family="Segoe UI" x="181, 185.15723, 190.25049, 193.37939, 196.5083, 201.21484, 206.30811, 209.35791, 211.82324, 215.98047, 221.25391, 226.34717, 230.50439, 235.21094, 240.50195, 243.55176, 246.01709, 250.59619, 255.68945, 260.98926, 263.45459, 266.50439, 271.59766, " y="1879, ">
				current concept and the
		</text>
		<text fill="gray" font-size="9" font-family="Segoe UI" x="181, 184.0498, 188.62891, 191.75781, 197.05762, 201.76416, 204.81396, 207.2793, 211.43652, 216.70996, 221.80322, 225.96045, 230.66699, 235.95801, 239.00781, 241.47314, 245.07227, 247.5376, 252.24414, 256.375, 261.66602, 264.79492, 269.50146, 273.32031, 277.13916, 281.8457, 287.14551, 289.61084, 294.90186, " y="1891, ">
				target concept - expressed by
		</text>
		<text fill="gray" font-size="9" font-family="Segoe UI" x="181, 185.5791, 188.04443, 194.22754, 199.61084, " y="1903, ">
				a URI
		</text>
		<rect fill="white" x="185" y="1820" width="36" height="16"/>
		<text font-size="12" font-weight="600" font-family="Segoe UI" x="185, 189.72852, 196.2207, 199.63086, 206.89062, 211.71289, " y="1833, ">
				reluri
		</text>
		<rect fill="none" stroke="black" stroke-width="1" stroke-linecap="square" stroke-miterlimit="4" transform="translate(0.5 0.5)" x="176" y="1818" width="51" height="20"/>
		<rect fill="silver" x="180" y="1916" width="52" height="21"/>
		<rect fill="white" x="176" y="1912" width="52" height="21"/>
		<rect fill="white" x="181" y="1939" width="110" height="48"/>
		<text fill="gray" font-size="9" font-family="Segoe UI" x="181, 185.71533, 190.80859, 195.51514, 197.98047, 201.10938, 205.68848, 210.78174, 215.25537, 217.7207, 222.99414, 225.81104, 228.27637, 231.32617, 236.41943, 241.12598, 243.59131, 247.74854, 252.8418, 255.9707, 259.09961, 263.80615, 268.89941, " y="1949, ">
				The rank of the current
		</text>
		<text fill="gray" font-size="9" font-family="Segoe UI" x="181, 185.15723, 190.43066, 195.52393, 199.68115, 204.3877, 209.67871, 212.72852, 215.19385, 219.77295, 227.5249, 232.79834, 237.8916, 243.19141, 245.65674, 249.81396, 255.0874, 260.18066, 264.33789, 269.04443, 274.33545, 277.38525, " y="1961, ">
				concept among concepts
		</text>
		<text fill="gray" font-size="9" font-family="Segoe UI" x="181, 186.09326, 190.67236, 194.9834, 197.16309, 202.25635, 207.55615, 210.02148, 214.60059, 217.06592, 220.19482, 224.90137, 227.08105, 231.66016, 234.70996, 236.88965, 242.16309, 247.25635, 251.0752, 256.16846, 258.34814, 263.63916, 266.10449, 269.1543, 274.42773, 276.89307, 279.94287, 285.03613, " y="1973, ">
				having a relationship to the
		</text>
		<text fill="gray" font-size="9" font-family="Segoe UI" x="181, 184.0498, 188.62891, 191.75781, 197.05762, 201.76416, 204.81396, 207.2793, 211.43652, 216.70996, 221.80322, 225.96045, 230.66699, 235.95801, 239.00781, " y="1985, ">
				target concept.
		</text>
		<rect fill="white" x="185" y="1914" width="36" height="16"/>
		<text font-size="12" font-weight="600" font-family="Segoe UI" x="185, 189.77539, 196.23242, 203.49219, " y="1927, ">
				rank
		</text>
		<rect fill="none" stroke="black" stroke-width="1" stroke-linecap="square" stroke-miterlimit="4" transform="translate(0.5 0.5)" x="176" y="1912" width="51" height="20"/>
		<rect fill="silver" x="180" y="1998" width="72" height="21"/>
		<rect fill="white" x="176" y="1994" width="72" height="21"/>
		<rect fill="white" x="181" y="2021" width="117" height="36"/>
		<text fill="gray" font-size="9" font-family="Segoe UI" x="181, 185.71533, 190.80859, 195.51514, 197.98047, 203.28027, 207.85938, 210.90918, 215.61572, 218.08105, 220.79688, 225.37598, 230.46924, 235.76904, 237.72021, 240.18555, 245.45898, 250.75, 253.7998, 255.97949, 261.25293, 266.34619, 270.92529, 273.10498, 275.28467, 279.63965, 281.59082, 284.05615, 287.10596, 292.19922, " y="2031, ">
				The date (and, optionally, the
		</text>
		<text fill="gray" font-size="9" font-family="Segoe UI" x="181, 184.0498, 186.22949, 193.98145, 198.68799, 201.40381, 203.86914, 209.16016, 213.8667, 216.68359, 221.95703, 225.08594, 229.79248, 232.25781, 238.76172, 243.85498, 246.03467, 250.19189, 255.28516, 257.75049, " y="2043, ">
				time) before which a
		</text>
		<text fill="gray" font-size="9" font-family="Segoe UI" x="181, 184.12891, 188.83545, 191.01514, 195.59424, 198.64404, 200.82373, 206.09717, 211.19043, 215.00928, 220.10254, 222.28223, 227.57324, 230.03857, 232.21826, 236.03711, 238.50244, 243.5957, 248.86914, 251.91895, 254.38428, 258.69531, 263.27441, 265.4541, 267.63379, 272.93359, " y="2055, ">
				relationship is not valid.
		</text>
		<rect fill="white" x="185" y="1996" width="56" height="16"/>
		<text font-size="12" font-weight="600" font-family="Segoe UI" x="185, 191.32227, 197.7793, 201.18945, 204.59961, 212.0293, 216.62891, 221.35742, 228.69336, " y="2009, ">
				validfrom
		</text>
		<rect fill="none" stroke="black" stroke-width="1" stroke-linecap="square" stroke-miterlimit="4" transform="translate(0.5 0.5)" x="176" y="1994" width="71" height="20"/>
		<rect fill="silver" x="180" y="2068" width="56" height="21"/>
		<rect fill="white" x="176" y="2064" width="56" height="21"/>
		<rect fill="white" x="181" y="2091" width="117" height="36"/>
		<text fill="gray" font-size="9" font-family="Segoe UI" x="181, 185.71533, 190.80859, 195.51514, 197.98047, 203.28027, 207.85938, 210.90918, 215.61572, 218.08105, 220.79688, 225.37598, 230.46924, 235.76904, 237.72021, 240.18555, 245.45898, 250.75, 253.7998, 255.97949, 261.25293, 266.34619, 270.92529, 273.10498, 275.28467, 279.63965, 281.59082, 284.05615, 287.10596, 292.19922, " y="2101, ">
				The date (and, optionally, the
		</text>
		<text fill="gray" font-size="9" font-family="Segoe UI" x="181, 184.0498, 186.22949, 193.98145, 198.68799, 201.40381, 203.86914, 208.44824, 211.26514, 214.31494, 219.02148, 222.15039, 224.61572, 231.11963, 236.21289, 238.39258, 242.5498, 247.64307, 250.1084, " y="2113, ">
				time) after which a
		</text>
		<text fill="gray" font-size="9" font-family="Segoe UI" x="181, 184.12891, 188.83545, 191.01514, 195.59424, 198.64404, 200.82373, 206.09717, 211.19043, 215.00928, 220.10254, 222.28223, 227.57324, 230.03857, 232.21826, 236.03711, 238.50244, 243.5957, 248.86914, 251.91895, 254.38428, 258.69531, 263.27441, 265.4541, 267.63379, 272.93359, " y="2125, ">
				relationship is not valid.
		</text>
		<rect fill="white" x="185" y="2066" width="40" height="16"/>
		<text font-size="12" font-weight="600" font-family="Segoe UI" x="185, 191.32227, 197.7793, 201.18945, 204.59961, 212.0293, 216.65234, " y="2079, ">
				validto
		</text>
		<rect fill="none" stroke="black" stroke-width="1" stroke-linecap="square" stroke-miterlimit="4" transform="translate(0.5 0.5)" x="176" y="2064" width="55" height="20"/>
		<rect x="167" y="41" width="11" height="11"/>
		<rect fill="white" x="168" y="42" width="9" height="9"/>
		<rect x="169" y="46" width="7" height="1"/>
		<path fill="none" stroke="black" stroke-width="1" stroke-linecap="square" stroke-miterlimit="4" transform="translate(0.5 0.5)" d="M207 2187L215 2187"/>
		<path fill="none" stroke="black" stroke-width="1" stroke-linecap="square" stroke-miterlimit="4" transform="translate(0.5 0.5)" d="M216 2187L216 2157"/>
		<path fill="none" stroke="black" stroke-width="1" stroke-linecap="square" stroke-miterlimit="4" transform="translate(0.5 0.5)" d="M216 2187L216 2218"/>
		<path fill="none" stroke="black" stroke-width="1" stroke-linecap="square" stroke-miterlimit="4" transform="translate(0.5 0.5)" d="M216 2156L230 2156"/>
		<path fill="none" stroke="black" stroke-width="1" stroke-linecap="square" stroke-miterlimit="4" transform="translate(0.5 0.5)" d="M216 2219L230 2219"/>
		<path fill="silver" d="M169 2189L174 2184L199 2184L204 2189L204 2200L199 2205L174 2205L169 2200L169 2189Z"/>
		<path fill="white" d="M165 2185L170 2180L194 2180L199 2185L199 2195L194 2200L170 2200L165 2195L165 2185Z"/>
		<path transform="translate(0.5 0.5)" d="M168.889 2180.4L169.793 2179.5L170.929 2179.5L171.429 2179.5L171.429 2180.5L170.929 2180.5L170 2180.5L170 2180L170.354 2180.35L169.243 2181.46L168.536 2180.76L168.889 2180.4ZM174.929 2179.5L176.929 2179.5L177.429 2179.5L177.429 2180.5L176.929 2180.5L174.429 2180.5L174.429 2179.5L174.929 2179.5ZM180.929 2179.5L182.929 2179.5L183.429 2179.5L183.429 2180.5L182.929 2180.5L180.429 2180.5L180.429 2179.5L180.929 2179.5ZM186.929 2179.5L188.929 2179.5L189.429 2179.5L189.429 2180.5L188.929 2180.5L186.429 2180.5L186.429 2179.5L186.929 2179.5ZM192.929 2179.5L194.207 2179.5L195.01 2180.3L195.364 2180.66L194.657 2181.36L194.303 2181.01L193.646 2180.35L194 2180L194 2180.5L192.429 2180.5L192.429 2179.5L192.929 2179.5ZM197.839 2183.13L199.253 2184.55L199.607 2184.9L198.9 2185.61L198.546 2185.25L196.778 2183.49L197.485 2182.78L197.839 2183.13ZM199.5 2188.86L199.5 2190.86L199.5 2191.36L198.5 2191.36L198.5 2190.86L198.5 2188.36L199.5 2188.36L199.5 2188.86ZM199.5 2194.86L199.5 2195.21L198.04 2196.67L197.686 2197.02L196.979 2196.31L197.333 2195.96L198.646 2194.65L199 2195L198.5 2195L198.5 2194.36L199.5 2194.36L199.5 2194.86ZM195.211 2199.5L194.207 2200.5L193.213 2200.5L192.713 2200.5L192.713 2199.5L193.213 2199.5L194 2199.5L194 2200L193.646 2199.65L194.858 2198.44L195.565 2199.14L195.211 2199.5ZM189.213 2200.5L187.213 2200.5L186.713 2200.5L186.713 2199.5L187.213 2199.5L189.713 2199.5L189.713 2200.5L189.213 2200.5ZM183.213 2200.5L181.213 2200.5L180.713 2200.5L180.713 2199.5L181.213 2199.5L183.713 2199.5L183.713 2200.5L183.213 2200.5ZM177.213 2200.5L175.213 2200.5L174.713 2200.5L174.713 2199.5L175.213 2199.5L177.713 2199.5L177.713 2200.5L177.213 2200.5ZM171.213 2200.5L169.793 2200.5L169.09 2199.8L168.737 2199.44L169.444 2198.74L169.797 2199.09L170.354 2199.65L170 2200L170 2199.5L171.713 2199.5L171.713 2200.5L171.213 2200.5ZM166.262 2196.97L164.847 2195.55L164.494 2195.2L165.201 2194.49L165.555 2194.85L167.322 2196.62L166.615 2197.32L166.262 2196.97ZM164.5 2191.28L164.5 2189.28L164.5 2188.78L165.5 2188.78L165.5 2189.28L165.5 2191.78L164.5 2191.78L164.5 2191.28ZM164.5 2185.28L164.5 2184.79L166.414 2182.88L167.121 2183.59L165.354 2185.35L165 2185L165.5 2185L165.5 2185.78L164.5 2185.78L164.5 2185.28Z"/>
		<path fill="white" d="M162 2182L167 2177L192 2177L197 2182L197 2193L192 2198L167 2198L162 2193L162 2182Z"/>
		<path fill="none" stroke="black" stroke-width="1" stroke-linecap="square" stroke-miterlimit="4" transform="translate(0.5 0.5)" d="M181 2198L187 2204L190 2201"/>
		<path fill="none" stroke="black" stroke-width="1" stroke-linecap="square" stroke-miterlimit="4" transform="translate(0.5 0.5)" d="M167 2187L172 2187L176 2183"/>
		<path fill="none" stroke="black" stroke-width="1" stroke-linecap="square" stroke-miterlimit="4" transform="translate(0.5 0.5)" d="M182 2187L190 2187"/>
		<path fill="none" stroke="black" stroke-width="1" stroke-linecap="square" stroke-miterlimit="4" transform="translate(0.5 0.5)" d="M182 2183L186 2183L186 2191L182 2191"/>
		<rect x="178" y="2182" width="3" height="3"/>
		<rect x="178" y="2186" width="3" height="3"/>
		<rect x="178" y="2190" width="3" height="3"/>
		<text font-size="12" font-family="Segoe UI" x="166.76562, " y="2217, ">
				0
		</text>
		<text font-size="12" font-family="Symbol" x="181.72266, " y="2216, ">
				
		</text>
		<text font-size="12" font-family="Segoe UI" x="174.89844, 177.5, " y="2217, ">
				..
		</text>
		<path transform="translate(0.5 0.5)" d="M165.889 2177.4L166.793 2176.5L167.929 2176.5L168.429 2176.5L168.429 2177.5L167.929 2177.5L167 2177.5L167 2177L167.354 2177.35L166.243 2178.46L165.536 2177.76L165.889 2177.4ZM171.929 2176.5L173.929 2176.5L174.429 2176.5L174.429 2177.5L173.929 2177.5L171.429 2177.5L171.429 2176.5L171.929 2176.5ZM177.929 2176.5L179.929 2176.5L180.429 2176.5L180.429 2177.5L179.929 2177.5L177.429 2177.5L177.429 2176.5L177.929 2176.5ZM183.929 2176.5L185.929 2176.5L186.429 2176.5L186.429 2177.5L185.929 2177.5L183.429 2177.5L183.429 2176.5L183.929 2176.5ZM189.929 2176.5L191.207 2176.5L192.01 2177.3L192.364 2177.66L191.657 2178.36L191.303 2178.01L190.646 2177.35L191 2177L191 2177.5L189.429 2177.5L189.429 2176.5L189.929 2176.5ZM194.839 2180.13L196.253 2181.55L196.607 2181.9L195.9 2182.61L195.546 2182.25L193.778 2180.49L194.485 2179.78L194.839 2180.13ZM196.5 2185.86L196.5 2187.86L196.5 2188.36L195.5 2188.36L195.5 2187.86L195.5 2185.36L196.5 2185.36L196.5 2185.86ZM196.5 2191.86L196.5 2192.21L195.04 2193.67L194.686 2194.02L193.979 2193.31L194.333 2192.96L195.646 2191.65L196 2192L195.5 2192L195.5 2191.36L196.5 2191.36L196.5 2191.86ZM192.211 2196.5L191.207 2197.5L190.213 2197.5L189.713 2197.5L189.713 2196.5L190.213 2196.5L191 2196.5L191 2197L190.646 2196.65L191.858 2195.44L192.565 2196.14L192.211 2196.5ZM186.213 2197.5L184.213 2197.5L183.713 2197.5L183.713 2196.5L184.213 2196.5L186.713 2196.5L186.713 2197.5L186.213 2197.5ZM180.213 2197.5L178.213 2197.5L177.713 2197.5L177.713 2196.5L178.213 2196.5L180.713 2196.5L180.713 2197.5L180.213 2197.5ZM174.213 2197.5L172.213 2197.5L171.713 2197.5L171.713 2196.5L172.213 2196.5L174.713 2196.5L174.713 2197.5L174.213 2197.5ZM168.213 2197.5L166.793 2197.5L166.09 2196.8L165.737 2196.44L166.444 2195.74L166.797 2196.09L167.354 2196.65L167 2197L167 2196.5L168.713 2196.5L168.713 2197.5L168.213 2197.5ZM163.262 2193.97L161.847 2192.55L161.494 2192.2L162.201 2191.49L162.555 2191.85L164.322 2193.62L163.615 2194.32L163.262 2193.97ZM161.5 2188.28L161.5 2186.28L161.5 2185.78L162.5 2185.78L162.5 2186.28L162.5 2188.78L161.5 2188.78L161.5 2188.28ZM161.5 2182.28L161.5 2181.79L163.414 2179.88L164.121 2180.59L162.354 2182.35L162 2182L162.5 2182L162.5 2182.78L161.5 2182.78L161.5 2182.28Z"/>
		<rect fill="silver" x="235" y="2150" width="54" height="21"/>
		<rect fill="white" x="231" y="2146" width="54" height="21"/>
		<rect fill="#FFFFC0" x="236" y="2173" width="115" height="24"/>
		<text fill="gray" font-size="9" font-family="Segoe UI" x="236, 241.80518, 244.27051, 249.36377, 253.94287, 256.99268, 262.08594, 265.21484, 269.79395, 271.97363, 274.43896, 276.61865, 281.19775, 286.29102, 291.59082, 296.68408, 301.26318, 306.56299, 311.26953, 313.73486, 318.82812, 323.40723, 331.15918, 335.86572, 338.33105, 341.14795, 346.42139, " y="2183, ">
				A natural language name for
		</text>
		<text fill="gray" font-size="9" font-family="Segoe UI" x="236, 239.0498, 244.14307, 248.84961, 251.31494, 255.47217, 260.74561, 265.83887, 269.99609, 274.70264, 279.99365, 283.04346, " y="2195, ">
				the concept.
		</text>
		<rect fill="white" x="240" y="2148" width="33" height="16"/>
		<text font-size="12" font-weight="600" font-family="Segoe UI" x="240, 247.25977, 253.7168, 264.70898, " y="2161, ">
				name
		</text>
		<path fill="none" stroke="black" stroke-width="1" stroke-linecap="square" stroke-miterlimit="4" transform="translate(0.5 0.5)" d="M233 2148L238 2148"/>
		<path fill="none" stroke="black" stroke-width="1" stroke-linecap="square" stroke-miterlimit="4" transform="translate(0.5 0.5)" d="M233 2150L237 2150"/>
		<path fill="none" stroke="black" stroke-width="1" stroke-linecap="square" stroke-miterlimit="4" transform="translate(0.5 0.5)" d="M233 2152L237 2152"/>
		<path fill="none" stroke="black" stroke-width="2" stroke-miterlimit="4" transform="translate(0.5 0.5)" d="M233 2164L237 2160"/>
		<path fill="none" stroke="black" stroke-width="1" stroke-linecap="square" stroke-miterlimit="4" transform="translate(0.5 0.5)" d="M234 2160L237 2160L237 2163"/>
		<rect fill="none" stroke="black" stroke-width="1" stroke-linecap="square" stroke-miterlimit="4" transform="translate(0.5 0.5)" x="231" y="2146" width="53" height="20"/>
		<rect x="279" y="2151" width="11" height="11"/>
		<rect fill="white" x="280" y="2152" width="9" height="9"/>
		<rect x="281" y="2156" width="7" height="1"/>
		<rect x="284" y="2153" width="1" height="7"/>
		<rect fill="silver" x="235" y="2213" width="98" height="21"/>
		<rect fill="white" x="231" y="2209" width="98" height="21"/>
		<rect fill="#FFFFC0" x="236" y="2236" width="121" height="72"/>
		<text fill="gray" font-size="9" font-family="Segoe UI" x="236, 241.11963, 245.82617, 251.11719, 254.24609, 258.95264, 262.77148, 267.47803, 272.57129, 275.62109, 279.43994, 281.90527, 284.95508, 290.04834, 294.75488, 297.22021, 302.51123, 307.78467, 311.60352, 313.7832, 316.83301, 319.0127, 324.28613, 329.37939, 331.84473, 337.11816, 339.93506, 342.40039, " y="2246, ">
				Represents the position of a
		</text>
		<text fill="gray" font-size="9" font-family="Segoe UI" x="236, 240.15723, 245.43066, 250.52393, 254.68115, 259.3877, 264.67871, 267.72852, 270.19385, 272.37354, 277.4668, 279.93213, 284.51123, 286.97656, 292.06982, 294.24951, 298.95605, 302.08496, 306.66406, 309.79297, 313.9502, 319.04346, 321.22314, 325.38037, 329.95947, " y="2258, ">
				concept in a hierarchical
		</text>
		<text fill="gray" font-size="9" font-family="Segoe UI" x="236, 239.0498, 243.62891, 247.75977, 253.0332, 258.12646, 263.3999, 271.15186, 275.50684, 277.97217, 281.02197, 284.15088, 288.85742, 293.56396, 296.0293, 301.32031, 305.67529, 308.14062, 312.71973, 315.18506, 319.00391, 323.71045, 329.01025, 334.10352, 338.81006, 343.90332, 348.06055, " y="2270, ">
				taxonomy tree by a sequence
		</text>
		<text fill="gray" font-size="9" font-family="Segoe UI" x="236, 241.27344, 244.09033, 246.55566, 253.34082, 258.91309, 264.18652, 269.48633, 274.19287, 276.6582, 279.70801, 284.98145, 289.45508, 294.16162, 299.25488, 303.07373, 305.53906, 308.66797, 313.37451, 318.66553, 321.79443, 326.50098, 330.31982, 335.02637, 340.11963, 343.16943, 345.34912, 350.44238, " y="2282, ">
				of QCode tokens representing
		</text>
		<text fill="gray" font-size="9" font-family="Segoe UI" x="236, 239.0498, 244.14307, 248.84961, 251.31494, 255.89404, 260.9873, 265.14453, 269.85107, 273.66992, 276.71973, 281.99316, 285.12207, 287.5874, 291.74463, 297.01807, 302.11133, 306.26855, 310.9751, 316.26611, 319.31592, 323.13477, 325.6001, 330.1792, 335.27246, " y="2294, ">
				the ancestor concepts and
		</text>
		<text fill="gray" font-size="9" font-family="Segoe UI" x="236, 239.0498, 244.14307, 246.32275, 250.1416, 252.60693, 256.76416, 262.0376, 267.13086, 271.28809, 275.99463, 281.28564, " y="2306, ">
				this concept
		</text>
		<rect fill="white" x="240" y="2211" width="77" height="16"/>
		<text font-size="12" font-weight="600" font-family="Segoe UI" x="240, 247.22461, 250.63477, 257.12695, 261.90234, 268.35938, 273.08789, 278.84766, 286.07227, 292.5293, 296.33203, 303.5918, 308.19141, " y="2224, ">
				hierarchyInfo
		</text>
		<path fill="none" stroke="black" stroke-width="1" stroke-linecap="square" stroke-miterlimit="4" transform="translate(0.5 0.5)" d="M233 2211L238 2211"/>
		<path fill="none" stroke="black" stroke-width="1" stroke-linecap="square" stroke-miterlimit="4" transform="translate(0.5 0.5)" d="M233 2213L237 2213"/>
		<path fill="none" stroke="black" stroke-width="1" stroke-linecap="square" stroke-miterlimit="4" transform="translate(0.5 0.5)" d="M233 2215L237 2215"/>
		<path fill="none" stroke="black" stroke-width="2" stroke-miterlimit="4" transform="translate(0.5 0.5)" d="M233 2227L237 2223"/>
		<path fill="none" stroke="black" stroke-width="1" stroke-linecap="square" stroke-miterlimit="4" transform="translate(0.5 0.5)" d="M234 2223L237 2223L237 2226"/>
		<rect fill="none" stroke="black" stroke-width="1" stroke-linecap="square" stroke-miterlimit="4" transform="translate(0.5 0.5)" x="231" y="2209" width="97" height="20"/>
		<rect x="323" y="2214" width="11" height="11"/>
		<rect fill="white" x="324" y="2215" width="9" height="9"/>
		<rect x="325" y="2219" width="7" height="1"/>
		<rect x="328" y="2216" width="1" height="7"/>
		<rect x="196" y="2182" width="11" height="11"/>
		<rect fill="white" x="197" y="2183" width="9" height="9"/>
		<rect x="198" y="2187" width="7" height="1"/>
		<path fill="none" stroke="black" stroke-width="1" stroke-linecap="square" stroke-miterlimit="4" transform="translate(0.5 0.5)" d="M207 2429L215 2429"/>
		<path fill="none" stroke="black" stroke-width="1" stroke-linecap="square" stroke-miterlimit="4" transform="translate(0.5 0.5)" d="M216 2429L216 2331"/>
		<path fill="none" stroke="black" stroke-width="1" stroke-linecap="square" stroke-miterlimit="4" transform="translate(0.5 0.5)" d="M216 2429L216 2527"/>
		<path fill="none" stroke="black" stroke-width="1" stroke-linecap="square" stroke-miterlimit="4" transform="translate(0.5 0.5)" d="M216 2330L230 2330"/>
		<path fill="none" stroke="black" stroke-width="1" stroke-linecap="square" stroke-miterlimit="4" transform="translate(0.5 0.5)" d="M216 2441L230 2441"/>
		<path fill="none" stroke="black" stroke-width="1" stroke-linecap="square" stroke-miterlimit="4" transform="translate(0.5 0.5)" d="M216 2528L230 2528"/>
		<path fill="silver" d="M169 2431L174 2426L199 2426L204 2431L204 2442L199 2447L174 2447L169 2442L169 2431Z"/>
		<path fill="white" d="M165 2427L170 2422L194 2422L199 2427L199 2437L194 2442L170 2442L165 2437L165 2427Z"/>
		<path transform="translate(0.5 0.5)" d="M168.889 2422.4L169.793 2421.5L170.929 2421.5L171.429 2421.5L171.429 2422.5L170.929 2422.5L170 2422.5L170 2422L170.354 2422.35L169.243 2423.46L168.536 2422.76L168.889 2422.4ZM174.929 2421.5L176.929 2421.5L177.429 2421.5L177.429 2422.5L176.929 2422.5L174.429 2422.5L174.429 2421.5L174.929 2421.5ZM180.929 2421.5L182.929 2421.5L183.429 2421.5L183.429 2422.5L182.929 2422.5L180.429 2422.5L180.429 2421.5L180.929 2421.5ZM186.929 2421.5L188.929 2421.5L189.429 2421.5L189.429 2422.5L188.929 2422.5L186.429 2422.5L186.429 2421.5L186.929 2421.5ZM192.929 2421.5L194.207 2421.5L195.01 2422.3L195.364 2422.66L194.657 2423.36L194.303 2423.01L193.646 2422.35L194 2422L194 2422.5L192.429 2422.5L192.429 2421.5L192.929 2421.5ZM197.839 2425.13L199.253 2426.55L199.607 2426.9L198.9 2427.61L198.546 2427.25L196.778 2425.49L197.485 2424.78L197.839 2425.13ZM199.5 2430.86L199.5 2432.86L199.5 2433.36L198.5 2433.36L198.5 2432.86L198.5 2430.36L199.5 2430.36L199.5 2430.86ZM199.5 2436.86L199.5 2437.21L198.04 2438.67L197.686 2439.02L196.979 2438.31L197.333 2437.96L198.646 2436.65L199 2437L198.5 2437L198.5 2436.36L199.5 2436.36L199.5 2436.86ZM195.211 2441.5L194.207 2442.5L193.213 2442.5L192.713 2442.5L192.713 2441.5L193.213 2441.5L194 2441.5L194 2442L193.646 2441.65L194.858 2440.44L195.565 2441.14L195.211 2441.5ZM189.213 2442.5L187.213 2442.5L186.713 2442.5L186.713 2441.5L187.213 2441.5L189.713 2441.5L189.713 2442.5L189.213 2442.5ZM183.213 2442.5L181.213 2442.5L180.713 2442.5L180.713 2441.5L181.213 2441.5L183.713 2441.5L183.713 2442.5L183.213 2442.5ZM177.213 2442.5L175.213 2442.5L174.713 2442.5L174.713 2441.5L175.213 2441.5L177.713 2441.5L177.713 2442.5L177.213 2442.5ZM171.213 2442.5L169.793 2442.5L169.09 2441.8L168.737 2441.44L169.444 2440.74L169.797 2441.09L170.354 2441.65L170 2442L170 2441.5L171.713 2441.5L171.713 2442.5L171.213 2442.5ZM166.262 2438.97L164.847 2437.55L164.494 2437.2L165.201 2436.49L165.555 2436.85L167.322 2438.62L166.615 2439.32L166.262 2438.97ZM164.5 2433.28L164.5 2431.28L164.5 2430.78L165.5 2430.78L165.5 2431.28L165.5 2433.78L164.5 2433.78L164.5 2433.28ZM164.5 2427.28L164.5 2426.79L166.414 2424.88L167.121 2425.59L165.354 2427.35L165 2427L165.5 2427L165.5 2427.78L164.5 2427.78L164.5 2427.28Z"/>
		<path fill="white" d="M162 2424L167 2419L192 2419L197 2424L197 2435L192 2440L167 2440L162 2435L162 2424Z"/>
		<path fill="none" stroke="black" stroke-width="1" stroke-linecap="square" stroke-miterlimit="4" transform="translate(0.5 0.5)" d="M181 2440L187 2446L190 2443"/>
		<path fill="none" stroke="black" stroke-width="1" stroke-linecap="square" stroke-miterlimit="4" transform="translate(0.5 0.5)" d="M167 2429L172 2429L176 2425"/>
		<path fill="none" stroke="black" stroke-width="1" stroke-linecap="square" stroke-miterlimit="4" transform="translate(0.5 0.5)" d="M182 2429L190 2429"/>
		<path fill="none" stroke="black" stroke-width="1" stroke-linecap="square" stroke-miterlimit="4" transform="translate(0.5 0.5)" d="M182 2425L186 2425L186 2433L182 2433"/>
		<rect x="178" y="2424" width="3" height="3"/>
		<rect x="178" y="2428" width="3" height="3"/>
		<rect x="178" y="2432" width="3" height="3"/>
		<text font-size="12" font-family="Segoe UI" x="166.76562, " y="2459, ">
				0
		</text>
		<text font-size="12" font-family="Symbol" x="181.72266, " y="2458, ">
				
		</text>
		<text font-size="12" font-family="Segoe UI" x="174.89844, 177.5, " y="2459, ">
				..
		</text>
		<path transform="translate(0.5 0.5)" d="M165.889 2419.4L166.793 2418.5L167.929 2418.5L168.429 2418.5L168.429 2419.5L167.929 2419.5L167 2419.5L167 2419L167.354 2419.35L166.243 2420.46L165.536 2419.76L165.889 2419.4ZM171.929 2418.5L173.929 2418.5L174.429 2418.5L174.429 2419.5L173.929 2419.5L171.429 2419.5L171.429 2418.5L171.929 2418.5ZM177.929 2418.5L179.929 2418.5L180.429 2418.5L180.429 2419.5L179.929 2419.5L177.429 2419.5L177.429 2418.5L177.929 2418.5ZM183.929 2418.5L185.929 2418.5L186.429 2418.5L186.429 2419.5L185.929 2419.5L183.429 2419.5L183.429 2418.5L183.929 2418.5ZM189.929 2418.5L191.207 2418.5L192.01 2419.3L192.364 2419.66L191.657 2420.36L191.303 2420.01L190.646 2419.35L191 2419L191 2419.5L189.429 2419.5L189.429 2418.5L189.929 2418.5ZM194.839 2422.13L196.253 2423.55L196.607 2423.9L195.9 2424.61L195.546 2424.25L193.778 2422.49L194.485 2421.78L194.839 2422.13ZM196.5 2427.86L196.5 2429.86L196.5 2430.36L195.5 2430.36L195.5 2429.86L195.5 2427.36L196.5 2427.36L196.5 2427.86ZM196.5 2433.86L196.5 2434.21L195.04 2435.67L194.686 2436.02L193.979 2435.31L194.333 2434.96L195.646 2433.65L196 2434L195.5 2434L195.5 2433.36L196.5 2433.36L196.5 2433.86ZM192.211 2438.5L191.207 2439.5L190.213 2439.5L189.713 2439.5L189.713 2438.5L190.213 2438.5L191 2438.5L191 2439L190.646 2438.65L191.858 2437.44L192.565 2438.14L192.211 2438.5ZM186.213 2439.5L184.213 2439.5L183.713 2439.5L183.713 2438.5L184.213 2438.5L186.713 2438.5L186.713 2439.5L186.213 2439.5ZM180.213 2439.5L178.213 2439.5L177.713 2439.5L177.713 2438.5L178.213 2438.5L180.713 2438.5L180.713 2439.5L180.213 2439.5ZM174.213 2439.5L172.213 2439.5L171.713 2439.5L171.713 2438.5L172.213 2438.5L174.713 2438.5L174.713 2439.5L174.213 2439.5ZM168.213 2439.5L166.793 2439.5L166.09 2438.8L165.737 2438.44L166.444 2437.74L166.797 2438.09L167.354 2438.65L167 2439L167 2438.5L168.713 2438.5L168.713 2439.5L168.213 2439.5ZM163.262 2435.97L161.847 2434.55L161.494 2434.2L162.201 2433.49L162.555 2433.85L164.322 2435.62L163.615 2436.32L163.262 2435.97ZM161.5 2430.28L161.5 2428.28L161.5 2427.78L162.5 2427.78L162.5 2428.28L162.5 2430.78L161.5 2430.78L161.5 2430.28ZM161.5 2424.28L161.5 2423.79L163.414 2421.88L164.121 2422.59L162.354 2424.35L162 2424L162.5 2424L162.5 2424.78L161.5 2424.78L161.5 2424.28Z"/>
		<rect fill="silver" x="235" y="2324" width="52" height="21"/>
		<rect fill="white" x="231" y="2320" width="52" height="21"/>
		<rect fill="#FFFFC0" x="236" y="2347" width="121" height="72"/>
		<text fill="gray" font-size="9" font-family="Segoe UI" x="236, 238.39502, 243.48828, 245.95361, 252.68604, 258.49121, 263.87451, 266.33984, 271.19141, 273.14258, 277.99414, 280.45947, 285.03857, 290.13184, 295.43164, 297.89697, 300.07666, 304.65576, 307.70557, 312.41211, 315.54102, 317.49219, 319.95752, 322.77441, 327.35352, 331.51074, 336.21729, 339.26709, 341.73242, 343.91211, " y="2357, ">
				In NAR 1.8 and later, facet is
		</text>
		<text fill="gray" font-size="9" font-family="Segoe UI" x="236, 241.2998, 246.00635, 251.29736, 254.42627, 259.13281, 263.29004, 267.86914, 270.91895, 275.62549, 280.92529, 283.39062, 287.96973, 293.06299, 298.36279, 300.82812, 305.60938, 311.99902, 318.78418, 324.96729, 329.20361, 335.51416, 337.97949, 344.71191, 351.09277, " y="2369, ">
				deprecated and SHOULD NOT
		</text>
		<text fill="gray" font-size="9" font-family="Segoe UI" x="236, 238.71582, 242.53467, 247.24121, 251.94775, 254.41309, 259.79639, 264.19092, 269.76318, 272.22852, 277.08008, 281.93164, 286.7832, 291.63477, 294.35059, 296.81592, 302.10693, 306.81348, 309.27881, 314.37207, 318.19092, 322.89746, 328.19727, 330.14844, 332.61377, 335.66357, 340.75684, " y="2381, ">
				(see RFC 2119) be used, the
		</text>
		<text fill="gray" font-size="9" font-family="Segoe UI" x="236, 239.52881, 242.65771, 247.36426, 249.54395, 254.12305, 257.17285, 261.87939, 267.1792, 270.70801, 273.17334, 278.46436, 281.59326, 286.8667, 292.15771, 296.86426, 299.99316, 303.04297, 307.39795, 309.86328, 313.68213, 318.77539, 324.04883, 329.14209, 331.32178, 336.62158, 339.08691, 344.37793, " y="2393, ">
				&quot;related&quot; property should be
		</text>
		<text fill="gray" font-size="9" font-family="Segoe UI" x="236, 241.09326, 244.91211, 249.61865, 254.91846, 257.38379, 259.56348, 264.65674, 268.47559, 271.52539, 276.23193, 280.81104, 286.11084, 288.57617, 291.29199, 297.7959, 302.375, 306.19385, 308.14502, 310.61035, 316.41553, 321.50879, 323.97412, 326.15381, 331.24707, 334.29688, 337.42578, 339.60547, 344.69873, 348.51758, 350.69727, " y="2405, ">
				used instead (was: An intrinsic
		</text>
		<text fill="gray" font-size="9" font-family="Segoe UI" x="236, 241.29102, 244.41992, 249.69336, 254.98438, 259.69092, 262.81982, 265.86963, 270.22461, 272.68994, 277.96338, 280.78027, 283.24561, 286.29541, 291.38867, 296.09521, 298.56055, 302.71777, 307.99121, 313.08447, 317.2417, 321.94824, 327.23926, 330.28906, 332.24023, " y="2417, ">
				property of the concept.)
		</text>
		<rect fill="white" x="240" y="2322" width="31" height="16"/>
		<text font-size="12" font-weight="600" font-family="Segoe UI" x="240, 244.59961, 251.05664, 256.81641, 263.30859, " y="2335, ">
				facet
		</text>
		<path fill="none" stroke="black" stroke-width="2" stroke-miterlimit="4" transform="translate(0.5 0.5)" d="M233 2338L237 2334"/>
		<path fill="none" stroke="black" stroke-width="1" stroke-linecap="square" stroke-miterlimit="4" transform="translate(0.5 0.5)" d="M234 2334L237 2334L237 2337"/>
		<rect fill="none" stroke="black" stroke-width="1" stroke-linecap="square" stroke-miterlimit="4" transform="translate(0.5 0.5)" x="231" y="2320" width="51" height="20"/>
		<rect x="277" y="2325" width="11" height="11"/>
		<rect fill="white" x="278" y="2326" width="9" height="9"/>
		<rect x="279" y="2330" width="7" height="1"/>
		<rect x="282" y="2327" width="1" height="7"/>
		<rect fill="silver" x="235" y="2435" width="62" height="21"/>
		<rect fill="white" x="231" y="2431" width="62" height="21"/>
		<rect fill="#FFFFC0" x="236" y="2458" width="115" height="48"/>
		<text fill="gray" font-size="9" font-family="Segoe UI" x="236, 241.80518, 244.27051, 247.39941, 252.10596, 254.28564, 258.86475, 261.91455, 266.62109, 271.9209, 274.38623, 278.54346, 283.81689, 288.91016, 293.06738, 297.77393, 303.06494, 306.11475, 308.06592, 310.53125, 317.03516, 322.12842, 326.83496, 329.96387, 334.67041, 337.13574, 340.18555, 345.27881, " y="2468, ">
				A related concept, where the
		</text>
		<text fill="gray" font-size="9" font-family="Segoe UI" x="236, 239.12891, 243.83545, 246.01514, 250.59424, 253.64404, 255.82373, 261.09717, 266.19043, 270.00928, 275.10254, 277.28223, 282.57324, 285.03857, 287.21826, 291.03711, 293.50244, 298.80225, 300.98193, 303.79883, 306.61572, 311.32227, 314.45117, 319.15771, 324.25098, 327.30078, 329.76611, 332.58301, 335.71191, 340.98535, " y="2480, ">
				relationship is different from
		</text>
		<text fill="gray" font-size="9" font-family="Segoe UI" x="236, 238.06982, 241.88867, 246.46777, 254.21973, 258.92627, 264.73145, 268.55029, 270.62012, 272.57129, 275.03662, 277.10645, 282.39746, 285.52637, 290.7998, 295.37891, 300.67871, 305.38525, 308.51416, 310.58398, 313.04932, 318.32275, " y="2492, ">
				&apos;sameAs&apos;, &apos;broader&apos; or
		</text>
		<text fill="gray" font-size="9" font-family="Segoe UI" x="236, 238.06982, 243.16309, 247.74219, 250.87109, 254, 259.27344, 265.77734, 270.48389, 273.61279, 275.68262, " y="2504, ">
				&apos;narrower&apos;.
		</text>
		<rect fill="white" x="240" y="2433" width="41" height="16"/>
		<text font-size="12" font-weight="600" font-family="Segoe UI" x="240, 244.72852, 251.2207, 254.63086, 261.08789, 265.71094, 272.20312, " y="2446, ">
				related
		</text>
		<rect fill="none" stroke="black" stroke-width="1" stroke-linecap="square" stroke-miterlimit="4" transform="translate(0.5 0.5)" x="231" y="2431" width="61" height="20"/>
		<rect x="287" y="2436" width="11" height="11"/>
		<rect fill="white" x="288" y="2437" width="9" height="9"/>
		<rect x="289" y="2441" width="7" height="1"/>
		<rect x="292" y="2438" width="1" height="7"/>
		<rect fill="silver" x="235" y="2522" width="65" height="21"/>
		<rect fill="white" x="231" y="2518" width="65" height="21"/>
		<rect fill="#FFFFC0" x="236" y="2545" width="121" height="24"/>
		<text fill="gray" font-size="9" font-family="Segoe UI" x="236, 241.80518, 246.89844, 249.36377, 251.54346, 256.84326, 261.5498, 266.64307, 269.69287, 271.87256, 274.68945, 276.86914, 281.57568, 284.70459, 287.16992, 292.44336, 295.26025, 297.72559, 302.30469, 304.77002, 308.92725, 314.20068, 319.29395, 323.45117, 328.15771, 333.44873, 336.49854, 338.96387, 345.46777, 347.64746, 350.69727, " y="2555, ">
				An identifier of a concept with
		</text>
		<text fill="gray" font-size="9" font-family="Segoe UI" x="236, 240.70654, 246.00635, 251.09961, 253.2793, 257.59033, 262.16943, 264.34912, 269.05566, 274.14893, 277.19873, 279.66406, 283.48291, 288.18945, 295.94141, 300.52051, 305.61377, 308.66357, 310.84326, 315.00049, " y="2567, ">
				equivalent semantics
		</text>
		<rect fill="white" x="240" y="2520" width="44" height="16"/>
		<text font-size="12" font-weight="600" font-family="Segoe UI" x="240, 245.2793, 251.73633, 262.72852, 269.2207, 277.6582, " y="2533, ">
				sameAs
		</text>
		<path fill="none" stroke="black" stroke-width="2" stroke-miterlimit="4" transform="translate(0.5 0.5)" d="M233 2536L237 2532"/>
		<path fill="none" stroke="black" stroke-width="1" stroke-linecap="square" stroke-miterlimit="4" transform="translate(0.5 0.5)" d="M234 2532L237 2532L237 2535"/>
		<rect fill="none" stroke="black" stroke-width="1" stroke-linecap="square" stroke-miterlimit="4" transform="translate(0.5 0.5)" x="231" y="2518" width="64" height="20"/>
		<rect x="290" y="2523" width="11" height="11"/>
		<rect fill="white" x="291" y="2524" width="9" height="9"/>
		<rect x="292" y="2528" width="7" height="1"/>
		<rect x="295" y="2525" width="1" height="7"/>
		<rect x="196" y="2424" width="11" height="11"/>
		<rect fill="white" x="197" y="2425" width="9" height="9"/>
		<rect x="198" y="2429" width="7" height="1"/>
		<rect x="91" y="1752" width="11" height="11"/>
		<rect fill="white" x="92" y="1753" width="9" height="9"/>
		<rect x="93" y="1757" width="7" height="1"/>
	</g>
</svg>
