<?xml version="1.0" encoding="utf-8" ?>
<svg xmlns="http://www.w3.org/2000/svg" xmlns:xlink="http://www.w3.org/1999/xlink" width="414" height="1887">
	<clipPath id="cl_19f">
		<rect x="-10" y="-5" width="414" height="1887"/>
	</clipPath>
	<g clip-path="url(#cl_19f)">
		<path fill="none" stroke="black" stroke-width="1" stroke-linecap="square" stroke-miterlimit="4" transform="translate(0.5 0.5)" d="M83 1152L91 1152"/>
		<path fill="none" stroke="black" stroke-width="1" stroke-linecap="square" stroke-miterlimit="4" transform="translate(0.5 0.5)" d="M92 1152L92 728"/>
		<path fill="none" stroke="black" stroke-width="1" stroke-linecap="square" stroke-miterlimit="4" transform="translate(0.5 0.5)" d="M92 1152L92 1577"/>
		<path fill="none" stroke="black" stroke-width="1" stroke-linecap="square" stroke-miterlimit="4" transform="translate(0.5 0.5)" d="M92 1578L106 1578"/>
		<path fill="none" stroke="black" stroke-width="1" stroke-linecap="square" stroke-miterlimit="4" transform="translate(0.5 0.5)" d="M92 727L106 727"/>
		<rect fill="silver" x="7" y="1149" width="78" height="21"/>
		<rect fill="white" x="3" y="1145" width="78" height="21"/>
		<rect fill="none" stroke="black" stroke-width="1" stroke-linecap="square" stroke-miterlimit="4" transform="translate(0.5 0.5)" x="3" y="1145" width="77" height="20"/>
		<rect fill="white" y="1142" width="78" height="21"/>
		<path fill="none" stroke="black" stroke-width="1" stroke-linecap="square" stroke-miterlimit="4" transform="translate(0.5 0.5)" d="M63 1163L69 1169L72 1166"/>
		<rect fill="white" x="9" y="1144" width="57" height="16"/>
		<text font-size="12" font-weight="600" font-family="Segoe UI" x="9, 16.441406, 23.701172, 31.142578, 34.552734, 37.962891, 43.242188, 50.466797, 56.958984, " y="1157, ">
				published
		</text>
		<text font-size="12" font-family="Segoe UI" x="48.765625, " y="1182, ">
				1
		</text>
		<text font-size="12" font-family="Symbol" x="63.722656, " y="1181, ">
				¥
		</text>
		<text font-size="12" font-family="Segoe UI" x="56.898438, 59.5, " y="1182, ">
				..
		</text>
		<rect fill="none" stroke="black" stroke-width="1" stroke-linecap="square" stroke-miterlimit="4" transform="translate(0.5 0.5)" y="1142" width="77" height="20"/>
		<path fill="white" d="M184 19L184 0L107 0L107 19L107 1453L320 1453L320 19L184 19Z"/>
		<rect fill="white" x="127" y="2" width="51" height="16"/>
		<text font-size="12" font-style="italic" font-family="Segoe UI" x="127, 133.50391, 137.38281, 141.26172, 145.5332, 148.63867, 155.14258, 161.83984, 165.73047, 171.57227, " y="15, ">
				attributes
		</text>
		<path fill="none" stroke="black" stroke-width="1" stroke-linecap="square" stroke-miterlimit="4" transform="translate(0.5 0.5)" d="M184 19L184 0L107 0L107 19L107 1453L320 1453L320 19L184 19Z"/>
		<path fill="white" d="M312 47L312 28L121 28L121 47L121 1150L312 1150L312 47Z"/>
		<rect fill="white" x="126" y="1153" width="179" height="48"/>
		<text fill="gray" font-size="9" font-family="Segoe UI" x="126, 131.80518, 134.27051, 139.57031, 142.69922, 147.97266, 153.06592, 158.35693, 160.82227, 166.0957, 168.9126, 171.37793, 175.95703, 179.00684, 182.05664, 185.18555, 187.36523, 192.65625, 197.74951, 200.79932, 205.50586, 209.32471, 211.79004, 214.60693, 219.88037, 223.00928, 225.47461, 230.05371, 232.2334, 234.41309, 236.87842, 241.58496, 243.76465, 248.47119, 256.22314, 260.92969, 266.02295, 269.07275, 272.8916, 275.35693, 280.63037, 283.44727, 285.9126, 290.4917, 292.95703, 299.13135, " y="1163, ">
				A group of attributes for all elements of a G2
		</text>
		<text fill="gray" font-size="9" font-family="Segoe UI" x="126, 128.39502, 131.44482, 136.15137, 143.90332, 146.36865, 151.0752, 155.20605, 159.36328, 164.06982, 169.36084, 172.41064, 174.87598, 177.05566, 180.10547, 183.92432, 186.38965, 189.51855, 194.79199, 200.06543, 203.11523, 205.58057, 210.28711, 212.4668, 217.17334, 224.92529, 229.63184, 234.7251, 237.7749, 239.72607, 242.19141, 245.24121, 250.33447, 255.04102, 257.50635, 259.68604, 262.73584, 267.44238, 275.19434, 283.27588, 287.98242, 291.03223, " y="1175, ">
				Item except its root element, the itemMeta
		</text>
		<text fill="gray" font-size="9" font-family="Segoe UI" x="126, 130.70654, 132.88623, 137.59277, 145.34473, 150.05127, 155.14453, 158.19434, 160.65967, 165.23877, 170.33203, 175.63184, 178.09717, 182.67627, 184.85596, 187.03564, 189.50098, 194.77441, 197.59131, 200.05664, 202.23633, 205.28613, 209.10498, 211.57031, 215.72754, 220.8208, 223.00049, 225.18018, 230.47998, 233.60889, 238.31543, 243.40869, 245.87402, 252.37793, 257.47119, 259.65088, 263.80811, 268.90137, 271.3667, 275.9458, 279.07471, " y="1187, ">
				element and all of its children which are
		</text>
		<text fill="gray" font-size="9" font-family="Segoe UI" x="126, 133.75195, 138.33105, 143.42432, 148.72412, 153.30322, 156.35303, 161.62646, 164.75537, 169.11035, " y="1199, ">
				mandatory.
		</text>
		<rect fill="white" x="163" y="30" width="143" height="16"/>
		<text font-size="12" font-weight="600" font-family="Segoe UI" x="163, 168.75977, 176.0957, 187.08789, 198.08008, 205.41602, 212.67578, 219.68945, 227.02539, 236.53516, 243.02734, 247.80273, 256, 260.66992, 265.33984, 270.16211, 273.57227, 281.01367, 288.27344, 292.89648, 299.38867, " y="43, ">
				commonPowerAttributes
		</text>
		<rect fill="white" x="141" y="30" width="20" height="16"/>
		<text fill="gray" font-size="12" font-family="Segoe UI" x="141, 148.06641, 152.23828, " y="43, ">
				grp
		</text>
		<path fill="none" stroke="gray" stroke-width="1" stroke-linecap="square" stroke-miterlimit="4" transform="translate(0.5 0.5)" d="M121 47L121 1150L312 1150L312 47L312 47"/>
		<path fill="none" stroke="black" stroke-width="1" stroke-linecap="square" stroke-miterlimit="4" transform="translate(0.5 0.5)" d="M312 47L312 28L121 28L121 47"/>
		<rect x="126" y="33" width="11" height="11"/>
		<rect fill="white" x="127" y="34" width="9" height="9"/>
		<rect x="128" y="38" width="7" height="1"/>
		<rect fill="silver" x="133" y="61" width="52" height="21"/>
		<rect fill="white" x="129" y="57" width="52" height="21"/>
		<rect fill="white" x="134" y="84" width="101" height="24"/>
		<text fill="gray" font-size="9" font-family="Segoe UI" x="134, 138.71533, 143.80859, 148.51514, 150.98047, 153.16016, 158.43359, 162.59082, 167.16992, 169.34961, 171.81494, 173.99463, 179.29443, 184.00098, 189.09424, 192.14404, 194.32373, 197.14062, 199.32031, 204.02686, 207.15576, 209.62109, 214.89453, 217.71143, 220.17676, 223.22656, 228.31982, " y="94, ">
				The local identifier of the
		</text>
		<text fill="gray" font-size="9" font-family="Segoe UI" x="134, 139.29102, 142.41992, 147.69336, 152.98438, 157.69092, 160.81982, 163.86963, 168.22461, " y="106, ">
				property.
		</text>
		<rect fill="white" x="138" y="59" width="36" height="16"/>
		<text font-size="12" font-weight="600" font-family="Segoe UI" x="138, 141.41016, " y="72, ">
				id
		</text>
		<rect fill="none" stroke="black" stroke-width="1" stroke-linecap="square" stroke-miterlimit="4" transform="translate(0.5 0.5)" x="129" y="57" width="51" height="20"/>
		<rect fill="silver" x="133" y="119" width="58" height="21"/>
		<rect fill="white" x="129" y="115" width="58" height="21"/>
		<rect fill="white" x="134" y="142" width="121" height="120"/>
		<text fill="gray" font-size="9" font-family="Segoe UI" x="134, 136.39502, 139.21191, 141.67725, 144.72705, 149.82031, 154.52686, 156.99219, 162.2832, 165.41211, 170.68555, 175.97656, 180.68311, 183.81201, 186.86182, 191.2168, 193.68213, 197.99316, 202.57227, 204.75195, 209.84521, 214.55176, 217.01709, 219.19678, 223.01562, 225.48096, 230.57422, 235.84766, " y="152, ">
				If the property value is not
		</text>
		<text fill="gray" font-size="9" font-family="Segoe UI" x="134, 139.2998, 144.00635, 146.82324, 149.00293, 154.09619, 158.80273, 164.10254, 166.05371, 168.51904, 172.33789, 177.62891, 182.33545, 186.49268, 188.67236, 191.48926, 193.66895, 198.37549, 202.19434, 204.65967, 211.16357, 216.25684, 218.43652, 222.59375, 227.68701, 230.15234, 234.85889, 239.95215, 243.00195, 245.18164, 248.23145, " y="164, ">
				defined, specifies which entity
		</text>
		<text fill="gray" font-size="9" font-family="Segoe UI" x="134, 136.71582, 142.00684, 146.71338, 149.84229, 153.66113, 158.93457, 164.02783, 165.979, 168.44434, 173.71777, 176.84668, 182.14648, 186.72559, 191.81885, 193.99854, 197.81738, 202.39648, 205.44629, 207.62598, 212.89941, 217.99268, 220.45801, 225.73145, " y="176, ">
				(person, organisation or
		</text>
		<text fill="gray" font-size="9" font-family="Segoe UI" x="134, 137.81885, 142.17383, 145.99268, 149.04248, 153.74902, 161.50098, 164.2168, 166.68213, 173.18604, 175.36572, 177.54541, 179.7251, 182.19043, 186.89697, 192.19678, 194.37646, 197.42627, 199.8916, 202.94141, 208.03467, 212.74121, 215.20654, 220.49756, 223.62646, 228.8999, 234.19092, 238.89746, 242.02637, 245.07617, " y="188, ">
				system) will edit the property
		</text>
		<text fill="gray" font-size="9" font-family="Segoe UI" x="134, 138.31104, 142.89014, 145.06982, 150.16309, 154.86963, 157.33496, 160.93408, 163.39941, 168.10596, 172.23682, 177.52783, 180.65674, 185.36328, 189.18213, 193.00098, 197.70752, 203.00732, 205.47266, 210.76367, 215.11865, 217.58398, 222.16309, 224.62842, 231.41357, 236.98584, 242.25928, 247.55908, 252.26562, " y="200, ">
				value - expressed by a QCode.
		</text>
		<text fill="gray" font-size="9" font-family="Segoe UI" x="134, 136.39502, 139.21191, 141.67725, 144.72705, 149.82031, 154.52686, 156.99219, 162.2832, 165.41211, 170.68555, 175.97656, 180.68311, 183.81201, 186.86182, 191.2168, 193.68213, 197.99316, 202.57227, 204.75195, 209.84521, 214.55176, 217.01709, 219.19678, " y="212, ">
				If the property value is
		</text>
		<text fill="gray" font-size="9" font-family="Segoe UI" x="134, 139.2998, 144.00635, 146.82324, 149.00293, 154.09619, 158.80273, 164.10254, 166.05371, 168.51904, 172.33789, 177.62891, 182.33545, 186.49268, 188.67236, 191.48926, 193.66895, 198.37549, 202.19434, 204.65967, 211.16357, 216.25684, 218.43652, 222.59375, 227.68701, 230.15234, 234.85889, 239.95215, 243.00195, 245.18164, 248.23145, " y="224, ">
				defined, specifies which entity
		</text>
		<text fill="gray" font-size="9" font-family="Segoe UI" x="134, 136.71582, 142.00684, 146.71338, 149.84229, 153.66113, 158.93457, 164.02783, 165.979, 168.44434, 173.71777, 176.84668, 182.14648, 186.72559, 191.81885, 193.99854, 197.81738, 202.39648, 205.44629, 207.62598, 212.89941, 217.99268, 220.45801, 225.73145, " y="236, ">
				(person, organisation or
		</text>
		<text fill="gray" font-size="9" font-family="Segoe UI" x="134, 137.81885, 142.17383, 145.99268, 149.04248, 153.74902, 161.50098, 164.2168, 166.68213, 171.77539, 176.35449, 180.17334, 182.63867, 187.34521, 192.64502, 194.82471, 197.87451, 202.58105, 207.88086, 210.34619, 213.396, 218.48926, " y="248, ">
				system) has edited the
		</text>
		<text fill="gray" font-size="9" font-family="Segoe UI" x="134, 139.29102, 142.41992, 147.69336, 152.98438, 157.69092, 160.81982, 163.86963, 168.22461, 170.68994, 175.00098, 179.58008, 181.75977, 186.85303, 191.55957, " y="260, ">
				property value.
		</text>
		<rect fill="white" x="138" y="117" width="42" height="16"/>
		<text font-size="12" font-weight="600" font-family="Segoe UI" x="138, 143.75977, 148.48828, 154.98047, 161.4375, 166.06055, 173.39648, " y="130, ">
				creator
		</text>
		<rect fill="none" stroke="black" stroke-width="1" stroke-linecap="square" stroke-miterlimit="4" transform="translate(0.5 0.5)" x="129" y="115" width="57" height="20"/>
		<rect fill="silver" x="133" y="273" width="73" height="21"/>
		<rect fill="white" x="129" y="269" width="73" height="21"/>
		<rect fill="white" x="134" y="296" width="120" height="108"/>
		<text fill="gray" font-size="9" font-family="Segoe UI" x="134, 136.39502, 139.21191, 141.67725, 144.72705, 149.82031, 154.52686, 156.99219, 162.2832, 165.41211, 170.68555, 175.97656, 180.68311, 183.81201, 186.86182, 191.2168, 193.68213, 197.99316, 202.57227, 204.75195, 209.84521, 214.55176, 217.01709, 219.19678, 223.01562, 225.48096, 230.57422, 235.84766, " y="306, ">
				If the property value is not
		</text>
		<text fill="gray" font-size="9" font-family="Segoe UI" x="134, 139.2998, 144.00635, 146.82324, 149.00293, 154.09619, 158.80273, 164.10254, 166.05371, 168.51904, 172.33789, 177.62891, 182.33545, 186.49268, 188.67236, 191.48926, 193.66895, 198.37549, 202.19434, 204.65967, 211.16357, 216.25684, 218.43652, 222.59375, 227.68701, 230.15234, 234.85889, 239.95215, 243.00195, 245.18164, 248.23145, " y="318, ">
				defined, specifies which entity
		</text>
		<text fill="gray" font-size="9" font-family="Segoe UI" x="134, 136.71582, 142.00684, 146.71338, 149.84229, 153.66113, 158.93457, 164.02783, 165.979, 168.44434, 173.71777, 176.84668, 182.14648, 186.72559, 191.81885, 193.99854, 197.81738, 202.39648, 205.44629, 207.62598, 212.89941, 217.99268, 220.45801, 225.73145, " y="330, ">
				(person, organisation or
		</text>
		<text fill="gray" font-size="9" font-family="Segoe UI" x="134, 137.81885, 142.17383, 145.99268, 149.04248, 153.74902, 161.50098, 164.2168, 166.68213, 173.18604, 175.36572, 177.54541, 179.7251, 182.19043, 186.89697, 192.19678, 194.37646, 197.42627, 199.8916, 202.94141, 208.03467, 212.74121, 215.20654, 220.49756, 223.62646, 228.8999, 234.19092, 238.89746, 242.02637, 245.07617, " y="342, ">
				system) will edit the property
		</text>
		<text fill="gray" font-size="9" font-family="Segoe UI" x="134, 137.59912, 140.06445, 144.771, 148.90186, 154.19287, 157.32178, 162.02832, 165.84717, 169.66602, 174.37256, 179.67236, 182.1377, 187.42871, 191.78369, 194.24902, 198.82812, 201.29346, 207.47656, 212.85986, 215.25488, 217.20605, 219.67139, 222.06641, 224.8833, 227.34863, 230.39844, 235.4917, " y="354, ">
				- expressed by a URI. If the
		</text>
		<text fill="gray" font-size="9" font-family="Segoe UI" x="134, 139.29102, 142.41992, 147.69336, 152.98438, 157.69092, 160.81982, 163.86963, 168.22461, 170.68994, 175.00098, 179.58008, 181.75977, 186.85303, 191.55957, 194.0249, 196.20459, 200.02344, 202.48877, 207.78857, 212.49512, 215.31201, 217.4917, 222.58496, 227.2915, 232.59131, " y="366, ">
				property value is defined,
		</text>
		<text fill="gray" font-size="9" font-family="Segoe UI" x="134, 137.81885, 143.10986, 147.81641, 151.97363, 154.15332, 156.97021, 159.1499, 163.85645, 167.67529, 170.14062, 176.64453, 181.73779, 183.91748, 188.07471, 193.16797, 195.6333, 200.33984, 205.43311, 208.48291, 210.6626, 213.7124, 218.06738, 220.53271, 223.24854, 228.53955, 233.24609, 236.375, 240.19385, 245.46729, 250.56055, " y="378, ">
				specifies which entity (person,
		</text>
		<text fill="gray" font-size="9" font-family="Segoe UI" x="134, 139.27344, 142.40234, 147.70215, 152.28125, 157.37451, 159.5542, 163.37305, 167.95215, 171.00195, 173.18164, 178.45508, 183.54834, 186.01367, 191.28711, 194.41602, 196.88135, 200.7002, 205.05518, 208.87402, 211.92383, 216.63037, 224.38232, 227.09814, 229.56348, 234.65674, 239.23584, " y="390, ">
				organisation or system) has
		</text>
		<text fill="gray" font-size="9" font-family="Segoe UI" x="134, 138.70654, 144.00635, 146.18604, 149.23584, 153.94238, 159.24219, 161.70752, 164.75732, 169.85059, 174.55713, 177.02246, 182.31348, 185.44238, 190.71582, 196.00684, 200.71338, 203.84229, 206.89209, 211.24707, " y="402, ">
				edited the property.
		</text>
		<rect fill="white" x="138" y="271" width="57" height="16"/>
		<text font-size="12" font-weight="600" font-family="Segoe UI" x="138, 143.75977, 148.48828, 154.98047, 161.4375, 166.06055, 173.39648, 178.20703, 185.4668, 190.28906, " y="284, ">
				creatoruri
		</text>
		<rect fill="none" stroke="black" stroke-width="1" stroke-linecap="square" stroke-miterlimit="4" transform="translate(0.5 0.5)" x="129" y="269" width="72" height="20"/>
		<rect fill="silver" x="133" y="415" width="69" height="21"/>
		<rect fill="white" x="129" y="411" width="69" height="21"/>
		<rect fill="white" x="134" y="438" width="119" height="72"/>
		<text fill="gray" font-size="9" font-family="Segoe UI" x="134, 138.71533, 143.80859, 148.51514, 150.98047, 156.28027, 160.85938, 163.90918, 168.61572, 171.08105, 173.79688, 178.37598, 183.46924, 188.76904, 190.72021, 193.18555, 198.45898, 203.75, 206.7998, 208.97949, 214.25293, 219.34619, 223.92529, 226.10498, 228.28467, 232.63965, 234.59082, 237.05615, 240.10596, 245.19922, " y="448, ">
				The date (and, optionally, the
		</text>
		<text fill="gray" font-size="9" font-family="Segoe UI" x="134, 137.0498, 139.22949, 146.98145, 151.68799, 154.40381, 156.86914, 163.37305, 168.46631, 173.17285, 178.26611, 180.73145, 183.78125, 188.87451, 193.58105, 196.04639, 201.3374, 204.46631, 209.73975, 215.03076, 219.7373, 222.86621, 225.91602, 230.271, 232.73633, 239.24023, 243.81934, " y="460, ">
				time) when the property was
		</text>
		<text fill="gray" font-size="9" font-family="Segoe UI" x="134, 136.17969, 140.75879, 144.57764, 147.62744, 150.09277, 157.84473, 163.11816, 168.41797, 170.59766, 173.41455, 175.59424, 180.30078, 185.60059, 187.55176, 190.01709, 194.73242, 199.82568, 204.53223, 206.99756, 209.17725, 214.27051, 216.4502, 219.5, 221.67969, 226.25879, 228.43848, 230.90381, 235.21484, 239.79395, 241.97363, 247.06689, " y="472, ">
				last modified. The initial value
		</text>
		<text fill="gray" font-size="9" font-family="Segoe UI" x="134, 136.17969, 139.99854, 142.46387, 145.51367, 150.60693, 155.31348, 157.77881, 163.07861, 167.65771, 170.70752, 175.41406, 177.87939, 180.59521, 185.17432, 190.26758, 195.56738, 197.51855, 199.98389, 205.25732, 210.54834, 213.59814, 215.77783, 221.05127, 226.14453, 230.72363, 232.90332, 235.08301, 239.43799, " y="484, ">
				is the date (and, optionally,
		</text>
		<text fill="gray" font-size="9" font-family="Segoe UI" x="134, 137.0498, 142.14307, 146.84961, 149.31494, 152.36475, 154.54443, 162.29639, 167.00293, 169.71875, 172.18408, 177.45752, 180.27441, 182.73975, 186.89697, 190.02588, 194.73242, 199.31152, 202.36133, 204.54102, 209.81445, 214.90771, 217.37305, 222.64648, 225.46338, 227.92871, 230.97852, 236.07178, " y="496, ">
				the time) of creation of the
		</text>
		<text fill="gray" font-size="9" font-family="Segoe UI" x="134, 139.29102, 142.41992, 147.69336, 152.98438, 157.69092, 160.81982, 163.86963, 168.22461, " y="508, ">
				property.
		</text>
		<rect fill="white" x="138" y="413" width="53" height="16"/>
		<text font-size="12" font-weight="600" font-family="Segoe UI" x="138, 148.99219, 156.32812, 163.75781, 167.16797, 171.76758, 175.17773, 181.66992, " y="426, ">
				modified
		</text>
		<rect fill="none" stroke="black" stroke-width="1" stroke-linecap="square" stroke-miterlimit="4" transform="translate(0.5 0.5)" x="129" y="411" width="68" height="20"/>
		<rect fill="silver" x="133" y="521" width="59" height="21"/>
		<rect fill="white" x="129" y="517" width="59" height="21"/>
		<rect fill="white" x="134" y="544" width="118" height="108"/>
		<text fill="gray" font-size="9" font-family="Segoe UI" x="134, 136.39502, 139.21191, 141.67725, 145.49609, 150.20264, 153.25244, 155.71777, 158.76758, 164.04102, 166.50635, 169.55615, 172.68506, 177.77832, 182.48486, 184.9502, 188, 193.09326, " y="554, ">
				If set to true the
		</text>
		<text fill="gray" font-size="9" font-family="Segoe UI" x="134, 138.15723, 143.43066, 146.55957, 149.68848, 154.39502, 158.21387, 163.50488, 168.77832, 173.87158, 179.17139, 181.35107, 186.44434, 191.74414, 194.20947, 199.50049, 202.62939, 207.90283, 213.19385, 217.90039, 221.0293, 224.0791, 228.43408, 230.89941, 237.40332, 241.98242, " y="566, ">
				corresponding property was
		</text>
		<text fill="gray" font-size="9" font-family="Segoe UI" x="134, 138.5791, 143.87891, 149.17871, 153.88525, 159.18506, 161.65039, 164.7002, 169.97363, 172.43896, 175.48877, 180.58203, 185.28857, 187.75391, 193.92822, 198.77979, 201.24512, 203.64014, 206.68994, 211.39648, 219.14844, 221.61377, 224.43066, 229.7041, 232.83301, 235.29834, " y="578, ">
				added to the G2 Item for a
		</text>
		<text fill="gray" font-size="9" font-family="Segoe UI" x="134, 137.81885, 143.10986, 147.81641, 151.97363, 154.15332, 156.97021, 159.1499, 163.30713, 165.77246, 169.92969, 175.02295, 178.8418, 181.8916, 187.16504, 194.91699, 199.62354, 202.75244, 205.21777, 210.49121, 213.62012, 216.08545, 221.38525, 224.51416, 229.7876, 234.88086, 240.17188, 242.63721, 247.91064, " y="590, ">
				specific customer or group of
		</text>
		<text fill="gray" font-size="9" font-family="Segoe UI" x="134, 138.15723, 143.25049, 147.06934, 150.11914, 155.39258, 163.14453, 167.85107, 170.97998, 174.79883, 177.26416, 182.5376, 187.63086, 189.81055, 194.16553, 196.1167, 198.58203, 203.29736, 208.39062, 213.09717, 215.5625, 220.8623, 225.56885, 228.38574, 232.96484, 238.05811, 240.23779, " y="602, ">
				customers only. The default
		</text>
		<text fill="gray" font-size="9" font-family="Segoe UI" x="134, 138.31104, 142.89014, 145.06982, 150.16309, 154.86963, 157.33496, 162.6084, 165.42529, 167.89062, 170.94043, 176.03369, 178.21338, 182.03223, 184.49756, 189.78857, 192.91748, 198.19092, 203.48193, 208.18848, 211.31738, 214.36719, 218.72217, 221.1875, 223.36719, 227.18604, 229.65137, 232.46826, 237.04736, 239.22705, 243.0459, " y="614, ">
				value of this property is false
		</text>
		<text fill="gray" font-size="9" font-family="Segoe UI" x="134, 140.50391, 145.59717, 147.77686, 151.93408, 157.02734, 159.49268, 164.07178, 169.36279, 174.65381, 176.8335, 179.01318, 183.71973, 187.53857, 190.00391, 196.50781, 201.60107, 206.30762, 211.40088, 213.86621, 216.91602, 222.00928, 224.18896, " y="626, ">
				which applies when this
		</text>
		<text fill="gray" font-size="9" font-family="Segoe UI" x="134, 138.5791, 141.62891, 144.67871, 147.80762, 149.9873, 155.27832, 160.37158, 163.42139, 168.12793, 170.59326, 172.77295, 176.5918, 179.05713, 184.15039, 189.42383, 192.47363, 194.93896, 200.03223, 203.85107, 208.55762, 213.85742, 216.32275, 222.82666, 225.00635, 228.05615, 233.14941, 235.61475, 238.66455, 243.75781, " y="638, ">
				attribute is not used with the
		</text>
		<text fill="gray" font-size="9" font-family="Segoe UI" x="134, 139.29102, 142.41992, 147.69336, 152.98438, 157.69092, 160.81982, 163.86963, 168.22461, " y="650, ">
				property.
		</text>
		<rect fill="white" x="138" y="519" width="43" height="16"/>
		<text font-size="12" font-weight="600" font-family="Segoe UI" x="138, 143.75977, 151.01953, 156.29883, 160.92188, 168.25781, " y="532, ">
				custom
		</text>
		<rect fill="none" stroke="black" stroke-width="1" stroke-linecap="square" stroke-miterlimit="4" transform="translate(0.5 0.5)" x="129" y="517" width="58" height="20"/>
		<rect fill="silver" x="133" y="663" width="52" height="21"/>
		<rect fill="white" x="129" y="659" width="52" height="21"/>
		<rect fill="white" x="134" y="686" width="118" height="48"/>
		<text fill="gray" font-size="9" font-family="Segoe UI" x="134, 136.39502, 141.48828, 146.78809, 148.96777, 153.125, 157.7041, 160.75391, 165.46045, 169.2793, 171.74463, 177.03564, 181.39062, 183.85596, 190.35986, 195.45312, 197.63281, 201.79004, 206.8833, 209.34863, 217.10059, 221.80713, 226.38623, 231.47949, 235.29834, 237.76367, 240.81348, 245.90674, " y="696, ">
				Indicates by which means the
		</text>
		<text fill="gray" font-size="9" font-family="Segoe UI" x="134, 138.31104, 142.89014, 145.06982, 150.16309, 154.86963, 157.33496, 163.83887, 168.41797, 172.23682, 174.70215, 179.40869, 183.53955, 186.58936, 189.71826, 194.29736, 198.45459, 201.50439, 206.21094, 211.51074, 213.97607, 216.79297, 219.92188, 225.19531, 232.94727, 235.4126, 238.4624, 243.55566, " y="708, ">
				value was extracted from the
		</text>
		<text fill="gray" font-size="9" font-family="Segoe UI" x="134, 138.15723, 143.43066, 148.52393, 151.57373, 156.28027, 161.37354, 164.42334, 166.88867, 170.48779, 172.95312, 177.65967, 181.79053, 187.08154, 190.21045, 194.91699, 198.73584, 202.55469, 207.26123, 212.56104, 215.02637, 220.31738, 224.67236, 227.1377, " y="720, ">
				content - expressed by a
		</text>
		<text fill="gray" font-size="9" font-family="Segoe UI" x="134, 140.78516, 146.35742, 151.63086, 156.93066, " y="732, ">
				QCode
		</text>
		<rect fill="white" x="138" y="661" width="36" height="16"/>
		<text font-size="12" font-weight="600" font-family="Segoe UI" x="138, 145.22461, 152.56055, " y="674, ">
				how
		</text>
		<rect fill="none" stroke="black" stroke-width="1" stroke-linecap="square" stroke-miterlimit="4" transform="translate(0.5 0.5)" x="129" y="659" width="51" height="20"/>
		<rect fill="silver" x="133" y="745" width="57" height="21"/>
		<rect fill="white" x="129" y="741" width="57" height="21"/>
		<rect fill="white" x="134" y="768" width="118" height="36"/>
		<text fill="gray" font-size="9" font-family="Segoe UI" x="134, 136.39502, 141.48828, 146.78809, 148.96777, 153.125, 157.7041, 160.75391, 165.46045, 169.2793, 171.74463, 177.03564, 181.39062, 183.85596, 190.35986, 195.45312, 197.63281, 201.79004, 206.8833, 209.34863, 217.10059, 221.80713, 226.38623, 231.47949, 235.29834, 237.76367, 240.81348, 245.90674, " y="778, ">
				Indicates by which means the
		</text>
		<text fill="gray" font-size="9" font-family="Segoe UI" x="134, 138.31104, 142.89014, 145.06982, 150.16309, 154.86963, 157.33496, 163.83887, 168.41797, 172.23682, 174.70215, 179.40869, 183.53955, 186.58936, 189.71826, 194.29736, 198.45459, 201.50439, 206.21094, 211.51074, 213.97607, 216.79297, 219.92188, 225.19531, 232.94727, 235.4126, 238.4624, 243.55566, " y="790, ">
				value was extracted from the
		</text>
		<text fill="gray" font-size="9" font-family="Segoe UI" x="134, 138.15723, 143.43066, 148.52393, 151.57373, 156.28027, 161.37354, 164.42334, 166.88867, 170.48779, 172.95312, 177.65967, 181.79053, 187.08154, 190.21045, 194.91699, 198.73584, 202.55469, 207.26123, 212.56104, 215.02637, 220.31738, 224.67236, 227.1377, 231.7168, 234.18213, 240.36523, 245.74854, " y="802, ">
				content - expressed by a URI
		</text>
		<rect fill="white" x="138" y="743" width="41" height="16"/>
		<text font-size="12" font-weight="600" font-family="Segoe UI" x="138, 145.22461, 152.56055, 162.12891, 169.38867, 174.21094, " y="756, ">
				howuri
		</text>
		<rect fill="none" stroke="black" stroke-width="1" stroke-linecap="square" stroke-miterlimit="4" transform="translate(0.5 0.5)" x="129" y="741" width="56" height="20"/>
		<rect fill="silver" x="133" y="815" width="52" height="21"/>
		<rect fill="white" x="129" y="811" width="52" height="21"/>
		<rect fill="white" x="134" y="838" width="113" height="36"/>
		<text fill="gray" font-size="9" font-family="Segoe UI" x="134, 142.40674, 147.5, 151.85498, 154.32031, 157.37012, 162.46338, 167.16992, 169.63525, 177.38721, 182.09375, 185.14355, 189.72266, 195.02246, 199.60156, 202.65137, 207.23047, 209.6958, 214.78906, 219.36816, 223.18701, 225.65234, 230.94336, 235.6499, 240.35645, " y="848, ">
				Why the metadata has been
		</text>
		<text fill="gray" font-size="9" font-family="Segoe UI" x="134, 136.17969, 141.27295, 145.43018, 147.60986, 152.70312, 158.00293, 162.70947, 168.00928, 170.47461, 174.07373, 176.53906, 181.24561, 185.37646, 190.66748, 193.79639, 198.50293, 202.32178, 206.14062, 210.84717, 216.14697, 218.6123, 223.90332, 228.2583, 230.72363, " y="860, ">
				included - expressed by a
		</text>
		<text fill="gray" font-size="9" font-family="Segoe UI" x="134, 140.78516, 146.35742, 151.63086, 156.93066, " y="872, ">
				QCode
		</text>
		<rect fill="white" x="138" y="813" width="36" height="16"/>
		<text font-size="12" font-weight="600" font-family="Segoe UI" x="138, 147.56836, 154.79297, " y="826, ">
				why
		</text>
		<rect fill="none" stroke="black" stroke-width="1" stroke-linecap="square" stroke-miterlimit="4" transform="translate(0.5 0.5)" x="129" y="811" width="51" height="20"/>
		<rect fill="silver" x="133" y="885" width="56" height="21"/>
		<rect fill="white" x="129" y="881" width="56" height="21"/>
		<rect fill="white" x="134" y="908" width="119" height="24"/>
		<text fill="gray" font-size="9" font-family="Segoe UI" x="134, 142.40674, 147.5, 151.85498, 154.32031, 157.37012, 162.46338, 167.16992, 169.63525, 177.38721, 182.09375, 185.14355, 189.72266, 195.02246, 199.60156, 202.65137, 207.23047, 209.6958, 214.78906, 219.36816, 223.18701, 225.65234, 230.94336, 235.6499, 240.35645, " y="918, ">
				Why the metadata has been
		</text>
		<text fill="gray" font-size="9" font-family="Segoe UI" x="134, 136.17969, 141.27295, 145.43018, 147.60986, 152.70312, 158.00293, 162.70947, 168.00928, 170.47461, 174.07373, 176.53906, 181.24561, 185.37646, 190.66748, 193.79639, 198.50293, 202.32178, 206.14062, 210.84717, 216.14697, 218.6123, 223.90332, 228.2583, 230.72363, 235.30273, 237.76807, 243.95117, 249.33447, " y="930, ">
				included - expressed by a URI
		</text>
		<rect fill="white" x="138" y="883" width="40" height="16"/>
		<text font-size="12" font-weight="600" font-family="Segoe UI" x="138, 147.56836, 154.79297, 161.25, 168.50977, 173.33203, " y="896, ">
				whyuri
		</text>
		<rect fill="none" stroke="black" stroke-width="1" stroke-linecap="square" stroke-miterlimit="4" transform="translate(0.5 0.5)" x="129" y="881" width="55" height="20"/>
		<rect fill="silver" x="133" y="943" width="97" height="21"/>
		<rect fill="white" x="129" y="939" width="97" height="21"/>
		<rect fill="white" x="134" y="966" width="117" height="72"/>
		<text fill="gray" font-size="9" font-family="Segoe UI" x="134, 140.78516, 145.87842, 150.58496, 153.05029, 158.32373, 161.45264, 163.91797, 171.66992, 176.24902, 181.34229, 185.69727, 188.1626, 192.31982, 197.59326, 202.68652, 206.50537, 209.55518, 212.68408, 217.26318, 219.44287, 224.53613, 227.58594, 231.40479, 233.87012, 236.91992, 242.01318, 246.59229, " y="976, ">
				One or many constraints that
		</text>
		<text fill="gray" font-size="9" font-family="Segoe UI" x="134, 138.5791, 143.87012, 149.16113, 151.34082, 155.6958, 158.16113, 161.21094, 166.48438, 168.94971, 174.24072, 179.33398, 184.625, 186.80469, 188.98438, 192.80322, 197.89648, 200.07617, 205.16943, 210.46924, 212.93457, 215.98438, 221.07764, 225.78418, 228.24951, 232.56055, 237.13965, 239.31934, 244.4126, " y="988, ">
				apply to publishing the value
		</text>
		<text fill="gray" font-size="9" font-family="Segoe UI" x="134, 139.27344, 142.09033, 144.55566, 147.60547, 152.69873, 157.40527, 159.87061, 165.16162, 168.29053, 173.56396, 178.85498, 183.56152, 186.69043, 189.74023, 194.09521, 196.56055, 200.15967, 202.625, 207.33154, 211.4624, 216.75342, 219.88232, 224.58887, 228.40771, 232.22656, 236.93311, " y="1000, ">
				of the property - expressed
		</text>
		<text fill="gray" font-size="9" font-family="Segoe UI" x="134, 139.29102, 143.646, 146.11133, 150.69043, 153.15576, 159.94092, 165.51318, 170.78662, 176.08643, 180.79297, 182.74414, 185.20947, 189.76221, 194.34131, 198.49854, 203.5918, 206.05713, 210.21436, 215.48779, 220.58105, 224.3999, 227.44971, 230.57861, 235.15771, 237.3374, 242.43066, " y="1012, ">
				by a QCode. Each constraint
		</text>
		<text fill="gray" font-size="9" font-family="Segoe UI" x="134, 138.5791, 143.87012, 149.16113, 151.34082, 153.52051, 158.22705, 162.0459, 164.51123, 167.56104, 172.83447, 175.2998, 179.87891, 182.05859, 184.23828, 186.70361, 192.00342, 196.70996, 200.52881, 204.68604, 209.39258, 214.48584, 219.78564, 224.36475, 229.45801, " y="1024, ">
				applies to all descendant
		</text>
		<text fill="gray" font-size="9" font-family="Segoe UI" x="134, 138.70654, 140.88623, 145.59277, 153.34473, 158.05127, 163.14453, 166.19434, 170.01318, " y="1036, ">
				elements.
		</text>
		<rect fill="white" x="138" y="941" width="81" height="16"/>
		<text font-size="12" font-weight="600" font-family="Segoe UI" x="138, 145.44141, 152.70117, 160.14258, 165.90234, 173.23828, 180.49805, 185.77734, 190.44727, 195.22266, 201.67969, 205.08984, 212.34961, " y="954, ">
				pubconstraint
		</text>
		<rect fill="none" stroke="black" stroke-width="1" stroke-linecap="square" stroke-miterlimit="4" transform="translate(0.5 0.5)" x="129" y="939" width="96" height="20"/>
		<rect fill="silver" x="133" y="1049" width="112" height="21"/>
		<rect fill="white" x="129" y="1045" width="112" height="21"/>
		<rect fill="white" x="134" y="1072" width="117" height="72"/>
		<text fill="gray" font-size="9" font-family="Segoe UI" x="134, 140.78516, 145.87842, 150.58496, 153.05029, 158.32373, 161.45264, 163.91797, 171.66992, 176.24902, 181.34229, 185.69727, 188.1626, 192.31982, 197.59326, 202.68652, 206.50537, 209.55518, 212.68408, 217.26318, 219.44287, 224.53613, 227.58594, 231.40479, 233.87012, 236.91992, 242.01318, 246.59229, " y="1082, ">
				One or many constraints that
		</text>
		<text fill="gray" font-size="9" font-family="Segoe UI" x="134, 138.5791, 143.87012, 149.16113, 151.34082, 155.6958, 158.16113, 161.21094, 166.48438, 168.94971, 174.24072, 179.33398, 184.625, 186.80469, 188.98438, 192.80322, 197.89648, 200.07617, 205.16943, 210.46924, 212.93457, 215.98438, 221.07764, 225.78418, 228.24951, 232.56055, 237.13965, 239.31934, 244.4126, " y="1094, ">
				apply to publishing the value
		</text>
		<text fill="gray" font-size="9" font-family="Segoe UI" x="134, 139.27344, 142.09033, 144.55566, 147.60547, 152.69873, 157.40527, 159.87061, 165.16162, 168.29053, 173.56396, 178.85498, 183.56152, 186.69043, 189.74023, 194.09521, 196.56055, 200.15967, 202.625, 207.33154, 211.4624, 216.75342, 219.88232, 224.58887, 228.40771, 232.22656, 236.93311, " y="1106, ">
				of the property - expressed
		</text>
		<text fill="gray" font-size="9" font-family="Segoe UI" x="134, 139.29102, 143.646, 146.11133, 150.69043, 153.15576, 159.33887, 164.72217, 167.11719, 169.06836, 171.53369, 176.08643, 180.66553, 184.82275, 189.91602, 192.38135, 196.53857, 201.81201, 206.90527, 210.72412, 213.77393, 216.90283, 221.48193, 223.66162, 228.75488, " y="1118, ">
				by a URI. Each constraint
		</text>
		<text fill="gray" font-size="9" font-family="Segoe UI" x="134, 138.5791, 143.87012, 149.16113, 151.34082, 153.52051, 158.22705, 162.0459, 164.51123, 167.56104, 172.83447, 175.2998, 179.87891, 182.05859, 184.23828, 186.70361, 192.00342, 196.70996, 200.52881, 204.68604, 209.39258, 214.48584, 219.78564, 224.36475, 229.45801, " y="1130, ">
				applies to all descendant
		</text>
		<text fill="gray" font-size="9" font-family="Segoe UI" x="134, 138.70654, 140.88623, 145.59277, 153.34473, 158.05127, 163.14453, 166.19434, 170.01318, " y="1142, ">
				elements.
		</text>
		<rect fill="white" x="138" y="1047" width="96" height="16"/>
		<text font-size="12" font-weight="600" font-family="Segoe UI" x="138, 145.44141, 152.70117, 160.14258, 165.90234, 173.23828, 180.49805, 185.77734, 190.44727, 195.22266, 201.67969, 205.08984, 212.34961, 217.01953, 224.2793, 229.10156, " y="1060, ">
				pubconstrainturi
		</text>
		<rect fill="none" stroke="black" stroke-width="1" stroke-linecap="square" stroke-miterlimit="4" transform="translate(0.5 0.5)" x="129" y="1045" width="111" height="20"/>
		<rect fill="silver" x="125" y="1212" width="52" height="21"/>
		<rect fill="white" x="121" y="1208" width="52" height="21"/>
		<rect fill="white" x="126" y="1235" width="121" height="72"/>
		<text fill="gray" font-size="9" font-family="Segoe UI" x="126, 131.80518, 134.27051, 138.42773, 143.70117, 148.79443, 152.95166, 157.6582, 162.94922, 165.99902, 168.46436, 170.64404, 175.94385, 180.65039, 185.74365, 188.79346, 190.97314, 193.79004, 195.96973, 200.67627, 203.80518, 206.27051, 210.97705, 215.10791, 220.39893, 223.52783, 228.23438, 232.05322, 235.87207, 240.57861, " y="1245, ">
				A concept identifier expressed
		</text>
		<text fill="gray" font-size="9" font-family="Segoe UI" x="126, 130.5791, 134.39795, 136.86328, 141.44238, 143.90771, 147.72656, 150.77637, 153.90527, 156.08496, 161.17822, 166.47803, 168.94336, 174.2168, 177.03369, 179.49902, 182.54883, 187.64209, 192.34863, 194.81396, 197.63086, 202.9043, 206.0332, 213.78516, 216.25049, 220.06934, 223.88818, 227.70703, 229.6582, 233.81543, 237.97266, 242.12988, " y="1257, ">
				as a string of the form sss:ccc,
		</text>
		<text fill="gray" font-size="9" font-family="Segoe UI" x="126, 132.50391, 137.59717, 142.30371, 145.43262, 150.13916, 152.60449, 156.42334, 160.24219, 164.06104, 166.52637, 168.70605, 172.5249, 174.99023, 179.56934, 182.03467, 185.85352, 190.01074, 195.104, 199.81055, 207.5625, 212.26904, 214.73438, 219.31348, 221.49316, 223.67285, 228.25195, " y="1269, ">
				where sss is a scheme alias
		</text>
		<text fill="gray" font-size="9" font-family="Segoe UI" x="126, 130.5791, 135.67236, 140.97217, 143.4375, 147.59473, 151.75195, 155.90918, 158.37451, 160.5542, 164.37305, 166.83838, 171.41748, 173.88281, 178.04004, 183.31348, 188.61328, 193.31982, 195.271, 197.73633, 202.28906, 204.46875, 207.51855, 212.61182, 217.31836, 220.44727, 222.9126, 225.9624, 231.05566, " y="1281, ">
				and ccc is a code. Either the
		</text>
		<text fill="gray" font-size="9" font-family="Segoe UI" x="126, 131.2998, 135.45703, 140.73047, 146.03027, 150.73682, 153.20215, 158.47559, 161.60449, 164.06982, 167.11963, 172.21289, 176.91943, 179.38477, 184.47803, 187.60693, 189.78662, 192.25195, 196.83105, 199.88086, 202.93066, 206.05957, 208.23926, 213.53027, 218.62354, 221.67334, " y="1293, ">
				qcode or the uri attribute
		</text>
		<text fill="gray" font-size="9" font-family="Segoe UI" x="126, 134.08154, 140.26465, 145.0459, 149.76123, 152.22656, 157.51758, 162.22412, 164.68945, 169.78271, 173.60156, 178.30811, 183.60791, " y="1305, ">
				MUST be used.
		</text>
		<rect fill="white" x="130" y="1210" width="36" height="16"/>
		<text font-size="12" font-weight="600" font-family="Segoe UI" x="130, 137.42969, 143.18945, 150.52539, 157.95508, " y="1223, ">
				qcode
		</text>
		<rect fill="none" stroke="black" stroke-width="1" stroke-linecap="square" stroke-miterlimit="4" transform="translate(0.5 0.5)" x="121" y="1208" width="51" height="20"/>
		<rect fill="silver" x="125" y="1318" width="52" height="21"/>
		<rect fill="white" x="121" y="1314" width="52" height="21"/>
		<rect fill="white" x="126" y="1341" width="113" height="48"/>
		<text fill="gray" font-size="9" font-family="Segoe UI" x="126, 131.80518, 134.27051, 140.45361, 145.83691, 148.23193, 150.69727, 157.20117, 162.29443, 164.47412, 168.63135, 173.72461, 176.18994, 178.36963, 183.66943, 188.37598, 193.46924, 196.51904, 198.69873, 201.51562, 203.69531, 208.40186, 212.2207, 214.68604, " y="1351, ">
				A URI which identifies a
		</text>
		<text fill="gray" font-size="9" font-family="Segoe UI" x="126, 130.15723, 135.43066, 140.52393, 144.68115, 149.3877, 154.67871, 157.72852, 162.65918, 166.2583, 168.72363, 173.43018, 175.60986, 178.65967, 183.75293, 188.45947, 191.58838, 194.05371, 197.10352, 202.19678, 206.90332, 211.83398, 217.13379, 221.29102, 226.56445, 231.86426, " y="1363, ">
				concept - either the qcode
		</text>
		<text fill="gray" font-size="9" font-family="Segoe UI" x="126, 131.27344, 134.40234, 136.86768, 139.91748, 145.01074, 149.71729, 152.18262, 157.27588, 160.40479, 162.58447, 165.0498, 169.62891, 172.67871, 175.72852, 178.85742, 181.03711, 186.32812, 191.42139, 194.47119, 199.17773, 201.64307, 209.72461, 215.90771, 220.68896, 225.4043, 227.86963, 233.16064, " y="1375, ">
				or the uri attribute MUST be
		</text>
		<text fill="gray" font-size="9" font-family="Segoe UI" x="126, 131.09326, 134.91211, 139.61865, " y="1387, ">
				used
		</text>
		<rect fill="white" x="130" y="1316" width="36" height="16"/>
		<text font-size="12" font-weight="600" font-family="Segoe UI" x="130, 137.25977, 142.08203, " y="1329, ">
				uri
		</text>
		<rect fill="none" stroke="black" stroke-width="1" stroke-linecap="square" stroke-miterlimit="4" transform="translate(0.5 0.5)" x="121" y="1314" width="51" height="20"/>
		<rect fill="silver" x="125" y="1400" width="52" height="21"/>
		<rect fill="white" x="121" y="1396" width="52" height="21"/>
		<rect fill="white" x="126" y="1423" width="121" height="24"/>
		<text fill="gray" font-size="9" font-family="Segoe UI" x="126, 131.80518, 134.27051, 138.42773, 143.70117, 148.79443, 152.95166, 157.6582, 162.94922, 165.99902, 168.46436, 170.64404, 175.94385, 180.65039, 185.74365, 188.79346, 190.97314, 193.79004, 195.96973, 200.67627, 203.80518, 206.27051, 210.97705, 215.10791, 220.39893, 223.52783, 228.23438, 232.05322, 235.87207, 240.57861, " y="1433, ">
				A concept identifier expressed
		</text>
		<text fill="gray" font-size="9" font-family="Segoe UI" x="126, 130.5791, 134.39795, 136.86328, 141.44238, 143.90771, 146.72461, 149.85352, 154.56006, 159.2666, 161.73193, 164.78174, 169.48828, 173.61914, 176.66895, 179.13428, 182.95312, 186.00293, 189.13184, 191.31152, 196.40479, " y="1445, ">
				as a free text string
		</text>
		<rect fill="white" x="130" y="1398" width="36" height="16"/>
		<text font-size="12" font-weight="600" font-family="Segoe UI" x="130, 133.41016, 136.82031, 141.44336, 147.93555, 152.71094, 159.16797, " y="1411, ">
				literal
		</text>
		<rect fill="none" stroke="black" stroke-width="1" stroke-linecap="square" stroke-miterlimit="4" transform="translate(0.5 0.5)" x="121" y="1396" width="51" height="20"/>
		<rect x="112" y="5" width="11" height="11"/>
		<rect fill="white" x="113" y="6" width="9" height="9"/>
		<rect x="114" y="10" width="7" height="1"/>
		<path transform="translate(0.5 0.5)" d="M152 1577.5L154 1577.5L154.5 1577.5L154.5 1578.5L154 1578.5L151.5 1578.5L151.5 1577.5L152 1577.5ZM158 1577.5L160.5 1577.5L160.5 1578.5L157.5 1578.5L157.5 1577.5L158 1577.5Z"/>
		<path transform="translate(0.5 0.5)" d="M160.5 1578L160.5 1576L160.5 1575.5L161.5 1575.5L161.5 1576L161.5 1578.5L160.5 1578.5L160.5 1578ZM160.5 1572L160.5 1570L160.5 1569.5L161.5 1569.5L161.5 1570L161.5 1572.5L160.5 1572.5L160.5 1572ZM160.5 1566L160.5 1564L160.5 1563.5L161.5 1563.5L161.5 1564L161.5 1566.5L160.5 1566.5L160.5 1566ZM160.5 1560L160.5 1558L160.5 1557.5L161.5 1557.5L161.5 1558L161.5 1560.5L160.5 1560.5L160.5 1560ZM160.5 1554L160.5 1552L160.5 1551.5L161.5 1551.5L161.5 1552L161.5 1554.5L160.5 1554.5L160.5 1554ZM160.5 1548L160.5 1546L160.5 1545.5L161.5 1545.5L161.5 1546L161.5 1548.5L160.5 1548.5L160.5 1548ZM160.5 1542L160.5 1540L160.5 1539.5L161.5 1539.5L161.5 1540L161.5 1542.5L160.5 1542.5L160.5 1542ZM160.5 1536L160.5 1534L160.5 1533.5L161.5 1533.5L161.5 1534L161.5 1536.5L160.5 1536.5L160.5 1536ZM160.5 1530L160.5 1528L160.5 1527.5L161.5 1527.5L161.5 1528L161.5 1530.5L160.5 1530.5L160.5 1530ZM160.5 1524L160.5 1522L160.5 1521.5L161.5 1521.5L161.5 1522L161.5 1524.5L160.5 1524.5L160.5 1524ZM160.5 1518L160.5 1516L160.5 1515.5L161.5 1515.5L161.5 1516L161.5 1518.5L160.5 1518.5L160.5 1518ZM160.5 1512L160.5 1510L160.5 1509.5L161.5 1509.5L161.5 1510L161.5 1512.5L160.5 1512.5L160.5 1512ZM160.5 1506L160.5 1504L160.5 1503.5L161.5 1503.5L161.5 1504L161.5 1506.5L160.5 1506.5L160.5 1506ZM160.5 1500L160.5 1498L160.5 1497.5L161.5 1497.5L161.5 1498L161.5 1500.5L160.5 1500.5L160.5 1500ZM160.5 1494L160.5 1492L160.5 1491.5L161.5 1491.5L161.5 1492L161.5 1494.5L160.5 1494.5L160.5 1494ZM160.5 1488L160.5 1486L160.5 1485.5L161.5 1485.5L161.5 1486L161.5 1488.5L160.5 1488.5L160.5 1488ZM160.5 1482L160.5 1479.5L161.5 1479.5L161.5 1482.5L160.5 1482.5L160.5 1482Z"/>
		<path transform="translate(0.5 0.5)" d="M161.5 1578L161.5 1580L161.5 1580.5L160.5 1580.5L160.5 1580L160.5 1577.5L161.5 1577.5L161.5 1578ZM161.5 1584L161.5 1586L161.5 1586.5L160.5 1586.5L160.5 1586L160.5 1583.5L161.5 1583.5L161.5 1584ZM161.5 1590L161.5 1592L161.5 1592.5L160.5 1592.5L160.5 1592L160.5 1589.5L161.5 1589.5L161.5 1590ZM161.5 1596L161.5 1598L161.5 1598.5L160.5 1598.5L160.5 1598L160.5 1595.5L161.5 1595.5L161.5 1596ZM161.5 1602L161.5 1604L161.5 1604.5L160.5 1604.5L160.5 1604L160.5 1601.5L161.5 1601.5L161.5 1602ZM161.5 1608L161.5 1610L161.5 1610.5L160.5 1610.5L160.5 1610L160.5 1607.5L161.5 1607.5L161.5 1608ZM161.5 1614L161.5 1616L161.5 1616.5L160.5 1616.5L160.5 1616L160.5 1613.5L161.5 1613.5L161.5 1614ZM161.5 1620L161.5 1622L161.5 1622.5L160.5 1622.5L160.5 1622L160.5 1619.5L161.5 1619.5L161.5 1620ZM161.5 1626L161.5 1628L161.5 1628.5L160.5 1628.5L160.5 1628L160.5 1625.5L161.5 1625.5L161.5 1626ZM161.5 1632L161.5 1634L161.5 1634.5L160.5 1634.5L160.5 1634L160.5 1631.5L161.5 1631.5L161.5 1632ZM161.5 1638L161.5 1640L161.5 1640.5L160.5 1640.5L160.5 1640L160.5 1637.5L161.5 1637.5L161.5 1638ZM161.5 1644L161.5 1646L161.5 1646.5L160.5 1646.5L160.5 1646L160.5 1643.5L161.5 1643.5L161.5 1644ZM161.5 1650L161.5 1652L161.5 1652.5L160.5 1652.5L160.5 1652L160.5 1649.5L161.5 1649.5L161.5 1650ZM161.5 1656L161.5 1658L161.5 1658.5L160.5 1658.5L160.5 1658L160.5 1655.5L161.5 1655.5L161.5 1656ZM161.5 1662L161.5 1664L161.5 1664.5L160.5 1664.5L160.5 1664L160.5 1661.5L161.5 1661.5L161.5 1662ZM161.5 1668L161.5 1670L161.5 1670.5L160.5 1670.5L160.5 1670L160.5 1667.5L161.5 1667.5L161.5 1668ZM161.5 1674L161.5 1676.5L160.5 1676.5L160.5 1673.5L161.5 1673.5L161.5 1674Z"/>
		<path transform="translate(0.5 0.5)" d="M161 1475.5L163 1475.5L163.5 1475.5L163.5 1476.5L163 1476.5L160.5 1476.5L160.5 1475.5L161 1475.5ZM167 1475.5L169 1475.5L169.5 1475.5L169.5 1476.5L169 1476.5L166.5 1476.5L166.5 1475.5L167 1475.5ZM173 1475.5L175.5 1475.5L175.5 1476.5L172.5 1476.5L172.5 1475.5L173 1475.5Z"/>
		<path transform="translate(0.5 0.5)" d="M161 1680.5L163 1680.5L163.5 1680.5L163.5 1681.5L163 1681.5L160.5 1681.5L160.5 1680.5L161 1680.5ZM167 1680.5L169 1680.5L169.5 1680.5L169.5 1681.5L169 1681.5L166.5 1681.5L166.5 1680.5L167 1680.5ZM173 1680.5L175.5 1680.5L175.5 1681.5L172.5 1681.5L172.5 1680.5L173 1680.5Z"/>
		<path fill="silver" d="M111 1577L116 1572L141 1572L146 1577L146 1588L141 1593L116 1593L111 1588L111 1577Z"/>
		<path fill="white" d="M107 1573L112 1568L137 1568L142 1573L142 1584L137 1589L112 1589L107 1584L107 1573Z"/>
		<path fill="none" stroke="black" stroke-width="1" stroke-linecap="square" stroke-miterlimit="4" transform="translate(0.5 0.5)" d="M112 1578L136 1578"/>
		<rect x="118" y="1577" width="3" height="3"/>
		<rect x="123" y="1577" width="3" height="3"/>
		<rect x="128" y="1577" width="3" height="3"/>
		<path fill="none" stroke="black" stroke-width="1" stroke-linecap="square" stroke-miterlimit="4" transform="translate(0.5 0.5)" d="M107 1573L112 1568L136 1568L141 1573L141 1583L136 1588L112 1588L107 1583L107 1573Z"/>
		<rect fill="silver" x="180" y="1470" width="83" height="21"/>
		<rect fill="white" x="176" y="1466" width="83" height="21"/>
		<rect fill="white" x="181" y="1493" width="119" height="36"/>
		<text fill="gray" font-size="9" font-family="Segoe UI" x="181, 185.71533, 187.89502, 195.64697, 200.35352, 202.81885, 206.6377, 209.6875, 214.2666, 222.01855, 227.30957, 229.7749, 232.90381, 237.61035, 242.90137, 246.03027, 250.73682, 254.55566, 259.26221, 264.35547, 267.40527, 269.58496, 274.67822, 279.97803, 282.44336, 287.02246, " y="1503, ">
				Time stamp representing an
		</text>
		<text fill="gray" font-size="9" font-family="Segoe UI" x="181, 186.27344, 191.56445, 194.61426, 196.79395, 202.06738, 207.16064, 211.73975, 213.91943, 216.09912, 220.4541, 222.91943, 225.96924, 229.09814, 234.19141, 239.28467, 243.44189, 248.021, 251.0708, 255.77734, 261.07715, 263.54248, 268.84229, 273.42139, 276.47119, 281.17773, 283.64307, 288.22217, 293.31543, " y="1515, ">
				optionally truncated date and
		</text>
		<text fill="gray" font-size="9" font-family="Segoe UI" x="181, 184.0498, 186.22949, 193.98145, " y="1527, ">
				time
		</text>
		<rect fill="white" x="185" y="1468" width="62" height="16"/>
		<text font-size="12" font-weight="600" font-family="Segoe UI" x="185, 189.66992, 193.08008, 204.07227, 210.56445, 215.84375, 220.51367, 226.9707, 237.96289, " y="1481, ">
				timestamp
		</text>
		<path fill="none" stroke="black" stroke-width="1" stroke-linecap="square" stroke-miterlimit="4" transform="translate(0.5 0.5)" d="M178 1468L183 1468"/>
		<path fill="none" stroke="black" stroke-width="1" stroke-linecap="square" stroke-miterlimit="4" transform="translate(0.5 0.5)" d="M178 1470L182 1470"/>
		<path fill="none" stroke="black" stroke-width="1" stroke-linecap="square" stroke-miterlimit="4" transform="translate(0.5 0.5)" d="M178 1472L182 1472"/>
		<rect fill="none" stroke="black" stroke-width="1" stroke-linecap="square" stroke-miterlimit="4" transform="translate(0.5 0.5)" x="176" y="1466" width="82" height="20"/>
		<rect x="253" y="1471" width="11" height="11"/>
		<rect fill="white" x="254" y="1472" width="9" height="9"/>
		<rect x="255" y="1476" width="7" height="1"/>
		<rect x="258" y="1473" width="1" height="7"/>
		<path fill="none" stroke="black" stroke-width="1" stroke-linecap="square" stroke-miterlimit="4" transform="translate(0.5 0.5)" d="M221 1681L229 1681"/>
		<path fill="none" stroke="black" stroke-width="1" stroke-linecap="square" stroke-miterlimit="4" transform="translate(0.5 0.5)" d="M230 1681L230 1552"/>
		<path fill="none" stroke="black" stroke-width="1" stroke-linecap="square" stroke-miterlimit="4" transform="translate(0.5 0.5)" d="M230 1681L230 1811"/>
		<path fill="none" stroke="black" stroke-width="1" stroke-linecap="square" stroke-miterlimit="4" transform="translate(0.5 0.5)" d="M230 1551L244 1551"/>
		<path fill="none" stroke="black" stroke-width="1" stroke-linecap="square" stroke-miterlimit="4" transform="translate(0.5 0.5)" d="M230 1614L244 1614"/>
		<path fill="none" stroke="black" stroke-width="1" stroke-linecap="square" stroke-miterlimit="4" transform="translate(0.5 0.5)" d="M230 1701L244 1701"/>
		<path fill="none" stroke="black" stroke-width="1" stroke-linecap="square" stroke-miterlimit="4" transform="translate(0.5 0.5)" d="M230 1812L244 1812"/>
		<path fill="silver" d="M183 1683L188 1678L213 1678L218 1683L218 1694L213 1699L188 1699L183 1694L183 1683Z"/>
		<path fill="white" d="M179 1679L184 1674L208 1674L213 1679L213 1689L208 1694L184 1694L179 1689L179 1679Z"/>
		<path transform="translate(0.5 0.5)" d="M182.889 1674.4L183.793 1673.5L184.929 1673.5L185.429 1673.5L185.429 1674.5L184.929 1674.5L184 1674.5L184 1674L184.354 1674.35L183.243 1675.46L182.536 1674.76L182.889 1674.4ZM188.929 1673.5L190.929 1673.5L191.429 1673.5L191.429 1674.5L190.929 1674.5L188.429 1674.5L188.429 1673.5L188.929 1673.5ZM194.929 1673.5L196.929 1673.5L197.429 1673.5L197.429 1674.5L196.929 1674.5L194.429 1674.5L194.429 1673.5L194.929 1673.5ZM200.929 1673.5L202.929 1673.5L203.429 1673.5L203.429 1674.5L202.929 1674.5L200.429 1674.5L200.429 1673.5L200.929 1673.5ZM206.929 1673.5L208.207 1673.5L209.01 1674.3L209.364 1674.66L208.657 1675.36L208.303 1675.01L207.646 1674.35L208 1674L208 1674.5L206.429 1674.5L206.429 1673.5L206.929 1673.5ZM211.839 1677.13L213.253 1678.55L213.607 1678.9L212.899 1679.61L212.546 1679.25L210.778 1677.49L211.485 1676.78L211.839 1677.13ZM213.5 1682.86L213.5 1684.86L213.5 1685.36L212.5 1685.36L212.5 1684.86L212.5 1682.36L213.5 1682.36L213.5 1682.86ZM213.5 1688.86L213.5 1689.21L212.04 1690.67L211.686 1691.02L210.979 1690.31L211.333 1689.96L212.646 1688.65L213 1689L212.5 1689L212.5 1688.36L213.5 1688.36L213.5 1688.86ZM209.211 1693.5L208.207 1694.5L207.213 1694.5L206.713 1694.5L206.713 1693.5L207.213 1693.5L208 1693.5L208 1694L207.646 1693.65L208.858 1692.44L209.565 1693.14L209.211 1693.5ZM203.213 1694.5L201.213 1694.5L200.713 1694.5L200.713 1693.5L201.213 1693.5L203.713 1693.5L203.713 1694.5L203.213 1694.5ZM197.213 1694.5L195.213 1694.5L194.713 1694.5L194.713 1693.5L195.213 1693.5L197.713 1693.5L197.713 1694.5L197.213 1694.5ZM191.213 1694.5L189.213 1694.5L188.713 1694.5L188.713 1693.5L189.213 1693.5L191.713 1693.5L191.713 1694.5L191.213 1694.5ZM185.213 1694.5L183.793 1694.5L183.09 1693.8L182.737 1693.44L183.444 1692.74L183.797 1693.09L184.354 1693.65L184 1694L184 1693.5L185.713 1693.5L185.713 1694.5L185.213 1694.5ZM180.262 1690.97L178.847 1689.55L178.494 1689.2L179.201 1688.49L179.555 1688.85L181.322 1690.62L180.615 1691.32L180.262 1690.97ZM178.5 1685.28L178.5 1683.28L178.5 1682.78L179.5 1682.78L179.5 1683.28L179.5 1685.78L178.5 1685.78L178.5 1685.28ZM178.5 1679.28L178.5 1678.79L180.414 1676.88L181.121 1677.59L179.354 1679.35L179 1679L179.5 1679L179.5 1679.78L178.5 1679.78L178.5 1679.28Z"/>
		<path fill="white" d="M176 1676L181 1671L206 1671L211 1676L211 1687L206 1692L181 1692L176 1687L176 1676Z"/>
		<path fill="none" stroke="black" stroke-width="1" stroke-linecap="square" stroke-miterlimit="4" transform="translate(0.5 0.5)" d="M195 1692L201 1698L204 1695"/>
		<path fill="none" stroke="black" stroke-width="1" stroke-linecap="square" stroke-miterlimit="4" transform="translate(0.5 0.5)" d="M181 1681L186 1681L190 1677"/>
		<path fill="none" stroke="black" stroke-width="1" stroke-linecap="square" stroke-miterlimit="4" transform="translate(0.5 0.5)" d="M196 1681L204 1681"/>
		<path fill="none" stroke="black" stroke-width="1" stroke-linecap="square" stroke-miterlimit="4" transform="translate(0.5 0.5)" d="M196 1677L200 1677L200 1685L196 1685"/>
		<rect x="192" y="1676" width="3" height="3"/>
		<rect x="192" y="1680" width="3" height="3"/>
		<rect x="192" y="1684" width="3" height="3"/>
		<text font-size="12" font-family="Segoe UI" x="180.76562, " y="1711, ">
				0
		</text>
		<text font-size="12" font-family="Symbol" x="195.72266, " y="1710, ">
				¥
		</text>
		<text font-size="12" font-family="Segoe UI" x="188.89844, 191.5, " y="1711, ">
				..
		</text>
		<path transform="translate(0.5 0.5)" d="M179.889 1671.4L180.793 1670.5L181.929 1670.5L182.429 1670.5L182.429 1671.5L181.929 1671.5L181 1671.5L181 1671L181.354 1671.35L180.243 1672.46L179.536 1671.76L179.889 1671.4ZM185.929 1670.5L187.929 1670.5L188.429 1670.5L188.429 1671.5L187.929 1671.5L185.429 1671.5L185.429 1670.5L185.929 1670.5ZM191.929 1670.5L193.929 1670.5L194.429 1670.5L194.429 1671.5L193.929 1671.5L191.429 1671.5L191.429 1670.5L191.929 1670.5ZM197.929 1670.5L199.929 1670.5L200.429 1670.5L200.429 1671.5L199.929 1671.5L197.429 1671.5L197.429 1670.5L197.929 1670.5ZM203.929 1670.5L205.207 1670.5L206.01 1671.3L206.364 1671.66L205.657 1672.36L205.303 1672.01L204.646 1671.35L205 1671L205 1671.5L203.429 1671.5L203.429 1670.5L203.929 1670.5ZM208.839 1674.13L210.253 1675.55L210.607 1675.9L209.899 1676.61L209.546 1676.25L207.778 1674.49L208.485 1673.78L208.839 1674.13ZM210.5 1679.86L210.5 1681.86L210.5 1682.36L209.5 1682.36L209.5 1681.86L209.5 1679.36L210.5 1679.36L210.5 1679.86ZM210.5 1685.86L210.5 1686.21L209.04 1687.67L208.686 1688.02L207.979 1687.31L208.333 1686.96L209.646 1685.65L210 1686L209.5 1686L209.5 1685.36L210.5 1685.36L210.5 1685.86ZM206.211 1690.5L205.207 1691.5L204.213 1691.5L203.713 1691.5L203.713 1690.5L204.213 1690.5L205 1690.5L205 1691L204.646 1690.65L205.858 1689.44L206.565 1690.14L206.211 1690.5ZM200.213 1691.5L198.213 1691.5L197.713 1691.5L197.713 1690.5L198.213 1690.5L200.713 1690.5L200.713 1691.5L200.213 1691.5ZM194.213 1691.5L192.213 1691.5L191.713 1691.5L191.713 1690.5L192.213 1690.5L194.713 1690.5L194.713 1691.5L194.213 1691.5ZM188.213 1691.5L186.213 1691.5L185.713 1691.5L185.713 1690.5L186.213 1690.5L188.713 1690.5L188.713 1691.5L188.213 1691.5ZM182.213 1691.5L180.793 1691.5L180.09 1690.8L179.737 1690.44L180.444 1689.74L180.797 1690.09L181.354 1690.65L181 1691L181 1690.5L182.713 1690.5L182.713 1691.5L182.213 1691.5ZM177.262 1687.97L175.847 1686.55L175.494 1686.2L176.201 1685.49L176.555 1685.85L178.322 1687.62L177.615 1688.32L177.262 1687.97ZM175.5 1682.28L175.5 1680.28L175.5 1679.78L176.5 1679.78L176.5 1680.28L176.5 1682.78L175.5 1682.78L175.5 1682.28ZM175.5 1676.28L175.5 1675.79L177.414 1673.88L178.121 1674.59L176.354 1676.35L176 1676L176.5 1676L176.5 1676.78L175.5 1676.78L175.5 1676.28Z"/>
		<rect fill="silver" x="249" y="1545" width="54" height="21"/>
		<rect fill="white" x="245" y="1541" width="54" height="21"/>
		<rect fill="white" x="250" y="1568" width="115" height="24"/>
		<text fill="gray" font-size="9" font-family="Segoe UI" x="250, 255.80518, 258.27051, 263.36377, 267.94287, 270.99268, 276.08594, 279.21484, 283.79395, 285.97363, 288.43896, 290.61865, 295.19775, 300.29102, 305.59082, 310.68408, 315.26318, 320.56299, 325.26953, 327.73486, 332.82812, 337.40723, 345.15918, 349.86572, 352.33105, 355.14795, 360.42139, " y="1578, ">
				A natural language name for
		</text>
		<text fill="gray" font-size="9" font-family="Segoe UI" x="250, 253.0498, 258.14307, 262.84961, 265.31494, 269.47217, 274.74561, 279.83887, 283.99609, 288.70264, 293.99365, 297.04346, " y="1590, ">
				the concept.
		</text>
		<rect fill="white" x="254" y="1543" width="33" height="16"/>
		<text font-size="12" font-weight="600" font-family="Segoe UI" x="254, 261.25977, 267.7168, 278.70898, " y="1556, ">
				name
		</text>
		<path fill="none" stroke="black" stroke-width="1" stroke-linecap="square" stroke-miterlimit="4" transform="translate(0.5 0.5)" d="M247 1543L252 1543"/>
		<path fill="none" stroke="black" stroke-width="1" stroke-linecap="square" stroke-miterlimit="4" transform="translate(0.5 0.5)" d="M247 1545L251 1545"/>
		<path fill="none" stroke="black" stroke-width="1" stroke-linecap="square" stroke-miterlimit="4" transform="translate(0.5 0.5)" d="M247 1547L251 1547"/>
		<path fill="none" stroke="black" stroke-width="2" stroke-miterlimit="4" transform="translate(0.5 0.5)" d="M247 1559L251 1555"/>
		<path fill="none" stroke="black" stroke-width="1" stroke-linecap="square" stroke-miterlimit="4" transform="translate(0.5 0.5)" d="M248 1555L251 1555L251 1558"/>
		<rect fill="none" stroke="black" stroke-width="1" stroke-linecap="square" stroke-miterlimit="4" transform="translate(0.5 0.5)" x="245" y="1541" width="53" height="20"/>
		<rect x="293" y="1546" width="11" height="11"/>
		<rect fill="white" x="294" y="1547" width="9" height="9"/>
		<rect x="295" y="1551" width="7" height="1"/>
		<rect x="298" y="1548" width="1" height="7"/>
		<rect fill="silver" x="249" y="1608" width="62" height="21"/>
		<rect fill="white" x="245" y="1604" width="62" height="21"/>
		<rect fill="white" x="250" y="1631" width="115" height="48"/>
		<text fill="gray" font-size="9" font-family="Segoe UI" x="250, 255.80518, 258.27051, 261.39941, 266.10596, 268.28564, 272.86475, 275.91455, 280.62109, 285.9209, 288.38623, 292.54346, 297.81689, 302.91016, 307.06738, 311.77393, 317.06494, 320.11475, 322.06592, 324.53125, 331.03516, 336.12842, 340.83496, 343.96387, 348.67041, 351.13574, 354.18555, 359.27881, " y="1641, ">
				A related concept, where the
		</text>
		<text fill="gray" font-size="9" font-family="Segoe UI" x="250, 253.12891, 257.83545, 260.01514, 264.59424, 267.64404, 269.82373, 275.09717, 280.19043, 284.00928, 289.10254, 291.28223, 296.57324, 299.03857, 301.21826, 305.03711, 307.50244, 312.80225, 314.98193, 317.79883, 320.61572, 325.32227, 328.45117, 333.15771, 338.25098, 341.30078, 343.76611, 346.58301, 349.71191, 354.98535, " y="1653, ">
				relationship is different from
		</text>
		<text fill="gray" font-size="9" font-family="Segoe UI" x="250, 252.06982, 255.88867, 260.46777, 268.21973, 272.92627, 278.73145, 282.55029, 284.62012, 286.57129, 289.03662, 291.10645, 296.39746, 299.52637, 304.7998, 309.37891, 314.67871, 319.38525, 322.51416, 324.58398, 327.04932, 332.32275, " y="1665, ">
				&apos;sameAs&apos;, &apos;broader&apos; or
		</text>
		<text fill="gray" font-size="9" font-family="Segoe UI" x="250, 252.06982, 257.16309, 261.74219, 264.87109, 268, 273.27344, 279.77734, 284.48389, 287.61279, 289.68262, " y="1677, ">
				&apos;narrower&apos;.
		</text>
		<rect fill="white" x="254" y="1606" width="41" height="16"/>
		<text font-size="12" font-weight="600" font-family="Segoe UI" x="254, 258.72852, 265.2207, 268.63086, 275.08789, 279.71094, 286.20312, " y="1619, ">
				related
		</text>
		<path fill="none" stroke="black" stroke-width="2" stroke-miterlimit="4" transform="translate(0.5 0.5)" d="M247 1622L251 1618"/>
		<path fill="none" stroke="black" stroke-width="1" stroke-linecap="square" stroke-miterlimit="4" transform="translate(0.5 0.5)" d="M248 1618L251 1618L251 1621"/>
		<rect fill="none" stroke="black" stroke-width="1" stroke-linecap="square" stroke-miterlimit="4" transform="translate(0.5 0.5)" x="245" y="1604" width="61" height="20"/>
		<rect x="301" y="1609" width="11" height="11"/>
		<rect fill="white" x="302" y="1610" width="9" height="9"/>
		<rect x="303" y="1614" width="7" height="1"/>
		<rect x="306" y="1611" width="1" height="7"/>
		<rect fill="silver" x="249" y="1695" width="145" height="21"/>
		<rect fill="white" x="245" y="1691" width="145" height="21"/>
		<rect fill="white" x="250" y="1718" width="139" height="72"/>
		<text fill="gray" font-size="9" font-family="Segoe UI" x="250, 254.55273, 258.68359, 261.7334, 266.43994, 271.5332, 275.35205, 277.53174, 282.80518, 287.89844, 290.36377, 295.4043, 298.5332, 303.80664, 309.09766, 313.8042, 316.93311, 319.98291, 324.33789, 326.28906, 328.75439, 331.8042, 336.89746, 341.604, 344.06934, 347.88818, 352.59473, 360.34668, 364.92578, 370.01904, 373.06885, 375.24854, 379.40576, " y="1728, ">
				Extension Property; the semantics
		</text>
		<text fill="gray" font-size="9" font-family="Segoe UI" x="250, 254.5791, 257.70801, 262.41455, 264.87988, 270.17969, 274.88623, 277.70312, 279.88281, 284.97607, 289.68262, 294.98242, 297.44775, 302.73877, 307.09375, 309.55908, 312.60889, 317.70215, 322.40869, 324.87402, 329.03125, 334.30469, 339.39795, 343.55518, 348.26172, 353.55273, " y="1740, ">
				are defined by the concept
		</text>
		<text fill="gray" font-size="9" font-family="Segoe UI" x="250, 253.12891, 257.83545, 260.65234, 265.35889, 268.48779, 273.19434, 278.2876, 282.44482, 287.15137, 292.45117, 294.9165, 300.20752, 304.5625, 307.02783, 310.07764, 315.1709, 319.87744, 322.34277, 325.47168, 330.17822, 332.35791, 334.82324, 339.40234, 342.45215, 345.50195, 348.63086, 350.81055, 356.10156, 361.19482, 364.24463, 368.95117, 370.90234, 373.36768, 378.08301, 383.17627, " y="1752, ">
				referenced by the rel attribute. The
		</text>
		<text fill="gray" font-size="9" font-family="Segoe UI" x="250, 253.81885, 258.52539, 266.27734, 270.85645, 275.94971, 278.99951, 281.1792, 285.33643, 289.15527, 291.62061, 296.89404, 299.71094, 302.17627, 305.22607, 310.31934, 315.02588, 317.49121, 322.04395, 326.1748, 329.22461, 333.93115, 339.02441, 342.84326, 345.02295, 350.29639, " y="1764, ">
				semantics of the Extension
		</text>
		<text fill="gray" font-size="9" font-family="Segoe UI" x="250, 255.04053, 258.16943, 263.44287, 268.73389, 273.44043, 276.56934, 279.61914, 283.97412, 286.43945, 294.19141, 299.28467, 303.10352, 306.15332, 308.61865, 313.71191, 318.29102, 322.60205, 327.30859, 329.77393, 332.82373, 337.91699, 342.62354, 345.08887, 348.90771, 353.48682, 361.23877, " y="1776, ">
				Property must have the same
		</text>
		<text fill="gray" font-size="9" font-family="Segoe UI" x="250, 253.81885, 257.97607, 263.24951, 268.54053, 273.24707, 275.7124, 280.2915, 284.11035, 286.57568, 289.62549, 294.71875, 299.42529, 301.89062, 307.18164, 311.76074, 314.88965, 319.59619, 324.68945, 327.73926, 330.20459, 335.49561, 338.62451, 343.89795, 349.18896, 353.89551, 357.02441, 360.07422, 364.4292, " y="1788, ">
				scope as the parent property.
		</text>
		<rect fill="white" x="254" y="1693" width="124" height="16"/>
		<text font-size="12" font-weight="600" font-family="Segoe UI" x="254, 261.44141, 268.70117, 276.14258, 279.55273, 282.96289, 288.24219, 295.4668, 301.95898, 309.38867, 315.77539, 322.40234, 327.07227, 334.44336, 339.17188, 346.50781, 353.94922, 360.44141, 365.5625, 370.23242, " y="1706, ">
				publishedExtProperty
		</text>
		<rect fill="none" stroke="black" stroke-width="1" stroke-linecap="square" stroke-miterlimit="4" transform="translate(0.5 0.5)" x="245" y="1691" width="144" height="20"/>
		<rect x="384" y="1696" width="11" height="11"/>
		<rect fill="white" x="385" y="1697" width="9" height="9"/>
		<rect x="386" y="1701" width="7" height="1"/>
		<rect x="389" y="1698" width="1" height="7"/>
		<path fill="silver" d="M249 1811L254 1806L322 1806L327 1811L327 1822L322 1827L254 1827L249 1822L249 1811Z"/>
		<path fill="white" d="M245 1807L250 1802L318 1802L323 1807L323 1818L318 1823L250 1823L245 1818L245 1807Z"/>
		<rect fill="white" x="250" y="1829" width="118" height="48"/>
		<text fill="gray" font-size="9" font-family="Segoe UI" x="250, 254.55273, 258.68359, 261.7334, 266.43994, 271.5332, 275.35205, 277.53174, 282.80518, 287.89844, 290.36377, 295.65479, 300.92822, 303.10791, 308.20117, 311.25098, 313.71631, 316.5332, 321.80664, 324.93555, 327.40088, 331.97998, 337.07324, " y="1839, ">
				Extension point for any
		</text>
		<text fill="gray" font-size="9" font-family="Segoe UI" x="250, 255.29102, 258.41992, 263.69336, 268.00439, 270.18408, 275.48389, 280.19043, 283.31934, 285.78467, 289.60352, 294.89453, 299.60107, 303.7583, 305.93799, 308.75488, 310.93457, 315.0918, 317.55713, 322.84814, 325.97705, 331.25049, 336.5415, 341.24805, 344.37695, 347.42676, 349.60645, 354.31299, " y="1851, ">
				provider specific properties
		</text>
		<text fill="gray" font-size="9" font-family="Segoe UI" x="250, 252.81689, 258.09033, 261.21924, 263.68457, 268.77783, 273.48438, 279.98828, 283.80713, 286.27246, 290.42969, 295.70312, 300.01416, 304.7207, 307.84961, 312.42871, 317.72852, 322.43506, 324.90039, 328.49951, 330.96484, 333.78174, 336.91064, 342.18408, 349.93604, 352.40137, 356.98047, 362.07373, " y="1863, ">
				for news coverage - from any
		</text>
		<text fill="gray" font-size="9" font-family="Segoe UI" x="250, 255.27344, 258.32324, 263.4165, 268.12305, 271.25195, 273.71729, 278.81055, 283.38965, 291.1416, 295.84814, 299.66699, 304.95801, 309.53711, 313.69434, " y="1875, ">
				other namespace
		</text>
		<rect fill="white" x="272" y="1804" width="46" height="16"/>
		<text font-size="12" font-weight="600" font-family="Segoe UI" x="272, 279.10742, 286.21484, 293.55078, 298.2207, 305.44531, 311.9375, " y="1817, ">
				##other
		</text>
		<rect fill="white" x="250" y="1804" width="20" height="16"/>
		<text fill="gray" font-size="12" font-family="Segoe UI" x="250, 256.10547, 262.89648, " y="1817, ">
				any
		</text>
		<path fill="none" stroke="black" stroke-width="1" stroke-linecap="square" stroke-miterlimit="4" transform="translate(0.5 0.5)" d="M245 1807L250 1802L317 1802L322 1807L322 1817L317 1822L250 1822L245 1817L245 1807Z"/>
		<rect x="210" y="1676" width="11" height="11"/>
		<rect fill="white" x="211" y="1677" width="9" height="9"/>
		<rect x="212" y="1681" width="7" height="1"/>
		<rect x="141" y="1573" width="11" height="11"/>
		<rect fill="white" x="142" y="1574" width="9" height="9"/>
		<rect x="143" y="1578" width="7" height="1"/>
		<rect x="72" y="1147" width="11" height="11"/>
		<rect fill="white" x="73" y="1148" width="9" height="9"/>
		<rect x="74" y="1152" width="7" height="1"/>
	</g>
</svg>
