<?xml version="1.0" encoding="utf-8" ?>
<svg xmlns="http://www.w3.org/2000/svg" xmlns:xlink="http://www.w3.org/1999/xlink" width="372" height="1546">
	<clipPath id="cl_18a">
		<rect x="-10" y="-5" width="372" height="1546"/>
	</clipPath>
	<g clip-path="url(#cl_18a)">
		<path fill="none" stroke="black" stroke-width="1" stroke-linecap="square" stroke-miterlimit="4" transform="translate(0.5 0.5)" d="M72 768L137 768"/>
		<rect fill="silver" x="4" y="762" width="67" height="21"/>
		<rect fill="white" y="758" width="67" height="21"/>
		<rect fill="white" x="5" y="785" width="118" height="60"/>
		<text fill="gray" font-size="9" font-family="Segoe UI" x="7.465332, 13.270508, 18.36377, 20.829102, 23.224121, 28.607422, 31.002441, 33.467773, 39.97168, 45.064941, 47.244629, 51.401855, 56.495117, 58.446289, 60.911621, 66.004883, 71.295898, 76.569336, " y="795, ">
				An IRI which, upon
		</text>
		<text fill="gray" font-size="9" font-family="Segoe UI" x="5, 10.299805, 15.006348, 18.135254, 22.841797, 25.658691, 30.365234, 33.494141, 38.200684, 43.293945, 47.451172, 49.630859, 54.724121, 60.023926, 62.489258, 67.780273, 70.90918, 76.182617, 80.493652, 82.67334, 87.973145, 92.679688, 96.498535, 98.963867, 102.01367, 107.10693, " y="807, ">
				dereferencing provides the
		</text>
		<text fill="gray" font-size="9" font-family="Segoe UI" x="5, 10.273438, 13.402344, 15.582031, 20.881836, 23.061523, 28.154785, 32.733887, 34.913574, 37.378906, 40.507812, 45.214355, 50.505371, 53.634277, 58.34082, 62.159668, 66.866211, 71.959473, 75.009277, 79.588379, 82.638184, 84.817871, 90.091309, 95.18457, 97.649902, 102.92334, 105.74023, 108.20557, 111.25537, 116.34863, " y="819, ">
				original representation of the
		</text>
		<text fill="gray" font-size="9" font-family="Segoe UI" x="5, 7.3950195, 10.444824, 15.151367, 22.90332, 24.854492, 27.319824, 30.369629, 35.462891, 40.169434, 42.634766, 45.029785, 50.413086, 52.808105, 55.273438, 59.092285, 64.185547, 69.458984, 74.552246, 76.731934, 82.031738, 84.49707, 89.788086, " y="831, ">
				Item, the IRI should be
		</text>
		<text fill="gray" font-size="9" font-family="Segoe UI" x="5, 10.291016, 14.997559, 18.126465, 21.945312, 24.125, 27.943848, 30.993652, 35.700195, 40.793457, 43.843262, " y="843, ">
				persistent.
		</text>
		<rect fill="white" x="9" y="760" width="46" height="16"/>
		<text font-size="12" font-weight="600" font-family="Segoe UI" x="9, 16.335938, 21.158203, 24.568359, 31.998047, 39.533203, 46.025391, " y="773, ">
				origRep
		</text>
		<path fill="none" stroke="black" stroke-width="1" stroke-linecap="square" stroke-miterlimit="4" transform="translate(0.5 0.5)" d="M2 760L7 760"/>
		<path fill="none" stroke="black" stroke-width="1" stroke-linecap="square" stroke-miterlimit="4" transform="translate(0.5 0.5)" d="M2 762L6 762"/>
		<path fill="none" stroke="black" stroke-width="1" stroke-linecap="square" stroke-miterlimit="4" transform="translate(0.5 0.5)" d="M2 764L6 764"/>
		<rect fill="none" stroke="black" stroke-width="1" stroke-linecap="square" stroke-miterlimit="4" transform="translate(0.5 0.5)" y="758" width="66" height="20"/>
		<path fill="white" d="M215 19L215 0L138 0L138 19L138 1535L351 1535L351 19L215 19Z"/>
		<rect fill="white" x="158" y="2" width="51" height="16"/>
		<text font-size="12" font-style="italic" font-family="Segoe UI" x="158, 164.50391, 168.38281, 172.26172, 176.5332, 179.63867, 186.14258, 192.83984, 196.73047, 202.57227, " y="15, ">
				attributes
		</text>
		<path fill="none" stroke="black" stroke-width="1" stroke-linecap="square" stroke-miterlimit="4" transform="translate(0.5 0.5)" d="M215 19L215 0L138 0L138 19L138 1535L351 1535L351 19L215 19Z"/>
		<path fill="white" d="M343 47L343 28L152 28L152 47L152 1150L343 1150L343 47Z"/>
		<rect fill="white" x="157" y="1153" width="179" height="48"/>
		<text fill="gray" font-size="9" font-family="Segoe UI" x="157, 162.80518, 165.27051, 170.57031, 173.69922, 178.97266, 184.06592, 189.35693, 191.82227, 197.0957, 199.9126, 202.37793, 206.95703, 210.00684, 213.05664, 216.18555, 218.36523, 223.65625, 228.74951, 231.79932, 236.50586, 240.32471, 242.79004, 245.60693, 250.88037, 254.00928, 256.47461, 261.05371, 263.2334, 265.41309, 267.87842, 272.58496, 274.76465, 279.47119, 287.22314, 291.92969, 297.02295, 300.07275, 303.8916, 306.35693, 311.63037, 314.44727, 316.9126, 321.4917, 323.95703, 330.13135, " y="1163, ">
				A group of attributes for all elements of a G2
		</text>
		<text fill="gray" font-size="9" font-family="Segoe UI" x="157, 159.39502, 162.44482, 167.15137, 174.90332, 177.36865, 182.0752, 186.20605, 190.36328, 195.06982, 200.36084, 203.41064, 205.87598, 208.05566, 211.10547, 214.92432, 217.38965, 220.51855, 225.79199, 231.06543, 234.11523, 236.58057, 241.28711, 243.4668, 248.17334, 255.92529, 260.63184, 265.7251, 268.7749, 270.72607, 273.19141, 276.24121, 281.33447, 286.04102, 288.50635, 290.68604, 293.73584, 298.44238, 306.19434, 314.27588, 318.98242, 322.03223, " y="1175, ">
				Item except its root element, the itemMeta
		</text>
		<text fill="gray" font-size="9" font-family="Segoe UI" x="157, 161.70654, 163.88623, 168.59277, 176.34473, 181.05127, 186.14453, 189.19434, 191.65967, 196.23877, 201.33203, 206.63184, 209.09717, 213.67627, 215.85596, 218.03564, 220.50098, 225.77441, 228.59131, 231.05664, 233.23633, 236.28613, 240.10498, 242.57031, 246.72754, 251.8208, 254.00049, 256.18018, 261.47998, 264.60889, 269.31543, 274.40869, 276.87402, 283.37793, 288.47119, 290.65088, 294.80811, 299.90137, 302.3667, 306.9458, 310.07471, " y="1187, ">
				element and all of its children which are
		</text>
		<text fill="gray" font-size="9" font-family="Segoe UI" x="157, 164.75195, 169.33105, 174.42432, 179.72412, 184.30322, 187.35303, 192.62646, 195.75537, 200.11035, " y="1199, ">
				mandatory.
		</text>
		<rect fill="white" x="194" y="30" width="143" height="16"/>
		<text font-size="12" font-weight="600" font-family="Segoe UI" x="194, 199.75977, 207.0957, 218.08789, 229.08008, 236.41602, 243.67578, 250.68945, 258.02539, 267.53516, 274.02734, 278.80273, 287, 291.66992, 296.33984, 301.16211, 304.57227, 312.01367, 319.27344, 323.89648, 330.38867, " y="43, ">
				commonPowerAttributes
		</text>
		<rect fill="white" x="172" y="30" width="20" height="16"/>
		<text fill="gray" font-size="12" font-family="Segoe UI" x="172, 179.06641, 183.23828, " y="43, ">
				grp
		</text>
		<path fill="none" stroke="gray" stroke-width="1" stroke-linecap="square" stroke-miterlimit="4" transform="translate(0.5 0.5)" d="M152 47L152 1150L343 1150L343 47L343 47"/>
		<path fill="none" stroke="black" stroke-width="1" stroke-linecap="square" stroke-miterlimit="4" transform="translate(0.5 0.5)" d="M343 47L343 28L152 28L152 47"/>
		<rect x="157" y="33" width="11" height="11"/>
		<rect fill="white" x="158" y="34" width="9" height="9"/>
		<rect x="159" y="38" width="7" height="1"/>
		<rect fill="silver" x="164" y="61" width="52" height="21"/>
		<rect fill="white" x="160" y="57" width="52" height="21"/>
		<rect fill="white" x="165" y="84" width="101" height="24"/>
		<text fill="gray" font-size="9" font-family="Segoe UI" x="165, 169.71533, 174.80859, 179.51514, 181.98047, 184.16016, 189.43359, 193.59082, 198.16992, 200.34961, 202.81494, 204.99463, 210.29443, 215.00098, 220.09424, 223.14404, 225.32373, 228.14062, 230.32031, 235.02686, 238.15576, 240.62109, 245.89453, 248.71143, 251.17676, 254.22656, 259.31982, " y="94, ">
				The local identifier of the
		</text>
		<text fill="gray" font-size="9" font-family="Segoe UI" x="165, 170.29102, 173.41992, 178.69336, 183.98438, 188.69092, 191.81982, 194.86963, 199.22461, " y="106, ">
				property.
		</text>
		<rect fill="white" x="169" y="59" width="36" height="16"/>
		<text font-size="12" font-weight="600" font-family="Segoe UI" x="169, 172.41016, " y="72, ">
				id
		</text>
		<rect fill="none" stroke="black" stroke-width="1" stroke-linecap="square" stroke-miterlimit="4" transform="translate(0.5 0.5)" x="160" y="57" width="51" height="20"/>
		<rect fill="silver" x="164" y="119" width="58" height="21"/>
		<rect fill="white" x="160" y="115" width="58" height="21"/>
		<rect fill="white" x="165" y="142" width="121" height="120"/>
		<text fill="gray" font-size="9" font-family="Segoe UI" x="165, 167.39502, 170.21191, 172.67725, 175.72705, 180.82031, 185.52686, 187.99219, 193.2832, 196.41211, 201.68555, 206.97656, 211.68311, 214.81201, 217.86182, 222.2168, 224.68213, 228.99316, 233.57227, 235.75195, 240.84521, 245.55176, 248.01709, 250.19678, 254.01562, 256.48096, 261.57422, 266.84766, " y="152, ">
				If the property value is not
		</text>
		<text fill="gray" font-size="9" font-family="Segoe UI" x="165, 170.2998, 175.00635, 177.82324, 180.00293, 185.09619, 189.80273, 195.10254, 197.05371, 199.51904, 203.33789, 208.62891, 213.33545, 217.49268, 219.67236, 222.48926, 224.66895, 229.37549, 233.19434, 235.65967, 242.16357, 247.25684, 249.43652, 253.59375, 258.68701, 261.15234, 265.85889, 270.95215, 274.00195, 276.18164, 279.23145, " y="164, ">
				defined, specifies which entity
		</text>
		<text fill="gray" font-size="9" font-family="Segoe UI" x="165, 167.71582, 173.00684, 177.71338, 180.84229, 184.66113, 189.93457, 195.02783, 196.979, 199.44434, 204.71777, 207.84668, 213.14648, 217.72559, 222.81885, 224.99854, 228.81738, 233.39648, 236.44629, 238.62598, 243.89941, 248.99268, 251.45801, 256.73145, " y="176, ">
				(person, organisation or
		</text>
		<text fill="gray" font-size="9" font-family="Segoe UI" x="165, 168.81885, 173.17383, 176.99268, 180.04248, 184.74902, 192.50098, 195.2168, 197.68213, 204.18604, 206.36572, 208.54541, 210.7251, 213.19043, 217.89697, 223.19678, 225.37646, 228.42627, 230.8916, 233.94141, 239.03467, 243.74121, 246.20654, 251.49756, 254.62646, 259.8999, 265.19092, 269.89746, 273.02637, 276.07617, " y="188, ">
				system) will edit the property
		</text>
		<text fill="gray" font-size="9" font-family="Segoe UI" x="165, 169.31104, 173.89014, 176.06982, 181.16309, 185.86963, 188.33496, 191.93408, 194.39941, 199.10596, 203.23682, 208.52783, 211.65674, 216.36328, 220.18213, 224.00098, 228.70752, 234.00732, 236.47266, 241.76367, 246.11865, 248.58398, 253.16309, 255.62842, 262.41357, 267.98584, 273.25928, 278.55908, 283.26562, " y="200, ">
				value - expressed by a QCode.
		</text>
		<text fill="gray" font-size="9" font-family="Segoe UI" x="165, 167.39502, 170.21191, 172.67725, 175.72705, 180.82031, 185.52686, 187.99219, 193.2832, 196.41211, 201.68555, 206.97656, 211.68311, 214.81201, 217.86182, 222.2168, 224.68213, 228.99316, 233.57227, 235.75195, 240.84521, 245.55176, 248.01709, 250.19678, " y="212, ">
				If the property value is
		</text>
		<text fill="gray" font-size="9" font-family="Segoe UI" x="165, 170.2998, 175.00635, 177.82324, 180.00293, 185.09619, 189.80273, 195.10254, 197.05371, 199.51904, 203.33789, 208.62891, 213.33545, 217.49268, 219.67236, 222.48926, 224.66895, 229.37549, 233.19434, 235.65967, 242.16357, 247.25684, 249.43652, 253.59375, 258.68701, 261.15234, 265.85889, 270.95215, 274.00195, 276.18164, 279.23145, " y="224, ">
				defined, specifies which entity
		</text>
		<text fill="gray" font-size="9" font-family="Segoe UI" x="165, 167.71582, 173.00684, 177.71338, 180.84229, 184.66113, 189.93457, 195.02783, 196.979, 199.44434, 204.71777, 207.84668, 213.14648, 217.72559, 222.81885, 224.99854, 228.81738, 233.39648, 236.44629, 238.62598, 243.89941, 248.99268, 251.45801, 256.73145, " y="236, ">
				(person, organisation or
		</text>
		<text fill="gray" font-size="9" font-family="Segoe UI" x="165, 168.81885, 173.17383, 176.99268, 180.04248, 184.74902, 192.50098, 195.2168, 197.68213, 202.77539, 207.35449, 211.17334, 213.63867, 218.34521, 223.64502, 225.82471, 228.87451, 233.58105, 238.88086, 241.34619, 244.396, 249.48926, " y="248, ">
				system) has edited the
		</text>
		<text fill="gray" font-size="9" font-family="Segoe UI" x="165, 170.29102, 173.41992, 178.69336, 183.98438, 188.69092, 191.81982, 194.86963, 199.22461, 201.68994, 206.00098, 210.58008, 212.75977, 217.85303, 222.55957, " y="260, ">
				property value.
		</text>
		<rect fill="white" x="169" y="117" width="42" height="16"/>
		<text font-size="12" font-weight="600" font-family="Segoe UI" x="169, 174.75977, 179.48828, 185.98047, 192.4375, 197.06055, 204.39648, " y="130, ">
				creator
		</text>
		<rect fill="none" stroke="black" stroke-width="1" stroke-linecap="square" stroke-miterlimit="4" transform="translate(0.5 0.5)" x="160" y="115" width="57" height="20"/>
		<rect fill="silver" x="164" y="273" width="73" height="21"/>
		<rect fill="white" x="160" y="269" width="73" height="21"/>
		<rect fill="white" x="165" y="296" width="120" height="108"/>
		<text fill="gray" font-size="9" font-family="Segoe UI" x="165, 167.39502, 170.21191, 172.67725, 175.72705, 180.82031, 185.52686, 187.99219, 193.2832, 196.41211, 201.68555, 206.97656, 211.68311, 214.81201, 217.86182, 222.2168, 224.68213, 228.99316, 233.57227, 235.75195, 240.84521, 245.55176, 248.01709, 250.19678, 254.01562, 256.48096, 261.57422, 266.84766, " y="306, ">
				If the property value is not
		</text>
		<text fill="gray" font-size="9" font-family="Segoe UI" x="165, 170.2998, 175.00635, 177.82324, 180.00293, 185.09619, 189.80273, 195.10254, 197.05371, 199.51904, 203.33789, 208.62891, 213.33545, 217.49268, 219.67236, 222.48926, 224.66895, 229.37549, 233.19434, 235.65967, 242.16357, 247.25684, 249.43652, 253.59375, 258.68701, 261.15234, 265.85889, 270.95215, 274.00195, 276.18164, 279.23145, " y="318, ">
				defined, specifies which entity
		</text>
		<text fill="gray" font-size="9" font-family="Segoe UI" x="165, 167.71582, 173.00684, 177.71338, 180.84229, 184.66113, 189.93457, 195.02783, 196.979, 199.44434, 204.71777, 207.84668, 213.14648, 217.72559, 222.81885, 224.99854, 228.81738, 233.39648, 236.44629, 238.62598, 243.89941, 248.99268, 251.45801, 256.73145, " y="330, ">
				(person, organisation or
		</text>
		<text fill="gray" font-size="9" font-family="Segoe UI" x="165, 168.81885, 173.17383, 176.99268, 180.04248, 184.74902, 192.50098, 195.2168, 197.68213, 204.18604, 206.36572, 208.54541, 210.7251, 213.19043, 217.89697, 223.19678, 225.37646, 228.42627, 230.8916, 233.94141, 239.03467, 243.74121, 246.20654, 251.49756, 254.62646, 259.8999, 265.19092, 269.89746, 273.02637, 276.07617, " y="342, ">
				system) will edit the property
		</text>
		<text fill="gray" font-size="9" font-family="Segoe UI" x="165, 168.59912, 171.06445, 175.771, 179.90186, 185.19287, 188.32178, 193.02832, 196.84717, 200.66602, 205.37256, 210.67236, 213.1377, 218.42871, 222.78369, 225.24902, 229.82812, 232.29346, 238.47656, 243.85986, 246.25488, 248.20605, 250.67139, 253.06641, 255.8833, 258.34863, 261.39844, 266.4917, " y="354, ">
				- expressed by a URI. If the
		</text>
		<text fill="gray" font-size="9" font-family="Segoe UI" x="165, 170.29102, 173.41992, 178.69336, 183.98438, 188.69092, 191.81982, 194.86963, 199.22461, 201.68994, 206.00098, 210.58008, 212.75977, 217.85303, 222.55957, 225.0249, 227.20459, 231.02344, 233.48877, 238.78857, 243.49512, 246.31201, 248.4917, 253.58496, 258.2915, 263.59131, " y="366, ">
				property value is defined,
		</text>
		<text fill="gray" font-size="9" font-family="Segoe UI" x="165, 168.81885, 174.10986, 178.81641, 182.97363, 185.15332, 187.97021, 190.1499, 194.85645, 198.67529, 201.14062, 207.64453, 212.73779, 214.91748, 219.07471, 224.16797, 226.6333, 231.33984, 236.43311, 239.48291, 241.6626, 244.7124, 249.06738, 251.53271, 254.24854, 259.53955, 264.24609, 267.375, 271.19385, 276.46729, 281.56055, " y="378, ">
				specifies which entity (person,
		</text>
		<text fill="gray" font-size="9" font-family="Segoe UI" x="165, 170.27344, 173.40234, 178.70215, 183.28125, 188.37451, 190.5542, 194.37305, 198.95215, 202.00195, 204.18164, 209.45508, 214.54834, 217.01367, 222.28711, 225.41602, 227.88135, 231.7002, 236.05518, 239.87402, 242.92383, 247.63037, 255.38232, 258.09814, 260.56348, 265.65674, 270.23584, " y="390, ">
				organisation or system) has
		</text>
		<text fill="gray" font-size="9" font-family="Segoe UI" x="165, 169.70654, 175.00635, 177.18604, 180.23584, 184.94238, 190.24219, 192.70752, 195.75732, 200.85059, 205.55713, 208.02246, 213.31348, 216.44238, 221.71582, 227.00684, 231.71338, 234.84229, 237.89209, 242.24707, " y="402, ">
				edited the property.
		</text>
		<rect fill="white" x="169" y="271" width="57" height="16"/>
		<text font-size="12" font-weight="600" font-family="Segoe UI" x="169, 174.75977, 179.48828, 185.98047, 192.4375, 197.06055, 204.39648, 209.20703, 216.4668, 221.28906, " y="284, ">
				creatoruri
		</text>
		<rect fill="none" stroke="black" stroke-width="1" stroke-linecap="square" stroke-miterlimit="4" transform="translate(0.5 0.5)" x="160" y="269" width="72" height="20"/>
		<rect fill="silver" x="164" y="415" width="69" height="21"/>
		<rect fill="white" x="160" y="411" width="69" height="21"/>
		<rect fill="white" x="165" y="438" width="119" height="72"/>
		<text fill="gray" font-size="9" font-family="Segoe UI" x="165, 169.71533, 174.80859, 179.51514, 181.98047, 187.28027, 191.85938, 194.90918, 199.61572, 202.08105, 204.79688, 209.37598, 214.46924, 219.76904, 221.72021, 224.18555, 229.45898, 234.75, 237.7998, 239.97949, 245.25293, 250.34619, 254.92529, 257.10498, 259.28467, 263.63965, 265.59082, 268.05615, 271.10596, 276.19922, " y="448, ">
				The date (and, optionally, the
		</text>
		<text fill="gray" font-size="9" font-family="Segoe UI" x="165, 168.0498, 170.22949, 177.98145, 182.68799, 185.40381, 187.86914, 194.37305, 199.46631, 204.17285, 209.26611, 211.73145, 214.78125, 219.87451, 224.58105, 227.04639, 232.3374, 235.46631, 240.73975, 246.03076, 250.7373, 253.86621, 256.91602, 261.271, 263.73633, 270.24023, 274.81934, " y="460, ">
				time) when the property was
		</text>
		<text fill="gray" font-size="9" font-family="Segoe UI" x="165, 167.17969, 171.75879, 175.57764, 178.62744, 181.09277, 188.84473, 194.11816, 199.41797, 201.59766, 204.41455, 206.59424, 211.30078, 216.60059, 218.55176, 221.01709, 225.73242, 230.82568, 235.53223, 237.99756, 240.17725, 245.27051, 247.4502, 250.5, 252.67969, 257.25879, 259.43848, 261.90381, 266.21484, 270.79395, 272.97363, 278.06689, " y="472, ">
				last modified. The initial value
		</text>
		<text fill="gray" font-size="9" font-family="Segoe UI" x="165, 167.17969, 170.99854, 173.46387, 176.51367, 181.60693, 186.31348, 188.77881, 194.07861, 198.65771, 201.70752, 206.41406, 208.87939, 211.59521, 216.17432, 221.26758, 226.56738, 228.51855, 230.98389, 236.25732, 241.54834, 244.59814, 246.77783, 252.05127, 257.14453, 261.72363, 263.90332, 266.08301, 270.43799, " y="484, ">
				is the date (and, optionally,
		</text>
		<text fill="gray" font-size="9" font-family="Segoe UI" x="165, 168.0498, 173.14307, 177.84961, 180.31494, 183.36475, 185.54443, 193.29639, 198.00293, 200.71875, 203.18408, 208.45752, 211.27441, 213.73975, 217.89697, 221.02588, 225.73242, 230.31152, 233.36133, 235.54102, 240.81445, 245.90771, 248.37305, 253.64648, 256.46338, 258.92871, 261.97852, 267.07178, " y="496, ">
				the time) of creation of the
		</text>
		<text fill="gray" font-size="9" font-family="Segoe UI" x="165, 170.29102, 173.41992, 178.69336, 183.98438, 188.69092, 191.81982, 194.86963, 199.22461, " y="508, ">
				property.
		</text>
		<rect fill="white" x="169" y="413" width="53" height="16"/>
		<text font-size="12" font-weight="600" font-family="Segoe UI" x="169, 179.99219, 187.32812, 194.75781, 198.16797, 202.76758, 206.17773, 212.66992, " y="426, ">
				modified
		</text>
		<rect fill="none" stroke="black" stroke-width="1" stroke-linecap="square" stroke-miterlimit="4" transform="translate(0.5 0.5)" x="160" y="411" width="68" height="20"/>
		<rect fill="silver" x="164" y="521" width="59" height="21"/>
		<rect fill="white" x="160" y="517" width="59" height="21"/>
		<rect fill="white" x="165" y="544" width="118" height="108"/>
		<text fill="gray" font-size="9" font-family="Segoe UI" x="165, 167.39502, 170.21191, 172.67725, 176.49609, 181.20264, 184.25244, 186.71777, 189.76758, 195.04102, 197.50635, 200.55615, 203.68506, 208.77832, 213.48486, 215.9502, 219, 224.09326, " y="554, ">
				If set to true the
		</text>
		<text fill="gray" font-size="9" font-family="Segoe UI" x="165, 169.15723, 174.43066, 177.55957, 180.68848, 185.39502, 189.21387, 194.50488, 199.77832, 204.87158, 210.17139, 212.35107, 217.44434, 222.74414, 225.20947, 230.50049, 233.62939, 238.90283, 244.19385, 248.90039, 252.0293, 255.0791, 259.43408, 261.89941, 268.40332, 272.98242, " y="566, ">
				corresponding property was
		</text>
		<text fill="gray" font-size="9" font-family="Segoe UI" x="165, 169.5791, 174.87891, 180.17871, 184.88525, 190.18506, 192.65039, 195.7002, 200.97363, 203.43896, 206.48877, 211.58203, 216.28857, 218.75391, 224.92822, 229.77979, 232.24512, 234.64014, 237.68994, 242.39648, 250.14844, 252.61377, 255.43066, 260.7041, 263.83301, 266.29834, " y="578, ">
				added to the G2 Item for a
		</text>
		<text fill="gray" font-size="9" font-family="Segoe UI" x="165, 168.81885, 174.10986, 178.81641, 182.97363, 185.15332, 187.97021, 190.1499, 194.30713, 196.77246, 200.92969, 206.02295, 209.8418, 212.8916, 218.16504, 225.91699, 230.62354, 233.75244, 236.21777, 241.49121, 244.62012, 247.08545, 252.38525, 255.51416, 260.7876, 265.88086, 271.17188, 273.63721, 278.91064, " y="590, ">
				specific customer or group of
		</text>
		<text fill="gray" font-size="9" font-family="Segoe UI" x="165, 169.15723, 174.25049, 178.06934, 181.11914, 186.39258, 194.14453, 198.85107, 201.97998, 205.79883, 208.26416, 213.5376, 218.63086, 220.81055, 225.16553, 227.1167, 229.58203, 234.29736, 239.39062, 244.09717, 246.5625, 251.8623, 256.56885, 259.38574, 263.96484, 269.05811, 271.23779, " y="602, ">
				customers only. The default
		</text>
		<text fill="gray" font-size="9" font-family="Segoe UI" x="165, 169.31104, 173.89014, 176.06982, 181.16309, 185.86963, 188.33496, 193.6084, 196.42529, 198.89062, 201.94043, 207.03369, 209.21338, 213.03223, 215.49756, 220.78857, 223.91748, 229.19092, 234.48193, 239.18848, 242.31738, 245.36719, 249.72217, 252.1875, 254.36719, 258.18604, 260.65137, 263.46826, 268.04736, 270.22705, 274.0459, " y="614, ">
				value of this property is false
		</text>
		<text fill="gray" font-size="9" font-family="Segoe UI" x="165, 171.50391, 176.59717, 178.77686, 182.93408, 188.02734, 190.49268, 195.07178, 200.36279, 205.65381, 207.8335, 210.01318, 214.71973, 218.53857, 221.00391, 227.50781, 232.60107, 237.30762, 242.40088, 244.86621, 247.91602, 253.00928, 255.18896, " y="626, ">
				which applies when this
		</text>
		<text fill="gray" font-size="9" font-family="Segoe UI" x="165, 169.5791, 172.62891, 175.67871, 178.80762, 180.9873, 186.27832, 191.37158, 194.42139, 199.12793, 201.59326, 203.77295, 207.5918, 210.05713, 215.15039, 220.42383, 223.47363, 225.93896, 231.03223, 234.85107, 239.55762, 244.85742, 247.32275, 253.82666, 256.00635, 259.05615, 264.14941, 266.61475, 269.66455, 274.75781, " y="638, ">
				attribute is not used with the
		</text>
		<text fill="gray" font-size="9" font-family="Segoe UI" x="165, 170.29102, 173.41992, 178.69336, 183.98438, 188.69092, 191.81982, 194.86963, 199.22461, " y="650, ">
				property.
		</text>
		<rect fill="white" x="169" y="519" width="43" height="16"/>
		<text font-size="12" font-weight="600" font-family="Segoe UI" x="169, 174.75977, 182.01953, 187.29883, 191.92188, 199.25781, " y="532, ">
				custom
		</text>
		<rect fill="none" stroke="black" stroke-width="1" stroke-linecap="square" stroke-miterlimit="4" transform="translate(0.5 0.5)" x="160" y="517" width="58" height="20"/>
		<rect fill="silver" x="164" y="663" width="52" height="21"/>
		<rect fill="white" x="160" y="659" width="52" height="21"/>
		<rect fill="white" x="165" y="686" width="118" height="48"/>
		<text fill="gray" font-size="9" font-family="Segoe UI" x="165, 167.39502, 172.48828, 177.78809, 179.96777, 184.125, 188.7041, 191.75391, 196.46045, 200.2793, 202.74463, 208.03564, 212.39062, 214.85596, 221.35986, 226.45312, 228.63281, 232.79004, 237.8833, 240.34863, 248.10059, 252.80713, 257.38623, 262.47949, 266.29834, 268.76367, 271.81348, 276.90674, " y="696, ">
				Indicates by which means the
		</text>
		<text fill="gray" font-size="9" font-family="Segoe UI" x="165, 169.31104, 173.89014, 176.06982, 181.16309, 185.86963, 188.33496, 194.83887, 199.41797, 203.23682, 205.70215, 210.40869, 214.53955, 217.58936, 220.71826, 225.29736, 229.45459, 232.50439, 237.21094, 242.51074, 244.97607, 247.79297, 250.92188, 256.19531, 263.94727, 266.4126, 269.4624, 274.55566, " y="708, ">
				value was extracted from the
		</text>
		<text fill="gray" font-size="9" font-family="Segoe UI" x="165, 169.15723, 174.43066, 179.52393, 182.57373, 187.28027, 192.37354, 195.42334, 197.88867, 201.48779, 203.95312, 208.65967, 212.79053, 218.08154, 221.21045, 225.91699, 229.73584, 233.55469, 238.26123, 243.56104, 246.02637, 251.31738, 255.67236, 258.1377, " y="720, ">
				content - expressed by a
		</text>
		<text fill="gray" font-size="9" font-family="Segoe UI" x="165, 171.78516, 177.35742, 182.63086, 187.93066, " y="732, ">
				QCode
		</text>
		<rect fill="white" x="169" y="661" width="36" height="16"/>
		<text font-size="12" font-weight="600" font-family="Segoe UI" x="169, 176.22461, 183.56055, " y="674, ">
				how
		</text>
		<rect fill="none" stroke="black" stroke-width="1" stroke-linecap="square" stroke-miterlimit="4" transform="translate(0.5 0.5)" x="160" y="659" width="51" height="20"/>
		<rect fill="silver" x="164" y="745" width="57" height="21"/>
		<rect fill="white" x="160" y="741" width="57" height="21"/>
		<rect fill="white" x="165" y="768" width="118" height="36"/>
		<text fill="gray" font-size="9" font-family="Segoe UI" x="165, 167.39502, 172.48828, 177.78809, 179.96777, 184.125, 188.7041, 191.75391, 196.46045, 200.2793, 202.74463, 208.03564, 212.39062, 214.85596, 221.35986, 226.45312, 228.63281, 232.79004, 237.8833, 240.34863, 248.10059, 252.80713, 257.38623, 262.47949, 266.29834, 268.76367, 271.81348, 276.90674, " y="778, ">
				Indicates by which means the
		</text>
		<text fill="gray" font-size="9" font-family="Segoe UI" x="165, 169.31104, 173.89014, 176.06982, 181.16309, 185.86963, 188.33496, 194.83887, 199.41797, 203.23682, 205.70215, 210.40869, 214.53955, 217.58936, 220.71826, 225.29736, 229.45459, 232.50439, 237.21094, 242.51074, 244.97607, 247.79297, 250.92188, 256.19531, 263.94727, 266.4126, 269.4624, 274.55566, " y="790, ">
				value was extracted from the
		</text>
		<text fill="gray" font-size="9" font-family="Segoe UI" x="165, 169.15723, 174.43066, 179.52393, 182.57373, 187.28027, 192.37354, 195.42334, 197.88867, 201.48779, 203.95312, 208.65967, 212.79053, 218.08154, 221.21045, 225.91699, 229.73584, 233.55469, 238.26123, 243.56104, 246.02637, 251.31738, 255.67236, 258.1377, 262.7168, 265.18213, 271.36523, 276.74854, " y="802, ">
				content - expressed by a URI
		</text>
		<rect fill="white" x="169" y="743" width="41" height="16"/>
		<text font-size="12" font-weight="600" font-family="Segoe UI" x="169, 176.22461, 183.56055, 193.12891, 200.38867, 205.21094, " y="756, ">
				howuri
		</text>
		<rect fill="none" stroke="black" stroke-width="1" stroke-linecap="square" stroke-miterlimit="4" transform="translate(0.5 0.5)" x="160" y="741" width="56" height="20"/>
		<rect fill="silver" x="164" y="815" width="52" height="21"/>
		<rect fill="white" x="160" y="811" width="52" height="21"/>
		<rect fill="white" x="165" y="838" width="113" height="36"/>
		<text fill="gray" font-size="9" font-family="Segoe UI" x="165, 173.40674, 178.5, 182.85498, 185.32031, 188.37012, 193.46338, 198.16992, 200.63525, 208.38721, 213.09375, 216.14355, 220.72266, 226.02246, 230.60156, 233.65137, 238.23047, 240.6958, 245.78906, 250.36816, 254.18701, 256.65234, 261.94336, 266.6499, 271.35645, " y="848, ">
				Why the metadata has been
		</text>
		<text fill="gray" font-size="9" font-family="Segoe UI" x="165, 167.17969, 172.27295, 176.43018, 178.60986, 183.70312, 189.00293, 193.70947, 199.00928, 201.47461, 205.07373, 207.53906, 212.24561, 216.37646, 221.66748, 224.79639, 229.50293, 233.32178, 237.14062, 241.84717, 247.14697, 249.6123, 254.90332, 259.2583, 261.72363, " y="860, ">
				included - expressed by a
		</text>
		<text fill="gray" font-size="9" font-family="Segoe UI" x="165, 171.78516, 177.35742, 182.63086, 187.93066, " y="872, ">
				QCode
		</text>
		<rect fill="white" x="169" y="813" width="36" height="16"/>
		<text font-size="12" font-weight="600" font-family="Segoe UI" x="169, 178.56836, 185.79297, " y="826, ">
				why
		</text>
		<rect fill="none" stroke="black" stroke-width="1" stroke-linecap="square" stroke-miterlimit="4" transform="translate(0.5 0.5)" x="160" y="811" width="51" height="20"/>
		<rect fill="silver" x="164" y="885" width="56" height="21"/>
		<rect fill="white" x="160" y="881" width="56" height="21"/>
		<rect fill="white" x="165" y="908" width="119" height="24"/>
		<text fill="gray" font-size="9" font-family="Segoe UI" x="165, 173.40674, 178.5, 182.85498, 185.32031, 188.37012, 193.46338, 198.16992, 200.63525, 208.38721, 213.09375, 216.14355, 220.72266, 226.02246, 230.60156, 233.65137, 238.23047, 240.6958, 245.78906, 250.36816, 254.18701, 256.65234, 261.94336, 266.6499, 271.35645, " y="918, ">
				Why the metadata has been
		</text>
		<text fill="gray" font-size="9" font-family="Segoe UI" x="165, 167.17969, 172.27295, 176.43018, 178.60986, 183.70312, 189.00293, 193.70947, 199.00928, 201.47461, 205.07373, 207.53906, 212.24561, 216.37646, 221.66748, 224.79639, 229.50293, 233.32178, 237.14062, 241.84717, 247.14697, 249.6123, 254.90332, 259.2583, 261.72363, 266.30273, 268.76807, 274.95117, 280.33447, " y="930, ">
				included - expressed by a URI
		</text>
		<rect fill="white" x="169" y="883" width="40" height="16"/>
		<text font-size="12" font-weight="600" font-family="Segoe UI" x="169, 178.56836, 185.79297, 192.25, 199.50977, 204.33203, " y="896, ">
				whyuri
		</text>
		<rect fill="none" stroke="black" stroke-width="1" stroke-linecap="square" stroke-miterlimit="4" transform="translate(0.5 0.5)" x="160" y="881" width="55" height="20"/>
		<rect fill="silver" x="164" y="943" width="97" height="21"/>
		<rect fill="white" x="160" y="939" width="97" height="21"/>
		<rect fill="white" x="165" y="966" width="117" height="72"/>
		<text fill="gray" font-size="9" font-family="Segoe UI" x="165, 171.78516, 176.87842, 181.58496, 184.05029, 189.32373, 192.45264, 194.91797, 202.66992, 207.24902, 212.34229, 216.69727, 219.1626, 223.31982, 228.59326, 233.68652, 237.50537, 240.55518, 243.68408, 248.26318, 250.44287, 255.53613, 258.58594, 262.40479, 264.87012, 267.91992, 273.01318, 277.59229, " y="976, ">
				One or many constraints that
		</text>
		<text fill="gray" font-size="9" font-family="Segoe UI" x="165, 169.5791, 174.87012, 180.16113, 182.34082, 186.6958, 189.16113, 192.21094, 197.48438, 199.94971, 205.24072, 210.33398, 215.625, 217.80469, 219.98438, 223.80322, 228.89648, 231.07617, 236.16943, 241.46924, 243.93457, 246.98438, 252.07764, 256.78418, 259.24951, 263.56055, 268.13965, 270.31934, 275.4126, " y="988, ">
				apply to publishing the value
		</text>
		<text fill="gray" font-size="9" font-family="Segoe UI" x="165, 170.27344, 173.09033, 175.55566, 178.60547, 183.69873, 188.40527, 190.87061, 196.16162, 199.29053, 204.56396, 209.85498, 214.56152, 217.69043, 220.74023, 225.09521, 227.56055, 231.15967, 233.625, 238.33154, 242.4624, 247.75342, 250.88232, 255.58887, 259.40771, 263.22656, 267.93311, " y="1000, ">
				of the property - expressed
		</text>
		<text fill="gray" font-size="9" font-family="Segoe UI" x="165, 170.29102, 174.646, 177.11133, 181.69043, 184.15576, 190.94092, 196.51318, 201.78662, 207.08643, 211.79297, 213.74414, 216.20947, 220.76221, 225.34131, 229.49854, 234.5918, 237.05713, 241.21436, 246.48779, 251.58105, 255.3999, 258.44971, 261.57861, 266.15771, 268.3374, 273.43066, " y="1012, ">
				by a QCode. Each constraint
		</text>
		<text fill="gray" font-size="9" font-family="Segoe UI" x="165, 169.5791, 174.87012, 180.16113, 182.34082, 184.52051, 189.22705, 193.0459, 195.51123, 198.56104, 203.83447, 206.2998, 210.87891, 213.05859, 215.23828, 217.70361, 223.00342, 227.70996, 231.52881, 235.68604, 240.39258, 245.48584, 250.78564, 255.36475, 260.45801, " y="1024, ">
				applies to all descendant
		</text>
		<text fill="gray" font-size="9" font-family="Segoe UI" x="165, 169.70654, 171.88623, 176.59277, 184.34473, 189.05127, 194.14453, 197.19434, 201.01318, " y="1036, ">
				elements.
		</text>
		<rect fill="white" x="169" y="941" width="81" height="16"/>
		<text font-size="12" font-weight="600" font-family="Segoe UI" x="169, 176.44141, 183.70117, 191.14258, 196.90234, 204.23828, 211.49805, 216.77734, 221.44727, 226.22266, 232.67969, 236.08984, 243.34961, " y="954, ">
				pubconstraint
		</text>
		<rect fill="none" stroke="black" stroke-width="1" stroke-linecap="square" stroke-miterlimit="4" transform="translate(0.5 0.5)" x="160" y="939" width="96" height="20"/>
		<rect fill="silver" x="164" y="1049" width="112" height="21"/>
		<rect fill="white" x="160" y="1045" width="112" height="21"/>
		<rect fill="white" x="165" y="1072" width="117" height="72"/>
		<text fill="gray" font-size="9" font-family="Segoe UI" x="165, 171.78516, 176.87842, 181.58496, 184.05029, 189.32373, 192.45264, 194.91797, 202.66992, 207.24902, 212.34229, 216.69727, 219.1626, 223.31982, 228.59326, 233.68652, 237.50537, 240.55518, 243.68408, 248.26318, 250.44287, 255.53613, 258.58594, 262.40479, 264.87012, 267.91992, 273.01318, 277.59229, " y="1082, ">
				One or many constraints that
		</text>
		<text fill="gray" font-size="9" font-family="Segoe UI" x="165, 169.5791, 174.87012, 180.16113, 182.34082, 186.6958, 189.16113, 192.21094, 197.48438, 199.94971, 205.24072, 210.33398, 215.625, 217.80469, 219.98438, 223.80322, 228.89648, 231.07617, 236.16943, 241.46924, 243.93457, 246.98438, 252.07764, 256.78418, 259.24951, 263.56055, 268.13965, 270.31934, 275.4126, " y="1094, ">
				apply to publishing the value
		</text>
		<text fill="gray" font-size="9" font-family="Segoe UI" x="165, 170.27344, 173.09033, 175.55566, 178.60547, 183.69873, 188.40527, 190.87061, 196.16162, 199.29053, 204.56396, 209.85498, 214.56152, 217.69043, 220.74023, 225.09521, 227.56055, 231.15967, 233.625, 238.33154, 242.4624, 247.75342, 250.88232, 255.58887, 259.40771, 263.22656, 267.93311, " y="1106, ">
				of the property - expressed
		</text>
		<text fill="gray" font-size="9" font-family="Segoe UI" x="165, 170.29102, 174.646, 177.11133, 181.69043, 184.15576, 190.33887, 195.72217, 198.11719, 200.06836, 202.53369, 207.08643, 211.66553, 215.82275, 220.91602, 223.38135, 227.53857, 232.81201, 237.90527, 241.72412, 244.77393, 247.90283, 252.48193, 254.66162, 259.75488, " y="1118, ">
				by a URI. Each constraint
		</text>
		<text fill="gray" font-size="9" font-family="Segoe UI" x="165, 169.5791, 174.87012, 180.16113, 182.34082, 184.52051, 189.22705, 193.0459, 195.51123, 198.56104, 203.83447, 206.2998, 210.87891, 213.05859, 215.23828, 217.70361, 223.00342, 227.70996, 231.52881, 235.68604, 240.39258, 245.48584, 250.78564, 255.36475, 260.45801, " y="1130, ">
				applies to all descendant
		</text>
		<text fill="gray" font-size="9" font-family="Segoe UI" x="165, 169.70654, 171.88623, 176.59277, 184.34473, 189.05127, 194.14453, 197.19434, 201.01318, " y="1142, ">
				elements.
		</text>
		<rect fill="white" x="169" y="1047" width="96" height="16"/>
		<text font-size="12" font-weight="600" font-family="Segoe UI" x="169, 176.44141, 183.70117, 191.14258, 196.90234, 204.23828, 211.49805, 216.77734, 221.44727, 226.22266, 232.67969, 236.08984, 243.34961, 248.01953, 255.2793, 260.10156, " y="1060, ">
				pubconstrainturi
		</text>
		<rect fill="none" stroke="black" stroke-width="1" stroke-linecap="square" stroke-miterlimit="4" transform="translate(0.5 0.5)" x="160" y="1045" width="111" height="20"/>
		<rect fill="silver" x="156" y="1212" width="78" height="21"/>
		<rect fill="white" x="152" y="1208" width="78" height="21"/>
		<rect fill="white" x="157" y="1235" width="120" height="60"/>
		<text fill="gray" font-size="9" font-family="Segoe UI" x="157, 162.80518, 165.27051, 170.57031, 175.66357, 180.24268, 182.42236, 184.60205, 187.41895, 189.59863, 194.30518, 197.43408, 199.89941, 206.40332, 211.49658, 213.67627, 217.8335, 222.92676, 225.39209, 227.57178, 232.66504, 237.96484, 240.14453, 244.30176, 248.88086, 251.93066, 256.63721, 260.45605, 262.92139, 265.97119, 271.06445, " y="1245, ">
				A qualifier which indicates the
		</text>
		<text fill="gray" font-size="9" font-family="Segoe UI" x="157, 160.0498, 164.75635, 168.91357, 174.00684, 179.1001, 181.27979, 185.43701, 190.01611, 192.1958, 194.66113, 198.97217, 203.55127, 206.68018, 208.85986, 213.43896, 218.53223, 221.58203, 224.04736, 226.86426, 232.1377, 235.2666, 237.73193, 242.31104, 246.46826, 250.62549, 255.33203, 259.15088, 262.96973, 265.14941, 270.24268, " y="1257, ">
				technical variant for accessing
		</text>
		<text fill="gray" font-size="9" font-family="Segoe UI" x="157, 160.0498, 165.14307, 167.32275, 171.1416, 173.60693, 175.78662, 178.83643, 183.54297, 191.29492, 193.76025, 196.47607, 201.18262, 203.13379, 208.43359, 210.38477, 212.8501, 217.00732, 222.28076, 230.03271, 237.78467, 242.87793, 247.97119, 250.15088, 254.30811, 258.88721, 261.93701, 264.1167, 269.39014, " y="1269, ">
				this item (e.g. communication
		</text>
		<text fill="gray" font-size="9" font-family="Segoe UI" x="157, 162.29102, 165.41992, 170.69336, 173.74316, 179.0166, 183.17383, 188.44727, 190.62695, 194.4458, 197.16162, 199.62695, 203.22607, 205.69141, 210.39795, 214.52881, 219.81982, 222.94873, 227.65527, 231.47412, 235.29297, 239.99951, 245.29932, 247.76465, 253.05566, 257.41064, 259.87598, " y="1281, ">
				protocols) - expressed by a
		</text>
		<text fill="gray" font-size="9" font-family="Segoe UI" x="157, 163.78516, 169.35742, 174.63086, 179.93066, " y="1293, ">
				QCode
		</text>
		<rect fill="white" x="161" y="1210" width="62" height="16"/>
		<text font-size="12" font-weight="600" font-family="Segoe UI" x="161, 167.45703, 173.2168, 178.97656, 185.46875, 190.74805, 196.02734, 200.69727, 207.1543, 214.5957, " y="1223, ">
				accesstype
		</text>
		<rect fill="none" stroke="black" stroke-width="1" stroke-linecap="square" stroke-miterlimit="4" transform="translate(0.5 0.5)" x="152" y="1208" width="77" height="20"/>
		<rect fill="silver" x="156" y="1306" width="93" height="21"/>
		<rect fill="white" x="152" y="1302" width="93" height="21"/>
		<rect fill="white" x="157" y="1329" width="120" height="60"/>
		<text fill="gray" font-size="9" font-family="Segoe UI" x="157, 162.80518, 165.27051, 170.57031, 175.66357, 180.24268, 182.42236, 184.60205, 187.41895, 189.59863, 194.30518, 197.43408, 199.89941, 206.40332, 211.49658, 213.67627, 217.8335, 222.92676, 225.39209, 227.57178, 232.66504, 237.96484, 240.14453, 244.30176, 248.88086, 251.93066, 256.63721, 260.45605, 262.92139, 265.97119, 271.06445, " y="1339, ">
				A qualifier which indicates the
		</text>
		<text fill="gray" font-size="9" font-family="Segoe UI" x="157, 160.0498, 164.75635, 168.91357, 174.00684, 179.1001, 181.27979, 185.43701, 190.01611, 192.1958, 194.66113, 198.97217, 203.55127, 206.68018, 208.85986, 213.43896, 218.53223, 221.58203, 224.04736, 226.86426, 232.1377, 235.2666, 237.73193, 242.31104, 246.46826, 250.62549, 255.33203, 259.15088, 262.96973, 265.14941, 270.24268, " y="1351, ">
				technical variant for accessing
		</text>
		<text fill="gray" font-size="9" font-family="Segoe UI" x="157, 160.0498, 165.14307, 167.32275, 171.1416, 173.60693, 175.78662, 178.83643, 183.54297, 191.29492, 193.76025, 196.47607, 201.18262, 203.13379, 208.43359, 210.38477, 212.8501, 217.00732, 222.28076, 230.03271, 237.78467, 242.87793, 247.97119, 250.15088, 254.30811, 258.88721, 261.93701, 264.1167, 269.39014, " y="1363, ">
				this item (e.g. communication
		</text>
		<text fill="gray" font-size="9" font-family="Segoe UI" x="157, 162.29102, 165.41992, 170.69336, 173.74316, 179.0166, 183.17383, 188.44727, 190.62695, 194.4458, 197.16162, 199.62695, 203.22607, 205.69141, 210.39795, 214.52881, 219.81982, 222.94873, 227.65527, 231.47412, 235.29297, 239.99951, 245.29932, 247.76465, 253.05566, 257.41064, 259.87598, " y="1375, ">
				protocols) - expressed by a
		</text>
		<text fill="gray" font-size="9" font-family="Segoe UI" x="157, 163.18311, 168.56641, " y="1387, ">
				URI
		</text>
		<rect fill="white" x="161" y="1304" width="77" height="16"/>
		<text font-size="12" font-weight="600" font-family="Segoe UI" x="161, 167.45703, 173.2168, 178.97656, 185.46875, 190.74805, 196.02734, 200.69727, 207.1543, 214.5957, 221.08789, 228.34766, 233.16992, " y="1317, ">
				accesstypeuri
		</text>
		<rect fill="none" stroke="black" stroke-width="1" stroke-linecap="square" stroke-miterlimit="4" transform="translate(0.5 0.5)" x="152" y="1302" width="92" height="20"/>
		<rect fill="silver" x="156" y="1400" width="71" height="21"/>
		<rect fill="white" x="152" y="1396" width="71" height="21"/>
		<rect fill="white" x="157" y="1423" width="120" height="36"/>
		<text fill="gray" font-size="9" font-family="Segoe UI" x="157, 162.80518, 165.27051, 170.57031, 175.66357, 180.24268, 182.42236, 184.60205, 187.41895, 189.59863, 194.30518, 197.43408, 199.89941, 206.40332, 211.49658, 213.67627, 217.8335, 222.92676, 225.39209, 227.57178, 232.66504, 237.96484, 240.14453, 244.30176, 248.88086, 251.93066, 256.63721, 260.45605, 262.92139, 265.97119, 271.06445, " y="1433, ">
				A qualifier which indicates the
		</text>
		<text fill="gray" font-size="9" font-family="Segoe UI" x="157, 160.12891, 165.40234, 167.58203, 172.28857, 174.75391, 180.02734, 182.84424, 185.30957, 188.35938, 193.45264, 198.15918, 200.62451, 204.44336, 207.49316, 212.07227, 215.12207, 219.82861, 225.12842, 227.59375, 230.72266, 235.4292, 240.72021, 245.99365, 249.8125, 251.99219, 255.04199, 260.31543, 263.44434, 267.79932, 270.26465, " y="1445, ">
				role of the stated repository -
		</text>
		<text fill="gray" font-size="9" font-family="Segoe UI" x="157, 161.70654, 165.8374, 171.12842, 174.25732, 178.96387, 182.78271, 186.60156, 191.30811, 196.60791, 199.07324, 204.36426, 208.71924, 211.18457, 215.76367, 218.229, 225.01416, 230.58643, 235.85986, 241.15967, " y="1457, ">
				expressed by a QCode
		</text>
		<rect fill="white" x="161" y="1398" width="55" height="16"/>
		<text font-size="12" font-weight="600" font-family="Segoe UI" x="161, 165.72852, 172.2207, 179.66211, 186.99805, 192.27734, 197.00586, 204.3418, 207.75195, " y="1411, ">
				reposrole
		</text>
		<rect fill="none" stroke="black" stroke-width="1" stroke-linecap="square" stroke-miterlimit="4" transform="translate(0.5 0.5)" x="152" y="1396" width="70" height="20"/>
		<rect fill="silver" x="156" y="1470" width="86" height="21"/>
		<rect fill="white" x="152" y="1466" width="86" height="21"/>
		<rect fill="white" x="157" y="1493" width="120" height="36"/>
		<text fill="gray" font-size="9" font-family="Segoe UI" x="157, 162.80518, 165.27051, 170.57031, 175.66357, 180.24268, 182.42236, 184.60205, 187.41895, 189.59863, 194.30518, 197.43408, 199.89941, 206.40332, 211.49658, 213.67627, 217.8335, 222.92676, 225.39209, 227.57178, 232.66504, 237.96484, 240.14453, 244.30176, 248.88086, 251.93066, 256.63721, 260.45605, 262.92139, 265.97119, 271.06445, " y="1503, ">
				A qualifier which indicates the
		</text>
		<text fill="gray" font-size="9" font-family="Segoe UI" x="157, 160.12891, 165.40234, 167.58203, 172.28857, 174.75391, 180.02734, 182.84424, 185.30957, 188.35938, 193.45264, 198.15918, 200.62451, 204.44336, 207.49316, 212.07227, 215.12207, 219.82861, 225.12842, 227.59375, 230.72266, 235.4292, 240.72021, 245.99365, 249.8125, 251.99219, 255.04199, 260.31543, 263.44434, 267.79932, 270.26465, " y="1515, ">
				role of the stated repository -
		</text>
		<text fill="gray" font-size="9" font-family="Segoe UI" x="157, 161.70654, 165.8374, 171.12842, 174.25732, 178.96387, 182.78271, 186.60156, 191.30811, 196.60791, 199.07324, 204.36426, 208.71924, 211.18457, 215.76367, 218.229, 224.41211, 229.79541, " y="1527, ">
				expressed by a URI
		</text>
		<rect fill="white" x="161" y="1468" width="70" height="16"/>
		<text font-size="12" font-weight="600" font-family="Segoe UI" x="161, 165.72852, 172.2207, 179.66211, 186.99805, 192.27734, 197.00586, 204.3418, 207.75195, 214.24414, 221.50391, 226.32617, " y="1481, ">
				reposroleuri
		</text>
		<rect fill="none" stroke="black" stroke-width="1" stroke-linecap="square" stroke-miterlimit="4" transform="translate(0.5 0.5)" x="152" y="1466" width="85" height="20"/>
		<rect x="143" y="5" width="11" height="11"/>
		<rect fill="white" x="144" y="6" width="9" height="9"/>
		<rect x="145" y="10" width="7" height="1"/>
		<rect x="61" y="763" width="11" height="11"/>
		<rect fill="white" x="62" y="764" width="9" height="9"/>
		<rect x="63" y="768" width="7" height="1"/>
	</g>
</svg>
