<?xml version="1.0" encoding="utf-8" ?>
<svg xmlns="http://www.w3.org/2000/svg" xmlns:xlink="http://www.w3.org/1999/xlink" width="95" height="49">
	<clipPath id="cl_1ac">
		<rect x="-10" y="-5" width="95" height="49"/>
	</clipPath>
	<g clip-path="url(#cl_1ac)">
		<rect fill="silver" x="4" y="4" width="52" height="21"/>
		<rect fill="white" width="52" height="21"/>
		<rect fill="white" x="5" y="27" width="70" height="12"/>
		<text fill="gray" font-size="9" font-family="Segoe UI" x="5, 10.383301, 15.476562, 20.767578, 25.122559, 27.587891, 32.878906, 37.458008, 40.586914, 45.293457, 50.386719, 53.436523, 58.529785, 63.236328, 67.055176, 69.234863, " y="37, ">
				Ruby parenthesis
		</text>
		<rect fill="white" x="9" y="2" width="36" height="16"/>
		<text font-size="12" font-weight="600" font-family="Segoe UI" x="9, 13.775391, " y="15, ">
				rp
		</text>
		<path fill="none" stroke="black" stroke-width="1" stroke-linecap="square" stroke-miterlimit="4" transform="translate(0.5 0.5)" d="M2 2L7 2"/>
		<path fill="none" stroke="black" stroke-width="1" stroke-linecap="square" stroke-miterlimit="4" transform="translate(0.5 0.5)" d="M2 4L6 4"/>
		<path fill="none" stroke="black" stroke-width="1" stroke-linecap="square" stroke-miterlimit="4" transform="translate(0.5 0.5)" d="M2 6L6 6"/>
		<rect fill="none" stroke="black" stroke-width="1" stroke-linecap="square" stroke-miterlimit="4" transform="translate(0.5 0.5)" width="51" height="20"/>
	</g>
</svg>
