<?xml version="1.0" encoding="utf-8" ?>
<svg xmlns="http://www.w3.org/2000/svg" xmlns:xlink="http://www.w3.org/1999/xlink" width="394" height="1864">
	<clipPath id="cl_205">
		<rect x="-10" y="-5" width="394" height="1864"/>
	</clipPath>
	<g clip-path="url(#cl_205)">
		<rect fill="#FFFFC0" x="137" width="183" height="1390"/>
		<rect fill="none" stroke="gray" stroke-width="1" stroke-linecap="square" stroke-miterlimit="4" transform="translate(0.5 0.5)" x="137" width="182" height="1389"/>
		<path fill="none" stroke="black" stroke-width="1" stroke-linecap="square" stroke-miterlimit="4" transform="translate(0.5 0.5)" d="M103 1220L149 1220"/>
		<path fill="none" stroke="black" stroke-width="1" stroke-linecap="square" stroke-miterlimit="4" transform="translate(0.5 0.5)" d="M150 1220L150 708"/>
		<path fill="none" stroke="black" stroke-width="1" stroke-linecap="square" stroke-miterlimit="4" transform="translate(0.5 0.5)" d="M150 1220L150 1540"/>
		<path transform="translate(0.5 0.5)" d="M150.5 1541L150.5 1543L150.5 1543.5L149.5 1543.5L149.5 1543L149.5 1540.5L150.5 1540.5L150.5 1541ZM150.5 1547L150.5 1549L150.5 1549.5L149.5 1549.5L149.5 1549L149.5 1546.5L150.5 1546.5L150.5 1547ZM150.5 1553L150.5 1555L150.5 1555.5L149.5 1555.5L149.5 1555L149.5 1552.5L150.5 1552.5L150.5 1553ZM150.5 1559L150.5 1561L150.5 1561.5L149.5 1561.5L149.5 1561L149.5 1558.5L150.5 1558.5L150.5 1559ZM150.5 1565L150.5 1567L150.5 1567.5L149.5 1567.5L149.5 1567L149.5 1564.5L150.5 1564.5L150.5 1565ZM150.5 1571L150.5 1573L150.5 1573.5L149.5 1573.5L149.5 1573L149.5 1570.5L150.5 1570.5L150.5 1571ZM150.5 1577L150.5 1579L150.5 1579.5L149.5 1579.5L149.5 1579L149.5 1576.5L150.5 1576.5L150.5 1577ZM150.5 1583L150.5 1585L150.5 1585.5L149.5 1585.5L149.5 1585L149.5 1582.5L150.5 1582.5L150.5 1583ZM150.5 1589L150.5 1591L150.5 1591.5L149.5 1591.5L149.5 1591L149.5 1588.5L150.5 1588.5L150.5 1589ZM150.5 1595L150.5 1597L150.5 1597.5L149.5 1597.5L149.5 1597L149.5 1594.5L150.5 1594.5L150.5 1595ZM150.5 1601L150.5 1603L150.5 1603.5L149.5 1603.5L149.5 1603L149.5 1600.5L150.5 1600.5L150.5 1601ZM150.5 1607L150.5 1609L150.5 1609.5L149.5 1609.5L149.5 1609L149.5 1606.5L150.5 1606.5L150.5 1607ZM150.5 1613L150.5 1615L150.5 1615.5L149.5 1615.5L149.5 1615L149.5 1612.5L150.5 1612.5L150.5 1613ZM150.5 1619L150.5 1621L150.5 1621.5L149.5 1621.5L149.5 1621L149.5 1618.5L150.5 1618.5L150.5 1619ZM150.5 1625L150.5 1627L150.5 1627.5L149.5 1627.5L149.5 1627L149.5 1624.5L150.5 1624.5L150.5 1625ZM150.5 1631L150.5 1633L150.5 1633.5L149.5 1633.5L149.5 1633L149.5 1630.5L150.5 1630.5L150.5 1631ZM150.5 1637L150.5 1639L150.5 1639.5L149.5 1639.5L149.5 1639L149.5 1636.5L150.5 1636.5L150.5 1637ZM150.5 1643L150.5 1645L150.5 1645.5L149.5 1645.5L149.5 1645L149.5 1642.5L150.5 1642.5L150.5 1643ZM150.5 1649L150.5 1651L150.5 1651.5L149.5 1651.5L149.5 1651L149.5 1648.5L150.5 1648.5L150.5 1649ZM150.5 1655L150.5 1657L150.5 1657.5L149.5 1657.5L149.5 1657L149.5 1654.5L150.5 1654.5L150.5 1655ZM150.5 1661L150.5 1663L150.5 1663.5L149.5 1663.5L149.5 1663L149.5 1660.5L150.5 1660.5L150.5 1661ZM150.5 1667L150.5 1669L150.5 1669.5L149.5 1669.5L149.5 1669L149.5 1666.5L150.5 1666.5L150.5 1667ZM150.5 1673L150.5 1675L150.5 1675.5L149.5 1675.5L149.5 1675L149.5 1672.5L150.5 1672.5L150.5 1673ZM150.5 1679L150.5 1681L150.5 1681.5L149.5 1681.5L149.5 1681L149.5 1678.5L150.5 1678.5L150.5 1679ZM150.5 1685L150.5 1687L150.5 1687.5L149.5 1687.5L149.5 1687L149.5 1684.5L150.5 1684.5L150.5 1685ZM150.5 1691L150.5 1693L150.5 1693.5L149.5 1693.5L149.5 1693L149.5 1690.5L150.5 1690.5L150.5 1691ZM150.5 1697L150.5 1699L150.5 1699.5L149.5 1699.5L149.5 1699L149.5 1696.5L150.5 1696.5L150.5 1697ZM150.5 1703L150.5 1705L150.5 1705.5L149.5 1705.5L149.5 1705L149.5 1702.5L150.5 1702.5L150.5 1703ZM150.5 1709L150.5 1711L150.5 1711.5L149.5 1711.5L149.5 1711L149.5 1708.5L150.5 1708.5L150.5 1709ZM150.5 1715L150.5 1717L150.5 1717.5L149.5 1717.5L149.5 1717L149.5 1714.5L150.5 1714.5L150.5 1715ZM150.5 1721L150.5 1723L150.5 1723.5L149.5 1723.5L149.5 1723L149.5 1720.5L150.5 1720.5L150.5 1721ZM150.5 1727L150.5 1729.5L149.5 1729.5L149.5 1726.5L150.5 1726.5L150.5 1727Z"/>
		<path transform="translate(0.5 0.5)" d="M150 1732.5L152 1732.5L152.5 1732.5L152.5 1733.5L152 1733.5L149.5 1733.5L149.5 1732.5L150 1732.5ZM156 1732.5L158 1732.5L158.5 1732.5L158.5 1733.5L158 1733.5L155.5 1733.5L155.5 1732.5L156 1732.5ZM162 1732.5L164.5 1732.5L164.5 1733.5L161.5 1733.5L161.5 1732.5L162 1732.5Z"/>
		<path fill="none" stroke="black" stroke-width="1" stroke-linecap="square" stroke-miterlimit="4" transform="translate(0.5 0.5)" d="M150 1541L164 1541"/>
		<path fill="none" stroke="black" stroke-width="1" stroke-linecap="square" stroke-miterlimit="4" transform="translate(0.5 0.5)" d="M150 707L164 707"/>
		<path fill="silver" d="M4 1219L9 1214L103 1214L103 1236L9 1236L4 1231L4 1219Z"/>
		<path fill="white" d="M0 1215L5 1210L99 1210L99 1232L5 1232L0 1227L0 1215Z"/>
		<rect fill="#FFFFC0" x="145" y="8" width="93" height="16"/>
		<text fill="gray" font-size="12" font-weight="600" font-family="Segoe UI" x="145, 154.09961, 161.58789, 168.92383, 176.35352, 182.8457, 190.2168, 194.94531, 202.28125, 209.72266, 216.21484, 222.67188, 230.11328, " y="21, ">
				QCodePropType
		</text>
		<rect fill="white" x="5" y="1237" width="117" height="48"/>
		<text fill="gray" font-size="9" font-family="Segoe UI" x="5, 9.21875, 13.57373, 18.864746, 23.571289, 26.036621, 29.086426, 33.441406, 38.732422, 43.438965, 45.904297, 48.721191, 53.994629, 57.123535, 59.588867, 64.167969, 66.633301, 71.924316, 75.053223, 80.32666, 85.617676, 90.324219, 93.453125, 96.50293, 100.85791, 103.32324, 109.82715, 112.00684, 115.05664, " y="1247, ">
				Type type for a property with
		</text>
		<text fill="gray" font-size="9" font-family="Segoe UI" x="5, 9.5791016, 14.509766, 21.294922, 26.867188, 32.140625, 37.44043, 42.146973, 44.612305, 48.92334, 53.502441, 55.682129, 60.775391, 65.481934, 67.947266, 70.126953, 75.220215, 77.685547, 82.264648, 84.72998, 90.029785, 94.187012, 99.460449, 104.76025, " y="1259, ">
				a QCode value in a qcode
		</text>
		<text fill="gray" font-size="9" font-family="Segoe UI" x="5, 9.5791016, 12.628906, 15.678711, 18.807617, 20.987305, 26.27832, 31.371582, 34.421387, 39.12793, 41.079102, 43.544434, 48.123535, 50.588867, 56.771973, 62.155273, 64.550293, 67.015625, 69.195312, 74.288574, 76.753906, 81.333008, 83.79834, 88.891602, 92.020508, " y="1271, ">
				attribute, a URI in a uri
		</text>
		<text fill="gray" font-size="9" font-family="Segoe UI" x="5, 9.5791016, 12.628906, 15.678711, 18.807617, 20.987305, 26.27832, 31.371582, 34.421387, 39.12793, 41.593262, 46.172363, 51.265625, 56.56543, 59.030762, 64.304199, 69.595215, 72.64502, 74.824707, 80.098145, 85.191406, 89.770508, 91.950195, 94.415527, 99.508789, 104.08789, 111.83984, 116.54639, " y="1283, ">
				attribute and optional names
		</text>
		<rect fill="white" x="5" y="1212" width="81" height="16"/>
		<text font-size="12" font-weight="600" font-family="Segoe UI" x="5, 14.099609, 21.359375, 27.816406, 31.226562, 38.597656, 43.326172, 50.662109, 58.103516, 64.595703, 71.052734, 78.494141, " y="1225, ">
				QualPropType
		</text>
		<rect fill="#FFFFC0" x="242" y="8" width="59" height="16"/>
		<text fill="gray" font-size="12" font-family="Segoe UI" x="242, 245.62109, 251.89648, 257.4043, 261.4707, 267.74609, 274.53711, 279.62891, 282.53516, 289.56641, 296.35742, " y="21, ">
				(extension)
		</text>
		<path fill="none" stroke="black" stroke-width="1" stroke-linecap="square" stroke-miterlimit="4" transform="translate(0.5 0.5)" d="M0 1215L5 1210L98 1210L98 1231L5 1231L0 1226L0 1215Z"/>
		<path fill="white" d="M242 55L242 36L165 36L165 55L165 1377L312 1377L312 55L242 55Z"/>
		<rect fill="white" x="185" y="38" width="51" height="16"/>
		<text font-size="12" font-style="italic" font-family="Segoe UI" x="185, 191.50391, 195.38281, 199.26172, 203.5332, 206.63867, 213.14258, 219.83984, 223.73047, 229.57227, " y="51, ">
				attributes
		</text>
		<path fill="none" stroke="black" stroke-width="1" stroke-linecap="square" stroke-miterlimit="4" transform="translate(0.5 0.5)" d="M242 55L242 36L165 36L165 55L165 1377L312 1377L312 55L242 55Z"/>
		<rect fill="silver" x="183" y="68" width="52" height="21"/>
		<rect fill="white" x="179" y="64" width="52" height="21"/>
		<rect fill="white" x="184" y="91" width="101" height="24"/>
		<text fill="gray" font-size="9" font-family="Segoe UI" x="184, 188.71533, 193.80859, 198.51514, 200.98047, 203.16016, 208.43359, 212.59082, 217.16992, 219.34961, 221.81494, 223.99463, 229.29443, 234.00098, 239.09424, 242.14404, 244.32373, 247.14062, 249.32031, 254.02686, 257.15576, 259.62109, 264.89453, 267.71143, 270.17676, 273.22656, 278.31982, " y="101, ">
				The local identifier of the
		</text>
		<text fill="gray" font-size="9" font-family="Segoe UI" x="184, 189.29102, 192.41992, 197.69336, 202.98438, 207.69092, 210.81982, 213.86963, 218.22461, " y="113, ">
				property.
		</text>
		<rect fill="white" x="188" y="66" width="36" height="16"/>
		<text font-size="12" font-weight="600" font-family="Segoe UI" x="188, 191.41016, " y="79, ">
				id
		</text>
		<rect fill="none" stroke="black" stroke-width="1" stroke-linecap="square" stroke-miterlimit="4" transform="translate(0.5 0.5)" x="179" y="64" width="51" height="20"/>
		<rect fill="silver" x="183" y="126" width="58" height="21"/>
		<rect fill="white" x="179" y="122" width="58" height="21"/>
		<rect fill="white" x="184" y="149" width="121" height="120"/>
		<text fill="gray" font-size="9" font-family="Segoe UI" x="184, 186.39502, 189.21191, 191.67725, 194.72705, 199.82031, 204.52686, 206.99219, 212.2832, 215.41211, 220.68555, 225.97656, 230.68311, 233.81201, 236.86182, 241.2168, 243.68213, 247.99316, 252.57227, 254.75195, 259.84521, 264.55176, 267.01709, 269.19678, 273.01562, 275.48096, 280.57422, 285.84766, " y="159, ">
				If the property value is not
		</text>
		<text fill="gray" font-size="9" font-family="Segoe UI" x="184, 189.2998, 194.00635, 196.82324, 199.00293, 204.09619, 208.80273, 214.10254, 216.05371, 218.51904, 222.33789, 227.62891, 232.33545, 236.49268, 238.67236, 241.48926, 243.66895, 248.37549, 252.19434, 254.65967, 261.16357, 266.25684, 268.43652, 272.59375, 277.68701, 280.15234, 284.85889, 289.95215, 293.00195, 295.18164, 298.23145, " y="171, ">
				defined, specifies which entity
		</text>
		<text fill="gray" font-size="9" font-family="Segoe UI" x="184, 186.71582, 192.00684, 196.71338, 199.84229, 203.66113, 208.93457, 214.02783, 215.979, 218.44434, 223.71777, 226.84668, 232.14648, 236.72559, 241.81885, 243.99854, 247.81738, 252.39648, 255.44629, 257.62598, 262.89941, 267.99268, 270.45801, 275.73145, " y="183, ">
				(person, organisation or
		</text>
		<text fill="gray" font-size="9" font-family="Segoe UI" x="184, 187.81885, 192.17383, 195.99268, 199.04248, 203.74902, 211.50098, 214.2168, 216.68213, 223.18604, 225.36572, 227.54541, 229.7251, 232.19043, 236.89697, 242.19678, 244.37646, 247.42627, 249.8916, 252.94141, 258.03467, 262.74121, 265.20654, 270.49756, 273.62646, 278.8999, 284.19092, 288.89746, 292.02637, 295.07617, " y="195, ">
				system) will edit the property
		</text>
		<text fill="gray" font-size="9" font-family="Segoe UI" x="184, 188.31104, 192.89014, 195.06982, 200.16309, 204.86963, 207.33496, 210.93408, 213.39941, 218.10596, 222.23682, 227.52783, 230.65674, 235.36328, 239.18213, 243.00098, 247.70752, 253.00732, 255.47266, 260.76367, 265.11865, 267.58398, 272.16309, 274.62842, 281.41357, 286.98584, 292.25928, 297.55908, 302.26562, " y="207, ">
				value - expressed by a QCode.
		</text>
		<text fill="gray" font-size="9" font-family="Segoe UI" x="184, 186.39502, 189.21191, 191.67725, 194.72705, 199.82031, 204.52686, 206.99219, 212.2832, 215.41211, 220.68555, 225.97656, 230.68311, 233.81201, 236.86182, 241.2168, 243.68213, 247.99316, 252.57227, 254.75195, 259.84521, 264.55176, 267.01709, 269.19678, " y="219, ">
				If the property value is
		</text>
		<text fill="gray" font-size="9" font-family="Segoe UI" x="184, 189.2998, 194.00635, 196.82324, 199.00293, 204.09619, 208.80273, 214.10254, 216.05371, 218.51904, 222.33789, 227.62891, 232.33545, 236.49268, 238.67236, 241.48926, 243.66895, 248.37549, 252.19434, 254.65967, 261.16357, 266.25684, 268.43652, 272.59375, 277.68701, 280.15234, 284.85889, 289.95215, 293.00195, 295.18164, 298.23145, " y="231, ">
				defined, specifies which entity
		</text>
		<text fill="gray" font-size="9" font-family="Segoe UI" x="184, 186.71582, 192.00684, 196.71338, 199.84229, 203.66113, 208.93457, 214.02783, 215.979, 218.44434, 223.71777, 226.84668, 232.14648, 236.72559, 241.81885, 243.99854, 247.81738, 252.39648, 255.44629, 257.62598, 262.89941, 267.99268, 270.45801, 275.73145, " y="243, ">
				(person, organisation or
		</text>
		<text fill="gray" font-size="9" font-family="Segoe UI" x="184, 187.81885, 192.17383, 195.99268, 199.04248, 203.74902, 211.50098, 214.2168, 216.68213, 221.77539, 226.35449, 230.17334, 232.63867, 237.34521, 242.64502, 244.82471, 247.87451, 252.58105, 257.88086, 260.34619, 263.396, 268.48926, " y="255, ">
				system) has edited the
		</text>
		<text fill="gray" font-size="9" font-family="Segoe UI" x="184, 189.29102, 192.41992, 197.69336, 202.98438, 207.69092, 210.81982, 213.86963, 218.22461, 220.68994, 225.00098, 229.58008, 231.75977, 236.85303, 241.55957, " y="267, ">
				property value.
		</text>
		<rect fill="white" x="188" y="124" width="42" height="16"/>
		<text font-size="12" font-weight="600" font-family="Segoe UI" x="188, 193.75977, 198.48828, 204.98047, 211.4375, 216.06055, 223.39648, " y="137, ">
				creator
		</text>
		<rect fill="none" stroke="black" stroke-width="1" stroke-linecap="square" stroke-miterlimit="4" transform="translate(0.5 0.5)" x="179" y="122" width="57" height="20"/>
		<rect fill="silver" x="183" y="280" width="73" height="21"/>
		<rect fill="white" x="179" y="276" width="73" height="21"/>
		<rect fill="white" x="184" y="303" width="120" height="108"/>
		<text fill="gray" font-size="9" font-family="Segoe UI" x="184, 186.39502, 189.21191, 191.67725, 194.72705, 199.82031, 204.52686, 206.99219, 212.2832, 215.41211, 220.68555, 225.97656, 230.68311, 233.81201, 236.86182, 241.2168, 243.68213, 247.99316, 252.57227, 254.75195, 259.84521, 264.55176, 267.01709, 269.19678, 273.01562, 275.48096, 280.57422, 285.84766, " y="313, ">
				If the property value is not
		</text>
		<text fill="gray" font-size="9" font-family="Segoe UI" x="184, 189.2998, 194.00635, 196.82324, 199.00293, 204.09619, 208.80273, 214.10254, 216.05371, 218.51904, 222.33789, 227.62891, 232.33545, 236.49268, 238.67236, 241.48926, 243.66895, 248.37549, 252.19434, 254.65967, 261.16357, 266.25684, 268.43652, 272.59375, 277.68701, 280.15234, 284.85889, 289.95215, 293.00195, 295.18164, 298.23145, " y="325, ">
				defined, specifies which entity
		</text>
		<text fill="gray" font-size="9" font-family="Segoe UI" x="184, 186.71582, 192.00684, 196.71338, 199.84229, 203.66113, 208.93457, 214.02783, 215.979, 218.44434, 223.71777, 226.84668, 232.14648, 236.72559, 241.81885, 243.99854, 247.81738, 252.39648, 255.44629, 257.62598, 262.89941, 267.99268, 270.45801, 275.73145, " y="337, ">
				(person, organisation or
		</text>
		<text fill="gray" font-size="9" font-family="Segoe UI" x="184, 187.81885, 192.17383, 195.99268, 199.04248, 203.74902, 211.50098, 214.2168, 216.68213, 223.18604, 225.36572, 227.54541, 229.7251, 232.19043, 236.89697, 242.19678, 244.37646, 247.42627, 249.8916, 252.94141, 258.03467, 262.74121, 265.20654, 270.49756, 273.62646, 278.8999, 284.19092, 288.89746, 292.02637, 295.07617, " y="349, ">
				system) will edit the property
		</text>
		<text fill="gray" font-size="9" font-family="Segoe UI" x="184, 187.59912, 190.06445, 194.771, 198.90186, 204.19287, 207.32178, 212.02832, 215.84717, 219.66602, 224.37256, 229.67236, 232.1377, 237.42871, 241.78369, 244.24902, 248.82812, 251.29346, 257.47656, 262.85986, 265.25488, 267.20605, 269.67139, 272.06641, 274.8833, 277.34863, 280.39844, 285.4917, " y="361, ">
				- expressed by a URI. If the
		</text>
		<text fill="gray" font-size="9" font-family="Segoe UI" x="184, 189.29102, 192.41992, 197.69336, 202.98438, 207.69092, 210.81982, 213.86963, 218.22461, 220.68994, 225.00098, 229.58008, 231.75977, 236.85303, 241.55957, 244.0249, 246.20459, 250.02344, 252.48877, 257.78857, 262.49512, 265.31201, 267.4917, 272.58496, 277.2915, 282.59131, " y="373, ">
				property value is defined,
		</text>
		<text fill="gray" font-size="9" font-family="Segoe UI" x="184, 187.81885, 193.10986, 197.81641, 201.97363, 204.15332, 206.97021, 209.1499, 213.85645, 217.67529, 220.14062, 226.64453, 231.73779, 233.91748, 238.07471, 243.16797, 245.6333, 250.33984, 255.43311, 258.48291, 260.6626, 263.7124, 268.06738, 270.53271, 273.24854, 278.53955, 283.24609, 286.375, 290.19385, 295.46729, 300.56055, " y="385, ">
				specifies which entity (person,
		</text>
		<text fill="gray" font-size="9" font-family="Segoe UI" x="184, 189.27344, 192.40234, 197.70215, 202.28125, 207.37451, 209.5542, 213.37305, 217.95215, 221.00195, 223.18164, 228.45508, 233.54834, 236.01367, 241.28711, 244.41602, 246.88135, 250.7002, 255.05518, 258.87402, 261.92383, 266.63037, 274.38232, 277.09814, 279.56348, 284.65674, 289.23584, " y="397, ">
				organisation or system) has
		</text>
		<text fill="gray" font-size="9" font-family="Segoe UI" x="184, 188.70654, 194.00635, 196.18604, 199.23584, 203.94238, 209.24219, 211.70752, 214.75732, 219.85059, 224.55713, 227.02246, 232.31348, 235.44238, 240.71582, 246.00684, 250.71338, 253.84229, 256.89209, 261.24707, " y="409, ">
				edited the property.
		</text>
		<rect fill="white" x="188" y="278" width="57" height="16"/>
		<text font-size="12" font-weight="600" font-family="Segoe UI" x="188, 193.75977, 198.48828, 204.98047, 211.4375, 216.06055, 223.39648, 228.20703, 235.4668, 240.28906, " y="291, ">
				creatoruri
		</text>
		<rect fill="none" stroke="black" stroke-width="1" stroke-linecap="square" stroke-miterlimit="4" transform="translate(0.5 0.5)" x="179" y="276" width="72" height="20"/>
		<rect fill="silver" x="183" y="422" width="69" height="21"/>
		<rect fill="white" x="179" y="418" width="69" height="21"/>
		<rect fill="white" x="184" y="445" width="119" height="72"/>
		<text fill="gray" font-size="9" font-family="Segoe UI" x="184, 188.71533, 193.80859, 198.51514, 200.98047, 206.28027, 210.85938, 213.90918, 218.61572, 221.08105, 223.79688, 228.37598, 233.46924, 238.76904, 240.72021, 243.18555, 248.45898, 253.75, 256.7998, 258.97949, 264.25293, 269.34619, 273.92529, 276.10498, 278.28467, 282.63965, 284.59082, 287.05615, 290.10596, 295.19922, " y="455, ">
				The date (and, optionally, the
		</text>
		<text fill="gray" font-size="9" font-family="Segoe UI" x="184, 187.0498, 189.22949, 196.98145, 201.68799, 204.40381, 206.86914, 213.37305, 218.46631, 223.17285, 228.26611, 230.73145, 233.78125, 238.87451, 243.58105, 246.04639, 251.3374, 254.46631, 259.73975, 265.03076, 269.7373, 272.86621, 275.91602, 280.271, 282.73633, 289.24023, 293.81934, " y="467, ">
				time) when the property was
		</text>
		<text fill="gray" font-size="9" font-family="Segoe UI" x="184, 186.17969, 190.75879, 194.57764, 197.62744, 200.09277, 207.84473, 213.11816, 218.41797, 220.59766, 223.41455, 225.59424, 230.30078, 235.60059, 237.55176, 240.01709, 244.73242, 249.82568, 254.53223, 256.99756, 259.17725, 264.27051, 266.4502, 269.5, 271.67969, 276.25879, 278.43848, 280.90381, 285.21484, 289.79395, 291.97363, 297.06689, " y="479, ">
				last modified. The initial value
		</text>
		<text fill="gray" font-size="9" font-family="Segoe UI" x="184, 186.17969, 189.99854, 192.46387, 195.51367, 200.60693, 205.31348, 207.77881, 213.07861, 217.65771, 220.70752, 225.41406, 227.87939, 230.59521, 235.17432, 240.26758, 245.56738, 247.51855, 249.98389, 255.25732, 260.54834, 263.59814, 265.77783, 271.05127, 276.14453, 280.72363, 282.90332, 285.08301, 289.43799, " y="491, ">
				is the date (and, optionally,
		</text>
		<text fill="gray" font-size="9" font-family="Segoe UI" x="184, 187.0498, 192.14307, 196.84961, 199.31494, 202.36475, 204.54443, 212.29639, 217.00293, 219.71875, 222.18408, 227.45752, 230.27441, 232.73975, 236.89697, 240.02588, 244.73242, 249.31152, 252.36133, 254.54102, 259.81445, 264.90771, 267.37305, 272.64648, 275.46338, 277.92871, 280.97852, 286.07178, " y="503, ">
				the time) of creation of the
		</text>
		<text fill="gray" font-size="9" font-family="Segoe UI" x="184, 189.29102, 192.41992, 197.69336, 202.98438, 207.69092, 210.81982, 213.86963, 218.22461, " y="515, ">
				property.
		</text>
		<rect fill="white" x="188" y="420" width="53" height="16"/>
		<text font-size="12" font-weight="600" font-family="Segoe UI" x="188, 198.99219, 206.32812, 213.75781, 217.16797, 221.76758, 225.17773, 231.66992, " y="433, ">
				modified
		</text>
		<rect fill="none" stroke="black" stroke-width="1" stroke-linecap="square" stroke-miterlimit="4" transform="translate(0.5 0.5)" x="179" y="418" width="68" height="20"/>
		<rect fill="silver" x="183" y="528" width="59" height="21"/>
		<rect fill="white" x="179" y="524" width="59" height="21"/>
		<rect fill="white" x="184" y="551" width="118" height="108"/>
		<text fill="gray" font-size="9" font-family="Segoe UI" x="184, 186.39502, 189.21191, 191.67725, 195.49609, 200.20264, 203.25244, 205.71777, 208.76758, 214.04102, 216.50635, 219.55615, 222.68506, 227.77832, 232.48486, 234.9502, 238, 243.09326, " y="561, ">
				If set to true the
		</text>
		<text fill="gray" font-size="9" font-family="Segoe UI" x="184, 188.15723, 193.43066, 196.55957, 199.68848, 204.39502, 208.21387, 213.50488, 218.77832, 223.87158, 229.17139, 231.35107, 236.44434, 241.74414, 244.20947, 249.50049, 252.62939, 257.90283, 263.19385, 267.90039, 271.0293, 274.0791, 278.43408, 280.89941, 287.40332, 291.98242, " y="573, ">
				corresponding property was
		</text>
		<text fill="gray" font-size="9" font-family="Segoe UI" x="184, 188.5791, 193.87891, 199.17871, 203.88525, 209.18506, 211.65039, 214.7002, 219.97363, 222.43896, 225.48877, 230.58203, 235.28857, 237.75391, 243.92822, 248.77979, 251.24512, 253.64014, 256.68994, 261.39648, 269.14844, 271.61377, 274.43066, 279.7041, 282.83301, 285.29834, " y="585, ">
				added to the G2 Item for a
		</text>
		<text fill="gray" font-size="9" font-family="Segoe UI" x="184, 187.81885, 193.10986, 197.81641, 201.97363, 204.15332, 206.97021, 209.1499, 213.30713, 215.77246, 219.92969, 225.02295, 228.8418, 231.8916, 237.16504, 244.91699, 249.62354, 252.75244, 255.21777, 260.49121, 263.62012, 266.08545, 271.38525, 274.51416, 279.7876, 284.88086, 290.17188, 292.63721, 297.91064, " y="597, ">
				specific customer or group of
		</text>
		<text fill="gray" font-size="9" font-family="Segoe UI" x="184, 188.15723, 193.25049, 197.06934, 200.11914, 205.39258, 213.14453, 217.85107, 220.97998, 224.79883, 227.26416, 232.5376, 237.63086, 239.81055, 244.16553, 246.1167, 248.58203, 253.29736, 258.39062, 263.09717, 265.5625, 270.8623, 275.56885, 278.38574, 282.96484, 288.05811, 290.23779, " y="609, ">
				customers only. The default
		</text>
		<text fill="gray" font-size="9" font-family="Segoe UI" x="184, 188.31104, 192.89014, 195.06982, 200.16309, 204.86963, 207.33496, 212.6084, 215.42529, 217.89062, 220.94043, 226.03369, 228.21338, 232.03223, 234.49756, 239.78857, 242.91748, 248.19092, 253.48193, 258.18848, 261.31738, 264.36719, 268.72217, 271.1875, 273.36719, 277.18604, 279.65137, 282.46826, 287.04736, 289.22705, 293.0459, " y="621, ">
				value of this property is false
		</text>
		<text fill="gray" font-size="9" font-family="Segoe UI" x="184, 190.50391, 195.59717, 197.77686, 201.93408, 207.02734, 209.49268, 214.07178, 219.36279, 224.65381, 226.8335, 229.01318, 233.71973, 237.53857, 240.00391, 246.50781, 251.60107, 256.30762, 261.40088, 263.86621, 266.91602, 272.00928, 274.18896, " y="633, ">
				which applies when this
		</text>
		<text fill="gray" font-size="9" font-family="Segoe UI" x="184, 188.5791, 191.62891, 194.67871, 197.80762, 199.9873, 205.27832, 210.37158, 213.42139, 218.12793, 220.59326, 222.77295, 226.5918, 229.05713, 234.15039, 239.42383, 242.47363, 244.93896, 250.03223, 253.85107, 258.55762, 263.85742, 266.32275, 272.82666, 275.00635, 278.05615, 283.14941, 285.61475, 288.66455, 293.75781, " y="645, ">
				attribute is not used with the
		</text>
		<text fill="gray" font-size="9" font-family="Segoe UI" x="184, 189.29102, 192.41992, 197.69336, 202.98438, 207.69092, 210.81982, 213.86963, 218.22461, " y="657, ">
				property.
		</text>
		<rect fill="white" x="188" y="526" width="43" height="16"/>
		<text font-size="12" font-weight="600" font-family="Segoe UI" x="188, 193.75977, 201.01953, 206.29883, 210.92188, 218.25781, " y="539, ">
				custom
		</text>
		<rect fill="none" stroke="black" stroke-width="1" stroke-linecap="square" stroke-miterlimit="4" transform="translate(0.5 0.5)" x="179" y="524" width="58" height="20"/>
		<rect fill="silver" x="183" y="670" width="52" height="21"/>
		<rect fill="white" x="179" y="666" width="52" height="21"/>
		<rect fill="white" x="184" y="693" width="118" height="48"/>
		<text fill="gray" font-size="9" font-family="Segoe UI" x="184, 186.39502, 191.48828, 196.78809, 198.96777, 203.125, 207.7041, 210.75391, 215.46045, 219.2793, 221.74463, 227.03564, 231.39062, 233.85596, 240.35986, 245.45312, 247.63281, 251.79004, 256.8833, 259.34863, 267.10059, 271.80713, 276.38623, 281.47949, 285.29834, 287.76367, 290.81348, 295.90674, " y="703, ">
				Indicates by which means the
		</text>
		<text fill="gray" font-size="9" font-family="Segoe UI" x="184, 188.31104, 192.89014, 195.06982, 200.16309, 204.86963, 207.33496, 213.83887, 218.41797, 222.23682, 224.70215, 229.40869, 233.53955, 236.58936, 239.71826, 244.29736, 248.45459, 251.50439, 256.21094, 261.51074, 263.97607, 266.79297, 269.92188, 275.19531, 282.94727, 285.4126, 288.4624, 293.55566, " y="715, ">
				value was extracted from the
		</text>
		<text fill="gray" font-size="9" font-family="Segoe UI" x="184, 188.15723, 193.43066, 198.52393, 201.57373, 206.28027, 211.37354, 214.42334, 216.88867, 220.48779, 222.95312, 227.65967, 231.79053, 237.08154, 240.21045, 244.91699, 248.73584, 252.55469, 257.26123, 262.56104, 265.02637, 270.31738, 274.67236, 277.1377, " y="727, ">
				content - expressed by a
		</text>
		<text fill="gray" font-size="9" font-family="Segoe UI" x="184, 190.78516, 196.35742, 201.63086, 206.93066, " y="739, ">
				QCode
		</text>
		<rect fill="white" x="188" y="668" width="36" height="16"/>
		<text font-size="12" font-weight="600" font-family="Segoe UI" x="188, 195.22461, 202.56055, " y="681, ">
				how
		</text>
		<rect fill="none" stroke="black" stroke-width="1" stroke-linecap="square" stroke-miterlimit="4" transform="translate(0.5 0.5)" x="179" y="666" width="51" height="20"/>
		<rect fill="silver" x="183" y="752" width="57" height="21"/>
		<rect fill="white" x="179" y="748" width="57" height="21"/>
		<rect fill="white" x="184" y="775" width="118" height="36"/>
		<text fill="gray" font-size="9" font-family="Segoe UI" x="184, 186.39502, 191.48828, 196.78809, 198.96777, 203.125, 207.7041, 210.75391, 215.46045, 219.2793, 221.74463, 227.03564, 231.39062, 233.85596, 240.35986, 245.45312, 247.63281, 251.79004, 256.8833, 259.34863, 267.10059, 271.80713, 276.38623, 281.47949, 285.29834, 287.76367, 290.81348, 295.90674, " y="785, ">
				Indicates by which means the
		</text>
		<text fill="gray" font-size="9" font-family="Segoe UI" x="184, 188.31104, 192.89014, 195.06982, 200.16309, 204.86963, 207.33496, 213.83887, 218.41797, 222.23682, 224.70215, 229.40869, 233.53955, 236.58936, 239.71826, 244.29736, 248.45459, 251.50439, 256.21094, 261.51074, 263.97607, 266.79297, 269.92188, 275.19531, 282.94727, 285.4126, 288.4624, 293.55566, " y="797, ">
				value was extracted from the
		</text>
		<text fill="gray" font-size="9" font-family="Segoe UI" x="184, 188.15723, 193.43066, 198.52393, 201.57373, 206.28027, 211.37354, 214.42334, 216.88867, 220.48779, 222.95312, 227.65967, 231.79053, 237.08154, 240.21045, 244.91699, 248.73584, 252.55469, 257.26123, 262.56104, 265.02637, 270.31738, 274.67236, 277.1377, 281.7168, 284.18213, 290.36523, 295.74854, " y="809, ">
				content - expressed by a URI
		</text>
		<rect fill="white" x="188" y="750" width="41" height="16"/>
		<text font-size="12" font-weight="600" font-family="Segoe UI" x="188, 195.22461, 202.56055, 212.12891, 219.38867, 224.21094, " y="763, ">
				howuri
		</text>
		<rect fill="none" stroke="black" stroke-width="1" stroke-linecap="square" stroke-miterlimit="4" transform="translate(0.5 0.5)" x="179" y="748" width="56" height="20"/>
		<rect fill="silver" x="183" y="822" width="52" height="21"/>
		<rect fill="white" x="179" y="818" width="52" height="21"/>
		<rect fill="white" x="184" y="845" width="113" height="36"/>
		<text fill="gray" font-size="9" font-family="Segoe UI" x="184, 192.40674, 197.5, 201.85498, 204.32031, 207.37012, 212.46338, 217.16992, 219.63525, 227.38721, 232.09375, 235.14355, 239.72266, 245.02246, 249.60156, 252.65137, 257.23047, 259.6958, 264.78906, 269.36816, 273.18701, 275.65234, 280.94336, 285.6499, 290.35645, " y="855, ">
				Why the metadata has been
		</text>
		<text fill="gray" font-size="9" font-family="Segoe UI" x="184, 186.17969, 191.27295, 195.43018, 197.60986, 202.70312, 208.00293, 212.70947, 218.00928, 220.47461, 224.07373, 226.53906, 231.24561, 235.37646, 240.66748, 243.79639, 248.50293, 252.32178, 256.14062, 260.84717, 266.14697, 268.6123, 273.90332, 278.2583, 280.72363, " y="867, ">
				included - expressed by a
		</text>
		<text fill="gray" font-size="9" font-family="Segoe UI" x="184, 190.78516, 196.35742, 201.63086, 206.93066, " y="879, ">
				QCode
		</text>
		<rect fill="white" x="188" y="820" width="36" height="16"/>
		<text font-size="12" font-weight="600" font-family="Segoe UI" x="188, 197.56836, 204.79297, " y="833, ">
				why
		</text>
		<rect fill="none" stroke="black" stroke-width="1" stroke-linecap="square" stroke-miterlimit="4" transform="translate(0.5 0.5)" x="179" y="818" width="51" height="20"/>
		<rect fill="silver" x="183" y="892" width="56" height="21"/>
		<rect fill="white" x="179" y="888" width="56" height="21"/>
		<rect fill="white" x="184" y="915" width="119" height="24"/>
		<text fill="gray" font-size="9" font-family="Segoe UI" x="184, 192.40674, 197.5, 201.85498, 204.32031, 207.37012, 212.46338, 217.16992, 219.63525, 227.38721, 232.09375, 235.14355, 239.72266, 245.02246, 249.60156, 252.65137, 257.23047, 259.6958, 264.78906, 269.36816, 273.18701, 275.65234, 280.94336, 285.6499, 290.35645, " y="925, ">
				Why the metadata has been
		</text>
		<text fill="gray" font-size="9" font-family="Segoe UI" x="184, 186.17969, 191.27295, 195.43018, 197.60986, 202.70312, 208.00293, 212.70947, 218.00928, 220.47461, 224.07373, 226.53906, 231.24561, 235.37646, 240.66748, 243.79639, 248.50293, 252.32178, 256.14062, 260.84717, 266.14697, 268.6123, 273.90332, 278.2583, 280.72363, 285.30273, 287.76807, 293.95117, 299.33447, " y="937, ">
				included - expressed by a URI
		</text>
		<rect fill="white" x="188" y="890" width="40" height="16"/>
		<text font-size="12" font-weight="600" font-family="Segoe UI" x="188, 197.56836, 204.79297, 211.25, 218.50977, 223.33203, " y="903, ">
				whyuri
		</text>
		<rect fill="none" stroke="black" stroke-width="1" stroke-linecap="square" stroke-miterlimit="4" transform="translate(0.5 0.5)" x="179" y="888" width="55" height="20"/>
		<rect fill="silver" x="183" y="950" width="97" height="21"/>
		<rect fill="white" x="179" y="946" width="97" height="21"/>
		<rect fill="white" x="184" y="973" width="117" height="72"/>
		<text fill="gray" font-size="9" font-family="Segoe UI" x="184, 190.78516, 195.87842, 200.58496, 203.05029, 208.32373, 211.45264, 213.91797, 221.66992, 226.24902, 231.34229, 235.69727, 238.1626, 242.31982, 247.59326, 252.68652, 256.50537, 259.55518, 262.68408, 267.26318, 269.44287, 274.53613, 277.58594, 281.40479, 283.87012, 286.91992, 292.01318, 296.59229, " y="983, ">
				One or many constraints that
		</text>
		<text fill="gray" font-size="9" font-family="Segoe UI" x="184, 188.5791, 193.87012, 199.16113, 201.34082, 205.6958, 208.16113, 211.21094, 216.48438, 218.94971, 224.24072, 229.33398, 234.625, 236.80469, 238.98438, 242.80322, 247.89648, 250.07617, 255.16943, 260.46924, 262.93457, 265.98438, 271.07764, 275.78418, 278.24951, 282.56055, 287.13965, 289.31934, 294.4126, " y="995, ">
				apply to publishing the value
		</text>
		<text fill="gray" font-size="9" font-family="Segoe UI" x="184, 189.27344, 192.09033, 194.55566, 197.60547, 202.69873, 207.40527, 209.87061, 215.16162, 218.29053, 223.56396, 228.85498, 233.56152, 236.69043, 239.74023, 244.09521, 246.56055, 250.15967, 252.625, 257.33154, 261.4624, 266.75342, 269.88232, 274.58887, 278.40771, 282.22656, 286.93311, " y="1007, ">
				of the property - expressed
		</text>
		<text fill="gray" font-size="9" font-family="Segoe UI" x="184, 189.29102, 193.646, 196.11133, 200.69043, 203.15576, 209.94092, 215.51318, 220.78662, 226.08643, 230.79297, 232.74414, 235.20947, 239.76221, 244.34131, 248.49854, 253.5918, 256.05713, 260.21436, 265.48779, 270.58105, 274.3999, 277.44971, 280.57861, 285.15771, 287.3374, 292.43066, " y="1019, ">
				by a QCode. Each constraint
		</text>
		<text fill="gray" font-size="9" font-family="Segoe UI" x="184, 188.5791, 193.87012, 199.16113, 201.34082, 203.52051, 208.22705, 212.0459, 214.51123, 217.56104, 222.83447, 225.2998, 229.87891, 232.05859, 234.23828, 236.70361, 242.00342, 246.70996, 250.52881, 254.68604, 259.39258, 264.48584, 269.78564, 274.36475, 279.45801, " y="1031, ">
				applies to all descendant
		</text>
		<text fill="gray" font-size="9" font-family="Segoe UI" x="184, 188.70654, 190.88623, 195.59277, 203.34473, 208.05127, 213.14453, 216.19434, 220.01318, " y="1043, ">
				elements.
		</text>
		<rect fill="white" x="188" y="948" width="81" height="16"/>
		<text font-size="12" font-weight="600" font-family="Segoe UI" x="188, 195.44141, 202.70117, 210.14258, 215.90234, 223.23828, 230.49805, 235.77734, 240.44727, 245.22266, 251.67969, 255.08984, 262.34961, " y="961, ">
				pubconstraint
		</text>
		<rect fill="none" stroke="black" stroke-width="1" stroke-linecap="square" stroke-miterlimit="4" transform="translate(0.5 0.5)" x="179" y="946" width="96" height="20"/>
		<rect fill="silver" x="183" y="1056" width="112" height="21"/>
		<rect fill="white" x="179" y="1052" width="112" height="21"/>
		<rect fill="white" x="184" y="1079" width="117" height="72"/>
		<text fill="gray" font-size="9" font-family="Segoe UI" x="184, 190.78516, 195.87842, 200.58496, 203.05029, 208.32373, 211.45264, 213.91797, 221.66992, 226.24902, 231.34229, 235.69727, 238.1626, 242.31982, 247.59326, 252.68652, 256.50537, 259.55518, 262.68408, 267.26318, 269.44287, 274.53613, 277.58594, 281.40479, 283.87012, 286.91992, 292.01318, 296.59229, " y="1089, ">
				One or many constraints that
		</text>
		<text fill="gray" font-size="9" font-family="Segoe UI" x="184, 188.5791, 193.87012, 199.16113, 201.34082, 205.6958, 208.16113, 211.21094, 216.48438, 218.94971, 224.24072, 229.33398, 234.625, 236.80469, 238.98438, 242.80322, 247.89648, 250.07617, 255.16943, 260.46924, 262.93457, 265.98438, 271.07764, 275.78418, 278.24951, 282.56055, 287.13965, 289.31934, 294.4126, " y="1101, ">
				apply to publishing the value
		</text>
		<text fill="gray" font-size="9" font-family="Segoe UI" x="184, 189.27344, 192.09033, 194.55566, 197.60547, 202.69873, 207.40527, 209.87061, 215.16162, 218.29053, 223.56396, 228.85498, 233.56152, 236.69043, 239.74023, 244.09521, 246.56055, 250.15967, 252.625, 257.33154, 261.4624, 266.75342, 269.88232, 274.58887, 278.40771, 282.22656, 286.93311, " y="1113, ">
				of the property - expressed
		</text>
		<text fill="gray" font-size="9" font-family="Segoe UI" x="184, 189.29102, 193.646, 196.11133, 200.69043, 203.15576, 209.33887, 214.72217, 217.11719, 219.06836, 221.53369, 226.08643, 230.66553, 234.82275, 239.91602, 242.38135, 246.53857, 251.81201, 256.90527, 260.72412, 263.77393, 266.90283, 271.48193, 273.66162, 278.75488, " y="1125, ">
				by a URI. Each constraint
		</text>
		<text fill="gray" font-size="9" font-family="Segoe UI" x="184, 188.5791, 193.87012, 199.16113, 201.34082, 203.52051, 208.22705, 212.0459, 214.51123, 217.56104, 222.83447, 225.2998, 229.87891, 232.05859, 234.23828, 236.70361, 242.00342, 246.70996, 250.52881, 254.68604, 259.39258, 264.48584, 269.78564, 274.36475, 279.45801, " y="1137, ">
				applies to all descendant
		</text>
		<text fill="gray" font-size="9" font-family="Segoe UI" x="184, 188.70654, 190.88623, 195.59277, 203.34473, 208.05127, 213.14453, 216.19434, 220.01318, " y="1149, ">
				elements.
		</text>
		<rect fill="white" x="188" y="1054" width="96" height="16"/>
		<text font-size="12" font-weight="600" font-family="Segoe UI" x="188, 195.44141, 202.70117, 210.14258, 215.90234, 223.23828, 230.49805, 235.77734, 240.44727, 245.22266, 251.67969, 255.08984, 262.34961, 267.01953, 274.2793, 279.10156, " y="1067, ">
				pubconstrainturi
		</text>
		<rect fill="none" stroke="black" stroke-width="1" stroke-linecap="square" stroke-miterlimit="4" transform="translate(0.5 0.5)" x="179" y="1052" width="111" height="20"/>
		<rect fill="silver" x="183" y="1162" width="52" height="21"/>
		<rect fill="white" x="179" y="1158" width="52" height="21"/>
		<rect fill="white" x="184" y="1185" width="121" height="72"/>
		<text fill="gray" font-size="9" font-family="Segoe UI" x="184, 189.80518, 192.27051, 196.42773, 201.70117, 206.79443, 210.95166, 215.6582, 220.94922, 223.99902, 226.46436, 228.64404, 233.94385, 238.65039, 243.74365, 246.79346, 248.97314, 251.79004, 253.96973, 258.67627, 261.80518, 264.27051, 268.97705, 273.10791, 278.39893, 281.52783, 286.23438, 290.05322, 293.87207, 298.57861, " y="1195, ">
				A concept identifier expressed
		</text>
		<text fill="gray" font-size="9" font-family="Segoe UI" x="184, 188.5791, 192.39795, 194.86328, 199.44238, 201.90771, 205.72656, 208.77637, 211.90527, 214.08496, 219.17822, 224.47803, 226.94336, 232.2168, 235.03369, 237.49902, 240.54883, 245.64209, 250.34863, 252.81396, 255.63086, 260.9043, 264.0332, 271.78516, 274.25049, 278.06934, 281.88818, 285.70703, 287.6582, 291.81543, 295.97266, 300.12988, " y="1207, ">
				as a string of the form sss:ccc,
		</text>
		<text fill="gray" font-size="9" font-family="Segoe UI" x="184, 190.50391, 195.59717, 200.30371, 203.43262, 208.13916, 210.60449, 214.42334, 218.24219, 222.06104, 224.52637, 226.70605, 230.5249, 232.99023, 237.56934, 240.03467, 243.85352, 248.01074, 253.104, 257.81055, 265.5625, 270.26904, 272.73438, 277.31348, 279.49316, 281.67285, 286.25195, " y="1219, ">
				where sss is a scheme alias
		</text>
		<text fill="gray" font-size="9" font-family="Segoe UI" x="184, 188.5791, 193.67236, 198.97217, 201.4375, 205.59473, 209.75195, 213.90918, 216.37451, 218.5542, 222.37305, 224.83838, 229.41748, 231.88281, 236.04004, 241.31348, 246.61328, 251.31982, 253.271, 255.73633, 260.28906, 262.46875, 265.51855, 270.61182, 275.31836, 278.44727, 280.9126, 283.9624, 289.05566, " y="1231, ">
				and ccc is a code. Either the
		</text>
		<text fill="gray" font-size="9" font-family="Segoe UI" x="184, 189.2998, 193.45703, 198.73047, 204.03027, 208.73682, 211.20215, 216.47559, 219.60449, 222.06982, 225.11963, 230.21289, 234.91943, 237.38477, 242.47803, 245.60693, 247.78662, 250.25195, 254.83105, 257.88086, 260.93066, 264.05957, 266.23926, 271.53027, 276.62354, 279.67334, " y="1243, ">
				qcode or the uri attribute
		</text>
		<text fill="gray" font-size="9" font-family="Segoe UI" x="184, 192.08154, 198.26465, 203.0459, 207.76123, 210.22656, 215.51758, 220.22412, 222.68945, 227.78271, 231.60156, 236.30811, " y="1255, ">
				MUST be used
		</text>
		<rect fill="white" x="188" y="1160" width="36" height="16"/>
		<text font-size="12" font-weight="600" font-family="Segoe UI" x="188, 195.42969, 201.18945, 208.52539, 215.95508, " y="1173, ">
				qcode
		</text>
		<rect fill="none" stroke="black" stroke-width="1" stroke-linecap="square" stroke-miterlimit="4" transform="translate(0.5 0.5)" x="179" y="1158" width="51" height="20"/>
		<rect fill="silver" x="183" y="1268" width="52" height="21"/>
		<rect fill="white" x="179" y="1264" width="52" height="21"/>
		<rect fill="white" x="184" y="1291" width="113" height="48"/>
		<text fill="gray" font-size="9" font-family="Segoe UI" x="184, 189.80518, 192.27051, 198.45361, 203.83691, 206.23193, 208.69727, 215.20117, 220.29443, 222.47412, 226.63135, 231.72461, 234.18994, 236.36963, 241.66943, 246.37598, 251.46924, 254.51904, 256.69873, 259.51562, 261.69531, 266.40186, 270.2207, 272.68604, " y="1301, ">
				A URI which identifies a
		</text>
		<text fill="gray" font-size="9" font-family="Segoe UI" x="184, 188.15723, 193.43066, 198.52393, 202.68115, 207.3877, 212.67871, 215.72852, 220.65918, 224.2583, 226.72363, 231.43018, 233.60986, 236.65967, 241.75293, 246.45947, 249.58838, 252.05371, 255.10352, 260.19678, 264.90332, 269.83398, 275.13379, 279.29102, 284.56445, 289.86426, " y="1313, ">
				concept - either the qcode
		</text>
		<text fill="gray" font-size="9" font-family="Segoe UI" x="184, 189.27344, 192.40234, 194.86768, 197.91748, 203.01074, 207.71729, 210.18262, 215.27588, 218.40479, 220.58447, 223.0498, 227.62891, 230.67871, 233.72852, 236.85742, 239.03711, 244.32812, 249.42139, 252.47119, 257.17773, 259.64307, 267.72461, 273.90771, 278.68896, 283.4043, 285.86963, 291.16064, " y="1325, ">
				or the uri attribute MUST be
		</text>
		<text fill="gray" font-size="9" font-family="Segoe UI" x="184, 189.09326, 192.91211, 197.61865, " y="1337, ">
				used
		</text>
		<rect fill="white" x="188" y="1266" width="36" height="16"/>
		<text font-size="12" font-weight="600" font-family="Segoe UI" x="188, 195.25977, 200.08203, " y="1279, ">
				uri
		</text>
		<rect fill="none" stroke="black" stroke-width="1" stroke-linecap="square" stroke-miterlimit="4" transform="translate(0.5 0.5)" x="179" y="1264" width="51" height="20"/>
		<path fill="silver" d="M183 1355L188 1350L256 1350L261 1355L261 1366L256 1371L188 1371L183 1366L183 1355Z"/>
		<path fill="white" d="M179 1351L184 1346L252 1346L257 1351L257 1362L252 1367L184 1367L179 1362L179 1351Z"/>
		<rect fill="white" x="206" y="1348" width="46" height="16"/>
		<text font-size="12" font-weight="600" font-family="Segoe UI" x="206, 213.10742, 220.21484, 227.55078, 232.2207, 239.44531, 245.9375, " y="1361, ">
				##other
		</text>
		<rect fill="white" x="184" y="1348" width="20" height="16"/>
		<text fill="gray" font-size="12" font-family="Segoe UI" x="184, 190.10547, 196.89648, " y="1361, ">
				any
		</text>
		<path fill="none" stroke="black" stroke-width="1" stroke-linecap="square" stroke-miterlimit="4" transform="translate(0.5 0.5)" d="M179 1351L184 1346L251 1346L256 1351L256 1361L251 1366L184 1366L179 1361L179 1351Z"/>
		<rect x="170" y="41" width="11" height="11"/>
		<rect fill="white" x="171" y="42" width="9" height="9"/>
		<rect x="172" y="46" width="7" height="1"/>
		<path fill="white" d="M242 1421L242 1402L165 1402L165 1421L165 1679L328 1679L328 1421L242 1421Z"/>
		<rect fill="white" x="185" y="1404" width="51" height="16"/>
		<text font-size="12" font-style="italic" font-family="Segoe UI" x="185, 191.50391, 195.38281, 199.26172, 203.5332, 206.63867, 213.14258, 219.83984, 223.73047, 229.57227, " y="1417, ">
				attributes
		</text>
		<path fill="none" stroke="black" stroke-width="1" stroke-linecap="square" stroke-miterlimit="4" transform="translate(0.5 0.5)" d="M242 1421L242 1402L165 1402L165 1421L165 1679L328 1679L328 1421L242 1421Z"/>
		<path fill="white" d="M310 1449L310 1430L179 1430L179 1449L179 1634L320 1634L320 1449L310 1449Z"/>
		<rect fill="white" x="184" y="1637" width="110" height="36"/>
		<text fill="gray" font-size="9" font-family="Segoe UI" x="184, 189.80518, 192.27051, 197.57031, 200.69922, 205.97266, 211.06592, 216.35693, 218.82227, 224.0957, 226.9126, 229.37793, 233.95703, 237.00684, 240.05664, 243.18555, 245.36523, 250.65625, 255.74951, 258.79932, 263.50586, 267.32471, 269.79004, 272.60693, 277.88037, " y="1647, ">
				A group of attributes for
		</text>
		<text fill="gray" font-size="9" font-family="Segoe UI" x="184, 186.17969, 190.75879, 195.85205, 201.15186, 206.24512, 210.82422, 216.12402, 220.83057, 223.2959, 227.875, 232.96826, 238.26807, 240.7334, 244.55225, 248.70947, 251.83838, 254.01807, 259.30908, 262.35889, 264.82422, 267.95312, 272.65967, 274.83936, 279.41846, 282.46826, 287.1748, " y="1659, ">
				language and script related
		</text>
		<text fill="gray" font-size="9" font-family="Segoe UI" x="184, 186.17969, 191.27295, 194.08984, 199.36328, 202.49219, 210.24414, 214.82324, 217.87305, 220.05273, 225.32617, " y="1671, ">
				information
		</text>
		<rect fill="white" x="221" y="1432" width="83" height="16"/>
		<text font-size="12" font-weight="600" font-family="Segoe UI" x="221, 224.41016, 231.3125, 238.21484, 245.47461, 253.67188, 258.3418, 263.01172, 267.83398, 271.24414, 278.68555, 285.94531, 290.56836, 297.06055, " y="1445, ">
				i18nAttributes
		</text>
		<rect fill="white" x="199" y="1432" width="20" height="16"/>
		<text fill="gray" font-size="12" font-family="Segoe UI" x="199, 206.06641, 210.23828, " y="1445, ">
				grp
		</text>
		<path fill="none" stroke="gray" stroke-width="1" stroke-linecap="square" stroke-miterlimit="4" transform="translate(0.5 0.5)" d="M179 1449L179 1634L320 1634L320 1449L310 1449"/>
		<path fill="none" stroke="black" stroke-width="1" stroke-linecap="square" stroke-miterlimit="4" transform="translate(0.5 0.5)" d="M310 1449L310 1430L179 1430L179 1449"/>
		<rect x="184" y="1435" width="11" height="11"/>
		<rect fill="white" x="185" y="1436" width="9" height="9"/>
		<rect x="186" y="1440" width="7" height="1"/>
		<rect fill="silver" x="191" y="1463" width="66" height="21"/>
		<rect fill="white" x="187" y="1459" width="66" height="21"/>
		<rect fill="white" x="192" y="1486" width="121" height="84"/>
		<text fill="gray" font-size="9" font-family="Segoe UI" x="192, 196.78125, 202.07227, 206.77881, 210.93604, 213.11572, 215.93262, 218.1123, 222.81885, 226.6377, 229.10303, 232.15283, 237.24609, 241.95264, 244.41797, 246.59766, 251.17676, 256.27002, 261.56982, 266.66309, 271.24219, 276.54199, 281.24854, 283.71387, 288.9873, 291.8042, 294.26953, 297.31934, 302.4126, 304.59229, " y="1496, ">
				Specifies the language of this
		</text>
		<text fill="gray" font-size="9" font-family="Segoe UI" x="192, 197.29102, 200.41992, 205.69336, 210.98438, 215.69092, 218.81982, 221.86963, 226.22461, 228.68994, 233.26904, 238.3623, 243.66211, 246.12744, 251.41846, 256.69189, 259.7417, 264.44824, 269.5415, 272.59131, 274.771, 279.3501, 281.52979, 283.70947, 288.06445, 290.52979, 295.10889, 297.28857, " y="1508, ">
				property and potentially all
		</text>
		<text fill="gray" font-size="9" font-family="Segoe UI" x="192, 197.2998, 202.00635, 205.8252, 209.98242, 214.68896, 219.78223, 225.08203, 229.66113, 234.75439, 237.8042, 240.26953, 245.56055, 248.68945, 253.96289, 259.25391, 263.96045, 267.08936, 270.13916, 272.31885, 277.02539, 280.84424, " y="1520, ">
				descendant properties.
		</text>
		<text fill="gray" font-size="9" font-family="Segoe UI" x="192, 196.13086, 203.88281, 206.0625, 208.01367, 210.19336, 214.77246, 219.86572, 225.16553, 227.63086, 231.94189, 236.521, 238.70068, 243.79395, 248.50049, 252.31934, 254.78467, 260.05811, 262.875, 265.34033, 270.64014, 275.34668, 279.16553, 283.32275, 288.0293, 293.12256, 298.42236, 303.00146, 308.09473, " y="1532, ">
				xml:lang values of descendant
		</text>
		<text fill="gray" font-size="9" font-family="Segoe UI" x="192, 197.29102, 200.41992, 205.69336, 210.98438, 215.69092, 218.81982, 221.86963, 224.04932, 228.75586, 232.57471, 235.04004, 240.31348, 244.62451, 249.33105, 252.45996, 255.58887, 257.76855, 263.06836, 267.7749, 270.24023, 273.29004, 278.3833, 280.56299, 284.38184, 286.84717, 291.1582, 295.7373, 297.91699, 303.01025, 307.7168, " y="1544, ">
				properties override this value.
		</text>
		<text fill="gray" font-size="9" font-family="Segoe UI" x="192, 196.93066, 201.50977, 203.68945, 208.78271, 213.48926, 217.30811, 219.77344, 224.35254, 227.48145, 232.18799, 234.65332, 239.95312, 244.65967, 247.70947, 252.41602, 255.54492, 263.29688, 265.47656, 270.56982, 275.27637, 280.57617, 283.0415, 288.33252, " y="1556, ">
				Values are determined by
		</text>
		<text fill="gray" font-size="9" font-family="Segoe UI" x="192, 194.39502, 199.48828, 202.53809, 207.24463, 210.37354, 215.4668, 220.17334, 223.22314, 225.68848, 230.84766, 236.41992, 241.46045, 243.92578, 248.77734, 253.62891, " y="1568, ">
				Internet BCP 47.
		</text>
		<rect fill="white" x="196" y="1461" width="50" height="16"/>
		<text font-size="12" font-weight="600" font-family="Segoe UI" x="196, 202.62695, 213.61914, 217.0293, 220.28125, 223.69141, 230.14844, 237.4082, " y="1474, ">
				xml:lang
		</text>
		<path fill="none" stroke="black" stroke-width="2" stroke-miterlimit="4" transform="translate(0.5 0.5)" d="M189 1477L193 1473"/>
		<path fill="none" stroke="black" stroke-width="1" stroke-linecap="square" stroke-miterlimit="4" transform="translate(0.5 0.5)" d="M190 1473L193 1473L193 1476"/>
		<rect fill="none" stroke="black" stroke-width="1" stroke-linecap="square" stroke-miterlimit="4" transform="translate(0.5 0.5)" x="187" y="1459" width="65" height="20"/>
		<rect fill="silver" x="191" y="1581" width="52" height="21"/>
		<rect fill="white" x="187" y="1577" width="52" height="21"/>
		<rect fill="white" x="192" y="1604" width="116" height="24"/>
		<text fill="gray" font-size="9" font-family="Segoe UI" x="192, 196.71533, 201.80859, 206.51514, 208.98047, 214.28027, 216.45996, 219.58887, 224.29541, 228.45264, 231.50244, 233.68213, 238.95557, 244.04883, 248.62793, 250.80762, 252.9873, 256.03711, 260.39209, 262.85742, 268.13086, 270.94775, 273.41309, 276.46289, 281.16943, 285.30029, 288.3501, 293.44336, 298.02246, " y="1614, ">
				The directionality of textual
		</text>
		<text fill="gray" font-size="9" font-family="Segoe UI" x="192, 196.15723, 201.43066, 206.52393, 209.57373, 214.28027, 219.37354, 222.42334, 224.88867, 227.60449, 232.31104, 237.4043, 242.49756, 250.24951, 254.95605, 258.08496, 262.66406, 265.71387, 267.89355, 273.16699, 278.26025, 280.21143, 282.67676, 284.85645, 287.90625, 291.03516, 292.98633, 295.45166, 298.58057, 301.63037, 303.81006, " y="1626, ">
				content (enumeration: ltr, rtl)
		</text>
		<rect fill="white" x="196" y="1579" width="36" height="16"/>
		<text font-size="12" font-weight="600" font-family="Segoe UI" x="196, 203.42969, 206.83984, " y="1592, ">
				dir
		</text>
		<rect fill="none" stroke="black" stroke-width="1" stroke-linecap="square" stroke-miterlimit="4" transform="translate(0.5 0.5)" x="187" y="1577" width="51" height="20"/>
		<rect x="170" y="1407" width="11" height="11"/>
		<rect fill="white" x="171" y="1408" width="9" height="9"/>
		<rect x="172" y="1412" width="7" height="1"/>
		<path fill="none" stroke="black" stroke-width="1" stroke-linecap="square" stroke-miterlimit="4" transform="translate(0.5 0.5)" d="M210 1733L218 1733"/>
		<path fill="none" stroke="black" stroke-width="1" stroke-linecap="square" stroke-miterlimit="4" transform="translate(0.5 0.5)" d="M219 1733L219 1703"/>
		<path fill="none" stroke="black" stroke-width="1" stroke-linecap="square" stroke-miterlimit="4" transform="translate(0.5 0.5)" d="M219 1733L219 1764"/>
		<path fill="none" stroke="black" stroke-width="1" stroke-linecap="square" stroke-miterlimit="4" transform="translate(0.5 0.5)" d="M219 1702L233 1702"/>
		<path fill="none" stroke="black" stroke-width="1" stroke-linecap="square" stroke-miterlimit="4" transform="translate(0.5 0.5)" d="M219 1765L233 1765"/>
		<path fill="silver" d="M172 1735L177 1730L202 1730L207 1735L207 1746L202 1751L177 1751L172 1746L172 1735Z"/>
		<path fill="white" d="M168 1731L173 1726L197 1726L202 1731L202 1741L197 1746L173 1746L168 1741L168 1731Z"/>
		<path transform="translate(0.5 0.5)" d="M171.889 1726.4L172.793 1725.5L173.929 1725.5L174.429 1725.5L174.429 1726.5L173.929 1726.5L173 1726.5L173 1726L173.354 1726.35L172.243 1727.46L171.536 1726.76L171.889 1726.4ZM177.929 1725.5L179.929 1725.5L180.429 1725.5L180.429 1726.5L179.929 1726.5L177.429 1726.5L177.429 1725.5L177.929 1725.5ZM183.929 1725.5L185.929 1725.5L186.429 1725.5L186.429 1726.5L185.929 1726.5L183.429 1726.5L183.429 1725.5L183.929 1725.5ZM189.929 1725.5L191.929 1725.5L192.429 1725.5L192.429 1726.5L191.929 1726.5L189.429 1726.5L189.429 1725.5L189.929 1725.5ZM195.929 1725.5L197.207 1725.5L198.01 1726.3L198.364 1726.66L197.657 1727.36L197.303 1727.01L196.646 1726.35L197 1726L197 1726.5L195.429 1726.5L195.429 1725.5L195.929 1725.5ZM200.839 1729.13L202.253 1730.55L202.607 1730.9L201.899 1731.61L201.546 1731.25L199.778 1729.49L200.485 1728.78L200.839 1729.13ZM202.5 1734.86L202.5 1736.86L202.5 1737.36L201.5 1737.36L201.5 1736.86L201.5 1734.36L202.5 1734.36L202.5 1734.86ZM202.5 1740.86L202.5 1741.21L201.04 1742.67L200.686 1743.02L199.979 1742.31L200.333 1741.96L201.646 1740.65L202 1741L201.5 1741L201.5 1740.36L202.5 1740.36L202.5 1740.86ZM198.211 1745.5L197.207 1746.5L196.213 1746.5L195.713 1746.5L195.713 1745.5L196.213 1745.5L197 1745.5L197 1746L196.646 1745.65L197.858 1744.44L198.565 1745.14L198.211 1745.5ZM192.213 1746.5L190.213 1746.5L189.713 1746.5L189.713 1745.5L190.213 1745.5L192.713 1745.5L192.713 1746.5L192.213 1746.5ZM186.213 1746.5L184.213 1746.5L183.713 1746.5L183.713 1745.5L184.213 1745.5L186.713 1745.5L186.713 1746.5L186.213 1746.5ZM180.213 1746.5L178.213 1746.5L177.713 1746.5L177.713 1745.5L178.213 1745.5L180.713 1745.5L180.713 1746.5L180.213 1746.5ZM174.213 1746.5L172.793 1746.5L172.09 1745.8L171.737 1745.44L172.444 1744.74L172.797 1745.09L173.354 1745.65L173 1746L173 1745.5L174.713 1745.5L174.713 1746.5L174.213 1746.5ZM169.262 1742.97L167.847 1741.55L167.494 1741.2L168.201 1740.49L168.555 1740.85L170.322 1742.62L169.615 1743.32L169.262 1742.97ZM167.5 1737.28L167.5 1735.28L167.5 1734.78L168.5 1734.78L168.5 1735.28L168.5 1737.78L167.5 1737.78L167.5 1737.28ZM167.5 1731.28L167.5 1730.79L169.414 1728.88L170.121 1729.59L168.354 1731.35L168 1731L168.5 1731L168.5 1731.78L167.5 1731.78L167.5 1731.28Z"/>
		<path fill="white" d="M165 1728L170 1723L195 1723L200 1728L200 1739L195 1744L170 1744L165 1739L165 1728Z"/>
		<path fill="none" stroke="black" stroke-width="1" stroke-linecap="square" stroke-miterlimit="4" transform="translate(0.5 0.5)" d="M184 1744L190 1750L193 1747"/>
		<path fill="none" stroke="black" stroke-width="1" stroke-linecap="square" stroke-miterlimit="4" transform="translate(0.5 0.5)" d="M170 1733L175 1733L179 1729"/>
		<path fill="none" stroke="black" stroke-width="1" stroke-linecap="square" stroke-miterlimit="4" transform="translate(0.5 0.5)" d="M185 1733L193 1733"/>
		<path fill="none" stroke="black" stroke-width="1" stroke-linecap="square" stroke-miterlimit="4" transform="translate(0.5 0.5)" d="M185 1729L189 1729L189 1737L185 1737"/>
		<rect x="181" y="1728" width="3" height="3"/>
		<rect x="181" y="1732" width="3" height="3"/>
		<rect x="181" y="1736" width="3" height="3"/>
		<text font-size="12" font-family="Segoe UI" x="169.76562, " y="1763, ">
				0
		</text>
		<text font-size="12" font-family="Symbol" x="184.72266, " y="1762, ">
				
		</text>
		<text font-size="12" font-family="Segoe UI" x="177.89844, 180.5, " y="1763, ">
				..
		</text>
		<path transform="translate(0.5 0.5)" d="M168.889 1723.4L169.793 1722.5L170.929 1722.5L171.429 1722.5L171.429 1723.5L170.929 1723.5L170 1723.5L170 1723L170.354 1723.35L169.243 1724.46L168.536 1723.76L168.889 1723.4ZM174.929 1722.5L176.929 1722.5L177.429 1722.5L177.429 1723.5L176.929 1723.5L174.429 1723.5L174.429 1722.5L174.929 1722.5ZM180.929 1722.5L182.929 1722.5L183.429 1722.5L183.429 1723.5L182.929 1723.5L180.429 1723.5L180.429 1722.5L180.929 1722.5ZM186.929 1722.5L188.929 1722.5L189.429 1722.5L189.429 1723.5L188.929 1723.5L186.429 1723.5L186.429 1722.5L186.929 1722.5ZM192.929 1722.5L194.207 1722.5L195.01 1723.3L195.364 1723.66L194.657 1724.36L194.303 1724.01L193.646 1723.35L194 1723L194 1723.5L192.429 1723.5L192.429 1722.5L192.929 1722.5ZM197.839 1726.13L199.253 1727.55L199.607 1727.9L198.899 1728.61L198.546 1728.25L196.778 1726.49L197.485 1725.78L197.839 1726.13ZM199.5 1731.86L199.5 1733.86L199.5 1734.36L198.5 1734.36L198.5 1733.86L198.5 1731.36L199.5 1731.36L199.5 1731.86ZM199.5 1737.86L199.5 1738.21L198.04 1739.67L197.686 1740.02L196.979 1739.31L197.333 1738.96L198.646 1737.65L199 1738L198.5 1738L198.5 1737.36L199.5 1737.36L199.5 1737.86ZM195.211 1742.5L194.207 1743.5L193.213 1743.5L192.713 1743.5L192.713 1742.5L193.213 1742.5L194 1742.5L194 1743L193.646 1742.65L194.858 1741.44L195.565 1742.14L195.211 1742.5ZM189.213 1743.5L187.213 1743.5L186.713 1743.5L186.713 1742.5L187.213 1742.5L189.713 1742.5L189.713 1743.5L189.213 1743.5ZM183.213 1743.5L181.213 1743.5L180.713 1743.5L180.713 1742.5L181.213 1742.5L183.713 1742.5L183.713 1743.5L183.213 1743.5ZM177.213 1743.5L175.213 1743.5L174.713 1743.5L174.713 1742.5L175.213 1742.5L177.713 1742.5L177.713 1743.5L177.213 1743.5ZM171.213 1743.5L169.793 1743.5L169.09 1742.8L168.737 1742.44L169.444 1741.74L169.797 1742.09L170.354 1742.65L170 1743L170 1742.5L171.713 1742.5L171.713 1743.5L171.213 1743.5ZM166.262 1739.97L164.847 1738.55L164.494 1738.2L165.201 1737.49L165.555 1737.85L167.322 1739.62L166.615 1740.32L166.262 1739.97ZM164.5 1734.28L164.5 1732.28L164.5 1731.78L165.5 1731.78L165.5 1732.28L165.5 1734.78L164.5 1734.78L164.5 1734.28ZM164.5 1728.28L164.5 1727.79L166.414 1725.88L167.121 1726.59L165.354 1728.35L165 1728L165.5 1728L165.5 1728.78L164.5 1728.78L164.5 1728.28Z"/>
		<rect fill="silver" x="238" y="1696" width="54" height="21"/>
		<rect fill="white" x="234" y="1692" width="54" height="21"/>
		<rect fill="white" x="239" y="1719" width="115" height="24"/>
		<text fill="gray" font-size="9" font-family="Segoe UI" x="239, 244.80518, 247.27051, 252.36377, 256.94287, 259.99268, 265.08594, 268.21484, 272.79395, 274.97363, 277.43896, 279.61865, 284.19775, 289.29102, 294.59082, 299.68408, 304.26318, 309.56299, 314.26953, 316.73486, 321.82812, 326.40723, 334.15918, 338.86572, 341.33105, 344.14795, 349.42139, " y="1729, ">
				A natural language name for
		</text>
		<text fill="gray" font-size="9" font-family="Segoe UI" x="239, 242.0498, 247.14307, 251.84961, 254.31494, 258.47217, 263.74561, 268.83887, 272.99609, 277.70264, 282.99365, 286.04346, " y="1741, ">
				the concept.
		</text>
		<rect fill="white" x="243" y="1694" width="33" height="16"/>
		<text font-size="12" font-weight="600" font-family="Segoe UI" x="243, 250.25977, 256.7168, 267.70898, " y="1707, ">
				name
		</text>
		<path fill="none" stroke="black" stroke-width="1" stroke-linecap="square" stroke-miterlimit="4" transform="translate(0.5 0.5)" d="M236 1694L241 1694"/>
		<path fill="none" stroke="black" stroke-width="1" stroke-linecap="square" stroke-miterlimit="4" transform="translate(0.5 0.5)" d="M236 1696L240 1696"/>
		<path fill="none" stroke="black" stroke-width="1" stroke-linecap="square" stroke-miterlimit="4" transform="translate(0.5 0.5)" d="M236 1698L240 1698"/>
		<path fill="none" stroke="black" stroke-width="2" stroke-miterlimit="4" transform="translate(0.5 0.5)" d="M236 1710L240 1706"/>
		<path fill="none" stroke="black" stroke-width="1" stroke-linecap="square" stroke-miterlimit="4" transform="translate(0.5 0.5)" d="M237 1706L240 1706L240 1709"/>
		<rect fill="none" stroke="black" stroke-width="1" stroke-linecap="square" stroke-miterlimit="4" transform="translate(0.5 0.5)" x="234" y="1692" width="53" height="20"/>
		<rect x="282" y="1697" width="11" height="11"/>
		<rect fill="white" x="283" y="1698" width="9" height="9"/>
		<rect x="284" y="1702" width="7" height="1"/>
		<rect x="287" y="1699" width="1" height="7"/>
		<rect fill="silver" x="238" y="1759" width="98" height="21"/>
		<rect fill="white" x="234" y="1755" width="98" height="21"/>
		<rect fill="white" x="239" y="1782" width="121" height="72"/>
		<text fill="gray" font-size="9" font-family="Segoe UI" x="239, 244.11963, 248.82617, 254.11719, 257.24609, 261.95264, 265.77148, 270.47803, 275.57129, 278.62109, 282.43994, 284.90527, 287.95508, 293.04834, 297.75488, 300.22021, 305.51123, 310.78467, 314.60352, 316.7832, 319.83301, 322.0127, 327.28613, 332.37939, 334.84473, 340.11816, 342.93506, 345.40039, " y="1792, ">
				Represents the position of a
		</text>
		<text fill="gray" font-size="9" font-family="Segoe UI" x="239, 243.15723, 248.43066, 253.52393, 257.68115, 262.3877, 267.67871, 270.72852, 273.19385, 275.37354, 280.4668, 282.93213, 287.51123, 289.97656, 295.06982, 297.24951, 301.95605, 305.08496, 309.66406, 312.79297, 316.9502, 322.04346, 324.22314, 328.38037, 332.95947, " y="1804, ">
				concept in a hierarchical
		</text>
		<text fill="gray" font-size="9" font-family="Segoe UI" x="239, 242.0498, 246.62891, 250.75977, 256.0332, 261.12646, 266.3999, 274.15186, 278.50684, 280.97217, 284.02197, 287.15088, 291.85742, 296.56396, 299.0293, 304.32031, 308.67529, 311.14062, 315.71973, 318.18506, 322.00391, 326.71045, 332.01025, 337.10352, 341.81006, 346.90332, 351.06055, " y="1816, ">
				taxonomy tree by a sequence
		</text>
		<text fill="gray" font-size="9" font-family="Segoe UI" x="239, 244.27344, 247.09033, 249.55566, 256.34082, 261.91309, 267.18652, 272.48633, 277.19287, 279.6582, 282.70801, 287.98145, 292.45508, 297.16162, 302.25488, 306.07373, 308.53906, 311.66797, 316.37451, 321.66553, 324.79443, 329.50098, 333.31982, 338.02637, 343.11963, 346.16943, 348.34912, 353.44238, " y="1828, ">
				of QCode tokens representing
		</text>
		<text fill="gray" font-size="9" font-family="Segoe UI" x="239, 242.0498, 247.14307, 251.84961, 254.31494, 258.89404, 263.9873, 268.14453, 272.85107, 276.66992, 279.71973, 284.99316, 288.12207, 290.5874, 294.74463, 300.01807, 305.11133, 309.26855, 313.9751, 319.26611, 322.31592, 326.13477, 328.6001, 333.1792, 338.27246, " y="1840, ">
				the ancestor concepts and
		</text>
		<text fill="gray" font-size="9" font-family="Segoe UI" x="239, 242.0498, 247.14307, 249.32275, 253.1416, 255.60693, 259.76416, 265.0376, 270.13086, 274.28809, 278.99463, 284.28564, " y="1852, ">
				this concept
		</text>
		<rect fill="white" x="243" y="1757" width="77" height="16"/>
		<text font-size="12" font-weight="600" font-family="Segoe UI" x="243, 250.22461, 253.63477, 260.12695, 264.90234, 271.35938, 276.08789, 281.84766, 289.07227, 295.5293, 299.33203, 306.5918, 311.19141, " y="1770, ">
				hierarchyInfo
		</text>
		<path fill="none" stroke="black" stroke-width="1" stroke-linecap="square" stroke-miterlimit="4" transform="translate(0.5 0.5)" d="M236 1757L241 1757"/>
		<path fill="none" stroke="black" stroke-width="1" stroke-linecap="square" stroke-miterlimit="4" transform="translate(0.5 0.5)" d="M236 1759L240 1759"/>
		<path fill="none" stroke="black" stroke-width="1" stroke-linecap="square" stroke-miterlimit="4" transform="translate(0.5 0.5)" d="M236 1761L240 1761"/>
		<path fill="none" stroke="black" stroke-width="2" stroke-miterlimit="4" transform="translate(0.5 0.5)" d="M236 1773L240 1769"/>
		<path fill="none" stroke="black" stroke-width="1" stroke-linecap="square" stroke-miterlimit="4" transform="translate(0.5 0.5)" d="M237 1769L240 1769L240 1772"/>
		<rect fill="none" stroke="black" stroke-width="1" stroke-linecap="square" stroke-miterlimit="4" transform="translate(0.5 0.5)" x="234" y="1755" width="97" height="20"/>
		<rect x="326" y="1760" width="11" height="11"/>
		<rect fill="white" x="327" y="1761" width="9" height="9"/>
		<rect x="328" y="1765" width="7" height="1"/>
		<rect x="331" y="1762" width="1" height="7"/>
		<rect x="199" y="1728" width="11" height="11"/>
		<rect fill="white" x="200" y="1729" width="9" height="9"/>
		<rect x="201" y="1733" width="7" height="1"/>
		<rect x="93" y="1215" width="11" height="11"/>
		<rect fill="white" x="94" y="1216" width="9" height="9"/>
		<rect x="95" y="1220" width="7" height="1"/>
	</g>
</svg>
