<?xml version="1.0" encoding="utf-8" ?>
<svg xmlns="http://www.w3.org/2000/svg" xmlns:xlink="http://www.w3.org/1999/xlink" width="436" height="470">
	<clipPath id="cl_1c1">
		<rect x="-10" y="-5" width="436" height="470"/>
	</clipPath>
	<g clip-path="url(#cl_1c1)">
		<path fill="none" stroke="black" stroke-width="1" stroke-linecap="square" stroke-miterlimit="4" transform="translate(0.5 0.5)" d="M128 129L141 129"/>
		<path fill="silver" d="M4 128L9 123L117 123L122 128L122 139L117 144L9 144L4 139L4 128Z"/>
		<path fill="white" d="M0 124L5 119L113 119L118 124L118 135L113 140L5 140L0 135L0 124Z"/>
		<rect fill="white" x="5" y="146" width="112" height="36"/>
		<text fill="gray" font-size="9" font-family="Segoe UI" x="5, 10.805176, 13.270508, 18.570312, 21.699219, 26.972656, 32.065918, 37.356934, 39.822266, 45.095703, 47.912598, 50.37793, 55.668945, 58.797852, 64.071289, 69.362305, 74.068848, 77.197754, 80.247559, 82.427246, 87.133789, 90.952637, 93.417969, 96.467773, " y="156, ">
				A group of properties to
		</text>
		<text fill="gray" font-size="9" font-family="Segoe UI" x="5, 10.299805, 15.006348, 17.823242, 20.00293, 25.096191, 29.802734, 32.268066, 35.317871, 40.411133, 45.117676, 47.583008, 52.882812, 57.589355, 60.63916, 65.218262, 67.397949, 69.577637, 73.396484, 75.861816, 81.135254, 83.952148, 86.41748, 90.236328, 95.527344, 100.23389, 104.39111, 106.5708, 109.3877, 111.56738, " y="168, ">
				define the details of specific
		</text>
		<text fill="gray" font-size="9" font-family="Segoe UI" x="5, 9.706543, 14.799805, 17.849609, 20.029297, 23.079102, 25.258789, 29.965332, " y="180, ">
				entities
		</text>
		<rect fill="white" x="5" y="121" width="108" height="16"/>
		<text font-size="12" font-weight="600" font-family="Segoe UI" x="5, 11.386719, 18.646484, 23.316406, 26.726562, 31.396484, 37.853516, 46.701172, 53.193359, 57.863281, 64.320312, 67.730469, 71.140625, 76.419922, 84.951172, 89.679688, 97.015625, 104.27539, " y="134, ">
				EntityDetailsGroup
		</text>
		<path fill="none" stroke="black" stroke-width="1" stroke-linecap="square" stroke-miterlimit="4" transform="translate(0.5 0.5)" d="M0 124L5 119L112 119L117 124L117 134L112 139L5 139L0 134L0 124Z"/>
		<path transform="translate(0.5 0.5)" d="M187 128.5L189 128.5L189.5 128.5L189.5 129.5L189 129.5L186.5 129.5L186.5 128.5L187 128.5ZM193 128.5L195.5 128.5L195.5 129.5L192.5 129.5L192.5 128.5L193 128.5Z"/>
		<path transform="translate(0.5 0.5)" d="M195.5 129L195.5 127L195.5 126.5L196.5 126.5L196.5 127L196.5 129.5L195.5 129.5L195.5 129ZM195.5 123L195.5 121L195.5 120.5L196.5 120.5L196.5 121L196.5 123.5L195.5 123.5L195.5 123ZM195.5 117L195.5 115L195.5 114.5L196.5 114.5L196.5 115L196.5 117.5L195.5 117.5L195.5 117ZM195.5 111L195.5 109L195.5 108.5L196.5 108.5L196.5 109L196.5 111.5L195.5 111.5L195.5 111ZM195.5 105L195.5 103L195.5 102.5L196.5 102.5L196.5 103L196.5 105.5L195.5 105.5L195.5 105ZM195.5 99L195.5 97L195.5 96.5L196.5 96.5L196.5 97L196.5 99.5L195.5 99.5L195.5 99ZM195.5 93L195.5 91L195.5 90.5L196.5 90.5L196.5 91L196.5 93.5L195.5 93.5L195.5 93ZM195.5 87L195.5 85L195.5 84.5L196.5 84.5L196.5 85L196.5 87.5L195.5 87.5L195.5 87ZM195.5 81L195.5 79L195.5 78.5L196.5 78.5L196.5 79L196.5 81.5L195.5 81.5L195.5 81ZM195.5 75L195.5 73L195.5 72.5L196.5 72.5L196.5 73L196.5 75.5L195.5 75.5L195.5 75ZM195.5 69L195.5 67L195.5 66.5L196.5 66.5L196.5 67L196.5 69.5L195.5 69.5L195.5 69ZM195.5 63L195.5 61L195.5 60.5L196.5 60.5L196.5 61L196.5 63.5L195.5 63.5L195.5 63ZM195.5 57L195.5 55L195.5 54.5L196.5 54.5L196.5 55L196.5 57.5L195.5 57.5L195.5 57ZM195.5 51L195.5 49L195.5 48.5L196.5 48.5L196.5 49L196.5 51.5L195.5 51.5L195.5 51ZM195.5 45L195.5 43L195.5 42.5L196.5 42.5L196.5 43L196.5 45.5L195.5 45.5L195.5 45ZM195.5 39L195.5 37L195.5 36.5L196.5 36.5L196.5 37L196.5 39.5L195.5 39.5L195.5 39ZM195.5 33L195.5 31L195.5 30.5L196.5 30.5L196.5 31L196.5 33.5L195.5 33.5L195.5 33ZM195.5 27L195.5 25L195.5 24.5L196.5 24.5L196.5 25L196.5 27.5L195.5 27.5L195.5 27ZM195.5 21L195.5 19L195.5 18.5L196.5 18.5L196.5 19L196.5 21.5L195.5 21.5L195.5 21ZM195.5 15L195.5 12.5L196.5 12.5L196.5 15.5L195.5 15.5L195.5 15Z"/>
		<path transform="translate(0.5 0.5)" d="M196.5 129L196.5 131L196.5 131.5L195.5 131.5L195.5 131L195.5 128.5L196.5 128.5L196.5 129ZM196.5 135L196.5 137L196.5 137.5L195.5 137.5L195.5 137L195.5 134.5L196.5 134.5L196.5 135ZM196.5 141L196.5 143L196.5 143.5L195.5 143.5L195.5 143L195.5 140.5L196.5 140.5L196.5 141ZM196.5 147L196.5 149L196.5 149.5L195.5 149.5L195.5 149L195.5 146.5L196.5 146.5L196.5 147ZM196.5 153L196.5 155L196.5 155.5L195.5 155.5L195.5 155L195.5 152.5L196.5 152.5L196.5 153ZM196.5 159L196.5 161L196.5 161.5L195.5 161.5L195.5 161L195.5 158.5L196.5 158.5L196.5 159ZM196.5 165L196.5 167L196.5 167.5L195.5 167.5L195.5 167L195.5 164.5L196.5 164.5L196.5 165ZM196.5 171L196.5 173L196.5 173.5L195.5 173.5L195.5 173L195.5 170.5L196.5 170.5L196.5 171ZM196.5 177L196.5 179L196.5 179.5L195.5 179.5L195.5 179L195.5 176.5L196.5 176.5L196.5 177ZM196.5 183L196.5 185L196.5 185.5L195.5 185.5L195.5 185L195.5 182.5L196.5 182.5L196.5 183ZM196.5 189L196.5 191L196.5 191.5L195.5 191.5L195.5 191L195.5 188.5L196.5 188.5L196.5 189ZM196.5 195L196.5 197L196.5 197.5L195.5 197.5L195.5 197L195.5 194.5L196.5 194.5L196.5 195ZM196.5 201L196.5 203L196.5 203.5L195.5 203.5L195.5 203L195.5 200.5L196.5 200.5L196.5 201ZM196.5 207L196.5 209L196.5 209.5L195.5 209.5L195.5 209L195.5 206.5L196.5 206.5L196.5 207ZM196.5 213L196.5 215L196.5 215.5L195.5 215.5L195.5 215L195.5 212.5L196.5 212.5L196.5 213ZM196.5 219L196.5 221L196.5 221.5L195.5 221.5L195.5 221L195.5 218.5L196.5 218.5L196.5 219ZM196.5 225L196.5 227L196.5 227.5L195.5 227.5L195.5 227L195.5 224.5L196.5 224.5L196.5 225ZM196.5 231L196.5 233L196.5 233.5L195.5 233.5L195.5 233L195.5 230.5L196.5 230.5L196.5 231ZM196.5 237L196.5 239L196.5 239.5L195.5 239.5L195.5 239L195.5 236.5L196.5 236.5L196.5 237ZM196.5 243L196.5 245.5L195.5 245.5L195.5 242.5L196.5 242.5L196.5 243Z"/>
		<path transform="translate(0.5 0.5)" d="M196 9.5L198 9.5L198.5 9.5L198.5 10.5L198 10.5L195.5 10.5L195.5 9.5L196 9.5ZM202 9.5L204 9.5L204.5 9.5L204.5 10.5L204 10.5L201.5 10.5L201.5 9.5L202 9.5ZM208 9.5L210.5 9.5L210.5 10.5L207.5 10.5L207.5 9.5L208 9.5Z"/>
		<path transform="translate(0.5 0.5)" d="M196 248.5L198 248.5L198.5 248.5L198.5 249.5L198 249.5L195.5 249.5L195.5 248.5L196 248.5ZM202 248.5L204 248.5L204.5 248.5L204.5 249.5L204 249.5L201.5 249.5L201.5 248.5L202 248.5ZM208 248.5L210.5 248.5L210.5 249.5L207.5 249.5L207.5 248.5L208 248.5Z"/>
		<path fill="silver" d="M146 128L151 123L176 123L181 128L181 139L176 144L151 144L146 139L146 128Z"/>
		<path fill="white" d="M142 124L147 119L172 119L177 124L177 135L172 140L147 140L142 135L142 124Z"/>
		<path fill="none" stroke="black" stroke-width="1" stroke-linecap="square" stroke-miterlimit="4" transform="translate(0.5 0.5)" d="M147 129L171 129"/>
		<rect x="153" y="128" width="3" height="3"/>
		<rect x="158" y="128" width="3" height="3"/>
		<rect x="163" y="128" width="3" height="3"/>
		<path fill="none" stroke="black" stroke-width="1" stroke-linecap="square" stroke-miterlimit="4" transform="translate(0.5 0.5)" d="M142 124L147 119L171 119L176 124L176 134L171 139L147 139L142 134L142 124Z"/>
		<rect fill="silver" x="218" y="7" width="104" height="21"/>
		<rect fill="white" x="214" y="3" width="104" height="21"/>
		<rect fill="none" stroke="black" stroke-width="1" stroke-linecap="square" stroke-miterlimit="4" transform="translate(0.5 0.5)" x="214" y="3" width="103" height="20"/>
		<rect fill="white" x="211" width="104" height="21"/>
		<path fill="none" stroke="black" stroke-width="1" stroke-linecap="square" stroke-miterlimit="4" transform="translate(0.5 0.5)" d="M300 21L306 27L309 24"/>
		<rect fill="white" x="216" y="46" width="120" height="24"/>
		<text fill="gray" font-size="9" font-family="Segoe UI" x="216, 222.31055, 227.01709, 229.83398, 232.01367, 237.10693, 241.81348, 245.63232, 248.09766, 252.67676, 255.14209, 257.95898, 260.13867, 265.23193, 269.81104, 274.9043, 279.06152, 281.24121, 285.82031, 288, 290.46533, 292.64502, 297.73828, 301.55713, 304.60693, 307.73584, 312.8291, 320.58105, 325.2876, 330.38086, " y="56, ">
				Defines a financial instrument
		</text>
		<text fill="gray" font-size="9" font-family="Segoe UI" x="216, 222.50391, 227.59717, 229.77686, 233.93408, 239.02734, 241.49268, 243.67236, 247.49121, 249.95654, 253.08545, 257.79199, 259.97168, 264.55078, 267.60059, 272.30713, 277.60693, 280.07227, 283.12207, 288.39551, 290.86084, 295.43994, 297.90527, 302.0625, 307.33594, 315.08789, 320.37891, 324.95801, 330.05127, " y="68, ">
				which is related to a company
		</text>
		<rect fill="white" x="220" y="2" width="83" height="16"/>
		<text font-size="12" font-weight="600" font-family="Segoe UI" x="220, 227.22461, 233.68164, 238.96094, 242.76367, 250.02344, 255.30273, 259.97266, 264.7832, 272.04297, 283.03516, 289.52734, 296.78711, " y="15, ">
				hasInstrument
		</text>
		<path fill="none" stroke="black" stroke-width="2" stroke-miterlimit="4" transform="translate(0.5 0.5)" d="M213 18L217 14"/>
		<path fill="none" stroke="black" stroke-width="1" stroke-linecap="square" stroke-miterlimit="4" transform="translate(0.5 0.5)" d="M214 14L217 14L217 17"/>
		<text font-size="12" font-family="Segoe UI" x="285.76562, " y="40, ">
				0
		</text>
		<text font-size="12" font-family="Symbol" x="300.72266, " y="39, ">
				¥
		</text>
		<text font-size="12" font-family="Segoe UI" x="293.89844, 296.5, " y="40, ">
				..
		</text>
		<rect fill="none" stroke="black" stroke-width="1" stroke-linecap="square" stroke-miterlimit="4" transform="translate(0.5 0.5)" x="211" width="103" height="20"/>
		<rect x="309" y="5" width="11" height="11"/>
		<rect fill="white" x="310" y="6" width="9" height="9"/>
		<rect x="311" y="10" width="7" height="1"/>
		<rect x="314" y="7" width="1" height="7"/>
		<path fill="none" stroke="black" stroke-width="1" stroke-linecap="square" stroke-miterlimit="4" transform="translate(0.5 0.5)" d="M256 249L264 249"/>
		<path fill="none" stroke="black" stroke-width="1" stroke-linecap="square" stroke-miterlimit="4" transform="translate(0.5 0.5)" d="M265 249L265 93"/>
		<path fill="none" stroke="black" stroke-width="1" stroke-linecap="square" stroke-miterlimit="4" transform="translate(0.5 0.5)" d="M265 249L265 406"/>
		<path fill="none" stroke="black" stroke-width="1" stroke-linecap="square" stroke-miterlimit="4" transform="translate(0.5 0.5)" d="M265 92L279 92"/>
		<path fill="none" stroke="black" stroke-width="1" stroke-linecap="square" stroke-miterlimit="4" transform="translate(0.5 0.5)" d="M265 155L279 155"/>
		<path fill="none" stroke="black" stroke-width="1" stroke-linecap="square" stroke-miterlimit="4" transform="translate(0.5 0.5)" d="M265 218L279 218"/>
		<path fill="none" stroke="black" stroke-width="1" stroke-linecap="square" stroke-miterlimit="4" transform="translate(0.5 0.5)" d="M265 281L279 281"/>
		<path fill="none" stroke="black" stroke-width="1" stroke-linecap="square" stroke-miterlimit="4" transform="translate(0.5 0.5)" d="M265 344L279 344"/>
		<path fill="none" stroke="black" stroke-width="1" stroke-linecap="square" stroke-miterlimit="4" transform="translate(0.5 0.5)" d="M265 407L279 407"/>
		<path fill="silver" d="M215 248L220 243L245 243L250 248L250 259L245 264L220 264L215 259L215 248Z"/>
		<path fill="white" d="M211 244L216 239L241 239L246 244L246 255L241 260L216 260L211 255L211 244Z"/>
		<path fill="none" stroke="black" stroke-width="1" stroke-linecap="square" stroke-miterlimit="4" transform="translate(0.5 0.5)" d="M216 249L221 249L225 245"/>
		<path fill="none" stroke="black" stroke-width="1" stroke-linecap="square" stroke-miterlimit="4" transform="translate(0.5 0.5)" d="M231 249L239 249"/>
		<path fill="none" stroke="black" stroke-width="1" stroke-linecap="square" stroke-miterlimit="4" transform="translate(0.5 0.5)" d="M231 245L235 245L235 253L231 253"/>
		<rect x="227" y="244" width="3" height="3"/>
		<rect x="227" y="248" width="3" height="3"/>
		<rect x="227" y="252" width="3" height="3"/>
		<path transform="translate(0.5 0.5)" d="M214.889 239.404L215.793 238.5L216.929 238.5L217.429 238.5L217.429 239.5L216.929 239.5L216 239.5L216 239L216.354 239.354L215.243 240.464L214.536 239.757L214.889 239.404ZM220.929 238.5L222.929 238.5L223.429 238.5L223.429 239.5L222.929 239.5L220.429 239.5L220.429 238.5L220.929 238.5ZM226.929 238.5L228.929 238.5L229.429 238.5L229.429 239.5L228.929 239.5L226.429 239.5L226.429 238.5L226.929 238.5ZM232.929 238.5L234.929 238.5L235.429 238.5L235.429 239.5L234.929 239.5L232.429 239.5L232.429 238.5L232.929 238.5ZM238.929 238.5L240.207 238.5L241.01 239.303L241.364 239.657L240.657 240.364L240.303 240.01L239.646 239.354L240 239L240 239.5L238.429 239.5L238.429 238.5L238.929 238.5ZM243.839 242.132L245.253 243.546L245.607 243.899L244.899 244.607L244.546 244.253L242.778 242.485L243.485 241.778L243.839 242.132ZM245.5 247.858L245.5 249.858L245.5 250.358L244.5 250.358L244.5 249.858L244.5 247.358L245.5 247.358L245.5 247.858ZM245.5 253.858L245.5 254.207L244.04 255.667L243.686 256.021L242.979 255.314L243.333 254.96L244.646 253.646L245 254L244.5 254L244.5 253.358L245.5 253.358L245.5 253.858ZM241.211 258.496L240.207 259.5L239.213 259.5L238.713 259.5L238.713 258.5L239.213 258.5L240 258.5L240 259L239.646 258.646L240.858 257.435L241.565 258.142L241.211 258.496ZM235.213 259.5L233.213 259.5L232.713 259.5L232.713 258.5L233.213 258.5L235.713 258.5L235.713 259.5L235.213 259.5ZM229.213 259.5L227.213 259.5L226.713 259.5L226.713 258.5L227.213 258.5L229.713 258.5L229.713 259.5L229.213 259.5ZM223.213 259.5L221.213 259.5L220.713 259.5L220.713 258.5L221.213 258.5L223.713 258.5L223.713 259.5L223.213 259.5ZM217.213 259.5L215.793 259.5L215.09 258.797L214.737 258.444L215.444 257.737L215.797 258.09L216.354 258.646L216 259L216 258.5L217.713 258.5L217.713 259.5L217.213 259.5ZM212.262 255.969L210.847 254.555L210.494 254.201L211.201 253.494L211.555 253.847L213.322 255.615L212.615 256.322L212.262 255.969ZM210.5 250.284L210.5 248.284L210.5 247.784L211.5 247.784L211.5 248.284L211.5 250.784L210.5 250.784L210.5 250.284ZM210.5 244.284L210.5 243.793L212.414 241.879L213.121 242.586L211.354 244.354L211 244L211.5 244L211.5 244.784L210.5 244.784L210.5 244.284Z"/>
		<rect fill="silver" x="284" y="86" width="100" height="21"/>
		<rect fill="white" x="280" y="82" width="100" height="21"/>
		<rect fill="white" x="285" y="109" width="118" height="24"/>
		<text fill="gray" font-size="9" font-family="Segoe UI" x="285, 290.80518, 293.27051, 297.08936, 301.7959, 304.8457, 307.31104, 312.58447, 315.40137, 317.8667, 323.15771, 326.28662, 331.56006, 336.85107, 341.55762, 344.68652, 347.73633, 349.91602, 354.62256, 358.44141, 360.90674, 364.72559, 370.0166, 374.72314, 378.88037, 381.06006, 383.87695, 386.05664, 390.21387, 392.6792, 395.729, " y="119, ">
				A set of properties specific to
		</text>
		<text fill="gray" font-size="9" font-family="Segoe UI" x="285, 289.5791, 292.04443, 297.33545, 302.04199, 305.1709, 308.98975, 314.26318, " y="131, ">
				a person
		</text>
		<rect fill="white" x="289" y="84" width="79" height="16"/>
		<text font-size="12" font-weight="600" font-family="Segoe UI" x="289, 296.44141, 302.93359, 307.7793, 313.05859, 320.39453, 327.6543, 336.50195, 342.99414, 347.66406, 354.12109, 357.53125, 360.94141, " y="97, ">
				personDetails
		</text>
		<path fill="none" stroke="black" stroke-width="2" stroke-miterlimit="4" transform="translate(0.5 0.5)" d="M282 100L286 96"/>
		<path fill="none" stroke="black" stroke-width="1" stroke-linecap="square" stroke-miterlimit="4" transform="translate(0.5 0.5)" d="M283 96L286 96L286 99"/>
		<rect fill="none" stroke="black" stroke-width="1" stroke-linecap="square" stroke-miterlimit="4" transform="translate(0.5 0.5)" x="280" y="82" width="99" height="20"/>
		<rect x="374" y="87" width="11" height="11"/>
		<rect fill="white" x="375" y="88" width="9" height="9"/>
		<rect x="376" y="92" width="7" height="1"/>
		<rect x="379" y="89" width="1" height="7"/>
		<rect fill="silver" x="284" y="149" width="132" height="21"/>
		<rect fill="white" x="280" y="145" width="132" height="21"/>
		<rect fill="white" x="285" y="172" width="119" height="24"/>
		<text fill="gray" font-size="9" font-family="Segoe UI" x="285, 290.80518, 293.27051, 298.57031, 301.69922, 306.97266, 312.06592, 317.35693, 319.82227, 325.0957, 327.9126, 330.37793, 335.66895, 338.79785, 344.07129, 349.3623, 354.06885, 357.19775, 360.24756, 362.42725, 367.13379, 370.95264, 373.41797, 377.23682, 382.52783, 387.23438, 391.3916, 393.57129, 396.38818, 398.56787, " y="182, ">
				A group of properties specific
		</text>
		<text fill="gray" font-size="9" font-family="Segoe UI" x="285, 288.0498, 293.32324, 295.78857, 300.36768, 305.46094, 307.92627, 313.19971, 316.32861, 321.62842, 326.20752, 331.30078, 333.48047, 337.29932, 341.87842, 344.92822, 347.10791, 352.38135, " y="194, ">
				to an organisation
		</text>
		<rect fill="white" x="289" y="147" width="111" height="16"/>
		<text font-size="12" font-weight="600" font-family="Segoe UI" x="289, 296.33594, 301.06445, 308.49414, 314.95117, 322.21094, 325.62109, 330.90039, 337.35742, 342.02734, 345.4375, 352.77344, 360.0332, 368.88086, 375.37305, 380.04297, 386.5, 389.91016, 393.32031, " y="160, ">
				organisationDetails
		</text>
		<path fill="none" stroke="black" stroke-width="2" stroke-miterlimit="4" transform="translate(0.5 0.5)" d="M282 163L286 159"/>
		<path fill="none" stroke="black" stroke-width="1" stroke-linecap="square" stroke-miterlimit="4" transform="translate(0.5 0.5)" d="M283 159L286 159L286 162"/>
		<rect fill="none" stroke="black" stroke-width="1" stroke-linecap="square" stroke-miterlimit="4" transform="translate(0.5 0.5)" x="280" y="145" width="131" height="20"/>
		<rect x="406" y="150" width="11" height="11"/>
		<rect fill="white" x="407" y="151" width="9" height="9"/>
		<rect x="408" y="155" width="7" height="1"/>
		<rect x="411" y="152" width="1" height="7"/>
		<rect fill="silver" x="284" y="212" width="108" height="21"/>
		<rect fill="white" x="280" y="208" width="108" height="21"/>
		<rect fill="white" x="285" y="235" width="119" height="24"/>
		<text fill="gray" font-size="9" font-family="Segoe UI" x="285, 290.80518, 293.27051, 298.57031, 301.69922, 306.97266, 312.06592, 317.35693, 319.82227, 325.0957, 327.9126, 330.37793, 335.66895, 338.79785, 344.07129, 349.3623, 354.06885, 357.19775, 360.24756, 362.42725, 367.13379, 370.95264, 373.41797, 377.23682, 382.52783, 387.23438, 391.3916, 393.57129, 396.38818, 398.56787, " y="245, ">
				A group of properties specific
		</text>
		<text fill="gray" font-size="9" font-family="Segoe UI" x="285, 288.0498, 293.32324, 295.78857, 300.36768, 302.83301, 308.13281, 312.83936, 318.11279, 323.40381, 328.67725, 330.85693, 333.03662, 336.08643, 338.26611, 342.42334, 347.00244, 349.18213, 351.64746, 356.22656, 359.35547, 364.06201, " y="257, ">
				to a geopolitical area
		</text>
		<rect fill="white" x="289" y="210" width="87" height="16"/>
		<text font-size="12" font-weight="600" font-family="Segoe UI" x="289, 296.42969, 302.92188, 310.25781, 318.69531, 323.42383, 329.91602, 336.37305, 345.2207, 351.71289, 356.38281, 362.83984, 366.25, 369.66016, " y="223, ">
				geoAreaDetails
		</text>
		<path fill="none" stroke="black" stroke-width="2" stroke-miterlimit="4" transform="translate(0.5 0.5)" d="M282 226L286 222"/>
		<path fill="none" stroke="black" stroke-width="1" stroke-linecap="square" stroke-miterlimit="4" transform="translate(0.5 0.5)" d="M283 222L286 222L286 225"/>
		<rect fill="none" stroke="black" stroke-width="1" stroke-linecap="square" stroke-miterlimit="4" transform="translate(0.5 0.5)" x="280" y="208" width="107" height="20"/>
		<rect x="382" y="213" width="11" height="11"/>
		<rect fill="white" x="383" y="214" width="9" height="9"/>
		<rect x="384" y="218" width="7" height="1"/>
		<rect x="387" y="215" width="1" height="7"/>
		<rect fill="silver" x="284" y="275" width="81" height="21"/>
		<rect fill="white" x="280" y="271" width="81" height="21"/>
		<rect fill="white" x="285" y="298" width="119" height="24"/>
		<text fill="gray" font-size="9" font-family="Segoe UI" x="285, 290.80518, 293.27051, 298.57031, 301.69922, 306.97266, 312.06592, 317.35693, 319.82227, 325.0957, 327.9126, 330.37793, 335.66895, 338.79785, 344.07129, 349.3623, 354.06885, 357.19775, 360.24756, 362.42725, 367.13379, 370.95264, 373.41797, 377.23682, 382.52783, 387.23438, 391.3916, 393.57129, 396.38818, 398.56787, " y="308, ">
				A group of properties specific
		</text>
		<text fill="gray" font-size="9" font-family="Segoe UI" x="285, 288.0498, 293.32324, 295.78857, 300.36768, 302.83301, 308.12402, 313.39746, 315.57715, 320.67041, 323.72021, 326.18555, 331.45898, 334.27588, 336.74121, 338.9209, 344.01416, 347.06396, 351.77051, 354.89941, 359.60596, 363.4248, " y="320, ">
				to a point of interest
		</text>
		<rect fill="white" x="289" y="273" width="60" height="16"/>
		<text font-size="12" font-weight="600" font-family="Segoe UI" x="289, 296.37109, 305.4707, 309.27344, 318.12109, 324.61328, 329.2832, 335.74023, 339.15039, 342.56055, " y="286, ">
				POIDetails
		</text>
		<path fill="none" stroke="black" stroke-width="2" stroke-miterlimit="4" transform="translate(0.5 0.5)" d="M282 289L286 285"/>
		<path fill="none" stroke="black" stroke-width="1" stroke-linecap="square" stroke-miterlimit="4" transform="translate(0.5 0.5)" d="M283 285L286 285L286 288"/>
		<rect fill="none" stroke="black" stroke-width="1" stroke-linecap="square" stroke-miterlimit="4" transform="translate(0.5 0.5)" x="280" y="271" width="80" height="20"/>
		<rect x="355" y="276" width="11" height="11"/>
		<rect fill="white" x="356" y="277" width="9" height="9"/>
		<rect x="357" y="281" width="7" height="1"/>
		<rect x="360" y="278" width="1" height="7"/>
		<rect fill="silver" x="284" y="338" width="96" height="21"/>
		<rect fill="white" x="280" y="334" width="96" height="21"/>
		<rect fill="white" x="285" y="361" width="119" height="24"/>
		<text fill="gray" font-size="9" font-family="Segoe UI" x="285, 290.80518, 293.27051, 298.57031, 301.69922, 306.97266, 312.06592, 317.35693, 319.82227, 325.0957, 327.9126, 330.37793, 335.66895, 338.79785, 344.07129, 349.3623, 354.06885, 357.19775, 360.24756, 362.42725, 367.13379, 370.95264, 373.41797, 377.23682, 382.52783, 387.23438, 391.3916, 393.57129, 396.38818, 398.56787, " y="371, ">
				A group of properties specific
		</text>
		<text fill="gray" font-size="9" font-family="Segoe UI" x="285, 288.0498, 293.32324, 295.78857, 300.36768, 305.46094, 307.92627, 313.19971, 318.49072, 320.67041, 325.37695, 329.53418, " y="383, ">
				to an object
		</text>
		<rect fill="white" x="289" y="336" width="75" height="16"/>
		<text font-size="12" font-weight="600" font-family="Segoe UI" x="289, 296.33594, 303.77734, 307.1875, 313.67969, 319.43945, 324.10938, 332.95703, 339.44922, 344.11914, 350.57617, 353.98633, 357.39648, " y="349, ">
				objectDetails
		</text>
		<path fill="none" stroke="black" stroke-width="2" stroke-miterlimit="4" transform="translate(0.5 0.5)" d="M282 352L286 348"/>
		<path fill="none" stroke="black" stroke-width="1" stroke-linecap="square" stroke-miterlimit="4" transform="translate(0.5 0.5)" d="M283 348L286 348L286 351"/>
		<rect fill="none" stroke="black" stroke-width="1" stroke-linecap="square" stroke-miterlimit="4" transform="translate(0.5 0.5)" x="280" y="334" width="95" height="20"/>
		<rect x="370" y="339" width="11" height="11"/>
		<rect fill="white" x="371" y="340" width="9" height="9"/>
		<rect x="372" y="344" width="7" height="1"/>
		<rect x="375" y="341" width="1" height="7"/>
		<rect fill="silver" x="284" y="401" width="92" height="21"/>
		<rect fill="white" x="280" y="397" width="92" height="21"/>
		<rect fill="white" x="285" y="424" width="118" height="36"/>
		<text fill="gray" font-size="9" font-family="Segoe UI" x="285, 290.80518, 293.27051, 297.08936, 301.7959, 304.8457, 307.31104, 312.58447, 315.40137, 317.8667, 323.15771, 326.28662, 331.56006, 336.85107, 341.55762, 344.68652, 347.73633, 349.91602, 354.62256, 358.44141, 360.90674, 367.41064, 369.59033, 372.64014, " y="434, ">
				A set of properties with
		</text>
		<text fill="gray" font-size="9" font-family="Segoe UI" x="285, 290.2998, 295.00635, 298.05615, 302.63525, 304.81494, 306.99463, 310.81348, 313.27881, 317.85791, 323.14893, 328.42236, 333.51562, 336.56543, 339.03076, 343.60986, 348.70312, 351.16846, 355.875, 360.18604, 364.89258, 369.98584, 373.03564, 375.50098, 378.2168, 384.3999, 388.21875, 392.92529, " y="446, ">
				details about an event (Used
		</text>
		<text fill="gray" font-size="9" font-family="Segoe UI" x="285, 287.17969, 292.27295, 294.73828, 297.78809, 302.88135, 307.58789, 310.05322, 313.87207, 318.0293, 323.30273, 328.59375, 333.30029, 335.76562, 341.03906, 343.85596, 346.32129, 350.87402, 355.18506, 359.8916, 364.98486, 368.03467, 371.85352, 379.93506, 384.17139, 387.77051, 393.94482, 398.79639, " y="458, ">
				in the scope of EventsML-G2)
		</text>
		<rect fill="white" x="289" y="399" width="71" height="16"/>
		<text font-size="12" font-weight="600" font-family="Segoe UI" x="289, 295.49219, 301.87891, 308.37109, 315.63086, 320.30078, 329.14844, 335.64062, 340.31055, 346.76758, 350.17773, 353.58789, " y="412, ">
				eventDetails
		</text>
		<path fill="none" stroke="black" stroke-width="2" stroke-miterlimit="4" transform="translate(0.5 0.5)" d="M282 415L286 411"/>
		<path fill="none" stroke="black" stroke-width="1" stroke-linecap="square" stroke-miterlimit="4" transform="translate(0.5 0.5)" d="M283 411L286 411L286 414"/>
		<rect fill="none" stroke="black" stroke-width="1" stroke-linecap="square" stroke-miterlimit="4" transform="translate(0.5 0.5)" x="280" y="397" width="91" height="20"/>
		<rect x="366" y="402" width="11" height="11"/>
		<rect fill="white" x="367" y="403" width="9" height="9"/>
		<rect x="368" y="407" width="7" height="1"/>
		<rect x="371" y="404" width="1" height="7"/>
		<rect x="245" y="244" width="11" height="11"/>
		<rect fill="white" x="246" y="245" width="9" height="9"/>
		<rect x="247" y="249" width="7" height="1"/>
		<rect x="176" y="124" width="11" height="11"/>
		<rect fill="white" x="177" y="125" width="9" height="9"/>
		<rect x="178" y="129" width="7" height="1"/>
		<rect x="117" y="124" width="11" height="11"/>
		<rect fill="white" x="118" y="125" width="9" height="9"/>
		<rect x="119" y="129" width="7" height="1"/>
	</g>
</svg>
