<?xml version="1.0" encoding="utf-8" ?>
<svg xmlns="http://www.w3.org/2000/svg" xmlns:xlink="http://www.w3.org/1999/xlink" width="383" height="1746">
	<clipPath id="cl_1b7">
		<rect x="-10" y="-5" width="383" height="1746"/>
	</clipPath>
	<g clip-path="url(#cl_1b7)">
		<rect fill="#FFFFC0" x="126" width="237" height="1736"/>
		<rect fill="none" stroke="gray" stroke-width="1" stroke-linecap="square" stroke-miterlimit="4" transform="translate(0.5 0.5)" x="126" width="236" height="1735"/>
		<path fill="none" stroke="black" stroke-width="1" stroke-linecap="square" stroke-miterlimit="4" transform="translate(0.5 0.5)" d="M57 1198L138 1198"/>
		<path fill="none" stroke="black" stroke-width="1" stroke-linecap="square" stroke-miterlimit="4" transform="translate(0.5 0.5)" d="M139 1198L139 794"/>
		<path transform="translate(0.5 0.5)" d="M139.5 1198L139.5 1200L139.5 1200.5L138.5 1200.5L138.5 1200L138.5 1197.5L139.5 1197.5L139.5 1198ZM139.5 1204L139.5 1206L139.5 1206.5L138.5 1206.5L138.5 1206L138.5 1203.5L139.5 1203.5L139.5 1204ZM139.5 1210L139.5 1212L139.5 1212.5L138.5 1212.5L138.5 1212L138.5 1209.5L139.5 1209.5L139.5 1210ZM139.5 1216L139.5 1218L139.5 1218.5L138.5 1218.5L138.5 1218L138.5 1215.5L139.5 1215.5L139.5 1216ZM139.5 1222L139.5 1224L139.5 1224.5L138.5 1224.5L138.5 1224L138.5 1221.5L139.5 1221.5L139.5 1222ZM139.5 1228L139.5 1230L139.5 1230.5L138.5 1230.5L138.5 1230L138.5 1227.5L139.5 1227.5L139.5 1228ZM139.5 1234L139.5 1236L139.5 1236.5L138.5 1236.5L138.5 1236L138.5 1233.5L139.5 1233.5L139.5 1234ZM139.5 1240L139.5 1242L139.5 1242.5L138.5 1242.5L138.5 1242L138.5 1239.5L139.5 1239.5L139.5 1240ZM139.5 1246L139.5 1248L139.5 1248.5L138.5 1248.5L138.5 1248L138.5 1245.5L139.5 1245.5L139.5 1246ZM139.5 1252L139.5 1254L139.5 1254.5L138.5 1254.5L138.5 1254L138.5 1251.5L139.5 1251.5L139.5 1252ZM139.5 1258L139.5 1260L139.5 1260.5L138.5 1260.5L138.5 1260L138.5 1257.5L139.5 1257.5L139.5 1258ZM139.5 1264L139.5 1266L139.5 1266.5L138.5 1266.5L138.5 1266L138.5 1263.5L139.5 1263.5L139.5 1264ZM139.5 1270L139.5 1272L139.5 1272.5L138.5 1272.5L138.5 1272L138.5 1269.5L139.5 1269.5L139.5 1270ZM139.5 1276L139.5 1278L139.5 1278.5L138.5 1278.5L138.5 1278L138.5 1275.5L139.5 1275.5L139.5 1276ZM139.5 1282L139.5 1284L139.5 1284.5L138.5 1284.5L138.5 1284L138.5 1281.5L139.5 1281.5L139.5 1282ZM139.5 1288L139.5 1290L139.5 1290.5L138.5 1290.5L138.5 1290L138.5 1287.5L139.5 1287.5L139.5 1288ZM139.5 1294L139.5 1296L139.5 1296.5L138.5 1296.5L138.5 1296L138.5 1293.5L139.5 1293.5L139.5 1294ZM139.5 1300L139.5 1302L139.5 1302.5L138.5 1302.5L138.5 1302L138.5 1299.5L139.5 1299.5L139.5 1300ZM139.5 1306L139.5 1308L139.5 1308.5L138.5 1308.5L138.5 1308L138.5 1305.5L139.5 1305.5L139.5 1306ZM139.5 1312L139.5 1314L139.5 1314.5L138.5 1314.5L138.5 1314L138.5 1311.5L139.5 1311.5L139.5 1312ZM139.5 1318L139.5 1320L139.5 1320.5L138.5 1320.5L138.5 1320L138.5 1317.5L139.5 1317.5L139.5 1318ZM139.5 1324L139.5 1326L139.5 1326.5L138.5 1326.5L138.5 1326L138.5 1323.5L139.5 1323.5L139.5 1324ZM139.5 1330L139.5 1332L139.5 1332.5L138.5 1332.5L138.5 1332L138.5 1329.5L139.5 1329.5L139.5 1330ZM139.5 1336L139.5 1338L139.5 1338.5L138.5 1338.5L138.5 1338L138.5 1335.5L139.5 1335.5L139.5 1336ZM139.5 1342L139.5 1344L139.5 1344.5L138.5 1344.5L138.5 1344L138.5 1341.5L139.5 1341.5L139.5 1342ZM139.5 1348L139.5 1350L139.5 1350.5L138.5 1350.5L138.5 1350L138.5 1347.5L139.5 1347.5L139.5 1348ZM139.5 1354L139.5 1356L139.5 1356.5L138.5 1356.5L138.5 1356L138.5 1353.5L139.5 1353.5L139.5 1354ZM139.5 1360L139.5 1362L139.5 1362.5L138.5 1362.5L138.5 1362L138.5 1359.5L139.5 1359.5L139.5 1360ZM139.5 1366L139.5 1368L139.5 1368.5L138.5 1368.5L138.5 1368L138.5 1365.5L139.5 1365.5L139.5 1366ZM139.5 1372L139.5 1374L139.5 1374.5L138.5 1374.5L138.5 1374L138.5 1371.5L139.5 1371.5L139.5 1372ZM139.5 1378L139.5 1380L139.5 1380.5L138.5 1380.5L138.5 1380L138.5 1377.5L139.5 1377.5L139.5 1378ZM139.5 1384L139.5 1386L139.5 1386.5L138.5 1386.5L138.5 1386L138.5 1383.5L139.5 1383.5L139.5 1384ZM139.5 1390L139.5 1392L139.5 1392.5L138.5 1392.5L138.5 1392L138.5 1389.5L139.5 1389.5L139.5 1390ZM139.5 1396L139.5 1398L139.5 1398.5L138.5 1398.5L138.5 1398L138.5 1395.5L139.5 1395.5L139.5 1396ZM139.5 1402L139.5 1404L139.5 1404.5L138.5 1404.5L138.5 1404L138.5 1401.5L139.5 1401.5L139.5 1402ZM139.5 1408L139.5 1410L139.5 1410.5L138.5 1410.5L138.5 1410L138.5 1407.5L139.5 1407.5L139.5 1408ZM139.5 1414L139.5 1416L139.5 1416.5L138.5 1416.5L138.5 1416L138.5 1413.5L139.5 1413.5L139.5 1414ZM139.5 1420L139.5 1422L139.5 1422.5L138.5 1422.5L138.5 1422L138.5 1419.5L139.5 1419.5L139.5 1420ZM139.5 1426L139.5 1428L139.5 1428.5L138.5 1428.5L138.5 1428L138.5 1425.5L139.5 1425.5L139.5 1426ZM139.5 1432L139.5 1434L139.5 1434.5L138.5 1434.5L138.5 1434L138.5 1431.5L139.5 1431.5L139.5 1432ZM139.5 1438L139.5 1440L139.5 1440.5L138.5 1440.5L138.5 1440L138.5 1437.5L139.5 1437.5L139.5 1438ZM139.5 1444L139.5 1446L139.5 1446.5L138.5 1446.5L138.5 1446L138.5 1443.5L139.5 1443.5L139.5 1444ZM139.5 1450L139.5 1452L139.5 1452.5L138.5 1452.5L138.5 1452L138.5 1449.5L139.5 1449.5L139.5 1450ZM139.5 1456L139.5 1458L139.5 1458.5L138.5 1458.5L138.5 1458L138.5 1455.5L139.5 1455.5L139.5 1456ZM139.5 1462L139.5 1464L139.5 1464.5L138.5 1464.5L138.5 1464L138.5 1461.5L139.5 1461.5L139.5 1462ZM139.5 1468L139.5 1470L139.5 1470.5L138.5 1470.5L138.5 1470L138.5 1467.5L139.5 1467.5L139.5 1468ZM139.5 1474L139.5 1476L139.5 1476.5L138.5 1476.5L138.5 1476L138.5 1473.5L139.5 1473.5L139.5 1474ZM139.5 1480L139.5 1482L139.5 1482.5L138.5 1482.5L138.5 1482L138.5 1479.5L139.5 1479.5L139.5 1480ZM139.5 1486L139.5 1488L139.5 1488.5L138.5 1488.5L138.5 1488L138.5 1485.5L139.5 1485.5L139.5 1486ZM139.5 1492L139.5 1494L139.5 1494.5L138.5 1494.5L138.5 1494L138.5 1491.5L139.5 1491.5L139.5 1492ZM139.5 1498L139.5 1500L139.5 1500.5L138.5 1500.5L138.5 1500L138.5 1497.5L139.5 1497.5L139.5 1498ZM139.5 1504L139.5 1506L139.5 1506.5L138.5 1506.5L138.5 1506L138.5 1503.5L139.5 1503.5L139.5 1504ZM139.5 1510L139.5 1512L139.5 1512.5L138.5 1512.5L138.5 1512L138.5 1509.5L139.5 1509.5L139.5 1510ZM139.5 1516L139.5 1518L139.5 1518.5L138.5 1518.5L138.5 1518L138.5 1515.5L139.5 1515.5L139.5 1516ZM139.5 1522L139.5 1524L139.5 1524.5L138.5 1524.5L138.5 1524L138.5 1521.5L139.5 1521.5L139.5 1522ZM139.5 1528L139.5 1530L139.5 1530.5L138.5 1530.5L138.5 1530L138.5 1527.5L139.5 1527.5L139.5 1528ZM139.5 1534L139.5 1536L139.5 1536.5L138.5 1536.5L138.5 1536L138.5 1533.5L139.5 1533.5L139.5 1534ZM139.5 1540L139.5 1542L139.5 1542.5L138.5 1542.5L138.5 1542L138.5 1539.5L139.5 1539.5L139.5 1540ZM139.5 1546L139.5 1548L139.5 1548.5L138.5 1548.5L138.5 1548L138.5 1545.5L139.5 1545.5L139.5 1546ZM139.5 1552L139.5 1554L139.5 1554.5L138.5 1554.5L138.5 1554L138.5 1551.5L139.5 1551.5L139.5 1552ZM139.5 1558L139.5 1560L139.5 1560.5L138.5 1560.5L138.5 1560L138.5 1557.5L139.5 1557.5L139.5 1558ZM139.5 1564L139.5 1566L139.5 1566.5L138.5 1566.5L138.5 1566L138.5 1563.5L139.5 1563.5L139.5 1564ZM139.5 1570L139.5 1572L139.5 1572.5L138.5 1572.5L138.5 1572L138.5 1569.5L139.5 1569.5L139.5 1570ZM139.5 1576L139.5 1578L139.5 1578.5L138.5 1578.5L138.5 1578L138.5 1575.5L139.5 1575.5L139.5 1576ZM139.5 1582L139.5 1584L139.5 1584.5L138.5 1584.5L138.5 1584L138.5 1581.5L139.5 1581.5L139.5 1582ZM139.5 1588L139.5 1590L139.5 1590.5L138.5 1590.5L138.5 1590L138.5 1587.5L139.5 1587.5L139.5 1588ZM139.5 1594L139.5 1596L139.5 1596.5L138.5 1596.5L138.5 1596L138.5 1593.5L139.5 1593.5L139.5 1594ZM139.5 1600L139.5 1602.5L138.5 1602.5L138.5 1599.5L139.5 1599.5L139.5 1600Z"/>
		<path transform="translate(0.5 0.5)" d="M139 1602.5L141 1602.5L141.5 1602.5L141.5 1603.5L141 1603.5L138.5 1603.5L138.5 1602.5L139 1602.5ZM145 1602.5L147 1602.5L147.5 1602.5L147.5 1603.5L147 1603.5L144.5 1603.5L144.5 1602.5L145 1602.5ZM151 1602.5L153.5 1602.5L153.5 1603.5L150.5 1603.5L150.5 1602.5L151 1602.5Z"/>
		<path fill="none" stroke="black" stroke-width="1" stroke-linecap="square" stroke-miterlimit="4" transform="translate(0.5 0.5)" d="M139 793L153 793"/>
		<rect fill="silver" x="4" y="1192" width="52" height="21"/>
		<rect fill="white" y="1188" width="52" height="21"/>
		<rect fill="#FFFFC0" x="134" y="8" width="81" height="16"/>
		<text fill="gray" font-size="12" font-weight="600" font-family="Segoe UI" x="134, 143.09961, 150.35938, 156.81641, 160.22656, 167.59766, 172.32617, 179.66211, 187.10352, 193.5957, 200.05273, 207.49414, " y="21, ">
				QualPropType
		</text>
		<rect fill="white" x="5" y="1215" width="106" height="12"/>
		<text fill="gray" font-size="9" font-family="Segoe UI" x="5, 9.715332, 14.808594, 19.515137, 21.980469, 27.07373, 31.652832, 34.702637, 39.795898, 42.924805, 47.631348, 50.09668, 55.370117, 58.187012, 60.652344, 63.702148, 68.79541, 73.501953, 75.967285, 80.124512, 85.397949, 90.491211, 94.648438, 99.35498, 104.646, 107.6958, " y="1225, ">
				The nature of the concept.
		</text>
		<rect fill="white" x="9" y="1190" width="31" height="16"/>
		<text font-size="12" font-weight="600" font-family="Segoe UI" x="9, 13.669922, 20.126953, 27.568359, " y="1203, ">
				type
		</text>
		<rect fill="none" stroke="black" stroke-width="1" stroke-linecap="square" stroke-miterlimit="4" transform="translate(0.5 0.5)" y="1188" width="51" height="20"/>
		<path fill="white" d="M231 55L231 36L154 36L154 55L154 1549L301 1549L301 55L231 55Z"/>
		<rect fill="white" x="174" y="38" width="51" height="16"/>
		<text font-size="12" font-style="italic" font-family="Segoe UI" x="174, 180.50391, 184.38281, 188.26172, 192.5332, 195.63867, 202.14258, 208.83984, 212.73047, 218.57227, " y="51, ">
				attributes
		</text>
		<path fill="none" stroke="black" stroke-width="1" stroke-linecap="square" stroke-miterlimit="4" transform="translate(0.5 0.5)" d="M231 55L231 36L154 36L154 55L154 1549L301 1549L301 55L231 55Z"/>
		<rect fill="silver" x="172" y="68" width="52" height="21"/>
		<rect fill="white" x="168" y="64" width="52" height="21"/>
		<rect fill="white" x="173" y="91" width="101" height="24"/>
		<text fill="gray" font-size="9" font-family="Segoe UI" x="173, 177.71533, 182.80859, 187.51514, 189.98047, 192.16016, 197.43359, 201.59082, 206.16992, 208.34961, 210.81494, 212.99463, 218.29443, 223.00098, 228.09424, 231.14404, 233.32373, 236.14062, 238.32031, 243.02686, 246.15576, 248.62109, 253.89453, 256.71143, 259.17676, 262.22656, 267.31982, " y="101, ">
				The local identifier of the
		</text>
		<text fill="gray" font-size="9" font-family="Segoe UI" x="173, 178.29102, 181.41992, 186.69336, 191.98438, 196.69092, 199.81982, 202.86963, 207.22461, " y="113, ">
				property.
		</text>
		<rect fill="white" x="177" y="66" width="36" height="16"/>
		<text font-size="12" font-weight="600" font-family="Segoe UI" x="177, 180.41016, " y="79, ">
				id
		</text>
		<rect fill="none" stroke="black" stroke-width="1" stroke-linecap="square" stroke-miterlimit="4" transform="translate(0.5 0.5)" x="168" y="64" width="51" height="20"/>
		<rect fill="silver" x="172" y="126" width="58" height="21"/>
		<rect fill="white" x="168" y="122" width="58" height="21"/>
		<rect fill="white" x="173" y="149" width="121" height="120"/>
		<text fill="gray" font-size="9" font-family="Segoe UI" x="173, 175.39502, 178.21191, 180.67725, 183.72705, 188.82031, 193.52686, 195.99219, 201.2832, 204.41211, 209.68555, 214.97656, 219.68311, 222.81201, 225.86182, 230.2168, 232.68213, 236.99316, 241.57227, 243.75195, 248.84521, 253.55176, 256.01709, 258.19678, 262.01562, 264.48096, 269.57422, 274.84766, " y="159, ">
				If the property value is not
		</text>
		<text fill="gray" font-size="9" font-family="Segoe UI" x="173, 178.2998, 183.00635, 185.82324, 188.00293, 193.09619, 197.80273, 203.10254, 205.05371, 207.51904, 211.33789, 216.62891, 221.33545, 225.49268, 227.67236, 230.48926, 232.66895, 237.37549, 241.19434, 243.65967, 250.16357, 255.25684, 257.43652, 261.59375, 266.68701, 269.15234, 273.85889, 278.95215, 282.00195, 284.18164, 287.23145, " y="171, ">
				defined, specifies which entity
		</text>
		<text fill="gray" font-size="9" font-family="Segoe UI" x="173, 175.71582, 181.00684, 185.71338, 188.84229, 192.66113, 197.93457, 203.02783, 204.979, 207.44434, 212.71777, 215.84668, 221.14648, 225.72559, 230.81885, 232.99854, 236.81738, 241.39648, 244.44629, 246.62598, 251.89941, 256.99268, 259.45801, 264.73145, " y="183, ">
				(person, organisation or
		</text>
		<text fill="gray" font-size="9" font-family="Segoe UI" x="173, 176.81885, 181.17383, 184.99268, 188.04248, 192.74902, 200.50098, 203.2168, 205.68213, 212.18604, 214.36572, 216.54541, 218.7251, 221.19043, 225.89697, 231.19678, 233.37646, 236.42627, 238.8916, 241.94141, 247.03467, 251.74121, 254.20654, 259.49756, 262.62646, 267.8999, 273.19092, 277.89746, 281.02637, 284.07617, " y="195, ">
				system) will edit the property
		</text>
		<text fill="gray" font-size="9" font-family="Segoe UI" x="173, 177.31104, 181.89014, 184.06982, 189.16309, 193.86963, 196.33496, 199.93408, 202.39941, 207.10596, 211.23682, 216.52783, 219.65674, 224.36328, 228.18213, 232.00098, 236.70752, 242.00732, 244.47266, 249.76367, 254.11865, 256.58398, 261.16309, 263.62842, 270.41357, 275.98584, 281.25928, 286.55908, 291.26562, " y="207, ">
				value - expressed by a QCode.
		</text>
		<text fill="gray" font-size="9" font-family="Segoe UI" x="173, 175.39502, 178.21191, 180.67725, 183.72705, 188.82031, 193.52686, 195.99219, 201.2832, 204.41211, 209.68555, 214.97656, 219.68311, 222.81201, 225.86182, 230.2168, 232.68213, 236.99316, 241.57227, 243.75195, 248.84521, 253.55176, 256.01709, 258.19678, " y="219, ">
				If the property value is
		</text>
		<text fill="gray" font-size="9" font-family="Segoe UI" x="173, 178.2998, 183.00635, 185.82324, 188.00293, 193.09619, 197.80273, 203.10254, 205.05371, 207.51904, 211.33789, 216.62891, 221.33545, 225.49268, 227.67236, 230.48926, 232.66895, 237.37549, 241.19434, 243.65967, 250.16357, 255.25684, 257.43652, 261.59375, 266.68701, 269.15234, 273.85889, 278.95215, 282.00195, 284.18164, 287.23145, " y="231, ">
				defined, specifies which entity
		</text>
		<text fill="gray" font-size="9" font-family="Segoe UI" x="173, 175.71582, 181.00684, 185.71338, 188.84229, 192.66113, 197.93457, 203.02783, 204.979, 207.44434, 212.71777, 215.84668, 221.14648, 225.72559, 230.81885, 232.99854, 236.81738, 241.39648, 244.44629, 246.62598, 251.89941, 256.99268, 259.45801, 264.73145, " y="243, ">
				(person, organisation or
		</text>
		<text fill="gray" font-size="9" font-family="Segoe UI" x="173, 176.81885, 181.17383, 184.99268, 188.04248, 192.74902, 200.50098, 203.2168, 205.68213, 210.77539, 215.35449, 219.17334, 221.63867, 226.34521, 231.64502, 233.82471, 236.87451, 241.58105, 246.88086, 249.34619, 252.396, 257.48926, " y="255, ">
				system) has edited the
		</text>
		<text fill="gray" font-size="9" font-family="Segoe UI" x="173, 178.29102, 181.41992, 186.69336, 191.98438, 196.69092, 199.81982, 202.86963, 207.22461, 209.68994, 214.00098, 218.58008, 220.75977, 225.85303, 230.55957, " y="267, ">
				property value.
		</text>
		<rect fill="white" x="177" y="124" width="42" height="16"/>
		<text font-size="12" font-weight="600" font-family="Segoe UI" x="177, 182.75977, 187.48828, 193.98047, 200.4375, 205.06055, 212.39648, " y="137, ">
				creator
		</text>
		<rect fill="none" stroke="black" stroke-width="1" stroke-linecap="square" stroke-miterlimit="4" transform="translate(0.5 0.5)" x="168" y="122" width="57" height="20"/>
		<rect fill="silver" x="172" y="280" width="73" height="21"/>
		<rect fill="white" x="168" y="276" width="73" height="21"/>
		<rect fill="white" x="173" y="303" width="120" height="108"/>
		<text fill="gray" font-size="9" font-family="Segoe UI" x="173, 175.39502, 178.21191, 180.67725, 183.72705, 188.82031, 193.52686, 195.99219, 201.2832, 204.41211, 209.68555, 214.97656, 219.68311, 222.81201, 225.86182, 230.2168, 232.68213, 236.99316, 241.57227, 243.75195, 248.84521, 253.55176, 256.01709, 258.19678, 262.01562, 264.48096, 269.57422, 274.84766, " y="313, ">
				If the property value is not
		</text>
		<text fill="gray" font-size="9" font-family="Segoe UI" x="173, 178.2998, 183.00635, 185.82324, 188.00293, 193.09619, 197.80273, 203.10254, 205.05371, 207.51904, 211.33789, 216.62891, 221.33545, 225.49268, 227.67236, 230.48926, 232.66895, 237.37549, 241.19434, 243.65967, 250.16357, 255.25684, 257.43652, 261.59375, 266.68701, 269.15234, 273.85889, 278.95215, 282.00195, 284.18164, 287.23145, " y="325, ">
				defined, specifies which entity
		</text>
		<text fill="gray" font-size="9" font-family="Segoe UI" x="173, 175.71582, 181.00684, 185.71338, 188.84229, 192.66113, 197.93457, 203.02783, 204.979, 207.44434, 212.71777, 215.84668, 221.14648, 225.72559, 230.81885, 232.99854, 236.81738, 241.39648, 244.44629, 246.62598, 251.89941, 256.99268, 259.45801, 264.73145, " y="337, ">
				(person, organisation or
		</text>
		<text fill="gray" font-size="9" font-family="Segoe UI" x="173, 176.81885, 181.17383, 184.99268, 188.04248, 192.74902, 200.50098, 203.2168, 205.68213, 212.18604, 214.36572, 216.54541, 218.7251, 221.19043, 225.89697, 231.19678, 233.37646, 236.42627, 238.8916, 241.94141, 247.03467, 251.74121, 254.20654, 259.49756, 262.62646, 267.8999, 273.19092, 277.89746, 281.02637, 284.07617, " y="349, ">
				system) will edit the property
		</text>
		<text fill="gray" font-size="9" font-family="Segoe UI" x="173, 176.59912, 179.06445, 183.771, 187.90186, 193.19287, 196.32178, 201.02832, 204.84717, 208.66602, 213.37256, 218.67236, 221.1377, 226.42871, 230.78369, 233.24902, 237.82812, 240.29346, 246.47656, 251.85986, 254.25488, 256.20605, 258.67139, 261.06641, 263.8833, 266.34863, 269.39844, 274.4917, " y="361, ">
				- expressed by a URI. If the
		</text>
		<text fill="gray" font-size="9" font-family="Segoe UI" x="173, 178.29102, 181.41992, 186.69336, 191.98438, 196.69092, 199.81982, 202.86963, 207.22461, 209.68994, 214.00098, 218.58008, 220.75977, 225.85303, 230.55957, 233.0249, 235.20459, 239.02344, 241.48877, 246.78857, 251.49512, 254.31201, 256.4917, 261.58496, 266.2915, 271.59131, " y="373, ">
				property value is defined,
		</text>
		<text fill="gray" font-size="9" font-family="Segoe UI" x="173, 176.81885, 182.10986, 186.81641, 190.97363, 193.15332, 195.97021, 198.1499, 202.85645, 206.67529, 209.14062, 215.64453, 220.73779, 222.91748, 227.07471, 232.16797, 234.6333, 239.33984, 244.43311, 247.48291, 249.6626, 252.7124, 257.06738, 259.53271, 262.24854, 267.53955, 272.24609, 275.375, 279.19385, 284.46729, 289.56055, " y="385, ">
				specifies which entity (person,
		</text>
		<text fill="gray" font-size="9" font-family="Segoe UI" x="173, 178.27344, 181.40234, 186.70215, 191.28125, 196.37451, 198.5542, 202.37305, 206.95215, 210.00195, 212.18164, 217.45508, 222.54834, 225.01367, 230.28711, 233.41602, 235.88135, 239.7002, 244.05518, 247.87402, 250.92383, 255.63037, 263.38232, 266.09814, 268.56348, 273.65674, 278.23584, " y="397, ">
				organisation or system) has
		</text>
		<text fill="gray" font-size="9" font-family="Segoe UI" x="173, 177.70654, 183.00635, 185.18604, 188.23584, 192.94238, 198.24219, 200.70752, 203.75732, 208.85059, 213.55713, 216.02246, 221.31348, 224.44238, 229.71582, 235.00684, 239.71338, 242.84229, 245.89209, 250.24707, " y="409, ">
				edited the property.
		</text>
		<rect fill="white" x="177" y="278" width="57" height="16"/>
		<text font-size="12" font-weight="600" font-family="Segoe UI" x="177, 182.75977, 187.48828, 193.98047, 200.4375, 205.06055, 212.39648, 217.20703, 224.4668, 229.28906, " y="291, ">
				creatoruri
		</text>
		<rect fill="none" stroke="black" stroke-width="1" stroke-linecap="square" stroke-miterlimit="4" transform="translate(0.5 0.5)" x="168" y="276" width="72" height="20"/>
		<rect fill="silver" x="172" y="422" width="69" height="21"/>
		<rect fill="white" x="168" y="418" width="69" height="21"/>
		<rect fill="white" x="173" y="445" width="119" height="72"/>
		<text fill="gray" font-size="9" font-family="Segoe UI" x="173, 177.71533, 182.80859, 187.51514, 189.98047, 195.28027, 199.85938, 202.90918, 207.61572, 210.08105, 212.79688, 217.37598, 222.46924, 227.76904, 229.72021, 232.18555, 237.45898, 242.75, 245.7998, 247.97949, 253.25293, 258.34619, 262.92529, 265.10498, 267.28467, 271.63965, 273.59082, 276.05615, 279.10596, 284.19922, " y="455, ">
				The date (and, optionally, the
		</text>
		<text fill="gray" font-size="9" font-family="Segoe UI" x="173, 176.0498, 178.22949, 185.98145, 190.68799, 193.40381, 195.86914, 202.37305, 207.46631, 212.17285, 217.26611, 219.73145, 222.78125, 227.87451, 232.58105, 235.04639, 240.3374, 243.46631, 248.73975, 254.03076, 258.7373, 261.86621, 264.91602, 269.271, 271.73633, 278.24023, 282.81934, " y="467, ">
				time) when the property was
		</text>
		<text fill="gray" font-size="9" font-family="Segoe UI" x="173, 175.17969, 179.75879, 183.57764, 186.62744, 189.09277, 196.84473, 202.11816, 207.41797, 209.59766, 212.41455, 214.59424, 219.30078, 224.60059, 226.55176, 229.01709, 233.73242, 238.82568, 243.53223, 245.99756, 248.17725, 253.27051, 255.4502, 258.5, 260.67969, 265.25879, 267.43848, 269.90381, 274.21484, 278.79395, 280.97363, 286.06689, " y="479, ">
				last modified. The initial value
		</text>
		<text fill="gray" font-size="9" font-family="Segoe UI" x="173, 175.17969, 178.99854, 181.46387, 184.51367, 189.60693, 194.31348, 196.77881, 202.07861, 206.65771, 209.70752, 214.41406, 216.87939, 219.59521, 224.17432, 229.26758, 234.56738, 236.51855, 238.98389, 244.25732, 249.54834, 252.59814, 254.77783, 260.05127, 265.14453, 269.72363, 271.90332, 274.08301, 278.43799, " y="491, ">
				is the date (and, optionally,
		</text>
		<text fill="gray" font-size="9" font-family="Segoe UI" x="173, 176.0498, 181.14307, 185.84961, 188.31494, 191.36475, 193.54443, 201.29639, 206.00293, 208.71875, 211.18408, 216.45752, 219.27441, 221.73975, 225.89697, 229.02588, 233.73242, 238.31152, 241.36133, 243.54102, 248.81445, 253.90771, 256.37305, 261.64648, 264.46338, 266.92871, 269.97852, 275.07178, " y="503, ">
				the time) of creation of the
		</text>
		<text fill="gray" font-size="9" font-family="Segoe UI" x="173, 178.29102, 181.41992, 186.69336, 191.98438, 196.69092, 199.81982, 202.86963, 207.22461, " y="515, ">
				property.
		</text>
		<rect fill="white" x="177" y="420" width="53" height="16"/>
		<text font-size="12" font-weight="600" font-family="Segoe UI" x="177, 187.99219, 195.32812, 202.75781, 206.16797, 210.76758, 214.17773, 220.66992, " y="433, ">
				modified
		</text>
		<rect fill="none" stroke="black" stroke-width="1" stroke-linecap="square" stroke-miterlimit="4" transform="translate(0.5 0.5)" x="168" y="418" width="68" height="20"/>
		<rect fill="silver" x="172" y="528" width="59" height="21"/>
		<rect fill="white" x="168" y="524" width="59" height="21"/>
		<rect fill="white" x="173" y="551" width="118" height="108"/>
		<text fill="gray" font-size="9" font-family="Segoe UI" x="173, 175.39502, 178.21191, 180.67725, 184.49609, 189.20264, 192.25244, 194.71777, 197.76758, 203.04102, 205.50635, 208.55615, 211.68506, 216.77832, 221.48486, 223.9502, 227, 232.09326, " y="561, ">
				If set to true the
		</text>
		<text fill="gray" font-size="9" font-family="Segoe UI" x="173, 177.15723, 182.43066, 185.55957, 188.68848, 193.39502, 197.21387, 202.50488, 207.77832, 212.87158, 218.17139, 220.35107, 225.44434, 230.74414, 233.20947, 238.50049, 241.62939, 246.90283, 252.19385, 256.90039, 260.0293, 263.0791, 267.43408, 269.89941, 276.40332, 280.98242, " y="573, ">
				corresponding property was
		</text>
		<text fill="gray" font-size="9" font-family="Segoe UI" x="173, 177.5791, 182.87891, 188.17871, 192.88525, 198.18506, 200.65039, 203.7002, 208.97363, 211.43896, 214.48877, 219.58203, 224.28857, 226.75391, 232.92822, 237.77979, 240.24512, 242.64014, 245.68994, 250.39648, 258.14844, 260.61377, 263.43066, 268.7041, 271.83301, 274.29834, " y="585, ">
				added to the G2 Item for a
		</text>
		<text fill="gray" font-size="9" font-family="Segoe UI" x="173, 176.81885, 182.10986, 186.81641, 190.97363, 193.15332, 195.97021, 198.1499, 202.30713, 204.77246, 208.92969, 214.02295, 217.8418, 220.8916, 226.16504, 233.91699, 238.62354, 241.75244, 244.21777, 249.49121, 252.62012, 255.08545, 260.38525, 263.51416, 268.7876, 273.88086, 279.17188, 281.63721, 286.91064, " y="597, ">
				specific customer or group of
		</text>
		<text fill="gray" font-size="9" font-family="Segoe UI" x="173, 177.15723, 182.25049, 186.06934, 189.11914, 194.39258, 202.14453, 206.85107, 209.97998, 213.79883, 216.26416, 221.5376, 226.63086, 228.81055, 233.16553, 235.1167, 237.58203, 242.29736, 247.39062, 252.09717, 254.5625, 259.8623, 264.56885, 267.38574, 271.96484, 277.05811, 279.23779, " y="609, ">
				customers only. The default
		</text>
		<text fill="gray" font-size="9" font-family="Segoe UI" x="173, 177.31104, 181.89014, 184.06982, 189.16309, 193.86963, 196.33496, 201.6084, 204.42529, 206.89062, 209.94043, 215.03369, 217.21338, 221.03223, 223.49756, 228.78857, 231.91748, 237.19092, 242.48193, 247.18848, 250.31738, 253.36719, 257.72217, 260.1875, 262.36719, 266.18604, 268.65137, 271.46826, 276.04736, 278.22705, 282.0459, " y="621, ">
				value of this property is false
		</text>
		<text fill="gray" font-size="9" font-family="Segoe UI" x="173, 179.50391, 184.59717, 186.77686, 190.93408, 196.02734, 198.49268, 203.07178, 208.36279, 213.65381, 215.8335, 218.01318, 222.71973, 226.53857, 229.00391, 235.50781, 240.60107, 245.30762, 250.40088, 252.86621, 255.91602, 261.00928, 263.18896, " y="633, ">
				which applies when this
		</text>
		<text fill="gray" font-size="9" font-family="Segoe UI" x="173, 177.5791, 180.62891, 183.67871, 186.80762, 188.9873, 194.27832, 199.37158, 202.42139, 207.12793, 209.59326, 211.77295, 215.5918, 218.05713, 223.15039, 228.42383, 231.47363, 233.93896, 239.03223, 242.85107, 247.55762, 252.85742, 255.32275, 261.82666, 264.00635, 267.05615, 272.14941, 274.61475, 277.66455, 282.75781, " y="645, ">
				attribute is not used with the
		</text>
		<text fill="gray" font-size="9" font-family="Segoe UI" x="173, 178.29102, 181.41992, 186.69336, 191.98438, 196.69092, 199.81982, 202.86963, 207.22461, " y="657, ">
				property.
		</text>
		<rect fill="white" x="177" y="526" width="43" height="16"/>
		<text font-size="12" font-weight="600" font-family="Segoe UI" x="177, 182.75977, 190.01953, 195.29883, 199.92188, 207.25781, " y="539, ">
				custom
		</text>
		<rect fill="none" stroke="black" stroke-width="1" stroke-linecap="square" stroke-miterlimit="4" transform="translate(0.5 0.5)" x="168" y="524" width="58" height="20"/>
		<rect fill="silver" x="172" y="670" width="52" height="21"/>
		<rect fill="white" x="168" y="666" width="52" height="21"/>
		<rect fill="white" x="173" y="693" width="118" height="48"/>
		<text fill="gray" font-size="9" font-family="Segoe UI" x="173, 175.39502, 180.48828, 185.78809, 187.96777, 192.125, 196.7041, 199.75391, 204.46045, 208.2793, 210.74463, 216.03564, 220.39062, 222.85596, 229.35986, 234.45312, 236.63281, 240.79004, 245.8833, 248.34863, 256.10059, 260.80713, 265.38623, 270.47949, 274.29834, 276.76367, 279.81348, 284.90674, " y="703, ">
				Indicates by which means the
		</text>
		<text fill="gray" font-size="9" font-family="Segoe UI" x="173, 177.31104, 181.89014, 184.06982, 189.16309, 193.86963, 196.33496, 202.83887, 207.41797, 211.23682, 213.70215, 218.40869, 222.53955, 225.58936, 228.71826, 233.29736, 237.45459, 240.50439, 245.21094, 250.51074, 252.97607, 255.79297, 258.92188, 264.19531, 271.94727, 274.4126, 277.4624, 282.55566, " y="715, ">
				value was extracted from the
		</text>
		<text fill="gray" font-size="9" font-family="Segoe UI" x="173, 177.15723, 182.43066, 187.52393, 190.57373, 195.28027, 200.37354, 203.42334, 205.88867, 209.48779, 211.95312, 216.65967, 220.79053, 226.08154, 229.21045, 233.91699, 237.73584, 241.55469, 246.26123, 251.56104, 254.02637, 259.31738, 263.67236, 266.1377, " y="727, ">
				content - expressed by a
		</text>
		<text fill="gray" font-size="9" font-family="Segoe UI" x="173, 179.78516, 185.35742, 190.63086, 195.93066, " y="739, ">
				QCode
		</text>
		<rect fill="white" x="177" y="668" width="36" height="16"/>
		<text font-size="12" font-weight="600" font-family="Segoe UI" x="177, 184.22461, 191.56055, " y="681, ">
				how
		</text>
		<rect fill="none" stroke="black" stroke-width="1" stroke-linecap="square" stroke-miterlimit="4" transform="translate(0.5 0.5)" x="168" y="666" width="51" height="20"/>
		<rect fill="silver" x="172" y="752" width="57" height="21"/>
		<rect fill="white" x="168" y="748" width="57" height="21"/>
		<rect fill="white" x="173" y="775" width="118" height="36"/>
		<text fill="gray" font-size="9" font-family="Segoe UI" x="173, 175.39502, 180.48828, 185.78809, 187.96777, 192.125, 196.7041, 199.75391, 204.46045, 208.2793, 210.74463, 216.03564, 220.39062, 222.85596, 229.35986, 234.45312, 236.63281, 240.79004, 245.8833, 248.34863, 256.10059, 260.80713, 265.38623, 270.47949, 274.29834, 276.76367, 279.81348, 284.90674, " y="785, ">
				Indicates by which means the
		</text>
		<text fill="gray" font-size="9" font-family="Segoe UI" x="173, 177.31104, 181.89014, 184.06982, 189.16309, 193.86963, 196.33496, 202.83887, 207.41797, 211.23682, 213.70215, 218.40869, 222.53955, 225.58936, 228.71826, 233.29736, 237.45459, 240.50439, 245.21094, 250.51074, 252.97607, 255.79297, 258.92188, 264.19531, 271.94727, 274.4126, 277.4624, 282.55566, " y="797, ">
				value was extracted from the
		</text>
		<text fill="gray" font-size="9" font-family="Segoe UI" x="173, 177.15723, 182.43066, 187.52393, 190.57373, 195.28027, 200.37354, 203.42334, 205.88867, 209.48779, 211.95312, 216.65967, 220.79053, 226.08154, 229.21045, 233.91699, 237.73584, 241.55469, 246.26123, 251.56104, 254.02637, 259.31738, 263.67236, 266.1377, 270.7168, 273.18213, 279.36523, 284.74854, " y="809, ">
				content - expressed by a URI
		</text>
		<rect fill="white" x="177" y="750" width="41" height="16"/>
		<text font-size="12" font-weight="600" font-family="Segoe UI" x="177, 184.22461, 191.56055, 201.12891, 208.38867, 213.21094, " y="763, ">
				howuri
		</text>
		<rect fill="none" stroke="black" stroke-width="1" stroke-linecap="square" stroke-miterlimit="4" transform="translate(0.5 0.5)" x="168" y="748" width="56" height="20"/>
		<rect fill="silver" x="172" y="822" width="52" height="21"/>
		<rect fill="white" x="168" y="818" width="52" height="21"/>
		<rect fill="white" x="173" y="845" width="113" height="36"/>
		<text fill="gray" font-size="9" font-family="Segoe UI" x="173, 181.40674, 186.5, 190.85498, 193.32031, 196.37012, 201.46338, 206.16992, 208.63525, 216.38721, 221.09375, 224.14355, 228.72266, 234.02246, 238.60156, 241.65137, 246.23047, 248.6958, 253.78906, 258.36816, 262.18701, 264.65234, 269.94336, 274.6499, 279.35645, " y="855, ">
				Why the metadata has been
		</text>
		<text fill="gray" font-size="9" font-family="Segoe UI" x="173, 175.17969, 180.27295, 184.43018, 186.60986, 191.70312, 197.00293, 201.70947, 207.00928, 209.47461, 213.07373, 215.53906, 220.24561, 224.37646, 229.66748, 232.79639, 237.50293, 241.32178, 245.14062, 249.84717, 255.14697, 257.6123, 262.90332, 267.2583, 269.72363, " y="867, ">
				included - expressed by a
		</text>
		<text fill="gray" font-size="9" font-family="Segoe UI" x="173, 179.78516, 185.35742, 190.63086, 195.93066, " y="879, ">
				QCode
		</text>
		<rect fill="white" x="177" y="820" width="36" height="16"/>
		<text font-size="12" font-weight="600" font-family="Segoe UI" x="177, 186.56836, 193.79297, " y="833, ">
				why
		</text>
		<rect fill="none" stroke="black" stroke-width="1" stroke-linecap="square" stroke-miterlimit="4" transform="translate(0.5 0.5)" x="168" y="818" width="51" height="20"/>
		<rect fill="silver" x="172" y="892" width="56" height="21"/>
		<rect fill="white" x="168" y="888" width="56" height="21"/>
		<rect fill="white" x="173" y="915" width="119" height="24"/>
		<text fill="gray" font-size="9" font-family="Segoe UI" x="173, 181.40674, 186.5, 190.85498, 193.32031, 196.37012, 201.46338, 206.16992, 208.63525, 216.38721, 221.09375, 224.14355, 228.72266, 234.02246, 238.60156, 241.65137, 246.23047, 248.6958, 253.78906, 258.36816, 262.18701, 264.65234, 269.94336, 274.6499, 279.35645, " y="925, ">
				Why the metadata has been
		</text>
		<text fill="gray" font-size="9" font-family="Segoe UI" x="173, 175.17969, 180.27295, 184.43018, 186.60986, 191.70312, 197.00293, 201.70947, 207.00928, 209.47461, 213.07373, 215.53906, 220.24561, 224.37646, 229.66748, 232.79639, 237.50293, 241.32178, 245.14062, 249.84717, 255.14697, 257.6123, 262.90332, 267.2583, 269.72363, 274.30273, 276.76807, 282.95117, 288.33447, " y="937, ">
				included - expressed by a URI
		</text>
		<rect fill="white" x="177" y="890" width="40" height="16"/>
		<text font-size="12" font-weight="600" font-family="Segoe UI" x="177, 186.56836, 193.79297, 200.25, 207.50977, 212.33203, " y="903, ">
				whyuri
		</text>
		<rect fill="none" stroke="black" stroke-width="1" stroke-linecap="square" stroke-miterlimit="4" transform="translate(0.5 0.5)" x="168" y="888" width="55" height="20"/>
		<rect fill="silver" x="172" y="950" width="97" height="21"/>
		<rect fill="white" x="168" y="946" width="97" height="21"/>
		<rect fill="white" x="173" y="973" width="117" height="72"/>
		<text fill="gray" font-size="9" font-family="Segoe UI" x="173, 179.78516, 184.87842, 189.58496, 192.05029, 197.32373, 200.45264, 202.91797, 210.66992, 215.24902, 220.34229, 224.69727, 227.1626, 231.31982, 236.59326, 241.68652, 245.50537, 248.55518, 251.68408, 256.26318, 258.44287, 263.53613, 266.58594, 270.40479, 272.87012, 275.91992, 281.01318, 285.59229, " y="983, ">
				One or many constraints that
		</text>
		<text fill="gray" font-size="9" font-family="Segoe UI" x="173, 177.5791, 182.87012, 188.16113, 190.34082, 194.6958, 197.16113, 200.21094, 205.48438, 207.94971, 213.24072, 218.33398, 223.625, 225.80469, 227.98438, 231.80322, 236.89648, 239.07617, 244.16943, 249.46924, 251.93457, 254.98438, 260.07764, 264.78418, 267.24951, 271.56055, 276.13965, 278.31934, 283.4126, " y="995, ">
				apply to publishing the value
		</text>
		<text fill="gray" font-size="9" font-family="Segoe UI" x="173, 178.27344, 181.09033, 183.55566, 186.60547, 191.69873, 196.40527, 198.87061, 204.16162, 207.29053, 212.56396, 217.85498, 222.56152, 225.69043, 228.74023, 233.09521, 235.56055, 239.15967, 241.625, 246.33154, 250.4624, 255.75342, 258.88232, 263.58887, 267.40771, 271.22656, 275.93311, " y="1007, ">
				of the property - expressed
		</text>
		<text fill="gray" font-size="9" font-family="Segoe UI" x="173, 178.29102, 182.646, 185.11133, 189.69043, 192.15576, 198.94092, 204.51318, 209.78662, 215.08643, 219.79297, 221.74414, 224.20947, 228.76221, 233.34131, 237.49854, 242.5918, 245.05713, 249.21436, 254.48779, 259.58105, 263.3999, 266.44971, 269.57861, 274.15771, 276.3374, 281.43066, " y="1019, ">
				by a QCode. Each constraint
		</text>
		<text fill="gray" font-size="9" font-family="Segoe UI" x="173, 177.5791, 182.87012, 188.16113, 190.34082, 192.52051, 197.22705, 201.0459, 203.51123, 206.56104, 211.83447, 214.2998, 218.87891, 221.05859, 223.23828, 225.70361, 231.00342, 235.70996, 239.52881, 243.68604, 248.39258, 253.48584, 258.78564, 263.36475, 268.45801, " y="1031, ">
				applies to all descendant
		</text>
		<text fill="gray" font-size="9" font-family="Segoe UI" x="173, 177.70654, 179.88623, 184.59277, 192.34473, 197.05127, 202.14453, 205.19434, 209.01318, " y="1043, ">
				elements.
		</text>
		<rect fill="white" x="177" y="948" width="81" height="16"/>
		<text font-size="12" font-weight="600" font-family="Segoe UI" x="177, 184.44141, 191.70117, 199.14258, 204.90234, 212.23828, 219.49805, 224.77734, 229.44727, 234.22266, 240.67969, 244.08984, 251.34961, " y="961, ">
				pubconstraint
		</text>
		<rect fill="none" stroke="black" stroke-width="1" stroke-linecap="square" stroke-miterlimit="4" transform="translate(0.5 0.5)" x="168" y="946" width="96" height="20"/>
		<rect fill="silver" x="172" y="1056" width="112" height="21"/>
		<rect fill="white" x="168" y="1052" width="112" height="21"/>
		<rect fill="white" x="173" y="1079" width="117" height="72"/>
		<text fill="gray" font-size="9" font-family="Segoe UI" x="173, 179.78516, 184.87842, 189.58496, 192.05029, 197.32373, 200.45264, 202.91797, 210.66992, 215.24902, 220.34229, 224.69727, 227.1626, 231.31982, 236.59326, 241.68652, 245.50537, 248.55518, 251.68408, 256.26318, 258.44287, 263.53613, 266.58594, 270.40479, 272.87012, 275.91992, 281.01318, 285.59229, " y="1089, ">
				One or many constraints that
		</text>
		<text fill="gray" font-size="9" font-family="Segoe UI" x="173, 177.5791, 182.87012, 188.16113, 190.34082, 194.6958, 197.16113, 200.21094, 205.48438, 207.94971, 213.24072, 218.33398, 223.625, 225.80469, 227.98438, 231.80322, 236.89648, 239.07617, 244.16943, 249.46924, 251.93457, 254.98438, 260.07764, 264.78418, 267.24951, 271.56055, 276.13965, 278.31934, 283.4126, " y="1101, ">
				apply to publishing the value
		</text>
		<text fill="gray" font-size="9" font-family="Segoe UI" x="173, 178.27344, 181.09033, 183.55566, 186.60547, 191.69873, 196.40527, 198.87061, 204.16162, 207.29053, 212.56396, 217.85498, 222.56152, 225.69043, 228.74023, 233.09521, 235.56055, 239.15967, 241.625, 246.33154, 250.4624, 255.75342, 258.88232, 263.58887, 267.40771, 271.22656, 275.93311, " y="1113, ">
				of the property - expressed
		</text>
		<text fill="gray" font-size="9" font-family="Segoe UI" x="173, 178.29102, 182.646, 185.11133, 189.69043, 192.15576, 198.33887, 203.72217, 206.11719, 208.06836, 210.53369, 215.08643, 219.66553, 223.82275, 228.91602, 231.38135, 235.53857, 240.81201, 245.90527, 249.72412, 252.77393, 255.90283, 260.48193, 262.66162, 267.75488, " y="1125, ">
				by a URI. Each constraint
		</text>
		<text fill="gray" font-size="9" font-family="Segoe UI" x="173, 177.5791, 182.87012, 188.16113, 190.34082, 192.52051, 197.22705, 201.0459, 203.51123, 206.56104, 211.83447, 214.2998, 218.87891, 221.05859, 223.23828, 225.70361, 231.00342, 235.70996, 239.52881, 243.68604, 248.39258, 253.48584, 258.78564, 263.36475, 268.45801, " y="1137, ">
				applies to all descendant
		</text>
		<text fill="gray" font-size="9" font-family="Segoe UI" x="173, 177.70654, 179.88623, 184.59277, 192.34473, 197.05127, 202.14453, 205.19434, 209.01318, " y="1149, ">
				elements.
		</text>
		<rect fill="white" x="177" y="1054" width="96" height="16"/>
		<text font-size="12" font-weight="600" font-family="Segoe UI" x="177, 184.44141, 191.70117, 199.14258, 204.90234, 212.23828, 219.49805, 224.77734, 229.44727, 234.22266, 240.67969, 244.08984, 251.34961, 256.01953, 263.2793, 268.10156, " y="1067, ">
				pubconstrainturi
		</text>
		<rect fill="none" stroke="black" stroke-width="1" stroke-linecap="square" stroke-miterlimit="4" transform="translate(0.5 0.5)" x="168" y="1052" width="111" height="20"/>
		<rect fill="silver" x="172" y="1162" width="52" height="21"/>
		<rect fill="white" x="168" y="1158" width="52" height="21"/>
		<rect fill="white" x="173" y="1185" width="121" height="72"/>
		<text fill="gray" font-size="9" font-family="Segoe UI" x="173, 178.80518, 181.27051, 185.42773, 190.70117, 195.79443, 199.95166, 204.6582, 209.94922, 212.99902, 215.46436, 217.64404, 222.94385, 227.65039, 232.74365, 235.79346, 237.97314, 240.79004, 242.96973, 247.67627, 250.80518, 253.27051, 257.97705, 262.10791, 267.39893, 270.52783, 275.23438, 279.05322, 282.87207, 287.57861, " y="1195, ">
				A concept identifier expressed
		</text>
		<text fill="gray" font-size="9" font-family="Segoe UI" x="173, 177.5791, 181.39795, 183.86328, 188.44238, 190.90771, 194.72656, 197.77637, 200.90527, 203.08496, 208.17822, 213.47803, 215.94336, 221.2168, 224.03369, 226.49902, 229.54883, 234.64209, 239.34863, 241.81396, 244.63086, 249.9043, 253.0332, 260.78516, 263.25049, 267.06934, 270.88818, 274.70703, 276.6582, 280.81543, 284.97266, 289.12988, " y="1207, ">
				as a string of the form sss:ccc,
		</text>
		<text fill="gray" font-size="9" font-family="Segoe UI" x="173, 179.50391, 184.59717, 189.30371, 192.43262, 197.13916, 199.60449, 203.42334, 207.24219, 211.06104, 213.52637, 215.70605, 219.5249, 221.99023, 226.56934, 229.03467, 232.85352, 237.01074, 242.104, 246.81055, 254.5625, 259.26904, 261.73438, 266.31348, 268.49316, 270.67285, 275.25195, " y="1219, ">
				where sss is a scheme alias
		</text>
		<text fill="gray" font-size="9" font-family="Segoe UI" x="173, 177.5791, 182.67236, 187.97217, 190.4375, 194.59473, 198.75195, 202.90918, 205.37451, 207.5542, 211.37305, 213.83838, 218.41748, 220.88281, 225.04004, 230.31348, 235.61328, 240.31982, 242.271, 244.73633, 249.28906, 251.46875, 254.51855, 259.61182, 264.31836, 267.44727, 269.9126, 272.9624, 278.05566, " y="1231, ">
				and ccc is a code. Either the
		</text>
		<text fill="gray" font-size="9" font-family="Segoe UI" x="173, 178.2998, 182.45703, 187.73047, 193.03027, 197.73682, 200.20215, 205.47559, 208.60449, 211.06982, 214.11963, 219.21289, 223.91943, 226.38477, 231.47803, 234.60693, 236.78662, 239.25195, 243.83105, 246.88086, 249.93066, 253.05957, 255.23926, 260.53027, 265.62354, 268.67334, " y="1243, ">
				qcode or the uri attribute
		</text>
		<text fill="gray" font-size="9" font-family="Segoe UI" x="173, 181.08154, 187.26465, 192.0459, 196.76123, 199.22656, 204.51758, 209.22412, 211.68945, 216.78271, 220.60156, 225.30811, " y="1255, ">
				MUST be used
		</text>
		<rect fill="white" x="177" y="1160" width="36" height="16"/>
		<text font-size="12" font-weight="600" font-family="Segoe UI" x="177, 184.42969, 190.18945, 197.52539, 204.95508, " y="1173, ">
				qcode
		</text>
		<rect fill="none" stroke="black" stroke-width="1" stroke-linecap="square" stroke-miterlimit="4" transform="translate(0.5 0.5)" x="168" y="1158" width="51" height="20"/>
		<rect fill="silver" x="172" y="1268" width="52" height="21"/>
		<rect fill="white" x="168" y="1264" width="52" height="21"/>
		<rect fill="white" x="173" y="1291" width="113" height="48"/>
		<text fill="gray" font-size="9" font-family="Segoe UI" x="173, 178.80518, 181.27051, 187.45361, 192.83691, 195.23193, 197.69727, 204.20117, 209.29443, 211.47412, 215.63135, 220.72461, 223.18994, 225.36963, 230.66943, 235.37598, 240.46924, 243.51904, 245.69873, 248.51562, 250.69531, 255.40186, 259.2207, 261.68604, " y="1301, ">
				A URI which identifies a
		</text>
		<text fill="gray" font-size="9" font-family="Segoe UI" x="173, 177.15723, 182.43066, 187.52393, 191.68115, 196.3877, 201.67871, 204.72852, 209.65918, 213.2583, 215.72363, 220.43018, 222.60986, 225.65967, 230.75293, 235.45947, 238.58838, 241.05371, 244.10352, 249.19678, 253.90332, 258.83398, 264.13379, 268.29102, 273.56445, 278.86426, " y="1313, ">
				concept - either the qcode
		</text>
		<text fill="gray" font-size="9" font-family="Segoe UI" x="173, 178.27344, 181.40234, 183.86768, 186.91748, 192.01074, 196.71729, 199.18262, 204.27588, 207.40479, 209.58447, 212.0498, 216.62891, 219.67871, 222.72852, 225.85742, 228.03711, 233.32812, 238.42139, 241.47119, 246.17773, 248.64307, 256.72461, 262.90771, 267.68896, 272.4043, 274.86963, 280.16064, " y="1325, ">
				or the uri attribute MUST be
		</text>
		<text fill="gray" font-size="9" font-family="Segoe UI" x="173, 178.09326, 181.91211, 186.61865, " y="1337, ">
				used
		</text>
		<rect fill="white" x="177" y="1266" width="36" height="16"/>
		<text font-size="12" font-weight="600" font-family="Segoe UI" x="177, 184.25977, 189.08203, " y="1279, ">
				uri
		</text>
		<rect fill="none" stroke="black" stroke-width="1" stroke-linecap="square" stroke-miterlimit="4" transform="translate(0.5 0.5)" x="168" y="1264" width="51" height="20"/>
		<path fill="silver" d="M172 1355L177 1350L245 1350L250 1355L250 1366L245 1371L177 1371L172 1366L172 1355Z"/>
		<path fill="white" d="M168 1351L173 1346L241 1346L246 1351L246 1362L241 1367L173 1367L168 1362L168 1351Z"/>
		<rect fill="white" x="195" y="1348" width="46" height="16"/>
		<text font-size="12" font-weight="600" font-family="Segoe UI" x="195, 202.10742, 209.21484, 216.55078, 221.2207, 228.44531, 234.9375, " y="1361, ">
				##other
		</text>
		<rect fill="white" x="173" y="1348" width="20" height="16"/>
		<text fill="gray" font-size="12" font-family="Segoe UI" x="173, 179.10547, 185.89648, " y="1361, ">
				any
		</text>
		<path fill="none" stroke="black" stroke-width="1" stroke-linecap="square" stroke-miterlimit="4" transform="translate(0.5 0.5)" d="M168 1351L173 1346L240 1346L245 1351L245 1361L240 1366L173 1366L168 1361L168 1351Z"/>
		<rect fill="silver" x="172" y="1378" width="66" height="21"/>
		<rect fill="white" x="168" y="1374" width="66" height="21"/>
		<rect fill="white" x="173" y="1401" width="121" height="84"/>
		<text fill="gray" font-size="9" font-family="Segoe UI" x="173, 177.78125, 183.07227, 187.77881, 191.93604, 194.11572, 196.93262, 199.1123, 203.81885, 207.6377, 210.10303, 213.15283, 218.24609, 222.95264, 225.41797, 227.59766, 232.17676, 237.27002, 242.56982, 247.66309, 252.24219, 257.54199, 262.24854, 264.71387, 269.9873, 272.8042, 275.26953, 278.31934, 283.4126, 285.59229, " y="1411, ">
				Specifies the language of this
		</text>
		<text fill="gray" font-size="9" font-family="Segoe UI" x="173, 178.29102, 181.41992, 186.69336, 191.98438, 196.69092, 199.81982, 202.86963, 207.22461, 209.68994, 214.26904, 219.3623, 224.66211, 227.12744, 232.41846, 237.69189, 240.7417, 245.44824, 250.5415, 253.59131, 255.771, 260.3501, 262.52979, 264.70947, 269.06445, 271.52979, 276.10889, 278.28857, " y="1423, ">
				property and potentially all
		</text>
		<text fill="gray" font-size="9" font-family="Segoe UI" x="173, 178.2998, 183.00635, 186.8252, 190.98242, 195.68896, 200.78223, 206.08203, 210.66113, 215.75439, 218.8042, 221.26953, 226.56055, 229.68945, 234.96289, 240.25391, 244.96045, 248.08936, 251.13916, 253.31885, 258.02539, 261.84424, " y="1435, ">
				descendant properties.
		</text>
		<text fill="gray" font-size="9" font-family="Segoe UI" x="173, 177.13086, 184.88281, 187.0625, 189.01367, 191.19336, 195.77246, 200.86572, 206.16553, 208.63086, 212.94189, 217.521, 219.70068, 224.79395, 229.50049, 233.31934, 235.78467, 241.05811, 243.875, 246.34033, 251.64014, 256.34668, 260.16553, 264.32275, 269.0293, 274.12256, 279.42236, 284.00146, 289.09473, " y="1447, ">
				xml:lang values of descendant
		</text>
		<text fill="gray" font-size="9" font-family="Segoe UI" x="173, 178.29102, 181.41992, 186.69336, 191.98438, 196.69092, 199.81982, 202.86963, 205.04932, 209.75586, 213.57471, 216.04004, 221.31348, 225.62451, 230.33105, 233.45996, 236.58887, 238.76855, 244.06836, 248.7749, 251.24023, 254.29004, 259.3833, 261.56299, 265.38184, 267.84717, 272.1582, 276.7373, 278.91699, 284.01025, 288.7168, " y="1459, ">
				properties override this value.
		</text>
		<text fill="gray" font-size="9" font-family="Segoe UI" x="173, 177.93066, 182.50977, 184.68945, 189.78271, 194.48926, 198.30811, 200.77344, 205.35254, 208.48145, 213.18799, 215.65332, 220.95312, 225.65967, 228.70947, 233.41602, 236.54492, 244.29688, 246.47656, 251.56982, 256.27637, 261.57617, 264.0415, 269.33252, " y="1471, ">
				Values are determined by
		</text>
		<text fill="gray" font-size="9" font-family="Segoe UI" x="173, 175.39502, 180.48828, 183.53809, 188.24463, 191.37354, 196.4668, 201.17334, 204.22314, 206.68848, 211.84766, 217.41992, 222.46045, 224.92578, 229.77734, 234.62891, " y="1483, ">
				Internet BCP 47.
		</text>
		<rect fill="white" x="177" y="1376" width="50" height="16"/>
		<text font-size="12" font-weight="600" font-family="Segoe UI" x="177, 183.62695, 194.61914, 198.0293, 201.28125, 204.69141, 211.14844, 218.4082, " y="1389, ">
				xml:lang
		</text>
		<path fill="none" stroke="black" stroke-width="2" stroke-miterlimit="4" transform="translate(0.5 0.5)" d="M170 1392L174 1388"/>
		<path fill="none" stroke="black" stroke-width="1" stroke-linecap="square" stroke-miterlimit="4" transform="translate(0.5 0.5)" d="M171 1388L174 1388L174 1391"/>
		<rect fill="none" stroke="black" stroke-width="1" stroke-linecap="square" stroke-miterlimit="4" transform="translate(0.5 0.5)" x="168" y="1374" width="65" height="20"/>
		<rect fill="silver" x="172" y="1496" width="52" height="21"/>
		<rect fill="white" x="168" y="1492" width="52" height="21"/>
		<rect fill="white" x="173" y="1519" width="116" height="24"/>
		<text fill="gray" font-size="9" font-family="Segoe UI" x="173, 177.71533, 182.80859, 187.51514, 189.98047, 195.28027, 197.45996, 200.58887, 205.29541, 209.45264, 212.50244, 214.68213, 219.95557, 225.04883, 229.62793, 231.80762, 233.9873, 237.03711, 241.39209, 243.85742, 249.13086, 251.94775, 254.41309, 257.46289, 262.16943, 266.30029, 269.3501, 274.44336, 279.02246, " y="1529, ">
				The directionality of textual
		</text>
		<text fill="gray" font-size="9" font-family="Segoe UI" x="173, 177.15723, 182.43066, 187.52393, 190.57373, 195.28027, 200.37354, 203.42334, 205.88867, 208.60449, 213.31104, 218.4043, 223.49756, 231.24951, 235.95605, 239.08496, 243.66406, 246.71387, 248.89355, 254.16699, 259.26025, 261.21143, 263.67676, 265.85645, 268.90625, 272.03516, 273.98633, 276.45166, 279.58057, 282.63037, 284.81006, " y="1541, ">
				content (enumeration: ltr, rtl)
		</text>
		<rect fill="white" x="177" y="1494" width="36" height="16"/>
		<text font-size="12" font-weight="600" font-family="Segoe UI" x="177, 184.42969, 187.83984, " y="1507, ">
				dir
		</text>
		<rect fill="none" stroke="black" stroke-width="1" stroke-linecap="square" stroke-miterlimit="4" transform="translate(0.5 0.5)" x="168" y="1492" width="51" height="20"/>
		<rect x="159" y="41" width="11" height="11"/>
		<rect fill="white" x="160" y="42" width="9" height="9"/>
		<rect x="161" y="46" width="7" height="1"/>
		<path fill="none" stroke="black" stroke-width="1" stroke-linecap="square" stroke-miterlimit="4" transform="translate(0.5 0.5)" d="M199 1603L207 1603"/>
		<path fill="none" stroke="black" stroke-width="1" stroke-linecap="square" stroke-miterlimit="4" transform="translate(0.5 0.5)" d="M208 1603L208 1573"/>
		<path fill="none" stroke="black" stroke-width="1" stroke-linecap="square" stroke-miterlimit="4" transform="translate(0.5 0.5)" d="M208 1603L208 1634"/>
		<path fill="none" stroke="black" stroke-width="1" stroke-linecap="square" stroke-miterlimit="4" transform="translate(0.5 0.5)" d="M208 1572L222 1572"/>
		<path fill="none" stroke="black" stroke-width="1" stroke-linecap="square" stroke-miterlimit="4" transform="translate(0.5 0.5)" d="M208 1635L222 1635"/>
		<path fill="silver" d="M161 1605L166 1600L191 1600L196 1605L196 1616L191 1621L166 1621L161 1616L161 1605Z"/>
		<path fill="white" d="M157 1601L162 1596L186 1596L191 1601L191 1611L186 1616L162 1616L157 1611L157 1601Z"/>
		<path transform="translate(0.5 0.5)" d="M160.889 1596.4L161.793 1595.5L162.929 1595.5L163.429 1595.5L163.429 1596.5L162.929 1596.5L162 1596.5L162 1596L162.354 1596.35L161.243 1597.46L160.536 1596.76L160.889 1596.4ZM166.929 1595.5L168.929 1595.5L169.429 1595.5L169.429 1596.5L168.929 1596.5L166.429 1596.5L166.429 1595.5L166.929 1595.5ZM172.929 1595.5L174.929 1595.5L175.429 1595.5L175.429 1596.5L174.929 1596.5L172.429 1596.5L172.429 1595.5L172.929 1595.5ZM178.929 1595.5L180.929 1595.5L181.429 1595.5L181.429 1596.5L180.929 1596.5L178.429 1596.5L178.429 1595.5L178.929 1595.5ZM184.929 1595.5L186.207 1595.5L187.01 1596.3L187.364 1596.66L186.657 1597.36L186.303 1597.01L185.646 1596.35L186 1596L186 1596.5L184.429 1596.5L184.429 1595.5L184.929 1595.5ZM189.839 1599.13L191.253 1600.55L191.607 1600.9L190.899 1601.61L190.546 1601.25L188.778 1599.49L189.485 1598.78L189.839 1599.13ZM191.5 1604.86L191.5 1606.86L191.5 1607.36L190.5 1607.36L190.5 1606.86L190.5 1604.36L191.5 1604.36L191.5 1604.86ZM191.5 1610.86L191.5 1611.21L190.04 1612.67L189.686 1613.02L188.979 1612.31L189.333 1611.96L190.646 1610.65L191 1611L190.5 1611L190.5 1610.36L191.5 1610.36L191.5 1610.86ZM187.211 1615.5L186.207 1616.5L185.213 1616.5L184.713 1616.5L184.713 1615.5L185.213 1615.5L186 1615.5L186 1616L185.646 1615.65L186.858 1614.44L187.565 1615.14L187.211 1615.5ZM181.213 1616.5L179.213 1616.5L178.713 1616.5L178.713 1615.5L179.213 1615.5L181.713 1615.5L181.713 1616.5L181.213 1616.5ZM175.213 1616.5L173.213 1616.5L172.713 1616.5L172.713 1615.5L173.213 1615.5L175.713 1615.5L175.713 1616.5L175.213 1616.5ZM169.213 1616.5L167.213 1616.5L166.713 1616.5L166.713 1615.5L167.213 1615.5L169.713 1615.5L169.713 1616.5L169.213 1616.5ZM163.213 1616.5L161.793 1616.5L161.09 1615.8L160.737 1615.44L161.444 1614.74L161.797 1615.09L162.354 1615.65L162 1616L162 1615.5L163.713 1615.5L163.713 1616.5L163.213 1616.5ZM158.262 1612.97L156.847 1611.55L156.494 1611.2L157.201 1610.49L157.555 1610.85L159.322 1612.62L158.615 1613.32L158.262 1612.97ZM156.5 1607.28L156.5 1605.28L156.5 1604.78L157.5 1604.78L157.5 1605.28L157.5 1607.78L156.5 1607.78L156.5 1607.28ZM156.5 1601.28L156.5 1600.79L158.414 1598.88L159.121 1599.59L157.354 1601.35L157 1601L157.5 1601L157.5 1601.78L156.5 1601.78L156.5 1601.28Z"/>
		<path fill="white" d="M154 1598L159 1593L184 1593L189 1598L189 1609L184 1614L159 1614L154 1609L154 1598Z"/>
		<path fill="none" stroke="black" stroke-width="1" stroke-linecap="square" stroke-miterlimit="4" transform="translate(0.5 0.5)" d="M173 1614L179 1620L182 1617"/>
		<path fill="none" stroke="black" stroke-width="1" stroke-linecap="square" stroke-miterlimit="4" transform="translate(0.5 0.5)" d="M159 1603L164 1603L168 1599"/>
		<path fill="none" stroke="black" stroke-width="1" stroke-linecap="square" stroke-miterlimit="4" transform="translate(0.5 0.5)" d="M174 1603L182 1603"/>
		<path fill="none" stroke="black" stroke-width="1" stroke-linecap="square" stroke-miterlimit="4" transform="translate(0.5 0.5)" d="M174 1599L178 1599L178 1607L174 1607"/>
		<rect x="170" y="1598" width="3" height="3"/>
		<rect x="170" y="1602" width="3" height="3"/>
		<rect x="170" y="1606" width="3" height="3"/>
		<text font-size="12" font-family="Segoe UI" x="158.76562, " y="1633, ">
				0
		</text>
		<text font-size="12" font-family="Symbol" x="173.72266, " y="1632, ">
				
		</text>
		<text font-size="12" font-family="Segoe UI" x="166.89844, 169.5, " y="1633, ">
				..
		</text>
		<path transform="translate(0.5 0.5)" d="M157.889 1593.4L158.793 1592.5L159.929 1592.5L160.429 1592.5L160.429 1593.5L159.929 1593.5L159 1593.5L159 1593L159.354 1593.35L158.243 1594.46L157.536 1593.76L157.889 1593.4ZM163.929 1592.5L165.929 1592.5L166.429 1592.5L166.429 1593.5L165.929 1593.5L163.429 1593.5L163.429 1592.5L163.929 1592.5ZM169.929 1592.5L171.929 1592.5L172.429 1592.5L172.429 1593.5L171.929 1593.5L169.429 1593.5L169.429 1592.5L169.929 1592.5ZM175.929 1592.5L177.929 1592.5L178.429 1592.5L178.429 1593.5L177.929 1593.5L175.429 1593.5L175.429 1592.5L175.929 1592.5ZM181.929 1592.5L183.207 1592.5L184.01 1593.3L184.364 1593.66L183.657 1594.36L183.303 1594.01L182.646 1593.35L183 1593L183 1593.5L181.429 1593.5L181.429 1592.5L181.929 1592.5ZM186.839 1596.13L188.253 1597.55L188.607 1597.9L187.899 1598.61L187.546 1598.25L185.778 1596.49L186.485 1595.78L186.839 1596.13ZM188.5 1601.86L188.5 1603.86L188.5 1604.36L187.5 1604.36L187.5 1603.86L187.5 1601.36L188.5 1601.36L188.5 1601.86ZM188.5 1607.86L188.5 1608.21L187.04 1609.67L186.686 1610.02L185.979 1609.31L186.333 1608.96L187.646 1607.65L188 1608L187.5 1608L187.5 1607.36L188.5 1607.36L188.5 1607.86ZM184.211 1612.5L183.207 1613.5L182.213 1613.5L181.713 1613.5L181.713 1612.5L182.213 1612.5L183 1612.5L183 1613L182.646 1612.65L183.858 1611.44L184.565 1612.14L184.211 1612.5ZM178.213 1613.5L176.213 1613.5L175.713 1613.5L175.713 1612.5L176.213 1612.5L178.713 1612.5L178.713 1613.5L178.213 1613.5ZM172.213 1613.5L170.213 1613.5L169.713 1613.5L169.713 1612.5L170.213 1612.5L172.713 1612.5L172.713 1613.5L172.213 1613.5ZM166.213 1613.5L164.213 1613.5L163.713 1613.5L163.713 1612.5L164.213 1612.5L166.713 1612.5L166.713 1613.5L166.213 1613.5ZM160.213 1613.5L158.793 1613.5L158.09 1612.8L157.737 1612.44L158.444 1611.74L158.797 1612.09L159.354 1612.65L159 1613L159 1612.5L160.713 1612.5L160.713 1613.5L160.213 1613.5ZM155.262 1609.97L153.847 1608.55L153.494 1608.2L154.201 1607.49L154.555 1607.85L156.322 1609.62L155.615 1610.32L155.262 1609.97ZM153.5 1604.28L153.5 1602.28L153.5 1601.78L154.5 1601.78L154.5 1602.28L154.5 1604.78L153.5 1604.78L153.5 1604.28ZM153.5 1598.28L153.5 1597.79L155.414 1595.88L156.121 1596.59L154.354 1598.35L154 1598L154.5 1598L154.5 1598.78L153.5 1598.78L153.5 1598.28Z"/>
		<rect fill="silver" x="227" y="1566" width="54" height="21"/>
		<rect fill="white" x="223" y="1562" width="54" height="21"/>
		<rect fill="#FFFFC0" x="228" y="1589" width="115" height="24"/>
		<text fill="gray" font-size="9" font-family="Segoe UI" x="228, 233.80518, 236.27051, 241.36377, 245.94287, 248.99268, 254.08594, 257.21484, 261.79395, 263.97363, 266.43896, 268.61865, 273.19775, 278.29102, 283.59082, 288.68408, 293.26318, 298.56299, 303.26953, 305.73486, 310.82812, 315.40723, 323.15918, 327.86572, 330.33105, 333.14795, 338.42139, " y="1599, ">
				A natural language name for
		</text>
		<text fill="gray" font-size="9" font-family="Segoe UI" x="228, 231.0498, 236.14307, 240.84961, 243.31494, 247.47217, 252.74561, 257.83887, 261.99609, 266.70264, 271.99365, 275.04346, " y="1611, ">
				the concept.
		</text>
		<rect fill="white" x="232" y="1564" width="33" height="16"/>
		<text font-size="12" font-weight="600" font-family="Segoe UI" x="232, 239.25977, 245.7168, 256.70898, " y="1577, ">
				name
		</text>
		<path fill="none" stroke="black" stroke-width="1" stroke-linecap="square" stroke-miterlimit="4" transform="translate(0.5 0.5)" d="M225 1564L230 1564"/>
		<path fill="none" stroke="black" stroke-width="1" stroke-linecap="square" stroke-miterlimit="4" transform="translate(0.5 0.5)" d="M225 1566L229 1566"/>
		<path fill="none" stroke="black" stroke-width="1" stroke-linecap="square" stroke-miterlimit="4" transform="translate(0.5 0.5)" d="M225 1568L229 1568"/>
		<path fill="none" stroke="black" stroke-width="2" stroke-miterlimit="4" transform="translate(0.5 0.5)" d="M225 1580L229 1576"/>
		<path fill="none" stroke="black" stroke-width="1" stroke-linecap="square" stroke-miterlimit="4" transform="translate(0.5 0.5)" d="M226 1576L229 1576L229 1579"/>
		<rect fill="none" stroke="black" stroke-width="1" stroke-linecap="square" stroke-miterlimit="4" transform="translate(0.5 0.5)" x="223" y="1562" width="53" height="20"/>
		<rect x="271" y="1567" width="11" height="11"/>
		<rect fill="white" x="272" y="1568" width="9" height="9"/>
		<rect x="273" y="1572" width="7" height="1"/>
		<rect x="276" y="1569" width="1" height="7"/>
		<rect fill="silver" x="227" y="1629" width="98" height="21"/>
		<rect fill="white" x="223" y="1625" width="98" height="21"/>
		<rect fill="#FFFFC0" x="228" y="1652" width="121" height="72"/>
		<text fill="gray" font-size="9" font-family="Segoe UI" x="228, 233.11963, 237.82617, 243.11719, 246.24609, 250.95264, 254.77148, 259.47803, 264.57129, 267.62109, 271.43994, 273.90527, 276.95508, 282.04834, 286.75488, 289.22021, 294.51123, 299.78467, 303.60352, 305.7832, 308.83301, 311.0127, 316.28613, 321.37939, 323.84473, 329.11816, 331.93506, 334.40039, " y="1662, ">
				Represents the position of a
		</text>
		<text fill="gray" font-size="9" font-family="Segoe UI" x="228, 232.15723, 237.43066, 242.52393, 246.68115, 251.3877, 256.67871, 259.72852, 262.19385, 264.37354, 269.4668, 271.93213, 276.51123, 278.97656, 284.06982, 286.24951, 290.95605, 294.08496, 298.66406, 301.79297, 305.9502, 311.04346, 313.22314, 317.38037, 321.95947, " y="1674, ">
				concept in a hierarchical
		</text>
		<text fill="gray" font-size="9" font-family="Segoe UI" x="228, 231.0498, 235.62891, 239.75977, 245.0332, 250.12646, 255.3999, 263.15186, 267.50684, 269.97217, 273.02197, 276.15088, 280.85742, 285.56396, 288.0293, 293.32031, 297.67529, 300.14062, 304.71973, 307.18506, 311.00391, 315.71045, 321.01025, 326.10352, 330.81006, 335.90332, 340.06055, " y="1686, ">
				taxonomy tree by a sequence
		</text>
		<text fill="gray" font-size="9" font-family="Segoe UI" x="228, 233.27344, 236.09033, 238.55566, 245.34082, 250.91309, 256.18652, 261.48633, 266.19287, 268.6582, 271.70801, 276.98145, 281.45508, 286.16162, 291.25488, 295.07373, 297.53906, 300.66797, 305.37451, 310.66553, 313.79443, 318.50098, 322.31982, 327.02637, 332.11963, 335.16943, 337.34912, 342.44238, " y="1698, ">
				of QCode tokens representing
		</text>
		<text fill="gray" font-size="9" font-family="Segoe UI" x="228, 231.0498, 236.14307, 240.84961, 243.31494, 247.89404, 252.9873, 257.14453, 261.85107, 265.66992, 268.71973, 273.99316, 277.12207, 279.5874, 283.74463, 289.01807, 294.11133, 298.26855, 302.9751, 308.26611, 311.31592, 315.13477, 317.6001, 322.1792, 327.27246, " y="1710, ">
				the ancestor concepts and
		</text>
		<text fill="gray" font-size="9" font-family="Segoe UI" x="228, 231.0498, 236.14307, 238.32275, 242.1416, 244.60693, 248.76416, 254.0376, 259.13086, 263.28809, 267.99463, 273.28564, " y="1722, ">
				this concept
		</text>
		<rect fill="white" x="232" y="1627" width="77" height="16"/>
		<text font-size="12" font-weight="600" font-family="Segoe UI" x="232, 239.22461, 242.63477, 249.12695, 253.90234, 260.35938, 265.08789, 270.84766, 278.07227, 284.5293, 288.33203, 295.5918, 300.19141, " y="1640, ">
				hierarchyInfo
		</text>
		<path fill="none" stroke="black" stroke-width="1" stroke-linecap="square" stroke-miterlimit="4" transform="translate(0.5 0.5)" d="M225 1627L230 1627"/>
		<path fill="none" stroke="black" stroke-width="1" stroke-linecap="square" stroke-miterlimit="4" transform="translate(0.5 0.5)" d="M225 1629L229 1629"/>
		<path fill="none" stroke="black" stroke-width="1" stroke-linecap="square" stroke-miterlimit="4" transform="translate(0.5 0.5)" d="M225 1631L229 1631"/>
		<path fill="none" stroke="black" stroke-width="2" stroke-miterlimit="4" transform="translate(0.5 0.5)" d="M225 1643L229 1639"/>
		<path fill="none" stroke="black" stroke-width="1" stroke-linecap="square" stroke-miterlimit="4" transform="translate(0.5 0.5)" d="M226 1639L229 1639L229 1642"/>
		<rect fill="none" stroke="black" stroke-width="1" stroke-linecap="square" stroke-miterlimit="4" transform="translate(0.5 0.5)" x="223" y="1625" width="97" height="20"/>
		<rect x="315" y="1630" width="11" height="11"/>
		<rect fill="white" x="316" y="1631" width="9" height="9"/>
		<rect x="317" y="1635" width="7" height="1"/>
		<rect x="320" y="1632" width="1" height="7"/>
		<rect x="188" y="1598" width="11" height="11"/>
		<rect fill="white" x="189" y="1599" width="9" height="9"/>
		<rect x="190" y="1603" width="7" height="1"/>
		<rect x="46" y="1193" width="11" height="11"/>
		<rect fill="white" x="47" y="1194" width="9" height="9"/>
		<rect x="48" y="1198" width="7" height="1"/>
	</g>
</svg>
