<?xml version="1.0" encoding="utf-8" ?>
<svg xmlns="http://www.w3.org/2000/svg" xmlns:xlink="http://www.w3.org/1999/xlink" width="367" height="1554">
	<clipPath id="cl_738">
		<rect x="-10" y="-5" width="367" height="1554"/>
	</clipPath>
	<g clip-path="url(#cl_738)">
		<path fill="none" stroke="black" stroke-width="1" stroke-linecap="square" stroke-miterlimit="4" transform="translate(0.5 0.5)" d="M97 772L132 772"/>
		<rect fill="silver" x="4" y="766" width="92" height="21"/>
		<rect fill="white" y="762" width="92" height="21"/>
		<rect fill="white" x="5" y="789" width="113" height="36"/>
		<text fill="gray" font-size="9" font-family="Segoe UI" x="5, 10.805176, 13.270508, 18.570312, 23.276855, 25.456543, 27.63623, 35.388184, 37.567871, 40.617676, 45.324219, 48.453125, 50.918457, 53.735352, 59.008789, 62.137695, 64.603027, 69.182129, 71.647461, 74.776367, 79.48291, 83.640137, 86.689941, 91.269043, 96.362305, 101.66211, 106.75537, 108.93506, 113.51416, " y="799, ">
				A delimiter for a rectangular
		</text>
		<text fill="gray" font-size="9" font-family="Segoe UI" x="5, 8.1289062, 12.835449, 18.135254, 20.314941, 25.588379, 30.681641, 33.146973, 35.32666, 40.419922, 42.885254, 47.464355, 49.929688, 55.220703, 57.400391, 62.106934, 66.26416, 70.970703, 73.436035, 78.709473, 81.526367, 83.991699, 88.302734, 90.482422, 94.30127, 99.394531, 103.97363, " y="811, ">
				region in a piece of visual
		</text>
		<text fill="gray" font-size="9" font-family="Segoe UI" x="5, 9.1572266, 14.430664, 19.523926, 22.57373, 27.280273, 32.373535, " y="823, ">
				content
		</text>
		<rect fill="white" x="9" y="764" width="71" height="16"/>
		<text font-size="12" font-weight="600" font-family="Segoe UI" x="9, 13.728516, 20.220703, 27.650391, 31.060547, 38.396484, 45.65625, 54.503906, 60.996094, 64.40625, 67.816406, " y="777, ">
				regionDelim
		</text>
		<rect fill="none" stroke="black" stroke-width="1" stroke-linecap="square" stroke-miterlimit="4" transform="translate(0.5 0.5)" y="762" width="91" height="20"/>
		<path fill="white" d="M210 19L210 0L133 0L133 19L133 1543L346 1543L346 19L210 19Z"/>
		<rect fill="white" x="153" y="2" width="51" height="16"/>
		<text font-size="12" font-style="italic" font-family="Segoe UI" x="153, 159.50391, 163.38281, 167.26172, 171.5332, 174.63867, 181.14258, 187.83984, 191.73047, 197.57227, " y="15, ">
				attributes
		</text>
		<path fill="none" stroke="black" stroke-width="1" stroke-linecap="square" stroke-miterlimit="4" transform="translate(0.5 0.5)" d="M210 19L210 0L133 0L133 19L133 1543L346 1543L346 19L210 19Z"/>
		<path fill="white" d="M338 47L338 28L147 28L147 47L147 1150L338 1150L338 47Z"/>
		<rect fill="white" x="152" y="1153" width="179" height="48"/>
		<text fill="gray" font-size="9" font-family="Segoe UI" x="152, 157.80518, 160.27051, 165.57031, 168.69922, 173.97266, 179.06592, 184.35693, 186.82227, 192.0957, 194.9126, 197.37793, 201.95703, 205.00684, 208.05664, 211.18555, 213.36523, 218.65625, 223.74951, 226.79932, 231.50586, 235.32471, 237.79004, 240.60693, 245.88037, 249.00928, 251.47461, 256.05371, 258.2334, 260.41309, 262.87842, 267.58496, 269.76465, 274.47119, 282.22314, 286.92969, 292.02295, 295.07275, 298.8916, 301.35693, 306.63037, 309.44727, 311.9126, 316.4917, 318.95703, 325.13135, " y="1163, ">
				A group of attributes for all elements of a G2
		</text>
		<text fill="gray" font-size="9" font-family="Segoe UI" x="152, 154.39502, 157.44482, 162.15137, 169.90332, 172.36865, 177.0752, 181.20605, 185.36328, 190.06982, 195.36084, 198.41064, 200.87598, 203.05566, 206.10547, 209.92432, 212.38965, 215.51855, 220.79199, 226.06543, 229.11523, 231.58057, 236.28711, 238.4668, 243.17334, 250.92529, 255.63184, 260.7251, 263.7749, 265.72607, 268.19141, 271.24121, 276.33447, 281.04102, 283.50635, 285.68604, 288.73584, 293.44238, 301.19434, 309.27588, 313.98242, 317.03223, " y="1175, ">
				Item except its root element, the itemMeta
		</text>
		<text fill="gray" font-size="9" font-family="Segoe UI" x="152, 156.70654, 158.88623, 163.59277, 171.34473, 176.05127, 181.14453, 184.19434, 186.65967, 191.23877, 196.33203, 201.63184, 204.09717, 208.67627, 210.85596, 213.03564, 215.50098, 220.77441, 223.59131, 226.05664, 228.23633, 231.28613, 235.10498, 237.57031, 241.72754, 246.8208, 249.00049, 251.18018, 256.47998, 259.60889, 264.31543, 269.40869, 271.87402, 278.37793, 283.47119, 285.65088, 289.80811, 294.90137, 297.3667, 301.9458, 305.07471, " y="1187, ">
				element and all of its children which are
		</text>
		<text fill="gray" font-size="9" font-family="Segoe UI" x="152, 159.75195, 164.33105, 169.42432, 174.72412, 179.30322, 182.35303, 187.62646, 190.75537, 195.11035, " y="1199, ">
				mandatory.
		</text>
		<rect fill="white" x="189" y="30" width="143" height="16"/>
		<text font-size="12" font-weight="600" font-family="Segoe UI" x="189, 194.75977, 202.0957, 213.08789, 224.08008, 231.41602, 238.67578, 245.68945, 253.02539, 262.53516, 269.02734, 273.80273, 282, 286.66992, 291.33984, 296.16211, 299.57227, 307.01367, 314.27344, 318.89648, 325.38867, " y="43, ">
				commonPowerAttributes
		</text>
		<rect fill="white" x="167" y="30" width="20" height="16"/>
		<text fill="gray" font-size="12" font-family="Segoe UI" x="167, 174.06641, 178.23828, " y="43, ">
				grp
		</text>
		<path fill="none" stroke="gray" stroke-width="1" stroke-linecap="square" stroke-miterlimit="4" transform="translate(0.5 0.5)" d="M147 47L147 1150L338 1150L338 47L338 47"/>
		<path fill="none" stroke="black" stroke-width="1" stroke-linecap="square" stroke-miterlimit="4" transform="translate(0.5 0.5)" d="M338 47L338 28L147 28L147 47"/>
		<rect x="152" y="33" width="11" height="11"/>
		<rect fill="white" x="153" y="34" width="9" height="9"/>
		<rect x="154" y="38" width="7" height="1"/>
		<rect fill="silver" x="159" y="61" width="52" height="21"/>
		<rect fill="white" x="155" y="57" width="52" height="21"/>
		<rect fill="white" x="160" y="84" width="101" height="24"/>
		<text fill="gray" font-size="9" font-family="Segoe UI" x="160, 164.71533, 169.80859, 174.51514, 176.98047, 179.16016, 184.43359, 188.59082, 193.16992, 195.34961, 197.81494, 199.99463, 205.29443, 210.00098, 215.09424, 218.14404, 220.32373, 223.14062, 225.32031, 230.02686, 233.15576, 235.62109, 240.89453, 243.71143, 246.17676, 249.22656, 254.31982, " y="94, ">
				The local identifier of the
		</text>
		<text fill="gray" font-size="9" font-family="Segoe UI" x="160, 165.29102, 168.41992, 173.69336, 178.98438, 183.69092, 186.81982, 189.86963, 194.22461, " y="106, ">
				property.
		</text>
		<rect fill="white" x="164" y="59" width="36" height="16"/>
		<text font-size="12" font-weight="600" font-family="Segoe UI" x="164, 167.41016, " y="72, ">
				id
		</text>
		<rect fill="none" stroke="black" stroke-width="1" stroke-linecap="square" stroke-miterlimit="4" transform="translate(0.5 0.5)" x="155" y="57" width="51" height="20"/>
		<rect fill="silver" x="159" y="119" width="58" height="21"/>
		<rect fill="white" x="155" y="115" width="58" height="21"/>
		<rect fill="white" x="160" y="142" width="121" height="120"/>
		<text fill="gray" font-size="9" font-family="Segoe UI" x="160, 162.39502, 165.21191, 167.67725, 170.72705, 175.82031, 180.52686, 182.99219, 188.2832, 191.41211, 196.68555, 201.97656, 206.68311, 209.81201, 212.86182, 217.2168, 219.68213, 223.99316, 228.57227, 230.75195, 235.84521, 240.55176, 243.01709, 245.19678, 249.01562, 251.48096, 256.57422, 261.84766, " y="152, ">
				If the property value is not
		</text>
		<text fill="gray" font-size="9" font-family="Segoe UI" x="160, 165.2998, 170.00635, 172.82324, 175.00293, 180.09619, 184.80273, 190.10254, 192.05371, 194.51904, 198.33789, 203.62891, 208.33545, 212.49268, 214.67236, 217.48926, 219.66895, 224.37549, 228.19434, 230.65967, 237.16357, 242.25684, 244.43652, 248.59375, 253.68701, 256.15234, 260.85889, 265.95215, 269.00195, 271.18164, 274.23145, " y="164, ">
				defined, specifies which entity
		</text>
		<text fill="gray" font-size="9" font-family="Segoe UI" x="160, 162.71582, 168.00684, 172.71338, 175.84229, 179.66113, 184.93457, 190.02783, 191.979, 194.44434, 199.71777, 202.84668, 208.14648, 212.72559, 217.81885, 219.99854, 223.81738, 228.39648, 231.44629, 233.62598, 238.89941, 243.99268, 246.45801, 251.73145, " y="176, ">
				(person, organisation or
		</text>
		<text fill="gray" font-size="9" font-family="Segoe UI" x="160, 163.81885, 168.17383, 171.99268, 175.04248, 179.74902, 187.50098, 190.2168, 192.68213, 199.18604, 201.36572, 203.54541, 205.7251, 208.19043, 212.89697, 218.19678, 220.37646, 223.42627, 225.8916, 228.94141, 234.03467, 238.74121, 241.20654, 246.49756, 249.62646, 254.8999, 260.19092, 264.89746, 268.02637, 271.07617, " y="188, ">
				system) will edit the property
		</text>
		<text fill="gray" font-size="9" font-family="Segoe UI" x="160, 164.31104, 168.89014, 171.06982, 176.16309, 180.86963, 183.33496, 186.93408, 189.39941, 194.10596, 198.23682, 203.52783, 206.65674, 211.36328, 215.18213, 219.00098, 223.70752, 229.00732, 231.47266, 236.76367, 241.11865, 243.58398, 248.16309, 250.62842, 257.41357, 262.98584, 268.25928, 273.55908, 278.26562, " y="200, ">
				value - expressed by a QCode.
		</text>
		<text fill="gray" font-size="9" font-family="Segoe UI" x="160, 162.39502, 165.21191, 167.67725, 170.72705, 175.82031, 180.52686, 182.99219, 188.2832, 191.41211, 196.68555, 201.97656, 206.68311, 209.81201, 212.86182, 217.2168, 219.68213, 223.99316, 228.57227, 230.75195, 235.84521, 240.55176, 243.01709, 245.19678, " y="212, ">
				If the property value is
		</text>
		<text fill="gray" font-size="9" font-family="Segoe UI" x="160, 165.2998, 170.00635, 172.82324, 175.00293, 180.09619, 184.80273, 190.10254, 192.05371, 194.51904, 198.33789, 203.62891, 208.33545, 212.49268, 214.67236, 217.48926, 219.66895, 224.37549, 228.19434, 230.65967, 237.16357, 242.25684, 244.43652, 248.59375, 253.68701, 256.15234, 260.85889, 265.95215, 269.00195, 271.18164, 274.23145, " y="224, ">
				defined, specifies which entity
		</text>
		<text fill="gray" font-size="9" font-family="Segoe UI" x="160, 162.71582, 168.00684, 172.71338, 175.84229, 179.66113, 184.93457, 190.02783, 191.979, 194.44434, 199.71777, 202.84668, 208.14648, 212.72559, 217.81885, 219.99854, 223.81738, 228.39648, 231.44629, 233.62598, 238.89941, 243.99268, 246.45801, 251.73145, " y="236, ">
				(person, organisation or
		</text>
		<text fill="gray" font-size="9" font-family="Segoe UI" x="160, 163.81885, 168.17383, 171.99268, 175.04248, 179.74902, 187.50098, 190.2168, 192.68213, 197.77539, 202.35449, 206.17334, 208.63867, 213.34521, 218.64502, 220.82471, 223.87451, 228.58105, 233.88086, 236.34619, 239.396, 244.48926, " y="248, ">
				system) has edited the
		</text>
		<text fill="gray" font-size="9" font-family="Segoe UI" x="160, 165.29102, 168.41992, 173.69336, 178.98438, 183.69092, 186.81982, 189.86963, 194.22461, 196.68994, 201.00098, 205.58008, 207.75977, 212.85303, 217.55957, " y="260, ">
				property value.
		</text>
		<rect fill="white" x="164" y="117" width="42" height="16"/>
		<text font-size="12" font-weight="600" font-family="Segoe UI" x="164, 169.75977, 174.48828, 180.98047, 187.4375, 192.06055, 199.39648, " y="130, ">
				creator
		</text>
		<rect fill="none" stroke="black" stroke-width="1" stroke-linecap="square" stroke-miterlimit="4" transform="translate(0.5 0.5)" x="155" y="115" width="57" height="20"/>
		<rect fill="silver" x="159" y="273" width="73" height="21"/>
		<rect fill="white" x="155" y="269" width="73" height="21"/>
		<rect fill="white" x="160" y="296" width="120" height="108"/>
		<text fill="gray" font-size="9" font-family="Segoe UI" x="160, 162.39502, 165.21191, 167.67725, 170.72705, 175.82031, 180.52686, 182.99219, 188.2832, 191.41211, 196.68555, 201.97656, 206.68311, 209.81201, 212.86182, 217.2168, 219.68213, 223.99316, 228.57227, 230.75195, 235.84521, 240.55176, 243.01709, 245.19678, 249.01562, 251.48096, 256.57422, 261.84766, " y="306, ">
				If the property value is not
		</text>
		<text fill="gray" font-size="9" font-family="Segoe UI" x="160, 165.2998, 170.00635, 172.82324, 175.00293, 180.09619, 184.80273, 190.10254, 192.05371, 194.51904, 198.33789, 203.62891, 208.33545, 212.49268, 214.67236, 217.48926, 219.66895, 224.37549, 228.19434, 230.65967, 237.16357, 242.25684, 244.43652, 248.59375, 253.68701, 256.15234, 260.85889, 265.95215, 269.00195, 271.18164, 274.23145, " y="318, ">
				defined, specifies which entity
		</text>
		<text fill="gray" font-size="9" font-family="Segoe UI" x="160, 162.71582, 168.00684, 172.71338, 175.84229, 179.66113, 184.93457, 190.02783, 191.979, 194.44434, 199.71777, 202.84668, 208.14648, 212.72559, 217.81885, 219.99854, 223.81738, 228.39648, 231.44629, 233.62598, 238.89941, 243.99268, 246.45801, 251.73145, " y="330, ">
				(person, organisation or
		</text>
		<text fill="gray" font-size="9" font-family="Segoe UI" x="160, 163.81885, 168.17383, 171.99268, 175.04248, 179.74902, 187.50098, 190.2168, 192.68213, 199.18604, 201.36572, 203.54541, 205.7251, 208.19043, 212.89697, 218.19678, 220.37646, 223.42627, 225.8916, 228.94141, 234.03467, 238.74121, 241.20654, 246.49756, 249.62646, 254.8999, 260.19092, 264.89746, 268.02637, 271.07617, " y="342, ">
				system) will edit the property
		</text>
		<text fill="gray" font-size="9" font-family="Segoe UI" x="160, 163.59912, 166.06445, 170.771, 174.90186, 180.19287, 183.32178, 188.02832, 191.84717, 195.66602, 200.37256, 205.67236, 208.1377, 213.42871, 217.78369, 220.24902, 224.82812, 227.29346, 233.47656, 238.85986, 241.25488, 243.20605, 245.67139, 248.06641, 250.8833, 253.34863, 256.39844, 261.4917, " y="354, ">
				- expressed by a URI. If the
		</text>
		<text fill="gray" font-size="9" font-family="Segoe UI" x="160, 165.29102, 168.41992, 173.69336, 178.98438, 183.69092, 186.81982, 189.86963, 194.22461, 196.68994, 201.00098, 205.58008, 207.75977, 212.85303, 217.55957, 220.0249, 222.20459, 226.02344, 228.48877, 233.78857, 238.49512, 241.31201, 243.4917, 248.58496, 253.2915, 258.59131, " y="366, ">
				property value is defined,
		</text>
		<text fill="gray" font-size="9" font-family="Segoe UI" x="160, 163.81885, 169.10986, 173.81641, 177.97363, 180.15332, 182.97021, 185.1499, 189.85645, 193.67529, 196.14062, 202.64453, 207.73779, 209.91748, 214.07471, 219.16797, 221.6333, 226.33984, 231.43311, 234.48291, 236.6626, 239.7124, 244.06738, 246.53271, 249.24854, 254.53955, 259.24609, 262.375, 266.19385, 271.46729, 276.56055, " y="378, ">
				specifies which entity (person,
		</text>
		<text fill="gray" font-size="9" font-family="Segoe UI" x="160, 165.27344, 168.40234, 173.70215, 178.28125, 183.37451, 185.5542, 189.37305, 193.95215, 197.00195, 199.18164, 204.45508, 209.54834, 212.01367, 217.28711, 220.41602, 222.88135, 226.7002, 231.05518, 234.87402, 237.92383, 242.63037, 250.38232, 253.09814, 255.56348, 260.65674, 265.23584, " y="390, ">
				organisation or system) has
		</text>
		<text fill="gray" font-size="9" font-family="Segoe UI" x="160, 164.70654, 170.00635, 172.18604, 175.23584, 179.94238, 185.24219, 187.70752, 190.75732, 195.85059, 200.55713, 203.02246, 208.31348, 211.44238, 216.71582, 222.00684, 226.71338, 229.84229, 232.89209, 237.24707, " y="402, ">
				edited the property.
		</text>
		<rect fill="white" x="164" y="271" width="57" height="16"/>
		<text font-size="12" font-weight="600" font-family="Segoe UI" x="164, 169.75977, 174.48828, 180.98047, 187.4375, 192.06055, 199.39648, 204.20703, 211.4668, 216.28906, " y="284, ">
				creatoruri
		</text>
		<rect fill="none" stroke="black" stroke-width="1" stroke-linecap="square" stroke-miterlimit="4" transform="translate(0.5 0.5)" x="155" y="269" width="72" height="20"/>
		<rect fill="silver" x="159" y="415" width="69" height="21"/>
		<rect fill="white" x="155" y="411" width="69" height="21"/>
		<rect fill="white" x="160" y="438" width="119" height="72"/>
		<text fill="gray" font-size="9" font-family="Segoe UI" x="160, 164.71533, 169.80859, 174.51514, 176.98047, 182.28027, 186.85938, 189.90918, 194.61572, 197.08105, 199.79688, 204.37598, 209.46924, 214.76904, 216.72021, 219.18555, 224.45898, 229.75, 232.7998, 234.97949, 240.25293, 245.34619, 249.92529, 252.10498, 254.28467, 258.63965, 260.59082, 263.05615, 266.10596, 271.19922, " y="448, ">
				The date (and, optionally, the
		</text>
		<text fill="gray" font-size="9" font-family="Segoe UI" x="160, 163.0498, 165.22949, 172.98145, 177.68799, 180.40381, 182.86914, 189.37305, 194.46631, 199.17285, 204.26611, 206.73145, 209.78125, 214.87451, 219.58105, 222.04639, 227.3374, 230.46631, 235.73975, 241.03076, 245.7373, 248.86621, 251.91602, 256.271, 258.73633, 265.24023, 269.81934, " y="460, ">
				time) when the property was
		</text>
		<text fill="gray" font-size="9" font-family="Segoe UI" x="160, 162.17969, 166.75879, 170.57764, 173.62744, 176.09277, 183.84473, 189.11816, 194.41797, 196.59766, 199.41455, 201.59424, 206.30078, 211.60059, 213.55176, 216.01709, 220.73242, 225.82568, 230.53223, 232.99756, 235.17725, 240.27051, 242.4502, 245.5, 247.67969, 252.25879, 254.43848, 256.90381, 261.21484, 265.79395, 267.97363, 273.06689, " y="472, ">
				last modified. The initial value
		</text>
		<text fill="gray" font-size="9" font-family="Segoe UI" x="160, 162.17969, 165.99854, 168.46387, 171.51367, 176.60693, 181.31348, 183.77881, 189.07861, 193.65771, 196.70752, 201.41406, 203.87939, 206.59521, 211.17432, 216.26758, 221.56738, 223.51855, 225.98389, 231.25732, 236.54834, 239.59814, 241.77783, 247.05127, 252.14453, 256.72363, 258.90332, 261.08301, 265.43799, " y="484, ">
				is the date (and, optionally,
		</text>
		<text fill="gray" font-size="9" font-family="Segoe UI" x="160, 163.0498, 168.14307, 172.84961, 175.31494, 178.36475, 180.54443, 188.29639, 193.00293, 195.71875, 198.18408, 203.45752, 206.27441, 208.73975, 212.89697, 216.02588, 220.73242, 225.31152, 228.36133, 230.54102, 235.81445, 240.90771, 243.37305, 248.64648, 251.46338, 253.92871, 256.97852, 262.07178, " y="496, ">
				the time) of creation of the
		</text>
		<text fill="gray" font-size="9" font-family="Segoe UI" x="160, 165.29102, 168.41992, 173.69336, 178.98438, 183.69092, 186.81982, 189.86963, 194.22461, " y="508, ">
				property.
		</text>
		<rect fill="white" x="164" y="413" width="53" height="16"/>
		<text font-size="12" font-weight="600" font-family="Segoe UI" x="164, 174.99219, 182.32812, 189.75781, 193.16797, 197.76758, 201.17773, 207.66992, " y="426, ">
				modified
		</text>
		<rect fill="none" stroke="black" stroke-width="1" stroke-linecap="square" stroke-miterlimit="4" transform="translate(0.5 0.5)" x="155" y="411" width="68" height="20"/>
		<rect fill="silver" x="159" y="521" width="59" height="21"/>
		<rect fill="white" x="155" y="517" width="59" height="21"/>
		<rect fill="white" x="160" y="544" width="118" height="108"/>
		<text fill="gray" font-size="9" font-family="Segoe UI" x="160, 162.39502, 165.21191, 167.67725, 171.49609, 176.20264, 179.25244, 181.71777, 184.76758, 190.04102, 192.50635, 195.55615, 198.68506, 203.77832, 208.48486, 210.9502, 214, 219.09326, " y="554, ">
				If set to true the
		</text>
		<text fill="gray" font-size="9" font-family="Segoe UI" x="160, 164.15723, 169.43066, 172.55957, 175.68848, 180.39502, 184.21387, 189.50488, 194.77832, 199.87158, 205.17139, 207.35107, 212.44434, 217.74414, 220.20947, 225.50049, 228.62939, 233.90283, 239.19385, 243.90039, 247.0293, 250.0791, 254.43408, 256.89941, 263.40332, 267.98242, " y="566, ">
				corresponding property was
		</text>
		<text fill="gray" font-size="9" font-family="Segoe UI" x="160, 164.5791, 169.87891, 175.17871, 179.88525, 185.18506, 187.65039, 190.7002, 195.97363, 198.43896, 201.48877, 206.58203, 211.28857, 213.75391, 219.92822, 224.77979, 227.24512, 229.64014, 232.68994, 237.39648, 245.14844, 247.61377, 250.43066, 255.7041, 258.83301, 261.29834, " y="578, ">
				added to the G2 Item for a
		</text>
		<text fill="gray" font-size="9" font-family="Segoe UI" x="160, 163.81885, 169.10986, 173.81641, 177.97363, 180.15332, 182.97021, 185.1499, 189.30713, 191.77246, 195.92969, 201.02295, 204.8418, 207.8916, 213.16504, 220.91699, 225.62354, 228.75244, 231.21777, 236.49121, 239.62012, 242.08545, 247.38525, 250.51416, 255.7876, 260.88086, 266.17188, 268.63721, 273.91064, " y="590, ">
				specific customer or group of
		</text>
		<text fill="gray" font-size="9" font-family="Segoe UI" x="160, 164.15723, 169.25049, 173.06934, 176.11914, 181.39258, 189.14453, 193.85107, 196.97998, 200.79883, 203.26416, 208.5376, 213.63086, 215.81055, 220.16553, 222.1167, 224.58203, 229.29736, 234.39062, 239.09717, 241.5625, 246.8623, 251.56885, 254.38574, 258.96484, 264.05811, 266.23779, " y="602, ">
				customers only. The default
		</text>
		<text fill="gray" font-size="9" font-family="Segoe UI" x="160, 164.31104, 168.89014, 171.06982, 176.16309, 180.86963, 183.33496, 188.6084, 191.42529, 193.89062, 196.94043, 202.03369, 204.21338, 208.03223, 210.49756, 215.78857, 218.91748, 224.19092, 229.48193, 234.18848, 237.31738, 240.36719, 244.72217, 247.1875, 249.36719, 253.18604, 255.65137, 258.46826, 263.04736, 265.22705, 269.0459, " y="614, ">
				value of this property is false
		</text>
		<text fill="gray" font-size="9" font-family="Segoe UI" x="160, 166.50391, 171.59717, 173.77686, 177.93408, 183.02734, 185.49268, 190.07178, 195.36279, 200.65381, 202.8335, 205.01318, 209.71973, 213.53857, 216.00391, 222.50781, 227.60107, 232.30762, 237.40088, 239.86621, 242.91602, 248.00928, 250.18896, " y="626, ">
				which applies when this
		</text>
		<text fill="gray" font-size="9" font-family="Segoe UI" x="160, 164.5791, 167.62891, 170.67871, 173.80762, 175.9873, 181.27832, 186.37158, 189.42139, 194.12793, 196.59326, 198.77295, 202.5918, 205.05713, 210.15039, 215.42383, 218.47363, 220.93896, 226.03223, 229.85107, 234.55762, 239.85742, 242.32275, 248.82666, 251.00635, 254.05615, 259.14941, 261.61475, 264.66455, 269.75781, " y="638, ">
				attribute is not used with the
		</text>
		<text fill="gray" font-size="9" font-family="Segoe UI" x="160, 165.29102, 168.41992, 173.69336, 178.98438, 183.69092, 186.81982, 189.86963, 194.22461, " y="650, ">
				property.
		</text>
		<rect fill="white" x="164" y="519" width="43" height="16"/>
		<text font-size="12" font-weight="600" font-family="Segoe UI" x="164, 169.75977, 177.01953, 182.29883, 186.92188, 194.25781, " y="532, ">
				custom
		</text>
		<rect fill="none" stroke="black" stroke-width="1" stroke-linecap="square" stroke-miterlimit="4" transform="translate(0.5 0.5)" x="155" y="517" width="58" height="20"/>
		<rect fill="silver" x="159" y="663" width="52" height="21"/>
		<rect fill="white" x="155" y="659" width="52" height="21"/>
		<rect fill="white" x="160" y="686" width="118" height="48"/>
		<text fill="gray" font-size="9" font-family="Segoe UI" x="160, 162.39502, 167.48828, 172.78809, 174.96777, 179.125, 183.7041, 186.75391, 191.46045, 195.2793, 197.74463, 203.03564, 207.39062, 209.85596, 216.35986, 221.45312, 223.63281, 227.79004, 232.8833, 235.34863, 243.10059, 247.80713, 252.38623, 257.47949, 261.29834, 263.76367, 266.81348, 271.90674, " y="696, ">
				Indicates by which means the
		</text>
		<text fill="gray" font-size="9" font-family="Segoe UI" x="160, 164.31104, 168.89014, 171.06982, 176.16309, 180.86963, 183.33496, 189.83887, 194.41797, 198.23682, 200.70215, 205.40869, 209.53955, 212.58936, 215.71826, 220.29736, 224.45459, 227.50439, 232.21094, 237.51074, 239.97607, 242.79297, 245.92188, 251.19531, 258.94727, 261.4126, 264.4624, 269.55566, " y="708, ">
				value was extracted from the
		</text>
		<text fill="gray" font-size="9" font-family="Segoe UI" x="160, 164.15723, 169.43066, 174.52393, 177.57373, 182.28027, 187.37354, 190.42334, 192.88867, 196.48779, 198.95312, 203.65967, 207.79053, 213.08154, 216.21045, 220.91699, 224.73584, 228.55469, 233.26123, 238.56104, 241.02637, 246.31738, 250.67236, 253.1377, " y="720, ">
				content - expressed by a
		</text>
		<text fill="gray" font-size="9" font-family="Segoe UI" x="160, 166.78516, 172.35742, 177.63086, 182.93066, " y="732, ">
				QCode
		</text>
		<rect fill="white" x="164" y="661" width="36" height="16"/>
		<text font-size="12" font-weight="600" font-family="Segoe UI" x="164, 171.22461, 178.56055, " y="674, ">
				how
		</text>
		<rect fill="none" stroke="black" stroke-width="1" stroke-linecap="square" stroke-miterlimit="4" transform="translate(0.5 0.5)" x="155" y="659" width="51" height="20"/>
		<rect fill="silver" x="159" y="745" width="57" height="21"/>
		<rect fill="white" x="155" y="741" width="57" height="21"/>
		<rect fill="white" x="160" y="768" width="118" height="36"/>
		<text fill="gray" font-size="9" font-family="Segoe UI" x="160, 162.39502, 167.48828, 172.78809, 174.96777, 179.125, 183.7041, 186.75391, 191.46045, 195.2793, 197.74463, 203.03564, 207.39062, 209.85596, 216.35986, 221.45312, 223.63281, 227.79004, 232.8833, 235.34863, 243.10059, 247.80713, 252.38623, 257.47949, 261.29834, 263.76367, 266.81348, 271.90674, " y="778, ">
				Indicates by which means the
		</text>
		<text fill="gray" font-size="9" font-family="Segoe UI" x="160, 164.31104, 168.89014, 171.06982, 176.16309, 180.86963, 183.33496, 189.83887, 194.41797, 198.23682, 200.70215, 205.40869, 209.53955, 212.58936, 215.71826, 220.29736, 224.45459, 227.50439, 232.21094, 237.51074, 239.97607, 242.79297, 245.92188, 251.19531, 258.94727, 261.4126, 264.4624, 269.55566, " y="790, ">
				value was extracted from the
		</text>
		<text fill="gray" font-size="9" font-family="Segoe UI" x="160, 164.15723, 169.43066, 174.52393, 177.57373, 182.28027, 187.37354, 190.42334, 192.88867, 196.48779, 198.95312, 203.65967, 207.79053, 213.08154, 216.21045, 220.91699, 224.73584, 228.55469, 233.26123, 238.56104, 241.02637, 246.31738, 250.67236, 253.1377, 257.7168, 260.18213, 266.36523, 271.74854, " y="802, ">
				content - expressed by a URI
		</text>
		<rect fill="white" x="164" y="743" width="41" height="16"/>
		<text font-size="12" font-weight="600" font-family="Segoe UI" x="164, 171.22461, 178.56055, 188.12891, 195.38867, 200.21094, " y="756, ">
				howuri
		</text>
		<rect fill="none" stroke="black" stroke-width="1" stroke-linecap="square" stroke-miterlimit="4" transform="translate(0.5 0.5)" x="155" y="741" width="56" height="20"/>
		<rect fill="silver" x="159" y="815" width="52" height="21"/>
		<rect fill="white" x="155" y="811" width="52" height="21"/>
		<rect fill="white" x="160" y="838" width="113" height="36"/>
		<text fill="gray" font-size="9" font-family="Segoe UI" x="160, 168.40674, 173.5, 177.85498, 180.32031, 183.37012, 188.46338, 193.16992, 195.63525, 203.38721, 208.09375, 211.14355, 215.72266, 221.02246, 225.60156, 228.65137, 233.23047, 235.6958, 240.78906, 245.36816, 249.18701, 251.65234, 256.94336, 261.6499, 266.35645, " y="848, ">
				Why the metadata has been
		</text>
		<text fill="gray" font-size="9" font-family="Segoe UI" x="160, 162.17969, 167.27295, 171.43018, 173.60986, 178.70312, 184.00293, 188.70947, 194.00928, 196.47461, 200.07373, 202.53906, 207.24561, 211.37646, 216.66748, 219.79639, 224.50293, 228.32178, 232.14062, 236.84717, 242.14697, 244.6123, 249.90332, 254.2583, 256.72363, " y="860, ">
				included - expressed by a
		</text>
		<text fill="gray" font-size="9" font-family="Segoe UI" x="160, 166.78516, 172.35742, 177.63086, 182.93066, " y="872, ">
				QCode
		</text>
		<rect fill="white" x="164" y="813" width="36" height="16"/>
		<text font-size="12" font-weight="600" font-family="Segoe UI" x="164, 173.56836, 180.79297, " y="826, ">
				why
		</text>
		<rect fill="none" stroke="black" stroke-width="1" stroke-linecap="square" stroke-miterlimit="4" transform="translate(0.5 0.5)" x="155" y="811" width="51" height="20"/>
		<rect fill="silver" x="159" y="885" width="56" height="21"/>
		<rect fill="white" x="155" y="881" width="56" height="21"/>
		<rect fill="white" x="160" y="908" width="119" height="24"/>
		<text fill="gray" font-size="9" font-family="Segoe UI" x="160, 168.40674, 173.5, 177.85498, 180.32031, 183.37012, 188.46338, 193.16992, 195.63525, 203.38721, 208.09375, 211.14355, 215.72266, 221.02246, 225.60156, 228.65137, 233.23047, 235.6958, 240.78906, 245.36816, 249.18701, 251.65234, 256.94336, 261.6499, 266.35645, " y="918, ">
				Why the metadata has been
		</text>
		<text fill="gray" font-size="9" font-family="Segoe UI" x="160, 162.17969, 167.27295, 171.43018, 173.60986, 178.70312, 184.00293, 188.70947, 194.00928, 196.47461, 200.07373, 202.53906, 207.24561, 211.37646, 216.66748, 219.79639, 224.50293, 228.32178, 232.14062, 236.84717, 242.14697, 244.6123, 249.90332, 254.2583, 256.72363, 261.30273, 263.76807, 269.95117, 275.33447, " y="930, ">
				included - expressed by a URI
		</text>
		<rect fill="white" x="164" y="883" width="40" height="16"/>
		<text font-size="12" font-weight="600" font-family="Segoe UI" x="164, 173.56836, 180.79297, 187.25, 194.50977, 199.33203, " y="896, ">
				whyuri
		</text>
		<rect fill="none" stroke="black" stroke-width="1" stroke-linecap="square" stroke-miterlimit="4" transform="translate(0.5 0.5)" x="155" y="881" width="55" height="20"/>
		<rect fill="silver" x="159" y="943" width="97" height="21"/>
		<rect fill="white" x="155" y="939" width="97" height="21"/>
		<rect fill="white" x="160" y="966" width="117" height="72"/>
		<text fill="gray" font-size="9" font-family="Segoe UI" x="160, 166.78516, 171.87842, 176.58496, 179.05029, 184.32373, 187.45264, 189.91797, 197.66992, 202.24902, 207.34229, 211.69727, 214.1626, 218.31982, 223.59326, 228.68652, 232.50537, 235.55518, 238.68408, 243.26318, 245.44287, 250.53613, 253.58594, 257.40479, 259.87012, 262.91992, 268.01318, 272.59229, " y="976, ">
				One or many constraints that
		</text>
		<text fill="gray" font-size="9" font-family="Segoe UI" x="160, 164.5791, 169.87012, 175.16113, 177.34082, 181.6958, 184.16113, 187.21094, 192.48438, 194.94971, 200.24072, 205.33398, 210.625, 212.80469, 214.98438, 218.80322, 223.89648, 226.07617, 231.16943, 236.46924, 238.93457, 241.98438, 247.07764, 251.78418, 254.24951, 258.56055, 263.13965, 265.31934, 270.4126, " y="988, ">
				apply to publishing the value
		</text>
		<text fill="gray" font-size="9" font-family="Segoe UI" x="160, 165.27344, 168.09033, 170.55566, 173.60547, 178.69873, 183.40527, 185.87061, 191.16162, 194.29053, 199.56396, 204.85498, 209.56152, 212.69043, 215.74023, 220.09521, 222.56055, 226.15967, 228.625, 233.33154, 237.4624, 242.75342, 245.88232, 250.58887, 254.40771, 258.22656, 262.93311, " y="1000, ">
				of the property - expressed
		</text>
		<text fill="gray" font-size="9" font-family="Segoe UI" x="160, 165.29102, 169.646, 172.11133, 176.69043, 179.15576, 185.94092, 191.51318, 196.78662, 202.08643, 206.79297, 208.74414, 211.20947, 215.76221, 220.34131, 224.49854, 229.5918, 232.05713, 236.21436, 241.48779, 246.58105, 250.3999, 253.44971, 256.57861, 261.15771, 263.3374, 268.43066, " y="1012, ">
				by a QCode. Each constraint
		</text>
		<text fill="gray" font-size="9" font-family="Segoe UI" x="160, 164.5791, 169.87012, 175.16113, 177.34082, 179.52051, 184.22705, 188.0459, 190.51123, 193.56104, 198.83447, 201.2998, 205.87891, 208.05859, 210.23828, 212.70361, 218.00342, 222.70996, 226.52881, 230.68604, 235.39258, 240.48584, 245.78564, 250.36475, 255.45801, " y="1024, ">
				applies to all descendant
		</text>
		<text fill="gray" font-size="9" font-family="Segoe UI" x="160, 164.70654, 166.88623, 171.59277, 179.34473, 184.05127, 189.14453, 192.19434, 196.01318, " y="1036, ">
				elements.
		</text>
		<rect fill="white" x="164" y="941" width="81" height="16"/>
		<text font-size="12" font-weight="600" font-family="Segoe UI" x="164, 171.44141, 178.70117, 186.14258, 191.90234, 199.23828, 206.49805, 211.77734, 216.44727, 221.22266, 227.67969, 231.08984, 238.34961, " y="954, ">
				pubconstraint
		</text>
		<rect fill="none" stroke="black" stroke-width="1" stroke-linecap="square" stroke-miterlimit="4" transform="translate(0.5 0.5)" x="155" y="939" width="96" height="20"/>
		<rect fill="silver" x="159" y="1049" width="112" height="21"/>
		<rect fill="white" x="155" y="1045" width="112" height="21"/>
		<rect fill="white" x="160" y="1072" width="117" height="72"/>
		<text fill="gray" font-size="9" font-family="Segoe UI" x="160, 166.78516, 171.87842, 176.58496, 179.05029, 184.32373, 187.45264, 189.91797, 197.66992, 202.24902, 207.34229, 211.69727, 214.1626, 218.31982, 223.59326, 228.68652, 232.50537, 235.55518, 238.68408, 243.26318, 245.44287, 250.53613, 253.58594, 257.40479, 259.87012, 262.91992, 268.01318, 272.59229, " y="1082, ">
				One or many constraints that
		</text>
		<text fill="gray" font-size="9" font-family="Segoe UI" x="160, 164.5791, 169.87012, 175.16113, 177.34082, 181.6958, 184.16113, 187.21094, 192.48438, 194.94971, 200.24072, 205.33398, 210.625, 212.80469, 214.98438, 218.80322, 223.89648, 226.07617, 231.16943, 236.46924, 238.93457, 241.98438, 247.07764, 251.78418, 254.24951, 258.56055, 263.13965, 265.31934, 270.4126, " y="1094, ">
				apply to publishing the value
		</text>
		<text fill="gray" font-size="9" font-family="Segoe UI" x="160, 165.27344, 168.09033, 170.55566, 173.60547, 178.69873, 183.40527, 185.87061, 191.16162, 194.29053, 199.56396, 204.85498, 209.56152, 212.69043, 215.74023, 220.09521, 222.56055, 226.15967, 228.625, 233.33154, 237.4624, 242.75342, 245.88232, 250.58887, 254.40771, 258.22656, 262.93311, " y="1106, ">
				of the property - expressed
		</text>
		<text fill="gray" font-size="9" font-family="Segoe UI" x="160, 165.29102, 169.646, 172.11133, 176.69043, 179.15576, 185.33887, 190.72217, 193.11719, 195.06836, 197.53369, 202.08643, 206.66553, 210.82275, 215.91602, 218.38135, 222.53857, 227.81201, 232.90527, 236.72412, 239.77393, 242.90283, 247.48193, 249.66162, 254.75488, " y="1118, ">
				by a URI. Each constraint
		</text>
		<text fill="gray" font-size="9" font-family="Segoe UI" x="160, 164.5791, 169.87012, 175.16113, 177.34082, 179.52051, 184.22705, 188.0459, 190.51123, 193.56104, 198.83447, 201.2998, 205.87891, 208.05859, 210.23828, 212.70361, 218.00342, 222.70996, 226.52881, 230.68604, 235.39258, 240.48584, 245.78564, 250.36475, 255.45801, " y="1130, ">
				applies to all descendant
		</text>
		<text fill="gray" font-size="9" font-family="Segoe UI" x="160, 164.70654, 166.88623, 171.59277, 179.34473, 184.05127, 189.14453, 192.19434, 196.01318, " y="1142, ">
				elements.
		</text>
		<rect fill="white" x="164" y="1047" width="96" height="16"/>
		<text font-size="12" font-weight="600" font-family="Segoe UI" x="164, 171.44141, 178.70117, 186.14258, 191.90234, 199.23828, 206.49805, 211.77734, 216.44727, 221.22266, 227.67969, 231.08984, 238.34961, 243.01953, 250.2793, 255.10156, " y="1060, ">
				pubconstrainturi
		</text>
		<rect fill="none" stroke="black" stroke-width="1" stroke-linecap="square" stroke-miterlimit="4" transform="translate(0.5 0.5)" x="155" y="1045" width="111" height="20"/>
		<rect fill="silver" x="151" y="1212" width="52" height="21"/>
		<rect fill="white" x="147" y="1208" width="52" height="21"/>
		<rect fill="white" x="152" y="1235" width="112" height="72"/>
		<text fill="gray" font-size="9" font-family="Segoe UI" x="152, 156.71533, 161.80859, 166.51514, 168.98047, 173.11133, 176.71045, 181.28955, 185.42041, 187.6001, 191.41895, 193.88428, 198.0415, 203.31494, 208.58838, 211.71729, 217.01709, 219.19678, 224.29004, 228.86914, 231.91895, 236.62549, 239.09082, 244.36426, 247.18115, 249.64648, 252.69629, 257.78955, " y="1245, ">
				The x-axis coordinate of the
		</text>
		<text fill="gray" font-size="9" font-family="Segoe UI" x="152, 155.81885, 157.99854, 163.29834, 168.00488, 170.47021, 175.74365, 178.56055, 181.02588, 184.07568, 189.16895, 193.87549, 196.34082, 199.46973, 204.17627, 208.3335, 211.3833, 215.9624, 221.05566, 226.35547, 228.53516, 233.2417, 235.70703, 242.21094, 247.3042, 249.48389, 253.64111, " y="1257, ">
				side of the rectangle which
		</text>
		<text fill="gray" font-size="9" font-family="Segoe UI" x="152, 157.09326, 161.67236, 165.49121, 167.95654, 171.00635, 176.09961, 180.80615, 183.27148, 187.09033, 194.84229, 199.42139, 201.60107, 203.78076, 208.4873, 211.61621, 214.08154, 218.2124, 221.81152, 226.39062, 230.52148, 232.70117, " y="1269, ">
				has the smaller x-axis
		</text>
		<text fill="gray" font-size="9" font-family="Segoe UI" x="152, 156.15723, 161.43066, 166.7041, 169.83301, 175.13281, 177.3125, 182.40576, 186.98486, 190.03467, 194.74121, 197.20654, 201.51758, 206.09668, 208.27637, 213.36963, 218.07617, 220.5415, 222.72119, 227.81445, 230.27979, 233.32959, 238.42285, " y="1281, ">
				coordinate value in the
		</text>
		<text fill="gray" font-size="9" font-family="Segoe UI" x="152, 156.15723, 161.25049, 164.37939, 167.5083, 172.21484, 177.30811, 180.35791, 182.82324, 187.9165, 191.73535, 196.44189, 199.5708, 202.03613, 206.19336, 211.4668, 216.74023, 219.86914, 225.16895, 227.34863, 232.44189, 237.021, 240.0708, " y="1293, ">
				current user coordinate
		</text>
		<text fill="gray" font-size="9" font-family="Segoe UI" x="152, 155.81885, 160.17383, 163.99268, 167.04248, 171.74902, " y="1305, ">
				system
		</text>
		<rect fill="white" x="156" y="1210" width="36" height="16"/>
		<text font-size="12" font-weight="600" font-family="Segoe UI" x="156, " y="1223, ">
				x
		</text>
		<rect fill="none" stroke="black" stroke-width="1" stroke-linecap="square" stroke-miterlimit="4" transform="translate(0.5 0.5)" x="147" y="1208" width="51" height="20"/>
		<rect fill="silver" x="151" y="1318" width="52" height="21"/>
		<rect fill="white" x="147" y="1314" width="52" height="21"/>
		<rect fill="white" x="152" y="1341" width="112" height="72"/>
		<text fill="gray" font-size="9" font-family="Segoe UI" x="152, 156.71533, 161.80859, 166.51514, 168.98047, 173.33545, 176.93457, 181.51367, 185.64453, 187.82422, 191.64307, 194.1084, 198.26562, 203.53906, 208.8125, 211.94141, 217.24121, 219.4209, 224.51416, 229.09326, 232.14307, 236.84961, 239.31494, 244.58838, 247.40527, 249.87061, 252.92041, 258.01367, " y="1351, ">
				The y-axis coordinate of the
		</text>
		<text fill="gray" font-size="9" font-family="Segoe UI" x="152, 155.81885, 157.99854, 163.29834, 168.00488, 170.47021, 175.74365, 178.56055, 181.02588, 184.07568, 189.16895, 193.87549, 196.34082, 199.46973, 204.17627, 208.3335, 211.3833, 215.9624, 221.05566, 226.35547, 228.53516, 233.2417, 235.70703, 242.21094, 247.3042, 249.48389, 253.64111, " y="1363, ">
				side of the rectangle which
		</text>
		<text fill="gray" font-size="9" font-family="Segoe UI" x="152, 157.09326, 161.67236, 165.49121, 167.95654, 171.00635, 176.09961, 180.80615, 183.27148, 187.09033, 194.84229, 199.42139, 201.60107, 203.78076, 208.4873, 211.61621, 214.08154, 218.43652, 222.03564, 226.61475, 230.74561, 232.92529, " y="1375, ">
				has the smaller y-axis
		</text>
		<text fill="gray" font-size="9" font-family="Segoe UI" x="152, 156.15723, 161.43066, 166.7041, 169.83301, 175.13281, 177.3125, 182.40576, 186.98486, 190.03467, 194.74121, 197.20654, 201.51758, 206.09668, 208.27637, 213.36963, 218.07617, 220.5415, 222.72119, 227.81445, 230.27979, 233.32959, 238.42285, " y="1387, ">
				coordinate value in the
		</text>
		<text fill="gray" font-size="9" font-family="Segoe UI" x="152, 156.15723, 161.25049, 164.37939, 167.5083, 172.21484, 177.30811, 180.35791, 182.82324, 187.9165, 191.73535, 196.44189, 199.5708, 202.03613, 206.19336, 211.4668, 216.74023, 219.86914, 225.16895, 227.34863, 232.44189, 237.021, 240.0708, " y="1399, ">
				current user coordinate
		</text>
		<text fill="gray" font-size="9" font-family="Segoe UI" x="152, 155.81885, 160.17383, 163.99268, 167.04248, 171.74902, " y="1411, ">
				system
		</text>
		<rect fill="white" x="156" y="1316" width="36" height="16"/>
		<text font-size="12" font-weight="600" font-family="Segoe UI" x="156, " y="1329, ">
				y
		</text>
		<rect fill="none" stroke="black" stroke-width="1" stroke-linecap="square" stroke-miterlimit="4" transform="translate(0.5 0.5)" x="147" y="1314" width="51" height="20"/>
		<rect fill="silver" x="151" y="1424" width="52" height="21"/>
		<rect fill="white" x="147" y="1420" width="52" height="21"/>
		<rect fill="white" x="152" y="1447" width="106" height="12"/>
		<text fill="gray" font-size="9" font-family="Segoe UI" x="152, 156.71533, 161.80859, 166.51514, 168.98047, 175.48438, 177.66406, 182.96387, 186.01367, 191.10693, 193.57227, 198.8457, 201.6626, 204.12793, 207.17773, 212.271, 216.97754, 219.44287, 222.57178, 227.27832, 231.43555, 234.48535, 239.06445, 244.15771, 249.45752, 251.63721, " y="1457, ">
				The width of the rectangle
		</text>
		<rect fill="white" x="156" y="1422" width="36" height="16"/>
		<text font-size="12" font-weight="600" font-family="Segoe UI" x="156, 165.56836, 168.97852, 176.4082, 181.07812, " y="1435, ">
				width
		</text>
		<rect fill="none" stroke="black" stroke-width="1" stroke-linecap="square" stroke-miterlimit="4" transform="translate(0.5 0.5)" x="147" y="1420" width="51" height="20"/>
		<rect fill="silver" x="151" y="1470" width="54" height="21"/>
		<rect fill="white" x="147" y="1466" width="54" height="21"/>
		<rect fill="white" x="152" y="1493" width="109" height="12"/>
		<text fill="gray" font-size="9" font-family="Segoe UI" x="152, 156.71533, 161.80859, 166.51514, 168.98047, 174.07373, 178.78027, 180.95996, 186.25977, 191.35303, 194.40283, 196.86816, 202.1416, 204.9585, 207.42383, 210.47363, 215.56689, 220.27344, 222.73877, 225.86768, 230.57422, 234.73145, 237.78125, 242.36035, 247.45361, 252.75342, 254.93311, " y="1503, ">
				The height of the rectangle
		</text>
		<rect fill="white" x="156" y="1468" width="38" height="16"/>
		<text font-size="12" font-weight="600" font-family="Segoe UI" x="156, 163.22461, 169.7168, 173.12695, 180.55664, 187.78125, " y="1481, ">
				height
		</text>
		<rect fill="none" stroke="black" stroke-width="1" stroke-linecap="square" stroke-miterlimit="4" transform="translate(0.5 0.5)" x="147" y="1466" width="53" height="20"/>
		<path fill="silver" d="M151 1521L156 1516L224 1516L229 1521L229 1532L224 1537L156 1537L151 1532L151 1521Z"/>
		<path fill="white" d="M147 1517L152 1512L220 1512L225 1517L225 1528L220 1533L152 1533L147 1528L147 1517Z"/>
		<rect fill="white" x="174" y="1514" width="46" height="16"/>
		<text font-size="12" font-weight="600" font-family="Segoe UI" x="174, 181.10742, 188.21484, 195.55078, 200.2207, 207.44531, 213.9375, " y="1527, ">
				##other
		</text>
		<rect fill="white" x="152" y="1514" width="20" height="16"/>
		<text fill="gray" font-size="12" font-family="Segoe UI" x="152, 158.10547, 164.89648, " y="1527, ">
				any
		</text>
		<path fill="none" stroke="black" stroke-width="1" stroke-linecap="square" stroke-miterlimit="4" transform="translate(0.5 0.5)" d="M147 1517L152 1512L219 1512L224 1517L224 1527L219 1532L152 1532L147 1527L147 1517Z"/>
		<rect x="138" y="5" width="11" height="11"/>
		<rect fill="white" x="139" y="6" width="9" height="9"/>
		<rect x="140" y="10" width="7" height="1"/>
		<rect x="86" y="767" width="11" height="11"/>
		<rect fill="white" x="87" y="768" width="9" height="9"/>
		<rect x="88" y="772" width="7" height="1"/>
	</g>
</svg>
