<?xml version="1.0" encoding="utf-8" ?>
<svg xmlns="http://www.w3.org/2000/svg" xmlns:xlink="http://www.w3.org/1999/xlink" width="397" height="1973">
	<clipPath id="cl_6cc">
		<rect x="-10" y="-5" width="397" height="1973"/>
	</clipPath>
	<g clip-path="url(#cl_6cc)">
		<rect fill="#FFFFC0" x="141" width="236" height="1963"/>
		<rect fill="none" stroke="gray" stroke-width="1" stroke-linecap="square" stroke-miterlimit="4" transform="translate(0.5 0.5)" x="141" width="235" height="1962"/>
		<path fill="none" stroke="black" stroke-width="1" stroke-linecap="square" stroke-miterlimit="4" transform="translate(0.5 0.5)" d="M90 1289L153 1289"/>
		<path fill="none" stroke="black" stroke-width="1" stroke-linecap="square" stroke-miterlimit="4" transform="translate(0.5 0.5)" d="M154 1289L154 819"/>
		<path transform="translate(0.5 0.5)" d="M154.5 1289L154.5 1291L154.5 1291.5L153.5 1291.5L153.5 1291L153.5 1288.5L154.5 1288.5L154.5 1289ZM154.5 1295L154.5 1297L154.5 1297.5L153.5 1297.5L153.5 1297L153.5 1294.5L154.5 1294.5L154.5 1295ZM154.5 1301L154.5 1303L154.5 1303.5L153.5 1303.5L153.5 1303L153.5 1300.5L154.5 1300.5L154.5 1301ZM154.5 1307L154.5 1309L154.5 1309.5L153.5 1309.5L153.5 1309L153.5 1306.5L154.5 1306.5L154.5 1307ZM154.5 1313L154.5 1315L154.5 1315.5L153.5 1315.5L153.5 1315L153.5 1312.5L154.5 1312.5L154.5 1313ZM154.5 1319L154.5 1321L154.5 1321.5L153.5 1321.5L153.5 1321L153.5 1318.5L154.5 1318.5L154.5 1319ZM154.5 1325L154.5 1327L154.5 1327.5L153.5 1327.5L153.5 1327L153.5 1324.5L154.5 1324.5L154.5 1325ZM154.5 1331L154.5 1333L154.5 1333.5L153.5 1333.5L153.5 1333L153.5 1330.5L154.5 1330.5L154.5 1331ZM154.5 1337L154.5 1339L154.5 1339.5L153.5 1339.5L153.5 1339L153.5 1336.5L154.5 1336.5L154.5 1337ZM154.5 1343L154.5 1345L154.5 1345.5L153.5 1345.5L153.5 1345L153.5 1342.5L154.5 1342.5L154.5 1343ZM154.5 1349L154.5 1351L154.5 1351.5L153.5 1351.5L153.5 1351L153.5 1348.5L154.5 1348.5L154.5 1349ZM154.5 1355L154.5 1357L154.5 1357.5L153.5 1357.5L153.5 1357L153.5 1354.5L154.5 1354.5L154.5 1355ZM154.5 1361L154.5 1363L154.5 1363.5L153.5 1363.5L153.5 1363L153.5 1360.5L154.5 1360.5L154.5 1361ZM154.5 1367L154.5 1369L154.5 1369.5L153.5 1369.5L153.5 1369L153.5 1366.5L154.5 1366.5L154.5 1367ZM154.5 1373L154.5 1375L154.5 1375.5L153.5 1375.5L153.5 1375L153.5 1372.5L154.5 1372.5L154.5 1373ZM154.5 1379L154.5 1381L154.5 1381.5L153.5 1381.5L153.5 1381L153.5 1378.5L154.5 1378.5L154.5 1379ZM154.5 1385L154.5 1387L154.5 1387.5L153.5 1387.5L153.5 1387L153.5 1384.5L154.5 1384.5L154.5 1385ZM154.5 1391L154.5 1393L154.5 1393.5L153.5 1393.5L153.5 1393L153.5 1390.5L154.5 1390.5L154.5 1391ZM154.5 1397L154.5 1399L154.5 1399.5L153.5 1399.5L153.5 1399L153.5 1396.5L154.5 1396.5L154.5 1397ZM154.5 1403L154.5 1405L154.5 1405.5L153.5 1405.5L153.5 1405L153.5 1402.5L154.5 1402.5L154.5 1403ZM154.5 1409L154.5 1411L154.5 1411.5L153.5 1411.5L153.5 1411L153.5 1408.5L154.5 1408.5L154.5 1409ZM154.5 1415L154.5 1417L154.5 1417.5L153.5 1417.5L153.5 1417L153.5 1414.5L154.5 1414.5L154.5 1415ZM154.5 1421L154.5 1423L154.5 1423.5L153.5 1423.5L153.5 1423L153.5 1420.5L154.5 1420.5L154.5 1421ZM154.5 1427L154.5 1429L154.5 1429.5L153.5 1429.5L153.5 1429L153.5 1426.5L154.5 1426.5L154.5 1427ZM154.5 1433L154.5 1435L154.5 1435.5L153.5 1435.5L153.5 1435L153.5 1432.5L154.5 1432.5L154.5 1433ZM154.5 1439L154.5 1441L154.5 1441.5L153.5 1441.5L153.5 1441L153.5 1438.5L154.5 1438.5L154.5 1439ZM154.5 1445L154.5 1447L154.5 1447.5L153.5 1447.5L153.5 1447L153.5 1444.5L154.5 1444.5L154.5 1445ZM154.5 1451L154.5 1453L154.5 1453.5L153.5 1453.5L153.5 1453L153.5 1450.5L154.5 1450.5L154.5 1451ZM154.5 1457L154.5 1459L154.5 1459.5L153.5 1459.5L153.5 1459L153.5 1456.5L154.5 1456.5L154.5 1457ZM154.5 1463L154.5 1465L154.5 1465.5L153.5 1465.5L153.5 1465L153.5 1462.5L154.5 1462.5L154.5 1463ZM154.5 1469L154.5 1471L154.5 1471.5L153.5 1471.5L153.5 1471L153.5 1468.5L154.5 1468.5L154.5 1469ZM154.5 1475L154.5 1477L154.5 1477.5L153.5 1477.5L153.5 1477L153.5 1474.5L154.5 1474.5L154.5 1475ZM154.5 1481L154.5 1483L154.5 1483.5L153.5 1483.5L153.5 1483L153.5 1480.5L154.5 1480.5L154.5 1481ZM154.5 1487L154.5 1489L154.5 1489.5L153.5 1489.5L153.5 1489L153.5 1486.5L154.5 1486.5L154.5 1487ZM154.5 1493L154.5 1495L154.5 1495.5L153.5 1495.5L153.5 1495L153.5 1492.5L154.5 1492.5L154.5 1493ZM154.5 1499L154.5 1501L154.5 1501.5L153.5 1501.5L153.5 1501L153.5 1498.5L154.5 1498.5L154.5 1499ZM154.5 1505L154.5 1507L154.5 1507.5L153.5 1507.5L153.5 1507L153.5 1504.5L154.5 1504.5L154.5 1505ZM154.5 1511L154.5 1513L154.5 1513.5L153.5 1513.5L153.5 1513L153.5 1510.5L154.5 1510.5L154.5 1511ZM154.5 1517L154.5 1519L154.5 1519.5L153.5 1519.5L153.5 1519L153.5 1516.5L154.5 1516.5L154.5 1517ZM154.5 1523L154.5 1525L154.5 1525.5L153.5 1525.5L153.5 1525L153.5 1522.5L154.5 1522.5L154.5 1523ZM154.5 1529L154.5 1531L154.5 1531.5L153.5 1531.5L153.5 1531L153.5 1528.5L154.5 1528.5L154.5 1529ZM154.5 1535L154.5 1537L154.5 1537.5L153.5 1537.5L153.5 1537L153.5 1534.5L154.5 1534.5L154.5 1535ZM154.5 1541L154.5 1543L154.5 1543.5L153.5 1543.5L153.5 1543L153.5 1540.5L154.5 1540.5L154.5 1541ZM154.5 1547L154.5 1549L154.5 1549.5L153.5 1549.5L153.5 1549L153.5 1546.5L154.5 1546.5L154.5 1547ZM154.5 1553L154.5 1555L154.5 1555.5L153.5 1555.5L153.5 1555L153.5 1552.5L154.5 1552.5L154.5 1553ZM154.5 1559L154.5 1561L154.5 1561.5L153.5 1561.5L153.5 1561L153.5 1558.5L154.5 1558.5L154.5 1559ZM154.5 1565L154.5 1567L154.5 1567.5L153.5 1567.5L153.5 1567L153.5 1564.5L154.5 1564.5L154.5 1565ZM154.5 1571L154.5 1573L154.5 1573.5L153.5 1573.5L153.5 1573L153.5 1570.5L154.5 1570.5L154.5 1571ZM154.5 1577L154.5 1579L154.5 1579.5L153.5 1579.5L153.5 1579L153.5 1576.5L154.5 1576.5L154.5 1577ZM154.5 1583L154.5 1585L154.5 1585.5L153.5 1585.5L153.5 1585L153.5 1582.5L154.5 1582.5L154.5 1583ZM154.5 1589L154.5 1591L154.5 1591.5L153.5 1591.5L153.5 1591L153.5 1588.5L154.5 1588.5L154.5 1589ZM154.5 1595L154.5 1597L154.5 1597.5L153.5 1597.5L153.5 1597L153.5 1594.5L154.5 1594.5L154.5 1595ZM154.5 1601L154.5 1603L154.5 1603.5L153.5 1603.5L153.5 1603L153.5 1600.5L154.5 1600.5L154.5 1601ZM154.5 1607L154.5 1609L154.5 1609.5L153.5 1609.5L153.5 1609L153.5 1606.5L154.5 1606.5L154.5 1607ZM154.5 1613L154.5 1615L154.5 1615.5L153.5 1615.5L153.5 1615L153.5 1612.5L154.5 1612.5L154.5 1613ZM154.5 1619L154.5 1621L154.5 1621.5L153.5 1621.5L153.5 1621L153.5 1618.5L154.5 1618.5L154.5 1619ZM154.5 1625L154.5 1627L154.5 1627.5L153.5 1627.5L153.5 1627L153.5 1624.5L154.5 1624.5L154.5 1625ZM154.5 1631L154.5 1633L154.5 1633.5L153.5 1633.5L153.5 1633L153.5 1630.5L154.5 1630.5L154.5 1631ZM154.5 1637L154.5 1639L154.5 1639.5L153.5 1639.5L153.5 1639L153.5 1636.5L154.5 1636.5L154.5 1637ZM154.5 1643L154.5 1645L154.5 1645.5L153.5 1645.5L153.5 1645L153.5 1642.5L154.5 1642.5L154.5 1643ZM154.5 1649L154.5 1651L154.5 1651.5L153.5 1651.5L153.5 1651L153.5 1648.5L154.5 1648.5L154.5 1649ZM154.5 1655L154.5 1657L154.5 1657.5L153.5 1657.5L153.5 1657L153.5 1654.5L154.5 1654.5L154.5 1655ZM154.5 1661L154.5 1663L154.5 1663.5L153.5 1663.5L153.5 1663L153.5 1660.5L154.5 1660.5L154.5 1661ZM154.5 1667L154.5 1669L154.5 1669.5L153.5 1669.5L153.5 1669L153.5 1666.5L154.5 1666.5L154.5 1667ZM154.5 1673L154.5 1675L154.5 1675.5L153.5 1675.5L153.5 1675L153.5 1672.5L154.5 1672.5L154.5 1673ZM154.5 1679L154.5 1681L154.5 1681.5L153.5 1681.5L153.5 1681L153.5 1678.5L154.5 1678.5L154.5 1679ZM154.5 1685L154.5 1687L154.5 1687.5L153.5 1687.5L153.5 1687L153.5 1684.5L154.5 1684.5L154.5 1685ZM154.5 1691L154.5 1693L154.5 1693.5L153.5 1693.5L153.5 1693L153.5 1690.5L154.5 1690.5L154.5 1691ZM154.5 1697L154.5 1699L154.5 1699.5L153.5 1699.5L153.5 1699L153.5 1696.5L154.5 1696.5L154.5 1697ZM154.5 1703L154.5 1705L154.5 1705.5L153.5 1705.5L153.5 1705L153.5 1702.5L154.5 1702.5L154.5 1703ZM154.5 1709L154.5 1711L154.5 1711.5L153.5 1711.5L153.5 1711L153.5 1708.5L154.5 1708.5L154.5 1709ZM154.5 1715L154.5 1717L154.5 1717.5L153.5 1717.5L153.5 1717L153.5 1714.5L154.5 1714.5L154.5 1715ZM154.5 1721L154.5 1723L154.5 1723.5L153.5 1723.5L153.5 1723L153.5 1720.5L154.5 1720.5L154.5 1721ZM154.5 1727L154.5 1729L154.5 1729.5L153.5 1729.5L153.5 1729L153.5 1726.5L154.5 1726.5L154.5 1727ZM154.5 1733L154.5 1735L154.5 1735.5L153.5 1735.5L153.5 1735L153.5 1732.5L154.5 1732.5L154.5 1733ZM154.5 1739L154.5 1741L154.5 1741.5L153.5 1741.5L153.5 1741L153.5 1738.5L154.5 1738.5L154.5 1739ZM154.5 1745L154.5 1747L154.5 1747.5L153.5 1747.5L153.5 1747L153.5 1744.5L154.5 1744.5L154.5 1745ZM154.5 1751L154.5 1753L154.5 1753.5L153.5 1753.5L153.5 1753L153.5 1750.5L154.5 1750.5L154.5 1751ZM154.5 1757L154.5 1759.5L153.5 1759.5L153.5 1756.5L154.5 1756.5L154.5 1757Z"/>
		<path transform="translate(0.5 0.5)" d="M154 1759.5L156 1759.5L156.5 1759.5L156.5 1760.5L156 1760.5L153.5 1760.5L153.5 1759.5L154 1759.5ZM160 1759.5L162 1759.5L162.5 1759.5L162.5 1760.5L162 1760.5L159.5 1760.5L159.5 1759.5L160 1759.5ZM166 1759.5L168.5 1759.5L168.5 1760.5L165.5 1760.5L165.5 1759.5L166 1759.5Z"/>
		<path fill="none" stroke="black" stroke-width="1" stroke-linecap="square" stroke-miterlimit="4" transform="translate(0.5 0.5)" d="M154 818L168 818"/>
		<rect fill="silver" x="4" y="1283" width="85" height="21"/>
		<rect fill="white" y="1279" width="85" height="21"/>
		<rect fill="#FFFFC0" x="149" y="8" width="65" height="16"/>
		<text fill="gray" font-size="12" font-weight="600" font-family="Segoe UI" x="149, 155.13477, 161.5918, 169.0332, 175.52539, 178.93555, 185.83789, 192.33008, 198.78711, 206.22852, " y="21, ">
				Label1Type
		</text>
		<rect fill="white" x="5" y="1306" width="121" height="36"/>
		<text fill="gray" font-size="9" font-family="Segoe UI" x="5, 11.785156, 17.076172, 21.782715, 26.875977, 29.055664, 34.148926, 39.44873, 41.914062, 47.007324, 52.280762, 57.374023, 60.50293, 64.321777, 66.787109, 72.060547, 74.877441, 77.342773, 80.392578, 85.48584, 90.192383, 92.657715, 97.94873, 103.22217, 105.40186, 110.49512, 113.54492, 116.01025, 121.28369, " y="1316, ">
				Opening hours of the point of
		</text>
		<text fill="gray" font-size="9" font-family="Segoe UI" x="5, 7.1796875, 12.272949, 15.322754, 20.029297, 23.158203, 27.864746, 31.683594, 34.733398, 37.19873, 41.905273, 46.036133, 51.327148, 54.456055, 59.162598, 62.981445, 66.800293, 71.506836, 76.806641, 79.271973, 81.45166, 86.544922, 89.010254, 94.103516, 98.682617, 101.73242, 106.82568, 109.95459, 114.53369, " y="1328, ">
				interest expressed in natural
		</text>
		<text fill="gray" font-size="9" font-family="Segoe UI" x="5, 7.1796875, 11.758789, 16.852051, 22.151855, 27.245117, 31.824219, 37.124023, " y="1340, ">
				language
		</text>
		<rect fill="white" x="9" y="1281" width="64" height="16"/>
		<text font-size="12" font-weight="600" font-family="Segoe UI" x="9, 16.335938, 23.777344, 30.269531, 37.529297, 46.722656, 54.058594, 61.318359, 66.164062, " y="1294, ">
				openHours
		</text>
		<path fill="none" stroke="black" stroke-width="1" stroke-linecap="square" stroke-miterlimit="4" transform="translate(0.5 0.5)" d="M2 1281L7 1281"/>
		<path fill="none" stroke="black" stroke-width="1" stroke-linecap="square" stroke-miterlimit="4" transform="translate(0.5 0.5)" d="M2 1283L6 1283"/>
		<path fill="none" stroke="black" stroke-width="1" stroke-linecap="square" stroke-miterlimit="4" transform="translate(0.5 0.5)" d="M2 1285L6 1285"/>
		<rect fill="none" stroke="black" stroke-width="1" stroke-linecap="square" stroke-miterlimit="4" transform="translate(0.5 0.5)" y="1279" width="84" height="20"/>
		<path fill="white" d="M246 55L246 36L169 36L169 55L169 1599L316 1599L316 55L246 55Z"/>
		<rect fill="white" x="189" y="38" width="51" height="16"/>
		<text font-size="12" font-style="italic" font-family="Segoe UI" x="189, 195.50391, 199.38281, 203.26172, 207.5332, 210.63867, 217.14258, 223.83984, 227.73047, 233.57227, " y="51, ">
				attributes
		</text>
		<path fill="none" stroke="black" stroke-width="1" stroke-linecap="square" stroke-miterlimit="4" transform="translate(0.5 0.5)" d="M246 55L246 36L169 36L169 55L169 1599L316 1599L316 55L246 55Z"/>
		<rect fill="silver" x="187" y="68" width="52" height="21"/>
		<rect fill="white" x="183" y="64" width="52" height="21"/>
		<rect fill="white" x="188" y="91" width="101" height="24"/>
		<text fill="gray" font-size="9" font-family="Segoe UI" x="188, 192.71533, 197.80859, 202.51514, 204.98047, 207.16016, 212.43359, 216.59082, 221.16992, 223.34961, 225.81494, 227.99463, 233.29443, 238.00098, 243.09424, 246.14404, 248.32373, 251.14062, 253.32031, 258.02686, 261.15576, 263.62109, 268.89453, 271.71143, 274.17676, 277.22656, 282.31982, " y="101, ">
				The local identifier of the
		</text>
		<text fill="gray" font-size="9" font-family="Segoe UI" x="188, 193.29102, 196.41992, 201.69336, 206.98438, 211.69092, 214.81982, 217.86963, 222.22461, " y="113, ">
				property.
		</text>
		<rect fill="white" x="192" y="66" width="36" height="16"/>
		<text font-size="12" font-weight="600" font-family="Segoe UI" x="192, 195.41016, " y="79, ">
				id
		</text>
		<rect fill="none" stroke="black" stroke-width="1" stroke-linecap="square" stroke-miterlimit="4" transform="translate(0.5 0.5)" x="183" y="64" width="51" height="20"/>
		<rect fill="silver" x="187" y="126" width="58" height="21"/>
		<rect fill="white" x="183" y="122" width="58" height="21"/>
		<rect fill="white" x="188" y="149" width="121" height="120"/>
		<text fill="gray" font-size="9" font-family="Segoe UI" x="188, 190.39502, 193.21191, 195.67725, 198.72705, 203.82031, 208.52686, 210.99219, 216.2832, 219.41211, 224.68555, 229.97656, 234.68311, 237.81201, 240.86182, 245.2168, 247.68213, 251.99316, 256.57227, 258.75195, 263.84521, 268.55176, 271.01709, 273.19678, 277.01562, 279.48096, 284.57422, 289.84766, " y="159, ">
				If the property value is not
		</text>
		<text fill="gray" font-size="9" font-family="Segoe UI" x="188, 193.2998, 198.00635, 200.82324, 203.00293, 208.09619, 212.80273, 218.10254, 220.05371, 222.51904, 226.33789, 231.62891, 236.33545, 240.49268, 242.67236, 245.48926, 247.66895, 252.37549, 256.19434, 258.65967, 265.16357, 270.25684, 272.43652, 276.59375, 281.68701, 284.15234, 288.85889, 293.95215, 297.00195, 299.18164, 302.23145, " y="171, ">
				defined, specifies which entity
		</text>
		<text fill="gray" font-size="9" font-family="Segoe UI" x="188, 190.71582, 196.00684, 200.71338, 203.84229, 207.66113, 212.93457, 218.02783, 219.979, 222.44434, 227.71777, 230.84668, 236.14648, 240.72559, 245.81885, 247.99854, 251.81738, 256.39648, 259.44629, 261.62598, 266.89941, 271.99268, 274.45801, 279.73145, " y="183, ">
				(person, organisation or
		</text>
		<text fill="gray" font-size="9" font-family="Segoe UI" x="188, 191.81885, 196.17383, 199.99268, 203.04248, 207.74902, 215.50098, 218.2168, 220.68213, 227.18604, 229.36572, 231.54541, 233.7251, 236.19043, 240.89697, 246.19678, 248.37646, 251.42627, 253.8916, 256.94141, 262.03467, 266.74121, 269.20654, 274.49756, 277.62646, 282.8999, 288.19092, 292.89746, 296.02637, 299.07617, " y="195, ">
				system) will edit the property
		</text>
		<text fill="gray" font-size="9" font-family="Segoe UI" x="188, 192.31104, 196.89014, 199.06982, 204.16309, 208.86963, 211.33496, 214.93408, 217.39941, 222.10596, 226.23682, 231.52783, 234.65674, 239.36328, 243.18213, 247.00098, 251.70752, 257.00732, 259.47266, 264.76367, 269.11865, 271.58398, 276.16309, 278.62842, 285.41357, 290.98584, 296.25928, 301.55908, 306.26562, " y="207, ">
				value - expressed by a QCode.
		</text>
		<text fill="gray" font-size="9" font-family="Segoe UI" x="188, 190.39502, 193.21191, 195.67725, 198.72705, 203.82031, 208.52686, 210.99219, 216.2832, 219.41211, 224.68555, 229.97656, 234.68311, 237.81201, 240.86182, 245.2168, 247.68213, 251.99316, 256.57227, 258.75195, 263.84521, 268.55176, 271.01709, 273.19678, " y="219, ">
				If the property value is
		</text>
		<text fill="gray" font-size="9" font-family="Segoe UI" x="188, 193.2998, 198.00635, 200.82324, 203.00293, 208.09619, 212.80273, 218.10254, 220.05371, 222.51904, 226.33789, 231.62891, 236.33545, 240.49268, 242.67236, 245.48926, 247.66895, 252.37549, 256.19434, 258.65967, 265.16357, 270.25684, 272.43652, 276.59375, 281.68701, 284.15234, 288.85889, 293.95215, 297.00195, 299.18164, 302.23145, " y="231, ">
				defined, specifies which entity
		</text>
		<text fill="gray" font-size="9" font-family="Segoe UI" x="188, 190.71582, 196.00684, 200.71338, 203.84229, 207.66113, 212.93457, 218.02783, 219.979, 222.44434, 227.71777, 230.84668, 236.14648, 240.72559, 245.81885, 247.99854, 251.81738, 256.39648, 259.44629, 261.62598, 266.89941, 271.99268, 274.45801, 279.73145, " y="243, ">
				(person, organisation or
		</text>
		<text fill="gray" font-size="9" font-family="Segoe UI" x="188, 191.81885, 196.17383, 199.99268, 203.04248, 207.74902, 215.50098, 218.2168, 220.68213, 225.77539, 230.35449, 234.17334, 236.63867, 241.34521, 246.64502, 248.82471, 251.87451, 256.58105, 261.88086, 264.34619, 267.396, 272.48926, " y="255, ">
				system) has edited the
		</text>
		<text fill="gray" font-size="9" font-family="Segoe UI" x="188, 193.29102, 196.41992, 201.69336, 206.98438, 211.69092, 214.81982, 217.86963, 222.22461, 224.68994, 229.00098, 233.58008, 235.75977, 240.85303, 245.55957, " y="267, ">
				property value.
		</text>
		<rect fill="white" x="192" y="124" width="42" height="16"/>
		<text font-size="12" font-weight="600" font-family="Segoe UI" x="192, 197.75977, 202.48828, 208.98047, 215.4375, 220.06055, 227.39648, " y="137, ">
				creator
		</text>
		<rect fill="none" stroke="black" stroke-width="1" stroke-linecap="square" stroke-miterlimit="4" transform="translate(0.5 0.5)" x="183" y="122" width="57" height="20"/>
		<rect fill="silver" x="187" y="280" width="73" height="21"/>
		<rect fill="white" x="183" y="276" width="73" height="21"/>
		<rect fill="white" x="188" y="303" width="120" height="108"/>
		<text fill="gray" font-size="9" font-family="Segoe UI" x="188, 190.39502, 193.21191, 195.67725, 198.72705, 203.82031, 208.52686, 210.99219, 216.2832, 219.41211, 224.68555, 229.97656, 234.68311, 237.81201, 240.86182, 245.2168, 247.68213, 251.99316, 256.57227, 258.75195, 263.84521, 268.55176, 271.01709, 273.19678, 277.01562, 279.48096, 284.57422, 289.84766, " y="313, ">
				If the property value is not
		</text>
		<text fill="gray" font-size="9" font-family="Segoe UI" x="188, 193.2998, 198.00635, 200.82324, 203.00293, 208.09619, 212.80273, 218.10254, 220.05371, 222.51904, 226.33789, 231.62891, 236.33545, 240.49268, 242.67236, 245.48926, 247.66895, 252.37549, 256.19434, 258.65967, 265.16357, 270.25684, 272.43652, 276.59375, 281.68701, 284.15234, 288.85889, 293.95215, 297.00195, 299.18164, 302.23145, " y="325, ">
				defined, specifies which entity
		</text>
		<text fill="gray" font-size="9" font-family="Segoe UI" x="188, 190.71582, 196.00684, 200.71338, 203.84229, 207.66113, 212.93457, 218.02783, 219.979, 222.44434, 227.71777, 230.84668, 236.14648, 240.72559, 245.81885, 247.99854, 251.81738, 256.39648, 259.44629, 261.62598, 266.89941, 271.99268, 274.45801, 279.73145, " y="337, ">
				(person, organisation or
		</text>
		<text fill="gray" font-size="9" font-family="Segoe UI" x="188, 191.81885, 196.17383, 199.99268, 203.04248, 207.74902, 215.50098, 218.2168, 220.68213, 227.18604, 229.36572, 231.54541, 233.7251, 236.19043, 240.89697, 246.19678, 248.37646, 251.42627, 253.8916, 256.94141, 262.03467, 266.74121, 269.20654, 274.49756, 277.62646, 282.8999, 288.19092, 292.89746, 296.02637, 299.07617, " y="349, ">
				system) will edit the property
		</text>
		<text fill="gray" font-size="9" font-family="Segoe UI" x="188, 191.59912, 194.06445, 198.771, 202.90186, 208.19287, 211.32178, 216.02832, 219.84717, 223.66602, 228.37256, 233.67236, 236.1377, 241.42871, 245.78369, 248.24902, 252.82812, 255.29346, 261.47656, 266.85986, 269.25488, 271.20605, 273.67139, 276.06641, 278.8833, 281.34863, 284.39844, 289.4917, " y="361, ">
				- expressed by a URI. If the
		</text>
		<text fill="gray" font-size="9" font-family="Segoe UI" x="188, 193.29102, 196.41992, 201.69336, 206.98438, 211.69092, 214.81982, 217.86963, 222.22461, 224.68994, 229.00098, 233.58008, 235.75977, 240.85303, 245.55957, 248.0249, 250.20459, 254.02344, 256.48877, 261.78857, 266.49512, 269.31201, 271.4917, 276.58496, 281.2915, 286.59131, " y="373, ">
				property value is defined,
		</text>
		<text fill="gray" font-size="9" font-family="Segoe UI" x="188, 191.81885, 197.10986, 201.81641, 205.97363, 208.15332, 210.97021, 213.1499, 217.85645, 221.67529, 224.14062, 230.64453, 235.73779, 237.91748, 242.07471, 247.16797, 249.6333, 254.33984, 259.43311, 262.48291, 264.6626, 267.7124, 272.06738, 274.53271, 277.24854, 282.53955, 287.24609, 290.375, 294.19385, 299.46729, 304.56055, " y="385, ">
				specifies which entity (person,
		</text>
		<text fill="gray" font-size="9" font-family="Segoe UI" x="188, 193.27344, 196.40234, 201.70215, 206.28125, 211.37451, 213.5542, 217.37305, 221.95215, 225.00195, 227.18164, 232.45508, 237.54834, 240.01367, 245.28711, 248.41602, 250.88135, 254.7002, 259.05518, 262.87402, 265.92383, 270.63037, 278.38232, 281.09814, 283.56348, 288.65674, 293.23584, " y="397, ">
				organisation or system) has
		</text>
		<text fill="gray" font-size="9" font-family="Segoe UI" x="188, 192.70654, 198.00635, 200.18604, 203.23584, 207.94238, 213.24219, 215.70752, 218.75732, 223.85059, 228.55713, 231.02246, 236.31348, 239.44238, 244.71582, 250.00684, 254.71338, 257.84229, 260.89209, 265.24707, " y="409, ">
				edited the property.
		</text>
		<rect fill="white" x="192" y="278" width="57" height="16"/>
		<text font-size="12" font-weight="600" font-family="Segoe UI" x="192, 197.75977, 202.48828, 208.98047, 215.4375, 220.06055, 227.39648, 232.20703, 239.4668, 244.28906, " y="291, ">
				creatoruri
		</text>
		<rect fill="none" stroke="black" stroke-width="1" stroke-linecap="square" stroke-miterlimit="4" transform="translate(0.5 0.5)" x="183" y="276" width="72" height="20"/>
		<rect fill="silver" x="187" y="422" width="69" height="21"/>
		<rect fill="white" x="183" y="418" width="69" height="21"/>
		<rect fill="white" x="188" y="445" width="119" height="72"/>
		<text fill="gray" font-size="9" font-family="Segoe UI" x="188, 192.71533, 197.80859, 202.51514, 204.98047, 210.28027, 214.85938, 217.90918, 222.61572, 225.08105, 227.79688, 232.37598, 237.46924, 242.76904, 244.72021, 247.18555, 252.45898, 257.75, 260.7998, 262.97949, 268.25293, 273.34619, 277.92529, 280.10498, 282.28467, 286.63965, 288.59082, 291.05615, 294.10596, 299.19922, " y="455, ">
				The date (and, optionally, the
		</text>
		<text fill="gray" font-size="9" font-family="Segoe UI" x="188, 191.0498, 193.22949, 200.98145, 205.68799, 208.40381, 210.86914, 217.37305, 222.46631, 227.17285, 232.26611, 234.73145, 237.78125, 242.87451, 247.58105, 250.04639, 255.3374, 258.46631, 263.73975, 269.03076, 273.7373, 276.86621, 279.91602, 284.271, 286.73633, 293.24023, 297.81934, " y="467, ">
				time) when the property was
		</text>
		<text fill="gray" font-size="9" font-family="Segoe UI" x="188, 190.17969, 194.75879, 198.57764, 201.62744, 204.09277, 211.84473, 217.11816, 222.41797, 224.59766, 227.41455, 229.59424, 234.30078, 239.60059, 241.55176, 244.01709, 248.73242, 253.82568, 258.53223, 260.99756, 263.17725, 268.27051, 270.4502, 273.5, 275.67969, 280.25879, 282.43848, 284.90381, 289.21484, 293.79395, 295.97363, 301.06689, " y="479, ">
				last modified. The initial value
		</text>
		<text fill="gray" font-size="9" font-family="Segoe UI" x="188, 190.17969, 193.99854, 196.46387, 199.51367, 204.60693, 209.31348, 211.77881, 217.07861, 221.65771, 224.70752, 229.41406, 231.87939, 234.59521, 239.17432, 244.26758, 249.56738, 251.51855, 253.98389, 259.25732, 264.54834, 267.59814, 269.77783, 275.05127, 280.14453, 284.72363, 286.90332, 289.08301, 293.43799, " y="491, ">
				is the date (and, optionally,
		</text>
		<text fill="gray" font-size="9" font-family="Segoe UI" x="188, 191.0498, 196.14307, 200.84961, 203.31494, 206.36475, 208.54443, 216.29639, 221.00293, 223.71875, 226.18408, 231.45752, 234.27441, 236.73975, 240.89697, 244.02588, 248.73242, 253.31152, 256.36133, 258.54102, 263.81445, 268.90771, 271.37305, 276.64648, 279.46338, 281.92871, 284.97852, 290.07178, " y="503, ">
				the time) of creation of the
		</text>
		<text fill="gray" font-size="9" font-family="Segoe UI" x="188, 193.29102, 196.41992, 201.69336, 206.98438, 211.69092, 214.81982, 217.86963, 222.22461, " y="515, ">
				property.
		</text>
		<rect fill="white" x="192" y="420" width="53" height="16"/>
		<text font-size="12" font-weight="600" font-family="Segoe UI" x="192, 202.99219, 210.32812, 217.75781, 221.16797, 225.76758, 229.17773, 235.66992, " y="433, ">
				modified
		</text>
		<rect fill="none" stroke="black" stroke-width="1" stroke-linecap="square" stroke-miterlimit="4" transform="translate(0.5 0.5)" x="183" y="418" width="68" height="20"/>
		<rect fill="silver" x="187" y="528" width="59" height="21"/>
		<rect fill="white" x="183" y="524" width="59" height="21"/>
		<rect fill="white" x="188" y="551" width="118" height="108"/>
		<text fill="gray" font-size="9" font-family="Segoe UI" x="188, 190.39502, 193.21191, 195.67725, 199.49609, 204.20264, 207.25244, 209.71777, 212.76758, 218.04102, 220.50635, 223.55615, 226.68506, 231.77832, 236.48486, 238.9502, 242, 247.09326, " y="561, ">
				If set to true the
		</text>
		<text fill="gray" font-size="9" font-family="Segoe UI" x="188, 192.15723, 197.43066, 200.55957, 203.68848, 208.39502, 212.21387, 217.50488, 222.77832, 227.87158, 233.17139, 235.35107, 240.44434, 245.74414, 248.20947, 253.50049, 256.62939, 261.90283, 267.19385, 271.90039, 275.0293, 278.0791, 282.43408, 284.89941, 291.40332, 295.98242, " y="573, ">
				corresponding property was
		</text>
		<text fill="gray" font-size="9" font-family="Segoe UI" x="188, 192.5791, 197.87891, 203.17871, 207.88525, 213.18506, 215.65039, 218.7002, 223.97363, 226.43896, 229.48877, 234.58203, 239.28857, 241.75391, 247.92822, 252.77979, 255.24512, 257.64014, 260.68994, 265.39648, 273.14844, 275.61377, 278.43066, 283.7041, 286.83301, 289.29834, " y="585, ">
				added to the G2 Item for a
		</text>
		<text fill="gray" font-size="9" font-family="Segoe UI" x="188, 191.81885, 197.10986, 201.81641, 205.97363, 208.15332, 210.97021, 213.1499, 217.30713, 219.77246, 223.92969, 229.02295, 232.8418, 235.8916, 241.16504, 248.91699, 253.62354, 256.75244, 259.21777, 264.49121, 267.62012, 270.08545, 275.38525, 278.51416, 283.7876, 288.88086, 294.17188, 296.63721, 301.91064, " y="597, ">
				specific customer or group of
		</text>
		<text fill="gray" font-size="9" font-family="Segoe UI" x="188, 192.15723, 197.25049, 201.06934, 204.11914, 209.39258, 217.14453, 221.85107, 224.97998, 228.79883, 231.26416, 236.5376, 241.63086, 243.81055, 248.16553, 250.1167, 252.58203, 257.29736, 262.39062, 267.09717, 269.5625, 274.8623, 279.56885, 282.38574, 286.96484, 292.05811, 294.23779, " y="609, ">
				customers only. The default
		</text>
		<text fill="gray" font-size="9" font-family="Segoe UI" x="188, 192.31104, 196.89014, 199.06982, 204.16309, 208.86963, 211.33496, 216.6084, 219.42529, 221.89062, 224.94043, 230.03369, 232.21338, 236.03223, 238.49756, 243.78857, 246.91748, 252.19092, 257.48193, 262.18848, 265.31738, 268.36719, 272.72217, 275.1875, 277.36719, 281.18604, 283.65137, 286.46826, 291.04736, 293.22705, 297.0459, " y="621, ">
				value of this property is false
		</text>
		<text fill="gray" font-size="9" font-family="Segoe UI" x="188, 194.50391, 199.59717, 201.77686, 205.93408, 211.02734, 213.49268, 218.07178, 223.36279, 228.65381, 230.8335, 233.01318, 237.71973, 241.53857, 244.00391, 250.50781, 255.60107, 260.30762, 265.40088, 267.86621, 270.91602, 276.00928, 278.18896, " y="633, ">
				which applies when this
		</text>
		<text fill="gray" font-size="9" font-family="Segoe UI" x="188, 192.5791, 195.62891, 198.67871, 201.80762, 203.9873, 209.27832, 214.37158, 217.42139, 222.12793, 224.59326, 226.77295, 230.5918, 233.05713, 238.15039, 243.42383, 246.47363, 248.93896, 254.03223, 257.85107, 262.55762, 267.85742, 270.32275, 276.82666, 279.00635, 282.05615, 287.14941, 289.61475, 292.66455, 297.75781, " y="645, ">
				attribute is not used with the
		</text>
		<text fill="gray" font-size="9" font-family="Segoe UI" x="188, 193.29102, 196.41992, 201.69336, 206.98438, 211.69092, 214.81982, 217.86963, 222.22461, " y="657, ">
				property.
		</text>
		<rect fill="white" x="192" y="526" width="43" height="16"/>
		<text font-size="12" font-weight="600" font-family="Segoe UI" x="192, 197.75977, 205.01953, 210.29883, 214.92188, 222.25781, " y="539, ">
				custom
		</text>
		<rect fill="none" stroke="black" stroke-width="1" stroke-linecap="square" stroke-miterlimit="4" transform="translate(0.5 0.5)" x="183" y="524" width="58" height="20"/>
		<rect fill="silver" x="187" y="670" width="52" height="21"/>
		<rect fill="white" x="183" y="666" width="52" height="21"/>
		<rect fill="white" x="188" y="693" width="118" height="48"/>
		<text fill="gray" font-size="9" font-family="Segoe UI" x="188, 190.39502, 195.48828, 200.78809, 202.96777, 207.125, 211.7041, 214.75391, 219.46045, 223.2793, 225.74463, 231.03564, 235.39062, 237.85596, 244.35986, 249.45312, 251.63281, 255.79004, 260.8833, 263.34863, 271.10059, 275.80713, 280.38623, 285.47949, 289.29834, 291.76367, 294.81348, 299.90674, " y="703, ">
				Indicates by which means the
		</text>
		<text fill="gray" font-size="9" font-family="Segoe UI" x="188, 192.31104, 196.89014, 199.06982, 204.16309, 208.86963, 211.33496, 217.83887, 222.41797, 226.23682, 228.70215, 233.40869, 237.53955, 240.58936, 243.71826, 248.29736, 252.45459, 255.50439, 260.21094, 265.51074, 267.97607, 270.79297, 273.92188, 279.19531, 286.94727, 289.4126, 292.4624, 297.55566, " y="715, ">
				value was extracted from the
		</text>
		<text fill="gray" font-size="9" font-family="Segoe UI" x="188, 192.15723, 197.43066, 202.52393, 205.57373, 210.28027, 215.37354, 218.42334, 220.88867, 224.48779, 226.95312, 231.65967, 235.79053, 241.08154, 244.21045, 248.91699, 252.73584, 256.55469, 261.26123, 266.56104, 269.02637, 274.31738, 278.67236, 281.1377, " y="727, ">
				content - expressed by a
		</text>
		<text fill="gray" font-size="9" font-family="Segoe UI" x="188, 194.78516, 200.35742, 205.63086, 210.93066, " y="739, ">
				QCode
		</text>
		<rect fill="white" x="192" y="668" width="36" height="16"/>
		<text font-size="12" font-weight="600" font-family="Segoe UI" x="192, 199.22461, 206.56055, " y="681, ">
				how
		</text>
		<rect fill="none" stroke="black" stroke-width="1" stroke-linecap="square" stroke-miterlimit="4" transform="translate(0.5 0.5)" x="183" y="666" width="51" height="20"/>
		<rect fill="silver" x="187" y="752" width="57" height="21"/>
		<rect fill="white" x="183" y="748" width="57" height="21"/>
		<rect fill="white" x="188" y="775" width="118" height="36"/>
		<text fill="gray" font-size="9" font-family="Segoe UI" x="188, 190.39502, 195.48828, 200.78809, 202.96777, 207.125, 211.7041, 214.75391, 219.46045, 223.2793, 225.74463, 231.03564, 235.39062, 237.85596, 244.35986, 249.45312, 251.63281, 255.79004, 260.8833, 263.34863, 271.10059, 275.80713, 280.38623, 285.47949, 289.29834, 291.76367, 294.81348, 299.90674, " y="785, ">
				Indicates by which means the
		</text>
		<text fill="gray" font-size="9" font-family="Segoe UI" x="188, 192.31104, 196.89014, 199.06982, 204.16309, 208.86963, 211.33496, 217.83887, 222.41797, 226.23682, 228.70215, 233.40869, 237.53955, 240.58936, 243.71826, 248.29736, 252.45459, 255.50439, 260.21094, 265.51074, 267.97607, 270.79297, 273.92188, 279.19531, 286.94727, 289.4126, 292.4624, 297.55566, " y="797, ">
				value was extracted from the
		</text>
		<text fill="gray" font-size="9" font-family="Segoe UI" x="188, 192.15723, 197.43066, 202.52393, 205.57373, 210.28027, 215.37354, 218.42334, 220.88867, 224.48779, 226.95312, 231.65967, 235.79053, 241.08154, 244.21045, 248.91699, 252.73584, 256.55469, 261.26123, 266.56104, 269.02637, 274.31738, 278.67236, 281.1377, 285.7168, 288.18213, 294.36523, 299.74854, " y="809, ">
				content - expressed by a URI
		</text>
		<rect fill="white" x="192" y="750" width="41" height="16"/>
		<text font-size="12" font-weight="600" font-family="Segoe UI" x="192, 199.22461, 206.56055, 216.12891, 223.38867, 228.21094, " y="763, ">
				howuri
		</text>
		<rect fill="none" stroke="black" stroke-width="1" stroke-linecap="square" stroke-miterlimit="4" transform="translate(0.5 0.5)" x="183" y="748" width="56" height="20"/>
		<rect fill="silver" x="187" y="822" width="52" height="21"/>
		<rect fill="white" x="183" y="818" width="52" height="21"/>
		<rect fill="white" x="188" y="845" width="113" height="36"/>
		<text fill="gray" font-size="9" font-family="Segoe UI" x="188, 196.40674, 201.5, 205.85498, 208.32031, 211.37012, 216.46338, 221.16992, 223.63525, 231.38721, 236.09375, 239.14355, 243.72266, 249.02246, 253.60156, 256.65137, 261.23047, 263.6958, 268.78906, 273.36816, 277.18701, 279.65234, 284.94336, 289.6499, 294.35645, " y="855, ">
				Why the metadata has been
		</text>
		<text fill="gray" font-size="9" font-family="Segoe UI" x="188, 190.17969, 195.27295, 199.43018, 201.60986, 206.70312, 212.00293, 216.70947, 222.00928, 224.47461, 228.07373, 230.53906, 235.24561, 239.37646, 244.66748, 247.79639, 252.50293, 256.32178, 260.14062, 264.84717, 270.14697, 272.6123, 277.90332, 282.2583, 284.72363, " y="867, ">
				included - expressed by a
		</text>
		<text fill="gray" font-size="9" font-family="Segoe UI" x="188, 194.78516, 200.35742, 205.63086, 210.93066, " y="879, ">
				QCode
		</text>
		<rect fill="white" x="192" y="820" width="36" height="16"/>
		<text font-size="12" font-weight="600" font-family="Segoe UI" x="192, 201.56836, 208.79297, " y="833, ">
				why
		</text>
		<rect fill="none" stroke="black" stroke-width="1" stroke-linecap="square" stroke-miterlimit="4" transform="translate(0.5 0.5)" x="183" y="818" width="51" height="20"/>
		<rect fill="silver" x="187" y="892" width="56" height="21"/>
		<rect fill="white" x="183" y="888" width="56" height="21"/>
		<rect fill="white" x="188" y="915" width="119" height="24"/>
		<text fill="gray" font-size="9" font-family="Segoe UI" x="188, 196.40674, 201.5, 205.85498, 208.32031, 211.37012, 216.46338, 221.16992, 223.63525, 231.38721, 236.09375, 239.14355, 243.72266, 249.02246, 253.60156, 256.65137, 261.23047, 263.6958, 268.78906, 273.36816, 277.18701, 279.65234, 284.94336, 289.6499, 294.35645, " y="925, ">
				Why the metadata has been
		</text>
		<text fill="gray" font-size="9" font-family="Segoe UI" x="188, 190.17969, 195.27295, 199.43018, 201.60986, 206.70312, 212.00293, 216.70947, 222.00928, 224.47461, 228.07373, 230.53906, 235.24561, 239.37646, 244.66748, 247.79639, 252.50293, 256.32178, 260.14062, 264.84717, 270.14697, 272.6123, 277.90332, 282.2583, 284.72363, 289.30273, 291.76807, 297.95117, 303.33447, " y="937, ">
				included - expressed by a URI
		</text>
		<rect fill="white" x="192" y="890" width="40" height="16"/>
		<text font-size="12" font-weight="600" font-family="Segoe UI" x="192, 201.56836, 208.79297, 215.25, 222.50977, 227.33203, " y="903, ">
				whyuri
		</text>
		<rect fill="none" stroke="black" stroke-width="1" stroke-linecap="square" stroke-miterlimit="4" transform="translate(0.5 0.5)" x="183" y="888" width="55" height="20"/>
		<rect fill="silver" x="187" y="950" width="97" height="21"/>
		<rect fill="white" x="183" y="946" width="97" height="21"/>
		<rect fill="white" x="188" y="973" width="117" height="72"/>
		<text fill="gray" font-size="9" font-family="Segoe UI" x="188, 194.78516, 199.87842, 204.58496, 207.05029, 212.32373, 215.45264, 217.91797, 225.66992, 230.24902, 235.34229, 239.69727, 242.1626, 246.31982, 251.59326, 256.68652, 260.50537, 263.55518, 266.68408, 271.26318, 273.44287, 278.53613, 281.58594, 285.40479, 287.87012, 290.91992, 296.01318, 300.59229, " y="983, ">
				One or many constraints that
		</text>
		<text fill="gray" font-size="9" font-family="Segoe UI" x="188, 192.5791, 197.87012, 203.16113, 205.34082, 209.6958, 212.16113, 215.21094, 220.48438, 222.94971, 228.24072, 233.33398, 238.625, 240.80469, 242.98438, 246.80322, 251.89648, 254.07617, 259.16943, 264.46924, 266.93457, 269.98438, 275.07764, 279.78418, 282.24951, 286.56055, 291.13965, 293.31934, 298.4126, " y="995, ">
				apply to publishing the value
		</text>
		<text fill="gray" font-size="9" font-family="Segoe UI" x="188, 193.27344, 196.09033, 198.55566, 201.60547, 206.69873, 211.40527, 213.87061, 219.16162, 222.29053, 227.56396, 232.85498, 237.56152, 240.69043, 243.74023, 248.09521, 250.56055, 254.15967, 256.625, 261.33154, 265.4624, 270.75342, 273.88232, 278.58887, 282.40771, 286.22656, 290.93311, " y="1007, ">
				of the property - expressed
		</text>
		<text fill="gray" font-size="9" font-family="Segoe UI" x="188, 193.29102, 197.646, 200.11133, 204.69043, 207.15576, 213.94092, 219.51318, 224.78662, 230.08643, 234.79297, 236.74414, 239.20947, 243.76221, 248.34131, 252.49854, 257.5918, 260.05713, 264.21436, 269.48779, 274.58105, 278.3999, 281.44971, 284.57861, 289.15771, 291.3374, 296.43066, " y="1019, ">
				by a QCode. Each constraint
		</text>
		<text fill="gray" font-size="9" font-family="Segoe UI" x="188, 192.5791, 197.87012, 203.16113, 205.34082, 207.52051, 212.22705, 216.0459, 218.51123, 221.56104, 226.83447, 229.2998, 233.87891, 236.05859, 238.23828, 240.70361, 246.00342, 250.70996, 254.52881, 258.68604, 263.39258, 268.48584, 273.78564, 278.36475, 283.45801, " y="1031, ">
				applies to all descendant
		</text>
		<text fill="gray" font-size="9" font-family="Segoe UI" x="188, 192.70654, 194.88623, 199.59277, 207.34473, 212.05127, 217.14453, 220.19434, 224.01318, " y="1043, ">
				elements.
		</text>
		<rect fill="white" x="192" y="948" width="81" height="16"/>
		<text font-size="12" font-weight="600" font-family="Segoe UI" x="192, 199.44141, 206.70117, 214.14258, 219.90234, 227.23828, 234.49805, 239.77734, 244.44727, 249.22266, 255.67969, 259.08984, 266.34961, " y="961, ">
				pubconstraint
		</text>
		<rect fill="none" stroke="black" stroke-width="1" stroke-linecap="square" stroke-miterlimit="4" transform="translate(0.5 0.5)" x="183" y="946" width="96" height="20"/>
		<rect fill="silver" x="187" y="1056" width="112" height="21"/>
		<rect fill="white" x="183" y="1052" width="112" height="21"/>
		<rect fill="white" x="188" y="1079" width="117" height="72"/>
		<text fill="gray" font-size="9" font-family="Segoe UI" x="188, 194.78516, 199.87842, 204.58496, 207.05029, 212.32373, 215.45264, 217.91797, 225.66992, 230.24902, 235.34229, 239.69727, 242.1626, 246.31982, 251.59326, 256.68652, 260.50537, 263.55518, 266.68408, 271.26318, 273.44287, 278.53613, 281.58594, 285.40479, 287.87012, 290.91992, 296.01318, 300.59229, " y="1089, ">
				One or many constraints that
		</text>
		<text fill="gray" font-size="9" font-family="Segoe UI" x="188, 192.5791, 197.87012, 203.16113, 205.34082, 209.6958, 212.16113, 215.21094, 220.48438, 222.94971, 228.24072, 233.33398, 238.625, 240.80469, 242.98438, 246.80322, 251.89648, 254.07617, 259.16943, 264.46924, 266.93457, 269.98438, 275.07764, 279.78418, 282.24951, 286.56055, 291.13965, 293.31934, 298.4126, " y="1101, ">
				apply to publishing the value
		</text>
		<text fill="gray" font-size="9" font-family="Segoe UI" x="188, 193.27344, 196.09033, 198.55566, 201.60547, 206.69873, 211.40527, 213.87061, 219.16162, 222.29053, 227.56396, 232.85498, 237.56152, 240.69043, 243.74023, 248.09521, 250.56055, 254.15967, 256.625, 261.33154, 265.4624, 270.75342, 273.88232, 278.58887, 282.40771, 286.22656, 290.93311, " y="1113, ">
				of the property - expressed
		</text>
		<text fill="gray" font-size="9" font-family="Segoe UI" x="188, 193.29102, 197.646, 200.11133, 204.69043, 207.15576, 213.33887, 218.72217, 221.11719, 223.06836, 225.53369, 230.08643, 234.66553, 238.82275, 243.91602, 246.38135, 250.53857, 255.81201, 260.90527, 264.72412, 267.77393, 270.90283, 275.48193, 277.66162, 282.75488, " y="1125, ">
				by a URI. Each constraint
		</text>
		<text fill="gray" font-size="9" font-family="Segoe UI" x="188, 192.5791, 197.87012, 203.16113, 205.34082, 207.52051, 212.22705, 216.0459, 218.51123, 221.56104, 226.83447, 229.2998, 233.87891, 236.05859, 238.23828, 240.70361, 246.00342, 250.70996, 254.52881, 258.68604, 263.39258, 268.48584, 273.78564, 278.36475, 283.45801, " y="1137, ">
				applies to all descendant
		</text>
		<text fill="gray" font-size="9" font-family="Segoe UI" x="188, 192.70654, 194.88623, 199.59277, 207.34473, 212.05127, 217.14453, 220.19434, 224.01318, " y="1149, ">
				elements.
		</text>
		<rect fill="white" x="192" y="1054" width="96" height="16"/>
		<text font-size="12" font-weight="600" font-family="Segoe UI" x="192, 199.44141, 206.70117, 214.14258, 219.90234, 227.23828, 234.49805, 239.77734, 244.44727, 249.22266, 255.67969, 259.08984, 266.34961, 271.01953, 278.2793, 283.10156, " y="1067, ">
				pubconstrainturi
		</text>
		<rect fill="none" stroke="black" stroke-width="1" stroke-linecap="square" stroke-miterlimit="4" transform="translate(0.5 0.5)" x="183" y="1052" width="111" height="20"/>
		<rect fill="silver" x="187" y="1162" width="66" height="21"/>
		<rect fill="white" x="183" y="1158" width="66" height="21"/>
		<rect fill="white" x="188" y="1185" width="121" height="84"/>
		<text fill="gray" font-size="9" font-family="Segoe UI" x="188, 192.78125, 198.07227, 202.77881, 206.93604, 209.11572, 211.93262, 214.1123, 218.81885, 222.6377, 225.10303, 228.15283, 233.24609, 237.95264, 240.41797, 242.59766, 247.17676, 252.27002, 257.56982, 262.66309, 267.24219, 272.54199, 277.24854, 279.71387, 284.9873, 287.8042, 290.26953, 293.31934, 298.4126, 300.59229, " y="1195, ">
				Specifies the language of this
		</text>
		<text fill="gray" font-size="9" font-family="Segoe UI" x="188, 193.29102, 196.41992, 201.69336, 206.98438, 211.69092, 214.81982, 217.86963, 222.22461, 224.68994, 229.26904, 234.3623, 239.66211, 242.12744, 247.41846, 252.69189, 255.7417, 260.44824, 265.5415, 268.59131, 270.771, 275.3501, 277.52979, 279.70947, 284.06445, 286.52979, 291.10889, 293.28857, " y="1207, ">
				property and potentially all
		</text>
		<text fill="gray" font-size="9" font-family="Segoe UI" x="188, 193.2998, 198.00635, 201.8252, 205.98242, 210.68896, 215.78223, 221.08203, 225.66113, 230.75439, 233.8042, 236.26953, 241.56055, 244.68945, 249.96289, 255.25391, 259.96045, 263.08936, 266.13916, 268.31885, 273.02539, 276.84424, " y="1219, ">
				descendant properties.
		</text>
		<text fill="gray" font-size="9" font-family="Segoe UI" x="188, 192.13086, 199.88281, 202.0625, 204.01367, 206.19336, 210.77246, 215.86572, 221.16553, 223.63086, 227.94189, 232.521, 234.70068, 239.79395, 244.50049, 248.31934, 250.78467, 256.05811, 258.875, 261.34033, 266.64014, 271.34668, 275.16553, 279.32275, 284.0293, 289.12256, 294.42236, 299.00146, 304.09473, " y="1231, ">
				xml:lang values of descendant
		</text>
		<text fill="gray" font-size="9" font-family="Segoe UI" x="188, 193.29102, 196.41992, 201.69336, 206.98438, 211.69092, 214.81982, 217.86963, 220.04932, 224.75586, 228.57471, 231.04004, 236.31348, 240.62451, 245.33105, 248.45996, 251.58887, 253.76855, 259.06836, 263.7749, 266.24023, 269.29004, 274.3833, 276.56299, 280.38184, 282.84717, 287.1582, 291.7373, 293.91699, 299.01025, 303.7168, " y="1243, ">
				properties override this value.
		</text>
		<text fill="gray" font-size="9" font-family="Segoe UI" x="188, 192.93066, 197.50977, 199.68945, 204.78271, 209.48926, 213.30811, 215.77344, 220.35254, 223.48145, 228.18799, 230.65332, 235.95312, 240.65967, 243.70947, 248.41602, 251.54492, 259.29688, 261.47656, 266.56982, 271.27637, 276.57617, 279.0415, 284.33252, " y="1255, ">
				Values are determined by
		</text>
		<text fill="gray" font-size="9" font-family="Segoe UI" x="188, 190.39502, 195.48828, 198.53809, 203.24463, 206.37354, 211.4668, 216.17334, 219.22314, 221.68848, 226.84766, 232.41992, 237.46045, 239.92578, 244.77734, 249.62891, " y="1267, ">
				Internet BCP 47.
		</text>
		<rect fill="white" x="192" y="1160" width="50" height="16"/>
		<text font-size="12" font-weight="600" font-family="Segoe UI" x="192, 198.62695, 209.61914, 213.0293, 216.28125, 219.69141, 226.14844, 233.4082, " y="1173, ">
				xml:lang
		</text>
		<path fill="none" stroke="black" stroke-width="2" stroke-miterlimit="4" transform="translate(0.5 0.5)" d="M185 1176L189 1172"/>
		<path fill="none" stroke="black" stroke-width="1" stroke-linecap="square" stroke-miterlimit="4" transform="translate(0.5 0.5)" d="M186 1172L189 1172L189 1175"/>
		<rect fill="none" stroke="black" stroke-width="1" stroke-linecap="square" stroke-miterlimit="4" transform="translate(0.5 0.5)" x="183" y="1158" width="65" height="20"/>
		<rect fill="silver" x="187" y="1280" width="52" height="21"/>
		<rect fill="white" x="183" y="1276" width="52" height="21"/>
		<rect fill="white" x="188" y="1303" width="116" height="24"/>
		<text fill="gray" font-size="9" font-family="Segoe UI" x="188, 192.71533, 197.80859, 202.51514, 204.98047, 210.28027, 212.45996, 215.58887, 220.29541, 224.45264, 227.50244, 229.68213, 234.95557, 240.04883, 244.62793, 246.80762, 248.9873, 252.03711, 256.39209, 258.85742, 264.13086, 266.94775, 269.41309, 272.46289, 277.16943, 281.30029, 284.3501, 289.44336, 294.02246, " y="1313, ">
				The directionality of textual
		</text>
		<text fill="gray" font-size="9" font-family="Segoe UI" x="188, 192.15723, 197.43066, 202.52393, 205.57373, 210.28027, 215.37354, 218.42334, 220.88867, 223.60449, 228.31104, 233.4043, 238.49756, 246.24951, 250.95605, 254.08496, 258.66406, 261.71387, 263.89355, 269.16699, 274.26025, 276.21143, 278.67676, 280.85645, 283.90625, 287.03516, 288.98633, 291.45166, 294.58057, 297.63037, 299.81006, " y="1325, ">
				content (enumeration: ltr, rtl)
		</text>
		<rect fill="white" x="192" y="1278" width="36" height="16"/>
		<text font-size="12" font-weight="600" font-family="Segoe UI" x="192, 199.42969, 202.83984, " y="1291, ">
				dir
		</text>
		<rect fill="none" stroke="black" stroke-width="1" stroke-linecap="square" stroke-miterlimit="4" transform="translate(0.5 0.5)" x="183" y="1276" width="51" height="20"/>
		<rect fill="silver" x="187" y="1338" width="52" height="21"/>
		<rect fill="white" x="183" y="1334" width="52" height="21"/>
		<rect fill="white" x="188" y="1361" width="120" height="36"/>
		<text fill="gray" font-size="9" font-family="Segoe UI" x="188, 193.80518, 196.27051, 199.39941, 204.10596, 206.92285, 209.10254, 214.1958, 218.90234, 226.6543, 231.36084, 236.4541, 239.50391, 241.96924, 247.24268, 250.05957, 252.5249, 255.57471, 260.66797, 265.37451, 267.83984, 271.65869, 276.36523, 284.11719, 288.69629, 293.78955, 296.83936, 299.01904, 303.17627, " y="1371, ">
				A refinement of the semantics
		</text>
		<text fill="gray" font-size="9" font-family="Segoe UI" x="188, 193.27344, 196.09033, 198.55566, 201.60547, 206.69873, 211.40527, 213.87061, 216.05029, 220.62939, 225.92041, 230.62695, 232.80664, 235.27197, 238.87109, 241.33643, 246.04297, 250.17383, 255.46484, 258.59375, 263.30029, 267.11914, 270.93799, 275.64453, 280.94434, 283.40967, 288.70068, 293.05566, 295.521, " y="1383, ">
				of the label - expressed by a
		</text>
		<text fill="gray" font-size="9" font-family="Segoe UI" x="188, 194.78516, 200.35742, 205.63086, 210.93066, " y="1395, ">
				QCode
		</text>
		<rect fill="white" x="192" y="1336" width="36" height="16"/>
		<text font-size="12" font-weight="600" font-family="Segoe UI" x="192, 196.72852, 204.06445, 207.47461, " y="1349, ">
				role
		</text>
		<rect fill="none" stroke="black" stroke-width="1" stroke-linecap="square" stroke-miterlimit="4" transform="translate(0.5 0.5)" x="183" y="1334" width="51" height="20"/>
		<rect fill="silver" x="187" y="1408" width="55" height="21"/>
		<rect fill="white" x="183" y="1404" width="55" height="21"/>
		<rect fill="white" x="188" y="1431" width="120" height="36"/>
		<text fill="gray" font-size="9" font-family="Segoe UI" x="188, 193.80518, 196.27051, 199.39941, 204.10596, 206.92285, 209.10254, 214.1958, 218.90234, 226.6543, 231.36084, 236.4541, 239.50391, 241.96924, 247.24268, 250.05957, 252.5249, 255.57471, 260.66797, 265.37451, 267.83984, 271.65869, 276.36523, 284.11719, 288.69629, 293.78955, 296.83936, 299.01904, 303.17627, " y="1441, ">
				A refinement of the semantics
		</text>
		<text fill="gray" font-size="9" font-family="Segoe UI" x="188, 193.27344, 196.09033, 198.55566, 201.60547, 206.69873, 211.40527, 213.87061, 216.05029, 220.62939, 225.92041, 230.62695, 232.80664, 235.27197, 238.87109, 241.33643, 246.04297, 250.17383, 255.46484, 258.59375, 263.30029, 267.11914, 270.93799, 275.64453, 280.94434, 283.40967, 288.70068, 293.05566, 295.521, " y="1453, ">
				of the label - expressed by a
		</text>
		<text fill="gray" font-size="9" font-family="Segoe UI" x="188, 194.18311, 199.56641, " y="1465, ">
				URI
		</text>
		<rect fill="white" x="192" y="1406" width="39" height="16"/>
		<text font-size="12" font-weight="600" font-family="Segoe UI" x="192, 196.72852, 204.06445, 207.47461, 213.9668, 221.22656, 226.04883, " y="1419, ">
				roleuri
		</text>
		<rect fill="none" stroke="black" stroke-width="1" stroke-linecap="square" stroke-miterlimit="4" transform="translate(0.5 0.5)" x="183" y="1404" width="54" height="20"/>
		<rect fill="silver" x="187" y="1478" width="52" height="21"/>
		<rect fill="white" x="183" y="1474" width="52" height="21"/>
		<rect fill="white" x="188" y="1501" width="106" height="60"/>
		<text fill="gray" font-size="9" font-family="Segoe UI" x="188, 193.80518, 198.89844, 201.36377, 203.54346, 208.63672, 213.93652, 216.11621, 220.27344, 224.85254, 227.90234, 230.08203, 235.35547, 240.44873, 242.91406, 248.1875, 251.00439, 253.46973, 256.51953, 261.61279, 266.31934, 268.78467, 271.83447, 276.41357, 279.54248, 284.84229, 289.54883, " y="1511, ">
				An indication of the target
		</text>
		<text fill="gray" font-size="9" font-family="Segoe UI" x="188, 195.75195, 200.4585, 205.7583, 207.93799, 212.51709, 214.98242, 218.03223, 222.38721, 227.67822, 232.38477, 235.10059, 238.91943, 241.63525, 243.58643, 246.05176, 250.36279, 254.94189, 257.12158, 262.21484, 266.92139, 270.74023, 273.20557, 277.78467, " y="1523, ">
				media type(s), values as
		</text>
		<text fill="gray" font-size="9" font-family="Segoe UI" x="188, 193.2998, 198.00635, 200.82324, 203.00293, 208.09619, 212.80273, 218.10254, 220.56787, 225.85889, 230.21387, 232.6792, 235.729, 240.82227, 245.52881, 247.99414, 253.56641, 258.14551, 261.96436, 266.12158, 270.70068, 276.00049, 278.18018, 283.27344, " y="1535, ">
				defined by the Cascading
		</text>
		<text fill="gray" font-size="9" font-family="Segoe UI" x="188, 192.49121, 195.54102, 199.896, 202.07568, 206.78223, 209.24756, 214.02881, 219.12207, 223.82861, 228.53516, 231.58496, 235.40381, 237.86914, 241.68799, 246.979, 251.68555, 255.84277, 258.02246, 260.83936, 263.01904, 267.17627, 271.75537, 274.80518, 276.98486, 282.2583, " y="1547, ">
				Style Sheets specification
		</text>
		<text fill="gray" font-size="9" font-family="Segoe UI" x="188, 190.71582, 196.28809, 201.06934, 205.85059, 208.56641, " y="1559, ">
				[CSS].
		</text>
		<rect fill="white" x="192" y="1476" width="36" height="16"/>
		<text font-size="12" font-weight="600" font-family="Segoe UI" x="192, 202.99219, 209.48438, 216.91406, 220.32422, " y="1489, ">
				media
		</text>
		<rect fill="none" stroke="black" stroke-width="1" stroke-linecap="square" stroke-miterlimit="4" transform="translate(0.5 0.5)" x="183" y="1474" width="51" height="20"/>
		<path fill="silver" d="M187 1577L192 1572L260 1572L265 1577L265 1588L260 1593L192 1593L187 1588L187 1577Z"/>
		<path fill="white" d="M183 1573L188 1568L256 1568L261 1573L261 1584L256 1589L188 1589L183 1584L183 1573Z"/>
		<rect fill="white" x="210" y="1570" width="46" height="16"/>
		<text font-size="12" font-weight="600" font-family="Segoe UI" x="210, 217.10742, 224.21484, 231.55078, 236.2207, 243.44531, 249.9375, " y="1583, ">
				##other
		</text>
		<rect fill="white" x="188" y="1570" width="20" height="16"/>
		<text fill="gray" font-size="12" font-family="Segoe UI" x="188, 194.10547, 200.89648, " y="1583, ">
				any
		</text>
		<path fill="none" stroke="black" stroke-width="1" stroke-linecap="square" stroke-miterlimit="4" transform="translate(0.5 0.5)" d="M183 1573L188 1568L255 1568L260 1573L260 1583L255 1588L188 1588L183 1583L183 1573Z"/>
		<rect x="174" y="41" width="11" height="11"/>
		<rect fill="white" x="175" y="42" width="9" height="9"/>
		<rect x="176" y="46" width="7" height="1"/>
		<path fill="none" stroke="black" stroke-width="1" stroke-linecap="square" stroke-miterlimit="4" transform="translate(0.5 0.5)" d="M214 1760L222 1760"/>
		<path fill="none" stroke="black" stroke-width="1" stroke-linecap="square" stroke-miterlimit="4" transform="translate(0.5 0.5)" d="M223 1760L223 1623"/>
		<path fill="none" stroke="black" stroke-width="1" stroke-linecap="square" stroke-miterlimit="4" transform="translate(0.5 0.5)" d="M223 1760L223 1897"/>
		<path fill="none" stroke="black" stroke-width="1" stroke-linecap="square" stroke-miterlimit="4" transform="translate(0.5 0.5)" d="M223 1622L237 1622"/>
		<path fill="none" stroke="black" stroke-width="1" stroke-linecap="square" stroke-miterlimit="4" transform="translate(0.5 0.5)" d="M223 1685L237 1685"/>
		<path fill="none" stroke="black" stroke-width="1" stroke-linecap="square" stroke-miterlimit="4" transform="translate(0.5 0.5)" d="M223 1760L237 1760"/>
		<path fill="none" stroke="black" stroke-width="1" stroke-linecap="square" stroke-miterlimit="4" transform="translate(0.5 0.5)" d="M223 1835L237 1835"/>
		<path fill="none" stroke="black" stroke-width="1" stroke-linecap="square" stroke-miterlimit="4" transform="translate(0.5 0.5)" d="M223 1898L237 1898"/>
		<path fill="silver" d="M176 1762L181 1757L206 1757L211 1762L211 1773L206 1778L181 1778L176 1773L176 1762Z"/>
		<path fill="white" d="M172 1758L177 1753L201 1753L206 1758L206 1768L201 1773L177 1773L172 1768L172 1758Z"/>
		<path transform="translate(0.5 0.5)" d="M175.889 1753.4L176.793 1752.5L177.929 1752.5L178.429 1752.5L178.429 1753.5L177.929 1753.5L177 1753.5L177 1753L177.354 1753.35L176.243 1754.46L175.536 1753.76L175.889 1753.4ZM181.929 1752.5L183.929 1752.5L184.429 1752.5L184.429 1753.5L183.929 1753.5L181.429 1753.5L181.429 1752.5L181.929 1752.5ZM187.929 1752.5L189.929 1752.5L190.429 1752.5L190.429 1753.5L189.929 1753.5L187.429 1753.5L187.429 1752.5L187.929 1752.5ZM193.929 1752.5L195.929 1752.5L196.429 1752.5L196.429 1753.5L195.929 1753.5L193.429 1753.5L193.429 1752.5L193.929 1752.5ZM199.929 1752.5L201.207 1752.5L202.01 1753.3L202.364 1753.66L201.657 1754.36L201.303 1754.01L200.646 1753.35L201 1753L201 1753.5L199.429 1753.5L199.429 1752.5L199.929 1752.5ZM204.839 1756.13L206.253 1757.55L206.607 1757.9L205.899 1758.61L205.546 1758.25L203.778 1756.49L204.485 1755.78L204.839 1756.13ZM206.5 1761.86L206.5 1763.86L206.5 1764.36L205.5 1764.36L205.5 1763.86L205.5 1761.36L206.5 1761.36L206.5 1761.86ZM206.5 1767.86L206.5 1768.21L205.04 1769.67L204.686 1770.02L203.979 1769.31L204.333 1768.96L205.646 1767.65L206 1768L205.5 1768L205.5 1767.36L206.5 1767.36L206.5 1767.86ZM202.211 1772.5L201.207 1773.5L200.213 1773.5L199.713 1773.5L199.713 1772.5L200.213 1772.5L201 1772.5L201 1773L200.646 1772.65L201.858 1771.44L202.565 1772.14L202.211 1772.5ZM196.213 1773.5L194.213 1773.5L193.713 1773.5L193.713 1772.5L194.213 1772.5L196.713 1772.5L196.713 1773.5L196.213 1773.5ZM190.213 1773.5L188.213 1773.5L187.713 1773.5L187.713 1772.5L188.213 1772.5L190.713 1772.5L190.713 1773.5L190.213 1773.5ZM184.213 1773.5L182.213 1773.5L181.713 1773.5L181.713 1772.5L182.213 1772.5L184.713 1772.5L184.713 1773.5L184.213 1773.5ZM178.213 1773.5L176.793 1773.5L176.09 1772.8L175.737 1772.44L176.444 1771.74L176.797 1772.09L177.354 1772.65L177 1773L177 1772.5L178.713 1772.5L178.713 1773.5L178.213 1773.5ZM173.262 1769.97L171.847 1768.55L171.494 1768.2L172.201 1767.49L172.555 1767.85L174.322 1769.62L173.615 1770.32L173.262 1769.97ZM171.5 1764.28L171.5 1762.28L171.5 1761.78L172.5 1761.78L172.5 1762.28L172.5 1764.78L171.5 1764.78L171.5 1764.28ZM171.5 1758.28L171.5 1757.79L173.414 1755.88L174.121 1756.59L172.354 1758.35L172 1758L172.5 1758L172.5 1758.78L171.5 1758.78L171.5 1758.28Z"/>
		<path fill="white" d="M169 1755L174 1750L199 1750L204 1755L204 1766L199 1771L174 1771L169 1766L169 1755Z"/>
		<path fill="none" stroke="black" stroke-width="1" stroke-linecap="square" stroke-miterlimit="4" transform="translate(0.5 0.5)" d="M188 1771L194 1777L197 1774"/>
		<path fill="none" stroke="black" stroke-width="1" stroke-linecap="square" stroke-miterlimit="4" transform="translate(0.5 0.5)" d="M174 1760L179 1760L183 1756"/>
		<path fill="none" stroke="black" stroke-width="1" stroke-linecap="square" stroke-miterlimit="4" transform="translate(0.5 0.5)" d="M189 1760L197 1760"/>
		<path fill="none" stroke="black" stroke-width="1" stroke-linecap="square" stroke-miterlimit="4" transform="translate(0.5 0.5)" d="M189 1756L193 1756L193 1764L189 1764"/>
		<rect x="185" y="1755" width="3" height="3"/>
		<rect x="185" y="1759" width="3" height="3"/>
		<rect x="185" y="1763" width="3" height="3"/>
		<text font-size="12" font-family="Segoe UI" x="173.76562, " y="1790, ">
				0
		</text>
		<text font-size="12" font-family="Symbol" x="188.72266, " y="1789, ">
				
		</text>
		<text font-size="12" font-family="Segoe UI" x="181.89844, 184.5, " y="1790, ">
				..
		</text>
		<path transform="translate(0.5 0.5)" d="M172.889 1750.4L173.793 1749.5L174.929 1749.5L175.429 1749.5L175.429 1750.5L174.929 1750.5L174 1750.5L174 1750L174.354 1750.35L173.243 1751.46L172.536 1750.76L172.889 1750.4ZM178.929 1749.5L180.929 1749.5L181.429 1749.5L181.429 1750.5L180.929 1750.5L178.429 1750.5L178.429 1749.5L178.929 1749.5ZM184.929 1749.5L186.929 1749.5L187.429 1749.5L187.429 1750.5L186.929 1750.5L184.429 1750.5L184.429 1749.5L184.929 1749.5ZM190.929 1749.5L192.929 1749.5L193.429 1749.5L193.429 1750.5L192.929 1750.5L190.429 1750.5L190.429 1749.5L190.929 1749.5ZM196.929 1749.5L198.207 1749.5L199.01 1750.3L199.364 1750.66L198.657 1751.36L198.303 1751.01L197.646 1750.35L198 1750L198 1750.5L196.429 1750.5L196.429 1749.5L196.929 1749.5ZM201.839 1753.13L203.253 1754.55L203.607 1754.9L202.899 1755.61L202.546 1755.25L200.778 1753.49L201.485 1752.78L201.839 1753.13ZM203.5 1758.86L203.5 1760.86L203.5 1761.36L202.5 1761.36L202.5 1760.86L202.5 1758.36L203.5 1758.36L203.5 1758.86ZM203.5 1764.86L203.5 1765.21L202.04 1766.67L201.686 1767.02L200.979 1766.31L201.333 1765.96L202.646 1764.65L203 1765L202.5 1765L202.5 1764.36L203.5 1764.36L203.5 1764.86ZM199.211 1769.5L198.207 1770.5L197.213 1770.5L196.713 1770.5L196.713 1769.5L197.213 1769.5L198 1769.5L198 1770L197.646 1769.65L198.858 1768.44L199.565 1769.14L199.211 1769.5ZM193.213 1770.5L191.213 1770.5L190.713 1770.5L190.713 1769.5L191.213 1769.5L193.713 1769.5L193.713 1770.5L193.213 1770.5ZM187.213 1770.5L185.213 1770.5L184.713 1770.5L184.713 1769.5L185.213 1769.5L187.713 1769.5L187.713 1770.5L187.213 1770.5ZM181.213 1770.5L179.213 1770.5L178.713 1770.5L178.713 1769.5L179.213 1769.5L181.713 1769.5L181.713 1770.5L181.213 1770.5ZM175.213 1770.5L173.793 1770.5L173.09 1769.8L172.737 1769.44L173.444 1768.74L173.797 1769.09L174.354 1769.65L174 1770L174 1769.5L175.713 1769.5L175.713 1770.5L175.213 1770.5ZM170.262 1766.97L168.847 1765.55L168.494 1765.2L169.201 1764.49L169.555 1764.85L171.322 1766.62L170.615 1767.32L170.262 1766.97ZM168.5 1761.28L168.5 1759.28L168.5 1758.78L169.5 1758.78L169.5 1759.28L169.5 1761.78L168.5 1761.78L168.5 1761.28ZM168.5 1755.28L168.5 1754.79L170.414 1752.88L171.121 1753.59L169.354 1755.35L169 1755L169.5 1755L169.5 1755.78L168.5 1755.78L168.5 1755.28Z"/>
		<rect fill="silver" x="242" y="1616" width="52" height="21"/>
		<rect fill="white" x="238" y="1612" width="52" height="21"/>
		<rect fill="#FFFFC0" x="243" y="1639" width="109" height="24"/>
		<text fill="gray" font-size="9" font-family="Segoe UI" x="243, 248.80518, 253.89844, 256.36377, 260.94287, 266.03613, 270.19336, 275.28662, 280.56006, 283.68896, 286.1543, 288.97119, 294.24463, 297.37354, 299.83887, 302.01855, 307.11182, 309.2915, 311.47119, 316.56445, 321.271, 323.73633, 325.91602, 328.0957, 333.18896, 337.6626, 339.84229, 344.93555, " y="1649, ">
				An anchor for inline linking
		</text>
		<text fill="gray" font-size="9" font-family="Segoe UI" x="243, 245.17969, 247.35938, 251.83301, 256.53955, 259.00488, 261.18457, 266.27783, 268.74316, 275.13281, 279.84814, 287.92969, " y="1661, ">
				like in HTML
		</text>
		<rect fill="white" x="247" y="1614" width="31" height="16"/>
		<text font-size="12" font-weight="600" font-family="Segoe UI" x="247, " y="1627, ">
				a
		</text>
		<path fill="none" stroke="black" stroke-width="1" stroke-linecap="square" stroke-miterlimit="4" transform="translate(0.5 0.5)" d="M240 1614L245 1614"/>
		<path fill="none" stroke="black" stroke-width="1" stroke-linecap="square" stroke-miterlimit="4" transform="translate(0.5 0.5)" d="M240 1616L244 1616"/>
		<path fill="none" stroke="black" stroke-width="1" stroke-linecap="square" stroke-miterlimit="4" transform="translate(0.5 0.5)" d="M240 1618L244 1618"/>
		<path fill="none" stroke="black" stroke-width="2" stroke-miterlimit="4" transform="translate(0.5 0.5)" d="M240 1630L244 1626"/>
		<path fill="none" stroke="black" stroke-width="1" stroke-linecap="square" stroke-miterlimit="4" transform="translate(0.5 0.5)" d="M241 1626L244 1626L244 1629"/>
		<rect fill="none" stroke="black" stroke-width="1" stroke-linecap="square" stroke-miterlimit="4" transform="translate(0.5 0.5)" x="238" y="1612" width="51" height="20"/>
		<rect x="284" y="1617" width="11" height="11"/>
		<rect fill="white" x="285" y="1618" width="9" height="9"/>
		<rect x="286" y="1622" width="7" height="1"/>
		<rect x="289" y="1619" width="1" height="7"/>
		<rect fill="silver" x="242" y="1679" width="52" height="21"/>
		<rect fill="white" x="238" y="1675" width="52" height="21"/>
		<rect fill="#FFFFC0" x="243" y="1702" width="113" height="36"/>
		<text fill="gray" font-size="9" font-family="Segoe UI" x="243, 248.80518, 251.27051, 256.57031, 261.27686, 266.37012, 271.07666, 274.20557, 276.38525, 280.54248, 283.00781, 290.75977, 295.46631, 299.62354, 304.7168, 309.2959, 314.38916, 316.56885, 320.3877, 328.13965, 330.60498, 333.42188, 338.69531, " y="1712, ">
				A generic mechanism for
		</text>
		<text fill="gray" font-size="9" font-family="Segoe UI" x="243, 247.5791, 252.87891, 258.17871, 260.3584, 265.45166, 270.75146, 273.2168, 275.39648, 280.48975, 282.66943, 284.84912, 289.94238, 294.64893, 297.11426, 299.29395, 304.38721, 307.2041, 312.47754, 315.60645, 323.3584, 327.9375, 330.9873, 333.16699, 338.44043, 343.53369, 345.99902, 349.04883, " y="1724, ">
				adding inline information to
		</text>
		<text fill="gray" font-size="9" font-family="Segoe UI" x="243, 248.29102, 252.87012, 255.99902, 259.04883, 262.86768, 265.33301, 270.60645, 273.42334, 275.88867, 278.93848, 284.03174, 288.73828, 291.20361, 294.25342, 298.95996, 303.09082, 306.14062, 311.23389, 315.81299, 317.99268, 320.45801, 324.61523, 329.88867, 334.98193, 338.03174, 342.73828, 347.83154, " y="1736, ">
				parts of the textual content
		</text>
		<rect fill="white" x="247" y="1677" width="31" height="16"/>
		<text font-size="12" font-weight="600" font-family="Segoe UI" x="247, 252.2793, 259.60352, 266.06055, " y="1690, ">
				span
		</text>
		<path fill="none" stroke="black" stroke-width="1" stroke-linecap="square" stroke-miterlimit="4" transform="translate(0.5 0.5)" d="M240 1677L245 1677"/>
		<path fill="none" stroke="black" stroke-width="1" stroke-linecap="square" stroke-miterlimit="4" transform="translate(0.5 0.5)" d="M240 1679L244 1679"/>
		<path fill="none" stroke="black" stroke-width="1" stroke-linecap="square" stroke-miterlimit="4" transform="translate(0.5 0.5)" d="M240 1681L244 1681"/>
		<path fill="none" stroke="black" stroke-width="2" stroke-miterlimit="4" transform="translate(0.5 0.5)" d="M240 1693L244 1689"/>
		<path fill="none" stroke="black" stroke-width="1" stroke-linecap="square" stroke-miterlimit="4" transform="translate(0.5 0.5)" d="M241 1689L244 1689L244 1692"/>
		<rect fill="none" stroke="black" stroke-width="1" stroke-linecap="square" stroke-miterlimit="4" transform="translate(0.5 0.5)" x="238" y="1675" width="51" height="20"/>
		<rect x="284" y="1680" width="11" height="11"/>
		<rect fill="white" x="285" y="1681" width="9" height="9"/>
		<rect x="286" y="1685" width="7" height="1"/>
		<rect x="289" y="1682" width="1" height="7"/>
		<rect fill="silver" x="242" y="1754" width="52" height="21"/>
		<rect fill="white" x="238" y="1750" width="52" height="21"/>
		<rect fill="#FFFFC0" x="243" y="1777" width="119" height="36"/>
		<text fill="gray" font-size="9" font-family="Segoe UI" x="243, 247.78125, 249.96094, 257.71289, 263.00391, 265.18359, 269.89014, 272.35547, 280.76221, 285.61377, 291.18604, 293.65137, 299.03467, 304.12793, 309.41895, 313.77393, 316.23926, 322.04443, 327.1377, 332.23096, 337.50439, 340.5542, 345.1333, 348.18311, 350.36279, 355.63623, " y="1787, ">
				Simple W3C Ruby Annotation
		</text>
		<text fill="gray" font-size="9" font-family="Segoe UI" x="243, 246.59912, 249.06445, 252.8833, 257.58984, 262.29639, 264.76172, 269.85498, 272.90479, 275.95459, 281.24561, 283.19678, 286.70361, 290.21045, 296.71436, 303.21826, 309.72217, 311.67334, 318.17725, 323.02881, 324.97998, 330.25342, 333.38232, 338.68213, 342.18896, 346.9043, 352.2876, " y="1799, ">
				- see http://www.w3.org/TR/
		</text>
		<text fill="gray" font-size="9" font-family="Segoe UI" x="243, 246.12891, 251.22217, 256.51318, 260.86816, 264.375, 269.69238, 273.51123, 275.69092, 283.44287, 288.73389, 290.91357, 295.62012, 299.21924, 302.34814, 307.44141, 312.73242, 317.0874, " y="1811, ">
				ruby/#simple-ruby1
		</text>
		<rect fill="white" x="247" y="1752" width="31" height="16"/>
		<text font-size="12" font-weight="600" font-family="Segoe UI" x="247, 251.81055, 259.07031, 266.51172, " y="1765, ">
				ruby
		</text>
		<path fill="none" stroke="black" stroke-width="2" stroke-miterlimit="4" transform="translate(0.5 0.5)" d="M240 1768L244 1764"/>
		<path fill="none" stroke="black" stroke-width="1" stroke-linecap="square" stroke-miterlimit="4" transform="translate(0.5 0.5)" d="M241 1764L244 1764L244 1767"/>
		<rect fill="none" stroke="black" stroke-width="1" stroke-linecap="square" stroke-miterlimit="4" transform="translate(0.5 0.5)" x="238" y="1750" width="51" height="20"/>
		<rect x="284" y="1755" width="11" height="11"/>
		<rect fill="white" x="285" y="1756" width="9" height="9"/>
		<rect x="286" y="1760" width="7" height="1"/>
		<rect x="289" y="1757" width="1" height="7"/>
		<rect fill="silver" x="242" y="1829" width="54" height="21"/>
		<rect fill="white" x="238" y="1825" width="54" height="21"/>
		<rect fill="#FFFFC0" x="243" y="1852" width="108" height="24"/>
		<text fill="gray" font-size="9" font-family="Segoe UI" x="243, 248.80518, 253.89844, 256.36377, 258.54346, 263.63672, 265.81641, 267.99609, 273.08936, 277.7959, 280.26123, 288.01318, 292.59229, 295.72119, 300.19482, 305.28809, 310.5791, 313.04443, 316.09424, 320.67334, 325.97314, 328.43848, 331.48828, 336.76172, 339.22705, 344.51807, " y="1862, ">
				An inline markup tag to be
		</text>
		<text fill="gray" font-size="9" font-family="Segoe UI" x="243, 248.09326, 251.91211, 256.61865, 261.91846, 264.38379, 270.8877, 273.06738, 276.11719, 281.21045, 283.67578, 288.25488, 293.34814, 297.70312, 300.16846, 304.32568, 309.59912, 314.69238, 318.84961, 323.55615, 328.84717, " y="1874, ">
				used with any concept
		</text>
		<rect fill="white" x="247" y="1827" width="33" height="16"/>
		<text font-size="12" font-weight="600" font-family="Segoe UI" x="247, 250.41016, 257.66992, 261.08008, 264.49023, 271.75, " y="1840, ">
				inline
		</text>
		<path fill="none" stroke="black" stroke-width="1" stroke-linecap="square" stroke-miterlimit="4" transform="translate(0.5 0.5)" d="M240 1827L245 1827"/>
		<path fill="none" stroke="black" stroke-width="1" stroke-linecap="square" stroke-miterlimit="4" transform="translate(0.5 0.5)" d="M240 1829L244 1829"/>
		<path fill="none" stroke="black" stroke-width="1" stroke-linecap="square" stroke-miterlimit="4" transform="translate(0.5 0.5)" d="M240 1831L244 1831"/>
		<path fill="none" stroke="black" stroke-width="2" stroke-miterlimit="4" transform="translate(0.5 0.5)" d="M240 1843L244 1839"/>
		<path fill="none" stroke="black" stroke-width="1" stroke-linecap="square" stroke-miterlimit="4" transform="translate(0.5 0.5)" d="M241 1839L244 1839L244 1842"/>
		<rect fill="none" stroke="black" stroke-width="1" stroke-linecap="square" stroke-miterlimit="4" transform="translate(0.5 0.5)" x="238" y="1825" width="53" height="20"/>
		<rect x="286" y="1830" width="11" height="11"/>
		<rect fill="white" x="287" y="1831" width="9" height="9"/>
		<rect x="288" y="1835" width="7" height="1"/>
		<rect x="291" y="1832" width="1" height="7"/>
		<path fill="silver" d="M242 1897L247 1892L315 1892L320 1897L320 1908L315 1913L247 1913L242 1908L242 1897Z"/>
		<path fill="white" d="M238 1893L243 1888L311 1888L316 1893L316 1904L311 1909L243 1909L238 1904L238 1893Z"/>
		<rect fill="#FFFFC0" x="243" y="1915" width="120" height="36"/>
		<text fill="gray" font-size="9" font-family="Segoe UI" x="243, 247.55273, 251.68359, 254.7334, 259.43994, 264.5332, 268.35205, 270.53174, 275.80518, 280.89844, 283.36377, 288.65479, 293.92822, 296.10791, 301.20117, 304.25098, 306.71631, 309.5332, 314.80664, 317.93555, 320.40088, 325.69189, 328.8208, 334.09424, 338.40527, 340.58496, 345.88477, 350.59131, 353.72021, " y="1925, ">
				Extension point for provider-
		</text>
		<text fill="gray" font-size="9" font-family="Segoe UI" x="243, 248.2998, 253.00635, 255.82324, 258.00293, 263.09619, 267.80273, 273.10254, 275.56787, 280.85889, 283.98779, 289.26123, 294.55225, 299.25879, 302.3877, 305.4375, 307.61719, 312.32373, 316.14258, 318.60791, 321.4248, 324.55371, 329.82715, 337.5791, 340.04443, 345.31787, 348.36768, 353.46094, 358.16748, " y="1937, ">
				defined properties from other
		</text>
		<text fill="gray" font-size="9" font-family="Segoe UI" x="243, 248.09326, 252.67236, 260.42432, 265.13086, 268.94971, 274.24072, 278.81982, 282.97705, 287.68359, " y="1949, ">
				namespaces
		</text>
		<rect fill="white" x="265" y="1890" width="46" height="16"/>
		<text font-size="12" font-weight="600" font-family="Segoe UI" x="265, 272.10742, 279.21484, 286.55078, 291.2207, 298.44531, 304.9375, " y="1903, ">
				##other
		</text>
		<rect fill="white" x="243" y="1890" width="20" height="16"/>
		<text fill="gray" font-size="12" font-family="Segoe UI" x="243, 249.10547, 255.89648, " y="1903, ">
				any
		</text>
		<path fill="none" stroke="black" stroke-width="1" stroke-linecap="square" stroke-miterlimit="4" transform="translate(0.5 0.5)" d="M238 1893L243 1888L310 1888L315 1893L315 1903L310 1908L243 1908L238 1903L238 1893Z"/>
		<rect x="203" y="1755" width="11" height="11"/>
		<rect fill="white" x="204" y="1756" width="9" height="9"/>
		<rect x="205" y="1760" width="7" height="1"/>
		<rect x="79" y="1284" width="11" height="11"/>
		<rect fill="white" x="80" y="1285" width="9" height="9"/>
		<rect x="81" y="1289" width="7" height="1"/>
	</g>
</svg>
