<?xml version="1.0" encoding="utf-8" ?>
<svg xmlns="http://www.w3.org/2000/svg" xmlns:xlink="http://www.w3.org/1999/xlink" width="420" height="3262">
	<clipPath id="cl_63f">
		<rect x="-10" y="-5" width="420" height="3262"/>
	</clipPath>
	<g clip-path="url(#cl_63f)">
		<rect fill="#FFFFC0" x="131" width="262" height="3252"/>
		<rect fill="none" stroke="gray" stroke-width="1" stroke-linecap="square" stroke-miterlimit="4" transform="translate(0.5 0.5)" x="131" width="261" height="3251"/>
		<path fill="none" stroke="black" stroke-width="1" stroke-linecap="square" stroke-miterlimit="4" transform="translate(0.5 0.5)" d="M72 2361L143 2361"/>
		<path fill="none" stroke="black" stroke-width="1" stroke-linecap="square" stroke-miterlimit="4" transform="translate(0.5 0.5)" d="M144 2361L144 1580"/>
		<path fill="none" stroke="black" stroke-width="1" stroke-linecap="square" stroke-miterlimit="4" transform="translate(0.5 0.5)" d="M144 2361L144 3143"/>
		<path fill="none" stroke="black" stroke-width="1" stroke-linecap="square" stroke-miterlimit="4" transform="translate(0.5 0.5)" d="M144 3144L158 3144"/>
		<path fill="none" stroke="black" stroke-width="1" stroke-linecap="square" stroke-miterlimit="4" transform="translate(0.5 0.5)" d="M144 1579L158 1579"/>
		<rect fill="silver" x="4" y="2355" width="67" height="21"/>
		<rect fill="white" y="2351" width="67" height="21"/>
		<rect fill="#FFFFC0" x="139" y="8" width="59" height="16"/>
		<text fill="gray" font-size="12" font-weight="600" font-family="Segoe UI" x="139, 145.13477, 148.54492, 155.80469, 162.51367, 169.41602, 175.9082, 182.36523, 189.80664, " y="21, ">
				Link1Type
		</text>
		<rect fill="white" x="5" y="2378" width="111" height="24"/>
		<text fill="gray" font-size="9" font-family="Segoe UI" x="5, 10.805176, 13.270508, 16.399414, 21.105957, 23.922852, 28.629395, 31.758301, 36.464844, 41.558105, 45.715332, 50.421875, 52.887207, 55.937012, 61.210449, 63.675781, 68.254883, 70.720215, 73.77002, 78.349121, 81.478027, 86.777832, 91.484375, 94.53418, 96.999512, 99.179199, 102.229, 106.93555, " y="2388, ">
				A reference to a target item
		</text>
		<text fill="gray" font-size="9" font-family="Segoe UI" x="5, 10.273438, 13.402344, 15.867676, 23.922852, 28.629395, 33.92041, 36.385742, 39.514648, 44.221191, 48.040039, 53.313477, 58.406738, 61.535645, 65.692871, " y="2400, ">
				or Web resource
		</text>
		<rect fill="white" x="9" y="2353" width="46" height="16"/>
		<text font-size="12" font-weight="600" font-family="Segoe UI" x="9, 12.410156, 17.033203, 23.525391, 34.517578, 42.052734, 48.544922, " y="2366, ">
				itemRef
		</text>
		<rect fill="none" stroke="black" stroke-width="1" stroke-linecap="square" stroke-miterlimit="4" transform="translate(0.5 0.5)" y="2351" width="66" height="20"/>
		<path fill="white" d="M236 55L236 36L159 36L159 55L159 3121L385 3121L385 55L236 55Z"/>
		<rect fill="white" x="179" y="38" width="51" height="16"/>
		<text font-size="12" font-style="italic" font-family="Segoe UI" x="179, 185.50391, 189.38281, 193.26172, 197.5332, 200.63867, 207.14258, 213.83984, 217.73047, 223.57227, " y="51, ">
				attributes
		</text>
		<path fill="none" stroke="black" stroke-width="1" stroke-linecap="square" stroke-miterlimit="4" transform="translate(0.5 0.5)" d="M236 55L236 36L159 36L159 55L159 3121L385 3121L385 55L236 55Z"/>
		<rect fill="silver" x="177" y="68" width="52" height="21"/>
		<rect fill="white" x="173" y="64" width="52" height="21"/>
		<rect fill="white" x="178" y="91" width="109" height="60"/>
		<text fill="gray" font-size="9" font-family="Segoe UI" x="178, 182.71533, 187.80859, 192.51514, 194.98047, 197.16016, 202.45996, 207.1665, 212.25977, 215.30957, 217.48926, 220.30615, 222.48584, 227.19238, 230.32129, 232.78662, 238.06006, 240.87695, 243.34229, 246.39209, 251.48535, " y="101, ">
				The identifier of the
		</text>
		<text fill="gray" font-size="9" font-family="Segoe UI" x="178, 181.12891, 185.83545, 188.01514, 192.59424, 195.64404, 197.82373, 203.09717, 208.19043, 212.00928, 217.10254, 219.28223, 224.57324, 227.03857, 232.32959, 237.03613, 240.08594, 246.58984, 251.29639, 256.00293, 261.09619, 263.56152, 266.61133, 271.70459, " y="113, ">
				relationship between the
		</text>
		<text fill="gray" font-size="9" font-family="Segoe UI" x="178, 182.15723, 187.25049, 190.37939, 193.5083, 198.21484, 203.30811, 206.35791, 208.82324, 211.21826, 214.26807, 218.97461, 226.72656, 229.19189, 233.771, 238.86426, 244.16406, 246.62939, 249.6792, 254.77246, 259.479, 261.94434, 264.99414, 269.57324, 272.70215, 278.00195, 282.7085, " y="125, ">
				current Item and the target
		</text>
		<text fill="gray" font-size="9" font-family="Segoe UI" x="178, 181.12891, 185.83545, 189.6543, 194.92773, 200.021, 203.1499, 207.30713, 212.01367, 214.479, 218.07812, 220.54346, 225.25, 229.38086, 234.67188, 237.80078, 242.50732, 246.32617, 250.14502, 254.85156, 260.15137, 262.6167, 267.90771, 272.2627, 274.72803, " y="137, ">
				resource - expressed by a
		</text>
		<text fill="gray" font-size="9" font-family="Segoe UI" x="178, 184.78516, 190.35742, 195.63086, 200.93066, " y="149, ">
				QCode
		</text>
		<rect fill="white" x="182" y="66" width="36" height="16"/>
		<text font-size="12" font-weight="600" font-family="Segoe UI" x="182, 186.72852, 193.2207, " y="79, ">
				rel
		</text>
		<rect fill="none" stroke="black" stroke-width="1" stroke-linecap="square" stroke-miterlimit="4" transform="translate(0.5 0.5)" x="173" y="64" width="51" height="20"/>
		<rect fill="silver" x="177" y="162" width="52" height="21"/>
		<rect fill="white" x="173" y="158" width="52" height="21"/>
		<rect fill="white" x="178" y="185" width="119" height="48"/>
		<text fill="gray" font-size="9" font-family="Segoe UI" x="178, 182.71533, 187.80859, 192.51514, 194.98047, 197.16016, 202.45996, 207.1665, 212.25977, 215.30957, 217.48926, 220.30615, 222.48584, 227.19238, 230.32129, 232.78662, 238.06006, 240.87695, 243.34229, 246.39209, 251.48535, " y="195, ">
				The identifier of the
		</text>
		<text fill="gray" font-size="9" font-family="Segoe UI" x="178, 181.12891, 185.83545, 188.01514, 192.59424, 195.64404, 197.82373, 203.09717, 208.19043, 212.00928, 217.10254, 219.28223, 224.57324, 227.03857, 232.32959, 237.03613, 240.08594, 246.58984, 251.29639, 256.00293, 261.09619, 263.56152, 266.61133, 271.70459, " y="207, ">
				relationship between the
		</text>
		<text fill="gray" font-size="9" font-family="Segoe UI" x="178, 182.15723, 187.25049, 190.37939, 193.5083, 198.21484, 203.30811, 206.35791, 208.82324, 211.21826, 214.26807, 218.97461, 226.72656, 229.19189, 233.771, 238.86426, 244.16406, 246.62939, 249.6792, 254.77246, 259.479, 261.94434, 264.99414, 269.57324, 272.70215, 278.00195, 282.7085, " y="219, ">
				current Item and the target
		</text>
		<text fill="gray" font-size="9" font-family="Segoe UI" x="178, 181.12891, 185.83545, 189.6543, 194.92773, 200.021, 203.1499, 207.30713, 212.01367, 214.479, 218.07812, 220.54346, 225.25, 229.38086, 234.67188, 237.80078, 242.50732, 246.32617, 250.14502, 254.85156, 260.15137, 262.6167, 267.90771, 272.2627, 274.72803, 279.30713, 281.77246, 287.95557, 293.33887, " y="231, ">
				resource - expressed by a URI
		</text>
		<rect fill="white" x="182" y="160" width="36" height="16"/>
		<text font-size="12" font-weight="600" font-family="Segoe UI" x="182, 186.72852, 193.2207, 196.63086, 203.89062, 208.71289, " y="173, ">
				reluri
		</text>
		<rect fill="none" stroke="black" stroke-width="1" stroke-linecap="square" stroke-miterlimit="4" transform="translate(0.5 0.5)" x="173" y="158" width="51" height="20"/>
		<rect fill="silver" x="177" y="244" width="52" height="21"/>
		<rect fill="white" x="173" y="240" width="52" height="21"/>
		<rect fill="white" x="178" y="267" width="108" height="24"/>
		<text fill="gray" font-size="9" font-family="Segoe UI" x="178, 182.71533, 187.80859, 192.51514, 194.98047, 198.10938, 202.68848, 207.78174, 212.25537, 214.7207, 219.99414, 222.81104, 225.27637, 228.32617, 233.41943, 238.12598, 240.59131, 242.771, 244.95068, 250.04395, 254.51758, 256.98291, 261.56201, 269.31396, 274.5874, 279.68066, " y="277, ">
				The rank of the link among
		</text>
		<text fill="gray" font-size="9" font-family="Segoe UI" x="178, 183.27344, 186.32324, 191.4165, 196.12305, 199.25195, 201.71729, 203.89697, 206.07666, 211.16992, 215.64355, " y="289, ">
				other links
		</text>
		<rect fill="white" x="182" y="242" width="36" height="16"/>
		<text font-size="12" font-weight="600" font-family="Segoe UI" x="182, 186.77539, 193.23242, 200.49219, " y="255, ">
				rank
		</text>
		<rect fill="none" stroke="black" stroke-width="1" stroke-linecap="square" stroke-miterlimit="4" transform="translate(0.5 0.5)" x="173" y="240" width="51" height="20"/>
		<rect fill="silver" x="177" y="302" width="52" height="21"/>
		<rect fill="white" x="173" y="298" width="52" height="21"/>
		<rect fill="white" x="178" y="325" width="98" height="24"/>
		<text fill="gray" font-size="9" font-family="Segoe UI" x="178, 182.71533, 187.80859, 192.51514, 194.98047, 197.16016, 202.43359, 206.59082, 211.16992, 214.21973, 219.49316, 222.62207, 225.0874, 230.36084, 233.17773, 235.64307, 238.69287, 243.78613, 248.49268, 250.95801, 254.00781, 258.58691, 261.71582, 267.01562, 271.72217, " y="335, ">
				The locator of the target
		</text>
		<text fill="gray" font-size="9" font-family="Segoe UI" x="178, 181.12891, 185.83545, 189.6543, 194.92773, 200.021, 203.1499, 207.30713, 212.01367, " y="347, ">
				resource.
		</text>
		<rect fill="white" x="182" y="300" width="36" height="16"/>
		<text font-size="12" font-weight="600" font-family="Segoe UI" x="182, 189.22461, 193.95312, 200.44531, " y="313, ">
				href
		</text>
		<rect fill="none" stroke="black" stroke-width="1" stroke-linecap="square" stroke-miterlimit="4" transform="translate(0.5 0.5)" x="173" y="298" width="51" height="20"/>
		<rect fill="silver" x="177" y="360" width="61" height="21"/>
		<rect fill="white" x="173" y="356" width="61" height="21"/>
		<rect fill="white" x="178" y="383" width="109" height="24"/>
		<text fill="gray" font-size="9" font-family="Segoe UI" x="178, 182.71533, 187.80859, 192.51514, 197.4458, 202.73682, 205.86572, 211.13916, 215.4502, 217.62988, 222.92969, 227.63623, 230.76514, 232.82617, 236.64502, 239.11035, 241.29004, 246.58984, 251.29639, 256.38965, 259.43945, 261.61914, 264.43604, 266.61572, 271.32227, 274.45117, 276.9165, 282.18994, " y="393, ">
				The provider’s identifier of
		</text>
		<text fill="gray" font-size="9" font-family="Segoe UI" x="178, 181.0498, 186.14307, 190.84961, 193.31494, 196.36475, 200.94385, 204.07275, 209.37256, 214.0791, 217.12891, 219.59424, 222.72314, 227.42969, 231.24854, 236.52197, 241.61523, 244.74414, 248.90137, 253.60791, " y="405, ">
				the target resource.
		</text>
		<rect fill="white" x="182" y="358" width="45" height="16"/>
		<text font-size="12" font-weight="600" font-family="Segoe UI" x="182, 186.72852, 193.2207, 198.5, 201.91016, 209.33984, 214.06836, 220.56055, " y="371, ">
				residref
		</text>
		<rect fill="none" stroke="black" stroke-width="1" stroke-linecap="square" stroke-miterlimit="4" transform="translate(0.5 0.5)" x="173" y="356" width="60" height="20"/>
		<rect fill="silver" x="177" y="418" width="100" height="21"/>
		<rect fill="white" x="173" y="414" width="100" height="21"/>
		<rect fill="white" x="178" y="441" width="113" height="84"/>
		<text fill="gray" font-size="9" font-family="Segoe UI" x="178, 182.71533, 187.80859, 192.51514, 194.98047, 197.79736, 203.0708, 206.19971, 213.95166, 218.53076, 221.58057, 224.0459, 229.31934, 232.13623, 234.60156, 237.65137, 242.74463, 247.45117, 249.9165, 255.20752, 258.33643, 263.60986, 267.9209, 270.10059, 275.40039, 280.10693, 283.23584, 285.30566, " y="451, ">
				The format of the provider&apos;s
		</text>
		<text fill="gray" font-size="9" font-family="Segoe UI" x="178, 180.17969, 185.47949, 190.18604, 195.2793, 198.3291, 200.50879, 203.32568, 205.50537, 210.21191, 213.34082, 215.80615, 221.07959, 223.89648, 226.36182, 229.41162, 234.50488, 239.21143, 241.67676, 244.72656, 249.30566, 252.43457, 257.73438, 262.44092, " y="463, ">
				identifier of the target
		</text>
		<text fill="gray" font-size="9" font-family="Segoe UI" x="178, 181.12891, 185.83545, 189.6543, 194.92773, 200.021, 203.1499, 207.30713, 212.01367, 214.479, 218.07812, 220.54346, 225.25, 229.38086, 234.67188, 237.80078, 242.50732, 246.32617, 250.14502, 254.85156, 260.15137, 262.6167, 267.90771, 272.2627, 274.72803, " y="475, ">
				resource - expressed by a
		</text>
		<text fill="gray" font-size="9" font-family="Segoe UI" x="178, 184.78516, 190.35742, 195.63086, 200.93066, 205.63721, 207.58838, 210.05371, 214.76904, 219.8623, 224.56885, 227.03418, 230.16309, 234.86963, 239.02686, 244.30029, 252.05225, 259.8042, 264.51074, 269.604, 274.90381, 279.61035, " y="487, ">
				QCode. The recommended
		</text>
		<text fill="gray" font-size="9" font-family="Segoe UI" x="178, 183.57227, 189.16211, 191.62744, 194.67725, 199.95068, 202.41602, 207.70703, 212.41357, 214.87891, 219.97217, 223.79102, 228.49756, 233.79736, 236.2627, 238.44238, 242.26123, 244.72656, 249.81982, 252.86963, 255.91943, 261.21045, 263.16162, 266.66846, " y="499, ">
				CV to be used is http://
		</text>
		<text fill="gray" font-size="9" font-family="Segoe UI" x="178, 182.15723, 186.46826, 188.41943, 190.59912, 195.89014, 198.93994, 203.09717, 205.04834, 210.32178, 213.45068, 218.75049, 222.25732, 227.35059, 232.05713, 238.56104, 242.37988, 246.53711, 251.81055, 257.11035, 261.81689, 265.63574, " y="511, ">
				cv.iptc.org/newscodes/
		</text>
		<text fill="gray" font-size="9" font-family="Segoe UI" x="178, 182.31104, 186.89014, 189.06982, 194.16309, 198.86963, 201.68652, 206.95996, 210.08887, 217.84082, 222.41992, 225.46973, 228.97656, " y="523, ">
				valueformat/.
		</text>
		<rect fill="white" x="182" y="416" width="84" height="16"/>
		<text font-size="12" font-weight="600" font-family="Segoe UI" x="182, 186.72852, 193.2207, 198.5, 201.91016, 209.33984, 214.06836, 220.56055, 225.16016, 229.75977, 237.0957, 241.90625, 252.89844, 259.35547, " y="429, ">
				residrefformat
		</text>
		<rect fill="none" stroke="black" stroke-width="1" stroke-linecap="square" stroke-miterlimit="4" transform="translate(0.5 0.5)" x="173" y="414" width="99" height="20"/>
		<rect fill="silver" x="177" y="536" width="115" height="21"/>
		<rect fill="white" x="173" y="532" width="115" height="21"/>
		<rect fill="white" x="178" y="559" width="121" height="72"/>
		<text fill="gray" font-size="9" font-family="Segoe UI" x="178, 182.71533, 187.80859, 192.51514, 194.98047, 197.79736, 203.0708, 206.19971, 213.95166, 218.53076, 221.58057, 224.0459, 229.31934, 232.13623, 234.60156, 237.65137, 242.74463, 247.45117, 249.9165, 255.20752, 258.33643, 263.60986, 267.9209, 270.10059, 275.40039, 280.10693, 283.23584, 285.30566, " y="569, ">
				The format of the provider&apos;s
		</text>
		<text fill="gray" font-size="9" font-family="Segoe UI" x="178, 180.17969, 185.47949, 190.18604, 195.2793, 198.3291, 200.50879, 203.32568, 205.50537, 210.21191, 213.34082, 215.80615, 221.07959, 223.89648, 226.36182, 229.41162, 234.50488, 239.21143, 241.67676, 244.72656, 249.30566, 252.43457, 257.73438, 262.44092, " y="581, ">
				identifier of the target
		</text>
		<text fill="gray" font-size="9" font-family="Segoe UI" x="178, 181.12891, 185.83545, 189.6543, 194.92773, 200.021, 203.1499, 207.30713, 212.01367, 214.479, 218.07812, 220.54346, 225.25, 229.38086, 234.67188, 237.80078, 242.50732, 246.32617, 250.14502, 254.85156, 260.15137, 262.6167, 267.90771, 272.2627, 274.72803, 279.30713, 281.77246, 287.95557, 293.33887, 295.73389, " y="593, ">
				resource - expressed by a URI.
		</text>
		<text fill="gray" font-size="9" font-family="Segoe UI" x="178, 182.71533, 187.80859, 192.51514, 194.98047, 198.10938, 202.81592, 206.97314, 212.24658, 219.99854, 227.75049, 232.45703, 237.55029, 242.8501, 247.55664, 252.85645, 255.32178, 260.89404, 266.48389, 268.94922, 271.99902, 277.27246, 279.73779, 285.02881, " y="605, ">
				The recommended CV to be
		</text>
		<text fill="gray" font-size="9" font-family="Segoe UI" x="178, 183.09326, 186.91211, 191.61865, 196.91846, 199.38379, 201.56348, 205.38232, 207.84766, 212.94092, 215.99072, 219.04053, 224.33154, 226.28271, 229.78955, 233.29639, 237.45361, 241.76465, 243.71582, 245.89551, 251.18652, 254.23633, 258.39355, 260.34473, 265.61816, 268.74707, 274.04688, " y="617, ">
				used is http://cv.iptc.org/
		</text>
		<text fill="gray" font-size="9" font-family="Segoe UI" x="178, 183.09326, 187.7998, 194.30371, 198.12256, 202.27979, 207.55322, 212.85303, 217.55957, 221.37842, 224.88525, 229.19629, 233.77539, 235.95508, 241.04834, 245.75488, 248.57178, 253.84521, 256.97412, 264.72607, 269.30518, 272.35498, 275.86182, " y="629, ">
				newscodes/valueformat/.
		</text>
		<rect fill="white" x="182" y="534" width="99" height="16"/>
		<text font-size="12" font-weight="600" font-family="Segoe UI" x="182, 186.72852, 193.2207, 198.5, 201.91016, 209.33984, 214.06836, 220.56055, 225.16016, 229.75977, 237.0957, 241.90625, 252.89844, 259.35547, 264.02539, 271.28516, 276.10742, " y="547, ">
				residrefformaturi
		</text>
		<rect fill="none" stroke="black" stroke-width="1" stroke-linecap="square" stroke-miterlimit="4" transform="translate(0.5 0.5)" x="173" y="532" width="114" height="20"/>
		<rect fill="silver" x="177" y="642" width="59" height="21"/>
		<rect fill="white" x="173" y="638" width="59" height="21"/>
		<rect fill="white" x="178" y="665" width="121" height="48"/>
		<text fill="gray" font-size="9" font-family="Segoe UI" x="178, 182.71533, 187.80859, 192.51514, 194.98047, 199.2915, 203.99805, 207.12695, 210.9458, 213.12549, 218.39893, 223.49219, 225.95752, 231.23096, 234.04785, 236.51318, 239.56299, 244.65625, 249.36279, 251.82812, 254.87793, 259.45703, 262.58594, 267.88574, 272.59229, " y="675, ">
				The version of the target
		</text>
		<text fill="gray" font-size="9" font-family="Segoe UI" x="178, 181.12891, 185.83545, 189.6543, 194.92773, 200.021, 203.1499, 207.30713, 212.01367, 213.96484, 216.43018, 221.58936, 225.94434, 228.40967, 233.70947, 238.41602, 241.23291, 245.81201, 250.90527, 253.08496, 256.13477, 258.08594, 260.55127, 263.60107, 268.69434, 273.40088, 275.86621, 278.0459, 282.625, 285.6748, 290.38135, 294.2002, " y="687, ">
				resource. By default, the latest
		</text>
		<text fill="gray" font-size="9" font-family="Segoe UI" x="178, 181.12891, 185.83545, 190.14648, 192.32617, 196.14502, 198.32471, 203.59814, 208.69141, 211.15674, 213.33643, 217.15527, 219.62061, 222.74951, 227.45605, 230.50586, 233.63477, 235.81445, 240.521, 244.83203, 249.53857, 254.83838, 257.30371, 263.80762, 268.90088, 273.60742, 278.70068, 281.16602, 284.21582, 289.30908, " y="699, ">
				revision is retrieved when the
		</text>
		<text fill="gray" font-size="9" font-family="Segoe UI" x="178, 180.17969, 182.35938, 187.45264, 191.92627, 194.3916, 196.57129, 200.39014, 202.85547, 207.43457, 211.5918, 214.6416, 216.82129, 221.13232, 225.71143, 228.76123, 233.46777, 238.76758, " y="711, ">
				link is activated.
		</text>
		<rect fill="white" x="182" y="640" width="43" height="16"/>
		<text font-size="12" font-weight="600" font-family="Segoe UI" x="182, 188.38672, 194.87891, 199.72461, 205.00391, 208.41406, 215.75, " y="653, ">
				version
		</text>
		<rect fill="none" stroke="black" stroke-width="1" stroke-linecap="square" stroke-miterlimit="4" transform="translate(0.5 0.5)" x="173" y="638" width="58" height="20"/>
		<rect fill="silver" x="177" y="724" width="82" height="21"/>
		<rect fill="white" x="173" y="720" width="82" height="21"/>
		<rect fill="white" x="178" y="747" width="121" height="96"/>
		<text fill="gray" font-size="9" font-family="Segoe UI" x="178, 182.70654, 187.97998, 190.15967, 195.25293, 198.30273, 202.12158, 204.58691, 207.63672, 212.91016, 215.37549, 219.95459, 225.04785, 227.51318, 232.21973, 234.39941, 239.10596, 246.85791, 251.56445, 256.65771, 259.70752, 262.17285, 264.35254, 269.4458, 273.26465, 275.44434, 280.74414, " y="757, ">
				Points to an element inside
		</text>
		<text fill="gray" font-size="9" font-family="Segoe UI" x="178, 181.0498, 186.14307, 190.84961, 193.31494, 196.36475, 200.94385, 204.07275, 209.37256, 214.0791, 217.12891, 219.59424, 222.72314, 227.42969, 231.24854, 236.52197, 241.61523, 244.74414, 248.90137, 253.60791, 256.07324, 262.57715, 267.67041, 269.8501, 274.00732, " y="769, ">
				the target resource which
		</text>
		<text fill="gray" font-size="9" font-family="Segoe UI" x="178, 185.75195, 190.84521, 194.66406, 197.71387, 200.1792, 205.47021, 210.17676, 212.64209, 214.82178, 220.12158, 224.82812, 229.92139, 232.97119, 235.15088, 237.96777, 240.14746, 244.854, 250.15381, 252.61914, 257.91016, 262.26514, 264.73047, 269.30957, 274.40283, 276.86816, 279.26318, " y="781, ">
				must be identified by an ID
		</text>
		<text fill="gray" font-size="9" font-family="Segoe UI" x="178, 182.5791, 185.62891, 188.67871, 191.80762, 193.9873, 199.27832, 204.37158, 207.42139, 212.12793, 214.59326, 219.68652, 224.26562, 228.57666, 230.75635, 235.84961, 241.14941, 243.61475, 248.19385, 250.65918, 254.97021, 259.54932, 261.729, 266.82227, 271.52881, 273.99414, 280.49805, 285.59131, 287.771, 291.92822, " y="793, ">
				attribute having a value which
		</text>
		<text fill="gray" font-size="9" font-family="Segoe UI" x="178, 180.17969, 183.99854, 186.46387, 191.75488, 196.46143, 199.59033, 203.40918, 205.58887, 209.40771, 212.45752, 217.16406, 222.25732, 225.30713, 227.77246, 230.58936, 235.86279, 238.9917, 241.45703, 246.03613, 248.21582, 250.39551, 252.86084, 257.17188, 261.87842, 265.00732, 268.82617, 271.00586, 276.2793, 281.37256, 285.19141, 287.65674, 292.93018, " y="805, ">
				is persistent for all versions of
		</text>
		<text fill="gray" font-size="9" font-family="Segoe UI" x="178, 181.0498, 186.14307, 190.84961, 193.31494, 196.36475, 200.94385, 204.07275, 209.37256, 214.0791, 217.12891, 219.59424, 222.72314, 227.42969, 231.24854, 236.52197, 241.61523, 244.74414, 248.90137, 253.60791, 255.55908, 258.02441, 260.2041, 262.15527, 266.86182, 268.81299, 271.27832, 274.09521, 279.36865, 282.49756, 284.96289, 287.14258, 290.19238, " y="817, ">
				the target resource, i.e. for its
		</text>
		<text fill="gray" font-size="9" font-family="Segoe UI" x="178, 182.70654, 187.7998, 190.84961, 193.0293, 196.1582, 200.86475, 203.33008, 205.50977, 207.68945, 210.50635, 215.21289, 219.37012, 223.7251, 227.88232, 230.06201, 234.76855, 236.71973, 239.18506, 241.90088, 246.47998, 251.77979, 257.07959, 261.78613, 267.08594, 269.55127, 276.28369, 282.08887, " y="829, ">
				entire lifecycle. (added NAR
		</text>
		<text fill="gray" font-size="9" font-family="Segoe UI" x="178, 182.85156, 184.80273, 189.6543, " y="841, ">
				1.8)
		</text>
		<rect fill="white" x="182" y="722" width="66" height="16"/>
		<text font-size="12" font-weight="600" font-family="Segoe UI" x="182, 189.44141, 195.93359, 200.7793, 206.05859, 209.46875, 214.74805, 219.41797, 222.82812, 230.25781, 234.98633, 241.47852, " y="735, ">
				persistidref
		</text>
		<rect fill="none" stroke="black" stroke-width="1" stroke-linecap="square" stroke-miterlimit="4" transform="translate(0.5 0.5)" x="173" y="720" width="81" height="20"/>
		<rect fill="silver" x="177" y="854" width="86" height="21"/>
		<rect fill="white" x="173" y="850" width="86" height="21"/>
		<rect fill="white" x="178" y="877" width="114" height="36"/>
		<text fill="gray" font-size="9" font-family="Segoe UI" x="178, 182.71533, 187.80859, 192.51514, 194.98047, 197.37549, 203.18066, 209.91309, 215.71826, 218.18359, 220.89941, 223.29443, 228.3877, 231.4375, 236.14404, 239.27295, 244.36621, 249.07275, 252.12256, 254.58789, 260.39307, 264.21191, 268.03076, 270.21045, 275.51025, 280.60352, 285.31006, " y="887, ">
				The IANA (Internet Assigned
		</text>
		<text fill="gray" font-size="9" font-family="Segoe UI" x="178, 184.73242, 189.82568, 197.57764, 202.86865, 207.5752, 210.7041, 214.52295, 216.98828, 222.79346, 227.88672, 230.93652, 236.02979, 241.30322, 244.43213, 246.61182, 249.66162, 254.0166, 256.73242, 259.19775, 267.2793, 271.98584, 277.28564, 279.46533, " y="899, ">
				Numbers Authority) Media
		</text>
		<text fill="gray" font-size="9" font-family="Segoe UI" x="178, 182.21875, 186.57373, 191.86475, 196.57129, 199.03662, 204.31006, 207.12695, 209.59229, 212.64209, 217.73535, 222.44189, 224.90723, 227.95703, 232.53613, 235.66504, 240.96484, 245.67139, 248.72119, 251.18652, 254.31543, 259.02197, 262.84082, 268.11426, 273.20752, 276.33643, 280.49365, 285.2002, " y="911, ">
				Type of the target resource.
		</text>
		<rect fill="white" x="182" y="852" width="70" height="16"/>
		<text font-size="12" font-weight="600" font-family="Segoe UI" x="182, 187.75977, 195.0957, 202.35547, 206.97852, 213.4707, 220.73047, 225.40039, 230.07031, 236.52734, 243.96875, " y="865, ">
				contenttype
		</text>
		<rect fill="none" stroke="black" stroke-width="1" stroke-linecap="square" stroke-miterlimit="4" transform="translate(0.5 0.5)" x="173" y="850" width="85" height="20"/>
		<rect fill="silver" x="177" y="924" width="177" height="21"/>
		<rect fill="white" x="173" y="920" width="177" height="21"/>
		<rect fill="white" x="178" y="947" width="146" height="24"/>
		<text fill="gray" font-size="9" font-family="Segoe UI" x="178, 183.01855, 187.7251, 190.854, 194.67285, 196.85254, 202.12598, 207.21924, 209.68457, 214.95801, 217.7749, 220.24023, 223.29004, 228.3833, 233.08984, 235.55518, 239.37402, 242.42383, 247.00293, 252.09619, 257.396, 261.9751, 265.104, 270.40381, 272.86914, 275.04883, 280.34863, 285.05518, 290.14844, 293.19824, 295.37793, 298.19482, 300.37451, 305.08105, 310.38086, 312.84619, 318.13721, " y="957, ">
				Version of the standard identified by
		</text>
		<text fill="gray" font-size="9" font-family="Segoe UI" x="178, 182.15723, 187.43066, 192.52393, 195.57373, 200.28027, 205.37354, 208.42334, 211.47314, 215.82812, 221.11914, 225.82568, " y="969, ">
				contenttype.
		</text>
		<rect fill="white" x="182" y="922" width="161" height="16"/>
		<text font-size="12" font-weight="600" font-family="Segoe UI" x="182, 187.75977, 195.0957, 202.35547, 206.97852, 213.4707, 220.73047, 225.40039, 230.07031, 236.52734, 243.96875, 250.46094, 255.74023, 260.41016, 266.86719, 274.12695, 281.55664, 288.01367, 292.74219, 300.17188, 306.55859, 313.05078, 317.89648, 323.17578, 326.58594, 333.92188, " y="935, ">
				contenttypestandardversion
		</text>
		<rect fill="none" stroke="black" stroke-width="1" stroke-linecap="square" stroke-miterlimit="4" transform="translate(0.5 0.5)" x="173" y="920" width="176" height="20"/>
		<rect fill="silver" x="177" y="982" width="125" height="21"/>
		<rect fill="white" x="173" y="978" width="125" height="21"/>
		<rect fill="white" x="178" y="1005" width="118" height="48"/>
		<text fill="gray" font-size="9" font-family="Segoe UI" x="178, 183.80518, 186.27051, 189.39941, 194.10596, 196.92285, 199.10254, 204.1958, 208.90234, 216.6543, 221.36084, 226.4541, 229.50391, 231.96924, 237.24268, 240.05957, 242.5249, 247.104, 249.56934, 254.86914, 259.57568, 264.66895, 269.37549, 272.50439, 274.68408, " y="1015, ">
				A refinement of a generic
		</text>
		<text fill="gray" font-size="9" font-family="Segoe UI" x="178, 182.15723, 187.43066, 192.52393, 195.57373, 200.28027, 205.37354, 208.42334, 210.88867, 213.93848, 218.29346, 223.58447, 228.29102, 230.75635, 233.47217, 235.65186, 237.60303, 242.30957, 244.26074, 246.72607, 249.12109, 254.92627, 261.65869, 267.46387, 269.9292, 278.01074, 282.71729, 288.01709, 290.19678, " y="1027, ">
				content type (i.e. IANA Media
		</text>
		<text fill="gray" font-size="9" font-family="Segoe UI" x="178, 182.21875, 186.57373, 191.86475, 196.57129, 199.28711, 201.75244, 207.04346, 211.39844, 213.86377, 218.44287, 220.9082, 223.08789, 225.26758, 228.31738, 233.02393, 236.15283, 240.73193, 242.91162, 245.37695, 249.1958, 252.24561, 255.37451, 257.5542, 262.64746, 267.94727, 270.4126, 274.72363, 279.30273, 281.48242, 286.57568, 291.28223, " y="1039, ">
				Type) by a literal string value.
		</text>
		<rect fill="white" x="182" y="980" width="109" height="16"/>
		<text font-size="12" font-weight="600" font-family="Segoe UI" x="182, 187.75977, 195.0957, 202.35547, 206.97852, 213.4707, 220.73047, 225.40039, 230.07031, 236.52734, 243.96875, 250.46094, 256.7832, 263.24023, 268.0625, 271.47266, 277.92969, 285.18945, " y="993, ">
				contenttypevariant
		</text>
		<rect fill="none" stroke="black" stroke-width="1" stroke-linecap="square" stroke-miterlimit="4" transform="translate(0.5 0.5)" x="173" y="978" width="124" height="20"/>
		<rect fill="silver" x="177" y="1064" width="201" height="21"/>
		<rect fill="white" x="173" y="1060" width="201" height="21"/>
		<rect fill="white" x="178" y="1087" width="146" height="24"/>
		<text fill="gray" font-size="9" font-family="Segoe UI" x="178, 183.01855, 187.7251, 190.854, 194.67285, 196.85254, 202.12598, 207.21924, 209.68457, 214.95801, 217.7749, 220.24023, 223.29004, 228.3833, 233.08984, 235.55518, 239.37402, 242.42383, 247.00293, 252.09619, 257.396, 261.9751, 265.104, 270.40381, 272.86914, 275.04883, 280.34863, 285.05518, 290.14844, 293.19824, 295.37793, 298.19482, 300.37451, 305.08105, 310.38086, 312.84619, 318.13721, " y="1097, ">
				Version of the standard identified by
		</text>
		<text fill="gray" font-size="9" font-family="Segoe UI" x="178, 182.15723, 187.43066, 192.52393, 195.57373, 200.28027, 205.37354, 208.42334, 211.47314, 215.82812, 221.11914, 225.82568, 230.13672, 234.71582, 237.84473, 240.02441, 244.60352, 249.69678, 252.74658, " y="1109, ">
				contenttypevariant.
		</text>
		<rect fill="white" x="182" y="1062" width="185" height="16"/>
		<text font-size="12" font-weight="600" font-family="Segoe UI" x="182, 187.75977, 195.0957, 202.35547, 206.97852, 213.4707, 220.73047, 225.40039, 230.07031, 236.52734, 243.96875, 250.46094, 256.7832, 263.24023, 268.0625, 271.47266, 277.92969, 285.18945, 289.85938, 295.13867, 299.80859, 306.26562, 313.52539, 320.95508, 327.41211, 332.14062, 339.57031, 345.95703, " y="1075, ">
				contenttypevariantstandardve
		</text>
		<text font-size="12" font-weight="600" font-family="Segoe UI" x="352.44922, 355.70117, 358.95312, " y="1075, ">
				...
		</text>
		<rect fill="none" stroke="black" stroke-width="1" stroke-linecap="square" stroke-miterlimit="4" transform="translate(0.5 0.5)" x="173" y="1060" width="200" height="20"/>
		<rect fill="silver" x="177" y="1122" width="56" height="21"/>
		<rect fill="white" x="173" y="1118" width="56" height="21"/>
		<rect fill="white" x="178" y="1145" width="118" height="72"/>
		<text fill="gray" font-size="9" font-family="Segoe UI" x="178, 183.80518, 186.27051, 189.39941, 194.10596, 196.92285, 199.10254, 204.1958, 208.90234, 216.6543, 221.36084, 226.4541, 229.50391, 231.96924, 237.24268, 240.05957, 242.5249, 247.104, 249.56934, 254.86914, 259.57568, 264.66895, 269.37549, 272.50439, 274.68408, " y="1155, ">
				A refinement of a generic
		</text>
		<text fill="gray" font-size="9" font-family="Segoe UI" x="178, 182.15723, 187.43066, 192.52393, 195.57373, 200.28027, 205.37354, 208.42334, 210.88867, 213.93848, 218.29346, 223.58447, 228.29102, 230.75635, 233.47217, 235.65186, 237.60303, 242.30957, 244.26074, 246.72607, 249.12109, 254.92627, 261.65869, 267.46387, 269.9292, 278.01074, 282.71729, 288.01709, 290.19678, " y="1167, ">
				content type (i.e. IANA Media
		</text>
		<text fill="gray" font-size="9" font-family="Segoe UI" x="178, 182.21875, 186.57373, 191.86475, 196.57129, 199.28711, 201.75244, 207.04346, 211.39844, 213.86377, 218.44287, 220.9082, 225.21924, 229.79834, 231.97803, 237.07129, 241.77783, 244.24316, 247.06006, 250.18896, 255.4624, 263.21436, 265.67969, " y="1179, ">
				Type) by a value from a
		</text>
		<text fill="gray" font-size="9" font-family="Segoe UI" x="178, 182.15723, 187.43066, 192.52393, 195.57373, 198.70264, 203.97607, 206.15576, 208.33545, 213.04199, 218.3418, 220.80713, 225.11816, 230.3916, 234.54883, 239.12793, 244.41895, 249.51221, 251.69189, 256.271, 259.3999, 263.75488, 266.22021, " y="1191, ">
				controlled vocabulary -
		</text>
		<text fill="gray" font-size="9" font-family="Segoe UI" x="178, 182.70654, 186.8374, 192.12842, 195.25732, 199.96387, 203.78271, 207.60156, 212.30811, 217.60791, 220.07324, 225.36426, 229.71924, 232.18457, 236.76367, 239.229, 246.01416, 251.58643, 256.85986, 262.15967, " y="1203, ">
				expressed by a QCode
		</text>
		<rect fill="white" x="182" y="1120" width="40" height="16"/>
		<text font-size="12" font-weight="600" font-family="Segoe UI" x="182, 186.59961, 193.93555, 198.74609, 209.73828, 216.19531, " y="1133, ">
				format
		</text>
		<rect fill="none" stroke="black" stroke-width="1" stroke-linecap="square" stroke-miterlimit="4" transform="translate(0.5 0.5)" x="173" y="1118" width="55" height="20"/>
		<rect fill="silver" x="177" y="1228" width="72" height="21"/>
		<rect fill="white" x="173" y="1224" width="72" height="21"/>
		<rect fill="white" x="178" y="1251" width="118" height="72"/>
		<text fill="gray" font-size="9" font-family="Segoe UI" x="178, 183.80518, 186.27051, 189.39941, 194.10596, 196.92285, 199.10254, 204.1958, 208.90234, 216.6543, 221.36084, 226.4541, 229.50391, 231.96924, 237.24268, 240.05957, 242.5249, 247.104, 249.56934, 254.86914, 259.57568, 264.66895, 269.37549, 272.50439, 274.68408, " y="1261, ">
				A refinement of a generic
		</text>
		<text fill="gray" font-size="9" font-family="Segoe UI" x="178, 182.15723, 187.43066, 192.52393, 195.57373, 200.28027, 205.37354, 208.42334, 210.88867, 213.93848, 218.29346, 223.58447, 228.29102, 230.75635, 233.47217, 235.65186, 237.60303, 242.30957, 244.26074, 246.72607, 249.12109, 254.92627, 261.65869, 267.46387, 269.9292, 278.01074, 282.71729, 288.01709, 290.19678, " y="1273, ">
				content type (i.e. IANA Media
		</text>
		<text fill="gray" font-size="9" font-family="Segoe UI" x="178, 182.21875, 186.57373, 191.86475, 196.57129, 199.28711, 201.75244, 207.04346, 211.39844, 213.86377, 218.44287, 220.9082, 225.21924, 229.79834, 231.97803, 237.07129, 241.77783, 244.24316, 247.06006, 250.18896, 255.4624, 263.21436, 265.67969, " y="1285, ">
				Type) by a value from a
		</text>
		<text fill="gray" font-size="9" font-family="Segoe UI" x="178, 182.15723, 187.43066, 192.52393, 195.57373, 198.70264, 203.97607, 206.15576, 208.33545, 213.04199, 218.3418, 220.80713, 225.11816, 230.3916, 234.54883, 239.12793, 244.41895, 249.51221, 251.69189, 256.271, 259.3999, 263.75488, 266.22021, " y="1297, ">
				controlled vocabulary -
		</text>
		<text fill="gray" font-size="9" font-family="Segoe UI" x="178, 182.70654, 186.8374, 192.12842, 195.25732, 199.96387, 203.78271, 207.60156, 212.30811, 217.60791, 220.07324, 225.36426, 229.71924, 232.18457, 236.76367, 239.229, 245.41211, 250.79541, " y="1309, ">
				expressed by a URI
		</text>
		<rect fill="white" x="182" y="1226" width="56" height="16"/>
		<text font-size="12" font-weight="600" font-family="Segoe UI" x="182, 186.59961, 193.93555, 198.74609, 209.73828, 216.19531, 220.86523, 228.125, 232.94727, " y="1239, ">
				formaturi
		</text>
		<rect fill="none" stroke="black" stroke-width="1" stroke-linecap="square" stroke-miterlimit="4" transform="translate(0.5 0.5)" x="173" y="1224" width="71" height="20"/>
		<rect fill="silver" x="177" y="1334" width="147" height="21"/>
		<rect fill="white" x="173" y="1330" width="147" height="21"/>
		<rect fill="white" x="178" y="1357" width="134" height="24"/>
		<text fill="gray" font-size="9" font-family="Segoe UI" x="178, 183.01855, 187.7251, 190.854, 194.67285, 196.85254, 202.12598, 207.21924, 209.68457, 214.95801, 217.7749, 220.24023, 223.29004, 228.3833, 233.08984, 235.55518, 239.37402, 242.42383, 247.00293, 252.09619, 257.396, 261.9751, 265.104, 270.40381, 272.86914, 275.04883, 280.34863, 285.05518, 290.14844, 293.19824, 295.37793, 298.19482, 300.37451, 305.08105, " y="1367, ">
				Version of the standard identified
		</text>
		<text fill="gray" font-size="9" font-family="Segoe UI" x="178, 183.29102, 187.646, 190.11133, 193.16113, 198.25439, 202.96094, 205.42627, 208.24316, 213.5166, 216.64551, 224.39746, 228.97656, 232.02637, " y="1379, ">
				by the format.
		</text>
		<rect fill="white" x="182" y="1332" width="131" height="16"/>
		<text font-size="12" font-weight="600" font-family="Segoe UI" x="182, 186.59961, 193.93555, 198.74609, 209.73828, 216.19531, 220.86523, 226.14453, 230.81445, 237.27148, 244.53125, 251.96094, 258.41797, 263.14648, 270.57617, 276.96289, 283.45508, 288.30078, 293.58008, 296.99023, 304.32617, " y="1345, ">
				formatstandardversion
		</text>
		<rect fill="none" stroke="black" stroke-width="1" stroke-linecap="square" stroke-miterlimit="4" transform="translate(0.5 0.5)" x="173" y="1330" width="146" height="20"/>
		<rect fill="silver" x="177" y="1392" width="52" height="21"/>
		<rect fill="white" x="173" y="1388" width="52" height="21"/>
		<rect fill="white" x="178" y="1415" width="119" height="24"/>
		<text fill="gray" font-size="9" font-family="Segoe UI" x="178, 182.71533, 187.80859, 192.51514, 194.98047, 198.79932, 200.979, 205.04834, 209.75488, 212.22021, 214.3999, 219.49316, 221.9585, 227.24951, 231.60449, 234.6543, 239.36084, 243.17969, 245.64502, 250.91846, 253.73535, 256.20068, 259.25049, 264.34375, 269.05029, 271.51562, 274.56543, 279.14453, 282.27344, 287.57324, 292.27979, " y="1425, ">
				The size in bytes of the target
		</text>
		<text fill="gray" font-size="9" font-family="Segoe UI" x="178, 181.12891, 185.83545, 189.6543, 194.92773, 200.021, 203.1499, 207.30713, 212.01367, " y="1437, ">
				resource.
		</text>
		<rect fill="white" x="182" y="1390" width="36" height="16"/>
		<text font-size="12" font-weight="600" font-family="Segoe UI" x="182, 187.2793, 190.68945, 196.4375, " y="1403, ">
				size
		</text>
		<rect fill="none" stroke="black" stroke-width="1" stroke-linecap="square" stroke-miterlimit="4" transform="translate(0.5 0.5)" x="173" y="1388" width="51" height="20"/>
		<rect fill="silver" x="177" y="1450" width="52" height="21"/>
		<rect fill="white" x="173" y="1446" width="52" height="21"/>
		<rect fill="white" x="178" y="1473" width="117" height="24"/>
		<text fill="gray" font-size="9" font-family="Segoe UI" x="178, 183.80518, 186.27051, 190.08936, 195.18262, 200.45605, 203.58496, 206.63477, 209.1001, 214.19336, 218.77246, 221.82227, 226.91553, 230.04443, 234.62354, 236.80322, 239.26855, 241.44824, 246.02734, 251.12061, 256.42041, 261.51367, 266.09277, 271.39258, " y="1483, ">
				A short natural language
		</text>
		<text fill="gray" font-size="9" font-family="Segoe UI" x="178, 183.09326, 187.67236, 195.42432, 200.13086, 202.59619, 205.41309, 210.68652, 213.81543, 216.28076, 219.33057, 224.42383, 229.13037, 231.5957, 234.64551, 239.22461, 242.35352, 247.65332, 252.35986, 255.40967, 257.875, 261.00391, 265.71045, 269.5293, 274.80273, 279.896, 283.0249, 287.18213, 291.88867, " y="1495, ">
				name for the target resource.
		</text>
		<rect fill="white" x="182" y="1448" width="36" height="16"/>
		<text font-size="12" font-weight="600" font-family="Segoe UI" x="182, 186.66992, 190.08008, 194.75, 198.16016, " y="1461, ">
				title
		</text>
		<rect fill="none" stroke="black" stroke-width="1" stroke-linecap="square" stroke-miterlimit="4" transform="translate(0.5 0.5)" x="173" y="1446" width="51" height="20"/>
		<rect fill="silver" x="177" y="1508" width="72" height="21"/>
		<rect fill="white" x="173" y="1504" width="72" height="21"/>
		<rect fill="white" x="178" y="1531" width="117" height="36"/>
		<text fill="gray" font-size="9" font-family="Segoe UI" x="178, 182.71533, 187.80859, 192.51514, 194.98047, 200.28027, 204.85938, 207.90918, 212.61572, 215.08105, 217.79688, 222.37598, 227.46924, 232.76904, 234.72021, 237.18555, 242.45898, 247.75, 250.7998, 252.97949, 258.25293, 263.34619, 267.92529, 270.10498, 272.28467, 276.63965, 278.59082, 281.05615, 284.10596, 289.19922, " y="1541, ">
				The date (and, optionally, the
		</text>
		<text fill="gray" font-size="9" font-family="Segoe UI" x="178, 181.0498, 183.22949, 190.98145, 195.68799, 198.40381, 200.86914, 206.16016, 210.8667, 213.68359, 218.95703, 222.08594, 226.79248, 229.25781, 235.76172, 240.85498, 243.03467, 247.19189, 252.28516, 254.75049, " y="1553, ">
				time) before which a
		</text>
		<text fill="gray" font-size="9" font-family="Segoe UI" x="178, 181.12891, 185.83545, 188.01514, 192.59424, 195.64404, 197.82373, 203.09717, 208.19043, 212.00928, 217.10254, 219.28223, 224.57324, 227.03857, 229.21826, 233.03711, 235.50244, 240.5957, 245.86914, 248.91895, 251.38428, 255.69531, 260.27441, 262.4541, 264.63379, 269.93359, " y="1565, ">
				relationship is not valid.
		</text>
		<rect fill="white" x="182" y="1506" width="56" height="16"/>
		<text font-size="12" font-weight="600" font-family="Segoe UI" x="182, 188.32227, 194.7793, 198.18945, 201.59961, 209.0293, 213.62891, 218.35742, 225.69336, " y="1519, ">
				validfrom
		</text>
		<rect fill="none" stroke="black" stroke-width="1" stroke-linecap="square" stroke-miterlimit="4" transform="translate(0.5 0.5)" x="173" y="1504" width="71" height="20"/>
		<rect fill="silver" x="177" y="1578" width="56" height="21"/>
		<rect fill="white" x="173" y="1574" width="56" height="21"/>
		<rect fill="white" x="178" y="1601" width="117" height="36"/>
		<text fill="gray" font-size="9" font-family="Segoe UI" x="178, 182.71533, 187.80859, 192.51514, 194.98047, 200.28027, 204.85938, 207.90918, 212.61572, 215.08105, 217.79688, 222.37598, 227.46924, 232.76904, 234.72021, 237.18555, 242.45898, 247.75, 250.7998, 252.97949, 258.25293, 263.34619, 267.92529, 270.10498, 272.28467, 276.63965, 278.59082, 281.05615, 284.10596, 289.19922, " y="1611, ">
				The date (and, optionally, the
		</text>
		<text fill="gray" font-size="9" font-family="Segoe UI" x="178, 181.0498, 183.22949, 190.98145, 195.68799, 198.40381, 200.86914, 205.44824, 208.26514, 211.31494, 216.02148, 219.15039, 221.61572, 228.11963, 233.21289, 235.39258, 239.5498, 244.64307, 247.1084, " y="1623, ">
				time) after which a
		</text>
		<text fill="gray" font-size="9" font-family="Segoe UI" x="178, 181.12891, 185.83545, 188.01514, 192.59424, 195.64404, 197.82373, 203.09717, 208.19043, 212.00928, 217.10254, 219.28223, 224.57324, 227.03857, 229.21826, 233.03711, 235.50244, 240.5957, 245.86914, 248.91895, 251.38428, 255.69531, 260.27441, 262.4541, 264.63379, 269.93359, " y="1635, ">
				relationship is not valid.
		</text>
		<rect fill="white" x="182" y="1576" width="40" height="16"/>
		<text font-size="12" font-weight="600" font-family="Segoe UI" x="182, 188.32227, 194.7793, 198.18945, 201.59961, 209.0293, 213.65234, " y="1589, ">
				validto
		</text>
		<rect fill="none" stroke="black" stroke-width="1" stroke-linecap="square" stroke-miterlimit="4" transform="translate(0.5 0.5)" x="173" y="1574" width="55" height="20"/>
		<rect fill="silver" x="177" y="1648" width="66" height="21"/>
		<rect fill="white" x="173" y="1644" width="66" height="21"/>
		<rect fill="white" x="178" y="1671" width="121" height="84"/>
		<text fill="gray" font-size="9" font-family="Segoe UI" x="178, 182.78125, 188.07227, 192.77881, 196.93604, 199.11572, 201.93262, 204.1123, 208.81885, 212.6377, 215.10303, 218.15283, 223.24609, 227.95264, 230.41797, 232.59766, 237.17676, 242.27002, 247.56982, 252.66309, 257.24219, 262.54199, 267.24854, 269.71387, 274.9873, 277.8042, 280.26953, 283.31934, 288.4126, 290.59229, " y="1681, ">
				Specifies the language of this
		</text>
		<text fill="gray" font-size="9" font-family="Segoe UI" x="178, 183.29102, 186.41992, 191.69336, 196.98438, 201.69092, 204.81982, 207.86963, 212.22461, 214.68994, 219.26904, 224.3623, 229.66211, 232.12744, 237.41846, 242.69189, 245.7417, 250.44824, 255.5415, 258.59131, 260.771, 265.3501, 267.52979, 269.70947, 274.06445, 276.52979, 281.10889, 283.28857, " y="1693, ">
				property and potentially all
		</text>
		<text fill="gray" font-size="9" font-family="Segoe UI" x="178, 183.2998, 188.00635, 191.8252, 195.98242, 200.68896, 205.78223, 211.08203, 215.66113, 220.75439, 223.8042, 226.26953, 231.56055, 234.68945, 239.96289, 245.25391, 249.96045, 253.08936, 256.13916, 258.31885, 263.02539, 266.84424, " y="1705, ">
				descendant properties.
		</text>
		<text fill="gray" font-size="9" font-family="Segoe UI" x="178, 182.13086, 189.88281, 192.0625, 194.01367, 196.19336, 200.77246, 205.86572, 211.16553, 213.63086, 217.94189, 222.521, 224.70068, 229.79395, 234.50049, 238.31934, 240.78467, 246.05811, 248.875, 251.34033, 256.64014, 261.34668, 265.16553, 269.32275, 274.0293, 279.12256, 284.42236, 289.00146, 294.09473, " y="1717, ">
				xml:lang values of descendant
		</text>
		<text fill="gray" font-size="9" font-family="Segoe UI" x="178, 183.29102, 186.41992, 191.69336, 196.98438, 201.69092, 204.81982, 207.86963, 210.04932, 214.75586, 218.57471, 221.04004, 226.31348, 230.62451, 235.33105, 238.45996, 241.58887, 243.76855, 249.06836, 253.7749, 256.24023, 259.29004, 264.3833, 266.56299, 270.38184, 272.84717, 277.1582, 281.7373, 283.91699, 289.01025, 293.7168, " y="1729, ">
				properties override this value.
		</text>
		<text fill="gray" font-size="9" font-family="Segoe UI" x="178, 182.93066, 187.50977, 189.68945, 194.78271, 199.48926, 203.30811, 205.77344, 210.35254, 213.48145, 218.18799, 220.65332, 225.95312, 230.65967, 233.70947, 238.41602, 241.54492, 249.29688, 251.47656, 256.56982, 261.27637, 266.57617, 269.0415, 274.33252, " y="1741, ">
				Values are determined by
		</text>
		<text fill="gray" font-size="9" font-family="Segoe UI" x="178, 180.39502, 185.48828, 188.53809, 193.24463, 196.37354, 201.4668, 206.17334, 209.22314, 211.68848, 216.84766, 222.41992, 227.46045, 229.92578, 234.77734, 239.62891, " y="1753, ">
				Internet BCP 47.
		</text>
		<rect fill="white" x="182" y="1646" width="50" height="16"/>
		<text font-size="12" font-weight="600" font-family="Segoe UI" x="182, 188.62695, 199.61914, 203.0293, 206.28125, 209.69141, 216.14844, 223.4082, " y="1659, ">
				xml:lang
		</text>
		<path fill="none" stroke="black" stroke-width="2" stroke-miterlimit="4" transform="translate(0.5 0.5)" d="M175 1662L179 1658"/>
		<path fill="none" stroke="black" stroke-width="1" stroke-linecap="square" stroke-miterlimit="4" transform="translate(0.5 0.5)" d="M176 1658L179 1658L179 1661"/>
		<rect fill="none" stroke="black" stroke-width="1" stroke-linecap="square" stroke-miterlimit="4" transform="translate(0.5 0.5)" x="173" y="1644" width="65" height="20"/>
		<rect fill="silver" x="177" y="1766" width="52" height="21"/>
		<rect fill="white" x="173" y="1762" width="52" height="21"/>
		<rect fill="white" x="178" y="1789" width="116" height="24"/>
		<text fill="gray" font-size="9" font-family="Segoe UI" x="178, 182.71533, 187.80859, 192.51514, 194.98047, 200.28027, 202.45996, 205.58887, 210.29541, 214.45264, 217.50244, 219.68213, 224.95557, 230.04883, 234.62793, 236.80762, 238.9873, 242.03711, 246.39209, 248.85742, 254.13086, 256.94775, 259.41309, 262.46289, 267.16943, 271.30029, 274.3501, 279.44336, 284.02246, " y="1799, ">
				The directionality of textual
		</text>
		<text fill="gray" font-size="9" font-family="Segoe UI" x="178, 182.15723, 187.43066, 192.52393, 195.57373, 200.28027, 205.37354, 208.42334, 210.88867, 213.60449, 218.31104, 223.4043, 228.49756, 236.24951, 240.95605, 244.08496, 248.66406, 251.71387, 253.89355, 259.16699, 264.26025, 266.21143, 268.67676, 270.85645, 273.90625, 277.03516, 278.98633, 281.45166, 284.58057, 287.63037, 289.81006, " y="1811, ">
				content (enumeration: ltr, rtl)
		</text>
		<rect fill="white" x="182" y="1764" width="36" height="16"/>
		<text font-size="12" font-weight="600" font-family="Segoe UI" x="182, 189.42969, 192.83984, " y="1777, ">
				dir
		</text>
		<rect fill="none" stroke="black" stroke-width="1" stroke-linecap="square" stroke-miterlimit="4" transform="translate(0.5 0.5)" x="173" y="1762" width="51" height="20"/>
		<rect fill="silver" x="177" y="1824" width="52" height="21"/>
		<rect fill="white" x="173" y="1820" width="52" height="21"/>
		<rect fill="white" x="178" y="1847" width="101" height="24"/>
		<text fill="gray" font-size="9" font-family="Segoe UI" x="178, 182.71533, 187.80859, 192.51514, 194.98047, 197.16016, 202.43359, 206.59082, 211.16992, 213.34961, 215.81494, 217.99463, 223.29443, 228.00098, 233.09424, 236.14404, 238.32373, 241.14062, 243.32031, 248.02686, 251.15576, 253.62109, 258.89453, 261.71143, 264.17676, 267.22656, 272.31982, " y="1857, ">
				The local identifier of the
		</text>
		<text fill="gray" font-size="9" font-family="Segoe UI" x="178, 183.29102, 186.41992, 191.69336, 196.98438, 201.69092, 204.81982, 207.86963, 212.22461, " y="1869, ">
				property.
		</text>
		<rect fill="white" x="182" y="1822" width="36" height="16"/>
		<text font-size="12" font-weight="600" font-family="Segoe UI" x="182, 185.41016, " y="1835, ">
				id
		</text>
		<rect fill="none" stroke="black" stroke-width="1" stroke-linecap="square" stroke-miterlimit="4" transform="translate(0.5 0.5)" x="173" y="1820" width="51" height="20"/>
		<rect fill="silver" x="177" y="1882" width="58" height="21"/>
		<rect fill="white" x="173" y="1878" width="58" height="21"/>
		<rect fill="white" x="178" y="1905" width="121" height="120"/>
		<text fill="gray" font-size="9" font-family="Segoe UI" x="178, 180.39502, 183.21191, 185.67725, 188.72705, 193.82031, 198.52686, 200.99219, 206.2832, 209.41211, 214.68555, 219.97656, 224.68311, 227.81201, 230.86182, 235.2168, 237.68213, 241.99316, 246.57227, 248.75195, 253.84521, 258.55176, 261.01709, 263.19678, 267.01562, 269.48096, 274.57422, 279.84766, " y="1915, ">
				If the property value is not
		</text>
		<text fill="gray" font-size="9" font-family="Segoe UI" x="178, 183.2998, 188.00635, 190.82324, 193.00293, 198.09619, 202.80273, 208.10254, 210.05371, 212.51904, 216.33789, 221.62891, 226.33545, 230.49268, 232.67236, 235.48926, 237.66895, 242.37549, 246.19434, 248.65967, 255.16357, 260.25684, 262.43652, 266.59375, 271.68701, 274.15234, 278.85889, 283.95215, 287.00195, 289.18164, 292.23145, " y="1927, ">
				defined, specifies which entity
		</text>
		<text fill="gray" font-size="9" font-family="Segoe UI" x="178, 180.71582, 186.00684, 190.71338, 193.84229, 197.66113, 202.93457, 208.02783, 209.979, 212.44434, 217.71777, 220.84668, 226.14648, 230.72559, 235.81885, 237.99854, 241.81738, 246.39648, 249.44629, 251.62598, 256.89941, 261.99268, 264.45801, 269.73145, " y="1939, ">
				(person, organisation or
		</text>
		<text fill="gray" font-size="9" font-family="Segoe UI" x="178, 181.81885, 186.17383, 189.99268, 193.04248, 197.74902, 205.50098, 208.2168, 210.68213, 217.18604, 219.36572, 221.54541, 223.7251, 226.19043, 230.89697, 236.19678, 238.37646, 241.42627, 243.8916, 246.94141, 252.03467, 256.74121, 259.20654, 264.49756, 267.62646, 272.8999, 278.19092, 282.89746, 286.02637, 289.07617, " y="1951, ">
				system) will edit the property
		</text>
		<text fill="gray" font-size="9" font-family="Segoe UI" x="178, 182.31104, 186.89014, 189.06982, 194.16309, 198.86963, 201.33496, 204.93408, 207.39941, 212.10596, 216.23682, 221.52783, 224.65674, 229.36328, 233.18213, 237.00098, 241.70752, 247.00732, 249.47266, 254.76367, 259.11865, 261.58398, 266.16309, 268.62842, 275.41357, 280.98584, 286.25928, 291.55908, 296.26562, " y="1963, ">
				value - expressed by a QCode.
		</text>
		<text fill="gray" font-size="9" font-family="Segoe UI" x="178, 180.39502, 183.21191, 185.67725, 188.72705, 193.82031, 198.52686, 200.99219, 206.2832, 209.41211, 214.68555, 219.97656, 224.68311, 227.81201, 230.86182, 235.2168, 237.68213, 241.99316, 246.57227, 248.75195, 253.84521, 258.55176, 261.01709, 263.19678, " y="1975, ">
				If the property value is
		</text>
		<text fill="gray" font-size="9" font-family="Segoe UI" x="178, 183.2998, 188.00635, 190.82324, 193.00293, 198.09619, 202.80273, 208.10254, 210.05371, 212.51904, 216.33789, 221.62891, 226.33545, 230.49268, 232.67236, 235.48926, 237.66895, 242.37549, 246.19434, 248.65967, 255.16357, 260.25684, 262.43652, 266.59375, 271.68701, 274.15234, 278.85889, 283.95215, 287.00195, 289.18164, 292.23145, " y="1987, ">
				defined, specifies which entity
		</text>
		<text fill="gray" font-size="9" font-family="Segoe UI" x="178, 180.71582, 186.00684, 190.71338, 193.84229, 197.66113, 202.93457, 208.02783, 209.979, 212.44434, 217.71777, 220.84668, 226.14648, 230.72559, 235.81885, 237.99854, 241.81738, 246.39648, 249.44629, 251.62598, 256.89941, 261.99268, 264.45801, 269.73145, " y="1999, ">
				(person, organisation or
		</text>
		<text fill="gray" font-size="9" font-family="Segoe UI" x="178, 181.81885, 186.17383, 189.99268, 193.04248, 197.74902, 205.50098, 208.2168, 210.68213, 215.77539, 220.35449, 224.17334, 226.63867, 231.34521, 236.64502, 238.82471, 241.87451, 246.58105, 251.88086, 254.34619, 257.396, 262.48926, " y="2011, ">
				system) has edited the
		</text>
		<text fill="gray" font-size="9" font-family="Segoe UI" x="178, 183.29102, 186.41992, 191.69336, 196.98438, 201.69092, 204.81982, 207.86963, 212.22461, 214.68994, 219.00098, 223.58008, 225.75977, 230.85303, 235.55957, " y="2023, ">
				property value.
		</text>
		<rect fill="white" x="182" y="1880" width="42" height="16"/>
		<text font-size="12" font-weight="600" font-family="Segoe UI" x="182, 187.75977, 192.48828, 198.98047, 205.4375, 210.06055, 217.39648, " y="1893, ">
				creator
		</text>
		<rect fill="none" stroke="black" stroke-width="1" stroke-linecap="square" stroke-miterlimit="4" transform="translate(0.5 0.5)" x="173" y="1878" width="57" height="20"/>
		<rect fill="silver" x="177" y="2036" width="73" height="21"/>
		<rect fill="white" x="173" y="2032" width="73" height="21"/>
		<rect fill="white" x="178" y="2059" width="120" height="108"/>
		<text fill="gray" font-size="9" font-family="Segoe UI" x="178, 180.39502, 183.21191, 185.67725, 188.72705, 193.82031, 198.52686, 200.99219, 206.2832, 209.41211, 214.68555, 219.97656, 224.68311, 227.81201, 230.86182, 235.2168, 237.68213, 241.99316, 246.57227, 248.75195, 253.84521, 258.55176, 261.01709, 263.19678, 267.01562, 269.48096, 274.57422, 279.84766, " y="2069, ">
				If the property value is not
		</text>
		<text fill="gray" font-size="9" font-family="Segoe UI" x="178, 183.2998, 188.00635, 190.82324, 193.00293, 198.09619, 202.80273, 208.10254, 210.05371, 212.51904, 216.33789, 221.62891, 226.33545, 230.49268, 232.67236, 235.48926, 237.66895, 242.37549, 246.19434, 248.65967, 255.16357, 260.25684, 262.43652, 266.59375, 271.68701, 274.15234, 278.85889, 283.95215, 287.00195, 289.18164, 292.23145, " y="2081, ">
				defined, specifies which entity
		</text>
		<text fill="gray" font-size="9" font-family="Segoe UI" x="178, 180.71582, 186.00684, 190.71338, 193.84229, 197.66113, 202.93457, 208.02783, 209.979, 212.44434, 217.71777, 220.84668, 226.14648, 230.72559, 235.81885, 237.99854, 241.81738, 246.39648, 249.44629, 251.62598, 256.89941, 261.99268, 264.45801, 269.73145, " y="2093, ">
				(person, organisation or
		</text>
		<text fill="gray" font-size="9" font-family="Segoe UI" x="178, 181.81885, 186.17383, 189.99268, 193.04248, 197.74902, 205.50098, 208.2168, 210.68213, 217.18604, 219.36572, 221.54541, 223.7251, 226.19043, 230.89697, 236.19678, 238.37646, 241.42627, 243.8916, 246.94141, 252.03467, 256.74121, 259.20654, 264.49756, 267.62646, 272.8999, 278.19092, 282.89746, 286.02637, 289.07617, " y="2105, ">
				system) will edit the property
		</text>
		<text fill="gray" font-size="9" font-family="Segoe UI" x="178, 181.59912, 184.06445, 188.771, 192.90186, 198.19287, 201.32178, 206.02832, 209.84717, 213.66602, 218.37256, 223.67236, 226.1377, 231.42871, 235.78369, 238.24902, 242.82812, 245.29346, 251.47656, 256.85986, 259.25488, 261.20605, 263.67139, 266.06641, 268.8833, 271.34863, 274.39844, 279.4917, " y="2117, ">
				- expressed by a URI. If the
		</text>
		<text fill="gray" font-size="9" font-family="Segoe UI" x="178, 183.29102, 186.41992, 191.69336, 196.98438, 201.69092, 204.81982, 207.86963, 212.22461, 214.68994, 219.00098, 223.58008, 225.75977, 230.85303, 235.55957, 238.0249, 240.20459, 244.02344, 246.48877, 251.78857, 256.49512, 259.31201, 261.4917, 266.58496, 271.2915, 276.59131, " y="2129, ">
				property value is defined,
		</text>
		<text fill="gray" font-size="9" font-family="Segoe UI" x="178, 181.81885, 187.10986, 191.81641, 195.97363, 198.15332, 200.97021, 203.1499, 207.85645, 211.67529, 214.14062, 220.64453, 225.73779, 227.91748, 232.07471, 237.16797, 239.6333, 244.33984, 249.43311, 252.48291, 254.6626, 257.7124, 262.06738, 264.53271, 267.24854, 272.53955, 277.24609, 280.375, 284.19385, 289.46729, 294.56055, " y="2141, ">
				specifies which entity (person,
		</text>
		<text fill="gray" font-size="9" font-family="Segoe UI" x="178, 183.27344, 186.40234, 191.70215, 196.28125, 201.37451, 203.5542, 207.37305, 211.95215, 215.00195, 217.18164, 222.45508, 227.54834, 230.01367, 235.28711, 238.41602, 240.88135, 244.7002, 249.05518, 252.87402, 255.92383, 260.63037, 268.38232, 271.09814, 273.56348, 278.65674, 283.23584, " y="2153, ">
				organisation or system) has
		</text>
		<text fill="gray" font-size="9" font-family="Segoe UI" x="178, 182.70654, 188.00635, 190.18604, 193.23584, 197.94238, 203.24219, 205.70752, 208.75732, 213.85059, 218.55713, 221.02246, 226.31348, 229.44238, 234.71582, 240.00684, 244.71338, 247.84229, 250.89209, 255.24707, " y="2165, ">
				edited the property.
		</text>
		<rect fill="white" x="182" y="2034" width="57" height="16"/>
		<text font-size="12" font-weight="600" font-family="Segoe UI" x="182, 187.75977, 192.48828, 198.98047, 205.4375, 210.06055, 217.39648, 222.20703, 229.4668, 234.28906, " y="2047, ">
				creatoruri
		</text>
		<rect fill="none" stroke="black" stroke-width="1" stroke-linecap="square" stroke-miterlimit="4" transform="translate(0.5 0.5)" x="173" y="2032" width="72" height="20"/>
		<rect fill="silver" x="177" y="2178" width="69" height="21"/>
		<rect fill="white" x="173" y="2174" width="69" height="21"/>
		<rect fill="white" x="178" y="2201" width="119" height="72"/>
		<text fill="gray" font-size="9" font-family="Segoe UI" x="178, 182.71533, 187.80859, 192.51514, 194.98047, 200.28027, 204.85938, 207.90918, 212.61572, 215.08105, 217.79688, 222.37598, 227.46924, 232.76904, 234.72021, 237.18555, 242.45898, 247.75, 250.7998, 252.97949, 258.25293, 263.34619, 267.92529, 270.10498, 272.28467, 276.63965, 278.59082, 281.05615, 284.10596, 289.19922, " y="2211, ">
				The date (and, optionally, the
		</text>
		<text fill="gray" font-size="9" font-family="Segoe UI" x="178, 181.0498, 183.22949, 190.98145, 195.68799, 198.40381, 200.86914, 207.37305, 212.46631, 217.17285, 222.26611, 224.73145, 227.78125, 232.87451, 237.58105, 240.04639, 245.3374, 248.46631, 253.73975, 259.03076, 263.7373, 266.86621, 269.91602, 274.271, 276.73633, 283.24023, 287.81934, " y="2223, ">
				time) when the property was
		</text>
		<text fill="gray" font-size="9" font-family="Segoe UI" x="178, 180.17969, 184.75879, 188.57764, 191.62744, 194.09277, 201.84473, 207.11816, 212.41797, 214.59766, 217.41455, 219.59424, 224.30078, 229.60059, 231.55176, 234.01709, 238.73242, 243.82568, 248.53223, 250.99756, 253.17725, 258.27051, 260.4502, 263.5, 265.67969, 270.25879, 272.43848, 274.90381, 279.21484, 283.79395, 285.97363, 291.06689, " y="2235, ">
				last modified. The initial value
		</text>
		<text fill="gray" font-size="9" font-family="Segoe UI" x="178, 180.17969, 183.99854, 186.46387, 189.51367, 194.60693, 199.31348, 201.77881, 207.07861, 211.65771, 214.70752, 219.41406, 221.87939, 224.59521, 229.17432, 234.26758, 239.56738, 241.51855, 243.98389, 249.25732, 254.54834, 257.59814, 259.77783, 265.05127, 270.14453, 274.72363, 276.90332, 279.08301, 283.43799, " y="2247, ">
				is the date (and, optionally,
		</text>
		<text fill="gray" font-size="9" font-family="Segoe UI" x="178, 181.0498, 186.14307, 190.84961, 193.31494, 196.36475, 198.54443, 206.29639, 211.00293, 213.71875, 216.18408, 221.45752, 224.27441, 226.73975, 230.89697, 234.02588, 238.73242, 243.31152, 246.36133, 248.54102, 253.81445, 258.90771, 261.37305, 266.64648, 269.46338, 271.92871, 274.97852, 280.07178, " y="2259, ">
				the time) of creation of the
		</text>
		<text fill="gray" font-size="9" font-family="Segoe UI" x="178, 183.29102, 186.41992, 191.69336, 196.98438, 201.69092, 204.81982, 207.86963, 212.22461, " y="2271, ">
				property.
		</text>
		<rect fill="white" x="182" y="2176" width="53" height="16"/>
		<text font-size="12" font-weight="600" font-family="Segoe UI" x="182, 192.99219, 200.32812, 207.75781, 211.16797, 215.76758, 219.17773, 225.66992, " y="2189, ">
				modified
		</text>
		<rect fill="none" stroke="black" stroke-width="1" stroke-linecap="square" stroke-miterlimit="4" transform="translate(0.5 0.5)" x="173" y="2174" width="68" height="20"/>
		<rect fill="silver" x="177" y="2284" width="59" height="21"/>
		<rect fill="white" x="173" y="2280" width="59" height="21"/>
		<rect fill="white" x="178" y="2307" width="118" height="108"/>
		<text fill="gray" font-size="9" font-family="Segoe UI" x="178, 180.39502, 183.21191, 185.67725, 189.49609, 194.20264, 197.25244, 199.71777, 202.76758, 208.04102, 210.50635, 213.55615, 216.68506, 221.77832, 226.48486, 228.9502, 232, 237.09326, " y="2317, ">
				If set to true the
		</text>
		<text fill="gray" font-size="9" font-family="Segoe UI" x="178, 182.15723, 187.43066, 190.55957, 193.68848, 198.39502, 202.21387, 207.50488, 212.77832, 217.87158, 223.17139, 225.35107, 230.44434, 235.74414, 238.20947, 243.50049, 246.62939, 251.90283, 257.19385, 261.90039, 265.0293, 268.0791, 272.43408, 274.89941, 281.40332, 285.98242, " y="2329, ">
				corresponding property was
		</text>
		<text fill="gray" font-size="9" font-family="Segoe UI" x="178, 182.5791, 187.87891, 193.17871, 197.88525, 203.18506, 205.65039, 208.7002, 213.97363, 216.43896, 219.48877, 224.58203, 229.28857, 231.75391, 237.92822, 242.77979, 245.24512, 247.64014, 250.68994, 255.39648, 263.14844, 265.61377, 268.43066, 273.7041, 276.83301, 279.29834, " y="2341, ">
				added to the G2 Item for a
		</text>
		<text fill="gray" font-size="9" font-family="Segoe UI" x="178, 181.81885, 187.10986, 191.81641, 195.97363, 198.15332, 200.97021, 203.1499, 207.30713, 209.77246, 213.92969, 219.02295, 222.8418, 225.8916, 231.16504, 238.91699, 243.62354, 246.75244, 249.21777, 254.49121, 257.62012, 260.08545, 265.38525, 268.51416, 273.7876, 278.88086, 284.17188, 286.63721, 291.91064, " y="2353, ">
				specific customer or group of
		</text>
		<text fill="gray" font-size="9" font-family="Segoe UI" x="178, 182.15723, 187.25049, 191.06934, 194.11914, 199.39258, 207.14453, 211.85107, 214.97998, 218.79883, 221.26416, 226.5376, 231.63086, 233.81055, 238.16553, 240.1167, 242.58203, 247.29736, 252.39062, 257.09717, 259.5625, 264.8623, 269.56885, 272.38574, 276.96484, 282.05811, 284.23779, " y="2365, ">
				customers only. The default
		</text>
		<text fill="gray" font-size="9" font-family="Segoe UI" x="178, 182.31104, 186.89014, 189.06982, 194.16309, 198.86963, 201.33496, 206.6084, 209.42529, 211.89062, 214.94043, 220.03369, 222.21338, 226.03223, 228.49756, 233.78857, 236.91748, 242.19092, 247.48193, 252.18848, 255.31738, 258.36719, 262.72217, 265.1875, 267.36719, 271.18604, 273.65137, 276.46826, 281.04736, 283.22705, 287.0459, " y="2377, ">
				value of this property is false
		</text>
		<text fill="gray" font-size="9" font-family="Segoe UI" x="178, 184.50391, 189.59717, 191.77686, 195.93408, 201.02734, 203.49268, 208.07178, 213.36279, 218.65381, 220.8335, 223.01318, 227.71973, 231.53857, 234.00391, 240.50781, 245.60107, 250.30762, 255.40088, 257.86621, 260.91602, 266.00928, 268.18896, " y="2389, ">
				which applies when this
		</text>
		<text fill="gray" font-size="9" font-family="Segoe UI" x="178, 182.5791, 185.62891, 188.67871, 191.80762, 193.9873, 199.27832, 204.37158, 207.42139, 212.12793, 214.59326, 216.77295, 220.5918, 223.05713, 228.15039, 233.42383, 236.47363, 238.93896, 244.03223, 247.85107, 252.55762, 257.85742, 260.32275, 266.82666, 269.00635, 272.05615, 277.14941, 279.61475, 282.66455, 287.75781, " y="2401, ">
				attribute is not used with the
		</text>
		<text fill="gray" font-size="9" font-family="Segoe UI" x="178, 183.29102, 186.41992, 191.69336, 196.98438, 201.69092, 204.81982, 207.86963, 212.22461, " y="2413, ">
				property.
		</text>
		<rect fill="white" x="182" y="2282" width="43" height="16"/>
		<text font-size="12" font-weight="600" font-family="Segoe UI" x="182, 187.75977, 195.01953, 200.29883, 204.92188, 212.25781, " y="2295, ">
				custom
		</text>
		<rect fill="none" stroke="black" stroke-width="1" stroke-linecap="square" stroke-miterlimit="4" transform="translate(0.5 0.5)" x="173" y="2280" width="58" height="20"/>
		<rect fill="silver" x="177" y="2426" width="52" height="21"/>
		<rect fill="white" x="173" y="2422" width="52" height="21"/>
		<rect fill="white" x="178" y="2449" width="118" height="48"/>
		<text fill="gray" font-size="9" font-family="Segoe UI" x="178, 180.39502, 185.48828, 190.78809, 192.96777, 197.125, 201.7041, 204.75391, 209.46045, 213.2793, 215.74463, 221.03564, 225.39062, 227.85596, 234.35986, 239.45312, 241.63281, 245.79004, 250.8833, 253.34863, 261.10059, 265.80713, 270.38623, 275.47949, 279.29834, 281.76367, 284.81348, 289.90674, " y="2459, ">
				Indicates by which means the
		</text>
		<text fill="gray" font-size="9" font-family="Segoe UI" x="178, 182.31104, 186.89014, 189.06982, 194.16309, 198.86963, 201.33496, 207.83887, 212.41797, 216.23682, 218.70215, 223.40869, 227.53955, 230.58936, 233.71826, 238.29736, 242.45459, 245.50439, 250.21094, 255.51074, 257.97607, 260.79297, 263.92188, 269.19531, 276.94727, 279.4126, 282.4624, 287.55566, " y="2471, ">
				value was extracted from the
		</text>
		<text fill="gray" font-size="9" font-family="Segoe UI" x="178, 182.15723, 187.43066, 192.52393, 195.57373, 200.28027, 205.37354, 208.42334, 210.88867, 214.48779, 216.95312, 221.65967, 225.79053, 231.08154, 234.21045, 238.91699, 242.73584, 246.55469, 251.26123, 256.56104, 259.02637, 264.31738, 268.67236, 271.1377, " y="2483, ">
				content - expressed by a
		</text>
		<text fill="gray" font-size="9" font-family="Segoe UI" x="178, 184.78516, 190.35742, 195.63086, 200.93066, " y="2495, ">
				QCode
		</text>
		<rect fill="white" x="182" y="2424" width="36" height="16"/>
		<text font-size="12" font-weight="600" font-family="Segoe UI" x="182, 189.22461, 196.56055, " y="2437, ">
				how
		</text>
		<rect fill="none" stroke="black" stroke-width="1" stroke-linecap="square" stroke-miterlimit="4" transform="translate(0.5 0.5)" x="173" y="2422" width="51" height="20"/>
		<rect fill="silver" x="177" y="2508" width="57" height="21"/>
		<rect fill="white" x="173" y="2504" width="57" height="21"/>
		<rect fill="white" x="178" y="2531" width="118" height="36"/>
		<text fill="gray" font-size="9" font-family="Segoe UI" x="178, 180.39502, 185.48828, 190.78809, 192.96777, 197.125, 201.7041, 204.75391, 209.46045, 213.2793, 215.74463, 221.03564, 225.39062, 227.85596, 234.35986, 239.45312, 241.63281, 245.79004, 250.8833, 253.34863, 261.10059, 265.80713, 270.38623, 275.47949, 279.29834, 281.76367, 284.81348, 289.90674, " y="2541, ">
				Indicates by which means the
		</text>
		<text fill="gray" font-size="9" font-family="Segoe UI" x="178, 182.31104, 186.89014, 189.06982, 194.16309, 198.86963, 201.33496, 207.83887, 212.41797, 216.23682, 218.70215, 223.40869, 227.53955, 230.58936, 233.71826, 238.29736, 242.45459, 245.50439, 250.21094, 255.51074, 257.97607, 260.79297, 263.92188, 269.19531, 276.94727, 279.4126, 282.4624, 287.55566, " y="2553, ">
				value was extracted from the
		</text>
		<text fill="gray" font-size="9" font-family="Segoe UI" x="178, 182.15723, 187.43066, 192.52393, 195.57373, 200.28027, 205.37354, 208.42334, 210.88867, 214.48779, 216.95312, 221.65967, 225.79053, 231.08154, 234.21045, 238.91699, 242.73584, 246.55469, 251.26123, 256.56104, 259.02637, 264.31738, 268.67236, 271.1377, 275.7168, 278.18213, 284.36523, 289.74854, " y="2565, ">
				content - expressed by a URI
		</text>
		<rect fill="white" x="182" y="2506" width="41" height="16"/>
		<text font-size="12" font-weight="600" font-family="Segoe UI" x="182, 189.22461, 196.56055, 206.12891, 213.38867, 218.21094, " y="2519, ">
				howuri
		</text>
		<rect fill="none" stroke="black" stroke-width="1" stroke-linecap="square" stroke-miterlimit="4" transform="translate(0.5 0.5)" x="173" y="2504" width="56" height="20"/>
		<rect fill="silver" x="177" y="2578" width="52" height="21"/>
		<rect fill="white" x="173" y="2574" width="52" height="21"/>
		<rect fill="white" x="178" y="2601" width="113" height="36"/>
		<text fill="gray" font-size="9" font-family="Segoe UI" x="178, 186.40674, 191.5, 195.85498, 198.32031, 201.37012, 206.46338, 211.16992, 213.63525, 221.38721, 226.09375, 229.14355, 233.72266, 239.02246, 243.60156, 246.65137, 251.23047, 253.6958, 258.78906, 263.36816, 267.18701, 269.65234, 274.94336, 279.6499, 284.35645, " y="2611, ">
				Why the metadata has been
		</text>
		<text fill="gray" font-size="9" font-family="Segoe UI" x="178, 180.17969, 185.27295, 189.43018, 191.60986, 196.70312, 202.00293, 206.70947, 212.00928, 214.47461, 218.07373, 220.53906, 225.24561, 229.37646, 234.66748, 237.79639, 242.50293, 246.32178, 250.14062, 254.84717, 260.14697, 262.6123, 267.90332, 272.2583, 274.72363, " y="2623, ">
				included - expressed by a
		</text>
		<text fill="gray" font-size="9" font-family="Segoe UI" x="178, 184.78516, 190.35742, 195.63086, 200.93066, " y="2635, ">
				QCode
		</text>
		<rect fill="white" x="182" y="2576" width="36" height="16"/>
		<text font-size="12" font-weight="600" font-family="Segoe UI" x="182, 191.56836, 198.79297, " y="2589, ">
				why
		</text>
		<rect fill="none" stroke="black" stroke-width="1" stroke-linecap="square" stroke-miterlimit="4" transform="translate(0.5 0.5)" x="173" y="2574" width="51" height="20"/>
		<rect fill="silver" x="177" y="2648" width="56" height="21"/>
		<rect fill="white" x="173" y="2644" width="56" height="21"/>
		<rect fill="white" x="178" y="2671" width="119" height="24"/>
		<text fill="gray" font-size="9" font-family="Segoe UI" x="178, 186.40674, 191.5, 195.85498, 198.32031, 201.37012, 206.46338, 211.16992, 213.63525, 221.38721, 226.09375, 229.14355, 233.72266, 239.02246, 243.60156, 246.65137, 251.23047, 253.6958, 258.78906, 263.36816, 267.18701, 269.65234, 274.94336, 279.6499, 284.35645, " y="2681, ">
				Why the metadata has been
		</text>
		<text fill="gray" font-size="9" font-family="Segoe UI" x="178, 180.17969, 185.27295, 189.43018, 191.60986, 196.70312, 202.00293, 206.70947, 212.00928, 214.47461, 218.07373, 220.53906, 225.24561, 229.37646, 234.66748, 237.79639, 242.50293, 246.32178, 250.14062, 254.84717, 260.14697, 262.6123, 267.90332, 272.2583, 274.72363, 279.30273, 281.76807, 287.95117, 293.33447, " y="2693, ">
				included - expressed by a URI
		</text>
		<rect fill="white" x="182" y="2646" width="40" height="16"/>
		<text font-size="12" font-weight="600" font-family="Segoe UI" x="182, 191.56836, 198.79297, 205.25, 212.50977, 217.33203, " y="2659, ">
				whyuri
		</text>
		<rect fill="none" stroke="black" stroke-width="1" stroke-linecap="square" stroke-miterlimit="4" transform="translate(0.5 0.5)" x="173" y="2644" width="55" height="20"/>
		<rect fill="silver" x="177" y="2706" width="97" height="21"/>
		<rect fill="white" x="173" y="2702" width="97" height="21"/>
		<rect fill="white" x="178" y="2729" width="117" height="72"/>
		<text fill="gray" font-size="9" font-family="Segoe UI" x="178, 184.78516, 189.87842, 194.58496, 197.05029, 202.32373, 205.45264, 207.91797, 215.66992, 220.24902, 225.34229, 229.69727, 232.1626, 236.31982, 241.59326, 246.68652, 250.50537, 253.55518, 256.68408, 261.26318, 263.44287, 268.53613, 271.58594, 275.40479, 277.87012, 280.91992, 286.01318, 290.59229, " y="2739, ">
				One or many constraints that
		</text>
		<text fill="gray" font-size="9" font-family="Segoe UI" x="178, 182.5791, 187.87012, 193.16113, 195.34082, 199.6958, 202.16113, 205.21094, 210.48438, 212.94971, 218.24072, 223.33398, 228.625, 230.80469, 232.98438, 236.80322, 241.89648, 244.07617, 249.16943, 254.46924, 256.93457, 259.98438, 265.07764, 269.78418, 272.24951, 276.56055, 281.13965, 283.31934, 288.4126, " y="2751, ">
				apply to publishing the value
		</text>
		<text fill="gray" font-size="9" font-family="Segoe UI" x="178, 183.27344, 186.09033, 188.55566, 191.60547, 196.69873, 201.40527, 203.87061, 209.16162, 212.29053, 217.56396, 222.85498, 227.56152, 230.69043, 233.74023, 238.09521, 240.56055, 244.15967, 246.625, 251.33154, 255.4624, 260.75342, 263.88232, 268.58887, 272.40771, 276.22656, 280.93311, " y="2763, ">
				of the property - expressed
		</text>
		<text fill="gray" font-size="9" font-family="Segoe UI" x="178, 183.29102, 187.646, 190.11133, 194.69043, 197.15576, 203.94092, 209.51318, 214.78662, 220.08643, 224.79297, 226.74414, 229.20947, 233.76221, 238.34131, 242.49854, 247.5918, 250.05713, 254.21436, 259.48779, 264.58105, 268.3999, 271.44971, 274.57861, 279.15771, 281.3374, 286.43066, " y="2775, ">
				by a QCode. Each constraint
		</text>
		<text fill="gray" font-size="9" font-family="Segoe UI" x="178, 182.5791, 187.87012, 193.16113, 195.34082, 197.52051, 202.22705, 206.0459, 208.51123, 211.56104, 216.83447, 219.2998, 223.87891, 226.05859, 228.23828, 230.70361, 236.00342, 240.70996, 244.52881, 248.68604, 253.39258, 258.48584, 263.78564, 268.36475, 273.45801, " y="2787, ">
				applies to all descendant
		</text>
		<text fill="gray" font-size="9" font-family="Segoe UI" x="178, 182.70654, 184.88623, 189.59277, 197.34473, 202.05127, 207.14453, 210.19434, 214.01318, " y="2799, ">
				elements.
		</text>
		<rect fill="white" x="182" y="2704" width="81" height="16"/>
		<text font-size="12" font-weight="600" font-family="Segoe UI" x="182, 189.44141, 196.70117, 204.14258, 209.90234, 217.23828, 224.49805, 229.77734, 234.44727, 239.22266, 245.67969, 249.08984, 256.34961, " y="2717, ">
				pubconstraint
		</text>
		<rect fill="none" stroke="black" stroke-width="1" stroke-linecap="square" stroke-miterlimit="4" transform="translate(0.5 0.5)" x="173" y="2702" width="96" height="20"/>
		<rect fill="silver" x="177" y="2812" width="112" height="21"/>
		<rect fill="white" x="173" y="2808" width="112" height="21"/>
		<rect fill="white" x="178" y="2835" width="117" height="72"/>
		<text fill="gray" font-size="9" font-family="Segoe UI" x="178, 184.78516, 189.87842, 194.58496, 197.05029, 202.32373, 205.45264, 207.91797, 215.66992, 220.24902, 225.34229, 229.69727, 232.1626, 236.31982, 241.59326, 246.68652, 250.50537, 253.55518, 256.68408, 261.26318, 263.44287, 268.53613, 271.58594, 275.40479, 277.87012, 280.91992, 286.01318, 290.59229, " y="2845, ">
				One or many constraints that
		</text>
		<text fill="gray" font-size="9" font-family="Segoe UI" x="178, 182.5791, 187.87012, 193.16113, 195.34082, 199.6958, 202.16113, 205.21094, 210.48438, 212.94971, 218.24072, 223.33398, 228.625, 230.80469, 232.98438, 236.80322, 241.89648, 244.07617, 249.16943, 254.46924, 256.93457, 259.98438, 265.07764, 269.78418, 272.24951, 276.56055, 281.13965, 283.31934, 288.4126, " y="2857, ">
				apply to publishing the value
		</text>
		<text fill="gray" font-size="9" font-family="Segoe UI" x="178, 183.27344, 186.09033, 188.55566, 191.60547, 196.69873, 201.40527, 203.87061, 209.16162, 212.29053, 217.56396, 222.85498, 227.56152, 230.69043, 233.74023, 238.09521, 240.56055, 244.15967, 246.625, 251.33154, 255.4624, 260.75342, 263.88232, 268.58887, 272.40771, 276.22656, 280.93311, " y="2869, ">
				of the property - expressed
		</text>
		<text fill="gray" font-size="9" font-family="Segoe UI" x="178, 183.29102, 187.646, 190.11133, 194.69043, 197.15576, 203.33887, 208.72217, 211.11719, 213.06836, 215.53369, 220.08643, 224.66553, 228.82275, 233.91602, 236.38135, 240.53857, 245.81201, 250.90527, 254.72412, 257.77393, 260.90283, 265.48193, 267.66162, 272.75488, " y="2881, ">
				by a URI. Each constraint
		</text>
		<text fill="gray" font-size="9" font-family="Segoe UI" x="178, 182.5791, 187.87012, 193.16113, 195.34082, 197.52051, 202.22705, 206.0459, 208.51123, 211.56104, 216.83447, 219.2998, 223.87891, 226.05859, 228.23828, 230.70361, 236.00342, 240.70996, 244.52881, 248.68604, 253.39258, 258.48584, 263.78564, 268.36475, 273.45801, " y="2893, ">
				applies to all descendant
		</text>
		<text fill="gray" font-size="9" font-family="Segoe UI" x="178, 182.70654, 184.88623, 189.59277, 197.34473, 202.05127, 207.14453, 210.19434, 214.01318, " y="2905, ">
				elements.
		</text>
		<rect fill="white" x="182" y="2810" width="96" height="16"/>
		<text font-size="12" font-weight="600" font-family="Segoe UI" x="182, 189.44141, 196.70117, 204.14258, 209.90234, 217.23828, 224.49805, 229.77734, 234.44727, 239.22266, 245.67969, 249.08984, 256.34961, 261.01953, 268.2793, 273.10156, " y="2823, ">
				pubconstrainturi
		</text>
		<rect fill="none" stroke="black" stroke-width="1" stroke-linecap="square" stroke-miterlimit="4" transform="translate(0.5 0.5)" x="173" y="2808" width="111" height="20"/>
		<rect fill="silver" x="177" y="2918" width="59" height="21"/>
		<rect fill="white" x="173" y="2914" width="59" height="21"/>
		<rect fill="white" x="178" y="2941" width="119" height="60"/>
		<text fill="gray" font-size="9" font-family="Segoe UI" x="178, 182.71533, 187.80859, 192.51514, 194.98047, 200.07373, 203.89258, 208.59912, 211.06445, 216.33789, 219.15479, 221.62012, 224.66992, 229.76318, 231.94287, 235.76172, 238.22705, 242.80615, 245.85596, 248.90576, 252.03467, 254.21436, 259.50537, 264.59863, 267.64844, 272.35498, 274.82031, 277, " y="2951, ">
				The use of this attribute is
		</text>
		<text fill="gray" font-size="9" font-family="Segoe UI" x="178, 184.31055, 188.86328, 193.90381, 199.28711, 203.83984, 209.41211, 214.57129, 219.28662, 223.83936, 230.1499, 232.10107, 234.56641, 239.65967, 243.47852, 248.18506, 250.65039, 259.24609, 262.375, 267.08154, 270.90039, 273.08008, 278.37988, 281.50879, 286.21533, " y="2963, ">
				DEPRECATED, use @residref
		</text>
		<text fill="gray" font-size="9" font-family="Segoe UI" x="178, 180.17969, 185.27295, 189.0918, 192.1416, 196.84814, 201.42725, 206.72705, 208.67822, 211.14355, 213.85938, 220.36328, 224.94238, 228.76123, 230.7124, 233.17773, 237.89307, 242.98633, 247.69287, 250.1582, 255.45801, 257.6377, 262.91113, 268.20215, 272.78125, 274.96094, 277.14062, " y="2975, ">
				instead. (was: The globally
		</text>
		<text fill="gray" font-size="9" font-family="Segoe UI" x="178, 183.09326, 188.18652, 190.36621, 195.66602, 200.75928, 205.46582, 207.93115, 210.32617, 215.62598, 220.33252, 225.42578, 228.47559, 230.65527, 233.47217, 235.65186, 240.3584, 243.4873, 245.95264, 251.22607, 254.04297, 256.5083, 259.55811, 264.65137, 269.35791, 271.82324, 274.87305, 279.45215, 282.58105, 287.88086, 292.5874, " y="2987, ">
				unique Identifier of the target
		</text>
		<text fill="gray" font-size="9" font-family="Segoe UI" x="178, 180.39502, 183.44482, 188.15137, 195.90332, 197.85449, " y="2999, ">
				Item.)
		</text>
		<rect fill="white" x="182" y="2916" width="43" height="16"/>
		<text font-size="12" font-weight="600" font-family="Segoe UI" x="182, 189.42969, 196.68945, 200.09961, 207.5293, 212.25781, 218.75, " y="2929, ">
				guidref
		</text>
		<rect fill="none" stroke="black" stroke-width="1" stroke-linecap="square" stroke-miterlimit="4" transform="translate(0.5 0.5)" x="173" y="2914" width="58" height="20"/>
		<rect fill="silver" x="177" y="3012" width="66" height="21"/>
		<rect fill="white" x="173" y="3008" width="66" height="21"/>
		<rect fill="white" x="178" y="3035" width="113" height="48"/>
		<text fill="gray" font-size="9" font-family="Segoe UI" x="178, 182.71533, 187.80859, 192.51514, 194.98047, 200.07373, 203.89258, 208.59912, 211.06445, 216.33789, 219.15479, 221.62012, 224.66992, 229.76318, 231.94287, 235.76172, 238.22705, 242.80615, 245.85596, 248.90576, 252.03467, 254.21436, 259.50537, 264.59863, 267.64844, 272.35498, 274.82031, 277, " y="3045, ">
				The use of this attribute is
		</text>
		<text fill="gray" font-size="9" font-family="Segoe UI" x="178, 184.31055, 188.86328, 193.90381, 199.28711, 203.83984, 209.41211, 214.57129, 219.28662, 223.83936, 230.1499, 232.10107, 234.56641, 239.65967, 243.47852, " y="3057, ">
				DEPRECATED, use
		</text>
		<text fill="gray" font-size="9" font-family="Segoe UI" x="178, 186.5957, 190.75293, 196.02637, 201.11963, 204.16943, 208.87598, 213.96924, 217.01904, 220.06885, 224.42383, 229.71484, 234.42139, 236.88672, 239.06641, 244.15967, 247.97852, 251.02832, 255.73486, 260.31396, 265.61377, 267.56494, 270.03027, 272.74609, 279.25, 283.8291, 287.64795, " y="3069, ">
				@contenttype instead. (was:
		</text>
		<text fill="gray" font-size="9" font-family="Segoe UI" x="178, 183.80518, 188.89844, 191.36377, 193.75879, 199.56396, 206.29639, 212.10156, 214.56689, 222.64844, 227.35498, 232.65479, 234.83447, 239.41357, 241.87891, 246.09766, 250.45264, 255.74365, 260.4502, 262.40137, " y="3081, ">
				An IANA Media Type.)
		</text>
		<rect fill="white" x="182" y="3010" width="50" height="16"/>
		<text font-size="12" font-weight="600" font-family="Segoe UI" x="182, 189.22461, 193.95312, 200.44531, 205.27344, 209.94336, 216.40039, 223.8418, " y="3023, ">
				hreftype
		</text>
		<rect fill="none" stroke="black" stroke-width="1" stroke-linecap="square" stroke-miterlimit="4" transform="translate(0.5 0.5)" x="173" y="3008" width="65" height="20"/>
		<path fill="silver" d="M177 3099L182 3094L250 3094L255 3099L255 3110L250 3115L182 3115L177 3110L177 3099Z"/>
		<path fill="white" d="M173 3095L178 3090L246 3090L251 3095L251 3106L246 3111L178 3111L173 3106L173 3095Z"/>
		<rect fill="white" x="200" y="3092" width="46" height="16"/>
		<text font-size="12" font-weight="600" font-family="Segoe UI" x="200, 207.10742, 214.21484, 221.55078, 226.2207, 233.44531, 239.9375, " y="3105, ">
				##other
		</text>
		<rect fill="white" x="178" y="3092" width="20" height="16"/>
		<text fill="gray" font-size="12" font-family="Segoe UI" x="178, 184.10547, 190.89648, " y="3105, ">
				any
		</text>
		<path fill="none" stroke="black" stroke-width="1" stroke-linecap="square" stroke-miterlimit="4" transform="translate(0.5 0.5)" d="M173 3095L178 3090L245 3090L250 3095L250 3105L245 3110L178 3110L173 3105L173 3095Z"/>
		<rect x="164" y="41" width="11" height="11"/>
		<rect fill="white" x="165" y="42" width="9" height="9"/>
		<rect x="166" y="46" width="7" height="1"/>
		<path transform="translate(0.5 0.5)" d="M204 3143.5L206 3143.5L206.5 3143.5L206.5 3144.5L206 3144.5L203.5 3144.5L203.5 3143.5L204 3143.5ZM210 3143.5L212.5 3143.5L212.5 3144.5L209.5 3144.5L209.5 3143.5L210 3143.5Z"/>
		<path fill="silver" d="M163 3143L168 3138L193 3138L198 3143L198 3154L193 3159L168 3159L163 3154L163 3143Z"/>
		<path fill="white" d="M159 3139L164 3134L189 3134L194 3139L194 3150L189 3155L164 3155L159 3150L159 3139Z"/>
		<path fill="none" stroke="black" stroke-width="1" stroke-linecap="square" stroke-miterlimit="4" transform="translate(0.5 0.5)" d="M164 3144L188 3144"/>
		<rect x="170" y="3143" width="3" height="3"/>
		<rect x="175" y="3143" width="3" height="3"/>
		<rect x="180" y="3143" width="3" height="3"/>
		<path fill="none" stroke="black" stroke-width="1" stroke-linecap="square" stroke-miterlimit="4" transform="translate(0.5 0.5)" d="M159 3139L164 3134L188 3134L193 3139L193 3149L188 3154L164 3154L159 3149L159 3139Z"/>
		<path fill="silver" d="M221 3146L226 3141L284 3141L289 3146L289 3157L284 3162L226 3162L221 3157L221 3146Z"/>
		<path fill="white" d="M217 3142L222 3137L279 3137L284 3142L284 3152L279 3157L222 3157L217 3152L217 3142Z"/>
		<path transform="translate(0.5 0.5)" d="M220.889 3137.4L221.793 3136.5L222.929 3136.5L223.429 3136.5L223.429 3137.5L222.929 3137.5L222 3137.5L222 3137L222.354 3137.35L221.243 3138.46L220.536 3137.76L220.889 3137.4ZM226.929 3136.5L228.929 3136.5L229.429 3136.5L229.429 3137.5L228.929 3137.5L226.429 3137.5L226.429 3136.5L226.929 3136.5ZM232.929 3136.5L234.929 3136.5L235.429 3136.5L235.429 3137.5L234.929 3137.5L232.429 3137.5L232.429 3136.5L232.929 3136.5ZM238.929 3136.5L240.929 3136.5L241.429 3136.5L241.429 3137.5L240.929 3137.5L238.429 3137.5L238.429 3136.5L238.929 3136.5ZM244.929 3136.5L246.929 3136.5L247.429 3136.5L247.429 3137.5L246.929 3137.5L244.429 3137.5L244.429 3136.5L244.929 3136.5ZM250.929 3136.5L252.929 3136.5L253.429 3136.5L253.429 3137.5L252.929 3137.5L250.429 3137.5L250.429 3136.5L250.929 3136.5ZM256.929 3136.5L258.929 3136.5L259.429 3136.5L259.429 3137.5L258.929 3137.5L256.429 3137.5L256.429 3136.5L256.929 3136.5ZM262.929 3136.5L264.929 3136.5L265.429 3136.5L265.429 3137.5L264.929 3137.5L262.429 3137.5L262.429 3136.5L262.929 3136.5ZM268.929 3136.5L270.929 3136.5L271.429 3136.5L271.429 3137.5L270.929 3137.5L268.429 3137.5L268.429 3136.5L268.929 3136.5ZM274.929 3136.5L276.929 3136.5L277.429 3136.5L277.429 3137.5L276.929 3137.5L274.429 3137.5L274.429 3136.5L274.929 3136.5ZM280.717 3138.01L282.132 3139.42L282.485 3139.78L281.778 3140.49L281.425 3140.13L279.657 3138.36L280.364 3137.66L280.717 3138.01ZM284.5 3142.86L284.5 3144.86L284.5 3145.36L283.5 3145.36L283.5 3144.86L283.5 3142.36L284.5 3142.36L284.5 3142.86ZM284.5 3148.86L284.5 3150.86L284.5 3151.36L283.5 3151.36L283.5 3150.86L283.5 3148.36L284.5 3148.36L284.5 3148.86ZM282.333 3154.37L280.919 3155.79L280.565 3156.14L279.858 3155.44L280.211 3155.08L281.979 3153.31L282.686 3154.02L282.333 3154.37ZM277.213 3157.5L275.213 3157.5L274.713 3157.5L274.713 3156.5L275.213 3156.5L277.713 3156.5L277.713 3157.5L277.213 3157.5ZM271.213 3157.5L269.213 3157.5L268.713 3157.5L268.713 3156.5L269.213 3156.5L271.713 3156.5L271.713 3157.5L271.213 3157.5ZM265.213 3157.5L263.213 3157.5L262.713 3157.5L262.713 3156.5L263.213 3156.5L265.713 3156.5L265.713 3157.5L265.213 3157.5ZM259.213 3157.5L257.213 3157.5L256.713 3157.5L256.713 3156.5L257.213 3156.5L259.713 3156.5L259.713 3157.5L259.213 3157.5ZM253.213 3157.5L251.213 3157.5L250.713 3157.5L250.713 3156.5L251.213 3156.5L253.713 3156.5L253.713 3157.5L253.213 3157.5ZM247.213 3157.5L245.213 3157.5L244.713 3157.5L244.713 3156.5L245.213 3156.5L247.713 3156.5L247.713 3157.5L247.213 3157.5ZM241.213 3157.5L239.213 3157.5L238.713 3157.5L238.713 3156.5L239.213 3156.5L241.713 3156.5L241.713 3157.5L241.213 3157.5ZM235.213 3157.5L233.213 3157.5L232.713 3157.5L232.713 3156.5L233.213 3156.5L235.713 3156.5L235.713 3157.5L235.213 3157.5ZM229.213 3157.5L227.213 3157.5L226.713 3157.5L226.713 3156.5L227.213 3156.5L229.713 3156.5L229.713 3157.5L229.213 3157.5ZM223.213 3157.5L221.793 3157.5L221.09 3156.8L220.737 3156.44L221.444 3155.74L221.797 3156.09L222.354 3156.65L222 3157L222 3156.5L223.713 3156.5L223.713 3157.5L223.213 3157.5ZM218.262 3153.97L216.847 3152.55L216.494 3152.2L217.201 3151.49L217.555 3151.85L219.322 3153.62L218.615 3154.32L218.262 3153.97ZM216.5 3148.28L216.5 3146.28L216.5 3145.78L217.5 3145.78L217.5 3146.28L217.5 3148.78L216.5 3148.78L216.5 3148.28ZM216.5 3142.28L216.5 3141.79L218.414 3139.88L219.121 3140.59L217.354 3142.35L217 3142L217.5 3142L217.5 3142.78L216.5 3142.78L216.5 3142.28Z"/>
		<path fill="white" d="M214 3139L219 3134L277 3134L282 3139L282 3150L277 3155L219 3155L214 3150L214 3139Z"/>
		<path fill="none" stroke="black" stroke-width="1" stroke-linecap="square" stroke-miterlimit="4" transform="translate(0.5 0.5)" d="M266 3155L272 3161L275 3158"/>
		<rect fill="#FFFFC0" x="219" y="3180" width="119" height="60"/>
		<text fill="gray" font-size="9" font-family="Segoe UI" x="219, 225.38965, 227.56934, 232.6626, 235.7124, 238.17773, 242.75684, 247.8501, 253.1499, 255.61523, 260.16797, 264.29883, 267.34863, 272.05518, 277.14844, 280.96729, 283.14697, 288.42041, 293.51367, 295.979, 300.68555, 305.95898, 308.13867, 313.23193, 316.28174, 318.74707, 321.56396, 326.8374, " y="3190, ">
				Hint and Extension Point for
		</text>
		<text fill="gray" font-size="9" font-family="Segoe UI" x="219, 224.29102, 227.41992, 232.69336, 237.98438, 242.69092, 245.81982, 248.86963, 251.04932, 255.75586, 259.57471, 262.04004, 264.85693, 267.98584, 273.25928, 281.01123, 283.47656, 286.52637, 291.61963, 296.32617, 298.7915, 305.52393, 311.3291, " y="3202, ">
				properties from the NAR
		</text>
		<text fill="gray" font-size="9" font-family="Segoe UI" x="219, 224.09326, 228.67236, 236.42432, 241.13086, 244.94971, 250.24072, 254.81982, 258.97705, 263.68359, 266.14893, 271.42236, 274.55127, 277.0166, 282.30762, 285.43652, 290.70996, 295.021, 297.20068, 302.50049, 307.20703, 310.33594, " y="3214, ">
				namespace or provider-
		</text>
		<text fill="gray" font-size="9" font-family="Segoe UI" x="219, 222.81885, 228.10986, 232.81641, 236.97363, 239.15332, 241.97021, 244.1499, 248.30713, 250.77246, 256.06348, 259.19238, 264.46582, 269.75684, 274.46338, 277.59229, 280.64209, 282.82178, 287.52832, 291.34717, 293.8125, 296.62939, 299.7583, 305.03174, 312.78369, 315.24902, 320.52246, 323.57227, 328.66553, 333.37207, " y="3226, ">
				specific properties from other
		</text>
		<text fill="gray" font-size="9" font-family="Segoe UI" x="219, 224.09326, 228.67236, 236.42432, 241.13086, 244.94971, 250.24072, 254.81982, 258.97705, 263.68359, " y="3238, ">
				namespaces
		</text>
		<rect fill="white" x="241" y="3136" width="36" height="16"/>
		<text font-size="12" font-weight="600" font-family="Segoe UI" x="241, 248.10742, 255.21484, 261.67188, 268.93164, " y="3149, ">
				##any
		</text>
		<rect fill="white" x="219" y="3136" width="20" height="16"/>
		<text fill="gray" font-size="12" font-family="Segoe UI" x="219, 225.10547, 231.89648, " y="3149, ">
				any
		</text>
		<text font-size="12" font-family="Segoe UI" x="251.76562, " y="3174, ">
				0
		</text>
		<text font-size="12" font-family="Symbol" x="266.72266, " y="3173, ">
				¥
		</text>
		<text font-size="12" font-family="Segoe UI" x="259.89844, 262.5, " y="3174, ">
				..
		</text>
		<path transform="translate(0.5 0.5)" d="M217.889 3134.4L218.793 3133.5L219.929 3133.5L220.429 3133.5L220.429 3134.5L219.929 3134.5L219 3134.5L219 3134L219.354 3134.35L218.243 3135.46L217.536 3134.76L217.889 3134.4ZM223.929 3133.5L225.929 3133.5L226.429 3133.5L226.429 3134.5L225.929 3134.5L223.429 3134.5L223.429 3133.5L223.929 3133.5ZM229.929 3133.5L231.929 3133.5L232.429 3133.5L232.429 3134.5L231.929 3134.5L229.429 3134.5L229.429 3133.5L229.929 3133.5ZM235.929 3133.5L237.929 3133.5L238.429 3133.5L238.429 3134.5L237.929 3134.5L235.429 3134.5L235.429 3133.5L235.929 3133.5ZM241.929 3133.5L243.929 3133.5L244.429 3133.5L244.429 3134.5L243.929 3134.5L241.429 3134.5L241.429 3133.5L241.929 3133.5ZM247.929 3133.5L249.929 3133.5L250.429 3133.5L250.429 3134.5L249.929 3134.5L247.429 3134.5L247.429 3133.5L247.929 3133.5ZM253.929 3133.5L255.929 3133.5L256.429 3133.5L256.429 3134.5L255.929 3134.5L253.429 3134.5L253.429 3133.5L253.929 3133.5ZM259.929 3133.5L261.929 3133.5L262.429 3133.5L262.429 3134.5L261.929 3134.5L259.429 3134.5L259.429 3133.5L259.929 3133.5ZM265.929 3133.5L267.929 3133.5L268.429 3133.5L268.429 3134.5L267.929 3134.5L265.429 3134.5L265.429 3133.5L265.929 3133.5ZM271.929 3133.5L273.929 3133.5L274.429 3133.5L274.429 3134.5L273.929 3134.5L271.429 3134.5L271.429 3133.5L271.929 3133.5ZM277.717 3135.01L279.132 3136.42L279.485 3136.78L278.778 3137.49L278.425 3137.13L276.657 3135.36L277.364 3134.66L277.717 3135.01ZM281.5 3139.86L281.5 3141.86L281.5 3142.36L280.5 3142.36L280.5 3141.86L280.5 3139.36L281.5 3139.36L281.5 3139.86ZM281.5 3145.86L281.5 3147.86L281.5 3148.36L280.5 3148.36L280.5 3147.86L280.5 3145.36L281.5 3145.36L281.5 3145.86ZM279.333 3151.37L277.919 3152.79L277.565 3153.14L276.858 3152.44L277.211 3152.08L278.979 3150.31L279.686 3151.02L279.333 3151.37ZM274.213 3154.5L272.213 3154.5L271.713 3154.5L271.713 3153.5L272.213 3153.5L274.713 3153.5L274.713 3154.5L274.213 3154.5ZM268.213 3154.5L266.213 3154.5L265.713 3154.5L265.713 3153.5L266.213 3153.5L268.713 3153.5L268.713 3154.5L268.213 3154.5ZM262.213 3154.5L260.213 3154.5L259.713 3154.5L259.713 3153.5L260.213 3153.5L262.713 3153.5L262.713 3154.5L262.213 3154.5ZM256.213 3154.5L254.213 3154.5L253.713 3154.5L253.713 3153.5L254.213 3153.5L256.713 3153.5L256.713 3154.5L256.213 3154.5ZM250.213 3154.5L248.213 3154.5L247.713 3154.5L247.713 3153.5L248.213 3153.5L250.713 3153.5L250.713 3154.5L250.213 3154.5ZM244.213 3154.5L242.213 3154.5L241.713 3154.5L241.713 3153.5L242.213 3153.5L244.713 3153.5L244.713 3154.5L244.213 3154.5ZM238.213 3154.5L236.213 3154.5L235.713 3154.5L235.713 3153.5L236.213 3153.5L238.713 3153.5L238.713 3154.5L238.213 3154.5ZM232.213 3154.5L230.213 3154.5L229.713 3154.5L229.713 3153.5L230.213 3153.5L232.713 3153.5L232.713 3154.5L232.213 3154.5ZM226.213 3154.5L224.213 3154.5L223.713 3154.5L223.713 3153.5L224.213 3153.5L226.713 3153.5L226.713 3154.5L226.213 3154.5ZM220.213 3154.5L218.793 3154.5L218.09 3153.8L217.737 3153.44L218.444 3152.74L218.797 3153.09L219.354 3153.65L219 3154L219 3153.5L220.713 3153.5L220.713 3154.5L220.213 3154.5ZM215.262 3150.97L213.847 3149.55L213.494 3149.2L214.201 3148.49L214.555 3148.85L216.322 3150.62L215.615 3151.32L215.262 3150.97ZM213.5 3145.28L213.5 3143.28L213.5 3142.78L214.5 3142.78L214.5 3143.28L214.5 3145.78L213.5 3145.78L213.5 3145.28ZM213.5 3139.28L213.5 3138.79L215.414 3136.88L216.121 3137.59L214.354 3139.35L214 3139L214.5 3139L214.5 3139.78L213.5 3139.78L213.5 3139.28Z"/>
		<rect x="193" y="3139" width="11" height="11"/>
		<rect fill="white" x="194" y="3140" width="9" height="9"/>
		<rect x="195" y="3144" width="7" height="1"/>
		<rect x="61" y="2356" width="11" height="11"/>
		<rect fill="white" x="62" y="2357" width="9" height="9"/>
		<rect x="63" y="2361" width="7" height="1"/>
	</g>
</svg>
