<?xml version="1.0" encoding="utf-8" ?>
<svg xmlns="http://www.w3.org/2000/svg" xmlns:xlink="http://www.w3.org/1999/xlink" width="368" height="1924">
	<clipPath id="cl_640">
		<rect x="-10" y="-5" width="368" height="1924"/>
	</clipPath>
	<g clip-path="url(#cl_640)">
		<rect fill="#FFFFC0" x="111" width="237" height="1914"/>
		<rect fill="none" stroke="gray" stroke-width="1" stroke-linecap="square" stroke-miterlimit="4" transform="translate(0.5 0.5)" x="111" width="236" height="1913"/>
		<path fill="none" stroke="black" stroke-width="1" stroke-linecap="square" stroke-miterlimit="4" transform="translate(0.5 0.5)" d="M91 1331L123 1331"/>
		<path fill="none" stroke="black" stroke-width="1" stroke-linecap="square" stroke-miterlimit="4" transform="translate(0.5 0.5)" d="M124 1331L124 883"/>
		<path transform="translate(0.5 0.5)" d="M124.5 1331L124.5 1333L124.5 1333.5L123.5 1333.5L123.5 1333L123.5 1330.5L124.5 1330.5L124.5 1331ZM124.5 1337L124.5 1339L124.5 1339.5L123.5 1339.5L123.5 1339L123.5 1336.5L124.5 1336.5L124.5 1337ZM124.5 1343L124.5 1345L124.5 1345.5L123.5 1345.5L123.5 1345L123.5 1342.5L124.5 1342.5L124.5 1343ZM124.5 1349L124.5 1351L124.5 1351.5L123.5 1351.5L123.5 1351L123.5 1348.5L124.5 1348.5L124.5 1349ZM124.5 1355L124.5 1357L124.5 1357.5L123.5 1357.5L123.5 1357L123.5 1354.5L124.5 1354.5L124.5 1355ZM124.5 1361L124.5 1363L124.5 1363.5L123.5 1363.5L123.5 1363L123.5 1360.5L124.5 1360.5L124.5 1361ZM124.5 1367L124.5 1369L124.5 1369.5L123.5 1369.5L123.5 1369L123.5 1366.5L124.5 1366.5L124.5 1367ZM124.5 1373L124.5 1375L124.5 1375.5L123.5 1375.5L123.5 1375L123.5 1372.5L124.5 1372.5L124.5 1373ZM124.5 1379L124.5 1381L124.5 1381.5L123.5 1381.5L123.5 1381L123.5 1378.5L124.5 1378.5L124.5 1379ZM124.5 1385L124.5 1387L124.5 1387.5L123.5 1387.5L123.5 1387L123.5 1384.5L124.5 1384.5L124.5 1385ZM124.5 1391L124.5 1393L124.5 1393.5L123.5 1393.5L123.5 1393L123.5 1390.5L124.5 1390.5L124.5 1391ZM124.5 1397L124.5 1399L124.5 1399.5L123.5 1399.5L123.5 1399L123.5 1396.5L124.5 1396.5L124.5 1397ZM124.5 1403L124.5 1405L124.5 1405.5L123.5 1405.5L123.5 1405L123.5 1402.5L124.5 1402.5L124.5 1403ZM124.5 1409L124.5 1411L124.5 1411.5L123.5 1411.5L123.5 1411L123.5 1408.5L124.5 1408.5L124.5 1409ZM124.5 1415L124.5 1417L124.5 1417.5L123.5 1417.5L123.5 1417L123.5 1414.5L124.5 1414.5L124.5 1415ZM124.5 1421L124.5 1423L124.5 1423.5L123.5 1423.5L123.5 1423L123.5 1420.5L124.5 1420.5L124.5 1421ZM124.5 1427L124.5 1429L124.5 1429.5L123.5 1429.5L123.5 1429L123.5 1426.5L124.5 1426.5L124.5 1427ZM124.5 1433L124.5 1435L124.5 1435.5L123.5 1435.5L123.5 1435L123.5 1432.5L124.5 1432.5L124.5 1433ZM124.5 1439L124.5 1441L124.5 1441.5L123.5 1441.5L123.5 1441L123.5 1438.5L124.5 1438.5L124.5 1439ZM124.5 1445L124.5 1447L124.5 1447.5L123.5 1447.5L123.5 1447L123.5 1444.5L124.5 1444.5L124.5 1445ZM124.5 1451L124.5 1453L124.5 1453.5L123.5 1453.5L123.5 1453L123.5 1450.5L124.5 1450.5L124.5 1451ZM124.5 1457L124.5 1459L124.5 1459.5L123.5 1459.5L123.5 1459L123.5 1456.5L124.5 1456.5L124.5 1457ZM124.5 1463L124.5 1465L124.5 1465.5L123.5 1465.5L123.5 1465L123.5 1462.5L124.5 1462.5L124.5 1463ZM124.5 1469L124.5 1471L124.5 1471.5L123.5 1471.5L123.5 1471L123.5 1468.5L124.5 1468.5L124.5 1469ZM124.5 1475L124.5 1477L124.5 1477.5L123.5 1477.5L123.5 1477L123.5 1474.5L124.5 1474.5L124.5 1475ZM124.5 1481L124.5 1483L124.5 1483.5L123.5 1483.5L123.5 1483L123.5 1480.5L124.5 1480.5L124.5 1481ZM124.5 1487L124.5 1489L124.5 1489.5L123.5 1489.5L123.5 1489L123.5 1486.5L124.5 1486.5L124.5 1487ZM124.5 1493L124.5 1495L124.5 1495.5L123.5 1495.5L123.5 1495L123.5 1492.5L124.5 1492.5L124.5 1493ZM124.5 1499L124.5 1501L124.5 1501.5L123.5 1501.5L123.5 1501L123.5 1498.5L124.5 1498.5L124.5 1499ZM124.5 1505L124.5 1507L124.5 1507.5L123.5 1507.5L123.5 1507L123.5 1504.5L124.5 1504.5L124.5 1505ZM124.5 1511L124.5 1513L124.5 1513.5L123.5 1513.5L123.5 1513L123.5 1510.5L124.5 1510.5L124.5 1511ZM124.5 1517L124.5 1519L124.5 1519.5L123.5 1519.5L123.5 1519L123.5 1516.5L124.5 1516.5L124.5 1517ZM124.5 1523L124.5 1525L124.5 1525.5L123.5 1525.5L123.5 1525L123.5 1522.5L124.5 1522.5L124.5 1523ZM124.5 1529L124.5 1531L124.5 1531.5L123.5 1531.5L123.5 1531L123.5 1528.5L124.5 1528.5L124.5 1529ZM124.5 1535L124.5 1537L124.5 1537.5L123.5 1537.5L123.5 1537L123.5 1534.5L124.5 1534.5L124.5 1535ZM124.5 1541L124.5 1543L124.5 1543.5L123.5 1543.5L123.5 1543L123.5 1540.5L124.5 1540.5L124.5 1541ZM124.5 1547L124.5 1549L124.5 1549.5L123.5 1549.5L123.5 1549L123.5 1546.5L124.5 1546.5L124.5 1547ZM124.5 1553L124.5 1555L124.5 1555.5L123.5 1555.5L123.5 1555L123.5 1552.5L124.5 1552.5L124.5 1553ZM124.5 1559L124.5 1561L124.5 1561.5L123.5 1561.5L123.5 1561L123.5 1558.5L124.5 1558.5L124.5 1559ZM124.5 1565L124.5 1567L124.5 1567.5L123.5 1567.5L123.5 1567L123.5 1564.5L124.5 1564.5L124.5 1565ZM124.5 1571L124.5 1573L124.5 1573.5L123.5 1573.5L123.5 1573L123.5 1570.5L124.5 1570.5L124.5 1571ZM124.5 1577L124.5 1579L124.5 1579.5L123.5 1579.5L123.5 1579L123.5 1576.5L124.5 1576.5L124.5 1577ZM124.5 1583L124.5 1585L124.5 1585.5L123.5 1585.5L123.5 1585L123.5 1582.5L124.5 1582.5L124.5 1583ZM124.5 1589L124.5 1591L124.5 1591.5L123.5 1591.5L123.5 1591L123.5 1588.5L124.5 1588.5L124.5 1589ZM124.5 1595L124.5 1597L124.5 1597.5L123.5 1597.5L123.5 1597L123.5 1594.5L124.5 1594.5L124.5 1595ZM124.5 1601L124.5 1603L124.5 1603.5L123.5 1603.5L123.5 1603L123.5 1600.5L124.5 1600.5L124.5 1601ZM124.5 1607L124.5 1609L124.5 1609.5L123.5 1609.5L123.5 1609L123.5 1606.5L124.5 1606.5L124.5 1607ZM124.5 1613L124.5 1615L124.5 1615.5L123.5 1615.5L123.5 1615L123.5 1612.5L124.5 1612.5L124.5 1613ZM124.5 1619L124.5 1621L124.5 1621.5L123.5 1621.5L123.5 1621L123.5 1618.5L124.5 1618.5L124.5 1619ZM124.5 1625L124.5 1627L124.5 1627.5L123.5 1627.5L123.5 1627L123.5 1624.5L124.5 1624.5L124.5 1625ZM124.5 1631L124.5 1633L124.5 1633.5L123.5 1633.5L123.5 1633L123.5 1630.5L124.5 1630.5L124.5 1631ZM124.5 1637L124.5 1639L124.5 1639.5L123.5 1639.5L123.5 1639L123.5 1636.5L124.5 1636.5L124.5 1637ZM124.5 1643L124.5 1645L124.5 1645.5L123.5 1645.5L123.5 1645L123.5 1642.5L124.5 1642.5L124.5 1643ZM124.5 1649L124.5 1651L124.5 1651.5L123.5 1651.5L123.5 1651L123.5 1648.5L124.5 1648.5L124.5 1649ZM124.5 1655L124.5 1657L124.5 1657.5L123.5 1657.5L123.5 1657L123.5 1654.5L124.5 1654.5L124.5 1655ZM124.5 1661L124.5 1663L124.5 1663.5L123.5 1663.5L123.5 1663L123.5 1660.5L124.5 1660.5L124.5 1661ZM124.5 1667L124.5 1669L124.5 1669.5L123.5 1669.5L123.5 1669L123.5 1666.5L124.5 1666.5L124.5 1667ZM124.5 1673L124.5 1675L124.5 1675.5L123.5 1675.5L123.5 1675L123.5 1672.5L124.5 1672.5L124.5 1673ZM124.5 1679L124.5 1681L124.5 1681.5L123.5 1681.5L123.5 1681L123.5 1678.5L124.5 1678.5L124.5 1679ZM124.5 1685L124.5 1687L124.5 1687.5L123.5 1687.5L123.5 1687L123.5 1684.5L124.5 1684.5L124.5 1685ZM124.5 1691L124.5 1693L124.5 1693.5L123.5 1693.5L123.5 1693L123.5 1690.5L124.5 1690.5L124.5 1691ZM124.5 1697L124.5 1699L124.5 1699.5L123.5 1699.5L123.5 1699L123.5 1696.5L124.5 1696.5L124.5 1697ZM124.5 1703L124.5 1705L124.5 1705.5L123.5 1705.5L123.5 1705L123.5 1702.5L124.5 1702.5L124.5 1703ZM124.5 1709L124.5 1711L124.5 1711.5L123.5 1711.5L123.5 1711L123.5 1708.5L124.5 1708.5L124.5 1709ZM124.5 1715L124.5 1717L124.5 1717.5L123.5 1717.5L123.5 1717L123.5 1714.5L124.5 1714.5L124.5 1715ZM124.5 1721L124.5 1723L124.5 1723.5L123.5 1723.5L123.5 1723L123.5 1720.5L124.5 1720.5L124.5 1721ZM124.5 1727L124.5 1729L124.5 1729.5L123.5 1729.5L123.5 1729L123.5 1726.5L124.5 1726.5L124.5 1727ZM124.5 1733L124.5 1735L124.5 1735.5L123.5 1735.5L123.5 1735L123.5 1732.5L124.5 1732.5L124.5 1733ZM124.5 1739L124.5 1741L124.5 1741.5L123.5 1741.5L123.5 1741L123.5 1738.5L124.5 1738.5L124.5 1739ZM124.5 1745L124.5 1747L124.5 1747.5L123.5 1747.5L123.5 1747L123.5 1744.5L124.5 1744.5L124.5 1745ZM124.5 1751L124.5 1753L124.5 1753.5L123.5 1753.5L123.5 1753L123.5 1750.5L124.5 1750.5L124.5 1751ZM124.5 1757L124.5 1759L124.5 1759.5L123.5 1759.5L123.5 1759L123.5 1756.5L124.5 1756.5L124.5 1757ZM124.5 1763L124.5 1765L124.5 1765.5L123.5 1765.5L123.5 1765L123.5 1762.5L124.5 1762.5L124.5 1763ZM124.5 1769L124.5 1771L124.5 1771.5L123.5 1771.5L123.5 1771L123.5 1768.5L124.5 1768.5L124.5 1769ZM124.5 1775L124.5 1777.5L123.5 1777.5L123.5 1774.5L124.5 1774.5L124.5 1775Z"/>
		<path transform="translate(0.5 0.5)" d="M124 1780.5L126 1780.5L126.5 1780.5L126.5 1781.5L126 1781.5L123.5 1781.5L123.5 1780.5L124 1780.5ZM130 1780.5L132 1780.5L132.5 1780.5L132.5 1781.5L132 1781.5L129.5 1781.5L129.5 1780.5L130 1780.5ZM136 1780.5L138.5 1780.5L138.5 1781.5L135.5 1781.5L135.5 1780.5L136 1780.5Z"/>
		<path fill="none" stroke="black" stroke-width="1" stroke-linecap="square" stroke-miterlimit="4" transform="translate(0.5 0.5)" d="M124 882L138 882"/>
		<rect fill="silver" x="4" y="1325" width="86" height="21"/>
		<rect fill="white" y="1321" width="86" height="21"/>
		<rect fill="#FFFFC0" x="119" y="8" width="78" height="16"/>
		<text fill="gray" font-size="12" font-weight="600" font-family="Segoe UI" x="119, 125.24023, 128.65039, 135.14258, 141.76953, 149.14062, 153.86914, 161.20508, 168.64648, 175.13867, 181.5957, 189.03711, " y="21, ">
				FlexPropType
		</text>
		<rect fill="white" x="5" y="1348" width="91" height="36"/>
		<text fill="gray" font-size="9" font-family="Segoe UI" x="5, 10.805176, 13.270508, 16.399414, 21.105957, 23.922852, 28.629395, 31.758301, 36.464844, 41.558105, 45.715332, 50.421875, 52.887207, 55.937012, 61.210449, 63.675781, 68.254883, 70.720215, 73.77002, 78.349121, 81.478027, 86.777832, 91.484375, " y="1358, ">
				A reference to a target
		</text>
		<text fill="gray" font-size="9" font-family="Segoe UI" x="5, 9.1572266, 14.430664, 19.523926, 23.681152, 28.387695, 33.678711, " y="1370, ">
				concept
		</text>
		<rect fill="white" x="9" y="1323" width="65" height="16"/>
		<text font-size="12" font-weight="600" font-family="Segoe UI" x="9, 14.759766, 22.095703, 29.355469, 35.115234, 41.607422, 49.048828, 53.71875, 61.253906, 67.746094, " y="1336, ">
				conceptRef
		</text>
		<rect fill="#FFFFC0" x="201" y="8" width="59" height="16"/>
		<text fill="gray" font-size="12" font-family="Segoe UI" x="201, 204.62109, 210.89648, 216.4043, 220.4707, 226.74609, 233.53711, 238.62891, 241.53516, 248.56641, 255.35742, " y="21, ">
				(extension)
		</text>
		<rect fill="none" stroke="black" stroke-width="1" stroke-linecap="square" stroke-miterlimit="4" transform="translate(0.5 0.5)" y="1321" width="85" height="20"/>
		<path fill="white" d="M216 55L216 36L139 36L139 55L139 1727L286 1727L286 55L216 55Z"/>
		<rect fill="white" x="159" y="38" width="51" height="16"/>
		<text font-size="12" font-style="italic" font-family="Segoe UI" x="159, 165.50391, 169.38281, 173.26172, 177.5332, 180.63867, 187.14258, 193.83984, 197.73047, 203.57227, " y="51, ">
				attributes
		</text>
		<path fill="none" stroke="black" stroke-width="1" stroke-linecap="square" stroke-miterlimit="4" transform="translate(0.5 0.5)" d="M216 55L216 36L139 36L139 55L139 1727L286 1727L286 55L216 55Z"/>
		<rect fill="silver" x="157" y="68" width="52" height="21"/>
		<rect fill="white" x="153" y="64" width="52" height="21"/>
		<rect fill="white" x="158" y="91" width="101" height="24"/>
		<text fill="gray" font-size="9" font-family="Segoe UI" x="158, 162.71533, 167.80859, 172.51514, 174.98047, 177.16016, 182.43359, 186.59082, 191.16992, 193.34961, 195.81494, 197.99463, 203.29443, 208.00098, 213.09424, 216.14404, 218.32373, 221.14062, 223.32031, 228.02686, 231.15576, 233.62109, 238.89453, 241.71143, 244.17676, 247.22656, 252.31982, " y="101, ">
				The local identifier of the
		</text>
		<text fill="gray" font-size="9" font-family="Segoe UI" x="158, 163.29102, 166.41992, 171.69336, 176.98438, 181.69092, 184.81982, 187.86963, 192.22461, " y="113, ">
				property.
		</text>
		<rect fill="white" x="162" y="66" width="36" height="16"/>
		<text font-size="12" font-weight="600" font-family="Segoe UI" x="162, 165.41016, " y="79, ">
				id
		</text>
		<rect fill="none" stroke="black" stroke-width="1" stroke-linecap="square" stroke-miterlimit="4" transform="translate(0.5 0.5)" x="153" y="64" width="51" height="20"/>
		<rect fill="silver" x="157" y="126" width="58" height="21"/>
		<rect fill="white" x="153" y="122" width="58" height="21"/>
		<rect fill="white" x="158" y="149" width="121" height="120"/>
		<text fill="gray" font-size="9" font-family="Segoe UI" x="158, 160.39502, 163.21191, 165.67725, 168.72705, 173.82031, 178.52686, 180.99219, 186.2832, 189.41211, 194.68555, 199.97656, 204.68311, 207.81201, 210.86182, 215.2168, 217.68213, 221.99316, 226.57227, 228.75195, 233.84521, 238.55176, 241.01709, 243.19678, 247.01562, 249.48096, 254.57422, 259.84766, " y="159, ">
				If the property value is not
		</text>
		<text fill="gray" font-size="9" font-family="Segoe UI" x="158, 163.2998, 168.00635, 170.82324, 173.00293, 178.09619, 182.80273, 188.10254, 190.05371, 192.51904, 196.33789, 201.62891, 206.33545, 210.49268, 212.67236, 215.48926, 217.66895, 222.37549, 226.19434, 228.65967, 235.16357, 240.25684, 242.43652, 246.59375, 251.68701, 254.15234, 258.85889, 263.95215, 267.00195, 269.18164, 272.23145, " y="171, ">
				defined, specifies which entity
		</text>
		<text fill="gray" font-size="9" font-family="Segoe UI" x="158, 160.71582, 166.00684, 170.71338, 173.84229, 177.66113, 182.93457, 188.02783, 189.979, 192.44434, 197.71777, 200.84668, 206.14648, 210.72559, 215.81885, 217.99854, 221.81738, 226.39648, 229.44629, 231.62598, 236.89941, 241.99268, 244.45801, 249.73145, " y="183, ">
				(person, organisation or
		</text>
		<text fill="gray" font-size="9" font-family="Segoe UI" x="158, 161.81885, 166.17383, 169.99268, 173.04248, 177.74902, 185.50098, 188.2168, 190.68213, 197.18604, 199.36572, 201.54541, 203.7251, 206.19043, 210.89697, 216.19678, 218.37646, 221.42627, 223.8916, 226.94141, 232.03467, 236.74121, 239.20654, 244.49756, 247.62646, 252.8999, 258.19092, 262.89746, 266.02637, 269.07617, " y="195, ">
				system) will edit the property
		</text>
		<text fill="gray" font-size="9" font-family="Segoe UI" x="158, 162.31104, 166.89014, 169.06982, 174.16309, 178.86963, 181.33496, 184.93408, 187.39941, 192.10596, 196.23682, 201.52783, 204.65674, 209.36328, 213.18213, 217.00098, 221.70752, 227.00732, 229.47266, 234.76367, 239.11865, 241.58398, 246.16309, 248.62842, 255.41357, 260.98584, 266.25928, 271.55908, 276.26562, " y="207, ">
				value - expressed by a QCode.
		</text>
		<text fill="gray" font-size="9" font-family="Segoe UI" x="158, 160.39502, 163.21191, 165.67725, 168.72705, 173.82031, 178.52686, 180.99219, 186.2832, 189.41211, 194.68555, 199.97656, 204.68311, 207.81201, 210.86182, 215.2168, 217.68213, 221.99316, 226.57227, 228.75195, 233.84521, 238.55176, 241.01709, 243.19678, " y="219, ">
				If the property value is
		</text>
		<text fill="gray" font-size="9" font-family="Segoe UI" x="158, 163.2998, 168.00635, 170.82324, 173.00293, 178.09619, 182.80273, 188.10254, 190.05371, 192.51904, 196.33789, 201.62891, 206.33545, 210.49268, 212.67236, 215.48926, 217.66895, 222.37549, 226.19434, 228.65967, 235.16357, 240.25684, 242.43652, 246.59375, 251.68701, 254.15234, 258.85889, 263.95215, 267.00195, 269.18164, 272.23145, " y="231, ">
				defined, specifies which entity
		</text>
		<text fill="gray" font-size="9" font-family="Segoe UI" x="158, 160.71582, 166.00684, 170.71338, 173.84229, 177.66113, 182.93457, 188.02783, 189.979, 192.44434, 197.71777, 200.84668, 206.14648, 210.72559, 215.81885, 217.99854, 221.81738, 226.39648, 229.44629, 231.62598, 236.89941, 241.99268, 244.45801, 249.73145, " y="243, ">
				(person, organisation or
		</text>
		<text fill="gray" font-size="9" font-family="Segoe UI" x="158, 161.81885, 166.17383, 169.99268, 173.04248, 177.74902, 185.50098, 188.2168, 190.68213, 195.77539, 200.35449, 204.17334, 206.63867, 211.34521, 216.64502, 218.82471, 221.87451, 226.58105, 231.88086, 234.34619, 237.396, 242.48926, " y="255, ">
				system) has edited the
		</text>
		<text fill="gray" font-size="9" font-family="Segoe UI" x="158, 163.29102, 166.41992, 171.69336, 176.98438, 181.69092, 184.81982, 187.86963, 192.22461, 194.68994, 199.00098, 203.58008, 205.75977, 210.85303, 215.55957, " y="267, ">
				property value.
		</text>
		<rect fill="white" x="162" y="124" width="42" height="16"/>
		<text font-size="12" font-weight="600" font-family="Segoe UI" x="162, 167.75977, 172.48828, 178.98047, 185.4375, 190.06055, 197.39648, " y="137, ">
				creator
		</text>
		<rect fill="none" stroke="black" stroke-width="1" stroke-linecap="square" stroke-miterlimit="4" transform="translate(0.5 0.5)" x="153" y="122" width="57" height="20"/>
		<rect fill="silver" x="157" y="280" width="73" height="21"/>
		<rect fill="white" x="153" y="276" width="73" height="21"/>
		<rect fill="white" x="158" y="303" width="120" height="108"/>
		<text fill="gray" font-size="9" font-family="Segoe UI" x="158, 160.39502, 163.21191, 165.67725, 168.72705, 173.82031, 178.52686, 180.99219, 186.2832, 189.41211, 194.68555, 199.97656, 204.68311, 207.81201, 210.86182, 215.2168, 217.68213, 221.99316, 226.57227, 228.75195, 233.84521, 238.55176, 241.01709, 243.19678, 247.01562, 249.48096, 254.57422, 259.84766, " y="313, ">
				If the property value is not
		</text>
		<text fill="gray" font-size="9" font-family="Segoe UI" x="158, 163.2998, 168.00635, 170.82324, 173.00293, 178.09619, 182.80273, 188.10254, 190.05371, 192.51904, 196.33789, 201.62891, 206.33545, 210.49268, 212.67236, 215.48926, 217.66895, 222.37549, 226.19434, 228.65967, 235.16357, 240.25684, 242.43652, 246.59375, 251.68701, 254.15234, 258.85889, 263.95215, 267.00195, 269.18164, 272.23145, " y="325, ">
				defined, specifies which entity
		</text>
		<text fill="gray" font-size="9" font-family="Segoe UI" x="158, 160.71582, 166.00684, 170.71338, 173.84229, 177.66113, 182.93457, 188.02783, 189.979, 192.44434, 197.71777, 200.84668, 206.14648, 210.72559, 215.81885, 217.99854, 221.81738, 226.39648, 229.44629, 231.62598, 236.89941, 241.99268, 244.45801, 249.73145, " y="337, ">
				(person, organisation or
		</text>
		<text fill="gray" font-size="9" font-family="Segoe UI" x="158, 161.81885, 166.17383, 169.99268, 173.04248, 177.74902, 185.50098, 188.2168, 190.68213, 197.18604, 199.36572, 201.54541, 203.7251, 206.19043, 210.89697, 216.19678, 218.37646, 221.42627, 223.8916, 226.94141, 232.03467, 236.74121, 239.20654, 244.49756, 247.62646, 252.8999, 258.19092, 262.89746, 266.02637, 269.07617, " y="349, ">
				system) will edit the property
		</text>
		<text fill="gray" font-size="9" font-family="Segoe UI" x="158, 161.59912, 164.06445, 168.771, 172.90186, 178.19287, 181.32178, 186.02832, 189.84717, 193.66602, 198.37256, 203.67236, 206.1377, 211.42871, 215.78369, 218.24902, 222.82812, 225.29346, 231.47656, 236.85986, 239.25488, 241.20605, 243.67139, 246.06641, 248.8833, 251.34863, 254.39844, 259.4917, " y="361, ">
				- expressed by a URI. If the
		</text>
		<text fill="gray" font-size="9" font-family="Segoe UI" x="158, 163.29102, 166.41992, 171.69336, 176.98438, 181.69092, 184.81982, 187.86963, 192.22461, 194.68994, 199.00098, 203.58008, 205.75977, 210.85303, 215.55957, 218.0249, 220.20459, 224.02344, 226.48877, 231.78857, 236.49512, 239.31201, 241.4917, 246.58496, 251.2915, 256.59131, " y="373, ">
				property value is defined,
		</text>
		<text fill="gray" font-size="9" font-family="Segoe UI" x="158, 161.81885, 167.10986, 171.81641, 175.97363, 178.15332, 180.97021, 183.1499, 187.85645, 191.67529, 194.14062, 200.64453, 205.73779, 207.91748, 212.07471, 217.16797, 219.6333, 224.33984, 229.43311, 232.48291, 234.6626, 237.7124, 242.06738, 244.53271, 247.24854, 252.53955, 257.24609, 260.375, 264.19385, 269.46729, 274.56055, " y="385, ">
				specifies which entity (person,
		</text>
		<text fill="gray" font-size="9" font-family="Segoe UI" x="158, 163.27344, 166.40234, 171.70215, 176.28125, 181.37451, 183.5542, 187.37305, 191.95215, 195.00195, 197.18164, 202.45508, 207.54834, 210.01367, 215.28711, 218.41602, 220.88135, 224.7002, 229.05518, 232.87402, 235.92383, 240.63037, 248.38232, 251.09814, 253.56348, 258.65674, 263.23584, " y="397, ">
				organisation or system) has
		</text>
		<text fill="gray" font-size="9" font-family="Segoe UI" x="158, 162.70654, 168.00635, 170.18604, 173.23584, 177.94238, 183.24219, 185.70752, 188.75732, 193.85059, 198.55713, 201.02246, 206.31348, 209.44238, 214.71582, 220.00684, 224.71338, 227.84229, 230.89209, 235.24707, " y="409, ">
				edited the property.
		</text>
		<rect fill="white" x="162" y="278" width="57" height="16"/>
		<text font-size="12" font-weight="600" font-family="Segoe UI" x="162, 167.75977, 172.48828, 178.98047, 185.4375, 190.06055, 197.39648, 202.20703, 209.4668, 214.28906, " y="291, ">
				creatoruri
		</text>
		<rect fill="none" stroke="black" stroke-width="1" stroke-linecap="square" stroke-miterlimit="4" transform="translate(0.5 0.5)" x="153" y="276" width="72" height="20"/>
		<rect fill="silver" x="157" y="422" width="69" height="21"/>
		<rect fill="white" x="153" y="418" width="69" height="21"/>
		<rect fill="white" x="158" y="445" width="119" height="72"/>
		<text fill="gray" font-size="9" font-family="Segoe UI" x="158, 162.71533, 167.80859, 172.51514, 174.98047, 180.28027, 184.85938, 187.90918, 192.61572, 195.08105, 197.79688, 202.37598, 207.46924, 212.76904, 214.72021, 217.18555, 222.45898, 227.75, 230.7998, 232.97949, 238.25293, 243.34619, 247.92529, 250.10498, 252.28467, 256.63965, 258.59082, 261.05615, 264.10596, 269.19922, " y="455, ">
				The date (and, optionally, the
		</text>
		<text fill="gray" font-size="9" font-family="Segoe UI" x="158, 161.0498, 163.22949, 170.98145, 175.68799, 178.40381, 180.86914, 187.37305, 192.46631, 197.17285, 202.26611, 204.73145, 207.78125, 212.87451, 217.58105, 220.04639, 225.3374, 228.46631, 233.73975, 239.03076, 243.7373, 246.86621, 249.91602, 254.271, 256.73633, 263.24023, 267.81934, " y="467, ">
				time) when the property was
		</text>
		<text fill="gray" font-size="9" font-family="Segoe UI" x="158, 160.17969, 164.75879, 168.57764, 171.62744, 174.09277, 181.84473, 187.11816, 192.41797, 194.59766, 197.41455, 199.59424, 204.30078, 209.60059, 211.55176, 214.01709, 218.73242, 223.82568, 228.53223, 230.99756, 233.17725, 238.27051, 240.4502, 243.5, 245.67969, 250.25879, 252.43848, 254.90381, 259.21484, 263.79395, 265.97363, 271.06689, " y="479, ">
				last modified. The initial value
		</text>
		<text fill="gray" font-size="9" font-family="Segoe UI" x="158, 160.17969, 163.99854, 166.46387, 169.51367, 174.60693, 179.31348, 181.77881, 187.07861, 191.65771, 194.70752, 199.41406, 201.87939, 204.59521, 209.17432, 214.26758, 219.56738, 221.51855, 223.98389, 229.25732, 234.54834, 237.59814, 239.77783, 245.05127, 250.14453, 254.72363, 256.90332, 259.08301, 263.43799, " y="491, ">
				is the date (and, optionally,
		</text>
		<text fill="gray" font-size="9" font-family="Segoe UI" x="158, 161.0498, 166.14307, 170.84961, 173.31494, 176.36475, 178.54443, 186.29639, 191.00293, 193.71875, 196.18408, 201.45752, 204.27441, 206.73975, 210.89697, 214.02588, 218.73242, 223.31152, 226.36133, 228.54102, 233.81445, 238.90771, 241.37305, 246.64648, 249.46338, 251.92871, 254.97852, 260.07178, " y="503, ">
				the time) of creation of the
		</text>
		<text fill="gray" font-size="9" font-family="Segoe UI" x="158, 163.29102, 166.41992, 171.69336, 176.98438, 181.69092, 184.81982, 187.86963, 192.22461, " y="515, ">
				property.
		</text>
		<rect fill="white" x="162" y="420" width="53" height="16"/>
		<text font-size="12" font-weight="600" font-family="Segoe UI" x="162, 172.99219, 180.32812, 187.75781, 191.16797, 195.76758, 199.17773, 205.66992, " y="433, ">
				modified
		</text>
		<rect fill="none" stroke="black" stroke-width="1" stroke-linecap="square" stroke-miterlimit="4" transform="translate(0.5 0.5)" x="153" y="418" width="68" height="20"/>
		<rect fill="silver" x="157" y="528" width="59" height="21"/>
		<rect fill="white" x="153" y="524" width="59" height="21"/>
		<rect fill="white" x="158" y="551" width="118" height="108"/>
		<text fill="gray" font-size="9" font-family="Segoe UI" x="158, 160.39502, 163.21191, 165.67725, 169.49609, 174.20264, 177.25244, 179.71777, 182.76758, 188.04102, 190.50635, 193.55615, 196.68506, 201.77832, 206.48486, 208.9502, 212, 217.09326, " y="561, ">
				If set to true the
		</text>
		<text fill="gray" font-size="9" font-family="Segoe UI" x="158, 162.15723, 167.43066, 170.55957, 173.68848, 178.39502, 182.21387, 187.50488, 192.77832, 197.87158, 203.17139, 205.35107, 210.44434, 215.74414, 218.20947, 223.50049, 226.62939, 231.90283, 237.19385, 241.90039, 245.0293, 248.0791, 252.43408, 254.89941, 261.40332, 265.98242, " y="573, ">
				corresponding property was
		</text>
		<text fill="gray" font-size="9" font-family="Segoe UI" x="158, 162.5791, 167.87891, 173.17871, 177.88525, 183.18506, 185.65039, 188.7002, 193.97363, 196.43896, 199.48877, 204.58203, 209.28857, 211.75391, 217.92822, 222.77979, 225.24512, 227.64014, 230.68994, 235.39648, 243.14844, 245.61377, 248.43066, 253.7041, 256.83301, 259.29834, " y="585, ">
				added to the G2 Item for a
		</text>
		<text fill="gray" font-size="9" font-family="Segoe UI" x="158, 161.81885, 167.10986, 171.81641, 175.97363, 178.15332, 180.97021, 183.1499, 187.30713, 189.77246, 193.92969, 199.02295, 202.8418, 205.8916, 211.16504, 218.91699, 223.62354, 226.75244, 229.21777, 234.49121, 237.62012, 240.08545, 245.38525, 248.51416, 253.7876, 258.88086, 264.17188, 266.63721, 271.91064, " y="597, ">
				specific customer or group of
		</text>
		<text fill="gray" font-size="9" font-family="Segoe UI" x="158, 162.15723, 167.25049, 171.06934, 174.11914, 179.39258, 187.14453, 191.85107, 194.97998, 198.79883, 201.26416, 206.5376, 211.63086, 213.81055, 218.16553, 220.1167, 222.58203, 227.29736, 232.39062, 237.09717, 239.5625, 244.8623, 249.56885, 252.38574, 256.96484, 262.05811, 264.23779, " y="609, ">
				customers only. The default
		</text>
		<text fill="gray" font-size="9" font-family="Segoe UI" x="158, 162.31104, 166.89014, 169.06982, 174.16309, 178.86963, 181.33496, 186.6084, 189.42529, 191.89062, 194.94043, 200.03369, 202.21338, 206.03223, 208.49756, 213.78857, 216.91748, 222.19092, 227.48193, 232.18848, 235.31738, 238.36719, 242.72217, 245.1875, 247.36719, 251.18604, 253.65137, 256.46826, 261.04736, 263.22705, 267.0459, " y="621, ">
				value of this property is false
		</text>
		<text fill="gray" font-size="9" font-family="Segoe UI" x="158, 164.50391, 169.59717, 171.77686, 175.93408, 181.02734, 183.49268, 188.07178, 193.36279, 198.65381, 200.8335, 203.01318, 207.71973, 211.53857, 214.00391, 220.50781, 225.60107, 230.30762, 235.40088, 237.86621, 240.91602, 246.00928, 248.18896, " y="633, ">
				which applies when this
		</text>
		<text fill="gray" font-size="9" font-family="Segoe UI" x="158, 162.5791, 165.62891, 168.67871, 171.80762, 173.9873, 179.27832, 184.37158, 187.42139, 192.12793, 194.59326, 196.77295, 200.5918, 203.05713, 208.15039, 213.42383, 216.47363, 218.93896, 224.03223, 227.85107, 232.55762, 237.85742, 240.32275, 246.82666, 249.00635, 252.05615, 257.14941, 259.61475, 262.66455, 267.75781, " y="645, ">
				attribute is not used with the
		</text>
		<text fill="gray" font-size="9" font-family="Segoe UI" x="158, 163.29102, 166.41992, 171.69336, 176.98438, 181.69092, 184.81982, 187.86963, 192.22461, " y="657, ">
				property.
		</text>
		<rect fill="white" x="162" y="526" width="43" height="16"/>
		<text font-size="12" font-weight="600" font-family="Segoe UI" x="162, 167.75977, 175.01953, 180.29883, 184.92188, 192.25781, " y="539, ">
				custom
		</text>
		<rect fill="none" stroke="black" stroke-width="1" stroke-linecap="square" stroke-miterlimit="4" transform="translate(0.5 0.5)" x="153" y="524" width="58" height="20"/>
		<rect fill="silver" x="157" y="670" width="52" height="21"/>
		<rect fill="white" x="153" y="666" width="52" height="21"/>
		<rect fill="white" x="158" y="693" width="118" height="48"/>
		<text fill="gray" font-size="9" font-family="Segoe UI" x="158, 160.39502, 165.48828, 170.78809, 172.96777, 177.125, 181.7041, 184.75391, 189.46045, 193.2793, 195.74463, 201.03564, 205.39062, 207.85596, 214.35986, 219.45312, 221.63281, 225.79004, 230.8833, 233.34863, 241.10059, 245.80713, 250.38623, 255.47949, 259.29834, 261.76367, 264.81348, 269.90674, " y="703, ">
				Indicates by which means the
		</text>
		<text fill="gray" font-size="9" font-family="Segoe UI" x="158, 162.31104, 166.89014, 169.06982, 174.16309, 178.86963, 181.33496, 187.83887, 192.41797, 196.23682, 198.70215, 203.40869, 207.53955, 210.58936, 213.71826, 218.29736, 222.45459, 225.50439, 230.21094, 235.51074, 237.97607, 240.79297, 243.92188, 249.19531, 256.94727, 259.4126, 262.4624, 267.55566, " y="715, ">
				value was extracted from the
		</text>
		<text fill="gray" font-size="9" font-family="Segoe UI" x="158, 162.15723, 167.43066, 172.52393, 175.57373, 180.28027, 185.37354, 188.42334, 190.88867, 194.48779, 196.95312, 201.65967, 205.79053, 211.08154, 214.21045, 218.91699, 222.73584, 226.55469, 231.26123, 236.56104, 239.02637, 244.31738, 248.67236, 251.1377, " y="727, ">
				content - expressed by a
		</text>
		<text fill="gray" font-size="9" font-family="Segoe UI" x="158, 164.78516, 170.35742, 175.63086, 180.93066, " y="739, ">
				QCode
		</text>
		<rect fill="white" x="162" y="668" width="36" height="16"/>
		<text font-size="12" font-weight="600" font-family="Segoe UI" x="162, 169.22461, 176.56055, " y="681, ">
				how
		</text>
		<rect fill="none" stroke="black" stroke-width="1" stroke-linecap="square" stroke-miterlimit="4" transform="translate(0.5 0.5)" x="153" y="666" width="51" height="20"/>
		<rect fill="silver" x="157" y="752" width="57" height="21"/>
		<rect fill="white" x="153" y="748" width="57" height="21"/>
		<rect fill="white" x="158" y="775" width="118" height="36"/>
		<text fill="gray" font-size="9" font-family="Segoe UI" x="158, 160.39502, 165.48828, 170.78809, 172.96777, 177.125, 181.7041, 184.75391, 189.46045, 193.2793, 195.74463, 201.03564, 205.39062, 207.85596, 214.35986, 219.45312, 221.63281, 225.79004, 230.8833, 233.34863, 241.10059, 245.80713, 250.38623, 255.47949, 259.29834, 261.76367, 264.81348, 269.90674, " y="785, ">
				Indicates by which means the
		</text>
		<text fill="gray" font-size="9" font-family="Segoe UI" x="158, 162.31104, 166.89014, 169.06982, 174.16309, 178.86963, 181.33496, 187.83887, 192.41797, 196.23682, 198.70215, 203.40869, 207.53955, 210.58936, 213.71826, 218.29736, 222.45459, 225.50439, 230.21094, 235.51074, 237.97607, 240.79297, 243.92188, 249.19531, 256.94727, 259.4126, 262.4624, 267.55566, " y="797, ">
				value was extracted from the
		</text>
		<text fill="gray" font-size="9" font-family="Segoe UI" x="158, 162.15723, 167.43066, 172.52393, 175.57373, 180.28027, 185.37354, 188.42334, 190.88867, 194.48779, 196.95312, 201.65967, 205.79053, 211.08154, 214.21045, 218.91699, 222.73584, 226.55469, 231.26123, 236.56104, 239.02637, 244.31738, 248.67236, 251.1377, 255.7168, 258.18213, 264.36523, 269.74854, " y="809, ">
				content - expressed by a URI
		</text>
		<rect fill="white" x="162" y="750" width="41" height="16"/>
		<text font-size="12" font-weight="600" font-family="Segoe UI" x="162, 169.22461, 176.56055, 186.12891, 193.38867, 198.21094, " y="763, ">
				howuri
		</text>
		<rect fill="none" stroke="black" stroke-width="1" stroke-linecap="square" stroke-miterlimit="4" transform="translate(0.5 0.5)" x="153" y="748" width="56" height="20"/>
		<rect fill="silver" x="157" y="822" width="52" height="21"/>
		<rect fill="white" x="153" y="818" width="52" height="21"/>
		<rect fill="white" x="158" y="845" width="113" height="36"/>
		<text fill="gray" font-size="9" font-family="Segoe UI" x="158, 166.40674, 171.5, 175.85498, 178.32031, 181.37012, 186.46338, 191.16992, 193.63525, 201.38721, 206.09375, 209.14355, 213.72266, 219.02246, 223.60156, 226.65137, 231.23047, 233.6958, 238.78906, 243.36816, 247.18701, 249.65234, 254.94336, 259.6499, 264.35645, " y="855, ">
				Why the metadata has been
		</text>
		<text fill="gray" font-size="9" font-family="Segoe UI" x="158, 160.17969, 165.27295, 169.43018, 171.60986, 176.70312, 182.00293, 186.70947, 192.00928, 194.47461, 198.07373, 200.53906, 205.24561, 209.37646, 214.66748, 217.79639, 222.50293, 226.32178, 230.14062, 234.84717, 240.14697, 242.6123, 247.90332, 252.2583, 254.72363, " y="867, ">
				included - expressed by a
		</text>
		<text fill="gray" font-size="9" font-family="Segoe UI" x="158, 164.78516, 170.35742, 175.63086, 180.93066, " y="879, ">
				QCode
		</text>
		<rect fill="white" x="162" y="820" width="36" height="16"/>
		<text font-size="12" font-weight="600" font-family="Segoe UI" x="162, 171.56836, 178.79297, " y="833, ">
				why
		</text>
		<rect fill="none" stroke="black" stroke-width="1" stroke-linecap="square" stroke-miterlimit="4" transform="translate(0.5 0.5)" x="153" y="818" width="51" height="20"/>
		<rect fill="silver" x="157" y="892" width="56" height="21"/>
		<rect fill="white" x="153" y="888" width="56" height="21"/>
		<rect fill="white" x="158" y="915" width="119" height="24"/>
		<text fill="gray" font-size="9" font-family="Segoe UI" x="158, 166.40674, 171.5, 175.85498, 178.32031, 181.37012, 186.46338, 191.16992, 193.63525, 201.38721, 206.09375, 209.14355, 213.72266, 219.02246, 223.60156, 226.65137, 231.23047, 233.6958, 238.78906, 243.36816, 247.18701, 249.65234, 254.94336, 259.6499, 264.35645, " y="925, ">
				Why the metadata has been
		</text>
		<text fill="gray" font-size="9" font-family="Segoe UI" x="158, 160.17969, 165.27295, 169.43018, 171.60986, 176.70312, 182.00293, 186.70947, 192.00928, 194.47461, 198.07373, 200.53906, 205.24561, 209.37646, 214.66748, 217.79639, 222.50293, 226.32178, 230.14062, 234.84717, 240.14697, 242.6123, 247.90332, 252.2583, 254.72363, 259.30273, 261.76807, 267.95117, 273.33447, " y="937, ">
				included - expressed by a URI
		</text>
		<rect fill="white" x="162" y="890" width="40" height="16"/>
		<text font-size="12" font-weight="600" font-family="Segoe UI" x="162, 171.56836, 178.79297, 185.25, 192.50977, 197.33203, " y="903, ">
				whyuri
		</text>
		<rect fill="none" stroke="black" stroke-width="1" stroke-linecap="square" stroke-miterlimit="4" transform="translate(0.5 0.5)" x="153" y="888" width="55" height="20"/>
		<rect fill="silver" x="157" y="950" width="97" height="21"/>
		<rect fill="white" x="153" y="946" width="97" height="21"/>
		<rect fill="white" x="158" y="973" width="117" height="72"/>
		<text fill="gray" font-size="9" font-family="Segoe UI" x="158, 164.78516, 169.87842, 174.58496, 177.05029, 182.32373, 185.45264, 187.91797, 195.66992, 200.24902, 205.34229, 209.69727, 212.1626, 216.31982, 221.59326, 226.68652, 230.50537, 233.55518, 236.68408, 241.26318, 243.44287, 248.53613, 251.58594, 255.40479, 257.87012, 260.91992, 266.01318, 270.59229, " y="983, ">
				One or many constraints that
		</text>
		<text fill="gray" font-size="9" font-family="Segoe UI" x="158, 162.5791, 167.87012, 173.16113, 175.34082, 179.6958, 182.16113, 185.21094, 190.48438, 192.94971, 198.24072, 203.33398, 208.625, 210.80469, 212.98438, 216.80322, 221.89648, 224.07617, 229.16943, 234.46924, 236.93457, 239.98438, 245.07764, 249.78418, 252.24951, 256.56055, 261.13965, 263.31934, 268.4126, " y="995, ">
				apply to publishing the value
		</text>
		<text fill="gray" font-size="9" font-family="Segoe UI" x="158, 163.27344, 166.09033, 168.55566, 171.60547, 176.69873, 181.40527, 183.87061, 189.16162, 192.29053, 197.56396, 202.85498, 207.56152, 210.69043, 213.74023, 218.09521, 220.56055, 224.15967, 226.625, 231.33154, 235.4624, 240.75342, 243.88232, 248.58887, 252.40771, 256.22656, 260.93311, " y="1007, ">
				of the property - expressed
		</text>
		<text fill="gray" font-size="9" font-family="Segoe UI" x="158, 163.29102, 167.646, 170.11133, 174.69043, 177.15576, 183.94092, 189.51318, 194.78662, 200.08643, 204.79297, 206.74414, 209.20947, 213.76221, 218.34131, 222.49854, 227.5918, 230.05713, 234.21436, 239.48779, 244.58105, 248.3999, 251.44971, 254.57861, 259.15771, 261.3374, 266.43066, " y="1019, ">
				by a QCode. Each constraint
		</text>
		<text fill="gray" font-size="9" font-family="Segoe UI" x="158, 162.5791, 167.87012, 173.16113, 175.34082, 177.52051, 182.22705, 186.0459, 188.51123, 191.56104, 196.83447, 199.2998, 203.87891, 206.05859, 208.23828, 210.70361, 216.00342, 220.70996, 224.52881, 228.68604, 233.39258, 238.48584, 243.78564, 248.36475, 253.45801, " y="1031, ">
				applies to all descendant
		</text>
		<text fill="gray" font-size="9" font-family="Segoe UI" x="158, 162.70654, 164.88623, 169.59277, 177.34473, 182.05127, 187.14453, 190.19434, 194.01318, " y="1043, ">
				elements.
		</text>
		<rect fill="white" x="162" y="948" width="81" height="16"/>
		<text font-size="12" font-weight="600" font-family="Segoe UI" x="162, 169.44141, 176.70117, 184.14258, 189.90234, 197.23828, 204.49805, 209.77734, 214.44727, 219.22266, 225.67969, 229.08984, 236.34961, " y="961, ">
				pubconstraint
		</text>
		<rect fill="none" stroke="black" stroke-width="1" stroke-linecap="square" stroke-miterlimit="4" transform="translate(0.5 0.5)" x="153" y="946" width="96" height="20"/>
		<rect fill="silver" x="157" y="1056" width="112" height="21"/>
		<rect fill="white" x="153" y="1052" width="112" height="21"/>
		<rect fill="white" x="158" y="1079" width="117" height="72"/>
		<text fill="gray" font-size="9" font-family="Segoe UI" x="158, 164.78516, 169.87842, 174.58496, 177.05029, 182.32373, 185.45264, 187.91797, 195.66992, 200.24902, 205.34229, 209.69727, 212.1626, 216.31982, 221.59326, 226.68652, 230.50537, 233.55518, 236.68408, 241.26318, 243.44287, 248.53613, 251.58594, 255.40479, 257.87012, 260.91992, 266.01318, 270.59229, " y="1089, ">
				One or many constraints that
		</text>
		<text fill="gray" font-size="9" font-family="Segoe UI" x="158, 162.5791, 167.87012, 173.16113, 175.34082, 179.6958, 182.16113, 185.21094, 190.48438, 192.94971, 198.24072, 203.33398, 208.625, 210.80469, 212.98438, 216.80322, 221.89648, 224.07617, 229.16943, 234.46924, 236.93457, 239.98438, 245.07764, 249.78418, 252.24951, 256.56055, 261.13965, 263.31934, 268.4126, " y="1101, ">
				apply to publishing the value
		</text>
		<text fill="gray" font-size="9" font-family="Segoe UI" x="158, 163.27344, 166.09033, 168.55566, 171.60547, 176.69873, 181.40527, 183.87061, 189.16162, 192.29053, 197.56396, 202.85498, 207.56152, 210.69043, 213.74023, 218.09521, 220.56055, 224.15967, 226.625, 231.33154, 235.4624, 240.75342, 243.88232, 248.58887, 252.40771, 256.22656, 260.93311, " y="1113, ">
				of the property - expressed
		</text>
		<text fill="gray" font-size="9" font-family="Segoe UI" x="158, 163.29102, 167.646, 170.11133, 174.69043, 177.15576, 183.33887, 188.72217, 191.11719, 193.06836, 195.53369, 200.08643, 204.66553, 208.82275, 213.91602, 216.38135, 220.53857, 225.81201, 230.90527, 234.72412, 237.77393, 240.90283, 245.48193, 247.66162, 252.75488, " y="1125, ">
				by a URI. Each constraint
		</text>
		<text fill="gray" font-size="9" font-family="Segoe UI" x="158, 162.5791, 167.87012, 173.16113, 175.34082, 177.52051, 182.22705, 186.0459, 188.51123, 191.56104, 196.83447, 199.2998, 203.87891, 206.05859, 208.23828, 210.70361, 216.00342, 220.70996, 224.52881, 228.68604, 233.39258, 238.48584, 243.78564, 248.36475, 253.45801, " y="1137, ">
				applies to all descendant
		</text>
		<text fill="gray" font-size="9" font-family="Segoe UI" x="158, 162.70654, 164.88623, 169.59277, 177.34473, 182.05127, 187.14453, 190.19434, 194.01318, " y="1149, ">
				elements.
		</text>
		<rect fill="white" x="162" y="1054" width="96" height="16"/>
		<text font-size="12" font-weight="600" font-family="Segoe UI" x="162, 169.44141, 176.70117, 184.14258, 189.90234, 197.23828, 204.49805, 209.77734, 214.44727, 219.22266, 225.67969, 229.08984, 236.34961, 241.01953, 248.2793, 253.10156, " y="1067, ">
				pubconstrainturi
		</text>
		<rect fill="none" stroke="black" stroke-width="1" stroke-linecap="square" stroke-miterlimit="4" transform="translate(0.5 0.5)" x="153" y="1052" width="111" height="20"/>
		<rect fill="silver" x="157" y="1162" width="52" height="21"/>
		<rect fill="white" x="153" y="1158" width="52" height="21"/>
		<rect fill="white" x="158" y="1185" width="121" height="48"/>
		<text fill="gray" font-size="9" font-family="Segoe UI" x="158, 163.80518, 166.27051, 170.42773, 175.70117, 180.79443, 184.95166, 189.6582, 194.94922, 197.99902, 200.46436, 202.64404, 207.94385, 212.65039, 217.74365, 220.79346, 222.97314, 225.79004, 227.96973, 232.67627, 235.80518, 238.27051, 242.97705, 247.10791, 252.39893, 255.52783, 260.23438, 264.05322, 267.87207, 272.57861, " y="1195, ">
				A concept identifier expressed
		</text>
		<text fill="gray" font-size="9" font-family="Segoe UI" x="158, 162.5791, 166.39795, 168.86328, 173.44238, 175.90771, 179.72656, 182.77637, 185.90527, 188.08496, 193.17822, 198.47803, 200.94336, 206.2168, 209.03369, 211.49902, 214.54883, 219.64209, 224.34863, 226.81396, 229.63086, 234.9043, 238.0332, 245.78516, 248.25049, 252.06934, 255.88818, 259.70703, 261.6582, 265.81543, 269.97266, 274.12988, " y="1207, ">
				as a string of the form sss:ccc,
		</text>
		<text fill="gray" font-size="9" font-family="Segoe UI" x="158, 164.50391, 169.59717, 174.30371, 177.43262, 182.13916, 184.60449, 188.42334, 192.24219, 196.06104, 198.52637, 200.70605, 204.5249, 206.99023, 211.56934, 214.03467, 217.85352, 222.01074, 227.104, 231.81055, 239.5625, 244.26904, 246.73438, 251.31348, 253.49316, 255.67285, 260.25195, " y="1219, ">
				where sss is a scheme alias
		</text>
		<text fill="gray" font-size="9" font-family="Segoe UI" x="158, 162.5791, 167.67236, 172.97217, 175.4375, 179.59473, 183.75195, 187.90918, 190.37451, 192.5542, 196.37305, 198.83838, 203.41748, 205.88281, 210.04004, 215.31348, 220.61328, " y="1231, ">
				and ccc is a code
		</text>
		<rect fill="white" x="162" y="1160" width="36" height="16"/>
		<text font-size="12" font-weight="600" font-family="Segoe UI" x="162, 169.42969, 175.18945, 182.52539, 189.95508, " y="1173, ">
				qcode
		</text>
		<rect fill="none" stroke="black" stroke-width="1" stroke-linecap="square" stroke-miterlimit="4" transform="translate(0.5 0.5)" x="153" y="1158" width="51" height="20"/>
		<rect fill="silver" x="157" y="1244" width="52" height="21"/>
		<rect fill="white" x="153" y="1240" width="52" height="21"/>
		<rect fill="white" x="158" y="1267" width="95" height="24"/>
		<text fill="gray" font-size="9" font-family="Segoe UI" x="158, 163.80518, 166.27051, 172.45361, 177.83691, 180.23193, 182.69727, 189.20117, 194.29443, 196.47412, 200.63135, 205.72461, 208.18994, 210.36963, 215.66943, 220.37598, 225.46924, 228.51904, 230.69873, 233.51562, 235.69531, 240.40186, 244.2207, 246.68604, " y="1277, ">
				A URI which identifies a
		</text>
		<text fill="gray" font-size="9" font-family="Segoe UI" x="158, 162.15723, 167.43066, 172.52393, 176.68115, 181.3877, 186.67871, 189.72852, " y="1289, ">
				concept.
		</text>
		<rect fill="white" x="162" y="1242" width="36" height="16"/>
		<text font-size="12" font-weight="600" font-family="Segoe UI" x="162, 169.25977, 174.08203, " y="1255, ">
				uri
		</text>
		<rect fill="none" stroke="black" stroke-width="1" stroke-linecap="square" stroke-miterlimit="4" transform="translate(0.5 0.5)" x="153" y="1240" width="51" height="20"/>
		<rect fill="silver" x="157" y="1302" width="52" height="21"/>
		<rect fill="white" x="153" y="1298" width="52" height="21"/>
		<rect fill="white" x="158" y="1325" width="121" height="24"/>
		<text fill="gray" font-size="9" font-family="Segoe UI" x="158, 163.80518, 166.27051, 170.42773, 175.70117, 180.79443, 184.95166, 189.6582, 194.94922, 197.99902, 200.46436, 202.64404, 207.94385, 212.65039, 217.74365, 220.79346, 222.97314, 225.79004, 227.96973, 232.67627, 235.80518, 238.27051, 242.97705, 247.10791, 252.39893, 255.52783, 260.23438, 264.05322, 267.87207, 272.57861, " y="1335, ">
				A concept identifier expressed
		</text>
		<text fill="gray" font-size="9" font-family="Segoe UI" x="158, 162.5791, 166.39795, 168.86328, 173.44238, 175.90771, 178.72461, 181.85352, 186.56006, 191.2666, 193.73193, 196.78174, 201.48828, 205.61914, 208.66895, 211.13428, 214.95312, 218.00293, 221.13184, 223.31152, 228.40479, " y="1347, ">
				as a free text string
		</text>
		<rect fill="white" x="162" y="1300" width="36" height="16"/>
		<text font-size="12" font-weight="600" font-family="Segoe UI" x="162, 165.41016, 168.82031, 173.44336, 179.93555, 184.71094, 191.16797, " y="1313, ">
				literal
		</text>
		<rect fill="none" stroke="black" stroke-width="1" stroke-linecap="square" stroke-miterlimit="4" transform="translate(0.5 0.5)" x="153" y="1298" width="51" height="20"/>
		<rect fill="silver" x="157" y="1360" width="52" height="21"/>
		<rect fill="white" x="153" y="1356" width="52" height="21"/>
		<rect fill="white" x="158" y="1383" width="119" height="48"/>
		<text fill="gray" font-size="9" font-family="Segoe UI" x="158, 162.71533, 167.80859, 172.51514, 174.98047, 178.03027, 182.38525, 187.67627, 192.38281, 194.84814, 200.12158, 202.93848, 205.40381, 208.45361, 213.54688, 218.25342, 220.71875, 224.87598, 230.14941, 235.24268, 239.3999, 244.10645, 249.39746, " y="1393, ">
				The type of the concept
		</text>
		<text fill="gray" font-size="9" font-family="Segoe UI" x="158, 162.5791, 166.39795, 170.2168, 172.39648, 177.69629, 182.78955, 187.49609, 192.7959, 195.26123, 199.84033, 203.65918, 206.12451, 210.28174, 215.55518, 220.64844, 223.69824, 226.82715, 232.10059, 234.28027, 236.45996, 241.1665, " y="1405, ">
				assigned as controlled
		</text>
		<text fill="gray" font-size="9" font-family="Segoe UI" x="158, 163.29102, 166.41992, 171.69336, 176.98438, 181.69092, 184.81982, 187.86963, 192.22461, 194.68994, 199.00098, 203.58008, 205.75977, 210.85303, 215.55957, 218.0249, 221.62402, 224.08936, 228.7959, 232.92676, 238.21777, 241.34668, 246.05322, 249.87207, 253.69092, 258.39746, 263.69727, 266.1626, 271.45361, " y="1417, ">
				property value - expressed by
		</text>
		<text fill="gray" font-size="9" font-family="Segoe UI" x="158, 162.5791, 165.04443, 171.82959, 177.40186, 182.67529, 187.9751, " y="1429, ">
				a QCode
		</text>
		<rect fill="white" x="162" y="1358" width="36" height="16"/>
		<text font-size="12" font-weight="600" font-family="Segoe UI" x="162, 166.66992, 173.12695, 180.56836, " y="1371, ">
				type
		</text>
		<rect fill="none" stroke="black" stroke-width="1" stroke-linecap="square" stroke-miterlimit="4" transform="translate(0.5 0.5)" x="153" y="1356" width="51" height="20"/>
		<rect fill="silver" x="157" y="1442" width="58" height="21"/>
		<rect fill="white" x="153" y="1438" width="58" height="21"/>
		<rect fill="white" x="158" y="1465" width="119" height="48"/>
		<text fill="gray" font-size="9" font-family="Segoe UI" x="158, 162.71533, 167.80859, 172.51514, 174.98047, 178.03027, 182.38525, 187.67627, 192.38281, 194.84814, 200.12158, 202.93848, 205.40381, 208.45361, 213.54688, 218.25342, 220.71875, 224.87598, 230.14941, 235.24268, 239.3999, 244.10645, 249.39746, " y="1475, ">
				The type of the concept
		</text>
		<text fill="gray" font-size="9" font-family="Segoe UI" x="158, 162.5791, 166.39795, 170.2168, 172.39648, 177.69629, 182.78955, 187.49609, 192.7959, 195.26123, 199.84033, 203.65918, 206.12451, 210.28174, 215.55518, 220.64844, 223.69824, 226.82715, 232.10059, 234.28027, 236.45996, 241.1665, " y="1487, ">
				assigned as controlled
		</text>
		<text fill="gray" font-size="9" font-family="Segoe UI" x="158, 163.29102, 166.41992, 171.69336, 176.98438, 181.69092, 184.81982, 187.86963, 192.22461, 194.68994, 199.00098, 203.58008, 205.75977, 210.85303, 215.55957, 218.0249, 221.62402, 224.08936, 228.7959, 232.92676, 238.21777, 241.34668, 246.05322, 249.87207, 253.69092, 258.39746, 263.69727, 266.1626, 271.45361, " y="1499, ">
				property value - expressed by
		</text>
		<text fill="gray" font-size="9" font-family="Segoe UI" x="158, 162.5791, 165.04443, 171.22754, 176.61084, " y="1511, ">
				a URI
		</text>
		<rect fill="white" x="162" y="1440" width="42" height="16"/>
		<text font-size="12" font-weight="600" font-family="Segoe UI" x="162, 166.66992, 173.12695, 180.56836, 187.06055, 194.32031, 199.14258, " y="1453, ">
				typeuri
		</text>
		<rect fill="none" stroke="black" stroke-width="1" stroke-linecap="square" stroke-miterlimit="4" transform="translate(0.5 0.5)" x="153" y="1438" width="57" height="20"/>
		<rect fill="silver" x="157" y="1524" width="66" height="21"/>
		<rect fill="white" x="153" y="1520" width="66" height="21"/>
		<rect fill="white" x="158" y="1547" width="121" height="84"/>
		<text fill="gray" font-size="9" font-family="Segoe UI" x="158, 162.78125, 168.07227, 172.77881, 176.93604, 179.11572, 181.93262, 184.1123, 188.81885, 192.6377, 195.10303, 198.15283, 203.24609, 207.95264, 210.41797, 212.59766, 217.17676, 222.27002, 227.56982, 232.66309, 237.24219, 242.54199, 247.24854, 249.71387, 254.9873, 257.8042, 260.26953, 263.31934, 268.4126, 270.59229, " y="1557, ">
				Specifies the language of this
		</text>
		<text fill="gray" font-size="9" font-family="Segoe UI" x="158, 163.29102, 166.41992, 171.69336, 176.98438, 181.69092, 184.81982, 187.86963, 192.22461, 194.68994, 199.26904, 204.3623, 209.66211, 212.12744, 217.41846, 222.69189, 225.7417, 230.44824, 235.5415, 238.59131, 240.771, 245.3501, 247.52979, 249.70947, 254.06445, 256.52979, 261.10889, 263.28857, " y="1569, ">
				property and potentially all
		</text>
		<text fill="gray" font-size="9" font-family="Segoe UI" x="158, 163.2998, 168.00635, 171.8252, 175.98242, 180.68896, 185.78223, 191.08203, 195.66113, 200.75439, 203.8042, 206.26953, 211.56055, 214.68945, 219.96289, 225.25391, 229.96045, 233.08936, 236.13916, 238.31885, 243.02539, 246.84424, " y="1581, ">
				descendant properties.
		</text>
		<text fill="gray" font-size="9" font-family="Segoe UI" x="158, 162.13086, 169.88281, 172.0625, 174.01367, 176.19336, 180.77246, 185.86572, 191.16553, 193.63086, 197.94189, 202.521, 204.70068, 209.79395, 214.50049, 218.31934, 220.78467, 226.05811, 228.875, 231.34033, 236.64014, 241.34668, 245.16553, 249.32275, 254.0293, 259.12256, 264.42236, 269.00146, 274.09473, " y="1593, ">
				xml:lang values of descendant
		</text>
		<text fill="gray" font-size="9" font-family="Segoe UI" x="158, 163.29102, 166.41992, 171.69336, 176.98438, 181.69092, 184.81982, 187.86963, 190.04932, 194.75586, 198.57471, 201.04004, 206.31348, 210.62451, 215.33105, 218.45996, 221.58887, 223.76855, 229.06836, 233.7749, 236.24023, 239.29004, 244.3833, 246.56299, 250.38184, 252.84717, 257.1582, 261.7373, 263.91699, 269.01025, 273.7168, " y="1605, ">
				properties override this value.
		</text>
		<text fill="gray" font-size="9" font-family="Segoe UI" x="158, 162.93066, 167.50977, 169.68945, 174.78271, 179.48926, 183.30811, 185.77344, 190.35254, 193.48145, 198.18799, 200.65332, 205.95312, 210.65967, 213.70947, 218.41602, 221.54492, 229.29688, 231.47656, 236.56982, 241.27637, 246.57617, 249.0415, 254.33252, " y="1617, ">
				Values are determined by
		</text>
		<text fill="gray" font-size="9" font-family="Segoe UI" x="158, 160.39502, 165.48828, 168.53809, 173.24463, 176.37354, 181.4668, 186.17334, 189.22314, 191.68848, 196.84766, 202.41992, 207.46045, 209.92578, 214.77734, 219.62891, " y="1629, ">
				Internet BCP 47.
		</text>
		<rect fill="white" x="162" y="1522" width="50" height="16"/>
		<text font-size="12" font-weight="600" font-family="Segoe UI" x="162, 168.62695, 179.61914, 183.0293, 186.28125, 189.69141, 196.14844, 203.4082, " y="1535, ">
				xml:lang
		</text>
		<path fill="none" stroke="black" stroke-width="2" stroke-miterlimit="4" transform="translate(0.5 0.5)" d="M155 1538L159 1534"/>
		<path fill="none" stroke="black" stroke-width="1" stroke-linecap="square" stroke-miterlimit="4" transform="translate(0.5 0.5)" d="M156 1534L159 1534L159 1537"/>
		<rect fill="none" stroke="black" stroke-width="1" stroke-linecap="square" stroke-miterlimit="4" transform="translate(0.5 0.5)" x="153" y="1520" width="65" height="20"/>
		<rect fill="silver" x="157" y="1642" width="52" height="21"/>
		<rect fill="white" x="153" y="1638" width="52" height="21"/>
		<rect fill="white" x="158" y="1665" width="116" height="24"/>
		<text fill="gray" font-size="9" font-family="Segoe UI" x="158, 162.71533, 167.80859, 172.51514, 174.98047, 180.28027, 182.45996, 185.58887, 190.29541, 194.45264, 197.50244, 199.68213, 204.95557, 210.04883, 214.62793, 216.80762, 218.9873, 222.03711, 226.39209, 228.85742, 234.13086, 236.94775, 239.41309, 242.46289, 247.16943, 251.30029, 254.3501, 259.44336, 264.02246, " y="1675, ">
				The directionality of textual
		</text>
		<text fill="gray" font-size="9" font-family="Segoe UI" x="158, 162.15723, 167.43066, 172.52393, 175.57373, 180.28027, 185.37354, 188.42334, 190.88867, 193.60449, 198.31104, 203.4043, 208.49756, 216.24951, 220.95605, 224.08496, 228.66406, 231.71387, 233.89355, 239.16699, 244.26025, 246.21143, 248.67676, 250.85645, 253.90625, 257.03516, 258.98633, 261.45166, 264.58057, 267.63037, 269.81006, " y="1687, ">
				content (enumeration: ltr, rtl)
		</text>
		<rect fill="white" x="162" y="1640" width="36" height="16"/>
		<text font-size="12" font-weight="600" font-family="Segoe UI" x="162, 169.42969, 172.83984, " y="1653, ">
				dir
		</text>
		<rect fill="none" stroke="black" stroke-width="1" stroke-linecap="square" stroke-miterlimit="4" transform="translate(0.5 0.5)" x="153" y="1638" width="51" height="20"/>
		<path fill="silver" d="M157 1705L162 1700L230 1700L235 1705L235 1716L230 1721L162 1721L157 1716L157 1705Z"/>
		<path fill="white" d="M153 1701L158 1696L226 1696L231 1701L231 1712L226 1717L158 1717L153 1712L153 1701Z"/>
		<rect fill="white" x="180" y="1698" width="46" height="16"/>
		<text font-size="12" font-weight="600" font-family="Segoe UI" x="180, 187.10742, 194.21484, 201.55078, 206.2207, 213.44531, 219.9375, " y="1711, ">
				##other
		</text>
		<rect fill="white" x="158" y="1698" width="20" height="16"/>
		<text fill="gray" font-size="12" font-family="Segoe UI" x="158, 164.10547, 170.89648, " y="1711, ">
				any
		</text>
		<path fill="none" stroke="black" stroke-width="1" stroke-linecap="square" stroke-miterlimit="4" transform="translate(0.5 0.5)" d="M153 1701L158 1696L225 1696L230 1701L230 1711L225 1716L158 1716L153 1711L153 1701Z"/>
		<rect x="144" y="41" width="11" height="11"/>
		<rect fill="white" x="145" y="42" width="9" height="9"/>
		<rect x="146" y="46" width="7" height="1"/>
		<path fill="none" stroke="black" stroke-width="1" stroke-linecap="square" stroke-miterlimit="4" transform="translate(0.5 0.5)" d="M184 1781L192 1781"/>
		<path fill="none" stroke="black" stroke-width="1" stroke-linecap="square" stroke-miterlimit="4" transform="translate(0.5 0.5)" d="M193 1781L193 1751"/>
		<path fill="none" stroke="black" stroke-width="1" stroke-linecap="square" stroke-miterlimit="4" transform="translate(0.5 0.5)" d="M193 1781L193 1812"/>
		<path fill="none" stroke="black" stroke-width="1" stroke-linecap="square" stroke-miterlimit="4" transform="translate(0.5 0.5)" d="M193 1750L207 1750"/>
		<path fill="none" stroke="black" stroke-width="1" stroke-linecap="square" stroke-miterlimit="4" transform="translate(0.5 0.5)" d="M193 1813L207 1813"/>
		<path fill="silver" d="M146 1783L151 1778L176 1778L181 1783L181 1794L176 1799L151 1799L146 1794L146 1783Z"/>
		<path fill="white" d="M142 1779L147 1774L171 1774L176 1779L176 1789L171 1794L147 1794L142 1789L142 1779Z"/>
		<path transform="translate(0.5 0.5)" d="M145.889 1774.4L146.793 1773.5L147.929 1773.5L148.429 1773.5L148.429 1774.5L147.929 1774.5L147 1774.5L147 1774L147.354 1774.35L146.243 1775.46L145.536 1774.76L145.889 1774.4ZM151.929 1773.5L153.929 1773.5L154.429 1773.5L154.429 1774.5L153.929 1774.5L151.429 1774.5L151.429 1773.5L151.929 1773.5ZM157.929 1773.5L159.929 1773.5L160.429 1773.5L160.429 1774.5L159.929 1774.5L157.429 1774.5L157.429 1773.5L157.929 1773.5ZM163.929 1773.5L165.929 1773.5L166.429 1773.5L166.429 1774.5L165.929 1774.5L163.429 1774.5L163.429 1773.5L163.929 1773.5ZM169.929 1773.5L171.207 1773.5L172.01 1774.3L172.364 1774.66L171.657 1775.36L171.303 1775.01L170.646 1774.35L171 1774L171 1774.5L169.429 1774.5L169.429 1773.5L169.929 1773.5ZM174.839 1777.13L176.253 1778.55L176.607 1778.9L175.899 1779.61L175.546 1779.25L173.778 1777.49L174.485 1776.78L174.839 1777.13ZM176.5 1782.86L176.5 1784.86L176.5 1785.36L175.5 1785.36L175.5 1784.86L175.5 1782.36L176.5 1782.36L176.5 1782.86ZM176.5 1788.86L176.5 1789.21L175.04 1790.67L174.686 1791.02L173.979 1790.31L174.333 1789.96L175.646 1788.65L176 1789L175.5 1789L175.5 1788.36L176.5 1788.36L176.5 1788.86ZM172.211 1793.5L171.207 1794.5L170.213 1794.5L169.713 1794.5L169.713 1793.5L170.213 1793.5L171 1793.5L171 1794L170.646 1793.65L171.858 1792.44L172.565 1793.14L172.211 1793.5ZM166.213 1794.5L164.213 1794.5L163.713 1794.5L163.713 1793.5L164.213 1793.5L166.713 1793.5L166.713 1794.5L166.213 1794.5ZM160.213 1794.5L158.213 1794.5L157.713 1794.5L157.713 1793.5L158.213 1793.5L160.713 1793.5L160.713 1794.5L160.213 1794.5ZM154.213 1794.5L152.213 1794.5L151.713 1794.5L151.713 1793.5L152.213 1793.5L154.713 1793.5L154.713 1794.5L154.213 1794.5ZM148.213 1794.5L146.793 1794.5L146.09 1793.8L145.737 1793.44L146.444 1792.74L146.797 1793.09L147.354 1793.65L147 1794L147 1793.5L148.713 1793.5L148.713 1794.5L148.213 1794.5ZM143.262 1790.97L141.847 1789.55L141.494 1789.2L142.201 1788.49L142.555 1788.85L144.322 1790.62L143.615 1791.32L143.262 1790.97ZM141.5 1785.28L141.5 1783.28L141.5 1782.78L142.5 1782.78L142.5 1783.28L142.5 1785.78L141.5 1785.78L141.5 1785.28ZM141.5 1779.28L141.5 1778.79L143.414 1776.88L144.121 1777.59L142.354 1779.35L142 1779L142.5 1779L142.5 1779.78L141.5 1779.78L141.5 1779.28Z"/>
		<path fill="white" d="M139 1776L144 1771L169 1771L174 1776L174 1787L169 1792L144 1792L139 1787L139 1776Z"/>
		<path fill="none" stroke="black" stroke-width="1" stroke-linecap="square" stroke-miterlimit="4" transform="translate(0.5 0.5)" d="M158 1792L164 1798L167 1795"/>
		<path fill="none" stroke="black" stroke-width="1" stroke-linecap="square" stroke-miterlimit="4" transform="translate(0.5 0.5)" d="M144 1781L149 1781L153 1777"/>
		<path fill="none" stroke="black" stroke-width="1" stroke-linecap="square" stroke-miterlimit="4" transform="translate(0.5 0.5)" d="M159 1781L167 1781"/>
		<path fill="none" stroke="black" stroke-width="1" stroke-linecap="square" stroke-miterlimit="4" transform="translate(0.5 0.5)" d="M159 1777L163 1777L163 1785L159 1785"/>
		<rect x="155" y="1776" width="3" height="3"/>
		<rect x="155" y="1780" width="3" height="3"/>
		<rect x="155" y="1784" width="3" height="3"/>
		<text font-size="12" font-family="Segoe UI" x="143.76562, " y="1811, ">
				0
		</text>
		<text font-size="12" font-family="Symbol" x="158.72266, " y="1810, ">
				
		</text>
		<text font-size="12" font-family="Segoe UI" x="151.89844, 154.5, " y="1811, ">
				..
		</text>
		<path transform="translate(0.5 0.5)" d="M142.889 1771.4L143.793 1770.5L144.929 1770.5L145.429 1770.5L145.429 1771.5L144.929 1771.5L144 1771.5L144 1771L144.354 1771.35L143.243 1772.46L142.536 1771.76L142.889 1771.4ZM148.929 1770.5L150.929 1770.5L151.429 1770.5L151.429 1771.5L150.929 1771.5L148.429 1771.5L148.429 1770.5L148.929 1770.5ZM154.929 1770.5L156.929 1770.5L157.429 1770.5L157.429 1771.5L156.929 1771.5L154.429 1771.5L154.429 1770.5L154.929 1770.5ZM160.929 1770.5L162.929 1770.5L163.429 1770.5L163.429 1771.5L162.929 1771.5L160.429 1771.5L160.429 1770.5L160.929 1770.5ZM166.929 1770.5L168.207 1770.5L169.01 1771.3L169.364 1771.66L168.657 1772.36L168.303 1772.01L167.646 1771.35L168 1771L168 1771.5L166.429 1771.5L166.429 1770.5L166.929 1770.5ZM171.839 1774.13L173.253 1775.55L173.607 1775.9L172.899 1776.61L172.546 1776.25L170.778 1774.49L171.485 1773.78L171.839 1774.13ZM173.5 1779.86L173.5 1781.86L173.5 1782.36L172.5 1782.36L172.5 1781.86L172.5 1779.36L173.5 1779.36L173.5 1779.86ZM173.5 1785.86L173.5 1786.21L172.04 1787.67L171.686 1788.02L170.979 1787.31L171.333 1786.96L172.646 1785.65L173 1786L172.5 1786L172.5 1785.36L173.5 1785.36L173.5 1785.86ZM169.211 1790.5L168.207 1791.5L167.213 1791.5L166.713 1791.5L166.713 1790.5L167.213 1790.5L168 1790.5L168 1791L167.646 1790.65L168.858 1789.44L169.565 1790.14L169.211 1790.5ZM163.213 1791.5L161.213 1791.5L160.713 1791.5L160.713 1790.5L161.213 1790.5L163.713 1790.5L163.713 1791.5L163.213 1791.5ZM157.213 1791.5L155.213 1791.5L154.713 1791.5L154.713 1790.5L155.213 1790.5L157.713 1790.5L157.713 1791.5L157.213 1791.5ZM151.213 1791.5L149.213 1791.5L148.713 1791.5L148.713 1790.5L149.213 1790.5L151.713 1790.5L151.713 1791.5L151.213 1791.5ZM145.213 1791.5L143.793 1791.5L143.09 1790.8L142.737 1790.44L143.444 1789.74L143.797 1790.09L144.354 1790.65L144 1791L144 1790.5L145.713 1790.5L145.713 1791.5L145.213 1791.5ZM140.262 1787.97L138.847 1786.55L138.494 1786.2L139.201 1785.49L139.555 1785.85L141.322 1787.62L140.615 1788.32L140.262 1787.97ZM138.5 1782.28L138.5 1780.28L138.5 1779.78L139.5 1779.78L139.5 1780.28L139.5 1782.78L138.5 1782.78L138.5 1782.28ZM138.5 1776.28L138.5 1775.79L140.414 1773.88L141.121 1774.59L139.354 1776.35L139 1776L139.5 1776L139.5 1776.78L138.5 1776.78L138.5 1776.28Z"/>
		<rect fill="silver" x="212" y="1744" width="54" height="21"/>
		<rect fill="white" x="208" y="1740" width="54" height="21"/>
		<rect fill="#FFFFC0" x="213" y="1767" width="115" height="24"/>
		<text fill="gray" font-size="9" font-family="Segoe UI" x="213, 218.80518, 221.27051, 226.36377, 230.94287, 233.99268, 239.08594, 242.21484, 246.79395, 248.97363, 251.43896, 253.61865, 258.19775, 263.29102, 268.59082, 273.68408, 278.26318, 283.56299, 288.26953, 290.73486, 295.82812, 300.40723, 308.15918, 312.86572, 315.33105, 318.14795, 323.42139, " y="1777, ">
				A natural language name for
		</text>
		<text fill="gray" font-size="9" font-family="Segoe UI" x="213, 216.0498, 221.14307, 225.84961, 228.31494, 232.47217, 237.74561, 242.83887, 246.99609, 251.70264, 256.99365, 260.04346, " y="1789, ">
				the concept.
		</text>
		<rect fill="white" x="217" y="1742" width="33" height="16"/>
		<text font-size="12" font-weight="600" font-family="Segoe UI" x="217, 224.25977, 230.7168, 241.70898, " y="1755, ">
				name
		</text>
		<path fill="none" stroke="black" stroke-width="1" stroke-linecap="square" stroke-miterlimit="4" transform="translate(0.5 0.5)" d="M210 1742L215 1742"/>
		<path fill="none" stroke="black" stroke-width="1" stroke-linecap="square" stroke-miterlimit="4" transform="translate(0.5 0.5)" d="M210 1744L214 1744"/>
		<path fill="none" stroke="black" stroke-width="1" stroke-linecap="square" stroke-miterlimit="4" transform="translate(0.5 0.5)" d="M210 1746L214 1746"/>
		<path fill="none" stroke="black" stroke-width="2" stroke-miterlimit="4" transform="translate(0.5 0.5)" d="M210 1758L214 1754"/>
		<path fill="none" stroke="black" stroke-width="1" stroke-linecap="square" stroke-miterlimit="4" transform="translate(0.5 0.5)" d="M211 1754L214 1754L214 1757"/>
		<rect fill="none" stroke="black" stroke-width="1" stroke-linecap="square" stroke-miterlimit="4" transform="translate(0.5 0.5)" x="208" y="1740" width="53" height="20"/>
		<rect x="256" y="1745" width="11" height="11"/>
		<rect fill="white" x="257" y="1746" width="9" height="9"/>
		<rect x="258" y="1750" width="7" height="1"/>
		<rect x="261" y="1747" width="1" height="7"/>
		<rect fill="silver" x="212" y="1807" width="98" height="21"/>
		<rect fill="white" x="208" y="1803" width="98" height="21"/>
		<rect fill="#FFFFC0" x="213" y="1830" width="121" height="72"/>
		<text fill="gray" font-size="9" font-family="Segoe UI" x="213, 218.11963, 222.82617, 228.11719, 231.24609, 235.95264, 239.77148, 244.47803, 249.57129, 252.62109, 256.43994, 258.90527, 261.95508, 267.04834, 271.75488, 274.22021, 279.51123, 284.78467, 288.60352, 290.7832, 293.83301, 296.0127, 301.28613, 306.37939, 308.84473, 314.11816, 316.93506, 319.40039, " y="1840, ">
				Represents the position of a
		</text>
		<text fill="gray" font-size="9" font-family="Segoe UI" x="213, 217.15723, 222.43066, 227.52393, 231.68115, 236.3877, 241.67871, 244.72852, 247.19385, 249.37354, 254.4668, 256.93213, 261.51123, 263.97656, 269.06982, 271.24951, 275.95605, 279.08496, 283.66406, 286.79297, 290.9502, 296.04346, 298.22314, 302.38037, 306.95947, " y="1852, ">
				concept in a hierarchical
		</text>
		<text fill="gray" font-size="9" font-family="Segoe UI" x="213, 216.0498, 220.62891, 224.75977, 230.0332, 235.12646, 240.3999, 248.15186, 252.50684, 254.97217, 258.02197, 261.15088, 265.85742, 270.56396, 273.0293, 278.32031, 282.67529, 285.14062, 289.71973, 292.18506, 296.00391, 300.71045, 306.01025, 311.10352, 315.81006, 320.90332, 325.06055, " y="1864, ">
				taxonomy tree by a sequence
		</text>
		<text fill="gray" font-size="9" font-family="Segoe UI" x="213, 218.27344, 221.09033, 223.55566, 230.34082, 235.91309, 241.18652, 246.48633, 251.19287, 253.6582, 256.70801, 261.98145, 266.45508, 271.16162, 276.25488, 280.07373, 282.53906, 285.66797, 290.37451, 295.66553, 298.79443, 303.50098, 307.31982, 312.02637, 317.11963, 320.16943, 322.34912, 327.44238, " y="1876, ">
				of QCode tokens representing
		</text>
		<text fill="gray" font-size="9" font-family="Segoe UI" x="213, 216.0498, 221.14307, 225.84961, 228.31494, 232.89404, 237.9873, 242.14453, 246.85107, 250.66992, 253.71973, 258.99316, 262.12207, 264.5874, 268.74463, 274.01807, 279.11133, 283.26855, 287.9751, 293.26611, 296.31592, 300.13477, 302.6001, 307.1792, 312.27246, " y="1888, ">
				the ancestor concepts and
		</text>
		<text fill="gray" font-size="9" font-family="Segoe UI" x="213, 216.0498, 221.14307, 223.32275, 227.1416, 229.60693, 233.76416, 239.0376, 244.13086, 248.28809, 252.99463, 258.28564, " y="1900, ">
				this concept
		</text>
		<rect fill="white" x="217" y="1805" width="77" height="16"/>
		<text font-size="12" font-weight="600" font-family="Segoe UI" x="217, 224.22461, 227.63477, 234.12695, 238.90234, 245.35938, 250.08789, 255.84766, 263.07227, 269.5293, 273.33203, 280.5918, 285.19141, " y="1818, ">
				hierarchyInfo
		</text>
		<path fill="none" stroke="black" stroke-width="1" stroke-linecap="square" stroke-miterlimit="4" transform="translate(0.5 0.5)" d="M210 1805L215 1805"/>
		<path fill="none" stroke="black" stroke-width="1" stroke-linecap="square" stroke-miterlimit="4" transform="translate(0.5 0.5)" d="M210 1807L214 1807"/>
		<path fill="none" stroke="black" stroke-width="1" stroke-linecap="square" stroke-miterlimit="4" transform="translate(0.5 0.5)" d="M210 1809L214 1809"/>
		<path fill="none" stroke="black" stroke-width="2" stroke-miterlimit="4" transform="translate(0.5 0.5)" d="M210 1821L214 1817"/>
		<path fill="none" stroke="black" stroke-width="1" stroke-linecap="square" stroke-miterlimit="4" transform="translate(0.5 0.5)" d="M211 1817L214 1817L214 1820"/>
		<rect fill="none" stroke="black" stroke-width="1" stroke-linecap="square" stroke-miterlimit="4" transform="translate(0.5 0.5)" x="208" y="1803" width="97" height="20"/>
		<rect x="300" y="1808" width="11" height="11"/>
		<rect fill="white" x="301" y="1809" width="9" height="9"/>
		<rect x="302" y="1813" width="7" height="1"/>
		<rect x="305" y="1810" width="1" height="7"/>
		<rect x="173" y="1776" width="11" height="11"/>
		<rect fill="white" x="174" y="1777" width="9" height="9"/>
		<rect x="175" y="1781" width="7" height="1"/>
		<rect x="80" y="1326" width="11" height="11"/>
		<rect fill="white" x="81" y="1327" width="9" height="9"/>
		<rect x="82" y="1331" width="7" height="1"/>
	</g>
</svg>
