<?xml version="1.0" encoding="utf-8" ?>
<svg xmlns="http://www.w3.org/2000/svg" xmlns:xlink="http://www.w3.org/1999/xlink" width="395" height="1346">
	<clipPath id="cl_6df">
		<rect x="-10" y="-5" width="395" height="1346"/>
	</clipPath>
	<g clip-path="url(#cl_6df)">
		<path fill="none" stroke="black" stroke-width="1" stroke-linecap="square" stroke-miterlimit="4" transform="translate(0.5 0.5)" d="M147 668L160 668"/>
		<rect fill="silver" x="4" y="662" width="142" height="21"/>
		<rect fill="white" y="658" width="142" height="21"/>
		<rect fill="white" x="5" y="685" width="135" height="48"/>
		<text fill="gray" font-size="9" font-family="Segoe UI" x="7.465332, 13.037598, 18.311035, 23.404297, 26.454102, 31.033203, 33.212891, 38.306152, 42.125, 44.590332, 49.169434, 51.634766, 54.763672, 56.943359, 62.243164, 67.336426, 70.38623, 74.205078, 76.67041, 81.376953, 85.507812, 90.798828, 93.927734, 98.634277, 102.45312, 106.27197, 108.45166, 113.7251, 118.81836, 121.28369, 125.86279, " y="695, ">
				Contains a rights expression as
		</text>
		<text fill="gray" font-size="9" font-family="Segoe UI" x="5, 10.299805, 15.006348, 17.823242, 20.00293, 25.096191, 29.802734, 35.102539, 37.567871, 42.858887, 47.213867, 49.679199, 54.258301, 56.723633, 62.106934, 64.286621, 69.586426, 74.679688, 77.729492, 81.54834, 84.013672, 88.566406, 92.697266, 97.988281, 101.11719, 105.82373, 109.64258, 113.46143, 115.64111, 120.91455, " y="707, ">
				defined by a Rights Expression
		</text>
		<text fill="gray" font-size="9" font-family="Segoe UI" x="5, 9.2363281, 13.81543, 18.908691, 24.208496, 29.301758, 33.880859, 39.180664, 43.887207, 46.352539, 50.931641, 56.024902, 61.324707, 63.790039, 67.608887, 72.31543, 75.444336, 80.023438, 82.203125, 84.382812, 88.452148, 93.158691, 98.458496, 100.92383, 106.01709, 109.83594, 112.01562, 117.10889, 122.40869, 124.87402, 129.45312, 134.54639, " y="719, ">
				Language and seralized using any
		</text>
		<text fill="gray" font-size="9" font-family="Segoe UI" x="5, 8.8188477, 14.109863, 18.816406, 22.973633, 25.15332, 27.970215, 30.149902, 34.307129, 36.772461, 41.479004, 46.572266, 50.729492, 56.00293, 61.302734, 63.482422, 68.575684, 73.875488, 76.34082, 81.047363, 85.178223, 89.335449, 94.041992, 99.333008, 102.38281, 104.84814, 110.15674, 118.23828, 122.47461, " y="731, ">
				specific encoding except XML.
		</text>
		<rect fill="white" x="9" y="660" width="121" height="16"/>
		<text font-size="12" font-weight="600" font-family="Segoe UI" x="9, 13.822266, 17.232422, 24.662109, 31.886719, 36.556641, 41.835938, 48.222656, 54.849609, 62.291016, 67.019531, 73.511719, 78.791016, 84.070312, 87.480469, 94.816406, 102.07617, 110.92383, 117.38086, 122.05078, " y="673, ">
				rightsExpressionData
		</text>
		<path fill="none" stroke="black" stroke-width="1" stroke-linecap="square" stroke-miterlimit="4" transform="translate(0.5 0.5)" d="M2 660L7 660"/>
		<path fill="none" stroke="black" stroke-width="1" stroke-linecap="square" stroke-miterlimit="4" transform="translate(0.5 0.5)" d="M2 662L6 662"/>
		<path fill="none" stroke="black" stroke-width="1" stroke-linecap="square" stroke-miterlimit="4" transform="translate(0.5 0.5)" d="M2 664L6 664"/>
		<rect fill="none" stroke="black" stroke-width="1" stroke-linecap="square" stroke-miterlimit="4" transform="translate(0.5 0.5)" y="658" width="141" height="20"/>
		<path fill="white" d="M238 19L238 0L161 0L161 19L161 1335L374 1335L374 19L238 19Z"/>
		<rect fill="white" x="181" y="2" width="51" height="16"/>
		<text font-size="12" font-style="italic" font-family="Segoe UI" x="181, 187.50391, 191.38281, 195.26172, 199.5332, 202.63867, 209.14258, 215.83984, 219.73047, 225.57227, " y="15, ">
				attributes
		</text>
		<path fill="none" stroke="black" stroke-width="1" stroke-linecap="square" stroke-miterlimit="4" transform="translate(0.5 0.5)" d="M238 19L238 0L161 0L161 19L161 1335L374 1335L374 19L238 19Z"/>
		<path fill="white" d="M366 47L366 28L175 28L175 47L175 1150L366 1150L366 47Z"/>
		<rect fill="white" x="180" y="1153" width="179" height="48"/>
		<text fill="gray" font-size="9" font-family="Segoe UI" x="180, 185.80518, 188.27051, 193.57031, 196.69922, 201.97266, 207.06592, 212.35693, 214.82227, 220.0957, 222.9126, 225.37793, 229.95703, 233.00684, 236.05664, 239.18555, 241.36523, 246.65625, 251.74951, 254.79932, 259.50586, 263.32471, 265.79004, 268.60693, 273.88037, 277.00928, 279.47461, 284.05371, 286.2334, 288.41309, 290.87842, 295.58496, 297.76465, 302.47119, 310.22314, 314.92969, 320.02295, 323.07275, 326.8916, 329.35693, 334.63037, 337.44727, 339.9126, 344.4917, 346.95703, 353.13135, " y="1163, ">
				A group of attributes for all elements of a G2
		</text>
		<text fill="gray" font-size="9" font-family="Segoe UI" x="180, 182.39502, 185.44482, 190.15137, 197.90332, 200.36865, 205.0752, 209.20605, 213.36328, 218.06982, 223.36084, 226.41064, 228.87598, 231.05566, 234.10547, 237.92432, 240.38965, 243.51855, 248.79199, 254.06543, 257.11523, 259.58057, 264.28711, 266.4668, 271.17334, 278.92529, 283.63184, 288.7251, 291.7749, 293.72607, 296.19141, 299.24121, 304.33447, 309.04102, 311.50635, 313.68604, 316.73584, 321.44238, 329.19434, 337.27588, 341.98242, 345.03223, " y="1175, ">
				Item except its root element, the itemMeta
		</text>
		<text fill="gray" font-size="9" font-family="Segoe UI" x="180, 184.70654, 186.88623, 191.59277, 199.34473, 204.05127, 209.14453, 212.19434, 214.65967, 219.23877, 224.33203, 229.63184, 232.09717, 236.67627, 238.85596, 241.03564, 243.50098, 248.77441, 251.59131, 254.05664, 256.23633, 259.28613, 263.10498, 265.57031, 269.72754, 274.8208, 277.00049, 279.18018, 284.47998, 287.60889, 292.31543, 297.40869, 299.87402, 306.37793, 311.47119, 313.65088, 317.80811, 322.90137, 325.3667, 329.9458, 333.07471, " y="1187, ">
				element and all of its children which are
		</text>
		<text fill="gray" font-size="9" font-family="Segoe UI" x="180, 187.75195, 192.33105, 197.42432, 202.72412, 207.30322, 210.35303, 215.62646, 218.75537, 223.11035, " y="1199, ">
				mandatory.
		</text>
		<rect fill="white" x="217" y="30" width="143" height="16"/>
		<text font-size="12" font-weight="600" font-family="Segoe UI" x="217, 222.75977, 230.0957, 241.08789, 252.08008, 259.41602, 266.67578, 273.68945, 281.02539, 290.53516, 297.02734, 301.80273, 310, 314.66992, 319.33984, 324.16211, 327.57227, 335.01367, 342.27344, 346.89648, 353.38867, " y="43, ">
				commonPowerAttributes
		</text>
		<rect fill="white" x="195" y="30" width="20" height="16"/>
		<text fill="gray" font-size="12" font-family="Segoe UI" x="195, 202.06641, 206.23828, " y="43, ">
				grp
		</text>
		<path fill="none" stroke="gray" stroke-width="1" stroke-linecap="square" stroke-miterlimit="4" transform="translate(0.5 0.5)" d="M175 47L175 1150L366 1150L366 47L366 47"/>
		<path fill="none" stroke="black" stroke-width="1" stroke-linecap="square" stroke-miterlimit="4" transform="translate(0.5 0.5)" d="M366 47L366 28L175 28L175 47"/>
		<rect x="180" y="33" width="11" height="11"/>
		<rect fill="white" x="181" y="34" width="9" height="9"/>
		<rect x="182" y="38" width="7" height="1"/>
		<rect fill="silver" x="187" y="61" width="52" height="21"/>
		<rect fill="white" x="183" y="57" width="52" height="21"/>
		<rect fill="white" x="188" y="84" width="101" height="24"/>
		<text fill="gray" font-size="9" font-family="Segoe UI" x="188, 192.71533, 197.80859, 202.51514, 204.98047, 207.16016, 212.43359, 216.59082, 221.16992, 223.34961, 225.81494, 227.99463, 233.29443, 238.00098, 243.09424, 246.14404, 248.32373, 251.14062, 253.32031, 258.02686, 261.15576, 263.62109, 268.89453, 271.71143, 274.17676, 277.22656, 282.31982, " y="94, ">
				The local identifier of the
		</text>
		<text fill="gray" font-size="9" font-family="Segoe UI" x="188, 193.29102, 196.41992, 201.69336, 206.98438, 211.69092, 214.81982, 217.86963, 222.22461, " y="106, ">
				property.
		</text>
		<rect fill="white" x="192" y="59" width="36" height="16"/>
		<text font-size="12" font-weight="600" font-family="Segoe UI" x="192, 195.41016, " y="72, ">
				id
		</text>
		<rect fill="none" stroke="black" stroke-width="1" stroke-linecap="square" stroke-miterlimit="4" transform="translate(0.5 0.5)" x="183" y="57" width="51" height="20"/>
		<rect fill="silver" x="187" y="119" width="58" height="21"/>
		<rect fill="white" x="183" y="115" width="58" height="21"/>
		<rect fill="white" x="188" y="142" width="121" height="120"/>
		<text fill="gray" font-size="9" font-family="Segoe UI" x="188, 190.39502, 193.21191, 195.67725, 198.72705, 203.82031, 208.52686, 210.99219, 216.2832, 219.41211, 224.68555, 229.97656, 234.68311, 237.81201, 240.86182, 245.2168, 247.68213, 251.99316, 256.57227, 258.75195, 263.84521, 268.55176, 271.01709, 273.19678, 277.01562, 279.48096, 284.57422, 289.84766, " y="152, ">
				If the property value is not
		</text>
		<text fill="gray" font-size="9" font-family="Segoe UI" x="188, 193.2998, 198.00635, 200.82324, 203.00293, 208.09619, 212.80273, 218.10254, 220.05371, 222.51904, 226.33789, 231.62891, 236.33545, 240.49268, 242.67236, 245.48926, 247.66895, 252.37549, 256.19434, 258.65967, 265.16357, 270.25684, 272.43652, 276.59375, 281.68701, 284.15234, 288.85889, 293.95215, 297.00195, 299.18164, 302.23145, " y="164, ">
				defined, specifies which entity
		</text>
		<text fill="gray" font-size="9" font-family="Segoe UI" x="188, 190.71582, 196.00684, 200.71338, 203.84229, 207.66113, 212.93457, 218.02783, 219.979, 222.44434, 227.71777, 230.84668, 236.14648, 240.72559, 245.81885, 247.99854, 251.81738, 256.39648, 259.44629, 261.62598, 266.89941, 271.99268, 274.45801, 279.73145, " y="176, ">
				(person, organisation or
		</text>
		<text fill="gray" font-size="9" font-family="Segoe UI" x="188, 191.81885, 196.17383, 199.99268, 203.04248, 207.74902, 215.50098, 218.2168, 220.68213, 227.18604, 229.36572, 231.54541, 233.7251, 236.19043, 240.89697, 246.19678, 248.37646, 251.42627, 253.8916, 256.94141, 262.03467, 266.74121, 269.20654, 274.49756, 277.62646, 282.8999, 288.19092, 292.89746, 296.02637, 299.07617, " y="188, ">
				system) will edit the property
		</text>
		<text fill="gray" font-size="9" font-family="Segoe UI" x="188, 192.31104, 196.89014, 199.06982, 204.16309, 208.86963, 211.33496, 214.93408, 217.39941, 222.10596, 226.23682, 231.52783, 234.65674, 239.36328, 243.18213, 247.00098, 251.70752, 257.00732, 259.47266, 264.76367, 269.11865, 271.58398, 276.16309, 278.62842, 285.41357, 290.98584, 296.25928, 301.55908, 306.26562, " y="200, ">
				value - expressed by a QCode.
		</text>
		<text fill="gray" font-size="9" font-family="Segoe UI" x="188, 190.39502, 193.21191, 195.67725, 198.72705, 203.82031, 208.52686, 210.99219, 216.2832, 219.41211, 224.68555, 229.97656, 234.68311, 237.81201, 240.86182, 245.2168, 247.68213, 251.99316, 256.57227, 258.75195, 263.84521, 268.55176, 271.01709, 273.19678, " y="212, ">
				If the property value is
		</text>
		<text fill="gray" font-size="9" font-family="Segoe UI" x="188, 193.2998, 198.00635, 200.82324, 203.00293, 208.09619, 212.80273, 218.10254, 220.05371, 222.51904, 226.33789, 231.62891, 236.33545, 240.49268, 242.67236, 245.48926, 247.66895, 252.37549, 256.19434, 258.65967, 265.16357, 270.25684, 272.43652, 276.59375, 281.68701, 284.15234, 288.85889, 293.95215, 297.00195, 299.18164, 302.23145, " y="224, ">
				defined, specifies which entity
		</text>
		<text fill="gray" font-size="9" font-family="Segoe UI" x="188, 190.71582, 196.00684, 200.71338, 203.84229, 207.66113, 212.93457, 218.02783, 219.979, 222.44434, 227.71777, 230.84668, 236.14648, 240.72559, 245.81885, 247.99854, 251.81738, 256.39648, 259.44629, 261.62598, 266.89941, 271.99268, 274.45801, 279.73145, " y="236, ">
				(person, organisation or
		</text>
		<text fill="gray" font-size="9" font-family="Segoe UI" x="188, 191.81885, 196.17383, 199.99268, 203.04248, 207.74902, 215.50098, 218.2168, 220.68213, 225.77539, 230.35449, 234.17334, 236.63867, 241.34521, 246.64502, 248.82471, 251.87451, 256.58105, 261.88086, 264.34619, 267.396, 272.48926, " y="248, ">
				system) has edited the
		</text>
		<text fill="gray" font-size="9" font-family="Segoe UI" x="188, 193.29102, 196.41992, 201.69336, 206.98438, 211.69092, 214.81982, 217.86963, 222.22461, 224.68994, 229.00098, 233.58008, 235.75977, 240.85303, 245.55957, " y="260, ">
				property value.
		</text>
		<rect fill="white" x="192" y="117" width="42" height="16"/>
		<text font-size="12" font-weight="600" font-family="Segoe UI" x="192, 197.75977, 202.48828, 208.98047, 215.4375, 220.06055, 227.39648, " y="130, ">
				creator
		</text>
		<rect fill="none" stroke="black" stroke-width="1" stroke-linecap="square" stroke-miterlimit="4" transform="translate(0.5 0.5)" x="183" y="115" width="57" height="20"/>
		<rect fill="silver" x="187" y="273" width="73" height="21"/>
		<rect fill="white" x="183" y="269" width="73" height="21"/>
		<rect fill="white" x="188" y="296" width="120" height="108"/>
		<text fill="gray" font-size="9" font-family="Segoe UI" x="188, 190.39502, 193.21191, 195.67725, 198.72705, 203.82031, 208.52686, 210.99219, 216.2832, 219.41211, 224.68555, 229.97656, 234.68311, 237.81201, 240.86182, 245.2168, 247.68213, 251.99316, 256.57227, 258.75195, 263.84521, 268.55176, 271.01709, 273.19678, 277.01562, 279.48096, 284.57422, 289.84766, " y="306, ">
				If the property value is not
		</text>
		<text fill="gray" font-size="9" font-family="Segoe UI" x="188, 193.2998, 198.00635, 200.82324, 203.00293, 208.09619, 212.80273, 218.10254, 220.05371, 222.51904, 226.33789, 231.62891, 236.33545, 240.49268, 242.67236, 245.48926, 247.66895, 252.37549, 256.19434, 258.65967, 265.16357, 270.25684, 272.43652, 276.59375, 281.68701, 284.15234, 288.85889, 293.95215, 297.00195, 299.18164, 302.23145, " y="318, ">
				defined, specifies which entity
		</text>
		<text fill="gray" font-size="9" font-family="Segoe UI" x="188, 190.71582, 196.00684, 200.71338, 203.84229, 207.66113, 212.93457, 218.02783, 219.979, 222.44434, 227.71777, 230.84668, 236.14648, 240.72559, 245.81885, 247.99854, 251.81738, 256.39648, 259.44629, 261.62598, 266.89941, 271.99268, 274.45801, 279.73145, " y="330, ">
				(person, organisation or
		</text>
		<text fill="gray" font-size="9" font-family="Segoe UI" x="188, 191.81885, 196.17383, 199.99268, 203.04248, 207.74902, 215.50098, 218.2168, 220.68213, 227.18604, 229.36572, 231.54541, 233.7251, 236.19043, 240.89697, 246.19678, 248.37646, 251.42627, 253.8916, 256.94141, 262.03467, 266.74121, 269.20654, 274.49756, 277.62646, 282.8999, 288.19092, 292.89746, 296.02637, 299.07617, " y="342, ">
				system) will edit the property
		</text>
		<text fill="gray" font-size="9" font-family="Segoe UI" x="188, 191.59912, 194.06445, 198.771, 202.90186, 208.19287, 211.32178, 216.02832, 219.84717, 223.66602, 228.37256, 233.67236, 236.1377, 241.42871, 245.78369, 248.24902, 252.82812, 255.29346, 261.47656, 266.85986, 269.25488, 271.20605, 273.67139, 276.06641, 278.8833, 281.34863, 284.39844, 289.4917, " y="354, ">
				- expressed by a URI. If the
		</text>
		<text fill="gray" font-size="9" font-family="Segoe UI" x="188, 193.29102, 196.41992, 201.69336, 206.98438, 211.69092, 214.81982, 217.86963, 222.22461, 224.68994, 229.00098, 233.58008, 235.75977, 240.85303, 245.55957, 248.0249, 250.20459, 254.02344, 256.48877, 261.78857, 266.49512, 269.31201, 271.4917, 276.58496, 281.2915, 286.59131, " y="366, ">
				property value is defined,
		</text>
		<text fill="gray" font-size="9" font-family="Segoe UI" x="188, 191.81885, 197.10986, 201.81641, 205.97363, 208.15332, 210.97021, 213.1499, 217.85645, 221.67529, 224.14062, 230.64453, 235.73779, 237.91748, 242.07471, 247.16797, 249.6333, 254.33984, 259.43311, 262.48291, 264.6626, 267.7124, 272.06738, 274.53271, 277.24854, 282.53955, 287.24609, 290.375, 294.19385, 299.46729, 304.56055, " y="378, ">
				specifies which entity (person,
		</text>
		<text fill="gray" font-size="9" font-family="Segoe UI" x="188, 193.27344, 196.40234, 201.70215, 206.28125, 211.37451, 213.5542, 217.37305, 221.95215, 225.00195, 227.18164, 232.45508, 237.54834, 240.01367, 245.28711, 248.41602, 250.88135, 254.7002, 259.05518, 262.87402, 265.92383, 270.63037, 278.38232, 281.09814, 283.56348, 288.65674, 293.23584, " y="390, ">
				organisation or system) has
		</text>
		<text fill="gray" font-size="9" font-family="Segoe UI" x="188, 192.70654, 198.00635, 200.18604, 203.23584, 207.94238, 213.24219, 215.70752, 218.75732, 223.85059, 228.55713, 231.02246, 236.31348, 239.44238, 244.71582, 250.00684, 254.71338, 257.84229, 260.89209, 265.24707, " y="402, ">
				edited the property.
		</text>
		<rect fill="white" x="192" y="271" width="57" height="16"/>
		<text font-size="12" font-weight="600" font-family="Segoe UI" x="192, 197.75977, 202.48828, 208.98047, 215.4375, 220.06055, 227.39648, 232.20703, 239.4668, 244.28906, " y="284, ">
				creatoruri
		</text>
		<rect fill="none" stroke="black" stroke-width="1" stroke-linecap="square" stroke-miterlimit="4" transform="translate(0.5 0.5)" x="183" y="269" width="72" height="20"/>
		<rect fill="silver" x="187" y="415" width="69" height="21"/>
		<rect fill="white" x="183" y="411" width="69" height="21"/>
		<rect fill="white" x="188" y="438" width="119" height="72"/>
		<text fill="gray" font-size="9" font-family="Segoe UI" x="188, 192.71533, 197.80859, 202.51514, 204.98047, 210.28027, 214.85938, 217.90918, 222.61572, 225.08105, 227.79688, 232.37598, 237.46924, 242.76904, 244.72021, 247.18555, 252.45898, 257.75, 260.7998, 262.97949, 268.25293, 273.34619, 277.92529, 280.10498, 282.28467, 286.63965, 288.59082, 291.05615, 294.10596, 299.19922, " y="448, ">
				The date (and, optionally, the
		</text>
		<text fill="gray" font-size="9" font-family="Segoe UI" x="188, 191.0498, 193.22949, 200.98145, 205.68799, 208.40381, 210.86914, 217.37305, 222.46631, 227.17285, 232.26611, 234.73145, 237.78125, 242.87451, 247.58105, 250.04639, 255.3374, 258.46631, 263.73975, 269.03076, 273.7373, 276.86621, 279.91602, 284.271, 286.73633, 293.24023, 297.81934, " y="460, ">
				time) when the property was
		</text>
		<text fill="gray" font-size="9" font-family="Segoe UI" x="188, 190.17969, 194.75879, 198.57764, 201.62744, 204.09277, 211.84473, 217.11816, 222.41797, 224.59766, 227.41455, 229.59424, 234.30078, 239.60059, 241.55176, 244.01709, 248.73242, 253.82568, 258.53223, 260.99756, 263.17725, 268.27051, 270.4502, 273.5, 275.67969, 280.25879, 282.43848, 284.90381, 289.21484, 293.79395, 295.97363, 301.06689, " y="472, ">
				last modified. The initial value
		</text>
		<text fill="gray" font-size="9" font-family="Segoe UI" x="188, 190.17969, 193.99854, 196.46387, 199.51367, 204.60693, 209.31348, 211.77881, 217.07861, 221.65771, 224.70752, 229.41406, 231.87939, 234.59521, 239.17432, 244.26758, 249.56738, 251.51855, 253.98389, 259.25732, 264.54834, 267.59814, 269.77783, 275.05127, 280.14453, 284.72363, 286.90332, 289.08301, 293.43799, " y="484, ">
				is the date (and, optionally,
		</text>
		<text fill="gray" font-size="9" font-family="Segoe UI" x="188, 191.0498, 196.14307, 200.84961, 203.31494, 206.36475, 208.54443, 216.29639, 221.00293, 223.71875, 226.18408, 231.45752, 234.27441, 236.73975, 240.89697, 244.02588, 248.73242, 253.31152, 256.36133, 258.54102, 263.81445, 268.90771, 271.37305, 276.64648, 279.46338, 281.92871, 284.97852, 290.07178, " y="496, ">
				the time) of creation of the
		</text>
		<text fill="gray" font-size="9" font-family="Segoe UI" x="188, 193.29102, 196.41992, 201.69336, 206.98438, 211.69092, 214.81982, 217.86963, 222.22461, " y="508, ">
				property.
		</text>
		<rect fill="white" x="192" y="413" width="53" height="16"/>
		<text font-size="12" font-weight="600" font-family="Segoe UI" x="192, 202.99219, 210.32812, 217.75781, 221.16797, 225.76758, 229.17773, 235.66992, " y="426, ">
				modified
		</text>
		<rect fill="none" stroke="black" stroke-width="1" stroke-linecap="square" stroke-miterlimit="4" transform="translate(0.5 0.5)" x="183" y="411" width="68" height="20"/>
		<rect fill="silver" x="187" y="521" width="59" height="21"/>
		<rect fill="white" x="183" y="517" width="59" height="21"/>
		<rect fill="white" x="188" y="544" width="118" height="108"/>
		<text fill="gray" font-size="9" font-family="Segoe UI" x="188, 190.39502, 193.21191, 195.67725, 199.49609, 204.20264, 207.25244, 209.71777, 212.76758, 218.04102, 220.50635, 223.55615, 226.68506, 231.77832, 236.48486, 238.9502, 242, 247.09326, " y="554, ">
				If set to true the
		</text>
		<text fill="gray" font-size="9" font-family="Segoe UI" x="188, 192.15723, 197.43066, 200.55957, 203.68848, 208.39502, 212.21387, 217.50488, 222.77832, 227.87158, 233.17139, 235.35107, 240.44434, 245.74414, 248.20947, 253.50049, 256.62939, 261.90283, 267.19385, 271.90039, 275.0293, 278.0791, 282.43408, 284.89941, 291.40332, 295.98242, " y="566, ">
				corresponding property was
		</text>
		<text fill="gray" font-size="9" font-family="Segoe UI" x="188, 192.5791, 197.87891, 203.17871, 207.88525, 213.18506, 215.65039, 218.7002, 223.97363, 226.43896, 229.48877, 234.58203, 239.28857, 241.75391, 247.92822, 252.77979, 255.24512, 257.64014, 260.68994, 265.39648, 273.14844, 275.61377, 278.43066, 283.7041, 286.83301, 289.29834, " y="578, ">
				added to the G2 Item for a
		</text>
		<text fill="gray" font-size="9" font-family="Segoe UI" x="188, 191.81885, 197.10986, 201.81641, 205.97363, 208.15332, 210.97021, 213.1499, 217.30713, 219.77246, 223.92969, 229.02295, 232.8418, 235.8916, 241.16504, 248.91699, 253.62354, 256.75244, 259.21777, 264.49121, 267.62012, 270.08545, 275.38525, 278.51416, 283.7876, 288.88086, 294.17188, 296.63721, 301.91064, " y="590, ">
				specific customer or group of
		</text>
		<text fill="gray" font-size="9" font-family="Segoe UI" x="188, 192.15723, 197.25049, 201.06934, 204.11914, 209.39258, 217.14453, 221.85107, 224.97998, 228.79883, 231.26416, 236.5376, 241.63086, 243.81055, 248.16553, 250.1167, 252.58203, 257.29736, 262.39062, 267.09717, 269.5625, 274.8623, 279.56885, 282.38574, 286.96484, 292.05811, 294.23779, " y="602, ">
				customers only. The default
		</text>
		<text fill="gray" font-size="9" font-family="Segoe UI" x="188, 192.31104, 196.89014, 199.06982, 204.16309, 208.86963, 211.33496, 216.6084, 219.42529, 221.89062, 224.94043, 230.03369, 232.21338, 236.03223, 238.49756, 243.78857, 246.91748, 252.19092, 257.48193, 262.18848, 265.31738, 268.36719, 272.72217, 275.1875, 277.36719, 281.18604, 283.65137, 286.46826, 291.04736, 293.22705, 297.0459, " y="614, ">
				value of this property is false
		</text>
		<text fill="gray" font-size="9" font-family="Segoe UI" x="188, 194.50391, 199.59717, 201.77686, 205.93408, 211.02734, 213.49268, 218.07178, 223.36279, 228.65381, 230.8335, 233.01318, 237.71973, 241.53857, 244.00391, 250.50781, 255.60107, 260.30762, 265.40088, 267.86621, 270.91602, 276.00928, 278.18896, " y="626, ">
				which applies when this
		</text>
		<text fill="gray" font-size="9" font-family="Segoe UI" x="188, 192.5791, 195.62891, 198.67871, 201.80762, 203.9873, 209.27832, 214.37158, 217.42139, 222.12793, 224.59326, 226.77295, 230.5918, 233.05713, 238.15039, 243.42383, 246.47363, 248.93896, 254.03223, 257.85107, 262.55762, 267.85742, 270.32275, 276.82666, 279.00635, 282.05615, 287.14941, 289.61475, 292.66455, 297.75781, " y="638, ">
				attribute is not used with the
		</text>
		<text fill="gray" font-size="9" font-family="Segoe UI" x="188, 193.29102, 196.41992, 201.69336, 206.98438, 211.69092, 214.81982, 217.86963, 222.22461, " y="650, ">
				property.
		</text>
		<rect fill="white" x="192" y="519" width="43" height="16"/>
		<text font-size="12" font-weight="600" font-family="Segoe UI" x="192, 197.75977, 205.01953, 210.29883, 214.92188, 222.25781, " y="532, ">
				custom
		</text>
		<rect fill="none" stroke="black" stroke-width="1" stroke-linecap="square" stroke-miterlimit="4" transform="translate(0.5 0.5)" x="183" y="517" width="58" height="20"/>
		<rect fill="silver" x="187" y="663" width="52" height="21"/>
		<rect fill="white" x="183" y="659" width="52" height="21"/>
		<rect fill="white" x="188" y="686" width="118" height="48"/>
		<text fill="gray" font-size="9" font-family="Segoe UI" x="188, 190.39502, 195.48828, 200.78809, 202.96777, 207.125, 211.7041, 214.75391, 219.46045, 223.2793, 225.74463, 231.03564, 235.39062, 237.85596, 244.35986, 249.45312, 251.63281, 255.79004, 260.8833, 263.34863, 271.10059, 275.80713, 280.38623, 285.47949, 289.29834, 291.76367, 294.81348, 299.90674, " y="696, ">
				Indicates by which means the
		</text>
		<text fill="gray" font-size="9" font-family="Segoe UI" x="188, 192.31104, 196.89014, 199.06982, 204.16309, 208.86963, 211.33496, 217.83887, 222.41797, 226.23682, 228.70215, 233.40869, 237.53955, 240.58936, 243.71826, 248.29736, 252.45459, 255.50439, 260.21094, 265.51074, 267.97607, 270.79297, 273.92188, 279.19531, 286.94727, 289.4126, 292.4624, 297.55566, " y="708, ">
				value was extracted from the
		</text>
		<text fill="gray" font-size="9" font-family="Segoe UI" x="188, 192.15723, 197.43066, 202.52393, 205.57373, 210.28027, 215.37354, 218.42334, 220.88867, 224.48779, 226.95312, 231.65967, 235.79053, 241.08154, 244.21045, 248.91699, 252.73584, 256.55469, 261.26123, 266.56104, 269.02637, 274.31738, 278.67236, 281.1377, " y="720, ">
				content - expressed by a
		</text>
		<text fill="gray" font-size="9" font-family="Segoe UI" x="188, 194.78516, 200.35742, 205.63086, 210.93066, " y="732, ">
				QCode
		</text>
		<rect fill="white" x="192" y="661" width="36" height="16"/>
		<text font-size="12" font-weight="600" font-family="Segoe UI" x="192, 199.22461, 206.56055, " y="674, ">
				how
		</text>
		<rect fill="none" stroke="black" stroke-width="1" stroke-linecap="square" stroke-miterlimit="4" transform="translate(0.5 0.5)" x="183" y="659" width="51" height="20"/>
		<rect fill="silver" x="187" y="745" width="57" height="21"/>
		<rect fill="white" x="183" y="741" width="57" height="21"/>
		<rect fill="white" x="188" y="768" width="118" height="36"/>
		<text fill="gray" font-size="9" font-family="Segoe UI" x="188, 190.39502, 195.48828, 200.78809, 202.96777, 207.125, 211.7041, 214.75391, 219.46045, 223.2793, 225.74463, 231.03564, 235.39062, 237.85596, 244.35986, 249.45312, 251.63281, 255.79004, 260.8833, 263.34863, 271.10059, 275.80713, 280.38623, 285.47949, 289.29834, 291.76367, 294.81348, 299.90674, " y="778, ">
				Indicates by which means the
		</text>
		<text fill="gray" font-size="9" font-family="Segoe UI" x="188, 192.31104, 196.89014, 199.06982, 204.16309, 208.86963, 211.33496, 217.83887, 222.41797, 226.23682, 228.70215, 233.40869, 237.53955, 240.58936, 243.71826, 248.29736, 252.45459, 255.50439, 260.21094, 265.51074, 267.97607, 270.79297, 273.92188, 279.19531, 286.94727, 289.4126, 292.4624, 297.55566, " y="790, ">
				value was extracted from the
		</text>
		<text fill="gray" font-size="9" font-family="Segoe UI" x="188, 192.15723, 197.43066, 202.52393, 205.57373, 210.28027, 215.37354, 218.42334, 220.88867, 224.48779, 226.95312, 231.65967, 235.79053, 241.08154, 244.21045, 248.91699, 252.73584, 256.55469, 261.26123, 266.56104, 269.02637, 274.31738, 278.67236, 281.1377, 285.7168, 288.18213, 294.36523, 299.74854, " y="802, ">
				content - expressed by a URI
		</text>
		<rect fill="white" x="192" y="743" width="41" height="16"/>
		<text font-size="12" font-weight="600" font-family="Segoe UI" x="192, 199.22461, 206.56055, 216.12891, 223.38867, 228.21094, " y="756, ">
				howuri
		</text>
		<rect fill="none" stroke="black" stroke-width="1" stroke-linecap="square" stroke-miterlimit="4" transform="translate(0.5 0.5)" x="183" y="741" width="56" height="20"/>
		<rect fill="silver" x="187" y="815" width="52" height="21"/>
		<rect fill="white" x="183" y="811" width="52" height="21"/>
		<rect fill="white" x="188" y="838" width="113" height="36"/>
		<text fill="gray" font-size="9" font-family="Segoe UI" x="188, 196.40674, 201.5, 205.85498, 208.32031, 211.37012, 216.46338, 221.16992, 223.63525, 231.38721, 236.09375, 239.14355, 243.72266, 249.02246, 253.60156, 256.65137, 261.23047, 263.6958, 268.78906, 273.36816, 277.18701, 279.65234, 284.94336, 289.6499, 294.35645, " y="848, ">
				Why the metadata has been
		</text>
		<text fill="gray" font-size="9" font-family="Segoe UI" x="188, 190.17969, 195.27295, 199.43018, 201.60986, 206.70312, 212.00293, 216.70947, 222.00928, 224.47461, 228.07373, 230.53906, 235.24561, 239.37646, 244.66748, 247.79639, 252.50293, 256.32178, 260.14062, 264.84717, 270.14697, 272.6123, 277.90332, 282.2583, 284.72363, " y="860, ">
				included - expressed by a
		</text>
		<text fill="gray" font-size="9" font-family="Segoe UI" x="188, 194.78516, 200.35742, 205.63086, 210.93066, " y="872, ">
				QCode
		</text>
		<rect fill="white" x="192" y="813" width="36" height="16"/>
		<text font-size="12" font-weight="600" font-family="Segoe UI" x="192, 201.56836, 208.79297, " y="826, ">
				why
		</text>
		<rect fill="none" stroke="black" stroke-width="1" stroke-linecap="square" stroke-miterlimit="4" transform="translate(0.5 0.5)" x="183" y="811" width="51" height="20"/>
		<rect fill="silver" x="187" y="885" width="56" height="21"/>
		<rect fill="white" x="183" y="881" width="56" height="21"/>
		<rect fill="white" x="188" y="908" width="119" height="24"/>
		<text fill="gray" font-size="9" font-family="Segoe UI" x="188, 196.40674, 201.5, 205.85498, 208.32031, 211.37012, 216.46338, 221.16992, 223.63525, 231.38721, 236.09375, 239.14355, 243.72266, 249.02246, 253.60156, 256.65137, 261.23047, 263.6958, 268.78906, 273.36816, 277.18701, 279.65234, 284.94336, 289.6499, 294.35645, " y="918, ">
				Why the metadata has been
		</text>
		<text fill="gray" font-size="9" font-family="Segoe UI" x="188, 190.17969, 195.27295, 199.43018, 201.60986, 206.70312, 212.00293, 216.70947, 222.00928, 224.47461, 228.07373, 230.53906, 235.24561, 239.37646, 244.66748, 247.79639, 252.50293, 256.32178, 260.14062, 264.84717, 270.14697, 272.6123, 277.90332, 282.2583, 284.72363, 289.30273, 291.76807, 297.95117, 303.33447, " y="930, ">
				included - expressed by a URI
		</text>
		<rect fill="white" x="192" y="883" width="40" height="16"/>
		<text font-size="12" font-weight="600" font-family="Segoe UI" x="192, 201.56836, 208.79297, 215.25, 222.50977, 227.33203, " y="896, ">
				whyuri
		</text>
		<rect fill="none" stroke="black" stroke-width="1" stroke-linecap="square" stroke-miterlimit="4" transform="translate(0.5 0.5)" x="183" y="881" width="55" height="20"/>
		<rect fill="silver" x="187" y="943" width="97" height="21"/>
		<rect fill="white" x="183" y="939" width="97" height="21"/>
		<rect fill="white" x="188" y="966" width="117" height="72"/>
		<text fill="gray" font-size="9" font-family="Segoe UI" x="188, 194.78516, 199.87842, 204.58496, 207.05029, 212.32373, 215.45264, 217.91797, 225.66992, 230.24902, 235.34229, 239.69727, 242.1626, 246.31982, 251.59326, 256.68652, 260.50537, 263.55518, 266.68408, 271.26318, 273.44287, 278.53613, 281.58594, 285.40479, 287.87012, 290.91992, 296.01318, 300.59229, " y="976, ">
				One or many constraints that
		</text>
		<text fill="gray" font-size="9" font-family="Segoe UI" x="188, 192.5791, 197.87012, 203.16113, 205.34082, 209.6958, 212.16113, 215.21094, 220.48438, 222.94971, 228.24072, 233.33398, 238.625, 240.80469, 242.98438, 246.80322, 251.89648, 254.07617, 259.16943, 264.46924, 266.93457, 269.98438, 275.07764, 279.78418, 282.24951, 286.56055, 291.13965, 293.31934, 298.4126, " y="988, ">
				apply to publishing the value
		</text>
		<text fill="gray" font-size="9" font-family="Segoe UI" x="188, 193.27344, 196.09033, 198.55566, 201.60547, 206.69873, 211.40527, 213.87061, 219.16162, 222.29053, 227.56396, 232.85498, 237.56152, 240.69043, 243.74023, 248.09521, 250.56055, 254.15967, 256.625, 261.33154, 265.4624, 270.75342, 273.88232, 278.58887, 282.40771, 286.22656, 290.93311, " y="1000, ">
				of the property - expressed
		</text>
		<text fill="gray" font-size="9" font-family="Segoe UI" x="188, 193.29102, 197.646, 200.11133, 204.69043, 207.15576, 213.94092, 219.51318, 224.78662, 230.08643, 234.79297, 236.74414, 239.20947, 243.76221, 248.34131, 252.49854, 257.5918, 260.05713, 264.21436, 269.48779, 274.58105, 278.3999, 281.44971, 284.57861, 289.15771, 291.3374, 296.43066, " y="1012, ">
				by a QCode. Each constraint
		</text>
		<text fill="gray" font-size="9" font-family="Segoe UI" x="188, 192.5791, 197.87012, 203.16113, 205.34082, 207.52051, 212.22705, 216.0459, 218.51123, 221.56104, 226.83447, 229.2998, 233.87891, 236.05859, 238.23828, 240.70361, 246.00342, 250.70996, 254.52881, 258.68604, 263.39258, 268.48584, 273.78564, 278.36475, 283.45801, " y="1024, ">
				applies to all descendant
		</text>
		<text fill="gray" font-size="9" font-family="Segoe UI" x="188, 192.70654, 194.88623, 199.59277, 207.34473, 212.05127, 217.14453, 220.19434, 224.01318, " y="1036, ">
				elements.
		</text>
		<rect fill="white" x="192" y="941" width="81" height="16"/>
		<text font-size="12" font-weight="600" font-family="Segoe UI" x="192, 199.44141, 206.70117, 214.14258, 219.90234, 227.23828, 234.49805, 239.77734, 244.44727, 249.22266, 255.67969, 259.08984, 266.34961, " y="954, ">
				pubconstraint
		</text>
		<rect fill="none" stroke="black" stroke-width="1" stroke-linecap="square" stroke-miterlimit="4" transform="translate(0.5 0.5)" x="183" y="939" width="96" height="20"/>
		<rect fill="silver" x="187" y="1049" width="112" height="21"/>
		<rect fill="white" x="183" y="1045" width="112" height="21"/>
		<rect fill="white" x="188" y="1072" width="117" height="72"/>
		<text fill="gray" font-size="9" font-family="Segoe UI" x="188, 194.78516, 199.87842, 204.58496, 207.05029, 212.32373, 215.45264, 217.91797, 225.66992, 230.24902, 235.34229, 239.69727, 242.1626, 246.31982, 251.59326, 256.68652, 260.50537, 263.55518, 266.68408, 271.26318, 273.44287, 278.53613, 281.58594, 285.40479, 287.87012, 290.91992, 296.01318, 300.59229, " y="1082, ">
				One or many constraints that
		</text>
		<text fill="gray" font-size="9" font-family="Segoe UI" x="188, 192.5791, 197.87012, 203.16113, 205.34082, 209.6958, 212.16113, 215.21094, 220.48438, 222.94971, 228.24072, 233.33398, 238.625, 240.80469, 242.98438, 246.80322, 251.89648, 254.07617, 259.16943, 264.46924, 266.93457, 269.98438, 275.07764, 279.78418, 282.24951, 286.56055, 291.13965, 293.31934, 298.4126, " y="1094, ">
				apply to publishing the value
		</text>
		<text fill="gray" font-size="9" font-family="Segoe UI" x="188, 193.27344, 196.09033, 198.55566, 201.60547, 206.69873, 211.40527, 213.87061, 219.16162, 222.29053, 227.56396, 232.85498, 237.56152, 240.69043, 243.74023, 248.09521, 250.56055, 254.15967, 256.625, 261.33154, 265.4624, 270.75342, 273.88232, 278.58887, 282.40771, 286.22656, 290.93311, " y="1106, ">
				of the property - expressed
		</text>
		<text fill="gray" font-size="9" font-family="Segoe UI" x="188, 193.29102, 197.646, 200.11133, 204.69043, 207.15576, 213.33887, 218.72217, 221.11719, 223.06836, 225.53369, 230.08643, 234.66553, 238.82275, 243.91602, 246.38135, 250.53857, 255.81201, 260.90527, 264.72412, 267.77393, 270.90283, 275.48193, 277.66162, 282.75488, " y="1118, ">
				by a URI. Each constraint
		</text>
		<text fill="gray" font-size="9" font-family="Segoe UI" x="188, 192.5791, 197.87012, 203.16113, 205.34082, 207.52051, 212.22705, 216.0459, 218.51123, 221.56104, 226.83447, 229.2998, 233.87891, 236.05859, 238.23828, 240.70361, 246.00342, 250.70996, 254.52881, 258.68604, 263.39258, 268.48584, 273.78564, 278.36475, 283.45801, " y="1130, ">
				applies to all descendant
		</text>
		<text fill="gray" font-size="9" font-family="Segoe UI" x="188, 192.70654, 194.88623, 199.59277, 207.34473, 212.05127, 217.14453, 220.19434, 224.01318, " y="1142, ">
				elements.
		</text>
		<rect fill="white" x="192" y="1047" width="96" height="16"/>
		<text font-size="12" font-weight="600" font-family="Segoe UI" x="192, 199.44141, 206.70117, 214.14258, 219.90234, 227.23828, 234.49805, 239.77734, 244.44727, 249.22266, 255.67969, 259.08984, 266.34961, 271.01953, 278.2793, 283.10156, " y="1060, ">
				pubconstrainturi
		</text>
		<rect fill="none" stroke="black" stroke-width="1" stroke-linecap="square" stroke-miterlimit="4" transform="translate(0.5 0.5)" x="183" y="1045" width="111" height="20"/>
		<rect fill="silver" x="179" y="1212" width="53" height="21"/>
		<rect fill="white" x="175" y="1208" width="53" height="21"/>
		<rect fill="white" x="180" y="1235" width="115" height="24"/>
		<text fill="gray" font-size="9" font-family="Segoe UI" x="180, 182.39502, 187.69482, 192.40137, 197.49463, 200.54443, 202.72412, 205.54102, 207.7207, 212.42725, 215.55615, 218.02148, 220.83838, 226.11182, 229.24072, 231.70605, 234.75586, 239.84912, 244.55566, 247.021, 252.11426, 255.93311, 260.63965, 265.93945, 268.40479, 273.78809, 275.96777, 281.26758, 286.36084, 289.41064, " y="1245, ">
				Identifier for the used Rights
		</text>
		<text fill="gray" font-size="9" font-family="Segoe UI" x="180, 184.55273, 188.68359, 193.97461, 197.10352, 201.81006, 205.62891, 209.44775, 211.62744, 216.90088, 221.99414, 224.45947, 228.6958, 233.2749, 238.36816, 243.66797, 248.76123, 253.34033, 258.64014, " y="1257, ">
				Expression Language
		</text>
		<rect fill="white" x="184" y="1210" width="37" height="16"/>
		<text font-size="12" font-weight="600" font-family="Segoe UI" x="184, 187.41016, 193.86719, 201.12695, 208.55664, 211.9668, " y="1223, ">
				langid
		</text>
		<rect fill="none" stroke="black" stroke-width="1" stroke-linecap="square" stroke-miterlimit="4" transform="translate(0.5 0.5)" x="175" y="1208" width="52" height="20"/>
		<rect fill="silver" x="179" y="1270" width="62" height="21"/>
		<rect fill="white" x="175" y="1266" width="62" height="21"/>
		<rect fill="white" x="180" y="1293" width="115" height="36"/>
		<text fill="gray" font-size="9" font-family="Segoe UI" x="180, 182.39502, 187.69482, 192.40137, 197.49463, 200.54443, 202.72412, 205.54102, 207.7207, 212.42725, 215.55615, 218.02148, 223.29492, 226.11182, 228.57715, 231.62695, 236.72021, 241.42676, 243.89209, 248.98535, 252.8042, 257.51074, 262.81055, 265.27588, 268.32568, 272.68066, 277.97168, 282.67822, 285.14355, 290.41699, " y="1303, ">
				Identifier of the used type of
		</text>
		<text fill="gray" font-size="9" font-family="Segoe UI" x="180, 184.70654, 189.7998, 193.95703, 199.23047, 204.53027, 206.70996, 211.80322, 217.10303, 219.0542, 221.51953, 226.81055, 229.93945, 234.646, 237.46289, 242.16943, 245.29834, 250.00488, 255.30469, 257.77002, 262.34912, 265.47803, 270.18457, 272.6499, 275.04492, 280.8501, 287.58252, " y="1315, ">
				encoding, prefered are IANA
		</text>
		<text fill="gray" font-size="9" font-family="Segoe UI" x="180, 188.08154, 192.78809, 198.08789, 200.26758, 204.84668, 207.31201, 211.53076, 215.88574, 221.17676, 225.8833, 228.34863, 230.52832, 235.82812, 240.53467, 245.62793, 248.67773, 250.85742, 253.67432, 255.854, 260.56055, 263.68945, 267.5083, " y="1327, ">
				Media Type identifiers.
		</text>
		<rect fill="white" x="184" y="1268" width="46" height="16"/>
		<text font-size="12" font-weight="600" font-family="Segoe UI" x="184, 190.49219, 197.75195, 203.51172, 208.18164, 214.63867, 222.08008, " y="1281, ">
				enctype
		</text>
		<rect fill="none" stroke="black" stroke-width="1" stroke-linecap="square" stroke-miterlimit="4" transform="translate(0.5 0.5)" x="175" y="1266" width="61" height="20"/>
		<rect x="166" y="5" width="11" height="11"/>
		<rect fill="white" x="167" y="6" width="9" height="9"/>
		<rect x="168" y="10" width="7" height="1"/>
		<rect x="136" y="663" width="11" height="11"/>
		<rect fill="white" x="137" y="664" width="9" height="9"/>
		<rect x="138" y="668" width="7" height="1"/>
	</g>
</svg>
