<?xml version="1.0" encoding="utf-8" ?>
<svg xmlns="http://www.w3.org/2000/svg" xmlns:xlink="http://www.w3.org/1999/xlink" width="374" height="1520">
	<clipPath id="cl_6f2">
		<rect x="-10" y="-5" width="374" height="1520"/>
	</clipPath>
	<g clip-path="url(#cl_6f2)">
		<path fill="none" stroke="black" stroke-width="1" stroke-linecap="square" stroke-miterlimit="4" transform="translate(0.5 0.5)" d="M113 755L139 755"/>
		<rect fill="silver" x="4" y="749" width="108" height="21"/>
		<rect fill="white" y="745" width="108" height="21"/>
		<rect fill="white" x="5" y="772" width="120" height="36"/>
		<text fill="gray" font-size="9" font-family="Segoe UI" x="5, 10.119629, 14.826172, 17.643066, 19.822754, 24.529297, 28.686523, 31.736328, 35.555176, 38.020508, 42.599609, 45.064941, 48.883789, 54.174805, 58.881348, 63.038574, 65.218262, 68.035156, 70.214844, 74.37207, 76.837402, 81.311035, 83.490723, 88.583984, 93.883789, 96.349121, 101.62256, 104.43945, 106.90479, 111.99805, 115.81689, 120.52344, " y="782, ">
				Reflects a specific kind of user
		</text>
		<text fill="gray" font-size="9" font-family="Segoe UI" x="5, 7.1796875, 12.272949, 15.322754, 20.029297, 23.158203, 27.737305, 31.894531, 34.944336, 37.124023, 42.397461, 47.490723, 49.956055, 56.459961, 58.639648, 61.689453, 66.782715, 69.248047, 72.297852, 77.391113, 82.097656, 84.562988, 88.720215, 93.993652, 99.086914, 102.13672, 106.84326, 111.93652, " y="794, ">
				interaction with the content
		</text>
		<text fill="gray" font-size="9" font-family="Segoe UI" x="5, 10.273438, 13.090332, 15.555664, 18.605469, 23.69873, 25.878418, 29.697266, 32.162598, 34.342285, 37.39209, 42.098633, 49.850586, " y="806, ">
				of this item.
		</text>
		<rect fill="white" x="9" y="747" width="87" height="16"/>
		<text font-size="12" font-weight="600" font-family="Segoe UI" x="9, 16.259766, 21.539062, 28.03125, 32.806641, 36.609375, 43.869141, 48.492188, 54.984375, 59.759766, 66.216797, 71.976562, 76.646484, 80.056641, 87.392578, " y="760, ">
				userInteraction
		</text>
		<rect fill="none" stroke="black" stroke-width="1" stroke-linecap="square" stroke-miterlimit="4" transform="translate(0.5 0.5)" y="745" width="107" height="20"/>
		<path fill="white" d="M217 19L217 0L140 0L140 19L140 1509L353 1509L353 19L217 19Z"/>
		<rect fill="white" x="160" y="2" width="51" height="16"/>
		<text font-size="12" font-style="italic" font-family="Segoe UI" x="160, 166.50391, 170.38281, 174.26172, 178.5332, 181.63867, 188.14258, 194.83984, 198.73047, 204.57227, " y="15, ">
				attributes
		</text>
		<path fill="none" stroke="black" stroke-width="1" stroke-linecap="square" stroke-miterlimit="4" transform="translate(0.5 0.5)" d="M217 19L217 0L140 0L140 19L140 1509L353 1509L353 19L217 19Z"/>
		<path fill="white" d="M345 47L345 28L154 28L154 47L154 1150L345 1150L345 47Z"/>
		<rect fill="white" x="159" y="1153" width="179" height="48"/>
		<text fill="gray" font-size="9" font-family="Segoe UI" x="159, 164.80518, 167.27051, 172.57031, 175.69922, 180.97266, 186.06592, 191.35693, 193.82227, 199.0957, 201.9126, 204.37793, 208.95703, 212.00684, 215.05664, 218.18555, 220.36523, 225.65625, 230.74951, 233.79932, 238.50586, 242.32471, 244.79004, 247.60693, 252.88037, 256.00928, 258.47461, 263.05371, 265.2334, 267.41309, 269.87842, 274.58496, 276.76465, 281.47119, 289.22314, 293.92969, 299.02295, 302.07275, 305.8916, 308.35693, 313.63037, 316.44727, 318.9126, 323.4917, 325.95703, 332.13135, " y="1163, ">
				A group of attributes for all elements of a G2
		</text>
		<text fill="gray" font-size="9" font-family="Segoe UI" x="159, 161.39502, 164.44482, 169.15137, 176.90332, 179.36865, 184.0752, 188.20605, 192.36328, 197.06982, 202.36084, 205.41064, 207.87598, 210.05566, 213.10547, 216.92432, 219.38965, 222.51855, 227.79199, 233.06543, 236.11523, 238.58057, 243.28711, 245.4668, 250.17334, 257.92529, 262.63184, 267.7251, 270.7749, 272.72607, 275.19141, 278.24121, 283.33447, 288.04102, 290.50635, 292.68604, 295.73584, 300.44238, 308.19434, 316.27588, 320.98242, 324.03223, " y="1175, ">
				Item except its root element, the itemMeta
		</text>
		<text fill="gray" font-size="9" font-family="Segoe UI" x="159, 163.70654, 165.88623, 170.59277, 178.34473, 183.05127, 188.14453, 191.19434, 193.65967, 198.23877, 203.33203, 208.63184, 211.09717, 215.67627, 217.85596, 220.03564, 222.50098, 227.77441, 230.59131, 233.05664, 235.23633, 238.28613, 242.10498, 244.57031, 248.72754, 253.8208, 256.00049, 258.18018, 263.47998, 266.60889, 271.31543, 276.40869, 278.87402, 285.37793, 290.47119, 292.65088, 296.80811, 301.90137, 304.3667, 308.9458, 312.07471, " y="1187, ">
				element and all of its children which are
		</text>
		<text fill="gray" font-size="9" font-family="Segoe UI" x="159, 166.75195, 171.33105, 176.42432, 181.72412, 186.30322, 189.35303, 194.62646, 197.75537, 202.11035, " y="1199, ">
				mandatory.
		</text>
		<rect fill="white" x="196" y="30" width="143" height="16"/>
		<text font-size="12" font-weight="600" font-family="Segoe UI" x="196, 201.75977, 209.0957, 220.08789, 231.08008, 238.41602, 245.67578, 252.68945, 260.02539, 269.53516, 276.02734, 280.80273, 289, 293.66992, 298.33984, 303.16211, 306.57227, 314.01367, 321.27344, 325.89648, 332.38867, " y="43, ">
				commonPowerAttributes
		</text>
		<rect fill="white" x="174" y="30" width="20" height="16"/>
		<text fill="gray" font-size="12" font-family="Segoe UI" x="174, 181.06641, 185.23828, " y="43, ">
				grp
		</text>
		<path fill="none" stroke="gray" stroke-width="1" stroke-linecap="square" stroke-miterlimit="4" transform="translate(0.5 0.5)" d="M154 47L154 1150L345 1150L345 47L345 47"/>
		<path fill="none" stroke="black" stroke-width="1" stroke-linecap="square" stroke-miterlimit="4" transform="translate(0.5 0.5)" d="M345 47L345 28L154 28L154 47"/>
		<rect x="159" y="33" width="11" height="11"/>
		<rect fill="white" x="160" y="34" width="9" height="9"/>
		<rect x="161" y="38" width="7" height="1"/>
		<rect fill="silver" x="166" y="61" width="52" height="21"/>
		<rect fill="white" x="162" y="57" width="52" height="21"/>
		<rect fill="white" x="167" y="84" width="101" height="24"/>
		<text fill="gray" font-size="9" font-family="Segoe UI" x="167, 171.71533, 176.80859, 181.51514, 183.98047, 186.16016, 191.43359, 195.59082, 200.16992, 202.34961, 204.81494, 206.99463, 212.29443, 217.00098, 222.09424, 225.14404, 227.32373, 230.14062, 232.32031, 237.02686, 240.15576, 242.62109, 247.89453, 250.71143, 253.17676, 256.22656, 261.31982, " y="94, ">
				The local identifier of the
		</text>
		<text fill="gray" font-size="9" font-family="Segoe UI" x="167, 172.29102, 175.41992, 180.69336, 185.98438, 190.69092, 193.81982, 196.86963, 201.22461, " y="106, ">
				property.
		</text>
		<rect fill="white" x="171" y="59" width="36" height="16"/>
		<text font-size="12" font-weight="600" font-family="Segoe UI" x="171, 174.41016, " y="72, ">
				id
		</text>
		<rect fill="none" stroke="black" stroke-width="1" stroke-linecap="square" stroke-miterlimit="4" transform="translate(0.5 0.5)" x="162" y="57" width="51" height="20"/>
		<rect fill="silver" x="166" y="119" width="58" height="21"/>
		<rect fill="white" x="162" y="115" width="58" height="21"/>
		<rect fill="white" x="167" y="142" width="121" height="120"/>
		<text fill="gray" font-size="9" font-family="Segoe UI" x="167, 169.39502, 172.21191, 174.67725, 177.72705, 182.82031, 187.52686, 189.99219, 195.2832, 198.41211, 203.68555, 208.97656, 213.68311, 216.81201, 219.86182, 224.2168, 226.68213, 230.99316, 235.57227, 237.75195, 242.84521, 247.55176, 250.01709, 252.19678, 256.01562, 258.48096, 263.57422, 268.84766, " y="152, ">
				If the property value is not
		</text>
		<text fill="gray" font-size="9" font-family="Segoe UI" x="167, 172.2998, 177.00635, 179.82324, 182.00293, 187.09619, 191.80273, 197.10254, 199.05371, 201.51904, 205.33789, 210.62891, 215.33545, 219.49268, 221.67236, 224.48926, 226.66895, 231.37549, 235.19434, 237.65967, 244.16357, 249.25684, 251.43652, 255.59375, 260.68701, 263.15234, 267.85889, 272.95215, 276.00195, 278.18164, 281.23145, " y="164, ">
				defined, specifies which entity
		</text>
		<text fill="gray" font-size="9" font-family="Segoe UI" x="167, 169.71582, 175.00684, 179.71338, 182.84229, 186.66113, 191.93457, 197.02783, 198.979, 201.44434, 206.71777, 209.84668, 215.14648, 219.72559, 224.81885, 226.99854, 230.81738, 235.39648, 238.44629, 240.62598, 245.89941, 250.99268, 253.45801, 258.73145, " y="176, ">
				(person, organisation or
		</text>
		<text fill="gray" font-size="9" font-family="Segoe UI" x="167, 170.81885, 175.17383, 178.99268, 182.04248, 186.74902, 194.50098, 197.2168, 199.68213, 206.18604, 208.36572, 210.54541, 212.7251, 215.19043, 219.89697, 225.19678, 227.37646, 230.42627, 232.8916, 235.94141, 241.03467, 245.74121, 248.20654, 253.49756, 256.62646, 261.8999, 267.19092, 271.89746, 275.02637, 278.07617, " y="188, ">
				system) will edit the property
		</text>
		<text fill="gray" font-size="9" font-family="Segoe UI" x="167, 171.31104, 175.89014, 178.06982, 183.16309, 187.86963, 190.33496, 193.93408, 196.39941, 201.10596, 205.23682, 210.52783, 213.65674, 218.36328, 222.18213, 226.00098, 230.70752, 236.00732, 238.47266, 243.76367, 248.11865, 250.58398, 255.16309, 257.62842, 264.41357, 269.98584, 275.25928, 280.55908, 285.26562, " y="200, ">
				value - expressed by a QCode.
		</text>
		<text fill="gray" font-size="9" font-family="Segoe UI" x="167, 169.39502, 172.21191, 174.67725, 177.72705, 182.82031, 187.52686, 189.99219, 195.2832, 198.41211, 203.68555, 208.97656, 213.68311, 216.81201, 219.86182, 224.2168, 226.68213, 230.99316, 235.57227, 237.75195, 242.84521, 247.55176, 250.01709, 252.19678, " y="212, ">
				If the property value is
		</text>
		<text fill="gray" font-size="9" font-family="Segoe UI" x="167, 172.2998, 177.00635, 179.82324, 182.00293, 187.09619, 191.80273, 197.10254, 199.05371, 201.51904, 205.33789, 210.62891, 215.33545, 219.49268, 221.67236, 224.48926, 226.66895, 231.37549, 235.19434, 237.65967, 244.16357, 249.25684, 251.43652, 255.59375, 260.68701, 263.15234, 267.85889, 272.95215, 276.00195, 278.18164, 281.23145, " y="224, ">
				defined, specifies which entity
		</text>
		<text fill="gray" font-size="9" font-family="Segoe UI" x="167, 169.71582, 175.00684, 179.71338, 182.84229, 186.66113, 191.93457, 197.02783, 198.979, 201.44434, 206.71777, 209.84668, 215.14648, 219.72559, 224.81885, 226.99854, 230.81738, 235.39648, 238.44629, 240.62598, 245.89941, 250.99268, 253.45801, 258.73145, " y="236, ">
				(person, organisation or
		</text>
		<text fill="gray" font-size="9" font-family="Segoe UI" x="167, 170.81885, 175.17383, 178.99268, 182.04248, 186.74902, 194.50098, 197.2168, 199.68213, 204.77539, 209.35449, 213.17334, 215.63867, 220.34521, 225.64502, 227.82471, 230.87451, 235.58105, 240.88086, 243.34619, 246.396, 251.48926, " y="248, ">
				system) has edited the
		</text>
		<text fill="gray" font-size="9" font-family="Segoe UI" x="167, 172.29102, 175.41992, 180.69336, 185.98438, 190.69092, 193.81982, 196.86963, 201.22461, 203.68994, 208.00098, 212.58008, 214.75977, 219.85303, 224.55957, " y="260, ">
				property value.
		</text>
		<rect fill="white" x="171" y="117" width="42" height="16"/>
		<text font-size="12" font-weight="600" font-family="Segoe UI" x="171, 176.75977, 181.48828, 187.98047, 194.4375, 199.06055, 206.39648, " y="130, ">
				creator
		</text>
		<rect fill="none" stroke="black" stroke-width="1" stroke-linecap="square" stroke-miterlimit="4" transform="translate(0.5 0.5)" x="162" y="115" width="57" height="20"/>
		<rect fill="silver" x="166" y="273" width="73" height="21"/>
		<rect fill="white" x="162" y="269" width="73" height="21"/>
		<rect fill="white" x="167" y="296" width="120" height="108"/>
		<text fill="gray" font-size="9" font-family="Segoe UI" x="167, 169.39502, 172.21191, 174.67725, 177.72705, 182.82031, 187.52686, 189.99219, 195.2832, 198.41211, 203.68555, 208.97656, 213.68311, 216.81201, 219.86182, 224.2168, 226.68213, 230.99316, 235.57227, 237.75195, 242.84521, 247.55176, 250.01709, 252.19678, 256.01562, 258.48096, 263.57422, 268.84766, " y="306, ">
				If the property value is not
		</text>
		<text fill="gray" font-size="9" font-family="Segoe UI" x="167, 172.2998, 177.00635, 179.82324, 182.00293, 187.09619, 191.80273, 197.10254, 199.05371, 201.51904, 205.33789, 210.62891, 215.33545, 219.49268, 221.67236, 224.48926, 226.66895, 231.37549, 235.19434, 237.65967, 244.16357, 249.25684, 251.43652, 255.59375, 260.68701, 263.15234, 267.85889, 272.95215, 276.00195, 278.18164, 281.23145, " y="318, ">
				defined, specifies which entity
		</text>
		<text fill="gray" font-size="9" font-family="Segoe UI" x="167, 169.71582, 175.00684, 179.71338, 182.84229, 186.66113, 191.93457, 197.02783, 198.979, 201.44434, 206.71777, 209.84668, 215.14648, 219.72559, 224.81885, 226.99854, 230.81738, 235.39648, 238.44629, 240.62598, 245.89941, 250.99268, 253.45801, 258.73145, " y="330, ">
				(person, organisation or
		</text>
		<text fill="gray" font-size="9" font-family="Segoe UI" x="167, 170.81885, 175.17383, 178.99268, 182.04248, 186.74902, 194.50098, 197.2168, 199.68213, 206.18604, 208.36572, 210.54541, 212.7251, 215.19043, 219.89697, 225.19678, 227.37646, 230.42627, 232.8916, 235.94141, 241.03467, 245.74121, 248.20654, 253.49756, 256.62646, 261.8999, 267.19092, 271.89746, 275.02637, 278.07617, " y="342, ">
				system) will edit the property
		</text>
		<text fill="gray" font-size="9" font-family="Segoe UI" x="167, 170.59912, 173.06445, 177.771, 181.90186, 187.19287, 190.32178, 195.02832, 198.84717, 202.66602, 207.37256, 212.67236, 215.1377, 220.42871, 224.78369, 227.24902, 231.82812, 234.29346, 240.47656, 245.85986, 248.25488, 250.20605, 252.67139, 255.06641, 257.8833, 260.34863, 263.39844, 268.4917, " y="354, ">
				- expressed by a URI. If the
		</text>
		<text fill="gray" font-size="9" font-family="Segoe UI" x="167, 172.29102, 175.41992, 180.69336, 185.98438, 190.69092, 193.81982, 196.86963, 201.22461, 203.68994, 208.00098, 212.58008, 214.75977, 219.85303, 224.55957, 227.0249, 229.20459, 233.02344, 235.48877, 240.78857, 245.49512, 248.31201, 250.4917, 255.58496, 260.2915, 265.59131, " y="366, ">
				property value is defined,
		</text>
		<text fill="gray" font-size="9" font-family="Segoe UI" x="167, 170.81885, 176.10986, 180.81641, 184.97363, 187.15332, 189.97021, 192.1499, 196.85645, 200.67529, 203.14062, 209.64453, 214.73779, 216.91748, 221.07471, 226.16797, 228.6333, 233.33984, 238.43311, 241.48291, 243.6626, 246.7124, 251.06738, 253.53271, 256.24854, 261.53955, 266.24609, 269.375, 273.19385, 278.46729, 283.56055, " y="378, ">
				specifies which entity (person,
		</text>
		<text fill="gray" font-size="9" font-family="Segoe UI" x="167, 172.27344, 175.40234, 180.70215, 185.28125, 190.37451, 192.5542, 196.37305, 200.95215, 204.00195, 206.18164, 211.45508, 216.54834, 219.01367, 224.28711, 227.41602, 229.88135, 233.7002, 238.05518, 241.87402, 244.92383, 249.63037, 257.38232, 260.09814, 262.56348, 267.65674, 272.23584, " y="390, ">
				organisation or system) has
		</text>
		<text fill="gray" font-size="9" font-family="Segoe UI" x="167, 171.70654, 177.00635, 179.18604, 182.23584, 186.94238, 192.24219, 194.70752, 197.75732, 202.85059, 207.55713, 210.02246, 215.31348, 218.44238, 223.71582, 229.00684, 233.71338, 236.84229, 239.89209, 244.24707, " y="402, ">
				edited the property.
		</text>
		<rect fill="white" x="171" y="271" width="57" height="16"/>
		<text font-size="12" font-weight="600" font-family="Segoe UI" x="171, 176.75977, 181.48828, 187.98047, 194.4375, 199.06055, 206.39648, 211.20703, 218.4668, 223.28906, " y="284, ">
				creatoruri
		</text>
		<rect fill="none" stroke="black" stroke-width="1" stroke-linecap="square" stroke-miterlimit="4" transform="translate(0.5 0.5)" x="162" y="269" width="72" height="20"/>
		<rect fill="silver" x="166" y="415" width="69" height="21"/>
		<rect fill="white" x="162" y="411" width="69" height="21"/>
		<rect fill="white" x="167" y="438" width="119" height="72"/>
		<text fill="gray" font-size="9" font-family="Segoe UI" x="167, 171.71533, 176.80859, 181.51514, 183.98047, 189.28027, 193.85938, 196.90918, 201.61572, 204.08105, 206.79688, 211.37598, 216.46924, 221.76904, 223.72021, 226.18555, 231.45898, 236.75, 239.7998, 241.97949, 247.25293, 252.34619, 256.92529, 259.10498, 261.28467, 265.63965, 267.59082, 270.05615, 273.10596, 278.19922, " y="448, ">
				The date (and, optionally, the
		</text>
		<text fill="gray" font-size="9" font-family="Segoe UI" x="167, 170.0498, 172.22949, 179.98145, 184.68799, 187.40381, 189.86914, 196.37305, 201.46631, 206.17285, 211.26611, 213.73145, 216.78125, 221.87451, 226.58105, 229.04639, 234.3374, 237.46631, 242.73975, 248.03076, 252.7373, 255.86621, 258.91602, 263.271, 265.73633, 272.24023, 276.81934, " y="460, ">
				time) when the property was
		</text>
		<text fill="gray" font-size="9" font-family="Segoe UI" x="167, 169.17969, 173.75879, 177.57764, 180.62744, 183.09277, 190.84473, 196.11816, 201.41797, 203.59766, 206.41455, 208.59424, 213.30078, 218.60059, 220.55176, 223.01709, 227.73242, 232.82568, 237.53223, 239.99756, 242.17725, 247.27051, 249.4502, 252.5, 254.67969, 259.25879, 261.43848, 263.90381, 268.21484, 272.79395, 274.97363, 280.06689, " y="472, ">
				last modified. The initial value
		</text>
		<text fill="gray" font-size="9" font-family="Segoe UI" x="167, 169.17969, 172.99854, 175.46387, 178.51367, 183.60693, 188.31348, 190.77881, 196.07861, 200.65771, 203.70752, 208.41406, 210.87939, 213.59521, 218.17432, 223.26758, 228.56738, 230.51855, 232.98389, 238.25732, 243.54834, 246.59814, 248.77783, 254.05127, 259.14453, 263.72363, 265.90332, 268.08301, 272.43799, " y="484, ">
				is the date (and, optionally,
		</text>
		<text fill="gray" font-size="9" font-family="Segoe UI" x="167, 170.0498, 175.14307, 179.84961, 182.31494, 185.36475, 187.54443, 195.29639, 200.00293, 202.71875, 205.18408, 210.45752, 213.27441, 215.73975, 219.89697, 223.02588, 227.73242, 232.31152, 235.36133, 237.54102, 242.81445, 247.90771, 250.37305, 255.64648, 258.46338, 260.92871, 263.97852, 269.07178, " y="496, ">
				the time) of creation of the
		</text>
		<text fill="gray" font-size="9" font-family="Segoe UI" x="167, 172.29102, 175.41992, 180.69336, 185.98438, 190.69092, 193.81982, 196.86963, 201.22461, " y="508, ">
				property.
		</text>
		<rect fill="white" x="171" y="413" width="53" height="16"/>
		<text font-size="12" font-weight="600" font-family="Segoe UI" x="171, 181.99219, 189.32812, 196.75781, 200.16797, 204.76758, 208.17773, 214.66992, " y="426, ">
				modified
		</text>
		<rect fill="none" stroke="black" stroke-width="1" stroke-linecap="square" stroke-miterlimit="4" transform="translate(0.5 0.5)" x="162" y="411" width="68" height="20"/>
		<rect fill="silver" x="166" y="521" width="59" height="21"/>
		<rect fill="white" x="162" y="517" width="59" height="21"/>
		<rect fill="white" x="167" y="544" width="118" height="108"/>
		<text fill="gray" font-size="9" font-family="Segoe UI" x="167, 169.39502, 172.21191, 174.67725, 178.49609, 183.20264, 186.25244, 188.71777, 191.76758, 197.04102, 199.50635, 202.55615, 205.68506, 210.77832, 215.48486, 217.9502, 221, 226.09326, " y="554, ">
				If set to true the
		</text>
		<text fill="gray" font-size="9" font-family="Segoe UI" x="167, 171.15723, 176.43066, 179.55957, 182.68848, 187.39502, 191.21387, 196.50488, 201.77832, 206.87158, 212.17139, 214.35107, 219.44434, 224.74414, 227.20947, 232.50049, 235.62939, 240.90283, 246.19385, 250.90039, 254.0293, 257.0791, 261.43408, 263.89941, 270.40332, 274.98242, " y="566, ">
				corresponding property was
		</text>
		<text fill="gray" font-size="9" font-family="Segoe UI" x="167, 171.5791, 176.87891, 182.17871, 186.88525, 192.18506, 194.65039, 197.7002, 202.97363, 205.43896, 208.48877, 213.58203, 218.28857, 220.75391, 226.92822, 231.77979, 234.24512, 236.64014, 239.68994, 244.39648, 252.14844, 254.61377, 257.43066, 262.7041, 265.83301, 268.29834, " y="578, ">
				added to the G2 Item for a
		</text>
		<text fill="gray" font-size="9" font-family="Segoe UI" x="167, 170.81885, 176.10986, 180.81641, 184.97363, 187.15332, 189.97021, 192.1499, 196.30713, 198.77246, 202.92969, 208.02295, 211.8418, 214.8916, 220.16504, 227.91699, 232.62354, 235.75244, 238.21777, 243.49121, 246.62012, 249.08545, 254.38525, 257.51416, 262.7876, 267.88086, 273.17188, 275.63721, 280.91064, " y="590, ">
				specific customer or group of
		</text>
		<text fill="gray" font-size="9" font-family="Segoe UI" x="167, 171.15723, 176.25049, 180.06934, 183.11914, 188.39258, 196.14453, 200.85107, 203.97998, 207.79883, 210.26416, 215.5376, 220.63086, 222.81055, 227.16553, 229.1167, 231.58203, 236.29736, 241.39062, 246.09717, 248.5625, 253.8623, 258.56885, 261.38574, 265.96484, 271.05811, 273.23779, " y="602, ">
				customers only. The default
		</text>
		<text fill="gray" font-size="9" font-family="Segoe UI" x="167, 171.31104, 175.89014, 178.06982, 183.16309, 187.86963, 190.33496, 195.6084, 198.42529, 200.89062, 203.94043, 209.03369, 211.21338, 215.03223, 217.49756, 222.78857, 225.91748, 231.19092, 236.48193, 241.18848, 244.31738, 247.36719, 251.72217, 254.1875, 256.36719, 260.18604, 262.65137, 265.46826, 270.04736, 272.22705, 276.0459, " y="614, ">
				value of this property is false
		</text>
		<text fill="gray" font-size="9" font-family="Segoe UI" x="167, 173.50391, 178.59717, 180.77686, 184.93408, 190.02734, 192.49268, 197.07178, 202.36279, 207.65381, 209.8335, 212.01318, 216.71973, 220.53857, 223.00391, 229.50781, 234.60107, 239.30762, 244.40088, 246.86621, 249.91602, 255.00928, 257.18896, " y="626, ">
				which applies when this
		</text>
		<text fill="gray" font-size="9" font-family="Segoe UI" x="167, 171.5791, 174.62891, 177.67871, 180.80762, 182.9873, 188.27832, 193.37158, 196.42139, 201.12793, 203.59326, 205.77295, 209.5918, 212.05713, 217.15039, 222.42383, 225.47363, 227.93896, 233.03223, 236.85107, 241.55762, 246.85742, 249.32275, 255.82666, 258.00635, 261.05615, 266.14941, 268.61475, 271.66455, 276.75781, " y="638, ">
				attribute is not used with the
		</text>
		<text fill="gray" font-size="9" font-family="Segoe UI" x="167, 172.29102, 175.41992, 180.69336, 185.98438, 190.69092, 193.81982, 196.86963, 201.22461, " y="650, ">
				property.
		</text>
		<rect fill="white" x="171" y="519" width="43" height="16"/>
		<text font-size="12" font-weight="600" font-family="Segoe UI" x="171, 176.75977, 184.01953, 189.29883, 193.92188, 201.25781, " y="532, ">
				custom
		</text>
		<rect fill="none" stroke="black" stroke-width="1" stroke-linecap="square" stroke-miterlimit="4" transform="translate(0.5 0.5)" x="162" y="517" width="58" height="20"/>
		<rect fill="silver" x="166" y="663" width="52" height="21"/>
		<rect fill="white" x="162" y="659" width="52" height="21"/>
		<rect fill="white" x="167" y="686" width="118" height="48"/>
		<text fill="gray" font-size="9" font-family="Segoe UI" x="167, 169.39502, 174.48828, 179.78809, 181.96777, 186.125, 190.7041, 193.75391, 198.46045, 202.2793, 204.74463, 210.03564, 214.39062, 216.85596, 223.35986, 228.45312, 230.63281, 234.79004, 239.8833, 242.34863, 250.10059, 254.80713, 259.38623, 264.47949, 268.29834, 270.76367, 273.81348, 278.90674, " y="696, ">
				Indicates by which means the
		</text>
		<text fill="gray" font-size="9" font-family="Segoe UI" x="167, 171.31104, 175.89014, 178.06982, 183.16309, 187.86963, 190.33496, 196.83887, 201.41797, 205.23682, 207.70215, 212.40869, 216.53955, 219.58936, 222.71826, 227.29736, 231.45459, 234.50439, 239.21094, 244.51074, 246.97607, 249.79297, 252.92188, 258.19531, 265.94727, 268.4126, 271.4624, 276.55566, " y="708, ">
				value was extracted from the
		</text>
		<text fill="gray" font-size="9" font-family="Segoe UI" x="167, 171.15723, 176.43066, 181.52393, 184.57373, 189.28027, 194.37354, 197.42334, 199.88867, 203.48779, 205.95312, 210.65967, 214.79053, 220.08154, 223.21045, 227.91699, 231.73584, 235.55469, 240.26123, 245.56104, 248.02637, 253.31738, 257.67236, 260.1377, " y="720, ">
				content - expressed by a
		</text>
		<text fill="gray" font-size="9" font-family="Segoe UI" x="167, 173.78516, 179.35742, 184.63086, 189.93066, " y="732, ">
				QCode
		</text>
		<rect fill="white" x="171" y="661" width="36" height="16"/>
		<text font-size="12" font-weight="600" font-family="Segoe UI" x="171, 178.22461, 185.56055, " y="674, ">
				how
		</text>
		<rect fill="none" stroke="black" stroke-width="1" stroke-linecap="square" stroke-miterlimit="4" transform="translate(0.5 0.5)" x="162" y="659" width="51" height="20"/>
		<rect fill="silver" x="166" y="745" width="57" height="21"/>
		<rect fill="white" x="162" y="741" width="57" height="21"/>
		<rect fill="white" x="167" y="768" width="118" height="36"/>
		<text fill="gray" font-size="9" font-family="Segoe UI" x="167, 169.39502, 174.48828, 179.78809, 181.96777, 186.125, 190.7041, 193.75391, 198.46045, 202.2793, 204.74463, 210.03564, 214.39062, 216.85596, 223.35986, 228.45312, 230.63281, 234.79004, 239.8833, 242.34863, 250.10059, 254.80713, 259.38623, 264.47949, 268.29834, 270.76367, 273.81348, 278.90674, " y="778, ">
				Indicates by which means the
		</text>
		<text fill="gray" font-size="9" font-family="Segoe UI" x="167, 171.31104, 175.89014, 178.06982, 183.16309, 187.86963, 190.33496, 196.83887, 201.41797, 205.23682, 207.70215, 212.40869, 216.53955, 219.58936, 222.71826, 227.29736, 231.45459, 234.50439, 239.21094, 244.51074, 246.97607, 249.79297, 252.92188, 258.19531, 265.94727, 268.4126, 271.4624, 276.55566, " y="790, ">
				value was extracted from the
		</text>
		<text fill="gray" font-size="9" font-family="Segoe UI" x="167, 171.15723, 176.43066, 181.52393, 184.57373, 189.28027, 194.37354, 197.42334, 199.88867, 203.48779, 205.95312, 210.65967, 214.79053, 220.08154, 223.21045, 227.91699, 231.73584, 235.55469, 240.26123, 245.56104, 248.02637, 253.31738, 257.67236, 260.1377, 264.7168, 267.18213, 273.36523, 278.74854, " y="802, ">
				content - expressed by a URI
		</text>
		<rect fill="white" x="171" y="743" width="41" height="16"/>
		<text font-size="12" font-weight="600" font-family="Segoe UI" x="171, 178.22461, 185.56055, 195.12891, 202.38867, 207.21094, " y="756, ">
				howuri
		</text>
		<rect fill="none" stroke="black" stroke-width="1" stroke-linecap="square" stroke-miterlimit="4" transform="translate(0.5 0.5)" x="162" y="741" width="56" height="20"/>
		<rect fill="silver" x="166" y="815" width="52" height="21"/>
		<rect fill="white" x="162" y="811" width="52" height="21"/>
		<rect fill="white" x="167" y="838" width="113" height="36"/>
		<text fill="gray" font-size="9" font-family="Segoe UI" x="167, 175.40674, 180.5, 184.85498, 187.32031, 190.37012, 195.46338, 200.16992, 202.63525, 210.38721, 215.09375, 218.14355, 222.72266, 228.02246, 232.60156, 235.65137, 240.23047, 242.6958, 247.78906, 252.36816, 256.18701, 258.65234, 263.94336, 268.6499, 273.35645, " y="848, ">
				Why the metadata has been
		</text>
		<text fill="gray" font-size="9" font-family="Segoe UI" x="167, 169.17969, 174.27295, 178.43018, 180.60986, 185.70312, 191.00293, 195.70947, 201.00928, 203.47461, 207.07373, 209.53906, 214.24561, 218.37646, 223.66748, 226.79639, 231.50293, 235.32178, 239.14062, 243.84717, 249.14697, 251.6123, 256.90332, 261.2583, 263.72363, " y="860, ">
				included - expressed by a
		</text>
		<text fill="gray" font-size="9" font-family="Segoe UI" x="167, 173.78516, 179.35742, 184.63086, 189.93066, " y="872, ">
				QCode
		</text>
		<rect fill="white" x="171" y="813" width="36" height="16"/>
		<text font-size="12" font-weight="600" font-family="Segoe UI" x="171, 180.56836, 187.79297, " y="826, ">
				why
		</text>
		<rect fill="none" stroke="black" stroke-width="1" stroke-linecap="square" stroke-miterlimit="4" transform="translate(0.5 0.5)" x="162" y="811" width="51" height="20"/>
		<rect fill="silver" x="166" y="885" width="56" height="21"/>
		<rect fill="white" x="162" y="881" width="56" height="21"/>
		<rect fill="white" x="167" y="908" width="119" height="24"/>
		<text fill="gray" font-size="9" font-family="Segoe UI" x="167, 175.40674, 180.5, 184.85498, 187.32031, 190.37012, 195.46338, 200.16992, 202.63525, 210.38721, 215.09375, 218.14355, 222.72266, 228.02246, 232.60156, 235.65137, 240.23047, 242.6958, 247.78906, 252.36816, 256.18701, 258.65234, 263.94336, 268.6499, 273.35645, " y="918, ">
				Why the metadata has been
		</text>
		<text fill="gray" font-size="9" font-family="Segoe UI" x="167, 169.17969, 174.27295, 178.43018, 180.60986, 185.70312, 191.00293, 195.70947, 201.00928, 203.47461, 207.07373, 209.53906, 214.24561, 218.37646, 223.66748, 226.79639, 231.50293, 235.32178, 239.14062, 243.84717, 249.14697, 251.6123, 256.90332, 261.2583, 263.72363, 268.30273, 270.76807, 276.95117, 282.33447, " y="930, ">
				included - expressed by a URI
		</text>
		<rect fill="white" x="171" y="883" width="40" height="16"/>
		<text font-size="12" font-weight="600" font-family="Segoe UI" x="171, 180.56836, 187.79297, 194.25, 201.50977, 206.33203, " y="896, ">
				whyuri
		</text>
		<rect fill="none" stroke="black" stroke-width="1" stroke-linecap="square" stroke-miterlimit="4" transform="translate(0.5 0.5)" x="162" y="881" width="55" height="20"/>
		<rect fill="silver" x="166" y="943" width="97" height="21"/>
		<rect fill="white" x="162" y="939" width="97" height="21"/>
		<rect fill="white" x="167" y="966" width="117" height="72"/>
		<text fill="gray" font-size="9" font-family="Segoe UI" x="167, 173.78516, 178.87842, 183.58496, 186.05029, 191.32373, 194.45264, 196.91797, 204.66992, 209.24902, 214.34229, 218.69727, 221.1626, 225.31982, 230.59326, 235.68652, 239.50537, 242.55518, 245.68408, 250.26318, 252.44287, 257.53613, 260.58594, 264.40479, 266.87012, 269.91992, 275.01318, 279.59229, " y="976, ">
				One or many constraints that
		</text>
		<text fill="gray" font-size="9" font-family="Segoe UI" x="167, 171.5791, 176.87012, 182.16113, 184.34082, 188.6958, 191.16113, 194.21094, 199.48438, 201.94971, 207.24072, 212.33398, 217.625, 219.80469, 221.98438, 225.80322, 230.89648, 233.07617, 238.16943, 243.46924, 245.93457, 248.98438, 254.07764, 258.78418, 261.24951, 265.56055, 270.13965, 272.31934, 277.4126, " y="988, ">
				apply to publishing the value
		</text>
		<text fill="gray" font-size="9" font-family="Segoe UI" x="167, 172.27344, 175.09033, 177.55566, 180.60547, 185.69873, 190.40527, 192.87061, 198.16162, 201.29053, 206.56396, 211.85498, 216.56152, 219.69043, 222.74023, 227.09521, 229.56055, 233.15967, 235.625, 240.33154, 244.4624, 249.75342, 252.88232, 257.58887, 261.40771, 265.22656, 269.93311, " y="1000, ">
				of the property - expressed
		</text>
		<text fill="gray" font-size="9" font-family="Segoe UI" x="167, 172.29102, 176.646, 179.11133, 183.69043, 186.15576, 192.94092, 198.51318, 203.78662, 209.08643, 213.79297, 215.74414, 218.20947, 222.76221, 227.34131, 231.49854, 236.5918, 239.05713, 243.21436, 248.48779, 253.58105, 257.3999, 260.44971, 263.57861, 268.15771, 270.3374, 275.43066, " y="1012, ">
				by a QCode. Each constraint
		</text>
		<text fill="gray" font-size="9" font-family="Segoe UI" x="167, 171.5791, 176.87012, 182.16113, 184.34082, 186.52051, 191.22705, 195.0459, 197.51123, 200.56104, 205.83447, 208.2998, 212.87891, 215.05859, 217.23828, 219.70361, 225.00342, 229.70996, 233.52881, 237.68604, 242.39258, 247.48584, 252.78564, 257.36475, 262.45801, " y="1024, ">
				applies to all descendant
		</text>
		<text fill="gray" font-size="9" font-family="Segoe UI" x="167, 171.70654, 173.88623, 178.59277, 186.34473, 191.05127, 196.14453, 199.19434, 203.01318, " y="1036, ">
				elements.
		</text>
		<rect fill="white" x="171" y="941" width="81" height="16"/>
		<text font-size="12" font-weight="600" font-family="Segoe UI" x="171, 178.44141, 185.70117, 193.14258, 198.90234, 206.23828, 213.49805, 218.77734, 223.44727, 228.22266, 234.67969, 238.08984, 245.34961, " y="954, ">
				pubconstraint
		</text>
		<rect fill="none" stroke="black" stroke-width="1" stroke-linecap="square" stroke-miterlimit="4" transform="translate(0.5 0.5)" x="162" y="939" width="96" height="20"/>
		<rect fill="silver" x="166" y="1049" width="112" height="21"/>
		<rect fill="white" x="162" y="1045" width="112" height="21"/>
		<rect fill="white" x="167" y="1072" width="117" height="72"/>
		<text fill="gray" font-size="9" font-family="Segoe UI" x="167, 173.78516, 178.87842, 183.58496, 186.05029, 191.32373, 194.45264, 196.91797, 204.66992, 209.24902, 214.34229, 218.69727, 221.1626, 225.31982, 230.59326, 235.68652, 239.50537, 242.55518, 245.68408, 250.26318, 252.44287, 257.53613, 260.58594, 264.40479, 266.87012, 269.91992, 275.01318, 279.59229, " y="1082, ">
				One or many constraints that
		</text>
		<text fill="gray" font-size="9" font-family="Segoe UI" x="167, 171.5791, 176.87012, 182.16113, 184.34082, 188.6958, 191.16113, 194.21094, 199.48438, 201.94971, 207.24072, 212.33398, 217.625, 219.80469, 221.98438, 225.80322, 230.89648, 233.07617, 238.16943, 243.46924, 245.93457, 248.98438, 254.07764, 258.78418, 261.24951, 265.56055, 270.13965, 272.31934, 277.4126, " y="1094, ">
				apply to publishing the value
		</text>
		<text fill="gray" font-size="9" font-family="Segoe UI" x="167, 172.27344, 175.09033, 177.55566, 180.60547, 185.69873, 190.40527, 192.87061, 198.16162, 201.29053, 206.56396, 211.85498, 216.56152, 219.69043, 222.74023, 227.09521, 229.56055, 233.15967, 235.625, 240.33154, 244.4624, 249.75342, 252.88232, 257.58887, 261.40771, 265.22656, 269.93311, " y="1106, ">
				of the property - expressed
		</text>
		<text fill="gray" font-size="9" font-family="Segoe UI" x="167, 172.29102, 176.646, 179.11133, 183.69043, 186.15576, 192.33887, 197.72217, 200.11719, 202.06836, 204.53369, 209.08643, 213.66553, 217.82275, 222.91602, 225.38135, 229.53857, 234.81201, 239.90527, 243.72412, 246.77393, 249.90283, 254.48193, 256.66162, 261.75488, " y="1118, ">
				by a URI. Each constraint
		</text>
		<text fill="gray" font-size="9" font-family="Segoe UI" x="167, 171.5791, 176.87012, 182.16113, 184.34082, 186.52051, 191.22705, 195.0459, 197.51123, 200.56104, 205.83447, 208.2998, 212.87891, 215.05859, 217.23828, 219.70361, 225.00342, 229.70996, 233.52881, 237.68604, 242.39258, 247.48584, 252.78564, 257.36475, 262.45801, " y="1130, ">
				applies to all descendant
		</text>
		<text fill="gray" font-size="9" font-family="Segoe UI" x="167, 171.70654, 173.88623, 178.59277, 186.34473, 191.05127, 196.14453, 199.19434, 203.01318, " y="1142, ">
				elements.
		</text>
		<rect fill="white" x="171" y="1047" width="96" height="16"/>
		<text font-size="12" font-weight="600" font-family="Segoe UI" x="171, 178.44141, 185.70117, 193.14258, 198.90234, 206.23828, 213.49805, 218.77734, 223.44727, 228.22266, 234.67969, 238.08984, 245.34961, 250.01953, 257.2793, 262.10156, " y="1060, ">
				pubconstrainturi
		</text>
		<rect fill="none" stroke="black" stroke-width="1" stroke-linecap="square" stroke-miterlimit="4" transform="translate(0.5 0.5)" x="162" y="1045" width="111" height="20"/>
		<rect fill="silver" x="158" y="1212" width="84" height="21"/>
		<rect fill="white" x="154" y="1208" width="84" height="21"/>
		<rect fill="white" x="159" y="1235" width="90" height="24"/>
		<text fill="gray" font-size="9" font-family="Segoe UI" x="159, 163.71533, 168.80859, 173.51514, 175.98047, 180.1377, 185.41113, 190.50439, 195.59766, 198.64746, 201.11279, 206.38623, 209.20312, 211.66846, 216.375, 220.50586, 225.2124, 229.36963, 234.46289, 237.5127, 242.21924, " y="1245, ">
				The count of executed
		</text>
		<text fill="gray" font-size="9" font-family="Segoe UI" x="159, 161.17969, 166.27295, 169.32275, 174.0293, 177.1582, 181.7373, 185.89453, 188.94434, 191.12402, 196.39746, 201.49072, 205.30957, " y="1257, ">
				interactions.
		</text>
		<rect fill="white" x="163" y="1210" width="68" height="16"/>
		<text font-size="12" font-weight="600" font-family="Segoe UI" x="163, 166.41016, 173.66992, 178.29297, 184.78516, 189.56055, 196.01758, 201.77734, 206.44727, 209.85742, 217.19336, 224.45312, " y="1223, ">
				interactions
		</text>
		<rect fill="none" stroke="black" stroke-width="1" stroke-linecap="square" stroke-miterlimit="4" transform="translate(0.5 0.5)" x="154" y="1208" width="83" height="20"/>
		<rect fill="silver" x="158" y="1270" width="104" height="21"/>
		<rect fill="white" x="154" y="1266" width="104" height="21"/>
		<rect fill="white" x="159" y="1293" width="117" height="72"/>
		<text fill="gray" font-size="9" font-family="Segoe UI" x="159, 163.71533, 168.80859, 173.51514, 175.98047, 179.03027, 183.38525, 188.67627, 193.38281, 195.84814, 201.12158, 203.93848, 206.40381, 208.5835, 213.67676, 216.72656, 221.43311, 224.56201, 229.14111, 233.29834, 236.34814, 238.52783, 243.80127, 248.89453, 251.35986, 257.86377, 262.95703, 265.13672, 269.29395, " y="1303, ">
				The type of interaction which
		</text>
		<text fill="gray" font-size="9" font-family="Segoe UI" x="159, 161.17969, 164.99854, 167.46387, 170.59277, 175.29932, 178.11621, 180.2959, 185.00244, 189.15967, 192.20947, 196.91602, 202.21582, 204.68115, 209.97217, 214.32715, 216.79248, 219.84229, 224.93555, 227.11523, 230.93408, 233.39941, 238.69043, 241.81934, 247.09277, 252.38379, 257.09033, 260.21924, 263.26904, 267.62402, 270.08936, " y="1315, ">
				is reflected by this property -
		</text>
		<text fill="gray" font-size="9" font-family="Segoe UI" x="159, 163.70654, 167.8374, 173.12842, 176.25732, 180.96387, 184.78271, 188.60156, 193.30811, 198.60791, 201.07324, 206.36426, 210.71924, 213.18457, 217.76367, 220.229, 227.01416, 232.58643, 237.85986, 243.15967, 247.86621, 250.33154, " y="1327, ">
				expressed by a QCode /
		</text>
		<text fill="gray" font-size="9" font-family="Segoe UI" x="159, 163.70654, 165.88623, 168.93604, 174.0293, 178.73584, 181.86475, 184.33008, 187.37988, 192.47314, 197.17969, 199.64502, 201.82471, 206.91797, 209.96777, 214.67432, 217.80322, 222.38232, 226.53955, 229.58936, 231.76904, 237.04248, 242.13574, 245.18555, 249.54053, 254.83154, 259.53809, 262.00342, 267.27686, " y="1339, ">
				either the interactiontype or
		</text>
		<text fill="gray" font-size="9" font-family="Segoe UI" x="159, 162.0498, 167.14307, 171.84961, 174.31494, 176.49463, 181.58789, 184.6377, 189.34424, 192.47314, 197.05225, 201.20947, 204.25928, 206.43896, 211.7124, 216.80566, 219.85547, 224.21045, 229.50146, 234.20801, 236.67334, 241.7666, 244.89551, " y="1351, ">
				the interactiontype uri
		</text>
		<text fill="gray" font-size="9" font-family="Segoe UI" x="159, 163.5791, 166.62891, 169.67871, 172.80762, 174.9873, 180.27832, 185.37158, 188.42139, 193.12793, 195.59326, 203.6748, 209.85791, 214.63916, 219.35449, 221.81982, 227.11084, 231.81738, 234.28271, 239.37598, 243.19482, 247.90137, " y="1363, ">
				attribute MUST be used
		</text>
		<rect fill="white" x="163" y="1268" width="88" height="16"/>
		<text font-size="12" font-weight="600" font-family="Segoe UI" x="163, 166.41016, 173.66992, 178.29297, 184.78516, 189.56055, 196.01758, 201.77734, 206.44727, 209.85742, 217.19336, 224.45312, 229.12305, 235.58008, 243.02148, " y="1281, ">
				interactiontype
		</text>
		<rect fill="none" stroke="black" stroke-width="1" stroke-linecap="square" stroke-miterlimit="4" transform="translate(0.5 0.5)" x="154" y="1266" width="103" height="20"/>
		<rect fill="silver" x="158" y="1376" width="120" height="21"/>
		<rect fill="white" x="154" y="1372" width="120" height="21"/>
		<rect fill="white" x="159" y="1399" width="117" height="72"/>
		<text fill="gray" font-size="9" font-family="Segoe UI" x="159, 163.71533, 168.80859, 173.51514, 175.98047, 179.03027, 183.38525, 188.67627, 193.38281, 195.84814, 201.12158, 203.93848, 206.40381, 208.5835, 213.67676, 216.72656, 221.43311, 224.56201, 229.14111, 233.29834, 236.34814, 238.52783, 243.80127, 248.89453, 251.35986, 257.86377, 262.95703, 265.13672, 269.29395, " y="1409, ">
				The type of interaction which
		</text>
		<text fill="gray" font-size="9" font-family="Segoe UI" x="159, 161.17969, 164.99854, 167.46387, 170.59277, 175.29932, 178.11621, 180.2959, 185.00244, 189.15967, 192.20947, 196.91602, 202.21582, 204.68115, 209.97217, 214.32715, 216.79248, 219.84229, 224.93555, 227.11523, 230.93408, 233.39941, 238.69043, 241.81934, 247.09277, 252.38379, 257.09033, 260.21924, 263.26904, 267.62402, 270.08936, " y="1421, ">
				is reflected by this property -
		</text>
		<text fill="gray" font-size="9" font-family="Segoe UI" x="159, 163.70654, 167.8374, 173.12842, 176.25732, 180.96387, 184.78271, 188.60156, 193.30811, 198.60791, 201.07324, 206.36426, 210.71924, 213.18457, 217.76367, 220.229, 226.41211, 231.79541, 234.19043, 239.12109, 242.62793, 245.09326, 249.7998, 251.97949, 255.0293, 260.12256, 264.8291, " y="1433, ">
				expressed by a URI / either
		</text>
		<text fill="gray" font-size="9" font-family="Segoe UI" x="159, 162.0498, 167.14307, 171.84961, 174.31494, 176.49463, 181.58789, 184.6377, 189.34424, 192.47314, 197.05225, 201.20947, 204.25928, 206.43896, 211.7124, 216.80566, 219.85547, 224.21045, 229.50146, 234.20801, 236.67334, 241.94678, 245.07568, 247.54102, 250.59082, 255.68408, " y="1445, ">
				the interactiontype or the
		</text>
		<text fill="gray" font-size="9" font-family="Segoe UI" x="159, 161.17969, 166.27295, 169.32275, 174.0293, 177.1582, 181.7373, 185.89453, 188.94434, 191.12402, 196.39746, 201.49072, 204.54053, 208.89551, 214.18652, 218.89307, 221.3584, 226.45166, 229.58057, 231.76025, 234.22559, 238.80469, 241.85449, 244.9043, 248.0332, 250.21289, 255.50391, 260.59717, 263.64697, " y="1457, ">
				interactiontype uri attribute
		</text>
		<text fill="gray" font-size="9" font-family="Segoe UI" x="159, 167.08154, 173.26465, 178.0459, 182.76123, 185.22656, 190.51758, 195.22412, 197.68945, 202.78271, 206.60156, 211.30811, " y="1469, ">
				MUST be used
		</text>
		<rect fill="white" x="163" y="1374" width="104" height="16"/>
		<text font-size="12" font-weight="600" font-family="Segoe UI" x="163, 166.41016, 173.66992, 178.29297, 184.78516, 189.56055, 196.01758, 201.77734, 206.44727, 209.85742, 217.19336, 224.45312, 229.12305, 235.58008, 243.02148, 249.51367, 256.77344, 261.5957, " y="1387, ">
				interactiontypeuri
		</text>
		<rect fill="none" stroke="black" stroke-width="1" stroke-linecap="square" stroke-miterlimit="4" transform="translate(0.5 0.5)" x="154" y="1372" width="119" height="20"/>
		<path fill="silver" d="M158 1487L163 1482L231 1482L236 1487L236 1498L231 1503L163 1503L158 1498L158 1487Z"/>
		<path fill="white" d="M154 1483L159 1478L227 1478L232 1483L232 1494L227 1499L159 1499L154 1494L154 1483Z"/>
		<rect fill="white" x="181" y="1480" width="46" height="16"/>
		<text font-size="12" font-weight="600" font-family="Segoe UI" x="181, 188.10742, 195.21484, 202.55078, 207.2207, 214.44531, 220.9375, " y="1493, ">
				##other
		</text>
		<rect fill="white" x="159" y="1480" width="20" height="16"/>
		<text fill="gray" font-size="12" font-family="Segoe UI" x="159, 165.10547, 171.89648, " y="1493, ">
				any
		</text>
		<path fill="none" stroke="black" stroke-width="1" stroke-linecap="square" stroke-miterlimit="4" transform="translate(0.5 0.5)" d="M154 1483L159 1478L226 1478L231 1483L231 1493L226 1498L159 1498L154 1493L154 1483Z"/>
		<rect x="145" y="5" width="11" height="11"/>
		<rect fill="white" x="146" y="6" width="9" height="9"/>
		<rect x="147" y="10" width="7" height="1"/>
		<rect x="102" y="750" width="11" height="11"/>
		<rect fill="white" x="103" y="751" width="9" height="9"/>
		<rect x="104" y="755" width="7" height="1"/>
	</g>
</svg>
