<?xml version="1.0" encoding="utf-8" ?>
<svg xmlns="http://www.w3.org/2000/svg" xmlns:xlink="http://www.w3.org/1999/xlink" width="424" height="1554">
	<clipPath id="cl_71b">
		<rect x="-10" y="-5" width="424" height="1554"/>
	</clipPath>
	<g clip-path="url(#cl_71b)">
		<path fill="none" stroke="black" stroke-width="1" stroke-linecap="square" stroke-miterlimit="4" transform="translate(0.5 0.5)" d="M176 772L189 772"/>
		<path fill="silver" d="M4 771L9 766L176 766L176 788L9 788L4 783L4 771Z"/>
		<path fill="white" d="M0 767L5 762L172 762L172 784L5 784L0 779L0 767Z"/>
		<rect fill="white" x="5" y="789" width="162" height="24"/>
		<text fill="gray" font-size="9" font-family="Segoe UI" x="5, 9.715332, 14.808594, 19.515137, 21.980469, 25.030273, 29.385254, 34.67627, 39.382812, 41.848145, 44.665039, 49.938477, 53.067383, 55.532715, 60.111816, 65.205078, 67.67041, 72.376953, 74.556641, 79.263184, 83.42041, 86.470215, 89.599121, 94.872559, 99.96582, 102.14551, 106.30273, 108.76807, 113.34717, 118.64697, 123.94678, 127.07568, 131.78223, 135.60107, 139.41992, 141.88525, 148.38916, 150.56885, 153.61865, 158.71191, 161.17725, " y="799, ">
				The type for an electronic address with a
		</text>
		<text fill="gray" font-size="9" font-family="Segoe UI" x="5, 8.0498047, 12.756348, 16.913574, 22.006836, 27.100098, 29.279785, 33.437012, 38.016113, 40.195801, 42.661133, 47.960938, 53.054199, 57.633301, 59.812988, 61.992676, 64.80957, 66.989258, 71.695801, " y="811, ">
				technical qualifier
		</text>
		<rect fill="white" x="5" y="764" width="154" height="16"/>
		<text font-size="12" font-weight="600" font-family="Segoe UI" x="5, 11.386719, 14.796875, 21.289062, 27.048828, 31.71875, 36.447266, 43.783203, 51.042969, 54.453125, 60.212891, 68.650391, 76.080078, 83.509766, 88.238281, 94.730469, 100.00977, 105.28906, 111.24219, 117.73438, 123.49414, 130.71875, 137.21094, 143.66797, 151.10938, " y="777, ">
				ElectronicAddressTechType
		</text>
		<path fill="none" stroke="black" stroke-width="1" stroke-linecap="square" stroke-miterlimit="4" transform="translate(0.5 0.5)" d="M0 767L5 762L171 762L171 783L5 783L0 778L0 767Z"/>
		<path fill="white" d="M267 19L267 0L190 0L190 19L190 1543L403 1543L403 19L267 19Z"/>
		<rect fill="white" x="210" y="2" width="51" height="16"/>
		<text font-size="12" font-style="italic" font-family="Segoe UI" x="210, 216.50391, 220.38281, 224.26172, 228.5332, 231.63867, 238.14258, 244.83984, 248.73047, 254.57227, " y="15, ">
				attributes
		</text>
		<path fill="none" stroke="black" stroke-width="1" stroke-linecap="square" stroke-miterlimit="4" transform="translate(0.5 0.5)" d="M267 19L267 0L190 0L190 19L190 1543L403 1543L403 19L267 19Z"/>
		<path fill="white" d="M395 47L395 28L204 28L204 47L204 1150L395 1150L395 47Z"/>
		<rect fill="white" x="209" y="1153" width="179" height="48"/>
		<text fill="gray" font-size="9" font-family="Segoe UI" x="209, 214.80518, 217.27051, 222.57031, 225.69922, 230.97266, 236.06592, 241.35693, 243.82227, 249.0957, 251.9126, 254.37793, 258.95703, 262.00684, 265.05664, 268.18555, 270.36523, 275.65625, 280.74951, 283.79932, 288.50586, 292.32471, 294.79004, 297.60693, 302.88037, 306.00928, 308.47461, 313.05371, 315.2334, 317.41309, 319.87842, 324.58496, 326.76465, 331.47119, 339.22314, 343.92969, 349.02295, 352.07275, 355.8916, 358.35693, 363.63037, 366.44727, 368.9126, 373.4917, 375.95703, 382.13135, " y="1163, ">
				A group of attributes for all elements of a G2
		</text>
		<text fill="gray" font-size="9" font-family="Segoe UI" x="209, 211.39502, 214.44482, 219.15137, 226.90332, 229.36865, 234.0752, 238.20605, 242.36328, 247.06982, 252.36084, 255.41064, 257.87598, 260.05566, 263.10547, 266.92432, 269.38965, 272.51855, 277.79199, 283.06543, 286.11523, 288.58057, 293.28711, 295.4668, 300.17334, 307.92529, 312.63184, 317.7251, 320.7749, 322.72607, 325.19141, 328.24121, 333.33447, 338.04102, 340.50635, 342.68604, 345.73584, 350.44238, 358.19434, 366.27588, 370.98242, 374.03223, " y="1175, ">
				Item except its root element, the itemMeta
		</text>
		<text fill="gray" font-size="9" font-family="Segoe UI" x="209, 213.70654, 215.88623, 220.59277, 228.34473, 233.05127, 238.14453, 241.19434, 243.65967, 248.23877, 253.33203, 258.63184, 261.09717, 265.67627, 267.85596, 270.03564, 272.50098, 277.77441, 280.59131, 283.05664, 285.23633, 288.28613, 292.10498, 294.57031, 298.72754, 303.8208, 306.00049, 308.18018, 313.47998, 316.60889, 321.31543, 326.40869, 328.87402, 335.37793, 340.47119, 342.65088, 346.80811, 351.90137, 354.3667, 358.9458, 362.07471, " y="1187, ">
				element and all of its children which are
		</text>
		<text fill="gray" font-size="9" font-family="Segoe UI" x="209, 216.75195, 221.33105, 226.42432, 231.72412, 236.30322, 239.35303, 244.62646, 247.75537, 252.11035, " y="1199, ">
				mandatory.
		</text>
		<rect fill="white" x="246" y="30" width="143" height="16"/>
		<text font-size="12" font-weight="600" font-family="Segoe UI" x="246, 251.75977, 259.0957, 270.08789, 281.08008, 288.41602, 295.67578, 302.68945, 310.02539, 319.53516, 326.02734, 330.80273, 339, 343.66992, 348.33984, 353.16211, 356.57227, 364.01367, 371.27344, 375.89648, 382.38867, " y="43, ">
				commonPowerAttributes
		</text>
		<rect fill="white" x="224" y="30" width="20" height="16"/>
		<text fill="gray" font-size="12" font-family="Segoe UI" x="224, 231.06641, 235.23828, " y="43, ">
				grp
		</text>
		<path fill="none" stroke="gray" stroke-width="1" stroke-linecap="square" stroke-miterlimit="4" transform="translate(0.5 0.5)" d="M204 47L204 1150L395 1150L395 47L395 47"/>
		<path fill="none" stroke="black" stroke-width="1" stroke-linecap="square" stroke-miterlimit="4" transform="translate(0.5 0.5)" d="M395 47L395 28L204 28L204 47"/>
		<rect x="209" y="33" width="11" height="11"/>
		<rect fill="white" x="210" y="34" width="9" height="9"/>
		<rect x="211" y="38" width="7" height="1"/>
		<rect fill="silver" x="216" y="61" width="52" height="21"/>
		<rect fill="white" x="212" y="57" width="52" height="21"/>
		<rect fill="white" x="217" y="84" width="101" height="24"/>
		<text fill="gray" font-size="9" font-family="Segoe UI" x="217, 221.71533, 226.80859, 231.51514, 233.98047, 236.16016, 241.43359, 245.59082, 250.16992, 252.34961, 254.81494, 256.99463, 262.29443, 267.00098, 272.09424, 275.14404, 277.32373, 280.14062, 282.32031, 287.02686, 290.15576, 292.62109, 297.89453, 300.71143, 303.17676, 306.22656, 311.31982, " y="94, ">
				The local identifier of the
		</text>
		<text fill="gray" font-size="9" font-family="Segoe UI" x="217, 222.29102, 225.41992, 230.69336, 235.98438, 240.69092, 243.81982, 246.86963, 251.22461, " y="106, ">
				property.
		</text>
		<rect fill="white" x="221" y="59" width="36" height="16"/>
		<text font-size="12" font-weight="600" font-family="Segoe UI" x="221, 224.41016, " y="72, ">
				id
		</text>
		<rect fill="none" stroke="black" stroke-width="1" stroke-linecap="square" stroke-miterlimit="4" transform="translate(0.5 0.5)" x="212" y="57" width="51" height="20"/>
		<rect fill="silver" x="216" y="119" width="58" height="21"/>
		<rect fill="white" x="212" y="115" width="58" height="21"/>
		<rect fill="white" x="217" y="142" width="121" height="120"/>
		<text fill="gray" font-size="9" font-family="Segoe UI" x="217, 219.39502, 222.21191, 224.67725, 227.72705, 232.82031, 237.52686, 239.99219, 245.2832, 248.41211, 253.68555, 258.97656, 263.68311, 266.81201, 269.86182, 274.2168, 276.68213, 280.99316, 285.57227, 287.75195, 292.84521, 297.55176, 300.01709, 302.19678, 306.01562, 308.48096, 313.57422, 318.84766, " y="152, ">
				If the property value is not
		</text>
		<text fill="gray" font-size="9" font-family="Segoe UI" x="217, 222.2998, 227.00635, 229.82324, 232.00293, 237.09619, 241.80273, 247.10254, 249.05371, 251.51904, 255.33789, 260.62891, 265.33545, 269.49268, 271.67236, 274.48926, 276.66895, 281.37549, 285.19434, 287.65967, 294.16357, 299.25684, 301.43652, 305.59375, 310.68701, 313.15234, 317.85889, 322.95215, 326.00195, 328.18164, 331.23145, " y="164, ">
				defined, specifies which entity
		</text>
		<text fill="gray" font-size="9" font-family="Segoe UI" x="217, 219.71582, 225.00684, 229.71338, 232.84229, 236.66113, 241.93457, 247.02783, 248.979, 251.44434, 256.71777, 259.84668, 265.14648, 269.72559, 274.81885, 276.99854, 280.81738, 285.39648, 288.44629, 290.62598, 295.89941, 300.99268, 303.45801, 308.73145, " y="176, ">
				(person, organisation or
		</text>
		<text fill="gray" font-size="9" font-family="Segoe UI" x="217, 220.81885, 225.17383, 228.99268, 232.04248, 236.74902, 244.50098, 247.2168, 249.68213, 256.18604, 258.36572, 260.54541, 262.7251, 265.19043, 269.89697, 275.19678, 277.37646, 280.42627, 282.8916, 285.94141, 291.03467, 295.74121, 298.20654, 303.49756, 306.62646, 311.8999, 317.19092, 321.89746, 325.02637, 328.07617, " y="188, ">
				system) will edit the property
		</text>
		<text fill="gray" font-size="9" font-family="Segoe UI" x="217, 221.31104, 225.89014, 228.06982, 233.16309, 237.86963, 240.33496, 243.93408, 246.39941, 251.10596, 255.23682, 260.52783, 263.65674, 268.36328, 272.18213, 276.00098, 280.70752, 286.00732, 288.47266, 293.76367, 298.11865, 300.58398, 305.16309, 307.62842, 314.41357, 319.98584, 325.25928, 330.55908, 335.26562, " y="200, ">
				value - expressed by a QCode.
		</text>
		<text fill="gray" font-size="9" font-family="Segoe UI" x="217, 219.39502, 222.21191, 224.67725, 227.72705, 232.82031, 237.52686, 239.99219, 245.2832, 248.41211, 253.68555, 258.97656, 263.68311, 266.81201, 269.86182, 274.2168, 276.68213, 280.99316, 285.57227, 287.75195, 292.84521, 297.55176, 300.01709, 302.19678, " y="212, ">
				If the property value is
		</text>
		<text fill="gray" font-size="9" font-family="Segoe UI" x="217, 222.2998, 227.00635, 229.82324, 232.00293, 237.09619, 241.80273, 247.10254, 249.05371, 251.51904, 255.33789, 260.62891, 265.33545, 269.49268, 271.67236, 274.48926, 276.66895, 281.37549, 285.19434, 287.65967, 294.16357, 299.25684, 301.43652, 305.59375, 310.68701, 313.15234, 317.85889, 322.95215, 326.00195, 328.18164, 331.23145, " y="224, ">
				defined, specifies which entity
		</text>
		<text fill="gray" font-size="9" font-family="Segoe UI" x="217, 219.71582, 225.00684, 229.71338, 232.84229, 236.66113, 241.93457, 247.02783, 248.979, 251.44434, 256.71777, 259.84668, 265.14648, 269.72559, 274.81885, 276.99854, 280.81738, 285.39648, 288.44629, 290.62598, 295.89941, 300.99268, 303.45801, 308.73145, " y="236, ">
				(person, organisation or
		</text>
		<text fill="gray" font-size="9" font-family="Segoe UI" x="217, 220.81885, 225.17383, 228.99268, 232.04248, 236.74902, 244.50098, 247.2168, 249.68213, 254.77539, 259.35449, 263.17334, 265.63867, 270.34521, 275.64502, 277.82471, 280.87451, 285.58105, 290.88086, 293.34619, 296.396, 301.48926, " y="248, ">
				system) has edited the
		</text>
		<text fill="gray" font-size="9" font-family="Segoe UI" x="217, 222.29102, 225.41992, 230.69336, 235.98438, 240.69092, 243.81982, 246.86963, 251.22461, 253.68994, 258.00098, 262.58008, 264.75977, 269.85303, 274.55957, " y="260, ">
				property value.
		</text>
		<rect fill="white" x="221" y="117" width="42" height="16"/>
		<text font-size="12" font-weight="600" font-family="Segoe UI" x="221, 226.75977, 231.48828, 237.98047, 244.4375, 249.06055, 256.39648, " y="130, ">
				creator
		</text>
		<rect fill="none" stroke="black" stroke-width="1" stroke-linecap="square" stroke-miterlimit="4" transform="translate(0.5 0.5)" x="212" y="115" width="57" height="20"/>
		<rect fill="silver" x="216" y="273" width="73" height="21"/>
		<rect fill="white" x="212" y="269" width="73" height="21"/>
		<rect fill="white" x="217" y="296" width="120" height="108"/>
		<text fill="gray" font-size="9" font-family="Segoe UI" x="217, 219.39502, 222.21191, 224.67725, 227.72705, 232.82031, 237.52686, 239.99219, 245.2832, 248.41211, 253.68555, 258.97656, 263.68311, 266.81201, 269.86182, 274.2168, 276.68213, 280.99316, 285.57227, 287.75195, 292.84521, 297.55176, 300.01709, 302.19678, 306.01562, 308.48096, 313.57422, 318.84766, " y="306, ">
				If the property value is not
		</text>
		<text fill="gray" font-size="9" font-family="Segoe UI" x="217, 222.2998, 227.00635, 229.82324, 232.00293, 237.09619, 241.80273, 247.10254, 249.05371, 251.51904, 255.33789, 260.62891, 265.33545, 269.49268, 271.67236, 274.48926, 276.66895, 281.37549, 285.19434, 287.65967, 294.16357, 299.25684, 301.43652, 305.59375, 310.68701, 313.15234, 317.85889, 322.95215, 326.00195, 328.18164, 331.23145, " y="318, ">
				defined, specifies which entity
		</text>
		<text fill="gray" font-size="9" font-family="Segoe UI" x="217, 219.71582, 225.00684, 229.71338, 232.84229, 236.66113, 241.93457, 247.02783, 248.979, 251.44434, 256.71777, 259.84668, 265.14648, 269.72559, 274.81885, 276.99854, 280.81738, 285.39648, 288.44629, 290.62598, 295.89941, 300.99268, 303.45801, 308.73145, " y="330, ">
				(person, organisation or
		</text>
		<text fill="gray" font-size="9" font-family="Segoe UI" x="217, 220.81885, 225.17383, 228.99268, 232.04248, 236.74902, 244.50098, 247.2168, 249.68213, 256.18604, 258.36572, 260.54541, 262.7251, 265.19043, 269.89697, 275.19678, 277.37646, 280.42627, 282.8916, 285.94141, 291.03467, 295.74121, 298.20654, 303.49756, 306.62646, 311.8999, 317.19092, 321.89746, 325.02637, 328.07617, " y="342, ">
				system) will edit the property
		</text>
		<text fill="gray" font-size="9" font-family="Segoe UI" x="217, 220.59912, 223.06445, 227.771, 231.90186, 237.19287, 240.32178, 245.02832, 248.84717, 252.66602, 257.37256, 262.67236, 265.1377, 270.42871, 274.78369, 277.24902, 281.82812, 284.29346, 290.47656, 295.85986, 298.25488, 300.20605, 302.67139, 305.06641, 307.8833, 310.34863, 313.39844, 318.4917, " y="354, ">
				- expressed by a URI. If the
		</text>
		<text fill="gray" font-size="9" font-family="Segoe UI" x="217, 222.29102, 225.41992, 230.69336, 235.98438, 240.69092, 243.81982, 246.86963, 251.22461, 253.68994, 258.00098, 262.58008, 264.75977, 269.85303, 274.55957, 277.0249, 279.20459, 283.02344, 285.48877, 290.78857, 295.49512, 298.31201, 300.4917, 305.58496, 310.2915, 315.59131, " y="366, ">
				property value is defined,
		</text>
		<text fill="gray" font-size="9" font-family="Segoe UI" x="217, 220.81885, 226.10986, 230.81641, 234.97363, 237.15332, 239.97021, 242.1499, 246.85645, 250.67529, 253.14062, 259.64453, 264.73779, 266.91748, 271.07471, 276.16797, 278.6333, 283.33984, 288.43311, 291.48291, 293.6626, 296.7124, 301.06738, 303.53271, 306.24854, 311.53955, 316.24609, 319.375, 323.19385, 328.46729, 333.56055, " y="378, ">
				specifies which entity (person,
		</text>
		<text fill="gray" font-size="9" font-family="Segoe UI" x="217, 222.27344, 225.40234, 230.70215, 235.28125, 240.37451, 242.5542, 246.37305, 250.95215, 254.00195, 256.18164, 261.45508, 266.54834, 269.01367, 274.28711, 277.41602, 279.88135, 283.7002, 288.05518, 291.87402, 294.92383, 299.63037, 307.38232, 310.09814, 312.56348, 317.65674, 322.23584, " y="390, ">
				organisation or system) has
		</text>
		<text fill="gray" font-size="9" font-family="Segoe UI" x="217, 221.70654, 227.00635, 229.18604, 232.23584, 236.94238, 242.24219, 244.70752, 247.75732, 252.85059, 257.55713, 260.02246, 265.31348, 268.44238, 273.71582, 279.00684, 283.71338, 286.84229, 289.89209, 294.24707, " y="402, ">
				edited the property.
		</text>
		<rect fill="white" x="221" y="271" width="57" height="16"/>
		<text font-size="12" font-weight="600" font-family="Segoe UI" x="221, 226.75977, 231.48828, 237.98047, 244.4375, 249.06055, 256.39648, 261.20703, 268.4668, 273.28906, " y="284, ">
				creatoruri
		</text>
		<rect fill="none" stroke="black" stroke-width="1" stroke-linecap="square" stroke-miterlimit="4" transform="translate(0.5 0.5)" x="212" y="269" width="72" height="20"/>
		<rect fill="silver" x="216" y="415" width="69" height="21"/>
		<rect fill="white" x="212" y="411" width="69" height="21"/>
		<rect fill="white" x="217" y="438" width="119" height="72"/>
		<text fill="gray" font-size="9" font-family="Segoe UI" x="217, 221.71533, 226.80859, 231.51514, 233.98047, 239.28027, 243.85938, 246.90918, 251.61572, 254.08105, 256.79688, 261.37598, 266.46924, 271.76904, 273.72021, 276.18555, 281.45898, 286.75, 289.7998, 291.97949, 297.25293, 302.34619, 306.92529, 309.10498, 311.28467, 315.63965, 317.59082, 320.05615, 323.10596, 328.19922, " y="448, ">
				The date (and, optionally, the
		</text>
		<text fill="gray" font-size="9" font-family="Segoe UI" x="217, 220.0498, 222.22949, 229.98145, 234.68799, 237.40381, 239.86914, 246.37305, 251.46631, 256.17285, 261.26611, 263.73145, 266.78125, 271.87451, 276.58105, 279.04639, 284.3374, 287.46631, 292.73975, 298.03076, 302.7373, 305.86621, 308.91602, 313.271, 315.73633, 322.24023, 326.81934, " y="460, ">
				time) when the property was
		</text>
		<text fill="gray" font-size="9" font-family="Segoe UI" x="217, 219.17969, 223.75879, 227.57764, 230.62744, 233.09277, 240.84473, 246.11816, 251.41797, 253.59766, 256.41455, 258.59424, 263.30078, 268.60059, 270.55176, 273.01709, 277.73242, 282.82568, 287.53223, 289.99756, 292.17725, 297.27051, 299.4502, 302.5, 304.67969, 309.25879, 311.43848, 313.90381, 318.21484, 322.79395, 324.97363, 330.06689, " y="472, ">
				last modified. The initial value
		</text>
		<text fill="gray" font-size="9" font-family="Segoe UI" x="217, 219.17969, 222.99854, 225.46387, 228.51367, 233.60693, 238.31348, 240.77881, 246.07861, 250.65771, 253.70752, 258.41406, 260.87939, 263.59521, 268.17432, 273.26758, 278.56738, 280.51855, 282.98389, 288.25732, 293.54834, 296.59814, 298.77783, 304.05127, 309.14453, 313.72363, 315.90332, 318.08301, 322.43799, " y="484, ">
				is the date (and, optionally,
		</text>
		<text fill="gray" font-size="9" font-family="Segoe UI" x="217, 220.0498, 225.14307, 229.84961, 232.31494, 235.36475, 237.54443, 245.29639, 250.00293, 252.71875, 255.18408, 260.45752, 263.27441, 265.73975, 269.89697, 273.02588, 277.73242, 282.31152, 285.36133, 287.54102, 292.81445, 297.90771, 300.37305, 305.64648, 308.46338, 310.92871, 313.97852, 319.07178, " y="496, ">
				the time) of creation of the
		</text>
		<text fill="gray" font-size="9" font-family="Segoe UI" x="217, 222.29102, 225.41992, 230.69336, 235.98438, 240.69092, 243.81982, 246.86963, 251.22461, " y="508, ">
				property.
		</text>
		<rect fill="white" x="221" y="413" width="53" height="16"/>
		<text font-size="12" font-weight="600" font-family="Segoe UI" x="221, 231.99219, 239.32812, 246.75781, 250.16797, 254.76758, 258.17773, 264.66992, " y="426, ">
				modified
		</text>
		<rect fill="none" stroke="black" stroke-width="1" stroke-linecap="square" stroke-miterlimit="4" transform="translate(0.5 0.5)" x="212" y="411" width="68" height="20"/>
		<rect fill="silver" x="216" y="521" width="59" height="21"/>
		<rect fill="white" x="212" y="517" width="59" height="21"/>
		<rect fill="white" x="217" y="544" width="118" height="108"/>
		<text fill="gray" font-size="9" font-family="Segoe UI" x="217, 219.39502, 222.21191, 224.67725, 228.49609, 233.20264, 236.25244, 238.71777, 241.76758, 247.04102, 249.50635, 252.55615, 255.68506, 260.77832, 265.48486, 267.9502, 271, 276.09326, " y="554, ">
				If set to true the
		</text>
		<text fill="gray" font-size="9" font-family="Segoe UI" x="217, 221.15723, 226.43066, 229.55957, 232.68848, 237.39502, 241.21387, 246.50488, 251.77832, 256.87158, 262.17139, 264.35107, 269.44434, 274.74414, 277.20947, 282.50049, 285.62939, 290.90283, 296.19385, 300.90039, 304.0293, 307.0791, 311.43408, 313.89941, 320.40332, 324.98242, " y="566, ">
				corresponding property was
		</text>
		<text fill="gray" font-size="9" font-family="Segoe UI" x="217, 221.5791, 226.87891, 232.17871, 236.88525, 242.18506, 244.65039, 247.7002, 252.97363, 255.43896, 258.48877, 263.58203, 268.28857, 270.75391, 276.92822, 281.77979, 284.24512, 286.64014, 289.68994, 294.39648, 302.14844, 304.61377, 307.43066, 312.7041, 315.83301, 318.29834, " y="578, ">
				added to the G2 Item for a
		</text>
		<text fill="gray" font-size="9" font-family="Segoe UI" x="217, 220.81885, 226.10986, 230.81641, 234.97363, 237.15332, 239.97021, 242.1499, 246.30713, 248.77246, 252.92969, 258.02295, 261.8418, 264.8916, 270.16504, 277.91699, 282.62354, 285.75244, 288.21777, 293.49121, 296.62012, 299.08545, 304.38525, 307.51416, 312.7876, 317.88086, 323.17188, 325.63721, 330.91064, " y="590, ">
				specific customer or group of
		</text>
		<text fill="gray" font-size="9" font-family="Segoe UI" x="217, 221.15723, 226.25049, 230.06934, 233.11914, 238.39258, 246.14453, 250.85107, 253.97998, 257.79883, 260.26416, 265.5376, 270.63086, 272.81055, 277.16553, 279.1167, 281.58203, 286.29736, 291.39062, 296.09717, 298.5625, 303.8623, 308.56885, 311.38574, 315.96484, 321.05811, 323.23779, " y="602, ">
				customers only. The default
		</text>
		<text fill="gray" font-size="9" font-family="Segoe UI" x="217, 221.31104, 225.89014, 228.06982, 233.16309, 237.86963, 240.33496, 245.6084, 248.42529, 250.89062, 253.94043, 259.03369, 261.21338, 265.03223, 267.49756, 272.78857, 275.91748, 281.19092, 286.48193, 291.18848, 294.31738, 297.36719, 301.72217, 304.1875, 306.36719, 310.18604, 312.65137, 315.46826, 320.04736, 322.22705, 326.0459, " y="614, ">
				value of this property is false
		</text>
		<text fill="gray" font-size="9" font-family="Segoe UI" x="217, 223.50391, 228.59717, 230.77686, 234.93408, 240.02734, 242.49268, 247.07178, 252.36279, 257.65381, 259.8335, 262.01318, 266.71973, 270.53857, 273.00391, 279.50781, 284.60107, 289.30762, 294.40088, 296.86621, 299.91602, 305.00928, 307.18896, " y="626, ">
				which applies when this
		</text>
		<text fill="gray" font-size="9" font-family="Segoe UI" x="217, 221.5791, 224.62891, 227.67871, 230.80762, 232.9873, 238.27832, 243.37158, 246.42139, 251.12793, 253.59326, 255.77295, 259.5918, 262.05713, 267.15039, 272.42383, 275.47363, 277.93896, 283.03223, 286.85107, 291.55762, 296.85742, 299.32275, 305.82666, 308.00635, 311.05615, 316.14941, 318.61475, 321.66455, 326.75781, " y="638, ">
				attribute is not used with the
		</text>
		<text fill="gray" font-size="9" font-family="Segoe UI" x="217, 222.29102, 225.41992, 230.69336, 235.98438, 240.69092, 243.81982, 246.86963, 251.22461, " y="650, ">
				property.
		</text>
		<rect fill="white" x="221" y="519" width="43" height="16"/>
		<text font-size="12" font-weight="600" font-family="Segoe UI" x="221, 226.75977, 234.01953, 239.29883, 243.92188, 251.25781, " y="532, ">
				custom
		</text>
		<rect fill="none" stroke="black" stroke-width="1" stroke-linecap="square" stroke-miterlimit="4" transform="translate(0.5 0.5)" x="212" y="517" width="58" height="20"/>
		<rect fill="silver" x="216" y="663" width="52" height="21"/>
		<rect fill="white" x="212" y="659" width="52" height="21"/>
		<rect fill="white" x="217" y="686" width="118" height="48"/>
		<text fill="gray" font-size="9" font-family="Segoe UI" x="217, 219.39502, 224.48828, 229.78809, 231.96777, 236.125, 240.7041, 243.75391, 248.46045, 252.2793, 254.74463, 260.03564, 264.39062, 266.85596, 273.35986, 278.45312, 280.63281, 284.79004, 289.8833, 292.34863, 300.10059, 304.80713, 309.38623, 314.47949, 318.29834, 320.76367, 323.81348, 328.90674, " y="696, ">
				Indicates by which means the
		</text>
		<text fill="gray" font-size="9" font-family="Segoe UI" x="217, 221.31104, 225.89014, 228.06982, 233.16309, 237.86963, 240.33496, 246.83887, 251.41797, 255.23682, 257.70215, 262.40869, 266.53955, 269.58936, 272.71826, 277.29736, 281.45459, 284.50439, 289.21094, 294.51074, 296.97607, 299.79297, 302.92188, 308.19531, 315.94727, 318.4126, 321.4624, 326.55566, " y="708, ">
				value was extracted from the
		</text>
		<text fill="gray" font-size="9" font-family="Segoe UI" x="217, 221.15723, 226.43066, 231.52393, 234.57373, 239.28027, 244.37354, 247.42334, 249.88867, 253.48779, 255.95312, 260.65967, 264.79053, 270.08154, 273.21045, 277.91699, 281.73584, 285.55469, 290.26123, 295.56104, 298.02637, 303.31738, 307.67236, 310.1377, " y="720, ">
				content - expressed by a
		</text>
		<text fill="gray" font-size="9" font-family="Segoe UI" x="217, 223.78516, 229.35742, 234.63086, 239.93066, " y="732, ">
				QCode
		</text>
		<rect fill="white" x="221" y="661" width="36" height="16"/>
		<text font-size="12" font-weight="600" font-family="Segoe UI" x="221, 228.22461, 235.56055, " y="674, ">
				how
		</text>
		<rect fill="none" stroke="black" stroke-width="1" stroke-linecap="square" stroke-miterlimit="4" transform="translate(0.5 0.5)" x="212" y="659" width="51" height="20"/>
		<rect fill="silver" x="216" y="745" width="57" height="21"/>
		<rect fill="white" x="212" y="741" width="57" height="21"/>
		<rect fill="white" x="217" y="768" width="118" height="36"/>
		<text fill="gray" font-size="9" font-family="Segoe UI" x="217, 219.39502, 224.48828, 229.78809, 231.96777, 236.125, 240.7041, 243.75391, 248.46045, 252.2793, 254.74463, 260.03564, 264.39062, 266.85596, 273.35986, 278.45312, 280.63281, 284.79004, 289.8833, 292.34863, 300.10059, 304.80713, 309.38623, 314.47949, 318.29834, 320.76367, 323.81348, 328.90674, " y="778, ">
				Indicates by which means the
		</text>
		<text fill="gray" font-size="9" font-family="Segoe UI" x="217, 221.31104, 225.89014, 228.06982, 233.16309, 237.86963, 240.33496, 246.83887, 251.41797, 255.23682, 257.70215, 262.40869, 266.53955, 269.58936, 272.71826, 277.29736, 281.45459, 284.50439, 289.21094, 294.51074, 296.97607, 299.79297, 302.92188, 308.19531, 315.94727, 318.4126, 321.4624, 326.55566, " y="790, ">
				value was extracted from the
		</text>
		<text fill="gray" font-size="9" font-family="Segoe UI" x="217, 221.15723, 226.43066, 231.52393, 234.57373, 239.28027, 244.37354, 247.42334, 249.88867, 253.48779, 255.95312, 260.65967, 264.79053, 270.08154, 273.21045, 277.91699, 281.73584, 285.55469, 290.26123, 295.56104, 298.02637, 303.31738, 307.67236, 310.1377, 314.7168, 317.18213, 323.36523, 328.74854, " y="802, ">
				content - expressed by a URI
		</text>
		<rect fill="white" x="221" y="743" width="41" height="16"/>
		<text font-size="12" font-weight="600" font-family="Segoe UI" x="221, 228.22461, 235.56055, 245.12891, 252.38867, 257.21094, " y="756, ">
				howuri
		</text>
		<rect fill="none" stroke="black" stroke-width="1" stroke-linecap="square" stroke-miterlimit="4" transform="translate(0.5 0.5)" x="212" y="741" width="56" height="20"/>
		<rect fill="silver" x="216" y="815" width="52" height="21"/>
		<rect fill="white" x="212" y="811" width="52" height="21"/>
		<rect fill="white" x="217" y="838" width="113" height="36"/>
		<text fill="gray" font-size="9" font-family="Segoe UI" x="217, 225.40674, 230.5, 234.85498, 237.32031, 240.37012, 245.46338, 250.16992, 252.63525, 260.38721, 265.09375, 268.14355, 272.72266, 278.02246, 282.60156, 285.65137, 290.23047, 292.6958, 297.78906, 302.36816, 306.18701, 308.65234, 313.94336, 318.6499, 323.35645, " y="848, ">
				Why the metadata has been
		</text>
		<text fill="gray" font-size="9" font-family="Segoe UI" x="217, 219.17969, 224.27295, 228.43018, 230.60986, 235.70312, 241.00293, 245.70947, 251.00928, 253.47461, 257.07373, 259.53906, 264.24561, 268.37646, 273.66748, 276.79639, 281.50293, 285.32178, 289.14062, 293.84717, 299.14697, 301.6123, 306.90332, 311.2583, 313.72363, " y="860, ">
				included - expressed by a
		</text>
		<text fill="gray" font-size="9" font-family="Segoe UI" x="217, 223.78516, 229.35742, 234.63086, 239.93066, " y="872, ">
				QCode
		</text>
		<rect fill="white" x="221" y="813" width="36" height="16"/>
		<text font-size="12" font-weight="600" font-family="Segoe UI" x="221, 230.56836, 237.79297, " y="826, ">
				why
		</text>
		<rect fill="none" stroke="black" stroke-width="1" stroke-linecap="square" stroke-miterlimit="4" transform="translate(0.5 0.5)" x="212" y="811" width="51" height="20"/>
		<rect fill="silver" x="216" y="885" width="56" height="21"/>
		<rect fill="white" x="212" y="881" width="56" height="21"/>
		<rect fill="white" x="217" y="908" width="119" height="24"/>
		<text fill="gray" font-size="9" font-family="Segoe UI" x="217, 225.40674, 230.5, 234.85498, 237.32031, 240.37012, 245.46338, 250.16992, 252.63525, 260.38721, 265.09375, 268.14355, 272.72266, 278.02246, 282.60156, 285.65137, 290.23047, 292.6958, 297.78906, 302.36816, 306.18701, 308.65234, 313.94336, 318.6499, 323.35645, " y="918, ">
				Why the metadata has been
		</text>
		<text fill="gray" font-size="9" font-family="Segoe UI" x="217, 219.17969, 224.27295, 228.43018, 230.60986, 235.70312, 241.00293, 245.70947, 251.00928, 253.47461, 257.07373, 259.53906, 264.24561, 268.37646, 273.66748, 276.79639, 281.50293, 285.32178, 289.14062, 293.84717, 299.14697, 301.6123, 306.90332, 311.2583, 313.72363, 318.30273, 320.76807, 326.95117, 332.33447, " y="930, ">
				included - expressed by a URI
		</text>
		<rect fill="white" x="221" y="883" width="40" height="16"/>
		<text font-size="12" font-weight="600" font-family="Segoe UI" x="221, 230.56836, 237.79297, 244.25, 251.50977, 256.33203, " y="896, ">
				whyuri
		</text>
		<rect fill="none" stroke="black" stroke-width="1" stroke-linecap="square" stroke-miterlimit="4" transform="translate(0.5 0.5)" x="212" y="881" width="55" height="20"/>
		<rect fill="silver" x="216" y="943" width="97" height="21"/>
		<rect fill="white" x="212" y="939" width="97" height="21"/>
		<rect fill="white" x="217" y="966" width="117" height="72"/>
		<text fill="gray" font-size="9" font-family="Segoe UI" x="217, 223.78516, 228.87842, 233.58496, 236.05029, 241.32373, 244.45264, 246.91797, 254.66992, 259.24902, 264.34229, 268.69727, 271.1626, 275.31982, 280.59326, 285.68652, 289.50537, 292.55518, 295.68408, 300.26318, 302.44287, 307.53613, 310.58594, 314.40479, 316.87012, 319.91992, 325.01318, 329.59229, " y="976, ">
				One or many constraints that
		</text>
		<text fill="gray" font-size="9" font-family="Segoe UI" x="217, 221.5791, 226.87012, 232.16113, 234.34082, 238.6958, 241.16113, 244.21094, 249.48438, 251.94971, 257.24072, 262.33398, 267.625, 269.80469, 271.98438, 275.80322, 280.89648, 283.07617, 288.16943, 293.46924, 295.93457, 298.98438, 304.07764, 308.78418, 311.24951, 315.56055, 320.13965, 322.31934, 327.4126, " y="988, ">
				apply to publishing the value
		</text>
		<text fill="gray" font-size="9" font-family="Segoe UI" x="217, 222.27344, 225.09033, 227.55566, 230.60547, 235.69873, 240.40527, 242.87061, 248.16162, 251.29053, 256.56396, 261.85498, 266.56152, 269.69043, 272.74023, 277.09521, 279.56055, 283.15967, 285.625, 290.33154, 294.4624, 299.75342, 302.88232, 307.58887, 311.40771, 315.22656, 319.93311, " y="1000, ">
				of the property - expressed
		</text>
		<text fill="gray" font-size="9" font-family="Segoe UI" x="217, 222.29102, 226.646, 229.11133, 233.69043, 236.15576, 242.94092, 248.51318, 253.78662, 259.08643, 263.79297, 265.74414, 268.20947, 272.76221, 277.34131, 281.49854, 286.5918, 289.05713, 293.21436, 298.48779, 303.58105, 307.3999, 310.44971, 313.57861, 318.15771, 320.3374, 325.43066, " y="1012, ">
				by a QCode. Each constraint
		</text>
		<text fill="gray" font-size="9" font-family="Segoe UI" x="217, 221.5791, 226.87012, 232.16113, 234.34082, 236.52051, 241.22705, 245.0459, 247.51123, 250.56104, 255.83447, 258.2998, 262.87891, 265.05859, 267.23828, 269.70361, 275.00342, 279.70996, 283.52881, 287.68604, 292.39258, 297.48584, 302.78564, 307.36475, 312.45801, " y="1024, ">
				applies to all descendant
		</text>
		<text fill="gray" font-size="9" font-family="Segoe UI" x="217, 221.70654, 223.88623, 228.59277, 236.34473, 241.05127, 246.14453, 249.19434, 253.01318, " y="1036, ">
				elements.
		</text>
		<rect fill="white" x="221" y="941" width="81" height="16"/>
		<text font-size="12" font-weight="600" font-family="Segoe UI" x="221, 228.44141, 235.70117, 243.14258, 248.90234, 256.23828, 263.49805, 268.77734, 273.44727, 278.22266, 284.67969, 288.08984, 295.34961, " y="954, ">
				pubconstraint
		</text>
		<rect fill="none" stroke="black" stroke-width="1" stroke-linecap="square" stroke-miterlimit="4" transform="translate(0.5 0.5)" x="212" y="939" width="96" height="20"/>
		<rect fill="silver" x="216" y="1049" width="112" height="21"/>
		<rect fill="white" x="212" y="1045" width="112" height="21"/>
		<rect fill="white" x="217" y="1072" width="117" height="72"/>
		<text fill="gray" font-size="9" font-family="Segoe UI" x="217, 223.78516, 228.87842, 233.58496, 236.05029, 241.32373, 244.45264, 246.91797, 254.66992, 259.24902, 264.34229, 268.69727, 271.1626, 275.31982, 280.59326, 285.68652, 289.50537, 292.55518, 295.68408, 300.26318, 302.44287, 307.53613, 310.58594, 314.40479, 316.87012, 319.91992, 325.01318, 329.59229, " y="1082, ">
				One or many constraints that
		</text>
		<text fill="gray" font-size="9" font-family="Segoe UI" x="217, 221.5791, 226.87012, 232.16113, 234.34082, 238.6958, 241.16113, 244.21094, 249.48438, 251.94971, 257.24072, 262.33398, 267.625, 269.80469, 271.98438, 275.80322, 280.89648, 283.07617, 288.16943, 293.46924, 295.93457, 298.98438, 304.07764, 308.78418, 311.24951, 315.56055, 320.13965, 322.31934, 327.4126, " y="1094, ">
				apply to publishing the value
		</text>
		<text fill="gray" font-size="9" font-family="Segoe UI" x="217, 222.27344, 225.09033, 227.55566, 230.60547, 235.69873, 240.40527, 242.87061, 248.16162, 251.29053, 256.56396, 261.85498, 266.56152, 269.69043, 272.74023, 277.09521, 279.56055, 283.15967, 285.625, 290.33154, 294.4624, 299.75342, 302.88232, 307.58887, 311.40771, 315.22656, 319.93311, " y="1106, ">
				of the property - expressed
		</text>
		<text fill="gray" font-size="9" font-family="Segoe UI" x="217, 222.29102, 226.646, 229.11133, 233.69043, 236.15576, 242.33887, 247.72217, 250.11719, 252.06836, 254.53369, 259.08643, 263.66553, 267.82275, 272.91602, 275.38135, 279.53857, 284.81201, 289.90527, 293.72412, 296.77393, 299.90283, 304.48193, 306.66162, 311.75488, " y="1118, ">
				by a URI. Each constraint
		</text>
		<text fill="gray" font-size="9" font-family="Segoe UI" x="217, 221.5791, 226.87012, 232.16113, 234.34082, 236.52051, 241.22705, 245.0459, 247.51123, 250.56104, 255.83447, 258.2998, 262.87891, 265.05859, 267.23828, 269.70361, 275.00342, 279.70996, 283.52881, 287.68604, 292.39258, 297.48584, 302.78564, 307.36475, 312.45801, " y="1130, ">
				applies to all descendant
		</text>
		<text fill="gray" font-size="9" font-family="Segoe UI" x="217, 221.70654, 223.88623, 228.59277, 236.34473, 241.05127, 246.14453, 249.19434, 253.01318, " y="1142, ">
				elements.
		</text>
		<rect fill="white" x="221" y="1047" width="96" height="16"/>
		<text font-size="12" font-weight="600" font-family="Segoe UI" x="221, 228.44141, 235.70117, 243.14258, 248.90234, 256.23828, 263.49805, 268.77734, 273.44727, 278.22266, 284.67969, 288.08984, 295.34961, 300.01953, 307.2793, 312.10156, " y="1060, ">
				pubconstrainturi
		</text>
		<rect fill="none" stroke="black" stroke-width="1" stroke-linecap="square" stroke-miterlimit="4" transform="translate(0.5 0.5)" x="212" y="1045" width="111" height="20"/>
		<rect fill="silver" x="208" y="1212" width="52" height="21"/>
		<rect fill="white" x="204" y="1208" width="52" height="21"/>
		<rect fill="white" x="209" y="1235" width="121" height="48"/>
		<text fill="gray" font-size="9" font-family="Segoe UI" x="209, 214.80518, 217.27051, 220.39941, 225.10596, 227.92285, 230.10254, 235.1958, 239.90234, 247.6543, 252.36084, 257.4541, 260.50391, 262.96924, 268.24268, 271.05957, 273.5249, 276.57471, 281.66797, 286.37451, 288.83984, 292.65869, 297.36523, 305.11719, 309.69629, 314.78955, 317.83936, 320.01904, 324.17627, " y="1245, ">
				A refinement of the semantics
		</text>
		<text fill="gray" font-size="9" font-family="Segoe UI" x="209, 214.27344, 217.09033, 219.55566, 222.60547, 227.69873, 232.40527, 234.87061, 237.92041, 242.62695, 246.78418, 251.87744, 256.9707, 259.15039, 263.30762, 267.88672, 270.06641, 272.53174, 275.58154, 279.93652, 285.22754, 289.93408, 292.39941, 297.67285, 300.48975, 302.95508, 306.00488, 311.09814, " y="1257, ">
				of the technical type of the
		</text>
		<text fill="gray" font-size="9" font-family="Segoe UI" x="209, 213.70654, 215.88623, 220.59277, 224.75, 227.7998, 230.92871, 236.20215, 241.29541, 243.4751, 247.63232, 250.09766, 254.67676, 259.97656, 265.27637, 268.40527, 273.11182, 276.93066, 280.74951, 283.21484, 286.81396, 289.2793, 293.98584, 298.1167, 303.40771, 306.53662, 311.24316, 315.06201, 318.88086, 323.5874, " y="1269, ">
				electronic address - expressed
		</text>
		<text fill="gray" font-size="9" font-family="Segoe UI" x="209, 214.29102, 218.646, 221.11133, 225.69043, 228.15576, 234.94092, 240.51318, 245.78662, 251.08643, " y="1281, ">
				by a QCode
		</text>
		<rect fill="white" x="213" y="1210" width="36" height="16"/>
		<text font-size="12" font-weight="600" font-family="Segoe UI" x="213, 217.72852, 225.06445, 228.47461, " y="1223, ">
				role
		</text>
		<rect fill="none" stroke="black" stroke-width="1" stroke-linecap="square" stroke-miterlimit="4" transform="translate(0.5 0.5)" x="204" y="1208" width="51" height="20"/>
		<rect fill="silver" x="208" y="1294" width="55" height="21"/>
		<rect fill="white" x="204" y="1290" width="55" height="21"/>
		<rect fill="white" x="209" y="1317" width="121" height="48"/>
		<text fill="gray" font-size="9" font-family="Segoe UI" x="209, 214.80518, 217.27051, 220.39941, 225.10596, 227.92285, 230.10254, 235.1958, 239.90234, 247.6543, 252.36084, 257.4541, 260.50391, 262.96924, 268.24268, 271.05957, 273.5249, 276.57471, 281.66797, 286.37451, 288.83984, 292.65869, 297.36523, 305.11719, 309.69629, 314.78955, 317.83936, 320.01904, 324.17627, " y="1327, ">
				A refinement of the semantics
		</text>
		<text fill="gray" font-size="9" font-family="Segoe UI" x="209, 214.27344, 217.09033, 219.55566, 222.60547, 227.69873, 232.40527, 234.87061, 237.92041, 242.62695, 246.78418, 251.87744, 256.9707, 259.15039, 263.30762, 267.88672, 270.06641, 272.53174, 275.58154, 279.93652, 285.22754, 289.93408, 292.39941, 297.67285, 300.48975, 302.95508, 306.00488, 311.09814, " y="1339, ">
				of the technical type of the
		</text>
		<text fill="gray" font-size="9" font-family="Segoe UI" x="209, 213.70654, 215.88623, 220.59277, 224.75, 227.7998, 230.92871, 236.20215, 241.29541, 243.4751, 247.63232, 250.09766, 254.67676, 259.97656, 265.27637, 268.40527, 273.11182, 276.93066, 280.74951, 283.21484, 286.81396, 289.2793, 293.98584, 298.1167, 303.40771, 306.53662, 311.24316, 315.06201, 318.88086, 323.5874, " y="1351, ">
				electronic address - expressed
		</text>
		<text fill="gray" font-size="9" font-family="Segoe UI" x="209, 214.29102, 218.646, 221.11133, 225.69043, 228.15576, 234.33887, 239.72217, " y="1363, ">
				by a URI
		</text>
		<rect fill="white" x="213" y="1292" width="39" height="16"/>
		<text font-size="12" font-weight="600" font-family="Segoe UI" x="213, 217.72852, 225.06445, 228.47461, 234.9668, 242.22656, 247.04883, " y="1305, ">
				roleuri
		</text>
		<rect fill="none" stroke="black" stroke-width="1" stroke-linecap="square" stroke-miterlimit="4" transform="translate(0.5 0.5)" x="204" y="1290" width="54" height="20"/>
		<rect fill="silver" x="208" y="1376" width="52" height="21"/>
		<rect fill="white" x="204" y="1372" width="52" height="21"/>
		<rect fill="white" x="209" y="1399" width="121" height="36"/>
		<text fill="gray" font-size="9" font-family="Segoe UI" x="209, 213.71533, 218.80859, 223.51514, 225.98047, 229.03027, 233.73682, 237.89404, 242.9873, 248.08057, 250.26025, 254.41748, 258.99658, 261.17627, 263.6416, 267.95264, 272.53174, 275.66064, 277.84033, 282.41943, 287.5127, 290.5625, 293.02783, 298.30127, 301.11816, 303.5835, 306.6333, 311.72656, " y="1409, ">
				The technical variant of the
		</text>
		<text fill="gray" font-size="9" font-family="Segoe UI" x="209, 213.70654, 215.88623, 220.59277, 224.75, 227.7998, 230.92871, 236.20215, 241.29541, 243.4751, 247.63232, 250.09766, 254.67676, 259.97656, 265.27637, 268.40527, 273.11182, 276.93066, 280.74951, 283.21484, 286.81396, 289.2793, 293.98584, 298.1167, 303.40771, 306.53662, 311.24316, 315.06201, 318.88086, 323.5874, " y="1421, ">
				electronic address - expressed
		</text>
		<text fill="gray" font-size="9" font-family="Segoe UI" x="209, 214.29102, 218.646, 221.11133, 225.69043, 228.15576, 234.94092, 240.51318, 245.78662, 251.08643, " y="1433, ">
				by a QCode
		</text>
		<rect fill="white" x="213" y="1374" width="36" height="16"/>
		<text font-size="12" font-weight="600" font-family="Segoe UI" x="213, 217.62305, 224.11523, 229.875, " y="1387, ">
				tech
		</text>
		<rect fill="none" stroke="black" stroke-width="1" stroke-linecap="square" stroke-miterlimit="4" transform="translate(0.5 0.5)" x="204" y="1372" width="51" height="20"/>
		<rect fill="silver" x="208" y="1446" width="57" height="21"/>
		<rect fill="white" x="204" y="1442" width="57" height="21"/>
		<rect fill="white" x="209" y="1469" width="121" height="36"/>
		<text fill="gray" font-size="9" font-family="Segoe UI" x="209, 213.71533, 218.80859, 223.51514, 225.98047, 229.03027, 233.73682, 237.89404, 242.9873, 248.08057, 250.26025, 254.41748, 258.99658, 261.17627, 263.6416, 267.95264, 272.53174, 275.66064, 277.84033, 282.41943, 287.5127, 290.5625, 293.02783, 298.30127, 301.11816, 303.5835, 306.6333, 311.72656, " y="1479, ">
				The technical variant of the
		</text>
		<text fill="gray" font-size="9" font-family="Segoe UI" x="209, 213.70654, 215.88623, 220.59277, 224.75, 227.7998, 230.92871, 236.20215, 241.29541, 243.4751, 247.63232, 250.09766, 254.67676, 259.97656, 265.27637, 268.40527, 273.11182, 276.93066, 280.74951, 283.21484, 286.81396, 289.2793, 293.98584, 298.1167, 303.40771, 306.53662, 311.24316, 315.06201, 318.88086, 323.5874, " y="1491, ">
				electronic address - expressed
		</text>
		<text fill="gray" font-size="9" font-family="Segoe UI" x="209, 214.29102, 218.646, 221.11133, 225.69043, 228.15576, 234.33887, 239.72217, " y="1503, ">
				by a URI
		</text>
		<rect fill="white" x="213" y="1444" width="41" height="16"/>
		<text font-size="12" font-weight="600" font-family="Segoe UI" x="213, 217.62305, 224.11523, 229.875, 237.09961, 244.35938, 249.18164, " y="1457, ">
				techuri
		</text>
		<rect fill="none" stroke="black" stroke-width="1" stroke-linecap="square" stroke-miterlimit="4" transform="translate(0.5 0.5)" x="204" y="1442" width="56" height="20"/>
		<path fill="silver" d="M208 1521L213 1516L281 1516L286 1521L286 1532L281 1537L213 1537L208 1532L208 1521Z"/>
		<path fill="white" d="M204 1517L209 1512L277 1512L282 1517L282 1528L277 1533L209 1533L204 1528L204 1517Z"/>
		<rect fill="white" x="231" y="1514" width="46" height="16"/>
		<text font-size="12" font-weight="600" font-family="Segoe UI" x="231, 238.10742, 245.21484, 252.55078, 257.2207, 264.44531, 270.9375, " y="1527, ">
				##other
		</text>
		<rect fill="white" x="209" y="1514" width="20" height="16"/>
		<text fill="gray" font-size="12" font-family="Segoe UI" x="209, 215.10547, 221.89648, " y="1527, ">
				any
		</text>
		<path fill="none" stroke="black" stroke-width="1" stroke-linecap="square" stroke-miterlimit="4" transform="translate(0.5 0.5)" d="M204 1517L209 1512L276 1512L281 1517L281 1527L276 1532L209 1532L204 1527L204 1517Z"/>
		<rect x="195" y="5" width="11" height="11"/>
		<rect fill="white" x="196" y="6" width="9" height="9"/>
		<rect x="197" y="10" width="7" height="1"/>
		<rect x="166" y="767" width="11" height="11"/>
		<rect fill="white" x="167" y="768" width="9" height="9"/>
		<rect x="168" y="772" width="7" height="1"/>
	</g>
</svg>
