<?xml version="1.0" encoding="utf-8" ?>
<svg xmlns="http://www.w3.org/2000/svg" xmlns:xlink="http://www.w3.org/1999/xlink" width="392" height="2910">
	<clipPath id="cl_6dd">
		<rect x="-10" y="-5" width="392" height="2910"/>
	</clipPath>
	<g clip-path="url(#cl_6dd)">
		<rect fill="#FFFFC0" x="135" width="237" height="2900"/>
		<rect fill="none" stroke="gray" stroke-width="1" stroke-linecap="square" stroke-miterlimit="4" transform="translate(0.5 0.5)" x="135" width="236" height="2899"/>
		<path fill="none" stroke="black" stroke-width="1" stroke-linecap="square" stroke-miterlimit="4" transform="translate(0.5 0.5)" d="M67 2030L147 2030"/>
		<path fill="none" stroke="black" stroke-width="1" stroke-linecap="square" stroke-miterlimit="4" transform="translate(0.5 0.5)" d="M148 2030L148 1214"/>
		<path fill="none" stroke="black" stroke-width="1" stroke-linecap="square" stroke-miterlimit="4" transform="translate(0.5 0.5)" d="M148 2030L148 2846"/>
		<path transform="translate(0.5 0.5)" d="M148 2442.5L150 2442.5L150.5 2442.5L150.5 2443.5L150 2443.5L147.5 2443.5L147.5 2442.5L148 2442.5ZM154 2442.5L156 2442.5L156.5 2442.5L156.5 2443.5L156 2443.5L153.5 2443.5L153.5 2442.5L154 2442.5ZM160 2442.5L162.5 2442.5L162.5 2443.5L159.5 2443.5L159.5 2442.5L160 2442.5Z"/>
		<path transform="translate(0.5 0.5)" d="M148 2684.5L150 2684.5L150.5 2684.5L150.5 2685.5L150 2685.5L147.5 2685.5L147.5 2684.5L148 2684.5ZM154 2684.5L156 2684.5L156.5 2684.5L156.5 2685.5L156 2685.5L153.5 2685.5L153.5 2684.5L154 2684.5ZM160 2684.5L162.5 2684.5L162.5 2685.5L159.5 2685.5L159.5 2684.5L160 2684.5Z"/>
		<path fill="none" stroke="black" stroke-width="1" stroke-linecap="square" stroke-miterlimit="4" transform="translate(0.5 0.5)" d="M148 2847L162 2847"/>
		<path fill="none" stroke="black" stroke-width="1" stroke-linecap="square" stroke-miterlimit="4" transform="translate(0.5 0.5)" d="M148 1213L162 1213"/>
		<rect fill="silver" x="4" y="2024" width="62" height="21"/>
		<rect fill="white" y="2020" width="62" height="21"/>
		<rect fill="#FFFFC0" x="143" y="8" width="140" height="16"/>
		<text fill="gray" font-size="12" font-weight="600" font-family="Segoe UI" x="143, 149.24023, 152.65039, 159.14258, 165.76953, 173.30469, 179.79688, 183.20703, 189.66406, 194.28711, 200.7793, 208.20898, 215.69727, 223.0332, 230.29297, 236.05273, 242.54492, 249.98633, 254.65625, 261.14844, 267.60547, 275.04688, " y="21, ">
				FlexRelatedConceptType
		</text>
		<rect fill="white" x="5" y="2047" width="115" height="48"/>
		<text fill="gray" font-size="9" font-family="Segoe UI" x="5, 10.805176, 13.270508, 16.399414, 21.105957, 23.285645, 27.864746, 30.914551, 35.621094, 40.920898, 43.38623, 47.543457, 52.816895, 57.910156, 62.067383, 66.773926, 72.064941, 75.114746, 77.065918, 79.53125, 86.035156, 91.128418, 95.834961, 98.963867, 103.67041, 106.13574, 109.18555, 114.27881, " y="2057, ">
				A related concept, where the
		</text>
		<text fill="gray" font-size="9" font-family="Segoe UI" x="5, 8.1289062, 12.835449, 15.015137, 19.594238, 22.644043, 24.82373, 30.097168, 35.19043, 39.009277, 44.102539, 46.282227, 51.573242, 54.038574, 56.218262, 60.037109, 62.502441, 67.802246, 69.981934, 72.798828, 75.615723, 80.322266, 83.451172, 88.157715, 93.250977, 96.300781, 98.766113, 101.58301, 104.71191, 109.98535, " y="2069, ">
				relationship is different from
		</text>
		<text fill="gray" font-size="9" font-family="Segoe UI" x="5, 7.0698242, 10.888672, 15.467773, 23.219727, 27.92627, 33.731445, 37.550293, 39.620117, 41.571289, 44.036621, 46.106445, 51.397461, 54.526367, 59.799805, 64.378906, 69.678711, 74.385254, 77.51416, 79.583984, 82.049316, 87.322754, " y="2081, ">
				&apos;sameAs&apos;, &apos;broader&apos; or
		</text>
		<text fill="gray" font-size="9" font-family="Segoe UI" x="5, 7.0698242, 12.163086, 16.742188, 19.871094, 23, 28.273438, 34.777344, 39.483887, 42.612793, 44.682617, " y="2093, ">
				&apos;narrower&apos;.
		</text>
		<rect fill="white" x="9" y="2022" width="41" height="16"/>
		<text font-size="12" font-weight="600" font-family="Segoe UI" x="9, 13.728516, 20.220703, 23.630859, 30.087891, 34.710938, 41.203125, " y="2035, ">
				related
		</text>
		<rect fill="none" stroke="black" stroke-width="1" stroke-linecap="square" stroke-miterlimit="4" transform="translate(0.5 0.5)" y="2020" width="61" height="20"/>
		<path fill="white" d="M240 55L240 36L163 36L163 55L163 2389L310 2389L310 55L240 55Z"/>
		<rect fill="white" x="183" y="38" width="51" height="16"/>
		<text font-size="12" font-style="italic" font-family="Segoe UI" x="183, 189.50391, 193.38281, 197.26172, 201.5332, 204.63867, 211.14258, 217.83984, 221.73047, 227.57227, " y="51, ">
				attributes
		</text>
		<path fill="none" stroke="black" stroke-width="1" stroke-linecap="square" stroke-miterlimit="4" transform="translate(0.5 0.5)" d="M240 55L240 36L163 36L163 55L163 2389L310 2389L310 55L240 55Z"/>
		<rect fill="silver" x="181" y="68" width="52" height="21"/>
		<rect fill="white" x="177" y="64" width="52" height="21"/>
		<rect fill="white" x="182" y="91" width="101" height="24"/>
		<text fill="gray" font-size="9" font-family="Segoe UI" x="182, 186.71533, 191.80859, 196.51514, 198.98047, 201.16016, 206.43359, 210.59082, 215.16992, 217.34961, 219.81494, 221.99463, 227.29443, 232.00098, 237.09424, 240.14404, 242.32373, 245.14062, 247.32031, 252.02686, 255.15576, 257.62109, 262.89453, 265.71143, 268.17676, 271.22656, 276.31982, " y="101, ">
				The local identifier of the
		</text>
		<text fill="gray" font-size="9" font-family="Segoe UI" x="182, 187.29102, 190.41992, 195.69336, 200.98438, 205.69092, 208.81982, 211.86963, 216.22461, " y="113, ">
				property.
		</text>
		<rect fill="white" x="186" y="66" width="36" height="16"/>
		<text font-size="12" font-weight="600" font-family="Segoe UI" x="186, 189.41016, " y="79, ">
				id
		</text>
		<rect fill="none" stroke="black" stroke-width="1" stroke-linecap="square" stroke-miterlimit="4" transform="translate(0.5 0.5)" x="177" y="64" width="51" height="20"/>
		<rect fill="silver" x="181" y="126" width="58" height="21"/>
		<rect fill="white" x="177" y="122" width="58" height="21"/>
		<rect fill="white" x="182" y="149" width="121" height="120"/>
		<text fill="gray" font-size="9" font-family="Segoe UI" x="182, 184.39502, 187.21191, 189.67725, 192.72705, 197.82031, 202.52686, 204.99219, 210.2832, 213.41211, 218.68555, 223.97656, 228.68311, 231.81201, 234.86182, 239.2168, 241.68213, 245.99316, 250.57227, 252.75195, 257.84521, 262.55176, 265.01709, 267.19678, 271.01562, 273.48096, 278.57422, 283.84766, " y="159, ">
				If the property value is not
		</text>
		<text fill="gray" font-size="9" font-family="Segoe UI" x="182, 187.2998, 192.00635, 194.82324, 197.00293, 202.09619, 206.80273, 212.10254, 214.05371, 216.51904, 220.33789, 225.62891, 230.33545, 234.49268, 236.67236, 239.48926, 241.66895, 246.37549, 250.19434, 252.65967, 259.16357, 264.25684, 266.43652, 270.59375, 275.68701, 278.15234, 282.85889, 287.95215, 291.00195, 293.18164, 296.23145, " y="171, ">
				defined, specifies which entity
		</text>
		<text fill="gray" font-size="9" font-family="Segoe UI" x="182, 184.71582, 190.00684, 194.71338, 197.84229, 201.66113, 206.93457, 212.02783, 213.979, 216.44434, 221.71777, 224.84668, 230.14648, 234.72559, 239.81885, 241.99854, 245.81738, 250.39648, 253.44629, 255.62598, 260.89941, 265.99268, 268.45801, 273.73145, " y="183, ">
				(person, organisation or
		</text>
		<text fill="gray" font-size="9" font-family="Segoe UI" x="182, 185.81885, 190.17383, 193.99268, 197.04248, 201.74902, 209.50098, 212.2168, 214.68213, 221.18604, 223.36572, 225.54541, 227.7251, 230.19043, 234.89697, 240.19678, 242.37646, 245.42627, 247.8916, 250.94141, 256.03467, 260.74121, 263.20654, 268.49756, 271.62646, 276.8999, 282.19092, 286.89746, 290.02637, 293.07617, " y="195, ">
				system) will edit the property
		</text>
		<text fill="gray" font-size="9" font-family="Segoe UI" x="182, 186.31104, 190.89014, 193.06982, 198.16309, 202.86963, 205.33496, 208.93408, 211.39941, 216.10596, 220.23682, 225.52783, 228.65674, 233.36328, 237.18213, 241.00098, 245.70752, 251.00732, 253.47266, 258.76367, 263.11865, 265.58398, 270.16309, 272.62842, 279.41357, 284.98584, 290.25928, 295.55908, 300.26562, " y="207, ">
				value - expressed by a QCode.
		</text>
		<text fill="gray" font-size="9" font-family="Segoe UI" x="182, 184.39502, 187.21191, 189.67725, 192.72705, 197.82031, 202.52686, 204.99219, 210.2832, 213.41211, 218.68555, 223.97656, 228.68311, 231.81201, 234.86182, 239.2168, 241.68213, 245.99316, 250.57227, 252.75195, 257.84521, 262.55176, 265.01709, 267.19678, " y="219, ">
				If the property value is
		</text>
		<text fill="gray" font-size="9" font-family="Segoe UI" x="182, 187.2998, 192.00635, 194.82324, 197.00293, 202.09619, 206.80273, 212.10254, 214.05371, 216.51904, 220.33789, 225.62891, 230.33545, 234.49268, 236.67236, 239.48926, 241.66895, 246.37549, 250.19434, 252.65967, 259.16357, 264.25684, 266.43652, 270.59375, 275.68701, 278.15234, 282.85889, 287.95215, 291.00195, 293.18164, 296.23145, " y="231, ">
				defined, specifies which entity
		</text>
		<text fill="gray" font-size="9" font-family="Segoe UI" x="182, 184.71582, 190.00684, 194.71338, 197.84229, 201.66113, 206.93457, 212.02783, 213.979, 216.44434, 221.71777, 224.84668, 230.14648, 234.72559, 239.81885, 241.99854, 245.81738, 250.39648, 253.44629, 255.62598, 260.89941, 265.99268, 268.45801, 273.73145, " y="243, ">
				(person, organisation or
		</text>
		<text fill="gray" font-size="9" font-family="Segoe UI" x="182, 185.81885, 190.17383, 193.99268, 197.04248, 201.74902, 209.50098, 212.2168, 214.68213, 219.77539, 224.35449, 228.17334, 230.63867, 235.34521, 240.64502, 242.82471, 245.87451, 250.58105, 255.88086, 258.34619, 261.396, 266.48926, " y="255, ">
				system) has edited the
		</text>
		<text fill="gray" font-size="9" font-family="Segoe UI" x="182, 187.29102, 190.41992, 195.69336, 200.98438, 205.69092, 208.81982, 211.86963, 216.22461, 218.68994, 223.00098, 227.58008, 229.75977, 234.85303, 239.55957, " y="267, ">
				property value.
		</text>
		<rect fill="white" x="186" y="124" width="42" height="16"/>
		<text font-size="12" font-weight="600" font-family="Segoe UI" x="186, 191.75977, 196.48828, 202.98047, 209.4375, 214.06055, 221.39648, " y="137, ">
				creator
		</text>
		<rect fill="none" stroke="black" stroke-width="1" stroke-linecap="square" stroke-miterlimit="4" transform="translate(0.5 0.5)" x="177" y="122" width="57" height="20"/>
		<rect fill="silver" x="181" y="280" width="73" height="21"/>
		<rect fill="white" x="177" y="276" width="73" height="21"/>
		<rect fill="white" x="182" y="303" width="120" height="108"/>
		<text fill="gray" font-size="9" font-family="Segoe UI" x="182, 184.39502, 187.21191, 189.67725, 192.72705, 197.82031, 202.52686, 204.99219, 210.2832, 213.41211, 218.68555, 223.97656, 228.68311, 231.81201, 234.86182, 239.2168, 241.68213, 245.99316, 250.57227, 252.75195, 257.84521, 262.55176, 265.01709, 267.19678, 271.01562, 273.48096, 278.57422, 283.84766, " y="313, ">
				If the property value is not
		</text>
		<text fill="gray" font-size="9" font-family="Segoe UI" x="182, 187.2998, 192.00635, 194.82324, 197.00293, 202.09619, 206.80273, 212.10254, 214.05371, 216.51904, 220.33789, 225.62891, 230.33545, 234.49268, 236.67236, 239.48926, 241.66895, 246.37549, 250.19434, 252.65967, 259.16357, 264.25684, 266.43652, 270.59375, 275.68701, 278.15234, 282.85889, 287.95215, 291.00195, 293.18164, 296.23145, " y="325, ">
				defined, specifies which entity
		</text>
		<text fill="gray" font-size="9" font-family="Segoe UI" x="182, 184.71582, 190.00684, 194.71338, 197.84229, 201.66113, 206.93457, 212.02783, 213.979, 216.44434, 221.71777, 224.84668, 230.14648, 234.72559, 239.81885, 241.99854, 245.81738, 250.39648, 253.44629, 255.62598, 260.89941, 265.99268, 268.45801, 273.73145, " y="337, ">
				(person, organisation or
		</text>
		<text fill="gray" font-size="9" font-family="Segoe UI" x="182, 185.81885, 190.17383, 193.99268, 197.04248, 201.74902, 209.50098, 212.2168, 214.68213, 221.18604, 223.36572, 225.54541, 227.7251, 230.19043, 234.89697, 240.19678, 242.37646, 245.42627, 247.8916, 250.94141, 256.03467, 260.74121, 263.20654, 268.49756, 271.62646, 276.8999, 282.19092, 286.89746, 290.02637, 293.07617, " y="349, ">
				system) will edit the property
		</text>
		<text fill="gray" font-size="9" font-family="Segoe UI" x="182, 185.59912, 188.06445, 192.771, 196.90186, 202.19287, 205.32178, 210.02832, 213.84717, 217.66602, 222.37256, 227.67236, 230.1377, 235.42871, 239.78369, 242.24902, 246.82812, 249.29346, 255.47656, 260.85986, 263.25488, 265.20605, 267.67139, 270.06641, 272.8833, 275.34863, 278.39844, 283.4917, " y="361, ">
				- expressed by a URI. If the
		</text>
		<text fill="gray" font-size="9" font-family="Segoe UI" x="182, 187.29102, 190.41992, 195.69336, 200.98438, 205.69092, 208.81982, 211.86963, 216.22461, 218.68994, 223.00098, 227.58008, 229.75977, 234.85303, 239.55957, 242.0249, 244.20459, 248.02344, 250.48877, 255.78857, 260.49512, 263.31201, 265.4917, 270.58496, 275.2915, 280.59131, " y="373, ">
				property value is defined,
		</text>
		<text fill="gray" font-size="9" font-family="Segoe UI" x="182, 185.81885, 191.10986, 195.81641, 199.97363, 202.15332, 204.97021, 207.1499, 211.85645, 215.67529, 218.14062, 224.64453, 229.73779, 231.91748, 236.07471, 241.16797, 243.6333, 248.33984, 253.43311, 256.48291, 258.6626, 261.7124, 266.06738, 268.53271, 271.24854, 276.53955, 281.24609, 284.375, 288.19385, 293.46729, 298.56055, " y="385, ">
				specifies which entity (person,
		</text>
		<text fill="gray" font-size="9" font-family="Segoe UI" x="182, 187.27344, 190.40234, 195.70215, 200.28125, 205.37451, 207.5542, 211.37305, 215.95215, 219.00195, 221.18164, 226.45508, 231.54834, 234.01367, 239.28711, 242.41602, 244.88135, 248.7002, 253.05518, 256.87402, 259.92383, 264.63037, 272.38232, 275.09814, 277.56348, 282.65674, 287.23584, " y="397, ">
				organisation or system) has
		</text>
		<text fill="gray" font-size="9" font-family="Segoe UI" x="182, 186.70654, 192.00635, 194.18604, 197.23584, 201.94238, 207.24219, 209.70752, 212.75732, 217.85059, 222.55713, 225.02246, 230.31348, 233.44238, 238.71582, 244.00684, 248.71338, 251.84229, 254.89209, 259.24707, " y="409, ">
				edited the property.
		</text>
		<rect fill="white" x="186" y="278" width="57" height="16"/>
		<text font-size="12" font-weight="600" font-family="Segoe UI" x="186, 191.75977, 196.48828, 202.98047, 209.4375, 214.06055, 221.39648, 226.20703, 233.4668, 238.28906, " y="291, ">
				creatoruri
		</text>
		<rect fill="none" stroke="black" stroke-width="1" stroke-linecap="square" stroke-miterlimit="4" transform="translate(0.5 0.5)" x="177" y="276" width="72" height="20"/>
		<rect fill="silver" x="181" y="422" width="69" height="21"/>
		<rect fill="white" x="177" y="418" width="69" height="21"/>
		<rect fill="white" x="182" y="445" width="119" height="72"/>
		<text fill="gray" font-size="9" font-family="Segoe UI" x="182, 186.71533, 191.80859, 196.51514, 198.98047, 204.28027, 208.85938, 211.90918, 216.61572, 219.08105, 221.79688, 226.37598, 231.46924, 236.76904, 238.72021, 241.18555, 246.45898, 251.75, 254.7998, 256.97949, 262.25293, 267.34619, 271.92529, 274.10498, 276.28467, 280.63965, 282.59082, 285.05615, 288.10596, 293.19922, " y="455, ">
				The date (and, optionally, the
		</text>
		<text fill="gray" font-size="9" font-family="Segoe UI" x="182, 185.0498, 187.22949, 194.98145, 199.68799, 202.40381, 204.86914, 211.37305, 216.46631, 221.17285, 226.26611, 228.73145, 231.78125, 236.87451, 241.58105, 244.04639, 249.3374, 252.46631, 257.73975, 263.03076, 267.7373, 270.86621, 273.91602, 278.271, 280.73633, 287.24023, 291.81934, " y="467, ">
				time) when the property was
		</text>
		<text fill="gray" font-size="9" font-family="Segoe UI" x="182, 184.17969, 188.75879, 192.57764, 195.62744, 198.09277, 205.84473, 211.11816, 216.41797, 218.59766, 221.41455, 223.59424, 228.30078, 233.60059, 235.55176, 238.01709, 242.73242, 247.82568, 252.53223, 254.99756, 257.17725, 262.27051, 264.4502, 267.5, 269.67969, 274.25879, 276.43848, 278.90381, 283.21484, 287.79395, 289.97363, 295.06689, " y="479, ">
				last modified. The initial value
		</text>
		<text fill="gray" font-size="9" font-family="Segoe UI" x="182, 184.17969, 187.99854, 190.46387, 193.51367, 198.60693, 203.31348, 205.77881, 211.07861, 215.65771, 218.70752, 223.41406, 225.87939, 228.59521, 233.17432, 238.26758, 243.56738, 245.51855, 247.98389, 253.25732, 258.54834, 261.59814, 263.77783, 269.05127, 274.14453, 278.72363, 280.90332, 283.08301, 287.43799, " y="491, ">
				is the date (and, optionally,
		</text>
		<text fill="gray" font-size="9" font-family="Segoe UI" x="182, 185.0498, 190.14307, 194.84961, 197.31494, 200.36475, 202.54443, 210.29639, 215.00293, 217.71875, 220.18408, 225.45752, 228.27441, 230.73975, 234.89697, 238.02588, 242.73242, 247.31152, 250.36133, 252.54102, 257.81445, 262.90771, 265.37305, 270.64648, 273.46338, 275.92871, 278.97852, 284.07178, " y="503, ">
				the time) of creation of the
		</text>
		<text fill="gray" font-size="9" font-family="Segoe UI" x="182, 187.29102, 190.41992, 195.69336, 200.98438, 205.69092, 208.81982, 211.86963, 216.22461, " y="515, ">
				property.
		</text>
		<rect fill="white" x="186" y="420" width="53" height="16"/>
		<text font-size="12" font-weight="600" font-family="Segoe UI" x="186, 196.99219, 204.32812, 211.75781, 215.16797, 219.76758, 223.17773, 229.66992, " y="433, ">
				modified
		</text>
		<rect fill="none" stroke="black" stroke-width="1" stroke-linecap="square" stroke-miterlimit="4" transform="translate(0.5 0.5)" x="177" y="418" width="68" height="20"/>
		<rect fill="silver" x="181" y="528" width="59" height="21"/>
		<rect fill="white" x="177" y="524" width="59" height="21"/>
		<rect fill="white" x="182" y="551" width="118" height="108"/>
		<text fill="gray" font-size="9" font-family="Segoe UI" x="182, 184.39502, 187.21191, 189.67725, 193.49609, 198.20264, 201.25244, 203.71777, 206.76758, 212.04102, 214.50635, 217.55615, 220.68506, 225.77832, 230.48486, 232.9502, 236, 241.09326, " y="561, ">
				If set to true the
		</text>
		<text fill="gray" font-size="9" font-family="Segoe UI" x="182, 186.15723, 191.43066, 194.55957, 197.68848, 202.39502, 206.21387, 211.50488, 216.77832, 221.87158, 227.17139, 229.35107, 234.44434, 239.74414, 242.20947, 247.50049, 250.62939, 255.90283, 261.19385, 265.90039, 269.0293, 272.0791, 276.43408, 278.89941, 285.40332, 289.98242, " y="573, ">
				corresponding property was
		</text>
		<text fill="gray" font-size="9" font-family="Segoe UI" x="182, 186.5791, 191.87891, 197.17871, 201.88525, 207.18506, 209.65039, 212.7002, 217.97363, 220.43896, 223.48877, 228.58203, 233.28857, 235.75391, 241.92822, 246.77979, 249.24512, 251.64014, 254.68994, 259.39648, 267.14844, 269.61377, 272.43066, 277.7041, 280.83301, 283.29834, " y="585, ">
				added to the G2 Item for a
		</text>
		<text fill="gray" font-size="9" font-family="Segoe UI" x="182, 185.81885, 191.10986, 195.81641, 199.97363, 202.15332, 204.97021, 207.1499, 211.30713, 213.77246, 217.92969, 223.02295, 226.8418, 229.8916, 235.16504, 242.91699, 247.62354, 250.75244, 253.21777, 258.49121, 261.62012, 264.08545, 269.38525, 272.51416, 277.7876, 282.88086, 288.17188, 290.63721, 295.91064, " y="597, ">
				specific customer or group of
		</text>
		<text fill="gray" font-size="9" font-family="Segoe UI" x="182, 186.15723, 191.25049, 195.06934, 198.11914, 203.39258, 211.14453, 215.85107, 218.97998, 222.79883, 225.26416, 230.5376, 235.63086, 237.81055, 242.16553, 244.1167, 246.58203, 251.29736, 256.39062, 261.09717, 263.5625, 268.8623, 273.56885, 276.38574, 280.96484, 286.05811, 288.23779, " y="609, ">
				customers only. The default
		</text>
		<text fill="gray" font-size="9" font-family="Segoe UI" x="182, 186.31104, 190.89014, 193.06982, 198.16309, 202.86963, 205.33496, 210.6084, 213.42529, 215.89062, 218.94043, 224.03369, 226.21338, 230.03223, 232.49756, 237.78857, 240.91748, 246.19092, 251.48193, 256.18848, 259.31738, 262.36719, 266.72217, 269.1875, 271.36719, 275.18604, 277.65137, 280.46826, 285.04736, 287.22705, 291.0459, " y="621, ">
				value of this property is false
		</text>
		<text fill="gray" font-size="9" font-family="Segoe UI" x="182, 188.50391, 193.59717, 195.77686, 199.93408, 205.02734, 207.49268, 212.07178, 217.36279, 222.65381, 224.8335, 227.01318, 231.71973, 235.53857, 238.00391, 244.50781, 249.60107, 254.30762, 259.40088, 261.86621, 264.91602, 270.00928, 272.18896, " y="633, ">
				which applies when this
		</text>
		<text fill="gray" font-size="9" font-family="Segoe UI" x="182, 186.5791, 189.62891, 192.67871, 195.80762, 197.9873, 203.27832, 208.37158, 211.42139, 216.12793, 218.59326, 220.77295, 224.5918, 227.05713, 232.15039, 237.42383, 240.47363, 242.93896, 248.03223, 251.85107, 256.55762, 261.85742, 264.32275, 270.82666, 273.00635, 276.05615, 281.14941, 283.61475, 286.66455, 291.75781, " y="645, ">
				attribute is not used with the
		</text>
		<text fill="gray" font-size="9" font-family="Segoe UI" x="182, 187.29102, 190.41992, 195.69336, 200.98438, 205.69092, 208.81982, 211.86963, 216.22461, " y="657, ">
				property.
		</text>
		<rect fill="white" x="186" y="526" width="43" height="16"/>
		<text font-size="12" font-weight="600" font-family="Segoe UI" x="186, 191.75977, 199.01953, 204.29883, 208.92188, 216.25781, " y="539, ">
				custom
		</text>
		<rect fill="none" stroke="black" stroke-width="1" stroke-linecap="square" stroke-miterlimit="4" transform="translate(0.5 0.5)" x="177" y="524" width="58" height="20"/>
		<rect fill="silver" x="181" y="670" width="52" height="21"/>
		<rect fill="white" x="177" y="666" width="52" height="21"/>
		<rect fill="white" x="182" y="693" width="118" height="48"/>
		<text fill="gray" font-size="9" font-family="Segoe UI" x="182, 184.39502, 189.48828, 194.78809, 196.96777, 201.125, 205.7041, 208.75391, 213.46045, 217.2793, 219.74463, 225.03564, 229.39062, 231.85596, 238.35986, 243.45312, 245.63281, 249.79004, 254.8833, 257.34863, 265.10059, 269.80713, 274.38623, 279.47949, 283.29834, 285.76367, 288.81348, 293.90674, " y="703, ">
				Indicates by which means the
		</text>
		<text fill="gray" font-size="9" font-family="Segoe UI" x="182, 186.31104, 190.89014, 193.06982, 198.16309, 202.86963, 205.33496, 211.83887, 216.41797, 220.23682, 222.70215, 227.40869, 231.53955, 234.58936, 237.71826, 242.29736, 246.45459, 249.50439, 254.21094, 259.51074, 261.97607, 264.79297, 267.92188, 273.19531, 280.94727, 283.4126, 286.4624, 291.55566, " y="715, ">
				value was extracted from the
		</text>
		<text fill="gray" font-size="9" font-family="Segoe UI" x="182, 186.15723, 191.43066, 196.52393, 199.57373, 204.28027, 209.37354, 212.42334, 214.88867, 218.48779, 220.95312, 225.65967, 229.79053, 235.08154, 238.21045, 242.91699, 246.73584, 250.55469, 255.26123, 260.56104, 263.02637, 268.31738, 272.67236, 275.1377, " y="727, ">
				content - expressed by a
		</text>
		<text fill="gray" font-size="9" font-family="Segoe UI" x="182, 188.78516, 194.35742, 199.63086, 204.93066, " y="739, ">
				QCode
		</text>
		<rect fill="white" x="186" y="668" width="36" height="16"/>
		<text font-size="12" font-weight="600" font-family="Segoe UI" x="186, 193.22461, 200.56055, " y="681, ">
				how
		</text>
		<rect fill="none" stroke="black" stroke-width="1" stroke-linecap="square" stroke-miterlimit="4" transform="translate(0.5 0.5)" x="177" y="666" width="51" height="20"/>
		<rect fill="silver" x="181" y="752" width="57" height="21"/>
		<rect fill="white" x="177" y="748" width="57" height="21"/>
		<rect fill="white" x="182" y="775" width="118" height="36"/>
		<text fill="gray" font-size="9" font-family="Segoe UI" x="182, 184.39502, 189.48828, 194.78809, 196.96777, 201.125, 205.7041, 208.75391, 213.46045, 217.2793, 219.74463, 225.03564, 229.39062, 231.85596, 238.35986, 243.45312, 245.63281, 249.79004, 254.8833, 257.34863, 265.10059, 269.80713, 274.38623, 279.47949, 283.29834, 285.76367, 288.81348, 293.90674, " y="785, ">
				Indicates by which means the
		</text>
		<text fill="gray" font-size="9" font-family="Segoe UI" x="182, 186.31104, 190.89014, 193.06982, 198.16309, 202.86963, 205.33496, 211.83887, 216.41797, 220.23682, 222.70215, 227.40869, 231.53955, 234.58936, 237.71826, 242.29736, 246.45459, 249.50439, 254.21094, 259.51074, 261.97607, 264.79297, 267.92188, 273.19531, 280.94727, 283.4126, 286.4624, 291.55566, " y="797, ">
				value was extracted from the
		</text>
		<text fill="gray" font-size="9" font-family="Segoe UI" x="182, 186.15723, 191.43066, 196.52393, 199.57373, 204.28027, 209.37354, 212.42334, 214.88867, 218.48779, 220.95312, 225.65967, 229.79053, 235.08154, 238.21045, 242.91699, 246.73584, 250.55469, 255.26123, 260.56104, 263.02637, 268.31738, 272.67236, 275.1377, 279.7168, 282.18213, 288.36523, 293.74854, " y="809, ">
				content - expressed by a URI
		</text>
		<rect fill="white" x="186" y="750" width="41" height="16"/>
		<text font-size="12" font-weight="600" font-family="Segoe UI" x="186, 193.22461, 200.56055, 210.12891, 217.38867, 222.21094, " y="763, ">
				howuri
		</text>
		<rect fill="none" stroke="black" stroke-width="1" stroke-linecap="square" stroke-miterlimit="4" transform="translate(0.5 0.5)" x="177" y="748" width="56" height="20"/>
		<rect fill="silver" x="181" y="822" width="52" height="21"/>
		<rect fill="white" x="177" y="818" width="52" height="21"/>
		<rect fill="white" x="182" y="845" width="113" height="36"/>
		<text fill="gray" font-size="9" font-family="Segoe UI" x="182, 190.40674, 195.5, 199.85498, 202.32031, 205.37012, 210.46338, 215.16992, 217.63525, 225.38721, 230.09375, 233.14355, 237.72266, 243.02246, 247.60156, 250.65137, 255.23047, 257.6958, 262.78906, 267.36816, 271.18701, 273.65234, 278.94336, 283.6499, 288.35645, " y="855, ">
				Why the metadata has been
		</text>
		<text fill="gray" font-size="9" font-family="Segoe UI" x="182, 184.17969, 189.27295, 193.43018, 195.60986, 200.70312, 206.00293, 210.70947, 216.00928, 218.47461, 222.07373, 224.53906, 229.24561, 233.37646, 238.66748, 241.79639, 246.50293, 250.32178, 254.14062, 258.84717, 264.14697, 266.6123, 271.90332, 276.2583, 278.72363, " y="867, ">
				included - expressed by a
		</text>
		<text fill="gray" font-size="9" font-family="Segoe UI" x="182, 188.78516, 194.35742, 199.63086, 204.93066, " y="879, ">
				QCode
		</text>
		<rect fill="white" x="186" y="820" width="36" height="16"/>
		<text font-size="12" font-weight="600" font-family="Segoe UI" x="186, 195.56836, 202.79297, " y="833, ">
				why
		</text>
		<rect fill="none" stroke="black" stroke-width="1" stroke-linecap="square" stroke-miterlimit="4" transform="translate(0.5 0.5)" x="177" y="818" width="51" height="20"/>
		<rect fill="silver" x="181" y="892" width="56" height="21"/>
		<rect fill="white" x="177" y="888" width="56" height="21"/>
		<rect fill="white" x="182" y="915" width="119" height="24"/>
		<text fill="gray" font-size="9" font-family="Segoe UI" x="182, 190.40674, 195.5, 199.85498, 202.32031, 205.37012, 210.46338, 215.16992, 217.63525, 225.38721, 230.09375, 233.14355, 237.72266, 243.02246, 247.60156, 250.65137, 255.23047, 257.6958, 262.78906, 267.36816, 271.18701, 273.65234, 278.94336, 283.6499, 288.35645, " y="925, ">
				Why the metadata has been
		</text>
		<text fill="gray" font-size="9" font-family="Segoe UI" x="182, 184.17969, 189.27295, 193.43018, 195.60986, 200.70312, 206.00293, 210.70947, 216.00928, 218.47461, 222.07373, 224.53906, 229.24561, 233.37646, 238.66748, 241.79639, 246.50293, 250.32178, 254.14062, 258.84717, 264.14697, 266.6123, 271.90332, 276.2583, 278.72363, 283.30273, 285.76807, 291.95117, 297.33447, " y="937, ">
				included - expressed by a URI
		</text>
		<rect fill="white" x="186" y="890" width="40" height="16"/>
		<text font-size="12" font-weight="600" font-family="Segoe UI" x="186, 195.56836, 202.79297, 209.25, 216.50977, 221.33203, " y="903, ">
				whyuri
		</text>
		<rect fill="none" stroke="black" stroke-width="1" stroke-linecap="square" stroke-miterlimit="4" transform="translate(0.5 0.5)" x="177" y="888" width="55" height="20"/>
		<rect fill="silver" x="181" y="950" width="97" height="21"/>
		<rect fill="white" x="177" y="946" width="97" height="21"/>
		<rect fill="white" x="182" y="973" width="117" height="72"/>
		<text fill="gray" font-size="9" font-family="Segoe UI" x="182, 188.78516, 193.87842, 198.58496, 201.05029, 206.32373, 209.45264, 211.91797, 219.66992, 224.24902, 229.34229, 233.69727, 236.1626, 240.31982, 245.59326, 250.68652, 254.50537, 257.55518, 260.68408, 265.26318, 267.44287, 272.53613, 275.58594, 279.40479, 281.87012, 284.91992, 290.01318, 294.59229, " y="983, ">
				One or many constraints that
		</text>
		<text fill="gray" font-size="9" font-family="Segoe UI" x="182, 186.5791, 191.87012, 197.16113, 199.34082, 203.6958, 206.16113, 209.21094, 214.48438, 216.94971, 222.24072, 227.33398, 232.625, 234.80469, 236.98438, 240.80322, 245.89648, 248.07617, 253.16943, 258.46924, 260.93457, 263.98438, 269.07764, 273.78418, 276.24951, 280.56055, 285.13965, 287.31934, 292.4126, " y="995, ">
				apply to publishing the value
		</text>
		<text fill="gray" font-size="9" font-family="Segoe UI" x="182, 187.27344, 190.09033, 192.55566, 195.60547, 200.69873, 205.40527, 207.87061, 213.16162, 216.29053, 221.56396, 226.85498, 231.56152, 234.69043, 237.74023, 242.09521, 244.56055, 248.15967, 250.625, 255.33154, 259.4624, 264.75342, 267.88232, 272.58887, 276.40771, 280.22656, 284.93311, " y="1007, ">
				of the property - expressed
		</text>
		<text fill="gray" font-size="9" font-family="Segoe UI" x="182, 187.29102, 191.646, 194.11133, 198.69043, 201.15576, 207.94092, 213.51318, 218.78662, 224.08643, 228.79297, 230.74414, 233.20947, 237.76221, 242.34131, 246.49854, 251.5918, 254.05713, 258.21436, 263.48779, 268.58105, 272.3999, 275.44971, 278.57861, 283.15771, 285.3374, 290.43066, " y="1019, ">
				by a QCode. Each constraint
		</text>
		<text fill="gray" font-size="9" font-family="Segoe UI" x="182, 186.5791, 191.87012, 197.16113, 199.34082, 201.52051, 206.22705, 210.0459, 212.51123, 215.56104, 220.83447, 223.2998, 227.87891, 230.05859, 232.23828, 234.70361, 240.00342, 244.70996, 248.52881, 252.68604, 257.39258, 262.48584, 267.78564, 272.36475, 277.45801, " y="1031, ">
				applies to all descendant
		</text>
		<text fill="gray" font-size="9" font-family="Segoe UI" x="182, 186.70654, 188.88623, 193.59277, 201.34473, 206.05127, 211.14453, 214.19434, 218.01318, " y="1043, ">
				elements.
		</text>
		<rect fill="white" x="186" y="948" width="81" height="16"/>
		<text font-size="12" font-weight="600" font-family="Segoe UI" x="186, 193.44141, 200.70117, 208.14258, 213.90234, 221.23828, 228.49805, 233.77734, 238.44727, 243.22266, 249.67969, 253.08984, 260.34961, " y="961, ">
				pubconstraint
		</text>
		<rect fill="none" stroke="black" stroke-width="1" stroke-linecap="square" stroke-miterlimit="4" transform="translate(0.5 0.5)" x="177" y="946" width="96" height="20"/>
		<rect fill="silver" x="181" y="1056" width="112" height="21"/>
		<rect fill="white" x="177" y="1052" width="112" height="21"/>
		<rect fill="white" x="182" y="1079" width="117" height="72"/>
		<text fill="gray" font-size="9" font-family="Segoe UI" x="182, 188.78516, 193.87842, 198.58496, 201.05029, 206.32373, 209.45264, 211.91797, 219.66992, 224.24902, 229.34229, 233.69727, 236.1626, 240.31982, 245.59326, 250.68652, 254.50537, 257.55518, 260.68408, 265.26318, 267.44287, 272.53613, 275.58594, 279.40479, 281.87012, 284.91992, 290.01318, 294.59229, " y="1089, ">
				One or many constraints that
		</text>
		<text fill="gray" font-size="9" font-family="Segoe UI" x="182, 186.5791, 191.87012, 197.16113, 199.34082, 203.6958, 206.16113, 209.21094, 214.48438, 216.94971, 222.24072, 227.33398, 232.625, 234.80469, 236.98438, 240.80322, 245.89648, 248.07617, 253.16943, 258.46924, 260.93457, 263.98438, 269.07764, 273.78418, 276.24951, 280.56055, 285.13965, 287.31934, 292.4126, " y="1101, ">
				apply to publishing the value
		</text>
		<text fill="gray" font-size="9" font-family="Segoe UI" x="182, 187.27344, 190.09033, 192.55566, 195.60547, 200.69873, 205.40527, 207.87061, 213.16162, 216.29053, 221.56396, 226.85498, 231.56152, 234.69043, 237.74023, 242.09521, 244.56055, 248.15967, 250.625, 255.33154, 259.4624, 264.75342, 267.88232, 272.58887, 276.40771, 280.22656, 284.93311, " y="1113, ">
				of the property - expressed
		</text>
		<text fill="gray" font-size="9" font-family="Segoe UI" x="182, 187.29102, 191.646, 194.11133, 198.69043, 201.15576, 207.33887, 212.72217, 215.11719, 217.06836, 219.53369, 224.08643, 228.66553, 232.82275, 237.91602, 240.38135, 244.53857, 249.81201, 254.90527, 258.72412, 261.77393, 264.90283, 269.48193, 271.66162, 276.75488, " y="1125, ">
				by a URI. Each constraint
		</text>
		<text fill="gray" font-size="9" font-family="Segoe UI" x="182, 186.5791, 191.87012, 197.16113, 199.34082, 201.52051, 206.22705, 210.0459, 212.51123, 215.56104, 220.83447, 223.2998, 227.87891, 230.05859, 232.23828, 234.70361, 240.00342, 244.70996, 248.52881, 252.68604, 257.39258, 262.48584, 267.78564, 272.36475, 277.45801, " y="1137, ">
				applies to all descendant
		</text>
		<text fill="gray" font-size="9" font-family="Segoe UI" x="182, 186.70654, 188.88623, 193.59277, 201.34473, 206.05127, 211.14453, 214.19434, 218.01318, " y="1149, ">
				elements.
		</text>
		<rect fill="white" x="186" y="1054" width="96" height="16"/>
		<text font-size="12" font-weight="600" font-family="Segoe UI" x="186, 193.44141, 200.70117, 208.14258, 213.90234, 221.23828, 228.49805, 233.77734, 238.44727, 243.22266, 249.67969, 253.08984, 260.34961, 265.01953, 272.2793, 277.10156, " y="1067, ">
				pubconstrainturi
		</text>
		<rect fill="none" stroke="black" stroke-width="1" stroke-linecap="square" stroke-miterlimit="4" transform="translate(0.5 0.5)" x="177" y="1052" width="111" height="20"/>
		<rect fill="silver" x="181" y="1162" width="52" height="21"/>
		<rect fill="white" x="177" y="1158" width="52" height="21"/>
		<rect fill="white" x="182" y="1185" width="121" height="48"/>
		<text fill="gray" font-size="9" font-family="Segoe UI" x="182, 187.80518, 190.27051, 194.42773, 199.70117, 204.79443, 208.95166, 213.6582, 218.94922, 221.99902, 224.46436, 226.64404, 231.94385, 236.65039, 241.74365, 244.79346, 246.97314, 249.79004, 251.96973, 256.67627, 259.80518, 262.27051, 266.97705, 271.10791, 276.39893, 279.52783, 284.23438, 288.05322, 291.87207, 296.57861, " y="1195, ">
				A concept identifier expressed
		</text>
		<text fill="gray" font-size="9" font-family="Segoe UI" x="182, 186.5791, 190.39795, 192.86328, 197.44238, 199.90771, 203.72656, 206.77637, 209.90527, 212.08496, 217.17822, 222.47803, 224.94336, 230.2168, 233.03369, 235.49902, 238.54883, 243.64209, 248.34863, 250.81396, 253.63086, 258.9043, 262.0332, 269.78516, 272.25049, 276.06934, 279.88818, 283.70703, 285.6582, 289.81543, 293.97266, 298.12988, " y="1207, ">
				as a string of the form sss:ccc,
		</text>
		<text fill="gray" font-size="9" font-family="Segoe UI" x="182, 188.50391, 193.59717, 198.30371, 201.43262, 206.13916, 208.60449, 212.42334, 216.24219, 220.06104, 222.52637, 224.70605, 228.5249, 230.99023, 235.56934, 238.03467, 241.85352, 246.01074, 251.104, 255.81055, 263.5625, 268.26904, 270.73438, 275.31348, 277.49316, 279.67285, 284.25195, " y="1219, ">
				where sss is a scheme alias
		</text>
		<text fill="gray" font-size="9" font-family="Segoe UI" x="182, 186.5791, 191.67236, 196.97217, 199.4375, 203.59473, 207.75195, 211.90918, 214.37451, 216.5542, 220.37305, 222.83838, 227.41748, 229.88281, 234.04004, 239.31348, 244.61328, " y="1231, ">
				and ccc is a code
		</text>
		<rect fill="white" x="186" y="1160" width="36" height="16"/>
		<text font-size="12" font-weight="600" font-family="Segoe UI" x="186, 193.42969, 199.18945, 206.52539, 213.95508, " y="1173, ">
				qcode
		</text>
		<rect fill="none" stroke="black" stroke-width="1" stroke-linecap="square" stroke-miterlimit="4" transform="translate(0.5 0.5)" x="177" y="1158" width="51" height="20"/>
		<rect fill="silver" x="181" y="1244" width="52" height="21"/>
		<rect fill="white" x="177" y="1240" width="52" height="21"/>
		<rect fill="white" x="182" y="1267" width="95" height="24"/>
		<text fill="gray" font-size="9" font-family="Segoe UI" x="182, 187.80518, 190.27051, 196.45361, 201.83691, 204.23193, 206.69727, 213.20117, 218.29443, 220.47412, 224.63135, 229.72461, 232.18994, 234.36963, 239.66943, 244.37598, 249.46924, 252.51904, 254.69873, 257.51562, 259.69531, 264.40186, 268.2207, 270.68604, " y="1277, ">
				A URI which identifies a
		</text>
		<text fill="gray" font-size="9" font-family="Segoe UI" x="182, 186.15723, 191.43066, 196.52393, 200.68115, 205.3877, 210.67871, 213.72852, " y="1289, ">
				concept.
		</text>
		<rect fill="white" x="186" y="1242" width="36" height="16"/>
		<text font-size="12" font-weight="600" font-family="Segoe UI" x="186, 193.25977, 198.08203, " y="1255, ">
				uri
		</text>
		<rect fill="none" stroke="black" stroke-width="1" stroke-linecap="square" stroke-miterlimit="4" transform="translate(0.5 0.5)" x="177" y="1240" width="51" height="20"/>
		<rect fill="silver" x="181" y="1302" width="52" height="21"/>
		<rect fill="white" x="177" y="1298" width="52" height="21"/>
		<rect fill="white" x="182" y="1325" width="121" height="24"/>
		<text fill="gray" font-size="9" font-family="Segoe UI" x="182, 187.80518, 190.27051, 194.42773, 199.70117, 204.79443, 208.95166, 213.6582, 218.94922, 221.99902, 224.46436, 226.64404, 231.94385, 236.65039, 241.74365, 244.79346, 246.97314, 249.79004, 251.96973, 256.67627, 259.80518, 262.27051, 266.97705, 271.10791, 276.39893, 279.52783, 284.23438, 288.05322, 291.87207, 296.57861, " y="1335, ">
				A concept identifier expressed
		</text>
		<text fill="gray" font-size="9" font-family="Segoe UI" x="182, 186.5791, 190.39795, 192.86328, 197.44238, 199.90771, 202.72461, 205.85352, 210.56006, 215.2666, 217.73193, 220.78174, 225.48828, 229.61914, 232.66895, 235.13428, 238.95312, 242.00293, 245.13184, 247.31152, 252.40479, " y="1347, ">
				as a free text string
		</text>
		<rect fill="white" x="186" y="1300" width="36" height="16"/>
		<text font-size="12" font-weight="600" font-family="Segoe UI" x="186, 189.41016, 192.82031, 197.44336, 203.93555, 208.71094, 215.16797, " y="1313, ">
				literal
		</text>
		<rect fill="none" stroke="black" stroke-width="1" stroke-linecap="square" stroke-miterlimit="4" transform="translate(0.5 0.5)" x="177" y="1298" width="51" height="20"/>
		<rect fill="silver" x="181" y="1360" width="52" height="21"/>
		<rect fill="white" x="177" y="1356" width="52" height="21"/>
		<rect fill="white" x="182" y="1383" width="119" height="48"/>
		<text fill="gray" font-size="9" font-family="Segoe UI" x="182, 186.71533, 191.80859, 196.51514, 198.98047, 202.03027, 206.38525, 211.67627, 216.38281, 218.84814, 224.12158, 226.93848, 229.40381, 232.45361, 237.54688, 242.25342, 244.71875, 248.87598, 254.14941, 259.24268, 263.3999, 268.10645, 273.39746, " y="1393, ">
				The type of the concept
		</text>
		<text fill="gray" font-size="9" font-family="Segoe UI" x="182, 186.5791, 190.39795, 194.2168, 196.39648, 201.69629, 206.78955, 211.49609, 216.7959, 219.26123, 223.84033, 227.65918, 230.12451, 234.28174, 239.55518, 244.64844, 247.69824, 250.82715, 256.10059, 258.28027, 260.45996, 265.1665, " y="1405, ">
				assigned as controlled
		</text>
		<text fill="gray" font-size="9" font-family="Segoe UI" x="182, 187.29102, 190.41992, 195.69336, 200.98438, 205.69092, 208.81982, 211.86963, 216.22461, 218.68994, 223.00098, 227.58008, 229.75977, 234.85303, 239.55957, 242.0249, 245.62402, 248.08936, 252.7959, 256.92676, 262.21777, 265.34668, 270.05322, 273.87207, 277.69092, 282.39746, 287.69727, 290.1626, 295.45361, " y="1417, ">
				property value - expressed by
		</text>
		<text fill="gray" font-size="9" font-family="Segoe UI" x="182, 186.5791, 189.04443, 195.82959, 201.40186, 206.67529, 211.9751, " y="1429, ">
				a QCode
		</text>
		<rect fill="white" x="186" y="1358" width="36" height="16"/>
		<text font-size="12" font-weight="600" font-family="Segoe UI" x="186, 190.66992, 197.12695, 204.56836, " y="1371, ">
				type
		</text>
		<rect fill="none" stroke="black" stroke-width="1" stroke-linecap="square" stroke-miterlimit="4" transform="translate(0.5 0.5)" x="177" y="1356" width="51" height="20"/>
		<rect fill="silver" x="181" y="1442" width="58" height="21"/>
		<rect fill="white" x="177" y="1438" width="58" height="21"/>
		<rect fill="white" x="182" y="1465" width="119" height="48"/>
		<text fill="gray" font-size="9" font-family="Segoe UI" x="182, 186.71533, 191.80859, 196.51514, 198.98047, 202.03027, 206.38525, 211.67627, 216.38281, 218.84814, 224.12158, 226.93848, 229.40381, 232.45361, 237.54688, 242.25342, 244.71875, 248.87598, 254.14941, 259.24268, 263.3999, 268.10645, 273.39746, " y="1475, ">
				The type of the concept
		</text>
		<text fill="gray" font-size="9" font-family="Segoe UI" x="182, 186.5791, 190.39795, 194.2168, 196.39648, 201.69629, 206.78955, 211.49609, 216.7959, 219.26123, 223.84033, 227.65918, 230.12451, 234.28174, 239.55518, 244.64844, 247.69824, 250.82715, 256.10059, 258.28027, 260.45996, 265.1665, " y="1487, ">
				assigned as controlled
		</text>
		<text fill="gray" font-size="9" font-family="Segoe UI" x="182, 187.29102, 190.41992, 195.69336, 200.98438, 205.69092, 208.81982, 211.86963, 216.22461, 218.68994, 223.00098, 227.58008, 229.75977, 234.85303, 239.55957, 242.0249, 245.62402, 248.08936, 252.7959, 256.92676, 262.21777, 265.34668, 270.05322, 273.87207, 277.69092, 282.39746, 287.69727, 290.1626, 295.45361, " y="1499, ">
				property value - expressed by
		</text>
		<text fill="gray" font-size="9" font-family="Segoe UI" x="182, 186.5791, 189.04443, 195.22754, 200.61084, " y="1511, ">
				a URI
		</text>
		<rect fill="white" x="186" y="1440" width="42" height="16"/>
		<text font-size="12" font-weight="600" font-family="Segoe UI" x="186, 190.66992, 197.12695, 204.56836, 211.06055, 218.32031, 223.14258, " y="1453, ">
				typeuri
		</text>
		<rect fill="none" stroke="black" stroke-width="1" stroke-linecap="square" stroke-miterlimit="4" transform="translate(0.5 0.5)" x="177" y="1438" width="57" height="20"/>
		<rect fill="silver" x="181" y="1524" width="66" height="21"/>
		<rect fill="white" x="177" y="1520" width="66" height="21"/>
		<rect fill="white" x="182" y="1547" width="121" height="84"/>
		<text fill="gray" font-size="9" font-family="Segoe UI" x="182, 186.78125, 192.07227, 196.77881, 200.93604, 203.11572, 205.93262, 208.1123, 212.81885, 216.6377, 219.10303, 222.15283, 227.24609, 231.95264, 234.41797, 236.59766, 241.17676, 246.27002, 251.56982, 256.66309, 261.24219, 266.54199, 271.24854, 273.71387, 278.9873, 281.8042, 284.26953, 287.31934, 292.4126, 294.59229, " y="1557, ">
				Specifies the language of this
		</text>
		<text fill="gray" font-size="9" font-family="Segoe UI" x="182, 187.29102, 190.41992, 195.69336, 200.98438, 205.69092, 208.81982, 211.86963, 216.22461, 218.68994, 223.26904, 228.3623, 233.66211, 236.12744, 241.41846, 246.69189, 249.7417, 254.44824, 259.5415, 262.59131, 264.771, 269.3501, 271.52979, 273.70947, 278.06445, 280.52979, 285.10889, 287.28857, " y="1569, ">
				property and potentially all
		</text>
		<text fill="gray" font-size="9" font-family="Segoe UI" x="182, 187.2998, 192.00635, 195.8252, 199.98242, 204.68896, 209.78223, 215.08203, 219.66113, 224.75439, 227.8042, 230.26953, 235.56055, 238.68945, 243.96289, 249.25391, 253.96045, 257.08936, 260.13916, 262.31885, 267.02539, 270.84424, " y="1581, ">
				descendant properties.
		</text>
		<text fill="gray" font-size="9" font-family="Segoe UI" x="182, 186.13086, 193.88281, 196.0625, 198.01367, 200.19336, 204.77246, 209.86572, 215.16553, 217.63086, 221.94189, 226.521, 228.70068, 233.79395, 238.50049, 242.31934, 244.78467, 250.05811, 252.875, 255.34033, 260.64014, 265.34668, 269.16553, 273.32275, 278.0293, 283.12256, 288.42236, 293.00146, 298.09473, " y="1593, ">
				xml:lang values of descendant
		</text>
		<text fill="gray" font-size="9" font-family="Segoe UI" x="182, 187.29102, 190.41992, 195.69336, 200.98438, 205.69092, 208.81982, 211.86963, 214.04932, 218.75586, 222.57471, 225.04004, 230.31348, 234.62451, 239.33105, 242.45996, 245.58887, 247.76855, 253.06836, 257.7749, 260.24023, 263.29004, 268.3833, 270.56299, 274.38184, 276.84717, 281.1582, 285.7373, 287.91699, 293.01025, 297.7168, " y="1605, ">
				properties override this value.
		</text>
		<text fill="gray" font-size="9" font-family="Segoe UI" x="182, 186.93066, 191.50977, 193.68945, 198.78271, 203.48926, 207.30811, 209.77344, 214.35254, 217.48145, 222.18799, 224.65332, 229.95312, 234.65967, 237.70947, 242.41602, 245.54492, 253.29688, 255.47656, 260.56982, 265.27637, 270.57617, 273.0415, 278.33252, " y="1617, ">
				Values are determined by
		</text>
		<text fill="gray" font-size="9" font-family="Segoe UI" x="182, 184.39502, 189.48828, 192.53809, 197.24463, 200.37354, 205.4668, 210.17334, 213.22314, 215.68848, 220.84766, 226.41992, 231.46045, 233.92578, 238.77734, 243.62891, " y="1629, ">
				Internet BCP 47.
		</text>
		<rect fill="white" x="186" y="1522" width="50" height="16"/>
		<text font-size="12" font-weight="600" font-family="Segoe UI" x="186, 192.62695, 203.61914, 207.0293, 210.28125, 213.69141, 220.14844, 227.4082, " y="1535, ">
				xml:lang
		</text>
		<path fill="none" stroke="black" stroke-width="2" stroke-miterlimit="4" transform="translate(0.5 0.5)" d="M179 1538L183 1534"/>
		<path fill="none" stroke="black" stroke-width="1" stroke-linecap="square" stroke-miterlimit="4" transform="translate(0.5 0.5)" d="M180 1534L183 1534L183 1537"/>
		<rect fill="none" stroke="black" stroke-width="1" stroke-linecap="square" stroke-miterlimit="4" transform="translate(0.5 0.5)" x="177" y="1520" width="65" height="20"/>
		<rect fill="silver" x="181" y="1642" width="52" height="21"/>
		<rect fill="white" x="177" y="1638" width="52" height="21"/>
		<rect fill="white" x="182" y="1665" width="116" height="24"/>
		<text fill="gray" font-size="9" font-family="Segoe UI" x="182, 186.71533, 191.80859, 196.51514, 198.98047, 204.28027, 206.45996, 209.58887, 214.29541, 218.45264, 221.50244, 223.68213, 228.95557, 234.04883, 238.62793, 240.80762, 242.9873, 246.03711, 250.39209, 252.85742, 258.13086, 260.94775, 263.41309, 266.46289, 271.16943, 275.30029, 278.3501, 283.44336, 288.02246, " y="1675, ">
				The directionality of textual
		</text>
		<text fill="gray" font-size="9" font-family="Segoe UI" x="182, 186.15723, 191.43066, 196.52393, 199.57373, 204.28027, 209.37354, 212.42334, 214.88867, 217.60449, 222.31104, 227.4043, 232.49756, 240.24951, 244.95605, 248.08496, 252.66406, 255.71387, 257.89355, 263.16699, 268.26025, 270.21143, 272.67676, 274.85645, 277.90625, 281.03516, 282.98633, 285.45166, 288.58057, 291.63037, 293.81006, " y="1687, ">
				content (enumeration: ltr, rtl)
		</text>
		<rect fill="white" x="186" y="1640" width="36" height="16"/>
		<text font-size="12" font-weight="600" font-family="Segoe UI" x="186, 193.42969, 196.83984, " y="1653, ">
				dir
		</text>
		<rect fill="none" stroke="black" stroke-width="1" stroke-linecap="square" stroke-miterlimit="4" transform="translate(0.5 0.5)" x="177" y="1638" width="51" height="20"/>
		<path fill="silver" d="M181 1705L186 1700L254 1700L259 1705L259 1716L254 1721L186 1721L181 1716L181 1705Z"/>
		<path fill="white" d="M177 1701L182 1696L250 1696L255 1701L255 1712L250 1717L182 1717L177 1712L177 1701Z"/>
		<rect fill="white" x="204" y="1698" width="46" height="16"/>
		<text font-size="12" font-weight="600" font-family="Segoe UI" x="204, 211.10742, 218.21484, 225.55078, 230.2207, 237.44531, 243.9375, " y="1711, ">
				##other
		</text>
		<rect fill="white" x="182" y="1698" width="20" height="16"/>
		<text fill="gray" font-size="12" font-family="Segoe UI" x="182, 188.10547, 194.89648, " y="1711, ">
				any
		</text>
		<path fill="none" stroke="black" stroke-width="1" stroke-linecap="square" stroke-miterlimit="4" transform="translate(0.5 0.5)" d="M177 1701L182 1696L249 1696L254 1701L254 1711L249 1716L182 1716L177 1711L177 1701Z"/>
		<rect fill="silver" x="181" y="1728" width="52" height="21"/>
		<rect fill="white" x="177" y="1724" width="52" height="21"/>
		<rect fill="white" x="182" y="1751" width="120" height="60"/>
		<text fill="gray" font-size="9" font-family="Segoe UI" x="182, 186.71533, 191.80859, 196.51514, 198.98047, 201.16016, 206.45996, 211.1665, 216.25977, 219.30957, 221.48926, 224.30615, 226.48584, 231.19238, 234.32129, 236.78662, 242.06006, 244.87695, 247.34229, 250.39209, 255.48535, " y="1761, ">
				The identifier of the
		</text>
		<text fill="gray" font-size="9" font-family="Segoe UI" x="182, 185.12891, 189.83545, 192.01514, 196.59424, 199.64404, 201.82373, 207.09717, 212.19043, 216.00928, 221.10254, 223.28223, 228.57324, 231.03857, 236.32959, 241.03613, 244.08594, 250.58984, 255.29639, 260.00293, 265.09619, 267.56152, 270.61133, 275.70459, " y="1773, ">
				relationship between the
		</text>
		<text fill="gray" font-size="9" font-family="Segoe UI" x="182, 186.15723, 191.25049, 194.37939, 197.5083, 202.21484, 207.30811, 210.35791, 212.82324, 216.98047, 222.25391, 227.34717, 231.50439, 236.21094, 241.50195, 244.55176, 247.01709, 251.59619, 256.68945, 261.98926, 264.45459, 267.50439, 272.59766, " y="1785, ">
				current concept and the
		</text>
		<text fill="gray" font-size="9" font-family="Segoe UI" x="182, 185.0498, 189.62891, 192.75781, 198.05762, 202.76416, 205.81396, 208.2793, 212.43652, 217.70996, 222.80322, 226.96045, 231.66699, 236.95801, 240.00781, 242.47314, 246.07227, 248.5376, 253.24414, 257.375, 262.66602, 265.79492, 270.50146, 274.32031, 278.13916, 282.8457, 288.14551, 290.61084, 295.90186, " y="1797, ">
				target concept - expressed by
		</text>
		<text fill="gray" font-size="9" font-family="Segoe UI" x="182, 186.5791, 189.04443, 195.82959, 201.40186, 206.67529, 211.9751, " y="1809, ">
				a QCode
		</text>
		<rect fill="white" x="186" y="1726" width="36" height="16"/>
		<text font-size="12" font-weight="600" font-family="Segoe UI" x="186, 190.72852, 197.2207, " y="1739, ">
				rel
		</text>
		<rect fill="none" stroke="black" stroke-width="1" stroke-linecap="square" stroke-miterlimit="4" transform="translate(0.5 0.5)" x="177" y="1724" width="51" height="20"/>
		<rect fill="silver" x="181" y="1822" width="52" height="21"/>
		<rect fill="white" x="177" y="1818" width="52" height="21"/>
		<rect fill="white" x="182" y="1845" width="120" height="60"/>
		<text fill="gray" font-size="9" font-family="Segoe UI" x="182, 186.71533, 191.80859, 196.51514, 198.98047, 201.16016, 206.45996, 211.1665, 216.25977, 219.30957, 221.48926, 224.30615, 226.48584, 231.19238, 234.32129, 236.78662, 242.06006, 244.87695, 247.34229, 250.39209, 255.48535, " y="1855, ">
				The identifier of the
		</text>
		<text fill="gray" font-size="9" font-family="Segoe UI" x="182, 185.12891, 189.83545, 192.01514, 196.59424, 199.64404, 201.82373, 207.09717, 212.19043, 216.00928, 221.10254, 223.28223, 228.57324, 231.03857, 236.32959, 241.03613, 244.08594, 250.58984, 255.29639, 260.00293, 265.09619, 267.56152, 270.61133, 275.70459, " y="1867, ">
				relationship between the
		</text>
		<text fill="gray" font-size="9" font-family="Segoe UI" x="182, 186.15723, 191.25049, 194.37939, 197.5083, 202.21484, 207.30811, 210.35791, 212.82324, 216.98047, 222.25391, 227.34717, 231.50439, 236.21094, 241.50195, 244.55176, 247.01709, 251.59619, 256.68945, 261.98926, 264.45459, 267.50439, 272.59766, " y="1879, ">
				current concept and the
		</text>
		<text fill="gray" font-size="9" font-family="Segoe UI" x="182, 185.0498, 189.62891, 192.75781, 198.05762, 202.76416, 205.81396, 208.2793, 212.43652, 217.70996, 222.80322, 226.96045, 231.66699, 236.95801, 240.00781, 242.47314, 246.07227, 248.5376, 253.24414, 257.375, 262.66602, 265.79492, 270.50146, 274.32031, 278.13916, 282.8457, 288.14551, 290.61084, 295.90186, " y="1891, ">
				target concept - expressed by
		</text>
		<text fill="gray" font-size="9" font-family="Segoe UI" x="182, 186.5791, 189.04443, 195.22754, 200.61084, " y="1903, ">
				a URI
		</text>
		<rect fill="white" x="186" y="1820" width="36" height="16"/>
		<text font-size="12" font-weight="600" font-family="Segoe UI" x="186, 190.72852, 197.2207, 200.63086, 207.89062, 212.71289, " y="1833, ">
				reluri
		</text>
		<rect fill="none" stroke="black" stroke-width="1" stroke-linecap="square" stroke-miterlimit="4" transform="translate(0.5 0.5)" x="177" y="1818" width="51" height="20"/>
		<rect fill="silver" x="181" y="1916" width="52" height="21"/>
		<rect fill="white" x="177" y="1912" width="52" height="21"/>
		<rect fill="white" x="182" y="1939" width="110" height="48"/>
		<text fill="gray" font-size="9" font-family="Segoe UI" x="182, 186.71533, 191.80859, 196.51514, 198.98047, 202.10938, 206.68848, 211.78174, 216.25537, 218.7207, 223.99414, 226.81104, 229.27637, 232.32617, 237.41943, 242.12598, 244.59131, 248.74854, 253.8418, 256.9707, 260.09961, 264.80615, 269.89941, " y="1949, ">
				The rank of the current
		</text>
		<text fill="gray" font-size="9" font-family="Segoe UI" x="182, 186.15723, 191.43066, 196.52393, 200.68115, 205.3877, 210.67871, 213.72852, 216.19385, 220.77295, 228.5249, 233.79834, 238.8916, 244.19141, 246.65674, 250.81396, 256.0874, 261.18066, 265.33789, 270.04443, 275.33545, 278.38525, " y="1961, ">
				concept among concepts
		</text>
		<text fill="gray" font-size="9" font-family="Segoe UI" x="182, 187.09326, 191.67236, 195.9834, 198.16309, 203.25635, 208.55615, 211.02148, 215.60059, 218.06592, 221.19482, 225.90137, 228.08105, 232.66016, 235.70996, 237.88965, 243.16309, 248.25635, 252.0752, 257.16846, 259.34814, 264.63916, 267.10449, 270.1543, 275.42773, 277.89307, 280.94287, 286.03613, " y="1973, ">
				having a relationship to the
		</text>
		<text fill="gray" font-size="9" font-family="Segoe UI" x="182, 185.0498, 189.62891, 192.75781, 198.05762, 202.76416, 205.81396, 208.2793, 212.43652, 217.70996, 222.80322, 226.96045, 231.66699, 236.95801, 240.00781, " y="1985, ">
				target concept.
		</text>
		<rect fill="white" x="186" y="1914" width="36" height="16"/>
		<text font-size="12" font-weight="600" font-family="Segoe UI" x="186, 190.77539, 197.23242, 204.49219, " y="1927, ">
				rank
		</text>
		<rect fill="none" stroke="black" stroke-width="1" stroke-linecap="square" stroke-miterlimit="4" transform="translate(0.5 0.5)" x="177" y="1912" width="51" height="20"/>
		<rect fill="silver" x="181" y="1998" width="72" height="21"/>
		<rect fill="white" x="177" y="1994" width="72" height="21"/>
		<rect fill="white" x="182" y="2021" width="117" height="36"/>
		<text fill="gray" font-size="9" font-family="Segoe UI" x="182, 186.71533, 191.80859, 196.51514, 198.98047, 204.28027, 208.85938, 211.90918, 216.61572, 219.08105, 221.79688, 226.37598, 231.46924, 236.76904, 238.72021, 241.18555, 246.45898, 251.75, 254.7998, 256.97949, 262.25293, 267.34619, 271.92529, 274.10498, 276.28467, 280.63965, 282.59082, 285.05615, 288.10596, 293.19922, " y="2031, ">
				The date (and, optionally, the
		</text>
		<text fill="gray" font-size="9" font-family="Segoe UI" x="182, 185.0498, 187.22949, 194.98145, 199.68799, 202.40381, 204.86914, 210.16016, 214.8667, 217.68359, 222.95703, 226.08594, 230.79248, 233.25781, 239.76172, 244.85498, 247.03467, 251.19189, 256.28516, 258.75049, " y="2043, ">
				time) before which a
		</text>
		<text fill="gray" font-size="9" font-family="Segoe UI" x="182, 185.12891, 189.83545, 192.01514, 196.59424, 199.64404, 201.82373, 207.09717, 212.19043, 216.00928, 221.10254, 223.28223, 228.57324, 231.03857, 233.21826, 237.03711, 239.50244, 244.5957, 249.86914, 252.91895, 255.38428, 259.69531, 264.27441, 266.4541, 268.63379, 273.93359, " y="2055, ">
				relationship is not valid.
		</text>
		<rect fill="white" x="186" y="1996" width="56" height="16"/>
		<text font-size="12" font-weight="600" font-family="Segoe UI" x="186, 192.32227, 198.7793, 202.18945, 205.59961, 213.0293, 217.62891, 222.35742, 229.69336, " y="2009, ">
				validfrom
		</text>
		<rect fill="none" stroke="black" stroke-width="1" stroke-linecap="square" stroke-miterlimit="4" transform="translate(0.5 0.5)" x="177" y="1994" width="71" height="20"/>
		<rect fill="silver" x="181" y="2068" width="56" height="21"/>
		<rect fill="white" x="177" y="2064" width="56" height="21"/>
		<rect fill="white" x="182" y="2091" width="117" height="36"/>
		<text fill="gray" font-size="9" font-family="Segoe UI" x="182, 186.71533, 191.80859, 196.51514, 198.98047, 204.28027, 208.85938, 211.90918, 216.61572, 219.08105, 221.79688, 226.37598, 231.46924, 236.76904, 238.72021, 241.18555, 246.45898, 251.75, 254.7998, 256.97949, 262.25293, 267.34619, 271.92529, 274.10498, 276.28467, 280.63965, 282.59082, 285.05615, 288.10596, 293.19922, " y="2101, ">
				The date (and, optionally, the
		</text>
		<text fill="gray" font-size="9" font-family="Segoe UI" x="182, 185.0498, 187.22949, 194.98145, 199.68799, 202.40381, 204.86914, 209.44824, 212.26514, 215.31494, 220.02148, 223.15039, 225.61572, 232.11963, 237.21289, 239.39258, 243.5498, 248.64307, 251.1084, " y="2113, ">
				time) after which a
		</text>
		<text fill="gray" font-size="9" font-family="Segoe UI" x="182, 185.12891, 189.83545, 192.01514, 196.59424, 199.64404, 201.82373, 207.09717, 212.19043, 216.00928, 221.10254, 223.28223, 228.57324, 231.03857, 233.21826, 237.03711, 239.50244, 244.5957, 249.86914, 252.91895, 255.38428, 259.69531, 264.27441, 266.4541, 268.63379, 273.93359, " y="2125, ">
				relationship is not valid.
		</text>
		<rect fill="white" x="186" y="2066" width="40" height="16"/>
		<text font-size="12" font-weight="600" font-family="Segoe UI" x="186, 192.32227, 198.7793, 202.18945, 205.59961, 213.0293, 217.65234, " y="2079, ">
				validto
		</text>
		<rect fill="none" stroke="black" stroke-width="1" stroke-linecap="square" stroke-miterlimit="4" transform="translate(0.5 0.5)" x="177" y="2064" width="55" height="20"/>
		<rect fill="silver" x="181" y="2138" width="52" height="21"/>
		<rect fill="white" x="177" y="2134" width="52" height="21"/>
		<rect fill="white" x="182" y="2161" width="121" height="24"/>
		<text fill="gray" font-size="9" font-family="Segoe UI" x="182, 186.71533, 191.80859, 196.51514, 198.98047, 202.10938, 206.81592, 208.99561, 213.57471, 216.62451, 221.33105, 226.63086, 229.09619, 233.40723, 237.98633, 240.16602, 245.25928, 249.96582, 252.43115, 255.14697, 258.96582, 263.67236, 268.37891, 270.84424, 278.59619, 283.86963, 286.99854, 291.70508, 294.17041, 296.3501, " y="2171, ">
				The related value (see more in
		</text>
		<text fill="gray" font-size="9" font-family="Segoe UI" x="182, 185.0498, 190.14307, 194.84961, 197.31494, 201.13379, 206.4248, 211.13135, 215.28857, 217.75391, 223.05371, 228.32715, 232.48438, 237.57764, 245.32959, 250.03613, 255.12939, 258.1792, " y="2183, ">
				the spec document)
		</text>
		<rect fill="white" x="186" y="2136" width="36" height="16"/>
		<text font-size="12" font-weight="600" font-family="Segoe UI" x="186, 192.32227, 198.7793, 202.18945, 209.44922, " y="2149, ">
				value
		</text>
		<rect fill="none" stroke="black" stroke-width="1" stroke-linecap="square" stroke-miterlimit="4" transform="translate(0.5 0.5)" x="177" y="2134" width="51" height="20"/>
		<rect fill="silver" x="181" y="2196" width="98" height="21"/>
		<rect fill="white" x="177" y="2192" width="98" height="21"/>
		<rect fill="white" x="182" y="2219" width="119" height="48"/>
		<text fill="gray" font-size="9" font-family="Segoe UI" x="182, 186.71533, 191.80859, 196.51514, 198.98047, 204.28027, 208.85938, 211.90918, 216.48828, 219.53809, 223.89307, 229.18408, 233.89062, 236.35596, 241.62939, 244.44629, 246.91162, 249.96143, 255.05469, 259.76123, 262.22656, 266.5376, 271.1167, 273.29639, 278.38965, " y="2229, ">
				The datatype of the value
		</text>
		<text fill="gray" font-size="9" font-family="Segoe UI" x="182, 186.5791, 189.62891, 192.67871, 195.80762, 197.9873, 203.27832, 208.37158, 211.42139, 216.12793, 218.59326, 223.09326, 225.55859, 227.73828, 230.78809, 233.25342, 241.33496, 247.51807, 252.29932, 257.01465, 259.47998, 264.771, 269.47754, 271.94287, 277.21631, 282.30957, 287.01611, 289.48145, 294.75488, " y="2241, ">
				attribute  it MUST be one of
		</text>
		<text fill="gray" font-size="9" font-family="Segoe UI" x="182, 185.0498, 190.14307, 194.84961, 197.31494, 202.60596, 207.69922, 209.87891, 212.05859, 215.1084, 218.70752, 220.88721, 225.98047, 228.4458, 233.74561, 238.32471, 241.37451, 245.95361, 249.00342, 253.3584, 258.64941, 263.35596, 267.1748, 269.64014, 274.93994, 279.64648, 282.46338, 284.64307, 289.73633, 294.44287, " y="2253, ">
				the built-in datatypes defined
		</text>
		<text fill="gray" font-size="9" font-family="Segoe UI" x="182, 187.29102, 191.646, 194.11133, 199.41992, 207.50146, 211.73779, 214.20312, 218.98438, 223.1416, 228.23486, 232.94141, 240.69336, 245.27246, 247.73779, 252.04883, 256.75537, 259.88428, 263.70312, 265.88281, 271.15625, 276.24951, 278.71484, 283.56641, 285.51758, 290.36914, " y="2265, ">
				by XML Schema version 1.0.
		</text>
		<rect fill="white" x="186" y="2194" width="82" height="16"/>
		<text font-size="12" font-weight="600" font-family="Segoe UI" x="186, 192.32227, 198.7793, 202.18945, 209.44922, 215.94141, 223.37109, 229.82812, 234.49805, 240.95508, 245.625, 252.08203, 259.52344, " y="2207, ">
				valuedatatype
		</text>
		<rect fill="none" stroke="black" stroke-width="1" stroke-linecap="square" stroke-miterlimit="4" transform="translate(0.5 0.5)" x="177" y="2192" width="97" height="20"/>
		<rect fill="silver" x="181" y="2278" width="70" height="21"/>
		<rect fill="white" x="177" y="2274" width="70" height="21"/>
		<rect fill="white" x="182" y="2301" width="83" height="24"/>
		<text fill="gray" font-size="9" font-family="Segoe UI" x="182, 186.71533, 191.80859, 196.51514, 198.98047, 204.07373, 209.16699, 211.34668, 214.39648, 216.86182, 222.13525, 224.95215, 227.41748, 230.46729, 235.56055, 240.26709, 242.73242, 247.04346, 251.62256, 253.80225, 258.89551, " y="2311, ">
				The unit of the value
		</text>
		<text fill="gray" font-size="9" font-family="Segoe UI" x="182, 186.5791, 189.62891, 192.67871, 195.80762, 197.9873, 203.27832, 208.37158, 211.42139, 216.12793, " y="2323, ">
				attribute.
		</text>
		<rect fill="white" x="186" y="2276" width="54" height="16"/>
		<text font-size="12" font-weight="600" font-family="Segoe UI" x="186, 192.32227, 198.7793, 202.18945, 209.44922, 215.94141, 223.20117, 230.46094, 233.87109, " y="2289, ">
				valueunit
		</text>
		<rect fill="none" stroke="black" stroke-width="1" stroke-linecap="square" stroke-miterlimit="4" transform="translate(0.5 0.5)" x="177" y="2274" width="69" height="20"/>
		<rect fill="silver" x="181" y="2336" width="86" height="21"/>
		<rect fill="white" x="177" y="2332" width="86" height="21"/>
		<rect fill="white" x="182" y="2359" width="120" height="24"/>
		<text fill="gray" font-size="9" font-family="Segoe UI" x="182, 186.71533, 191.80859, 196.51514, 198.98047, 204.07373, 209.16699, 211.34668, 214.39648, 216.86182, 222.13525, 224.95215, 227.41748, 230.46729, 235.56055, 240.26709, 242.73242, 247.04346, 251.62256, 253.80225, 258.89551, 263.60205, 266.06738, 270.64648, 273.69629, 276.74609, 279.875, 282.05469, 287.3457, 292.43896, 295.48877, " y="2369, ">
				The unit of the value attribute
		</text>
		<text fill="gray" font-size="9" font-family="Segoe UI" x="182, 185.59912, 188.06445, 192.771, 196.90186, 202.19287, 205.32178, 210.02832, 213.84717, 217.66602, 222.37256, 227.67236, 230.1377, 235.42871, 239.78369, 242.24902, 246.82812, 249.29346, 255.47656, 260.85986, " y="2381, ">
				- expressed by a URI
		</text>
		<rect fill="white" x="186" y="2334" width="70" height="16"/>
		<text font-size="12" font-weight="600" font-family="Segoe UI" x="186, 192.32227, 198.7793, 202.18945, 209.44922, 215.94141, 223.20117, 230.46094, 233.87109, 238.54102, 245.80078, 250.62305, " y="2347, ">
				valueunituri
		</text>
		<rect fill="none" stroke="black" stroke-width="1" stroke-linecap="square" stroke-miterlimit="4" transform="translate(0.5 0.5)" x="177" y="2332" width="85" height="20"/>
		<rect x="168" y="41" width="11" height="11"/>
		<rect fill="white" x="169" y="42" width="9" height="9"/>
		<rect x="170" y="46" width="7" height="1"/>
		<path fill="none" stroke="black" stroke-width="1" stroke-linecap="square" stroke-miterlimit="4" transform="translate(0.5 0.5)" d="M208 2443L216 2443"/>
		<path fill="none" stroke="black" stroke-width="1" stroke-linecap="square" stroke-miterlimit="4" transform="translate(0.5 0.5)" d="M217 2443L217 2413"/>
		<path fill="none" stroke="black" stroke-width="1" stroke-linecap="square" stroke-miterlimit="4" transform="translate(0.5 0.5)" d="M217 2443L217 2474"/>
		<path fill="none" stroke="black" stroke-width="1" stroke-linecap="square" stroke-miterlimit="4" transform="translate(0.5 0.5)" d="M217 2412L231 2412"/>
		<path fill="none" stroke="black" stroke-width="1" stroke-linecap="square" stroke-miterlimit="4" transform="translate(0.5 0.5)" d="M217 2475L231 2475"/>
		<path fill="silver" d="M170 2445L175 2440L200 2440L205 2445L205 2456L200 2461L175 2461L170 2456L170 2445Z"/>
		<path fill="white" d="M166 2441L171 2436L195 2436L200 2441L200 2451L195 2456L171 2456L166 2451L166 2441Z"/>
		<path transform="translate(0.5 0.5)" d="M169.889 2436.4L170.793 2435.5L171.929 2435.5L172.429 2435.5L172.429 2436.5L171.929 2436.5L171 2436.5L171 2436L171.354 2436.35L170.243 2437.46L169.536 2436.76L169.889 2436.4ZM175.929 2435.5L177.929 2435.5L178.429 2435.5L178.429 2436.5L177.929 2436.5L175.429 2436.5L175.429 2435.5L175.929 2435.5ZM181.929 2435.5L183.929 2435.5L184.429 2435.5L184.429 2436.5L183.929 2436.5L181.429 2436.5L181.429 2435.5L181.929 2435.5ZM187.929 2435.5L189.929 2435.5L190.429 2435.5L190.429 2436.5L189.929 2436.5L187.429 2436.5L187.429 2435.5L187.929 2435.5ZM193.929 2435.5L195.207 2435.5L196.01 2436.3L196.364 2436.66L195.657 2437.36L195.303 2437.01L194.646 2436.35L195 2436L195 2436.5L193.429 2436.5L193.429 2435.5L193.929 2435.5ZM198.839 2439.13L200.253 2440.55L200.607 2440.9L199.9 2441.61L199.546 2441.25L197.778 2439.49L198.485 2438.78L198.839 2439.13ZM200.5 2444.86L200.5 2446.86L200.5 2447.36L199.5 2447.36L199.5 2446.86L199.5 2444.36L200.5 2444.36L200.5 2444.86ZM200.5 2450.86L200.5 2451.21L199.04 2452.67L198.686 2453.02L197.979 2452.31L198.333 2451.96L199.646 2450.65L200 2451L199.5 2451L199.5 2450.36L200.5 2450.36L200.5 2450.86ZM196.211 2455.5L195.207 2456.5L194.213 2456.5L193.713 2456.5L193.713 2455.5L194.213 2455.5L195 2455.5L195 2456L194.646 2455.65L195.858 2454.44L196.565 2455.14L196.211 2455.5ZM190.213 2456.5L188.213 2456.5L187.713 2456.5L187.713 2455.5L188.213 2455.5L190.713 2455.5L190.713 2456.5L190.213 2456.5ZM184.213 2456.5L182.213 2456.5L181.713 2456.5L181.713 2455.5L182.213 2455.5L184.713 2455.5L184.713 2456.5L184.213 2456.5ZM178.213 2456.5L176.213 2456.5L175.713 2456.5L175.713 2455.5L176.213 2455.5L178.713 2455.5L178.713 2456.5L178.213 2456.5ZM172.213 2456.5L170.793 2456.5L170.09 2455.8L169.737 2455.44L170.444 2454.74L170.797 2455.09L171.354 2455.65L171 2456L171 2455.5L172.713 2455.5L172.713 2456.5L172.213 2456.5ZM167.262 2452.97L165.847 2451.55L165.494 2451.2L166.201 2450.49L166.555 2450.85L168.322 2452.62L167.615 2453.32L167.262 2452.97ZM165.5 2447.28L165.5 2445.28L165.5 2444.78L166.5 2444.78L166.5 2445.28L166.5 2447.78L165.5 2447.78L165.5 2447.28ZM165.5 2441.28L165.5 2440.79L167.414 2438.88L168.121 2439.59L166.354 2441.35L166 2441L166.5 2441L166.5 2441.78L165.5 2441.78L165.5 2441.28Z"/>
		<path fill="white" d="M163 2438L168 2433L193 2433L198 2438L198 2449L193 2454L168 2454L163 2449L163 2438Z"/>
		<path fill="none" stroke="black" stroke-width="1" stroke-linecap="square" stroke-miterlimit="4" transform="translate(0.5 0.5)" d="M182 2454L188 2460L191 2457"/>
		<path fill="none" stroke="black" stroke-width="1" stroke-linecap="square" stroke-miterlimit="4" transform="translate(0.5 0.5)" d="M168 2443L173 2443L177 2439"/>
		<path fill="none" stroke="black" stroke-width="1" stroke-linecap="square" stroke-miterlimit="4" transform="translate(0.5 0.5)" d="M183 2443L191 2443"/>
		<path fill="none" stroke="black" stroke-width="1" stroke-linecap="square" stroke-miterlimit="4" transform="translate(0.5 0.5)" d="M183 2439L187 2439L187 2447L183 2447"/>
		<rect x="179" y="2438" width="3" height="3"/>
		<rect x="179" y="2442" width="3" height="3"/>
		<rect x="179" y="2446" width="3" height="3"/>
		<text font-size="12" font-family="Segoe UI" x="167.76562, " y="2473, ">
				0
		</text>
		<text font-size="12" font-family="Symbol" x="182.72266, " y="2472, ">
				
		</text>
		<text font-size="12" font-family="Segoe UI" x="175.89844, 178.5, " y="2473, ">
				..
		</text>
		<path transform="translate(0.5 0.5)" d="M166.889 2433.4L167.793 2432.5L168.929 2432.5L169.429 2432.5L169.429 2433.5L168.929 2433.5L168 2433.5L168 2433L168.354 2433.35L167.243 2434.46L166.536 2433.76L166.889 2433.4ZM172.929 2432.5L174.929 2432.5L175.429 2432.5L175.429 2433.5L174.929 2433.5L172.429 2433.5L172.429 2432.5L172.929 2432.5ZM178.929 2432.5L180.929 2432.5L181.429 2432.5L181.429 2433.5L180.929 2433.5L178.429 2433.5L178.429 2432.5L178.929 2432.5ZM184.929 2432.5L186.929 2432.5L187.429 2432.5L187.429 2433.5L186.929 2433.5L184.429 2433.5L184.429 2432.5L184.929 2432.5ZM190.929 2432.5L192.207 2432.5L193.01 2433.3L193.364 2433.66L192.657 2434.36L192.303 2434.01L191.646 2433.35L192 2433L192 2433.5L190.429 2433.5L190.429 2432.5L190.929 2432.5ZM195.839 2436.13L197.253 2437.55L197.607 2437.9L196.9 2438.61L196.546 2438.25L194.778 2436.49L195.485 2435.78L195.839 2436.13ZM197.5 2441.86L197.5 2443.86L197.5 2444.36L196.5 2444.36L196.5 2443.86L196.5 2441.36L197.5 2441.36L197.5 2441.86ZM197.5 2447.86L197.5 2448.21L196.04 2449.67L195.686 2450.02L194.979 2449.31L195.333 2448.96L196.646 2447.65L197 2448L196.5 2448L196.5 2447.36L197.5 2447.36L197.5 2447.86ZM193.211 2452.5L192.207 2453.5L191.213 2453.5L190.713 2453.5L190.713 2452.5L191.213 2452.5L192 2452.5L192 2453L191.646 2452.65L192.858 2451.44L193.565 2452.14L193.211 2452.5ZM187.213 2453.5L185.213 2453.5L184.713 2453.5L184.713 2452.5L185.213 2452.5L187.713 2452.5L187.713 2453.5L187.213 2453.5ZM181.213 2453.5L179.213 2453.5L178.713 2453.5L178.713 2452.5L179.213 2452.5L181.713 2452.5L181.713 2453.5L181.213 2453.5ZM175.213 2453.5L173.213 2453.5L172.713 2453.5L172.713 2452.5L173.213 2452.5L175.713 2452.5L175.713 2453.5L175.213 2453.5ZM169.213 2453.5L167.793 2453.5L167.09 2452.8L166.737 2452.44L167.444 2451.74L167.797 2452.09L168.354 2452.65L168 2453L168 2452.5L169.713 2452.5L169.713 2453.5L169.213 2453.5ZM164.262 2449.97L162.847 2448.55L162.494 2448.2L163.201 2447.49L163.555 2447.85L165.322 2449.62L164.615 2450.32L164.262 2449.97ZM162.5 2444.28L162.5 2442.28L162.5 2441.78L163.5 2441.78L163.5 2442.28L163.5 2444.78L162.5 2444.78L162.5 2444.28ZM162.5 2438.28L162.5 2437.79L164.414 2435.88L165.121 2436.59L163.354 2438.35L163 2438L163.5 2438L163.5 2438.78L162.5 2438.78L162.5 2438.28Z"/>
		<rect fill="silver" x="236" y="2406" width="54" height="21"/>
		<rect fill="white" x="232" y="2402" width="54" height="21"/>
		<rect fill="#FFFFC0" x="237" y="2429" width="115" height="24"/>
		<text fill="gray" font-size="9" font-family="Segoe UI" x="237, 242.80518, 245.27051, 250.36377, 254.94287, 257.99268, 263.08594, 266.21484, 270.79395, 272.97363, 275.43896, 277.61865, 282.19775, 287.29102, 292.59082, 297.68408, 302.26318, 307.56299, 312.26953, 314.73486, 319.82812, 324.40723, 332.15918, 336.86572, 339.33105, 342.14795, 347.42139, " y="2439, ">
				A natural language name for
		</text>
		<text fill="gray" font-size="9" font-family="Segoe UI" x="237, 240.0498, 245.14307, 249.84961, 252.31494, 256.47217, 261.74561, 266.83887, 270.99609, 275.70264, 280.99365, 284.04346, " y="2451, ">
				the concept.
		</text>
		<rect fill="white" x="241" y="2404" width="33" height="16"/>
		<text font-size="12" font-weight="600" font-family="Segoe UI" x="241, 248.25977, 254.7168, 265.70898, " y="2417, ">
				name
		</text>
		<path fill="none" stroke="black" stroke-width="1" stroke-linecap="square" stroke-miterlimit="4" transform="translate(0.5 0.5)" d="M234 2404L239 2404"/>
		<path fill="none" stroke="black" stroke-width="1" stroke-linecap="square" stroke-miterlimit="4" transform="translate(0.5 0.5)" d="M234 2406L238 2406"/>
		<path fill="none" stroke="black" stroke-width="1" stroke-linecap="square" stroke-miterlimit="4" transform="translate(0.5 0.5)" d="M234 2408L238 2408"/>
		<path fill="none" stroke="black" stroke-width="2" stroke-miterlimit="4" transform="translate(0.5 0.5)" d="M234 2420L238 2416"/>
		<path fill="none" stroke="black" stroke-width="1" stroke-linecap="square" stroke-miterlimit="4" transform="translate(0.5 0.5)" d="M235 2416L238 2416L238 2419"/>
		<rect fill="none" stroke="black" stroke-width="1" stroke-linecap="square" stroke-miterlimit="4" transform="translate(0.5 0.5)" x="232" y="2402" width="53" height="20"/>
		<rect x="280" y="2407" width="11" height="11"/>
		<rect fill="white" x="281" y="2408" width="9" height="9"/>
		<rect x="282" y="2412" width="7" height="1"/>
		<rect x="285" y="2409" width="1" height="7"/>
		<rect fill="silver" x="236" y="2469" width="98" height="21"/>
		<rect fill="white" x="232" y="2465" width="98" height="21"/>
		<rect fill="#FFFFC0" x="237" y="2492" width="121" height="72"/>
		<text fill="gray" font-size="9" font-family="Segoe UI" x="237, 242.11963, 246.82617, 252.11719, 255.24609, 259.95264, 263.77148, 268.47803, 273.57129, 276.62109, 280.43994, 282.90527, 285.95508, 291.04834, 295.75488, 298.22021, 303.51123, 308.78467, 312.60352, 314.7832, 317.83301, 320.0127, 325.28613, 330.37939, 332.84473, 338.11816, 340.93506, 343.40039, " y="2502, ">
				Represents the position of a
		</text>
		<text fill="gray" font-size="9" font-family="Segoe UI" x="237, 241.15723, 246.43066, 251.52393, 255.68115, 260.3877, 265.67871, 268.72852, 271.19385, 273.37354, 278.4668, 280.93213, 285.51123, 287.97656, 293.06982, 295.24951, 299.95605, 303.08496, 307.66406, 310.79297, 314.9502, 320.04346, 322.22314, 326.38037, 330.95947, " y="2514, ">
				concept in a hierarchical
		</text>
		<text fill="gray" font-size="9" font-family="Segoe UI" x="237, 240.0498, 244.62891, 248.75977, 254.0332, 259.12646, 264.3999, 272.15186, 276.50684, 278.97217, 282.02197, 285.15088, 289.85742, 294.56396, 297.0293, 302.32031, 306.67529, 309.14062, 313.71973, 316.18506, 320.00391, 324.71045, 330.01025, 335.10352, 339.81006, 344.90332, 349.06055, " y="2526, ">
				taxonomy tree by a sequence
		</text>
		<text fill="gray" font-size="9" font-family="Segoe UI" x="237, 242.27344, 245.09033, 247.55566, 254.34082, 259.91309, 265.18652, 270.48633, 275.19287, 277.6582, 280.70801, 285.98145, 290.45508, 295.16162, 300.25488, 304.07373, 306.53906, 309.66797, 314.37451, 319.66553, 322.79443, 327.50098, 331.31982, 336.02637, 341.11963, 344.16943, 346.34912, 351.44238, " y="2538, ">
				of QCode tokens representing
		</text>
		<text fill="gray" font-size="9" font-family="Segoe UI" x="237, 240.0498, 245.14307, 249.84961, 252.31494, 256.89404, 261.9873, 266.14453, 270.85107, 274.66992, 277.71973, 282.99316, 286.12207, 288.5874, 292.74463, 298.01807, 303.11133, 307.26855, 311.9751, 317.26611, 320.31592, 324.13477, 326.6001, 331.1792, 336.27246, " y="2550, ">
				the ancestor concepts and
		</text>
		<text fill="gray" font-size="9" font-family="Segoe UI" x="237, 240.0498, 245.14307, 247.32275, 251.1416, 253.60693, 257.76416, 263.0376, 268.13086, 272.28809, 276.99463, 282.28564, " y="2562, ">
				this concept
		</text>
		<rect fill="white" x="241" y="2467" width="77" height="16"/>
		<text font-size="12" font-weight="600" font-family="Segoe UI" x="241, 248.22461, 251.63477, 258.12695, 262.90234, 269.35938, 274.08789, 279.84766, 287.07227, 293.5293, 297.33203, 304.5918, 309.19141, " y="2480, ">
				hierarchyInfo
		</text>
		<path fill="none" stroke="black" stroke-width="1" stroke-linecap="square" stroke-miterlimit="4" transform="translate(0.5 0.5)" d="M234 2467L239 2467"/>
		<path fill="none" stroke="black" stroke-width="1" stroke-linecap="square" stroke-miterlimit="4" transform="translate(0.5 0.5)" d="M234 2469L238 2469"/>
		<path fill="none" stroke="black" stroke-width="1" stroke-linecap="square" stroke-miterlimit="4" transform="translate(0.5 0.5)" d="M234 2471L238 2471"/>
		<path fill="none" stroke="black" stroke-width="2" stroke-miterlimit="4" transform="translate(0.5 0.5)" d="M234 2483L238 2479"/>
		<path fill="none" stroke="black" stroke-width="1" stroke-linecap="square" stroke-miterlimit="4" transform="translate(0.5 0.5)" d="M235 2479L238 2479L238 2482"/>
		<rect fill="none" stroke="black" stroke-width="1" stroke-linecap="square" stroke-miterlimit="4" transform="translate(0.5 0.5)" x="232" y="2465" width="97" height="20"/>
		<rect x="324" y="2470" width="11" height="11"/>
		<rect fill="white" x="325" y="2471" width="9" height="9"/>
		<rect x="326" y="2475" width="7" height="1"/>
		<rect x="329" y="2472" width="1" height="7"/>
		<rect x="197" y="2438" width="11" height="11"/>
		<rect fill="white" x="198" y="2439" width="9" height="9"/>
		<rect x="199" y="2443" width="7" height="1"/>
		<path fill="none" stroke="black" stroke-width="1" stroke-linecap="square" stroke-miterlimit="4" transform="translate(0.5 0.5)" d="M208 2685L216 2685"/>
		<path fill="none" stroke="black" stroke-width="1" stroke-linecap="square" stroke-miterlimit="4" transform="translate(0.5 0.5)" d="M217 2685L217 2587"/>
		<path fill="none" stroke="black" stroke-width="1" stroke-linecap="square" stroke-miterlimit="4" transform="translate(0.5 0.5)" d="M217 2685L217 2783"/>
		<path fill="none" stroke="black" stroke-width="1" stroke-linecap="square" stroke-miterlimit="4" transform="translate(0.5 0.5)" d="M217 2586L231 2586"/>
		<path fill="none" stroke="black" stroke-width="1" stroke-linecap="square" stroke-miterlimit="4" transform="translate(0.5 0.5)" d="M217 2697L231 2697"/>
		<path fill="none" stroke="black" stroke-width="1" stroke-linecap="square" stroke-miterlimit="4" transform="translate(0.5 0.5)" d="M217 2784L231 2784"/>
		<path fill="silver" d="M170 2687L175 2682L200 2682L205 2687L205 2698L200 2703L175 2703L170 2698L170 2687Z"/>
		<path fill="white" d="M166 2683L171 2678L195 2678L200 2683L200 2693L195 2698L171 2698L166 2693L166 2683Z"/>
		<path transform="translate(0.5 0.5)" d="M169.889 2678.4L170.793 2677.5L171.929 2677.5L172.429 2677.5L172.429 2678.5L171.929 2678.5L171 2678.5L171 2678L171.354 2678.35L170.243 2679.46L169.536 2678.76L169.889 2678.4ZM175.929 2677.5L177.929 2677.5L178.429 2677.5L178.429 2678.5L177.929 2678.5L175.429 2678.5L175.429 2677.5L175.929 2677.5ZM181.929 2677.5L183.929 2677.5L184.429 2677.5L184.429 2678.5L183.929 2678.5L181.429 2678.5L181.429 2677.5L181.929 2677.5ZM187.929 2677.5L189.929 2677.5L190.429 2677.5L190.429 2678.5L189.929 2678.5L187.429 2678.5L187.429 2677.5L187.929 2677.5ZM193.929 2677.5L195.207 2677.5L196.01 2678.3L196.364 2678.66L195.657 2679.36L195.303 2679.01L194.646 2678.35L195 2678L195 2678.5L193.429 2678.5L193.429 2677.5L193.929 2677.5ZM198.839 2681.13L200.253 2682.55L200.607 2682.9L199.9 2683.61L199.546 2683.25L197.778 2681.49L198.485 2680.78L198.839 2681.13ZM200.5 2686.86L200.5 2688.86L200.5 2689.36L199.5 2689.36L199.5 2688.86L199.5 2686.36L200.5 2686.36L200.5 2686.86ZM200.5 2692.86L200.5 2693.21L199.04 2694.67L198.686 2695.02L197.979 2694.31L198.333 2693.96L199.646 2692.65L200 2693L199.5 2693L199.5 2692.36L200.5 2692.36L200.5 2692.86ZM196.211 2697.5L195.207 2698.5L194.213 2698.5L193.713 2698.5L193.713 2697.5L194.213 2697.5L195 2697.5L195 2698L194.646 2697.65L195.858 2696.44L196.565 2697.14L196.211 2697.5ZM190.213 2698.5L188.213 2698.5L187.713 2698.5L187.713 2697.5L188.213 2697.5L190.713 2697.5L190.713 2698.5L190.213 2698.5ZM184.213 2698.5L182.213 2698.5L181.713 2698.5L181.713 2697.5L182.213 2697.5L184.713 2697.5L184.713 2698.5L184.213 2698.5ZM178.213 2698.5L176.213 2698.5L175.713 2698.5L175.713 2697.5L176.213 2697.5L178.713 2697.5L178.713 2698.5L178.213 2698.5ZM172.213 2698.5L170.793 2698.5L170.09 2697.8L169.737 2697.44L170.444 2696.74L170.797 2697.09L171.354 2697.65L171 2698L171 2697.5L172.713 2697.5L172.713 2698.5L172.213 2698.5ZM167.262 2694.97L165.847 2693.55L165.494 2693.2L166.201 2692.49L166.555 2692.85L168.322 2694.62L167.615 2695.32L167.262 2694.97ZM165.5 2689.28L165.5 2687.28L165.5 2686.78L166.5 2686.78L166.5 2687.28L166.5 2689.78L165.5 2689.78L165.5 2689.28ZM165.5 2683.28L165.5 2682.79L167.414 2680.88L168.121 2681.59L166.354 2683.35L166 2683L166.5 2683L166.5 2683.78L165.5 2683.78L165.5 2683.28Z"/>
		<path fill="white" d="M163 2680L168 2675L193 2675L198 2680L198 2691L193 2696L168 2696L163 2691L163 2680Z"/>
		<path fill="none" stroke="black" stroke-width="1" stroke-linecap="square" stroke-miterlimit="4" transform="translate(0.5 0.5)" d="M182 2696L188 2702L191 2699"/>
		<path fill="none" stroke="black" stroke-width="1" stroke-linecap="square" stroke-miterlimit="4" transform="translate(0.5 0.5)" d="M168 2685L173 2685L177 2681"/>
		<path fill="none" stroke="black" stroke-width="1" stroke-linecap="square" stroke-miterlimit="4" transform="translate(0.5 0.5)" d="M183 2685L191 2685"/>
		<path fill="none" stroke="black" stroke-width="1" stroke-linecap="square" stroke-miterlimit="4" transform="translate(0.5 0.5)" d="M183 2681L187 2681L187 2689L183 2689"/>
		<rect x="179" y="2680" width="3" height="3"/>
		<rect x="179" y="2684" width="3" height="3"/>
		<rect x="179" y="2688" width="3" height="3"/>
		<text font-size="12" font-family="Segoe UI" x="167.76562, " y="2715, ">
				0
		</text>
		<text font-size="12" font-family="Symbol" x="182.72266, " y="2714, ">
				
		</text>
		<text font-size="12" font-family="Segoe UI" x="175.89844, 178.5, " y="2715, ">
				..
		</text>
		<path transform="translate(0.5 0.5)" d="M166.889 2675.4L167.793 2674.5L168.929 2674.5L169.429 2674.5L169.429 2675.5L168.929 2675.5L168 2675.5L168 2675L168.354 2675.35L167.243 2676.46L166.536 2675.76L166.889 2675.4ZM172.929 2674.5L174.929 2674.5L175.429 2674.5L175.429 2675.5L174.929 2675.5L172.429 2675.5L172.429 2674.5L172.929 2674.5ZM178.929 2674.5L180.929 2674.5L181.429 2674.5L181.429 2675.5L180.929 2675.5L178.429 2675.5L178.429 2674.5L178.929 2674.5ZM184.929 2674.5L186.929 2674.5L187.429 2674.5L187.429 2675.5L186.929 2675.5L184.429 2675.5L184.429 2674.5L184.929 2674.5ZM190.929 2674.5L192.207 2674.5L193.01 2675.3L193.364 2675.66L192.657 2676.36L192.303 2676.01L191.646 2675.35L192 2675L192 2675.5L190.429 2675.5L190.429 2674.5L190.929 2674.5ZM195.839 2678.13L197.253 2679.55L197.607 2679.9L196.9 2680.61L196.546 2680.25L194.778 2678.49L195.485 2677.78L195.839 2678.13ZM197.5 2683.86L197.5 2685.86L197.5 2686.36L196.5 2686.36L196.5 2685.86L196.5 2683.36L197.5 2683.36L197.5 2683.86ZM197.5 2689.86L197.5 2690.21L196.04 2691.67L195.686 2692.02L194.979 2691.31L195.333 2690.96L196.646 2689.65L197 2690L196.5 2690L196.5 2689.36L197.5 2689.36L197.5 2689.86ZM193.211 2694.5L192.207 2695.5L191.213 2695.5L190.713 2695.5L190.713 2694.5L191.213 2694.5L192 2694.5L192 2695L191.646 2694.65L192.858 2693.44L193.565 2694.14L193.211 2694.5ZM187.213 2695.5L185.213 2695.5L184.713 2695.5L184.713 2694.5L185.213 2694.5L187.713 2694.5L187.713 2695.5L187.213 2695.5ZM181.213 2695.5L179.213 2695.5L178.713 2695.5L178.713 2694.5L179.213 2694.5L181.713 2694.5L181.713 2695.5L181.213 2695.5ZM175.213 2695.5L173.213 2695.5L172.713 2695.5L172.713 2694.5L173.213 2694.5L175.713 2694.5L175.713 2695.5L175.213 2695.5ZM169.213 2695.5L167.793 2695.5L167.09 2694.8L166.737 2694.44L167.444 2693.74L167.797 2694.09L168.354 2694.65L168 2695L168 2694.5L169.713 2694.5L169.713 2695.5L169.213 2695.5ZM164.262 2691.97L162.847 2690.55L162.494 2690.2L163.201 2689.49L163.555 2689.85L165.322 2691.62L164.615 2692.32L164.262 2691.97ZM162.5 2686.28L162.5 2684.28L162.5 2683.78L163.5 2683.78L163.5 2684.28L163.5 2686.78L162.5 2686.78L162.5 2686.28ZM162.5 2680.28L162.5 2679.79L164.414 2677.88L165.121 2678.59L163.354 2680.35L163 2680L163.5 2680L163.5 2680.78L162.5 2680.78L162.5 2680.28Z"/>
		<rect fill="silver" x="236" y="2580" width="52" height="21"/>
		<rect fill="white" x="232" y="2576" width="52" height="21"/>
		<rect fill="#FFFFC0" x="237" y="2603" width="121" height="72"/>
		<text fill="gray" font-size="9" font-family="Segoe UI" x="237, 239.39502, 244.48828, 246.95361, 253.68604, 259.49121, 264.87451, 267.33984, 272.19141, 274.14258, 278.99414, 281.45947, 286.03857, 291.13184, 296.43164, 298.89697, 301.07666, 305.65576, 308.70557, 313.41211, 316.54102, 318.49219, 320.95752, 323.77441, 328.35352, 332.51074, 337.21729, 340.26709, 342.73242, 344.91211, " y="2613, ">
				In NAR 1.8 and later, facet is
		</text>
		<text fill="gray" font-size="9" font-family="Segoe UI" x="237, 242.2998, 247.00635, 252.29736, 255.42627, 260.13281, 264.29004, 268.86914, 271.91895, 276.62549, 281.92529, 284.39062, 288.96973, 294.06299, 299.36279, 301.82812, 306.60938, 312.99902, 319.78418, 325.96729, 330.20361, 336.51416, 338.97949, 345.71191, 352.09277, " y="2625, ">
				deprecated and SHOULD NOT
		</text>
		<text fill="gray" font-size="9" font-family="Segoe UI" x="237, 239.71582, 243.53467, 248.24121, 252.94775, 255.41309, 260.79639, 265.19092, 270.76318, 273.22852, 278.08008, 282.93164, 287.7832, 292.63477, 295.35059, 297.81592, 303.10693, 307.81348, 310.27881, 315.37207, 319.19092, 323.89746, 329.19727, 331.14844, 333.61377, 336.66357, 341.75684, " y="2637, ">
				(see RFC 2119) be used, the
		</text>
		<text fill="gray" font-size="9" font-family="Segoe UI" x="237, 240.52881, 243.65771, 248.36426, 250.54395, 255.12305, 258.17285, 262.87939, 268.1792, 271.70801, 274.17334, 279.46436, 282.59326, 287.8667, 293.15771, 297.86426, 300.99316, 304.04297, 308.39795, 310.86328, 314.68213, 319.77539, 325.04883, 330.14209, 332.32178, 337.62158, 340.08691, 345.37793, " y="2649, ">
				&quot;related&quot; property should be
		</text>
		<text fill="gray" font-size="9" font-family="Segoe UI" x="237, 242.09326, 245.91211, 250.61865, 255.91846, 258.38379, 260.56348, 265.65674, 269.47559, 272.52539, 277.23193, 281.81104, 287.11084, 289.57617, 292.29199, 298.7959, 303.375, 307.19385, 309.14502, 311.61035, 317.41553, 322.50879, 324.97412, 327.15381, 332.24707, 335.29688, 338.42578, 340.60547, 345.69873, 349.51758, 351.69727, " y="2661, ">
				used instead (was: An intrinsic
		</text>
		<text fill="gray" font-size="9" font-family="Segoe UI" x="237, 242.29102, 245.41992, 250.69336, 255.98438, 260.69092, 263.81982, 266.86963, 271.22461, 273.68994, 278.96338, 281.78027, 284.24561, 287.29541, 292.38867, 297.09521, 299.56055, 303.71777, 308.99121, 314.08447, 318.2417, 322.94824, 328.23926, 331.28906, 333.24023, " y="2673, ">
				property of the concept.)
		</text>
		<rect fill="white" x="241" y="2578" width="31" height="16"/>
		<text font-size="12" font-weight="600" font-family="Segoe UI" x="241, 245.59961, 252.05664, 257.81641, 264.30859, " y="2591, ">
				facet
		</text>
		<path fill="none" stroke="black" stroke-width="2" stroke-miterlimit="4" transform="translate(0.5 0.5)" d="M234 2594L238 2590"/>
		<path fill="none" stroke="black" stroke-width="1" stroke-linecap="square" stroke-miterlimit="4" transform="translate(0.5 0.5)" d="M235 2590L238 2590L238 2593"/>
		<rect fill="none" stroke="black" stroke-width="1" stroke-linecap="square" stroke-miterlimit="4" transform="translate(0.5 0.5)" x="232" y="2576" width="51" height="20"/>
		<rect x="278" y="2581" width="11" height="11"/>
		<rect fill="white" x="279" y="2582" width="9" height="9"/>
		<rect x="280" y="2586" width="7" height="1"/>
		<rect x="283" y="2583" width="1" height="7"/>
		<rect fill="silver" x="236" y="2691" width="62" height="21"/>
		<rect fill="white" x="232" y="2687" width="62" height="21"/>
		<rect fill="#FFFFC0" x="237" y="2714" width="115" height="48"/>
		<text fill="gray" font-size="9" font-family="Segoe UI" x="237, 242.80518, 245.27051, 248.39941, 253.10596, 255.28564, 259.86475, 262.91455, 267.62109, 272.9209, 275.38623, 279.54346, 284.81689, 289.91016, 294.06738, 298.77393, 304.06494, 307.11475, 309.06592, 311.53125, 318.03516, 323.12842, 327.83496, 330.96387, 335.67041, 338.13574, 341.18555, 346.27881, " y="2724, ">
				A related concept, where the
		</text>
		<text fill="gray" font-size="9" font-family="Segoe UI" x="237, 240.12891, 244.83545, 247.01514, 251.59424, 254.64404, 256.82373, 262.09717, 267.19043, 271.00928, 276.10254, 278.28223, 283.57324, 286.03857, 288.21826, 292.03711, 294.50244, 299.80225, 301.98193, 304.79883, 307.61572, 312.32227, 315.45117, 320.15771, 325.25098, 328.30078, 330.76611, 333.58301, 336.71191, 341.98535, " y="2736, ">
				relationship is different from
		</text>
		<text fill="gray" font-size="9" font-family="Segoe UI" x="237, 239.06982, 242.88867, 247.46777, 255.21973, 259.92627, 265.73145, 269.55029, 271.62012, 273.57129, 276.03662, 278.10645, 283.39746, 286.52637, 291.7998, 296.37891, 301.67871, 306.38525, 309.51416, 311.58398, 314.04932, 319.32275, " y="2748, ">
				&apos;sameAs&apos;, &apos;broader&apos; or
		</text>
		<text fill="gray" font-size="9" font-family="Segoe UI" x="237, 239.06982, 244.16309, 248.74219, 251.87109, 255, 260.27344, 266.77734, 271.48389, 274.61279, 276.68262, " y="2760, ">
				&apos;narrower&apos;.
		</text>
		<rect fill="white" x="241" y="2689" width="41" height="16"/>
		<text font-size="12" font-weight="600" font-family="Segoe UI" x="241, 245.72852, 252.2207, 255.63086, 262.08789, 266.71094, 273.20312, " y="2702, ">
				related
		</text>
		<rect fill="none" stroke="black" stroke-width="1" stroke-linecap="square" stroke-miterlimit="4" transform="translate(0.5 0.5)" x="232" y="2687" width="61" height="20"/>
		<rect x="288" y="2692" width="11" height="11"/>
		<rect fill="white" x="289" y="2693" width="9" height="9"/>
		<rect x="290" y="2697" width="7" height="1"/>
		<rect x="293" y="2694" width="1" height="7"/>
		<rect fill="silver" x="236" y="2778" width="65" height="21"/>
		<rect fill="white" x="232" y="2774" width="65" height="21"/>
		<rect fill="#FFFFC0" x="237" y="2801" width="121" height="24"/>
		<text fill="gray" font-size="9" font-family="Segoe UI" x="237, 242.80518, 247.89844, 250.36377, 252.54346, 257.84326, 262.5498, 267.64307, 270.69287, 272.87256, 275.68945, 277.86914, 282.57568, 285.70459, 288.16992, 293.44336, 296.26025, 298.72559, 303.30469, 305.77002, 309.92725, 315.20068, 320.29395, 324.45117, 329.15771, 334.44873, 337.49854, 339.96387, 346.46777, 348.64746, 351.69727, " y="2811, ">
				An identifier of a concept with
		</text>
		<text fill="gray" font-size="9" font-family="Segoe UI" x="237, 241.70654, 247.00635, 252.09961, 254.2793, 258.59033, 263.16943, 265.34912, 270.05566, 275.14893, 278.19873, 280.66406, 284.48291, 289.18945, 296.94141, 301.52051, 306.61377, 309.66357, 311.84326, 316.00049, " y="2823, ">
				equivalent semantics
		</text>
		<rect fill="white" x="241" y="2776" width="44" height="16"/>
		<text font-size="12" font-weight="600" font-family="Segoe UI" x="241, 246.2793, 252.73633, 263.72852, 270.2207, 278.6582, " y="2789, ">
				sameAs
		</text>
		<path fill="none" stroke="black" stroke-width="2" stroke-miterlimit="4" transform="translate(0.5 0.5)" d="M234 2792L238 2788"/>
		<path fill="none" stroke="black" stroke-width="1" stroke-linecap="square" stroke-miterlimit="4" transform="translate(0.5 0.5)" d="M235 2788L238 2788L238 2791"/>
		<rect fill="none" stroke="black" stroke-width="1" stroke-linecap="square" stroke-miterlimit="4" transform="translate(0.5 0.5)" x="232" y="2774" width="64" height="20"/>
		<rect x="291" y="2779" width="11" height="11"/>
		<rect fill="white" x="292" y="2780" width="9" height="9"/>
		<rect x="293" y="2784" width="7" height="1"/>
		<rect x="296" y="2781" width="1" height="7"/>
		<rect x="197" y="2680" width="11" height="11"/>
		<rect fill="white" x="198" y="2681" width="9" height="9"/>
		<rect x="199" y="2685" width="7" height="1"/>
		<path transform="translate(0.5 0.5)" d="M208 2846.5L210 2846.5L210.5 2846.5L210.5 2847.5L210 2847.5L207.5 2847.5L207.5 2846.5L208 2846.5ZM214 2846.5L216.5 2846.5L216.5 2847.5L213.5 2847.5L213.5 2846.5L214 2846.5Z"/>
		<path fill="silver" d="M167 2846L172 2841L197 2841L202 2846L202 2857L197 2862L172 2862L167 2857L167 2846Z"/>
		<path fill="white" d="M163 2842L168 2837L193 2837L198 2842L198 2853L193 2858L168 2858L163 2853L163 2842Z"/>
		<path fill="none" stroke="black" stroke-width="1" stroke-linecap="square" stroke-miterlimit="4" transform="translate(0.5 0.5)" d="M168 2847L192 2847"/>
		<rect x="174" y="2846" width="3" height="3"/>
		<rect x="179" y="2846" width="3" height="3"/>
		<rect x="184" y="2846" width="3" height="3"/>
		<path fill="none" stroke="black" stroke-width="1" stroke-linecap="square" stroke-miterlimit="4" transform="translate(0.5 0.5)" d="M163 2842L168 2837L192 2837L197 2842L197 2852L192 2857L168 2857L163 2852L163 2842Z"/>
		<rect fill="silver" x="222" y="2841" width="52" height="21"/>
		<rect fill="white" x="218" y="2837" width="52" height="21"/>
		<rect fill="#FFFFC0" x="223" y="2864" width="119" height="24"/>
		<text fill="gray" font-size="9" font-family="Segoe UI" x="223, 228.80518, 231.27051, 236.57031, 239.69922, 244.97266, 250.06592, 255.35693, 257.82227, 263.0957, 265.9126, 268.37793, 273.08447, 277.21533, 279.39502, 283.21387, 286.26367, 288.44336, 293.53662, 298.83643, 301.30176, 305.45898, 310.73242, 315.82568, 319.98291, 324.68945, 329.98047, 333.03027, " y="2874, ">
				A group of existing concepts
		</text>
		<text fill="gray" font-size="9" font-family="Segoe UI" x="223, 229.50391, 234.59717, 236.77686, 240.93408, 246.02734, 248.49268, 253.19922, 257.33008, 262.62109, 265.75, 270.45654, 274.27539, 278.09424, 280.55957, 285.13867, 287.604, 292.69727, 297.40381, 303.90771, 306.37305, 310.53027, 315.80371, 320.89697, 325.0542, 329.76074, 335.05176, 338.10156, " y="2886, ">
				which express a new concept.
		</text>
		<rect fill="white" x="227" y="2839" width="31" height="16"/>
		<text font-size="12" font-weight="600" font-family="Segoe UI" x="227, 234.32422, 240.78125, " y="2852, ">
				bag
		</text>
		<path fill="none" stroke="black" stroke-width="2" stroke-miterlimit="4" transform="translate(0.5 0.5)" d="M220 2855L224 2851"/>
		<path fill="none" stroke="black" stroke-width="1" stroke-linecap="square" stroke-miterlimit="4" transform="translate(0.5 0.5)" d="M221 2851L224 2851L224 2854"/>
		<rect fill="none" stroke="black" stroke-width="1" stroke-linecap="square" stroke-miterlimit="4" transform="translate(0.5 0.5)" x="218" y="2837" width="51" height="20"/>
		<rect x="264" y="2842" width="11" height="11"/>
		<rect fill="white" x="265" y="2843" width="9" height="9"/>
		<rect x="266" y="2847" width="7" height="1"/>
		<rect x="269" y="2844" width="1" height="7"/>
		<rect x="197" y="2842" width="11" height="11"/>
		<rect fill="white" x="198" y="2843" width="9" height="9"/>
		<rect x="199" y="2847" width="7" height="1"/>
		<rect x="56" y="2025" width="11" height="11"/>
		<rect fill="white" x="57" y="2026" width="9" height="9"/>
		<rect x="58" y="2030" width="7" height="1"/>
	</g>
</svg>
