<?xml version="1.0" encoding="utf-8" ?>
<svg xmlns="http://www.w3.org/2000/svg" xmlns:xlink="http://www.w3.org/1999/xlink" width="398" height="1746">
	<clipPath id="cl_739">
		<rect x="-10" y="-5" width="398" height="1746"/>
	</clipPath>
	<g clip-path="url(#cl_739)">
		<rect fill="#FFFFC0" x="141" width="237" height="1736"/>
		<rect fill="none" stroke="gray" stroke-width="1" stroke-linecap="square" stroke-miterlimit="4" transform="translate(0.5 0.5)" x="141" width="236" height="1735"/>
		<path fill="none" stroke="black" stroke-width="1" stroke-linecap="square" stroke-miterlimit="4" transform="translate(0.5 0.5)" d="M57 1198L153 1198"/>
		<path fill="none" stroke="black" stroke-width="1" stroke-linecap="square" stroke-miterlimit="4" transform="translate(0.5 0.5)" d="M154 1198L154 794"/>
		<path transform="translate(0.5 0.5)" d="M154.5 1198L154.5 1200L154.5 1200.5L153.5 1200.5L153.5 1200L153.5 1197.5L154.5 1197.5L154.5 1198ZM154.5 1204L154.5 1206L154.5 1206.5L153.5 1206.5L153.5 1206L153.5 1203.5L154.5 1203.5L154.5 1204ZM154.5 1210L154.5 1212L154.5 1212.5L153.5 1212.5L153.5 1212L153.5 1209.5L154.5 1209.5L154.5 1210ZM154.5 1216L154.5 1218L154.5 1218.5L153.5 1218.5L153.5 1218L153.5 1215.5L154.5 1215.5L154.5 1216ZM154.5 1222L154.5 1224L154.5 1224.5L153.5 1224.5L153.5 1224L153.5 1221.5L154.5 1221.5L154.5 1222ZM154.5 1228L154.5 1230L154.5 1230.5L153.5 1230.5L153.5 1230L153.5 1227.5L154.5 1227.5L154.5 1228ZM154.5 1234L154.5 1236L154.5 1236.5L153.5 1236.5L153.5 1236L153.5 1233.5L154.5 1233.5L154.5 1234ZM154.5 1240L154.5 1242L154.5 1242.5L153.5 1242.5L153.5 1242L153.5 1239.5L154.5 1239.5L154.5 1240ZM154.5 1246L154.5 1248L154.5 1248.5L153.5 1248.5L153.5 1248L153.5 1245.5L154.5 1245.5L154.5 1246ZM154.5 1252L154.5 1254L154.5 1254.5L153.5 1254.5L153.5 1254L153.5 1251.5L154.5 1251.5L154.5 1252ZM154.5 1258L154.5 1260L154.5 1260.5L153.5 1260.5L153.5 1260L153.5 1257.5L154.5 1257.5L154.5 1258ZM154.5 1264L154.5 1266L154.5 1266.5L153.5 1266.5L153.5 1266L153.5 1263.5L154.5 1263.5L154.5 1264ZM154.5 1270L154.5 1272L154.5 1272.5L153.5 1272.5L153.5 1272L153.5 1269.5L154.5 1269.5L154.5 1270ZM154.5 1276L154.5 1278L154.5 1278.5L153.5 1278.5L153.5 1278L153.5 1275.5L154.5 1275.5L154.5 1276ZM154.5 1282L154.5 1284L154.5 1284.5L153.5 1284.5L153.5 1284L153.5 1281.5L154.5 1281.5L154.5 1282ZM154.5 1288L154.5 1290L154.5 1290.5L153.5 1290.5L153.5 1290L153.5 1287.5L154.5 1287.5L154.5 1288ZM154.5 1294L154.5 1296L154.5 1296.5L153.5 1296.5L153.5 1296L153.5 1293.5L154.5 1293.5L154.5 1294ZM154.5 1300L154.5 1302L154.5 1302.5L153.5 1302.5L153.5 1302L153.5 1299.5L154.5 1299.5L154.5 1300ZM154.5 1306L154.5 1308L154.5 1308.5L153.5 1308.5L153.5 1308L153.5 1305.5L154.5 1305.5L154.5 1306ZM154.5 1312L154.5 1314L154.5 1314.5L153.5 1314.5L153.5 1314L153.5 1311.5L154.5 1311.5L154.5 1312ZM154.5 1318L154.5 1320L154.5 1320.5L153.5 1320.5L153.5 1320L153.5 1317.5L154.5 1317.5L154.5 1318ZM154.5 1324L154.5 1326L154.5 1326.5L153.5 1326.5L153.5 1326L153.5 1323.5L154.5 1323.5L154.5 1324ZM154.5 1330L154.5 1332L154.5 1332.5L153.5 1332.5L153.5 1332L153.5 1329.5L154.5 1329.5L154.5 1330ZM154.5 1336L154.5 1338L154.5 1338.5L153.5 1338.5L153.5 1338L153.5 1335.5L154.5 1335.5L154.5 1336ZM154.5 1342L154.5 1344L154.5 1344.5L153.5 1344.5L153.5 1344L153.5 1341.5L154.5 1341.5L154.5 1342ZM154.5 1348L154.5 1350L154.5 1350.5L153.5 1350.5L153.5 1350L153.5 1347.5L154.5 1347.5L154.5 1348ZM154.5 1354L154.5 1356L154.5 1356.5L153.5 1356.5L153.5 1356L153.5 1353.5L154.5 1353.5L154.5 1354ZM154.5 1360L154.5 1362L154.5 1362.5L153.5 1362.5L153.5 1362L153.5 1359.5L154.5 1359.5L154.5 1360ZM154.5 1366L154.5 1368L154.5 1368.5L153.5 1368.5L153.5 1368L153.5 1365.5L154.5 1365.5L154.5 1366ZM154.5 1372L154.5 1374L154.5 1374.5L153.5 1374.5L153.5 1374L153.5 1371.5L154.5 1371.5L154.5 1372ZM154.5 1378L154.5 1380L154.5 1380.5L153.5 1380.5L153.5 1380L153.5 1377.5L154.5 1377.5L154.5 1378ZM154.5 1384L154.5 1386L154.5 1386.5L153.5 1386.5L153.5 1386L153.5 1383.5L154.5 1383.5L154.5 1384ZM154.5 1390L154.5 1392L154.5 1392.5L153.5 1392.5L153.5 1392L153.5 1389.5L154.5 1389.5L154.5 1390ZM154.5 1396L154.5 1398L154.5 1398.5L153.5 1398.5L153.5 1398L153.5 1395.5L154.5 1395.5L154.5 1396ZM154.5 1402L154.5 1404L154.5 1404.5L153.5 1404.5L153.5 1404L153.5 1401.5L154.5 1401.5L154.5 1402ZM154.5 1408L154.5 1410L154.5 1410.5L153.5 1410.5L153.5 1410L153.5 1407.5L154.5 1407.5L154.5 1408ZM154.5 1414L154.5 1416L154.5 1416.5L153.5 1416.5L153.5 1416L153.5 1413.5L154.5 1413.5L154.5 1414ZM154.5 1420L154.5 1422L154.5 1422.5L153.5 1422.5L153.5 1422L153.5 1419.5L154.5 1419.5L154.5 1420ZM154.5 1426L154.5 1428L154.5 1428.5L153.5 1428.5L153.5 1428L153.5 1425.5L154.5 1425.5L154.5 1426ZM154.5 1432L154.5 1434L154.5 1434.5L153.5 1434.5L153.5 1434L153.5 1431.5L154.5 1431.5L154.5 1432ZM154.5 1438L154.5 1440L154.5 1440.5L153.5 1440.5L153.5 1440L153.5 1437.5L154.5 1437.5L154.5 1438ZM154.5 1444L154.5 1446L154.5 1446.5L153.5 1446.5L153.5 1446L153.5 1443.5L154.5 1443.5L154.5 1444ZM154.5 1450L154.5 1452L154.5 1452.5L153.5 1452.5L153.5 1452L153.5 1449.5L154.5 1449.5L154.5 1450ZM154.5 1456L154.5 1458L154.5 1458.5L153.5 1458.5L153.5 1458L153.5 1455.5L154.5 1455.5L154.5 1456ZM154.5 1462L154.5 1464L154.5 1464.5L153.5 1464.5L153.5 1464L153.5 1461.5L154.5 1461.5L154.5 1462ZM154.5 1468L154.5 1470L154.5 1470.5L153.5 1470.5L153.5 1470L153.5 1467.5L154.5 1467.5L154.5 1468ZM154.5 1474L154.5 1476L154.5 1476.5L153.5 1476.5L153.5 1476L153.5 1473.5L154.5 1473.5L154.5 1474ZM154.5 1480L154.5 1482L154.5 1482.5L153.5 1482.5L153.5 1482L153.5 1479.5L154.5 1479.5L154.5 1480ZM154.5 1486L154.5 1488L154.5 1488.5L153.5 1488.5L153.5 1488L153.5 1485.5L154.5 1485.5L154.5 1486ZM154.5 1492L154.5 1494L154.5 1494.5L153.5 1494.5L153.5 1494L153.5 1491.5L154.5 1491.5L154.5 1492ZM154.5 1498L154.5 1500L154.5 1500.5L153.5 1500.5L153.5 1500L153.5 1497.5L154.5 1497.5L154.5 1498ZM154.5 1504L154.5 1506L154.5 1506.5L153.5 1506.5L153.5 1506L153.5 1503.5L154.5 1503.5L154.5 1504ZM154.5 1510L154.5 1512L154.5 1512.5L153.5 1512.5L153.5 1512L153.5 1509.5L154.5 1509.5L154.5 1510ZM154.5 1516L154.5 1518L154.5 1518.5L153.5 1518.5L153.5 1518L153.5 1515.5L154.5 1515.5L154.5 1516ZM154.5 1522L154.5 1524L154.5 1524.5L153.5 1524.5L153.5 1524L153.5 1521.5L154.5 1521.5L154.5 1522ZM154.5 1528L154.5 1530L154.5 1530.5L153.5 1530.5L153.5 1530L153.5 1527.5L154.5 1527.5L154.5 1528ZM154.5 1534L154.5 1536L154.5 1536.5L153.5 1536.5L153.5 1536L153.5 1533.5L154.5 1533.5L154.5 1534ZM154.5 1540L154.5 1542L154.5 1542.5L153.5 1542.5L153.5 1542L153.5 1539.5L154.5 1539.5L154.5 1540ZM154.5 1546L154.5 1548L154.5 1548.5L153.5 1548.5L153.5 1548L153.5 1545.5L154.5 1545.5L154.5 1546ZM154.5 1552L154.5 1554L154.5 1554.5L153.5 1554.5L153.5 1554L153.5 1551.5L154.5 1551.5L154.5 1552ZM154.5 1558L154.5 1560L154.5 1560.5L153.5 1560.5L153.5 1560L153.5 1557.5L154.5 1557.5L154.5 1558ZM154.5 1564L154.5 1566L154.5 1566.5L153.5 1566.5L153.5 1566L153.5 1563.5L154.5 1563.5L154.5 1564ZM154.5 1570L154.5 1572L154.5 1572.5L153.5 1572.5L153.5 1572L153.5 1569.5L154.5 1569.5L154.5 1570ZM154.5 1576L154.5 1578L154.5 1578.5L153.5 1578.5L153.5 1578L153.5 1575.5L154.5 1575.5L154.5 1576ZM154.5 1582L154.5 1584L154.5 1584.5L153.5 1584.5L153.5 1584L153.5 1581.5L154.5 1581.5L154.5 1582ZM154.5 1588L154.5 1590L154.5 1590.5L153.5 1590.5L153.5 1590L153.5 1587.5L154.5 1587.5L154.5 1588ZM154.5 1594L154.5 1596L154.5 1596.5L153.5 1596.5L153.5 1596L153.5 1593.5L154.5 1593.5L154.5 1594ZM154.5 1600L154.5 1602.5L153.5 1602.5L153.5 1599.5L154.5 1599.5L154.5 1600Z"/>
		<path transform="translate(0.5 0.5)" d="M154 1602.5L156 1602.5L156.5 1602.5L156.5 1603.5L156 1603.5L153.5 1603.5L153.5 1602.5L154 1602.5ZM160 1602.5L162 1602.5L162.5 1602.5L162.5 1603.5L162 1603.5L159.5 1603.5L159.5 1602.5L160 1602.5ZM166 1602.5L168.5 1602.5L168.5 1603.5L165.5 1603.5L165.5 1602.5L166 1602.5Z"/>
		<path fill="none" stroke="black" stroke-width="1" stroke-linecap="square" stroke-miterlimit="4" transform="translate(0.5 0.5)" d="M154 793L168 793"/>
		<rect fill="silver" x="4" y="1192" width="52" height="21"/>
		<rect fill="white" y="1188" width="52" height="21"/>
		<rect fill="#FFFFC0" x="149" y="8" width="81" height="16"/>
		<text fill="gray" font-size="12" font-weight="600" font-family="Segoe UI" x="149, 158.09961, 165.35938, 171.81641, 175.22656, 182.59766, 187.32617, 194.66211, 202.10352, 208.5957, 215.05273, 222.49414, " y="21, ">
				QualPropType
		</text>
		<rect fill="white" x="5" y="1215" width="121" height="24"/>
		<text fill="gray" font-size="9" font-family="Segoe UI" x="5, 9.715332, 14.808594, 19.515137, 21.980469, 25.109375, 30.382812, 32.5625, 37.269043, 39.734375, 41.914062, 47.007324, 49.472656, 52.522461, 57.615723, 62.322266, 64.787598, 70.061035, 74.37207, 79.078613, 82.20752, 86.786621, 88.966309, 91.145996, 93.611328, 97.768555, 103.04199, 108.13525, 111.18506, 115.8916, 120.98486, " y="1225, ">
				The role in the overall content
		</text>
		<text fill="gray" font-size="9" font-family="Segoe UI" x="5, 8.8188477, 11.868652, 14.997559, 19.704102, 24.283203, 32.035156, " y="1237, ">
				stream.
		</text>
		<rect fill="white" x="9" y="1190" width="31" height="16"/>
		<text font-size="12" font-weight="600" font-family="Segoe UI" x="9, 13.728516, 21.064453, 24.474609, " y="1203, ">
				role
		</text>
		<rect fill="none" stroke="black" stroke-width="1" stroke-linecap="square" stroke-miterlimit="4" transform="translate(0.5 0.5)" y="1188" width="51" height="20"/>
		<path fill="white" d="M246 55L246 36L169 36L169 55L169 1549L316 1549L316 55L246 55Z"/>
		<rect fill="white" x="189" y="38" width="51" height="16"/>
		<text font-size="12" font-style="italic" font-family="Segoe UI" x="189, 195.50391, 199.38281, 203.26172, 207.5332, 210.63867, 217.14258, 223.83984, 227.73047, 233.57227, " y="51, ">
				attributes
		</text>
		<path fill="none" stroke="black" stroke-width="1" stroke-linecap="square" stroke-miterlimit="4" transform="translate(0.5 0.5)" d="M246 55L246 36L169 36L169 55L169 1549L316 1549L316 55L246 55Z"/>
		<rect fill="silver" x="187" y="68" width="52" height="21"/>
		<rect fill="white" x="183" y="64" width="52" height="21"/>
		<rect fill="white" x="188" y="91" width="101" height="24"/>
		<text fill="gray" font-size="9" font-family="Segoe UI" x="188, 192.71533, 197.80859, 202.51514, 204.98047, 207.16016, 212.43359, 216.59082, 221.16992, 223.34961, 225.81494, 227.99463, 233.29443, 238.00098, 243.09424, 246.14404, 248.32373, 251.14062, 253.32031, 258.02686, 261.15576, 263.62109, 268.89453, 271.71143, 274.17676, 277.22656, 282.31982, " y="101, ">
				The local identifier of the
		</text>
		<text fill="gray" font-size="9" font-family="Segoe UI" x="188, 193.29102, 196.41992, 201.69336, 206.98438, 211.69092, 214.81982, 217.86963, 222.22461, " y="113, ">
				property.
		</text>
		<rect fill="white" x="192" y="66" width="36" height="16"/>
		<text font-size="12" font-weight="600" font-family="Segoe UI" x="192, 195.41016, " y="79, ">
				id
		</text>
		<rect fill="none" stroke="black" stroke-width="1" stroke-linecap="square" stroke-miterlimit="4" transform="translate(0.5 0.5)" x="183" y="64" width="51" height="20"/>
		<rect fill="silver" x="187" y="126" width="58" height="21"/>
		<rect fill="white" x="183" y="122" width="58" height="21"/>
		<rect fill="white" x="188" y="149" width="121" height="120"/>
		<text fill="gray" font-size="9" font-family="Segoe UI" x="188, 190.39502, 193.21191, 195.67725, 198.72705, 203.82031, 208.52686, 210.99219, 216.2832, 219.41211, 224.68555, 229.97656, 234.68311, 237.81201, 240.86182, 245.2168, 247.68213, 251.99316, 256.57227, 258.75195, 263.84521, 268.55176, 271.01709, 273.19678, 277.01562, 279.48096, 284.57422, 289.84766, " y="159, ">
				If the property value is not
		</text>
		<text fill="gray" font-size="9" font-family="Segoe UI" x="188, 193.2998, 198.00635, 200.82324, 203.00293, 208.09619, 212.80273, 218.10254, 220.05371, 222.51904, 226.33789, 231.62891, 236.33545, 240.49268, 242.67236, 245.48926, 247.66895, 252.37549, 256.19434, 258.65967, 265.16357, 270.25684, 272.43652, 276.59375, 281.68701, 284.15234, 288.85889, 293.95215, 297.00195, 299.18164, 302.23145, " y="171, ">
				defined, specifies which entity
		</text>
		<text fill="gray" font-size="9" font-family="Segoe UI" x="188, 190.71582, 196.00684, 200.71338, 203.84229, 207.66113, 212.93457, 218.02783, 219.979, 222.44434, 227.71777, 230.84668, 236.14648, 240.72559, 245.81885, 247.99854, 251.81738, 256.39648, 259.44629, 261.62598, 266.89941, 271.99268, 274.45801, 279.73145, " y="183, ">
				(person, organisation or
		</text>
		<text fill="gray" font-size="9" font-family="Segoe UI" x="188, 191.81885, 196.17383, 199.99268, 203.04248, 207.74902, 215.50098, 218.2168, 220.68213, 227.18604, 229.36572, 231.54541, 233.7251, 236.19043, 240.89697, 246.19678, 248.37646, 251.42627, 253.8916, 256.94141, 262.03467, 266.74121, 269.20654, 274.49756, 277.62646, 282.8999, 288.19092, 292.89746, 296.02637, 299.07617, " y="195, ">
				system) will edit the property
		</text>
		<text fill="gray" font-size="9" font-family="Segoe UI" x="188, 192.31104, 196.89014, 199.06982, 204.16309, 208.86963, 211.33496, 214.93408, 217.39941, 222.10596, 226.23682, 231.52783, 234.65674, 239.36328, 243.18213, 247.00098, 251.70752, 257.00732, 259.47266, 264.76367, 269.11865, 271.58398, 276.16309, 278.62842, 285.41357, 290.98584, 296.25928, 301.55908, 306.26562, " y="207, ">
				value - expressed by a QCode.
		</text>
		<text fill="gray" font-size="9" font-family="Segoe UI" x="188, 190.39502, 193.21191, 195.67725, 198.72705, 203.82031, 208.52686, 210.99219, 216.2832, 219.41211, 224.68555, 229.97656, 234.68311, 237.81201, 240.86182, 245.2168, 247.68213, 251.99316, 256.57227, 258.75195, 263.84521, 268.55176, 271.01709, 273.19678, " y="219, ">
				If the property value is
		</text>
		<text fill="gray" font-size="9" font-family="Segoe UI" x="188, 193.2998, 198.00635, 200.82324, 203.00293, 208.09619, 212.80273, 218.10254, 220.05371, 222.51904, 226.33789, 231.62891, 236.33545, 240.49268, 242.67236, 245.48926, 247.66895, 252.37549, 256.19434, 258.65967, 265.16357, 270.25684, 272.43652, 276.59375, 281.68701, 284.15234, 288.85889, 293.95215, 297.00195, 299.18164, 302.23145, " y="231, ">
				defined, specifies which entity
		</text>
		<text fill="gray" font-size="9" font-family="Segoe UI" x="188, 190.71582, 196.00684, 200.71338, 203.84229, 207.66113, 212.93457, 218.02783, 219.979, 222.44434, 227.71777, 230.84668, 236.14648, 240.72559, 245.81885, 247.99854, 251.81738, 256.39648, 259.44629, 261.62598, 266.89941, 271.99268, 274.45801, 279.73145, " y="243, ">
				(person, organisation or
		</text>
		<text fill="gray" font-size="9" font-family="Segoe UI" x="188, 191.81885, 196.17383, 199.99268, 203.04248, 207.74902, 215.50098, 218.2168, 220.68213, 225.77539, 230.35449, 234.17334, 236.63867, 241.34521, 246.64502, 248.82471, 251.87451, 256.58105, 261.88086, 264.34619, 267.396, 272.48926, " y="255, ">
				system) has edited the
		</text>
		<text fill="gray" font-size="9" font-family="Segoe UI" x="188, 193.29102, 196.41992, 201.69336, 206.98438, 211.69092, 214.81982, 217.86963, 222.22461, 224.68994, 229.00098, 233.58008, 235.75977, 240.85303, 245.55957, " y="267, ">
				property value.
		</text>
		<rect fill="white" x="192" y="124" width="42" height="16"/>
		<text font-size="12" font-weight="600" font-family="Segoe UI" x="192, 197.75977, 202.48828, 208.98047, 215.4375, 220.06055, 227.39648, " y="137, ">
				creator
		</text>
		<rect fill="none" stroke="black" stroke-width="1" stroke-linecap="square" stroke-miterlimit="4" transform="translate(0.5 0.5)" x="183" y="122" width="57" height="20"/>
		<rect fill="silver" x="187" y="280" width="73" height="21"/>
		<rect fill="white" x="183" y="276" width="73" height="21"/>
		<rect fill="white" x="188" y="303" width="120" height="108"/>
		<text fill="gray" font-size="9" font-family="Segoe UI" x="188, 190.39502, 193.21191, 195.67725, 198.72705, 203.82031, 208.52686, 210.99219, 216.2832, 219.41211, 224.68555, 229.97656, 234.68311, 237.81201, 240.86182, 245.2168, 247.68213, 251.99316, 256.57227, 258.75195, 263.84521, 268.55176, 271.01709, 273.19678, 277.01562, 279.48096, 284.57422, 289.84766, " y="313, ">
				If the property value is not
		</text>
		<text fill="gray" font-size="9" font-family="Segoe UI" x="188, 193.2998, 198.00635, 200.82324, 203.00293, 208.09619, 212.80273, 218.10254, 220.05371, 222.51904, 226.33789, 231.62891, 236.33545, 240.49268, 242.67236, 245.48926, 247.66895, 252.37549, 256.19434, 258.65967, 265.16357, 270.25684, 272.43652, 276.59375, 281.68701, 284.15234, 288.85889, 293.95215, 297.00195, 299.18164, 302.23145, " y="325, ">
				defined, specifies which entity
		</text>
		<text fill="gray" font-size="9" font-family="Segoe UI" x="188, 190.71582, 196.00684, 200.71338, 203.84229, 207.66113, 212.93457, 218.02783, 219.979, 222.44434, 227.71777, 230.84668, 236.14648, 240.72559, 245.81885, 247.99854, 251.81738, 256.39648, 259.44629, 261.62598, 266.89941, 271.99268, 274.45801, 279.73145, " y="337, ">
				(person, organisation or
		</text>
		<text fill="gray" font-size="9" font-family="Segoe UI" x="188, 191.81885, 196.17383, 199.99268, 203.04248, 207.74902, 215.50098, 218.2168, 220.68213, 227.18604, 229.36572, 231.54541, 233.7251, 236.19043, 240.89697, 246.19678, 248.37646, 251.42627, 253.8916, 256.94141, 262.03467, 266.74121, 269.20654, 274.49756, 277.62646, 282.8999, 288.19092, 292.89746, 296.02637, 299.07617, " y="349, ">
				system) will edit the property
		</text>
		<text fill="gray" font-size="9" font-family="Segoe UI" x="188, 191.59912, 194.06445, 198.771, 202.90186, 208.19287, 211.32178, 216.02832, 219.84717, 223.66602, 228.37256, 233.67236, 236.1377, 241.42871, 245.78369, 248.24902, 252.82812, 255.29346, 261.47656, 266.85986, 269.25488, 271.20605, 273.67139, 276.06641, 278.8833, 281.34863, 284.39844, 289.4917, " y="361, ">
				- expressed by a URI. If the
		</text>
		<text fill="gray" font-size="9" font-family="Segoe UI" x="188, 193.29102, 196.41992, 201.69336, 206.98438, 211.69092, 214.81982, 217.86963, 222.22461, 224.68994, 229.00098, 233.58008, 235.75977, 240.85303, 245.55957, 248.0249, 250.20459, 254.02344, 256.48877, 261.78857, 266.49512, 269.31201, 271.4917, 276.58496, 281.2915, 286.59131, " y="373, ">
				property value is defined,
		</text>
		<text fill="gray" font-size="9" font-family="Segoe UI" x="188, 191.81885, 197.10986, 201.81641, 205.97363, 208.15332, 210.97021, 213.1499, 217.85645, 221.67529, 224.14062, 230.64453, 235.73779, 237.91748, 242.07471, 247.16797, 249.6333, 254.33984, 259.43311, 262.48291, 264.6626, 267.7124, 272.06738, 274.53271, 277.24854, 282.53955, 287.24609, 290.375, 294.19385, 299.46729, 304.56055, " y="385, ">
				specifies which entity (person,
		</text>
		<text fill="gray" font-size="9" font-family="Segoe UI" x="188, 193.27344, 196.40234, 201.70215, 206.28125, 211.37451, 213.5542, 217.37305, 221.95215, 225.00195, 227.18164, 232.45508, 237.54834, 240.01367, 245.28711, 248.41602, 250.88135, 254.7002, 259.05518, 262.87402, 265.92383, 270.63037, 278.38232, 281.09814, 283.56348, 288.65674, 293.23584, " y="397, ">
				organisation or system) has
		</text>
		<text fill="gray" font-size="9" font-family="Segoe UI" x="188, 192.70654, 198.00635, 200.18604, 203.23584, 207.94238, 213.24219, 215.70752, 218.75732, 223.85059, 228.55713, 231.02246, 236.31348, 239.44238, 244.71582, 250.00684, 254.71338, 257.84229, 260.89209, 265.24707, " y="409, ">
				edited the property.
		</text>
		<rect fill="white" x="192" y="278" width="57" height="16"/>
		<text font-size="12" font-weight="600" font-family="Segoe UI" x="192, 197.75977, 202.48828, 208.98047, 215.4375, 220.06055, 227.39648, 232.20703, 239.4668, 244.28906, " y="291, ">
				creatoruri
		</text>
		<rect fill="none" stroke="black" stroke-width="1" stroke-linecap="square" stroke-miterlimit="4" transform="translate(0.5 0.5)" x="183" y="276" width="72" height="20"/>
		<rect fill="silver" x="187" y="422" width="69" height="21"/>
		<rect fill="white" x="183" y="418" width="69" height="21"/>
		<rect fill="white" x="188" y="445" width="119" height="72"/>
		<text fill="gray" font-size="9" font-family="Segoe UI" x="188, 192.71533, 197.80859, 202.51514, 204.98047, 210.28027, 214.85938, 217.90918, 222.61572, 225.08105, 227.79688, 232.37598, 237.46924, 242.76904, 244.72021, 247.18555, 252.45898, 257.75, 260.7998, 262.97949, 268.25293, 273.34619, 277.92529, 280.10498, 282.28467, 286.63965, 288.59082, 291.05615, 294.10596, 299.19922, " y="455, ">
				The date (and, optionally, the
		</text>
		<text fill="gray" font-size="9" font-family="Segoe UI" x="188, 191.0498, 193.22949, 200.98145, 205.68799, 208.40381, 210.86914, 217.37305, 222.46631, 227.17285, 232.26611, 234.73145, 237.78125, 242.87451, 247.58105, 250.04639, 255.3374, 258.46631, 263.73975, 269.03076, 273.7373, 276.86621, 279.91602, 284.271, 286.73633, 293.24023, 297.81934, " y="467, ">
				time) when the property was
		</text>
		<text fill="gray" font-size="9" font-family="Segoe UI" x="188, 190.17969, 194.75879, 198.57764, 201.62744, 204.09277, 211.84473, 217.11816, 222.41797, 224.59766, 227.41455, 229.59424, 234.30078, 239.60059, 241.55176, 244.01709, 248.73242, 253.82568, 258.53223, 260.99756, 263.17725, 268.27051, 270.4502, 273.5, 275.67969, 280.25879, 282.43848, 284.90381, 289.21484, 293.79395, 295.97363, 301.06689, " y="479, ">
				last modified. The initial value
		</text>
		<text fill="gray" font-size="9" font-family="Segoe UI" x="188, 190.17969, 193.99854, 196.46387, 199.51367, 204.60693, 209.31348, 211.77881, 217.07861, 221.65771, 224.70752, 229.41406, 231.87939, 234.59521, 239.17432, 244.26758, 249.56738, 251.51855, 253.98389, 259.25732, 264.54834, 267.59814, 269.77783, 275.05127, 280.14453, 284.72363, 286.90332, 289.08301, 293.43799, " y="491, ">
				is the date (and, optionally,
		</text>
		<text fill="gray" font-size="9" font-family="Segoe UI" x="188, 191.0498, 196.14307, 200.84961, 203.31494, 206.36475, 208.54443, 216.29639, 221.00293, 223.71875, 226.18408, 231.45752, 234.27441, 236.73975, 240.89697, 244.02588, 248.73242, 253.31152, 256.36133, 258.54102, 263.81445, 268.90771, 271.37305, 276.64648, 279.46338, 281.92871, 284.97852, 290.07178, " y="503, ">
				the time) of creation of the
		</text>
		<text fill="gray" font-size="9" font-family="Segoe UI" x="188, 193.29102, 196.41992, 201.69336, 206.98438, 211.69092, 214.81982, 217.86963, 222.22461, " y="515, ">
				property.
		</text>
		<rect fill="white" x="192" y="420" width="53" height="16"/>
		<text font-size="12" font-weight="600" font-family="Segoe UI" x="192, 202.99219, 210.32812, 217.75781, 221.16797, 225.76758, 229.17773, 235.66992, " y="433, ">
				modified
		</text>
		<rect fill="none" stroke="black" stroke-width="1" stroke-linecap="square" stroke-miterlimit="4" transform="translate(0.5 0.5)" x="183" y="418" width="68" height="20"/>
		<rect fill="silver" x="187" y="528" width="59" height="21"/>
		<rect fill="white" x="183" y="524" width="59" height="21"/>
		<rect fill="white" x="188" y="551" width="118" height="108"/>
		<text fill="gray" font-size="9" font-family="Segoe UI" x="188, 190.39502, 193.21191, 195.67725, 199.49609, 204.20264, 207.25244, 209.71777, 212.76758, 218.04102, 220.50635, 223.55615, 226.68506, 231.77832, 236.48486, 238.9502, 242, 247.09326, " y="561, ">
				If set to true the
		</text>
		<text fill="gray" font-size="9" font-family="Segoe UI" x="188, 192.15723, 197.43066, 200.55957, 203.68848, 208.39502, 212.21387, 217.50488, 222.77832, 227.87158, 233.17139, 235.35107, 240.44434, 245.74414, 248.20947, 253.50049, 256.62939, 261.90283, 267.19385, 271.90039, 275.0293, 278.0791, 282.43408, 284.89941, 291.40332, 295.98242, " y="573, ">
				corresponding property was
		</text>
		<text fill="gray" font-size="9" font-family="Segoe UI" x="188, 192.5791, 197.87891, 203.17871, 207.88525, 213.18506, 215.65039, 218.7002, 223.97363, 226.43896, 229.48877, 234.58203, 239.28857, 241.75391, 247.92822, 252.77979, 255.24512, 257.64014, 260.68994, 265.39648, 273.14844, 275.61377, 278.43066, 283.7041, 286.83301, 289.29834, " y="585, ">
				added to the G2 Item for a
		</text>
		<text fill="gray" font-size="9" font-family="Segoe UI" x="188, 191.81885, 197.10986, 201.81641, 205.97363, 208.15332, 210.97021, 213.1499, 217.30713, 219.77246, 223.92969, 229.02295, 232.8418, 235.8916, 241.16504, 248.91699, 253.62354, 256.75244, 259.21777, 264.49121, 267.62012, 270.08545, 275.38525, 278.51416, 283.7876, 288.88086, 294.17188, 296.63721, 301.91064, " y="597, ">
				specific customer or group of
		</text>
		<text fill="gray" font-size="9" font-family="Segoe UI" x="188, 192.15723, 197.25049, 201.06934, 204.11914, 209.39258, 217.14453, 221.85107, 224.97998, 228.79883, 231.26416, 236.5376, 241.63086, 243.81055, 248.16553, 250.1167, 252.58203, 257.29736, 262.39062, 267.09717, 269.5625, 274.8623, 279.56885, 282.38574, 286.96484, 292.05811, 294.23779, " y="609, ">
				customers only. The default
		</text>
		<text fill="gray" font-size="9" font-family="Segoe UI" x="188, 192.31104, 196.89014, 199.06982, 204.16309, 208.86963, 211.33496, 216.6084, 219.42529, 221.89062, 224.94043, 230.03369, 232.21338, 236.03223, 238.49756, 243.78857, 246.91748, 252.19092, 257.48193, 262.18848, 265.31738, 268.36719, 272.72217, 275.1875, 277.36719, 281.18604, 283.65137, 286.46826, 291.04736, 293.22705, 297.0459, " y="621, ">
				value of this property is false
		</text>
		<text fill="gray" font-size="9" font-family="Segoe UI" x="188, 194.50391, 199.59717, 201.77686, 205.93408, 211.02734, 213.49268, 218.07178, 223.36279, 228.65381, 230.8335, 233.01318, 237.71973, 241.53857, 244.00391, 250.50781, 255.60107, 260.30762, 265.40088, 267.86621, 270.91602, 276.00928, 278.18896, " y="633, ">
				which applies when this
		</text>
		<text fill="gray" font-size="9" font-family="Segoe UI" x="188, 192.5791, 195.62891, 198.67871, 201.80762, 203.9873, 209.27832, 214.37158, 217.42139, 222.12793, 224.59326, 226.77295, 230.5918, 233.05713, 238.15039, 243.42383, 246.47363, 248.93896, 254.03223, 257.85107, 262.55762, 267.85742, 270.32275, 276.82666, 279.00635, 282.05615, 287.14941, 289.61475, 292.66455, 297.75781, " y="645, ">
				attribute is not used with the
		</text>
		<text fill="gray" font-size="9" font-family="Segoe UI" x="188, 193.29102, 196.41992, 201.69336, 206.98438, 211.69092, 214.81982, 217.86963, 222.22461, " y="657, ">
				property.
		</text>
		<rect fill="white" x="192" y="526" width="43" height="16"/>
		<text font-size="12" font-weight="600" font-family="Segoe UI" x="192, 197.75977, 205.01953, 210.29883, 214.92188, 222.25781, " y="539, ">
				custom
		</text>
		<rect fill="none" stroke="black" stroke-width="1" stroke-linecap="square" stroke-miterlimit="4" transform="translate(0.5 0.5)" x="183" y="524" width="58" height="20"/>
		<rect fill="silver" x="187" y="670" width="52" height="21"/>
		<rect fill="white" x="183" y="666" width="52" height="21"/>
		<rect fill="white" x="188" y="693" width="118" height="48"/>
		<text fill="gray" font-size="9" font-family="Segoe UI" x="188, 190.39502, 195.48828, 200.78809, 202.96777, 207.125, 211.7041, 214.75391, 219.46045, 223.2793, 225.74463, 231.03564, 235.39062, 237.85596, 244.35986, 249.45312, 251.63281, 255.79004, 260.8833, 263.34863, 271.10059, 275.80713, 280.38623, 285.47949, 289.29834, 291.76367, 294.81348, 299.90674, " y="703, ">
				Indicates by which means the
		</text>
		<text fill="gray" font-size="9" font-family="Segoe UI" x="188, 192.31104, 196.89014, 199.06982, 204.16309, 208.86963, 211.33496, 217.83887, 222.41797, 226.23682, 228.70215, 233.40869, 237.53955, 240.58936, 243.71826, 248.29736, 252.45459, 255.50439, 260.21094, 265.51074, 267.97607, 270.79297, 273.92188, 279.19531, 286.94727, 289.4126, 292.4624, 297.55566, " y="715, ">
				value was extracted from the
		</text>
		<text fill="gray" font-size="9" font-family="Segoe UI" x="188, 192.15723, 197.43066, 202.52393, 205.57373, 210.28027, 215.37354, 218.42334, 220.88867, 224.48779, 226.95312, 231.65967, 235.79053, 241.08154, 244.21045, 248.91699, 252.73584, 256.55469, 261.26123, 266.56104, 269.02637, 274.31738, 278.67236, 281.1377, " y="727, ">
				content - expressed by a
		</text>
		<text fill="gray" font-size="9" font-family="Segoe UI" x="188, 194.78516, 200.35742, 205.63086, 210.93066, " y="739, ">
				QCode
		</text>
		<rect fill="white" x="192" y="668" width="36" height="16"/>
		<text font-size="12" font-weight="600" font-family="Segoe UI" x="192, 199.22461, 206.56055, " y="681, ">
				how
		</text>
		<rect fill="none" stroke="black" stroke-width="1" stroke-linecap="square" stroke-miterlimit="4" transform="translate(0.5 0.5)" x="183" y="666" width="51" height="20"/>
		<rect fill="silver" x="187" y="752" width="57" height="21"/>
		<rect fill="white" x="183" y="748" width="57" height="21"/>
		<rect fill="white" x="188" y="775" width="118" height="36"/>
		<text fill="gray" font-size="9" font-family="Segoe UI" x="188, 190.39502, 195.48828, 200.78809, 202.96777, 207.125, 211.7041, 214.75391, 219.46045, 223.2793, 225.74463, 231.03564, 235.39062, 237.85596, 244.35986, 249.45312, 251.63281, 255.79004, 260.8833, 263.34863, 271.10059, 275.80713, 280.38623, 285.47949, 289.29834, 291.76367, 294.81348, 299.90674, " y="785, ">
				Indicates by which means the
		</text>
		<text fill="gray" font-size="9" font-family="Segoe UI" x="188, 192.31104, 196.89014, 199.06982, 204.16309, 208.86963, 211.33496, 217.83887, 222.41797, 226.23682, 228.70215, 233.40869, 237.53955, 240.58936, 243.71826, 248.29736, 252.45459, 255.50439, 260.21094, 265.51074, 267.97607, 270.79297, 273.92188, 279.19531, 286.94727, 289.4126, 292.4624, 297.55566, " y="797, ">
				value was extracted from the
		</text>
		<text fill="gray" font-size="9" font-family="Segoe UI" x="188, 192.15723, 197.43066, 202.52393, 205.57373, 210.28027, 215.37354, 218.42334, 220.88867, 224.48779, 226.95312, 231.65967, 235.79053, 241.08154, 244.21045, 248.91699, 252.73584, 256.55469, 261.26123, 266.56104, 269.02637, 274.31738, 278.67236, 281.1377, 285.7168, 288.18213, 294.36523, 299.74854, " y="809, ">
				content - expressed by a URI
		</text>
		<rect fill="white" x="192" y="750" width="41" height="16"/>
		<text font-size="12" font-weight="600" font-family="Segoe UI" x="192, 199.22461, 206.56055, 216.12891, 223.38867, 228.21094, " y="763, ">
				howuri
		</text>
		<rect fill="none" stroke="black" stroke-width="1" stroke-linecap="square" stroke-miterlimit="4" transform="translate(0.5 0.5)" x="183" y="748" width="56" height="20"/>
		<rect fill="silver" x="187" y="822" width="52" height="21"/>
		<rect fill="white" x="183" y="818" width="52" height="21"/>
		<rect fill="white" x="188" y="845" width="113" height="36"/>
		<text fill="gray" font-size="9" font-family="Segoe UI" x="188, 196.40674, 201.5, 205.85498, 208.32031, 211.37012, 216.46338, 221.16992, 223.63525, 231.38721, 236.09375, 239.14355, 243.72266, 249.02246, 253.60156, 256.65137, 261.23047, 263.6958, 268.78906, 273.36816, 277.18701, 279.65234, 284.94336, 289.6499, 294.35645, " y="855, ">
				Why the metadata has been
		</text>
		<text fill="gray" font-size="9" font-family="Segoe UI" x="188, 190.17969, 195.27295, 199.43018, 201.60986, 206.70312, 212.00293, 216.70947, 222.00928, 224.47461, 228.07373, 230.53906, 235.24561, 239.37646, 244.66748, 247.79639, 252.50293, 256.32178, 260.14062, 264.84717, 270.14697, 272.6123, 277.90332, 282.2583, 284.72363, " y="867, ">
				included - expressed by a
		</text>
		<text fill="gray" font-size="9" font-family="Segoe UI" x="188, 194.78516, 200.35742, 205.63086, 210.93066, " y="879, ">
				QCode
		</text>
		<rect fill="white" x="192" y="820" width="36" height="16"/>
		<text font-size="12" font-weight="600" font-family="Segoe UI" x="192, 201.56836, 208.79297, " y="833, ">
				why
		</text>
		<rect fill="none" stroke="black" stroke-width="1" stroke-linecap="square" stroke-miterlimit="4" transform="translate(0.5 0.5)" x="183" y="818" width="51" height="20"/>
		<rect fill="silver" x="187" y="892" width="56" height="21"/>
		<rect fill="white" x="183" y="888" width="56" height="21"/>
		<rect fill="white" x="188" y="915" width="119" height="24"/>
		<text fill="gray" font-size="9" font-family="Segoe UI" x="188, 196.40674, 201.5, 205.85498, 208.32031, 211.37012, 216.46338, 221.16992, 223.63525, 231.38721, 236.09375, 239.14355, 243.72266, 249.02246, 253.60156, 256.65137, 261.23047, 263.6958, 268.78906, 273.36816, 277.18701, 279.65234, 284.94336, 289.6499, 294.35645, " y="925, ">
				Why the metadata has been
		</text>
		<text fill="gray" font-size="9" font-family="Segoe UI" x="188, 190.17969, 195.27295, 199.43018, 201.60986, 206.70312, 212.00293, 216.70947, 222.00928, 224.47461, 228.07373, 230.53906, 235.24561, 239.37646, 244.66748, 247.79639, 252.50293, 256.32178, 260.14062, 264.84717, 270.14697, 272.6123, 277.90332, 282.2583, 284.72363, 289.30273, 291.76807, 297.95117, 303.33447, " y="937, ">
				included - expressed by a URI
		</text>
		<rect fill="white" x="192" y="890" width="40" height="16"/>
		<text font-size="12" font-weight="600" font-family="Segoe UI" x="192, 201.56836, 208.79297, 215.25, 222.50977, 227.33203, " y="903, ">
				whyuri
		</text>
		<rect fill="none" stroke="black" stroke-width="1" stroke-linecap="square" stroke-miterlimit="4" transform="translate(0.5 0.5)" x="183" y="888" width="55" height="20"/>
		<rect fill="silver" x="187" y="950" width="97" height="21"/>
		<rect fill="white" x="183" y="946" width="97" height="21"/>
		<rect fill="white" x="188" y="973" width="117" height="72"/>
		<text fill="gray" font-size="9" font-family="Segoe UI" x="188, 194.78516, 199.87842, 204.58496, 207.05029, 212.32373, 215.45264, 217.91797, 225.66992, 230.24902, 235.34229, 239.69727, 242.1626, 246.31982, 251.59326, 256.68652, 260.50537, 263.55518, 266.68408, 271.26318, 273.44287, 278.53613, 281.58594, 285.40479, 287.87012, 290.91992, 296.01318, 300.59229, " y="983, ">
				One or many constraints that
		</text>
		<text fill="gray" font-size="9" font-family="Segoe UI" x="188, 192.5791, 197.87012, 203.16113, 205.34082, 209.6958, 212.16113, 215.21094, 220.48438, 222.94971, 228.24072, 233.33398, 238.625, 240.80469, 242.98438, 246.80322, 251.89648, 254.07617, 259.16943, 264.46924, 266.93457, 269.98438, 275.07764, 279.78418, 282.24951, 286.56055, 291.13965, 293.31934, 298.4126, " y="995, ">
				apply to publishing the value
		</text>
		<text fill="gray" font-size="9" font-family="Segoe UI" x="188, 193.27344, 196.09033, 198.55566, 201.60547, 206.69873, 211.40527, 213.87061, 219.16162, 222.29053, 227.56396, 232.85498, 237.56152, 240.69043, 243.74023, 248.09521, 250.56055, 254.15967, 256.625, 261.33154, 265.4624, 270.75342, 273.88232, 278.58887, 282.40771, 286.22656, 290.93311, " y="1007, ">
				of the property - expressed
		</text>
		<text fill="gray" font-size="9" font-family="Segoe UI" x="188, 193.29102, 197.646, 200.11133, 204.69043, 207.15576, 213.94092, 219.51318, 224.78662, 230.08643, 234.79297, 236.74414, 239.20947, 243.76221, 248.34131, 252.49854, 257.5918, 260.05713, 264.21436, 269.48779, 274.58105, 278.3999, 281.44971, 284.57861, 289.15771, 291.3374, 296.43066, " y="1019, ">
				by a QCode. Each constraint
		</text>
		<text fill="gray" font-size="9" font-family="Segoe UI" x="188, 192.5791, 197.87012, 203.16113, 205.34082, 207.52051, 212.22705, 216.0459, 218.51123, 221.56104, 226.83447, 229.2998, 233.87891, 236.05859, 238.23828, 240.70361, 246.00342, 250.70996, 254.52881, 258.68604, 263.39258, 268.48584, 273.78564, 278.36475, 283.45801, " y="1031, ">
				applies to all descendant
		</text>
		<text fill="gray" font-size="9" font-family="Segoe UI" x="188, 192.70654, 194.88623, 199.59277, 207.34473, 212.05127, 217.14453, 220.19434, 224.01318, " y="1043, ">
				elements.
		</text>
		<rect fill="white" x="192" y="948" width="81" height="16"/>
		<text font-size="12" font-weight="600" font-family="Segoe UI" x="192, 199.44141, 206.70117, 214.14258, 219.90234, 227.23828, 234.49805, 239.77734, 244.44727, 249.22266, 255.67969, 259.08984, 266.34961, " y="961, ">
				pubconstraint
		</text>
		<rect fill="none" stroke="black" stroke-width="1" stroke-linecap="square" stroke-miterlimit="4" transform="translate(0.5 0.5)" x="183" y="946" width="96" height="20"/>
		<rect fill="silver" x="187" y="1056" width="112" height="21"/>
		<rect fill="white" x="183" y="1052" width="112" height="21"/>
		<rect fill="white" x="188" y="1079" width="117" height="72"/>
		<text fill="gray" font-size="9" font-family="Segoe UI" x="188, 194.78516, 199.87842, 204.58496, 207.05029, 212.32373, 215.45264, 217.91797, 225.66992, 230.24902, 235.34229, 239.69727, 242.1626, 246.31982, 251.59326, 256.68652, 260.50537, 263.55518, 266.68408, 271.26318, 273.44287, 278.53613, 281.58594, 285.40479, 287.87012, 290.91992, 296.01318, 300.59229, " y="1089, ">
				One or many constraints that
		</text>
		<text fill="gray" font-size="9" font-family="Segoe UI" x="188, 192.5791, 197.87012, 203.16113, 205.34082, 209.6958, 212.16113, 215.21094, 220.48438, 222.94971, 228.24072, 233.33398, 238.625, 240.80469, 242.98438, 246.80322, 251.89648, 254.07617, 259.16943, 264.46924, 266.93457, 269.98438, 275.07764, 279.78418, 282.24951, 286.56055, 291.13965, 293.31934, 298.4126, " y="1101, ">
				apply to publishing the value
		</text>
		<text fill="gray" font-size="9" font-family="Segoe UI" x="188, 193.27344, 196.09033, 198.55566, 201.60547, 206.69873, 211.40527, 213.87061, 219.16162, 222.29053, 227.56396, 232.85498, 237.56152, 240.69043, 243.74023, 248.09521, 250.56055, 254.15967, 256.625, 261.33154, 265.4624, 270.75342, 273.88232, 278.58887, 282.40771, 286.22656, 290.93311, " y="1113, ">
				of the property - expressed
		</text>
		<text fill="gray" font-size="9" font-family="Segoe UI" x="188, 193.29102, 197.646, 200.11133, 204.69043, 207.15576, 213.33887, 218.72217, 221.11719, 223.06836, 225.53369, 230.08643, 234.66553, 238.82275, 243.91602, 246.38135, 250.53857, 255.81201, 260.90527, 264.72412, 267.77393, 270.90283, 275.48193, 277.66162, 282.75488, " y="1125, ">
				by a URI. Each constraint
		</text>
		<text fill="gray" font-size="9" font-family="Segoe UI" x="188, 192.5791, 197.87012, 203.16113, 205.34082, 207.52051, 212.22705, 216.0459, 218.51123, 221.56104, 226.83447, 229.2998, 233.87891, 236.05859, 238.23828, 240.70361, 246.00342, 250.70996, 254.52881, 258.68604, 263.39258, 268.48584, 273.78564, 278.36475, 283.45801, " y="1137, ">
				applies to all descendant
		</text>
		<text fill="gray" font-size="9" font-family="Segoe UI" x="188, 192.70654, 194.88623, 199.59277, 207.34473, 212.05127, 217.14453, 220.19434, 224.01318, " y="1149, ">
				elements.
		</text>
		<rect fill="white" x="192" y="1054" width="96" height="16"/>
		<text font-size="12" font-weight="600" font-family="Segoe UI" x="192, 199.44141, 206.70117, 214.14258, 219.90234, 227.23828, 234.49805, 239.77734, 244.44727, 249.22266, 255.67969, 259.08984, 266.34961, 271.01953, 278.2793, 283.10156, " y="1067, ">
				pubconstrainturi
		</text>
		<rect fill="none" stroke="black" stroke-width="1" stroke-linecap="square" stroke-miterlimit="4" transform="translate(0.5 0.5)" x="183" y="1052" width="111" height="20"/>
		<rect fill="silver" x="187" y="1162" width="52" height="21"/>
		<rect fill="white" x="183" y="1158" width="52" height="21"/>
		<rect fill="white" x="188" y="1185" width="121" height="72"/>
		<text fill="gray" font-size="9" font-family="Segoe UI" x="188, 193.80518, 196.27051, 200.42773, 205.70117, 210.79443, 214.95166, 219.6582, 224.94922, 227.99902, 230.46436, 232.64404, 237.94385, 242.65039, 247.74365, 250.79346, 252.97314, 255.79004, 257.96973, 262.67627, 265.80518, 268.27051, 272.97705, 277.10791, 282.39893, 285.52783, 290.23438, 294.05322, 297.87207, 302.57861, " y="1195, ">
				A concept identifier expressed
		</text>
		<text fill="gray" font-size="9" font-family="Segoe UI" x="188, 192.5791, 196.39795, 198.86328, 203.44238, 205.90771, 209.72656, 212.77637, 215.90527, 218.08496, 223.17822, 228.47803, 230.94336, 236.2168, 239.03369, 241.49902, 244.54883, 249.64209, 254.34863, 256.81396, 259.63086, 264.9043, 268.0332, 275.78516, 278.25049, 282.06934, 285.88818, 289.70703, 291.6582, 295.81543, 299.97266, 304.12988, " y="1207, ">
				as a string of the form sss:ccc,
		</text>
		<text fill="gray" font-size="9" font-family="Segoe UI" x="188, 194.50391, 199.59717, 204.30371, 207.43262, 212.13916, 214.60449, 218.42334, 222.24219, 226.06104, 228.52637, 230.70605, 234.5249, 236.99023, 241.56934, 244.03467, 247.85352, 252.01074, 257.104, 261.81055, 269.5625, 274.26904, 276.73438, 281.31348, 283.49316, 285.67285, 290.25195, " y="1219, ">
				where sss is a scheme alias
		</text>
		<text fill="gray" font-size="9" font-family="Segoe UI" x="188, 192.5791, 197.67236, 202.97217, 205.4375, 209.59473, 213.75195, 217.90918, 220.37451, 222.5542, 226.37305, 228.83838, 233.41748, 235.88281, 240.04004, 245.31348, 250.61328, 255.31982, 257.271, 259.73633, 264.28906, 266.46875, 269.51855, 274.61182, 279.31836, 282.44727, 284.9126, 287.9624, 293.05566, " y="1231, ">
				and ccc is a code. Either the
		</text>
		<text fill="gray" font-size="9" font-family="Segoe UI" x="188, 193.2998, 197.45703, 202.73047, 208.03027, 212.73682, 215.20215, 220.47559, 223.60449, 226.06982, 229.11963, 234.21289, 238.91943, 241.38477, 246.47803, 249.60693, 251.78662, 254.25195, 258.83105, 261.88086, 264.93066, 268.05957, 270.23926, 275.53027, 280.62354, 283.67334, " y="1243, ">
				qcode or the uri attribute
		</text>
		<text fill="gray" font-size="9" font-family="Segoe UI" x="188, 196.08154, 202.26465, 207.0459, 211.76123, 214.22656, 219.51758, 224.22412, 226.68945, 231.78271, 235.60156, 240.30811, " y="1255, ">
				MUST be used
		</text>
		<rect fill="white" x="192" y="1160" width="36" height="16"/>
		<text font-size="12" font-weight="600" font-family="Segoe UI" x="192, 199.42969, 205.18945, 212.52539, 219.95508, " y="1173, ">
				qcode
		</text>
		<rect fill="none" stroke="black" stroke-width="1" stroke-linecap="square" stroke-miterlimit="4" transform="translate(0.5 0.5)" x="183" y="1158" width="51" height="20"/>
		<rect fill="silver" x="187" y="1268" width="52" height="21"/>
		<rect fill="white" x="183" y="1264" width="52" height="21"/>
		<rect fill="white" x="188" y="1291" width="113" height="48"/>
		<text fill="gray" font-size="9" font-family="Segoe UI" x="188, 193.80518, 196.27051, 202.45361, 207.83691, 210.23193, 212.69727, 219.20117, 224.29443, 226.47412, 230.63135, 235.72461, 238.18994, 240.36963, 245.66943, 250.37598, 255.46924, 258.51904, 260.69873, 263.51562, 265.69531, 270.40186, 274.2207, 276.68604, " y="1301, ">
				A URI which identifies a
		</text>
		<text fill="gray" font-size="9" font-family="Segoe UI" x="188, 192.15723, 197.43066, 202.52393, 206.68115, 211.3877, 216.67871, 219.72852, 224.65918, 228.2583, 230.72363, 235.43018, 237.60986, 240.65967, 245.75293, 250.45947, 253.58838, 256.05371, 259.10352, 264.19678, 268.90332, 273.83398, 279.13379, 283.29102, 288.56445, 293.86426, " y="1313, ">
				concept - either the qcode
		</text>
		<text fill="gray" font-size="9" font-family="Segoe UI" x="188, 193.27344, 196.40234, 198.86768, 201.91748, 207.01074, 211.71729, 214.18262, 219.27588, 222.40479, 224.58447, 227.0498, 231.62891, 234.67871, 237.72852, 240.85742, 243.03711, 248.32812, 253.42139, 256.47119, 261.17773, 263.64307, 271.72461, 277.90771, 282.68896, 287.4043, 289.86963, 295.16064, " y="1325, ">
				or the uri attribute MUST be
		</text>
		<text fill="gray" font-size="9" font-family="Segoe UI" x="188, 193.09326, 196.91211, 201.61865, " y="1337, ">
				used
		</text>
		<rect fill="white" x="192" y="1266" width="36" height="16"/>
		<text font-size="12" font-weight="600" font-family="Segoe UI" x="192, 199.25977, 204.08203, " y="1279, ">
				uri
		</text>
		<rect fill="none" stroke="black" stroke-width="1" stroke-linecap="square" stroke-miterlimit="4" transform="translate(0.5 0.5)" x="183" y="1264" width="51" height="20"/>
		<path fill="silver" d="M187 1355L192 1350L260 1350L265 1355L265 1366L260 1371L192 1371L187 1366L187 1355Z"/>
		<path fill="white" d="M183 1351L188 1346L256 1346L261 1351L261 1362L256 1367L188 1367L183 1362L183 1351Z"/>
		<rect fill="white" x="210" y="1348" width="46" height="16"/>
		<text font-size="12" font-weight="600" font-family="Segoe UI" x="210, 217.10742, 224.21484, 231.55078, 236.2207, 243.44531, 249.9375, " y="1361, ">
				##other
		</text>
		<rect fill="white" x="188" y="1348" width="20" height="16"/>
		<text fill="gray" font-size="12" font-family="Segoe UI" x="188, 194.10547, 200.89648, " y="1361, ">
				any
		</text>
		<path fill="none" stroke="black" stroke-width="1" stroke-linecap="square" stroke-miterlimit="4" transform="translate(0.5 0.5)" d="M183 1351L188 1346L255 1346L260 1351L260 1361L255 1366L188 1366L183 1361L183 1351Z"/>
		<rect fill="silver" x="187" y="1378" width="66" height="21"/>
		<rect fill="white" x="183" y="1374" width="66" height="21"/>
		<rect fill="white" x="188" y="1401" width="121" height="84"/>
		<text fill="gray" font-size="9" font-family="Segoe UI" x="188, 192.78125, 198.07227, 202.77881, 206.93604, 209.11572, 211.93262, 214.1123, 218.81885, 222.6377, 225.10303, 228.15283, 233.24609, 237.95264, 240.41797, 242.59766, 247.17676, 252.27002, 257.56982, 262.66309, 267.24219, 272.54199, 277.24854, 279.71387, 284.9873, 287.8042, 290.26953, 293.31934, 298.4126, 300.59229, " y="1411, ">
				Specifies the language of this
		</text>
		<text fill="gray" font-size="9" font-family="Segoe UI" x="188, 193.29102, 196.41992, 201.69336, 206.98438, 211.69092, 214.81982, 217.86963, 222.22461, 224.68994, 229.26904, 234.3623, 239.66211, 242.12744, 247.41846, 252.69189, 255.7417, 260.44824, 265.5415, 268.59131, 270.771, 275.3501, 277.52979, 279.70947, 284.06445, 286.52979, 291.10889, 293.28857, " y="1423, ">
				property and potentially all
		</text>
		<text fill="gray" font-size="9" font-family="Segoe UI" x="188, 193.2998, 198.00635, 201.8252, 205.98242, 210.68896, 215.78223, 221.08203, 225.66113, 230.75439, 233.8042, 236.26953, 241.56055, 244.68945, 249.96289, 255.25391, 259.96045, 263.08936, 266.13916, 268.31885, 273.02539, 276.84424, " y="1435, ">
				descendant properties.
		</text>
		<text fill="gray" font-size="9" font-family="Segoe UI" x="188, 192.13086, 199.88281, 202.0625, 204.01367, 206.19336, 210.77246, 215.86572, 221.16553, 223.63086, 227.94189, 232.521, 234.70068, 239.79395, 244.50049, 248.31934, 250.78467, 256.05811, 258.875, 261.34033, 266.64014, 271.34668, 275.16553, 279.32275, 284.0293, 289.12256, 294.42236, 299.00146, 304.09473, " y="1447, ">
				xml:lang values of descendant
		</text>
		<text fill="gray" font-size="9" font-family="Segoe UI" x="188, 193.29102, 196.41992, 201.69336, 206.98438, 211.69092, 214.81982, 217.86963, 220.04932, 224.75586, 228.57471, 231.04004, 236.31348, 240.62451, 245.33105, 248.45996, 251.58887, 253.76855, 259.06836, 263.7749, 266.24023, 269.29004, 274.3833, 276.56299, 280.38184, 282.84717, 287.1582, 291.7373, 293.91699, 299.01025, 303.7168, " y="1459, ">
				properties override this value.
		</text>
		<text fill="gray" font-size="9" font-family="Segoe UI" x="188, 192.93066, 197.50977, 199.68945, 204.78271, 209.48926, 213.30811, 215.77344, 220.35254, 223.48145, 228.18799, 230.65332, 235.95312, 240.65967, 243.70947, 248.41602, 251.54492, 259.29688, 261.47656, 266.56982, 271.27637, 276.57617, 279.0415, 284.33252, " y="1471, ">
				Values are determined by
		</text>
		<text fill="gray" font-size="9" font-family="Segoe UI" x="188, 190.39502, 195.48828, 198.53809, 203.24463, 206.37354, 211.4668, 216.17334, 219.22314, 221.68848, 226.84766, 232.41992, 237.46045, 239.92578, 244.77734, 249.62891, " y="1483, ">
				Internet BCP 47.
		</text>
		<rect fill="white" x="192" y="1376" width="50" height="16"/>
		<text font-size="12" font-weight="600" font-family="Segoe UI" x="192, 198.62695, 209.61914, 213.0293, 216.28125, 219.69141, 226.14844, 233.4082, " y="1389, ">
				xml:lang
		</text>
		<path fill="none" stroke="black" stroke-width="2" stroke-miterlimit="4" transform="translate(0.5 0.5)" d="M185 1392L189 1388"/>
		<path fill="none" stroke="black" stroke-width="1" stroke-linecap="square" stroke-miterlimit="4" transform="translate(0.5 0.5)" d="M186 1388L189 1388L189 1391"/>
		<rect fill="none" stroke="black" stroke-width="1" stroke-linecap="square" stroke-miterlimit="4" transform="translate(0.5 0.5)" x="183" y="1374" width="65" height="20"/>
		<rect fill="silver" x="187" y="1496" width="52" height="21"/>
		<rect fill="white" x="183" y="1492" width="52" height="21"/>
		<rect fill="white" x="188" y="1519" width="116" height="24"/>
		<text fill="gray" font-size="9" font-family="Segoe UI" x="188, 192.71533, 197.80859, 202.51514, 204.98047, 210.28027, 212.45996, 215.58887, 220.29541, 224.45264, 227.50244, 229.68213, 234.95557, 240.04883, 244.62793, 246.80762, 248.9873, 252.03711, 256.39209, 258.85742, 264.13086, 266.94775, 269.41309, 272.46289, 277.16943, 281.30029, 284.3501, 289.44336, 294.02246, " y="1529, ">
				The directionality of textual
		</text>
		<text fill="gray" font-size="9" font-family="Segoe UI" x="188, 192.15723, 197.43066, 202.52393, 205.57373, 210.28027, 215.37354, 218.42334, 220.88867, 223.60449, 228.31104, 233.4043, 238.49756, 246.24951, 250.95605, 254.08496, 258.66406, 261.71387, 263.89355, 269.16699, 274.26025, 276.21143, 278.67676, 280.85645, 283.90625, 287.03516, 288.98633, 291.45166, 294.58057, 297.63037, 299.81006, " y="1541, ">
				content (enumeration: ltr, rtl)
		</text>
		<rect fill="white" x="192" y="1494" width="36" height="16"/>
		<text font-size="12" font-weight="600" font-family="Segoe UI" x="192, 199.42969, 202.83984, " y="1507, ">
				dir
		</text>
		<rect fill="none" stroke="black" stroke-width="1" stroke-linecap="square" stroke-miterlimit="4" transform="translate(0.5 0.5)" x="183" y="1492" width="51" height="20"/>
		<rect x="174" y="41" width="11" height="11"/>
		<rect fill="white" x="175" y="42" width="9" height="9"/>
		<rect x="176" y="46" width="7" height="1"/>
		<path fill="none" stroke="black" stroke-width="1" stroke-linecap="square" stroke-miterlimit="4" transform="translate(0.5 0.5)" d="M214 1603L222 1603"/>
		<path fill="none" stroke="black" stroke-width="1" stroke-linecap="square" stroke-miterlimit="4" transform="translate(0.5 0.5)" d="M223 1603L223 1573"/>
		<path fill="none" stroke="black" stroke-width="1" stroke-linecap="square" stroke-miterlimit="4" transform="translate(0.5 0.5)" d="M223 1603L223 1634"/>
		<path fill="none" stroke="black" stroke-width="1" stroke-linecap="square" stroke-miterlimit="4" transform="translate(0.5 0.5)" d="M223 1572L237 1572"/>
		<path fill="none" stroke="black" stroke-width="1" stroke-linecap="square" stroke-miterlimit="4" transform="translate(0.5 0.5)" d="M223 1635L237 1635"/>
		<path fill="silver" d="M176 1605L181 1600L206 1600L211 1605L211 1616L206 1621L181 1621L176 1616L176 1605Z"/>
		<path fill="white" d="M172 1601L177 1596L201 1596L206 1601L206 1611L201 1616L177 1616L172 1611L172 1601Z"/>
		<path transform="translate(0.5 0.5)" d="M175.889 1596.4L176.793 1595.5L177.929 1595.5L178.429 1595.5L178.429 1596.5L177.929 1596.5L177 1596.5L177 1596L177.354 1596.35L176.243 1597.46L175.536 1596.76L175.889 1596.4ZM181.929 1595.5L183.929 1595.5L184.429 1595.5L184.429 1596.5L183.929 1596.5L181.429 1596.5L181.429 1595.5L181.929 1595.5ZM187.929 1595.5L189.929 1595.5L190.429 1595.5L190.429 1596.5L189.929 1596.5L187.429 1596.5L187.429 1595.5L187.929 1595.5ZM193.929 1595.5L195.929 1595.5L196.429 1595.5L196.429 1596.5L195.929 1596.5L193.429 1596.5L193.429 1595.5L193.929 1595.5ZM199.929 1595.5L201.207 1595.5L202.01 1596.3L202.364 1596.66L201.657 1597.36L201.303 1597.01L200.646 1596.35L201 1596L201 1596.5L199.429 1596.5L199.429 1595.5L199.929 1595.5ZM204.839 1599.13L206.253 1600.55L206.607 1600.9L205.899 1601.61L205.546 1601.25L203.778 1599.49L204.485 1598.78L204.839 1599.13ZM206.5 1604.86L206.5 1606.86L206.5 1607.36L205.5 1607.36L205.5 1606.86L205.5 1604.36L206.5 1604.36L206.5 1604.86ZM206.5 1610.86L206.5 1611.21L205.04 1612.67L204.686 1613.02L203.979 1612.31L204.333 1611.96L205.646 1610.65L206 1611L205.5 1611L205.5 1610.36L206.5 1610.36L206.5 1610.86ZM202.211 1615.5L201.207 1616.5L200.213 1616.5L199.713 1616.5L199.713 1615.5L200.213 1615.5L201 1615.5L201 1616L200.646 1615.65L201.858 1614.44L202.565 1615.14L202.211 1615.5ZM196.213 1616.5L194.213 1616.5L193.713 1616.5L193.713 1615.5L194.213 1615.5L196.713 1615.5L196.713 1616.5L196.213 1616.5ZM190.213 1616.5L188.213 1616.5L187.713 1616.5L187.713 1615.5L188.213 1615.5L190.713 1615.5L190.713 1616.5L190.213 1616.5ZM184.213 1616.5L182.213 1616.5L181.713 1616.5L181.713 1615.5L182.213 1615.5L184.713 1615.5L184.713 1616.5L184.213 1616.5ZM178.213 1616.5L176.793 1616.5L176.09 1615.8L175.737 1615.44L176.444 1614.74L176.797 1615.09L177.354 1615.65L177 1616L177 1615.5L178.713 1615.5L178.713 1616.5L178.213 1616.5ZM173.262 1612.97L171.847 1611.55L171.494 1611.2L172.201 1610.49L172.555 1610.85L174.322 1612.62L173.615 1613.32L173.262 1612.97ZM171.5 1607.28L171.5 1605.28L171.5 1604.78L172.5 1604.78L172.5 1605.28L172.5 1607.78L171.5 1607.78L171.5 1607.28ZM171.5 1601.28L171.5 1600.79L173.414 1598.88L174.121 1599.59L172.354 1601.35L172 1601L172.5 1601L172.5 1601.78L171.5 1601.78L171.5 1601.28Z"/>
		<path fill="white" d="M169 1598L174 1593L199 1593L204 1598L204 1609L199 1614L174 1614L169 1609L169 1598Z"/>
		<path fill="none" stroke="black" stroke-width="1" stroke-linecap="square" stroke-miterlimit="4" transform="translate(0.5 0.5)" d="M188 1614L194 1620L197 1617"/>
		<path fill="none" stroke="black" stroke-width="1" stroke-linecap="square" stroke-miterlimit="4" transform="translate(0.5 0.5)" d="M174 1603L179 1603L183 1599"/>
		<path fill="none" stroke="black" stroke-width="1" stroke-linecap="square" stroke-miterlimit="4" transform="translate(0.5 0.5)" d="M189 1603L197 1603"/>
		<path fill="none" stroke="black" stroke-width="1" stroke-linecap="square" stroke-miterlimit="4" transform="translate(0.5 0.5)" d="M189 1599L193 1599L193 1607L189 1607"/>
		<rect x="185" y="1598" width="3" height="3"/>
		<rect x="185" y="1602" width="3" height="3"/>
		<rect x="185" y="1606" width="3" height="3"/>
		<text font-size="12" font-family="Segoe UI" x="173.76562, " y="1633, ">
				0
		</text>
		<text font-size="12" font-family="Symbol" x="188.72266, " y="1632, ">
				
		</text>
		<text font-size="12" font-family="Segoe UI" x="181.89844, 184.5, " y="1633, ">
				..
		</text>
		<path transform="translate(0.5 0.5)" d="M172.889 1593.4L173.793 1592.5L174.929 1592.5L175.429 1592.5L175.429 1593.5L174.929 1593.5L174 1593.5L174 1593L174.354 1593.35L173.243 1594.46L172.536 1593.76L172.889 1593.4ZM178.929 1592.5L180.929 1592.5L181.429 1592.5L181.429 1593.5L180.929 1593.5L178.429 1593.5L178.429 1592.5L178.929 1592.5ZM184.929 1592.5L186.929 1592.5L187.429 1592.5L187.429 1593.5L186.929 1593.5L184.429 1593.5L184.429 1592.5L184.929 1592.5ZM190.929 1592.5L192.929 1592.5L193.429 1592.5L193.429 1593.5L192.929 1593.5L190.429 1593.5L190.429 1592.5L190.929 1592.5ZM196.929 1592.5L198.207 1592.5L199.01 1593.3L199.364 1593.66L198.657 1594.36L198.303 1594.01L197.646 1593.35L198 1593L198 1593.5L196.429 1593.5L196.429 1592.5L196.929 1592.5ZM201.839 1596.13L203.253 1597.55L203.607 1597.9L202.899 1598.61L202.546 1598.25L200.778 1596.49L201.485 1595.78L201.839 1596.13ZM203.5 1601.86L203.5 1603.86L203.5 1604.36L202.5 1604.36L202.5 1603.86L202.5 1601.36L203.5 1601.36L203.5 1601.86ZM203.5 1607.86L203.5 1608.21L202.04 1609.67L201.686 1610.02L200.979 1609.31L201.333 1608.96L202.646 1607.65L203 1608L202.5 1608L202.5 1607.36L203.5 1607.36L203.5 1607.86ZM199.211 1612.5L198.207 1613.5L197.213 1613.5L196.713 1613.5L196.713 1612.5L197.213 1612.5L198 1612.5L198 1613L197.646 1612.65L198.858 1611.44L199.565 1612.14L199.211 1612.5ZM193.213 1613.5L191.213 1613.5L190.713 1613.5L190.713 1612.5L191.213 1612.5L193.713 1612.5L193.713 1613.5L193.213 1613.5ZM187.213 1613.5L185.213 1613.5L184.713 1613.5L184.713 1612.5L185.213 1612.5L187.713 1612.5L187.713 1613.5L187.213 1613.5ZM181.213 1613.5L179.213 1613.5L178.713 1613.5L178.713 1612.5L179.213 1612.5L181.713 1612.5L181.713 1613.5L181.213 1613.5ZM175.213 1613.5L173.793 1613.5L173.09 1612.8L172.737 1612.44L173.444 1611.74L173.797 1612.09L174.354 1612.65L174 1613L174 1612.5L175.713 1612.5L175.713 1613.5L175.213 1613.5ZM170.262 1609.97L168.847 1608.55L168.494 1608.2L169.201 1607.49L169.555 1607.85L171.322 1609.62L170.615 1610.32L170.262 1609.97ZM168.5 1604.28L168.5 1602.28L168.5 1601.78L169.5 1601.78L169.5 1602.28L169.5 1604.78L168.5 1604.78L168.5 1604.28ZM168.5 1598.28L168.5 1597.79L170.414 1595.88L171.121 1596.59L169.354 1598.35L169 1598L169.5 1598L169.5 1598.78L168.5 1598.78L168.5 1598.28Z"/>
		<rect fill="silver" x="242" y="1566" width="54" height="21"/>
		<rect fill="white" x="238" y="1562" width="54" height="21"/>
		<rect fill="#FFFFC0" x="243" y="1589" width="115" height="24"/>
		<text fill="gray" font-size="9" font-family="Segoe UI" x="243, 248.80518, 251.27051, 256.36377, 260.94287, 263.99268, 269.08594, 272.21484, 276.79395, 278.97363, 281.43896, 283.61865, 288.19775, 293.29102, 298.59082, 303.68408, 308.26318, 313.56299, 318.26953, 320.73486, 325.82812, 330.40723, 338.15918, 342.86572, 345.33105, 348.14795, 353.42139, " y="1599, ">
				A natural language name for
		</text>
		<text fill="gray" font-size="9" font-family="Segoe UI" x="243, 246.0498, 251.14307, 255.84961, 258.31494, 262.47217, 267.74561, 272.83887, 276.99609, 281.70264, 286.99365, 290.04346, " y="1611, ">
				the concept.
		</text>
		<rect fill="white" x="247" y="1564" width="33" height="16"/>
		<text font-size="12" font-weight="600" font-family="Segoe UI" x="247, 254.25977, 260.7168, 271.70898, " y="1577, ">
				name
		</text>
		<path fill="none" stroke="black" stroke-width="1" stroke-linecap="square" stroke-miterlimit="4" transform="translate(0.5 0.5)" d="M240 1564L245 1564"/>
		<path fill="none" stroke="black" stroke-width="1" stroke-linecap="square" stroke-miterlimit="4" transform="translate(0.5 0.5)" d="M240 1566L244 1566"/>
		<path fill="none" stroke="black" stroke-width="1" stroke-linecap="square" stroke-miterlimit="4" transform="translate(0.5 0.5)" d="M240 1568L244 1568"/>
		<path fill="none" stroke="black" stroke-width="2" stroke-miterlimit="4" transform="translate(0.5 0.5)" d="M240 1580L244 1576"/>
		<path fill="none" stroke="black" stroke-width="1" stroke-linecap="square" stroke-miterlimit="4" transform="translate(0.5 0.5)" d="M241 1576L244 1576L244 1579"/>
		<rect fill="none" stroke="black" stroke-width="1" stroke-linecap="square" stroke-miterlimit="4" transform="translate(0.5 0.5)" x="238" y="1562" width="53" height="20"/>
		<rect x="286" y="1567" width="11" height="11"/>
		<rect fill="white" x="287" y="1568" width="9" height="9"/>
		<rect x="288" y="1572" width="7" height="1"/>
		<rect x="291" y="1569" width="1" height="7"/>
		<rect fill="silver" x="242" y="1629" width="98" height="21"/>
		<rect fill="white" x="238" y="1625" width="98" height="21"/>
		<rect fill="#FFFFC0" x="243" y="1652" width="121" height="72"/>
		<text fill="gray" font-size="9" font-family="Segoe UI" x="243, 248.11963, 252.82617, 258.11719, 261.24609, 265.95264, 269.77148, 274.47803, 279.57129, 282.62109, 286.43994, 288.90527, 291.95508, 297.04834, 301.75488, 304.22021, 309.51123, 314.78467, 318.60352, 320.7832, 323.83301, 326.0127, 331.28613, 336.37939, 338.84473, 344.11816, 346.93506, 349.40039, " y="1662, ">
				Represents the position of a
		</text>
		<text fill="gray" font-size="9" font-family="Segoe UI" x="243, 247.15723, 252.43066, 257.52393, 261.68115, 266.3877, 271.67871, 274.72852, 277.19385, 279.37354, 284.4668, 286.93213, 291.51123, 293.97656, 299.06982, 301.24951, 305.95605, 309.08496, 313.66406, 316.79297, 320.9502, 326.04346, 328.22314, 332.38037, 336.95947, " y="1674, ">
				concept in a hierarchical
		</text>
		<text fill="gray" font-size="9" font-family="Segoe UI" x="243, 246.0498, 250.62891, 254.75977, 260.0332, 265.12646, 270.3999, 278.15186, 282.50684, 284.97217, 288.02197, 291.15088, 295.85742, 300.56396, 303.0293, 308.32031, 312.67529, 315.14062, 319.71973, 322.18506, 326.00391, 330.71045, 336.01025, 341.10352, 345.81006, 350.90332, 355.06055, " y="1686, ">
				taxonomy tree by a sequence
		</text>
		<text fill="gray" font-size="9" font-family="Segoe UI" x="243, 248.27344, 251.09033, 253.55566, 260.34082, 265.91309, 271.18652, 276.48633, 281.19287, 283.6582, 286.70801, 291.98145, 296.45508, 301.16162, 306.25488, 310.07373, 312.53906, 315.66797, 320.37451, 325.66553, 328.79443, 333.50098, 337.31982, 342.02637, 347.11963, 350.16943, 352.34912, 357.44238, " y="1698, ">
				of QCode tokens representing
		</text>
		<text fill="gray" font-size="9" font-family="Segoe UI" x="243, 246.0498, 251.14307, 255.84961, 258.31494, 262.89404, 267.9873, 272.14453, 276.85107, 280.66992, 283.71973, 288.99316, 292.12207, 294.5874, 298.74463, 304.01807, 309.11133, 313.26855, 317.9751, 323.26611, 326.31592, 330.13477, 332.6001, 337.1792, 342.27246, " y="1710, ">
				the ancestor concepts and
		</text>
		<text fill="gray" font-size="9" font-family="Segoe UI" x="243, 246.0498, 251.14307, 253.32275, 257.1416, 259.60693, 263.76416, 269.0376, 274.13086, 278.28809, 282.99463, 288.28564, " y="1722, ">
				this concept
		</text>
		<rect fill="white" x="247" y="1627" width="77" height="16"/>
		<text font-size="12" font-weight="600" font-family="Segoe UI" x="247, 254.22461, 257.63477, 264.12695, 268.90234, 275.35938, 280.08789, 285.84766, 293.07227, 299.5293, 303.33203, 310.5918, 315.19141, " y="1640, ">
				hierarchyInfo
		</text>
		<path fill="none" stroke="black" stroke-width="1" stroke-linecap="square" stroke-miterlimit="4" transform="translate(0.5 0.5)" d="M240 1627L245 1627"/>
		<path fill="none" stroke="black" stroke-width="1" stroke-linecap="square" stroke-miterlimit="4" transform="translate(0.5 0.5)" d="M240 1629L244 1629"/>
		<path fill="none" stroke="black" stroke-width="1" stroke-linecap="square" stroke-miterlimit="4" transform="translate(0.5 0.5)" d="M240 1631L244 1631"/>
		<path fill="none" stroke="black" stroke-width="2" stroke-miterlimit="4" transform="translate(0.5 0.5)" d="M240 1643L244 1639"/>
		<path fill="none" stroke="black" stroke-width="1" stroke-linecap="square" stroke-miterlimit="4" transform="translate(0.5 0.5)" d="M241 1639L244 1639L244 1642"/>
		<rect fill="none" stroke="black" stroke-width="1" stroke-linecap="square" stroke-miterlimit="4" transform="translate(0.5 0.5)" x="238" y="1625" width="97" height="20"/>
		<rect x="330" y="1630" width="11" height="11"/>
		<rect fill="white" x="331" y="1631" width="9" height="9"/>
		<rect x="332" y="1635" width="7" height="1"/>
		<rect x="335" y="1632" width="1" height="7"/>
		<rect x="203" y="1598" width="11" height="11"/>
		<rect fill="white" x="204" y="1599" width="9" height="9"/>
		<rect x="205" y="1603" width="7" height="1"/>
		<rect x="46" y="1193" width="11" height="11"/>
		<rect fill="white" x="47" y="1194" width="9" height="9"/>
		<rect x="48" y="1198" width="7" height="1"/>
	</g>
</svg>
