<?xml version="1.0" encoding="utf-8" ?>
<svg xmlns="http://www.w3.org/2000/svg" xmlns:xlink="http://www.w3.org/1999/xlink" width="382" height="1634">
	<clipPath id="cl_68a">
		<rect x="-10" y="-5" width="382" height="1634"/>
	</clipPath>
	<g clip-path="url(#cl_68a)">
		<rect fill="#FFFFC0" x="135" width="196" height="1432"/>
		<rect fill="none" stroke="gray" stroke-width="1" stroke-linecap="square" stroke-miterlimit="4" transform="translate(0.5 0.5)" x="135" width="195" height="1431"/>
		<path fill="none" stroke="black" stroke-width="1" stroke-linecap="square" stroke-miterlimit="4" transform="translate(0.5 0.5)" d="M83 728L147 728"/>
		<path fill="none" stroke="black" stroke-width="1" stroke-linecap="square" stroke-miterlimit="4" transform="translate(0.5 0.5)" d="M148 728L148 1527"/>
		<path fill="none" stroke="black" stroke-width="1" stroke-linecap="square" stroke-miterlimit="4" transform="translate(0.5 0.5)" d="M148 1528L162 1528"/>
		<path fill="none" stroke="black" stroke-width="1" stroke-linecap="square" stroke-miterlimit="4" transform="translate(0.5 0.5)" d="M148 728L162 728"/>
		<rect fill="silver" x="4" y="722" width="78" height="21"/>
		<rect fill="white" y="718" width="78" height="21"/>
		<rect fill="#FFFFC0" x="143" y="8" width="118" height="16"/>
		<text fill="gray" font-size="12" font-weight="600" font-family="Segoe UI" x="143, 150.22461, 156.7168, 161.5625, 166.8418, 170.25195, 177.58789, 184.84766, 191.33984, 198.76953, 205.19727, 209.86719, 214.68945, 218.09961, 225.35938, 232.78906, 239.28125, 245.73828, 253.17969, " y="21, ">
				VersionedStringType
		</text>
		<rect fill="white" x="5" y="745" width="115" height="36"/>
		<text fill="gray" font-size="9" font-family="Segoe UI" x="5, 9.715332, 14.808594, 19.515137, 21.980469, 27.07373, 31.652832, 39.404785, 44.111328, 46.57666, 51.155762, 56.249023, 61.548828, 64.01416, 68.325195, 73.031738, 76.160645, 79.979492, 82.15918, 87.432617, 92.525879, 94.991211, 100.26465, 103.08154, 105.54688, 108.59668, 113.68994, " y="755, ">
				The name and version of the
		</text>
		<text fill="gray" font-size="9" font-family="Segoe UI" x="5, 8.8188477, 14.092285, 16.90918, 19.958984, 26.462891, 31.041992, 34.170898, 38.877441, 41.342773, 44.392578, 49.666016, 54.939453, 57.119141, 59.584473, 64.677734, 68.496582, 73.203125, 78.50293, 80.968262, 84.018066, " y="767, ">
				software tool used to
		</text>
		<text fill="gray" font-size="9" font-family="Segoe UI" x="5, 10.299805, 15.006348, 20.099609, 24.806152, 27.935059, 32.51416, 35.563965, 40.270508, 42.73584, 45.785645, 50.878906, 55.585449, 58.050781, 60.445801, 63.495605, 68.202148, 75.954102, " y="779, ">
				generate the Item.
		</text>
		<rect fill="white" x="9" y="720" width="57" height="16"/>
		<text font-size="12" font-weight="600" font-family="Segoe UI" x="9, 16.429688, 22.921875, 30.181641, 36.673828, 41.449219, 47.90625, 52.529297, 59.865234, " y="733, ">
				generator
		</text>
		<path fill="none" stroke="black" stroke-width="1" stroke-linecap="square" stroke-miterlimit="4" transform="translate(0.5 0.5)" d="M2 720L7 720"/>
		<path fill="none" stroke="black" stroke-width="1" stroke-linecap="square" stroke-miterlimit="4" transform="translate(0.5 0.5)" d="M2 722L6 722"/>
		<path fill="none" stroke="black" stroke-width="1" stroke-linecap="square" stroke-miterlimit="4" transform="translate(0.5 0.5)" d="M2 724L6 724"/>
		<rect fill="#FFFFC0" x="265" y="8" width="59" height="16"/>
		<text fill="gray" font-size="12" font-family="Segoe UI" x="265, 268.62109, 274.89648, 280.4043, 284.4707, 290.74609, 297.53711, 302.62891, 305.53516, 312.56641, 319.35742, " y="21, ">
				(extension)
		</text>
		<rect fill="none" stroke="black" stroke-width="1" stroke-linecap="square" stroke-miterlimit="4" transform="translate(0.5 0.5)" y="718" width="77" height="20"/>
		<path fill="white" d="M240 55L240 36L163 36L163 55L163 1419L310 1419L310 55L240 55Z"/>
		<rect fill="white" x="183" y="38" width="51" height="16"/>
		<text font-size="12" font-style="italic" font-family="Segoe UI" x="183, 189.50391, 193.38281, 197.26172, 201.5332, 204.63867, 211.14258, 217.83984, 221.73047, 227.57227, " y="51, ">
				attributes
		</text>
		<path fill="none" stroke="black" stroke-width="1" stroke-linecap="square" stroke-miterlimit="4" transform="translate(0.5 0.5)" d="M240 55L240 36L163 36L163 55L163 1419L310 1419L310 55L240 55Z"/>
		<rect fill="silver" x="181" y="68" width="52" height="21"/>
		<rect fill="white" x="177" y="64" width="52" height="21"/>
		<rect fill="white" x="182" y="91" width="101" height="24"/>
		<text fill="gray" font-size="9" font-family="Segoe UI" x="182, 186.71533, 191.80859, 196.51514, 198.98047, 201.16016, 206.43359, 210.59082, 215.16992, 217.34961, 219.81494, 221.99463, 227.29443, 232.00098, 237.09424, 240.14404, 242.32373, 245.14062, 247.32031, 252.02686, 255.15576, 257.62109, 262.89453, 265.71143, 268.17676, 271.22656, 276.31982, " y="101, ">
				The local identifier of the
		</text>
		<text fill="gray" font-size="9" font-family="Segoe UI" x="182, 187.29102, 190.41992, 195.69336, 200.98438, 205.69092, 208.81982, 211.86963, 216.22461, " y="113, ">
				property.
		</text>
		<rect fill="white" x="186" y="66" width="36" height="16"/>
		<text font-size="12" font-weight="600" font-family="Segoe UI" x="186, 189.41016, " y="79, ">
				id
		</text>
		<rect fill="none" stroke="black" stroke-width="1" stroke-linecap="square" stroke-miterlimit="4" transform="translate(0.5 0.5)" x="177" y="64" width="51" height="20"/>
		<rect fill="silver" x="181" y="126" width="58" height="21"/>
		<rect fill="white" x="177" y="122" width="58" height="21"/>
		<rect fill="white" x="182" y="149" width="121" height="120"/>
		<text fill="gray" font-size="9" font-family="Segoe UI" x="182, 184.39502, 187.21191, 189.67725, 192.72705, 197.82031, 202.52686, 204.99219, 210.2832, 213.41211, 218.68555, 223.97656, 228.68311, 231.81201, 234.86182, 239.2168, 241.68213, 245.99316, 250.57227, 252.75195, 257.84521, 262.55176, 265.01709, 267.19678, 271.01562, 273.48096, 278.57422, 283.84766, " y="159, ">
				If the property value is not
		</text>
		<text fill="gray" font-size="9" font-family="Segoe UI" x="182, 187.2998, 192.00635, 194.82324, 197.00293, 202.09619, 206.80273, 212.10254, 214.05371, 216.51904, 220.33789, 225.62891, 230.33545, 234.49268, 236.67236, 239.48926, 241.66895, 246.37549, 250.19434, 252.65967, 259.16357, 264.25684, 266.43652, 270.59375, 275.68701, 278.15234, 282.85889, 287.95215, 291.00195, 293.18164, 296.23145, " y="171, ">
				defined, specifies which entity
		</text>
		<text fill="gray" font-size="9" font-family="Segoe UI" x="182, 184.71582, 190.00684, 194.71338, 197.84229, 201.66113, 206.93457, 212.02783, 213.979, 216.44434, 221.71777, 224.84668, 230.14648, 234.72559, 239.81885, 241.99854, 245.81738, 250.39648, 253.44629, 255.62598, 260.89941, 265.99268, 268.45801, 273.73145, " y="183, ">
				(person, organisation or
		</text>
		<text fill="gray" font-size="9" font-family="Segoe UI" x="182, 185.81885, 190.17383, 193.99268, 197.04248, 201.74902, 209.50098, 212.2168, 214.68213, 221.18604, 223.36572, 225.54541, 227.7251, 230.19043, 234.89697, 240.19678, 242.37646, 245.42627, 247.8916, 250.94141, 256.03467, 260.74121, 263.20654, 268.49756, 271.62646, 276.8999, 282.19092, 286.89746, 290.02637, 293.07617, " y="195, ">
				system) will edit the property
		</text>
		<text fill="gray" font-size="9" font-family="Segoe UI" x="182, 186.31104, 190.89014, 193.06982, 198.16309, 202.86963, 205.33496, 208.93408, 211.39941, 216.10596, 220.23682, 225.52783, 228.65674, 233.36328, 237.18213, 241.00098, 245.70752, 251.00732, 253.47266, 258.76367, 263.11865, 265.58398, 270.16309, 272.62842, 279.41357, 284.98584, 290.25928, 295.55908, 300.26562, " y="207, ">
				value - expressed by a QCode.
		</text>
		<text fill="gray" font-size="9" font-family="Segoe UI" x="182, 184.39502, 187.21191, 189.67725, 192.72705, 197.82031, 202.52686, 204.99219, 210.2832, 213.41211, 218.68555, 223.97656, 228.68311, 231.81201, 234.86182, 239.2168, 241.68213, 245.99316, 250.57227, 252.75195, 257.84521, 262.55176, 265.01709, 267.19678, " y="219, ">
				If the property value is
		</text>
		<text fill="gray" font-size="9" font-family="Segoe UI" x="182, 187.2998, 192.00635, 194.82324, 197.00293, 202.09619, 206.80273, 212.10254, 214.05371, 216.51904, 220.33789, 225.62891, 230.33545, 234.49268, 236.67236, 239.48926, 241.66895, 246.37549, 250.19434, 252.65967, 259.16357, 264.25684, 266.43652, 270.59375, 275.68701, 278.15234, 282.85889, 287.95215, 291.00195, 293.18164, 296.23145, " y="231, ">
				defined, specifies which entity
		</text>
		<text fill="gray" font-size="9" font-family="Segoe UI" x="182, 184.71582, 190.00684, 194.71338, 197.84229, 201.66113, 206.93457, 212.02783, 213.979, 216.44434, 221.71777, 224.84668, 230.14648, 234.72559, 239.81885, 241.99854, 245.81738, 250.39648, 253.44629, 255.62598, 260.89941, 265.99268, 268.45801, 273.73145, " y="243, ">
				(person, organisation or
		</text>
		<text fill="gray" font-size="9" font-family="Segoe UI" x="182, 185.81885, 190.17383, 193.99268, 197.04248, 201.74902, 209.50098, 212.2168, 214.68213, 219.77539, 224.35449, 228.17334, 230.63867, 235.34521, 240.64502, 242.82471, 245.87451, 250.58105, 255.88086, 258.34619, 261.396, 266.48926, " y="255, ">
				system) has edited the
		</text>
		<text fill="gray" font-size="9" font-family="Segoe UI" x="182, 187.29102, 190.41992, 195.69336, 200.98438, 205.69092, 208.81982, 211.86963, 216.22461, 218.68994, 223.00098, 227.58008, 229.75977, 234.85303, 239.55957, " y="267, ">
				property value.
		</text>
		<rect fill="white" x="186" y="124" width="42" height="16"/>
		<text font-size="12" font-weight="600" font-family="Segoe UI" x="186, 191.75977, 196.48828, 202.98047, 209.4375, 214.06055, 221.39648, " y="137, ">
				creator
		</text>
		<rect fill="none" stroke="black" stroke-width="1" stroke-linecap="square" stroke-miterlimit="4" transform="translate(0.5 0.5)" x="177" y="122" width="57" height="20"/>
		<rect fill="silver" x="181" y="280" width="73" height="21"/>
		<rect fill="white" x="177" y="276" width="73" height="21"/>
		<rect fill="white" x="182" y="303" width="120" height="108"/>
		<text fill="gray" font-size="9" font-family="Segoe UI" x="182, 184.39502, 187.21191, 189.67725, 192.72705, 197.82031, 202.52686, 204.99219, 210.2832, 213.41211, 218.68555, 223.97656, 228.68311, 231.81201, 234.86182, 239.2168, 241.68213, 245.99316, 250.57227, 252.75195, 257.84521, 262.55176, 265.01709, 267.19678, 271.01562, 273.48096, 278.57422, 283.84766, " y="313, ">
				If the property value is not
		</text>
		<text fill="gray" font-size="9" font-family="Segoe UI" x="182, 187.2998, 192.00635, 194.82324, 197.00293, 202.09619, 206.80273, 212.10254, 214.05371, 216.51904, 220.33789, 225.62891, 230.33545, 234.49268, 236.67236, 239.48926, 241.66895, 246.37549, 250.19434, 252.65967, 259.16357, 264.25684, 266.43652, 270.59375, 275.68701, 278.15234, 282.85889, 287.95215, 291.00195, 293.18164, 296.23145, " y="325, ">
				defined, specifies which entity
		</text>
		<text fill="gray" font-size="9" font-family="Segoe UI" x="182, 184.71582, 190.00684, 194.71338, 197.84229, 201.66113, 206.93457, 212.02783, 213.979, 216.44434, 221.71777, 224.84668, 230.14648, 234.72559, 239.81885, 241.99854, 245.81738, 250.39648, 253.44629, 255.62598, 260.89941, 265.99268, 268.45801, 273.73145, " y="337, ">
				(person, organisation or
		</text>
		<text fill="gray" font-size="9" font-family="Segoe UI" x="182, 185.81885, 190.17383, 193.99268, 197.04248, 201.74902, 209.50098, 212.2168, 214.68213, 221.18604, 223.36572, 225.54541, 227.7251, 230.19043, 234.89697, 240.19678, 242.37646, 245.42627, 247.8916, 250.94141, 256.03467, 260.74121, 263.20654, 268.49756, 271.62646, 276.8999, 282.19092, 286.89746, 290.02637, 293.07617, " y="349, ">
				system) will edit the property
		</text>
		<text fill="gray" font-size="9" font-family="Segoe UI" x="182, 185.59912, 188.06445, 192.771, 196.90186, 202.19287, 205.32178, 210.02832, 213.84717, 217.66602, 222.37256, 227.67236, 230.1377, 235.42871, 239.78369, 242.24902, 246.82812, 249.29346, 255.47656, 260.85986, 263.25488, 265.20605, 267.67139, 270.06641, 272.8833, 275.34863, 278.39844, 283.4917, " y="361, ">
				- expressed by a URI. If the
		</text>
		<text fill="gray" font-size="9" font-family="Segoe UI" x="182, 187.29102, 190.41992, 195.69336, 200.98438, 205.69092, 208.81982, 211.86963, 216.22461, 218.68994, 223.00098, 227.58008, 229.75977, 234.85303, 239.55957, 242.0249, 244.20459, 248.02344, 250.48877, 255.78857, 260.49512, 263.31201, 265.4917, 270.58496, 275.2915, 280.59131, " y="373, ">
				property value is defined,
		</text>
		<text fill="gray" font-size="9" font-family="Segoe UI" x="182, 185.81885, 191.10986, 195.81641, 199.97363, 202.15332, 204.97021, 207.1499, 211.85645, 215.67529, 218.14062, 224.64453, 229.73779, 231.91748, 236.07471, 241.16797, 243.6333, 248.33984, 253.43311, 256.48291, 258.6626, 261.7124, 266.06738, 268.53271, 271.24854, 276.53955, 281.24609, 284.375, 288.19385, 293.46729, 298.56055, " y="385, ">
				specifies which entity (person,
		</text>
		<text fill="gray" font-size="9" font-family="Segoe UI" x="182, 187.27344, 190.40234, 195.70215, 200.28125, 205.37451, 207.5542, 211.37305, 215.95215, 219.00195, 221.18164, 226.45508, 231.54834, 234.01367, 239.28711, 242.41602, 244.88135, 248.7002, 253.05518, 256.87402, 259.92383, 264.63037, 272.38232, 275.09814, 277.56348, 282.65674, 287.23584, " y="397, ">
				organisation or system) has
		</text>
		<text fill="gray" font-size="9" font-family="Segoe UI" x="182, 186.70654, 192.00635, 194.18604, 197.23584, 201.94238, 207.24219, 209.70752, 212.75732, 217.85059, 222.55713, 225.02246, 230.31348, 233.44238, 238.71582, 244.00684, 248.71338, 251.84229, 254.89209, 259.24707, " y="409, ">
				edited the property.
		</text>
		<rect fill="white" x="186" y="278" width="57" height="16"/>
		<text font-size="12" font-weight="600" font-family="Segoe UI" x="186, 191.75977, 196.48828, 202.98047, 209.4375, 214.06055, 221.39648, 226.20703, 233.4668, 238.28906, " y="291, ">
				creatoruri
		</text>
		<rect fill="none" stroke="black" stroke-width="1" stroke-linecap="square" stroke-miterlimit="4" transform="translate(0.5 0.5)" x="177" y="276" width="72" height="20"/>
		<rect fill="silver" x="181" y="422" width="69" height="21"/>
		<rect fill="white" x="177" y="418" width="69" height="21"/>
		<rect fill="white" x="182" y="445" width="119" height="72"/>
		<text fill="gray" font-size="9" font-family="Segoe UI" x="182, 186.71533, 191.80859, 196.51514, 198.98047, 204.28027, 208.85938, 211.90918, 216.61572, 219.08105, 221.79688, 226.37598, 231.46924, 236.76904, 238.72021, 241.18555, 246.45898, 251.75, 254.7998, 256.97949, 262.25293, 267.34619, 271.92529, 274.10498, 276.28467, 280.63965, 282.59082, 285.05615, 288.10596, 293.19922, " y="455, ">
				The date (and, optionally, the
		</text>
		<text fill="gray" font-size="9" font-family="Segoe UI" x="182, 185.0498, 187.22949, 194.98145, 199.68799, 202.40381, 204.86914, 211.37305, 216.46631, 221.17285, 226.26611, 228.73145, 231.78125, 236.87451, 241.58105, 244.04639, 249.3374, 252.46631, 257.73975, 263.03076, 267.7373, 270.86621, 273.91602, 278.271, 280.73633, 287.24023, 291.81934, " y="467, ">
				time) when the property was
		</text>
		<text fill="gray" font-size="9" font-family="Segoe UI" x="182, 184.17969, 188.75879, 192.57764, 195.62744, 198.09277, 205.84473, 211.11816, 216.41797, 218.59766, 221.41455, 223.59424, 228.30078, 233.60059, 235.55176, 238.01709, 242.73242, 247.82568, 252.53223, 254.99756, 257.17725, 262.27051, 264.4502, 267.5, 269.67969, 274.25879, 276.43848, 278.90381, 283.21484, 287.79395, 289.97363, 295.06689, " y="479, ">
				last modified. The initial value
		</text>
		<text fill="gray" font-size="9" font-family="Segoe UI" x="182, 184.17969, 187.99854, 190.46387, 193.51367, 198.60693, 203.31348, 205.77881, 211.07861, 215.65771, 218.70752, 223.41406, 225.87939, 228.59521, 233.17432, 238.26758, 243.56738, 245.51855, 247.98389, 253.25732, 258.54834, 261.59814, 263.77783, 269.05127, 274.14453, 278.72363, 280.90332, 283.08301, 287.43799, " y="491, ">
				is the date (and, optionally,
		</text>
		<text fill="gray" font-size="9" font-family="Segoe UI" x="182, 185.0498, 190.14307, 194.84961, 197.31494, 200.36475, 202.54443, 210.29639, 215.00293, 217.71875, 220.18408, 225.45752, 228.27441, 230.73975, 234.89697, 238.02588, 242.73242, 247.31152, 250.36133, 252.54102, 257.81445, 262.90771, 265.37305, 270.64648, 273.46338, 275.92871, 278.97852, 284.07178, " y="503, ">
				the time) of creation of the
		</text>
		<text fill="gray" font-size="9" font-family="Segoe UI" x="182, 187.29102, 190.41992, 195.69336, 200.98438, 205.69092, 208.81982, 211.86963, 216.22461, " y="515, ">
				property.
		</text>
		<rect fill="white" x="186" y="420" width="53" height="16"/>
		<text font-size="12" font-weight="600" font-family="Segoe UI" x="186, 196.99219, 204.32812, 211.75781, 215.16797, 219.76758, 223.17773, 229.66992, " y="433, ">
				modified
		</text>
		<rect fill="none" stroke="black" stroke-width="1" stroke-linecap="square" stroke-miterlimit="4" transform="translate(0.5 0.5)" x="177" y="418" width="68" height="20"/>
		<rect fill="silver" x="181" y="528" width="59" height="21"/>
		<rect fill="white" x="177" y="524" width="59" height="21"/>
		<rect fill="white" x="182" y="551" width="118" height="108"/>
		<text fill="gray" font-size="9" font-family="Segoe UI" x="182, 184.39502, 187.21191, 189.67725, 193.49609, 198.20264, 201.25244, 203.71777, 206.76758, 212.04102, 214.50635, 217.55615, 220.68506, 225.77832, 230.48486, 232.9502, 236, 241.09326, " y="561, ">
				If set to true the
		</text>
		<text fill="gray" font-size="9" font-family="Segoe UI" x="182, 186.15723, 191.43066, 194.55957, 197.68848, 202.39502, 206.21387, 211.50488, 216.77832, 221.87158, 227.17139, 229.35107, 234.44434, 239.74414, 242.20947, 247.50049, 250.62939, 255.90283, 261.19385, 265.90039, 269.0293, 272.0791, 276.43408, 278.89941, 285.40332, 289.98242, " y="573, ">
				corresponding property was
		</text>
		<text fill="gray" font-size="9" font-family="Segoe UI" x="182, 186.5791, 191.87891, 197.17871, 201.88525, 207.18506, 209.65039, 212.7002, 217.97363, 220.43896, 223.48877, 228.58203, 233.28857, 235.75391, 241.92822, 246.77979, 249.24512, 251.64014, 254.68994, 259.39648, 267.14844, 269.61377, 272.43066, 277.7041, 280.83301, 283.29834, " y="585, ">
				added to the G2 Item for a
		</text>
		<text fill="gray" font-size="9" font-family="Segoe UI" x="182, 185.81885, 191.10986, 195.81641, 199.97363, 202.15332, 204.97021, 207.1499, 211.30713, 213.77246, 217.92969, 223.02295, 226.8418, 229.8916, 235.16504, 242.91699, 247.62354, 250.75244, 253.21777, 258.49121, 261.62012, 264.08545, 269.38525, 272.51416, 277.7876, 282.88086, 288.17188, 290.63721, 295.91064, " y="597, ">
				specific customer or group of
		</text>
		<text fill="gray" font-size="9" font-family="Segoe UI" x="182, 186.15723, 191.25049, 195.06934, 198.11914, 203.39258, 211.14453, 215.85107, 218.97998, 222.79883, 225.26416, 230.5376, 235.63086, 237.81055, 242.16553, 244.1167, 246.58203, 251.29736, 256.39062, 261.09717, 263.5625, 268.8623, 273.56885, 276.38574, 280.96484, 286.05811, 288.23779, " y="609, ">
				customers only. The default
		</text>
		<text fill="gray" font-size="9" font-family="Segoe UI" x="182, 186.31104, 190.89014, 193.06982, 198.16309, 202.86963, 205.33496, 210.6084, 213.42529, 215.89062, 218.94043, 224.03369, 226.21338, 230.03223, 232.49756, 237.78857, 240.91748, 246.19092, 251.48193, 256.18848, 259.31738, 262.36719, 266.72217, 269.1875, 271.36719, 275.18604, 277.65137, 280.46826, 285.04736, 287.22705, 291.0459, " y="621, ">
				value of this property is false
		</text>
		<text fill="gray" font-size="9" font-family="Segoe UI" x="182, 188.50391, 193.59717, 195.77686, 199.93408, 205.02734, 207.49268, 212.07178, 217.36279, 222.65381, 224.8335, 227.01318, 231.71973, 235.53857, 238.00391, 244.50781, 249.60107, 254.30762, 259.40088, 261.86621, 264.91602, 270.00928, 272.18896, " y="633, ">
				which applies when this
		</text>
		<text fill="gray" font-size="9" font-family="Segoe UI" x="182, 186.5791, 189.62891, 192.67871, 195.80762, 197.9873, 203.27832, 208.37158, 211.42139, 216.12793, 218.59326, 220.77295, 224.5918, 227.05713, 232.15039, 237.42383, 240.47363, 242.93896, 248.03223, 251.85107, 256.55762, 261.85742, 264.32275, 270.82666, 273.00635, 276.05615, 281.14941, 283.61475, 286.66455, 291.75781, " y="645, ">
				attribute is not used with the
		</text>
		<text fill="gray" font-size="9" font-family="Segoe UI" x="182, 187.29102, 190.41992, 195.69336, 200.98438, 205.69092, 208.81982, 211.86963, 216.22461, " y="657, ">
				property.
		</text>
		<rect fill="white" x="186" y="526" width="43" height="16"/>
		<text font-size="12" font-weight="600" font-family="Segoe UI" x="186, 191.75977, 199.01953, 204.29883, 208.92188, 216.25781, " y="539, ">
				custom
		</text>
		<rect fill="none" stroke="black" stroke-width="1" stroke-linecap="square" stroke-miterlimit="4" transform="translate(0.5 0.5)" x="177" y="524" width="58" height="20"/>
		<rect fill="silver" x="181" y="670" width="52" height="21"/>
		<rect fill="white" x="177" y="666" width="52" height="21"/>
		<rect fill="white" x="182" y="693" width="118" height="48"/>
		<text fill="gray" font-size="9" font-family="Segoe UI" x="182, 184.39502, 189.48828, 194.78809, 196.96777, 201.125, 205.7041, 208.75391, 213.46045, 217.2793, 219.74463, 225.03564, 229.39062, 231.85596, 238.35986, 243.45312, 245.63281, 249.79004, 254.8833, 257.34863, 265.10059, 269.80713, 274.38623, 279.47949, 283.29834, 285.76367, 288.81348, 293.90674, " y="703, ">
				Indicates by which means the
		</text>
		<text fill="gray" font-size="9" font-family="Segoe UI" x="182, 186.31104, 190.89014, 193.06982, 198.16309, 202.86963, 205.33496, 211.83887, 216.41797, 220.23682, 222.70215, 227.40869, 231.53955, 234.58936, 237.71826, 242.29736, 246.45459, 249.50439, 254.21094, 259.51074, 261.97607, 264.79297, 267.92188, 273.19531, 280.94727, 283.4126, 286.4624, 291.55566, " y="715, ">
				value was extracted from the
		</text>
		<text fill="gray" font-size="9" font-family="Segoe UI" x="182, 186.15723, 191.43066, 196.52393, 199.57373, 204.28027, 209.37354, 212.42334, 214.88867, 218.48779, 220.95312, 225.65967, 229.79053, 235.08154, 238.21045, 242.91699, 246.73584, 250.55469, 255.26123, 260.56104, 263.02637, 268.31738, 272.67236, 275.1377, " y="727, ">
				content - expressed by a
		</text>
		<text fill="gray" font-size="9" font-family="Segoe UI" x="182, 188.78516, 194.35742, 199.63086, 204.93066, " y="739, ">
				QCode
		</text>
		<rect fill="white" x="186" y="668" width="36" height="16"/>
		<text font-size="12" font-weight="600" font-family="Segoe UI" x="186, 193.22461, 200.56055, " y="681, ">
				how
		</text>
		<rect fill="none" stroke="black" stroke-width="1" stroke-linecap="square" stroke-miterlimit="4" transform="translate(0.5 0.5)" x="177" y="666" width="51" height="20"/>
		<rect fill="silver" x="181" y="752" width="57" height="21"/>
		<rect fill="white" x="177" y="748" width="57" height="21"/>
		<rect fill="white" x="182" y="775" width="118" height="36"/>
		<text fill="gray" font-size="9" font-family="Segoe UI" x="182, 184.39502, 189.48828, 194.78809, 196.96777, 201.125, 205.7041, 208.75391, 213.46045, 217.2793, 219.74463, 225.03564, 229.39062, 231.85596, 238.35986, 243.45312, 245.63281, 249.79004, 254.8833, 257.34863, 265.10059, 269.80713, 274.38623, 279.47949, 283.29834, 285.76367, 288.81348, 293.90674, " y="785, ">
				Indicates by which means the
		</text>
		<text fill="gray" font-size="9" font-family="Segoe UI" x="182, 186.31104, 190.89014, 193.06982, 198.16309, 202.86963, 205.33496, 211.83887, 216.41797, 220.23682, 222.70215, 227.40869, 231.53955, 234.58936, 237.71826, 242.29736, 246.45459, 249.50439, 254.21094, 259.51074, 261.97607, 264.79297, 267.92188, 273.19531, 280.94727, 283.4126, 286.4624, 291.55566, " y="797, ">
				value was extracted from the
		</text>
		<text fill="gray" font-size="9" font-family="Segoe UI" x="182, 186.15723, 191.43066, 196.52393, 199.57373, 204.28027, 209.37354, 212.42334, 214.88867, 218.48779, 220.95312, 225.65967, 229.79053, 235.08154, 238.21045, 242.91699, 246.73584, 250.55469, 255.26123, 260.56104, 263.02637, 268.31738, 272.67236, 275.1377, 279.7168, 282.18213, 288.36523, 293.74854, " y="809, ">
				content - expressed by a URI
		</text>
		<rect fill="white" x="186" y="750" width="41" height="16"/>
		<text font-size="12" font-weight="600" font-family="Segoe UI" x="186, 193.22461, 200.56055, 210.12891, 217.38867, 222.21094, " y="763, ">
				howuri
		</text>
		<rect fill="none" stroke="black" stroke-width="1" stroke-linecap="square" stroke-miterlimit="4" transform="translate(0.5 0.5)" x="177" y="748" width="56" height="20"/>
		<rect fill="silver" x="181" y="822" width="52" height="21"/>
		<rect fill="white" x="177" y="818" width="52" height="21"/>
		<rect fill="white" x="182" y="845" width="113" height="36"/>
		<text fill="gray" font-size="9" font-family="Segoe UI" x="182, 190.40674, 195.5, 199.85498, 202.32031, 205.37012, 210.46338, 215.16992, 217.63525, 225.38721, 230.09375, 233.14355, 237.72266, 243.02246, 247.60156, 250.65137, 255.23047, 257.6958, 262.78906, 267.36816, 271.18701, 273.65234, 278.94336, 283.6499, 288.35645, " y="855, ">
				Why the metadata has been
		</text>
		<text fill="gray" font-size="9" font-family="Segoe UI" x="182, 184.17969, 189.27295, 193.43018, 195.60986, 200.70312, 206.00293, 210.70947, 216.00928, 218.47461, 222.07373, 224.53906, 229.24561, 233.37646, 238.66748, 241.79639, 246.50293, 250.32178, 254.14062, 258.84717, 264.14697, 266.6123, 271.90332, 276.2583, 278.72363, " y="867, ">
				included - expressed by a
		</text>
		<text fill="gray" font-size="9" font-family="Segoe UI" x="182, 188.78516, 194.35742, 199.63086, 204.93066, " y="879, ">
				QCode
		</text>
		<rect fill="white" x="186" y="820" width="36" height="16"/>
		<text font-size="12" font-weight="600" font-family="Segoe UI" x="186, 195.56836, 202.79297, " y="833, ">
				why
		</text>
		<rect fill="none" stroke="black" stroke-width="1" stroke-linecap="square" stroke-miterlimit="4" transform="translate(0.5 0.5)" x="177" y="818" width="51" height="20"/>
		<rect fill="silver" x="181" y="892" width="56" height="21"/>
		<rect fill="white" x="177" y="888" width="56" height="21"/>
		<rect fill="white" x="182" y="915" width="119" height="24"/>
		<text fill="gray" font-size="9" font-family="Segoe UI" x="182, 190.40674, 195.5, 199.85498, 202.32031, 205.37012, 210.46338, 215.16992, 217.63525, 225.38721, 230.09375, 233.14355, 237.72266, 243.02246, 247.60156, 250.65137, 255.23047, 257.6958, 262.78906, 267.36816, 271.18701, 273.65234, 278.94336, 283.6499, 288.35645, " y="925, ">
				Why the metadata has been
		</text>
		<text fill="gray" font-size="9" font-family="Segoe UI" x="182, 184.17969, 189.27295, 193.43018, 195.60986, 200.70312, 206.00293, 210.70947, 216.00928, 218.47461, 222.07373, 224.53906, 229.24561, 233.37646, 238.66748, 241.79639, 246.50293, 250.32178, 254.14062, 258.84717, 264.14697, 266.6123, 271.90332, 276.2583, 278.72363, 283.30273, 285.76807, 291.95117, 297.33447, " y="937, ">
				included - expressed by a URI
		</text>
		<rect fill="white" x="186" y="890" width="40" height="16"/>
		<text font-size="12" font-weight="600" font-family="Segoe UI" x="186, 195.56836, 202.79297, 209.25, 216.50977, 221.33203, " y="903, ">
				whyuri
		</text>
		<rect fill="none" stroke="black" stroke-width="1" stroke-linecap="square" stroke-miterlimit="4" transform="translate(0.5 0.5)" x="177" y="888" width="55" height="20"/>
		<rect fill="silver" x="181" y="950" width="97" height="21"/>
		<rect fill="white" x="177" y="946" width="97" height="21"/>
		<rect fill="white" x="182" y="973" width="117" height="72"/>
		<text fill="gray" font-size="9" font-family="Segoe UI" x="182, 188.78516, 193.87842, 198.58496, 201.05029, 206.32373, 209.45264, 211.91797, 219.66992, 224.24902, 229.34229, 233.69727, 236.1626, 240.31982, 245.59326, 250.68652, 254.50537, 257.55518, 260.68408, 265.26318, 267.44287, 272.53613, 275.58594, 279.40479, 281.87012, 284.91992, 290.01318, 294.59229, " y="983, ">
				One or many constraints that
		</text>
		<text fill="gray" font-size="9" font-family="Segoe UI" x="182, 186.5791, 191.87012, 197.16113, 199.34082, 203.6958, 206.16113, 209.21094, 214.48438, 216.94971, 222.24072, 227.33398, 232.625, 234.80469, 236.98438, 240.80322, 245.89648, 248.07617, 253.16943, 258.46924, 260.93457, 263.98438, 269.07764, 273.78418, 276.24951, 280.56055, 285.13965, 287.31934, 292.4126, " y="995, ">
				apply to publishing the value
		</text>
		<text fill="gray" font-size="9" font-family="Segoe UI" x="182, 187.27344, 190.09033, 192.55566, 195.60547, 200.69873, 205.40527, 207.87061, 213.16162, 216.29053, 221.56396, 226.85498, 231.56152, 234.69043, 237.74023, 242.09521, 244.56055, 248.15967, 250.625, 255.33154, 259.4624, 264.75342, 267.88232, 272.58887, 276.40771, 280.22656, 284.93311, " y="1007, ">
				of the property - expressed
		</text>
		<text fill="gray" font-size="9" font-family="Segoe UI" x="182, 187.29102, 191.646, 194.11133, 198.69043, 201.15576, 207.94092, 213.51318, 218.78662, 224.08643, 228.79297, 230.74414, 233.20947, 237.76221, 242.34131, 246.49854, 251.5918, 254.05713, 258.21436, 263.48779, 268.58105, 272.3999, 275.44971, 278.57861, 283.15771, 285.3374, 290.43066, " y="1019, ">
				by a QCode. Each constraint
		</text>
		<text fill="gray" font-size="9" font-family="Segoe UI" x="182, 186.5791, 191.87012, 197.16113, 199.34082, 201.52051, 206.22705, 210.0459, 212.51123, 215.56104, 220.83447, 223.2998, 227.87891, 230.05859, 232.23828, 234.70361, 240.00342, 244.70996, 248.52881, 252.68604, 257.39258, 262.48584, 267.78564, 272.36475, 277.45801, " y="1031, ">
				applies to all descendant
		</text>
		<text fill="gray" font-size="9" font-family="Segoe UI" x="182, 186.70654, 188.88623, 193.59277, 201.34473, 206.05127, 211.14453, 214.19434, 218.01318, " y="1043, ">
				elements.
		</text>
		<rect fill="white" x="186" y="948" width="81" height="16"/>
		<text font-size="12" font-weight="600" font-family="Segoe UI" x="186, 193.44141, 200.70117, 208.14258, 213.90234, 221.23828, 228.49805, 233.77734, 238.44727, 243.22266, 249.67969, 253.08984, 260.34961, " y="961, ">
				pubconstraint
		</text>
		<rect fill="none" stroke="black" stroke-width="1" stroke-linecap="square" stroke-miterlimit="4" transform="translate(0.5 0.5)" x="177" y="946" width="96" height="20"/>
		<rect fill="silver" x="181" y="1056" width="112" height="21"/>
		<rect fill="white" x="177" y="1052" width="112" height="21"/>
		<rect fill="white" x="182" y="1079" width="117" height="72"/>
		<text fill="gray" font-size="9" font-family="Segoe UI" x="182, 188.78516, 193.87842, 198.58496, 201.05029, 206.32373, 209.45264, 211.91797, 219.66992, 224.24902, 229.34229, 233.69727, 236.1626, 240.31982, 245.59326, 250.68652, 254.50537, 257.55518, 260.68408, 265.26318, 267.44287, 272.53613, 275.58594, 279.40479, 281.87012, 284.91992, 290.01318, 294.59229, " y="1089, ">
				One or many constraints that
		</text>
		<text fill="gray" font-size="9" font-family="Segoe UI" x="182, 186.5791, 191.87012, 197.16113, 199.34082, 203.6958, 206.16113, 209.21094, 214.48438, 216.94971, 222.24072, 227.33398, 232.625, 234.80469, 236.98438, 240.80322, 245.89648, 248.07617, 253.16943, 258.46924, 260.93457, 263.98438, 269.07764, 273.78418, 276.24951, 280.56055, 285.13965, 287.31934, 292.4126, " y="1101, ">
				apply to publishing the value
		</text>
		<text fill="gray" font-size="9" font-family="Segoe UI" x="182, 187.27344, 190.09033, 192.55566, 195.60547, 200.69873, 205.40527, 207.87061, 213.16162, 216.29053, 221.56396, 226.85498, 231.56152, 234.69043, 237.74023, 242.09521, 244.56055, 248.15967, 250.625, 255.33154, 259.4624, 264.75342, 267.88232, 272.58887, 276.40771, 280.22656, 284.93311, " y="1113, ">
				of the property - expressed
		</text>
		<text fill="gray" font-size="9" font-family="Segoe UI" x="182, 187.29102, 191.646, 194.11133, 198.69043, 201.15576, 207.33887, 212.72217, 215.11719, 217.06836, 219.53369, 224.08643, 228.66553, 232.82275, 237.91602, 240.38135, 244.53857, 249.81201, 254.90527, 258.72412, 261.77393, 264.90283, 269.48193, 271.66162, 276.75488, " y="1125, ">
				by a URI. Each constraint
		</text>
		<text fill="gray" font-size="9" font-family="Segoe UI" x="182, 186.5791, 191.87012, 197.16113, 199.34082, 201.52051, 206.22705, 210.0459, 212.51123, 215.56104, 220.83447, 223.2998, 227.87891, 230.05859, 232.23828, 234.70361, 240.00342, 244.70996, 248.52881, 252.68604, 257.39258, 262.48584, 267.78564, 272.36475, 277.45801, " y="1137, ">
				applies to all descendant
		</text>
		<text fill="gray" font-size="9" font-family="Segoe UI" x="182, 186.70654, 188.88623, 193.59277, 201.34473, 206.05127, 211.14453, 214.19434, 218.01318, " y="1149, ">
				elements.
		</text>
		<rect fill="white" x="186" y="1054" width="96" height="16"/>
		<text font-size="12" font-weight="600" font-family="Segoe UI" x="186, 193.44141, 200.70117, 208.14258, 213.90234, 221.23828, 228.49805, 233.77734, 238.44727, 243.22266, 249.67969, 253.08984, 260.34961, 265.01953, 272.2793, 277.10156, " y="1067, ">
				pubconstrainturi
		</text>
		<rect fill="none" stroke="black" stroke-width="1" stroke-linecap="square" stroke-miterlimit="4" transform="translate(0.5 0.5)" x="177" y="1052" width="111" height="20"/>
		<rect fill="silver" x="181" y="1162" width="66" height="21"/>
		<rect fill="white" x="177" y="1158" width="66" height="21"/>
		<rect fill="white" x="182" y="1185" width="121" height="84"/>
		<text fill="gray" font-size="9" font-family="Segoe UI" x="182, 186.78125, 192.07227, 196.77881, 200.93604, 203.11572, 205.93262, 208.1123, 212.81885, 216.6377, 219.10303, 222.15283, 227.24609, 231.95264, 234.41797, 236.59766, 241.17676, 246.27002, 251.56982, 256.66309, 261.24219, 266.54199, 271.24854, 273.71387, 278.9873, 281.8042, 284.26953, 287.31934, 292.4126, 294.59229, " y="1195, ">
				Specifies the language of this
		</text>
		<text fill="gray" font-size="9" font-family="Segoe UI" x="182, 187.29102, 190.41992, 195.69336, 200.98438, 205.69092, 208.81982, 211.86963, 216.22461, 218.68994, 223.26904, 228.3623, 233.66211, 236.12744, 241.41846, 246.69189, 249.7417, 254.44824, 259.5415, 262.59131, 264.771, 269.3501, 271.52979, 273.70947, 278.06445, 280.52979, 285.10889, 287.28857, " y="1207, ">
				property and potentially all
		</text>
		<text fill="gray" font-size="9" font-family="Segoe UI" x="182, 187.2998, 192.00635, 195.8252, 199.98242, 204.68896, 209.78223, 215.08203, 219.66113, 224.75439, 227.8042, 230.26953, 235.56055, 238.68945, 243.96289, 249.25391, 253.96045, 257.08936, 260.13916, 262.31885, 267.02539, 270.84424, " y="1219, ">
				descendant properties.
		</text>
		<text fill="gray" font-size="9" font-family="Segoe UI" x="182, 186.13086, 193.88281, 196.0625, 198.01367, 200.19336, 204.77246, 209.86572, 215.16553, 217.63086, 221.94189, 226.521, 228.70068, 233.79395, 238.50049, 242.31934, 244.78467, 250.05811, 252.875, 255.34033, 260.64014, 265.34668, 269.16553, 273.32275, 278.0293, 283.12256, 288.42236, 293.00146, 298.09473, " y="1231, ">
				xml:lang values of descendant
		</text>
		<text fill="gray" font-size="9" font-family="Segoe UI" x="182, 187.29102, 190.41992, 195.69336, 200.98438, 205.69092, 208.81982, 211.86963, 214.04932, 218.75586, 222.57471, 225.04004, 230.31348, 234.62451, 239.33105, 242.45996, 245.58887, 247.76855, 253.06836, 257.7749, 260.24023, 263.29004, 268.3833, 270.56299, 274.38184, 276.84717, 281.1582, 285.7373, 287.91699, 293.01025, 297.7168, " y="1243, ">
				properties override this value.
		</text>
		<text fill="gray" font-size="9" font-family="Segoe UI" x="182, 186.93066, 191.50977, 193.68945, 198.78271, 203.48926, 207.30811, 209.77344, 214.35254, 217.48145, 222.18799, 224.65332, 229.95312, 234.65967, 237.70947, 242.41602, 245.54492, 253.29688, 255.47656, 260.56982, 265.27637, 270.57617, 273.0415, 278.33252, " y="1255, ">
				Values are determined by
		</text>
		<text fill="gray" font-size="9" font-family="Segoe UI" x="182, 184.39502, 189.48828, 192.53809, 197.24463, 200.37354, 205.4668, 210.17334, 213.22314, 215.68848, 220.84766, 226.41992, 231.46045, 233.92578, 238.77734, 243.62891, " y="1267, ">
				Internet BCP 47.
		</text>
		<rect fill="white" x="186" y="1160" width="50" height="16"/>
		<text font-size="12" font-weight="600" font-family="Segoe UI" x="186, 192.62695, 203.61914, 207.0293, 210.28125, 213.69141, 220.14844, 227.4082, " y="1173, ">
				xml:lang
		</text>
		<path fill="none" stroke="black" stroke-width="2" stroke-miterlimit="4" transform="translate(0.5 0.5)" d="M179 1176L183 1172"/>
		<path fill="none" stroke="black" stroke-width="1" stroke-linecap="square" stroke-miterlimit="4" transform="translate(0.5 0.5)" d="M180 1172L183 1172L183 1175"/>
		<rect fill="none" stroke="black" stroke-width="1" stroke-linecap="square" stroke-miterlimit="4" transform="translate(0.5 0.5)" x="177" y="1158" width="65" height="20"/>
		<rect fill="silver" x="181" y="1280" width="52" height="21"/>
		<rect fill="white" x="177" y="1276" width="52" height="21"/>
		<rect fill="white" x="182" y="1303" width="116" height="24"/>
		<text fill="gray" font-size="9" font-family="Segoe UI" x="182, 186.71533, 191.80859, 196.51514, 198.98047, 204.28027, 206.45996, 209.58887, 214.29541, 218.45264, 221.50244, 223.68213, 228.95557, 234.04883, 238.62793, 240.80762, 242.9873, 246.03711, 250.39209, 252.85742, 258.13086, 260.94775, 263.41309, 266.46289, 271.16943, 275.30029, 278.3501, 283.44336, 288.02246, " y="1313, ">
				The directionality of textual
		</text>
		<text fill="gray" font-size="9" font-family="Segoe UI" x="182, 186.15723, 191.43066, 196.52393, 199.57373, 204.28027, 209.37354, 212.42334, 214.88867, 217.60449, 222.31104, 227.4043, 232.49756, 240.24951, 244.95605, 248.08496, 252.66406, 255.71387, 257.89355, 263.16699, 268.26025, 270.21143, 272.67676, 274.85645, 277.90625, 281.03516, 282.98633, 285.45166, 288.58057, 291.63037, 293.81006, " y="1325, ">
				content (enumeration: ltr, rtl)
		</text>
		<rect fill="white" x="186" y="1278" width="36" height="16"/>
		<text font-size="12" font-weight="600" font-family="Segoe UI" x="186, 193.42969, 196.83984, " y="1291, ">
				dir
		</text>
		<rect fill="none" stroke="black" stroke-width="1" stroke-linecap="square" stroke-miterlimit="4" transform="translate(0.5 0.5)" x="177" y="1276" width="51" height="20"/>
		<path fill="silver" d="M181 1343L186 1338L254 1338L259 1343L259 1354L254 1359L186 1359L181 1354L181 1343Z"/>
		<path fill="white" d="M177 1339L182 1334L250 1334L255 1339L255 1350L250 1355L182 1355L177 1350L177 1339Z"/>
		<rect fill="white" x="204" y="1336" width="46" height="16"/>
		<text font-size="12" font-weight="600" font-family="Segoe UI" x="204, 211.10742, 218.21484, 225.55078, 230.2207, 237.44531, 243.9375, " y="1349, ">
				##other
		</text>
		<rect fill="white" x="182" y="1336" width="20" height="16"/>
		<text fill="gray" font-size="12" font-family="Segoe UI" x="182, 188.10547, 194.89648, " y="1349, ">
				any
		</text>
		<path fill="none" stroke="black" stroke-width="1" stroke-linecap="square" stroke-miterlimit="4" transform="translate(0.5 0.5)" d="M177 1339L182 1334L249 1334L254 1339L254 1349L249 1354L182 1354L177 1349L177 1339Z"/>
		<rect fill="silver" x="181" y="1366" width="81" height="21"/>
		<rect fill="white" x="177" y="1362" width="81" height="21"/>
		<rect fill="white" x="182" y="1389" width="110" height="24"/>
		<text fill="gray" font-size="9" font-family="Segoe UI" x="182, 186.71533, 191.80859, 196.51514, 198.98047, 203.2915, 207.99805, 211.12695, 214.9458, 217.12549, 222.39893, 227.49219, 229.95752, 235.23096, 238.04785, 240.51318, 245.09229, 247.55762, 252.84863, 255.97754, 261.25098, 265.4082, 270.11475, 273.93359, 277.75244, 279.93213, 285.02539, " y="1399, ">
				The version of a processing
		</text>
		<text fill="gray" font-size="9" font-family="Segoe UI" x="182, 185.12891, 189.83545, 193.6543, 198.92773, 204.021, 207.1499, 211.30713, 216.01367, " y="1411, ">
				resource.
		</text>
		<rect fill="white" x="186" y="1364" width="65" height="16"/>
		<text font-size="12" font-weight="600" font-family="Segoe UI" x="186, 192.38672, 198.87891, 203.72461, 209.00391, 212.41406, 219.75, 227.00977, 230.41992, 237.67969, 242.2793, " y="1377, ">
				versioninfo
		</text>
		<rect fill="none" stroke="black" stroke-width="1" stroke-linecap="square" stroke-miterlimit="4" transform="translate(0.5 0.5)" x="177" y="1362" width="80" height="20"/>
		<rect x="168" y="41" width="11" height="11"/>
		<rect fill="white" x="169" y="42" width="9" height="9"/>
		<rect x="170" y="46" width="7" height="1"/>
		<path fill="white" d="M240 1463L240 1444L163 1444L163 1463L163 1611L307 1611L307 1463L240 1463Z"/>
		<rect fill="white" x="183" y="1446" width="51" height="16"/>
		<text font-size="12" font-style="italic" font-family="Segoe UI" x="183, 189.50391, 193.38281, 197.26172, 201.5332, 204.63867, 211.14258, 217.83984, 221.73047, 227.57227, " y="1459, ">
				attributes
		</text>
		<path fill="none" stroke="black" stroke-width="1" stroke-linecap="square" stroke-miterlimit="4" transform="translate(0.5 0.5)" d="M240 1463L240 1444L163 1444L163 1463L163 1611L307 1611L307 1463L240 1463Z"/>
		<rect fill="silver" x="181" y="1476" width="52" height="21"/>
		<rect fill="white" x="177" y="1472" width="52" height="21"/>
		<rect fill="white" x="182" y="1499" width="118" height="36"/>
		<text fill="gray" font-size="9" font-family="Segoe UI" x="182, 184.39502, 189.48828, 194.78809, 199.49463, 204.58789, 207.6377, 209.81738, 212.63428, 214.81396, 219.52051, 223.33936, 225.80469, 228.85449, 233.94775, 238.6543, 241.11963, 244.93848, 247.98828, 252.56738, 257.86719, 262.57373, 265.03906, 269.61816, 272.66797, 275.1333, 281.63721, 286.73047, 288.91016, 293.06738, " y="1509, ">
				Indentifies the stage at which
		</text>
		<text fill="gray" font-size="9" font-family="Segoe UI" x="182, 185.0498, 190.14307, 192.32275, 196.1416, 198.60693, 203.90674, 208.61328, 213.70654, 218.41309, 221.54199, 226.12109, 229.1709, 234.44434, 237.57324, 240.03857, 246.54248, 251.12158, 254.94043, 257.40576, 262.49902, 266.31787, 271.02441, 276.32422, 278.78955, " y="1521, ">
				this generator was used -
		</text>
		<text fill="gray" font-size="9" font-family="Segoe UI" x="182, 186.70654, 190.8374, 196.12842, 199.25732, 203.96387, 207.78271, 211.60156, 216.30811, 221.60791, 224.07324, 229.36426, 233.71924, 236.18457, 240.76367, 243.229, 250.01416, 255.58643, 260.85986, 266.15967, " y="1533, ">
				expressed by a QCode
		</text>
		<rect fill="white" x="186" y="1474" width="36" height="16"/>
		<text font-size="12" font-weight="600" font-family="Segoe UI" x="186, 190.72852, 198.06445, 201.47461, " y="1487, ">
				role
		</text>
		<rect fill="none" stroke="black" stroke-width="1" stroke-linecap="square" stroke-miterlimit="4" transform="translate(0.5 0.5)" x="177" y="1472" width="51" height="20"/>
		<rect fill="silver" x="181" y="1546" width="55" height="21"/>
		<rect fill="white" x="177" y="1542" width="55" height="21"/>
		<rect fill="white" x="182" y="1569" width="118" height="36"/>
		<text fill="gray" font-size="9" font-family="Segoe UI" x="182, 184.39502, 189.48828, 194.78809, 199.49463, 204.58789, 207.6377, 209.81738, 212.63428, 214.81396, 219.52051, 223.33936, 225.80469, 228.85449, 233.94775, 238.6543, 241.11963, 244.93848, 247.98828, 252.56738, 257.86719, 262.57373, 265.03906, 269.61816, 272.66797, 275.1333, 281.63721, 286.73047, 288.91016, 293.06738, " y="1579, ">
				Indentifies the stage at which
		</text>
		<text fill="gray" font-size="9" font-family="Segoe UI" x="182, 185.0498, 190.14307, 192.32275, 196.1416, 198.60693, 203.90674, 208.61328, 213.70654, 218.41309, 221.54199, 226.12109, 229.1709, 234.44434, 237.57324, 240.03857, 246.54248, 251.12158, 254.94043, 257.40576, 262.49902, 266.31787, 271.02441, 276.32422, 278.78955, " y="1591, ">
				this generator was used -
		</text>
		<text fill="gray" font-size="9" font-family="Segoe UI" x="182, 186.70654, 190.8374, 196.12842, 199.25732, 203.96387, 207.78271, 211.60156, 216.30811, 221.60791, 224.07324, 229.36426, 233.71924, 236.18457, 240.76367, 243.229, 249.41211, 254.79541, " y="1603, ">
				expressed by a URI
		</text>
		<rect fill="white" x="186" y="1544" width="39" height="16"/>
		<text font-size="12" font-weight="600" font-family="Segoe UI" x="186, 190.72852, 198.06445, 201.47461, 207.9668, 215.22656, 220.04883, " y="1557, ">
				roleuri
		</text>
		<rect fill="none" stroke="black" stroke-width="1" stroke-linecap="square" stroke-miterlimit="4" transform="translate(0.5 0.5)" x="177" y="1542" width="54" height="20"/>
		<rect x="168" y="1449" width="11" height="11"/>
		<rect fill="white" x="169" y="1450" width="9" height="9"/>
		<rect x="170" y="1454" width="7" height="1"/>
		<rect x="72" y="723" width="11" height="11"/>
		<rect fill="white" x="73" y="724" width="9" height="9"/>
		<rect x="74" y="728" width="7" height="1"/>
	</g>
</svg>
