<?xml version="1.0" encoding="utf-8" ?>
<svg xmlns="http://www.w3.org/2000/svg" xmlns:xlink="http://www.w3.org/1999/xlink" width="382" height="2536">
	<clipPath id="cl_63d">
		<rect x="-10" y="-5" width="382" height="2536"/>
	</clipPath>
	<g clip-path="url(#cl_63d)">
		<path fill="none" stroke="black" stroke-width="1" stroke-linecap="square" stroke-miterlimit="4" transform="translate(0.5 0.5)" d="M62 1580L132 1580"/>
		<path fill="none" stroke="black" stroke-width="1" stroke-linecap="square" stroke-miterlimit="4" transform="translate(0.5 0.5)" d="M133 1580L133 958"/>
		<path transform="translate(0.5 0.5)" d="M133.5 1580L133.5 1582L133.5 1582.5L132.5 1582.5L132.5 1582L132.5 1579.5L133.5 1579.5L133.5 1580ZM133.5 1586L133.5 1588L133.5 1588.5L132.5 1588.5L132.5 1588L132.5 1585.5L133.5 1585.5L133.5 1586ZM133.5 1592L133.5 1594L133.5 1594.5L132.5 1594.5L132.5 1594L132.5 1591.5L133.5 1591.5L133.5 1592ZM133.5 1598L133.5 1600L133.5 1600.5L132.5 1600.5L132.5 1600L132.5 1597.5L133.5 1597.5L133.5 1598ZM133.5 1604L133.5 1606L133.5 1606.5L132.5 1606.5L132.5 1606L132.5 1603.5L133.5 1603.5L133.5 1604ZM133.5 1610L133.5 1612L133.5 1612.5L132.5 1612.5L132.5 1612L132.5 1609.5L133.5 1609.5L133.5 1610ZM133.5 1616L133.5 1618L133.5 1618.5L132.5 1618.5L132.5 1618L132.5 1615.5L133.5 1615.5L133.5 1616ZM133.5 1622L133.5 1624L133.5 1624.5L132.5 1624.5L132.5 1624L132.5 1621.5L133.5 1621.5L133.5 1622ZM133.5 1628L133.5 1630L133.5 1630.5L132.5 1630.5L132.5 1630L132.5 1627.5L133.5 1627.5L133.5 1628ZM133.5 1634L133.5 1636L133.5 1636.5L132.5 1636.5L132.5 1636L132.5 1633.5L133.5 1633.5L133.5 1634ZM133.5 1640L133.5 1642L133.5 1642.5L132.5 1642.5L132.5 1642L132.5 1639.5L133.5 1639.5L133.5 1640ZM133.5 1646L133.5 1648L133.5 1648.5L132.5 1648.5L132.5 1648L132.5 1645.5L133.5 1645.5L133.5 1646ZM133.5 1652L133.5 1654L133.5 1654.5L132.5 1654.5L132.5 1654L132.5 1651.5L133.5 1651.5L133.5 1652ZM133.5 1658L133.5 1660L133.5 1660.5L132.5 1660.5L132.5 1660L132.5 1657.5L133.5 1657.5L133.5 1658ZM133.5 1664L133.5 1666L133.5 1666.5L132.5 1666.5L132.5 1666L132.5 1663.5L133.5 1663.5L133.5 1664ZM133.5 1670L133.5 1672L133.5 1672.5L132.5 1672.5L132.5 1672L132.5 1669.5L133.5 1669.5L133.5 1670ZM133.5 1676L133.5 1678L133.5 1678.5L132.5 1678.5L132.5 1678L132.5 1675.5L133.5 1675.5L133.5 1676ZM133.5 1682L133.5 1684L133.5 1684.5L132.5 1684.5L132.5 1684L132.5 1681.5L133.5 1681.5L133.5 1682ZM133.5 1688L133.5 1690L133.5 1690.5L132.5 1690.5L132.5 1690L132.5 1687.5L133.5 1687.5L133.5 1688ZM133.5 1694L133.5 1696L133.5 1696.5L132.5 1696.5L132.5 1696L132.5 1693.5L133.5 1693.5L133.5 1694ZM133.5 1700L133.5 1702L133.5 1702.5L132.5 1702.5L132.5 1702L132.5 1699.5L133.5 1699.5L133.5 1700ZM133.5 1706L133.5 1708L133.5 1708.5L132.5 1708.5L132.5 1708L132.5 1705.5L133.5 1705.5L133.5 1706ZM133.5 1712L133.5 1714L133.5 1714.5L132.5 1714.5L132.5 1714L132.5 1711.5L133.5 1711.5L133.5 1712ZM133.5 1718L133.5 1720L133.5 1720.5L132.5 1720.5L132.5 1720L132.5 1717.5L133.5 1717.5L133.5 1718ZM133.5 1724L133.5 1726L133.5 1726.5L132.5 1726.5L132.5 1726L132.5 1723.5L133.5 1723.5L133.5 1724ZM133.5 1730L133.5 1732L133.5 1732.5L132.5 1732.5L132.5 1732L132.5 1729.5L133.5 1729.5L133.5 1730ZM133.5 1736L133.5 1738L133.5 1738.5L132.5 1738.5L132.5 1738L132.5 1735.5L133.5 1735.5L133.5 1736ZM133.5 1742L133.5 1744L133.5 1744.5L132.5 1744.5L132.5 1744L132.5 1741.5L133.5 1741.5L133.5 1742ZM133.5 1748L133.5 1750L133.5 1750.5L132.5 1750.5L132.5 1750L132.5 1747.5L133.5 1747.5L133.5 1748ZM133.5 1754L133.5 1756L133.5 1756.5L132.5 1756.5L132.5 1756L132.5 1753.5L133.5 1753.5L133.5 1754ZM133.5 1760L133.5 1762L133.5 1762.5L132.5 1762.5L132.5 1762L132.5 1759.5L133.5 1759.5L133.5 1760ZM133.5 1766L133.5 1768L133.5 1768.5L132.5 1768.5L132.5 1768L132.5 1765.5L133.5 1765.5L133.5 1766ZM133.5 1772L133.5 1774L133.5 1774.5L132.5 1774.5L132.5 1774L132.5 1771.5L133.5 1771.5L133.5 1772ZM133.5 1778L133.5 1780L133.5 1780.5L132.5 1780.5L132.5 1780L132.5 1777.5L133.5 1777.5L133.5 1778ZM133.5 1784L133.5 1786L133.5 1786.5L132.5 1786.5L132.5 1786L132.5 1783.5L133.5 1783.5L133.5 1784ZM133.5 1790L133.5 1792L133.5 1792.5L132.5 1792.5L132.5 1792L132.5 1789.5L133.5 1789.5L133.5 1790ZM133.5 1796L133.5 1798L133.5 1798.5L132.5 1798.5L132.5 1798L132.5 1795.5L133.5 1795.5L133.5 1796ZM133.5 1802L133.5 1804L133.5 1804.5L132.5 1804.5L132.5 1804L132.5 1801.5L133.5 1801.5L133.5 1802ZM133.5 1808L133.5 1810L133.5 1810.5L132.5 1810.5L132.5 1810L132.5 1807.5L133.5 1807.5L133.5 1808ZM133.5 1814L133.5 1816L133.5 1816.5L132.5 1816.5L132.5 1816L132.5 1813.5L133.5 1813.5L133.5 1814ZM133.5 1820L133.5 1822L133.5 1822.5L132.5 1822.5L132.5 1822L132.5 1819.5L133.5 1819.5L133.5 1820ZM133.5 1826L133.5 1828L133.5 1828.5L132.5 1828.5L132.5 1828L132.5 1825.5L133.5 1825.5L133.5 1826ZM133.5 1832L133.5 1834L133.5 1834.5L132.5 1834.5L132.5 1834L132.5 1831.5L133.5 1831.5L133.5 1832ZM133.5 1838L133.5 1840L133.5 1840.5L132.5 1840.5L132.5 1840L132.5 1837.5L133.5 1837.5L133.5 1838ZM133.5 1844L133.5 1846L133.5 1846.5L132.5 1846.5L132.5 1846L132.5 1843.5L133.5 1843.5L133.5 1844ZM133.5 1850L133.5 1852L133.5 1852.5L132.5 1852.5L132.5 1852L132.5 1849.5L133.5 1849.5L133.5 1850ZM133.5 1856L133.5 1858L133.5 1858.5L132.5 1858.5L132.5 1858L132.5 1855.5L133.5 1855.5L133.5 1856ZM133.5 1862L133.5 1864L133.5 1864.5L132.5 1864.5L132.5 1864L132.5 1861.5L133.5 1861.5L133.5 1862ZM133.5 1868L133.5 1870L133.5 1870.5L132.5 1870.5L132.5 1870L132.5 1867.5L133.5 1867.5L133.5 1868ZM133.5 1874L133.5 1876L133.5 1876.5L132.5 1876.5L132.5 1876L132.5 1873.5L133.5 1873.5L133.5 1874ZM133.5 1880L133.5 1882L133.5 1882.5L132.5 1882.5L132.5 1882L132.5 1879.5L133.5 1879.5L133.5 1880ZM133.5 1886L133.5 1888L133.5 1888.5L132.5 1888.5L132.5 1888L132.5 1885.5L133.5 1885.5L133.5 1886ZM133.5 1892L133.5 1894L133.5 1894.5L132.5 1894.5L132.5 1894L132.5 1891.5L133.5 1891.5L133.5 1892ZM133.5 1898L133.5 1900L133.5 1900.5L132.5 1900.5L132.5 1900L132.5 1897.5L133.5 1897.5L133.5 1898ZM133.5 1904L133.5 1906L133.5 1906.5L132.5 1906.5L132.5 1906L132.5 1903.5L133.5 1903.5L133.5 1904ZM133.5 1910L133.5 1912L133.5 1912.5L132.5 1912.5L132.5 1912L132.5 1909.5L133.5 1909.5L133.5 1910ZM133.5 1916L133.5 1918L133.5 1918.5L132.5 1918.5L132.5 1918L132.5 1915.5L133.5 1915.5L133.5 1916ZM133.5 1922L133.5 1924L133.5 1924.5L132.5 1924.5L132.5 1924L132.5 1921.5L133.5 1921.5L133.5 1922ZM133.5 1928L133.5 1930L133.5 1930.5L132.5 1930.5L132.5 1930L132.5 1927.5L133.5 1927.5L133.5 1928ZM133.5 1934L133.5 1936L133.5 1936.5L132.5 1936.5L132.5 1936L132.5 1933.5L133.5 1933.5L133.5 1934ZM133.5 1940L133.5 1942L133.5 1942.5L132.5 1942.5L132.5 1942L132.5 1939.5L133.5 1939.5L133.5 1940ZM133.5 1946L133.5 1948L133.5 1948.5L132.5 1948.5L132.5 1948L132.5 1945.5L133.5 1945.5L133.5 1946ZM133.5 1952L133.5 1954L133.5 1954.5L132.5 1954.5L132.5 1954L132.5 1951.5L133.5 1951.5L133.5 1952ZM133.5 1958L133.5 1960L133.5 1960.5L132.5 1960.5L132.5 1960L132.5 1957.5L133.5 1957.5L133.5 1958ZM133.5 1964L133.5 1966L133.5 1966.5L132.5 1966.5L132.5 1966L132.5 1963.5L133.5 1963.5L133.5 1964ZM133.5 1970L133.5 1972L133.5 1972.5L132.5 1972.5L132.5 1972L132.5 1969.5L133.5 1969.5L133.5 1970ZM133.5 1976L133.5 1978L133.5 1978.5L132.5 1978.5L132.5 1978L132.5 1975.5L133.5 1975.5L133.5 1976ZM133.5 1982L133.5 1984L133.5 1984.5L132.5 1984.5L132.5 1984L132.5 1981.5L133.5 1981.5L133.5 1982ZM133.5 1988L133.5 1990L133.5 1990.5L132.5 1990.5L132.5 1990L132.5 1987.5L133.5 1987.5L133.5 1988ZM133.5 1994L133.5 1996L133.5 1996.5L132.5 1996.5L132.5 1996L132.5 1993.5L133.5 1993.5L133.5 1994ZM133.5 2000L133.5 2002L133.5 2002.5L132.5 2002.5L132.5 2002L132.5 1999.5L133.5 1999.5L133.5 2000ZM133.5 2006L133.5 2008L133.5 2008.5L132.5 2008.5L132.5 2008L132.5 2005.5L133.5 2005.5L133.5 2006ZM133.5 2012L133.5 2014L133.5 2014.5L132.5 2014.5L132.5 2014L132.5 2011.5L133.5 2011.5L133.5 2012ZM133.5 2018L133.5 2020L133.5 2020.5L132.5 2020.5L132.5 2020L132.5 2017.5L133.5 2017.5L133.5 2018ZM133.5 2024L133.5 2026L133.5 2026.5L132.5 2026.5L132.5 2026L132.5 2023.5L133.5 2023.5L133.5 2024ZM133.5 2030L133.5 2032L133.5 2032.5L132.5 2032.5L132.5 2032L132.5 2029.5L133.5 2029.5L133.5 2030ZM133.5 2036L133.5 2038L133.5 2038.5L132.5 2038.5L132.5 2038L132.5 2035.5L133.5 2035.5L133.5 2036ZM133.5 2042L133.5 2044L133.5 2044.5L132.5 2044.5L132.5 2044L132.5 2041.5L133.5 2041.5L133.5 2042ZM133.5 2048L133.5 2050L133.5 2050.5L132.5 2050.5L132.5 2050L132.5 2047.5L133.5 2047.5L133.5 2048ZM133.5 2054L133.5 2056L133.5 2056.5L132.5 2056.5L132.5 2056L132.5 2053.5L133.5 2053.5L133.5 2054ZM133.5 2060L133.5 2062L133.5 2062.5L132.5 2062.5L132.5 2062L132.5 2059.5L133.5 2059.5L133.5 2060ZM133.5 2066L133.5 2068L133.5 2068.5L132.5 2068.5L132.5 2068L132.5 2065.5L133.5 2065.5L133.5 2066ZM133.5 2072L133.5 2074L133.5 2074.5L132.5 2074.5L132.5 2074L132.5 2071.5L133.5 2071.5L133.5 2072ZM133.5 2078L133.5 2080L133.5 2080.5L132.5 2080.5L132.5 2080L132.5 2077.5L133.5 2077.5L133.5 2078ZM133.5 2084L133.5 2086L133.5 2086.5L132.5 2086.5L132.5 2086L132.5 2083.5L133.5 2083.5L133.5 2084ZM133.5 2090L133.5 2092L133.5 2092.5L132.5 2092.5L132.5 2092L132.5 2089.5L133.5 2089.5L133.5 2090ZM133.5 2096L133.5 2098L133.5 2098.5L132.5 2098.5L132.5 2098L132.5 2095.5L133.5 2095.5L133.5 2096ZM133.5 2102L133.5 2104L133.5 2104.5L132.5 2104.5L132.5 2104L132.5 2101.5L133.5 2101.5L133.5 2102ZM133.5 2108L133.5 2110L133.5 2110.5L132.5 2110.5L132.5 2110L132.5 2107.5L133.5 2107.5L133.5 2108ZM133.5 2114L133.5 2116L133.5 2116.5L132.5 2116.5L132.5 2116L132.5 2113.5L133.5 2113.5L133.5 2114ZM133.5 2120L133.5 2122L133.5 2122.5L132.5 2122.5L132.5 2122L132.5 2119.5L133.5 2119.5L133.5 2120ZM133.5 2126L133.5 2128L133.5 2128.5L132.5 2128.5L132.5 2128L132.5 2125.5L133.5 2125.5L133.5 2126ZM133.5 2132L133.5 2134L133.5 2134.5L132.5 2134.5L132.5 2134L132.5 2131.5L133.5 2131.5L133.5 2132ZM133.5 2138L133.5 2140L133.5 2140.5L132.5 2140.5L132.5 2140L132.5 2137.5L133.5 2137.5L133.5 2138ZM133.5 2144L133.5 2146L133.5 2146.5L132.5 2146.5L132.5 2146L132.5 2143.5L133.5 2143.5L133.5 2144ZM133.5 2150L133.5 2152L133.5 2152.5L132.5 2152.5L132.5 2152L132.5 2149.5L133.5 2149.5L133.5 2150ZM133.5 2156L133.5 2158L133.5 2158.5L132.5 2158.5L132.5 2158L132.5 2155.5L133.5 2155.5L133.5 2156ZM133.5 2162L133.5 2164L133.5 2164.5L132.5 2164.5L132.5 2164L132.5 2161.5L133.5 2161.5L133.5 2162ZM133.5 2168L133.5 2170L133.5 2170.5L132.5 2170.5L132.5 2170L132.5 2167.5L133.5 2167.5L133.5 2168ZM133.5 2174L133.5 2176L133.5 2176.5L132.5 2176.5L132.5 2176L132.5 2173.5L133.5 2173.5L133.5 2174ZM133.5 2180L133.5 2182L133.5 2182.5L132.5 2182.5L132.5 2182L132.5 2179.5L133.5 2179.5L133.5 2180ZM133.5 2186L133.5 2188L133.5 2188.5L132.5 2188.5L132.5 2188L132.5 2185.5L133.5 2185.5L133.5 2186ZM133.5 2192L133.5 2194L133.5 2194.5L132.5 2194.5L132.5 2194L132.5 2191.5L133.5 2191.5L133.5 2192ZM133.5 2198L133.5 2200.5L132.5 2200.5L132.5 2197.5L133.5 2197.5L133.5 2198Z"/>
		<path transform="translate(0.5 0.5)" d="M133 2203.5L135 2203.5L135.5 2203.5L135.5 2204.5L135 2204.5L132.5 2204.5L132.5 2203.5L133 2203.5ZM139 2203.5L141 2203.5L141.5 2203.5L141.5 2204.5L141 2204.5L138.5 2204.5L138.5 2203.5L139 2203.5ZM145 2203.5L147.5 2203.5L147.5 2204.5L144.5 2204.5L144.5 2203.5L145 2203.5Z"/>
		<path fill="none" stroke="black" stroke-width="1" stroke-linecap="square" stroke-miterlimit="4" transform="translate(0.5 0.5)" d="M133 957L147 957"/>
		<rect fill="silver" x="7" y="1577" width="57" height="21"/>
		<rect fill="white" x="3" y="1573" width="57" height="21"/>
		<rect fill="none" stroke="black" stroke-width="1" stroke-linecap="square" stroke-miterlimit="4" transform="translate(0.5 0.5)" x="3" y="1573" width="56" height="20"/>
		<rect fill="white" y="1570" width="57" height="21"/>
		<path fill="none" stroke="black" stroke-width="1" stroke-linecap="square" stroke-miterlimit="4" transform="translate(0.5 0.5)" d="M42 1591L48 1597L51 1594"/>
		<rect fill="white" x="5" y="1616" width="114" height="36"/>
		<text fill="gray" font-size="9" font-family="Segoe UI" x="5, 10.805176, 13.270508, 21.022461, 23.202148, 27.333008, 32.039551, 37.339355, 39.804688, 43.623535, 48.330078, 51.379883, 53.845215, 59.118652, 61.935547, 64.400879, 69.700684, 72.82959, 78.103027, 83.196289, " y="1626, ">
				A mixed set of group
		</text>
		<text fill="gray" font-size="9" font-family="Segoe UI" x="5, 8.1289062, 12.835449, 15.652344, 20.358887, 23.487793, 28.194336, 33.287598, 37.444824, 42.151367, 45.970215, 48.435547, 53.014648, 58.10791, 63.407715, 65.873047, 69.001953, 73.708496, 76.525391, 81.231934, 84.36084, 89.067383, 94.160645, 98.317871, 103.02441, 106.84326, 109.30859, 112.3584, " y="1638, ">
				references and references to
		</text>
		<text fill="gray" font-size="9" font-family="Segoe UI" x="5, 7.1796875, 10.229492, 14.936035, 22.687988, 26.506836, 28.972168, 34.245605, 37.374512, 39.839844, 47.89502, 52.601562, 57.892578, 60.35791, 63.486816, 68.193359, 72.012207, 77.285645, 82.378906, 85.507812, 89.665039, 94.371582, " y="1650, ">
				items or Web resources
		</text>
		<rect fill="white" x="9" y="1572" width="36" height="16"/>
		<text font-size="12" font-weight="600" font-family="Segoe UI" x="9, 16.429688, 21.158203, 28.494141, 35.753906, " y="1585, ">
				group
		</text>
		<text font-size="12" font-family="Segoe UI" x="27.765625, " y="1610, ">
				1
		</text>
		<text font-size="12" font-family="Symbol" x="42.722656, " y="1609, ">
				¥
		</text>
		<text font-size="12" font-family="Segoe UI" x="35.898438, 38.5, " y="1610, ">
				..
		</text>
		<rect fill="none" stroke="black" stroke-width="1" stroke-linecap="square" stroke-miterlimit="4" transform="translate(0.5 0.5)" y="1570" width="56" height="20"/>
		<path fill="white" d="M225 19L225 0L148 0L148 19L148 1913L361 1913L361 19L225 19Z"/>
		<rect fill="white" x="168" y="2" width="51" height="16"/>
		<text font-size="12" font-style="italic" font-family="Segoe UI" x="168, 174.50391, 178.38281, 182.26172, 186.5332, 189.63867, 196.14258, 202.83984, 206.73047, 212.57227, " y="15, ">
				attributes
		</text>
		<path fill="none" stroke="black" stroke-width="1" stroke-linecap="square" stroke-miterlimit="4" transform="translate(0.5 0.5)" d="M225 19L225 0L148 0L148 19L148 1913L361 1913L361 19L225 19Z"/>
		<path fill="white" d="M353 47L353 28L162 28L162 47L162 1150L353 1150L353 47Z"/>
		<rect fill="white" x="167" y="1153" width="179" height="48"/>
		<text fill="gray" font-size="9" font-family="Segoe UI" x="167, 172.80518, 175.27051, 180.57031, 183.69922, 188.97266, 194.06592, 199.35693, 201.82227, 207.0957, 209.9126, 212.37793, 216.95703, 220.00684, 223.05664, 226.18555, 228.36523, 233.65625, 238.74951, 241.79932, 246.50586, 250.32471, 252.79004, 255.60693, 260.88037, 264.00928, 266.47461, 271.05371, 273.2334, 275.41309, 277.87842, 282.58496, 284.76465, 289.47119, 297.22314, 301.92969, 307.02295, 310.07275, 313.8916, 316.35693, 321.63037, 324.44727, 326.9126, 331.4917, 333.95703, 340.13135, " y="1163, ">
				A group of attributes for all elements of a G2
		</text>
		<text fill="gray" font-size="9" font-family="Segoe UI" x="167, 169.39502, 172.44482, 177.15137, 184.90332, 187.36865, 192.0752, 196.20605, 200.36328, 205.06982, 210.36084, 213.41064, 215.87598, 218.05566, 221.10547, 224.92432, 227.38965, 230.51855, 235.79199, 241.06543, 244.11523, 246.58057, 251.28711, 253.4668, 258.17334, 265.92529, 270.63184, 275.7251, 278.7749, 280.72607, 283.19141, 286.24121, 291.33447, 296.04102, 298.50635, 300.68604, 303.73584, 308.44238, 316.19434, 324.27588, 328.98242, 332.03223, " y="1175, ">
				Item except its root element, the itemMeta
		</text>
		<text fill="gray" font-size="9" font-family="Segoe UI" x="167, 171.70654, 173.88623, 178.59277, 186.34473, 191.05127, 196.14453, 199.19434, 201.65967, 206.23877, 211.33203, 216.63184, 219.09717, 223.67627, 225.85596, 228.03564, 230.50098, 235.77441, 238.59131, 241.05664, 243.23633, 246.28613, 250.10498, 252.57031, 256.72754, 261.8208, 264.00049, 266.18018, 271.47998, 274.60889, 279.31543, 284.40869, 286.87402, 293.37793, 298.47119, 300.65088, 304.80811, 309.90137, 312.3667, 316.9458, 320.07471, " y="1187, ">
				element and all of its children which are
		</text>
		<text fill="gray" font-size="9" font-family="Segoe UI" x="167, 174.75195, 179.33105, 184.42432, 189.72412, 194.30322, 197.35303, 202.62646, 205.75537, 210.11035, " y="1199, ">
				mandatory.
		</text>
		<rect fill="white" x="204" y="30" width="143" height="16"/>
		<text font-size="12" font-weight="600" font-family="Segoe UI" x="204, 209.75977, 217.0957, 228.08789, 239.08008, 246.41602, 253.67578, 260.68945, 268.02539, 277.53516, 284.02734, 288.80273, 297, 301.66992, 306.33984, 311.16211, 314.57227, 322.01367, 329.27344, 333.89648, 340.38867, " y="43, ">
				commonPowerAttributes
		</text>
		<rect fill="white" x="182" y="30" width="20" height="16"/>
		<text fill="gray" font-size="12" font-family="Segoe UI" x="182, 189.06641, 193.23828, " y="43, ">
				grp
		</text>
		<path fill="none" stroke="gray" stroke-width="1" stroke-linecap="square" stroke-miterlimit="4" transform="translate(0.5 0.5)" d="M162 47L162 1150L353 1150L353 47L353 47"/>
		<path fill="none" stroke="black" stroke-width="1" stroke-linecap="square" stroke-miterlimit="4" transform="translate(0.5 0.5)" d="M353 47L353 28L162 28L162 47"/>
		<rect x="167" y="33" width="11" height="11"/>
		<rect fill="white" x="168" y="34" width="9" height="9"/>
		<rect x="169" y="38" width="7" height="1"/>
		<rect fill="silver" x="174" y="61" width="52" height="21"/>
		<rect fill="white" x="170" y="57" width="52" height="21"/>
		<rect fill="white" x="175" y="84" width="101" height="24"/>
		<text fill="gray" font-size="9" font-family="Segoe UI" x="175, 179.71533, 184.80859, 189.51514, 191.98047, 194.16016, 199.43359, 203.59082, 208.16992, 210.34961, 212.81494, 214.99463, 220.29443, 225.00098, 230.09424, 233.14404, 235.32373, 238.14062, 240.32031, 245.02686, 248.15576, 250.62109, 255.89453, 258.71143, 261.17676, 264.22656, 269.31982, " y="94, ">
				The local identifier of the
		</text>
		<text fill="gray" font-size="9" font-family="Segoe UI" x="175, 180.29102, 183.41992, 188.69336, 193.98438, 198.69092, 201.81982, 204.86963, 209.22461, " y="106, ">
				property.
		</text>
		<rect fill="white" x="179" y="59" width="36" height="16"/>
		<text font-size="12" font-weight="600" font-family="Segoe UI" x="179, 182.41016, " y="72, ">
				id
		</text>
		<rect fill="none" stroke="black" stroke-width="1" stroke-linecap="square" stroke-miterlimit="4" transform="translate(0.5 0.5)" x="170" y="57" width="51" height="20"/>
		<rect fill="silver" x="174" y="119" width="58" height="21"/>
		<rect fill="white" x="170" y="115" width="58" height="21"/>
		<rect fill="white" x="175" y="142" width="121" height="120"/>
		<text fill="gray" font-size="9" font-family="Segoe UI" x="175, 177.39502, 180.21191, 182.67725, 185.72705, 190.82031, 195.52686, 197.99219, 203.2832, 206.41211, 211.68555, 216.97656, 221.68311, 224.81201, 227.86182, 232.2168, 234.68213, 238.99316, 243.57227, 245.75195, 250.84521, 255.55176, 258.01709, 260.19678, 264.01562, 266.48096, 271.57422, 276.84766, " y="152, ">
				If the property value is not
		</text>
		<text fill="gray" font-size="9" font-family="Segoe UI" x="175, 180.2998, 185.00635, 187.82324, 190.00293, 195.09619, 199.80273, 205.10254, 207.05371, 209.51904, 213.33789, 218.62891, 223.33545, 227.49268, 229.67236, 232.48926, 234.66895, 239.37549, 243.19434, 245.65967, 252.16357, 257.25684, 259.43652, 263.59375, 268.68701, 271.15234, 275.85889, 280.95215, 284.00195, 286.18164, 289.23145, " y="164, ">
				defined, specifies which entity
		</text>
		<text fill="gray" font-size="9" font-family="Segoe UI" x="175, 177.71582, 183.00684, 187.71338, 190.84229, 194.66113, 199.93457, 205.02783, 206.979, 209.44434, 214.71777, 217.84668, 223.14648, 227.72559, 232.81885, 234.99854, 238.81738, 243.39648, 246.44629, 248.62598, 253.89941, 258.99268, 261.45801, 266.73145, " y="176, ">
				(person, organisation or
		</text>
		<text fill="gray" font-size="9" font-family="Segoe UI" x="175, 178.81885, 183.17383, 186.99268, 190.04248, 194.74902, 202.50098, 205.2168, 207.68213, 214.18604, 216.36572, 218.54541, 220.7251, 223.19043, 227.89697, 233.19678, 235.37646, 238.42627, 240.8916, 243.94141, 249.03467, 253.74121, 256.20654, 261.49756, 264.62646, 269.8999, 275.19092, 279.89746, 283.02637, 286.07617, " y="188, ">
				system) will edit the property
		</text>
		<text fill="gray" font-size="9" font-family="Segoe UI" x="175, 179.31104, 183.89014, 186.06982, 191.16309, 195.86963, 198.33496, 201.93408, 204.39941, 209.10596, 213.23682, 218.52783, 221.65674, 226.36328, 230.18213, 234.00098, 238.70752, 244.00732, 246.47266, 251.76367, 256.11865, 258.58398, 263.16309, 265.62842, 272.41357, 277.98584, 283.25928, 288.55908, 293.26562, " y="200, ">
				value - expressed by a QCode.
		</text>
		<text fill="gray" font-size="9" font-family="Segoe UI" x="175, 177.39502, 180.21191, 182.67725, 185.72705, 190.82031, 195.52686, 197.99219, 203.2832, 206.41211, 211.68555, 216.97656, 221.68311, 224.81201, 227.86182, 232.2168, 234.68213, 238.99316, 243.57227, 245.75195, 250.84521, 255.55176, 258.01709, 260.19678, " y="212, ">
				If the property value is
		</text>
		<text fill="gray" font-size="9" font-family="Segoe UI" x="175, 180.2998, 185.00635, 187.82324, 190.00293, 195.09619, 199.80273, 205.10254, 207.05371, 209.51904, 213.33789, 218.62891, 223.33545, 227.49268, 229.67236, 232.48926, 234.66895, 239.37549, 243.19434, 245.65967, 252.16357, 257.25684, 259.43652, 263.59375, 268.68701, 271.15234, 275.85889, 280.95215, 284.00195, 286.18164, 289.23145, " y="224, ">
				defined, specifies which entity
		</text>
		<text fill="gray" font-size="9" font-family="Segoe UI" x="175, 177.71582, 183.00684, 187.71338, 190.84229, 194.66113, 199.93457, 205.02783, 206.979, 209.44434, 214.71777, 217.84668, 223.14648, 227.72559, 232.81885, 234.99854, 238.81738, 243.39648, 246.44629, 248.62598, 253.89941, 258.99268, 261.45801, 266.73145, " y="236, ">
				(person, organisation or
		</text>
		<text fill="gray" font-size="9" font-family="Segoe UI" x="175, 178.81885, 183.17383, 186.99268, 190.04248, 194.74902, 202.50098, 205.2168, 207.68213, 212.77539, 217.35449, 221.17334, 223.63867, 228.34521, 233.64502, 235.82471, 238.87451, 243.58105, 248.88086, 251.34619, 254.396, 259.48926, " y="248, ">
				system) has edited the
		</text>
		<text fill="gray" font-size="9" font-family="Segoe UI" x="175, 180.29102, 183.41992, 188.69336, 193.98438, 198.69092, 201.81982, 204.86963, 209.22461, 211.68994, 216.00098, 220.58008, 222.75977, 227.85303, 232.55957, " y="260, ">
				property value.
		</text>
		<rect fill="white" x="179" y="117" width="42" height="16"/>
		<text font-size="12" font-weight="600" font-family="Segoe UI" x="179, 184.75977, 189.48828, 195.98047, 202.4375, 207.06055, 214.39648, " y="130, ">
				creator
		</text>
		<rect fill="none" stroke="black" stroke-width="1" stroke-linecap="square" stroke-miterlimit="4" transform="translate(0.5 0.5)" x="170" y="115" width="57" height="20"/>
		<rect fill="silver" x="174" y="273" width="73" height="21"/>
		<rect fill="white" x="170" y="269" width="73" height="21"/>
		<rect fill="white" x="175" y="296" width="120" height="108"/>
		<text fill="gray" font-size="9" font-family="Segoe UI" x="175, 177.39502, 180.21191, 182.67725, 185.72705, 190.82031, 195.52686, 197.99219, 203.2832, 206.41211, 211.68555, 216.97656, 221.68311, 224.81201, 227.86182, 232.2168, 234.68213, 238.99316, 243.57227, 245.75195, 250.84521, 255.55176, 258.01709, 260.19678, 264.01562, 266.48096, 271.57422, 276.84766, " y="306, ">
				If the property value is not
		</text>
		<text fill="gray" font-size="9" font-family="Segoe UI" x="175, 180.2998, 185.00635, 187.82324, 190.00293, 195.09619, 199.80273, 205.10254, 207.05371, 209.51904, 213.33789, 218.62891, 223.33545, 227.49268, 229.67236, 232.48926, 234.66895, 239.37549, 243.19434, 245.65967, 252.16357, 257.25684, 259.43652, 263.59375, 268.68701, 271.15234, 275.85889, 280.95215, 284.00195, 286.18164, 289.23145, " y="318, ">
				defined, specifies which entity
		</text>
		<text fill="gray" font-size="9" font-family="Segoe UI" x="175, 177.71582, 183.00684, 187.71338, 190.84229, 194.66113, 199.93457, 205.02783, 206.979, 209.44434, 214.71777, 217.84668, 223.14648, 227.72559, 232.81885, 234.99854, 238.81738, 243.39648, 246.44629, 248.62598, 253.89941, 258.99268, 261.45801, 266.73145, " y="330, ">
				(person, organisation or
		</text>
		<text fill="gray" font-size="9" font-family="Segoe UI" x="175, 178.81885, 183.17383, 186.99268, 190.04248, 194.74902, 202.50098, 205.2168, 207.68213, 214.18604, 216.36572, 218.54541, 220.7251, 223.19043, 227.89697, 233.19678, 235.37646, 238.42627, 240.8916, 243.94141, 249.03467, 253.74121, 256.20654, 261.49756, 264.62646, 269.8999, 275.19092, 279.89746, 283.02637, 286.07617, " y="342, ">
				system) will edit the property
		</text>
		<text fill="gray" font-size="9" font-family="Segoe UI" x="175, 178.59912, 181.06445, 185.771, 189.90186, 195.19287, 198.32178, 203.02832, 206.84717, 210.66602, 215.37256, 220.67236, 223.1377, 228.42871, 232.78369, 235.24902, 239.82812, 242.29346, 248.47656, 253.85986, 256.25488, 258.20605, 260.67139, 263.06641, 265.8833, 268.34863, 271.39844, 276.4917, " y="354, ">
				- expressed by a URI. If the
		</text>
		<text fill="gray" font-size="9" font-family="Segoe UI" x="175, 180.29102, 183.41992, 188.69336, 193.98438, 198.69092, 201.81982, 204.86963, 209.22461, 211.68994, 216.00098, 220.58008, 222.75977, 227.85303, 232.55957, 235.0249, 237.20459, 241.02344, 243.48877, 248.78857, 253.49512, 256.31201, 258.4917, 263.58496, 268.2915, 273.59131, " y="366, ">
				property value is defined,
		</text>
		<text fill="gray" font-size="9" font-family="Segoe UI" x="175, 178.81885, 184.10986, 188.81641, 192.97363, 195.15332, 197.97021, 200.1499, 204.85645, 208.67529, 211.14062, 217.64453, 222.73779, 224.91748, 229.07471, 234.16797, 236.6333, 241.33984, 246.43311, 249.48291, 251.6626, 254.7124, 259.06738, 261.53271, 264.24854, 269.53955, 274.24609, 277.375, 281.19385, 286.46729, 291.56055, " y="378, ">
				specifies which entity (person,
		</text>
		<text fill="gray" font-size="9" font-family="Segoe UI" x="175, 180.27344, 183.40234, 188.70215, 193.28125, 198.37451, 200.5542, 204.37305, 208.95215, 212.00195, 214.18164, 219.45508, 224.54834, 227.01367, 232.28711, 235.41602, 237.88135, 241.7002, 246.05518, 249.87402, 252.92383, 257.63037, 265.38232, 268.09814, 270.56348, 275.65674, 280.23584, " y="390, ">
				organisation or system) has
		</text>
		<text fill="gray" font-size="9" font-family="Segoe UI" x="175, 179.70654, 185.00635, 187.18604, 190.23584, 194.94238, 200.24219, 202.70752, 205.75732, 210.85059, 215.55713, 218.02246, 223.31348, 226.44238, 231.71582, 237.00684, 241.71338, 244.84229, 247.89209, 252.24707, " y="402, ">
				edited the property.
		</text>
		<rect fill="white" x="179" y="271" width="57" height="16"/>
		<text font-size="12" font-weight="600" font-family="Segoe UI" x="179, 184.75977, 189.48828, 195.98047, 202.4375, 207.06055, 214.39648, 219.20703, 226.4668, 231.28906, " y="284, ">
				creatoruri
		</text>
		<rect fill="none" stroke="black" stroke-width="1" stroke-linecap="square" stroke-miterlimit="4" transform="translate(0.5 0.5)" x="170" y="269" width="72" height="20"/>
		<rect fill="silver" x="174" y="415" width="69" height="21"/>
		<rect fill="white" x="170" y="411" width="69" height="21"/>
		<rect fill="white" x="175" y="438" width="119" height="72"/>
		<text fill="gray" font-size="9" font-family="Segoe UI" x="175, 179.71533, 184.80859, 189.51514, 191.98047, 197.28027, 201.85938, 204.90918, 209.61572, 212.08105, 214.79688, 219.37598, 224.46924, 229.76904, 231.72021, 234.18555, 239.45898, 244.75, 247.7998, 249.97949, 255.25293, 260.34619, 264.92529, 267.10498, 269.28467, 273.63965, 275.59082, 278.05615, 281.10596, 286.19922, " y="448, ">
				The date (and, optionally, the
		</text>
		<text fill="gray" font-size="9" font-family="Segoe UI" x="175, 178.0498, 180.22949, 187.98145, 192.68799, 195.40381, 197.86914, 204.37305, 209.46631, 214.17285, 219.26611, 221.73145, 224.78125, 229.87451, 234.58105, 237.04639, 242.3374, 245.46631, 250.73975, 256.03076, 260.7373, 263.86621, 266.91602, 271.271, 273.73633, 280.24023, 284.81934, " y="460, ">
				time) when the property was
		</text>
		<text fill="gray" font-size="9" font-family="Segoe UI" x="175, 177.17969, 181.75879, 185.57764, 188.62744, 191.09277, 198.84473, 204.11816, 209.41797, 211.59766, 214.41455, 216.59424, 221.30078, 226.60059, 228.55176, 231.01709, 235.73242, 240.82568, 245.53223, 247.99756, 250.17725, 255.27051, 257.4502, 260.5, 262.67969, 267.25879, 269.43848, 271.90381, 276.21484, 280.79395, 282.97363, 288.06689, " y="472, ">
				last modified. The initial value
		</text>
		<text fill="gray" font-size="9" font-family="Segoe UI" x="175, 177.17969, 180.99854, 183.46387, 186.51367, 191.60693, 196.31348, 198.77881, 204.07861, 208.65771, 211.70752, 216.41406, 218.87939, 221.59521, 226.17432, 231.26758, 236.56738, 238.51855, 240.98389, 246.25732, 251.54834, 254.59814, 256.77783, 262.05127, 267.14453, 271.72363, 273.90332, 276.08301, 280.43799, " y="484, ">
				is the date (and, optionally,
		</text>
		<text fill="gray" font-size="9" font-family="Segoe UI" x="175, 178.0498, 183.14307, 187.84961, 190.31494, 193.36475, 195.54443, 203.29639, 208.00293, 210.71875, 213.18408, 218.45752, 221.27441, 223.73975, 227.89697, 231.02588, 235.73242, 240.31152, 243.36133, 245.54102, 250.81445, 255.90771, 258.37305, 263.64648, 266.46338, 268.92871, 271.97852, 277.07178, " y="496, ">
				the time) of creation of the
		</text>
		<text fill="gray" font-size="9" font-family="Segoe UI" x="175, 180.29102, 183.41992, 188.69336, 193.98438, 198.69092, 201.81982, 204.86963, 209.22461, " y="508, ">
				property.
		</text>
		<rect fill="white" x="179" y="413" width="53" height="16"/>
		<text font-size="12" font-weight="600" font-family="Segoe UI" x="179, 189.99219, 197.32812, 204.75781, 208.16797, 212.76758, 216.17773, 222.66992, " y="426, ">
				modified
		</text>
		<rect fill="none" stroke="black" stroke-width="1" stroke-linecap="square" stroke-miterlimit="4" transform="translate(0.5 0.5)" x="170" y="411" width="68" height="20"/>
		<rect fill="silver" x="174" y="521" width="59" height="21"/>
		<rect fill="white" x="170" y="517" width="59" height="21"/>
		<rect fill="white" x="175" y="544" width="118" height="108"/>
		<text fill="gray" font-size="9" font-family="Segoe UI" x="175, 177.39502, 180.21191, 182.67725, 186.49609, 191.20264, 194.25244, 196.71777, 199.76758, 205.04102, 207.50635, 210.55615, 213.68506, 218.77832, 223.48486, 225.9502, 229, 234.09326, " y="554, ">
				If set to true the
		</text>
		<text fill="gray" font-size="9" font-family="Segoe UI" x="175, 179.15723, 184.43066, 187.55957, 190.68848, 195.39502, 199.21387, 204.50488, 209.77832, 214.87158, 220.17139, 222.35107, 227.44434, 232.74414, 235.20947, 240.50049, 243.62939, 248.90283, 254.19385, 258.90039, 262.0293, 265.0791, 269.43408, 271.89941, 278.40332, 282.98242, " y="566, ">
				corresponding property was
		</text>
		<text fill="gray" font-size="9" font-family="Segoe UI" x="175, 179.5791, 184.87891, 190.17871, 194.88525, 200.18506, 202.65039, 205.7002, 210.97363, 213.43896, 216.48877, 221.58203, 226.28857, 228.75391, 234.92822, 239.77979, 242.24512, 244.64014, 247.68994, 252.39648, 260.14844, 262.61377, 265.43066, 270.7041, 273.83301, 276.29834, " y="578, ">
				added to the G2 Item for a
		</text>
		<text fill="gray" font-size="9" font-family="Segoe UI" x="175, 178.81885, 184.10986, 188.81641, 192.97363, 195.15332, 197.97021, 200.1499, 204.30713, 206.77246, 210.92969, 216.02295, 219.8418, 222.8916, 228.16504, 235.91699, 240.62354, 243.75244, 246.21777, 251.49121, 254.62012, 257.08545, 262.38525, 265.51416, 270.7876, 275.88086, 281.17188, 283.63721, 288.91064, " y="590, ">
				specific customer or group of
		</text>
		<text fill="gray" font-size="9" font-family="Segoe UI" x="175, 179.15723, 184.25049, 188.06934, 191.11914, 196.39258, 204.14453, 208.85107, 211.97998, 215.79883, 218.26416, 223.5376, 228.63086, 230.81055, 235.16553, 237.1167, 239.58203, 244.29736, 249.39062, 254.09717, 256.5625, 261.8623, 266.56885, 269.38574, 273.96484, 279.05811, 281.23779, " y="602, ">
				customers only. The default
		</text>
		<text fill="gray" font-size="9" font-family="Segoe UI" x="175, 179.31104, 183.89014, 186.06982, 191.16309, 195.86963, 198.33496, 203.6084, 206.42529, 208.89062, 211.94043, 217.03369, 219.21338, 223.03223, 225.49756, 230.78857, 233.91748, 239.19092, 244.48193, 249.18848, 252.31738, 255.36719, 259.72217, 262.1875, 264.36719, 268.18604, 270.65137, 273.46826, 278.04736, 280.22705, 284.0459, " y="614, ">
				value of this property is false
		</text>
		<text fill="gray" font-size="9" font-family="Segoe UI" x="175, 181.50391, 186.59717, 188.77686, 192.93408, 198.02734, 200.49268, 205.07178, 210.36279, 215.65381, 217.8335, 220.01318, 224.71973, 228.53857, 231.00391, 237.50781, 242.60107, 247.30762, 252.40088, 254.86621, 257.91602, 263.00928, 265.18896, " y="626, ">
				which applies when this
		</text>
		<text fill="gray" font-size="9" font-family="Segoe UI" x="175, 179.5791, 182.62891, 185.67871, 188.80762, 190.9873, 196.27832, 201.37158, 204.42139, 209.12793, 211.59326, 213.77295, 217.5918, 220.05713, 225.15039, 230.42383, 233.47363, 235.93896, 241.03223, 244.85107, 249.55762, 254.85742, 257.32275, 263.82666, 266.00635, 269.05615, 274.14941, 276.61475, 279.66455, 284.75781, " y="638, ">
				attribute is not used with the
		</text>
		<text fill="gray" font-size="9" font-family="Segoe UI" x="175, 180.29102, 183.41992, 188.69336, 193.98438, 198.69092, 201.81982, 204.86963, 209.22461, " y="650, ">
				property.
		</text>
		<rect fill="white" x="179" y="519" width="43" height="16"/>
		<text font-size="12" font-weight="600" font-family="Segoe UI" x="179, 184.75977, 192.01953, 197.29883, 201.92188, 209.25781, " y="532, ">
				custom
		</text>
		<rect fill="none" stroke="black" stroke-width="1" stroke-linecap="square" stroke-miterlimit="4" transform="translate(0.5 0.5)" x="170" y="517" width="58" height="20"/>
		<rect fill="silver" x="174" y="663" width="52" height="21"/>
		<rect fill="white" x="170" y="659" width="52" height="21"/>
		<rect fill="white" x="175" y="686" width="118" height="48"/>
		<text fill="gray" font-size="9" font-family="Segoe UI" x="175, 177.39502, 182.48828, 187.78809, 189.96777, 194.125, 198.7041, 201.75391, 206.46045, 210.2793, 212.74463, 218.03564, 222.39062, 224.85596, 231.35986, 236.45312, 238.63281, 242.79004, 247.8833, 250.34863, 258.10059, 262.80713, 267.38623, 272.47949, 276.29834, 278.76367, 281.81348, 286.90674, " y="696, ">
				Indicates by which means the
		</text>
		<text fill="gray" font-size="9" font-family="Segoe UI" x="175, 179.31104, 183.89014, 186.06982, 191.16309, 195.86963, 198.33496, 204.83887, 209.41797, 213.23682, 215.70215, 220.40869, 224.53955, 227.58936, 230.71826, 235.29736, 239.45459, 242.50439, 247.21094, 252.51074, 254.97607, 257.79297, 260.92188, 266.19531, 273.94727, 276.4126, 279.4624, 284.55566, " y="708, ">
				value was extracted from the
		</text>
		<text fill="gray" font-size="9" font-family="Segoe UI" x="175, 179.15723, 184.43066, 189.52393, 192.57373, 197.28027, 202.37354, 205.42334, 207.88867, 211.48779, 213.95312, 218.65967, 222.79053, 228.08154, 231.21045, 235.91699, 239.73584, 243.55469, 248.26123, 253.56104, 256.02637, 261.31738, 265.67236, 268.1377, " y="720, ">
				content - expressed by a
		</text>
		<text fill="gray" font-size="9" font-family="Segoe UI" x="175, 181.78516, 187.35742, 192.63086, 197.93066, " y="732, ">
				QCode
		</text>
		<rect fill="white" x="179" y="661" width="36" height="16"/>
		<text font-size="12" font-weight="600" font-family="Segoe UI" x="179, 186.22461, 193.56055, " y="674, ">
				how
		</text>
		<rect fill="none" stroke="black" stroke-width="1" stroke-linecap="square" stroke-miterlimit="4" transform="translate(0.5 0.5)" x="170" y="659" width="51" height="20"/>
		<rect fill="silver" x="174" y="745" width="57" height="21"/>
		<rect fill="white" x="170" y="741" width="57" height="21"/>
		<rect fill="white" x="175" y="768" width="118" height="36"/>
		<text fill="gray" font-size="9" font-family="Segoe UI" x="175, 177.39502, 182.48828, 187.78809, 189.96777, 194.125, 198.7041, 201.75391, 206.46045, 210.2793, 212.74463, 218.03564, 222.39062, 224.85596, 231.35986, 236.45312, 238.63281, 242.79004, 247.8833, 250.34863, 258.10059, 262.80713, 267.38623, 272.47949, 276.29834, 278.76367, 281.81348, 286.90674, " y="778, ">
				Indicates by which means the
		</text>
		<text fill="gray" font-size="9" font-family="Segoe UI" x="175, 179.31104, 183.89014, 186.06982, 191.16309, 195.86963, 198.33496, 204.83887, 209.41797, 213.23682, 215.70215, 220.40869, 224.53955, 227.58936, 230.71826, 235.29736, 239.45459, 242.50439, 247.21094, 252.51074, 254.97607, 257.79297, 260.92188, 266.19531, 273.94727, 276.4126, 279.4624, 284.55566, " y="790, ">
				value was extracted from the
		</text>
		<text fill="gray" font-size="9" font-family="Segoe UI" x="175, 179.15723, 184.43066, 189.52393, 192.57373, 197.28027, 202.37354, 205.42334, 207.88867, 211.48779, 213.95312, 218.65967, 222.79053, 228.08154, 231.21045, 235.91699, 239.73584, 243.55469, 248.26123, 253.56104, 256.02637, 261.31738, 265.67236, 268.1377, 272.7168, 275.18213, 281.36523, 286.74854, " y="802, ">
				content - expressed by a URI
		</text>
		<rect fill="white" x="179" y="743" width="41" height="16"/>
		<text font-size="12" font-weight="600" font-family="Segoe UI" x="179, 186.22461, 193.56055, 203.12891, 210.38867, 215.21094, " y="756, ">
				howuri
		</text>
		<rect fill="none" stroke="black" stroke-width="1" stroke-linecap="square" stroke-miterlimit="4" transform="translate(0.5 0.5)" x="170" y="741" width="56" height="20"/>
		<rect fill="silver" x="174" y="815" width="52" height="21"/>
		<rect fill="white" x="170" y="811" width="52" height="21"/>
		<rect fill="white" x="175" y="838" width="113" height="36"/>
		<text fill="gray" font-size="9" font-family="Segoe UI" x="175, 183.40674, 188.5, 192.85498, 195.32031, 198.37012, 203.46338, 208.16992, 210.63525, 218.38721, 223.09375, 226.14355, 230.72266, 236.02246, 240.60156, 243.65137, 248.23047, 250.6958, 255.78906, 260.36816, 264.18701, 266.65234, 271.94336, 276.6499, 281.35645, " y="848, ">
				Why the metadata has been
		</text>
		<text fill="gray" font-size="9" font-family="Segoe UI" x="175, 177.17969, 182.27295, 186.43018, 188.60986, 193.70312, 199.00293, 203.70947, 209.00928, 211.47461, 215.07373, 217.53906, 222.24561, 226.37646, 231.66748, 234.79639, 239.50293, 243.32178, 247.14062, 251.84717, 257.14697, 259.6123, 264.90332, 269.2583, 271.72363, " y="860, ">
				included - expressed by a
		</text>
		<text fill="gray" font-size="9" font-family="Segoe UI" x="175, 181.78516, 187.35742, 192.63086, 197.93066, " y="872, ">
				QCode
		</text>
		<rect fill="white" x="179" y="813" width="36" height="16"/>
		<text font-size="12" font-weight="600" font-family="Segoe UI" x="179, 188.56836, 195.79297, " y="826, ">
				why
		</text>
		<rect fill="none" stroke="black" stroke-width="1" stroke-linecap="square" stroke-miterlimit="4" transform="translate(0.5 0.5)" x="170" y="811" width="51" height="20"/>
		<rect fill="silver" x="174" y="885" width="56" height="21"/>
		<rect fill="white" x="170" y="881" width="56" height="21"/>
		<rect fill="white" x="175" y="908" width="119" height="24"/>
		<text fill="gray" font-size="9" font-family="Segoe UI" x="175, 183.40674, 188.5, 192.85498, 195.32031, 198.37012, 203.46338, 208.16992, 210.63525, 218.38721, 223.09375, 226.14355, 230.72266, 236.02246, 240.60156, 243.65137, 248.23047, 250.6958, 255.78906, 260.36816, 264.18701, 266.65234, 271.94336, 276.6499, 281.35645, " y="918, ">
				Why the metadata has been
		</text>
		<text fill="gray" font-size="9" font-family="Segoe UI" x="175, 177.17969, 182.27295, 186.43018, 188.60986, 193.70312, 199.00293, 203.70947, 209.00928, 211.47461, 215.07373, 217.53906, 222.24561, 226.37646, 231.66748, 234.79639, 239.50293, 243.32178, 247.14062, 251.84717, 257.14697, 259.6123, 264.90332, 269.2583, 271.72363, 276.30273, 278.76807, 284.95117, 290.33447, " y="930, ">
				included - expressed by a URI
		</text>
		<rect fill="white" x="179" y="883" width="40" height="16"/>
		<text font-size="12" font-weight="600" font-family="Segoe UI" x="179, 188.56836, 195.79297, 202.25, 209.50977, 214.33203, " y="896, ">
				whyuri
		</text>
		<rect fill="none" stroke="black" stroke-width="1" stroke-linecap="square" stroke-miterlimit="4" transform="translate(0.5 0.5)" x="170" y="881" width="55" height="20"/>
		<rect fill="silver" x="174" y="943" width="97" height="21"/>
		<rect fill="white" x="170" y="939" width="97" height="21"/>
		<rect fill="white" x="175" y="966" width="117" height="72"/>
		<text fill="gray" font-size="9" font-family="Segoe UI" x="175, 181.78516, 186.87842, 191.58496, 194.05029, 199.32373, 202.45264, 204.91797, 212.66992, 217.24902, 222.34229, 226.69727, 229.1626, 233.31982, 238.59326, 243.68652, 247.50537, 250.55518, 253.68408, 258.26318, 260.44287, 265.53613, 268.58594, 272.40479, 274.87012, 277.91992, 283.01318, 287.59229, " y="976, ">
				One or many constraints that
		</text>
		<text fill="gray" font-size="9" font-family="Segoe UI" x="175, 179.5791, 184.87012, 190.16113, 192.34082, 196.6958, 199.16113, 202.21094, 207.48438, 209.94971, 215.24072, 220.33398, 225.625, 227.80469, 229.98438, 233.80322, 238.89648, 241.07617, 246.16943, 251.46924, 253.93457, 256.98438, 262.07764, 266.78418, 269.24951, 273.56055, 278.13965, 280.31934, 285.4126, " y="988, ">
				apply to publishing the value
		</text>
		<text fill="gray" font-size="9" font-family="Segoe UI" x="175, 180.27344, 183.09033, 185.55566, 188.60547, 193.69873, 198.40527, 200.87061, 206.16162, 209.29053, 214.56396, 219.85498, 224.56152, 227.69043, 230.74023, 235.09521, 237.56055, 241.15967, 243.625, 248.33154, 252.4624, 257.75342, 260.88232, 265.58887, 269.40771, 273.22656, 277.93311, " y="1000, ">
				of the property - expressed
		</text>
		<text fill="gray" font-size="9" font-family="Segoe UI" x="175, 180.29102, 184.646, 187.11133, 191.69043, 194.15576, 200.94092, 206.51318, 211.78662, 217.08643, 221.79297, 223.74414, 226.20947, 230.76221, 235.34131, 239.49854, 244.5918, 247.05713, 251.21436, 256.48779, 261.58105, 265.3999, 268.44971, 271.57861, 276.15771, 278.3374, 283.43066, " y="1012, ">
				by a QCode. Each constraint
		</text>
		<text fill="gray" font-size="9" font-family="Segoe UI" x="175, 179.5791, 184.87012, 190.16113, 192.34082, 194.52051, 199.22705, 203.0459, 205.51123, 208.56104, 213.83447, 216.2998, 220.87891, 223.05859, 225.23828, 227.70361, 233.00342, 237.70996, 241.52881, 245.68604, 250.39258, 255.48584, 260.78564, 265.36475, 270.45801, " y="1024, ">
				applies to all descendant
		</text>
		<text fill="gray" font-size="9" font-family="Segoe UI" x="175, 179.70654, 181.88623, 186.59277, 194.34473, 199.05127, 204.14453, 207.19434, 211.01318, " y="1036, ">
				elements.
		</text>
		<rect fill="white" x="179" y="941" width="81" height="16"/>
		<text font-size="12" font-weight="600" font-family="Segoe UI" x="179, 186.44141, 193.70117, 201.14258, 206.90234, 214.23828, 221.49805, 226.77734, 231.44727, 236.22266, 242.67969, 246.08984, 253.34961, " y="954, ">
				pubconstraint
		</text>
		<rect fill="none" stroke="black" stroke-width="1" stroke-linecap="square" stroke-miterlimit="4" transform="translate(0.5 0.5)" x="170" y="939" width="96" height="20"/>
		<rect fill="silver" x="174" y="1049" width="112" height="21"/>
		<rect fill="white" x="170" y="1045" width="112" height="21"/>
		<rect fill="white" x="175" y="1072" width="117" height="72"/>
		<text fill="gray" font-size="9" font-family="Segoe UI" x="175, 181.78516, 186.87842, 191.58496, 194.05029, 199.32373, 202.45264, 204.91797, 212.66992, 217.24902, 222.34229, 226.69727, 229.1626, 233.31982, 238.59326, 243.68652, 247.50537, 250.55518, 253.68408, 258.26318, 260.44287, 265.53613, 268.58594, 272.40479, 274.87012, 277.91992, 283.01318, 287.59229, " y="1082, ">
				One or many constraints that
		</text>
		<text fill="gray" font-size="9" font-family="Segoe UI" x="175, 179.5791, 184.87012, 190.16113, 192.34082, 196.6958, 199.16113, 202.21094, 207.48438, 209.94971, 215.24072, 220.33398, 225.625, 227.80469, 229.98438, 233.80322, 238.89648, 241.07617, 246.16943, 251.46924, 253.93457, 256.98438, 262.07764, 266.78418, 269.24951, 273.56055, 278.13965, 280.31934, 285.4126, " y="1094, ">
				apply to publishing the value
		</text>
		<text fill="gray" font-size="9" font-family="Segoe UI" x="175, 180.27344, 183.09033, 185.55566, 188.60547, 193.69873, 198.40527, 200.87061, 206.16162, 209.29053, 214.56396, 219.85498, 224.56152, 227.69043, 230.74023, 235.09521, 237.56055, 241.15967, 243.625, 248.33154, 252.4624, 257.75342, 260.88232, 265.58887, 269.40771, 273.22656, 277.93311, " y="1106, ">
				of the property - expressed
		</text>
		<text fill="gray" font-size="9" font-family="Segoe UI" x="175, 180.29102, 184.646, 187.11133, 191.69043, 194.15576, 200.33887, 205.72217, 208.11719, 210.06836, 212.53369, 217.08643, 221.66553, 225.82275, 230.91602, 233.38135, 237.53857, 242.81201, 247.90527, 251.72412, 254.77393, 257.90283, 262.48193, 264.66162, 269.75488, " y="1118, ">
				by a URI. Each constraint
		</text>
		<text fill="gray" font-size="9" font-family="Segoe UI" x="175, 179.5791, 184.87012, 190.16113, 192.34082, 194.52051, 199.22705, 203.0459, 205.51123, 208.56104, 213.83447, 216.2998, 220.87891, 223.05859, 225.23828, 227.70361, 233.00342, 237.70996, 241.52881, 245.68604, 250.39258, 255.48584, 260.78564, 265.36475, 270.45801, " y="1130, ">
				applies to all descendant
		</text>
		<text fill="gray" font-size="9" font-family="Segoe UI" x="175, 179.70654, 181.88623, 186.59277, 194.34473, 199.05127, 204.14453, 207.19434, 211.01318, " y="1142, ">
				elements.
		</text>
		<rect fill="white" x="179" y="1047" width="96" height="16"/>
		<text font-size="12" font-weight="600" font-family="Segoe UI" x="179, 186.44141, 193.70117, 201.14258, 206.90234, 214.23828, 221.49805, 226.77734, 231.44727, 236.22266, 242.67969, 246.08984, 253.34961, 258.01953, 265.2793, 270.10156, " y="1060, ">
				pubconstrainturi
		</text>
		<rect fill="none" stroke="black" stroke-width="1" stroke-linecap="square" stroke-miterlimit="4" transform="translate(0.5 0.5)" x="170" y="1045" width="111" height="20"/>
		<rect fill="silver" x="166" y="1212" width="52" height="21"/>
		<rect fill="white" x="162" y="1208" width="52" height="21"/>
		<rect fill="white" x="167" y="1235" width="112" height="60"/>
		<text fill="gray" font-size="9" font-family="Segoe UI" x="167, 171.71533, 176.80859, 181.51514, 183.98047, 189.27148, 193.85059, 196.97949, 200.0293, 202.49463, 205.54443, 210.6377, 212.81738, 216.63623, 219.10156, 224.40137, 227.53027, 232.80371, 237.89697, 243.18799, 245.65332, 250.94434, 253.12402, 257.70312, 262.05811, " y="1245, ">
				The part this group plays
		</text>
		<text fill="gray" font-size="9" font-family="Segoe UI" x="167, 173.50391, 175.68359, 178.7334, 183.82666, 186.00635, 191.09961, 193.56494, 195.74463, 198.79443, 202.61328, 205.07861, 209.23584, 214.50928, 219.60254, 222.65234, 227.23145, 229.41113, 234.50439, 239.21094, 242.33984, 244.80518, " y="1257, ">
				within its container -
		</text>
		<text fill="gray" font-size="9" font-family="Segoe UI" x="167, 171.70654, 175.8374, 181.12842, 184.25732, 188.96387, 192.78271, 196.60156, 201.30811, 206.60791, 209.07324, 214.36426, 218.71924, 221.18457, 225.76367, 228.229, 235.01416, 240.58643, 245.85986, 251.15967, 255.86621, 258.33154, " y="1269, ">
				expressed by a QCode /
		</text>
		<text fill="gray" font-size="9" font-family="Segoe UI" x="167, 171.70654, 173.88623, 176.93604, 182.0293, 186.73584, 189.86475, 192.33008, 195.37988, 200.47314, 205.17969, 207.64502, 210.77393, 216.04736, 218.22705, 222.93359, 225.39893, 230.67236, 233.80127, 236.2666, 239.31641, 244.40967, 249.11621, 251.58154, 254.71045, 259.98389, 262.16357, 266.87012, 271.96338, 275.09229, " y="1281, ">
				either the role or the roleuri
		</text>
		<text fill="gray" font-size="9" font-family="Segoe UI" x="167, 171.5791, 174.62891, 177.67871, 180.80762, 182.9873, 188.27832, 193.37158, 196.42139, 201.12793, 203.59326, 211.6748, 217.85791, 222.63916, 227.35449, 229.81982, 235.11084, 239.81738, 242.28271, 247.37598, 251.19482, 255.90137, " y="1293, ">
				attribute MUST be used
		</text>
		<rect fill="white" x="171" y="1210" width="36" height="16"/>
		<text font-size="12" font-weight="600" font-family="Segoe UI" x="171, 175.72852, 183.06445, 186.47461, " y="1223, ">
				role
		</text>
		<rect fill="none" stroke="black" stroke-width="1" stroke-linecap="square" stroke-miterlimit="4" transform="translate(0.5 0.5)" x="162" y="1208" width="51" height="20"/>
		<rect fill="silver" x="166" y="1306" width="55" height="21"/>
		<rect fill="white" x="162" y="1302" width="55" height="21"/>
		<rect fill="white" x="167" y="1329" width="108" height="60"/>
		<text fill="gray" font-size="9" font-family="Segoe UI" x="167, 171.71533, 176.80859, 181.51514, 183.98047, 189.27148, 193.85059, 196.97949, 200.0293, 202.49463, 205.54443, 210.6377, 212.81738, 216.63623, 219.10156, 224.40137, 227.53027, 232.80371, 237.89697, 243.18799, 245.65332, 250.94434, 253.12402, 257.70312, 262.05811, " y="1339, ">
				The part this group plays
		</text>
		<text fill="gray" font-size="9" font-family="Segoe UI" x="167, 173.50391, 175.68359, 178.7334, 183.82666, 186.00635, 191.09961, 193.56494, 195.74463, 198.79443, 202.61328, 205.07861, 209.23584, 214.50928, 219.60254, 222.65234, 227.23145, 229.41113, 234.50439, 239.21094, 242.33984, 244.80518, " y="1351, ">
				within its container -
		</text>
		<text fill="gray" font-size="9" font-family="Segoe UI" x="167, 171.70654, 175.8374, 181.12842, 184.25732, 188.96387, 192.78271, 196.60156, 201.30811, 206.60791, 209.07324, 214.36426, 218.71924, 221.18457, 225.76367, 228.229, 234.41211, 239.79541, 242.19043, 244.65576, 248.1626, 250.62793, 255.33447, 257.51416, 260.56396, 265.65723, 270.36377, " y="1363, ">
				expressed by a URI / either
		</text>
		<text fill="gray" font-size="9" font-family="Segoe UI" x="167, 170.0498, 175.14307, 179.84961, 182.31494, 185.44385, 190.71729, 192.89697, 197.60352, 200.06885, 205.34229, 208.47119, 210.93652, 213.98633, 219.07959, 223.78613, 226.25146, 229.38037, 234.65381, 236.8335, 241.54004, 246.6333, 249.76221, " y="1375, ">
				the role or the roleuri
		</text>
		<text fill="gray" font-size="9" font-family="Segoe UI" x="167, 171.5791, 174.62891, 177.67871, 180.80762, 182.9873, 188.27832, 193.37158, 196.42139, 201.12793, 203.59326, 211.6748, 217.85791, 222.63916, 227.35449, 229.81982, 235.11084, 239.81738, 242.28271, 247.37598, 251.19482, 255.90137, " y="1387, ">
				attribute MUST be used
		</text>
		<rect fill="white" x="171" y="1304" width="39" height="16"/>
		<text font-size="12" font-weight="600" font-family="Segoe UI" x="171, 175.72852, 183.06445, 186.47461, 192.9668, 200.22656, 205.04883, " y="1317, ">
				roleuri
		</text>
		<rect fill="none" stroke="black" stroke-width="1" stroke-linecap="square" stroke-miterlimit="4" transform="translate(0.5 0.5)" x="162" y="1302" width="54" height="20"/>
		<rect fill="silver" x="166" y="1400" width="52" height="21"/>
		<rect fill="white" x="162" y="1396" width="52" height="21"/>
		<rect fill="white" x="167" y="1423" width="110" height="84"/>
		<text fill="gray" font-size="9" font-family="Segoe UI" x="167, 172.80518, 177.89844, 180.36377, 182.54346, 187.63672, 192.93652, 195.11621, 199.27344, 203.85254, 206.90234, 209.08203, 214.35547, 219.44873, 221.91406, 228.41797, 233.51123, 238.21777, 241.26758, 246.36084, 251.06738, 254.19629, 256.66162, 259.71143, 264.80469, " y="1433, ">
				An indication whether the
		</text>
		<text fill="gray" font-size="9" font-family="Segoe UI" x="167, 171.70654, 173.88623, 178.59277, 186.34473, 191.05127, 196.14453, 199.19434, 203.01318, 205.47852, 207.6582, 212.75146, 215.2168, 218.2666, 223.35986, 228.06641, 230.53174, 235.83154, 238.96045, 244.23389, 249.32715, 254.61816, 257.0835, 261.6626, 264.7915, " y="1445, ">
				elements in the group are
		</text>
		<text fill="gray" font-size="9" font-family="Segoe UI" x="167, 171.15723, 176.43066, 184.18262, 189.47363, 191.65332, 196.35986, 204.11182, 208.81836, 213.91162, 216.96143, 221.54053, 224.66943, 229.02441, 231.48975, 236.06885, 241.16211, " y="1457, ">
				complementary and
		</text>
		<text fill="gray" font-size="9" font-family="Segoe UI" x="167, 172.09326, 177.18652, 182.45996, 185.58887, 190.88867, 195.59521, 198.72412, 203.43066, 208.73047, 210.68164, 213.14697, 217.3042, 222.57764, 230.32959, 235.62061, 237.80029, 242.50684, 250.25879, 254.96533, 260.05859, 263.1084, 267.6875, 270.81641, " y="1469, ">
				unordered, complementary
		</text>
		<text fill="gray" font-size="9" font-family="Segoe UI" x="167, 171.5791, 176.67236, 181.97217, 184.4375, 189.71094, 192.83984, 198.13965, 202.84619, 205.9751, 210.68164, 215.98145, 218.44678, 223.72021, 226.84912, 229.31445, 233.89355, 236.35889, 240.17773, 244.88428, 247.93408, 250.39941, 255.67285, " y="1481, ">
				and ordered or a set of
		</text>
		<text fill="gray" font-size="9" font-family="Segoe UI" x="167, 171.5791, 173.75879, 176.80859, 181.51514, 184.64404, 189.7373, 194.31641, 197.36621, 199.5459, 203.85693, 208.56348, 211.02881, 215.73535, 217.91504, 222.62158, 230.37354, 235.08008, 240.17334, 243.22314, 247.04199, 249.50732, " y="1493, ">
				alternative elements -
		</text>
		<text fill="gray" font-size="9" font-family="Segoe UI" x="167, 171.70654, 175.8374, 181.12842, 184.25732, 188.96387, 192.78271, 196.60156, 201.30811, 206.60791, 209.07324, 214.36426, 218.71924, 221.18457, 225.76367, 228.229, 235.01416, 240.58643, 245.85986, 251.15967, " y="1505, ">
				expressed by a QCode
		</text>
		<rect fill="white" x="171" y="1398" width="36" height="16"/>
		<text font-size="12" font-weight="600" font-family="Segoe UI" x="171, 181.99219, 189.32812, 196.75781, " y="1411, ">
				mode
		</text>
		<rect fill="none" stroke="black" stroke-width="1" stroke-linecap="square" stroke-miterlimit="4" transform="translate(0.5 0.5)" x="162" y="1396" width="51" height="20"/>
		<rect fill="silver" x="166" y="1518" width="65" height="21"/>
		<rect fill="white" x="162" y="1514" width="65" height="21"/>
		<rect fill="white" x="167" y="1541" width="110" height="84"/>
		<text fill="gray" font-size="9" font-family="Segoe UI" x="167, 172.80518, 177.89844, 180.36377, 182.54346, 187.63672, 192.93652, 195.11621, 199.27344, 203.85254, 206.90234, 209.08203, 214.35547, 219.44873, 221.91406, 228.41797, 233.51123, 238.21777, 241.26758, 246.36084, 251.06738, 254.19629, 256.66162, 259.71143, 264.80469, " y="1551, ">
				An indication whether the
		</text>
		<text fill="gray" font-size="9" font-family="Segoe UI" x="167, 171.70654, 173.88623, 178.59277, 186.34473, 191.05127, 196.14453, 199.19434, 203.01318, 205.47852, 207.6582, 212.75146, 215.2168, 218.2666, 223.35986, 228.06641, 230.53174, 235.83154, 238.96045, 244.23389, 249.32715, 254.61816, 257.0835, 261.6626, 264.7915, " y="1563, ">
				elements in the group are
		</text>
		<text fill="gray" font-size="9" font-family="Segoe UI" x="167, 171.15723, 176.43066, 184.18262, 189.47363, 191.65332, 196.35986, 204.11182, 208.81836, 213.91162, 216.96143, 221.54053, 224.66943, 229.02441, 231.48975, 236.06885, 241.16211, " y="1575, ">
				complementary and
		</text>
		<text fill="gray" font-size="9" font-family="Segoe UI" x="167, 172.09326, 177.18652, 182.45996, 185.58887, 190.88867, 195.59521, 198.72412, 203.43066, 208.73047, 210.68164, 213.14697, 217.3042, 222.57764, 230.32959, 235.62061, 237.80029, 242.50684, 250.25879, 254.96533, 260.05859, 263.1084, 267.6875, 270.81641, " y="1587, ">
				unordered, complementary
		</text>
		<text fill="gray" font-size="9" font-family="Segoe UI" x="167, 171.5791, 176.67236, 181.97217, 184.4375, 189.71094, 192.83984, 198.13965, 202.84619, 205.9751, 210.68164, 215.98145, 218.44678, 223.72021, 226.84912, 229.31445, 233.89355, 236.35889, 240.17773, 244.88428, 247.93408, 250.39941, 255.67285, " y="1599, ">
				and ordered or a set of
		</text>
		<text fill="gray" font-size="9" font-family="Segoe UI" x="167, 171.5791, 173.75879, 176.80859, 181.51514, 184.64404, 189.7373, 194.31641, 197.36621, 199.5459, 203.85693, 208.56348, 211.02881, 215.73535, 217.91504, 222.62158, 230.37354, 235.08008, 240.17334, 243.22314, 247.04199, 249.50732, " y="1611, ">
				alternative elements -
		</text>
		<text fill="gray" font-size="9" font-family="Segoe UI" x="167, 171.70654, 175.8374, 181.12842, 184.25732, 188.96387, 192.78271, 196.60156, 201.30811, 206.60791, 209.07324, 214.36426, 218.71924, 221.18457, 225.76367, 228.229, 234.41211, 239.79541, " y="1623, ">
				expressed by a URI
		</text>
		<rect fill="white" x="171" y="1516" width="49" height="16"/>
		<text font-size="12" font-weight="600" font-family="Segoe UI" x="171, 181.99219, 189.32812, 196.75781, 203.25, 210.50977, 215.33203, " y="1529, ">
				modeuri
		</text>
		<rect fill="none" stroke="black" stroke-width="1" stroke-linecap="square" stroke-miterlimit="4" transform="translate(0.5 0.5)" x="162" y="1514" width="64" height="20"/>
		<path fill="white" d="M293 1651L293 1632L162 1632L162 1651L162 1836L303 1836L303 1651L293 1651Z"/>
		<rect fill="white" x="167" y="1839" width="110" height="36"/>
		<text fill="gray" font-size="9" font-family="Segoe UI" x="167, 172.80518, 175.27051, 180.57031, 183.69922, 188.97266, 194.06592, 199.35693, 201.82227, 207.0957, 209.9126, 212.37793, 216.95703, 220.00684, 223.05664, 226.18555, 228.36523, 233.65625, 238.74951, 241.79932, 246.50586, 250.32471, 252.79004, 255.60693, 260.88037, " y="1849, ">
				A group of attributes for
		</text>
		<text fill="gray" font-size="9" font-family="Segoe UI" x="167, 169.17969, 173.75879, 178.85205, 184.15186, 189.24512, 193.82422, 199.12402, 203.83057, 206.2959, 210.875, 215.96826, 221.26807, 223.7334, 227.55225, 231.70947, 234.83838, 237.01807, 242.30908, 245.35889, 247.82422, 250.95312, 255.65967, 257.83936, 262.41846, 265.46826, 270.1748, " y="1861, ">
				language and script related
		</text>
		<text fill="gray" font-size="9" font-family="Segoe UI" x="167, 169.17969, 174.27295, 177.08984, 182.36328, 185.49219, 193.24414, 197.82324, 200.87305, 203.05273, 208.32617, " y="1873, ">
				information
		</text>
		<rect fill="white" x="204" y="1634" width="83" height="16"/>
		<text font-size="12" font-weight="600" font-family="Segoe UI" x="204, 207.41016, 214.3125, 221.21484, 228.47461, 236.67188, 241.3418, 246.01172, 250.83398, 254.24414, 261.68555, 268.94531, 273.56836, 280.06055, " y="1647, ">
				i18nAttributes
		</text>
		<rect fill="white" x="182" y="1634" width="20" height="16"/>
		<text fill="gray" font-size="12" font-family="Segoe UI" x="182, 189.06641, 193.23828, " y="1647, ">
				grp
		</text>
		<path fill="none" stroke="gray" stroke-width="1" stroke-linecap="square" stroke-miterlimit="4" transform="translate(0.5 0.5)" d="M162 1651L162 1836L303 1836L303 1651L293 1651"/>
		<path fill="none" stroke="black" stroke-width="1" stroke-linecap="square" stroke-miterlimit="4" transform="translate(0.5 0.5)" d="M293 1651L293 1632L162 1632L162 1651"/>
		<rect x="167" y="1637" width="11" height="11"/>
		<rect fill="white" x="168" y="1638" width="9" height="9"/>
		<rect x="169" y="1642" width="7" height="1"/>
		<rect fill="silver" x="174" y="1665" width="66" height="21"/>
		<rect fill="white" x="170" y="1661" width="66" height="21"/>
		<rect fill="white" x="175" y="1688" width="121" height="84"/>
		<text fill="gray" font-size="9" font-family="Segoe UI" x="175, 179.78125, 185.07227, 189.77881, 193.93604, 196.11572, 198.93262, 201.1123, 205.81885, 209.6377, 212.10303, 215.15283, 220.24609, 224.95264, 227.41797, 229.59766, 234.17676, 239.27002, 244.56982, 249.66309, 254.24219, 259.54199, 264.24854, 266.71387, 271.9873, 274.8042, 277.26953, 280.31934, 285.4126, 287.59229, " y="1698, ">
				Specifies the language of this
		</text>
		<text fill="gray" font-size="9" font-family="Segoe UI" x="175, 180.29102, 183.41992, 188.69336, 193.98438, 198.69092, 201.81982, 204.86963, 209.22461, 211.68994, 216.26904, 221.3623, 226.66211, 229.12744, 234.41846, 239.69189, 242.7417, 247.44824, 252.5415, 255.59131, 257.771, 262.3501, 264.52979, 266.70947, 271.06445, 273.52979, 278.10889, 280.28857, " y="1710, ">
				property and potentially all
		</text>
		<text fill="gray" font-size="9" font-family="Segoe UI" x="175, 180.2998, 185.00635, 188.8252, 192.98242, 197.68896, 202.78223, 208.08203, 212.66113, 217.75439, 220.8042, 223.26953, 228.56055, 231.68945, 236.96289, 242.25391, 246.96045, 250.08936, 253.13916, 255.31885, 260.02539, 263.84424, " y="1722, ">
				descendant properties.
		</text>
		<text fill="gray" font-size="9" font-family="Segoe UI" x="175, 179.13086, 186.88281, 189.0625, 191.01367, 193.19336, 197.77246, 202.86572, 208.16553, 210.63086, 214.94189, 219.521, 221.70068, 226.79395, 231.50049, 235.31934, 237.78467, 243.05811, 245.875, 248.34033, 253.64014, 258.34668, 262.16553, 266.32275, 271.0293, 276.12256, 281.42236, 286.00146, 291.09473, " y="1734, ">
				xml:lang values of descendant
		</text>
		<text fill="gray" font-size="9" font-family="Segoe UI" x="175, 180.29102, 183.41992, 188.69336, 193.98438, 198.69092, 201.81982, 204.86963, 207.04932, 211.75586, 215.57471, 218.04004, 223.31348, 227.62451, 232.33105, 235.45996, 238.58887, 240.76855, 246.06836, 250.7749, 253.24023, 256.29004, 261.3833, 263.56299, 267.38184, 269.84717, 274.1582, 278.7373, 280.91699, 286.01025, 290.7168, " y="1746, ">
				properties override this value.
		</text>
		<text fill="gray" font-size="9" font-family="Segoe UI" x="175, 179.93066, 184.50977, 186.68945, 191.78271, 196.48926, 200.30811, 202.77344, 207.35254, 210.48145, 215.18799, 217.65332, 222.95312, 227.65967, 230.70947, 235.41602, 238.54492, 246.29688, 248.47656, 253.56982, 258.27637, 263.57617, 266.0415, 271.33252, " y="1758, ">
				Values are determined by
		</text>
		<text fill="gray" font-size="9" font-family="Segoe UI" x="175, 177.39502, 182.48828, 185.53809, 190.24463, 193.37354, 198.4668, 203.17334, 206.22314, 208.68848, 213.84766, 219.41992, 224.46045, 226.92578, 231.77734, 236.62891, " y="1770, ">
				Internet BCP 47.
		</text>
		<rect fill="white" x="179" y="1663" width="50" height="16"/>
		<text font-size="12" font-weight="600" font-family="Segoe UI" x="179, 185.62695, 196.61914, 200.0293, 203.28125, 206.69141, 213.14844, 220.4082, " y="1676, ">
				xml:lang
		</text>
		<path fill="none" stroke="black" stroke-width="2" stroke-miterlimit="4" transform="translate(0.5 0.5)" d="M172 1679L176 1675"/>
		<path fill="none" stroke="black" stroke-width="1" stroke-linecap="square" stroke-miterlimit="4" transform="translate(0.5 0.5)" d="M173 1675L176 1675L176 1678"/>
		<rect fill="none" stroke="black" stroke-width="1" stroke-linecap="square" stroke-miterlimit="4" transform="translate(0.5 0.5)" x="170" y="1661" width="65" height="20"/>
		<rect fill="silver" x="174" y="1783" width="52" height="21"/>
		<rect fill="white" x="170" y="1779" width="52" height="21"/>
		<rect fill="white" x="175" y="1806" width="116" height="24"/>
		<text fill="gray" font-size="9" font-family="Segoe UI" x="175, 179.71533, 184.80859, 189.51514, 191.98047, 197.28027, 199.45996, 202.58887, 207.29541, 211.45264, 214.50244, 216.68213, 221.95557, 227.04883, 231.62793, 233.80762, 235.9873, 239.03711, 243.39209, 245.85742, 251.13086, 253.94775, 256.41309, 259.46289, 264.16943, 268.30029, 271.3501, 276.44336, 281.02246, " y="1816, ">
				The directionality of textual
		</text>
		<text fill="gray" font-size="9" font-family="Segoe UI" x="175, 179.15723, 184.43066, 189.52393, 192.57373, 197.28027, 202.37354, 205.42334, 207.88867, 210.60449, 215.31104, 220.4043, 225.49756, 233.24951, 237.95605, 241.08496, 245.66406, 248.71387, 250.89355, 256.16699, 261.26025, 263.21143, 265.67676, 267.85645, 270.90625, 274.03516, 275.98633, 278.45166, 281.58057, 284.63037, 286.81006, " y="1828, ">
				content (enumeration: ltr, rtl)
		</text>
		<rect fill="white" x="179" y="1781" width="36" height="16"/>
		<text font-size="12" font-weight="600" font-family="Segoe UI" x="179, 186.42969, 189.83984, " y="1794, ">
				dir
		</text>
		<rect fill="none" stroke="black" stroke-width="1" stroke-linecap="square" stroke-miterlimit="4" transform="translate(0.5 0.5)" x="170" y="1779" width="51" height="20"/>
		<path fill="silver" d="M166 1891L171 1886L239 1886L244 1891L244 1902L239 1907L171 1907L166 1902L166 1891Z"/>
		<path fill="white" d="M162 1887L167 1882L235 1882L240 1887L240 1898L235 1903L167 1903L162 1898L162 1887Z"/>
		<rect fill="white" x="189" y="1884" width="46" height="16"/>
		<text font-size="12" font-weight="600" font-family="Segoe UI" x="189, 196.10742, 203.21484, 210.55078, 215.2207, 222.44531, 228.9375, " y="1897, ">
				##other
		</text>
		<rect fill="white" x="167" y="1884" width="20" height="16"/>
		<text fill="gray" font-size="12" font-family="Segoe UI" x="167, 173.10547, 179.89648, " y="1897, ">
				any
		</text>
		<path fill="none" stroke="black" stroke-width="1" stroke-linecap="square" stroke-miterlimit="4" transform="translate(0.5 0.5)" d="M162 1887L167 1882L234 1882L239 1887L239 1897L234 1902L167 1902L162 1897L162 1887Z"/>
		<rect x="153" y="5" width="11" height="11"/>
		<rect fill="white" x="154" y="6" width="9" height="9"/>
		<rect x="155" y="10" width="7" height="1"/>
		<path fill="none" stroke="black" stroke-width="1" stroke-linecap="square" stroke-miterlimit="4" transform="translate(0.5 0.5)" d="M193 2204L201 2204"/>
		<path fill="none" stroke="black" stroke-width="1" stroke-linecap="square" stroke-miterlimit="4" transform="translate(0.5 0.5)" d="M202 2204L202 1937"/>
		<path fill="none" stroke="black" stroke-width="1" stroke-linecap="square" stroke-miterlimit="4" transform="translate(0.5 0.5)" d="M202 2204L202 2472"/>
		<path fill="none" stroke="black" stroke-width="1" stroke-linecap="square" stroke-miterlimit="4" transform="translate(0.5 0.5)" d="M202 1936L216 1936"/>
		<path fill="none" stroke="black" stroke-width="1" stroke-linecap="square" stroke-miterlimit="4" transform="translate(0.5 0.5)" d="M202 1999L216 1999"/>
		<path fill="none" stroke="black" stroke-width="1" stroke-linecap="square" stroke-miterlimit="4" transform="translate(0.5 0.5)" d="M202 2062L216 2062"/>
		<path fill="none" stroke="black" stroke-width="1" stroke-linecap="square" stroke-miterlimit="4" transform="translate(0.5 0.5)" d="M202 2137L216 2137"/>
		<path fill="none" stroke="black" stroke-width="1" stroke-linecap="square" stroke-miterlimit="4" transform="translate(0.5 0.5)" d="M202 2200L216 2200"/>
		<path fill="none" stroke="black" stroke-width="1" stroke-linecap="square" stroke-miterlimit="4" transform="translate(0.5 0.5)" d="M202 2275L216 2275"/>
		<path fill="none" stroke="black" stroke-width="1" stroke-linecap="square" stroke-miterlimit="4" transform="translate(0.5 0.5)" d="M202 2350L216 2350"/>
		<path fill="none" stroke="black" stroke-width="1" stroke-linecap="square" stroke-miterlimit="4" transform="translate(0.5 0.5)" d="M202 2473L216 2473"/>
		<path fill="silver" d="M155 2206L160 2201L185 2201L190 2206L190 2217L185 2222L160 2222L155 2217L155 2206Z"/>
		<path fill="white" d="M151 2202L156 2197L180 2197L185 2202L185 2212L180 2217L156 2217L151 2212L151 2202Z"/>
		<path transform="translate(0.5 0.5)" d="M154.889 2197.4L155.793 2196.5L156.929 2196.5L157.429 2196.5L157.429 2197.5L156.929 2197.5L156 2197.5L156 2197L156.354 2197.35L155.243 2198.46L154.536 2197.76L154.889 2197.4ZM160.929 2196.5L162.929 2196.5L163.429 2196.5L163.429 2197.5L162.929 2197.5L160.429 2197.5L160.429 2196.5L160.929 2196.5ZM166.929 2196.5L168.929 2196.5L169.429 2196.5L169.429 2197.5L168.929 2197.5L166.429 2197.5L166.429 2196.5L166.929 2196.5ZM172.929 2196.5L174.929 2196.5L175.429 2196.5L175.429 2197.5L174.929 2197.5L172.429 2197.5L172.429 2196.5L172.929 2196.5ZM178.929 2196.5L180.207 2196.5L181.01 2197.3L181.364 2197.66L180.657 2198.36L180.303 2198.01L179.646 2197.35L180 2197L180 2197.5L178.429 2197.5L178.429 2196.5L178.929 2196.5ZM183.839 2200.13L185.253 2201.55L185.607 2201.9L184.9 2202.61L184.546 2202.25L182.778 2200.49L183.485 2199.78L183.839 2200.13ZM185.5 2205.86L185.5 2207.86L185.5 2208.36L184.5 2208.36L184.5 2207.86L184.5 2205.36L185.5 2205.36L185.5 2205.86ZM185.5 2211.86L185.5 2212.21L184.04 2213.67L183.686 2214.02L182.979 2213.31L183.333 2212.96L184.646 2211.65L185 2212L184.5 2212L184.5 2211.36L185.5 2211.36L185.5 2211.86ZM181.211 2216.5L180.207 2217.5L179.213 2217.5L178.713 2217.5L178.713 2216.5L179.213 2216.5L180 2216.5L180 2217L179.646 2216.65L180.858 2215.44L181.565 2216.14L181.211 2216.5ZM175.213 2217.5L173.213 2217.5L172.713 2217.5L172.713 2216.5L173.213 2216.5L175.713 2216.5L175.713 2217.5L175.213 2217.5ZM169.213 2217.5L167.213 2217.5L166.713 2217.5L166.713 2216.5L167.213 2216.5L169.713 2216.5L169.713 2217.5L169.213 2217.5ZM163.213 2217.5L161.213 2217.5L160.713 2217.5L160.713 2216.5L161.213 2216.5L163.713 2216.5L163.713 2217.5L163.213 2217.5ZM157.213 2217.5L155.793 2217.5L155.09 2216.8L154.737 2216.44L155.444 2215.74L155.797 2216.09L156.354 2216.65L156 2217L156 2216.5L157.713 2216.5L157.713 2217.5L157.213 2217.5ZM152.262 2213.97L150.847 2212.55L150.494 2212.2L151.201 2211.49L151.555 2211.85L153.322 2213.62L152.615 2214.32L152.262 2213.97ZM150.5 2208.28L150.5 2206.28L150.5 2205.78L151.5 2205.78L151.5 2206.28L151.5 2208.78L150.5 2208.78L150.5 2208.28ZM150.5 2202.28L150.5 2201.79L152.414 2199.88L153.121 2200.59L151.354 2202.35L151 2202L151.5 2202L151.5 2202.78L150.5 2202.78L150.5 2202.28Z"/>
		<path fill="white" d="M148 2199L153 2194L178 2194L183 2199L183 2210L178 2215L153 2215L148 2210L148 2199Z"/>
		<path fill="none" stroke="black" stroke-width="1" stroke-linecap="square" stroke-miterlimit="4" transform="translate(0.5 0.5)" d="M167 2215L173 2221L176 2218"/>
		<path fill="none" stroke="black" stroke-width="1" stroke-linecap="square" stroke-miterlimit="4" transform="translate(0.5 0.5)" d="M153 2204L158 2204L162 2200"/>
		<path fill="none" stroke="black" stroke-width="1" stroke-linecap="square" stroke-miterlimit="4" transform="translate(0.5 0.5)" d="M168 2204L176 2204"/>
		<path fill="none" stroke="black" stroke-width="1" stroke-linecap="square" stroke-miterlimit="4" transform="translate(0.5 0.5)" d="M168 2200L172 2200L172 2208L168 2208"/>
		<rect x="164" y="2199" width="3" height="3"/>
		<rect x="164" y="2203" width="3" height="3"/>
		<rect x="164" y="2207" width="3" height="3"/>
		<text font-size="12" font-family="Segoe UI" x="152.76562, " y="2234, ">
				0
		</text>
		<text font-size="12" font-family="Symbol" x="167.72266, " y="2233, ">
				¥
		</text>
		<text font-size="12" font-family="Segoe UI" x="160.89844, 163.5, " y="2234, ">
				..
		</text>
		<path transform="translate(0.5 0.5)" d="M151.889 2194.4L152.793 2193.5L153.929 2193.5L154.429 2193.5L154.429 2194.5L153.929 2194.5L153 2194.5L153 2194L153.354 2194.35L152.243 2195.46L151.536 2194.76L151.889 2194.4ZM157.929 2193.5L159.929 2193.5L160.429 2193.5L160.429 2194.5L159.929 2194.5L157.429 2194.5L157.429 2193.5L157.929 2193.5ZM163.929 2193.5L165.929 2193.5L166.429 2193.5L166.429 2194.5L165.929 2194.5L163.429 2194.5L163.429 2193.5L163.929 2193.5ZM169.929 2193.5L171.929 2193.5L172.429 2193.5L172.429 2194.5L171.929 2194.5L169.429 2194.5L169.429 2193.5L169.929 2193.5ZM175.929 2193.5L177.207 2193.5L178.01 2194.3L178.364 2194.66L177.657 2195.36L177.303 2195.01L176.646 2194.35L177 2194L177 2194.5L175.429 2194.5L175.429 2193.5L175.929 2193.5ZM180.839 2197.13L182.253 2198.55L182.607 2198.9L181.9 2199.61L181.546 2199.25L179.778 2197.49L180.485 2196.78L180.839 2197.13ZM182.5 2202.86L182.5 2204.86L182.5 2205.36L181.5 2205.36L181.5 2204.86L181.5 2202.36L182.5 2202.36L182.5 2202.86ZM182.5 2208.86L182.5 2209.21L181.04 2210.67L180.686 2211.02L179.979 2210.31L180.333 2209.96L181.646 2208.65L182 2209L181.5 2209L181.5 2208.36L182.5 2208.36L182.5 2208.86ZM178.211 2213.5L177.207 2214.5L176.213 2214.5L175.713 2214.5L175.713 2213.5L176.213 2213.5L177 2213.5L177 2214L176.646 2213.65L177.858 2212.44L178.565 2213.14L178.211 2213.5ZM172.213 2214.5L170.213 2214.5L169.713 2214.5L169.713 2213.5L170.213 2213.5L172.713 2213.5L172.713 2214.5L172.213 2214.5ZM166.213 2214.5L164.213 2214.5L163.713 2214.5L163.713 2213.5L164.213 2213.5L166.713 2213.5L166.713 2214.5L166.213 2214.5ZM160.213 2214.5L158.213 2214.5L157.713 2214.5L157.713 2213.5L158.213 2213.5L160.713 2213.5L160.713 2214.5L160.213 2214.5ZM154.213 2214.5L152.793 2214.5L152.09 2213.8L151.737 2213.44L152.444 2212.74L152.797 2213.09L153.354 2213.65L153 2214L153 2213.5L154.713 2213.5L154.713 2214.5L154.213 2214.5ZM149.262 2210.97L147.847 2209.55L147.494 2209.2L148.201 2208.49L148.555 2208.85L150.322 2210.62L149.615 2211.32L149.262 2210.97ZM147.5 2205.28L147.5 2203.28L147.5 2202.78L148.5 2202.78L148.5 2203.28L148.5 2205.78L147.5 2205.78L147.5 2205.28ZM147.5 2199.28L147.5 2198.79L149.414 2196.88L150.121 2197.59L148.354 2199.35L148 2199L148.5 2199L148.5 2199.78L147.5 2199.78L147.5 2199.28Z"/>
		<rect fill="silver" x="221" y="1930" width="75" height="21"/>
		<rect fill="white" x="217" y="1926" width="75" height="21"/>
		<rect fill="white" x="222" y="1953" width="112" height="24"/>
		<text fill="gray" font-size="9" font-family="Segoe UI" x="222, 227.80518, 230.27051, 233.39941, 238.10596, 240.92285, 245.62939, 248.7583, 253.46484, 258.55811, 262.71533, 267.42188, 269.88721, 272.93701, 278.21045, 280.67578, 285.25488, 287.72021, 293.02002, 296.14893, 301.42236, 306.51562, 311.80664, 314.27197, 316.45166, 321.7251, 325.88232, 330.46143, " y="1963, ">
				A reference to a group local
		</text>
		<text fill="gray" font-size="9" font-family="Segoe UI" x="222, 225.0498, 230.32324, 232.78857, 235.83838, 240.93164, 245.63818, 248.10352, 253.39453, 257.97363, 262.13086, 266.60449, 271.18359, 276.4834, " y="1975, ">
				to the package
		</text>
		<rect fill="white" x="226" y="1928" width="54" height="16"/>
		<text font-size="12" font-weight="600" font-family="Segoe UI" x="226, 233.42969, 238.1582, 245.49414, 252.75391, 260.19531, 267.73047, 274.22266, " y="1941, ">
				groupRef
		</text>
		<rect fill="none" stroke="black" stroke-width="1" stroke-linecap="square" stroke-miterlimit="4" transform="translate(0.5 0.5)" x="217" y="1926" width="74" height="20"/>
		<rect x="286" y="1931" width="11" height="11"/>
		<rect fill="white" x="287" y="1932" width="9" height="9"/>
		<rect x="288" y="1936" width="7" height="1"/>
		<rect x="291" y="1933" width="1" height="7"/>
		<rect fill="silver" x="221" y="1993" width="67" height="21"/>
		<rect fill="white" x="217" y="1989" width="67" height="21"/>
		<rect fill="white" x="222" y="2016" width="111" height="24"/>
		<text fill="gray" font-size="9" font-family="Segoe UI" x="222, 227.80518, 230.27051, 233.39941, 238.10596, 240.92285, 245.62939, 248.7583, 253.46484, 258.55811, 262.71533, 267.42188, 269.88721, 272.93701, 278.21045, 280.67578, 285.25488, 287.72021, 290.77002, 295.34912, 298.47803, 303.77783, 308.48438, 311.53418, 313.99951, 316.1792, 319.229, 323.93555, " y="2026, ">
				A reference to a target item
		</text>
		<text fill="gray" font-size="9" font-family="Segoe UI" x="222, 227.27344, 230.40234, 232.86768, 240.92285, 245.62939, 250.92041, 253.38574, 256.51465, 261.22119, 265.04004, 270.31348, 275.40674, 278.53564, 282.69287, " y="2038, ">
				or Web resource
		</text>
		<rect fill="white" x="226" y="1991" width="46" height="16"/>
		<text font-size="12" font-weight="600" font-family="Segoe UI" x="226, 229.41016, 234.0332, 240.52539, 251.51758, 259.05273, 265.54492, " y="2004, ">
				itemRef
		</text>
		<rect fill="none" stroke="black" stroke-width="1" stroke-linecap="square" stroke-miterlimit="4" transform="translate(0.5 0.5)" x="217" y="1989" width="66" height="20"/>
		<rect x="278" y="1994" width="11" height="11"/>
		<rect fill="white" x="279" y="1995" width="9" height="9"/>
		<rect x="280" y="1999" width="7" height="1"/>
		<rect x="283" y="1996" width="1" height="7"/>
		<rect fill="silver" x="221" y="2056" width="86" height="21"/>
		<rect fill="white" x="217" y="2052" width="86" height="21"/>
		<rect fill="white" x="222" y="2079" width="91" height="36"/>
		<text fill="gray" font-size="9" font-family="Segoe UI" x="222, 227.80518, 230.27051, 233.39941, 238.10596, 240.92285, 245.62939, 248.7583, 253.46484, 258.55811, 262.71533, 267.42188, 269.88721, 272.93701, 278.21045, 280.67578, 285.25488, 287.72021, 290.77002, 295.34912, 298.47803, 303.77783, 308.48438, " y="2089, ">
				A reference to a target
		</text>
		<text fill="gray" font-size="9" font-family="Segoe UI" x="222, 226.15723, 231.43066, 236.52393, 240.68115, 245.3877, 250.67871, " y="2101, ">
				concept
		</text>
		<rect fill="white" x="226" y="2054" width="65" height="16"/>
		<text font-size="12" font-weight="600" font-family="Segoe UI" x="226, 231.75977, 239.0957, 246.35547, 252.11523, 258.60742, 266.04883, 270.71875, 278.25391, 284.74609, " y="2067, ">
				conceptRef
		</text>
		<rect fill="none" stroke="black" stroke-width="1" stroke-linecap="square" stroke-miterlimit="4" transform="translate(0.5 0.5)" x="217" y="2052" width="85" height="20"/>
		<rect x="297" y="2057" width="11" height="11"/>
		<rect fill="white" x="298" y="2058" width="9" height="9"/>
		<rect x="299" y="2062" width="7" height="1"/>
		<rect x="302" y="2059" width="1" height="7"/>
		<rect fill="silver" x="221" y="2131" width="52" height="21"/>
		<rect fill="white" x="217" y="2127" width="52" height="21"/>
		<rect fill="white" x="222" y="2154" width="103" height="24"/>
		<text fill="gray" font-size="9" font-family="Segoe UI" x="222, 227.80518, 230.27051, 234.08936, 239.18262, 244.45605, 247.58496, 250.63477, 252.58594, 255.05127, 260.14453, 264.72363, 267.77344, 272.8667, 275.99561, 280.57471, 282.75439, 286.35352, 288.5332, 293.1123, 298.20557, 303.50537, 308.59863, 313.17773, 318.47754, " y="2164, ">
				A short, natural-language
		</text>
		<text fill="gray" font-size="9" font-family="Segoe UI" x="222, 227.09326, 231.67236, 239.42432, " y="2176, ">
				name
		</text>
		<rect fill="white" x="226" y="2129" width="31" height="16"/>
		<text font-size="12" font-weight="600" font-family="Segoe UI" x="226, 230.66992, 234.08008, 238.75, 242.16016, " y="2142, ">
				title
		</text>
		<path fill="none" stroke="black" stroke-width="1" stroke-linecap="square" stroke-miterlimit="4" transform="translate(0.5 0.5)" d="M219 2129L224 2129"/>
		<path fill="none" stroke="black" stroke-width="1" stroke-linecap="square" stroke-miterlimit="4" transform="translate(0.5 0.5)" d="M219 2131L223 2131"/>
		<path fill="none" stroke="black" stroke-width="1" stroke-linecap="square" stroke-miterlimit="4" transform="translate(0.5 0.5)" d="M219 2133L223 2133"/>
		<path fill="none" stroke="black" stroke-width="2" stroke-miterlimit="4" transform="translate(0.5 0.5)" d="M219 2145L223 2141"/>
		<path fill="none" stroke="black" stroke-width="1" stroke-linecap="square" stroke-miterlimit="4" transform="translate(0.5 0.5)" d="M220 2141L223 2141L223 2144"/>
		<rect fill="none" stroke="black" stroke-width="1" stroke-linecap="square" stroke-miterlimit="4" transform="translate(0.5 0.5)" x="217" y="2127" width="51" height="20"/>
		<rect x="263" y="2132" width="11" height="11"/>
		<rect fill="white" x="264" y="2133" width="9" height="9"/>
		<rect x="265" y="2137" width="7" height="1"/>
		<rect x="268" y="2134" width="1" height="7"/>
		<rect fill="silver" x="221" y="2194" width="56" height="21"/>
		<rect fill="white" x="217" y="2190" width="56" height="21"/>
		<rect fill="white" x="222" y="2217" width="107" height="36"/>
		<text fill="gray" font-size="9" font-family="Segoe UI" x="222, 227.80518, 232.89844, 235.36377, 237.54346, 242.63672, 246.45557, 249.50537, 252.63428, 257.72754, 261.88477, 264.93457, 267.11426, 272.3877, 277.48096, 279.94629, 282.99609, 288.26953, 290.73486, 293.78467, 298.87793, " y="2227, ">
				An instruction to the
		</text>
		<text fill="gray" font-size="9" font-family="Segoe UI" x="222, 227.29102, 230.41992, 235.69336, 239.85059, 244.55713, 248.37598, 252.19482, 257.46826, 260.59717, 263.0625, 266.1123, 271.20557, 275.78467, 278.83447, 281.2998, 284.34961, 289.44287, 294.14941, 296.61475, 300.77197, 306.04541, 311.13867, 314.18848, 318.89502, 323.98828, " y="2239, ">
				processor that the content
		</text>
		<text fill="gray" font-size="9" font-family="Segoe UI" x="222, 225.12891, 229.83545, 235.13525, 240.22852, 242.4082, 245.53711, 250.24365, 254.0625, 256.52783, 260.34668, 265.6377, 270.34424, 274.50146, 276.68115, 281.26025, 283.43994, 285.90527, 290.99854, 295.57764, 300.6709, 305.9707, 308.15039, 310.33008, 315.42334, 320.72314, " y="2251, ">
				requires special handling.
		</text>
		<rect fill="white" x="226" y="2192" width="35" height="16"/>
		<text font-size="12" font-weight="600" font-family="Segoe UI" x="226, 231.2793, 234.68945, 242.11914, 249.37891, 255.83594, " y="2205, ">
				signal
		</text>
		<path fill="none" stroke="black" stroke-width="2" stroke-miterlimit="4" transform="translate(0.5 0.5)" d="M219 2208L223 2204"/>
		<path fill="none" stroke="black" stroke-width="1" stroke-linecap="square" stroke-miterlimit="4" transform="translate(0.5 0.5)" d="M220 2204L223 2204L223 2207"/>
		<rect fill="none" stroke="black" stroke-width="1" stroke-linecap="square" stroke-miterlimit="4" transform="translate(0.5 0.5)" x="217" y="2190" width="55" height="20"/>
		<rect x="267" y="2195" width="11" height="11"/>
		<rect fill="white" x="268" y="2196" width="9" height="9"/>
		<rect x="269" y="2200" width="7" height="1"/>
		<rect x="272" y="2197" width="1" height="7"/>
		<rect fill="silver" x="221" y="2269" width="64" height="21"/>
		<rect fill="white" x="217" y="2265" width="64" height="21"/>
		<rect fill="white" x="222" y="2292" width="118" height="36"/>
		<text fill="gray" font-size="9" font-family="Segoe UI" x="222, 227.80518, 230.27051, 235.36377, 240.63721, 243.68701, 248.39355, 250.85889, 255.43799, 260.73779, 266.0376, 269.1665, 273.87305, 277.69189, 281.51074, 286.21729, 291.51709, 293.98242, 297.03223, 302.30566, 304.771, 307.8208, 312.91406, " y="2302, ">
				A note addressed to the
		</text>
		<text fill="gray" font-size="9" font-family="Segoe UI" x="222, 226.70654, 232.00635, 234.18604, 237.23584, 242.50928, 245.63818, 247.81787, 252.39697, 254.57666, 257.04199, 262.33301, 267.03955, 272.31299, 277.604, 279.78369, 284.49023, 286.95557, 290.08447, 294.79102, 298.94824, 303.65479, 305.83447, 310.14551, 312.3252, 317.41846, 322.71826, 325.18359, 328.2334, 333.32666, " y="2314, ">
				editorial people receiving the
		</text>
		<text fill="gray" font-size="9" font-family="Segoe UI" x="222, 224.39502, 227.44482, 232.15137, 239.90332, " y="2326, ">
				Item.
		</text>
		<rect fill="white" x="226" y="2267" width="43" height="16"/>
		<text font-size="12" font-weight="600" font-family="Segoe UI" x="226, 232.49219, 239.92188, 249.40234, 256.73828, 261.36133, " y="2280, ">
				edNote
		</text>
		<path fill="none" stroke="black" stroke-width="1" stroke-linecap="square" stroke-miterlimit="4" transform="translate(0.5 0.5)" d="M219 2267L224 2267"/>
		<path fill="none" stroke="black" stroke-width="1" stroke-linecap="square" stroke-miterlimit="4" transform="translate(0.5 0.5)" d="M219 2269L223 2269"/>
		<path fill="none" stroke="black" stroke-width="1" stroke-linecap="square" stroke-miterlimit="4" transform="translate(0.5 0.5)" d="M219 2271L223 2271"/>
		<path fill="none" stroke="black" stroke-width="2" stroke-miterlimit="4" transform="translate(0.5 0.5)" d="M219 2283L223 2279"/>
		<path fill="none" stroke="black" stroke-width="1" stroke-linecap="square" stroke-miterlimit="4" transform="translate(0.5 0.5)" d="M220 2279L223 2279L223 2282"/>
		<rect fill="none" stroke="black" stroke-width="1" stroke-linecap="square" stroke-miterlimit="4" transform="translate(0.5 0.5)" x="217" y="2265" width="63" height="20"/>
		<rect x="275" y="2270" width="11" height="11"/>
		<rect fill="white" x="276" y="2271" width="9" height="9"/>
		<rect x="277" y="2275" width="7" height="1"/>
		<rect x="280" y="2272" width="1" height="7"/>
		<rect fill="silver" x="221" y="2344" width="124" height="21"/>
		<rect fill="white" x="217" y="2340" width="124" height="21"/>
		<rect fill="white" x="222" y="2367" width="118" height="84"/>
		<text fill="gray" font-size="9" font-family="Segoe UI" x="222, 226.55273, 230.68359, 233.7334, 238.43994, 243.5332, 247.35205, 249.53174, 254.80518, 259.89844, 262.36377, 267.4043, 270.5332, 275.80664, 281.09766, 285.8042, 288.93311, 291.98291, 296.33789, 298.28906, 300.75439, 303.8042, 308.89746, " y="2377, ">
				Extension Property; the
		</text>
		<text fill="gray" font-size="9" font-family="Segoe UI" x="222, 225.81885, 230.52539, 238.27734, 242.85645, 247.94971, 250.99951, 253.1792, 257.33643, 261.15527, 263.62061, 268.19971, 271.32861, 276.03516, 278.50049, 283.80029, 288.50684, 291.32373, 293.50342, 298.59668, 303.30322, 308.60303, 311.06836, 316.35938, 320.71436, 323.17969, 326.22949, 331.32275, " y="2389, ">
				semantics are defined by the
		</text>
		<text fill="gray" font-size="9" font-family="Segoe UI" x="222, 226.15723, 231.43066, 236.52393, 240.68115, 245.3877, 250.67871, 253.72852, 256.19385, 259.32275, 264.0293, 266.84619, 271.55273, 274.68164, 279.38818, 284.48145, 288.63867, 293.34521, 298.64502, 301.11035, 306.40137, 310.75635, 313.22168, 316.27148, 321.36475, 326.07129, 328.53662, 331.66553, 336.37207, " y="2401, ">
				concept referenced by the rel
		</text>
		<text fill="gray" font-size="9" font-family="Segoe UI" x="222, 226.5791, 229.62891, 232.67871, 235.80762, 237.9873, 243.27832, 248.37158, 251.42139, 256.12793, 258.0791, 260.54443, 265.25977, 270.35303, 275.05957, 277.5249, 281.34375, 286.05029, 293.80225, 298.38135, 303.47461, 306.52441, 308.7041, 312.86133, 316.68018, 319.14551, 324.41895, " y="2413, ">
				attribute. The semantics of
		</text>
		<text fill="gray" font-size="9" font-family="Segoe UI" x="222, 225.0498, 230.14307, 234.84961, 237.31494, 241.86768, 245.99854, 249.04834, 253.75488, 258.84814, 262.66699, 264.84668, 270.12012, 275.21338, 277.67871, 282.71924, 285.84814, 291.12158, 296.4126, 301.11914, 304.24805, 307.29785, 311.65283, 314.11816, 321.87012, 326.96338, 330.78223, " y="2425, ">
				the Extension Property must
		</text>
		<text fill="gray" font-size="9" font-family="Segoe UI" x="222, 227.09326, 231.67236, 235.9834, 240.68994, 243.15527, 246.20508, 251.29834, 256.00488, 258.47021, 262.28906, 266.86816, 274.62012, 279.32666, 281.79199, 285.61084, 289.76807, 295.0415, 300.33252, 305.03906, 307.50439, 312.0835, 315.90234, 318.36768, 321.41748, 326.51074, " y="2437, ">
				have the same scope as the
		</text>
		<text fill="gray" font-size="9" font-family="Segoe UI" x="222, 227.29102, 231.87012, 234.99902, 239.70557, 244.79883, 247.84863, 250.31396, 255.60498, 258.73389, 264.00732, 269.29834, 274.00488, 277.13379, 280.18359, 284.53857, " y="2449, ">
				parent property.
		</text>
		<rect fill="white" x="226" y="2342" width="103" height="16"/>
		<text font-size="12" font-weight="600" font-family="Segoe UI" x="226, 233.42969, 238.1582, 245.49414, 252.75391, 260.19531, 266.58203, 273.20898, 277.87891, 285.25, 289.97852, 297.31445, 304.75586, 311.24805, 316.36914, 321.03906, " y="2355, ">
				groupExtProperty
		</text>
		<rect fill="none" stroke="black" stroke-width="1" stroke-linecap="square" stroke-miterlimit="4" transform="translate(0.5 0.5)" x="217" y="2340" width="123" height="20"/>
		<rect x="335" y="2345" width="11" height="11"/>
		<rect fill="white" x="336" y="2346" width="9" height="9"/>
		<rect x="337" y="2350" width="7" height="1"/>
		<rect x="340" y="2347" width="1" height="7"/>
		<path fill="silver" d="M221 2472L226 2467L294 2467L299 2472L299 2483L294 2488L226 2488L221 2483L221 2472Z"/>
		<path fill="white" d="M217 2468L222 2463L290 2463L295 2468L295 2479L290 2484L222 2484L217 2479L217 2468Z"/>
		<rect fill="white" x="222" y="2490" width="120" height="36"/>
		<text fill="gray" font-size="9" font-family="Segoe UI" x="222, 226.55273, 230.68359, 233.7334, 238.43994, 243.5332, 247.35205, 249.53174, 254.80518, 259.89844, 262.36377, 267.65479, 272.92822, 275.10791, 280.20117, 283.25098, 285.71631, 288.5332, 293.80664, 296.93555, 299.40088, 304.69189, 307.8208, 313.09424, 317.40527, 319.58496, 324.88477, 329.59131, 332.72021, " y="2500, ">
				Extension point for provider-
		</text>
		<text fill="gray" font-size="9" font-family="Segoe UI" x="222, 227.2998, 232.00635, 234.82324, 237.00293, 242.09619, 246.80273, 252.10254, 254.56787, 259.85889, 262.98779, 268.26123, 273.55225, 278.25879, 281.3877, 284.4375, 286.61719, 291.32373, 295.14258, 297.60791, 300.4248, 303.55371, 308.82715, 316.5791, 319.04443, 324.31787, 327.36768, 332.46094, 337.16748, " y="2512, ">
				defined properties from other
		</text>
		<text fill="gray" font-size="9" font-family="Segoe UI" x="222, 227.09326, 231.67236, 239.42432, 244.13086, 247.94971, 253.24072, 257.81982, 261.97705, 266.68359, " y="2524, ">
				namespaces
		</text>
		<rect fill="white" x="244" y="2465" width="46" height="16"/>
		<text font-size="12" font-weight="600" font-family="Segoe UI" x="244, 251.10742, 258.21484, 265.55078, 270.2207, 277.44531, 283.9375, " y="2478, ">
				##other
		</text>
		<rect fill="white" x="222" y="2465" width="20" height="16"/>
		<text fill="gray" font-size="12" font-family="Segoe UI" x="222, 228.10547, 234.89648, " y="2478, ">
				any
		</text>
		<path fill="none" stroke="black" stroke-width="1" stroke-linecap="square" stroke-miterlimit="4" transform="translate(0.5 0.5)" d="M217 2468L222 2463L289 2463L294 2468L294 2478L289 2483L222 2483L217 2478L217 2468Z"/>
		<rect x="182" y="2199" width="11" height="11"/>
		<rect fill="white" x="183" y="2200" width="9" height="9"/>
		<rect x="184" y="2204" width="7" height="1"/>
		<rect x="51" y="1575" width="11" height="11"/>
		<rect fill="white" x="52" y="1576" width="9" height="9"/>
		<rect x="53" y="1580" width="7" height="1"/>
	</g>
</svg>
