<?xml version="1.0" encoding="utf-8" ?>
<svg xmlns="http://www.w3.org/2000/svg" xmlns:xlink="http://www.w3.org/1999/xlink" width="305" height="1250">
	<clipPath id="cl_64d">
		<rect x="-10" y="-5" width="305" height="1250"/>
	</clipPath>
	<g clip-path="url(#cl_64d)">
		<path fill="none" stroke="black" stroke-width="1" stroke-linecap="square" stroke-miterlimit="4" transform="translate(0.5 0.5)" d="M57 620L70 620"/>
		<rect fill="silver" x="4" y="614" width="52" height="21"/>
		<rect fill="white" y="610" width="52" height="21"/>
		<rect fill="white" x="5" y="637" width="49" height="12"/>
		<text fill="gray" font-size="9" font-family="Segoe UI" x="5, 10.805176, 13.270508, 15.450195, 17.629883, 22.723145, 27.429688, 29.89502, 35.186035, 38.314941, 43.021484, 47.600586, " y="647, ">
				A line break
		</text>
		<rect fill="white" x="9" y="612" width="31" height="16"/>
		<text font-size="12" font-weight="600" font-family="Segoe UI" x="9, 16.441406, " y="625, ">
				br
		</text>
		<rect fill="none" stroke="black" stroke-width="1" stroke-linecap="square" stroke-miterlimit="4" transform="translate(0.5 0.5)" y="610" width="51" height="20"/>
		<path fill="white" d="M148 19L148 0L71 0L71 19L71 1239L284 1239L284 19L148 19Z"/>
		<rect fill="white" x="91" y="2" width="51" height="16"/>
		<text font-size="12" font-style="italic" font-family="Segoe UI" x="91, 97.503906, 101.38281, 105.26172, 109.5332, 112.63867, 119.14258, 125.83984, 129.73047, 135.57227, " y="15, ">
				attributes
		</text>
		<path fill="none" stroke="black" stroke-width="1" stroke-linecap="square" stroke-miterlimit="4" transform="translate(0.5 0.5)" d="M148 19L148 0L71 0L71 19L71 1239L284 1239L284 19L148 19Z"/>
		<path fill="white" d="M276 47L276 28L85 28L85 47L85 1150L276 1150L276 47Z"/>
		<rect fill="white" x="90" y="1153" width="179" height="48"/>
		<text fill="gray" font-size="9" font-family="Segoe UI" x="90, 95.805176, 98.270508, 103.57031, 106.69922, 111.97266, 117.06592, 122.35693, 124.82227, 130.0957, 132.9126, 135.37793, 139.95703, 143.00684, 146.05664, 149.18555, 151.36523, 156.65625, 161.74951, 164.79932, 169.50586, 173.32471, 175.79004, 178.60693, 183.88037, 187.00928, 189.47461, 194.05371, 196.2334, 198.41309, 200.87842, 205.58496, 207.76465, 212.47119, 220.22314, 224.92969, 230.02295, 233.07275, 236.8916, 239.35693, 244.63037, 247.44727, 249.9126, 254.4917, 256.95703, 263.13135, " y="1163, ">
				A group of attributes for all elements of a G2
		</text>
		<text fill="gray" font-size="9" font-family="Segoe UI" x="90, 92.39502, 95.444824, 100.15137, 107.90332, 110.36865, 115.0752, 119.20605, 123.36328, 128.06982, 133.36084, 136.41064, 138.87598, 141.05566, 144.10547, 147.92432, 150.38965, 153.51855, 158.79199, 164.06543, 167.11523, 169.58057, 174.28711, 176.4668, 181.17334, 188.92529, 193.63184, 198.7251, 201.7749, 203.72607, 206.19141, 209.24121, 214.33447, 219.04102, 221.50635, 223.68604, 226.73584, 231.44238, 239.19434, 247.27588, 251.98242, 255.03223, " y="1175, ">
				Item except its root element, the itemMeta
		</text>
		<text fill="gray" font-size="9" font-family="Segoe UI" x="90, 94.706543, 96.88623, 101.59277, 109.34473, 114.05127, 119.14453, 122.19434, 124.65967, 129.23877, 134.33203, 139.63184, 142.09717, 146.67627, 148.85596, 151.03564, 153.50098, 158.77441, 161.59131, 164.05664, 166.23633, 169.28613, 173.10498, 175.57031, 179.72754, 184.8208, 187.00049, 189.18018, 194.47998, 197.60889, 202.31543, 207.40869, 209.87402, 216.37793, 221.47119, 223.65088, 227.80811, 232.90137, 235.3667, 239.9458, 243.07471, " y="1187, ">
				element and all of its children which are
		</text>
		<text fill="gray" font-size="9" font-family="Segoe UI" x="90, 97.751953, 102.33105, 107.42432, 112.72412, 117.30322, 120.35303, 125.62646, 128.75537, 133.11035, " y="1199, ">
				mandatory.
		</text>
		<rect fill="white" x="127" y="30" width="143" height="16"/>
		<text font-size="12" font-weight="600" font-family="Segoe UI" x="127, 132.75977, 140.0957, 151.08789, 162.08008, 169.41602, 176.67578, 183.68945, 191.02539, 200.53516, 207.02734, 211.80273, 220, 224.66992, 229.33984, 234.16211, 237.57227, 245.01367, 252.27344, 256.89648, 263.38867, " y="43, ">
				commonPowerAttributes
		</text>
		<rect fill="white" x="105" y="30" width="20" height="16"/>
		<text fill="gray" font-size="12" font-family="Segoe UI" x="105, 112.06641, 116.23828, " y="43, ">
				grp
		</text>
		<path fill="none" stroke="gray" stroke-width="1" stroke-linecap="square" stroke-miterlimit="4" transform="translate(0.5 0.5)" d="M85 47L85 1150L276 1150L276 47L276 47"/>
		<path fill="none" stroke="black" stroke-width="1" stroke-linecap="square" stroke-miterlimit="4" transform="translate(0.5 0.5)" d="M276 47L276 28L85 28L85 47"/>
		<rect x="90" y="33" width="11" height="11"/>
		<rect fill="white" x="91" y="34" width="9" height="9"/>
		<rect x="92" y="38" width="7" height="1"/>
		<rect fill="silver" x="97" y="61" width="52" height="21"/>
		<rect fill="white" x="93" y="57" width="52" height="21"/>
		<rect fill="white" x="98" y="84" width="101" height="24"/>
		<text fill="gray" font-size="9" font-family="Segoe UI" x="98, 102.71533, 107.80859, 112.51514, 114.98047, 117.16016, 122.43359, 126.59082, 131.16992, 133.34961, 135.81494, 137.99463, 143.29443, 148.00098, 153.09424, 156.14404, 158.32373, 161.14062, 163.32031, 168.02686, 171.15576, 173.62109, 178.89453, 181.71143, 184.17676, 187.22656, 192.31982, " y="94, ">
				The local identifier of the
		</text>
		<text fill="gray" font-size="9" font-family="Segoe UI" x="98, 103.29102, 106.41992, 111.69336, 116.98438, 121.69092, 124.81982, 127.86963, 132.22461, " y="106, ">
				property.
		</text>
		<rect fill="white" x="102" y="59" width="36" height="16"/>
		<text font-size="12" font-weight="600" font-family="Segoe UI" x="102, 105.41016, " y="72, ">
				id
		</text>
		<rect fill="none" stroke="black" stroke-width="1" stroke-linecap="square" stroke-miterlimit="4" transform="translate(0.5 0.5)" x="93" y="57" width="51" height="20"/>
		<rect fill="silver" x="97" y="119" width="58" height="21"/>
		<rect fill="white" x="93" y="115" width="58" height="21"/>
		<rect fill="white" x="98" y="142" width="121" height="120"/>
		<text fill="gray" font-size="9" font-family="Segoe UI" x="98, 100.39502, 103.21191, 105.67725, 108.72705, 113.82031, 118.52686, 120.99219, 126.2832, 129.41211, 134.68555, 139.97656, 144.68311, 147.81201, 150.86182, 155.2168, 157.68213, 161.99316, 166.57227, 168.75195, 173.84521, 178.55176, 181.01709, 183.19678, 187.01562, 189.48096, 194.57422, 199.84766, " y="152, ">
				If the property value is not
		</text>
		<text fill="gray" font-size="9" font-family="Segoe UI" x="98, 103.2998, 108.00635, 110.82324, 113.00293, 118.09619, 122.80273, 128.10254, 130.05371, 132.51904, 136.33789, 141.62891, 146.33545, 150.49268, 152.67236, 155.48926, 157.66895, 162.37549, 166.19434, 168.65967, 175.16357, 180.25684, 182.43652, 186.59375, 191.68701, 194.15234, 198.85889, 203.95215, 207.00195, 209.18164, 212.23145, " y="164, ">
				defined, specifies which entity
		</text>
		<text fill="gray" font-size="9" font-family="Segoe UI" x="98, 100.71582, 106.00684, 110.71338, 113.84229, 117.66113, 122.93457, 128.02783, 129.979, 132.44434, 137.71777, 140.84668, 146.14648, 150.72559, 155.81885, 157.99854, 161.81738, 166.39648, 169.44629, 171.62598, 176.89941, 181.99268, 184.45801, 189.73145, " y="176, ">
				(person, organisation or
		</text>
		<text fill="gray" font-size="9" font-family="Segoe UI" x="98, 101.81885, 106.17383, 109.99268, 113.04248, 117.74902, 125.50098, 128.2168, 130.68213, 137.18604, 139.36572, 141.54541, 143.7251, 146.19043, 150.89697, 156.19678, 158.37646, 161.42627, 163.8916, 166.94141, 172.03467, 176.74121, 179.20654, 184.49756, 187.62646, 192.8999, 198.19092, 202.89746, 206.02637, 209.07617, " y="188, ">
				system) will edit the property
		</text>
		<text fill="gray" font-size="9" font-family="Segoe UI" x="98, 102.31104, 106.89014, 109.06982, 114.16309, 118.86963, 121.33496, 124.93408, 127.39941, 132.10596, 136.23682, 141.52783, 144.65674, 149.36328, 153.18213, 157.00098, 161.70752, 167.00732, 169.47266, 174.76367, 179.11865, 181.58398, 186.16309, 188.62842, 195.41357, 200.98584, 206.25928, 211.55908, 216.26562, " y="200, ">
				value - expressed by a QCode.
		</text>
		<text fill="gray" font-size="9" font-family="Segoe UI" x="98, 100.39502, 103.21191, 105.67725, 108.72705, 113.82031, 118.52686, 120.99219, 126.2832, 129.41211, 134.68555, 139.97656, 144.68311, 147.81201, 150.86182, 155.2168, 157.68213, 161.99316, 166.57227, 168.75195, 173.84521, 178.55176, 181.01709, 183.19678, " y="212, ">
				If the property value is
		</text>
		<text fill="gray" font-size="9" font-family="Segoe UI" x="98, 103.2998, 108.00635, 110.82324, 113.00293, 118.09619, 122.80273, 128.10254, 130.05371, 132.51904, 136.33789, 141.62891, 146.33545, 150.49268, 152.67236, 155.48926, 157.66895, 162.37549, 166.19434, 168.65967, 175.16357, 180.25684, 182.43652, 186.59375, 191.68701, 194.15234, 198.85889, 203.95215, 207.00195, 209.18164, 212.23145, " y="224, ">
				defined, specifies which entity
		</text>
		<text fill="gray" font-size="9" font-family="Segoe UI" x="98, 100.71582, 106.00684, 110.71338, 113.84229, 117.66113, 122.93457, 128.02783, 129.979, 132.44434, 137.71777, 140.84668, 146.14648, 150.72559, 155.81885, 157.99854, 161.81738, 166.39648, 169.44629, 171.62598, 176.89941, 181.99268, 184.45801, 189.73145, " y="236, ">
				(person, organisation or
		</text>
		<text fill="gray" font-size="9" font-family="Segoe UI" x="98, 101.81885, 106.17383, 109.99268, 113.04248, 117.74902, 125.50098, 128.2168, 130.68213, 135.77539, 140.35449, 144.17334, 146.63867, 151.34521, 156.64502, 158.82471, 161.87451, 166.58105, 171.88086, 174.34619, 177.396, 182.48926, " y="248, ">
				system) has edited the
		</text>
		<text fill="gray" font-size="9" font-family="Segoe UI" x="98, 103.29102, 106.41992, 111.69336, 116.98438, 121.69092, 124.81982, 127.86963, 132.22461, 134.68994, 139.00098, 143.58008, 145.75977, 150.85303, 155.55957, " y="260, ">
				property value.
		</text>
		<rect fill="white" x="102" y="117" width="42" height="16"/>
		<text font-size="12" font-weight="600" font-family="Segoe UI" x="102, 107.75977, 112.48828, 118.98047, 125.4375, 130.06055, 137.39648, " y="130, ">
				creator
		</text>
		<rect fill="none" stroke="black" stroke-width="1" stroke-linecap="square" stroke-miterlimit="4" transform="translate(0.5 0.5)" x="93" y="115" width="57" height="20"/>
		<rect fill="silver" x="97" y="273" width="73" height="21"/>
		<rect fill="white" x="93" y="269" width="73" height="21"/>
		<rect fill="white" x="98" y="296" width="120" height="108"/>
		<text fill="gray" font-size="9" font-family="Segoe UI" x="98, 100.39502, 103.21191, 105.67725, 108.72705, 113.82031, 118.52686, 120.99219, 126.2832, 129.41211, 134.68555, 139.97656, 144.68311, 147.81201, 150.86182, 155.2168, 157.68213, 161.99316, 166.57227, 168.75195, 173.84521, 178.55176, 181.01709, 183.19678, 187.01562, 189.48096, 194.57422, 199.84766, " y="306, ">
				If the property value is not
		</text>
		<text fill="gray" font-size="9" font-family="Segoe UI" x="98, 103.2998, 108.00635, 110.82324, 113.00293, 118.09619, 122.80273, 128.10254, 130.05371, 132.51904, 136.33789, 141.62891, 146.33545, 150.49268, 152.67236, 155.48926, 157.66895, 162.37549, 166.19434, 168.65967, 175.16357, 180.25684, 182.43652, 186.59375, 191.68701, 194.15234, 198.85889, 203.95215, 207.00195, 209.18164, 212.23145, " y="318, ">
				defined, specifies which entity
		</text>
		<text fill="gray" font-size="9" font-family="Segoe UI" x="98, 100.71582, 106.00684, 110.71338, 113.84229, 117.66113, 122.93457, 128.02783, 129.979, 132.44434, 137.71777, 140.84668, 146.14648, 150.72559, 155.81885, 157.99854, 161.81738, 166.39648, 169.44629, 171.62598, 176.89941, 181.99268, 184.45801, 189.73145, " y="330, ">
				(person, organisation or
		</text>
		<text fill="gray" font-size="9" font-family="Segoe UI" x="98, 101.81885, 106.17383, 109.99268, 113.04248, 117.74902, 125.50098, 128.2168, 130.68213, 137.18604, 139.36572, 141.54541, 143.7251, 146.19043, 150.89697, 156.19678, 158.37646, 161.42627, 163.8916, 166.94141, 172.03467, 176.74121, 179.20654, 184.49756, 187.62646, 192.8999, 198.19092, 202.89746, 206.02637, 209.07617, " y="342, ">
				system) will edit the property
		</text>
		<text fill="gray" font-size="9" font-family="Segoe UI" x="98, 101.59912, 104.06445, 108.771, 112.90186, 118.19287, 121.32178, 126.02832, 129.84717, 133.66602, 138.37256, 143.67236, 146.1377, 151.42871, 155.78369, 158.24902, 162.82812, 165.29346, 171.47656, 176.85986, 179.25488, 181.20605, 183.67139, 186.06641, 188.8833, 191.34863, 194.39844, 199.4917, " y="354, ">
				- expressed by a URI. If the
		</text>
		<text fill="gray" font-size="9" font-family="Segoe UI" x="98, 103.29102, 106.41992, 111.69336, 116.98438, 121.69092, 124.81982, 127.86963, 132.22461, 134.68994, 139.00098, 143.58008, 145.75977, 150.85303, 155.55957, 158.0249, 160.20459, 164.02344, 166.48877, 171.78857, 176.49512, 179.31201, 181.4917, 186.58496, 191.2915, 196.59131, " y="366, ">
				property value is defined,
		</text>
		<text fill="gray" font-size="9" font-family="Segoe UI" x="98, 101.81885, 107.10986, 111.81641, 115.97363, 118.15332, 120.97021, 123.1499, 127.85645, 131.67529, 134.14062, 140.64453, 145.73779, 147.91748, 152.07471, 157.16797, 159.6333, 164.33984, 169.43311, 172.48291, 174.6626, 177.7124, 182.06738, 184.53271, 187.24854, 192.53955, 197.24609, 200.375, 204.19385, 209.46729, 214.56055, " y="378, ">
				specifies which entity (person,
		</text>
		<text fill="gray" font-size="9" font-family="Segoe UI" x="98, 103.27344, 106.40234, 111.70215, 116.28125, 121.37451, 123.5542, 127.37305, 131.95215, 135.00195, 137.18164, 142.45508, 147.54834, 150.01367, 155.28711, 158.41602, 160.88135, 164.7002, 169.05518, 172.87402, 175.92383, 180.63037, 188.38232, 191.09814, 193.56348, 198.65674, 203.23584, " y="390, ">
				organisation or system) has
		</text>
		<text fill="gray" font-size="9" font-family="Segoe UI" x="98, 102.70654, 108.00635, 110.18604, 113.23584, 117.94238, 123.24219, 125.70752, 128.75732, 133.85059, 138.55713, 141.02246, 146.31348, 149.44238, 154.71582, 160.00684, 164.71338, 167.84229, 170.89209, 175.24707, " y="402, ">
				edited the property.
		</text>
		<rect fill="white" x="102" y="271" width="57" height="16"/>
		<text font-size="12" font-weight="600" font-family="Segoe UI" x="102, 107.75977, 112.48828, 118.98047, 125.4375, 130.06055, 137.39648, 142.20703, 149.4668, 154.28906, " y="284, ">
				creatoruri
		</text>
		<rect fill="none" stroke="black" stroke-width="1" stroke-linecap="square" stroke-miterlimit="4" transform="translate(0.5 0.5)" x="93" y="269" width="72" height="20"/>
		<rect fill="silver" x="97" y="415" width="69" height="21"/>
		<rect fill="white" x="93" y="411" width="69" height="21"/>
		<rect fill="white" x="98" y="438" width="119" height="72"/>
		<text fill="gray" font-size="9" font-family="Segoe UI" x="98, 102.71533, 107.80859, 112.51514, 114.98047, 120.28027, 124.85938, 127.90918, 132.61572, 135.08105, 137.79688, 142.37598, 147.46924, 152.76904, 154.72021, 157.18555, 162.45898, 167.75, 170.7998, 172.97949, 178.25293, 183.34619, 187.92529, 190.10498, 192.28467, 196.63965, 198.59082, 201.05615, 204.10596, 209.19922, " y="448, ">
				The date (and, optionally, the
		</text>
		<text fill="gray" font-size="9" font-family="Segoe UI" x="98, 101.0498, 103.22949, 110.98145, 115.68799, 118.40381, 120.86914, 127.37305, 132.46631, 137.17285, 142.26611, 144.73145, 147.78125, 152.87451, 157.58105, 160.04639, 165.3374, 168.46631, 173.73975, 179.03076, 183.7373, 186.86621, 189.91602, 194.271, 196.73633, 203.24023, 207.81934, " y="460, ">
				time) when the property was
		</text>
		<text fill="gray" font-size="9" font-family="Segoe UI" x="98, 100.17969, 104.75879, 108.57764, 111.62744, 114.09277, 121.84473, 127.11816, 132.41797, 134.59766, 137.41455, 139.59424, 144.30078, 149.60059, 151.55176, 154.01709, 158.73242, 163.82568, 168.53223, 170.99756, 173.17725, 178.27051, 180.4502, 183.5, 185.67969, 190.25879, 192.43848, 194.90381, 199.21484, 203.79395, 205.97363, 211.06689, " y="472, ">
				last modified. The initial value
		</text>
		<text fill="gray" font-size="9" font-family="Segoe UI" x="98, 100.17969, 103.99854, 106.46387, 109.51367, 114.60693, 119.31348, 121.77881, 127.07861, 131.65771, 134.70752, 139.41406, 141.87939, 144.59521, 149.17432, 154.26758, 159.56738, 161.51855, 163.98389, 169.25732, 174.54834, 177.59814, 179.77783, 185.05127, 190.14453, 194.72363, 196.90332, 199.08301, 203.43799, " y="484, ">
				is the date (and, optionally,
		</text>
		<text fill="gray" font-size="9" font-family="Segoe UI" x="98, 101.0498, 106.14307, 110.84961, 113.31494, 116.36475, 118.54443, 126.29639, 131.00293, 133.71875, 136.18408, 141.45752, 144.27441, 146.73975, 150.89697, 154.02588, 158.73242, 163.31152, 166.36133, 168.54102, 173.81445, 178.90771, 181.37305, 186.64648, 189.46338, 191.92871, 194.97852, 200.07178, " y="496, ">
				the time) of creation of the
		</text>
		<text fill="gray" font-size="9" font-family="Segoe UI" x="98, 103.29102, 106.41992, 111.69336, 116.98438, 121.69092, 124.81982, 127.86963, 132.22461, " y="508, ">
				property.
		</text>
		<rect fill="white" x="102" y="413" width="53" height="16"/>
		<text font-size="12" font-weight="600" font-family="Segoe UI" x="102, 112.99219, 120.32812, 127.75781, 131.16797, 135.76758, 139.17773, 145.66992, " y="426, ">
				modified
		</text>
		<rect fill="none" stroke="black" stroke-width="1" stroke-linecap="square" stroke-miterlimit="4" transform="translate(0.5 0.5)" x="93" y="411" width="68" height="20"/>
		<rect fill="silver" x="97" y="521" width="59" height="21"/>
		<rect fill="white" x="93" y="517" width="59" height="21"/>
		<rect fill="white" x="98" y="544" width="118" height="108"/>
		<text fill="gray" font-size="9" font-family="Segoe UI" x="98, 100.39502, 103.21191, 105.67725, 109.49609, 114.20264, 117.25244, 119.71777, 122.76758, 128.04102, 130.50635, 133.55615, 136.68506, 141.77832, 146.48486, 148.9502, 152, 157.09326, " y="554, ">
				If set to true the
		</text>
		<text fill="gray" font-size="9" font-family="Segoe UI" x="98, 102.15723, 107.43066, 110.55957, 113.68848, 118.39502, 122.21387, 127.50488, 132.77832, 137.87158, 143.17139, 145.35107, 150.44434, 155.74414, 158.20947, 163.50049, 166.62939, 171.90283, 177.19385, 181.90039, 185.0293, 188.0791, 192.43408, 194.89941, 201.40332, 205.98242, " y="566, ">
				corresponding property was
		</text>
		<text fill="gray" font-size="9" font-family="Segoe UI" x="98, 102.5791, 107.87891, 113.17871, 117.88525, 123.18506, 125.65039, 128.7002, 133.97363, 136.43896, 139.48877, 144.58203, 149.28857, 151.75391, 157.92822, 162.77979, 165.24512, 167.64014, 170.68994, 175.39648, 183.14844, 185.61377, 188.43066, 193.7041, 196.83301, 199.29834, " y="578, ">
				added to the G2 Item for a
		</text>
		<text fill="gray" font-size="9" font-family="Segoe UI" x="98, 101.81885, 107.10986, 111.81641, 115.97363, 118.15332, 120.97021, 123.1499, 127.30713, 129.77246, 133.92969, 139.02295, 142.8418, 145.8916, 151.16504, 158.91699, 163.62354, 166.75244, 169.21777, 174.49121, 177.62012, 180.08545, 185.38525, 188.51416, 193.7876, 198.88086, 204.17188, 206.63721, 211.91064, " y="590, ">
				specific customer or group of
		</text>
		<text fill="gray" font-size="9" font-family="Segoe UI" x="98, 102.15723, 107.25049, 111.06934, 114.11914, 119.39258, 127.14453, 131.85107, 134.97998, 138.79883, 141.26416, 146.5376, 151.63086, 153.81055, 158.16553, 160.1167, 162.58203, 167.29736, 172.39062, 177.09717, 179.5625, 184.8623, 189.56885, 192.38574, 196.96484, 202.05811, 204.23779, " y="602, ">
				customers only. The default
		</text>
		<text fill="gray" font-size="9" font-family="Segoe UI" x="98, 102.31104, 106.89014, 109.06982, 114.16309, 118.86963, 121.33496, 126.6084, 129.42529, 131.89062, 134.94043, 140.03369, 142.21338, 146.03223, 148.49756, 153.78857, 156.91748, 162.19092, 167.48193, 172.18848, 175.31738, 178.36719, 182.72217, 185.1875, 187.36719, 191.18604, 193.65137, 196.46826, 201.04736, 203.22705, 207.0459, " y="614, ">
				value of this property is false
		</text>
		<text fill="gray" font-size="9" font-family="Segoe UI" x="98, 104.50391, 109.59717, 111.77686, 115.93408, 121.02734, 123.49268, 128.07178, 133.36279, 138.65381, 140.8335, 143.01318, 147.71973, 151.53857, 154.00391, 160.50781, 165.60107, 170.30762, 175.40088, 177.86621, 180.91602, 186.00928, 188.18896, " y="626, ">
				which applies when this
		</text>
		<text fill="gray" font-size="9" font-family="Segoe UI" x="98, 102.5791, 105.62891, 108.67871, 111.80762, 113.9873, 119.27832, 124.37158, 127.42139, 132.12793, 134.59326, 136.77295, 140.5918, 143.05713, 148.15039, 153.42383, 156.47363, 158.93896, 164.03223, 167.85107, 172.55762, 177.85742, 180.32275, 186.82666, 189.00635, 192.05615, 197.14941, 199.61475, 202.66455, 207.75781, " y="638, ">
				attribute is not used with the
		</text>
		<text fill="gray" font-size="9" font-family="Segoe UI" x="98, 103.29102, 106.41992, 111.69336, 116.98438, 121.69092, 124.81982, 127.86963, 132.22461, " y="650, ">
				property.
		</text>
		<rect fill="white" x="102" y="519" width="43" height="16"/>
		<text font-size="12" font-weight="600" font-family="Segoe UI" x="102, 107.75977, 115.01953, 120.29883, 124.92188, 132.25781, " y="532, ">
				custom
		</text>
		<rect fill="none" stroke="black" stroke-width="1" stroke-linecap="square" stroke-miterlimit="4" transform="translate(0.5 0.5)" x="93" y="517" width="58" height="20"/>
		<rect fill="silver" x="97" y="663" width="52" height="21"/>
		<rect fill="white" x="93" y="659" width="52" height="21"/>
		<rect fill="white" x="98" y="686" width="118" height="48"/>
		<text fill="gray" font-size="9" font-family="Segoe UI" x="98, 100.39502, 105.48828, 110.78809, 112.96777, 117.125, 121.7041, 124.75391, 129.46045, 133.2793, 135.74463, 141.03564, 145.39062, 147.85596, 154.35986, 159.45312, 161.63281, 165.79004, 170.8833, 173.34863, 181.10059, 185.80713, 190.38623, 195.47949, 199.29834, 201.76367, 204.81348, 209.90674, " y="696, ">
				Indicates by which means the
		</text>
		<text fill="gray" font-size="9" font-family="Segoe UI" x="98, 102.31104, 106.89014, 109.06982, 114.16309, 118.86963, 121.33496, 127.83887, 132.41797, 136.23682, 138.70215, 143.40869, 147.53955, 150.58936, 153.71826, 158.29736, 162.45459, 165.50439, 170.21094, 175.51074, 177.97607, 180.79297, 183.92188, 189.19531, 196.94727, 199.4126, 202.4624, 207.55566, " y="708, ">
				value was extracted from the
		</text>
		<text fill="gray" font-size="9" font-family="Segoe UI" x="98, 102.15723, 107.43066, 112.52393, 115.57373, 120.28027, 125.37354, 128.42334, 130.88867, 134.48779, 136.95312, 141.65967, 145.79053, 151.08154, 154.21045, 158.91699, 162.73584, 166.55469, 171.26123, 176.56104, 179.02637, 184.31738, 188.67236, 191.1377, " y="720, ">
				content - expressed by a
		</text>
		<text fill="gray" font-size="9" font-family="Segoe UI" x="98, 104.78516, 110.35742, 115.63086, 120.93066, " y="732, ">
				QCode
		</text>
		<rect fill="white" x="102" y="661" width="36" height="16"/>
		<text font-size="12" font-weight="600" font-family="Segoe UI" x="102, 109.22461, 116.56055, " y="674, ">
				how
		</text>
		<rect fill="none" stroke="black" stroke-width="1" stroke-linecap="square" stroke-miterlimit="4" transform="translate(0.5 0.5)" x="93" y="659" width="51" height="20"/>
		<rect fill="silver" x="97" y="745" width="57" height="21"/>
		<rect fill="white" x="93" y="741" width="57" height="21"/>
		<rect fill="white" x="98" y="768" width="118" height="36"/>
		<text fill="gray" font-size="9" font-family="Segoe UI" x="98, 100.39502, 105.48828, 110.78809, 112.96777, 117.125, 121.7041, 124.75391, 129.46045, 133.2793, 135.74463, 141.03564, 145.39062, 147.85596, 154.35986, 159.45312, 161.63281, 165.79004, 170.8833, 173.34863, 181.10059, 185.80713, 190.38623, 195.47949, 199.29834, 201.76367, 204.81348, 209.90674, " y="778, ">
				Indicates by which means the
		</text>
		<text fill="gray" font-size="9" font-family="Segoe UI" x="98, 102.31104, 106.89014, 109.06982, 114.16309, 118.86963, 121.33496, 127.83887, 132.41797, 136.23682, 138.70215, 143.40869, 147.53955, 150.58936, 153.71826, 158.29736, 162.45459, 165.50439, 170.21094, 175.51074, 177.97607, 180.79297, 183.92188, 189.19531, 196.94727, 199.4126, 202.4624, 207.55566, " y="790, ">
				value was extracted from the
		</text>
		<text fill="gray" font-size="9" font-family="Segoe UI" x="98, 102.15723, 107.43066, 112.52393, 115.57373, 120.28027, 125.37354, 128.42334, 130.88867, 134.48779, 136.95312, 141.65967, 145.79053, 151.08154, 154.21045, 158.91699, 162.73584, 166.55469, 171.26123, 176.56104, 179.02637, 184.31738, 188.67236, 191.1377, 195.7168, 198.18213, 204.36523, 209.74854, " y="802, ">
				content - expressed by a URI
		</text>
		<rect fill="white" x="102" y="743" width="41" height="16"/>
		<text font-size="12" font-weight="600" font-family="Segoe UI" x="102, 109.22461, 116.56055, 126.12891, 133.38867, 138.21094, " y="756, ">
				howuri
		</text>
		<rect fill="none" stroke="black" stroke-width="1" stroke-linecap="square" stroke-miterlimit="4" transform="translate(0.5 0.5)" x="93" y="741" width="56" height="20"/>
		<rect fill="silver" x="97" y="815" width="52" height="21"/>
		<rect fill="white" x="93" y="811" width="52" height="21"/>
		<rect fill="white" x="98" y="838" width="113" height="36"/>
		<text fill="gray" font-size="9" font-family="Segoe UI" x="98, 106.40674, 111.5, 115.85498, 118.32031, 121.37012, 126.46338, 131.16992, 133.63525, 141.38721, 146.09375, 149.14355, 153.72266, 159.02246, 163.60156, 166.65137, 171.23047, 173.6958, 178.78906, 183.36816, 187.18701, 189.65234, 194.94336, 199.6499, 204.35645, " y="848, ">
				Why the metadata has been
		</text>
		<text fill="gray" font-size="9" font-family="Segoe UI" x="98, 100.17969, 105.27295, 109.43018, 111.60986, 116.70312, 122.00293, 126.70947, 132.00928, 134.47461, 138.07373, 140.53906, 145.24561, 149.37646, 154.66748, 157.79639, 162.50293, 166.32178, 170.14062, 174.84717, 180.14697, 182.6123, 187.90332, 192.2583, 194.72363, " y="860, ">
				included - expressed by a
		</text>
		<text fill="gray" font-size="9" font-family="Segoe UI" x="98, 104.78516, 110.35742, 115.63086, 120.93066, " y="872, ">
				QCode
		</text>
		<rect fill="white" x="102" y="813" width="36" height="16"/>
		<text font-size="12" font-weight="600" font-family="Segoe UI" x="102, 111.56836, 118.79297, " y="826, ">
				why
		</text>
		<rect fill="none" stroke="black" stroke-width="1" stroke-linecap="square" stroke-miterlimit="4" transform="translate(0.5 0.5)" x="93" y="811" width="51" height="20"/>
		<rect fill="silver" x="97" y="885" width="56" height="21"/>
		<rect fill="white" x="93" y="881" width="56" height="21"/>
		<rect fill="white" x="98" y="908" width="119" height="24"/>
		<text fill="gray" font-size="9" font-family="Segoe UI" x="98, 106.40674, 111.5, 115.85498, 118.32031, 121.37012, 126.46338, 131.16992, 133.63525, 141.38721, 146.09375, 149.14355, 153.72266, 159.02246, 163.60156, 166.65137, 171.23047, 173.6958, 178.78906, 183.36816, 187.18701, 189.65234, 194.94336, 199.6499, 204.35645, " y="918, ">
				Why the metadata has been
		</text>
		<text fill="gray" font-size="9" font-family="Segoe UI" x="98, 100.17969, 105.27295, 109.43018, 111.60986, 116.70312, 122.00293, 126.70947, 132.00928, 134.47461, 138.07373, 140.53906, 145.24561, 149.37646, 154.66748, 157.79639, 162.50293, 166.32178, 170.14062, 174.84717, 180.14697, 182.6123, 187.90332, 192.2583, 194.72363, 199.30273, 201.76807, 207.95117, 213.33447, " y="930, ">
				included - expressed by a URI
		</text>
		<rect fill="white" x="102" y="883" width="40" height="16"/>
		<text font-size="12" font-weight="600" font-family="Segoe UI" x="102, 111.56836, 118.79297, 125.25, 132.50977, 137.33203, " y="896, ">
				whyuri
		</text>
		<rect fill="none" stroke="black" stroke-width="1" stroke-linecap="square" stroke-miterlimit="4" transform="translate(0.5 0.5)" x="93" y="881" width="55" height="20"/>
		<rect fill="silver" x="97" y="943" width="97" height="21"/>
		<rect fill="white" x="93" y="939" width="97" height="21"/>
		<rect fill="white" x="98" y="966" width="117" height="72"/>
		<text fill="gray" font-size="9" font-family="Segoe UI" x="98, 104.78516, 109.87842, 114.58496, 117.05029, 122.32373, 125.45264, 127.91797, 135.66992, 140.24902, 145.34229, 149.69727, 152.1626, 156.31982, 161.59326, 166.68652, 170.50537, 173.55518, 176.68408, 181.26318, 183.44287, 188.53613, 191.58594, 195.40479, 197.87012, 200.91992, 206.01318, 210.59229, " y="976, ">
				One or many constraints that
		</text>
		<text fill="gray" font-size="9" font-family="Segoe UI" x="98, 102.5791, 107.87012, 113.16113, 115.34082, 119.6958, 122.16113, 125.21094, 130.48438, 132.94971, 138.24072, 143.33398, 148.625, 150.80469, 152.98438, 156.80322, 161.89648, 164.07617, 169.16943, 174.46924, 176.93457, 179.98438, 185.07764, 189.78418, 192.24951, 196.56055, 201.13965, 203.31934, 208.4126, " y="988, ">
				apply to publishing the value
		</text>
		<text fill="gray" font-size="9" font-family="Segoe UI" x="98, 103.27344, 106.09033, 108.55566, 111.60547, 116.69873, 121.40527, 123.87061, 129.16162, 132.29053, 137.56396, 142.85498, 147.56152, 150.69043, 153.74023, 158.09521, 160.56055, 164.15967, 166.625, 171.33154, 175.4624, 180.75342, 183.88232, 188.58887, 192.40771, 196.22656, 200.93311, " y="1000, ">
				of the property - expressed
		</text>
		<text fill="gray" font-size="9" font-family="Segoe UI" x="98, 103.29102, 107.646, 110.11133, 114.69043, 117.15576, 123.94092, 129.51318, 134.78662, 140.08643, 144.79297, 146.74414, 149.20947, 153.76221, 158.34131, 162.49854, 167.5918, 170.05713, 174.21436, 179.48779, 184.58105, 188.3999, 191.44971, 194.57861, 199.15771, 201.3374, 206.43066, " y="1012, ">
				by a QCode. Each constraint
		</text>
		<text fill="gray" font-size="9" font-family="Segoe UI" x="98, 102.5791, 107.87012, 113.16113, 115.34082, 117.52051, 122.22705, 126.0459, 128.51123, 131.56104, 136.83447, 139.2998, 143.87891, 146.05859, 148.23828, 150.70361, 156.00342, 160.70996, 164.52881, 168.68604, 173.39258, 178.48584, 183.78564, 188.36475, 193.45801, " y="1024, ">
				applies to all descendant
		</text>
		<text fill="gray" font-size="9" font-family="Segoe UI" x="98, 102.70654, 104.88623, 109.59277, 117.34473, 122.05127, 127.14453, 130.19434, 134.01318, " y="1036, ">
				elements.
		</text>
		<rect fill="white" x="102" y="941" width="81" height="16"/>
		<text font-size="12" font-weight="600" font-family="Segoe UI" x="102, 109.44141, 116.70117, 124.14258, 129.90234, 137.23828, 144.49805, 149.77734, 154.44727, 159.22266, 165.67969, 169.08984, 176.34961, " y="954, ">
				pubconstraint
		</text>
		<rect fill="none" stroke="black" stroke-width="1" stroke-linecap="square" stroke-miterlimit="4" transform="translate(0.5 0.5)" x="93" y="939" width="96" height="20"/>
		<rect fill="silver" x="97" y="1049" width="112" height="21"/>
		<rect fill="white" x="93" y="1045" width="112" height="21"/>
		<rect fill="white" x="98" y="1072" width="117" height="72"/>
		<text fill="gray" font-size="9" font-family="Segoe UI" x="98, 104.78516, 109.87842, 114.58496, 117.05029, 122.32373, 125.45264, 127.91797, 135.66992, 140.24902, 145.34229, 149.69727, 152.1626, 156.31982, 161.59326, 166.68652, 170.50537, 173.55518, 176.68408, 181.26318, 183.44287, 188.53613, 191.58594, 195.40479, 197.87012, 200.91992, 206.01318, 210.59229, " y="1082, ">
				One or many constraints that
		</text>
		<text fill="gray" font-size="9" font-family="Segoe UI" x="98, 102.5791, 107.87012, 113.16113, 115.34082, 119.6958, 122.16113, 125.21094, 130.48438, 132.94971, 138.24072, 143.33398, 148.625, 150.80469, 152.98438, 156.80322, 161.89648, 164.07617, 169.16943, 174.46924, 176.93457, 179.98438, 185.07764, 189.78418, 192.24951, 196.56055, 201.13965, 203.31934, 208.4126, " y="1094, ">
				apply to publishing the value
		</text>
		<text fill="gray" font-size="9" font-family="Segoe UI" x="98, 103.27344, 106.09033, 108.55566, 111.60547, 116.69873, 121.40527, 123.87061, 129.16162, 132.29053, 137.56396, 142.85498, 147.56152, 150.69043, 153.74023, 158.09521, 160.56055, 164.15967, 166.625, 171.33154, 175.4624, 180.75342, 183.88232, 188.58887, 192.40771, 196.22656, 200.93311, " y="1106, ">
				of the property - expressed
		</text>
		<text fill="gray" font-size="9" font-family="Segoe UI" x="98, 103.29102, 107.646, 110.11133, 114.69043, 117.15576, 123.33887, 128.72217, 131.11719, 133.06836, 135.53369, 140.08643, 144.66553, 148.82275, 153.91602, 156.38135, 160.53857, 165.81201, 170.90527, 174.72412, 177.77393, 180.90283, 185.48193, 187.66162, 192.75488, " y="1118, ">
				by a URI. Each constraint
		</text>
		<text fill="gray" font-size="9" font-family="Segoe UI" x="98, 102.5791, 107.87012, 113.16113, 115.34082, 117.52051, 122.22705, 126.0459, 128.51123, 131.56104, 136.83447, 139.2998, 143.87891, 146.05859, 148.23828, 150.70361, 156.00342, 160.70996, 164.52881, 168.68604, 173.39258, 178.48584, 183.78564, 188.36475, 193.45801, " y="1130, ">
				applies to all descendant
		</text>
		<text fill="gray" font-size="9" font-family="Segoe UI" x="98, 102.70654, 104.88623, 109.59277, 117.34473, 122.05127, 127.14453, 130.19434, 134.01318, " y="1142, ">
				elements.
		</text>
		<rect fill="white" x="102" y="1047" width="96" height="16"/>
		<text font-size="12" font-weight="600" font-family="Segoe UI" x="102, 109.44141, 116.70117, 124.14258, 129.90234, 137.23828, 144.49805, 149.77734, 154.44727, 159.22266, 165.67969, 169.08984, 176.34961, 181.01953, 188.2793, 193.10156, " y="1060, ">
				pubconstrainturi
		</text>
		<rect fill="none" stroke="black" stroke-width="1" stroke-linecap="square" stroke-miterlimit="4" transform="translate(0.5 0.5)" x="93" y="1045" width="111" height="20"/>
		<path fill="silver" d="M89 1217L94 1212L162 1212L167 1217L167 1228L162 1233L94 1233L89 1228L89 1217Z"/>
		<path fill="white" d="M85 1213L90 1208L158 1208L163 1213L163 1224L158 1229L90 1229L85 1224L85 1213Z"/>
		<rect fill="white" x="112" y="1210" width="46" height="16"/>
		<text font-size="12" font-weight="600" font-family="Segoe UI" x="112, 119.10742, 126.21484, 133.55078, 138.2207, 145.44531, 151.9375, " y="1223, ">
				##other
		</text>
		<rect fill="white" x="90" y="1210" width="20" height="16"/>
		<text fill="gray" font-size="12" font-family="Segoe UI" x="90, 96.105469, 102.89648, " y="1223, ">
				any
		</text>
		<path fill="none" stroke="black" stroke-width="1" stroke-linecap="square" stroke-miterlimit="4" transform="translate(0.5 0.5)" d="M85 1213L90 1208L157 1208L162 1213L162 1223L157 1228L90 1228L85 1223L85 1213Z"/>
		<rect x="76" y="5" width="11" height="11"/>
		<rect fill="white" x="77" y="6" width="9" height="9"/>
		<rect x="78" y="10" width="7" height="1"/>
		<rect x="46" y="615" width="11" height="11"/>
		<rect fill="white" x="47" y="616" width="9" height="9"/>
		<rect x="48" y="620" width="7" height="1"/>
	</g>
</svg>
