<?xml version="1.0" encoding="utf-8" ?>
<svg xmlns="http://www.w3.org/2000/svg" xmlns:xlink="http://www.w3.org/1999/xlink" width="386" height="2000">
	<clipPath id="cl_6cf">
		<rect x="-10" y="-5" width="386" height="2000"/>
	</clipPath>
	<g clip-path="url(#cl_6cf)">
		<rect fill="#FFFFC0" x="130" width="236" height="1990"/>
		<rect fill="none" stroke="gray" stroke-width="1" stroke-linecap="square" stroke-miterlimit="4" transform="translate(0.5 0.5)" x="130" width="235" height="1989"/>
		<path fill="none" stroke="black" stroke-width="1" stroke-linecap="square" stroke-miterlimit="4" transform="translate(0.5 0.5)" d="M63 1283L142 1283"/>
		<path fill="none" stroke="black" stroke-width="1" stroke-linecap="square" stroke-miterlimit="4" transform="translate(0.5 0.5)" d="M143 1283L143 807"/>
		<path transform="translate(0.5 0.5)" d="M143.5 1283L143.5 1285L143.5 1285.5L142.5 1285.5L142.5 1285L142.5 1282.5L143.5 1282.5L143.5 1283ZM143.5 1289L143.5 1291L143.5 1291.5L142.5 1291.5L142.5 1291L142.5 1288.5L143.5 1288.5L143.5 1289ZM143.5 1295L143.5 1297L143.5 1297.5L142.5 1297.5L142.5 1297L142.5 1294.5L143.5 1294.5L143.5 1295ZM143.5 1301L143.5 1303L143.5 1303.5L142.5 1303.5L142.5 1303L142.5 1300.5L143.5 1300.5L143.5 1301ZM143.5 1307L143.5 1309L143.5 1309.5L142.5 1309.5L142.5 1309L142.5 1306.5L143.5 1306.5L143.5 1307ZM143.5 1313L143.5 1315L143.5 1315.5L142.5 1315.5L142.5 1315L142.5 1312.5L143.5 1312.5L143.5 1313ZM143.5 1319L143.5 1321L143.5 1321.5L142.5 1321.5L142.5 1321L142.5 1318.5L143.5 1318.5L143.5 1319ZM143.5 1325L143.5 1327L143.5 1327.5L142.5 1327.5L142.5 1327L142.5 1324.5L143.5 1324.5L143.5 1325ZM143.5 1331L143.5 1333L143.5 1333.5L142.5 1333.5L142.5 1333L142.5 1330.5L143.5 1330.5L143.5 1331ZM143.5 1337L143.5 1339L143.5 1339.5L142.5 1339.5L142.5 1339L142.5 1336.5L143.5 1336.5L143.5 1337ZM143.5 1343L143.5 1345L143.5 1345.5L142.5 1345.5L142.5 1345L142.5 1342.5L143.5 1342.5L143.5 1343ZM143.5 1349L143.5 1351L143.5 1351.5L142.5 1351.5L142.5 1351L142.5 1348.5L143.5 1348.5L143.5 1349ZM143.5 1355L143.5 1357L143.5 1357.5L142.5 1357.5L142.5 1357L142.5 1354.5L143.5 1354.5L143.5 1355ZM143.5 1361L143.5 1363L143.5 1363.5L142.5 1363.5L142.5 1363L142.5 1360.5L143.5 1360.5L143.5 1361ZM143.5 1367L143.5 1369L143.5 1369.5L142.5 1369.5L142.5 1369L142.5 1366.5L143.5 1366.5L143.5 1367ZM143.5 1373L143.5 1375L143.5 1375.5L142.5 1375.5L142.5 1375L142.5 1372.5L143.5 1372.5L143.5 1373ZM143.5 1379L143.5 1381L143.5 1381.5L142.5 1381.5L142.5 1381L142.5 1378.5L143.5 1378.5L143.5 1379ZM143.5 1385L143.5 1387L143.5 1387.5L142.5 1387.5L142.5 1387L142.5 1384.5L143.5 1384.5L143.5 1385ZM143.5 1391L143.5 1393L143.5 1393.5L142.5 1393.5L142.5 1393L142.5 1390.5L143.5 1390.5L143.5 1391ZM143.5 1397L143.5 1399L143.5 1399.5L142.5 1399.5L142.5 1399L142.5 1396.5L143.5 1396.5L143.5 1397ZM143.5 1403L143.5 1405L143.5 1405.5L142.5 1405.5L142.5 1405L142.5 1402.5L143.5 1402.5L143.5 1403ZM143.5 1409L143.5 1411L143.5 1411.5L142.5 1411.5L142.5 1411L142.5 1408.5L143.5 1408.5L143.5 1409ZM143.5 1415L143.5 1417L143.5 1417.5L142.5 1417.5L142.5 1417L142.5 1414.5L143.5 1414.5L143.5 1415ZM143.5 1421L143.5 1423L143.5 1423.5L142.5 1423.5L142.5 1423L142.5 1420.5L143.5 1420.5L143.5 1421ZM143.5 1427L143.5 1429L143.5 1429.5L142.5 1429.5L142.5 1429L142.5 1426.5L143.5 1426.5L143.5 1427ZM143.5 1433L143.5 1435L143.5 1435.5L142.5 1435.5L142.5 1435L142.5 1432.5L143.5 1432.5L143.5 1433ZM143.5 1439L143.5 1441L143.5 1441.5L142.5 1441.5L142.5 1441L142.5 1438.5L143.5 1438.5L143.5 1439ZM143.5 1445L143.5 1447L143.5 1447.5L142.5 1447.5L142.5 1447L142.5 1444.5L143.5 1444.5L143.5 1445ZM143.5 1451L143.5 1453L143.5 1453.5L142.5 1453.5L142.5 1453L142.5 1450.5L143.5 1450.5L143.5 1451ZM143.5 1457L143.5 1459L143.5 1459.5L142.5 1459.5L142.5 1459L142.5 1456.5L143.5 1456.5L143.5 1457ZM143.5 1463L143.5 1465L143.5 1465.5L142.5 1465.5L142.5 1465L142.5 1462.5L143.5 1462.5L143.5 1463ZM143.5 1469L143.5 1471L143.5 1471.5L142.5 1471.5L142.5 1471L142.5 1468.5L143.5 1468.5L143.5 1469ZM143.5 1475L143.5 1477L143.5 1477.5L142.5 1477.5L142.5 1477L142.5 1474.5L143.5 1474.5L143.5 1475ZM143.5 1481L143.5 1483L143.5 1483.5L142.5 1483.5L142.5 1483L142.5 1480.5L143.5 1480.5L143.5 1481ZM143.5 1487L143.5 1489L143.5 1489.5L142.5 1489.5L142.5 1489L142.5 1486.5L143.5 1486.5L143.5 1487ZM143.5 1493L143.5 1495L143.5 1495.5L142.5 1495.5L142.5 1495L142.5 1492.5L143.5 1492.5L143.5 1493ZM143.5 1499L143.5 1501L143.5 1501.5L142.5 1501.5L142.5 1501L142.5 1498.5L143.5 1498.5L143.5 1499ZM143.5 1505L143.5 1507L143.5 1507.5L142.5 1507.5L142.5 1507L142.5 1504.5L143.5 1504.5L143.5 1505ZM143.5 1511L143.5 1513L143.5 1513.5L142.5 1513.5L142.5 1513L142.5 1510.5L143.5 1510.5L143.5 1511ZM143.5 1517L143.5 1519L143.5 1519.5L142.5 1519.5L142.5 1519L142.5 1516.5L143.5 1516.5L143.5 1517ZM143.5 1523L143.5 1525L143.5 1525.5L142.5 1525.5L142.5 1525L142.5 1522.5L143.5 1522.5L143.5 1523ZM143.5 1529L143.5 1531L143.5 1531.5L142.5 1531.5L142.5 1531L142.5 1528.5L143.5 1528.5L143.5 1529ZM143.5 1535L143.5 1537L143.5 1537.5L142.5 1537.5L142.5 1537L142.5 1534.5L143.5 1534.5L143.5 1535ZM143.5 1541L143.5 1543L143.5 1543.5L142.5 1543.5L142.5 1543L142.5 1540.5L143.5 1540.5L143.5 1541ZM143.5 1547L143.5 1549L143.5 1549.5L142.5 1549.5L142.5 1549L142.5 1546.5L143.5 1546.5L143.5 1547ZM143.5 1553L143.5 1555L143.5 1555.5L142.5 1555.5L142.5 1555L142.5 1552.5L143.5 1552.5L143.5 1553ZM143.5 1559L143.5 1561L143.5 1561.5L142.5 1561.5L142.5 1561L142.5 1558.5L143.5 1558.5L143.5 1559ZM143.5 1565L143.5 1567L143.5 1567.5L142.5 1567.5L142.5 1567L142.5 1564.5L143.5 1564.5L143.5 1565ZM143.5 1571L143.5 1573L143.5 1573.5L142.5 1573.5L142.5 1573L142.5 1570.5L143.5 1570.5L143.5 1571ZM143.5 1577L143.5 1579L143.5 1579.5L142.5 1579.5L142.5 1579L142.5 1576.5L143.5 1576.5L143.5 1577ZM143.5 1583L143.5 1585L143.5 1585.5L142.5 1585.5L142.5 1585L142.5 1582.5L143.5 1582.5L143.5 1583ZM143.5 1589L143.5 1591L143.5 1591.5L142.5 1591.5L142.5 1591L142.5 1588.5L143.5 1588.5L143.5 1589ZM143.5 1595L143.5 1597L143.5 1597.5L142.5 1597.5L142.5 1597L142.5 1594.5L143.5 1594.5L143.5 1595ZM143.5 1601L143.5 1603L143.5 1603.5L142.5 1603.5L142.5 1603L142.5 1600.5L143.5 1600.5L143.5 1601ZM143.5 1607L143.5 1609L143.5 1609.5L142.5 1609.5L142.5 1609L142.5 1606.5L143.5 1606.5L143.5 1607ZM143.5 1613L143.5 1615L143.5 1615.5L142.5 1615.5L142.5 1615L142.5 1612.5L143.5 1612.5L143.5 1613ZM143.5 1619L143.5 1621L143.5 1621.5L142.5 1621.5L142.5 1621L142.5 1618.5L143.5 1618.5L143.5 1619ZM143.5 1625L143.5 1627L143.5 1627.5L142.5 1627.5L142.5 1627L142.5 1624.5L143.5 1624.5L143.5 1625ZM143.5 1631L143.5 1633L143.5 1633.5L142.5 1633.5L142.5 1633L142.5 1630.5L143.5 1630.5L143.5 1631ZM143.5 1637L143.5 1639L143.5 1639.5L142.5 1639.5L142.5 1639L142.5 1636.5L143.5 1636.5L143.5 1637ZM143.5 1643L143.5 1645L143.5 1645.5L142.5 1645.5L142.5 1645L142.5 1642.5L143.5 1642.5L143.5 1643ZM143.5 1649L143.5 1651L143.5 1651.5L142.5 1651.5L142.5 1651L142.5 1648.5L143.5 1648.5L143.5 1649ZM143.5 1655L143.5 1657L143.5 1657.5L142.5 1657.5L142.5 1657L142.5 1654.5L143.5 1654.5L143.5 1655ZM143.5 1661L143.5 1663L143.5 1663.5L142.5 1663.5L142.5 1663L142.5 1660.5L143.5 1660.5L143.5 1661ZM143.5 1667L143.5 1669L143.5 1669.5L142.5 1669.5L142.5 1669L142.5 1666.5L143.5 1666.5L143.5 1667ZM143.5 1673L143.5 1675L143.5 1675.5L142.5 1675.5L142.5 1675L142.5 1672.5L143.5 1672.5L143.5 1673ZM143.5 1679L143.5 1681L143.5 1681.5L142.5 1681.5L142.5 1681L142.5 1678.5L143.5 1678.5L143.5 1679ZM143.5 1685L143.5 1687L143.5 1687.5L142.5 1687.5L142.5 1687L142.5 1684.5L143.5 1684.5L143.5 1685ZM143.5 1691L143.5 1693L143.5 1693.5L142.5 1693.5L142.5 1693L142.5 1690.5L143.5 1690.5L143.5 1691ZM143.5 1697L143.5 1699L143.5 1699.5L142.5 1699.5L142.5 1699L142.5 1696.5L143.5 1696.5L143.5 1697ZM143.5 1703L143.5 1705L143.5 1705.5L142.5 1705.5L142.5 1705L142.5 1702.5L143.5 1702.5L143.5 1703ZM143.5 1709L143.5 1711L143.5 1711.5L142.5 1711.5L142.5 1711L142.5 1708.5L143.5 1708.5L143.5 1709ZM143.5 1715L143.5 1717L143.5 1717.5L142.5 1717.5L142.5 1717L142.5 1714.5L143.5 1714.5L143.5 1715ZM143.5 1721L143.5 1723L143.5 1723.5L142.5 1723.5L142.5 1723L142.5 1720.5L143.5 1720.5L143.5 1721ZM143.5 1727L143.5 1729L143.5 1729.5L142.5 1729.5L142.5 1729L142.5 1726.5L143.5 1726.5L143.5 1727ZM143.5 1733L143.5 1735L143.5 1735.5L142.5 1735.5L142.5 1735L142.5 1732.5L143.5 1732.5L143.5 1733ZM143.5 1739L143.5 1741L143.5 1741.5L142.5 1741.5L142.5 1741L142.5 1738.5L143.5 1738.5L143.5 1739ZM143.5 1745L143.5 1747L143.5 1747.5L142.5 1747.5L142.5 1747L142.5 1744.5L143.5 1744.5L143.5 1745ZM143.5 1751L143.5 1753L143.5 1753.5L142.5 1753.5L142.5 1753L142.5 1750.5L143.5 1750.5L143.5 1751ZM143.5 1757L143.5 1759.5L142.5 1759.5L142.5 1756.5L143.5 1756.5L143.5 1757Z"/>
		<path transform="translate(0.5 0.5)" d="M143 1760.5L145 1760.5L145.5 1760.5L145.5 1761.5L145 1761.5L142.5 1761.5L142.5 1760.5L143 1760.5ZM149 1760.5L151 1760.5L151.5 1760.5L151.5 1761.5L151 1761.5L148.5 1761.5L148.5 1760.5L149 1760.5ZM155 1760.5L157.5 1760.5L157.5 1761.5L154.5 1761.5L154.5 1760.5L155 1760.5Z"/>
		<path fill="none" stroke="black" stroke-width="1" stroke-linecap="square" stroke-miterlimit="4" transform="translate(0.5 0.5)" d="M143 806L157 806"/>
		<rect fill="silver" x="4" y="1277" width="58" height="21"/>
		<rect fill="white" y="1273" width="58" height="21"/>
		<rect fill="#FFFFC0" x="138" y="8" width="59" height="16"/>
		<text fill="gray" font-size="12" font-weight="600" font-family="Segoe UI" x="138, 145.69336, 149.10352, 156.43945, 162.19922, 168.9082, 175.40039, 181.85742, 189.29883, " y="21, ">
				BlockType
		</text>
		<rect fill="white" x="5" y="1300" width="110" height="36"/>
		<text fill="gray" font-size="9" font-family="Segoe UI" x="5, 13.055176, 17.634277, 21.989258, 25.808105, 28.273438, 31.323242, 36.59668, 39.062012, 43.641113, 47.79834, 51.955566, 56.662109, 60.480957, 64.299805, 66.765137, 69.814941, 74.908203, 79.614746, 82.080078, 87.371094, 89.550781, 94.129883, 98.287109, 102.99365, 105.45898, 110.73242, " y="1310, ">
				Ways to access the place of
		</text>
		<text fill="gray" font-size="9" font-family="Segoe UI" x="5, 8.0498047, 13.143066, 17.849609, 20.314941, 25.605957, 30.879395, 33.059082, 38.152344, 41.202148, 43.66748, 48.940918, 51.757812, 56.688477, 58.868164, 63.961426, 67.01123, 71.717773, 74.84668, 79.553223, 83.37207, 86.421875, " y="1322, ">
				the point of interest,
		</text>
		<text fill="gray" font-size="9" font-family="Segoe UI" x="5, 7.1796875, 12.272949, 16.430176, 18.609863, 23.703125, 29.00293, 31.182617, 36.275879, 41.575684, 44.041016, 49.34082, 51.520508, 54.649414, 59.355957, 63.513184, 66.562988, 68.742676, 74.016113, 79.109375, 82.928223, " y="1334, ">
				including directions.
		</text>
		<rect fill="white" x="9" y="1275" width="37" height="16"/>
		<text font-size="12" font-weight="600" font-family="Segoe UI" x="9, 15.457031, 21.216797, 26.976562, 33.46875, 38.748047, " y="1288, ">
				access
		</text>
		<path fill="none" stroke="black" stroke-width="1" stroke-linecap="square" stroke-miterlimit="4" transform="translate(0.5 0.5)" d="M2 1275L7 1275"/>
		<path fill="none" stroke="black" stroke-width="1" stroke-linecap="square" stroke-miterlimit="4" transform="translate(0.5 0.5)" d="M2 1277L6 1277"/>
		<path fill="none" stroke="black" stroke-width="1" stroke-linecap="square" stroke-miterlimit="4" transform="translate(0.5 0.5)" d="M2 1279L6 1279"/>
		<rect fill="none" stroke="black" stroke-width="1" stroke-linecap="square" stroke-miterlimit="4" transform="translate(0.5 0.5)" y="1273" width="57" height="20"/>
		<path fill="white" d="M235 55L235 36L158 36L158 55L158 1575L305 1575L305 55L235 55Z"/>
		<rect fill="white" x="178" y="38" width="51" height="16"/>
		<text font-size="12" font-style="italic" font-family="Segoe UI" x="178, 184.50391, 188.38281, 192.26172, 196.5332, 199.63867, 206.14258, 212.83984, 216.73047, 222.57227, " y="51, ">
				attributes
		</text>
		<path fill="none" stroke="black" stroke-width="1" stroke-linecap="square" stroke-miterlimit="4" transform="translate(0.5 0.5)" d="M235 55L235 36L158 36L158 55L158 1575L305 1575L305 55L235 55Z"/>
		<rect fill="silver" x="176" y="68" width="52" height="21"/>
		<rect fill="white" x="172" y="64" width="52" height="21"/>
		<rect fill="white" x="177" y="91" width="101" height="24"/>
		<text fill="gray" font-size="9" font-family="Segoe UI" x="177, 181.71533, 186.80859, 191.51514, 193.98047, 196.16016, 201.43359, 205.59082, 210.16992, 212.34961, 214.81494, 216.99463, 222.29443, 227.00098, 232.09424, 235.14404, 237.32373, 240.14062, 242.32031, 247.02686, 250.15576, 252.62109, 257.89453, 260.71143, 263.17676, 266.22656, 271.31982, " y="101, ">
				The local identifier of the
		</text>
		<text fill="gray" font-size="9" font-family="Segoe UI" x="177, 182.29102, 185.41992, 190.69336, 195.98438, 200.69092, 203.81982, 206.86963, 211.22461, " y="113, ">
				property.
		</text>
		<rect fill="white" x="181" y="66" width="36" height="16"/>
		<text font-size="12" font-weight="600" font-family="Segoe UI" x="181, 184.41016, " y="79, ">
				id
		</text>
		<rect fill="none" stroke="black" stroke-width="1" stroke-linecap="square" stroke-miterlimit="4" transform="translate(0.5 0.5)" x="172" y="64" width="51" height="20"/>
		<rect fill="silver" x="176" y="126" width="58" height="21"/>
		<rect fill="white" x="172" y="122" width="58" height="21"/>
		<rect fill="white" x="177" y="149" width="121" height="120"/>
		<text fill="gray" font-size="9" font-family="Segoe UI" x="177, 179.39502, 182.21191, 184.67725, 187.72705, 192.82031, 197.52686, 199.99219, 205.2832, 208.41211, 213.68555, 218.97656, 223.68311, 226.81201, 229.86182, 234.2168, 236.68213, 240.99316, 245.57227, 247.75195, 252.84521, 257.55176, 260.01709, 262.19678, 266.01562, 268.48096, 273.57422, 278.84766, " y="159, ">
				If the property value is not
		</text>
		<text fill="gray" font-size="9" font-family="Segoe UI" x="177, 182.2998, 187.00635, 189.82324, 192.00293, 197.09619, 201.80273, 207.10254, 209.05371, 211.51904, 215.33789, 220.62891, 225.33545, 229.49268, 231.67236, 234.48926, 236.66895, 241.37549, 245.19434, 247.65967, 254.16357, 259.25684, 261.43652, 265.59375, 270.68701, 273.15234, 277.85889, 282.95215, 286.00195, 288.18164, 291.23145, " y="171, ">
				defined, specifies which entity
		</text>
		<text fill="gray" font-size="9" font-family="Segoe UI" x="177, 179.71582, 185.00684, 189.71338, 192.84229, 196.66113, 201.93457, 207.02783, 208.979, 211.44434, 216.71777, 219.84668, 225.14648, 229.72559, 234.81885, 236.99854, 240.81738, 245.39648, 248.44629, 250.62598, 255.89941, 260.99268, 263.45801, 268.73145, " y="183, ">
				(person, organisation or
		</text>
		<text fill="gray" font-size="9" font-family="Segoe UI" x="177, 180.81885, 185.17383, 188.99268, 192.04248, 196.74902, 204.50098, 207.2168, 209.68213, 216.18604, 218.36572, 220.54541, 222.7251, 225.19043, 229.89697, 235.19678, 237.37646, 240.42627, 242.8916, 245.94141, 251.03467, 255.74121, 258.20654, 263.49756, 266.62646, 271.8999, 277.19092, 281.89746, 285.02637, 288.07617, " y="195, ">
				system) will edit the property
		</text>
		<text fill="gray" font-size="9" font-family="Segoe UI" x="177, 181.31104, 185.89014, 188.06982, 193.16309, 197.86963, 200.33496, 203.93408, 206.39941, 211.10596, 215.23682, 220.52783, 223.65674, 228.36328, 232.18213, 236.00098, 240.70752, 246.00732, 248.47266, 253.76367, 258.11865, 260.58398, 265.16309, 267.62842, 274.41357, 279.98584, 285.25928, 290.55908, 295.26562, " y="207, ">
				value - expressed by a QCode.
		</text>
		<text fill="gray" font-size="9" font-family="Segoe UI" x="177, 179.39502, 182.21191, 184.67725, 187.72705, 192.82031, 197.52686, 199.99219, 205.2832, 208.41211, 213.68555, 218.97656, 223.68311, 226.81201, 229.86182, 234.2168, 236.68213, 240.99316, 245.57227, 247.75195, 252.84521, 257.55176, 260.01709, 262.19678, " y="219, ">
				If the property value is
		</text>
		<text fill="gray" font-size="9" font-family="Segoe UI" x="177, 182.2998, 187.00635, 189.82324, 192.00293, 197.09619, 201.80273, 207.10254, 209.05371, 211.51904, 215.33789, 220.62891, 225.33545, 229.49268, 231.67236, 234.48926, 236.66895, 241.37549, 245.19434, 247.65967, 254.16357, 259.25684, 261.43652, 265.59375, 270.68701, 273.15234, 277.85889, 282.95215, 286.00195, 288.18164, 291.23145, " y="231, ">
				defined, specifies which entity
		</text>
		<text fill="gray" font-size="9" font-family="Segoe UI" x="177, 179.71582, 185.00684, 189.71338, 192.84229, 196.66113, 201.93457, 207.02783, 208.979, 211.44434, 216.71777, 219.84668, 225.14648, 229.72559, 234.81885, 236.99854, 240.81738, 245.39648, 248.44629, 250.62598, 255.89941, 260.99268, 263.45801, 268.73145, " y="243, ">
				(person, organisation or
		</text>
		<text fill="gray" font-size="9" font-family="Segoe UI" x="177, 180.81885, 185.17383, 188.99268, 192.04248, 196.74902, 204.50098, 207.2168, 209.68213, 214.77539, 219.35449, 223.17334, 225.63867, 230.34521, 235.64502, 237.82471, 240.87451, 245.58105, 250.88086, 253.34619, 256.396, 261.48926, " y="255, ">
				system) has edited the
		</text>
		<text fill="gray" font-size="9" font-family="Segoe UI" x="177, 182.29102, 185.41992, 190.69336, 195.98438, 200.69092, 203.81982, 206.86963, 211.22461, 213.68994, 218.00098, 222.58008, 224.75977, 229.85303, 234.55957, " y="267, ">
				property value.
		</text>
		<rect fill="white" x="181" y="124" width="42" height="16"/>
		<text font-size="12" font-weight="600" font-family="Segoe UI" x="181, 186.75977, 191.48828, 197.98047, 204.4375, 209.06055, 216.39648, " y="137, ">
				creator
		</text>
		<rect fill="none" stroke="black" stroke-width="1" stroke-linecap="square" stroke-miterlimit="4" transform="translate(0.5 0.5)" x="172" y="122" width="57" height="20"/>
		<rect fill="silver" x="176" y="280" width="73" height="21"/>
		<rect fill="white" x="172" y="276" width="73" height="21"/>
		<rect fill="white" x="177" y="303" width="120" height="108"/>
		<text fill="gray" font-size="9" font-family="Segoe UI" x="177, 179.39502, 182.21191, 184.67725, 187.72705, 192.82031, 197.52686, 199.99219, 205.2832, 208.41211, 213.68555, 218.97656, 223.68311, 226.81201, 229.86182, 234.2168, 236.68213, 240.99316, 245.57227, 247.75195, 252.84521, 257.55176, 260.01709, 262.19678, 266.01562, 268.48096, 273.57422, 278.84766, " y="313, ">
				If the property value is not
		</text>
		<text fill="gray" font-size="9" font-family="Segoe UI" x="177, 182.2998, 187.00635, 189.82324, 192.00293, 197.09619, 201.80273, 207.10254, 209.05371, 211.51904, 215.33789, 220.62891, 225.33545, 229.49268, 231.67236, 234.48926, 236.66895, 241.37549, 245.19434, 247.65967, 254.16357, 259.25684, 261.43652, 265.59375, 270.68701, 273.15234, 277.85889, 282.95215, 286.00195, 288.18164, 291.23145, " y="325, ">
				defined, specifies which entity
		</text>
		<text fill="gray" font-size="9" font-family="Segoe UI" x="177, 179.71582, 185.00684, 189.71338, 192.84229, 196.66113, 201.93457, 207.02783, 208.979, 211.44434, 216.71777, 219.84668, 225.14648, 229.72559, 234.81885, 236.99854, 240.81738, 245.39648, 248.44629, 250.62598, 255.89941, 260.99268, 263.45801, 268.73145, " y="337, ">
				(person, organisation or
		</text>
		<text fill="gray" font-size="9" font-family="Segoe UI" x="177, 180.81885, 185.17383, 188.99268, 192.04248, 196.74902, 204.50098, 207.2168, 209.68213, 216.18604, 218.36572, 220.54541, 222.7251, 225.19043, 229.89697, 235.19678, 237.37646, 240.42627, 242.8916, 245.94141, 251.03467, 255.74121, 258.20654, 263.49756, 266.62646, 271.8999, 277.19092, 281.89746, 285.02637, 288.07617, " y="349, ">
				system) will edit the property
		</text>
		<text fill="gray" font-size="9" font-family="Segoe UI" x="177, 180.59912, 183.06445, 187.771, 191.90186, 197.19287, 200.32178, 205.02832, 208.84717, 212.66602, 217.37256, 222.67236, 225.1377, 230.42871, 234.78369, 237.24902, 241.82812, 244.29346, 250.47656, 255.85986, 258.25488, 260.20605, 262.67139, 265.06641, 267.8833, 270.34863, 273.39844, 278.4917, " y="361, ">
				- expressed by a URI. If the
		</text>
		<text fill="gray" font-size="9" font-family="Segoe UI" x="177, 182.29102, 185.41992, 190.69336, 195.98438, 200.69092, 203.81982, 206.86963, 211.22461, 213.68994, 218.00098, 222.58008, 224.75977, 229.85303, 234.55957, 237.0249, 239.20459, 243.02344, 245.48877, 250.78857, 255.49512, 258.31201, 260.4917, 265.58496, 270.2915, 275.59131, " y="373, ">
				property value is defined,
		</text>
		<text fill="gray" font-size="9" font-family="Segoe UI" x="177, 180.81885, 186.10986, 190.81641, 194.97363, 197.15332, 199.97021, 202.1499, 206.85645, 210.67529, 213.14062, 219.64453, 224.73779, 226.91748, 231.07471, 236.16797, 238.6333, 243.33984, 248.43311, 251.48291, 253.6626, 256.7124, 261.06738, 263.53271, 266.24854, 271.53955, 276.24609, 279.375, 283.19385, 288.46729, 293.56055, " y="385, ">
				specifies which entity (person,
		</text>
		<text fill="gray" font-size="9" font-family="Segoe UI" x="177, 182.27344, 185.40234, 190.70215, 195.28125, 200.37451, 202.5542, 206.37305, 210.95215, 214.00195, 216.18164, 221.45508, 226.54834, 229.01367, 234.28711, 237.41602, 239.88135, 243.7002, 248.05518, 251.87402, 254.92383, 259.63037, 267.38232, 270.09814, 272.56348, 277.65674, 282.23584, " y="397, ">
				organisation or system) has
		</text>
		<text fill="gray" font-size="9" font-family="Segoe UI" x="177, 181.70654, 187.00635, 189.18604, 192.23584, 196.94238, 202.24219, 204.70752, 207.75732, 212.85059, 217.55713, 220.02246, 225.31348, 228.44238, 233.71582, 239.00684, 243.71338, 246.84229, 249.89209, 254.24707, " y="409, ">
				edited the property.
		</text>
		<rect fill="white" x="181" y="278" width="57" height="16"/>
		<text font-size="12" font-weight="600" font-family="Segoe UI" x="181, 186.75977, 191.48828, 197.98047, 204.4375, 209.06055, 216.39648, 221.20703, 228.4668, 233.28906, " y="291, ">
				creatoruri
		</text>
		<rect fill="none" stroke="black" stroke-width="1" stroke-linecap="square" stroke-miterlimit="4" transform="translate(0.5 0.5)" x="172" y="276" width="72" height="20"/>
		<rect fill="silver" x="176" y="422" width="69" height="21"/>
		<rect fill="white" x="172" y="418" width="69" height="21"/>
		<rect fill="white" x="177" y="445" width="119" height="72"/>
		<text fill="gray" font-size="9" font-family="Segoe UI" x="177, 181.71533, 186.80859, 191.51514, 193.98047, 199.28027, 203.85938, 206.90918, 211.61572, 214.08105, 216.79688, 221.37598, 226.46924, 231.76904, 233.72021, 236.18555, 241.45898, 246.75, 249.7998, 251.97949, 257.25293, 262.34619, 266.92529, 269.10498, 271.28467, 275.63965, 277.59082, 280.05615, 283.10596, 288.19922, " y="455, ">
				The date (and, optionally, the
		</text>
		<text fill="gray" font-size="9" font-family="Segoe UI" x="177, 180.0498, 182.22949, 189.98145, 194.68799, 197.40381, 199.86914, 206.37305, 211.46631, 216.17285, 221.26611, 223.73145, 226.78125, 231.87451, 236.58105, 239.04639, 244.3374, 247.46631, 252.73975, 258.03076, 262.7373, 265.86621, 268.91602, 273.271, 275.73633, 282.24023, 286.81934, " y="467, ">
				time) when the property was
		</text>
		<text fill="gray" font-size="9" font-family="Segoe UI" x="177, 179.17969, 183.75879, 187.57764, 190.62744, 193.09277, 200.84473, 206.11816, 211.41797, 213.59766, 216.41455, 218.59424, 223.30078, 228.60059, 230.55176, 233.01709, 237.73242, 242.82568, 247.53223, 249.99756, 252.17725, 257.27051, 259.4502, 262.5, 264.67969, 269.25879, 271.43848, 273.90381, 278.21484, 282.79395, 284.97363, 290.06689, " y="479, ">
				last modified. The initial value
		</text>
		<text fill="gray" font-size="9" font-family="Segoe UI" x="177, 179.17969, 182.99854, 185.46387, 188.51367, 193.60693, 198.31348, 200.77881, 206.07861, 210.65771, 213.70752, 218.41406, 220.87939, 223.59521, 228.17432, 233.26758, 238.56738, 240.51855, 242.98389, 248.25732, 253.54834, 256.59814, 258.77783, 264.05127, 269.14453, 273.72363, 275.90332, 278.08301, 282.43799, " y="491, ">
				is the date (and, optionally,
		</text>
		<text fill="gray" font-size="9" font-family="Segoe UI" x="177, 180.0498, 185.14307, 189.84961, 192.31494, 195.36475, 197.54443, 205.29639, 210.00293, 212.71875, 215.18408, 220.45752, 223.27441, 225.73975, 229.89697, 233.02588, 237.73242, 242.31152, 245.36133, 247.54102, 252.81445, 257.90771, 260.37305, 265.64648, 268.46338, 270.92871, 273.97852, 279.07178, " y="503, ">
				the time) of creation of the
		</text>
		<text fill="gray" font-size="9" font-family="Segoe UI" x="177, 182.29102, 185.41992, 190.69336, 195.98438, 200.69092, 203.81982, 206.86963, 211.22461, " y="515, ">
				property.
		</text>
		<rect fill="white" x="181" y="420" width="53" height="16"/>
		<text font-size="12" font-weight="600" font-family="Segoe UI" x="181, 191.99219, 199.32812, 206.75781, 210.16797, 214.76758, 218.17773, 224.66992, " y="433, ">
				modified
		</text>
		<rect fill="none" stroke="black" stroke-width="1" stroke-linecap="square" stroke-miterlimit="4" transform="translate(0.5 0.5)" x="172" y="418" width="68" height="20"/>
		<rect fill="silver" x="176" y="528" width="59" height="21"/>
		<rect fill="white" x="172" y="524" width="59" height="21"/>
		<rect fill="white" x="177" y="551" width="118" height="108"/>
		<text fill="gray" font-size="9" font-family="Segoe UI" x="177, 179.39502, 182.21191, 184.67725, 188.49609, 193.20264, 196.25244, 198.71777, 201.76758, 207.04102, 209.50635, 212.55615, 215.68506, 220.77832, 225.48486, 227.9502, 231, 236.09326, " y="561, ">
				If set to true the
		</text>
		<text fill="gray" font-size="9" font-family="Segoe UI" x="177, 181.15723, 186.43066, 189.55957, 192.68848, 197.39502, 201.21387, 206.50488, 211.77832, 216.87158, 222.17139, 224.35107, 229.44434, 234.74414, 237.20947, 242.50049, 245.62939, 250.90283, 256.19385, 260.90039, 264.0293, 267.0791, 271.43408, 273.89941, 280.40332, 284.98242, " y="573, ">
				corresponding property was
		</text>
		<text fill="gray" font-size="9" font-family="Segoe UI" x="177, 181.5791, 186.87891, 192.17871, 196.88525, 202.18506, 204.65039, 207.7002, 212.97363, 215.43896, 218.48877, 223.58203, 228.28857, 230.75391, 236.92822, 241.77979, 244.24512, 246.64014, 249.68994, 254.39648, 262.14844, 264.61377, 267.43066, 272.7041, 275.83301, 278.29834, " y="585, ">
				added to the G2 Item for a
		</text>
		<text fill="gray" font-size="9" font-family="Segoe UI" x="177, 180.81885, 186.10986, 190.81641, 194.97363, 197.15332, 199.97021, 202.1499, 206.30713, 208.77246, 212.92969, 218.02295, 221.8418, 224.8916, 230.16504, 237.91699, 242.62354, 245.75244, 248.21777, 253.49121, 256.62012, 259.08545, 264.38525, 267.51416, 272.7876, 277.88086, 283.17188, 285.63721, 290.91064, " y="597, ">
				specific customer or group of
		</text>
		<text fill="gray" font-size="9" font-family="Segoe UI" x="177, 181.15723, 186.25049, 190.06934, 193.11914, 198.39258, 206.14453, 210.85107, 213.97998, 217.79883, 220.26416, 225.5376, 230.63086, 232.81055, 237.16553, 239.1167, 241.58203, 246.29736, 251.39062, 256.09717, 258.5625, 263.8623, 268.56885, 271.38574, 275.96484, 281.05811, 283.23779, " y="609, ">
				customers only. The default
		</text>
		<text fill="gray" font-size="9" font-family="Segoe UI" x="177, 181.31104, 185.89014, 188.06982, 193.16309, 197.86963, 200.33496, 205.6084, 208.42529, 210.89062, 213.94043, 219.03369, 221.21338, 225.03223, 227.49756, 232.78857, 235.91748, 241.19092, 246.48193, 251.18848, 254.31738, 257.36719, 261.72217, 264.1875, 266.36719, 270.18604, 272.65137, 275.46826, 280.04736, 282.22705, 286.0459, " y="621, ">
				value of this property is false
		</text>
		<text fill="gray" font-size="9" font-family="Segoe UI" x="177, 183.50391, 188.59717, 190.77686, 194.93408, 200.02734, 202.49268, 207.07178, 212.36279, 217.65381, 219.8335, 222.01318, 226.71973, 230.53857, 233.00391, 239.50781, 244.60107, 249.30762, 254.40088, 256.86621, 259.91602, 265.00928, 267.18896, " y="633, ">
				which applies when this
		</text>
		<text fill="gray" font-size="9" font-family="Segoe UI" x="177, 181.5791, 184.62891, 187.67871, 190.80762, 192.9873, 198.27832, 203.37158, 206.42139, 211.12793, 213.59326, 215.77295, 219.5918, 222.05713, 227.15039, 232.42383, 235.47363, 237.93896, 243.03223, 246.85107, 251.55762, 256.85742, 259.32275, 265.82666, 268.00635, 271.05615, 276.14941, 278.61475, 281.66455, 286.75781, " y="645, ">
				attribute is not used with the
		</text>
		<text fill="gray" font-size="9" font-family="Segoe UI" x="177, 182.29102, 185.41992, 190.69336, 195.98438, 200.69092, 203.81982, 206.86963, 211.22461, " y="657, ">
				property.
		</text>
		<rect fill="white" x="181" y="526" width="43" height="16"/>
		<text font-size="12" font-weight="600" font-family="Segoe UI" x="181, 186.75977, 194.01953, 199.29883, 203.92188, 211.25781, " y="539, ">
				custom
		</text>
		<rect fill="none" stroke="black" stroke-width="1" stroke-linecap="square" stroke-miterlimit="4" transform="translate(0.5 0.5)" x="172" y="524" width="58" height="20"/>
		<rect fill="silver" x="176" y="670" width="52" height="21"/>
		<rect fill="white" x="172" y="666" width="52" height="21"/>
		<rect fill="white" x="177" y="693" width="118" height="48"/>
		<text fill="gray" font-size="9" font-family="Segoe UI" x="177, 179.39502, 184.48828, 189.78809, 191.96777, 196.125, 200.7041, 203.75391, 208.46045, 212.2793, 214.74463, 220.03564, 224.39062, 226.85596, 233.35986, 238.45312, 240.63281, 244.79004, 249.8833, 252.34863, 260.10059, 264.80713, 269.38623, 274.47949, 278.29834, 280.76367, 283.81348, 288.90674, " y="703, ">
				Indicates by which means the
		</text>
		<text fill="gray" font-size="9" font-family="Segoe UI" x="177, 181.31104, 185.89014, 188.06982, 193.16309, 197.86963, 200.33496, 206.83887, 211.41797, 215.23682, 217.70215, 222.40869, 226.53955, 229.58936, 232.71826, 237.29736, 241.45459, 244.50439, 249.21094, 254.51074, 256.97607, 259.79297, 262.92188, 268.19531, 275.94727, 278.4126, 281.4624, 286.55566, " y="715, ">
				value was extracted from the
		</text>
		<text fill="gray" font-size="9" font-family="Segoe UI" x="177, 181.15723, 186.43066, 191.52393, 194.57373, 199.28027, 204.37354, 207.42334, 209.88867, 213.48779, 215.95312, 220.65967, 224.79053, 230.08154, 233.21045, 237.91699, 241.73584, 245.55469, 250.26123, 255.56104, 258.02637, 263.31738, 267.67236, 270.1377, " y="727, ">
				content - expressed by a
		</text>
		<text fill="gray" font-size="9" font-family="Segoe UI" x="177, 183.78516, 189.35742, 194.63086, 199.93066, " y="739, ">
				QCode
		</text>
		<rect fill="white" x="181" y="668" width="36" height="16"/>
		<text font-size="12" font-weight="600" font-family="Segoe UI" x="181, 188.22461, 195.56055, " y="681, ">
				how
		</text>
		<rect fill="none" stroke="black" stroke-width="1" stroke-linecap="square" stroke-miterlimit="4" transform="translate(0.5 0.5)" x="172" y="666" width="51" height="20"/>
		<rect fill="silver" x="176" y="752" width="57" height="21"/>
		<rect fill="white" x="172" y="748" width="57" height="21"/>
		<rect fill="white" x="177" y="775" width="118" height="36"/>
		<text fill="gray" font-size="9" font-family="Segoe UI" x="177, 179.39502, 184.48828, 189.78809, 191.96777, 196.125, 200.7041, 203.75391, 208.46045, 212.2793, 214.74463, 220.03564, 224.39062, 226.85596, 233.35986, 238.45312, 240.63281, 244.79004, 249.8833, 252.34863, 260.10059, 264.80713, 269.38623, 274.47949, 278.29834, 280.76367, 283.81348, 288.90674, " y="785, ">
				Indicates by which means the
		</text>
		<text fill="gray" font-size="9" font-family="Segoe UI" x="177, 181.31104, 185.89014, 188.06982, 193.16309, 197.86963, 200.33496, 206.83887, 211.41797, 215.23682, 217.70215, 222.40869, 226.53955, 229.58936, 232.71826, 237.29736, 241.45459, 244.50439, 249.21094, 254.51074, 256.97607, 259.79297, 262.92188, 268.19531, 275.94727, 278.4126, 281.4624, 286.55566, " y="797, ">
				value was extracted from the
		</text>
		<text fill="gray" font-size="9" font-family="Segoe UI" x="177, 181.15723, 186.43066, 191.52393, 194.57373, 199.28027, 204.37354, 207.42334, 209.88867, 213.48779, 215.95312, 220.65967, 224.79053, 230.08154, 233.21045, 237.91699, 241.73584, 245.55469, 250.26123, 255.56104, 258.02637, 263.31738, 267.67236, 270.1377, 274.7168, 277.18213, 283.36523, 288.74854, " y="809, ">
				content - expressed by a URI
		</text>
		<rect fill="white" x="181" y="750" width="41" height="16"/>
		<text font-size="12" font-weight="600" font-family="Segoe UI" x="181, 188.22461, 195.56055, 205.12891, 212.38867, 217.21094, " y="763, ">
				howuri
		</text>
		<rect fill="none" stroke="black" stroke-width="1" stroke-linecap="square" stroke-miterlimit="4" transform="translate(0.5 0.5)" x="172" y="748" width="56" height="20"/>
		<rect fill="silver" x="176" y="822" width="52" height="21"/>
		<rect fill="white" x="172" y="818" width="52" height="21"/>
		<rect fill="white" x="177" y="845" width="113" height="36"/>
		<text fill="gray" font-size="9" font-family="Segoe UI" x="177, 185.40674, 190.5, 194.85498, 197.32031, 200.37012, 205.46338, 210.16992, 212.63525, 220.38721, 225.09375, 228.14355, 232.72266, 238.02246, 242.60156, 245.65137, 250.23047, 252.6958, 257.78906, 262.36816, 266.18701, 268.65234, 273.94336, 278.6499, 283.35645, " y="855, ">
				Why the metadata has been
		</text>
		<text fill="gray" font-size="9" font-family="Segoe UI" x="177, 179.17969, 184.27295, 188.43018, 190.60986, 195.70312, 201.00293, 205.70947, 211.00928, 213.47461, 217.07373, 219.53906, 224.24561, 228.37646, 233.66748, 236.79639, 241.50293, 245.32178, 249.14062, 253.84717, 259.14697, 261.6123, 266.90332, 271.2583, 273.72363, " y="867, ">
				included - expressed by a
		</text>
		<text fill="gray" font-size="9" font-family="Segoe UI" x="177, 183.78516, 189.35742, 194.63086, 199.93066, " y="879, ">
				QCode
		</text>
		<rect fill="white" x="181" y="820" width="36" height="16"/>
		<text font-size="12" font-weight="600" font-family="Segoe UI" x="181, 190.56836, 197.79297, " y="833, ">
				why
		</text>
		<rect fill="none" stroke="black" stroke-width="1" stroke-linecap="square" stroke-miterlimit="4" transform="translate(0.5 0.5)" x="172" y="818" width="51" height="20"/>
		<rect fill="silver" x="176" y="892" width="56" height="21"/>
		<rect fill="white" x="172" y="888" width="56" height="21"/>
		<rect fill="white" x="177" y="915" width="119" height="24"/>
		<text fill="gray" font-size="9" font-family="Segoe UI" x="177, 185.40674, 190.5, 194.85498, 197.32031, 200.37012, 205.46338, 210.16992, 212.63525, 220.38721, 225.09375, 228.14355, 232.72266, 238.02246, 242.60156, 245.65137, 250.23047, 252.6958, 257.78906, 262.36816, 266.18701, 268.65234, 273.94336, 278.6499, 283.35645, " y="925, ">
				Why the metadata has been
		</text>
		<text fill="gray" font-size="9" font-family="Segoe UI" x="177, 179.17969, 184.27295, 188.43018, 190.60986, 195.70312, 201.00293, 205.70947, 211.00928, 213.47461, 217.07373, 219.53906, 224.24561, 228.37646, 233.66748, 236.79639, 241.50293, 245.32178, 249.14062, 253.84717, 259.14697, 261.6123, 266.90332, 271.2583, 273.72363, 278.30273, 280.76807, 286.95117, 292.33447, " y="937, ">
				included - expressed by a URI
		</text>
		<rect fill="white" x="181" y="890" width="40" height="16"/>
		<text font-size="12" font-weight="600" font-family="Segoe UI" x="181, 190.56836, 197.79297, 204.25, 211.50977, 216.33203, " y="903, ">
				whyuri
		</text>
		<rect fill="none" stroke="black" stroke-width="1" stroke-linecap="square" stroke-miterlimit="4" transform="translate(0.5 0.5)" x="172" y="888" width="55" height="20"/>
		<rect fill="silver" x="176" y="950" width="97" height="21"/>
		<rect fill="white" x="172" y="946" width="97" height="21"/>
		<rect fill="white" x="177" y="973" width="117" height="72"/>
		<text fill="gray" font-size="9" font-family="Segoe UI" x="177, 183.78516, 188.87842, 193.58496, 196.05029, 201.32373, 204.45264, 206.91797, 214.66992, 219.24902, 224.34229, 228.69727, 231.1626, 235.31982, 240.59326, 245.68652, 249.50537, 252.55518, 255.68408, 260.26318, 262.44287, 267.53613, 270.58594, 274.40479, 276.87012, 279.91992, 285.01318, 289.59229, " y="983, ">
				One or many constraints that
		</text>
		<text fill="gray" font-size="9" font-family="Segoe UI" x="177, 181.5791, 186.87012, 192.16113, 194.34082, 198.6958, 201.16113, 204.21094, 209.48438, 211.94971, 217.24072, 222.33398, 227.625, 229.80469, 231.98438, 235.80322, 240.89648, 243.07617, 248.16943, 253.46924, 255.93457, 258.98438, 264.07764, 268.78418, 271.24951, 275.56055, 280.13965, 282.31934, 287.4126, " y="995, ">
				apply to publishing the value
		</text>
		<text fill="gray" font-size="9" font-family="Segoe UI" x="177, 182.27344, 185.09033, 187.55566, 190.60547, 195.69873, 200.40527, 202.87061, 208.16162, 211.29053, 216.56396, 221.85498, 226.56152, 229.69043, 232.74023, 237.09521, 239.56055, 243.15967, 245.625, 250.33154, 254.4624, 259.75342, 262.88232, 267.58887, 271.40771, 275.22656, 279.93311, " y="1007, ">
				of the property - expressed
		</text>
		<text fill="gray" font-size="9" font-family="Segoe UI" x="177, 182.29102, 186.646, 189.11133, 193.69043, 196.15576, 202.94092, 208.51318, 213.78662, 219.08643, 223.79297, 225.74414, 228.20947, 232.76221, 237.34131, 241.49854, 246.5918, 249.05713, 253.21436, 258.48779, 263.58105, 267.3999, 270.44971, 273.57861, 278.15771, 280.3374, 285.43066, " y="1019, ">
				by a QCode. Each constraint
		</text>
		<text fill="gray" font-size="9" font-family="Segoe UI" x="177, 181.5791, 186.87012, 192.16113, 194.34082, 196.52051, 201.22705, 205.0459, 207.51123, 210.56104, 215.83447, 218.2998, 222.87891, 225.05859, 227.23828, 229.70361, 235.00342, 239.70996, 243.52881, 247.68604, 252.39258, 257.48584, 262.78564, 267.36475, 272.45801, " y="1031, ">
				applies to all descendant
		</text>
		<text fill="gray" font-size="9" font-family="Segoe UI" x="177, 181.70654, 183.88623, 188.59277, 196.34473, 201.05127, 206.14453, 209.19434, 213.01318, " y="1043, ">
				elements.
		</text>
		<rect fill="white" x="181" y="948" width="81" height="16"/>
		<text font-size="12" font-weight="600" font-family="Segoe UI" x="181, 188.44141, 195.70117, 203.14258, 208.90234, 216.23828, 223.49805, 228.77734, 233.44727, 238.22266, 244.67969, 248.08984, 255.34961, " y="961, ">
				pubconstraint
		</text>
		<rect fill="none" stroke="black" stroke-width="1" stroke-linecap="square" stroke-miterlimit="4" transform="translate(0.5 0.5)" x="172" y="946" width="96" height="20"/>
		<rect fill="silver" x="176" y="1056" width="112" height="21"/>
		<rect fill="white" x="172" y="1052" width="112" height="21"/>
		<rect fill="white" x="177" y="1079" width="117" height="72"/>
		<text fill="gray" font-size="9" font-family="Segoe UI" x="177, 183.78516, 188.87842, 193.58496, 196.05029, 201.32373, 204.45264, 206.91797, 214.66992, 219.24902, 224.34229, 228.69727, 231.1626, 235.31982, 240.59326, 245.68652, 249.50537, 252.55518, 255.68408, 260.26318, 262.44287, 267.53613, 270.58594, 274.40479, 276.87012, 279.91992, 285.01318, 289.59229, " y="1089, ">
				One or many constraints that
		</text>
		<text fill="gray" font-size="9" font-family="Segoe UI" x="177, 181.5791, 186.87012, 192.16113, 194.34082, 198.6958, 201.16113, 204.21094, 209.48438, 211.94971, 217.24072, 222.33398, 227.625, 229.80469, 231.98438, 235.80322, 240.89648, 243.07617, 248.16943, 253.46924, 255.93457, 258.98438, 264.07764, 268.78418, 271.24951, 275.56055, 280.13965, 282.31934, 287.4126, " y="1101, ">
				apply to publishing the value
		</text>
		<text fill="gray" font-size="9" font-family="Segoe UI" x="177, 182.27344, 185.09033, 187.55566, 190.60547, 195.69873, 200.40527, 202.87061, 208.16162, 211.29053, 216.56396, 221.85498, 226.56152, 229.69043, 232.74023, 237.09521, 239.56055, 243.15967, 245.625, 250.33154, 254.4624, 259.75342, 262.88232, 267.58887, 271.40771, 275.22656, 279.93311, " y="1113, ">
				of the property - expressed
		</text>
		<text fill="gray" font-size="9" font-family="Segoe UI" x="177, 182.29102, 186.646, 189.11133, 193.69043, 196.15576, 202.33887, 207.72217, 210.11719, 212.06836, 214.53369, 219.08643, 223.66553, 227.82275, 232.91602, 235.38135, 239.53857, 244.81201, 249.90527, 253.72412, 256.77393, 259.90283, 264.48193, 266.66162, 271.75488, " y="1125, ">
				by a URI. Each constraint
		</text>
		<text fill="gray" font-size="9" font-family="Segoe UI" x="177, 181.5791, 186.87012, 192.16113, 194.34082, 196.52051, 201.22705, 205.0459, 207.51123, 210.56104, 215.83447, 218.2998, 222.87891, 225.05859, 227.23828, 229.70361, 235.00342, 239.70996, 243.52881, 247.68604, 252.39258, 257.48584, 262.78564, 267.36475, 272.45801, " y="1137, ">
				applies to all descendant
		</text>
		<text fill="gray" font-size="9" font-family="Segoe UI" x="177, 181.70654, 183.88623, 188.59277, 196.34473, 201.05127, 206.14453, 209.19434, 213.01318, " y="1149, ">
				elements.
		</text>
		<rect fill="white" x="181" y="1054" width="96" height="16"/>
		<text font-size="12" font-weight="600" font-family="Segoe UI" x="181, 188.44141, 195.70117, 203.14258, 208.90234, 216.23828, 223.49805, 228.77734, 233.44727, 238.22266, 244.67969, 248.08984, 255.34961, 260.01953, 267.2793, 272.10156, " y="1067, ">
				pubconstrainturi
		</text>
		<rect fill="none" stroke="black" stroke-width="1" stroke-linecap="square" stroke-miterlimit="4" transform="translate(0.5 0.5)" x="172" y="1052" width="111" height="20"/>
		<rect fill="silver" x="176" y="1162" width="66" height="21"/>
		<rect fill="white" x="172" y="1158" width="66" height="21"/>
		<rect fill="white" x="177" y="1185" width="121" height="84"/>
		<text fill="gray" font-size="9" font-family="Segoe UI" x="177, 181.78125, 187.07227, 191.77881, 195.93604, 198.11572, 200.93262, 203.1123, 207.81885, 211.6377, 214.10303, 217.15283, 222.24609, 226.95264, 229.41797, 231.59766, 236.17676, 241.27002, 246.56982, 251.66309, 256.24219, 261.54199, 266.24854, 268.71387, 273.9873, 276.8042, 279.26953, 282.31934, 287.4126, 289.59229, " y="1195, ">
				Specifies the language of this
		</text>
		<text fill="gray" font-size="9" font-family="Segoe UI" x="177, 182.29102, 185.41992, 190.69336, 195.98438, 200.69092, 203.81982, 206.86963, 211.22461, 213.68994, 218.26904, 223.3623, 228.66211, 231.12744, 236.41846, 241.69189, 244.7417, 249.44824, 254.5415, 257.59131, 259.771, 264.3501, 266.52979, 268.70947, 273.06445, 275.52979, 280.10889, 282.28857, " y="1207, ">
				property and potentially all
		</text>
		<text fill="gray" font-size="9" font-family="Segoe UI" x="177, 182.2998, 187.00635, 190.8252, 194.98242, 199.68896, 204.78223, 210.08203, 214.66113, 219.75439, 222.8042, 225.26953, 230.56055, 233.68945, 238.96289, 244.25391, 248.96045, 252.08936, 255.13916, 257.31885, 262.02539, 265.84424, " y="1219, ">
				descendant properties.
		</text>
		<text fill="gray" font-size="9" font-family="Segoe UI" x="177, 181.13086, 188.88281, 191.0625, 193.01367, 195.19336, 199.77246, 204.86572, 210.16553, 212.63086, 216.94189, 221.521, 223.70068, 228.79395, 233.50049, 237.31934, 239.78467, 245.05811, 247.875, 250.34033, 255.64014, 260.34668, 264.16553, 268.32275, 273.0293, 278.12256, 283.42236, 288.00146, 293.09473, " y="1231, ">
				xml:lang values of descendant
		</text>
		<text fill="gray" font-size="9" font-family="Segoe UI" x="177, 182.29102, 185.41992, 190.69336, 195.98438, 200.69092, 203.81982, 206.86963, 209.04932, 213.75586, 217.57471, 220.04004, 225.31348, 229.62451, 234.33105, 237.45996, 240.58887, 242.76855, 248.06836, 252.7749, 255.24023, 258.29004, 263.3833, 265.56299, 269.38184, 271.84717, 276.1582, 280.7373, 282.91699, 288.01025, 292.7168, " y="1243, ">
				properties override this value.
		</text>
		<text fill="gray" font-size="9" font-family="Segoe UI" x="177, 181.93066, 186.50977, 188.68945, 193.78271, 198.48926, 202.30811, 204.77344, 209.35254, 212.48145, 217.18799, 219.65332, 224.95312, 229.65967, 232.70947, 237.41602, 240.54492, 248.29688, 250.47656, 255.56982, 260.27637, 265.57617, 268.0415, 273.33252, " y="1255, ">
				Values are determined by
		</text>
		<text fill="gray" font-size="9" font-family="Segoe UI" x="177, 179.39502, 184.48828, 187.53809, 192.24463, 195.37354, 200.4668, 205.17334, 208.22314, 210.68848, 215.84766, 221.41992, 226.46045, 228.92578, 233.77734, 238.62891, " y="1267, ">
				Internet BCP 47.
		</text>
		<rect fill="white" x="181" y="1160" width="50" height="16"/>
		<text font-size="12" font-weight="600" font-family="Segoe UI" x="181, 187.62695, 198.61914, 202.0293, 205.28125, 208.69141, 215.14844, 222.4082, " y="1173, ">
				xml:lang
		</text>
		<path fill="none" stroke="black" stroke-width="2" stroke-miterlimit="4" transform="translate(0.5 0.5)" d="M174 1176L178 1172"/>
		<path fill="none" stroke="black" stroke-width="1" stroke-linecap="square" stroke-miterlimit="4" transform="translate(0.5 0.5)" d="M175 1172L178 1172L178 1175"/>
		<rect fill="none" stroke="black" stroke-width="1" stroke-linecap="square" stroke-miterlimit="4" transform="translate(0.5 0.5)" x="172" y="1158" width="65" height="20"/>
		<rect fill="silver" x="176" y="1280" width="52" height="21"/>
		<rect fill="white" x="172" y="1276" width="52" height="21"/>
		<rect fill="white" x="177" y="1303" width="116" height="24"/>
		<text fill="gray" font-size="9" font-family="Segoe UI" x="177, 181.71533, 186.80859, 191.51514, 193.98047, 199.28027, 201.45996, 204.58887, 209.29541, 213.45264, 216.50244, 218.68213, 223.95557, 229.04883, 233.62793, 235.80762, 237.9873, 241.03711, 245.39209, 247.85742, 253.13086, 255.94775, 258.41309, 261.46289, 266.16943, 270.30029, 273.3501, 278.44336, 283.02246, " y="1313, ">
				The directionality of textual
		</text>
		<text fill="gray" font-size="9" font-family="Segoe UI" x="177, 181.15723, 186.43066, 191.52393, 194.57373, 199.28027, 204.37354, 207.42334, 209.88867, 212.60449, 217.31104, 222.4043, 227.49756, 235.24951, 239.95605, 243.08496, 247.66406, 250.71387, 252.89355, 258.16699, 263.26025, 265.21143, 267.67676, 269.85645, 272.90625, 276.03516, 277.98633, 280.45166, 283.58057, 286.63037, 288.81006, " y="1325, ">
				content (enumeration: ltr, rtl)
		</text>
		<rect fill="white" x="181" y="1278" width="36" height="16"/>
		<text font-size="12" font-weight="600" font-family="Segoe UI" x="181, 188.42969, 191.83984, " y="1291, ">
				dir
		</text>
		<rect fill="none" stroke="black" stroke-width="1" stroke-linecap="square" stroke-miterlimit="4" transform="translate(0.5 0.5)" x="172" y="1276" width="51" height="20"/>
		<rect fill="silver" x="176" y="1338" width="52" height="21"/>
		<rect fill="white" x="172" y="1334" width="52" height="21"/>
		<rect fill="white" x="177" y="1361" width="115" height="60"/>
		<text fill="gray" font-size="9" font-family="Segoe UI" x="177, 182.80518, 187.89844, 190.36377, 192.54346, 197.63672, 202.93652, 205.11621, 209.27344, 213.85254, 216.90234, 219.08203, 224.35547, 229.44873, 231.91406, 237.1875, 240.00439, 242.46973, 245.51953, 250.61279, 255.31934, 257.78467, 260.83447, 265.41357, 268.54248, 273.84229, 278.54883, " y="1371, ">
				An indication of the target
		</text>
		<text fill="gray" font-size="9" font-family="Segoe UI" x="177, 184.75195, 189.4585, 194.7583, 196.93799, 201.51709, 203.98242, 207.03223, 211.38721, 216.67822, 221.38477, 224.10059, 227.91943, " y="1383, ">
				media type(s)
		</text>
		<text fill="gray" font-size="9" font-family="Segoe UI" x="177, 181.31104, 185.89014, 188.06982, 193.16309, 197.86963, 201.68848, 204.15381, 208.73291, 212.55176, 215.01709, 220.31689, 225.02344, 227.84033, 230.02002, 235.11328, 239.81982, 245.11963, 247.58496, 252.87598, 257.23096, 259.69629, 262.74609, 267.83936, " y="1395, ">
				values as defined by the
		</text>
		<text fill="gray" font-size="9" font-family="Segoe UI" x="177, 182.57227, 187.15137, 190.97021, 195.12744, 199.70654, 205.00635, 207.18604, 212.2793, 217.5791, 220.04443, 224.53564, 227.58545, 231.94043, 234.12012, 238.82666, 241.29199, 246.07324, 251.1665, 255.87305, 260.57959, 263.62939, 267.44824, 269.91357, 272.62939, 278.20166, 282.98291, 287.76416, " y="1407, ">
				Cascading Style Sheets (CSS)
		</text>
		<text fill="gray" font-size="9" font-family="Segoe UI" x="177, 180.81885, 186.10986, 190.81641, 194.97363, 197.15332, 199.97021, 202.1499, 206.30713, 210.88623, 213.93604, 216.11572, 221.38916, 226.48242, " y="1419, ">
				specification.
		</text>
		<rect fill="white" x="181" y="1336" width="36" height="16"/>
		<text font-size="12" font-weight="600" font-family="Segoe UI" x="181, 191.99219, 198.48438, 205.91406, 209.32422, " y="1349, ">
				media
		</text>
		<rect fill="none" stroke="black" stroke-width="1" stroke-linecap="square" stroke-miterlimit="4" transform="translate(0.5 0.5)" x="172" y="1334" width="51" height="20"/>
		<rect fill="silver" x="176" y="1432" width="52" height="21"/>
		<rect fill="white" x="172" y="1428" width="52" height="21"/>
		<rect fill="white" x="177" y="1455" width="120" height="24"/>
		<text fill="gray" font-size="9" font-family="Segoe UI" x="177, 182.80518, 185.27051, 188.39941, 193.10596, 195.92285, 198.10254, 203.1958, 207.90234, 215.6543, 220.36084, 225.4541, 228.50391, 230.96924, 236.24268, 239.05957, 241.5249, 244.57471, 249.66797, 254.37451, 256.83984, 260.65869, 265.36523, 273.11719, 277.69629, 282.78955, 285.83936, 288.01904, 292.17627, " y="1465, ">
				A refinement of the semantics
		</text>
		<text fill="gray" font-size="9" font-family="Segoe UI" x="177, 182.27344, 185.09033, 187.55566, 190.60547, 195.69873, 200.40527, 202.87061, 208.16162, 210.34131, 215.61475, 219.77197, 224.24561, " y="1477, ">
				of the block.
		</text>
		<rect fill="white" x="181" y="1430" width="36" height="16"/>
		<text font-size="12" font-weight="600" font-family="Segoe UI" x="181, 185.72852, 193.06445, 196.47461, " y="1443, ">
				role
		</text>
		<rect fill="none" stroke="black" stroke-width="1" stroke-linecap="square" stroke-miterlimit="4" transform="translate(0.5 0.5)" x="172" y="1428" width="51" height="20"/>
		<rect fill="silver" x="176" y="1490" width="55" height="21"/>
		<rect fill="white" x="172" y="1486" width="55" height="21"/>
		<rect fill="white" x="177" y="1513" width="114" height="24"/>
		<text fill="gray" font-size="9" font-family="Segoe UI" x="177, 182.80518, 185.27051, 191.45361, 196.83691, 199.23193, 201.69727, 203.87695, 209.17676, 213.8833, 218.97656, 222.02637, 224.20605, 227.02295, 231.37793, 233.55762, 238.65088, 243.95068, 246.41602, 249.46582, 254.55908, 259.26562, 261.73096, 264.85986, 269.56641, 272.3833, 274.56299, 279.65625, 284.36279, " y="1523, ">
				A URI identifying the refined
		</text>
		<text fill="gray" font-size="9" font-family="Segoe UI" x="177, 180.81885, 185.52539, 193.27734, 197.85645, 202.94971, 205.99951, 208.1792, 212.33643, 216.15527, 218.62061, 223.89404, 226.71094, 229.17627, 232.22607, 237.31934, 242.02588, 244.49121, 249.79102, 254.49756, 257.31445, 259.49414, 264.5874, 266.76709, 269.81689, 271.99658, 277.27002, 282.36328, " y="1535, ">
				semantics of the definition.
		</text>
		<rect fill="white" x="181" y="1488" width="39" height="16"/>
		<text font-size="12" font-weight="600" font-family="Segoe UI" x="181, 185.72852, 193.06445, 196.47461, 202.9668, 210.22656, 215.04883, " y="1501, ">
				roleuri
		</text>
		<rect fill="none" stroke="black" stroke-width="1" stroke-linecap="square" stroke-miterlimit="4" transform="translate(0.5 0.5)" x="172" y="1486" width="54" height="20"/>
		<path fill="silver" d="M176 1553L181 1548L249 1548L254 1553L254 1564L249 1569L181 1569L176 1564L176 1553Z"/>
		<path fill="white" d="M172 1549L177 1544L245 1544L250 1549L250 1560L245 1565L177 1565L172 1560L172 1549Z"/>
		<rect fill="white" x="199" y="1546" width="46" height="16"/>
		<text font-size="12" font-weight="600" font-family="Segoe UI" x="199, 206.10742, 213.21484, 220.55078, 225.2207, 232.44531, 238.9375, " y="1559, ">
				##other
		</text>
		<rect fill="white" x="177" y="1546" width="20" height="16"/>
		<text fill="gray" font-size="12" font-family="Segoe UI" x="177, 183.10547, 189.89648, " y="1559, ">
				any
		</text>
		<path fill="none" stroke="black" stroke-width="1" stroke-linecap="square" stroke-miterlimit="4" transform="translate(0.5 0.5)" d="M172 1549L177 1544L244 1544L249 1549L249 1559L244 1564L177 1564L172 1559L172 1549Z"/>
		<rect x="163" y="41" width="11" height="11"/>
		<rect fill="white" x="164" y="42" width="9" height="9"/>
		<rect x="165" y="46" width="7" height="1"/>
		<path fill="none" stroke="black" stroke-width="1" stroke-linecap="square" stroke-miterlimit="4" transform="translate(0.5 0.5)" d="M203 1761L211 1761"/>
		<path fill="none" stroke="black" stroke-width="1" stroke-linecap="square" stroke-miterlimit="4" transform="translate(0.5 0.5)" d="M212 1761L212 1599"/>
		<path fill="none" stroke="black" stroke-width="1" stroke-linecap="square" stroke-miterlimit="4" transform="translate(0.5 0.5)" d="M212 1761L212 1924"/>
		<path fill="none" stroke="black" stroke-width="1" stroke-linecap="square" stroke-miterlimit="4" transform="translate(0.5 0.5)" d="M212 1598L226 1598"/>
		<path fill="none" stroke="black" stroke-width="1" stroke-linecap="square" stroke-miterlimit="4" transform="translate(0.5 0.5)" d="M212 1661L226 1661"/>
		<path fill="none" stroke="black" stroke-width="1" stroke-linecap="square" stroke-miterlimit="4" transform="translate(0.5 0.5)" d="M212 1736L226 1736"/>
		<path fill="none" stroke="black" stroke-width="1" stroke-linecap="square" stroke-miterlimit="4" transform="translate(0.5 0.5)" d="M212 1811L226 1811"/>
		<path fill="none" stroke="black" stroke-width="1" stroke-linecap="square" stroke-miterlimit="4" transform="translate(0.5 0.5)" d="M212 1862L226 1862"/>
		<path fill="none" stroke="black" stroke-width="1" stroke-linecap="square" stroke-miterlimit="4" transform="translate(0.5 0.5)" d="M212 1925L226 1925"/>
		<path fill="silver" d="M165 1763L170 1758L195 1758L200 1763L200 1774L195 1779L170 1779L165 1774L165 1763Z"/>
		<path fill="white" d="M161 1759L166 1754L190 1754L195 1759L195 1769L190 1774L166 1774L161 1769L161 1759Z"/>
		<path transform="translate(0.5 0.5)" d="M164.889 1754.4L165.793 1753.5L166.929 1753.5L167.429 1753.5L167.429 1754.5L166.929 1754.5L166 1754.5L166 1754L166.354 1754.35L165.243 1755.46L164.536 1754.76L164.889 1754.4ZM170.929 1753.5L172.929 1753.5L173.429 1753.5L173.429 1754.5L172.929 1754.5L170.429 1754.5L170.429 1753.5L170.929 1753.5ZM176.929 1753.5L178.929 1753.5L179.429 1753.5L179.429 1754.5L178.929 1754.5L176.429 1754.5L176.429 1753.5L176.929 1753.5ZM182.929 1753.5L184.929 1753.5L185.429 1753.5L185.429 1754.5L184.929 1754.5L182.429 1754.5L182.429 1753.5L182.929 1753.5ZM188.929 1753.5L190.207 1753.5L191.01 1754.3L191.364 1754.66L190.657 1755.36L190.303 1755.01L189.646 1754.35L190 1754L190 1754.5L188.429 1754.5L188.429 1753.5L188.929 1753.5ZM193.839 1757.13L195.253 1758.55L195.607 1758.9L194.899 1759.61L194.546 1759.25L192.778 1757.49L193.485 1756.78L193.839 1757.13ZM195.5 1762.86L195.5 1764.86L195.5 1765.36L194.5 1765.36L194.5 1764.86L194.5 1762.36L195.5 1762.36L195.5 1762.86ZM195.5 1768.86L195.5 1769.21L194.04 1770.67L193.686 1771.02L192.979 1770.31L193.333 1769.96L194.646 1768.65L195 1769L194.5 1769L194.5 1768.36L195.5 1768.36L195.5 1768.86ZM191.211 1773.5L190.207 1774.5L189.213 1774.5L188.713 1774.5L188.713 1773.5L189.213 1773.5L190 1773.5L190 1774L189.646 1773.65L190.858 1772.44L191.565 1773.14L191.211 1773.5ZM185.213 1774.5L183.213 1774.5L182.713 1774.5L182.713 1773.5L183.213 1773.5L185.713 1773.5L185.713 1774.5L185.213 1774.5ZM179.213 1774.5L177.213 1774.5L176.713 1774.5L176.713 1773.5L177.213 1773.5L179.713 1773.5L179.713 1774.5L179.213 1774.5ZM173.213 1774.5L171.213 1774.5L170.713 1774.5L170.713 1773.5L171.213 1773.5L173.713 1773.5L173.713 1774.5L173.213 1774.5ZM167.213 1774.5L165.793 1774.5L165.09 1773.8L164.737 1773.44L165.444 1772.74L165.797 1773.09L166.354 1773.65L166 1774L166 1773.5L167.713 1773.5L167.713 1774.5L167.213 1774.5ZM162.262 1770.97L160.847 1769.55L160.494 1769.2L161.201 1768.49L161.555 1768.85L163.322 1770.62L162.615 1771.32L162.262 1770.97ZM160.5 1765.28L160.5 1763.28L160.5 1762.78L161.5 1762.78L161.5 1763.28L161.5 1765.78L160.5 1765.78L160.5 1765.28ZM160.5 1759.28L160.5 1758.79L162.414 1756.88L163.121 1757.59L161.354 1759.35L161 1759L161.5 1759L161.5 1759.78L160.5 1759.78L160.5 1759.28Z"/>
		<path fill="white" d="M158 1756L163 1751L188 1751L193 1756L193 1767L188 1772L163 1772L158 1767L158 1756Z"/>
		<path fill="none" stroke="black" stroke-width="1" stroke-linecap="square" stroke-miterlimit="4" transform="translate(0.5 0.5)" d="M177 1772L183 1778L186 1775"/>
		<path fill="none" stroke="black" stroke-width="1" stroke-linecap="square" stroke-miterlimit="4" transform="translate(0.5 0.5)" d="M163 1761L168 1761L172 1757"/>
		<path fill="none" stroke="black" stroke-width="1" stroke-linecap="square" stroke-miterlimit="4" transform="translate(0.5 0.5)" d="M178 1761L186 1761"/>
		<path fill="none" stroke="black" stroke-width="1" stroke-linecap="square" stroke-miterlimit="4" transform="translate(0.5 0.5)" d="M178 1757L182 1757L182 1765L178 1765"/>
		<rect x="174" y="1756" width="3" height="3"/>
		<rect x="174" y="1760" width="3" height="3"/>
		<rect x="174" y="1764" width="3" height="3"/>
		<text font-size="12" font-family="Segoe UI" x="162.76562, " y="1791, ">
				0
		</text>
		<text font-size="12" font-family="Symbol" x="177.72266, " y="1790, ">
				
		</text>
		<text font-size="12" font-family="Segoe UI" x="170.89844, 173.5, " y="1791, ">
				..
		</text>
		<path transform="translate(0.5 0.5)" d="M161.889 1751.4L162.793 1750.5L163.929 1750.5L164.429 1750.5L164.429 1751.5L163.929 1751.5L163 1751.5L163 1751L163.354 1751.35L162.243 1752.46L161.536 1751.76L161.889 1751.4ZM167.929 1750.5L169.929 1750.5L170.429 1750.5L170.429 1751.5L169.929 1751.5L167.429 1751.5L167.429 1750.5L167.929 1750.5ZM173.929 1750.5L175.929 1750.5L176.429 1750.5L176.429 1751.5L175.929 1751.5L173.429 1751.5L173.429 1750.5L173.929 1750.5ZM179.929 1750.5L181.929 1750.5L182.429 1750.5L182.429 1751.5L181.929 1751.5L179.429 1751.5L179.429 1750.5L179.929 1750.5ZM185.929 1750.5L187.207 1750.5L188.01 1751.3L188.364 1751.66L187.657 1752.36L187.303 1752.01L186.646 1751.35L187 1751L187 1751.5L185.429 1751.5L185.429 1750.5L185.929 1750.5ZM190.839 1754.13L192.253 1755.55L192.607 1755.9L191.899 1756.61L191.546 1756.25L189.778 1754.49L190.485 1753.78L190.839 1754.13ZM192.5 1759.86L192.5 1761.86L192.5 1762.36L191.5 1762.36L191.5 1761.86L191.5 1759.36L192.5 1759.36L192.5 1759.86ZM192.5 1765.86L192.5 1766.21L191.04 1767.67L190.686 1768.02L189.979 1767.31L190.333 1766.96L191.646 1765.65L192 1766L191.5 1766L191.5 1765.36L192.5 1765.36L192.5 1765.86ZM188.211 1770.5L187.207 1771.5L186.213 1771.5L185.713 1771.5L185.713 1770.5L186.213 1770.5L187 1770.5L187 1771L186.646 1770.65L187.858 1769.44L188.565 1770.14L188.211 1770.5ZM182.213 1771.5L180.213 1771.5L179.713 1771.5L179.713 1770.5L180.213 1770.5L182.713 1770.5L182.713 1771.5L182.213 1771.5ZM176.213 1771.5L174.213 1771.5L173.713 1771.5L173.713 1770.5L174.213 1770.5L176.713 1770.5L176.713 1771.5L176.213 1771.5ZM170.213 1771.5L168.213 1771.5L167.713 1771.5L167.713 1770.5L168.213 1770.5L170.713 1770.5L170.713 1771.5L170.213 1771.5ZM164.213 1771.5L162.793 1771.5L162.09 1770.8L161.737 1770.44L162.444 1769.74L162.797 1770.09L163.354 1770.65L163 1771L163 1770.5L164.713 1770.5L164.713 1771.5L164.213 1771.5ZM159.262 1767.97L157.847 1766.55L157.494 1766.2L158.201 1765.49L158.555 1765.85L160.322 1767.62L159.615 1768.32L159.262 1767.97ZM157.5 1762.28L157.5 1760.28L157.5 1759.78L158.5 1759.78L158.5 1760.28L158.5 1762.78L157.5 1762.78L157.5 1762.28ZM157.5 1756.28L157.5 1755.79L159.414 1753.88L160.121 1754.59L158.354 1756.35L158 1756L158.5 1756L158.5 1756.78L157.5 1756.78L157.5 1756.28Z"/>
		<rect fill="silver" x="231" y="1592" width="52" height="21"/>
		<rect fill="white" x="227" y="1588" width="52" height="21"/>
		<rect fill="#FFFFC0" x="232" y="1615" width="109" height="24"/>
		<text fill="gray" font-size="9" font-family="Segoe UI" x="232, 237.80518, 242.89844, 245.36377, 249.94287, 255.03613, 259.19336, 264.28662, 269.56006, 272.68896, 275.1543, 277.97119, 283.24463, 286.37354, 288.83887, 291.01855, 296.11182, 298.2915, 300.47119, 305.56445, 310.271, 312.73633, 314.91602, 317.0957, 322.18896, 326.6626, 328.84229, 333.93555, " y="1625, ">
				An anchor for inline linking
		</text>
		<text fill="gray" font-size="9" font-family="Segoe UI" x="232, 234.17969, 236.35938, 240.83301, 245.53955, 248.00488, 250.18457, 255.27783, 257.74316, 264.13281, 268.84814, 276.92969, " y="1637, ">
				like in HTML
		</text>
		<rect fill="white" x="236" y="1590" width="31" height="16"/>
		<text font-size="12" font-weight="600" font-family="Segoe UI" x="236, " y="1603, ">
				a
		</text>
		<path fill="none" stroke="black" stroke-width="1" stroke-linecap="square" stroke-miterlimit="4" transform="translate(0.5 0.5)" d="M229 1590L234 1590"/>
		<path fill="none" stroke="black" stroke-width="1" stroke-linecap="square" stroke-miterlimit="4" transform="translate(0.5 0.5)" d="M229 1592L233 1592"/>
		<path fill="none" stroke="black" stroke-width="1" stroke-linecap="square" stroke-miterlimit="4" transform="translate(0.5 0.5)" d="M229 1594L233 1594"/>
		<path fill="none" stroke="black" stroke-width="2" stroke-miterlimit="4" transform="translate(0.5 0.5)" d="M229 1606L233 1602"/>
		<path fill="none" stroke="black" stroke-width="1" stroke-linecap="square" stroke-miterlimit="4" transform="translate(0.5 0.5)" d="M230 1602L233 1602L233 1605"/>
		<rect fill="none" stroke="black" stroke-width="1" stroke-linecap="square" stroke-miterlimit="4" transform="translate(0.5 0.5)" x="227" y="1588" width="51" height="20"/>
		<rect x="273" y="1593" width="11" height="11"/>
		<rect fill="white" x="274" y="1594" width="9" height="9"/>
		<rect x="275" y="1598" width="7" height="1"/>
		<rect x="278" y="1595" width="1" height="7"/>
		<rect fill="silver" x="231" y="1655" width="52" height="21"/>
		<rect fill="white" x="227" y="1651" width="52" height="21"/>
		<rect fill="#FFFFC0" x="232" y="1678" width="113" height="36"/>
		<text fill="gray" font-size="9" font-family="Segoe UI" x="232, 237.80518, 240.27051, 245.57031, 250.27686, 255.37012, 260.07666, 263.20557, 265.38525, 269.54248, 272.00781, 279.75977, 284.46631, 288.62354, 293.7168, 298.2959, 303.38916, 305.56885, 309.3877, 317.13965, 319.60498, 322.42188, 327.69531, " y="1688, ">
				A generic mechanism for
		</text>
		<text fill="gray" font-size="9" font-family="Segoe UI" x="232, 236.5791, 241.87891, 247.17871, 249.3584, 254.45166, 259.75146, 262.2168, 264.39648, 269.48975, 271.66943, 273.84912, 278.94238, 283.64893, 286.11426, 288.29395, 293.38721, 296.2041, 301.47754, 304.60645, 312.3584, 316.9375, 319.9873, 322.16699, 327.44043, 332.53369, 334.99902, 338.04883, " y="1700, ">
				adding inline information to
		</text>
		<text fill="gray" font-size="9" font-family="Segoe UI" x="232, 237.29102, 241.87012, 244.99902, 248.04883, 251.86768, 254.33301, 259.60645, 262.42334, 264.88867, 267.93848, 273.03174, 277.73828, 280.20361, 283.25342, 287.95996, 292.09082, 295.14062, 300.23389, 304.81299, 306.99268, 309.45801, 313.61523, 318.88867, 323.98193, 327.03174, 331.73828, 336.83154, " y="1712, ">
				parts of the textual content
		</text>
		<rect fill="white" x="236" y="1653" width="31" height="16"/>
		<text font-size="12" font-weight="600" font-family="Segoe UI" x="236, 241.2793, 248.60352, 255.06055, " y="1666, ">
				span
		</text>
		<path fill="none" stroke="black" stroke-width="1" stroke-linecap="square" stroke-miterlimit="4" transform="translate(0.5 0.5)" d="M229 1653L234 1653"/>
		<path fill="none" stroke="black" stroke-width="1" stroke-linecap="square" stroke-miterlimit="4" transform="translate(0.5 0.5)" d="M229 1655L233 1655"/>
		<path fill="none" stroke="black" stroke-width="1" stroke-linecap="square" stroke-miterlimit="4" transform="translate(0.5 0.5)" d="M229 1657L233 1657"/>
		<path fill="none" stroke="black" stroke-width="2" stroke-miterlimit="4" transform="translate(0.5 0.5)" d="M229 1669L233 1665"/>
		<path fill="none" stroke="black" stroke-width="1" stroke-linecap="square" stroke-miterlimit="4" transform="translate(0.5 0.5)" d="M230 1665L233 1665L233 1668"/>
		<rect fill="none" stroke="black" stroke-width="1" stroke-linecap="square" stroke-miterlimit="4" transform="translate(0.5 0.5)" x="227" y="1651" width="51" height="20"/>
		<rect x="273" y="1656" width="11" height="11"/>
		<rect fill="white" x="274" y="1657" width="9" height="9"/>
		<rect x="275" y="1661" width="7" height="1"/>
		<rect x="278" y="1658" width="1" height="7"/>
		<rect fill="silver" x="231" y="1730" width="52" height="21"/>
		<rect fill="white" x="227" y="1726" width="52" height="21"/>
		<rect fill="#FFFFC0" x="232" y="1753" width="119" height="36"/>
		<text fill="gray" font-size="9" font-family="Segoe UI" x="232, 236.78125, 238.96094, 246.71289, 252.00391, 254.18359, 258.89014, 261.35547, 269.76221, 274.61377, 280.18604, 282.65137, 288.03467, 293.12793, 298.41895, 302.77393, 305.23926, 311.04443, 316.1377, 321.23096, 326.50439, 329.5542, 334.1333, 337.18311, 339.36279, 344.63623, " y="1763, ">
				Simple W3C Ruby Annotation
		</text>
		<text fill="gray" font-size="9" font-family="Segoe UI" x="232, 235.59912, 238.06445, 241.8833, 246.58984, 251.29639, 253.76172, 258.85498, 261.90479, 264.95459, 270.24561, 272.19678, 275.70361, 279.21045, 285.71436, 292.21826, 298.72217, 300.67334, 307.17725, 312.02881, 313.97998, 319.25342, 322.38232, 327.68213, 331.18896, 335.9043, 341.2876, " y="1775, ">
				- see http://www.w3.org/TR/
		</text>
		<text fill="gray" font-size="9" font-family="Segoe UI" x="232, 235.12891, 240.22217, 245.51318, 249.86816, 253.375, 258.69238, 262.51123, 264.69092, 272.44287, 277.73389, 279.91357, 284.62012, 288.21924, 291.34814, 296.44141, 301.73242, 306.0874, " y="1787, ">
				ruby/#simple-ruby1
		</text>
		<rect fill="white" x="236" y="1728" width="31" height="16"/>
		<text font-size="12" font-weight="600" font-family="Segoe UI" x="236, 240.81055, 248.07031, 255.51172, " y="1741, ">
				ruby
		</text>
		<path fill="none" stroke="black" stroke-width="2" stroke-miterlimit="4" transform="translate(0.5 0.5)" d="M229 1744L233 1740"/>
		<path fill="none" stroke="black" stroke-width="1" stroke-linecap="square" stroke-miterlimit="4" transform="translate(0.5 0.5)" d="M230 1740L233 1740L233 1743"/>
		<rect fill="none" stroke="black" stroke-width="1" stroke-linecap="square" stroke-miterlimit="4" transform="translate(0.5 0.5)" x="227" y="1726" width="51" height="20"/>
		<rect x="273" y="1731" width="11" height="11"/>
		<rect fill="white" x="274" y="1732" width="9" height="9"/>
		<rect x="275" y="1736" width="7" height="1"/>
		<rect x="278" y="1733" width="1" height="7"/>
		<rect fill="silver" x="231" y="1805" width="52" height="21"/>
		<rect fill="white" x="227" y="1801" width="52" height="21"/>
		<rect fill="#FFFFC0" x="232" y="1828" width="49" height="12"/>
		<text fill="gray" font-size="9" font-family="Segoe UI" x="232, 237.80518, 240.27051, 242.4502, 244.62988, 249.72314, 254.42969, 256.89502, 262.18604, 265.31494, 270.02148, 274.60059, " y="1838, ">
				A line break
		</text>
		<rect fill="white" x="236" y="1803" width="31" height="16"/>
		<text font-size="12" font-weight="600" font-family="Segoe UI" x="236, 243.44141, " y="1816, ">
				br
		</text>
		<path fill="none" stroke="black" stroke-width="2" stroke-miterlimit="4" transform="translate(0.5 0.5)" d="M229 1819L233 1815"/>
		<path fill="none" stroke="black" stroke-width="1" stroke-linecap="square" stroke-miterlimit="4" transform="translate(0.5 0.5)" d="M230 1815L233 1815L233 1818"/>
		<rect fill="none" stroke="black" stroke-width="1" stroke-linecap="square" stroke-miterlimit="4" transform="translate(0.5 0.5)" x="227" y="1801" width="51" height="20"/>
		<rect x="273" y="1806" width="11" height="11"/>
		<rect fill="white" x="274" y="1807" width="9" height="9"/>
		<rect x="275" y="1811" width="7" height="1"/>
		<rect x="278" y="1808" width="1" height="7"/>
		<rect fill="silver" x="231" y="1856" width="54" height="21"/>
		<rect fill="white" x="227" y="1852" width="54" height="21"/>
		<rect fill="#FFFFC0" x="232" y="1879" width="108" height="24"/>
		<text fill="gray" font-size="9" font-family="Segoe UI" x="232, 237.80518, 242.89844, 245.36377, 247.54346, 252.63672, 254.81641, 256.99609, 262.08936, 266.7959, 269.26123, 277.01318, 281.59229, 284.72119, 289.19482, 294.28809, 299.5791, 302.04443, 305.09424, 309.67334, 314.97314, 317.43848, 320.48828, 325.76172, 328.22705, 333.51807, " y="1889, ">
				An inline markup tag to be
		</text>
		<text fill="gray" font-size="9" font-family="Segoe UI" x="232, 237.09326, 240.91211, 245.61865, 250.91846, 253.38379, 259.8877, 262.06738, 265.11719, 270.21045, 272.67578, 277.25488, 282.34814, 286.70312, 289.16846, 293.32568, 298.59912, 303.69238, 307.84961, 312.55615, 317.84717, " y="1901, ">
				used with any concept
		</text>
		<rect fill="white" x="236" y="1854" width="33" height="16"/>
		<text font-size="12" font-weight="600" font-family="Segoe UI" x="236, 239.41016, 246.66992, 250.08008, 253.49023, 260.75, " y="1867, ">
				inline
		</text>
		<path fill="none" stroke="black" stroke-width="1" stroke-linecap="square" stroke-miterlimit="4" transform="translate(0.5 0.5)" d="M229 1854L234 1854"/>
		<path fill="none" stroke="black" stroke-width="1" stroke-linecap="square" stroke-miterlimit="4" transform="translate(0.5 0.5)" d="M229 1856L233 1856"/>
		<path fill="none" stroke="black" stroke-width="1" stroke-linecap="square" stroke-miterlimit="4" transform="translate(0.5 0.5)" d="M229 1858L233 1858"/>
		<path fill="none" stroke="black" stroke-width="2" stroke-miterlimit="4" transform="translate(0.5 0.5)" d="M229 1870L233 1866"/>
		<path fill="none" stroke="black" stroke-width="1" stroke-linecap="square" stroke-miterlimit="4" transform="translate(0.5 0.5)" d="M230 1866L233 1866L233 1869"/>
		<rect fill="none" stroke="black" stroke-width="1" stroke-linecap="square" stroke-miterlimit="4" transform="translate(0.5 0.5)" x="227" y="1852" width="53" height="20"/>
		<rect x="275" y="1857" width="11" height="11"/>
		<rect fill="white" x="276" y="1858" width="9" height="9"/>
		<rect x="277" y="1862" width="7" height="1"/>
		<rect x="280" y="1859" width="1" height="7"/>
		<path fill="silver" d="M231 1924L236 1919L304 1919L309 1924L309 1935L304 1940L236 1940L231 1935L231 1924Z"/>
		<path fill="white" d="M227 1920L232 1915L300 1915L305 1920L305 1931L300 1936L232 1936L227 1931L227 1920Z"/>
		<rect fill="#FFFFC0" x="232" y="1942" width="120" height="36"/>
		<text fill="gray" font-size="9" font-family="Segoe UI" x="232, 236.55273, 240.68359, 243.7334, 248.43994, 253.5332, 257.35205, 259.53174, 264.80518, 269.89844, 272.36377, 277.65479, 282.92822, 285.10791, 290.20117, 293.25098, 295.71631, 298.5332, 303.80664, 306.93555, 309.40088, 314.69189, 317.8208, 323.09424, 327.40527, 329.58496, 334.88477, 339.59131, 342.72021, " y="1952, ">
				Extension point for provider-
		</text>
		<text fill="gray" font-size="9" font-family="Segoe UI" x="232, 237.2998, 242.00635, 244.82324, 247.00293, 252.09619, 256.80273, 262.10254, 264.56787, 269.85889, 272.98779, 278.26123, 283.55225, 288.25879, 291.3877, 294.4375, 296.61719, 301.32373, 305.14258, 307.60791, 310.4248, 313.55371, 318.82715, 326.5791, 329.04443, 334.31787, 337.36768, 342.46094, 347.16748, " y="1964, ">
				defined properties from other
		</text>
		<text fill="gray" font-size="9" font-family="Segoe UI" x="232, 237.09326, 241.67236, 249.42432, 254.13086, 257.94971, 263.24072, 267.81982, 271.97705, 276.68359, " y="1976, ">
				namespaces
		</text>
		<rect fill="white" x="254" y="1917" width="46" height="16"/>
		<text font-size="12" font-weight="600" font-family="Segoe UI" x="254, 261.10742, 268.21484, 275.55078, 280.2207, 287.44531, 293.9375, " y="1930, ">
				##other
		</text>
		<rect fill="white" x="232" y="1917" width="20" height="16"/>
		<text fill="gray" font-size="12" font-family="Segoe UI" x="232, 238.10547, 244.89648, " y="1930, ">
				any
		</text>
		<path fill="none" stroke="black" stroke-width="1" stroke-linecap="square" stroke-miterlimit="4" transform="translate(0.5 0.5)" d="M227 1920L232 1915L299 1915L304 1920L304 1930L299 1935L232 1935L227 1930L227 1920Z"/>
		<rect x="192" y="1756" width="11" height="11"/>
		<rect fill="white" x="193" y="1757" width="9" height="9"/>
		<rect x="194" y="1761" width="7" height="1"/>
		<rect x="52" y="1278" width="11" height="11"/>
		<rect fill="white" x="53" y="1279" width="9" height="9"/>
		<rect x="54" y="1283" width="7" height="1"/>
	</g>
</svg>
