<?xml version="1.0" encoding="utf-8" ?>
<svg xmlns="http://www.w3.org/2000/svg" xmlns:xlink="http://www.w3.org/1999/xlink" width="401" height="1250">
	<clipPath id="cl_718">
		<rect x="-10" y="-5" width="401" height="1250"/>
	</clipPath>
	<g clip-path="url(#cl_718)">
		<path fill="none" stroke="black" stroke-width="1" stroke-linecap="square" stroke-miterlimit="4" transform="translate(0.5 0.5)" d="M153 620L166 620"/>
		<path fill="silver" d="M4 619L9 614L153 614L153 636L9 636L4 631L4 619Z"/>
		<path fill="white" d="M0 615L5 610L149 610L149 632L5 632L0 627L0 615Z"/>
		<rect fill="white" x="5" y="637" width="137" height="24"/>
		<text fill="gray" font-size="9" font-family="Segoe UI" x="5, 9.715332, 14.808594, 19.515137, 21.980469, 25.030273, 29.385254, 34.67627, 39.382812, 41.848145, 47.121582, 49.938477, 52.403809, 56.98291, 59.448242, 64.739258, 67.868164, 73.141602, 78.432617, 83.13916, 86.268066, 89.317871, 93.672852, 96.138184, 102.64209, 104.82178, 107.87158, 112.96484, 115.43018, 120.00928, 122.47461, 127.77441, 132.35352, 135.40332, " y="647, ">
				The type of a property with a date
		</text>
		<text fill="gray" font-size="9" font-family="Segoe UI" x="5, 7.7158203, 10.844727, 15.55127, 20.851074, 25.944336, 28.124023, 31.25293, 35.959473, 41.259277, 43.975098, 46.44043, 51.019531, 56.112793, 61.412598, 63.87793, 68.457031, 70.922363, 73.972168, 76.151855, 83.903809, 88.610352, 91.075684, 93.791504, 99.064941, 104.35596, 107.40576, 109.58545, 114.85889, 119.95215, 124.53125, 126.71094, " y="659, ">
				(required) and a time (optional)
		</text>
		<rect fill="white" x="5" y="612" width="131" height="16"/>
		<text font-size="12" font-weight="600" font-family="Segoe UI" x="5, 13.847656, 20.304688, 24.927734, 31.419922, 40.519531, 47.960938, 52.630859, 59.662109, 63.072266, 74.064453, 80.556641, 87.927734, 92.65625, 99.992188, 107.43359, 113.92578, 120.38281, 127.82422, " y="625, ">
				DateOptTimePropType
		</text>
		<path fill="none" stroke="black" stroke-width="1" stroke-linecap="square" stroke-miterlimit="4" transform="translate(0.5 0.5)" d="M0 615L5 610L148 610L148 631L5 631L0 626L0 615Z"/>
		<path fill="white" d="M244 19L244 0L167 0L167 19L167 1239L380 1239L380 19L244 19Z"/>
		<rect fill="white" x="187" y="2" width="51" height="16"/>
		<text font-size="12" font-style="italic" font-family="Segoe UI" x="187, 193.50391, 197.38281, 201.26172, 205.5332, 208.63867, 215.14258, 221.83984, 225.73047, 231.57227, " y="15, ">
				attributes
		</text>
		<path fill="none" stroke="black" stroke-width="1" stroke-linecap="square" stroke-miterlimit="4" transform="translate(0.5 0.5)" d="M244 19L244 0L167 0L167 19L167 1239L380 1239L380 19L244 19Z"/>
		<path fill="white" d="M372 47L372 28L181 28L181 47L181 1150L372 1150L372 47Z"/>
		<rect fill="white" x="186" y="1153" width="179" height="48"/>
		<text fill="gray" font-size="9" font-family="Segoe UI" x="186, 191.80518, 194.27051, 199.57031, 202.69922, 207.97266, 213.06592, 218.35693, 220.82227, 226.0957, 228.9126, 231.37793, 235.95703, 239.00684, 242.05664, 245.18555, 247.36523, 252.65625, 257.74951, 260.79932, 265.50586, 269.32471, 271.79004, 274.60693, 279.88037, 283.00928, 285.47461, 290.05371, 292.2334, 294.41309, 296.87842, 301.58496, 303.76465, 308.47119, 316.22314, 320.92969, 326.02295, 329.07275, 332.8916, 335.35693, 340.63037, 343.44727, 345.9126, 350.4917, 352.95703, 359.13135, " y="1163, ">
				A group of attributes for all elements of a G2
		</text>
		<text fill="gray" font-size="9" font-family="Segoe UI" x="186, 188.39502, 191.44482, 196.15137, 203.90332, 206.36865, 211.0752, 215.20605, 219.36328, 224.06982, 229.36084, 232.41064, 234.87598, 237.05566, 240.10547, 243.92432, 246.38965, 249.51855, 254.79199, 260.06543, 263.11523, 265.58057, 270.28711, 272.4668, 277.17334, 284.92529, 289.63184, 294.7251, 297.7749, 299.72607, 302.19141, 305.24121, 310.33447, 315.04102, 317.50635, 319.68604, 322.73584, 327.44238, 335.19434, 343.27588, 347.98242, 351.03223, " y="1175, ">
				Item except its root element, the itemMeta
		</text>
		<text fill="gray" font-size="9" font-family="Segoe UI" x="186, 190.70654, 192.88623, 197.59277, 205.34473, 210.05127, 215.14453, 218.19434, 220.65967, 225.23877, 230.33203, 235.63184, 238.09717, 242.67627, 244.85596, 247.03564, 249.50098, 254.77441, 257.59131, 260.05664, 262.23633, 265.28613, 269.10498, 271.57031, 275.72754, 280.8208, 283.00049, 285.18018, 290.47998, 293.60889, 298.31543, 303.40869, 305.87402, 312.37793, 317.47119, 319.65088, 323.80811, 328.90137, 331.3667, 335.9458, 339.07471, " y="1187, ">
				element and all of its children which are
		</text>
		<text fill="gray" font-size="9" font-family="Segoe UI" x="186, 193.75195, 198.33105, 203.42432, 208.72412, 213.30322, 216.35303, 221.62646, 224.75537, 229.11035, " y="1199, ">
				mandatory.
		</text>
		<rect fill="white" x="223" y="30" width="143" height="16"/>
		<text font-size="12" font-weight="600" font-family="Segoe UI" x="223, 228.75977, 236.0957, 247.08789, 258.08008, 265.41602, 272.67578, 279.68945, 287.02539, 296.53516, 303.02734, 307.80273, 316, 320.66992, 325.33984, 330.16211, 333.57227, 341.01367, 348.27344, 352.89648, 359.38867, " y="43, ">
				commonPowerAttributes
		</text>
		<rect fill="white" x="201" y="30" width="20" height="16"/>
		<text fill="gray" font-size="12" font-family="Segoe UI" x="201, 208.06641, 212.23828, " y="43, ">
				grp
		</text>
		<path fill="none" stroke="gray" stroke-width="1" stroke-linecap="square" stroke-miterlimit="4" transform="translate(0.5 0.5)" d="M181 47L181 1150L372 1150L372 47L372 47"/>
		<path fill="none" stroke="black" stroke-width="1" stroke-linecap="square" stroke-miterlimit="4" transform="translate(0.5 0.5)" d="M372 47L372 28L181 28L181 47"/>
		<rect x="186" y="33" width="11" height="11"/>
		<rect fill="white" x="187" y="34" width="9" height="9"/>
		<rect x="188" y="38" width="7" height="1"/>
		<rect fill="silver" x="193" y="61" width="52" height="21"/>
		<rect fill="white" x="189" y="57" width="52" height="21"/>
		<rect fill="white" x="194" y="84" width="101" height="24"/>
		<text fill="gray" font-size="9" font-family="Segoe UI" x="194, 198.71533, 203.80859, 208.51514, 210.98047, 213.16016, 218.43359, 222.59082, 227.16992, 229.34961, 231.81494, 233.99463, 239.29443, 244.00098, 249.09424, 252.14404, 254.32373, 257.14062, 259.32031, 264.02686, 267.15576, 269.62109, 274.89453, 277.71143, 280.17676, 283.22656, 288.31982, " y="94, ">
				The local identifier of the
		</text>
		<text fill="gray" font-size="9" font-family="Segoe UI" x="194, 199.29102, 202.41992, 207.69336, 212.98438, 217.69092, 220.81982, 223.86963, 228.22461, " y="106, ">
				property.
		</text>
		<rect fill="white" x="198" y="59" width="36" height="16"/>
		<text font-size="12" font-weight="600" font-family="Segoe UI" x="198, 201.41016, " y="72, ">
				id
		</text>
		<rect fill="none" stroke="black" stroke-width="1" stroke-linecap="square" stroke-miterlimit="4" transform="translate(0.5 0.5)" x="189" y="57" width="51" height="20"/>
		<rect fill="silver" x="193" y="119" width="58" height="21"/>
		<rect fill="white" x="189" y="115" width="58" height="21"/>
		<rect fill="white" x="194" y="142" width="121" height="120"/>
		<text fill="gray" font-size="9" font-family="Segoe UI" x="194, 196.39502, 199.21191, 201.67725, 204.72705, 209.82031, 214.52686, 216.99219, 222.2832, 225.41211, 230.68555, 235.97656, 240.68311, 243.81201, 246.86182, 251.2168, 253.68213, 257.99316, 262.57227, 264.75195, 269.84521, 274.55176, 277.01709, 279.19678, 283.01562, 285.48096, 290.57422, 295.84766, " y="152, ">
				If the property value is not
		</text>
		<text fill="gray" font-size="9" font-family="Segoe UI" x="194, 199.2998, 204.00635, 206.82324, 209.00293, 214.09619, 218.80273, 224.10254, 226.05371, 228.51904, 232.33789, 237.62891, 242.33545, 246.49268, 248.67236, 251.48926, 253.66895, 258.37549, 262.19434, 264.65967, 271.16357, 276.25684, 278.43652, 282.59375, 287.68701, 290.15234, 294.85889, 299.95215, 303.00195, 305.18164, 308.23145, " y="164, ">
				defined, specifies which entity
		</text>
		<text fill="gray" font-size="9" font-family="Segoe UI" x="194, 196.71582, 202.00684, 206.71338, 209.84229, 213.66113, 218.93457, 224.02783, 225.979, 228.44434, 233.71777, 236.84668, 242.14648, 246.72559, 251.81885, 253.99854, 257.81738, 262.39648, 265.44629, 267.62598, 272.89941, 277.99268, 280.45801, 285.73145, " y="176, ">
				(person, organisation or
		</text>
		<text fill="gray" font-size="9" font-family="Segoe UI" x="194, 197.81885, 202.17383, 205.99268, 209.04248, 213.74902, 221.50098, 224.2168, 226.68213, 233.18604, 235.36572, 237.54541, 239.7251, 242.19043, 246.89697, 252.19678, 254.37646, 257.42627, 259.8916, 262.94141, 268.03467, 272.74121, 275.20654, 280.49756, 283.62646, 288.8999, 294.19092, 298.89746, 302.02637, 305.07617, " y="188, ">
				system) will edit the property
		</text>
		<text fill="gray" font-size="9" font-family="Segoe UI" x="194, 198.31104, 202.89014, 205.06982, 210.16309, 214.86963, 217.33496, 220.93408, 223.39941, 228.10596, 232.23682, 237.52783, 240.65674, 245.36328, 249.18213, 253.00098, 257.70752, 263.00732, 265.47266, 270.76367, 275.11865, 277.58398, 282.16309, 284.62842, 291.41357, 296.98584, 302.25928, 307.55908, 312.26562, " y="200, ">
				value - expressed by a QCode.
		</text>
		<text fill="gray" font-size="9" font-family="Segoe UI" x="194, 196.39502, 199.21191, 201.67725, 204.72705, 209.82031, 214.52686, 216.99219, 222.2832, 225.41211, 230.68555, 235.97656, 240.68311, 243.81201, 246.86182, 251.2168, 253.68213, 257.99316, 262.57227, 264.75195, 269.84521, 274.55176, 277.01709, 279.19678, " y="212, ">
				If the property value is
		</text>
		<text fill="gray" font-size="9" font-family="Segoe UI" x="194, 199.2998, 204.00635, 206.82324, 209.00293, 214.09619, 218.80273, 224.10254, 226.05371, 228.51904, 232.33789, 237.62891, 242.33545, 246.49268, 248.67236, 251.48926, 253.66895, 258.37549, 262.19434, 264.65967, 271.16357, 276.25684, 278.43652, 282.59375, 287.68701, 290.15234, 294.85889, 299.95215, 303.00195, 305.18164, 308.23145, " y="224, ">
				defined, specifies which entity
		</text>
		<text fill="gray" font-size="9" font-family="Segoe UI" x="194, 196.71582, 202.00684, 206.71338, 209.84229, 213.66113, 218.93457, 224.02783, 225.979, 228.44434, 233.71777, 236.84668, 242.14648, 246.72559, 251.81885, 253.99854, 257.81738, 262.39648, 265.44629, 267.62598, 272.89941, 277.99268, 280.45801, 285.73145, " y="236, ">
				(person, organisation or
		</text>
		<text fill="gray" font-size="9" font-family="Segoe UI" x="194, 197.81885, 202.17383, 205.99268, 209.04248, 213.74902, 221.50098, 224.2168, 226.68213, 231.77539, 236.35449, 240.17334, 242.63867, 247.34521, 252.64502, 254.82471, 257.87451, 262.58105, 267.88086, 270.34619, 273.396, 278.48926, " y="248, ">
				system) has edited the
		</text>
		<text fill="gray" font-size="9" font-family="Segoe UI" x="194, 199.29102, 202.41992, 207.69336, 212.98438, 217.69092, 220.81982, 223.86963, 228.22461, 230.68994, 235.00098, 239.58008, 241.75977, 246.85303, 251.55957, " y="260, ">
				property value.
		</text>
		<rect fill="white" x="198" y="117" width="42" height="16"/>
		<text font-size="12" font-weight="600" font-family="Segoe UI" x="198, 203.75977, 208.48828, 214.98047, 221.4375, 226.06055, 233.39648, " y="130, ">
				creator
		</text>
		<rect fill="none" stroke="black" stroke-width="1" stroke-linecap="square" stroke-miterlimit="4" transform="translate(0.5 0.5)" x="189" y="115" width="57" height="20"/>
		<rect fill="silver" x="193" y="273" width="73" height="21"/>
		<rect fill="white" x="189" y="269" width="73" height="21"/>
		<rect fill="white" x="194" y="296" width="120" height="108"/>
		<text fill="gray" font-size="9" font-family="Segoe UI" x="194, 196.39502, 199.21191, 201.67725, 204.72705, 209.82031, 214.52686, 216.99219, 222.2832, 225.41211, 230.68555, 235.97656, 240.68311, 243.81201, 246.86182, 251.2168, 253.68213, 257.99316, 262.57227, 264.75195, 269.84521, 274.55176, 277.01709, 279.19678, 283.01562, 285.48096, 290.57422, 295.84766, " y="306, ">
				If the property value is not
		</text>
		<text fill="gray" font-size="9" font-family="Segoe UI" x="194, 199.2998, 204.00635, 206.82324, 209.00293, 214.09619, 218.80273, 224.10254, 226.05371, 228.51904, 232.33789, 237.62891, 242.33545, 246.49268, 248.67236, 251.48926, 253.66895, 258.37549, 262.19434, 264.65967, 271.16357, 276.25684, 278.43652, 282.59375, 287.68701, 290.15234, 294.85889, 299.95215, 303.00195, 305.18164, 308.23145, " y="318, ">
				defined, specifies which entity
		</text>
		<text fill="gray" font-size="9" font-family="Segoe UI" x="194, 196.71582, 202.00684, 206.71338, 209.84229, 213.66113, 218.93457, 224.02783, 225.979, 228.44434, 233.71777, 236.84668, 242.14648, 246.72559, 251.81885, 253.99854, 257.81738, 262.39648, 265.44629, 267.62598, 272.89941, 277.99268, 280.45801, 285.73145, " y="330, ">
				(person, organisation or
		</text>
		<text fill="gray" font-size="9" font-family="Segoe UI" x="194, 197.81885, 202.17383, 205.99268, 209.04248, 213.74902, 221.50098, 224.2168, 226.68213, 233.18604, 235.36572, 237.54541, 239.7251, 242.19043, 246.89697, 252.19678, 254.37646, 257.42627, 259.8916, 262.94141, 268.03467, 272.74121, 275.20654, 280.49756, 283.62646, 288.8999, 294.19092, 298.89746, 302.02637, 305.07617, " y="342, ">
				system) will edit the property
		</text>
		<text fill="gray" font-size="9" font-family="Segoe UI" x="194, 197.59912, 200.06445, 204.771, 208.90186, 214.19287, 217.32178, 222.02832, 225.84717, 229.66602, 234.37256, 239.67236, 242.1377, 247.42871, 251.78369, 254.24902, 258.82812, 261.29346, 267.47656, 272.85986, 275.25488, 277.20605, 279.67139, 282.06641, 284.8833, 287.34863, 290.39844, 295.4917, " y="354, ">
				- expressed by a URI. If the
		</text>
		<text fill="gray" font-size="9" font-family="Segoe UI" x="194, 199.29102, 202.41992, 207.69336, 212.98438, 217.69092, 220.81982, 223.86963, 228.22461, 230.68994, 235.00098, 239.58008, 241.75977, 246.85303, 251.55957, 254.0249, 256.20459, 260.02344, 262.48877, 267.78857, 272.49512, 275.31201, 277.4917, 282.58496, 287.2915, 292.59131, " y="366, ">
				property value is defined,
		</text>
		<text fill="gray" font-size="9" font-family="Segoe UI" x="194, 197.81885, 203.10986, 207.81641, 211.97363, 214.15332, 216.97021, 219.1499, 223.85645, 227.67529, 230.14062, 236.64453, 241.73779, 243.91748, 248.07471, 253.16797, 255.6333, 260.33984, 265.43311, 268.48291, 270.6626, 273.7124, 278.06738, 280.53271, 283.24854, 288.53955, 293.24609, 296.375, 300.19385, 305.46729, 310.56055, " y="378, ">
				specifies which entity (person,
		</text>
		<text fill="gray" font-size="9" font-family="Segoe UI" x="194, 199.27344, 202.40234, 207.70215, 212.28125, 217.37451, 219.5542, 223.37305, 227.95215, 231.00195, 233.18164, 238.45508, 243.54834, 246.01367, 251.28711, 254.41602, 256.88135, 260.7002, 265.05518, 268.87402, 271.92383, 276.63037, 284.38232, 287.09814, 289.56348, 294.65674, 299.23584, " y="390, ">
				organisation or system) has
		</text>
		<text fill="gray" font-size="9" font-family="Segoe UI" x="194, 198.70654, 204.00635, 206.18604, 209.23584, 213.94238, 219.24219, 221.70752, 224.75732, 229.85059, 234.55713, 237.02246, 242.31348, 245.44238, 250.71582, 256.00684, 260.71338, 263.84229, 266.89209, 271.24707, " y="402, ">
				edited the property.
		</text>
		<rect fill="white" x="198" y="271" width="57" height="16"/>
		<text font-size="12" font-weight="600" font-family="Segoe UI" x="198, 203.75977, 208.48828, 214.98047, 221.4375, 226.06055, 233.39648, 238.20703, 245.4668, 250.28906, " y="284, ">
				creatoruri
		</text>
		<rect fill="none" stroke="black" stroke-width="1" stroke-linecap="square" stroke-miterlimit="4" transform="translate(0.5 0.5)" x="189" y="269" width="72" height="20"/>
		<rect fill="silver" x="193" y="415" width="69" height="21"/>
		<rect fill="white" x="189" y="411" width="69" height="21"/>
		<rect fill="white" x="194" y="438" width="119" height="72"/>
		<text fill="gray" font-size="9" font-family="Segoe UI" x="194, 198.71533, 203.80859, 208.51514, 210.98047, 216.28027, 220.85938, 223.90918, 228.61572, 231.08105, 233.79688, 238.37598, 243.46924, 248.76904, 250.72021, 253.18555, 258.45898, 263.75, 266.7998, 268.97949, 274.25293, 279.34619, 283.92529, 286.10498, 288.28467, 292.63965, 294.59082, 297.05615, 300.10596, 305.19922, " y="448, ">
				The date (and, optionally, the
		</text>
		<text fill="gray" font-size="9" font-family="Segoe UI" x="194, 197.0498, 199.22949, 206.98145, 211.68799, 214.40381, 216.86914, 223.37305, 228.46631, 233.17285, 238.26611, 240.73145, 243.78125, 248.87451, 253.58105, 256.04639, 261.3374, 264.46631, 269.73975, 275.03076, 279.7373, 282.86621, 285.91602, 290.271, 292.73633, 299.24023, 303.81934, " y="460, ">
				time) when the property was
		</text>
		<text fill="gray" font-size="9" font-family="Segoe UI" x="194, 196.17969, 200.75879, 204.57764, 207.62744, 210.09277, 217.84473, 223.11816, 228.41797, 230.59766, 233.41455, 235.59424, 240.30078, 245.60059, 247.55176, 250.01709, 254.73242, 259.82568, 264.53223, 266.99756, 269.17725, 274.27051, 276.4502, 279.5, 281.67969, 286.25879, 288.43848, 290.90381, 295.21484, 299.79395, 301.97363, 307.06689, " y="472, ">
				last modified. The initial value
		</text>
		<text fill="gray" font-size="9" font-family="Segoe UI" x="194, 196.17969, 199.99854, 202.46387, 205.51367, 210.60693, 215.31348, 217.77881, 223.07861, 227.65771, 230.70752, 235.41406, 237.87939, 240.59521, 245.17432, 250.26758, 255.56738, 257.51855, 259.98389, 265.25732, 270.54834, 273.59814, 275.77783, 281.05127, 286.14453, 290.72363, 292.90332, 295.08301, 299.43799, " y="484, ">
				is the date (and, optionally,
		</text>
		<text fill="gray" font-size="9" font-family="Segoe UI" x="194, 197.0498, 202.14307, 206.84961, 209.31494, 212.36475, 214.54443, 222.29639, 227.00293, 229.71875, 232.18408, 237.45752, 240.27441, 242.73975, 246.89697, 250.02588, 254.73242, 259.31152, 262.36133, 264.54102, 269.81445, 274.90771, 277.37305, 282.64648, 285.46338, 287.92871, 290.97852, 296.07178, " y="496, ">
				the time) of creation of the
		</text>
		<text fill="gray" font-size="9" font-family="Segoe UI" x="194, 199.29102, 202.41992, 207.69336, 212.98438, 217.69092, 220.81982, 223.86963, 228.22461, " y="508, ">
				property.
		</text>
		<rect fill="white" x="198" y="413" width="53" height="16"/>
		<text font-size="12" font-weight="600" font-family="Segoe UI" x="198, 208.99219, 216.32812, 223.75781, 227.16797, 231.76758, 235.17773, 241.66992, " y="426, ">
				modified
		</text>
		<rect fill="none" stroke="black" stroke-width="1" stroke-linecap="square" stroke-miterlimit="4" transform="translate(0.5 0.5)" x="189" y="411" width="68" height="20"/>
		<rect fill="silver" x="193" y="521" width="59" height="21"/>
		<rect fill="white" x="189" y="517" width="59" height="21"/>
		<rect fill="white" x="194" y="544" width="118" height="108"/>
		<text fill="gray" font-size="9" font-family="Segoe UI" x="194, 196.39502, 199.21191, 201.67725, 205.49609, 210.20264, 213.25244, 215.71777, 218.76758, 224.04102, 226.50635, 229.55615, 232.68506, 237.77832, 242.48486, 244.9502, 248, 253.09326, " y="554, ">
				If set to true the
		</text>
		<text fill="gray" font-size="9" font-family="Segoe UI" x="194, 198.15723, 203.43066, 206.55957, 209.68848, 214.39502, 218.21387, 223.50488, 228.77832, 233.87158, 239.17139, 241.35107, 246.44434, 251.74414, 254.20947, 259.50049, 262.62939, 267.90283, 273.19385, 277.90039, 281.0293, 284.0791, 288.43408, 290.89941, 297.40332, 301.98242, " y="566, ">
				corresponding property was
		</text>
		<text fill="gray" font-size="9" font-family="Segoe UI" x="194, 198.5791, 203.87891, 209.17871, 213.88525, 219.18506, 221.65039, 224.7002, 229.97363, 232.43896, 235.48877, 240.58203, 245.28857, 247.75391, 253.92822, 258.77979, 261.24512, 263.64014, 266.68994, 271.39648, 279.14844, 281.61377, 284.43066, 289.7041, 292.83301, 295.29834, " y="578, ">
				added to the G2 Item for a
		</text>
		<text fill="gray" font-size="9" font-family="Segoe UI" x="194, 197.81885, 203.10986, 207.81641, 211.97363, 214.15332, 216.97021, 219.1499, 223.30713, 225.77246, 229.92969, 235.02295, 238.8418, 241.8916, 247.16504, 254.91699, 259.62354, 262.75244, 265.21777, 270.49121, 273.62012, 276.08545, 281.38525, 284.51416, 289.7876, 294.88086, 300.17188, 302.63721, 307.91064, " y="590, ">
				specific customer or group of
		</text>
		<text fill="gray" font-size="9" font-family="Segoe UI" x="194, 198.15723, 203.25049, 207.06934, 210.11914, 215.39258, 223.14453, 227.85107, 230.97998, 234.79883, 237.26416, 242.5376, 247.63086, 249.81055, 254.16553, 256.1167, 258.58203, 263.29736, 268.39062, 273.09717, 275.5625, 280.8623, 285.56885, 288.38574, 292.96484, 298.05811, 300.23779, " y="602, ">
				customers only. The default
		</text>
		<text fill="gray" font-size="9" font-family="Segoe UI" x="194, 198.31104, 202.89014, 205.06982, 210.16309, 214.86963, 217.33496, 222.6084, 225.42529, 227.89062, 230.94043, 236.03369, 238.21338, 242.03223, 244.49756, 249.78857, 252.91748, 258.19092, 263.48193, 268.18848, 271.31738, 274.36719, 278.72217, 281.1875, 283.36719, 287.18604, 289.65137, 292.46826, 297.04736, 299.22705, 303.0459, " y="614, ">
				value of this property is false
		</text>
		<text fill="gray" font-size="9" font-family="Segoe UI" x="194, 200.50391, 205.59717, 207.77686, 211.93408, 217.02734, 219.49268, 224.07178, 229.36279, 234.65381, 236.8335, 239.01318, 243.71973, 247.53857, 250.00391, 256.50781, 261.60107, 266.30762, 271.40088, 273.86621, 276.91602, 282.00928, 284.18896, " y="626, ">
				which applies when this
		</text>
		<text fill="gray" font-size="9" font-family="Segoe UI" x="194, 198.5791, 201.62891, 204.67871, 207.80762, 209.9873, 215.27832, 220.37158, 223.42139, 228.12793, 230.59326, 232.77295, 236.5918, 239.05713, 244.15039, 249.42383, 252.47363, 254.93896, 260.03223, 263.85107, 268.55762, 273.85742, 276.32275, 282.82666, 285.00635, 288.05615, 293.14941, 295.61475, 298.66455, 303.75781, " y="638, ">
				attribute is not used with the
		</text>
		<text fill="gray" font-size="9" font-family="Segoe UI" x="194, 199.29102, 202.41992, 207.69336, 212.98438, 217.69092, 220.81982, 223.86963, 228.22461, " y="650, ">
				property.
		</text>
		<rect fill="white" x="198" y="519" width="43" height="16"/>
		<text font-size="12" font-weight="600" font-family="Segoe UI" x="198, 203.75977, 211.01953, 216.29883, 220.92188, 228.25781, " y="532, ">
				custom
		</text>
		<rect fill="none" stroke="black" stroke-width="1" stroke-linecap="square" stroke-miterlimit="4" transform="translate(0.5 0.5)" x="189" y="517" width="58" height="20"/>
		<rect fill="silver" x="193" y="663" width="52" height="21"/>
		<rect fill="white" x="189" y="659" width="52" height="21"/>
		<rect fill="white" x="194" y="686" width="118" height="48"/>
		<text fill="gray" font-size="9" font-family="Segoe UI" x="194, 196.39502, 201.48828, 206.78809, 208.96777, 213.125, 217.7041, 220.75391, 225.46045, 229.2793, 231.74463, 237.03564, 241.39062, 243.85596, 250.35986, 255.45312, 257.63281, 261.79004, 266.8833, 269.34863, 277.10059, 281.80713, 286.38623, 291.47949, 295.29834, 297.76367, 300.81348, 305.90674, " y="696, ">
				Indicates by which means the
		</text>
		<text fill="gray" font-size="9" font-family="Segoe UI" x="194, 198.31104, 202.89014, 205.06982, 210.16309, 214.86963, 217.33496, 223.83887, 228.41797, 232.23682, 234.70215, 239.40869, 243.53955, 246.58936, 249.71826, 254.29736, 258.45459, 261.50439, 266.21094, 271.51074, 273.97607, 276.79297, 279.92188, 285.19531, 292.94727, 295.4126, 298.4624, 303.55566, " y="708, ">
				value was extracted from the
		</text>
		<text fill="gray" font-size="9" font-family="Segoe UI" x="194, 198.15723, 203.43066, 208.52393, 211.57373, 216.28027, 221.37354, 224.42334, 226.88867, 230.48779, 232.95312, 237.65967, 241.79053, 247.08154, 250.21045, 254.91699, 258.73584, 262.55469, 267.26123, 272.56104, 275.02637, 280.31738, 284.67236, 287.1377, " y="720, ">
				content - expressed by a
		</text>
		<text fill="gray" font-size="9" font-family="Segoe UI" x="194, 200.78516, 206.35742, 211.63086, 216.93066, " y="732, ">
				QCode
		</text>
		<rect fill="white" x="198" y="661" width="36" height="16"/>
		<text font-size="12" font-weight="600" font-family="Segoe UI" x="198, 205.22461, 212.56055, " y="674, ">
				how
		</text>
		<rect fill="none" stroke="black" stroke-width="1" stroke-linecap="square" stroke-miterlimit="4" transform="translate(0.5 0.5)" x="189" y="659" width="51" height="20"/>
		<rect fill="silver" x="193" y="745" width="57" height="21"/>
		<rect fill="white" x="189" y="741" width="57" height="21"/>
		<rect fill="white" x="194" y="768" width="118" height="36"/>
		<text fill="gray" font-size="9" font-family="Segoe UI" x="194, 196.39502, 201.48828, 206.78809, 208.96777, 213.125, 217.7041, 220.75391, 225.46045, 229.2793, 231.74463, 237.03564, 241.39062, 243.85596, 250.35986, 255.45312, 257.63281, 261.79004, 266.8833, 269.34863, 277.10059, 281.80713, 286.38623, 291.47949, 295.29834, 297.76367, 300.81348, 305.90674, " y="778, ">
				Indicates by which means the
		</text>
		<text fill="gray" font-size="9" font-family="Segoe UI" x="194, 198.31104, 202.89014, 205.06982, 210.16309, 214.86963, 217.33496, 223.83887, 228.41797, 232.23682, 234.70215, 239.40869, 243.53955, 246.58936, 249.71826, 254.29736, 258.45459, 261.50439, 266.21094, 271.51074, 273.97607, 276.79297, 279.92188, 285.19531, 292.94727, 295.4126, 298.4624, 303.55566, " y="790, ">
				value was extracted from the
		</text>
		<text fill="gray" font-size="9" font-family="Segoe UI" x="194, 198.15723, 203.43066, 208.52393, 211.57373, 216.28027, 221.37354, 224.42334, 226.88867, 230.48779, 232.95312, 237.65967, 241.79053, 247.08154, 250.21045, 254.91699, 258.73584, 262.55469, 267.26123, 272.56104, 275.02637, 280.31738, 284.67236, 287.1377, 291.7168, 294.18213, 300.36523, 305.74854, " y="802, ">
				content - expressed by a URI
		</text>
		<rect fill="white" x="198" y="743" width="41" height="16"/>
		<text font-size="12" font-weight="600" font-family="Segoe UI" x="198, 205.22461, 212.56055, 222.12891, 229.38867, 234.21094, " y="756, ">
				howuri
		</text>
		<rect fill="none" stroke="black" stroke-width="1" stroke-linecap="square" stroke-miterlimit="4" transform="translate(0.5 0.5)" x="189" y="741" width="56" height="20"/>
		<rect fill="silver" x="193" y="815" width="52" height="21"/>
		<rect fill="white" x="189" y="811" width="52" height="21"/>
		<rect fill="white" x="194" y="838" width="113" height="36"/>
		<text fill="gray" font-size="9" font-family="Segoe UI" x="194, 202.40674, 207.5, 211.85498, 214.32031, 217.37012, 222.46338, 227.16992, 229.63525, 237.38721, 242.09375, 245.14355, 249.72266, 255.02246, 259.60156, 262.65137, 267.23047, 269.6958, 274.78906, 279.36816, 283.18701, 285.65234, 290.94336, 295.6499, 300.35645, " y="848, ">
				Why the metadata has been
		</text>
		<text fill="gray" font-size="9" font-family="Segoe UI" x="194, 196.17969, 201.27295, 205.43018, 207.60986, 212.70312, 218.00293, 222.70947, 228.00928, 230.47461, 234.07373, 236.53906, 241.24561, 245.37646, 250.66748, 253.79639, 258.50293, 262.32178, 266.14062, 270.84717, 276.14697, 278.6123, 283.90332, 288.2583, 290.72363, " y="860, ">
				included - expressed by a
		</text>
		<text fill="gray" font-size="9" font-family="Segoe UI" x="194, 200.78516, 206.35742, 211.63086, 216.93066, " y="872, ">
				QCode
		</text>
		<rect fill="white" x="198" y="813" width="36" height="16"/>
		<text font-size="12" font-weight="600" font-family="Segoe UI" x="198, 207.56836, 214.79297, " y="826, ">
				why
		</text>
		<rect fill="none" stroke="black" stroke-width="1" stroke-linecap="square" stroke-miterlimit="4" transform="translate(0.5 0.5)" x="189" y="811" width="51" height="20"/>
		<rect fill="silver" x="193" y="885" width="56" height="21"/>
		<rect fill="white" x="189" y="881" width="56" height="21"/>
		<rect fill="white" x="194" y="908" width="119" height="24"/>
		<text fill="gray" font-size="9" font-family="Segoe UI" x="194, 202.40674, 207.5, 211.85498, 214.32031, 217.37012, 222.46338, 227.16992, 229.63525, 237.38721, 242.09375, 245.14355, 249.72266, 255.02246, 259.60156, 262.65137, 267.23047, 269.6958, 274.78906, 279.36816, 283.18701, 285.65234, 290.94336, 295.6499, 300.35645, " y="918, ">
				Why the metadata has been
		</text>
		<text fill="gray" font-size="9" font-family="Segoe UI" x="194, 196.17969, 201.27295, 205.43018, 207.60986, 212.70312, 218.00293, 222.70947, 228.00928, 230.47461, 234.07373, 236.53906, 241.24561, 245.37646, 250.66748, 253.79639, 258.50293, 262.32178, 266.14062, 270.84717, 276.14697, 278.6123, 283.90332, 288.2583, 290.72363, 295.30273, 297.76807, 303.95117, 309.33447, " y="930, ">
				included - expressed by a URI
		</text>
		<rect fill="white" x="198" y="883" width="40" height="16"/>
		<text font-size="12" font-weight="600" font-family="Segoe UI" x="198, 207.56836, 214.79297, 221.25, 228.50977, 233.33203, " y="896, ">
				whyuri
		</text>
		<rect fill="none" stroke="black" stroke-width="1" stroke-linecap="square" stroke-miterlimit="4" transform="translate(0.5 0.5)" x="189" y="881" width="55" height="20"/>
		<rect fill="silver" x="193" y="943" width="97" height="21"/>
		<rect fill="white" x="189" y="939" width="97" height="21"/>
		<rect fill="white" x="194" y="966" width="117" height="72"/>
		<text fill="gray" font-size="9" font-family="Segoe UI" x="194, 200.78516, 205.87842, 210.58496, 213.05029, 218.32373, 221.45264, 223.91797, 231.66992, 236.24902, 241.34229, 245.69727, 248.1626, 252.31982, 257.59326, 262.68652, 266.50537, 269.55518, 272.68408, 277.26318, 279.44287, 284.53613, 287.58594, 291.40479, 293.87012, 296.91992, 302.01318, 306.59229, " y="976, ">
				One or many constraints that
		</text>
		<text fill="gray" font-size="9" font-family="Segoe UI" x="194, 198.5791, 203.87012, 209.16113, 211.34082, 215.6958, 218.16113, 221.21094, 226.48438, 228.94971, 234.24072, 239.33398, 244.625, 246.80469, 248.98438, 252.80322, 257.89648, 260.07617, 265.16943, 270.46924, 272.93457, 275.98438, 281.07764, 285.78418, 288.24951, 292.56055, 297.13965, 299.31934, 304.4126, " y="988, ">
				apply to publishing the value
		</text>
		<text fill="gray" font-size="9" font-family="Segoe UI" x="194, 199.27344, 202.09033, 204.55566, 207.60547, 212.69873, 217.40527, 219.87061, 225.16162, 228.29053, 233.56396, 238.85498, 243.56152, 246.69043, 249.74023, 254.09521, 256.56055, 260.15967, 262.625, 267.33154, 271.4624, 276.75342, 279.88232, 284.58887, 288.40771, 292.22656, 296.93311, " y="1000, ">
				of the property - expressed
		</text>
		<text fill="gray" font-size="9" font-family="Segoe UI" x="194, 199.29102, 203.646, 206.11133, 210.69043, 213.15576, 219.94092, 225.51318, 230.78662, 236.08643, 240.79297, 242.74414, 245.20947, 249.76221, 254.34131, 258.49854, 263.5918, 266.05713, 270.21436, 275.48779, 280.58105, 284.3999, 287.44971, 290.57861, 295.15771, 297.3374, 302.43066, " y="1012, ">
				by a QCode. Each constraint
		</text>
		<text fill="gray" font-size="9" font-family="Segoe UI" x="194, 198.5791, 203.87012, 209.16113, 211.34082, 213.52051, 218.22705, 222.0459, 224.51123, 227.56104, 232.83447, 235.2998, 239.87891, 242.05859, 244.23828, 246.70361, 252.00342, 256.70996, 260.52881, 264.68604, 269.39258, 274.48584, 279.78564, 284.36475, 289.45801, " y="1024, ">
				applies to all descendant
		</text>
		<text fill="gray" font-size="9" font-family="Segoe UI" x="194, 198.70654, 200.88623, 205.59277, 213.34473, 218.05127, 223.14453, 226.19434, 230.01318, " y="1036, ">
				elements.
		</text>
		<rect fill="white" x="198" y="941" width="81" height="16"/>
		<text font-size="12" font-weight="600" font-family="Segoe UI" x="198, 205.44141, 212.70117, 220.14258, 225.90234, 233.23828, 240.49805, 245.77734, 250.44727, 255.22266, 261.67969, 265.08984, 272.34961, " y="954, ">
				pubconstraint
		</text>
		<rect fill="none" stroke="black" stroke-width="1" stroke-linecap="square" stroke-miterlimit="4" transform="translate(0.5 0.5)" x="189" y="939" width="96" height="20"/>
		<rect fill="silver" x="193" y="1049" width="112" height="21"/>
		<rect fill="white" x="189" y="1045" width="112" height="21"/>
		<rect fill="white" x="194" y="1072" width="117" height="72"/>
		<text fill="gray" font-size="9" font-family="Segoe UI" x="194, 200.78516, 205.87842, 210.58496, 213.05029, 218.32373, 221.45264, 223.91797, 231.66992, 236.24902, 241.34229, 245.69727, 248.1626, 252.31982, 257.59326, 262.68652, 266.50537, 269.55518, 272.68408, 277.26318, 279.44287, 284.53613, 287.58594, 291.40479, 293.87012, 296.91992, 302.01318, 306.59229, " y="1082, ">
				One or many constraints that
		</text>
		<text fill="gray" font-size="9" font-family="Segoe UI" x="194, 198.5791, 203.87012, 209.16113, 211.34082, 215.6958, 218.16113, 221.21094, 226.48438, 228.94971, 234.24072, 239.33398, 244.625, 246.80469, 248.98438, 252.80322, 257.89648, 260.07617, 265.16943, 270.46924, 272.93457, 275.98438, 281.07764, 285.78418, 288.24951, 292.56055, 297.13965, 299.31934, 304.4126, " y="1094, ">
				apply to publishing the value
		</text>
		<text fill="gray" font-size="9" font-family="Segoe UI" x="194, 199.27344, 202.09033, 204.55566, 207.60547, 212.69873, 217.40527, 219.87061, 225.16162, 228.29053, 233.56396, 238.85498, 243.56152, 246.69043, 249.74023, 254.09521, 256.56055, 260.15967, 262.625, 267.33154, 271.4624, 276.75342, 279.88232, 284.58887, 288.40771, 292.22656, 296.93311, " y="1106, ">
				of the property - expressed
		</text>
		<text fill="gray" font-size="9" font-family="Segoe UI" x="194, 199.29102, 203.646, 206.11133, 210.69043, 213.15576, 219.33887, 224.72217, 227.11719, 229.06836, 231.53369, 236.08643, 240.66553, 244.82275, 249.91602, 252.38135, 256.53857, 261.81201, 266.90527, 270.72412, 273.77393, 276.90283, 281.48193, 283.66162, 288.75488, " y="1118, ">
				by a URI. Each constraint
		</text>
		<text fill="gray" font-size="9" font-family="Segoe UI" x="194, 198.5791, 203.87012, 209.16113, 211.34082, 213.52051, 218.22705, 222.0459, 224.51123, 227.56104, 232.83447, 235.2998, 239.87891, 242.05859, 244.23828, 246.70361, 252.00342, 256.70996, 260.52881, 264.68604, 269.39258, 274.48584, 279.78564, 284.36475, 289.45801, " y="1130, ">
				applies to all descendant
		</text>
		<text fill="gray" font-size="9" font-family="Segoe UI" x="194, 198.70654, 200.88623, 205.59277, 213.34473, 218.05127, 223.14453, 226.19434, 230.01318, " y="1142, ">
				elements.
		</text>
		<rect fill="white" x="198" y="1047" width="96" height="16"/>
		<text font-size="12" font-weight="600" font-family="Segoe UI" x="198, 205.44141, 212.70117, 220.14258, 225.90234, 233.23828, 240.49805, 245.77734, 250.44727, 255.22266, 261.67969, 265.08984, 272.34961, 277.01953, 284.2793, 289.10156, " y="1060, ">
				pubconstrainturi
		</text>
		<rect fill="none" stroke="black" stroke-width="1" stroke-linecap="square" stroke-miterlimit="4" transform="translate(0.5 0.5)" x="189" y="1045" width="111" height="20"/>
		<path fill="silver" d="M185 1217L190 1212L258 1212L263 1217L263 1228L258 1233L190 1233L185 1228L185 1217Z"/>
		<path fill="white" d="M181 1213L186 1208L254 1208L259 1213L259 1224L254 1229L186 1229L181 1224L181 1213Z"/>
		<rect fill="white" x="208" y="1210" width="46" height="16"/>
		<text font-size="12" font-weight="600" font-family="Segoe UI" x="208, 215.10742, 222.21484, 229.55078, 234.2207, 241.44531, 247.9375, " y="1223, ">
				##other
		</text>
		<rect fill="white" x="186" y="1210" width="20" height="16"/>
		<text fill="gray" font-size="12" font-family="Segoe UI" x="186, 192.10547, 198.89648, " y="1223, ">
				any
		</text>
		<path fill="none" stroke="black" stroke-width="1" stroke-linecap="square" stroke-miterlimit="4" transform="translate(0.5 0.5)" d="M181 1213L186 1208L253 1208L258 1213L258 1223L253 1228L186 1228L181 1223L181 1213Z"/>
		<rect x="172" y="5" width="11" height="11"/>
		<rect fill="white" x="173" y="6" width="9" height="9"/>
		<rect x="174" y="10" width="7" height="1"/>
		<rect x="143" y="615" width="11" height="11"/>
		<rect fill="white" x="144" y="616" width="9" height="9"/>
		<rect x="145" y="620" width="7" height="1"/>
	</g>
</svg>
