<?xml version="1.0" encoding="utf-8" ?>
<svg xmlns="http://www.w3.org/2000/svg" xmlns:xlink="http://www.w3.org/1999/xlink" width="390" height="1746">
	<clipPath id="cl_6e9">
		<rect x="-10" y="-5" width="390" height="1746"/>
	</clipPath>
	<g clip-path="url(#cl_6e9)">
		<rect fill="#FFFFC0" x="133" width="237" height="1736"/>
		<rect fill="none" stroke="gray" stroke-width="1" stroke-linecap="square" stroke-miterlimit="4" transform="translate(0.5 0.5)" x="133" width="236" height="1735"/>
		<path fill="none" stroke="black" stroke-width="1" stroke-linecap="square" stroke-miterlimit="4" transform="translate(0.5 0.5)" d="M67 1198L145 1198"/>
		<path fill="none" stroke="black" stroke-width="1" stroke-linecap="square" stroke-miterlimit="4" transform="translate(0.5 0.5)" d="M146 1198L146 794"/>
		<path transform="translate(0.5 0.5)" d="M146.5 1198L146.5 1200L146.5 1200.5L145.5 1200.5L145.5 1200L145.5 1197.5L146.5 1197.5L146.5 1198ZM146.5 1204L146.5 1206L146.5 1206.5L145.5 1206.5L145.5 1206L145.5 1203.5L146.5 1203.5L146.5 1204ZM146.5 1210L146.5 1212L146.5 1212.5L145.5 1212.5L145.5 1212L145.5 1209.5L146.5 1209.5L146.5 1210ZM146.5 1216L146.5 1218L146.5 1218.5L145.5 1218.5L145.5 1218L145.5 1215.5L146.5 1215.5L146.5 1216ZM146.5 1222L146.5 1224L146.5 1224.5L145.5 1224.5L145.5 1224L145.5 1221.5L146.5 1221.5L146.5 1222ZM146.5 1228L146.5 1230L146.5 1230.5L145.5 1230.5L145.5 1230L145.5 1227.5L146.5 1227.5L146.5 1228ZM146.5 1234L146.5 1236L146.5 1236.5L145.5 1236.5L145.5 1236L145.5 1233.5L146.5 1233.5L146.5 1234ZM146.5 1240L146.5 1242L146.5 1242.5L145.5 1242.5L145.5 1242L145.5 1239.5L146.5 1239.5L146.5 1240ZM146.5 1246L146.5 1248L146.5 1248.5L145.5 1248.5L145.5 1248L145.5 1245.5L146.5 1245.5L146.5 1246ZM146.5 1252L146.5 1254L146.5 1254.5L145.5 1254.5L145.5 1254L145.5 1251.5L146.5 1251.5L146.5 1252ZM146.5 1258L146.5 1260L146.5 1260.5L145.5 1260.5L145.5 1260L145.5 1257.5L146.5 1257.5L146.5 1258ZM146.5 1264L146.5 1266L146.5 1266.5L145.5 1266.5L145.5 1266L145.5 1263.5L146.5 1263.5L146.5 1264ZM146.5 1270L146.5 1272L146.5 1272.5L145.5 1272.5L145.5 1272L145.5 1269.5L146.5 1269.5L146.5 1270ZM146.5 1276L146.5 1278L146.5 1278.5L145.5 1278.5L145.5 1278L145.5 1275.5L146.5 1275.5L146.5 1276ZM146.5 1282L146.5 1284L146.5 1284.5L145.5 1284.5L145.5 1284L145.5 1281.5L146.5 1281.5L146.5 1282ZM146.5 1288L146.5 1290L146.5 1290.5L145.5 1290.5L145.5 1290L145.5 1287.5L146.5 1287.5L146.5 1288ZM146.5 1294L146.5 1296L146.5 1296.5L145.5 1296.5L145.5 1296L145.5 1293.5L146.5 1293.5L146.5 1294ZM146.5 1300L146.5 1302L146.5 1302.5L145.5 1302.5L145.5 1302L145.5 1299.5L146.5 1299.5L146.5 1300ZM146.5 1306L146.5 1308L146.5 1308.5L145.5 1308.5L145.5 1308L145.5 1305.5L146.5 1305.5L146.5 1306ZM146.5 1312L146.5 1314L146.5 1314.5L145.5 1314.5L145.5 1314L145.5 1311.5L146.5 1311.5L146.5 1312ZM146.5 1318L146.5 1320L146.5 1320.5L145.5 1320.5L145.5 1320L145.5 1317.5L146.5 1317.5L146.5 1318ZM146.5 1324L146.5 1326L146.5 1326.5L145.5 1326.5L145.5 1326L145.5 1323.5L146.5 1323.5L146.5 1324ZM146.5 1330L146.5 1332L146.5 1332.5L145.5 1332.5L145.5 1332L145.5 1329.5L146.5 1329.5L146.5 1330ZM146.5 1336L146.5 1338L146.5 1338.5L145.5 1338.5L145.5 1338L145.5 1335.5L146.5 1335.5L146.5 1336ZM146.5 1342L146.5 1344L146.5 1344.5L145.5 1344.5L145.5 1344L145.5 1341.5L146.5 1341.5L146.5 1342ZM146.5 1348L146.5 1350L146.5 1350.5L145.5 1350.5L145.5 1350L145.5 1347.5L146.5 1347.5L146.5 1348ZM146.5 1354L146.5 1356L146.5 1356.5L145.5 1356.5L145.5 1356L145.5 1353.5L146.5 1353.5L146.5 1354ZM146.5 1360L146.5 1362L146.5 1362.5L145.5 1362.5L145.5 1362L145.5 1359.5L146.5 1359.5L146.5 1360ZM146.5 1366L146.5 1368L146.5 1368.5L145.5 1368.5L145.5 1368L145.5 1365.5L146.5 1365.5L146.5 1366ZM146.5 1372L146.5 1374L146.5 1374.5L145.5 1374.5L145.5 1374L145.5 1371.5L146.5 1371.5L146.5 1372ZM146.5 1378L146.5 1380L146.5 1380.5L145.5 1380.5L145.5 1380L145.5 1377.5L146.5 1377.5L146.5 1378ZM146.5 1384L146.5 1386L146.5 1386.5L145.5 1386.5L145.5 1386L145.5 1383.5L146.5 1383.5L146.5 1384ZM146.5 1390L146.5 1392L146.5 1392.5L145.5 1392.5L145.5 1392L145.5 1389.5L146.5 1389.5L146.5 1390ZM146.5 1396L146.5 1398L146.5 1398.5L145.5 1398.5L145.5 1398L145.5 1395.5L146.5 1395.5L146.5 1396ZM146.5 1402L146.5 1404L146.5 1404.5L145.5 1404.5L145.5 1404L145.5 1401.5L146.5 1401.5L146.5 1402ZM146.5 1408L146.5 1410L146.5 1410.5L145.5 1410.5L145.5 1410L145.5 1407.5L146.5 1407.5L146.5 1408ZM146.5 1414L146.5 1416L146.5 1416.5L145.5 1416.5L145.5 1416L145.5 1413.5L146.5 1413.5L146.5 1414ZM146.5 1420L146.5 1422L146.5 1422.5L145.5 1422.5L145.5 1422L145.5 1419.5L146.5 1419.5L146.5 1420ZM146.5 1426L146.5 1428L146.5 1428.5L145.5 1428.5L145.5 1428L145.5 1425.5L146.5 1425.5L146.5 1426ZM146.5 1432L146.5 1434L146.5 1434.5L145.5 1434.5L145.5 1434L145.5 1431.5L146.5 1431.5L146.5 1432ZM146.5 1438L146.5 1440L146.5 1440.5L145.5 1440.5L145.5 1440L145.5 1437.5L146.5 1437.5L146.5 1438ZM146.5 1444L146.5 1446L146.5 1446.5L145.5 1446.5L145.5 1446L145.5 1443.5L146.5 1443.5L146.5 1444ZM146.5 1450L146.5 1452L146.5 1452.5L145.5 1452.5L145.5 1452L145.5 1449.5L146.5 1449.5L146.5 1450ZM146.5 1456L146.5 1458L146.5 1458.5L145.5 1458.5L145.5 1458L145.5 1455.5L146.5 1455.5L146.5 1456ZM146.5 1462L146.5 1464L146.5 1464.5L145.5 1464.5L145.5 1464L145.5 1461.5L146.5 1461.5L146.5 1462ZM146.5 1468L146.5 1470L146.5 1470.5L145.5 1470.5L145.5 1470L145.5 1467.5L146.5 1467.5L146.5 1468ZM146.5 1474L146.5 1476L146.5 1476.5L145.5 1476.5L145.5 1476L145.5 1473.5L146.5 1473.5L146.5 1474ZM146.5 1480L146.5 1482L146.5 1482.5L145.5 1482.5L145.5 1482L145.5 1479.5L146.5 1479.5L146.5 1480ZM146.5 1486L146.5 1488L146.5 1488.5L145.5 1488.5L145.5 1488L145.5 1485.5L146.5 1485.5L146.5 1486ZM146.5 1492L146.5 1494L146.5 1494.5L145.5 1494.5L145.5 1494L145.5 1491.5L146.5 1491.5L146.5 1492ZM146.5 1498L146.5 1500L146.5 1500.5L145.5 1500.5L145.5 1500L145.5 1497.5L146.5 1497.5L146.5 1498ZM146.5 1504L146.5 1506L146.5 1506.5L145.5 1506.5L145.5 1506L145.5 1503.5L146.5 1503.5L146.5 1504ZM146.5 1510L146.5 1512L146.5 1512.5L145.5 1512.5L145.5 1512L145.5 1509.5L146.5 1509.5L146.5 1510ZM146.5 1516L146.5 1518L146.5 1518.5L145.5 1518.5L145.5 1518L145.5 1515.5L146.5 1515.5L146.5 1516ZM146.5 1522L146.5 1524L146.5 1524.5L145.5 1524.5L145.5 1524L145.5 1521.5L146.5 1521.5L146.5 1522ZM146.5 1528L146.5 1530L146.5 1530.5L145.5 1530.5L145.5 1530L145.5 1527.5L146.5 1527.5L146.5 1528ZM146.5 1534L146.5 1536L146.5 1536.5L145.5 1536.5L145.5 1536L145.5 1533.5L146.5 1533.5L146.5 1534ZM146.5 1540L146.5 1542L146.5 1542.5L145.5 1542.5L145.5 1542L145.5 1539.5L146.5 1539.5L146.5 1540ZM146.5 1546L146.5 1548L146.5 1548.5L145.5 1548.5L145.5 1548L145.5 1545.5L146.5 1545.5L146.5 1546ZM146.5 1552L146.5 1554L146.5 1554.5L145.5 1554.5L145.5 1554L145.5 1551.5L146.5 1551.5L146.5 1552ZM146.5 1558L146.5 1560L146.5 1560.5L145.5 1560.5L145.5 1560L145.5 1557.5L146.5 1557.5L146.5 1558ZM146.5 1564L146.5 1566L146.5 1566.5L145.5 1566.5L145.5 1566L145.5 1563.5L146.5 1563.5L146.5 1564ZM146.5 1570L146.5 1572L146.5 1572.5L145.5 1572.5L145.5 1572L145.5 1569.5L146.5 1569.5L146.5 1570ZM146.5 1576L146.5 1578L146.5 1578.5L145.5 1578.5L145.5 1578L145.5 1575.5L146.5 1575.5L146.5 1576ZM146.5 1582L146.5 1584L146.5 1584.5L145.5 1584.5L145.5 1584L145.5 1581.5L146.5 1581.5L146.5 1582ZM146.5 1588L146.5 1590L146.5 1590.5L145.5 1590.5L145.5 1590L145.5 1587.5L146.5 1587.5L146.5 1588ZM146.5 1594L146.5 1596L146.5 1596.5L145.5 1596.5L145.5 1596L145.5 1593.5L146.5 1593.5L146.5 1594ZM146.5 1600L146.5 1602.5L145.5 1602.5L145.5 1599.5L146.5 1599.5L146.5 1600Z"/>
		<path transform="translate(0.5 0.5)" d="M146 1602.5L148 1602.5L148.5 1602.5L148.5 1603.5L148 1603.5L145.5 1603.5L145.5 1602.5L146 1602.5ZM152 1602.5L154 1602.5L154.5 1602.5L154.5 1603.5L154 1603.5L151.5 1603.5L151.5 1602.5L152 1602.5ZM158 1602.5L160.5 1602.5L160.5 1603.5L157.5 1603.5L157.5 1602.5L158 1602.5Z"/>
		<path fill="none" stroke="black" stroke-width="1" stroke-linecap="square" stroke-miterlimit="4" transform="translate(0.5 0.5)" d="M146 793L160 793"/>
		<rect fill="silver" x="4" y="1192" width="62" height="21"/>
		<rect fill="white" y="1188" width="62" height="21"/>
		<rect fill="#FFFFC0" x="141" y="8" width="81" height="16"/>
		<text fill="gray" font-size="12" font-weight="600" font-family="Segoe UI" x="141, 150.09961, 157.35938, 163.81641, 167.22656, 174.59766, 179.32617, 186.66211, 194.10352, 200.5957, 207.05273, 214.49414, " y="21, ">
				QualPropType
		</text>
		<rect fill="white" x="5" y="1215" width="113" height="36"/>
		<text fill="gray" font-size="9" font-family="Segoe UI" x="5, 10.805176, 15.898438, 18.36377, 23.070312, 28.370117, 30.549805, 33.599609, 38.873047, 42.001953, 44.181641, 48.760742, 50.94043, 53.405762, 57.224609, 61.931152, 65.060059, 69.371094, 71.550781, 75.708008, 80.414551, 82.879883, 85.929688, 91.203125, 93.668457, 100.17236, 105.26562, 107.44531, 111.60254, " y="1225, ">
				An editorial service to which
		</text>
		<text fill="gray" font-size="9" font-family="Segoe UI" x="5, 9.5791016, 14.672363, 17.137695, 19.317383, 22.367188, 27.07373, 34.825684, 37.291016, 39.470703, 43.289551, 45.754883, 50.333984, 54.152832, 57.97168, 60.151367, 65.451172, 70.544434, 75.250977, 80.550781, 83.016113, 88.307129, 92.662109, 95.127441, 97.307129, 100.35693, " y="1237, ">
				an item is assigned by its
		</text>
		<text fill="gray" font-size="9" font-family="Segoe UI" x="5, 10.291016, 13.419922, 18.693359, 23.004395, 25.184082, 30.483887, 35.19043, 38.319336, " y="1249, ">
				provider.
		</text>
		<rect fill="white" x="9" y="1190" width="41" height="16"/>
		<text font-size="12" font-weight="600" font-family="Segoe UI" x="9, 14.279297, 20.771484, 26.027344, 32.53125, 35.941406, 41.701172, " y="1203, ">
				service
		</text>
		<rect fill="none" stroke="black" stroke-width="1" stroke-linecap="square" stroke-miterlimit="4" transform="translate(0.5 0.5)" y="1188" width="61" height="20"/>
		<path fill="white" d="M238 55L238 36L161 36L161 55L161 1549L308 1549L308 55L238 55Z"/>
		<rect fill="white" x="181" y="38" width="51" height="16"/>
		<text font-size="12" font-style="italic" font-family="Segoe UI" x="181, 187.50391, 191.38281, 195.26172, 199.5332, 202.63867, 209.14258, 215.83984, 219.73047, 225.57227, " y="51, ">
				attributes
		</text>
		<path fill="none" stroke="black" stroke-width="1" stroke-linecap="square" stroke-miterlimit="4" transform="translate(0.5 0.5)" d="M238 55L238 36L161 36L161 55L161 1549L308 1549L308 55L238 55Z"/>
		<rect fill="silver" x="179" y="68" width="52" height="21"/>
		<rect fill="white" x="175" y="64" width="52" height="21"/>
		<rect fill="white" x="180" y="91" width="101" height="24"/>
		<text fill="gray" font-size="9" font-family="Segoe UI" x="180, 184.71533, 189.80859, 194.51514, 196.98047, 199.16016, 204.43359, 208.59082, 213.16992, 215.34961, 217.81494, 219.99463, 225.29443, 230.00098, 235.09424, 238.14404, 240.32373, 243.14062, 245.32031, 250.02686, 253.15576, 255.62109, 260.89453, 263.71143, 266.17676, 269.22656, 274.31982, " y="101, ">
				The local identifier of the
		</text>
		<text fill="gray" font-size="9" font-family="Segoe UI" x="180, 185.29102, 188.41992, 193.69336, 198.98438, 203.69092, 206.81982, 209.86963, 214.22461, " y="113, ">
				property.
		</text>
		<rect fill="white" x="184" y="66" width="36" height="16"/>
		<text font-size="12" font-weight="600" font-family="Segoe UI" x="184, 187.41016, " y="79, ">
				id
		</text>
		<rect fill="none" stroke="black" stroke-width="1" stroke-linecap="square" stroke-miterlimit="4" transform="translate(0.5 0.5)" x="175" y="64" width="51" height="20"/>
		<rect fill="silver" x="179" y="126" width="58" height="21"/>
		<rect fill="white" x="175" y="122" width="58" height="21"/>
		<rect fill="white" x="180" y="149" width="121" height="120"/>
		<text fill="gray" font-size="9" font-family="Segoe UI" x="180, 182.39502, 185.21191, 187.67725, 190.72705, 195.82031, 200.52686, 202.99219, 208.2832, 211.41211, 216.68555, 221.97656, 226.68311, 229.81201, 232.86182, 237.2168, 239.68213, 243.99316, 248.57227, 250.75195, 255.84521, 260.55176, 263.01709, 265.19678, 269.01562, 271.48096, 276.57422, 281.84766, " y="159, ">
				If the property value is not
		</text>
		<text fill="gray" font-size="9" font-family="Segoe UI" x="180, 185.2998, 190.00635, 192.82324, 195.00293, 200.09619, 204.80273, 210.10254, 212.05371, 214.51904, 218.33789, 223.62891, 228.33545, 232.49268, 234.67236, 237.48926, 239.66895, 244.37549, 248.19434, 250.65967, 257.16357, 262.25684, 264.43652, 268.59375, 273.68701, 276.15234, 280.85889, 285.95215, 289.00195, 291.18164, 294.23145, " y="171, ">
				defined, specifies which entity
		</text>
		<text fill="gray" font-size="9" font-family="Segoe UI" x="180, 182.71582, 188.00684, 192.71338, 195.84229, 199.66113, 204.93457, 210.02783, 211.979, 214.44434, 219.71777, 222.84668, 228.14648, 232.72559, 237.81885, 239.99854, 243.81738, 248.39648, 251.44629, 253.62598, 258.89941, 263.99268, 266.45801, 271.73145, " y="183, ">
				(person, organisation or
		</text>
		<text fill="gray" font-size="9" font-family="Segoe UI" x="180, 183.81885, 188.17383, 191.99268, 195.04248, 199.74902, 207.50098, 210.2168, 212.68213, 219.18604, 221.36572, 223.54541, 225.7251, 228.19043, 232.89697, 238.19678, 240.37646, 243.42627, 245.8916, 248.94141, 254.03467, 258.74121, 261.20654, 266.49756, 269.62646, 274.8999, 280.19092, 284.89746, 288.02637, 291.07617, " y="195, ">
				system) will edit the property
		</text>
		<text fill="gray" font-size="9" font-family="Segoe UI" x="180, 184.31104, 188.89014, 191.06982, 196.16309, 200.86963, 203.33496, 206.93408, 209.39941, 214.10596, 218.23682, 223.52783, 226.65674, 231.36328, 235.18213, 239.00098, 243.70752, 249.00732, 251.47266, 256.76367, 261.11865, 263.58398, 268.16309, 270.62842, 277.41357, 282.98584, 288.25928, 293.55908, 298.26562, " y="207, ">
				value - expressed by a QCode.
		</text>
		<text fill="gray" font-size="9" font-family="Segoe UI" x="180, 182.39502, 185.21191, 187.67725, 190.72705, 195.82031, 200.52686, 202.99219, 208.2832, 211.41211, 216.68555, 221.97656, 226.68311, 229.81201, 232.86182, 237.2168, 239.68213, 243.99316, 248.57227, 250.75195, 255.84521, 260.55176, 263.01709, 265.19678, " y="219, ">
				If the property value is
		</text>
		<text fill="gray" font-size="9" font-family="Segoe UI" x="180, 185.2998, 190.00635, 192.82324, 195.00293, 200.09619, 204.80273, 210.10254, 212.05371, 214.51904, 218.33789, 223.62891, 228.33545, 232.49268, 234.67236, 237.48926, 239.66895, 244.37549, 248.19434, 250.65967, 257.16357, 262.25684, 264.43652, 268.59375, 273.68701, 276.15234, 280.85889, 285.95215, 289.00195, 291.18164, 294.23145, " y="231, ">
				defined, specifies which entity
		</text>
		<text fill="gray" font-size="9" font-family="Segoe UI" x="180, 182.71582, 188.00684, 192.71338, 195.84229, 199.66113, 204.93457, 210.02783, 211.979, 214.44434, 219.71777, 222.84668, 228.14648, 232.72559, 237.81885, 239.99854, 243.81738, 248.39648, 251.44629, 253.62598, 258.89941, 263.99268, 266.45801, 271.73145, " y="243, ">
				(person, organisation or
		</text>
		<text fill="gray" font-size="9" font-family="Segoe UI" x="180, 183.81885, 188.17383, 191.99268, 195.04248, 199.74902, 207.50098, 210.2168, 212.68213, 217.77539, 222.35449, 226.17334, 228.63867, 233.34521, 238.64502, 240.82471, 243.87451, 248.58105, 253.88086, 256.34619, 259.396, 264.48926, " y="255, ">
				system) has edited the
		</text>
		<text fill="gray" font-size="9" font-family="Segoe UI" x="180, 185.29102, 188.41992, 193.69336, 198.98438, 203.69092, 206.81982, 209.86963, 214.22461, 216.68994, 221.00098, 225.58008, 227.75977, 232.85303, 237.55957, " y="267, ">
				property value.
		</text>
		<rect fill="white" x="184" y="124" width="42" height="16"/>
		<text font-size="12" font-weight="600" font-family="Segoe UI" x="184, 189.75977, 194.48828, 200.98047, 207.4375, 212.06055, 219.39648, " y="137, ">
				creator
		</text>
		<rect fill="none" stroke="black" stroke-width="1" stroke-linecap="square" stroke-miterlimit="4" transform="translate(0.5 0.5)" x="175" y="122" width="57" height="20"/>
		<rect fill="silver" x="179" y="280" width="73" height="21"/>
		<rect fill="white" x="175" y="276" width="73" height="21"/>
		<rect fill="white" x="180" y="303" width="120" height="108"/>
		<text fill="gray" font-size="9" font-family="Segoe UI" x="180, 182.39502, 185.21191, 187.67725, 190.72705, 195.82031, 200.52686, 202.99219, 208.2832, 211.41211, 216.68555, 221.97656, 226.68311, 229.81201, 232.86182, 237.2168, 239.68213, 243.99316, 248.57227, 250.75195, 255.84521, 260.55176, 263.01709, 265.19678, 269.01562, 271.48096, 276.57422, 281.84766, " y="313, ">
				If the property value is not
		</text>
		<text fill="gray" font-size="9" font-family="Segoe UI" x="180, 185.2998, 190.00635, 192.82324, 195.00293, 200.09619, 204.80273, 210.10254, 212.05371, 214.51904, 218.33789, 223.62891, 228.33545, 232.49268, 234.67236, 237.48926, 239.66895, 244.37549, 248.19434, 250.65967, 257.16357, 262.25684, 264.43652, 268.59375, 273.68701, 276.15234, 280.85889, 285.95215, 289.00195, 291.18164, 294.23145, " y="325, ">
				defined, specifies which entity
		</text>
		<text fill="gray" font-size="9" font-family="Segoe UI" x="180, 182.71582, 188.00684, 192.71338, 195.84229, 199.66113, 204.93457, 210.02783, 211.979, 214.44434, 219.71777, 222.84668, 228.14648, 232.72559, 237.81885, 239.99854, 243.81738, 248.39648, 251.44629, 253.62598, 258.89941, 263.99268, 266.45801, 271.73145, " y="337, ">
				(person, organisation or
		</text>
		<text fill="gray" font-size="9" font-family="Segoe UI" x="180, 183.81885, 188.17383, 191.99268, 195.04248, 199.74902, 207.50098, 210.2168, 212.68213, 219.18604, 221.36572, 223.54541, 225.7251, 228.19043, 232.89697, 238.19678, 240.37646, 243.42627, 245.8916, 248.94141, 254.03467, 258.74121, 261.20654, 266.49756, 269.62646, 274.8999, 280.19092, 284.89746, 288.02637, 291.07617, " y="349, ">
				system) will edit the property
		</text>
		<text fill="gray" font-size="9" font-family="Segoe UI" x="180, 183.59912, 186.06445, 190.771, 194.90186, 200.19287, 203.32178, 208.02832, 211.84717, 215.66602, 220.37256, 225.67236, 228.1377, 233.42871, 237.78369, 240.24902, 244.82812, 247.29346, 253.47656, 258.85986, 261.25488, 263.20605, 265.67139, 268.06641, 270.8833, 273.34863, 276.39844, 281.4917, " y="361, ">
				- expressed by a URI. If the
		</text>
		<text fill="gray" font-size="9" font-family="Segoe UI" x="180, 185.29102, 188.41992, 193.69336, 198.98438, 203.69092, 206.81982, 209.86963, 214.22461, 216.68994, 221.00098, 225.58008, 227.75977, 232.85303, 237.55957, 240.0249, 242.20459, 246.02344, 248.48877, 253.78857, 258.49512, 261.31201, 263.4917, 268.58496, 273.2915, 278.59131, " y="373, ">
				property value is defined,
		</text>
		<text fill="gray" font-size="9" font-family="Segoe UI" x="180, 183.81885, 189.10986, 193.81641, 197.97363, 200.15332, 202.97021, 205.1499, 209.85645, 213.67529, 216.14062, 222.64453, 227.73779, 229.91748, 234.07471, 239.16797, 241.6333, 246.33984, 251.43311, 254.48291, 256.6626, 259.7124, 264.06738, 266.53271, 269.24854, 274.53955, 279.24609, 282.375, 286.19385, 291.46729, 296.56055, " y="385, ">
				specifies which entity (person,
		</text>
		<text fill="gray" font-size="9" font-family="Segoe UI" x="180, 185.27344, 188.40234, 193.70215, 198.28125, 203.37451, 205.5542, 209.37305, 213.95215, 217.00195, 219.18164, 224.45508, 229.54834, 232.01367, 237.28711, 240.41602, 242.88135, 246.7002, 251.05518, 254.87402, 257.92383, 262.63037, 270.38232, 273.09814, 275.56348, 280.65674, 285.23584, " y="397, ">
				organisation or system) has
		</text>
		<text fill="gray" font-size="9" font-family="Segoe UI" x="180, 184.70654, 190.00635, 192.18604, 195.23584, 199.94238, 205.24219, 207.70752, 210.75732, 215.85059, 220.55713, 223.02246, 228.31348, 231.44238, 236.71582, 242.00684, 246.71338, 249.84229, 252.89209, 257.24707, " y="409, ">
				edited the property.
		</text>
		<rect fill="white" x="184" y="278" width="57" height="16"/>
		<text font-size="12" font-weight="600" font-family="Segoe UI" x="184, 189.75977, 194.48828, 200.98047, 207.4375, 212.06055, 219.39648, 224.20703, 231.4668, 236.28906, " y="291, ">
				creatoruri
		</text>
		<rect fill="none" stroke="black" stroke-width="1" stroke-linecap="square" stroke-miterlimit="4" transform="translate(0.5 0.5)" x="175" y="276" width="72" height="20"/>
		<rect fill="silver" x="179" y="422" width="69" height="21"/>
		<rect fill="white" x="175" y="418" width="69" height="21"/>
		<rect fill="white" x="180" y="445" width="119" height="72"/>
		<text fill="gray" font-size="9" font-family="Segoe UI" x="180, 184.71533, 189.80859, 194.51514, 196.98047, 202.28027, 206.85938, 209.90918, 214.61572, 217.08105, 219.79688, 224.37598, 229.46924, 234.76904, 236.72021, 239.18555, 244.45898, 249.75, 252.7998, 254.97949, 260.25293, 265.34619, 269.92529, 272.10498, 274.28467, 278.63965, 280.59082, 283.05615, 286.10596, 291.19922, " y="455, ">
				The date (and, optionally, the
		</text>
		<text fill="gray" font-size="9" font-family="Segoe UI" x="180, 183.0498, 185.22949, 192.98145, 197.68799, 200.40381, 202.86914, 209.37305, 214.46631, 219.17285, 224.26611, 226.73145, 229.78125, 234.87451, 239.58105, 242.04639, 247.3374, 250.46631, 255.73975, 261.03076, 265.7373, 268.86621, 271.91602, 276.271, 278.73633, 285.24023, 289.81934, " y="467, ">
				time) when the property was
		</text>
		<text fill="gray" font-size="9" font-family="Segoe UI" x="180, 182.17969, 186.75879, 190.57764, 193.62744, 196.09277, 203.84473, 209.11816, 214.41797, 216.59766, 219.41455, 221.59424, 226.30078, 231.60059, 233.55176, 236.01709, 240.73242, 245.82568, 250.53223, 252.99756, 255.17725, 260.27051, 262.4502, 265.5, 267.67969, 272.25879, 274.43848, 276.90381, 281.21484, 285.79395, 287.97363, 293.06689, " y="479, ">
				last modified. The initial value
		</text>
		<text fill="gray" font-size="9" font-family="Segoe UI" x="180, 182.17969, 185.99854, 188.46387, 191.51367, 196.60693, 201.31348, 203.77881, 209.07861, 213.65771, 216.70752, 221.41406, 223.87939, 226.59521, 231.17432, 236.26758, 241.56738, 243.51855, 245.98389, 251.25732, 256.54834, 259.59814, 261.77783, 267.05127, 272.14453, 276.72363, 278.90332, 281.08301, 285.43799, " y="491, ">
				is the date (and, optionally,
		</text>
		<text fill="gray" font-size="9" font-family="Segoe UI" x="180, 183.0498, 188.14307, 192.84961, 195.31494, 198.36475, 200.54443, 208.29639, 213.00293, 215.71875, 218.18408, 223.45752, 226.27441, 228.73975, 232.89697, 236.02588, 240.73242, 245.31152, 248.36133, 250.54102, 255.81445, 260.90771, 263.37305, 268.64648, 271.46338, 273.92871, 276.97852, 282.07178, " y="503, ">
				the time) of creation of the
		</text>
		<text fill="gray" font-size="9" font-family="Segoe UI" x="180, 185.29102, 188.41992, 193.69336, 198.98438, 203.69092, 206.81982, 209.86963, 214.22461, " y="515, ">
				property.
		</text>
		<rect fill="white" x="184" y="420" width="53" height="16"/>
		<text font-size="12" font-weight="600" font-family="Segoe UI" x="184, 194.99219, 202.32812, 209.75781, 213.16797, 217.76758, 221.17773, 227.66992, " y="433, ">
				modified
		</text>
		<rect fill="none" stroke="black" stroke-width="1" stroke-linecap="square" stroke-miterlimit="4" transform="translate(0.5 0.5)" x="175" y="418" width="68" height="20"/>
		<rect fill="silver" x="179" y="528" width="59" height="21"/>
		<rect fill="white" x="175" y="524" width="59" height="21"/>
		<rect fill="white" x="180" y="551" width="118" height="108"/>
		<text fill="gray" font-size="9" font-family="Segoe UI" x="180, 182.39502, 185.21191, 187.67725, 191.49609, 196.20264, 199.25244, 201.71777, 204.76758, 210.04102, 212.50635, 215.55615, 218.68506, 223.77832, 228.48486, 230.9502, 234, 239.09326, " y="561, ">
				If set to true the
		</text>
		<text fill="gray" font-size="9" font-family="Segoe UI" x="180, 184.15723, 189.43066, 192.55957, 195.68848, 200.39502, 204.21387, 209.50488, 214.77832, 219.87158, 225.17139, 227.35107, 232.44434, 237.74414, 240.20947, 245.50049, 248.62939, 253.90283, 259.19385, 263.90039, 267.0293, 270.0791, 274.43408, 276.89941, 283.40332, 287.98242, " y="573, ">
				corresponding property was
		</text>
		<text fill="gray" font-size="9" font-family="Segoe UI" x="180, 184.5791, 189.87891, 195.17871, 199.88525, 205.18506, 207.65039, 210.7002, 215.97363, 218.43896, 221.48877, 226.58203, 231.28857, 233.75391, 239.92822, 244.77979, 247.24512, 249.64014, 252.68994, 257.39648, 265.14844, 267.61377, 270.43066, 275.7041, 278.83301, 281.29834, " y="585, ">
				added to the G2 Item for a
		</text>
		<text fill="gray" font-size="9" font-family="Segoe UI" x="180, 183.81885, 189.10986, 193.81641, 197.97363, 200.15332, 202.97021, 205.1499, 209.30713, 211.77246, 215.92969, 221.02295, 224.8418, 227.8916, 233.16504, 240.91699, 245.62354, 248.75244, 251.21777, 256.49121, 259.62012, 262.08545, 267.38525, 270.51416, 275.7876, 280.88086, 286.17188, 288.63721, 293.91064, " y="597, ">
				specific customer or group of
		</text>
		<text fill="gray" font-size="9" font-family="Segoe UI" x="180, 184.15723, 189.25049, 193.06934, 196.11914, 201.39258, 209.14453, 213.85107, 216.97998, 220.79883, 223.26416, 228.5376, 233.63086, 235.81055, 240.16553, 242.1167, 244.58203, 249.29736, 254.39062, 259.09717, 261.5625, 266.8623, 271.56885, 274.38574, 278.96484, 284.05811, 286.23779, " y="609, ">
				customers only. The default
		</text>
		<text fill="gray" font-size="9" font-family="Segoe UI" x="180, 184.31104, 188.89014, 191.06982, 196.16309, 200.86963, 203.33496, 208.6084, 211.42529, 213.89062, 216.94043, 222.03369, 224.21338, 228.03223, 230.49756, 235.78857, 238.91748, 244.19092, 249.48193, 254.18848, 257.31738, 260.36719, 264.72217, 267.1875, 269.36719, 273.18604, 275.65137, 278.46826, 283.04736, 285.22705, 289.0459, " y="621, ">
				value of this property is false
		</text>
		<text fill="gray" font-size="9" font-family="Segoe UI" x="180, 186.50391, 191.59717, 193.77686, 197.93408, 203.02734, 205.49268, 210.07178, 215.36279, 220.65381, 222.8335, 225.01318, 229.71973, 233.53857, 236.00391, 242.50781, 247.60107, 252.30762, 257.40088, 259.86621, 262.91602, 268.00928, 270.18896, " y="633, ">
				which applies when this
		</text>
		<text fill="gray" font-size="9" font-family="Segoe UI" x="180, 184.5791, 187.62891, 190.67871, 193.80762, 195.9873, 201.27832, 206.37158, 209.42139, 214.12793, 216.59326, 218.77295, 222.5918, 225.05713, 230.15039, 235.42383, 238.47363, 240.93896, 246.03223, 249.85107, 254.55762, 259.85742, 262.32275, 268.82666, 271.00635, 274.05615, 279.14941, 281.61475, 284.66455, 289.75781, " y="645, ">
				attribute is not used with the
		</text>
		<text fill="gray" font-size="9" font-family="Segoe UI" x="180, 185.29102, 188.41992, 193.69336, 198.98438, 203.69092, 206.81982, 209.86963, 214.22461, " y="657, ">
				property.
		</text>
		<rect fill="white" x="184" y="526" width="43" height="16"/>
		<text font-size="12" font-weight="600" font-family="Segoe UI" x="184, 189.75977, 197.01953, 202.29883, 206.92188, 214.25781, " y="539, ">
				custom
		</text>
		<rect fill="none" stroke="black" stroke-width="1" stroke-linecap="square" stroke-miterlimit="4" transform="translate(0.5 0.5)" x="175" y="524" width="58" height="20"/>
		<rect fill="silver" x="179" y="670" width="52" height="21"/>
		<rect fill="white" x="175" y="666" width="52" height="21"/>
		<rect fill="white" x="180" y="693" width="118" height="48"/>
		<text fill="gray" font-size="9" font-family="Segoe UI" x="180, 182.39502, 187.48828, 192.78809, 194.96777, 199.125, 203.7041, 206.75391, 211.46045, 215.2793, 217.74463, 223.03564, 227.39062, 229.85596, 236.35986, 241.45312, 243.63281, 247.79004, 252.8833, 255.34863, 263.10059, 267.80713, 272.38623, 277.47949, 281.29834, 283.76367, 286.81348, 291.90674, " y="703, ">
				Indicates by which means the
		</text>
		<text fill="gray" font-size="9" font-family="Segoe UI" x="180, 184.31104, 188.89014, 191.06982, 196.16309, 200.86963, 203.33496, 209.83887, 214.41797, 218.23682, 220.70215, 225.40869, 229.53955, 232.58936, 235.71826, 240.29736, 244.45459, 247.50439, 252.21094, 257.51074, 259.97607, 262.79297, 265.92188, 271.19531, 278.94727, 281.4126, 284.4624, 289.55566, " y="715, ">
				value was extracted from the
		</text>
		<text fill="gray" font-size="9" font-family="Segoe UI" x="180, 184.15723, 189.43066, 194.52393, 197.57373, 202.28027, 207.37354, 210.42334, 212.88867, 216.48779, 218.95312, 223.65967, 227.79053, 233.08154, 236.21045, 240.91699, 244.73584, 248.55469, 253.26123, 258.56104, 261.02637, 266.31738, 270.67236, 273.1377, " y="727, ">
				content - expressed by a
		</text>
		<text fill="gray" font-size="9" font-family="Segoe UI" x="180, 186.78516, 192.35742, 197.63086, 202.93066, " y="739, ">
				QCode
		</text>
		<rect fill="white" x="184" y="668" width="36" height="16"/>
		<text font-size="12" font-weight="600" font-family="Segoe UI" x="184, 191.22461, 198.56055, " y="681, ">
				how
		</text>
		<rect fill="none" stroke="black" stroke-width="1" stroke-linecap="square" stroke-miterlimit="4" transform="translate(0.5 0.5)" x="175" y="666" width="51" height="20"/>
		<rect fill="silver" x="179" y="752" width="57" height="21"/>
		<rect fill="white" x="175" y="748" width="57" height="21"/>
		<rect fill="white" x="180" y="775" width="118" height="36"/>
		<text fill="gray" font-size="9" font-family="Segoe UI" x="180, 182.39502, 187.48828, 192.78809, 194.96777, 199.125, 203.7041, 206.75391, 211.46045, 215.2793, 217.74463, 223.03564, 227.39062, 229.85596, 236.35986, 241.45312, 243.63281, 247.79004, 252.8833, 255.34863, 263.10059, 267.80713, 272.38623, 277.47949, 281.29834, 283.76367, 286.81348, 291.90674, " y="785, ">
				Indicates by which means the
		</text>
		<text fill="gray" font-size="9" font-family="Segoe UI" x="180, 184.31104, 188.89014, 191.06982, 196.16309, 200.86963, 203.33496, 209.83887, 214.41797, 218.23682, 220.70215, 225.40869, 229.53955, 232.58936, 235.71826, 240.29736, 244.45459, 247.50439, 252.21094, 257.51074, 259.97607, 262.79297, 265.92188, 271.19531, 278.94727, 281.4126, 284.4624, 289.55566, " y="797, ">
				value was extracted from the
		</text>
		<text fill="gray" font-size="9" font-family="Segoe UI" x="180, 184.15723, 189.43066, 194.52393, 197.57373, 202.28027, 207.37354, 210.42334, 212.88867, 216.48779, 218.95312, 223.65967, 227.79053, 233.08154, 236.21045, 240.91699, 244.73584, 248.55469, 253.26123, 258.56104, 261.02637, 266.31738, 270.67236, 273.1377, 277.7168, 280.18213, 286.36523, 291.74854, " y="809, ">
				content - expressed by a URI
		</text>
		<rect fill="white" x="184" y="750" width="41" height="16"/>
		<text font-size="12" font-weight="600" font-family="Segoe UI" x="184, 191.22461, 198.56055, 208.12891, 215.38867, 220.21094, " y="763, ">
				howuri
		</text>
		<rect fill="none" stroke="black" stroke-width="1" stroke-linecap="square" stroke-miterlimit="4" transform="translate(0.5 0.5)" x="175" y="748" width="56" height="20"/>
		<rect fill="silver" x="179" y="822" width="52" height="21"/>
		<rect fill="white" x="175" y="818" width="52" height="21"/>
		<rect fill="white" x="180" y="845" width="113" height="36"/>
		<text fill="gray" font-size="9" font-family="Segoe UI" x="180, 188.40674, 193.5, 197.85498, 200.32031, 203.37012, 208.46338, 213.16992, 215.63525, 223.38721, 228.09375, 231.14355, 235.72266, 241.02246, 245.60156, 248.65137, 253.23047, 255.6958, 260.78906, 265.36816, 269.18701, 271.65234, 276.94336, 281.6499, 286.35645, " y="855, ">
				Why the metadata has been
		</text>
		<text fill="gray" font-size="9" font-family="Segoe UI" x="180, 182.17969, 187.27295, 191.43018, 193.60986, 198.70312, 204.00293, 208.70947, 214.00928, 216.47461, 220.07373, 222.53906, 227.24561, 231.37646, 236.66748, 239.79639, 244.50293, 248.32178, 252.14062, 256.84717, 262.14697, 264.6123, 269.90332, 274.2583, 276.72363, " y="867, ">
				included - expressed by a
		</text>
		<text fill="gray" font-size="9" font-family="Segoe UI" x="180, 186.78516, 192.35742, 197.63086, 202.93066, " y="879, ">
				QCode
		</text>
		<rect fill="white" x="184" y="820" width="36" height="16"/>
		<text font-size="12" font-weight="600" font-family="Segoe UI" x="184, 193.56836, 200.79297, " y="833, ">
				why
		</text>
		<rect fill="none" stroke="black" stroke-width="1" stroke-linecap="square" stroke-miterlimit="4" transform="translate(0.5 0.5)" x="175" y="818" width="51" height="20"/>
		<rect fill="silver" x="179" y="892" width="56" height="21"/>
		<rect fill="white" x="175" y="888" width="56" height="21"/>
		<rect fill="white" x="180" y="915" width="119" height="24"/>
		<text fill="gray" font-size="9" font-family="Segoe UI" x="180, 188.40674, 193.5, 197.85498, 200.32031, 203.37012, 208.46338, 213.16992, 215.63525, 223.38721, 228.09375, 231.14355, 235.72266, 241.02246, 245.60156, 248.65137, 253.23047, 255.6958, 260.78906, 265.36816, 269.18701, 271.65234, 276.94336, 281.6499, 286.35645, " y="925, ">
				Why the metadata has been
		</text>
		<text fill="gray" font-size="9" font-family="Segoe UI" x="180, 182.17969, 187.27295, 191.43018, 193.60986, 198.70312, 204.00293, 208.70947, 214.00928, 216.47461, 220.07373, 222.53906, 227.24561, 231.37646, 236.66748, 239.79639, 244.50293, 248.32178, 252.14062, 256.84717, 262.14697, 264.6123, 269.90332, 274.2583, 276.72363, 281.30273, 283.76807, 289.95117, 295.33447, " y="937, ">
				included - expressed by a URI
		</text>
		<rect fill="white" x="184" y="890" width="40" height="16"/>
		<text font-size="12" font-weight="600" font-family="Segoe UI" x="184, 193.56836, 200.79297, 207.25, 214.50977, 219.33203, " y="903, ">
				whyuri
		</text>
		<rect fill="none" stroke="black" stroke-width="1" stroke-linecap="square" stroke-miterlimit="4" transform="translate(0.5 0.5)" x="175" y="888" width="55" height="20"/>
		<rect fill="silver" x="179" y="950" width="97" height="21"/>
		<rect fill="white" x="175" y="946" width="97" height="21"/>
		<rect fill="white" x="180" y="973" width="117" height="72"/>
		<text fill="gray" font-size="9" font-family="Segoe UI" x="180, 186.78516, 191.87842, 196.58496, 199.05029, 204.32373, 207.45264, 209.91797, 217.66992, 222.24902, 227.34229, 231.69727, 234.1626, 238.31982, 243.59326, 248.68652, 252.50537, 255.55518, 258.68408, 263.26318, 265.44287, 270.53613, 273.58594, 277.40479, 279.87012, 282.91992, 288.01318, 292.59229, " y="983, ">
				One or many constraints that
		</text>
		<text fill="gray" font-size="9" font-family="Segoe UI" x="180, 184.5791, 189.87012, 195.16113, 197.34082, 201.6958, 204.16113, 207.21094, 212.48438, 214.94971, 220.24072, 225.33398, 230.625, 232.80469, 234.98438, 238.80322, 243.89648, 246.07617, 251.16943, 256.46924, 258.93457, 261.98438, 267.07764, 271.78418, 274.24951, 278.56055, 283.13965, 285.31934, 290.4126, " y="995, ">
				apply to publishing the value
		</text>
		<text fill="gray" font-size="9" font-family="Segoe UI" x="180, 185.27344, 188.09033, 190.55566, 193.60547, 198.69873, 203.40527, 205.87061, 211.16162, 214.29053, 219.56396, 224.85498, 229.56152, 232.69043, 235.74023, 240.09521, 242.56055, 246.15967, 248.625, 253.33154, 257.4624, 262.75342, 265.88232, 270.58887, 274.40771, 278.22656, 282.93311, " y="1007, ">
				of the property - expressed
		</text>
		<text fill="gray" font-size="9" font-family="Segoe UI" x="180, 185.29102, 189.646, 192.11133, 196.69043, 199.15576, 205.94092, 211.51318, 216.78662, 222.08643, 226.79297, 228.74414, 231.20947, 235.76221, 240.34131, 244.49854, 249.5918, 252.05713, 256.21436, 261.48779, 266.58105, 270.3999, 273.44971, 276.57861, 281.15771, 283.3374, 288.43066, " y="1019, ">
				by a QCode. Each constraint
		</text>
		<text fill="gray" font-size="9" font-family="Segoe UI" x="180, 184.5791, 189.87012, 195.16113, 197.34082, 199.52051, 204.22705, 208.0459, 210.51123, 213.56104, 218.83447, 221.2998, 225.87891, 228.05859, 230.23828, 232.70361, 238.00342, 242.70996, 246.52881, 250.68604, 255.39258, 260.48584, 265.78564, 270.36475, 275.45801, " y="1031, ">
				applies to all descendant
		</text>
		<text fill="gray" font-size="9" font-family="Segoe UI" x="180, 184.70654, 186.88623, 191.59277, 199.34473, 204.05127, 209.14453, 212.19434, 216.01318, " y="1043, ">
				elements.
		</text>
		<rect fill="white" x="184" y="948" width="81" height="16"/>
		<text font-size="12" font-weight="600" font-family="Segoe UI" x="184, 191.44141, 198.70117, 206.14258, 211.90234, 219.23828, 226.49805, 231.77734, 236.44727, 241.22266, 247.67969, 251.08984, 258.34961, " y="961, ">
				pubconstraint
		</text>
		<rect fill="none" stroke="black" stroke-width="1" stroke-linecap="square" stroke-miterlimit="4" transform="translate(0.5 0.5)" x="175" y="946" width="96" height="20"/>
		<rect fill="silver" x="179" y="1056" width="112" height="21"/>
		<rect fill="white" x="175" y="1052" width="112" height="21"/>
		<rect fill="white" x="180" y="1079" width="117" height="72"/>
		<text fill="gray" font-size="9" font-family="Segoe UI" x="180, 186.78516, 191.87842, 196.58496, 199.05029, 204.32373, 207.45264, 209.91797, 217.66992, 222.24902, 227.34229, 231.69727, 234.1626, 238.31982, 243.59326, 248.68652, 252.50537, 255.55518, 258.68408, 263.26318, 265.44287, 270.53613, 273.58594, 277.40479, 279.87012, 282.91992, 288.01318, 292.59229, " y="1089, ">
				One or many constraints that
		</text>
		<text fill="gray" font-size="9" font-family="Segoe UI" x="180, 184.5791, 189.87012, 195.16113, 197.34082, 201.6958, 204.16113, 207.21094, 212.48438, 214.94971, 220.24072, 225.33398, 230.625, 232.80469, 234.98438, 238.80322, 243.89648, 246.07617, 251.16943, 256.46924, 258.93457, 261.98438, 267.07764, 271.78418, 274.24951, 278.56055, 283.13965, 285.31934, 290.4126, " y="1101, ">
				apply to publishing the value
		</text>
		<text fill="gray" font-size="9" font-family="Segoe UI" x="180, 185.27344, 188.09033, 190.55566, 193.60547, 198.69873, 203.40527, 205.87061, 211.16162, 214.29053, 219.56396, 224.85498, 229.56152, 232.69043, 235.74023, 240.09521, 242.56055, 246.15967, 248.625, 253.33154, 257.4624, 262.75342, 265.88232, 270.58887, 274.40771, 278.22656, 282.93311, " y="1113, ">
				of the property - expressed
		</text>
		<text fill="gray" font-size="9" font-family="Segoe UI" x="180, 185.29102, 189.646, 192.11133, 196.69043, 199.15576, 205.33887, 210.72217, 213.11719, 215.06836, 217.53369, 222.08643, 226.66553, 230.82275, 235.91602, 238.38135, 242.53857, 247.81201, 252.90527, 256.72412, 259.77393, 262.90283, 267.48193, 269.66162, 274.75488, " y="1125, ">
				by a URI. Each constraint
		</text>
		<text fill="gray" font-size="9" font-family="Segoe UI" x="180, 184.5791, 189.87012, 195.16113, 197.34082, 199.52051, 204.22705, 208.0459, 210.51123, 213.56104, 218.83447, 221.2998, 225.87891, 228.05859, 230.23828, 232.70361, 238.00342, 242.70996, 246.52881, 250.68604, 255.39258, 260.48584, 265.78564, 270.36475, 275.45801, " y="1137, ">
				applies to all descendant
		</text>
		<text fill="gray" font-size="9" font-family="Segoe UI" x="180, 184.70654, 186.88623, 191.59277, 199.34473, 204.05127, 209.14453, 212.19434, 216.01318, " y="1149, ">
				elements.
		</text>
		<rect fill="white" x="184" y="1054" width="96" height="16"/>
		<text font-size="12" font-weight="600" font-family="Segoe UI" x="184, 191.44141, 198.70117, 206.14258, 211.90234, 219.23828, 226.49805, 231.77734, 236.44727, 241.22266, 247.67969, 251.08984, 258.34961, 263.01953, 270.2793, 275.10156, " y="1067, ">
				pubconstrainturi
		</text>
		<rect fill="none" stroke="black" stroke-width="1" stroke-linecap="square" stroke-miterlimit="4" transform="translate(0.5 0.5)" x="175" y="1052" width="111" height="20"/>
		<rect fill="silver" x="179" y="1162" width="52" height="21"/>
		<rect fill="white" x="175" y="1158" width="52" height="21"/>
		<rect fill="white" x="180" y="1185" width="121" height="72"/>
		<text fill="gray" font-size="9" font-family="Segoe UI" x="180, 185.80518, 188.27051, 192.42773, 197.70117, 202.79443, 206.95166, 211.6582, 216.94922, 219.99902, 222.46436, 224.64404, 229.94385, 234.65039, 239.74365, 242.79346, 244.97314, 247.79004, 249.96973, 254.67627, 257.80518, 260.27051, 264.97705, 269.10791, 274.39893, 277.52783, 282.23438, 286.05322, 289.87207, 294.57861, " y="1195, ">
				A concept identifier expressed
		</text>
		<text fill="gray" font-size="9" font-family="Segoe UI" x="180, 184.5791, 188.39795, 190.86328, 195.44238, 197.90771, 201.72656, 204.77637, 207.90527, 210.08496, 215.17822, 220.47803, 222.94336, 228.2168, 231.03369, 233.49902, 236.54883, 241.64209, 246.34863, 248.81396, 251.63086, 256.9043, 260.0332, 267.78516, 270.25049, 274.06934, 277.88818, 281.70703, 283.6582, 287.81543, 291.97266, 296.12988, " y="1207, ">
				as a string of the form sss:ccc,
		</text>
		<text fill="gray" font-size="9" font-family="Segoe UI" x="180, 186.50391, 191.59717, 196.30371, 199.43262, 204.13916, 206.60449, 210.42334, 214.24219, 218.06104, 220.52637, 222.70605, 226.5249, 228.99023, 233.56934, 236.03467, 239.85352, 244.01074, 249.104, 253.81055, 261.5625, 266.26904, 268.73438, 273.31348, 275.49316, 277.67285, 282.25195, " y="1219, ">
				where sss is a scheme alias
		</text>
		<text fill="gray" font-size="9" font-family="Segoe UI" x="180, 184.5791, 189.67236, 194.97217, 197.4375, 201.59473, 205.75195, 209.90918, 212.37451, 214.5542, 218.37305, 220.83838, 225.41748, 227.88281, 232.04004, 237.31348, 242.61328, 247.31982, 249.271, 251.73633, 256.28906, 258.46875, 261.51855, 266.61182, 271.31836, 274.44727, 276.9126, 279.9624, 285.05566, " y="1231, ">
				and ccc is a code. Either the
		</text>
		<text fill="gray" font-size="9" font-family="Segoe UI" x="180, 185.2998, 189.45703, 194.73047, 200.03027, 204.73682, 207.20215, 212.47559, 215.60449, 218.06982, 221.11963, 226.21289, 230.91943, 233.38477, 238.47803, 241.60693, 243.78662, 246.25195, 250.83105, 253.88086, 256.93066, 260.05957, 262.23926, 267.53027, 272.62354, 275.67334, " y="1243, ">
				qcode or the uri attribute
		</text>
		<text fill="gray" font-size="9" font-family="Segoe UI" x="180, 188.08154, 194.26465, 199.0459, 203.76123, 206.22656, 211.51758, 216.22412, 218.68945, 223.78271, 227.60156, 232.30811, " y="1255, ">
				MUST be used
		</text>
		<rect fill="white" x="184" y="1160" width="36" height="16"/>
		<text font-size="12" font-weight="600" font-family="Segoe UI" x="184, 191.42969, 197.18945, 204.52539, 211.95508, " y="1173, ">
				qcode
		</text>
		<rect fill="none" stroke="black" stroke-width="1" stroke-linecap="square" stroke-miterlimit="4" transform="translate(0.5 0.5)" x="175" y="1158" width="51" height="20"/>
		<rect fill="silver" x="179" y="1268" width="52" height="21"/>
		<rect fill="white" x="175" y="1264" width="52" height="21"/>
		<rect fill="white" x="180" y="1291" width="113" height="48"/>
		<text fill="gray" font-size="9" font-family="Segoe UI" x="180, 185.80518, 188.27051, 194.45361, 199.83691, 202.23193, 204.69727, 211.20117, 216.29443, 218.47412, 222.63135, 227.72461, 230.18994, 232.36963, 237.66943, 242.37598, 247.46924, 250.51904, 252.69873, 255.51562, 257.69531, 262.40186, 266.2207, 268.68604, " y="1301, ">
				A URI which identifies a
		</text>
		<text fill="gray" font-size="9" font-family="Segoe UI" x="180, 184.15723, 189.43066, 194.52393, 198.68115, 203.3877, 208.67871, 211.72852, 216.65918, 220.2583, 222.72363, 227.43018, 229.60986, 232.65967, 237.75293, 242.45947, 245.58838, 248.05371, 251.10352, 256.19678, 260.90332, 265.83398, 271.13379, 275.29102, 280.56445, 285.86426, " y="1313, ">
				concept - either the qcode
		</text>
		<text fill="gray" font-size="9" font-family="Segoe UI" x="180, 185.27344, 188.40234, 190.86768, 193.91748, 199.01074, 203.71729, 206.18262, 211.27588, 214.40479, 216.58447, 219.0498, 223.62891, 226.67871, 229.72852, 232.85742, 235.03711, 240.32812, 245.42139, 248.47119, 253.17773, 255.64307, 263.72461, 269.90771, 274.68896, 279.4043, 281.86963, 287.16064, " y="1325, ">
				or the uri attribute MUST be
		</text>
		<text fill="gray" font-size="9" font-family="Segoe UI" x="180, 185.09326, 188.91211, 193.61865, " y="1337, ">
				used
		</text>
		<rect fill="white" x="184" y="1266" width="36" height="16"/>
		<text font-size="12" font-weight="600" font-family="Segoe UI" x="184, 191.25977, 196.08203, " y="1279, ">
				uri
		</text>
		<rect fill="none" stroke="black" stroke-width="1" stroke-linecap="square" stroke-miterlimit="4" transform="translate(0.5 0.5)" x="175" y="1264" width="51" height="20"/>
		<path fill="silver" d="M179 1355L184 1350L252 1350L257 1355L257 1366L252 1371L184 1371L179 1366L179 1355Z"/>
		<path fill="white" d="M175 1351L180 1346L248 1346L253 1351L253 1362L248 1367L180 1367L175 1362L175 1351Z"/>
		<rect fill="white" x="202" y="1348" width="46" height="16"/>
		<text font-size="12" font-weight="600" font-family="Segoe UI" x="202, 209.10742, 216.21484, 223.55078, 228.2207, 235.44531, 241.9375, " y="1361, ">
				##other
		</text>
		<rect fill="white" x="180" y="1348" width="20" height="16"/>
		<text fill="gray" font-size="12" font-family="Segoe UI" x="180, 186.10547, 192.89648, " y="1361, ">
				any
		</text>
		<path fill="none" stroke="black" stroke-width="1" stroke-linecap="square" stroke-miterlimit="4" transform="translate(0.5 0.5)" d="M175 1351L180 1346L247 1346L252 1351L252 1361L247 1366L180 1366L175 1361L175 1351Z"/>
		<rect fill="silver" x="179" y="1378" width="66" height="21"/>
		<rect fill="white" x="175" y="1374" width="66" height="21"/>
		<rect fill="white" x="180" y="1401" width="121" height="84"/>
		<text fill="gray" font-size="9" font-family="Segoe UI" x="180, 184.78125, 190.07227, 194.77881, 198.93604, 201.11572, 203.93262, 206.1123, 210.81885, 214.6377, 217.10303, 220.15283, 225.24609, 229.95264, 232.41797, 234.59766, 239.17676, 244.27002, 249.56982, 254.66309, 259.24219, 264.54199, 269.24854, 271.71387, 276.9873, 279.8042, 282.26953, 285.31934, 290.4126, 292.59229, " y="1411, ">
				Specifies the language of this
		</text>
		<text fill="gray" font-size="9" font-family="Segoe UI" x="180, 185.29102, 188.41992, 193.69336, 198.98438, 203.69092, 206.81982, 209.86963, 214.22461, 216.68994, 221.26904, 226.3623, 231.66211, 234.12744, 239.41846, 244.69189, 247.7417, 252.44824, 257.5415, 260.59131, 262.771, 267.3501, 269.52979, 271.70947, 276.06445, 278.52979, 283.10889, 285.28857, " y="1423, ">
				property and potentially all
		</text>
		<text fill="gray" font-size="9" font-family="Segoe UI" x="180, 185.2998, 190.00635, 193.8252, 197.98242, 202.68896, 207.78223, 213.08203, 217.66113, 222.75439, 225.8042, 228.26953, 233.56055, 236.68945, 241.96289, 247.25391, 251.96045, 255.08936, 258.13916, 260.31885, 265.02539, 268.84424, " y="1435, ">
				descendant properties.
		</text>
		<text fill="gray" font-size="9" font-family="Segoe UI" x="180, 184.13086, 191.88281, 194.0625, 196.01367, 198.19336, 202.77246, 207.86572, 213.16553, 215.63086, 219.94189, 224.521, 226.70068, 231.79395, 236.50049, 240.31934, 242.78467, 248.05811, 250.875, 253.34033, 258.64014, 263.34668, 267.16553, 271.32275, 276.0293, 281.12256, 286.42236, 291.00146, 296.09473, " y="1447, ">
				xml:lang values of descendant
		</text>
		<text fill="gray" font-size="9" font-family="Segoe UI" x="180, 185.29102, 188.41992, 193.69336, 198.98438, 203.69092, 206.81982, 209.86963, 212.04932, 216.75586, 220.57471, 223.04004, 228.31348, 232.62451, 237.33105, 240.45996, 243.58887, 245.76855, 251.06836, 255.7749, 258.24023, 261.29004, 266.3833, 268.56299, 272.38184, 274.84717, 279.1582, 283.7373, 285.91699, 291.01025, 295.7168, " y="1459, ">
				properties override this value.
		</text>
		<text fill="gray" font-size="9" font-family="Segoe UI" x="180, 184.93066, 189.50977, 191.68945, 196.78271, 201.48926, 205.30811, 207.77344, 212.35254, 215.48145, 220.18799, 222.65332, 227.95312, 232.65967, 235.70947, 240.41602, 243.54492, 251.29688, 253.47656, 258.56982, 263.27637, 268.57617, 271.0415, 276.33252, " y="1471, ">
				Values are determined by
		</text>
		<text fill="gray" font-size="9" font-family="Segoe UI" x="180, 182.39502, 187.48828, 190.53809, 195.24463, 198.37354, 203.4668, 208.17334, 211.22314, 213.68848, 218.84766, 224.41992, 229.46045, 231.92578, 236.77734, 241.62891, " y="1483, ">
				Internet BCP 47.
		</text>
		<rect fill="white" x="184" y="1376" width="50" height="16"/>
		<text font-size="12" font-weight="600" font-family="Segoe UI" x="184, 190.62695, 201.61914, 205.0293, 208.28125, 211.69141, 218.14844, 225.4082, " y="1389, ">
				xml:lang
		</text>
		<path fill="none" stroke="black" stroke-width="2" stroke-miterlimit="4" transform="translate(0.5 0.5)" d="M177 1392L181 1388"/>
		<path fill="none" stroke="black" stroke-width="1" stroke-linecap="square" stroke-miterlimit="4" transform="translate(0.5 0.5)" d="M178 1388L181 1388L181 1391"/>
		<rect fill="none" stroke="black" stroke-width="1" stroke-linecap="square" stroke-miterlimit="4" transform="translate(0.5 0.5)" x="175" y="1374" width="65" height="20"/>
		<rect fill="silver" x="179" y="1496" width="52" height="21"/>
		<rect fill="white" x="175" y="1492" width="52" height="21"/>
		<rect fill="white" x="180" y="1519" width="116" height="24"/>
		<text fill="gray" font-size="9" font-family="Segoe UI" x="180, 184.71533, 189.80859, 194.51514, 196.98047, 202.28027, 204.45996, 207.58887, 212.29541, 216.45264, 219.50244, 221.68213, 226.95557, 232.04883, 236.62793, 238.80762, 240.9873, 244.03711, 248.39209, 250.85742, 256.13086, 258.94775, 261.41309, 264.46289, 269.16943, 273.30029, 276.3501, 281.44336, 286.02246, " y="1529, ">
				The directionality of textual
		</text>
		<text fill="gray" font-size="9" font-family="Segoe UI" x="180, 184.15723, 189.43066, 194.52393, 197.57373, 202.28027, 207.37354, 210.42334, 212.88867, 215.60449, 220.31104, 225.4043, 230.49756, 238.24951, 242.95605, 246.08496, 250.66406, 253.71387, 255.89355, 261.16699, 266.26025, 268.21143, 270.67676, 272.85645, 275.90625, 279.03516, 280.98633, 283.45166, 286.58057, 289.63037, 291.81006, " y="1541, ">
				content (enumeration: ltr, rtl)
		</text>
		<rect fill="white" x="184" y="1494" width="36" height="16"/>
		<text font-size="12" font-weight="600" font-family="Segoe UI" x="184, 191.42969, 194.83984, " y="1507, ">
				dir
		</text>
		<rect fill="none" stroke="black" stroke-width="1" stroke-linecap="square" stroke-miterlimit="4" transform="translate(0.5 0.5)" x="175" y="1492" width="51" height="20"/>
		<rect x="166" y="41" width="11" height="11"/>
		<rect fill="white" x="167" y="42" width="9" height="9"/>
		<rect x="168" y="46" width="7" height="1"/>
		<path fill="none" stroke="black" stroke-width="1" stroke-linecap="square" stroke-miterlimit="4" transform="translate(0.5 0.5)" d="M206 1603L214 1603"/>
		<path fill="none" stroke="black" stroke-width="1" stroke-linecap="square" stroke-miterlimit="4" transform="translate(0.5 0.5)" d="M215 1603L215 1573"/>
		<path fill="none" stroke="black" stroke-width="1" stroke-linecap="square" stroke-miterlimit="4" transform="translate(0.5 0.5)" d="M215 1603L215 1634"/>
		<path fill="none" stroke="black" stroke-width="1" stroke-linecap="square" stroke-miterlimit="4" transform="translate(0.5 0.5)" d="M215 1572L229 1572"/>
		<path fill="none" stroke="black" stroke-width="1" stroke-linecap="square" stroke-miterlimit="4" transform="translate(0.5 0.5)" d="M215 1635L229 1635"/>
		<path fill="silver" d="M168 1605L173 1600L198 1600L203 1605L203 1616L198 1621L173 1621L168 1616L168 1605Z"/>
		<path fill="white" d="M164 1601L169 1596L193 1596L198 1601L198 1611L193 1616L169 1616L164 1611L164 1601Z"/>
		<path transform="translate(0.5 0.5)" d="M167.889 1596.4L168.793 1595.5L169.929 1595.5L170.429 1595.5L170.429 1596.5L169.929 1596.5L169 1596.5L169 1596L169.354 1596.35L168.243 1597.46L167.536 1596.76L167.889 1596.4ZM173.929 1595.5L175.929 1595.5L176.429 1595.5L176.429 1596.5L175.929 1596.5L173.429 1596.5L173.429 1595.5L173.929 1595.5ZM179.929 1595.5L181.929 1595.5L182.429 1595.5L182.429 1596.5L181.929 1596.5L179.429 1596.5L179.429 1595.5L179.929 1595.5ZM185.929 1595.5L187.929 1595.5L188.429 1595.5L188.429 1596.5L187.929 1596.5L185.429 1596.5L185.429 1595.5L185.929 1595.5ZM191.929 1595.5L193.207 1595.5L194.01 1596.3L194.364 1596.66L193.657 1597.36L193.303 1597.01L192.646 1596.35L193 1596L193 1596.5L191.429 1596.5L191.429 1595.5L191.929 1595.5ZM196.839 1599.13L198.253 1600.55L198.607 1600.9L197.899 1601.61L197.546 1601.25L195.778 1599.49L196.485 1598.78L196.839 1599.13ZM198.5 1604.86L198.5 1606.86L198.5 1607.36L197.5 1607.36L197.5 1606.86L197.5 1604.36L198.5 1604.36L198.5 1604.86ZM198.5 1610.86L198.5 1611.21L197.04 1612.67L196.686 1613.02L195.979 1612.31L196.333 1611.96L197.646 1610.65L198 1611L197.5 1611L197.5 1610.36L198.5 1610.36L198.5 1610.86ZM194.211 1615.5L193.207 1616.5L192.213 1616.5L191.713 1616.5L191.713 1615.5L192.213 1615.5L193 1615.5L193 1616L192.646 1615.65L193.858 1614.44L194.565 1615.14L194.211 1615.5ZM188.213 1616.5L186.213 1616.5L185.713 1616.5L185.713 1615.5L186.213 1615.5L188.713 1615.5L188.713 1616.5L188.213 1616.5ZM182.213 1616.5L180.213 1616.5L179.713 1616.5L179.713 1615.5L180.213 1615.5L182.713 1615.5L182.713 1616.5L182.213 1616.5ZM176.213 1616.5L174.213 1616.5L173.713 1616.5L173.713 1615.5L174.213 1615.5L176.713 1615.5L176.713 1616.5L176.213 1616.5ZM170.213 1616.5L168.793 1616.5L168.09 1615.8L167.737 1615.44L168.444 1614.74L168.797 1615.09L169.354 1615.65L169 1616L169 1615.5L170.713 1615.5L170.713 1616.5L170.213 1616.5ZM165.262 1612.97L163.847 1611.55L163.494 1611.2L164.201 1610.49L164.555 1610.85L166.322 1612.62L165.615 1613.32L165.262 1612.97ZM163.5 1607.28L163.5 1605.28L163.5 1604.78L164.5 1604.78L164.5 1605.28L164.5 1607.78L163.5 1607.78L163.5 1607.28ZM163.5 1601.28L163.5 1600.79L165.414 1598.88L166.121 1599.59L164.354 1601.35L164 1601L164.5 1601L164.5 1601.78L163.5 1601.78L163.5 1601.28Z"/>
		<path fill="white" d="M161 1598L166 1593L191 1593L196 1598L196 1609L191 1614L166 1614L161 1609L161 1598Z"/>
		<path fill="none" stroke="black" stroke-width="1" stroke-linecap="square" stroke-miterlimit="4" transform="translate(0.5 0.5)" d="M180 1614L186 1620L189 1617"/>
		<path fill="none" stroke="black" stroke-width="1" stroke-linecap="square" stroke-miterlimit="4" transform="translate(0.5 0.5)" d="M166 1603L171 1603L175 1599"/>
		<path fill="none" stroke="black" stroke-width="1" stroke-linecap="square" stroke-miterlimit="4" transform="translate(0.5 0.5)" d="M181 1603L189 1603"/>
		<path fill="none" stroke="black" stroke-width="1" stroke-linecap="square" stroke-miterlimit="4" transform="translate(0.5 0.5)" d="M181 1599L185 1599L185 1607L181 1607"/>
		<rect x="177" y="1598" width="3" height="3"/>
		<rect x="177" y="1602" width="3" height="3"/>
		<rect x="177" y="1606" width="3" height="3"/>
		<text font-size="12" font-family="Segoe UI" x="165.76562, " y="1633, ">
				0
		</text>
		<text font-size="12" font-family="Symbol" x="180.72266, " y="1632, ">
				
		</text>
		<text font-size="12" font-family="Segoe UI" x="173.89844, 176.5, " y="1633, ">
				..
		</text>
		<path transform="translate(0.5 0.5)" d="M164.889 1593.4L165.793 1592.5L166.929 1592.5L167.429 1592.5L167.429 1593.5L166.929 1593.5L166 1593.5L166 1593L166.354 1593.35L165.243 1594.46L164.536 1593.76L164.889 1593.4ZM170.929 1592.5L172.929 1592.5L173.429 1592.5L173.429 1593.5L172.929 1593.5L170.429 1593.5L170.429 1592.5L170.929 1592.5ZM176.929 1592.5L178.929 1592.5L179.429 1592.5L179.429 1593.5L178.929 1593.5L176.429 1593.5L176.429 1592.5L176.929 1592.5ZM182.929 1592.5L184.929 1592.5L185.429 1592.5L185.429 1593.5L184.929 1593.5L182.429 1593.5L182.429 1592.5L182.929 1592.5ZM188.929 1592.5L190.207 1592.5L191.01 1593.3L191.364 1593.66L190.657 1594.36L190.303 1594.01L189.646 1593.35L190 1593L190 1593.5L188.429 1593.5L188.429 1592.5L188.929 1592.5ZM193.839 1596.13L195.253 1597.55L195.607 1597.9L194.899 1598.61L194.546 1598.25L192.778 1596.49L193.485 1595.78L193.839 1596.13ZM195.5 1601.86L195.5 1603.86L195.5 1604.36L194.5 1604.36L194.5 1603.86L194.5 1601.36L195.5 1601.36L195.5 1601.86ZM195.5 1607.86L195.5 1608.21L194.04 1609.67L193.686 1610.02L192.979 1609.31L193.333 1608.96L194.646 1607.65L195 1608L194.5 1608L194.5 1607.36L195.5 1607.36L195.5 1607.86ZM191.211 1612.5L190.207 1613.5L189.213 1613.5L188.713 1613.5L188.713 1612.5L189.213 1612.5L190 1612.5L190 1613L189.646 1612.65L190.858 1611.44L191.565 1612.14L191.211 1612.5ZM185.213 1613.5L183.213 1613.5L182.713 1613.5L182.713 1612.5L183.213 1612.5L185.713 1612.5L185.713 1613.5L185.213 1613.5ZM179.213 1613.5L177.213 1613.5L176.713 1613.5L176.713 1612.5L177.213 1612.5L179.713 1612.5L179.713 1613.5L179.213 1613.5ZM173.213 1613.5L171.213 1613.5L170.713 1613.5L170.713 1612.5L171.213 1612.5L173.713 1612.5L173.713 1613.5L173.213 1613.5ZM167.213 1613.5L165.793 1613.5L165.09 1612.8L164.737 1612.44L165.444 1611.74L165.797 1612.09L166.354 1612.65L166 1613L166 1612.5L167.713 1612.5L167.713 1613.5L167.213 1613.5ZM162.262 1609.97L160.847 1608.55L160.494 1608.2L161.201 1607.49L161.555 1607.85L163.322 1609.62L162.615 1610.32L162.262 1609.97ZM160.5 1604.28L160.5 1602.28L160.5 1601.78L161.5 1601.78L161.5 1602.28L161.5 1604.78L160.5 1604.78L160.5 1604.28ZM160.5 1598.28L160.5 1597.79L162.414 1595.88L163.121 1596.59L161.354 1598.35L161 1598L161.5 1598L161.5 1598.78L160.5 1598.78L160.5 1598.28Z"/>
		<rect fill="silver" x="234" y="1566" width="54" height="21"/>
		<rect fill="white" x="230" y="1562" width="54" height="21"/>
		<rect fill="#FFFFC0" x="235" y="1589" width="115" height="24"/>
		<text fill="gray" font-size="9" font-family="Segoe UI" x="235, 240.80518, 243.27051, 248.36377, 252.94287, 255.99268, 261.08594, 264.21484, 268.79395, 270.97363, 273.43896, 275.61865, 280.19775, 285.29102, 290.59082, 295.68408, 300.26318, 305.56299, 310.26953, 312.73486, 317.82812, 322.40723, 330.15918, 334.86572, 337.33105, 340.14795, 345.42139, " y="1599, ">
				A natural language name for
		</text>
		<text fill="gray" font-size="9" font-family="Segoe UI" x="235, 238.0498, 243.14307, 247.84961, 250.31494, 254.47217, 259.74561, 264.83887, 268.99609, 273.70264, 278.99365, 282.04346, " y="1611, ">
				the concept.
		</text>
		<rect fill="white" x="239" y="1564" width="33" height="16"/>
		<text font-size="12" font-weight="600" font-family="Segoe UI" x="239, 246.25977, 252.7168, 263.70898, " y="1577, ">
				name
		</text>
		<path fill="none" stroke="black" stroke-width="1" stroke-linecap="square" stroke-miterlimit="4" transform="translate(0.5 0.5)" d="M232 1564L237 1564"/>
		<path fill="none" stroke="black" stroke-width="1" stroke-linecap="square" stroke-miterlimit="4" transform="translate(0.5 0.5)" d="M232 1566L236 1566"/>
		<path fill="none" stroke="black" stroke-width="1" stroke-linecap="square" stroke-miterlimit="4" transform="translate(0.5 0.5)" d="M232 1568L236 1568"/>
		<path fill="none" stroke="black" stroke-width="2" stroke-miterlimit="4" transform="translate(0.5 0.5)" d="M232 1580L236 1576"/>
		<path fill="none" stroke="black" stroke-width="1" stroke-linecap="square" stroke-miterlimit="4" transform="translate(0.5 0.5)" d="M233 1576L236 1576L236 1579"/>
		<rect fill="none" stroke="black" stroke-width="1" stroke-linecap="square" stroke-miterlimit="4" transform="translate(0.5 0.5)" x="230" y="1562" width="53" height="20"/>
		<rect x="278" y="1567" width="11" height="11"/>
		<rect fill="white" x="279" y="1568" width="9" height="9"/>
		<rect x="280" y="1572" width="7" height="1"/>
		<rect x="283" y="1569" width="1" height="7"/>
		<rect fill="silver" x="234" y="1629" width="98" height="21"/>
		<rect fill="white" x="230" y="1625" width="98" height="21"/>
		<rect fill="#FFFFC0" x="235" y="1652" width="121" height="72"/>
		<text fill="gray" font-size="9" font-family="Segoe UI" x="235, 240.11963, 244.82617, 250.11719, 253.24609, 257.95264, 261.77148, 266.47803, 271.57129, 274.62109, 278.43994, 280.90527, 283.95508, 289.04834, 293.75488, 296.22021, 301.51123, 306.78467, 310.60352, 312.7832, 315.83301, 318.0127, 323.28613, 328.37939, 330.84473, 336.11816, 338.93506, 341.40039, " y="1662, ">
				Represents the position of a
		</text>
		<text fill="gray" font-size="9" font-family="Segoe UI" x="235, 239.15723, 244.43066, 249.52393, 253.68115, 258.3877, 263.67871, 266.72852, 269.19385, 271.37354, 276.4668, 278.93213, 283.51123, 285.97656, 291.06982, 293.24951, 297.95605, 301.08496, 305.66406, 308.79297, 312.9502, 318.04346, 320.22314, 324.38037, 328.95947, " y="1674, ">
				concept in a hierarchical
		</text>
		<text fill="gray" font-size="9" font-family="Segoe UI" x="235, 238.0498, 242.62891, 246.75977, 252.0332, 257.12646, 262.3999, 270.15186, 274.50684, 276.97217, 280.02197, 283.15088, 287.85742, 292.56396, 295.0293, 300.32031, 304.67529, 307.14062, 311.71973, 314.18506, 318.00391, 322.71045, 328.01025, 333.10352, 337.81006, 342.90332, 347.06055, " y="1686, ">
				taxonomy tree by a sequence
		</text>
		<text fill="gray" font-size="9" font-family="Segoe UI" x="235, 240.27344, 243.09033, 245.55566, 252.34082, 257.91309, 263.18652, 268.48633, 273.19287, 275.6582, 278.70801, 283.98145, 288.45508, 293.16162, 298.25488, 302.07373, 304.53906, 307.66797, 312.37451, 317.66553, 320.79443, 325.50098, 329.31982, 334.02637, 339.11963, 342.16943, 344.34912, 349.44238, " y="1698, ">
				of QCode tokens representing
		</text>
		<text fill="gray" font-size="9" font-family="Segoe UI" x="235, 238.0498, 243.14307, 247.84961, 250.31494, 254.89404, 259.9873, 264.14453, 268.85107, 272.66992, 275.71973, 280.99316, 284.12207, 286.5874, 290.74463, 296.01807, 301.11133, 305.26855, 309.9751, 315.26611, 318.31592, 322.13477, 324.6001, 329.1792, 334.27246, " y="1710, ">
				the ancestor concepts and
		</text>
		<text fill="gray" font-size="9" font-family="Segoe UI" x="235, 238.0498, 243.14307, 245.32275, 249.1416, 251.60693, 255.76416, 261.0376, 266.13086, 270.28809, 274.99463, 280.28564, " y="1722, ">
				this concept
		</text>
		<rect fill="white" x="239" y="1627" width="77" height="16"/>
		<text font-size="12" font-weight="600" font-family="Segoe UI" x="239, 246.22461, 249.63477, 256.12695, 260.90234, 267.35938, 272.08789, 277.84766, 285.07227, 291.5293, 295.33203, 302.5918, 307.19141, " y="1640, ">
				hierarchyInfo
		</text>
		<path fill="none" stroke="black" stroke-width="1" stroke-linecap="square" stroke-miterlimit="4" transform="translate(0.5 0.5)" d="M232 1627L237 1627"/>
		<path fill="none" stroke="black" stroke-width="1" stroke-linecap="square" stroke-miterlimit="4" transform="translate(0.5 0.5)" d="M232 1629L236 1629"/>
		<path fill="none" stroke="black" stroke-width="1" stroke-linecap="square" stroke-miterlimit="4" transform="translate(0.5 0.5)" d="M232 1631L236 1631"/>
		<path fill="none" stroke="black" stroke-width="2" stroke-miterlimit="4" transform="translate(0.5 0.5)" d="M232 1643L236 1639"/>
		<path fill="none" stroke="black" stroke-width="1" stroke-linecap="square" stroke-miterlimit="4" transform="translate(0.5 0.5)" d="M233 1639L236 1639L236 1642"/>
		<rect fill="none" stroke="black" stroke-width="1" stroke-linecap="square" stroke-miterlimit="4" transform="translate(0.5 0.5)" x="230" y="1625" width="97" height="20"/>
		<rect x="322" y="1630" width="11" height="11"/>
		<rect fill="white" x="323" y="1631" width="9" height="9"/>
		<rect x="324" y="1635" width="7" height="1"/>
		<rect x="327" y="1632" width="1" height="7"/>
		<rect x="195" y="1598" width="11" height="11"/>
		<rect fill="white" x="196" y="1599" width="9" height="9"/>
		<rect x="197" y="1603" width="7" height="1"/>
		<rect x="56" y="1193" width="11" height="11"/>
		<rect fill="white" x="57" y="1194" width="9" height="9"/>
		<rect x="58" y="1198" width="7" height="1"/>
	</g>
</svg>
