<?xml version="1.0" encoding="utf-8" ?>
<svg xmlns="http://www.w3.org/2000/svg" xmlns:xlink="http://www.w3.org/1999/xlink" width="391" height="1973">
	<clipPath id="cl_299">
		<rect x="-10" y="-5" width="391" height="1973"/>
	</clipPath>
	<g clip-path="url(#cl_299)">
		<rect fill="#FFFFC0" x="135" width="236" height="1963"/>
		<rect fill="none" stroke="gray" stroke-width="1" stroke-linecap="square" stroke-miterlimit="4" transform="translate(0.5 0.5)" x="135" width="235" height="1962"/>
		<path fill="none" stroke="black" stroke-width="1" stroke-linecap="square" stroke-miterlimit="4" transform="translate(0.5 0.5)" d="M74 1289L147 1289"/>
		<path fill="none" stroke="black" stroke-width="1" stroke-linecap="square" stroke-miterlimit="4" transform="translate(0.5 0.5)" d="M148 1289L148 819"/>
		<path transform="translate(0.5 0.5)" d="M148.5 1289L148.5 1291L148.5 1291.5L147.5 1291.5L147.5 1291L147.5 1288.5L148.5 1288.5L148.5 1289ZM148.5 1295L148.5 1297L148.5 1297.5L147.5 1297.5L147.5 1297L147.5 1294.5L148.5 1294.5L148.5 1295ZM148.5 1301L148.5 1303L148.5 1303.5L147.5 1303.5L147.5 1303L147.5 1300.5L148.5 1300.5L148.5 1301ZM148.5 1307L148.5 1309L148.5 1309.5L147.5 1309.5L147.5 1309L147.5 1306.5L148.5 1306.5L148.5 1307ZM148.5 1313L148.5 1315L148.5 1315.5L147.5 1315.5L147.5 1315L147.5 1312.5L148.5 1312.5L148.5 1313ZM148.5 1319L148.5 1321L148.5 1321.5L147.5 1321.5L147.5 1321L147.5 1318.5L148.5 1318.5L148.5 1319ZM148.5 1325L148.5 1327L148.5 1327.5L147.5 1327.5L147.5 1327L147.5 1324.5L148.5 1324.5L148.5 1325ZM148.5 1331L148.5 1333L148.5 1333.5L147.5 1333.5L147.5 1333L147.5 1330.5L148.5 1330.5L148.5 1331ZM148.5 1337L148.5 1339L148.5 1339.5L147.5 1339.5L147.5 1339L147.5 1336.5L148.5 1336.5L148.5 1337ZM148.5 1343L148.5 1345L148.5 1345.5L147.5 1345.5L147.5 1345L147.5 1342.5L148.5 1342.5L148.5 1343ZM148.5 1349L148.5 1351L148.5 1351.5L147.5 1351.5L147.5 1351L147.5 1348.5L148.5 1348.5L148.5 1349ZM148.5 1355L148.5 1357L148.5 1357.5L147.5 1357.5L147.5 1357L147.5 1354.5L148.5 1354.5L148.5 1355ZM148.5 1361L148.5 1363L148.5 1363.5L147.5 1363.5L147.5 1363L147.5 1360.5L148.5 1360.5L148.5 1361ZM148.5 1367L148.5 1369L148.5 1369.5L147.5 1369.5L147.5 1369L147.5 1366.5L148.5 1366.5L148.5 1367ZM148.5 1373L148.5 1375L148.5 1375.5L147.5 1375.5L147.5 1375L147.5 1372.5L148.5 1372.5L148.5 1373ZM148.5 1379L148.5 1381L148.5 1381.5L147.5 1381.5L147.5 1381L147.5 1378.5L148.5 1378.5L148.5 1379ZM148.5 1385L148.5 1387L148.5 1387.5L147.5 1387.5L147.5 1387L147.5 1384.5L148.5 1384.5L148.5 1385ZM148.5 1391L148.5 1393L148.5 1393.5L147.5 1393.5L147.5 1393L147.5 1390.5L148.5 1390.5L148.5 1391ZM148.5 1397L148.5 1399L148.5 1399.5L147.5 1399.5L147.5 1399L147.5 1396.5L148.5 1396.5L148.5 1397ZM148.5 1403L148.5 1405L148.5 1405.5L147.5 1405.5L147.5 1405L147.5 1402.5L148.5 1402.5L148.5 1403ZM148.5 1409L148.5 1411L148.5 1411.5L147.5 1411.5L147.5 1411L147.5 1408.5L148.5 1408.5L148.5 1409ZM148.5 1415L148.5 1417L148.5 1417.5L147.5 1417.5L147.5 1417L147.5 1414.5L148.5 1414.5L148.5 1415ZM148.5 1421L148.5 1423L148.5 1423.5L147.5 1423.5L147.5 1423L147.5 1420.5L148.5 1420.5L148.5 1421ZM148.5 1427L148.5 1429L148.5 1429.5L147.5 1429.5L147.5 1429L147.5 1426.5L148.5 1426.5L148.5 1427ZM148.5 1433L148.5 1435L148.5 1435.5L147.5 1435.5L147.5 1435L147.5 1432.5L148.5 1432.5L148.5 1433ZM148.5 1439L148.5 1441L148.5 1441.5L147.5 1441.5L147.5 1441L147.5 1438.5L148.5 1438.5L148.5 1439ZM148.5 1445L148.5 1447L148.5 1447.5L147.5 1447.5L147.5 1447L147.5 1444.5L148.5 1444.5L148.5 1445ZM148.5 1451L148.5 1453L148.5 1453.5L147.5 1453.5L147.5 1453L147.5 1450.5L148.5 1450.5L148.5 1451ZM148.5 1457L148.5 1459L148.5 1459.5L147.5 1459.5L147.5 1459L147.5 1456.5L148.5 1456.5L148.5 1457ZM148.5 1463L148.5 1465L148.5 1465.5L147.5 1465.5L147.5 1465L147.5 1462.5L148.5 1462.5L148.5 1463ZM148.5 1469L148.5 1471L148.5 1471.5L147.5 1471.5L147.5 1471L147.5 1468.5L148.5 1468.5L148.5 1469ZM148.5 1475L148.5 1477L148.5 1477.5L147.5 1477.5L147.5 1477L147.5 1474.5L148.5 1474.5L148.5 1475ZM148.5 1481L148.5 1483L148.5 1483.5L147.5 1483.5L147.5 1483L147.5 1480.5L148.5 1480.5L148.5 1481ZM148.5 1487L148.5 1489L148.5 1489.5L147.5 1489.5L147.5 1489L147.5 1486.5L148.5 1486.5L148.5 1487ZM148.5 1493L148.5 1495L148.5 1495.5L147.5 1495.5L147.5 1495L147.5 1492.5L148.5 1492.5L148.5 1493ZM148.5 1499L148.5 1501L148.5 1501.5L147.5 1501.5L147.5 1501L147.5 1498.5L148.5 1498.5L148.5 1499ZM148.5 1505L148.5 1507L148.5 1507.5L147.5 1507.5L147.5 1507L147.5 1504.5L148.5 1504.5L148.5 1505ZM148.5 1511L148.5 1513L148.5 1513.5L147.5 1513.5L147.5 1513L147.5 1510.5L148.5 1510.5L148.5 1511ZM148.5 1517L148.5 1519L148.5 1519.5L147.5 1519.5L147.5 1519L147.5 1516.5L148.5 1516.5L148.5 1517ZM148.5 1523L148.5 1525L148.5 1525.5L147.5 1525.5L147.5 1525L147.5 1522.5L148.5 1522.5L148.5 1523ZM148.5 1529L148.5 1531L148.5 1531.5L147.5 1531.5L147.5 1531L147.5 1528.5L148.5 1528.5L148.5 1529ZM148.5 1535L148.5 1537L148.5 1537.5L147.5 1537.5L147.5 1537L147.5 1534.5L148.5 1534.5L148.5 1535ZM148.5 1541L148.5 1543L148.5 1543.5L147.5 1543.5L147.5 1543L147.5 1540.5L148.5 1540.5L148.5 1541ZM148.5 1547L148.5 1549L148.5 1549.5L147.5 1549.5L147.5 1549L147.5 1546.5L148.5 1546.5L148.5 1547ZM148.5 1553L148.5 1555L148.5 1555.5L147.5 1555.5L147.5 1555L147.5 1552.5L148.5 1552.5L148.5 1553ZM148.5 1559L148.5 1561L148.5 1561.5L147.5 1561.5L147.5 1561L147.5 1558.5L148.5 1558.5L148.5 1559ZM148.5 1565L148.5 1567L148.5 1567.5L147.5 1567.5L147.5 1567L147.5 1564.5L148.5 1564.5L148.5 1565ZM148.5 1571L148.5 1573L148.5 1573.5L147.5 1573.5L147.5 1573L147.5 1570.5L148.5 1570.5L148.5 1571ZM148.5 1577L148.5 1579L148.5 1579.5L147.5 1579.5L147.5 1579L147.5 1576.5L148.5 1576.5L148.5 1577ZM148.5 1583L148.5 1585L148.5 1585.5L147.5 1585.5L147.5 1585L147.5 1582.5L148.5 1582.5L148.5 1583ZM148.5 1589L148.5 1591L148.5 1591.5L147.5 1591.5L147.5 1591L147.5 1588.5L148.5 1588.5L148.5 1589ZM148.5 1595L148.5 1597L148.5 1597.5L147.5 1597.5L147.5 1597L147.5 1594.5L148.5 1594.5L148.5 1595ZM148.5 1601L148.5 1603L148.5 1603.5L147.5 1603.5L147.5 1603L147.5 1600.5L148.5 1600.5L148.5 1601ZM148.5 1607L148.5 1609L148.5 1609.5L147.5 1609.5L147.5 1609L147.5 1606.5L148.5 1606.5L148.5 1607ZM148.5 1613L148.5 1615L148.5 1615.5L147.5 1615.5L147.5 1615L147.5 1612.5L148.5 1612.5L148.5 1613ZM148.5 1619L148.5 1621L148.5 1621.5L147.5 1621.5L147.5 1621L147.5 1618.5L148.5 1618.5L148.5 1619ZM148.5 1625L148.5 1627L148.5 1627.5L147.5 1627.5L147.5 1627L147.5 1624.5L148.5 1624.5L148.5 1625ZM148.5 1631L148.5 1633L148.5 1633.5L147.5 1633.5L147.5 1633L147.5 1630.5L148.5 1630.5L148.5 1631ZM148.5 1637L148.5 1639L148.5 1639.5L147.5 1639.5L147.5 1639L147.5 1636.5L148.5 1636.5L148.5 1637ZM148.5 1643L148.5 1645L148.5 1645.5L147.5 1645.5L147.5 1645L147.5 1642.5L148.5 1642.5L148.5 1643ZM148.5 1649L148.5 1651L148.5 1651.5L147.5 1651.5L147.5 1651L147.5 1648.5L148.5 1648.5L148.5 1649ZM148.5 1655L148.5 1657L148.5 1657.5L147.5 1657.5L147.5 1657L147.5 1654.5L148.5 1654.5L148.5 1655ZM148.5 1661L148.5 1663L148.5 1663.5L147.5 1663.5L147.5 1663L147.5 1660.5L148.5 1660.5L148.5 1661ZM148.5 1667L148.5 1669L148.5 1669.5L147.5 1669.5L147.5 1669L147.5 1666.5L148.5 1666.5L148.5 1667ZM148.5 1673L148.5 1675L148.5 1675.5L147.5 1675.5L147.5 1675L147.5 1672.5L148.5 1672.5L148.5 1673ZM148.5 1679L148.5 1681L148.5 1681.5L147.5 1681.5L147.5 1681L147.5 1678.5L148.5 1678.5L148.5 1679ZM148.5 1685L148.5 1687L148.5 1687.5L147.5 1687.5L147.5 1687L147.5 1684.5L148.5 1684.5L148.5 1685ZM148.5 1691L148.5 1693L148.5 1693.5L147.5 1693.5L147.5 1693L147.5 1690.5L148.5 1690.5L148.5 1691ZM148.5 1697L148.5 1699L148.5 1699.5L147.5 1699.5L147.5 1699L147.5 1696.5L148.5 1696.5L148.5 1697ZM148.5 1703L148.5 1705L148.5 1705.5L147.5 1705.5L147.5 1705L147.5 1702.5L148.5 1702.5L148.5 1703ZM148.5 1709L148.5 1711L148.5 1711.5L147.5 1711.5L147.5 1711L147.5 1708.5L148.5 1708.5L148.5 1709ZM148.5 1715L148.5 1717L148.5 1717.5L147.5 1717.5L147.5 1717L147.5 1714.5L148.5 1714.5L148.5 1715ZM148.5 1721L148.5 1723L148.5 1723.5L147.5 1723.5L147.5 1723L147.5 1720.5L148.5 1720.5L148.5 1721ZM148.5 1727L148.5 1729L148.5 1729.5L147.5 1729.5L147.5 1729L147.5 1726.5L148.5 1726.5L148.5 1727ZM148.5 1733L148.5 1735L148.5 1735.5L147.5 1735.5L147.5 1735L147.5 1732.5L148.5 1732.5L148.5 1733ZM148.5 1739L148.5 1741L148.5 1741.5L147.5 1741.5L147.5 1741L147.5 1738.5L148.5 1738.5L148.5 1739ZM148.5 1745L148.5 1747L148.5 1747.5L147.5 1747.5L147.5 1747L147.5 1744.5L148.5 1744.5L148.5 1745ZM148.5 1751L148.5 1753L148.5 1753.5L147.5 1753.5L147.5 1753L147.5 1750.5L148.5 1750.5L148.5 1751ZM148.5 1757L148.5 1759.5L147.5 1759.5L147.5 1756.5L148.5 1756.5L148.5 1757Z"/>
		<path transform="translate(0.5 0.5)" d="M148 1759.5L150 1759.5L150.5 1759.5L150.5 1760.5L150 1760.5L147.5 1760.5L147.5 1759.5L148 1759.5ZM154 1759.5L156 1759.5L156.5 1759.5L156.5 1760.5L156 1760.5L153.5 1760.5L153.5 1759.5L154 1759.5ZM160 1759.5L162.5 1759.5L162.5 1760.5L159.5 1760.5L159.5 1759.5L160 1759.5Z"/>
		<path fill="none" stroke="black" stroke-width="1" stroke-linecap="square" stroke-miterlimit="4" transform="translate(0.5 0.5)" d="M148 818L162 818"/>
		<rect fill="silver" x="4" y="1283" width="69" height="21"/>
		<rect fill="white" y="1279" width="69" height="21"/>
		<rect fill="#FFFFC0" x="143" y="8" width="65" height="16"/>
		<text fill="gray" font-size="12" font-weight="600" font-family="Segoe UI" x="143, 149.13477, 155.5918, 163.0332, 169.52539, 172.93555, 179.83789, 186.33008, 192.78711, 200.22852, " y="21, ">
				Label1Type
		</text>
		<rect fill="white" x="5" y="1306" width="115" height="36"/>
		<text fill="gray" font-size="9" font-family="Segoe UI" x="5, 8.8364258, 14.109863, 17.159668, 21.73877, 23.918457, 26.383789, 30.541016, 35.120117, 40.411133, 44.990234, 49.147461, 51.327148, 54.376953, 58.731934, 61.197266, 66.470703, 69.287598, 71.75293, 74.802734, 79.895996, 84.602539, 87.067871, 92.358887, 97.632324, 99.812012, 104.90527, 107.95508, 110.42041, 115.69385, " y="1316, ">
				Total capacity of the point of
		</text>
		<text fill="gray" font-size="9" font-family="Segoe UI" x="5, 7.1796875, 12.272949, 15.322754, 20.029297, 23.158203, 27.864746, 31.683594, 34.733398, 37.19873, 41.905273, 46.036133, 51.327148, 54.456055, 59.162598, 62.981445, 66.800293, 71.506836, 76.806641, 79.271973, 81.45166, 86.544922, 89.010254, 94.103516, 98.682617, 101.73242, 106.82568, 109.95459, 114.53369, " y="1328, ">
				interest expressed in natural
		</text>
		<text fill="gray" font-size="9" font-family="Segoe UI" x="5, 7.1796875, 11.758789, 16.852051, 22.151855, 27.245117, 31.824219, 37.124023, " y="1340, ">
				language
		</text>
		<rect fill="white" x="9" y="1281" width="48" height="16"/>
		<text font-size="12" font-weight="600" font-family="Segoe UI" x="9, 14.759766, 21.216797, 28.541016, 34.998047, 40.757812, 44.167969, 48.837891, " y="1294, ">
				capacity
		</text>
		<path fill="none" stroke="black" stroke-width="1" stroke-linecap="square" stroke-miterlimit="4" transform="translate(0.5 0.5)" d="M2 1281L7 1281"/>
		<path fill="none" stroke="black" stroke-width="1" stroke-linecap="square" stroke-miterlimit="4" transform="translate(0.5 0.5)" d="M2 1283L6 1283"/>
		<path fill="none" stroke="black" stroke-width="1" stroke-linecap="square" stroke-miterlimit="4" transform="translate(0.5 0.5)" d="M2 1285L6 1285"/>
		<rect fill="none" stroke="black" stroke-width="1" stroke-linecap="square" stroke-miterlimit="4" transform="translate(0.5 0.5)" y="1279" width="68" height="20"/>
		<path fill="white" d="M240 55L240 36L163 36L163 55L163 1599L310 1599L310 55L240 55Z"/>
		<rect fill="white" x="183" y="38" width="51" height="16"/>
		<text font-size="12" font-style="italic" font-family="Segoe UI" x="183, 189.50391, 193.38281, 197.26172, 201.5332, 204.63867, 211.14258, 217.83984, 221.73047, 227.57227, " y="51, ">
				attributes
		</text>
		<path fill="none" stroke="black" stroke-width="1" stroke-linecap="square" stroke-miterlimit="4" transform="translate(0.5 0.5)" d="M240 55L240 36L163 36L163 55L163 1599L310 1599L310 55L240 55Z"/>
		<rect fill="silver" x="181" y="68" width="52" height="21"/>
		<rect fill="white" x="177" y="64" width="52" height="21"/>
		<rect fill="white" x="182" y="91" width="101" height="24"/>
		<text fill="gray" font-size="9" font-family="Segoe UI" x="182, 186.71533, 191.80859, 196.51514, 198.98047, 201.16016, 206.43359, 210.59082, 215.16992, 217.34961, 219.81494, 221.99463, 227.29443, 232.00098, 237.09424, 240.14404, 242.32373, 245.14062, 247.32031, 252.02686, 255.15576, 257.62109, 262.89453, 265.71143, 268.17676, 271.22656, 276.31982, " y="101, ">
				The local identifier of the
		</text>
		<text fill="gray" font-size="9" font-family="Segoe UI" x="182, 187.29102, 190.41992, 195.69336, 200.98438, 205.69092, 208.81982, 211.86963, 216.22461, " y="113, ">
				property.
		</text>
		<rect fill="white" x="186" y="66" width="36" height="16"/>
		<text font-size="12" font-weight="600" font-family="Segoe UI" x="186, 189.41016, " y="79, ">
				id
		</text>
		<rect fill="none" stroke="black" stroke-width="1" stroke-linecap="square" stroke-miterlimit="4" transform="translate(0.5 0.5)" x="177" y="64" width="51" height="20"/>
		<rect fill="silver" x="181" y="126" width="58" height="21"/>
		<rect fill="white" x="177" y="122" width="58" height="21"/>
		<rect fill="white" x="182" y="149" width="121" height="120"/>
		<text fill="gray" font-size="9" font-family="Segoe UI" x="182, 184.39502, 187.21191, 189.67725, 192.72705, 197.82031, 202.52686, 204.99219, 210.2832, 213.41211, 218.68555, 223.97656, 228.68311, 231.81201, 234.86182, 239.2168, 241.68213, 245.99316, 250.57227, 252.75195, 257.84521, 262.55176, 265.01709, 267.19678, 271.01562, 273.48096, 278.57422, 283.84766, " y="159, ">
				If the property value is not
		</text>
		<text fill="gray" font-size="9" font-family="Segoe UI" x="182, 187.2998, 192.00635, 194.82324, 197.00293, 202.09619, 206.80273, 212.10254, 214.05371, 216.51904, 220.33789, 225.62891, 230.33545, 234.49268, 236.67236, 239.48926, 241.66895, 246.37549, 250.19434, 252.65967, 259.16357, 264.25684, 266.43652, 270.59375, 275.68701, 278.15234, 282.85889, 287.95215, 291.00195, 293.18164, 296.23145, " y="171, ">
				defined, specifies which entity
		</text>
		<text fill="gray" font-size="9" font-family="Segoe UI" x="182, 184.71582, 190.00684, 194.71338, 197.84229, 201.66113, 206.93457, 212.02783, 213.979, 216.44434, 221.71777, 224.84668, 230.14648, 234.72559, 239.81885, 241.99854, 245.81738, 250.39648, 253.44629, 255.62598, 260.89941, 265.99268, 268.45801, 273.73145, " y="183, ">
				(person, organisation or
		</text>
		<text fill="gray" font-size="9" font-family="Segoe UI" x="182, 185.81885, 190.17383, 193.99268, 197.04248, 201.74902, 209.50098, 212.2168, 214.68213, 221.18604, 223.36572, 225.54541, 227.7251, 230.19043, 234.89697, 240.19678, 242.37646, 245.42627, 247.8916, 250.94141, 256.03467, 260.74121, 263.20654, 268.49756, 271.62646, 276.8999, 282.19092, 286.89746, 290.02637, 293.07617, " y="195, ">
				system) will edit the property
		</text>
		<text fill="gray" font-size="9" font-family="Segoe UI" x="182, 186.31104, 190.89014, 193.06982, 198.16309, 202.86963, 205.33496, 208.93408, 211.39941, 216.10596, 220.23682, 225.52783, 228.65674, 233.36328, 237.18213, 241.00098, 245.70752, 251.00732, 253.47266, 258.76367, 263.11865, 265.58398, 270.16309, 272.62842, 279.41357, 284.98584, 290.25928, 295.55908, 300.26562, " y="207, ">
				value - expressed by a QCode.
		</text>
		<text fill="gray" font-size="9" font-family="Segoe UI" x="182, 184.39502, 187.21191, 189.67725, 192.72705, 197.82031, 202.52686, 204.99219, 210.2832, 213.41211, 218.68555, 223.97656, 228.68311, 231.81201, 234.86182, 239.2168, 241.68213, 245.99316, 250.57227, 252.75195, 257.84521, 262.55176, 265.01709, 267.19678, " y="219, ">
				If the property value is
		</text>
		<text fill="gray" font-size="9" font-family="Segoe UI" x="182, 187.2998, 192.00635, 194.82324, 197.00293, 202.09619, 206.80273, 212.10254, 214.05371, 216.51904, 220.33789, 225.62891, 230.33545, 234.49268, 236.67236, 239.48926, 241.66895, 246.37549, 250.19434, 252.65967, 259.16357, 264.25684, 266.43652, 270.59375, 275.68701, 278.15234, 282.85889, 287.95215, 291.00195, 293.18164, 296.23145, " y="231, ">
				defined, specifies which entity
		</text>
		<text fill="gray" font-size="9" font-family="Segoe UI" x="182, 184.71582, 190.00684, 194.71338, 197.84229, 201.66113, 206.93457, 212.02783, 213.979, 216.44434, 221.71777, 224.84668, 230.14648, 234.72559, 239.81885, 241.99854, 245.81738, 250.39648, 253.44629, 255.62598, 260.89941, 265.99268, 268.45801, 273.73145, " y="243, ">
				(person, organisation or
		</text>
		<text fill="gray" font-size="9" font-family="Segoe UI" x="182, 185.81885, 190.17383, 193.99268, 197.04248, 201.74902, 209.50098, 212.2168, 214.68213, 219.77539, 224.35449, 228.17334, 230.63867, 235.34521, 240.64502, 242.82471, 245.87451, 250.58105, 255.88086, 258.34619, 261.396, 266.48926, " y="255, ">
				system) has edited the
		</text>
		<text fill="gray" font-size="9" font-family="Segoe UI" x="182, 187.29102, 190.41992, 195.69336, 200.98438, 205.69092, 208.81982, 211.86963, 216.22461, 218.68994, 223.00098, 227.58008, 229.75977, 234.85303, 239.55957, " y="267, ">
				property value.
		</text>
		<rect fill="white" x="186" y="124" width="42" height="16"/>
		<text font-size="12" font-weight="600" font-family="Segoe UI" x="186, 191.75977, 196.48828, 202.98047, 209.4375, 214.06055, 221.39648, " y="137, ">
				creator
		</text>
		<rect fill="none" stroke="black" stroke-width="1" stroke-linecap="square" stroke-miterlimit="4" transform="translate(0.5 0.5)" x="177" y="122" width="57" height="20"/>
		<rect fill="silver" x="181" y="280" width="73" height="21"/>
		<rect fill="white" x="177" y="276" width="73" height="21"/>
		<rect fill="white" x="182" y="303" width="120" height="108"/>
		<text fill="gray" font-size="9" font-family="Segoe UI" x="182, 184.39502, 187.21191, 189.67725, 192.72705, 197.82031, 202.52686, 204.99219, 210.2832, 213.41211, 218.68555, 223.97656, 228.68311, 231.81201, 234.86182, 239.2168, 241.68213, 245.99316, 250.57227, 252.75195, 257.84521, 262.55176, 265.01709, 267.19678, 271.01562, 273.48096, 278.57422, 283.84766, " y="313, ">
				If the property value is not
		</text>
		<text fill="gray" font-size="9" font-family="Segoe UI" x="182, 187.2998, 192.00635, 194.82324, 197.00293, 202.09619, 206.80273, 212.10254, 214.05371, 216.51904, 220.33789, 225.62891, 230.33545, 234.49268, 236.67236, 239.48926, 241.66895, 246.37549, 250.19434, 252.65967, 259.16357, 264.25684, 266.43652, 270.59375, 275.68701, 278.15234, 282.85889, 287.95215, 291.00195, 293.18164, 296.23145, " y="325, ">
				defined, specifies which entity
		</text>
		<text fill="gray" font-size="9" font-family="Segoe UI" x="182, 184.71582, 190.00684, 194.71338, 197.84229, 201.66113, 206.93457, 212.02783, 213.979, 216.44434, 221.71777, 224.84668, 230.14648, 234.72559, 239.81885, 241.99854, 245.81738, 250.39648, 253.44629, 255.62598, 260.89941, 265.99268, 268.45801, 273.73145, " y="337, ">
				(person, organisation or
		</text>
		<text fill="gray" font-size="9" font-family="Segoe UI" x="182, 185.81885, 190.17383, 193.99268, 197.04248, 201.74902, 209.50098, 212.2168, 214.68213, 221.18604, 223.36572, 225.54541, 227.7251, 230.19043, 234.89697, 240.19678, 242.37646, 245.42627, 247.8916, 250.94141, 256.03467, 260.74121, 263.20654, 268.49756, 271.62646, 276.8999, 282.19092, 286.89746, 290.02637, 293.07617, " y="349, ">
				system) will edit the property
		</text>
		<text fill="gray" font-size="9" font-family="Segoe UI" x="182, 185.59912, 188.06445, 192.771, 196.90186, 202.19287, 205.32178, 210.02832, 213.84717, 217.66602, 222.37256, 227.67236, 230.1377, 235.42871, 239.78369, 242.24902, 246.82812, 249.29346, 255.47656, 260.85986, 263.25488, 265.20605, 267.67139, 270.06641, 272.8833, 275.34863, 278.39844, 283.4917, " y="361, ">
				- expressed by a URI. If the
		</text>
		<text fill="gray" font-size="9" font-family="Segoe UI" x="182, 187.29102, 190.41992, 195.69336, 200.98438, 205.69092, 208.81982, 211.86963, 216.22461, 218.68994, 223.00098, 227.58008, 229.75977, 234.85303, 239.55957, 242.0249, 244.20459, 248.02344, 250.48877, 255.78857, 260.49512, 263.31201, 265.4917, 270.58496, 275.2915, 280.59131, " y="373, ">
				property value is defined,
		</text>
		<text fill="gray" font-size="9" font-family="Segoe UI" x="182, 185.81885, 191.10986, 195.81641, 199.97363, 202.15332, 204.97021, 207.1499, 211.85645, 215.67529, 218.14062, 224.64453, 229.73779, 231.91748, 236.07471, 241.16797, 243.6333, 248.33984, 253.43311, 256.48291, 258.6626, 261.7124, 266.06738, 268.53271, 271.24854, 276.53955, 281.24609, 284.375, 288.19385, 293.46729, 298.56055, " y="385, ">
				specifies which entity (person,
		</text>
		<text fill="gray" font-size="9" font-family="Segoe UI" x="182, 187.27344, 190.40234, 195.70215, 200.28125, 205.37451, 207.5542, 211.37305, 215.95215, 219.00195, 221.18164, 226.45508, 231.54834, 234.01367, 239.28711, 242.41602, 244.88135, 248.7002, 253.05518, 256.87402, 259.92383, 264.63037, 272.38232, 275.09814, 277.56348, 282.65674, 287.23584, " y="397, ">
				organisation or system) has
		</text>
		<text fill="gray" font-size="9" font-family="Segoe UI" x="182, 186.70654, 192.00635, 194.18604, 197.23584, 201.94238, 207.24219, 209.70752, 212.75732, 217.85059, 222.55713, 225.02246, 230.31348, 233.44238, 238.71582, 244.00684, 248.71338, 251.84229, 254.89209, 259.24707, " y="409, ">
				edited the property.
		</text>
		<rect fill="white" x="186" y="278" width="57" height="16"/>
		<text font-size="12" font-weight="600" font-family="Segoe UI" x="186, 191.75977, 196.48828, 202.98047, 209.4375, 214.06055, 221.39648, 226.20703, 233.4668, 238.28906, " y="291, ">
				creatoruri
		</text>
		<rect fill="none" stroke="black" stroke-width="1" stroke-linecap="square" stroke-miterlimit="4" transform="translate(0.5 0.5)" x="177" y="276" width="72" height="20"/>
		<rect fill="silver" x="181" y="422" width="69" height="21"/>
		<rect fill="white" x="177" y="418" width="69" height="21"/>
		<rect fill="white" x="182" y="445" width="119" height="72"/>
		<text fill="gray" font-size="9" font-family="Segoe UI" x="182, 186.71533, 191.80859, 196.51514, 198.98047, 204.28027, 208.85938, 211.90918, 216.61572, 219.08105, 221.79688, 226.37598, 231.46924, 236.76904, 238.72021, 241.18555, 246.45898, 251.75, 254.7998, 256.97949, 262.25293, 267.34619, 271.92529, 274.10498, 276.28467, 280.63965, 282.59082, 285.05615, 288.10596, 293.19922, " y="455, ">
				The date (and, optionally, the
		</text>
		<text fill="gray" font-size="9" font-family="Segoe UI" x="182, 185.0498, 187.22949, 194.98145, 199.68799, 202.40381, 204.86914, 211.37305, 216.46631, 221.17285, 226.26611, 228.73145, 231.78125, 236.87451, 241.58105, 244.04639, 249.3374, 252.46631, 257.73975, 263.03076, 267.7373, 270.86621, 273.91602, 278.271, 280.73633, 287.24023, 291.81934, " y="467, ">
				time) when the property was
		</text>
		<text fill="gray" font-size="9" font-family="Segoe UI" x="182, 184.17969, 188.75879, 192.57764, 195.62744, 198.09277, 205.84473, 211.11816, 216.41797, 218.59766, 221.41455, 223.59424, 228.30078, 233.60059, 235.55176, 238.01709, 242.73242, 247.82568, 252.53223, 254.99756, 257.17725, 262.27051, 264.4502, 267.5, 269.67969, 274.25879, 276.43848, 278.90381, 283.21484, 287.79395, 289.97363, 295.06689, " y="479, ">
				last modified. The initial value
		</text>
		<text fill="gray" font-size="9" font-family="Segoe UI" x="182, 184.17969, 187.99854, 190.46387, 193.51367, 198.60693, 203.31348, 205.77881, 211.07861, 215.65771, 218.70752, 223.41406, 225.87939, 228.59521, 233.17432, 238.26758, 243.56738, 245.51855, 247.98389, 253.25732, 258.54834, 261.59814, 263.77783, 269.05127, 274.14453, 278.72363, 280.90332, 283.08301, 287.43799, " y="491, ">
				is the date (and, optionally,
		</text>
		<text fill="gray" font-size="9" font-family="Segoe UI" x="182, 185.0498, 190.14307, 194.84961, 197.31494, 200.36475, 202.54443, 210.29639, 215.00293, 217.71875, 220.18408, 225.45752, 228.27441, 230.73975, 234.89697, 238.02588, 242.73242, 247.31152, 250.36133, 252.54102, 257.81445, 262.90771, 265.37305, 270.64648, 273.46338, 275.92871, 278.97852, 284.07178, " y="503, ">
				the time) of creation of the
		</text>
		<text fill="gray" font-size="9" font-family="Segoe UI" x="182, 187.29102, 190.41992, 195.69336, 200.98438, 205.69092, 208.81982, 211.86963, 216.22461, " y="515, ">
				property.
		</text>
		<rect fill="white" x="186" y="420" width="53" height="16"/>
		<text font-size="12" font-weight="600" font-family="Segoe UI" x="186, 196.99219, 204.32812, 211.75781, 215.16797, 219.76758, 223.17773, 229.66992, " y="433, ">
				modified
		</text>
		<rect fill="none" stroke="black" stroke-width="1" stroke-linecap="square" stroke-miterlimit="4" transform="translate(0.5 0.5)" x="177" y="418" width="68" height="20"/>
		<rect fill="silver" x="181" y="528" width="59" height="21"/>
		<rect fill="white" x="177" y="524" width="59" height="21"/>
		<rect fill="white" x="182" y="551" width="118" height="108"/>
		<text fill="gray" font-size="9" font-family="Segoe UI" x="182, 184.39502, 187.21191, 189.67725, 193.49609, 198.20264, 201.25244, 203.71777, 206.76758, 212.04102, 214.50635, 217.55615, 220.68506, 225.77832, 230.48486, 232.9502, 236, 241.09326, " y="561, ">
				If set to true the
		</text>
		<text fill="gray" font-size="9" font-family="Segoe UI" x="182, 186.15723, 191.43066, 194.55957, 197.68848, 202.39502, 206.21387, 211.50488, 216.77832, 221.87158, 227.17139, 229.35107, 234.44434, 239.74414, 242.20947, 247.50049, 250.62939, 255.90283, 261.19385, 265.90039, 269.0293, 272.0791, 276.43408, 278.89941, 285.40332, 289.98242, " y="573, ">
				corresponding property was
		</text>
		<text fill="gray" font-size="9" font-family="Segoe UI" x="182, 186.5791, 191.87891, 197.17871, 201.88525, 207.18506, 209.65039, 212.7002, 217.97363, 220.43896, 223.48877, 228.58203, 233.28857, 235.75391, 241.92822, 246.77979, 249.24512, 251.64014, 254.68994, 259.39648, 267.14844, 269.61377, 272.43066, 277.7041, 280.83301, 283.29834, " y="585, ">
				added to the G2 Item for a
		</text>
		<text fill="gray" font-size="9" font-family="Segoe UI" x="182, 185.81885, 191.10986, 195.81641, 199.97363, 202.15332, 204.97021, 207.1499, 211.30713, 213.77246, 217.92969, 223.02295, 226.8418, 229.8916, 235.16504, 242.91699, 247.62354, 250.75244, 253.21777, 258.49121, 261.62012, 264.08545, 269.38525, 272.51416, 277.7876, 282.88086, 288.17188, 290.63721, 295.91064, " y="597, ">
				specific customer or group of
		</text>
		<text fill="gray" font-size="9" font-family="Segoe UI" x="182, 186.15723, 191.25049, 195.06934, 198.11914, 203.39258, 211.14453, 215.85107, 218.97998, 222.79883, 225.26416, 230.5376, 235.63086, 237.81055, 242.16553, 244.1167, 246.58203, 251.29736, 256.39062, 261.09717, 263.5625, 268.8623, 273.56885, 276.38574, 280.96484, 286.05811, 288.23779, " y="609, ">
				customers only. The default
		</text>
		<text fill="gray" font-size="9" font-family="Segoe UI" x="182, 186.31104, 190.89014, 193.06982, 198.16309, 202.86963, 205.33496, 210.6084, 213.42529, 215.89062, 218.94043, 224.03369, 226.21338, 230.03223, 232.49756, 237.78857, 240.91748, 246.19092, 251.48193, 256.18848, 259.31738, 262.36719, 266.72217, 269.1875, 271.36719, 275.18604, 277.65137, 280.46826, 285.04736, 287.22705, 291.0459, " y="621, ">
				value of this property is false
		</text>
		<text fill="gray" font-size="9" font-family="Segoe UI" x="182, 188.50391, 193.59717, 195.77686, 199.93408, 205.02734, 207.49268, 212.07178, 217.36279, 222.65381, 224.8335, 227.01318, 231.71973, 235.53857, 238.00391, 244.50781, 249.60107, 254.30762, 259.40088, 261.86621, 264.91602, 270.00928, 272.18896, " y="633, ">
				which applies when this
		</text>
		<text fill="gray" font-size="9" font-family="Segoe UI" x="182, 186.5791, 189.62891, 192.67871, 195.80762, 197.9873, 203.27832, 208.37158, 211.42139, 216.12793, 218.59326, 220.77295, 224.5918, 227.05713, 232.15039, 237.42383, 240.47363, 242.93896, 248.03223, 251.85107, 256.55762, 261.85742, 264.32275, 270.82666, 273.00635, 276.05615, 281.14941, 283.61475, 286.66455, 291.75781, " y="645, ">
				attribute is not used with the
		</text>
		<text fill="gray" font-size="9" font-family="Segoe UI" x="182, 187.29102, 190.41992, 195.69336, 200.98438, 205.69092, 208.81982, 211.86963, 216.22461, " y="657, ">
				property.
		</text>
		<rect fill="white" x="186" y="526" width="43" height="16"/>
		<text font-size="12" font-weight="600" font-family="Segoe UI" x="186, 191.75977, 199.01953, 204.29883, 208.92188, 216.25781, " y="539, ">
				custom
		</text>
		<rect fill="none" stroke="black" stroke-width="1" stroke-linecap="square" stroke-miterlimit="4" transform="translate(0.5 0.5)" x="177" y="524" width="58" height="20"/>
		<rect fill="silver" x="181" y="670" width="52" height="21"/>
		<rect fill="white" x="177" y="666" width="52" height="21"/>
		<rect fill="white" x="182" y="693" width="118" height="48"/>
		<text fill="gray" font-size="9" font-family="Segoe UI" x="182, 184.39502, 189.48828, 194.78809, 196.96777, 201.125, 205.7041, 208.75391, 213.46045, 217.2793, 219.74463, 225.03564, 229.39062, 231.85596, 238.35986, 243.45312, 245.63281, 249.79004, 254.8833, 257.34863, 265.10059, 269.80713, 274.38623, 279.47949, 283.29834, 285.76367, 288.81348, 293.90674, " y="703, ">
				Indicates by which means the
		</text>
		<text fill="gray" font-size="9" font-family="Segoe UI" x="182, 186.31104, 190.89014, 193.06982, 198.16309, 202.86963, 205.33496, 211.83887, 216.41797, 220.23682, 222.70215, 227.40869, 231.53955, 234.58936, 237.71826, 242.29736, 246.45459, 249.50439, 254.21094, 259.51074, 261.97607, 264.79297, 267.92188, 273.19531, 280.94727, 283.4126, 286.4624, 291.55566, " y="715, ">
				value was extracted from the
		</text>
		<text fill="gray" font-size="9" font-family="Segoe UI" x="182, 186.15723, 191.43066, 196.52393, 199.57373, 204.28027, 209.37354, 212.42334, 214.88867, 218.48779, 220.95312, 225.65967, 229.79053, 235.08154, 238.21045, 242.91699, 246.73584, 250.55469, 255.26123, 260.56104, 263.02637, 268.31738, 272.67236, 275.1377, " y="727, ">
				content - expressed by a
		</text>
		<text fill="gray" font-size="9" font-family="Segoe UI" x="182, 188.78516, 194.35742, 199.63086, 204.93066, " y="739, ">
				QCode
		</text>
		<rect fill="white" x="186" y="668" width="36" height="16"/>
		<text font-size="12" font-weight="600" font-family="Segoe UI" x="186, 193.22461, 200.56055, " y="681, ">
				how
		</text>
		<rect fill="none" stroke="black" stroke-width="1" stroke-linecap="square" stroke-miterlimit="4" transform="translate(0.5 0.5)" x="177" y="666" width="51" height="20"/>
		<rect fill="silver" x="181" y="752" width="57" height="21"/>
		<rect fill="white" x="177" y="748" width="57" height="21"/>
		<rect fill="white" x="182" y="775" width="118" height="36"/>
		<text fill="gray" font-size="9" font-family="Segoe UI" x="182, 184.39502, 189.48828, 194.78809, 196.96777, 201.125, 205.7041, 208.75391, 213.46045, 217.2793, 219.74463, 225.03564, 229.39062, 231.85596, 238.35986, 243.45312, 245.63281, 249.79004, 254.8833, 257.34863, 265.10059, 269.80713, 274.38623, 279.47949, 283.29834, 285.76367, 288.81348, 293.90674, " y="785, ">
				Indicates by which means the
		</text>
		<text fill="gray" font-size="9" font-family="Segoe UI" x="182, 186.31104, 190.89014, 193.06982, 198.16309, 202.86963, 205.33496, 211.83887, 216.41797, 220.23682, 222.70215, 227.40869, 231.53955, 234.58936, 237.71826, 242.29736, 246.45459, 249.50439, 254.21094, 259.51074, 261.97607, 264.79297, 267.92188, 273.19531, 280.94727, 283.4126, 286.4624, 291.55566, " y="797, ">
				value was extracted from the
		</text>
		<text fill="gray" font-size="9" font-family="Segoe UI" x="182, 186.15723, 191.43066, 196.52393, 199.57373, 204.28027, 209.37354, 212.42334, 214.88867, 218.48779, 220.95312, 225.65967, 229.79053, 235.08154, 238.21045, 242.91699, 246.73584, 250.55469, 255.26123, 260.56104, 263.02637, 268.31738, 272.67236, 275.1377, 279.7168, 282.18213, 288.36523, 293.74854, " y="809, ">
				content - expressed by a URI
		</text>
		<rect fill="white" x="186" y="750" width="41" height="16"/>
		<text font-size="12" font-weight="600" font-family="Segoe UI" x="186, 193.22461, 200.56055, 210.12891, 217.38867, 222.21094, " y="763, ">
				howuri
		</text>
		<rect fill="none" stroke="black" stroke-width="1" stroke-linecap="square" stroke-miterlimit="4" transform="translate(0.5 0.5)" x="177" y="748" width="56" height="20"/>
		<rect fill="silver" x="181" y="822" width="52" height="21"/>
		<rect fill="white" x="177" y="818" width="52" height="21"/>
		<rect fill="white" x="182" y="845" width="113" height="36"/>
		<text fill="gray" font-size="9" font-family="Segoe UI" x="182, 190.40674, 195.5, 199.85498, 202.32031, 205.37012, 210.46338, 215.16992, 217.63525, 225.38721, 230.09375, 233.14355, 237.72266, 243.02246, 247.60156, 250.65137, 255.23047, 257.6958, 262.78906, 267.36816, 271.18701, 273.65234, 278.94336, 283.6499, 288.35645, " y="855, ">
				Why the metadata has been
		</text>
		<text fill="gray" font-size="9" font-family="Segoe UI" x="182, 184.17969, 189.27295, 193.43018, 195.60986, 200.70312, 206.00293, 210.70947, 216.00928, 218.47461, 222.07373, 224.53906, 229.24561, 233.37646, 238.66748, 241.79639, 246.50293, 250.32178, 254.14062, 258.84717, 264.14697, 266.6123, 271.90332, 276.2583, 278.72363, " y="867, ">
				included - expressed by a
		</text>
		<text fill="gray" font-size="9" font-family="Segoe UI" x="182, 188.78516, 194.35742, 199.63086, 204.93066, " y="879, ">
				QCode
		</text>
		<rect fill="white" x="186" y="820" width="36" height="16"/>
		<text font-size="12" font-weight="600" font-family="Segoe UI" x="186, 195.56836, 202.79297, " y="833, ">
				why
		</text>
		<rect fill="none" stroke="black" stroke-width="1" stroke-linecap="square" stroke-miterlimit="4" transform="translate(0.5 0.5)" x="177" y="818" width="51" height="20"/>
		<rect fill="silver" x="181" y="892" width="56" height="21"/>
		<rect fill="white" x="177" y="888" width="56" height="21"/>
		<rect fill="white" x="182" y="915" width="119" height="24"/>
		<text fill="gray" font-size="9" font-family="Segoe UI" x="182, 190.40674, 195.5, 199.85498, 202.32031, 205.37012, 210.46338, 215.16992, 217.63525, 225.38721, 230.09375, 233.14355, 237.72266, 243.02246, 247.60156, 250.65137, 255.23047, 257.6958, 262.78906, 267.36816, 271.18701, 273.65234, 278.94336, 283.6499, 288.35645, " y="925, ">
				Why the metadata has been
		</text>
		<text fill="gray" font-size="9" font-family="Segoe UI" x="182, 184.17969, 189.27295, 193.43018, 195.60986, 200.70312, 206.00293, 210.70947, 216.00928, 218.47461, 222.07373, 224.53906, 229.24561, 233.37646, 238.66748, 241.79639, 246.50293, 250.32178, 254.14062, 258.84717, 264.14697, 266.6123, 271.90332, 276.2583, 278.72363, 283.30273, 285.76807, 291.95117, 297.33447, " y="937, ">
				included - expressed by a URI
		</text>
		<rect fill="white" x="186" y="890" width="40" height="16"/>
		<text font-size="12" font-weight="600" font-family="Segoe UI" x="186, 195.56836, 202.79297, 209.25, 216.50977, 221.33203, " y="903, ">
				whyuri
		</text>
		<rect fill="none" stroke="black" stroke-width="1" stroke-linecap="square" stroke-miterlimit="4" transform="translate(0.5 0.5)" x="177" y="888" width="55" height="20"/>
		<rect fill="silver" x="181" y="950" width="97" height="21"/>
		<rect fill="white" x="177" y="946" width="97" height="21"/>
		<rect fill="white" x="182" y="973" width="117" height="72"/>
		<text fill="gray" font-size="9" font-family="Segoe UI" x="182, 188.78516, 193.87842, 198.58496, 201.05029, 206.32373, 209.45264, 211.91797, 219.66992, 224.24902, 229.34229, 233.69727, 236.1626, 240.31982, 245.59326, 250.68652, 254.50537, 257.55518, 260.68408, 265.26318, 267.44287, 272.53613, 275.58594, 279.40479, 281.87012, 284.91992, 290.01318, 294.59229, " y="983, ">
				One or many constraints that
		</text>
		<text fill="gray" font-size="9" font-family="Segoe UI" x="182, 186.5791, 191.87012, 197.16113, 199.34082, 203.6958, 206.16113, 209.21094, 214.48438, 216.94971, 222.24072, 227.33398, 232.625, 234.80469, 236.98438, 240.80322, 245.89648, 248.07617, 253.16943, 258.46924, 260.93457, 263.98438, 269.07764, 273.78418, 276.24951, 280.56055, 285.13965, 287.31934, 292.4126, " y="995, ">
				apply to publishing the value
		</text>
		<text fill="gray" font-size="9" font-family="Segoe UI" x="182, 187.27344, 190.09033, 192.55566, 195.60547, 200.69873, 205.40527, 207.87061, 213.16162, 216.29053, 221.56396, 226.85498, 231.56152, 234.69043, 237.74023, 242.09521, 244.56055, 248.15967, 250.625, 255.33154, 259.4624, 264.75342, 267.88232, 272.58887, 276.40771, 280.22656, 284.93311, " y="1007, ">
				of the property - expressed
		</text>
		<text fill="gray" font-size="9" font-family="Segoe UI" x="182, 187.29102, 191.646, 194.11133, 198.69043, 201.15576, 207.94092, 213.51318, 218.78662, 224.08643, 228.79297, 230.74414, 233.20947, 237.76221, 242.34131, 246.49854, 251.5918, 254.05713, 258.21436, 263.48779, 268.58105, 272.3999, 275.44971, 278.57861, 283.15771, 285.3374, 290.43066, " y="1019, ">
				by a QCode. Each constraint
		</text>
		<text fill="gray" font-size="9" font-family="Segoe UI" x="182, 186.5791, 191.87012, 197.16113, 199.34082, 201.52051, 206.22705, 210.0459, 212.51123, 215.56104, 220.83447, 223.2998, 227.87891, 230.05859, 232.23828, 234.70361, 240.00342, 244.70996, 248.52881, 252.68604, 257.39258, 262.48584, 267.78564, 272.36475, 277.45801, " y="1031, ">
				applies to all descendant
		</text>
		<text fill="gray" font-size="9" font-family="Segoe UI" x="182, 186.70654, 188.88623, 193.59277, 201.34473, 206.05127, 211.14453, 214.19434, 218.01318, " y="1043, ">
				elements.
		</text>
		<rect fill="white" x="186" y="948" width="81" height="16"/>
		<text font-size="12" font-weight="600" font-family="Segoe UI" x="186, 193.44141, 200.70117, 208.14258, 213.90234, 221.23828, 228.49805, 233.77734, 238.44727, 243.22266, 249.67969, 253.08984, 260.34961, " y="961, ">
				pubconstraint
		</text>
		<rect fill="none" stroke="black" stroke-width="1" stroke-linecap="square" stroke-miterlimit="4" transform="translate(0.5 0.5)" x="177" y="946" width="96" height="20"/>
		<rect fill="silver" x="181" y="1056" width="112" height="21"/>
		<rect fill="white" x="177" y="1052" width="112" height="21"/>
		<rect fill="white" x="182" y="1079" width="117" height="72"/>
		<text fill="gray" font-size="9" font-family="Segoe UI" x="182, 188.78516, 193.87842, 198.58496, 201.05029, 206.32373, 209.45264, 211.91797, 219.66992, 224.24902, 229.34229, 233.69727, 236.1626, 240.31982, 245.59326, 250.68652, 254.50537, 257.55518, 260.68408, 265.26318, 267.44287, 272.53613, 275.58594, 279.40479, 281.87012, 284.91992, 290.01318, 294.59229, " y="1089, ">
				One or many constraints that
		</text>
		<text fill="gray" font-size="9" font-family="Segoe UI" x="182, 186.5791, 191.87012, 197.16113, 199.34082, 203.6958, 206.16113, 209.21094, 214.48438, 216.94971, 222.24072, 227.33398, 232.625, 234.80469, 236.98438, 240.80322, 245.89648, 248.07617, 253.16943, 258.46924, 260.93457, 263.98438, 269.07764, 273.78418, 276.24951, 280.56055, 285.13965, 287.31934, 292.4126, " y="1101, ">
				apply to publishing the value
		</text>
		<text fill="gray" font-size="9" font-family="Segoe UI" x="182, 187.27344, 190.09033, 192.55566, 195.60547, 200.69873, 205.40527, 207.87061, 213.16162, 216.29053, 221.56396, 226.85498, 231.56152, 234.69043, 237.74023, 242.09521, 244.56055, 248.15967, 250.625, 255.33154, 259.4624, 264.75342, 267.88232, 272.58887, 276.40771, 280.22656, 284.93311, " y="1113, ">
				of the property - expressed
		</text>
		<text fill="gray" font-size="9" font-family="Segoe UI" x="182, 187.29102, 191.646, 194.11133, 198.69043, 201.15576, 207.33887, 212.72217, 215.11719, 217.06836, 219.53369, 224.08643, 228.66553, 232.82275, 237.91602, 240.38135, 244.53857, 249.81201, 254.90527, 258.72412, 261.77393, 264.90283, 269.48193, 271.66162, 276.75488, " y="1125, ">
				by a URI. Each constraint
		</text>
		<text fill="gray" font-size="9" font-family="Segoe UI" x="182, 186.5791, 191.87012, 197.16113, 199.34082, 201.52051, 206.22705, 210.0459, 212.51123, 215.56104, 220.83447, 223.2998, 227.87891, 230.05859, 232.23828, 234.70361, 240.00342, 244.70996, 248.52881, 252.68604, 257.39258, 262.48584, 267.78564, 272.36475, 277.45801, " y="1137, ">
				applies to all descendant
		</text>
		<text fill="gray" font-size="9" font-family="Segoe UI" x="182, 186.70654, 188.88623, 193.59277, 201.34473, 206.05127, 211.14453, 214.19434, 218.01318, " y="1149, ">
				elements.
		</text>
		<rect fill="white" x="186" y="1054" width="96" height="16"/>
		<text font-size="12" font-weight="600" font-family="Segoe UI" x="186, 193.44141, 200.70117, 208.14258, 213.90234, 221.23828, 228.49805, 233.77734, 238.44727, 243.22266, 249.67969, 253.08984, 260.34961, 265.01953, 272.2793, 277.10156, " y="1067, ">
				pubconstrainturi
		</text>
		<rect fill="none" stroke="black" stroke-width="1" stroke-linecap="square" stroke-miterlimit="4" transform="translate(0.5 0.5)" x="177" y="1052" width="111" height="20"/>
		<rect fill="silver" x="181" y="1162" width="66" height="21"/>
		<rect fill="white" x="177" y="1158" width="66" height="21"/>
		<rect fill="white" x="182" y="1185" width="121" height="84"/>
		<text fill="gray" font-size="9" font-family="Segoe UI" x="182, 186.78125, 192.07227, 196.77881, 200.93604, 203.11572, 205.93262, 208.1123, 212.81885, 216.6377, 219.10303, 222.15283, 227.24609, 231.95264, 234.41797, 236.59766, 241.17676, 246.27002, 251.56982, 256.66309, 261.24219, 266.54199, 271.24854, 273.71387, 278.9873, 281.8042, 284.26953, 287.31934, 292.4126, 294.59229, " y="1195, ">
				Specifies the language of this
		</text>
		<text fill="gray" font-size="9" font-family="Segoe UI" x="182, 187.29102, 190.41992, 195.69336, 200.98438, 205.69092, 208.81982, 211.86963, 216.22461, 218.68994, 223.26904, 228.3623, 233.66211, 236.12744, 241.41846, 246.69189, 249.7417, 254.44824, 259.5415, 262.59131, 264.771, 269.3501, 271.52979, 273.70947, 278.06445, 280.52979, 285.10889, 287.28857, " y="1207, ">
				property and potentially all
		</text>
		<text fill="gray" font-size="9" font-family="Segoe UI" x="182, 187.2998, 192.00635, 195.8252, 199.98242, 204.68896, 209.78223, 215.08203, 219.66113, 224.75439, 227.8042, 230.26953, 235.56055, 238.68945, 243.96289, 249.25391, 253.96045, 257.08936, 260.13916, 262.31885, 267.02539, 270.84424, " y="1219, ">
				descendant properties.
		</text>
		<text fill="gray" font-size="9" font-family="Segoe UI" x="182, 186.13086, 193.88281, 196.0625, 198.01367, 200.19336, 204.77246, 209.86572, 215.16553, 217.63086, 221.94189, 226.521, 228.70068, 233.79395, 238.50049, 242.31934, 244.78467, 250.05811, 252.875, 255.34033, 260.64014, 265.34668, 269.16553, 273.32275, 278.0293, 283.12256, 288.42236, 293.00146, 298.09473, " y="1231, ">
				xml:lang values of descendant
		</text>
		<text fill="gray" font-size="9" font-family="Segoe UI" x="182, 187.29102, 190.41992, 195.69336, 200.98438, 205.69092, 208.81982, 211.86963, 214.04932, 218.75586, 222.57471, 225.04004, 230.31348, 234.62451, 239.33105, 242.45996, 245.58887, 247.76855, 253.06836, 257.7749, 260.24023, 263.29004, 268.3833, 270.56299, 274.38184, 276.84717, 281.1582, 285.7373, 287.91699, 293.01025, 297.7168, " y="1243, ">
				properties override this value.
		</text>
		<text fill="gray" font-size="9" font-family="Segoe UI" x="182, 186.93066, 191.50977, 193.68945, 198.78271, 203.48926, 207.30811, 209.77344, 214.35254, 217.48145, 222.18799, 224.65332, 229.95312, 234.65967, 237.70947, 242.41602, 245.54492, 253.29688, 255.47656, 260.56982, 265.27637, 270.57617, 273.0415, 278.33252, " y="1255, ">
				Values are determined by
		</text>
		<text fill="gray" font-size="9" font-family="Segoe UI" x="182, 184.39502, 189.48828, 192.53809, 197.24463, 200.37354, 205.4668, 210.17334, 213.22314, 215.68848, 220.84766, 226.41992, 231.46045, 233.92578, 238.77734, 243.62891, " y="1267, ">
				Internet BCP 47.
		</text>
		<rect fill="white" x="186" y="1160" width="50" height="16"/>
		<text font-size="12" font-weight="600" font-family="Segoe UI" x="186, 192.62695, 203.61914, 207.0293, 210.28125, 213.69141, 220.14844, 227.4082, " y="1173, ">
				xml:lang
		</text>
		<path fill="none" stroke="black" stroke-width="2" stroke-miterlimit="4" transform="translate(0.5 0.5)" d="M179 1176L183 1172"/>
		<path fill="none" stroke="black" stroke-width="1" stroke-linecap="square" stroke-miterlimit="4" transform="translate(0.5 0.5)" d="M180 1172L183 1172L183 1175"/>
		<rect fill="none" stroke="black" stroke-width="1" stroke-linecap="square" stroke-miterlimit="4" transform="translate(0.5 0.5)" x="177" y="1158" width="65" height="20"/>
		<rect fill="silver" x="181" y="1280" width="52" height="21"/>
		<rect fill="white" x="177" y="1276" width="52" height="21"/>
		<rect fill="white" x="182" y="1303" width="116" height="24"/>
		<text fill="gray" font-size="9" font-family="Segoe UI" x="182, 186.71533, 191.80859, 196.51514, 198.98047, 204.28027, 206.45996, 209.58887, 214.29541, 218.45264, 221.50244, 223.68213, 228.95557, 234.04883, 238.62793, 240.80762, 242.9873, 246.03711, 250.39209, 252.85742, 258.13086, 260.94775, 263.41309, 266.46289, 271.16943, 275.30029, 278.3501, 283.44336, 288.02246, " y="1313, ">
				The directionality of textual
		</text>
		<text fill="gray" font-size="9" font-family="Segoe UI" x="182, 186.15723, 191.43066, 196.52393, 199.57373, 204.28027, 209.37354, 212.42334, 214.88867, 217.60449, 222.31104, 227.4043, 232.49756, 240.24951, 244.95605, 248.08496, 252.66406, 255.71387, 257.89355, 263.16699, 268.26025, 270.21143, 272.67676, 274.85645, 277.90625, 281.03516, 282.98633, 285.45166, 288.58057, 291.63037, 293.81006, " y="1325, ">
				content (enumeration: ltr, rtl)
		</text>
		<rect fill="white" x="186" y="1278" width="36" height="16"/>
		<text font-size="12" font-weight="600" font-family="Segoe UI" x="186, 193.42969, 196.83984, " y="1291, ">
				dir
		</text>
		<rect fill="none" stroke="black" stroke-width="1" stroke-linecap="square" stroke-miterlimit="4" transform="translate(0.5 0.5)" x="177" y="1276" width="51" height="20"/>
		<rect fill="silver" x="181" y="1338" width="52" height="21"/>
		<rect fill="white" x="177" y="1334" width="52" height="21"/>
		<rect fill="white" x="182" y="1361" width="120" height="36"/>
		<text fill="gray" font-size="9" font-family="Segoe UI" x="182, 187.80518, 190.27051, 193.39941, 198.10596, 200.92285, 203.10254, 208.1958, 212.90234, 220.6543, 225.36084, 230.4541, 233.50391, 235.96924, 241.24268, 244.05957, 246.5249, 249.57471, 254.66797, 259.37451, 261.83984, 265.65869, 270.36523, 278.11719, 282.69629, 287.78955, 290.83936, 293.01904, 297.17627, " y="1371, ">
				A refinement of the semantics
		</text>
		<text fill="gray" font-size="9" font-family="Segoe UI" x="182, 187.27344, 190.09033, 192.55566, 195.60547, 200.69873, 205.40527, 207.87061, 210.05029, 214.62939, 219.92041, 224.62695, 226.80664, 229.27197, 232.87109, 235.33643, 240.04297, 244.17383, 249.46484, 252.59375, 257.30029, 261.11914, 264.93799, 269.64453, 274.94434, 277.40967, 282.70068, 287.05566, 289.521, " y="1383, ">
				of the label - expressed by a
		</text>
		<text fill="gray" font-size="9" font-family="Segoe UI" x="182, 188.78516, 194.35742, 199.63086, 204.93066, " y="1395, ">
				QCode
		</text>
		<rect fill="white" x="186" y="1336" width="36" height="16"/>
		<text font-size="12" font-weight="600" font-family="Segoe UI" x="186, 190.72852, 198.06445, 201.47461, " y="1349, ">
				role
		</text>
		<rect fill="none" stroke="black" stroke-width="1" stroke-linecap="square" stroke-miterlimit="4" transform="translate(0.5 0.5)" x="177" y="1334" width="51" height="20"/>
		<rect fill="silver" x="181" y="1408" width="55" height="21"/>
		<rect fill="white" x="177" y="1404" width="55" height="21"/>
		<rect fill="white" x="182" y="1431" width="120" height="36"/>
		<text fill="gray" font-size="9" font-family="Segoe UI" x="182, 187.80518, 190.27051, 193.39941, 198.10596, 200.92285, 203.10254, 208.1958, 212.90234, 220.6543, 225.36084, 230.4541, 233.50391, 235.96924, 241.24268, 244.05957, 246.5249, 249.57471, 254.66797, 259.37451, 261.83984, 265.65869, 270.36523, 278.11719, 282.69629, 287.78955, 290.83936, 293.01904, 297.17627, " y="1441, ">
				A refinement of the semantics
		</text>
		<text fill="gray" font-size="9" font-family="Segoe UI" x="182, 187.27344, 190.09033, 192.55566, 195.60547, 200.69873, 205.40527, 207.87061, 210.05029, 214.62939, 219.92041, 224.62695, 226.80664, 229.27197, 232.87109, 235.33643, 240.04297, 244.17383, 249.46484, 252.59375, 257.30029, 261.11914, 264.93799, 269.64453, 274.94434, 277.40967, 282.70068, 287.05566, 289.521, " y="1453, ">
				of the label - expressed by a
		</text>
		<text fill="gray" font-size="9" font-family="Segoe UI" x="182, 188.18311, 193.56641, " y="1465, ">
				URI
		</text>
		<rect fill="white" x="186" y="1406" width="39" height="16"/>
		<text font-size="12" font-weight="600" font-family="Segoe UI" x="186, 190.72852, 198.06445, 201.47461, 207.9668, 215.22656, 220.04883, " y="1419, ">
				roleuri
		</text>
		<rect fill="none" stroke="black" stroke-width="1" stroke-linecap="square" stroke-miterlimit="4" transform="translate(0.5 0.5)" x="177" y="1404" width="54" height="20"/>
		<rect fill="silver" x="181" y="1478" width="52" height="21"/>
		<rect fill="white" x="177" y="1474" width="52" height="21"/>
		<rect fill="white" x="182" y="1501" width="106" height="60"/>
		<text fill="gray" font-size="9" font-family="Segoe UI" x="182, 187.80518, 192.89844, 195.36377, 197.54346, 202.63672, 207.93652, 210.11621, 214.27344, 218.85254, 221.90234, 224.08203, 229.35547, 234.44873, 236.91406, 242.1875, 245.00439, 247.46973, 250.51953, 255.61279, 260.31934, 262.78467, 265.83447, 270.41357, 273.54248, 278.84229, 283.54883, " y="1511, ">
				An indication of the target
		</text>
		<text fill="gray" font-size="9" font-family="Segoe UI" x="182, 189.75195, 194.4585, 199.7583, 201.93799, 206.51709, 208.98242, 212.03223, 216.38721, 221.67822, 226.38477, 229.10059, 232.91943, 235.63525, 237.58643, 240.05176, 244.36279, 248.94189, 251.12158, 256.21484, 260.92139, 264.74023, 267.20557, 271.78467, " y="1523, ">
				media type(s), values as
		</text>
		<text fill="gray" font-size="9" font-family="Segoe UI" x="182, 187.2998, 192.00635, 194.82324, 197.00293, 202.09619, 206.80273, 212.10254, 214.56787, 219.85889, 224.21387, 226.6792, 229.729, 234.82227, 239.52881, 241.99414, 247.56641, 252.14551, 255.96436, 260.12158, 264.70068, 270.00049, 272.18018, 277.27344, " y="1535, ">
				defined by the Cascading
		</text>
		<text fill="gray" font-size="9" font-family="Segoe UI" x="182, 186.49121, 189.54102, 193.896, 196.07568, 200.78223, 203.24756, 208.02881, 213.12207, 217.82861, 222.53516, 225.58496, 229.40381, 231.86914, 235.68799, 240.979, 245.68555, 249.84277, 252.02246, 254.83936, 257.01904, 261.17627, 265.75537, 268.80518, 270.98486, 276.2583, " y="1547, ">
				Style Sheets specification
		</text>
		<text fill="gray" font-size="9" font-family="Segoe UI" x="182, 184.71582, 190.28809, 195.06934, 199.85059, 202.56641, " y="1559, ">
				[CSS].
		</text>
		<rect fill="white" x="186" y="1476" width="36" height="16"/>
		<text font-size="12" font-weight="600" font-family="Segoe UI" x="186, 196.99219, 203.48438, 210.91406, 214.32422, " y="1489, ">
				media
		</text>
		<rect fill="none" stroke="black" stroke-width="1" stroke-linecap="square" stroke-miterlimit="4" transform="translate(0.5 0.5)" x="177" y="1474" width="51" height="20"/>
		<path fill="silver" d="M181 1577L186 1572L254 1572L259 1577L259 1588L254 1593L186 1593L181 1588L181 1577Z"/>
		<path fill="white" d="M177 1573L182 1568L250 1568L255 1573L255 1584L250 1589L182 1589L177 1584L177 1573Z"/>
		<rect fill="white" x="204" y="1570" width="46" height="16"/>
		<text font-size="12" font-weight="600" font-family="Segoe UI" x="204, 211.10742, 218.21484, 225.55078, 230.2207, 237.44531, 243.9375, " y="1583, ">
				##other
		</text>
		<rect fill="white" x="182" y="1570" width="20" height="16"/>
		<text fill="gray" font-size="12" font-family="Segoe UI" x="182, 188.10547, 194.89648, " y="1583, ">
				any
		</text>
		<path fill="none" stroke="black" stroke-width="1" stroke-linecap="square" stroke-miterlimit="4" transform="translate(0.5 0.5)" d="M177 1573L182 1568L249 1568L254 1573L254 1583L249 1588L182 1588L177 1583L177 1573Z"/>
		<rect x="168" y="41" width="11" height="11"/>
		<rect fill="white" x="169" y="42" width="9" height="9"/>
		<rect x="170" y="46" width="7" height="1"/>
		<path fill="none" stroke="black" stroke-width="1" stroke-linecap="square" stroke-miterlimit="4" transform="translate(0.5 0.5)" d="M208 1760L216 1760"/>
		<path fill="none" stroke="black" stroke-width="1" stroke-linecap="square" stroke-miterlimit="4" transform="translate(0.5 0.5)" d="M217 1760L217 1623"/>
		<path fill="none" stroke="black" stroke-width="1" stroke-linecap="square" stroke-miterlimit="4" transform="translate(0.5 0.5)" d="M217 1760L217 1897"/>
		<path fill="none" stroke="black" stroke-width="1" stroke-linecap="square" stroke-miterlimit="4" transform="translate(0.5 0.5)" d="M217 1622L231 1622"/>
		<path fill="none" stroke="black" stroke-width="1" stroke-linecap="square" stroke-miterlimit="4" transform="translate(0.5 0.5)" d="M217 1685L231 1685"/>
		<path fill="none" stroke="black" stroke-width="1" stroke-linecap="square" stroke-miterlimit="4" transform="translate(0.5 0.5)" d="M217 1760L231 1760"/>
		<path fill="none" stroke="black" stroke-width="1" stroke-linecap="square" stroke-miterlimit="4" transform="translate(0.5 0.5)" d="M217 1835L231 1835"/>
		<path fill="none" stroke="black" stroke-width="1" stroke-linecap="square" stroke-miterlimit="4" transform="translate(0.5 0.5)" d="M217 1898L231 1898"/>
		<path fill="silver" d="M170 1762L175 1757L200 1757L205 1762L205 1773L200 1778L175 1778L170 1773L170 1762Z"/>
		<path fill="white" d="M166 1758L171 1753L195 1753L200 1758L200 1768L195 1773L171 1773L166 1768L166 1758Z"/>
		<path transform="translate(0.5 0.5)" d="M169.889 1753.4L170.793 1752.5L171.929 1752.5L172.429 1752.5L172.429 1753.5L171.929 1753.5L171 1753.5L171 1753L171.354 1753.35L170.243 1754.46L169.536 1753.76L169.889 1753.4ZM175.929 1752.5L177.929 1752.5L178.429 1752.5L178.429 1753.5L177.929 1753.5L175.429 1753.5L175.429 1752.5L175.929 1752.5ZM181.929 1752.5L183.929 1752.5L184.429 1752.5L184.429 1753.5L183.929 1753.5L181.429 1753.5L181.429 1752.5L181.929 1752.5ZM187.929 1752.5L189.929 1752.5L190.429 1752.5L190.429 1753.5L189.929 1753.5L187.429 1753.5L187.429 1752.5L187.929 1752.5ZM193.929 1752.5L195.207 1752.5L196.01 1753.3L196.364 1753.66L195.657 1754.36L195.303 1754.01L194.646 1753.35L195 1753L195 1753.5L193.429 1753.5L193.429 1752.5L193.929 1752.5ZM198.839 1756.13L200.253 1757.55L200.607 1757.9L199.899 1758.61L199.546 1758.25L197.778 1756.49L198.485 1755.78L198.839 1756.13ZM200.5 1761.86L200.5 1763.86L200.5 1764.36L199.5 1764.36L199.5 1763.86L199.5 1761.36L200.5 1761.36L200.5 1761.86ZM200.5 1767.86L200.5 1768.21L199.04 1769.67L198.686 1770.02L197.979 1769.31L198.333 1768.96L199.646 1767.65L200 1768L199.5 1768L199.5 1767.36L200.5 1767.36L200.5 1767.86ZM196.211 1772.5L195.207 1773.5L194.213 1773.5L193.713 1773.5L193.713 1772.5L194.213 1772.5L195 1772.5L195 1773L194.646 1772.65L195.858 1771.44L196.565 1772.14L196.211 1772.5ZM190.213 1773.5L188.213 1773.5L187.713 1773.5L187.713 1772.5L188.213 1772.5L190.713 1772.5L190.713 1773.5L190.213 1773.5ZM184.213 1773.5L182.213 1773.5L181.713 1773.5L181.713 1772.5L182.213 1772.5L184.713 1772.5L184.713 1773.5L184.213 1773.5ZM178.213 1773.5L176.213 1773.5L175.713 1773.5L175.713 1772.5L176.213 1772.5L178.713 1772.5L178.713 1773.5L178.213 1773.5ZM172.213 1773.5L170.793 1773.5L170.09 1772.8L169.737 1772.44L170.444 1771.74L170.797 1772.09L171.354 1772.65L171 1773L171 1772.5L172.713 1772.5L172.713 1773.5L172.213 1773.5ZM167.262 1769.97L165.847 1768.55L165.494 1768.2L166.201 1767.49L166.555 1767.85L168.322 1769.62L167.615 1770.32L167.262 1769.97ZM165.5 1764.28L165.5 1762.28L165.5 1761.78L166.5 1761.78L166.5 1762.28L166.5 1764.78L165.5 1764.78L165.5 1764.28ZM165.5 1758.28L165.5 1757.79L167.414 1755.88L168.121 1756.59L166.354 1758.35L166 1758L166.5 1758L166.5 1758.78L165.5 1758.78L165.5 1758.28Z"/>
		<path fill="white" d="M163 1755L168 1750L193 1750L198 1755L198 1766L193 1771L168 1771L163 1766L163 1755Z"/>
		<path fill="none" stroke="black" stroke-width="1" stroke-linecap="square" stroke-miterlimit="4" transform="translate(0.5 0.5)" d="M182 1771L188 1777L191 1774"/>
		<path fill="none" stroke="black" stroke-width="1" stroke-linecap="square" stroke-miterlimit="4" transform="translate(0.5 0.5)" d="M168 1760L173 1760L177 1756"/>
		<path fill="none" stroke="black" stroke-width="1" stroke-linecap="square" stroke-miterlimit="4" transform="translate(0.5 0.5)" d="M183 1760L191 1760"/>
		<path fill="none" stroke="black" stroke-width="1" stroke-linecap="square" stroke-miterlimit="4" transform="translate(0.5 0.5)" d="M183 1756L187 1756L187 1764L183 1764"/>
		<rect x="179" y="1755" width="3" height="3"/>
		<rect x="179" y="1759" width="3" height="3"/>
		<rect x="179" y="1763" width="3" height="3"/>
		<text font-size="12" font-family="Segoe UI" x="167.76562, " y="1790, ">
				0
		</text>
		<text font-size="12" font-family="Symbol" x="182.72266, " y="1789, ">
				
		</text>
		<text font-size="12" font-family="Segoe UI" x="175.89844, 178.5, " y="1790, ">
				..
		</text>
		<path transform="translate(0.5 0.5)" d="M166.889 1750.4L167.793 1749.5L168.929 1749.5L169.429 1749.5L169.429 1750.5L168.929 1750.5L168 1750.5L168 1750L168.354 1750.35L167.243 1751.46L166.536 1750.76L166.889 1750.4ZM172.929 1749.5L174.929 1749.5L175.429 1749.5L175.429 1750.5L174.929 1750.5L172.429 1750.5L172.429 1749.5L172.929 1749.5ZM178.929 1749.5L180.929 1749.5L181.429 1749.5L181.429 1750.5L180.929 1750.5L178.429 1750.5L178.429 1749.5L178.929 1749.5ZM184.929 1749.5L186.929 1749.5L187.429 1749.5L187.429 1750.5L186.929 1750.5L184.429 1750.5L184.429 1749.5L184.929 1749.5ZM190.929 1749.5L192.207 1749.5L193.01 1750.3L193.364 1750.66L192.657 1751.36L192.303 1751.01L191.646 1750.35L192 1750L192 1750.5L190.429 1750.5L190.429 1749.5L190.929 1749.5ZM195.839 1753.13L197.253 1754.55L197.607 1754.9L196.899 1755.61L196.546 1755.25L194.778 1753.49L195.485 1752.78L195.839 1753.13ZM197.5 1758.86L197.5 1760.86L197.5 1761.36L196.5 1761.36L196.5 1760.86L196.5 1758.36L197.5 1758.36L197.5 1758.86ZM197.5 1764.86L197.5 1765.21L196.04 1766.67L195.686 1767.02L194.979 1766.31L195.333 1765.96L196.646 1764.65L197 1765L196.5 1765L196.5 1764.36L197.5 1764.36L197.5 1764.86ZM193.211 1769.5L192.207 1770.5L191.213 1770.5L190.713 1770.5L190.713 1769.5L191.213 1769.5L192 1769.5L192 1770L191.646 1769.65L192.858 1768.44L193.565 1769.14L193.211 1769.5ZM187.213 1770.5L185.213 1770.5L184.713 1770.5L184.713 1769.5L185.213 1769.5L187.713 1769.5L187.713 1770.5L187.213 1770.5ZM181.213 1770.5L179.213 1770.5L178.713 1770.5L178.713 1769.5L179.213 1769.5L181.713 1769.5L181.713 1770.5L181.213 1770.5ZM175.213 1770.5L173.213 1770.5L172.713 1770.5L172.713 1769.5L173.213 1769.5L175.713 1769.5L175.713 1770.5L175.213 1770.5ZM169.213 1770.5L167.793 1770.5L167.09 1769.8L166.737 1769.44L167.444 1768.74L167.797 1769.09L168.354 1769.65L168 1770L168 1769.5L169.713 1769.5L169.713 1770.5L169.213 1770.5ZM164.262 1766.97L162.847 1765.55L162.494 1765.2L163.201 1764.49L163.555 1764.85L165.322 1766.62L164.615 1767.32L164.262 1766.97ZM162.5 1761.28L162.5 1759.28L162.5 1758.78L163.5 1758.78L163.5 1759.28L163.5 1761.78L162.5 1761.78L162.5 1761.28ZM162.5 1755.28L162.5 1754.79L164.414 1752.88L165.121 1753.59L163.354 1755.35L163 1755L163.5 1755L163.5 1755.78L162.5 1755.78L162.5 1755.28Z"/>
		<rect fill="silver" x="236" y="1616" width="52" height="21"/>
		<rect fill="white" x="232" y="1612" width="52" height="21"/>
		<rect fill="#FFFFC0" x="237" y="1639" width="109" height="24"/>
		<text fill="gray" font-size="9" font-family="Segoe UI" x="237, 242.80518, 247.89844, 250.36377, 254.94287, 260.03613, 264.19336, 269.28662, 274.56006, 277.68896, 280.1543, 282.97119, 288.24463, 291.37354, 293.83887, 296.01855, 301.11182, 303.2915, 305.47119, 310.56445, 315.271, 317.73633, 319.91602, 322.0957, 327.18896, 331.6626, 333.84229, 338.93555, " y="1649, ">
				An anchor for inline linking
		</text>
		<text fill="gray" font-size="9" font-family="Segoe UI" x="237, 239.17969, 241.35938, 245.83301, 250.53955, 253.00488, 255.18457, 260.27783, 262.74316, 269.13281, 273.84814, 281.92969, " y="1661, ">
				like in HTML
		</text>
		<rect fill="white" x="241" y="1614" width="31" height="16"/>
		<text font-size="12" font-weight="600" font-family="Segoe UI" x="241, " y="1627, ">
				a
		</text>
		<path fill="none" stroke="black" stroke-width="1" stroke-linecap="square" stroke-miterlimit="4" transform="translate(0.5 0.5)" d="M234 1614L239 1614"/>
		<path fill="none" stroke="black" stroke-width="1" stroke-linecap="square" stroke-miterlimit="4" transform="translate(0.5 0.5)" d="M234 1616L238 1616"/>
		<path fill="none" stroke="black" stroke-width="1" stroke-linecap="square" stroke-miterlimit="4" transform="translate(0.5 0.5)" d="M234 1618L238 1618"/>
		<path fill="none" stroke="black" stroke-width="2" stroke-miterlimit="4" transform="translate(0.5 0.5)" d="M234 1630L238 1626"/>
		<path fill="none" stroke="black" stroke-width="1" stroke-linecap="square" stroke-miterlimit="4" transform="translate(0.5 0.5)" d="M235 1626L238 1626L238 1629"/>
		<rect fill="none" stroke="black" stroke-width="1" stroke-linecap="square" stroke-miterlimit="4" transform="translate(0.5 0.5)" x="232" y="1612" width="51" height="20"/>
		<rect x="278" y="1617" width="11" height="11"/>
		<rect fill="white" x="279" y="1618" width="9" height="9"/>
		<rect x="280" y="1622" width="7" height="1"/>
		<rect x="283" y="1619" width="1" height="7"/>
		<rect fill="silver" x="236" y="1679" width="52" height="21"/>
		<rect fill="white" x="232" y="1675" width="52" height="21"/>
		<rect fill="#FFFFC0" x="237" y="1702" width="113" height="36"/>
		<text fill="gray" font-size="9" font-family="Segoe UI" x="237, 242.80518, 245.27051, 250.57031, 255.27686, 260.37012, 265.07666, 268.20557, 270.38525, 274.54248, 277.00781, 284.75977, 289.46631, 293.62354, 298.7168, 303.2959, 308.38916, 310.56885, 314.3877, 322.13965, 324.60498, 327.42188, 332.69531, " y="1712, ">
				A generic mechanism for
		</text>
		<text fill="gray" font-size="9" font-family="Segoe UI" x="237, 241.5791, 246.87891, 252.17871, 254.3584, 259.45166, 264.75146, 267.2168, 269.39648, 274.48975, 276.66943, 278.84912, 283.94238, 288.64893, 291.11426, 293.29395, 298.38721, 301.2041, 306.47754, 309.60645, 317.3584, 321.9375, 324.9873, 327.16699, 332.44043, 337.53369, 339.99902, 343.04883, " y="1724, ">
				adding inline information to
		</text>
		<text fill="gray" font-size="9" font-family="Segoe UI" x="237, 242.29102, 246.87012, 249.99902, 253.04883, 256.86768, 259.33301, 264.60645, 267.42334, 269.88867, 272.93848, 278.03174, 282.73828, 285.20361, 288.25342, 292.95996, 297.09082, 300.14062, 305.23389, 309.81299, 311.99268, 314.45801, 318.61523, 323.88867, 328.98193, 332.03174, 336.73828, 341.83154, " y="1736, ">
				parts of the textual content
		</text>
		<rect fill="white" x="241" y="1677" width="31" height="16"/>
		<text font-size="12" font-weight="600" font-family="Segoe UI" x="241, 246.2793, 253.60352, 260.06055, " y="1690, ">
				span
		</text>
		<path fill="none" stroke="black" stroke-width="1" stroke-linecap="square" stroke-miterlimit="4" transform="translate(0.5 0.5)" d="M234 1677L239 1677"/>
		<path fill="none" stroke="black" stroke-width="1" stroke-linecap="square" stroke-miterlimit="4" transform="translate(0.5 0.5)" d="M234 1679L238 1679"/>
		<path fill="none" stroke="black" stroke-width="1" stroke-linecap="square" stroke-miterlimit="4" transform="translate(0.5 0.5)" d="M234 1681L238 1681"/>
		<path fill="none" stroke="black" stroke-width="2" stroke-miterlimit="4" transform="translate(0.5 0.5)" d="M234 1693L238 1689"/>
		<path fill="none" stroke="black" stroke-width="1" stroke-linecap="square" stroke-miterlimit="4" transform="translate(0.5 0.5)" d="M235 1689L238 1689L238 1692"/>
		<rect fill="none" stroke="black" stroke-width="1" stroke-linecap="square" stroke-miterlimit="4" transform="translate(0.5 0.5)" x="232" y="1675" width="51" height="20"/>
		<rect x="278" y="1680" width="11" height="11"/>
		<rect fill="white" x="279" y="1681" width="9" height="9"/>
		<rect x="280" y="1685" width="7" height="1"/>
		<rect x="283" y="1682" width="1" height="7"/>
		<rect fill="silver" x="236" y="1754" width="52" height="21"/>
		<rect fill="white" x="232" y="1750" width="52" height="21"/>
		<rect fill="#FFFFC0" x="237" y="1777" width="119" height="36"/>
		<text fill="gray" font-size="9" font-family="Segoe UI" x="237, 241.78125, 243.96094, 251.71289, 257.00391, 259.18359, 263.89014, 266.35547, 274.76221, 279.61377, 285.18604, 287.65137, 293.03467, 298.12793, 303.41895, 307.77393, 310.23926, 316.04443, 321.1377, 326.23096, 331.50439, 334.5542, 339.1333, 342.18311, 344.36279, 349.63623, " y="1787, ">
				Simple W3C Ruby Annotation
		</text>
		<text fill="gray" font-size="9" font-family="Segoe UI" x="237, 240.59912, 243.06445, 246.8833, 251.58984, 256.29639, 258.76172, 263.85498, 266.90479, 269.95459, 275.24561, 277.19678, 280.70361, 284.21045, 290.71436, 297.21826, 303.72217, 305.67334, 312.17725, 317.02881, 318.97998, 324.25342, 327.38232, 332.68213, 336.18896, 340.9043, 346.2876, " y="1799, ">
				- see http://www.w3.org/TR/
		</text>
		<text fill="gray" font-size="9" font-family="Segoe UI" x="237, 240.12891, 245.22217, 250.51318, 254.86816, 258.375, 263.69238, 267.51123, 269.69092, 277.44287, 282.73389, 284.91357, 289.62012, 293.21924, 296.34814, 301.44141, 306.73242, 311.0874, " y="1811, ">
				ruby/#simple-ruby1
		</text>
		<rect fill="white" x="241" y="1752" width="31" height="16"/>
		<text font-size="12" font-weight="600" font-family="Segoe UI" x="241, 245.81055, 253.07031, 260.51172, " y="1765, ">
				ruby
		</text>
		<path fill="none" stroke="black" stroke-width="2" stroke-miterlimit="4" transform="translate(0.5 0.5)" d="M234 1768L238 1764"/>
		<path fill="none" stroke="black" stroke-width="1" stroke-linecap="square" stroke-miterlimit="4" transform="translate(0.5 0.5)" d="M235 1764L238 1764L238 1767"/>
		<rect fill="none" stroke="black" stroke-width="1" stroke-linecap="square" stroke-miterlimit="4" transform="translate(0.5 0.5)" x="232" y="1750" width="51" height="20"/>
		<rect x="278" y="1755" width="11" height="11"/>
		<rect fill="white" x="279" y="1756" width="9" height="9"/>
		<rect x="280" y="1760" width="7" height="1"/>
		<rect x="283" y="1757" width="1" height="7"/>
		<rect fill="silver" x="236" y="1829" width="54" height="21"/>
		<rect fill="white" x="232" y="1825" width="54" height="21"/>
		<rect fill="#FFFFC0" x="237" y="1852" width="108" height="24"/>
		<text fill="gray" font-size="9" font-family="Segoe UI" x="237, 242.80518, 247.89844, 250.36377, 252.54346, 257.63672, 259.81641, 261.99609, 267.08936, 271.7959, 274.26123, 282.01318, 286.59229, 289.72119, 294.19482, 299.28809, 304.5791, 307.04443, 310.09424, 314.67334, 319.97314, 322.43848, 325.48828, 330.76172, 333.22705, 338.51807, " y="1862, ">
				An inline markup tag to be
		</text>
		<text fill="gray" font-size="9" font-family="Segoe UI" x="237, 242.09326, 245.91211, 250.61865, 255.91846, 258.38379, 264.8877, 267.06738, 270.11719, 275.21045, 277.67578, 282.25488, 287.34814, 291.70312, 294.16846, 298.32568, 303.59912, 308.69238, 312.84961, 317.55615, 322.84717, " y="1874, ">
				used with any concept
		</text>
		<rect fill="white" x="241" y="1827" width="33" height="16"/>
		<text font-size="12" font-weight="600" font-family="Segoe UI" x="241, 244.41016, 251.66992, 255.08008, 258.49023, 265.75, " y="1840, ">
				inline
		</text>
		<path fill="none" stroke="black" stroke-width="1" stroke-linecap="square" stroke-miterlimit="4" transform="translate(0.5 0.5)" d="M234 1827L239 1827"/>
		<path fill="none" stroke="black" stroke-width="1" stroke-linecap="square" stroke-miterlimit="4" transform="translate(0.5 0.5)" d="M234 1829L238 1829"/>
		<path fill="none" stroke="black" stroke-width="1" stroke-linecap="square" stroke-miterlimit="4" transform="translate(0.5 0.5)" d="M234 1831L238 1831"/>
		<path fill="none" stroke="black" stroke-width="2" stroke-miterlimit="4" transform="translate(0.5 0.5)" d="M234 1843L238 1839"/>
		<path fill="none" stroke="black" stroke-width="1" stroke-linecap="square" stroke-miterlimit="4" transform="translate(0.5 0.5)" d="M235 1839L238 1839L238 1842"/>
		<rect fill="none" stroke="black" stroke-width="1" stroke-linecap="square" stroke-miterlimit="4" transform="translate(0.5 0.5)" x="232" y="1825" width="53" height="20"/>
		<rect x="280" y="1830" width="11" height="11"/>
		<rect fill="white" x="281" y="1831" width="9" height="9"/>
		<rect x="282" y="1835" width="7" height="1"/>
		<rect x="285" y="1832" width="1" height="7"/>
		<path fill="silver" d="M236 1897L241 1892L309 1892L314 1897L314 1908L309 1913L241 1913L236 1908L236 1897Z"/>
		<path fill="white" d="M232 1893L237 1888L305 1888L310 1893L310 1904L305 1909L237 1909L232 1904L232 1893Z"/>
		<rect fill="#FFFFC0" x="237" y="1915" width="120" height="36"/>
		<text fill="gray" font-size="9" font-family="Segoe UI" x="237, 241.55273, 245.68359, 248.7334, 253.43994, 258.5332, 262.35205, 264.53174, 269.80518, 274.89844, 277.36377, 282.65479, 287.92822, 290.10791, 295.20117, 298.25098, 300.71631, 303.5332, 308.80664, 311.93555, 314.40088, 319.69189, 322.8208, 328.09424, 332.40527, 334.58496, 339.88477, 344.59131, 347.72021, " y="1925, ">
				Extension point for provider-
		</text>
		<text fill="gray" font-size="9" font-family="Segoe UI" x="237, 242.2998, 247.00635, 249.82324, 252.00293, 257.09619, 261.80273, 267.10254, 269.56787, 274.85889, 277.98779, 283.26123, 288.55225, 293.25879, 296.3877, 299.4375, 301.61719, 306.32373, 310.14258, 312.60791, 315.4248, 318.55371, 323.82715, 331.5791, 334.04443, 339.31787, 342.36768, 347.46094, 352.16748, " y="1937, ">
				defined properties from other
		</text>
		<text fill="gray" font-size="9" font-family="Segoe UI" x="237, 242.09326, 246.67236, 254.42432, 259.13086, 262.94971, 268.24072, 272.81982, 276.97705, 281.68359, " y="1949, ">
				namespaces
		</text>
		<rect fill="white" x="259" y="1890" width="46" height="16"/>
		<text font-size="12" font-weight="600" font-family="Segoe UI" x="259, 266.10742, 273.21484, 280.55078, 285.2207, 292.44531, 298.9375, " y="1903, ">
				##other
		</text>
		<rect fill="white" x="237" y="1890" width="20" height="16"/>
		<text fill="gray" font-size="12" font-family="Segoe UI" x="237, 243.10547, 249.89648, " y="1903, ">
				any
		</text>
		<path fill="none" stroke="black" stroke-width="1" stroke-linecap="square" stroke-miterlimit="4" transform="translate(0.5 0.5)" d="M232 1893L237 1888L304 1888L309 1893L309 1903L304 1908L237 1908L232 1903L232 1893Z"/>
		<rect x="197" y="1755" width="11" height="11"/>
		<rect fill="white" x="198" y="1756" width="9" height="9"/>
		<rect x="199" y="1760" width="7" height="1"/>
		<rect x="63" y="1284" width="11" height="11"/>
		<rect fill="white" x="64" y="1285" width="9" height="9"/>
		<rect x="65" y="1289" width="7" height="1"/>
	</g>
</svg>
