<?xml version="1.0" encoding="utf-8" ?>
<svg xmlns="http://www.w3.org/2000/svg" xmlns:xlink="http://www.w3.org/1999/xlink" width="389" height="1746">
	<clipPath id="cl_2a6">
		<rect x="-10" y="-5" width="389" height="1746"/>
	</clipPath>
	<g clip-path="url(#cl_2a6)">
		<rect fill="#FFFFC0" x="132" width="237" height="1736"/>
		<rect fill="none" stroke="gray" stroke-width="1" stroke-linecap="square" stroke-miterlimit="4" transform="translate(0.5 0.5)" x="132" width="236" height="1735"/>
		<path fill="none" stroke="black" stroke-width="1" stroke-linecap="square" stroke-miterlimit="4" transform="translate(0.5 0.5)" d="M84 1198L144 1198"/>
		<path fill="none" stroke="black" stroke-width="1" stroke-linecap="square" stroke-miterlimit="4" transform="translate(0.5 0.5)" d="M145 1198L145 794"/>
		<path transform="translate(0.5 0.5)" d="M145.5 1198L145.5 1200L145.5 1200.5L144.5 1200.5L144.5 1200L144.5 1197.5L145.5 1197.5L145.5 1198ZM145.5 1204L145.5 1206L145.5 1206.5L144.5 1206.5L144.5 1206L144.5 1203.5L145.5 1203.5L145.5 1204ZM145.5 1210L145.5 1212L145.5 1212.5L144.5 1212.5L144.5 1212L144.5 1209.5L145.5 1209.5L145.5 1210ZM145.5 1216L145.5 1218L145.5 1218.5L144.5 1218.5L144.5 1218L144.5 1215.5L145.5 1215.5L145.5 1216ZM145.5 1222L145.5 1224L145.5 1224.5L144.5 1224.5L144.5 1224L144.5 1221.5L145.5 1221.5L145.5 1222ZM145.5 1228L145.5 1230L145.5 1230.5L144.5 1230.5L144.5 1230L144.5 1227.5L145.5 1227.5L145.5 1228ZM145.5 1234L145.5 1236L145.5 1236.5L144.5 1236.5L144.5 1236L144.5 1233.5L145.5 1233.5L145.5 1234ZM145.5 1240L145.5 1242L145.5 1242.5L144.5 1242.5L144.5 1242L144.5 1239.5L145.5 1239.5L145.5 1240ZM145.5 1246L145.5 1248L145.5 1248.5L144.5 1248.5L144.5 1248L144.5 1245.5L145.5 1245.5L145.5 1246ZM145.5 1252L145.5 1254L145.5 1254.5L144.5 1254.5L144.5 1254L144.5 1251.5L145.5 1251.5L145.5 1252ZM145.5 1258L145.5 1260L145.5 1260.5L144.5 1260.5L144.5 1260L144.5 1257.5L145.5 1257.5L145.5 1258ZM145.5 1264L145.5 1266L145.5 1266.5L144.5 1266.5L144.5 1266L144.5 1263.5L145.5 1263.5L145.5 1264ZM145.5 1270L145.5 1272L145.5 1272.5L144.5 1272.5L144.5 1272L144.5 1269.5L145.5 1269.5L145.5 1270ZM145.5 1276L145.5 1278L145.5 1278.5L144.5 1278.5L144.5 1278L144.5 1275.5L145.5 1275.5L145.5 1276ZM145.5 1282L145.5 1284L145.5 1284.5L144.5 1284.5L144.5 1284L144.5 1281.5L145.5 1281.5L145.5 1282ZM145.5 1288L145.5 1290L145.5 1290.5L144.5 1290.5L144.5 1290L144.5 1287.5L145.5 1287.5L145.5 1288ZM145.5 1294L145.5 1296L145.5 1296.5L144.5 1296.5L144.5 1296L144.5 1293.5L145.5 1293.5L145.5 1294ZM145.5 1300L145.5 1302L145.5 1302.5L144.5 1302.5L144.5 1302L144.5 1299.5L145.5 1299.5L145.5 1300ZM145.5 1306L145.5 1308L145.5 1308.5L144.5 1308.5L144.5 1308L144.5 1305.5L145.5 1305.5L145.5 1306ZM145.5 1312L145.5 1314L145.5 1314.5L144.5 1314.5L144.5 1314L144.5 1311.5L145.5 1311.5L145.5 1312ZM145.5 1318L145.5 1320L145.5 1320.5L144.5 1320.5L144.5 1320L144.5 1317.5L145.5 1317.5L145.5 1318ZM145.5 1324L145.5 1326L145.5 1326.5L144.5 1326.5L144.5 1326L144.5 1323.5L145.5 1323.5L145.5 1324ZM145.5 1330L145.5 1332L145.5 1332.5L144.5 1332.5L144.5 1332L144.5 1329.5L145.5 1329.5L145.5 1330ZM145.5 1336L145.5 1338L145.5 1338.5L144.5 1338.5L144.5 1338L144.5 1335.5L145.5 1335.5L145.5 1336ZM145.5 1342L145.5 1344L145.5 1344.5L144.5 1344.5L144.5 1344L144.5 1341.5L145.5 1341.5L145.5 1342ZM145.5 1348L145.5 1350L145.5 1350.5L144.5 1350.5L144.5 1350L144.5 1347.5L145.5 1347.5L145.5 1348ZM145.5 1354L145.5 1356L145.5 1356.5L144.5 1356.5L144.5 1356L144.5 1353.5L145.5 1353.5L145.5 1354ZM145.5 1360L145.5 1362L145.5 1362.5L144.5 1362.5L144.5 1362L144.5 1359.5L145.5 1359.5L145.5 1360ZM145.5 1366L145.5 1368L145.5 1368.5L144.5 1368.5L144.5 1368L144.5 1365.5L145.5 1365.5L145.5 1366ZM145.5 1372L145.5 1374L145.5 1374.5L144.5 1374.5L144.5 1374L144.5 1371.5L145.5 1371.5L145.5 1372ZM145.5 1378L145.5 1380L145.5 1380.5L144.5 1380.5L144.5 1380L144.5 1377.5L145.5 1377.5L145.5 1378ZM145.5 1384L145.5 1386L145.5 1386.5L144.5 1386.5L144.5 1386L144.5 1383.5L145.5 1383.5L145.5 1384ZM145.5 1390L145.5 1392L145.5 1392.5L144.5 1392.5L144.5 1392L144.5 1389.5L145.5 1389.5L145.5 1390ZM145.5 1396L145.5 1398L145.5 1398.5L144.5 1398.5L144.5 1398L144.5 1395.5L145.5 1395.5L145.5 1396ZM145.5 1402L145.5 1404L145.5 1404.5L144.5 1404.5L144.5 1404L144.5 1401.5L145.5 1401.5L145.5 1402ZM145.5 1408L145.5 1410L145.5 1410.5L144.5 1410.5L144.5 1410L144.5 1407.5L145.5 1407.5L145.5 1408ZM145.5 1414L145.5 1416L145.5 1416.5L144.5 1416.5L144.5 1416L144.5 1413.5L145.5 1413.5L145.5 1414ZM145.5 1420L145.5 1422L145.5 1422.5L144.5 1422.5L144.5 1422L144.5 1419.5L145.5 1419.5L145.5 1420ZM145.5 1426L145.5 1428L145.5 1428.5L144.5 1428.5L144.5 1428L144.5 1425.5L145.5 1425.5L145.5 1426ZM145.5 1432L145.5 1434L145.5 1434.5L144.5 1434.5L144.5 1434L144.5 1431.5L145.5 1431.5L145.5 1432ZM145.5 1438L145.5 1440L145.5 1440.5L144.5 1440.5L144.5 1440L144.5 1437.5L145.5 1437.5L145.5 1438ZM145.5 1444L145.5 1446L145.5 1446.5L144.5 1446.5L144.5 1446L144.5 1443.5L145.5 1443.5L145.5 1444ZM145.5 1450L145.5 1452L145.5 1452.5L144.5 1452.5L144.5 1452L144.5 1449.5L145.5 1449.5L145.5 1450ZM145.5 1456L145.5 1458L145.5 1458.5L144.5 1458.5L144.5 1458L144.5 1455.5L145.5 1455.5L145.5 1456ZM145.5 1462L145.5 1464L145.5 1464.5L144.5 1464.5L144.5 1464L144.5 1461.5L145.5 1461.5L145.5 1462ZM145.5 1468L145.5 1470L145.5 1470.5L144.5 1470.5L144.5 1470L144.5 1467.5L145.5 1467.5L145.5 1468ZM145.5 1474L145.5 1476L145.5 1476.5L144.5 1476.5L144.5 1476L144.5 1473.5L145.5 1473.5L145.5 1474ZM145.5 1480L145.5 1482L145.5 1482.5L144.5 1482.5L144.5 1482L144.5 1479.5L145.5 1479.5L145.5 1480ZM145.5 1486L145.5 1488L145.5 1488.5L144.5 1488.5L144.5 1488L144.5 1485.5L145.5 1485.5L145.5 1486ZM145.5 1492L145.5 1494L145.5 1494.5L144.5 1494.5L144.5 1494L144.5 1491.5L145.5 1491.5L145.5 1492ZM145.5 1498L145.5 1500L145.5 1500.5L144.5 1500.5L144.5 1500L144.5 1497.5L145.5 1497.5L145.5 1498ZM145.5 1504L145.5 1506L145.5 1506.5L144.5 1506.5L144.5 1506L144.5 1503.5L145.5 1503.5L145.5 1504ZM145.5 1510L145.5 1512L145.5 1512.5L144.5 1512.5L144.5 1512L144.5 1509.5L145.5 1509.5L145.5 1510ZM145.5 1516L145.5 1518L145.5 1518.5L144.5 1518.5L144.5 1518L144.5 1515.5L145.5 1515.5L145.5 1516ZM145.5 1522L145.5 1524L145.5 1524.5L144.5 1524.5L144.5 1524L144.5 1521.5L145.5 1521.5L145.5 1522ZM145.5 1528L145.5 1530L145.5 1530.5L144.5 1530.5L144.5 1530L144.5 1527.5L145.5 1527.5L145.5 1528ZM145.5 1534L145.5 1536L145.5 1536.5L144.5 1536.5L144.5 1536L144.5 1533.5L145.5 1533.5L145.5 1534ZM145.5 1540L145.5 1542L145.5 1542.5L144.5 1542.5L144.5 1542L144.5 1539.5L145.5 1539.5L145.5 1540ZM145.5 1546L145.5 1548L145.5 1548.5L144.5 1548.5L144.5 1548L144.5 1545.5L145.5 1545.5L145.5 1546ZM145.5 1552L145.5 1554L145.5 1554.5L144.5 1554.5L144.5 1554L144.5 1551.5L145.5 1551.5L145.5 1552ZM145.5 1558L145.5 1560L145.5 1560.5L144.5 1560.5L144.5 1560L144.5 1557.5L145.5 1557.5L145.5 1558ZM145.5 1564L145.5 1566L145.5 1566.5L144.5 1566.5L144.5 1566L144.5 1563.5L145.5 1563.5L145.5 1564ZM145.5 1570L145.5 1572L145.5 1572.5L144.5 1572.5L144.5 1572L144.5 1569.5L145.5 1569.5L145.5 1570ZM145.5 1576L145.5 1578L145.5 1578.5L144.5 1578.5L144.5 1578L144.5 1575.5L145.5 1575.5L145.5 1576ZM145.5 1582L145.5 1584L145.5 1584.5L144.5 1584.5L144.5 1584L144.5 1581.5L145.5 1581.5L145.5 1582ZM145.5 1588L145.5 1590L145.5 1590.5L144.5 1590.5L144.5 1590L144.5 1587.5L145.5 1587.5L145.5 1588ZM145.5 1594L145.5 1596L145.5 1596.5L144.5 1596.5L144.5 1596L144.5 1593.5L145.5 1593.5L145.5 1594ZM145.5 1600L145.5 1602.5L144.5 1602.5L144.5 1599.5L145.5 1599.5L145.5 1600Z"/>
		<path transform="translate(0.5 0.5)" d="M145 1602.5L147 1602.5L147.5 1602.5L147.5 1603.5L147 1603.5L144.5 1603.5L144.5 1602.5L145 1602.5ZM151 1602.5L153 1602.5L153.5 1602.5L153.5 1603.5L153 1603.5L150.5 1603.5L150.5 1602.5L151 1602.5ZM157 1602.5L159.5 1602.5L159.5 1603.5L156.5 1603.5L156.5 1602.5L157 1602.5Z"/>
		<path fill="none" stroke="black" stroke-width="1" stroke-linecap="square" stroke-miterlimit="4" transform="translate(0.5 0.5)" d="M145 793L159 793"/>
		<rect fill="silver" x="4" y="1192" width="79" height="21"/>
		<rect fill="white" y="1188" width="79" height="21"/>
		<rect fill="#FFFFC0" x="140" y="8" width="81" height="16"/>
		<text fill="gray" font-size="12" font-weight="600" font-family="Segoe UI" x="140, 149.09961, 156.35938, 162.81641, 166.22656, 173.59766, 178.32617, 185.66211, 193.10352, 199.5957, 206.05273, 213.49414, " y="21, ">
				QualPropType
		</text>
		<rect fill="white" x="5" y="1215" width="112" height="36"/>
		<text fill="gray" font-size="9" font-family="Segoe UI" x="5, 9.715332, 14.808594, 19.515137, 21.980469, 27.271484, 32.364746, 37.655762, 39.835449, 42.015137, 45.833984, 50.927246, 53.106934, 58.200195, 63.5, 65.965332, 69.78418, 72.833984, 77.413086, 80.462891, 85.556152, 89.375, 91.840332, 97.11377, 99.930664, 102.396, 105.4458, 110.53906, " y="1225, ">
				The publishing status of the
		</text>
		<text fill="gray" font-size="9" font-family="Segoe UI" x="5, 7.3950195, 10.444824, 15.151367, 22.90332, 24.854492, 27.319824, 29.499512, 32.549316, 36.368164, 38.833496, 43.144531, 47.723633, 49.90332, 54.996582, 59.703125, 62.168457, 64.348145, 68.166992, 70.632324, 74.161133, 79.254395, 83.073242, 87.652344, 92.943359, 95.123047, 99.82959, 103.3584, 105.82373, 111.11475, " y="1237, ">
				Item, its value is &quot;usable&quot; by
		</text>
		<text fill="gray" font-size="9" font-family="Segoe UI" x="5, 10.299805, 15.006348, 17.823242, 22.402344, 27.495605, 29.675293, 32.725098, " y="1249, ">
				default.
		</text>
		<rect fill="white" x="9" y="1190" width="58" height="16"/>
		<text font-size="12" font-weight="600" font-family="Segoe UI" x="9, 16.441406, 23.701172, 31.142578, 37.570312, 42.240234, 48.697266, 53.367188, 60.626953, " y="1203, ">
				pubStatus
		</text>
		<rect fill="none" stroke="black" stroke-width="1" stroke-linecap="square" stroke-miterlimit="4" transform="translate(0.5 0.5)" y="1188" width="78" height="20"/>
		<path fill="white" d="M237 55L237 36L160 36L160 55L160 1549L307 1549L307 55L237 55Z"/>
		<rect fill="white" x="180" y="38" width="51" height="16"/>
		<text font-size="12" font-style="italic" font-family="Segoe UI" x="180, 186.50391, 190.38281, 194.26172, 198.5332, 201.63867, 208.14258, 214.83984, 218.73047, 224.57227, " y="51, ">
				attributes
		</text>
		<path fill="none" stroke="black" stroke-width="1" stroke-linecap="square" stroke-miterlimit="4" transform="translate(0.5 0.5)" d="M237 55L237 36L160 36L160 55L160 1549L307 1549L307 55L237 55Z"/>
		<rect fill="silver" x="178" y="68" width="52" height="21"/>
		<rect fill="white" x="174" y="64" width="52" height="21"/>
		<rect fill="white" x="179" y="91" width="101" height="24"/>
		<text fill="gray" font-size="9" font-family="Segoe UI" x="179, 183.71533, 188.80859, 193.51514, 195.98047, 198.16016, 203.43359, 207.59082, 212.16992, 214.34961, 216.81494, 218.99463, 224.29443, 229.00098, 234.09424, 237.14404, 239.32373, 242.14062, 244.32031, 249.02686, 252.15576, 254.62109, 259.89453, 262.71143, 265.17676, 268.22656, 273.31982, " y="101, ">
				The local identifier of the
		</text>
		<text fill="gray" font-size="9" font-family="Segoe UI" x="179, 184.29102, 187.41992, 192.69336, 197.98438, 202.69092, 205.81982, 208.86963, 213.22461, " y="113, ">
				property.
		</text>
		<rect fill="white" x="183" y="66" width="36" height="16"/>
		<text font-size="12" font-weight="600" font-family="Segoe UI" x="183, 186.41016, " y="79, ">
				id
		</text>
		<rect fill="none" stroke="black" stroke-width="1" stroke-linecap="square" stroke-miterlimit="4" transform="translate(0.5 0.5)" x="174" y="64" width="51" height="20"/>
		<rect fill="silver" x="178" y="126" width="58" height="21"/>
		<rect fill="white" x="174" y="122" width="58" height="21"/>
		<rect fill="white" x="179" y="149" width="121" height="120"/>
		<text fill="gray" font-size="9" font-family="Segoe UI" x="179, 181.39502, 184.21191, 186.67725, 189.72705, 194.82031, 199.52686, 201.99219, 207.2832, 210.41211, 215.68555, 220.97656, 225.68311, 228.81201, 231.86182, 236.2168, 238.68213, 242.99316, 247.57227, 249.75195, 254.84521, 259.55176, 262.01709, 264.19678, 268.01562, 270.48096, 275.57422, 280.84766, " y="159, ">
				If the property value is not
		</text>
		<text fill="gray" font-size="9" font-family="Segoe UI" x="179, 184.2998, 189.00635, 191.82324, 194.00293, 199.09619, 203.80273, 209.10254, 211.05371, 213.51904, 217.33789, 222.62891, 227.33545, 231.49268, 233.67236, 236.48926, 238.66895, 243.37549, 247.19434, 249.65967, 256.16357, 261.25684, 263.43652, 267.59375, 272.68701, 275.15234, 279.85889, 284.95215, 288.00195, 290.18164, 293.23145, " y="171, ">
				defined, specifies which entity
		</text>
		<text fill="gray" font-size="9" font-family="Segoe UI" x="179, 181.71582, 187.00684, 191.71338, 194.84229, 198.66113, 203.93457, 209.02783, 210.979, 213.44434, 218.71777, 221.84668, 227.14648, 231.72559, 236.81885, 238.99854, 242.81738, 247.39648, 250.44629, 252.62598, 257.89941, 262.99268, 265.45801, 270.73145, " y="183, ">
				(person, organisation or
		</text>
		<text fill="gray" font-size="9" font-family="Segoe UI" x="179, 182.81885, 187.17383, 190.99268, 194.04248, 198.74902, 206.50098, 209.2168, 211.68213, 218.18604, 220.36572, 222.54541, 224.7251, 227.19043, 231.89697, 237.19678, 239.37646, 242.42627, 244.8916, 247.94141, 253.03467, 257.74121, 260.20654, 265.49756, 268.62646, 273.8999, 279.19092, 283.89746, 287.02637, 290.07617, " y="195, ">
				system) will edit the property
		</text>
		<text fill="gray" font-size="9" font-family="Segoe UI" x="179, 183.31104, 187.89014, 190.06982, 195.16309, 199.86963, 202.33496, 205.93408, 208.39941, 213.10596, 217.23682, 222.52783, 225.65674, 230.36328, 234.18213, 238.00098, 242.70752, 248.00732, 250.47266, 255.76367, 260.11865, 262.58398, 267.16309, 269.62842, 276.41357, 281.98584, 287.25928, 292.55908, 297.26562, " y="207, ">
				value - expressed by a QCode.
		</text>
		<text fill="gray" font-size="9" font-family="Segoe UI" x="179, 181.39502, 184.21191, 186.67725, 189.72705, 194.82031, 199.52686, 201.99219, 207.2832, 210.41211, 215.68555, 220.97656, 225.68311, 228.81201, 231.86182, 236.2168, 238.68213, 242.99316, 247.57227, 249.75195, 254.84521, 259.55176, 262.01709, 264.19678, " y="219, ">
				If the property value is
		</text>
		<text fill="gray" font-size="9" font-family="Segoe UI" x="179, 184.2998, 189.00635, 191.82324, 194.00293, 199.09619, 203.80273, 209.10254, 211.05371, 213.51904, 217.33789, 222.62891, 227.33545, 231.49268, 233.67236, 236.48926, 238.66895, 243.37549, 247.19434, 249.65967, 256.16357, 261.25684, 263.43652, 267.59375, 272.68701, 275.15234, 279.85889, 284.95215, 288.00195, 290.18164, 293.23145, " y="231, ">
				defined, specifies which entity
		</text>
		<text fill="gray" font-size="9" font-family="Segoe UI" x="179, 181.71582, 187.00684, 191.71338, 194.84229, 198.66113, 203.93457, 209.02783, 210.979, 213.44434, 218.71777, 221.84668, 227.14648, 231.72559, 236.81885, 238.99854, 242.81738, 247.39648, 250.44629, 252.62598, 257.89941, 262.99268, 265.45801, 270.73145, " y="243, ">
				(person, organisation or
		</text>
		<text fill="gray" font-size="9" font-family="Segoe UI" x="179, 182.81885, 187.17383, 190.99268, 194.04248, 198.74902, 206.50098, 209.2168, 211.68213, 216.77539, 221.35449, 225.17334, 227.63867, 232.34521, 237.64502, 239.82471, 242.87451, 247.58105, 252.88086, 255.34619, 258.396, 263.48926, " y="255, ">
				system) has edited the
		</text>
		<text fill="gray" font-size="9" font-family="Segoe UI" x="179, 184.29102, 187.41992, 192.69336, 197.98438, 202.69092, 205.81982, 208.86963, 213.22461, 215.68994, 220.00098, 224.58008, 226.75977, 231.85303, 236.55957, " y="267, ">
				property value.
		</text>
		<rect fill="white" x="183" y="124" width="42" height="16"/>
		<text font-size="12" font-weight="600" font-family="Segoe UI" x="183, 188.75977, 193.48828, 199.98047, 206.4375, 211.06055, 218.39648, " y="137, ">
				creator
		</text>
		<rect fill="none" stroke="black" stroke-width="1" stroke-linecap="square" stroke-miterlimit="4" transform="translate(0.5 0.5)" x="174" y="122" width="57" height="20"/>
		<rect fill="silver" x="178" y="280" width="73" height="21"/>
		<rect fill="white" x="174" y="276" width="73" height="21"/>
		<rect fill="white" x="179" y="303" width="120" height="108"/>
		<text fill="gray" font-size="9" font-family="Segoe UI" x="179, 181.39502, 184.21191, 186.67725, 189.72705, 194.82031, 199.52686, 201.99219, 207.2832, 210.41211, 215.68555, 220.97656, 225.68311, 228.81201, 231.86182, 236.2168, 238.68213, 242.99316, 247.57227, 249.75195, 254.84521, 259.55176, 262.01709, 264.19678, 268.01562, 270.48096, 275.57422, 280.84766, " y="313, ">
				If the property value is not
		</text>
		<text fill="gray" font-size="9" font-family="Segoe UI" x="179, 184.2998, 189.00635, 191.82324, 194.00293, 199.09619, 203.80273, 209.10254, 211.05371, 213.51904, 217.33789, 222.62891, 227.33545, 231.49268, 233.67236, 236.48926, 238.66895, 243.37549, 247.19434, 249.65967, 256.16357, 261.25684, 263.43652, 267.59375, 272.68701, 275.15234, 279.85889, 284.95215, 288.00195, 290.18164, 293.23145, " y="325, ">
				defined, specifies which entity
		</text>
		<text fill="gray" font-size="9" font-family="Segoe UI" x="179, 181.71582, 187.00684, 191.71338, 194.84229, 198.66113, 203.93457, 209.02783, 210.979, 213.44434, 218.71777, 221.84668, 227.14648, 231.72559, 236.81885, 238.99854, 242.81738, 247.39648, 250.44629, 252.62598, 257.89941, 262.99268, 265.45801, 270.73145, " y="337, ">
				(person, organisation or
		</text>
		<text fill="gray" font-size="9" font-family="Segoe UI" x="179, 182.81885, 187.17383, 190.99268, 194.04248, 198.74902, 206.50098, 209.2168, 211.68213, 218.18604, 220.36572, 222.54541, 224.7251, 227.19043, 231.89697, 237.19678, 239.37646, 242.42627, 244.8916, 247.94141, 253.03467, 257.74121, 260.20654, 265.49756, 268.62646, 273.8999, 279.19092, 283.89746, 287.02637, 290.07617, " y="349, ">
				system) will edit the property
		</text>
		<text fill="gray" font-size="9" font-family="Segoe UI" x="179, 182.59912, 185.06445, 189.771, 193.90186, 199.19287, 202.32178, 207.02832, 210.84717, 214.66602, 219.37256, 224.67236, 227.1377, 232.42871, 236.78369, 239.24902, 243.82812, 246.29346, 252.47656, 257.85986, 260.25488, 262.20605, 264.67139, 267.06641, 269.8833, 272.34863, 275.39844, 280.4917, " y="361, ">
				- expressed by a URI. If the
		</text>
		<text fill="gray" font-size="9" font-family="Segoe UI" x="179, 184.29102, 187.41992, 192.69336, 197.98438, 202.69092, 205.81982, 208.86963, 213.22461, 215.68994, 220.00098, 224.58008, 226.75977, 231.85303, 236.55957, 239.0249, 241.20459, 245.02344, 247.48877, 252.78857, 257.49512, 260.31201, 262.4917, 267.58496, 272.2915, 277.59131, " y="373, ">
				property value is defined,
		</text>
		<text fill="gray" font-size="9" font-family="Segoe UI" x="179, 182.81885, 188.10986, 192.81641, 196.97363, 199.15332, 201.97021, 204.1499, 208.85645, 212.67529, 215.14062, 221.64453, 226.73779, 228.91748, 233.07471, 238.16797, 240.6333, 245.33984, 250.43311, 253.48291, 255.6626, 258.7124, 263.06738, 265.53271, 268.24854, 273.53955, 278.24609, 281.375, 285.19385, 290.46729, 295.56055, " y="385, ">
				specifies which entity (person,
		</text>
		<text fill="gray" font-size="9" font-family="Segoe UI" x="179, 184.27344, 187.40234, 192.70215, 197.28125, 202.37451, 204.5542, 208.37305, 212.95215, 216.00195, 218.18164, 223.45508, 228.54834, 231.01367, 236.28711, 239.41602, 241.88135, 245.7002, 250.05518, 253.87402, 256.92383, 261.63037, 269.38232, 272.09814, 274.56348, 279.65674, 284.23584, " y="397, ">
				organisation or system) has
		</text>
		<text fill="gray" font-size="9" font-family="Segoe UI" x="179, 183.70654, 189.00635, 191.18604, 194.23584, 198.94238, 204.24219, 206.70752, 209.75732, 214.85059, 219.55713, 222.02246, 227.31348, 230.44238, 235.71582, 241.00684, 245.71338, 248.84229, 251.89209, 256.24707, " y="409, ">
				edited the property.
		</text>
		<rect fill="white" x="183" y="278" width="57" height="16"/>
		<text font-size="12" font-weight="600" font-family="Segoe UI" x="183, 188.75977, 193.48828, 199.98047, 206.4375, 211.06055, 218.39648, 223.20703, 230.4668, 235.28906, " y="291, ">
				creatoruri
		</text>
		<rect fill="none" stroke="black" stroke-width="1" stroke-linecap="square" stroke-miterlimit="4" transform="translate(0.5 0.5)" x="174" y="276" width="72" height="20"/>
		<rect fill="silver" x="178" y="422" width="69" height="21"/>
		<rect fill="white" x="174" y="418" width="69" height="21"/>
		<rect fill="white" x="179" y="445" width="119" height="72"/>
		<text fill="gray" font-size="9" font-family="Segoe UI" x="179, 183.71533, 188.80859, 193.51514, 195.98047, 201.28027, 205.85938, 208.90918, 213.61572, 216.08105, 218.79688, 223.37598, 228.46924, 233.76904, 235.72021, 238.18555, 243.45898, 248.75, 251.7998, 253.97949, 259.25293, 264.34619, 268.92529, 271.10498, 273.28467, 277.63965, 279.59082, 282.05615, 285.10596, 290.19922, " y="455, ">
				The date (and, optionally, the
		</text>
		<text fill="gray" font-size="9" font-family="Segoe UI" x="179, 182.0498, 184.22949, 191.98145, 196.68799, 199.40381, 201.86914, 208.37305, 213.46631, 218.17285, 223.26611, 225.73145, 228.78125, 233.87451, 238.58105, 241.04639, 246.3374, 249.46631, 254.73975, 260.03076, 264.7373, 267.86621, 270.91602, 275.271, 277.73633, 284.24023, 288.81934, " y="467, ">
				time) when the property was
		</text>
		<text fill="gray" font-size="9" font-family="Segoe UI" x="179, 181.17969, 185.75879, 189.57764, 192.62744, 195.09277, 202.84473, 208.11816, 213.41797, 215.59766, 218.41455, 220.59424, 225.30078, 230.60059, 232.55176, 235.01709, 239.73242, 244.82568, 249.53223, 251.99756, 254.17725, 259.27051, 261.4502, 264.5, 266.67969, 271.25879, 273.43848, 275.90381, 280.21484, 284.79395, 286.97363, 292.06689, " y="479, ">
				last modified. The initial value
		</text>
		<text fill="gray" font-size="9" font-family="Segoe UI" x="179, 181.17969, 184.99854, 187.46387, 190.51367, 195.60693, 200.31348, 202.77881, 208.07861, 212.65771, 215.70752, 220.41406, 222.87939, 225.59521, 230.17432, 235.26758, 240.56738, 242.51855, 244.98389, 250.25732, 255.54834, 258.59814, 260.77783, 266.05127, 271.14453, 275.72363, 277.90332, 280.08301, 284.43799, " y="491, ">
				is the date (and, optionally,
		</text>
		<text fill="gray" font-size="9" font-family="Segoe UI" x="179, 182.0498, 187.14307, 191.84961, 194.31494, 197.36475, 199.54443, 207.29639, 212.00293, 214.71875, 217.18408, 222.45752, 225.27441, 227.73975, 231.89697, 235.02588, 239.73242, 244.31152, 247.36133, 249.54102, 254.81445, 259.90771, 262.37305, 267.64648, 270.46338, 272.92871, 275.97852, 281.07178, " y="503, ">
				the time) of creation of the
		</text>
		<text fill="gray" font-size="9" font-family="Segoe UI" x="179, 184.29102, 187.41992, 192.69336, 197.98438, 202.69092, 205.81982, 208.86963, 213.22461, " y="515, ">
				property.
		</text>
		<rect fill="white" x="183" y="420" width="53" height="16"/>
		<text font-size="12" font-weight="600" font-family="Segoe UI" x="183, 193.99219, 201.32812, 208.75781, 212.16797, 216.76758, 220.17773, 226.66992, " y="433, ">
				modified
		</text>
		<rect fill="none" stroke="black" stroke-width="1" stroke-linecap="square" stroke-miterlimit="4" transform="translate(0.5 0.5)" x="174" y="418" width="68" height="20"/>
		<rect fill="silver" x="178" y="528" width="59" height="21"/>
		<rect fill="white" x="174" y="524" width="59" height="21"/>
		<rect fill="white" x="179" y="551" width="118" height="108"/>
		<text fill="gray" font-size="9" font-family="Segoe UI" x="179, 181.39502, 184.21191, 186.67725, 190.49609, 195.20264, 198.25244, 200.71777, 203.76758, 209.04102, 211.50635, 214.55615, 217.68506, 222.77832, 227.48486, 229.9502, 233, 238.09326, " y="561, ">
				If set to true the
		</text>
		<text fill="gray" font-size="9" font-family="Segoe UI" x="179, 183.15723, 188.43066, 191.55957, 194.68848, 199.39502, 203.21387, 208.50488, 213.77832, 218.87158, 224.17139, 226.35107, 231.44434, 236.74414, 239.20947, 244.50049, 247.62939, 252.90283, 258.19385, 262.90039, 266.0293, 269.0791, 273.43408, 275.89941, 282.40332, 286.98242, " y="573, ">
				corresponding property was
		</text>
		<text fill="gray" font-size="9" font-family="Segoe UI" x="179, 183.5791, 188.87891, 194.17871, 198.88525, 204.18506, 206.65039, 209.7002, 214.97363, 217.43896, 220.48877, 225.58203, 230.28857, 232.75391, 238.92822, 243.77979, 246.24512, 248.64014, 251.68994, 256.39648, 264.14844, 266.61377, 269.43066, 274.7041, 277.83301, 280.29834, " y="585, ">
				added to the G2 Item for a
		</text>
		<text fill="gray" font-size="9" font-family="Segoe UI" x="179, 182.81885, 188.10986, 192.81641, 196.97363, 199.15332, 201.97021, 204.1499, 208.30713, 210.77246, 214.92969, 220.02295, 223.8418, 226.8916, 232.16504, 239.91699, 244.62354, 247.75244, 250.21777, 255.49121, 258.62012, 261.08545, 266.38525, 269.51416, 274.7876, 279.88086, 285.17188, 287.63721, 292.91064, " y="597, ">
				specific customer or group of
		</text>
		<text fill="gray" font-size="9" font-family="Segoe UI" x="179, 183.15723, 188.25049, 192.06934, 195.11914, 200.39258, 208.14453, 212.85107, 215.97998, 219.79883, 222.26416, 227.5376, 232.63086, 234.81055, 239.16553, 241.1167, 243.58203, 248.29736, 253.39062, 258.09717, 260.5625, 265.8623, 270.56885, 273.38574, 277.96484, 283.05811, 285.23779, " y="609, ">
				customers only. The default
		</text>
		<text fill="gray" font-size="9" font-family="Segoe UI" x="179, 183.31104, 187.89014, 190.06982, 195.16309, 199.86963, 202.33496, 207.6084, 210.42529, 212.89062, 215.94043, 221.03369, 223.21338, 227.03223, 229.49756, 234.78857, 237.91748, 243.19092, 248.48193, 253.18848, 256.31738, 259.36719, 263.72217, 266.1875, 268.36719, 272.18604, 274.65137, 277.46826, 282.04736, 284.22705, 288.0459, " y="621, ">
				value of this property is false
		</text>
		<text fill="gray" font-size="9" font-family="Segoe UI" x="179, 185.50391, 190.59717, 192.77686, 196.93408, 202.02734, 204.49268, 209.07178, 214.36279, 219.65381, 221.8335, 224.01318, 228.71973, 232.53857, 235.00391, 241.50781, 246.60107, 251.30762, 256.40088, 258.86621, 261.91602, 267.00928, 269.18896, " y="633, ">
				which applies when this
		</text>
		<text fill="gray" font-size="9" font-family="Segoe UI" x="179, 183.5791, 186.62891, 189.67871, 192.80762, 194.9873, 200.27832, 205.37158, 208.42139, 213.12793, 215.59326, 217.77295, 221.5918, 224.05713, 229.15039, 234.42383, 237.47363, 239.93896, 245.03223, 248.85107, 253.55762, 258.85742, 261.32275, 267.82666, 270.00635, 273.05615, 278.14941, 280.61475, 283.66455, 288.75781, " y="645, ">
				attribute is not used with the
		</text>
		<text fill="gray" font-size="9" font-family="Segoe UI" x="179, 184.29102, 187.41992, 192.69336, 197.98438, 202.69092, 205.81982, 208.86963, 213.22461, " y="657, ">
				property.
		</text>
		<rect fill="white" x="183" y="526" width="43" height="16"/>
		<text font-size="12" font-weight="600" font-family="Segoe UI" x="183, 188.75977, 196.01953, 201.29883, 205.92188, 213.25781, " y="539, ">
				custom
		</text>
		<rect fill="none" stroke="black" stroke-width="1" stroke-linecap="square" stroke-miterlimit="4" transform="translate(0.5 0.5)" x="174" y="524" width="58" height="20"/>
		<rect fill="silver" x="178" y="670" width="52" height="21"/>
		<rect fill="white" x="174" y="666" width="52" height="21"/>
		<rect fill="white" x="179" y="693" width="118" height="48"/>
		<text fill="gray" font-size="9" font-family="Segoe UI" x="179, 181.39502, 186.48828, 191.78809, 193.96777, 198.125, 202.7041, 205.75391, 210.46045, 214.2793, 216.74463, 222.03564, 226.39062, 228.85596, 235.35986, 240.45312, 242.63281, 246.79004, 251.8833, 254.34863, 262.10059, 266.80713, 271.38623, 276.47949, 280.29834, 282.76367, 285.81348, 290.90674, " y="703, ">
				Indicates by which means the
		</text>
		<text fill="gray" font-size="9" font-family="Segoe UI" x="179, 183.31104, 187.89014, 190.06982, 195.16309, 199.86963, 202.33496, 208.83887, 213.41797, 217.23682, 219.70215, 224.40869, 228.53955, 231.58936, 234.71826, 239.29736, 243.45459, 246.50439, 251.21094, 256.51074, 258.97607, 261.79297, 264.92188, 270.19531, 277.94727, 280.4126, 283.4624, 288.55566, " y="715, ">
				value was extracted from the
		</text>
		<text fill="gray" font-size="9" font-family="Segoe UI" x="179, 183.15723, 188.43066, 193.52393, 196.57373, 201.28027, 206.37354, 209.42334, 211.88867, 215.48779, 217.95312, 222.65967, 226.79053, 232.08154, 235.21045, 239.91699, 243.73584, 247.55469, 252.26123, 257.56104, 260.02637, 265.31738, 269.67236, 272.1377, " y="727, ">
				content - expressed by a
		</text>
		<text fill="gray" font-size="9" font-family="Segoe UI" x="179, 185.78516, 191.35742, 196.63086, 201.93066, " y="739, ">
				QCode
		</text>
		<rect fill="white" x="183" y="668" width="36" height="16"/>
		<text font-size="12" font-weight="600" font-family="Segoe UI" x="183, 190.22461, 197.56055, " y="681, ">
				how
		</text>
		<rect fill="none" stroke="black" stroke-width="1" stroke-linecap="square" stroke-miterlimit="4" transform="translate(0.5 0.5)" x="174" y="666" width="51" height="20"/>
		<rect fill="silver" x="178" y="752" width="57" height="21"/>
		<rect fill="white" x="174" y="748" width="57" height="21"/>
		<rect fill="white" x="179" y="775" width="118" height="36"/>
		<text fill="gray" font-size="9" font-family="Segoe UI" x="179, 181.39502, 186.48828, 191.78809, 193.96777, 198.125, 202.7041, 205.75391, 210.46045, 214.2793, 216.74463, 222.03564, 226.39062, 228.85596, 235.35986, 240.45312, 242.63281, 246.79004, 251.8833, 254.34863, 262.10059, 266.80713, 271.38623, 276.47949, 280.29834, 282.76367, 285.81348, 290.90674, " y="785, ">
				Indicates by which means the
		</text>
		<text fill="gray" font-size="9" font-family="Segoe UI" x="179, 183.31104, 187.89014, 190.06982, 195.16309, 199.86963, 202.33496, 208.83887, 213.41797, 217.23682, 219.70215, 224.40869, 228.53955, 231.58936, 234.71826, 239.29736, 243.45459, 246.50439, 251.21094, 256.51074, 258.97607, 261.79297, 264.92188, 270.19531, 277.94727, 280.4126, 283.4624, 288.55566, " y="797, ">
				value was extracted from the
		</text>
		<text fill="gray" font-size="9" font-family="Segoe UI" x="179, 183.15723, 188.43066, 193.52393, 196.57373, 201.28027, 206.37354, 209.42334, 211.88867, 215.48779, 217.95312, 222.65967, 226.79053, 232.08154, 235.21045, 239.91699, 243.73584, 247.55469, 252.26123, 257.56104, 260.02637, 265.31738, 269.67236, 272.1377, 276.7168, 279.18213, 285.36523, 290.74854, " y="809, ">
				content - expressed by a URI
		</text>
		<rect fill="white" x="183" y="750" width="41" height="16"/>
		<text font-size="12" font-weight="600" font-family="Segoe UI" x="183, 190.22461, 197.56055, 207.12891, 214.38867, 219.21094, " y="763, ">
				howuri
		</text>
		<rect fill="none" stroke="black" stroke-width="1" stroke-linecap="square" stroke-miterlimit="4" transform="translate(0.5 0.5)" x="174" y="748" width="56" height="20"/>
		<rect fill="silver" x="178" y="822" width="52" height="21"/>
		<rect fill="white" x="174" y="818" width="52" height="21"/>
		<rect fill="white" x="179" y="845" width="113" height="36"/>
		<text fill="gray" font-size="9" font-family="Segoe UI" x="179, 187.40674, 192.5, 196.85498, 199.32031, 202.37012, 207.46338, 212.16992, 214.63525, 222.38721, 227.09375, 230.14355, 234.72266, 240.02246, 244.60156, 247.65137, 252.23047, 254.6958, 259.78906, 264.36816, 268.18701, 270.65234, 275.94336, 280.6499, 285.35645, " y="855, ">
				Why the metadata has been
		</text>
		<text fill="gray" font-size="9" font-family="Segoe UI" x="179, 181.17969, 186.27295, 190.43018, 192.60986, 197.70312, 203.00293, 207.70947, 213.00928, 215.47461, 219.07373, 221.53906, 226.24561, 230.37646, 235.66748, 238.79639, 243.50293, 247.32178, 251.14062, 255.84717, 261.14697, 263.6123, 268.90332, 273.2583, 275.72363, " y="867, ">
				included - expressed by a
		</text>
		<text fill="gray" font-size="9" font-family="Segoe UI" x="179, 185.78516, 191.35742, 196.63086, 201.93066, " y="879, ">
				QCode
		</text>
		<rect fill="white" x="183" y="820" width="36" height="16"/>
		<text font-size="12" font-weight="600" font-family="Segoe UI" x="183, 192.56836, 199.79297, " y="833, ">
				why
		</text>
		<rect fill="none" stroke="black" stroke-width="1" stroke-linecap="square" stroke-miterlimit="4" transform="translate(0.5 0.5)" x="174" y="818" width="51" height="20"/>
		<rect fill="silver" x="178" y="892" width="56" height="21"/>
		<rect fill="white" x="174" y="888" width="56" height="21"/>
		<rect fill="white" x="179" y="915" width="119" height="24"/>
		<text fill="gray" font-size="9" font-family="Segoe UI" x="179, 187.40674, 192.5, 196.85498, 199.32031, 202.37012, 207.46338, 212.16992, 214.63525, 222.38721, 227.09375, 230.14355, 234.72266, 240.02246, 244.60156, 247.65137, 252.23047, 254.6958, 259.78906, 264.36816, 268.18701, 270.65234, 275.94336, 280.6499, 285.35645, " y="925, ">
				Why the metadata has been
		</text>
		<text fill="gray" font-size="9" font-family="Segoe UI" x="179, 181.17969, 186.27295, 190.43018, 192.60986, 197.70312, 203.00293, 207.70947, 213.00928, 215.47461, 219.07373, 221.53906, 226.24561, 230.37646, 235.66748, 238.79639, 243.50293, 247.32178, 251.14062, 255.84717, 261.14697, 263.6123, 268.90332, 273.2583, 275.72363, 280.30273, 282.76807, 288.95117, 294.33447, " y="937, ">
				included - expressed by a URI
		</text>
		<rect fill="white" x="183" y="890" width="40" height="16"/>
		<text font-size="12" font-weight="600" font-family="Segoe UI" x="183, 192.56836, 199.79297, 206.25, 213.50977, 218.33203, " y="903, ">
				whyuri
		</text>
		<rect fill="none" stroke="black" stroke-width="1" stroke-linecap="square" stroke-miterlimit="4" transform="translate(0.5 0.5)" x="174" y="888" width="55" height="20"/>
		<rect fill="silver" x="178" y="950" width="97" height="21"/>
		<rect fill="white" x="174" y="946" width="97" height="21"/>
		<rect fill="white" x="179" y="973" width="117" height="72"/>
		<text fill="gray" font-size="9" font-family="Segoe UI" x="179, 185.78516, 190.87842, 195.58496, 198.05029, 203.32373, 206.45264, 208.91797, 216.66992, 221.24902, 226.34229, 230.69727, 233.1626, 237.31982, 242.59326, 247.68652, 251.50537, 254.55518, 257.68408, 262.26318, 264.44287, 269.53613, 272.58594, 276.40479, 278.87012, 281.91992, 287.01318, 291.59229, " y="983, ">
				One or many constraints that
		</text>
		<text fill="gray" font-size="9" font-family="Segoe UI" x="179, 183.5791, 188.87012, 194.16113, 196.34082, 200.6958, 203.16113, 206.21094, 211.48438, 213.94971, 219.24072, 224.33398, 229.625, 231.80469, 233.98438, 237.80322, 242.89648, 245.07617, 250.16943, 255.46924, 257.93457, 260.98438, 266.07764, 270.78418, 273.24951, 277.56055, 282.13965, 284.31934, 289.4126, " y="995, ">
				apply to publishing the value
		</text>
		<text fill="gray" font-size="9" font-family="Segoe UI" x="179, 184.27344, 187.09033, 189.55566, 192.60547, 197.69873, 202.40527, 204.87061, 210.16162, 213.29053, 218.56396, 223.85498, 228.56152, 231.69043, 234.74023, 239.09521, 241.56055, 245.15967, 247.625, 252.33154, 256.4624, 261.75342, 264.88232, 269.58887, 273.40771, 277.22656, 281.93311, " y="1007, ">
				of the property - expressed
		</text>
		<text fill="gray" font-size="9" font-family="Segoe UI" x="179, 184.29102, 188.646, 191.11133, 195.69043, 198.15576, 204.94092, 210.51318, 215.78662, 221.08643, 225.79297, 227.74414, 230.20947, 234.76221, 239.34131, 243.49854, 248.5918, 251.05713, 255.21436, 260.48779, 265.58105, 269.3999, 272.44971, 275.57861, 280.15771, 282.3374, 287.43066, " y="1019, ">
				by a QCode. Each constraint
		</text>
		<text fill="gray" font-size="9" font-family="Segoe UI" x="179, 183.5791, 188.87012, 194.16113, 196.34082, 198.52051, 203.22705, 207.0459, 209.51123, 212.56104, 217.83447, 220.2998, 224.87891, 227.05859, 229.23828, 231.70361, 237.00342, 241.70996, 245.52881, 249.68604, 254.39258, 259.48584, 264.78564, 269.36475, 274.45801, " y="1031, ">
				applies to all descendant
		</text>
		<text fill="gray" font-size="9" font-family="Segoe UI" x="179, 183.70654, 185.88623, 190.59277, 198.34473, 203.05127, 208.14453, 211.19434, 215.01318, " y="1043, ">
				elements.
		</text>
		<rect fill="white" x="183" y="948" width="81" height="16"/>
		<text font-size="12" font-weight="600" font-family="Segoe UI" x="183, 190.44141, 197.70117, 205.14258, 210.90234, 218.23828, 225.49805, 230.77734, 235.44727, 240.22266, 246.67969, 250.08984, 257.34961, " y="961, ">
				pubconstraint
		</text>
		<rect fill="none" stroke="black" stroke-width="1" stroke-linecap="square" stroke-miterlimit="4" transform="translate(0.5 0.5)" x="174" y="946" width="96" height="20"/>
		<rect fill="silver" x="178" y="1056" width="112" height="21"/>
		<rect fill="white" x="174" y="1052" width="112" height="21"/>
		<rect fill="white" x="179" y="1079" width="117" height="72"/>
		<text fill="gray" font-size="9" font-family="Segoe UI" x="179, 185.78516, 190.87842, 195.58496, 198.05029, 203.32373, 206.45264, 208.91797, 216.66992, 221.24902, 226.34229, 230.69727, 233.1626, 237.31982, 242.59326, 247.68652, 251.50537, 254.55518, 257.68408, 262.26318, 264.44287, 269.53613, 272.58594, 276.40479, 278.87012, 281.91992, 287.01318, 291.59229, " y="1089, ">
				One or many constraints that
		</text>
		<text fill="gray" font-size="9" font-family="Segoe UI" x="179, 183.5791, 188.87012, 194.16113, 196.34082, 200.6958, 203.16113, 206.21094, 211.48438, 213.94971, 219.24072, 224.33398, 229.625, 231.80469, 233.98438, 237.80322, 242.89648, 245.07617, 250.16943, 255.46924, 257.93457, 260.98438, 266.07764, 270.78418, 273.24951, 277.56055, 282.13965, 284.31934, 289.4126, " y="1101, ">
				apply to publishing the value
		</text>
		<text fill="gray" font-size="9" font-family="Segoe UI" x="179, 184.27344, 187.09033, 189.55566, 192.60547, 197.69873, 202.40527, 204.87061, 210.16162, 213.29053, 218.56396, 223.85498, 228.56152, 231.69043, 234.74023, 239.09521, 241.56055, 245.15967, 247.625, 252.33154, 256.4624, 261.75342, 264.88232, 269.58887, 273.40771, 277.22656, 281.93311, " y="1113, ">
				of the property - expressed
		</text>
		<text fill="gray" font-size="9" font-family="Segoe UI" x="179, 184.29102, 188.646, 191.11133, 195.69043, 198.15576, 204.33887, 209.72217, 212.11719, 214.06836, 216.53369, 221.08643, 225.66553, 229.82275, 234.91602, 237.38135, 241.53857, 246.81201, 251.90527, 255.72412, 258.77393, 261.90283, 266.48193, 268.66162, 273.75488, " y="1125, ">
				by a URI. Each constraint
		</text>
		<text fill="gray" font-size="9" font-family="Segoe UI" x="179, 183.5791, 188.87012, 194.16113, 196.34082, 198.52051, 203.22705, 207.0459, 209.51123, 212.56104, 217.83447, 220.2998, 224.87891, 227.05859, 229.23828, 231.70361, 237.00342, 241.70996, 245.52881, 249.68604, 254.39258, 259.48584, 264.78564, 269.36475, 274.45801, " y="1137, ">
				applies to all descendant
		</text>
		<text fill="gray" font-size="9" font-family="Segoe UI" x="179, 183.70654, 185.88623, 190.59277, 198.34473, 203.05127, 208.14453, 211.19434, 215.01318, " y="1149, ">
				elements.
		</text>
		<rect fill="white" x="183" y="1054" width="96" height="16"/>
		<text font-size="12" font-weight="600" font-family="Segoe UI" x="183, 190.44141, 197.70117, 205.14258, 210.90234, 218.23828, 225.49805, 230.77734, 235.44727, 240.22266, 246.67969, 250.08984, 257.34961, 262.01953, 269.2793, 274.10156, " y="1067, ">
				pubconstrainturi
		</text>
		<rect fill="none" stroke="black" stroke-width="1" stroke-linecap="square" stroke-miterlimit="4" transform="translate(0.5 0.5)" x="174" y="1052" width="111" height="20"/>
		<rect fill="silver" x="178" y="1162" width="52" height="21"/>
		<rect fill="white" x="174" y="1158" width="52" height="21"/>
		<rect fill="white" x="179" y="1185" width="121" height="72"/>
		<text fill="gray" font-size="9" font-family="Segoe UI" x="179, 184.80518, 187.27051, 191.42773, 196.70117, 201.79443, 205.95166, 210.6582, 215.94922, 218.99902, 221.46436, 223.64404, 228.94385, 233.65039, 238.74365, 241.79346, 243.97314, 246.79004, 248.96973, 253.67627, 256.80518, 259.27051, 263.97705, 268.10791, 273.39893, 276.52783, 281.23438, 285.05322, 288.87207, 293.57861, " y="1195, ">
				A concept identifier expressed
		</text>
		<text fill="gray" font-size="9" font-family="Segoe UI" x="179, 183.5791, 187.39795, 189.86328, 194.44238, 196.90771, 200.72656, 203.77637, 206.90527, 209.08496, 214.17822, 219.47803, 221.94336, 227.2168, 230.03369, 232.49902, 235.54883, 240.64209, 245.34863, 247.81396, 250.63086, 255.9043, 259.0332, 266.78516, 269.25049, 273.06934, 276.88818, 280.70703, 282.6582, 286.81543, 290.97266, 295.12988, " y="1207, ">
				as a string of the form sss:ccc,
		</text>
		<text fill="gray" font-size="9" font-family="Segoe UI" x="179, 185.50391, 190.59717, 195.30371, 198.43262, 203.13916, 205.60449, 209.42334, 213.24219, 217.06104, 219.52637, 221.70605, 225.5249, 227.99023, 232.56934, 235.03467, 238.85352, 243.01074, 248.104, 252.81055, 260.5625, 265.26904, 267.73438, 272.31348, 274.49316, 276.67285, 281.25195, " y="1219, ">
				where sss is a scheme alias
		</text>
		<text fill="gray" font-size="9" font-family="Segoe UI" x="179, 183.5791, 188.67236, 193.97217, 196.4375, 200.59473, 204.75195, 208.90918, 211.37451, 213.5542, 217.37305, 219.83838, 224.41748, 226.88281, 231.04004, 236.31348, 241.61328, 246.31982, 248.271, 250.73633, 255.28906, 257.46875, 260.51855, 265.61182, 270.31836, 273.44727, 275.9126, 278.9624, 284.05566, " y="1231, ">
				and ccc is a code. Either the
		</text>
		<text fill="gray" font-size="9" font-family="Segoe UI" x="179, 184.2998, 188.45703, 193.73047, 199.03027, 203.73682, 206.20215, 211.47559, 214.60449, 217.06982, 220.11963, 225.21289, 229.91943, 232.38477, 237.47803, 240.60693, 242.78662, 245.25195, 249.83105, 252.88086, 255.93066, 259.05957, 261.23926, 266.53027, 271.62354, 274.67334, " y="1243, ">
				qcode or the uri attribute
		</text>
		<text fill="gray" font-size="9" font-family="Segoe UI" x="179, 187.08154, 193.26465, 198.0459, 202.76123, 205.22656, 210.51758, 215.22412, 217.68945, 222.78271, 226.60156, 231.30811, " y="1255, ">
				MUST be used
		</text>
		<rect fill="white" x="183" y="1160" width="36" height="16"/>
		<text font-size="12" font-weight="600" font-family="Segoe UI" x="183, 190.42969, 196.18945, 203.52539, 210.95508, " y="1173, ">
				qcode
		</text>
		<rect fill="none" stroke="black" stroke-width="1" stroke-linecap="square" stroke-miterlimit="4" transform="translate(0.5 0.5)" x="174" y="1158" width="51" height="20"/>
		<rect fill="silver" x="178" y="1268" width="52" height="21"/>
		<rect fill="white" x="174" y="1264" width="52" height="21"/>
		<rect fill="white" x="179" y="1291" width="113" height="48"/>
		<text fill="gray" font-size="9" font-family="Segoe UI" x="179, 184.80518, 187.27051, 193.45361, 198.83691, 201.23193, 203.69727, 210.20117, 215.29443, 217.47412, 221.63135, 226.72461, 229.18994, 231.36963, 236.66943, 241.37598, 246.46924, 249.51904, 251.69873, 254.51562, 256.69531, 261.40186, 265.2207, 267.68604, " y="1301, ">
				A URI which identifies a
		</text>
		<text fill="gray" font-size="9" font-family="Segoe UI" x="179, 183.15723, 188.43066, 193.52393, 197.68115, 202.3877, 207.67871, 210.72852, 215.65918, 219.2583, 221.72363, 226.43018, 228.60986, 231.65967, 236.75293, 241.45947, 244.58838, 247.05371, 250.10352, 255.19678, 259.90332, 264.83398, 270.13379, 274.29102, 279.56445, 284.86426, " y="1313, ">
				concept - either the qcode
		</text>
		<text fill="gray" font-size="9" font-family="Segoe UI" x="179, 184.27344, 187.40234, 189.86768, 192.91748, 198.01074, 202.71729, 205.18262, 210.27588, 213.40479, 215.58447, 218.0498, 222.62891, 225.67871, 228.72852, 231.85742, 234.03711, 239.32812, 244.42139, 247.47119, 252.17773, 254.64307, 262.72461, 268.90771, 273.68896, 278.4043, 280.86963, 286.16064, " y="1325, ">
				or the uri attribute MUST be
		</text>
		<text fill="gray" font-size="9" font-family="Segoe UI" x="179, 184.09326, 187.91211, 192.61865, " y="1337, ">
				used
		</text>
		<rect fill="white" x="183" y="1266" width="36" height="16"/>
		<text font-size="12" font-weight="600" font-family="Segoe UI" x="183, 190.25977, 195.08203, " y="1279, ">
				uri
		</text>
		<rect fill="none" stroke="black" stroke-width="1" stroke-linecap="square" stroke-miterlimit="4" transform="translate(0.5 0.5)" x="174" y="1264" width="51" height="20"/>
		<path fill="silver" d="M178 1355L183 1350L251 1350L256 1355L256 1366L251 1371L183 1371L178 1366L178 1355Z"/>
		<path fill="white" d="M174 1351L179 1346L247 1346L252 1351L252 1362L247 1367L179 1367L174 1362L174 1351Z"/>
		<rect fill="white" x="201" y="1348" width="46" height="16"/>
		<text font-size="12" font-weight="600" font-family="Segoe UI" x="201, 208.10742, 215.21484, 222.55078, 227.2207, 234.44531, 240.9375, " y="1361, ">
				##other
		</text>
		<rect fill="white" x="179" y="1348" width="20" height="16"/>
		<text fill="gray" font-size="12" font-family="Segoe UI" x="179, 185.10547, 191.89648, " y="1361, ">
				any
		</text>
		<path fill="none" stroke="black" stroke-width="1" stroke-linecap="square" stroke-miterlimit="4" transform="translate(0.5 0.5)" d="M174 1351L179 1346L246 1346L251 1351L251 1361L246 1366L179 1366L174 1361L174 1351Z"/>
		<rect fill="silver" x="178" y="1378" width="66" height="21"/>
		<rect fill="white" x="174" y="1374" width="66" height="21"/>
		<rect fill="white" x="179" y="1401" width="121" height="84"/>
		<text fill="gray" font-size="9" font-family="Segoe UI" x="179, 183.78125, 189.07227, 193.77881, 197.93604, 200.11572, 202.93262, 205.1123, 209.81885, 213.6377, 216.10303, 219.15283, 224.24609, 228.95264, 231.41797, 233.59766, 238.17676, 243.27002, 248.56982, 253.66309, 258.24219, 263.54199, 268.24854, 270.71387, 275.9873, 278.8042, 281.26953, 284.31934, 289.4126, 291.59229, " y="1411, ">
				Specifies the language of this
		</text>
		<text fill="gray" font-size="9" font-family="Segoe UI" x="179, 184.29102, 187.41992, 192.69336, 197.98438, 202.69092, 205.81982, 208.86963, 213.22461, 215.68994, 220.26904, 225.3623, 230.66211, 233.12744, 238.41846, 243.69189, 246.7417, 251.44824, 256.5415, 259.59131, 261.771, 266.3501, 268.52979, 270.70947, 275.06445, 277.52979, 282.10889, 284.28857, " y="1423, ">
				property and potentially all
		</text>
		<text fill="gray" font-size="9" font-family="Segoe UI" x="179, 184.2998, 189.00635, 192.8252, 196.98242, 201.68896, 206.78223, 212.08203, 216.66113, 221.75439, 224.8042, 227.26953, 232.56055, 235.68945, 240.96289, 246.25391, 250.96045, 254.08936, 257.13916, 259.31885, 264.02539, 267.84424, " y="1435, ">
				descendant properties.
		</text>
		<text fill="gray" font-size="9" font-family="Segoe UI" x="179, 183.13086, 190.88281, 193.0625, 195.01367, 197.19336, 201.77246, 206.86572, 212.16553, 214.63086, 218.94189, 223.521, 225.70068, 230.79395, 235.50049, 239.31934, 241.78467, 247.05811, 249.875, 252.34033, 257.64014, 262.34668, 266.16553, 270.32275, 275.0293, 280.12256, 285.42236, 290.00146, 295.09473, " y="1447, ">
				xml:lang values of descendant
		</text>
		<text fill="gray" font-size="9" font-family="Segoe UI" x="179, 184.29102, 187.41992, 192.69336, 197.98438, 202.69092, 205.81982, 208.86963, 211.04932, 215.75586, 219.57471, 222.04004, 227.31348, 231.62451, 236.33105, 239.45996, 242.58887, 244.76855, 250.06836, 254.7749, 257.24023, 260.29004, 265.3833, 267.56299, 271.38184, 273.84717, 278.1582, 282.7373, 284.91699, 290.01025, 294.7168, " y="1459, ">
				properties override this value.
		</text>
		<text fill="gray" font-size="9" font-family="Segoe UI" x="179, 183.93066, 188.50977, 190.68945, 195.78271, 200.48926, 204.30811, 206.77344, 211.35254, 214.48145, 219.18799, 221.65332, 226.95312, 231.65967, 234.70947, 239.41602, 242.54492, 250.29688, 252.47656, 257.56982, 262.27637, 267.57617, 270.0415, 275.33252, " y="1471, ">
				Values are determined by
		</text>
		<text fill="gray" font-size="9" font-family="Segoe UI" x="179, 181.39502, 186.48828, 189.53809, 194.24463, 197.37354, 202.4668, 207.17334, 210.22314, 212.68848, 217.84766, 223.41992, 228.46045, 230.92578, 235.77734, 240.62891, " y="1483, ">
				Internet BCP 47.
		</text>
		<rect fill="white" x="183" y="1376" width="50" height="16"/>
		<text font-size="12" font-weight="600" font-family="Segoe UI" x="183, 189.62695, 200.61914, 204.0293, 207.28125, 210.69141, 217.14844, 224.4082, " y="1389, ">
				xml:lang
		</text>
		<path fill="none" stroke="black" stroke-width="2" stroke-miterlimit="4" transform="translate(0.5 0.5)" d="M176 1392L180 1388"/>
		<path fill="none" stroke="black" stroke-width="1" stroke-linecap="square" stroke-miterlimit="4" transform="translate(0.5 0.5)" d="M177 1388L180 1388L180 1391"/>
		<rect fill="none" stroke="black" stroke-width="1" stroke-linecap="square" stroke-miterlimit="4" transform="translate(0.5 0.5)" x="174" y="1374" width="65" height="20"/>
		<rect fill="silver" x="178" y="1496" width="52" height="21"/>
		<rect fill="white" x="174" y="1492" width="52" height="21"/>
		<rect fill="white" x="179" y="1519" width="116" height="24"/>
		<text fill="gray" font-size="9" font-family="Segoe UI" x="179, 183.71533, 188.80859, 193.51514, 195.98047, 201.28027, 203.45996, 206.58887, 211.29541, 215.45264, 218.50244, 220.68213, 225.95557, 231.04883, 235.62793, 237.80762, 239.9873, 243.03711, 247.39209, 249.85742, 255.13086, 257.94775, 260.41309, 263.46289, 268.16943, 272.30029, 275.3501, 280.44336, 285.02246, " y="1529, ">
				The directionality of textual
		</text>
		<text fill="gray" font-size="9" font-family="Segoe UI" x="179, 183.15723, 188.43066, 193.52393, 196.57373, 201.28027, 206.37354, 209.42334, 211.88867, 214.60449, 219.31104, 224.4043, 229.49756, 237.24951, 241.95605, 245.08496, 249.66406, 252.71387, 254.89355, 260.16699, 265.26025, 267.21143, 269.67676, 271.85645, 274.90625, 278.03516, 279.98633, 282.45166, 285.58057, 288.63037, 290.81006, " y="1541, ">
				content (enumeration: ltr, rtl)
		</text>
		<rect fill="white" x="183" y="1494" width="36" height="16"/>
		<text font-size="12" font-weight="600" font-family="Segoe UI" x="183, 190.42969, 193.83984, " y="1507, ">
				dir
		</text>
		<rect fill="none" stroke="black" stroke-width="1" stroke-linecap="square" stroke-miterlimit="4" transform="translate(0.5 0.5)" x="174" y="1492" width="51" height="20"/>
		<rect x="165" y="41" width="11" height="11"/>
		<rect fill="white" x="166" y="42" width="9" height="9"/>
		<rect x="167" y="46" width="7" height="1"/>
		<path fill="none" stroke="black" stroke-width="1" stroke-linecap="square" stroke-miterlimit="4" transform="translate(0.5 0.5)" d="M205 1603L213 1603"/>
		<path fill="none" stroke="black" stroke-width="1" stroke-linecap="square" stroke-miterlimit="4" transform="translate(0.5 0.5)" d="M214 1603L214 1573"/>
		<path fill="none" stroke="black" stroke-width="1" stroke-linecap="square" stroke-miterlimit="4" transform="translate(0.5 0.5)" d="M214 1603L214 1634"/>
		<path fill="none" stroke="black" stroke-width="1" stroke-linecap="square" stroke-miterlimit="4" transform="translate(0.5 0.5)" d="M214 1572L228 1572"/>
		<path fill="none" stroke="black" stroke-width="1" stroke-linecap="square" stroke-miterlimit="4" transform="translate(0.5 0.5)" d="M214 1635L228 1635"/>
		<path fill="silver" d="M167 1605L172 1600L197 1600L202 1605L202 1616L197 1621L172 1621L167 1616L167 1605Z"/>
		<path fill="white" d="M163 1601L168 1596L192 1596L197 1601L197 1611L192 1616L168 1616L163 1611L163 1601Z"/>
		<path transform="translate(0.5 0.5)" d="M166.889 1596.4L167.793 1595.5L168.929 1595.5L169.429 1595.5L169.429 1596.5L168.929 1596.5L168 1596.5L168 1596L168.354 1596.35L167.243 1597.46L166.536 1596.76L166.889 1596.4ZM172.929 1595.5L174.929 1595.5L175.429 1595.5L175.429 1596.5L174.929 1596.5L172.429 1596.5L172.429 1595.5L172.929 1595.5ZM178.929 1595.5L180.929 1595.5L181.429 1595.5L181.429 1596.5L180.929 1596.5L178.429 1596.5L178.429 1595.5L178.929 1595.5ZM184.929 1595.5L186.929 1595.5L187.429 1595.5L187.429 1596.5L186.929 1596.5L184.429 1596.5L184.429 1595.5L184.929 1595.5ZM190.929 1595.5L192.207 1595.5L193.01 1596.3L193.364 1596.66L192.657 1597.36L192.303 1597.01L191.646 1596.35L192 1596L192 1596.5L190.429 1596.5L190.429 1595.5L190.929 1595.5ZM195.839 1599.13L197.253 1600.55L197.607 1600.9L196.899 1601.61L196.546 1601.25L194.778 1599.49L195.485 1598.78L195.839 1599.13ZM197.5 1604.86L197.5 1606.86L197.5 1607.36L196.5 1607.36L196.5 1606.86L196.5 1604.36L197.5 1604.36L197.5 1604.86ZM197.5 1610.86L197.5 1611.21L196.04 1612.67L195.686 1613.02L194.979 1612.31L195.333 1611.96L196.646 1610.65L197 1611L196.5 1611L196.5 1610.36L197.5 1610.36L197.5 1610.86ZM193.211 1615.5L192.207 1616.5L191.213 1616.5L190.713 1616.5L190.713 1615.5L191.213 1615.5L192 1615.5L192 1616L191.646 1615.65L192.858 1614.44L193.565 1615.14L193.211 1615.5ZM187.213 1616.5L185.213 1616.5L184.713 1616.5L184.713 1615.5L185.213 1615.5L187.713 1615.5L187.713 1616.5L187.213 1616.5ZM181.213 1616.5L179.213 1616.5L178.713 1616.5L178.713 1615.5L179.213 1615.5L181.713 1615.5L181.713 1616.5L181.213 1616.5ZM175.213 1616.5L173.213 1616.5L172.713 1616.5L172.713 1615.5L173.213 1615.5L175.713 1615.5L175.713 1616.5L175.213 1616.5ZM169.213 1616.5L167.793 1616.5L167.09 1615.8L166.737 1615.44L167.444 1614.74L167.797 1615.09L168.354 1615.65L168 1616L168 1615.5L169.713 1615.5L169.713 1616.5L169.213 1616.5ZM164.262 1612.97L162.847 1611.55L162.494 1611.2L163.201 1610.49L163.555 1610.85L165.322 1612.62L164.615 1613.32L164.262 1612.97ZM162.5 1607.28L162.5 1605.28L162.5 1604.78L163.5 1604.78L163.5 1605.28L163.5 1607.78L162.5 1607.78L162.5 1607.28ZM162.5 1601.28L162.5 1600.79L164.414 1598.88L165.121 1599.59L163.354 1601.35L163 1601L163.5 1601L163.5 1601.78L162.5 1601.78L162.5 1601.28Z"/>
		<path fill="white" d="M160 1598L165 1593L190 1593L195 1598L195 1609L190 1614L165 1614L160 1609L160 1598Z"/>
		<path fill="none" stroke="black" stroke-width="1" stroke-linecap="square" stroke-miterlimit="4" transform="translate(0.5 0.5)" d="M179 1614L185 1620L188 1617"/>
		<path fill="none" stroke="black" stroke-width="1" stroke-linecap="square" stroke-miterlimit="4" transform="translate(0.5 0.5)" d="M165 1603L170 1603L174 1599"/>
		<path fill="none" stroke="black" stroke-width="1" stroke-linecap="square" stroke-miterlimit="4" transform="translate(0.5 0.5)" d="M180 1603L188 1603"/>
		<path fill="none" stroke="black" stroke-width="1" stroke-linecap="square" stroke-miterlimit="4" transform="translate(0.5 0.5)" d="M180 1599L184 1599L184 1607L180 1607"/>
		<rect x="176" y="1598" width="3" height="3"/>
		<rect x="176" y="1602" width="3" height="3"/>
		<rect x="176" y="1606" width="3" height="3"/>
		<text font-size="12" font-family="Segoe UI" x="164.76562, " y="1633, ">
				0
		</text>
		<text font-size="12" font-family="Symbol" x="179.72266, " y="1632, ">
				
		</text>
		<text font-size="12" font-family="Segoe UI" x="172.89844, 175.5, " y="1633, ">
				..
		</text>
		<path transform="translate(0.5 0.5)" d="M163.889 1593.4L164.793 1592.5L165.929 1592.5L166.429 1592.5L166.429 1593.5L165.929 1593.5L165 1593.5L165 1593L165.354 1593.35L164.243 1594.46L163.536 1593.76L163.889 1593.4ZM169.929 1592.5L171.929 1592.5L172.429 1592.5L172.429 1593.5L171.929 1593.5L169.429 1593.5L169.429 1592.5L169.929 1592.5ZM175.929 1592.5L177.929 1592.5L178.429 1592.5L178.429 1593.5L177.929 1593.5L175.429 1593.5L175.429 1592.5L175.929 1592.5ZM181.929 1592.5L183.929 1592.5L184.429 1592.5L184.429 1593.5L183.929 1593.5L181.429 1593.5L181.429 1592.5L181.929 1592.5ZM187.929 1592.5L189.207 1592.5L190.01 1593.3L190.364 1593.66L189.657 1594.36L189.303 1594.01L188.646 1593.35L189 1593L189 1593.5L187.429 1593.5L187.429 1592.5L187.929 1592.5ZM192.839 1596.13L194.253 1597.55L194.607 1597.9L193.899 1598.61L193.546 1598.25L191.778 1596.49L192.485 1595.78L192.839 1596.13ZM194.5 1601.86L194.5 1603.86L194.5 1604.36L193.5 1604.36L193.5 1603.86L193.5 1601.36L194.5 1601.36L194.5 1601.86ZM194.5 1607.86L194.5 1608.21L193.04 1609.67L192.686 1610.02L191.979 1609.31L192.333 1608.96L193.646 1607.65L194 1608L193.5 1608L193.5 1607.36L194.5 1607.36L194.5 1607.86ZM190.211 1612.5L189.207 1613.5L188.213 1613.5L187.713 1613.5L187.713 1612.5L188.213 1612.5L189 1612.5L189 1613L188.646 1612.65L189.858 1611.44L190.565 1612.14L190.211 1612.5ZM184.213 1613.5L182.213 1613.5L181.713 1613.5L181.713 1612.5L182.213 1612.5L184.713 1612.5L184.713 1613.5L184.213 1613.5ZM178.213 1613.5L176.213 1613.5L175.713 1613.5L175.713 1612.5L176.213 1612.5L178.713 1612.5L178.713 1613.5L178.213 1613.5ZM172.213 1613.5L170.213 1613.5L169.713 1613.5L169.713 1612.5L170.213 1612.5L172.713 1612.5L172.713 1613.5L172.213 1613.5ZM166.213 1613.5L164.793 1613.5L164.09 1612.8L163.737 1612.44L164.444 1611.74L164.797 1612.09L165.354 1612.65L165 1613L165 1612.5L166.713 1612.5L166.713 1613.5L166.213 1613.5ZM161.262 1609.97L159.847 1608.55L159.494 1608.2L160.201 1607.49L160.555 1607.85L162.322 1609.62L161.615 1610.32L161.262 1609.97ZM159.5 1604.28L159.5 1602.28L159.5 1601.78L160.5 1601.78L160.5 1602.28L160.5 1604.78L159.5 1604.78L159.5 1604.28ZM159.5 1598.28L159.5 1597.79L161.414 1595.88L162.121 1596.59L160.354 1598.35L160 1598L160.5 1598L160.5 1598.78L159.5 1598.78L159.5 1598.28Z"/>
		<rect fill="silver" x="233" y="1566" width="54" height="21"/>
		<rect fill="white" x="229" y="1562" width="54" height="21"/>
		<rect fill="#FFFFC0" x="234" y="1589" width="115" height="24"/>
		<text fill="gray" font-size="9" font-family="Segoe UI" x="234, 239.80518, 242.27051, 247.36377, 251.94287, 254.99268, 260.08594, 263.21484, 267.79395, 269.97363, 272.43896, 274.61865, 279.19775, 284.29102, 289.59082, 294.68408, 299.26318, 304.56299, 309.26953, 311.73486, 316.82812, 321.40723, 329.15918, 333.86572, 336.33105, 339.14795, 344.42139, " y="1599, ">
				A natural language name for
		</text>
		<text fill="gray" font-size="9" font-family="Segoe UI" x="234, 237.0498, 242.14307, 246.84961, 249.31494, 253.47217, 258.74561, 263.83887, 267.99609, 272.70264, 277.99365, 281.04346, " y="1611, ">
				the concept.
		</text>
		<rect fill="white" x="238" y="1564" width="33" height="16"/>
		<text font-size="12" font-weight="600" font-family="Segoe UI" x="238, 245.25977, 251.7168, 262.70898, " y="1577, ">
				name
		</text>
		<path fill="none" stroke="black" stroke-width="1" stroke-linecap="square" stroke-miterlimit="4" transform="translate(0.5 0.5)" d="M231 1564L236 1564"/>
		<path fill="none" stroke="black" stroke-width="1" stroke-linecap="square" stroke-miterlimit="4" transform="translate(0.5 0.5)" d="M231 1566L235 1566"/>
		<path fill="none" stroke="black" stroke-width="1" stroke-linecap="square" stroke-miterlimit="4" transform="translate(0.5 0.5)" d="M231 1568L235 1568"/>
		<path fill="none" stroke="black" stroke-width="2" stroke-miterlimit="4" transform="translate(0.5 0.5)" d="M231 1580L235 1576"/>
		<path fill="none" stroke="black" stroke-width="1" stroke-linecap="square" stroke-miterlimit="4" transform="translate(0.5 0.5)" d="M232 1576L235 1576L235 1579"/>
		<rect fill="none" stroke="black" stroke-width="1" stroke-linecap="square" stroke-miterlimit="4" transform="translate(0.5 0.5)" x="229" y="1562" width="53" height="20"/>
		<rect x="277" y="1567" width="11" height="11"/>
		<rect fill="white" x="278" y="1568" width="9" height="9"/>
		<rect x="279" y="1572" width="7" height="1"/>
		<rect x="282" y="1569" width="1" height="7"/>
		<rect fill="silver" x="233" y="1629" width="98" height="21"/>
		<rect fill="white" x="229" y="1625" width="98" height="21"/>
		<rect fill="#FFFFC0" x="234" y="1652" width="121" height="72"/>
		<text fill="gray" font-size="9" font-family="Segoe UI" x="234, 239.11963, 243.82617, 249.11719, 252.24609, 256.95264, 260.77148, 265.47803, 270.57129, 273.62109, 277.43994, 279.90527, 282.95508, 288.04834, 292.75488, 295.22021, 300.51123, 305.78467, 309.60352, 311.7832, 314.83301, 317.0127, 322.28613, 327.37939, 329.84473, 335.11816, 337.93506, 340.40039, " y="1662, ">
				Represents the position of a
		</text>
		<text fill="gray" font-size="9" font-family="Segoe UI" x="234, 238.15723, 243.43066, 248.52393, 252.68115, 257.3877, 262.67871, 265.72852, 268.19385, 270.37354, 275.4668, 277.93213, 282.51123, 284.97656, 290.06982, 292.24951, 296.95605, 300.08496, 304.66406, 307.79297, 311.9502, 317.04346, 319.22314, 323.38037, 327.95947, " y="1674, ">
				concept in a hierarchical
		</text>
		<text fill="gray" font-size="9" font-family="Segoe UI" x="234, 237.0498, 241.62891, 245.75977, 251.0332, 256.12646, 261.3999, 269.15186, 273.50684, 275.97217, 279.02197, 282.15088, 286.85742, 291.56396, 294.0293, 299.32031, 303.67529, 306.14062, 310.71973, 313.18506, 317.00391, 321.71045, 327.01025, 332.10352, 336.81006, 341.90332, 346.06055, " y="1686, ">
				taxonomy tree by a sequence
		</text>
		<text fill="gray" font-size="9" font-family="Segoe UI" x="234, 239.27344, 242.09033, 244.55566, 251.34082, 256.91309, 262.18652, 267.48633, 272.19287, 274.6582, 277.70801, 282.98145, 287.45508, 292.16162, 297.25488, 301.07373, 303.53906, 306.66797, 311.37451, 316.66553, 319.79443, 324.50098, 328.31982, 333.02637, 338.11963, 341.16943, 343.34912, 348.44238, " y="1698, ">
				of QCode tokens representing
		</text>
		<text fill="gray" font-size="9" font-family="Segoe UI" x="234, 237.0498, 242.14307, 246.84961, 249.31494, 253.89404, 258.9873, 263.14453, 267.85107, 271.66992, 274.71973, 279.99316, 283.12207, 285.5874, 289.74463, 295.01807, 300.11133, 304.26855, 308.9751, 314.26611, 317.31592, 321.13477, 323.6001, 328.1792, 333.27246, " y="1710, ">
				the ancestor concepts and
		</text>
		<text fill="gray" font-size="9" font-family="Segoe UI" x="234, 237.0498, 242.14307, 244.32275, 248.1416, 250.60693, 254.76416, 260.0376, 265.13086, 269.28809, 273.99463, 279.28564, " y="1722, ">
				this concept
		</text>
		<rect fill="white" x="238" y="1627" width="77" height="16"/>
		<text font-size="12" font-weight="600" font-family="Segoe UI" x="238, 245.22461, 248.63477, 255.12695, 259.90234, 266.35938, 271.08789, 276.84766, 284.07227, 290.5293, 294.33203, 301.5918, 306.19141, " y="1640, ">
				hierarchyInfo
		</text>
		<path fill="none" stroke="black" stroke-width="1" stroke-linecap="square" stroke-miterlimit="4" transform="translate(0.5 0.5)" d="M231 1627L236 1627"/>
		<path fill="none" stroke="black" stroke-width="1" stroke-linecap="square" stroke-miterlimit="4" transform="translate(0.5 0.5)" d="M231 1629L235 1629"/>
		<path fill="none" stroke="black" stroke-width="1" stroke-linecap="square" stroke-miterlimit="4" transform="translate(0.5 0.5)" d="M231 1631L235 1631"/>
		<path fill="none" stroke="black" stroke-width="2" stroke-miterlimit="4" transform="translate(0.5 0.5)" d="M231 1643L235 1639"/>
		<path fill="none" stroke="black" stroke-width="1" stroke-linecap="square" stroke-miterlimit="4" transform="translate(0.5 0.5)" d="M232 1639L235 1639L235 1642"/>
		<rect fill="none" stroke="black" stroke-width="1" stroke-linecap="square" stroke-miterlimit="4" transform="translate(0.5 0.5)" x="229" y="1625" width="97" height="20"/>
		<rect x="321" y="1630" width="11" height="11"/>
		<rect fill="white" x="322" y="1631" width="9" height="9"/>
		<rect x="323" y="1635" width="7" height="1"/>
		<rect x="326" y="1632" width="1" height="7"/>
		<rect x="194" y="1598" width="11" height="11"/>
		<rect fill="white" x="195" y="1599" width="9" height="9"/>
		<rect x="196" y="1603" width="7" height="1"/>
		<rect x="73" y="1193" width="11" height="11"/>
		<rect fill="white" x="74" y="1194" width="9" height="9"/>
		<rect x="75" y="1198" width="7" height="1"/>
	</g>
</svg>
