<?xml version="1.0" encoding="utf-8" ?>
<svg xmlns="http://www.w3.org/2000/svg" xmlns:xlink="http://www.w3.org/1999/xlink" width="380" height="1816">
	<clipPath id="cl_2d5">
		<rect x="-10" y="-5" width="380" height="1816"/>
	</clipPath>
	<g clip-path="url(#cl_2d5)">
		<path fill="none" stroke="black" stroke-width="1" stroke-linecap="square" stroke-miterlimit="4" transform="translate(0.5 0.5)" d="M86 1277L130 1277"/>
		<path fill="none" stroke="black" stroke-width="1" stroke-linecap="square" stroke-miterlimit="4" transform="translate(0.5 0.5)" d="M131 1277L131 845"/>
		<path fill="none" stroke="black" stroke-width="1" stroke-linecap="square" stroke-miterlimit="4" transform="translate(0.5 0.5)" d="M131 1277L131 1709"/>
		<path fill="none" stroke="black" stroke-width="1" stroke-linecap="square" stroke-miterlimit="4" transform="translate(0.5 0.5)" d="M131 1710L145 1710"/>
		<path fill="none" stroke="black" stroke-width="1" stroke-linecap="square" stroke-miterlimit="4" transform="translate(0.5 0.5)" d="M131 844L145 844"/>
		<path fill="silver" d="M4 1276L9 1271L86 1271L86 1293L9 1293L4 1288L4 1276Z"/>
		<path fill="white" d="M0 1272L5 1267L82 1267L82 1289L5 1289L0 1284L0 1272Z"/>
		<rect fill="white" x="5" y="1294" width="112" height="48"/>
		<text fill="gray" font-size="9" font-family="Segoe UI" x="5, 9.715332, 14.808594, 19.515137, 21.980469, 25.030273, 29.385254, 34.67627, 39.382812, 41.848145, 47.121582, 49.938477, 52.403809, 56.98291, 62.076172, 64.541504, 69.120605, 72.939453, 76.758301, 81.464844, 84.59375, 87.643555, 89.823242, 95.09668, " y="1304, ">
				The type of an assertion
		</text>
		<text fill="gray" font-size="9" font-family="Segoe UI" x="5, 9.5791016, 14.870117, 20.143555, 25.236816, 28.286621, 30.751953, 35.331055, 37.796387, 41.953613, 47.227051, 52.320312, 56.477539, 61.184082, 66.475098, 69.524902, 71.990234, 74.706055, 78.924805, 83.279785, 88.570801, " y="1316, ">
				about a concept (Type
		</text>
		<text fill="gray" font-size="9" font-family="Segoe UI" x="5, 10.299805, 15.006348, 17.823242, 20.00293, 25.096191, 29.802734, 35.102539, 37.567871, 39.747559, 44.84082, 47.306152, 50.355957, 55.449219, 57.628906, 61.447754, 63.913086, 69.22168, 77.303223, 81.539551, 84.004883, 88.786133, 92.943359, 98.036621, 102.74316, 110.49512, " y="1328, ">
				defined in this XML Schema
		</text>
		<text fill="gray" font-size="9" font-family="Segoe UI" x="5, 10.273438, 15.366699, 17.546387, 21.901367, " y="1340, ">
				only)
		</text>
		<rect fill="white" x="5" y="1269" width="64" height="16"/>
		<text font-size="12" font-weight="600" font-family="Segoe UI" x="5, 13.4375, 18.716797, 23.996094, 30.488281, 35.609375, 40.279297, 46.771484, 53.228516, 60.669922, " y="1282, ">
				AssertType
		</text>
		<path fill="none" stroke="black" stroke-width="1" stroke-linecap="square" stroke-miterlimit="4" transform="translate(0.5 0.5)" d="M0 1272L5 1267L81 1267L81 1288L5 1288L0 1283L0 1272Z"/>
		<path fill="white" d="M223 19L223 0L146 0L146 19L146 1687L359 1687L359 19L223 19Z"/>
		<rect fill="white" x="166" y="2" width="51" height="16"/>
		<text font-size="12" font-style="italic" font-family="Segoe UI" x="166, 172.50391, 176.38281, 180.26172, 184.5332, 187.63867, 194.14258, 200.83984, 204.73047, 210.57227, " y="15, ">
				attributes
		</text>
		<path fill="none" stroke="black" stroke-width="1" stroke-linecap="square" stroke-miterlimit="4" transform="translate(0.5 0.5)" d="M223 19L223 0L146 0L146 19L146 1687L359 1687L359 19L223 19Z"/>
		<rect fill="silver" x="164" y="32" width="52" height="21"/>
		<rect fill="white" x="160" y="28" width="52" height="21"/>
		<rect fill="white" x="165" y="55" width="121" height="48"/>
		<text fill="gray" font-size="9" font-family="Segoe UI" x="165, 170.80518, 173.27051, 177.42773, 182.70117, 187.79443, 191.95166, 196.6582, 201.94922, 204.99902, 207.46436, 209.64404, 214.94385, 219.65039, 224.74365, 227.79346, 229.97314, 232.79004, 234.96973, 239.67627, 242.80518, 245.27051, 249.97705, 254.10791, 259.39893, 262.52783, 267.23438, 271.05322, 274.87207, 279.57861, " y="65, ">
				A concept identifier expressed
		</text>
		<text fill="gray" font-size="9" font-family="Segoe UI" x="165, 169.5791, 173.39795, 175.86328, 180.44238, 182.90771, 186.72656, 189.77637, 192.90527, 195.08496, 200.17822, 205.47803, 207.94336, 213.2168, 216.03369, 218.49902, 221.54883, 226.64209, 231.34863, 233.81396, 236.63086, 241.9043, 245.0332, 252.78516, 255.25049, 259.06934, 262.88818, 266.70703, 268.6582, 272.81543, 276.97266, 281.12988, " y="77, ">
				as a string of the form sss:ccc,
		</text>
		<text fill="gray" font-size="9" font-family="Segoe UI" x="165, 171.50391, 176.59717, 181.30371, 184.43262, 189.13916, 191.60449, 195.42334, 199.24219, 203.06104, 205.52637, 207.70605, 211.5249, 213.99023, 218.56934, 221.03467, 224.85352, 229.01074, 234.104, 238.81055, 246.5625, 251.26904, 253.73438, 258.31348, 260.49316, 262.67285, 267.25195, " y="89, ">
				where sss is a scheme alias
		</text>
		<text fill="gray" font-size="9" font-family="Segoe UI" x="165, 169.5791, 174.67236, 179.97217, 182.4375, 186.59473, 190.75195, 194.90918, 197.37451, 199.5542, 203.37305, 205.83838, 210.41748, 212.88281, 217.04004, 222.31348, 227.61328, " y="101, ">
				and ccc is a code
		</text>
		<rect fill="white" x="169" y="30" width="36" height="16"/>
		<text font-size="12" font-weight="600" font-family="Segoe UI" x="169, 176.42969, 182.18945, 189.52539, 196.95508, " y="43, ">
				qcode
		</text>
		<rect fill="none" stroke="black" stroke-width="1" stroke-linecap="square" stroke-miterlimit="4" transform="translate(0.5 0.5)" x="160" y="28" width="51" height="20"/>
		<rect fill="silver" x="164" y="114" width="52" height="21"/>
		<rect fill="white" x="160" y="110" width="52" height="21"/>
		<rect fill="white" x="165" y="137" width="95" height="24"/>
		<text fill="gray" font-size="9" font-family="Segoe UI" x="165, 170.80518, 173.27051, 179.45361, 184.83691, 187.23193, 189.69727, 196.20117, 201.29443, 203.47412, 207.63135, 212.72461, 215.18994, 217.36963, 222.66943, 227.37598, 232.46924, 235.51904, 237.69873, 240.51562, 242.69531, 247.40186, 251.2207, 253.68604, " y="147, ">
				A URI which identifies a
		</text>
		<text fill="gray" font-size="9" font-family="Segoe UI" x="165, 169.15723, 174.43066, 179.52393, 183.68115, 188.3877, 193.67871, 196.72852, " y="159, ">
				concept.
		</text>
		<rect fill="white" x="169" y="112" width="36" height="16"/>
		<text font-size="12" font-weight="600" font-family="Segoe UI" x="169, 176.25977, 181.08203, " y="125, ">
				uri
		</text>
		<rect fill="none" stroke="black" stroke-width="1" stroke-linecap="square" stroke-miterlimit="4" transform="translate(0.5 0.5)" x="160" y="110" width="51" height="20"/>
		<rect fill="silver" x="164" y="172" width="52" height="21"/>
		<rect fill="white" x="160" y="168" width="52" height="21"/>
		<rect fill="white" x="165" y="195" width="121" height="24"/>
		<text fill="gray" font-size="9" font-family="Segoe UI" x="165, 170.80518, 173.27051, 177.42773, 182.70117, 187.79443, 191.95166, 196.6582, 201.94922, 204.99902, 207.46436, 209.64404, 214.94385, 219.65039, 224.74365, 227.79346, 229.97314, 232.79004, 234.96973, 239.67627, 242.80518, 245.27051, 249.97705, 254.10791, 259.39893, 262.52783, 267.23438, 271.05322, 274.87207, 279.57861, " y="205, ">
				A concept identifier expressed
		</text>
		<text fill="gray" font-size="9" font-family="Segoe UI" x="165, 169.5791, 173.39795, 175.86328, 180.44238, 182.90771, 185.72461, 188.85352, 193.56006, 198.2666, 200.73193, 203.78174, 208.48828, 212.61914, 215.66895, 218.13428, 221.95312, 225.00293, 228.13184, 230.31152, 235.40479, " y="217, ">
				as a free text string
		</text>
		<rect fill="white" x="169" y="170" width="36" height="16"/>
		<text font-size="12" font-weight="600" font-family="Segoe UI" x="169, 172.41016, 175.82031, 180.44336, 186.93555, 191.71094, 198.16797, " y="183, ">
				literal
		</text>
		<rect fill="none" stroke="black" stroke-width="1" stroke-linecap="square" stroke-miterlimit="4" transform="translate(0.5 0.5)" x="160" y="168" width="51" height="20"/>
		<path fill="white" d="M351 245L351 226L160 226L160 245L160 1348L351 1348L351 245Z"/>
		<rect fill="white" x="165" y="1351" width="179" height="48"/>
		<text fill="gray" font-size="9" font-family="Segoe UI" x="165, 170.80518, 173.27051, 178.57031, 181.69922, 186.97266, 192.06592, 197.35693, 199.82227, 205.0957, 207.9126, 210.37793, 214.95703, 218.00684, 221.05664, 224.18555, 226.36523, 231.65625, 236.74951, 239.79932, 244.50586, 248.32471, 250.79004, 253.60693, 258.88037, 262.00928, 264.47461, 269.05371, 271.2334, 273.41309, 275.87842, 280.58496, 282.76465, 287.47119, 295.22314, 299.92969, 305.02295, 308.07275, 311.8916, 314.35693, 319.63037, 322.44727, 324.9126, 329.4917, 331.95703, 338.13135, " y="1361, ">
				A group of attributes for all elements of a G2
		</text>
		<text fill="gray" font-size="9" font-family="Segoe UI" x="165, 167.39502, 170.44482, 175.15137, 182.90332, 185.36865, 190.0752, 194.20605, 198.36328, 203.06982, 208.36084, 211.41064, 213.87598, 216.05566, 219.10547, 222.92432, 225.38965, 228.51855, 233.79199, 239.06543, 242.11523, 244.58057, 249.28711, 251.4668, 256.17334, 263.92529, 268.63184, 273.7251, 276.7749, 278.72607, 281.19141, 284.24121, 289.33447, 294.04102, 296.50635, 298.68604, 301.73584, 306.44238, 314.19434, 322.27588, 326.98242, 330.03223, " y="1373, ">
				Item except its root element, the itemMeta
		</text>
		<text fill="gray" font-size="9" font-family="Segoe UI" x="165, 169.70654, 171.88623, 176.59277, 184.34473, 189.05127, 194.14453, 197.19434, 199.65967, 204.23877, 209.33203, 214.63184, 217.09717, 221.67627, 223.85596, 226.03564, 228.50098, 233.77441, 236.59131, 239.05664, 241.23633, 244.28613, 248.10498, 250.57031, 254.72754, 259.8208, 262.00049, 264.18018, 269.47998, 272.60889, 277.31543, 282.40869, 284.87402, 291.37793, 296.47119, 298.65088, 302.80811, 307.90137, 310.3667, 314.9458, 318.07471, " y="1385, ">
				element and all of its children which are
		</text>
		<text fill="gray" font-size="9" font-family="Segoe UI" x="165, 172.75195, 177.33105, 182.42432, 187.72412, 192.30322, 195.35303, 200.62646, 203.75537, 208.11035, " y="1397, ">
				mandatory.
		</text>
		<rect fill="white" x="202" y="228" width="143" height="16"/>
		<text font-size="12" font-weight="600" font-family="Segoe UI" x="202, 207.75977, 215.0957, 226.08789, 237.08008, 244.41602, 251.67578, 258.68945, 266.02539, 275.53516, 282.02734, 286.80273, 295, 299.66992, 304.33984, 309.16211, 312.57227, 320.01367, 327.27344, 331.89648, 338.38867, " y="241, ">
				commonPowerAttributes
		</text>
		<rect fill="white" x="180" y="228" width="20" height="16"/>
		<text fill="gray" font-size="12" font-family="Segoe UI" x="180, 187.06641, 191.23828, " y="241, ">
				grp
		</text>
		<path fill="none" stroke="gray" stroke-width="1" stroke-linecap="square" stroke-miterlimit="4" transform="translate(0.5 0.5)" d="M160 245L160 1348L351 1348L351 245L351 245"/>
		<path fill="none" stroke="black" stroke-width="1" stroke-linecap="square" stroke-miterlimit="4" transform="translate(0.5 0.5)" d="M351 245L351 226L160 226L160 245"/>
		<rect x="165" y="231" width="11" height="11"/>
		<rect fill="white" x="166" y="232" width="9" height="9"/>
		<rect x="167" y="236" width="7" height="1"/>
		<rect fill="silver" x="172" y="259" width="52" height="21"/>
		<rect fill="white" x="168" y="255" width="52" height="21"/>
		<rect fill="white" x="173" y="282" width="101" height="24"/>
		<text fill="gray" font-size="9" font-family="Segoe UI" x="173, 177.71533, 182.80859, 187.51514, 189.98047, 192.16016, 197.43359, 201.59082, 206.16992, 208.34961, 210.81494, 212.99463, 218.29443, 223.00098, 228.09424, 231.14404, 233.32373, 236.14062, 238.32031, 243.02686, 246.15576, 248.62109, 253.89453, 256.71143, 259.17676, 262.22656, 267.31982, " y="292, ">
				The local identifier of the
		</text>
		<text fill="gray" font-size="9" font-family="Segoe UI" x="173, 178.29102, 181.41992, 186.69336, 191.98438, 196.69092, 199.81982, 202.86963, 207.22461, " y="304, ">
				property.
		</text>
		<rect fill="white" x="177" y="257" width="36" height="16"/>
		<text font-size="12" font-weight="600" font-family="Segoe UI" x="177, 180.41016, " y="270, ">
				id
		</text>
		<rect fill="none" stroke="black" stroke-width="1" stroke-linecap="square" stroke-miterlimit="4" transform="translate(0.5 0.5)" x="168" y="255" width="51" height="20"/>
		<rect fill="silver" x="172" y="317" width="58" height="21"/>
		<rect fill="white" x="168" y="313" width="58" height="21"/>
		<rect fill="white" x="173" y="340" width="121" height="120"/>
		<text fill="gray" font-size="9" font-family="Segoe UI" x="173, 175.39502, 178.21191, 180.67725, 183.72705, 188.82031, 193.52686, 195.99219, 201.2832, 204.41211, 209.68555, 214.97656, 219.68311, 222.81201, 225.86182, 230.2168, 232.68213, 236.99316, 241.57227, 243.75195, 248.84521, 253.55176, 256.01709, 258.19678, 262.01562, 264.48096, 269.57422, 274.84766, " y="350, ">
				If the property value is not
		</text>
		<text fill="gray" font-size="9" font-family="Segoe UI" x="173, 178.2998, 183.00635, 185.82324, 188.00293, 193.09619, 197.80273, 203.10254, 205.05371, 207.51904, 211.33789, 216.62891, 221.33545, 225.49268, 227.67236, 230.48926, 232.66895, 237.37549, 241.19434, 243.65967, 250.16357, 255.25684, 257.43652, 261.59375, 266.68701, 269.15234, 273.85889, 278.95215, 282.00195, 284.18164, 287.23145, " y="362, ">
				defined, specifies which entity
		</text>
		<text fill="gray" font-size="9" font-family="Segoe UI" x="173, 175.71582, 181.00684, 185.71338, 188.84229, 192.66113, 197.93457, 203.02783, 204.979, 207.44434, 212.71777, 215.84668, 221.14648, 225.72559, 230.81885, 232.99854, 236.81738, 241.39648, 244.44629, 246.62598, 251.89941, 256.99268, 259.45801, 264.73145, " y="374, ">
				(person, organisation or
		</text>
		<text fill="gray" font-size="9" font-family="Segoe UI" x="173, 176.81885, 181.17383, 184.99268, 188.04248, 192.74902, 200.50098, 203.2168, 205.68213, 212.18604, 214.36572, 216.54541, 218.7251, 221.19043, 225.89697, 231.19678, 233.37646, 236.42627, 238.8916, 241.94141, 247.03467, 251.74121, 254.20654, 259.49756, 262.62646, 267.8999, 273.19092, 277.89746, 281.02637, 284.07617, " y="386, ">
				system) will edit the property
		</text>
		<text fill="gray" font-size="9" font-family="Segoe UI" x="173, 177.31104, 181.89014, 184.06982, 189.16309, 193.86963, 196.33496, 199.93408, 202.39941, 207.10596, 211.23682, 216.52783, 219.65674, 224.36328, 228.18213, 232.00098, 236.70752, 242.00732, 244.47266, 249.76367, 254.11865, 256.58398, 261.16309, 263.62842, 270.41357, 275.98584, 281.25928, 286.55908, 291.26562, " y="398, ">
				value - expressed by a QCode.
		</text>
		<text fill="gray" font-size="9" font-family="Segoe UI" x="173, 175.39502, 178.21191, 180.67725, 183.72705, 188.82031, 193.52686, 195.99219, 201.2832, 204.41211, 209.68555, 214.97656, 219.68311, 222.81201, 225.86182, 230.2168, 232.68213, 236.99316, 241.57227, 243.75195, 248.84521, 253.55176, 256.01709, 258.19678, " y="410, ">
				If the property value is
		</text>
		<text fill="gray" font-size="9" font-family="Segoe UI" x="173, 178.2998, 183.00635, 185.82324, 188.00293, 193.09619, 197.80273, 203.10254, 205.05371, 207.51904, 211.33789, 216.62891, 221.33545, 225.49268, 227.67236, 230.48926, 232.66895, 237.37549, 241.19434, 243.65967, 250.16357, 255.25684, 257.43652, 261.59375, 266.68701, 269.15234, 273.85889, 278.95215, 282.00195, 284.18164, 287.23145, " y="422, ">
				defined, specifies which entity
		</text>
		<text fill="gray" font-size="9" font-family="Segoe UI" x="173, 175.71582, 181.00684, 185.71338, 188.84229, 192.66113, 197.93457, 203.02783, 204.979, 207.44434, 212.71777, 215.84668, 221.14648, 225.72559, 230.81885, 232.99854, 236.81738, 241.39648, 244.44629, 246.62598, 251.89941, 256.99268, 259.45801, 264.73145, " y="434, ">
				(person, organisation or
		</text>
		<text fill="gray" font-size="9" font-family="Segoe UI" x="173, 176.81885, 181.17383, 184.99268, 188.04248, 192.74902, 200.50098, 203.2168, 205.68213, 210.77539, 215.35449, 219.17334, 221.63867, 226.34521, 231.64502, 233.82471, 236.87451, 241.58105, 246.88086, 249.34619, 252.396, 257.48926, " y="446, ">
				system) has edited the
		</text>
		<text fill="gray" font-size="9" font-family="Segoe UI" x="173, 178.29102, 181.41992, 186.69336, 191.98438, 196.69092, 199.81982, 202.86963, 207.22461, 209.68994, 214.00098, 218.58008, 220.75977, 225.85303, 230.55957, " y="458, ">
				property value.
		</text>
		<rect fill="white" x="177" y="315" width="42" height="16"/>
		<text font-size="12" font-weight="600" font-family="Segoe UI" x="177, 182.75977, 187.48828, 193.98047, 200.4375, 205.06055, 212.39648, " y="328, ">
				creator
		</text>
		<rect fill="none" stroke="black" stroke-width="1" stroke-linecap="square" stroke-miterlimit="4" transform="translate(0.5 0.5)" x="168" y="313" width="57" height="20"/>
		<rect fill="silver" x="172" y="471" width="73" height="21"/>
		<rect fill="white" x="168" y="467" width="73" height="21"/>
		<rect fill="white" x="173" y="494" width="120" height="108"/>
		<text fill="gray" font-size="9" font-family="Segoe UI" x="173, 175.39502, 178.21191, 180.67725, 183.72705, 188.82031, 193.52686, 195.99219, 201.2832, 204.41211, 209.68555, 214.97656, 219.68311, 222.81201, 225.86182, 230.2168, 232.68213, 236.99316, 241.57227, 243.75195, 248.84521, 253.55176, 256.01709, 258.19678, 262.01562, 264.48096, 269.57422, 274.84766, " y="504, ">
				If the property value is not
		</text>
		<text fill="gray" font-size="9" font-family="Segoe UI" x="173, 178.2998, 183.00635, 185.82324, 188.00293, 193.09619, 197.80273, 203.10254, 205.05371, 207.51904, 211.33789, 216.62891, 221.33545, 225.49268, 227.67236, 230.48926, 232.66895, 237.37549, 241.19434, 243.65967, 250.16357, 255.25684, 257.43652, 261.59375, 266.68701, 269.15234, 273.85889, 278.95215, 282.00195, 284.18164, 287.23145, " y="516, ">
				defined, specifies which entity
		</text>
		<text fill="gray" font-size="9" font-family="Segoe UI" x="173, 175.71582, 181.00684, 185.71338, 188.84229, 192.66113, 197.93457, 203.02783, 204.979, 207.44434, 212.71777, 215.84668, 221.14648, 225.72559, 230.81885, 232.99854, 236.81738, 241.39648, 244.44629, 246.62598, 251.89941, 256.99268, 259.45801, 264.73145, " y="528, ">
				(person, organisation or
		</text>
		<text fill="gray" font-size="9" font-family="Segoe UI" x="173, 176.81885, 181.17383, 184.99268, 188.04248, 192.74902, 200.50098, 203.2168, 205.68213, 212.18604, 214.36572, 216.54541, 218.7251, 221.19043, 225.89697, 231.19678, 233.37646, 236.42627, 238.8916, 241.94141, 247.03467, 251.74121, 254.20654, 259.49756, 262.62646, 267.8999, 273.19092, 277.89746, 281.02637, 284.07617, " y="540, ">
				system) will edit the property
		</text>
		<text fill="gray" font-size="9" font-family="Segoe UI" x="173, 176.59912, 179.06445, 183.771, 187.90186, 193.19287, 196.32178, 201.02832, 204.84717, 208.66602, 213.37256, 218.67236, 221.1377, 226.42871, 230.78369, 233.24902, 237.82812, 240.29346, 246.47656, 251.85986, 254.25488, 256.20605, 258.67139, 261.06641, 263.8833, 266.34863, 269.39844, 274.4917, " y="552, ">
				- expressed by a URI. If the
		</text>
		<text fill="gray" font-size="9" font-family="Segoe UI" x="173, 178.29102, 181.41992, 186.69336, 191.98438, 196.69092, 199.81982, 202.86963, 207.22461, 209.68994, 214.00098, 218.58008, 220.75977, 225.85303, 230.55957, 233.0249, 235.20459, 239.02344, 241.48877, 246.78857, 251.49512, 254.31201, 256.4917, 261.58496, 266.2915, 271.59131, " y="564, ">
				property value is defined,
		</text>
		<text fill="gray" font-size="9" font-family="Segoe UI" x="173, 176.81885, 182.10986, 186.81641, 190.97363, 193.15332, 195.97021, 198.1499, 202.85645, 206.67529, 209.14062, 215.64453, 220.73779, 222.91748, 227.07471, 232.16797, 234.6333, 239.33984, 244.43311, 247.48291, 249.6626, 252.7124, 257.06738, 259.53271, 262.24854, 267.53955, 272.24609, 275.375, 279.19385, 284.46729, 289.56055, " y="576, ">
				specifies which entity (person,
		</text>
		<text fill="gray" font-size="9" font-family="Segoe UI" x="173, 178.27344, 181.40234, 186.70215, 191.28125, 196.37451, 198.5542, 202.37305, 206.95215, 210.00195, 212.18164, 217.45508, 222.54834, 225.01367, 230.28711, 233.41602, 235.88135, 239.7002, 244.05518, 247.87402, 250.92383, 255.63037, 263.38232, 266.09814, 268.56348, 273.65674, 278.23584, " y="588, ">
				organisation or system) has
		</text>
		<text fill="gray" font-size="9" font-family="Segoe UI" x="173, 177.70654, 183.00635, 185.18604, 188.23584, 192.94238, 198.24219, 200.70752, 203.75732, 208.85059, 213.55713, 216.02246, 221.31348, 224.44238, 229.71582, 235.00684, 239.71338, 242.84229, 245.89209, 250.24707, " y="600, ">
				edited the property.
		</text>
		<rect fill="white" x="177" y="469" width="57" height="16"/>
		<text font-size="12" font-weight="600" font-family="Segoe UI" x="177, 182.75977, 187.48828, 193.98047, 200.4375, 205.06055, 212.39648, 217.20703, 224.4668, 229.28906, " y="482, ">
				creatoruri
		</text>
		<rect fill="none" stroke="black" stroke-width="1" stroke-linecap="square" stroke-miterlimit="4" transform="translate(0.5 0.5)" x="168" y="467" width="72" height="20"/>
		<rect fill="silver" x="172" y="613" width="69" height="21"/>
		<rect fill="white" x="168" y="609" width="69" height="21"/>
		<rect fill="white" x="173" y="636" width="119" height="72"/>
		<text fill="gray" font-size="9" font-family="Segoe UI" x="173, 177.71533, 182.80859, 187.51514, 189.98047, 195.28027, 199.85938, 202.90918, 207.61572, 210.08105, 212.79688, 217.37598, 222.46924, 227.76904, 229.72021, 232.18555, 237.45898, 242.75, 245.7998, 247.97949, 253.25293, 258.34619, 262.92529, 265.10498, 267.28467, 271.63965, 273.59082, 276.05615, 279.10596, 284.19922, " y="646, ">
				The date (and, optionally, the
		</text>
		<text fill="gray" font-size="9" font-family="Segoe UI" x="173, 176.0498, 178.22949, 185.98145, 190.68799, 193.40381, 195.86914, 202.37305, 207.46631, 212.17285, 217.26611, 219.73145, 222.78125, 227.87451, 232.58105, 235.04639, 240.3374, 243.46631, 248.73975, 254.03076, 258.7373, 261.86621, 264.91602, 269.271, 271.73633, 278.24023, 282.81934, " y="658, ">
				time) when the property was
		</text>
		<text fill="gray" font-size="9" font-family="Segoe UI" x="173, 175.17969, 179.75879, 183.57764, 186.62744, 189.09277, 196.84473, 202.11816, 207.41797, 209.59766, 212.41455, 214.59424, 219.30078, 224.60059, 226.55176, 229.01709, 233.73242, 238.82568, 243.53223, 245.99756, 248.17725, 253.27051, 255.4502, 258.5, 260.67969, 265.25879, 267.43848, 269.90381, 274.21484, 278.79395, 280.97363, 286.06689, " y="670, ">
				last modified. The initial value
		</text>
		<text fill="gray" font-size="9" font-family="Segoe UI" x="173, 175.17969, 178.99854, 181.46387, 184.51367, 189.60693, 194.31348, 196.77881, 202.07861, 206.65771, 209.70752, 214.41406, 216.87939, 219.59521, 224.17432, 229.26758, 234.56738, 236.51855, 238.98389, 244.25732, 249.54834, 252.59814, 254.77783, 260.05127, 265.14453, 269.72363, 271.90332, 274.08301, 278.43799, " y="682, ">
				is the date (and, optionally,
		</text>
		<text fill="gray" font-size="9" font-family="Segoe UI" x="173, 176.0498, 181.14307, 185.84961, 188.31494, 191.36475, 193.54443, 201.29639, 206.00293, 208.71875, 211.18408, 216.45752, 219.27441, 221.73975, 225.89697, 229.02588, 233.73242, 238.31152, 241.36133, 243.54102, 248.81445, 253.90771, 256.37305, 261.64648, 264.46338, 266.92871, 269.97852, 275.07178, " y="694, ">
				the time) of creation of the
		</text>
		<text fill="gray" font-size="9" font-family="Segoe UI" x="173, 178.29102, 181.41992, 186.69336, 191.98438, 196.69092, 199.81982, 202.86963, 207.22461, " y="706, ">
				property.
		</text>
		<rect fill="white" x="177" y="611" width="53" height="16"/>
		<text font-size="12" font-weight="600" font-family="Segoe UI" x="177, 187.99219, 195.32812, 202.75781, 206.16797, 210.76758, 214.17773, 220.66992, " y="624, ">
				modified
		</text>
		<rect fill="none" stroke="black" stroke-width="1" stroke-linecap="square" stroke-miterlimit="4" transform="translate(0.5 0.5)" x="168" y="609" width="68" height="20"/>
		<rect fill="silver" x="172" y="719" width="59" height="21"/>
		<rect fill="white" x="168" y="715" width="59" height="21"/>
		<rect fill="white" x="173" y="742" width="118" height="108"/>
		<text fill="gray" font-size="9" font-family="Segoe UI" x="173, 175.39502, 178.21191, 180.67725, 184.49609, 189.20264, 192.25244, 194.71777, 197.76758, 203.04102, 205.50635, 208.55615, 211.68506, 216.77832, 221.48486, 223.9502, 227, 232.09326, " y="752, ">
				If set to true the
		</text>
		<text fill="gray" font-size="9" font-family="Segoe UI" x="173, 177.15723, 182.43066, 185.55957, 188.68848, 193.39502, 197.21387, 202.50488, 207.77832, 212.87158, 218.17139, 220.35107, 225.44434, 230.74414, 233.20947, 238.50049, 241.62939, 246.90283, 252.19385, 256.90039, 260.0293, 263.0791, 267.43408, 269.89941, 276.40332, 280.98242, " y="764, ">
				corresponding property was
		</text>
		<text fill="gray" font-size="9" font-family="Segoe UI" x="173, 177.5791, 182.87891, 188.17871, 192.88525, 198.18506, 200.65039, 203.7002, 208.97363, 211.43896, 214.48877, 219.58203, 224.28857, 226.75391, 232.92822, 237.77979, 240.24512, 242.64014, 245.68994, 250.39648, 258.14844, 260.61377, 263.43066, 268.7041, 271.83301, 274.29834, " y="776, ">
				added to the G2 Item for a
		</text>
		<text fill="gray" font-size="9" font-family="Segoe UI" x="173, 176.81885, 182.10986, 186.81641, 190.97363, 193.15332, 195.97021, 198.1499, 202.30713, 204.77246, 208.92969, 214.02295, 217.8418, 220.8916, 226.16504, 233.91699, 238.62354, 241.75244, 244.21777, 249.49121, 252.62012, 255.08545, 260.38525, 263.51416, 268.7876, 273.88086, 279.17188, 281.63721, 286.91064, " y="788, ">
				specific customer or group of
		</text>
		<text fill="gray" font-size="9" font-family="Segoe UI" x="173, 177.15723, 182.25049, 186.06934, 189.11914, 194.39258, 202.14453, 206.85107, 209.97998, 213.79883, 216.26416, 221.5376, 226.63086, 228.81055, 233.16553, 235.1167, 237.58203, 242.29736, 247.39062, 252.09717, 254.5625, 259.8623, 264.56885, 267.38574, 271.96484, 277.05811, 279.23779, " y="800, ">
				customers only. The default
		</text>
		<text fill="gray" font-size="9" font-family="Segoe UI" x="173, 177.31104, 181.89014, 184.06982, 189.16309, 193.86963, 196.33496, 201.6084, 204.42529, 206.89062, 209.94043, 215.03369, 217.21338, 221.03223, 223.49756, 228.78857, 231.91748, 237.19092, 242.48193, 247.18848, 250.31738, 253.36719, 257.72217, 260.1875, 262.36719, 266.18604, 268.65137, 271.46826, 276.04736, 278.22705, 282.0459, " y="812, ">
				value of this property is false
		</text>
		<text fill="gray" font-size="9" font-family="Segoe UI" x="173, 179.50391, 184.59717, 186.77686, 190.93408, 196.02734, 198.49268, 203.07178, 208.36279, 213.65381, 215.8335, 218.01318, 222.71973, 226.53857, 229.00391, 235.50781, 240.60107, 245.30762, 250.40088, 252.86621, 255.91602, 261.00928, 263.18896, " y="824, ">
				which applies when this
		</text>
		<text fill="gray" font-size="9" font-family="Segoe UI" x="173, 177.5791, 180.62891, 183.67871, 186.80762, 188.9873, 194.27832, 199.37158, 202.42139, 207.12793, 209.59326, 211.77295, 215.5918, 218.05713, 223.15039, 228.42383, 231.47363, 233.93896, 239.03223, 242.85107, 247.55762, 252.85742, 255.32275, 261.82666, 264.00635, 267.05615, 272.14941, 274.61475, 277.66455, 282.75781, " y="836, ">
				attribute is not used with the
		</text>
		<text fill="gray" font-size="9" font-family="Segoe UI" x="173, 178.29102, 181.41992, 186.69336, 191.98438, 196.69092, 199.81982, 202.86963, 207.22461, " y="848, ">
				property.
		</text>
		<rect fill="white" x="177" y="717" width="43" height="16"/>
		<text font-size="12" font-weight="600" font-family="Segoe UI" x="177, 182.75977, 190.01953, 195.29883, 199.92188, 207.25781, " y="730, ">
				custom
		</text>
		<rect fill="none" stroke="black" stroke-width="1" stroke-linecap="square" stroke-miterlimit="4" transform="translate(0.5 0.5)" x="168" y="715" width="58" height="20"/>
		<rect fill="silver" x="172" y="861" width="52" height="21"/>
		<rect fill="white" x="168" y="857" width="52" height="21"/>
		<rect fill="white" x="173" y="884" width="118" height="48"/>
		<text fill="gray" font-size="9" font-family="Segoe UI" x="173, 175.39502, 180.48828, 185.78809, 187.96777, 192.125, 196.7041, 199.75391, 204.46045, 208.2793, 210.74463, 216.03564, 220.39062, 222.85596, 229.35986, 234.45312, 236.63281, 240.79004, 245.8833, 248.34863, 256.10059, 260.80713, 265.38623, 270.47949, 274.29834, 276.76367, 279.81348, 284.90674, " y="894, ">
				Indicates by which means the
		</text>
		<text fill="gray" font-size="9" font-family="Segoe UI" x="173, 177.31104, 181.89014, 184.06982, 189.16309, 193.86963, 196.33496, 202.83887, 207.41797, 211.23682, 213.70215, 218.40869, 222.53955, 225.58936, 228.71826, 233.29736, 237.45459, 240.50439, 245.21094, 250.51074, 252.97607, 255.79297, 258.92188, 264.19531, 271.94727, 274.4126, 277.4624, 282.55566, " y="906, ">
				value was extracted from the
		</text>
		<text fill="gray" font-size="9" font-family="Segoe UI" x="173, 177.15723, 182.43066, 187.52393, 190.57373, 195.28027, 200.37354, 203.42334, 205.88867, 209.48779, 211.95312, 216.65967, 220.79053, 226.08154, 229.21045, 233.91699, 237.73584, 241.55469, 246.26123, 251.56104, 254.02637, 259.31738, 263.67236, 266.1377, " y="918, ">
				content - expressed by a
		</text>
		<text fill="gray" font-size="9" font-family="Segoe UI" x="173, 179.78516, 185.35742, 190.63086, 195.93066, " y="930, ">
				QCode
		</text>
		<rect fill="white" x="177" y="859" width="36" height="16"/>
		<text font-size="12" font-weight="600" font-family="Segoe UI" x="177, 184.22461, 191.56055, " y="872, ">
				how
		</text>
		<rect fill="none" stroke="black" stroke-width="1" stroke-linecap="square" stroke-miterlimit="4" transform="translate(0.5 0.5)" x="168" y="857" width="51" height="20"/>
		<rect fill="silver" x="172" y="943" width="57" height="21"/>
		<rect fill="white" x="168" y="939" width="57" height="21"/>
		<rect fill="white" x="173" y="966" width="118" height="36"/>
		<text fill="gray" font-size="9" font-family="Segoe UI" x="173, 175.39502, 180.48828, 185.78809, 187.96777, 192.125, 196.7041, 199.75391, 204.46045, 208.2793, 210.74463, 216.03564, 220.39062, 222.85596, 229.35986, 234.45312, 236.63281, 240.79004, 245.8833, 248.34863, 256.10059, 260.80713, 265.38623, 270.47949, 274.29834, 276.76367, 279.81348, 284.90674, " y="976, ">
				Indicates by which means the
		</text>
		<text fill="gray" font-size="9" font-family="Segoe UI" x="173, 177.31104, 181.89014, 184.06982, 189.16309, 193.86963, 196.33496, 202.83887, 207.41797, 211.23682, 213.70215, 218.40869, 222.53955, 225.58936, 228.71826, 233.29736, 237.45459, 240.50439, 245.21094, 250.51074, 252.97607, 255.79297, 258.92188, 264.19531, 271.94727, 274.4126, 277.4624, 282.55566, " y="988, ">
				value was extracted from the
		</text>
		<text fill="gray" font-size="9" font-family="Segoe UI" x="173, 177.15723, 182.43066, 187.52393, 190.57373, 195.28027, 200.37354, 203.42334, 205.88867, 209.48779, 211.95312, 216.65967, 220.79053, 226.08154, 229.21045, 233.91699, 237.73584, 241.55469, 246.26123, 251.56104, 254.02637, 259.31738, 263.67236, 266.1377, 270.7168, 273.18213, 279.36523, 284.74854, " y="1000, ">
				content - expressed by a URI
		</text>
		<rect fill="white" x="177" y="941" width="41" height="16"/>
		<text font-size="12" font-weight="600" font-family="Segoe UI" x="177, 184.22461, 191.56055, 201.12891, 208.38867, 213.21094, " y="954, ">
				howuri
		</text>
		<rect fill="none" stroke="black" stroke-width="1" stroke-linecap="square" stroke-miterlimit="4" transform="translate(0.5 0.5)" x="168" y="939" width="56" height="20"/>
		<rect fill="silver" x="172" y="1013" width="52" height="21"/>
		<rect fill="white" x="168" y="1009" width="52" height="21"/>
		<rect fill="white" x="173" y="1036" width="113" height="36"/>
		<text fill="gray" font-size="9" font-family="Segoe UI" x="173, 181.40674, 186.5, 190.85498, 193.32031, 196.37012, 201.46338, 206.16992, 208.63525, 216.38721, 221.09375, 224.14355, 228.72266, 234.02246, 238.60156, 241.65137, 246.23047, 248.6958, 253.78906, 258.36816, 262.18701, 264.65234, 269.94336, 274.6499, 279.35645, " y="1046, ">
				Why the metadata has been
		</text>
		<text fill="gray" font-size="9" font-family="Segoe UI" x="173, 175.17969, 180.27295, 184.43018, 186.60986, 191.70312, 197.00293, 201.70947, 207.00928, 209.47461, 213.07373, 215.53906, 220.24561, 224.37646, 229.66748, 232.79639, 237.50293, 241.32178, 245.14062, 249.84717, 255.14697, 257.6123, 262.90332, 267.2583, 269.72363, " y="1058, ">
				included - expressed by a
		</text>
		<text fill="gray" font-size="9" font-family="Segoe UI" x="173, 179.78516, 185.35742, 190.63086, 195.93066, " y="1070, ">
				QCode
		</text>
		<rect fill="white" x="177" y="1011" width="36" height="16"/>
		<text font-size="12" font-weight="600" font-family="Segoe UI" x="177, 186.56836, 193.79297, " y="1024, ">
				why
		</text>
		<rect fill="none" stroke="black" stroke-width="1" stroke-linecap="square" stroke-miterlimit="4" transform="translate(0.5 0.5)" x="168" y="1009" width="51" height="20"/>
		<rect fill="silver" x="172" y="1083" width="56" height="21"/>
		<rect fill="white" x="168" y="1079" width="56" height="21"/>
		<rect fill="white" x="173" y="1106" width="119" height="24"/>
		<text fill="gray" font-size="9" font-family="Segoe UI" x="173, 181.40674, 186.5, 190.85498, 193.32031, 196.37012, 201.46338, 206.16992, 208.63525, 216.38721, 221.09375, 224.14355, 228.72266, 234.02246, 238.60156, 241.65137, 246.23047, 248.6958, 253.78906, 258.36816, 262.18701, 264.65234, 269.94336, 274.6499, 279.35645, " y="1116, ">
				Why the metadata has been
		</text>
		<text fill="gray" font-size="9" font-family="Segoe UI" x="173, 175.17969, 180.27295, 184.43018, 186.60986, 191.70312, 197.00293, 201.70947, 207.00928, 209.47461, 213.07373, 215.53906, 220.24561, 224.37646, 229.66748, 232.79639, 237.50293, 241.32178, 245.14062, 249.84717, 255.14697, 257.6123, 262.90332, 267.2583, 269.72363, 274.30273, 276.76807, 282.95117, 288.33447, " y="1128, ">
				included - expressed by a URI
		</text>
		<rect fill="white" x="177" y="1081" width="40" height="16"/>
		<text font-size="12" font-weight="600" font-family="Segoe UI" x="177, 186.56836, 193.79297, 200.25, 207.50977, 212.33203, " y="1094, ">
				whyuri
		</text>
		<rect fill="none" stroke="black" stroke-width="1" stroke-linecap="square" stroke-miterlimit="4" transform="translate(0.5 0.5)" x="168" y="1079" width="55" height="20"/>
		<rect fill="silver" x="172" y="1141" width="97" height="21"/>
		<rect fill="white" x="168" y="1137" width="97" height="21"/>
		<rect fill="white" x="173" y="1164" width="117" height="72"/>
		<text fill="gray" font-size="9" font-family="Segoe UI" x="173, 179.78516, 184.87842, 189.58496, 192.05029, 197.32373, 200.45264, 202.91797, 210.66992, 215.24902, 220.34229, 224.69727, 227.1626, 231.31982, 236.59326, 241.68652, 245.50537, 248.55518, 251.68408, 256.26318, 258.44287, 263.53613, 266.58594, 270.40479, 272.87012, 275.91992, 281.01318, 285.59229, " y="1174, ">
				One or many constraints that
		</text>
		<text fill="gray" font-size="9" font-family="Segoe UI" x="173, 177.5791, 182.87012, 188.16113, 190.34082, 194.6958, 197.16113, 200.21094, 205.48438, 207.94971, 213.24072, 218.33398, 223.625, 225.80469, 227.98438, 231.80322, 236.89648, 239.07617, 244.16943, 249.46924, 251.93457, 254.98438, 260.07764, 264.78418, 267.24951, 271.56055, 276.13965, 278.31934, 283.4126, " y="1186, ">
				apply to publishing the value
		</text>
		<text fill="gray" font-size="9" font-family="Segoe UI" x="173, 178.27344, 181.09033, 183.55566, 186.60547, 191.69873, 196.40527, 198.87061, 204.16162, 207.29053, 212.56396, 217.85498, 222.56152, 225.69043, 228.74023, 233.09521, 235.56055, 239.15967, 241.625, 246.33154, 250.4624, 255.75342, 258.88232, 263.58887, 267.40771, 271.22656, 275.93311, " y="1198, ">
				of the property - expressed
		</text>
		<text fill="gray" font-size="9" font-family="Segoe UI" x="173, 178.29102, 182.646, 185.11133, 189.69043, 192.15576, 198.94092, 204.51318, 209.78662, 215.08643, 219.79297, 221.74414, 224.20947, 228.76221, 233.34131, 237.49854, 242.5918, 245.05713, 249.21436, 254.48779, 259.58105, 263.3999, 266.44971, 269.57861, 274.15771, 276.3374, 281.43066, " y="1210, ">
				by a QCode. Each constraint
		</text>
		<text fill="gray" font-size="9" font-family="Segoe UI" x="173, 177.5791, 182.87012, 188.16113, 190.34082, 192.52051, 197.22705, 201.0459, 203.51123, 206.56104, 211.83447, 214.2998, 218.87891, 221.05859, 223.23828, 225.70361, 231.00342, 235.70996, 239.52881, 243.68604, 248.39258, 253.48584, 258.78564, 263.36475, 268.45801, " y="1222, ">
				applies to all descendant
		</text>
		<text fill="gray" font-size="9" font-family="Segoe UI" x="173, 177.70654, 179.88623, 184.59277, 192.34473, 197.05127, 202.14453, 205.19434, 209.01318, " y="1234, ">
				elements.
		</text>
		<rect fill="white" x="177" y="1139" width="81" height="16"/>
		<text font-size="12" font-weight="600" font-family="Segoe UI" x="177, 184.44141, 191.70117, 199.14258, 204.90234, 212.23828, 219.49805, 224.77734, 229.44727, 234.22266, 240.67969, 244.08984, 251.34961, " y="1152, ">
				pubconstraint
		</text>
		<rect fill="none" stroke="black" stroke-width="1" stroke-linecap="square" stroke-miterlimit="4" transform="translate(0.5 0.5)" x="168" y="1137" width="96" height="20"/>
		<rect fill="silver" x="172" y="1247" width="112" height="21"/>
		<rect fill="white" x="168" y="1243" width="112" height="21"/>
		<rect fill="white" x="173" y="1270" width="117" height="72"/>
		<text fill="gray" font-size="9" font-family="Segoe UI" x="173, 179.78516, 184.87842, 189.58496, 192.05029, 197.32373, 200.45264, 202.91797, 210.66992, 215.24902, 220.34229, 224.69727, 227.1626, 231.31982, 236.59326, 241.68652, 245.50537, 248.55518, 251.68408, 256.26318, 258.44287, 263.53613, 266.58594, 270.40479, 272.87012, 275.91992, 281.01318, 285.59229, " y="1280, ">
				One or many constraints that
		</text>
		<text fill="gray" font-size="9" font-family="Segoe UI" x="173, 177.5791, 182.87012, 188.16113, 190.34082, 194.6958, 197.16113, 200.21094, 205.48438, 207.94971, 213.24072, 218.33398, 223.625, 225.80469, 227.98438, 231.80322, 236.89648, 239.07617, 244.16943, 249.46924, 251.93457, 254.98438, 260.07764, 264.78418, 267.24951, 271.56055, 276.13965, 278.31934, 283.4126, " y="1292, ">
				apply to publishing the value
		</text>
		<text fill="gray" font-size="9" font-family="Segoe UI" x="173, 178.27344, 181.09033, 183.55566, 186.60547, 191.69873, 196.40527, 198.87061, 204.16162, 207.29053, 212.56396, 217.85498, 222.56152, 225.69043, 228.74023, 233.09521, 235.56055, 239.15967, 241.625, 246.33154, 250.4624, 255.75342, 258.88232, 263.58887, 267.40771, 271.22656, 275.93311, " y="1304, ">
				of the property - expressed
		</text>
		<text fill="gray" font-size="9" font-family="Segoe UI" x="173, 178.29102, 182.646, 185.11133, 189.69043, 192.15576, 198.33887, 203.72217, 206.11719, 208.06836, 210.53369, 215.08643, 219.66553, 223.82275, 228.91602, 231.38135, 235.53857, 240.81201, 245.90527, 249.72412, 252.77393, 255.90283, 260.48193, 262.66162, 267.75488, " y="1316, ">
				by a URI. Each constraint
		</text>
		<text fill="gray" font-size="9" font-family="Segoe UI" x="173, 177.5791, 182.87012, 188.16113, 190.34082, 192.52051, 197.22705, 201.0459, 203.51123, 206.56104, 211.83447, 214.2998, 218.87891, 221.05859, 223.23828, 225.70361, 231.00342, 235.70996, 239.52881, 243.68604, 248.39258, 253.48584, 258.78564, 263.36475, 268.45801, " y="1328, ">
				applies to all descendant
		</text>
		<text fill="gray" font-size="9" font-family="Segoe UI" x="173, 177.70654, 179.88623, 184.59277, 192.34473, 197.05127, 202.14453, 205.19434, 209.01318, " y="1340, ">
				elements.
		</text>
		<rect fill="white" x="177" y="1245" width="96" height="16"/>
		<text font-size="12" font-weight="600" font-family="Segoe UI" x="177, 184.44141, 191.70117, 199.14258, 204.90234, 212.23828, 219.49805, 224.77734, 229.44727, 234.22266, 240.67969, 244.08984, 251.34961, 256.01953, 263.2793, 268.10156, " y="1258, ">
				pubconstrainturi
		</text>
		<rect fill="none" stroke="black" stroke-width="1" stroke-linecap="square" stroke-miterlimit="4" transform="translate(0.5 0.5)" x="168" y="1243" width="111" height="20"/>
		<path fill="white" d="M291 1425L291 1406L160 1406L160 1425L160 1610L301 1610L301 1425L291 1425Z"/>
		<rect fill="white" x="165" y="1613" width="110" height="36"/>
		<text fill="gray" font-size="9" font-family="Segoe UI" x="165, 170.80518, 173.27051, 178.57031, 181.69922, 186.97266, 192.06592, 197.35693, 199.82227, 205.0957, 207.9126, 210.37793, 214.95703, 218.00684, 221.05664, 224.18555, 226.36523, 231.65625, 236.74951, 239.79932, 244.50586, 248.32471, 250.79004, 253.60693, 258.88037, " y="1623, ">
				A group of attributes for
		</text>
		<text fill="gray" font-size="9" font-family="Segoe UI" x="165, 167.17969, 171.75879, 176.85205, 182.15186, 187.24512, 191.82422, 197.12402, 201.83057, 204.2959, 208.875, 213.96826, 219.26807, 221.7334, 225.55225, 229.70947, 232.83838, 235.01807, 240.30908, 243.35889, 245.82422, 248.95312, 253.65967, 255.83936, 260.41846, 263.46826, 268.1748, " y="1635, ">
				language and script related
		</text>
		<text fill="gray" font-size="9" font-family="Segoe UI" x="165, 167.17969, 172.27295, 175.08984, 180.36328, 183.49219, 191.24414, 195.82324, 198.87305, 201.05273, 206.32617, " y="1647, ">
				information
		</text>
		<rect fill="white" x="202" y="1408" width="83" height="16"/>
		<text font-size="12" font-weight="600" font-family="Segoe UI" x="202, 205.41016, 212.3125, 219.21484, 226.47461, 234.67188, 239.3418, 244.01172, 248.83398, 252.24414, 259.68555, 266.94531, 271.56836, 278.06055, " y="1421, ">
				i18nAttributes
		</text>
		<rect fill="white" x="180" y="1408" width="20" height="16"/>
		<text fill="gray" font-size="12" font-family="Segoe UI" x="180, 187.06641, 191.23828, " y="1421, ">
				grp
		</text>
		<path fill="none" stroke="gray" stroke-width="1" stroke-linecap="square" stroke-miterlimit="4" transform="translate(0.5 0.5)" d="M160 1425L160 1610L301 1610L301 1425L291 1425"/>
		<path fill="none" stroke="black" stroke-width="1" stroke-linecap="square" stroke-miterlimit="4" transform="translate(0.5 0.5)" d="M291 1425L291 1406L160 1406L160 1425"/>
		<rect x="165" y="1411" width="11" height="11"/>
		<rect fill="white" x="166" y="1412" width="9" height="9"/>
		<rect x="167" y="1416" width="7" height="1"/>
		<rect fill="silver" x="172" y="1439" width="66" height="21"/>
		<rect fill="white" x="168" y="1435" width="66" height="21"/>
		<rect fill="white" x="173" y="1462" width="121" height="84"/>
		<text fill="gray" font-size="9" font-family="Segoe UI" x="173, 177.78125, 183.07227, 187.77881, 191.93604, 194.11572, 196.93262, 199.1123, 203.81885, 207.6377, 210.10303, 213.15283, 218.24609, 222.95264, 225.41797, 227.59766, 232.17676, 237.27002, 242.56982, 247.66309, 252.24219, 257.54199, 262.24854, 264.71387, 269.9873, 272.8042, 275.26953, 278.31934, 283.4126, 285.59229, " y="1472, ">
				Specifies the language of this
		</text>
		<text fill="gray" font-size="9" font-family="Segoe UI" x="173, 178.29102, 181.41992, 186.69336, 191.98438, 196.69092, 199.81982, 202.86963, 207.22461, 209.68994, 214.26904, 219.3623, 224.66211, 227.12744, 232.41846, 237.69189, 240.7417, 245.44824, 250.5415, 253.59131, 255.771, 260.3501, 262.52979, 264.70947, 269.06445, 271.52979, 276.10889, 278.28857, " y="1484, ">
				property and potentially all
		</text>
		<text fill="gray" font-size="9" font-family="Segoe UI" x="173, 178.2998, 183.00635, 186.8252, 190.98242, 195.68896, 200.78223, 206.08203, 210.66113, 215.75439, 218.8042, 221.26953, 226.56055, 229.68945, 234.96289, 240.25391, 244.96045, 248.08936, 251.13916, 253.31885, 258.02539, 261.84424, " y="1496, ">
				descendant properties.
		</text>
		<text fill="gray" font-size="9" font-family="Segoe UI" x="173, 177.13086, 184.88281, 187.0625, 189.01367, 191.19336, 195.77246, 200.86572, 206.16553, 208.63086, 212.94189, 217.521, 219.70068, 224.79395, 229.50049, 233.31934, 235.78467, 241.05811, 243.875, 246.34033, 251.64014, 256.34668, 260.16553, 264.32275, 269.0293, 274.12256, 279.42236, 284.00146, 289.09473, " y="1508, ">
				xml:lang values of descendant
		</text>
		<text fill="gray" font-size="9" font-family="Segoe UI" x="173, 178.29102, 181.41992, 186.69336, 191.98438, 196.69092, 199.81982, 202.86963, 205.04932, 209.75586, 213.57471, 216.04004, 221.31348, 225.62451, 230.33105, 233.45996, 236.58887, 238.76855, 244.06836, 248.7749, 251.24023, 254.29004, 259.3833, 261.56299, 265.38184, 267.84717, 272.1582, 276.7373, 278.91699, 284.01025, 288.7168, " y="1520, ">
				properties override this value.
		</text>
		<text fill="gray" font-size="9" font-family="Segoe UI" x="173, 177.93066, 182.50977, 184.68945, 189.78271, 194.48926, 198.30811, 200.77344, 205.35254, 208.48145, 213.18799, 215.65332, 220.95312, 225.65967, 228.70947, 233.41602, 236.54492, 244.29688, 246.47656, 251.56982, 256.27637, 261.57617, 264.0415, 269.33252, " y="1532, ">
				Values are determined by
		</text>
		<text fill="gray" font-size="9" font-family="Segoe UI" x="173, 175.39502, 180.48828, 183.53809, 188.24463, 191.37354, 196.4668, 201.17334, 204.22314, 206.68848, 211.84766, 217.41992, 222.46045, 224.92578, 229.77734, 234.62891, " y="1544, ">
				Internet BCP 47.
		</text>
		<rect fill="white" x="177" y="1437" width="50" height="16"/>
		<text font-size="12" font-weight="600" font-family="Segoe UI" x="177, 183.62695, 194.61914, 198.0293, 201.28125, 204.69141, 211.14844, 218.4082, " y="1450, ">
				xml:lang
		</text>
		<path fill="none" stroke="black" stroke-width="2" stroke-miterlimit="4" transform="translate(0.5 0.5)" d="M170 1453L174 1449"/>
		<path fill="none" stroke="black" stroke-width="1" stroke-linecap="square" stroke-miterlimit="4" transform="translate(0.5 0.5)" d="M171 1449L174 1449L174 1452"/>
		<rect fill="none" stroke="black" stroke-width="1" stroke-linecap="square" stroke-miterlimit="4" transform="translate(0.5 0.5)" x="168" y="1435" width="65" height="20"/>
		<rect fill="silver" x="172" y="1557" width="52" height="21"/>
		<rect fill="white" x="168" y="1553" width="52" height="21"/>
		<rect fill="white" x="173" y="1580" width="116" height="24"/>
		<text fill="gray" font-size="9" font-family="Segoe UI" x="173, 177.71533, 182.80859, 187.51514, 189.98047, 195.28027, 197.45996, 200.58887, 205.29541, 209.45264, 212.50244, 214.68213, 219.95557, 225.04883, 229.62793, 231.80762, 233.9873, 237.03711, 241.39209, 243.85742, 249.13086, 251.94775, 254.41309, 257.46289, 262.16943, 266.30029, 269.3501, 274.44336, 279.02246, " y="1590, ">
				The directionality of textual
		</text>
		<text fill="gray" font-size="9" font-family="Segoe UI" x="173, 177.15723, 182.43066, 187.52393, 190.57373, 195.28027, 200.37354, 203.42334, 205.88867, 208.60449, 213.31104, 218.4043, 223.49756, 231.24951, 235.95605, 239.08496, 243.66406, 246.71387, 248.89355, 254.16699, 259.26025, 261.21143, 263.67676, 265.85645, 268.90625, 272.03516, 273.98633, 276.45166, 279.58057, 282.63037, 284.81006, " y="1602, ">
				content (enumeration: ltr, rtl)
		</text>
		<rect fill="white" x="177" y="1555" width="36" height="16"/>
		<text font-size="12" font-weight="600" font-family="Segoe UI" x="177, 184.42969, 187.83984, " y="1568, ">
				dir
		</text>
		<rect fill="none" stroke="black" stroke-width="1" stroke-linecap="square" stroke-miterlimit="4" transform="translate(0.5 0.5)" x="168" y="1553" width="51" height="20"/>
		<path fill="silver" d="M164 1665L169 1660L237 1660L242 1665L242 1676L237 1681L169 1681L164 1676L164 1665Z"/>
		<path fill="white" d="M160 1661L165 1656L233 1656L238 1661L238 1672L233 1677L165 1677L160 1672L160 1661Z"/>
		<rect fill="white" x="187" y="1658" width="46" height="16"/>
		<text font-size="12" font-weight="600" font-family="Segoe UI" x="187, 194.10742, 201.21484, 208.55078, 213.2207, 220.44531, 226.9375, " y="1671, ">
				##other
		</text>
		<rect fill="white" x="165" y="1658" width="20" height="16"/>
		<text fill="gray" font-size="12" font-family="Segoe UI" x="165, 171.10547, 177.89648, " y="1671, ">
				any
		</text>
		<path fill="none" stroke="black" stroke-width="1" stroke-linecap="square" stroke-miterlimit="4" transform="translate(0.5 0.5)" d="M160 1661L165 1656L232 1656L237 1661L237 1671L232 1676L165 1676L160 1671L160 1661Z"/>
		<rect x="151" y="5" width="11" height="11"/>
		<rect fill="white" x="152" y="6" width="9" height="9"/>
		<rect x="153" y="10" width="7" height="1"/>
		<path transform="translate(0.5 0.5)" d="M191 1709.5L193 1709.5L193.5 1709.5L193.5 1710.5L193 1710.5L190.5 1710.5L190.5 1709.5L191 1709.5ZM197 1709.5L199.5 1709.5L199.5 1710.5L196.5 1710.5L196.5 1709.5L197 1709.5Z"/>
		<path fill="silver" d="M150 1709L155 1704L180 1704L185 1709L185 1720L180 1725L155 1725L150 1720L150 1709Z"/>
		<path fill="white" d="M146 1705L151 1700L176 1700L181 1705L181 1716L176 1721L151 1721L146 1716L146 1705Z"/>
		<path fill="none" stroke="black" stroke-width="1" stroke-linecap="square" stroke-miterlimit="4" transform="translate(0.5 0.5)" d="M151 1710L175 1710"/>
		<rect x="157" y="1709" width="3" height="3"/>
		<rect x="162" y="1709" width="3" height="3"/>
		<rect x="167" y="1709" width="3" height="3"/>
		<path fill="none" stroke="black" stroke-width="1" stroke-linecap="square" stroke-miterlimit="4" transform="translate(0.5 0.5)" d="M146 1705L151 1700L175 1700L180 1705L180 1715L175 1720L151 1720L146 1715L146 1705Z"/>
		<path fill="silver" d="M208 1712L213 1707L271 1707L276 1712L276 1723L271 1728L213 1728L208 1723L208 1712Z"/>
		<path fill="white" d="M204 1708L209 1703L266 1703L271 1708L271 1718L266 1723L209 1723L204 1718L204 1708Z"/>
		<path transform="translate(0.5 0.5)" d="M207.889 1703.4L208.793 1702.5L209.929 1702.5L210.429 1702.5L210.429 1703.5L209.929 1703.5L209 1703.5L209 1703L209.354 1703.35L208.243 1704.46L207.536 1703.76L207.889 1703.4ZM213.929 1702.5L215.929 1702.5L216.429 1702.5L216.429 1703.5L215.929 1703.5L213.429 1703.5L213.429 1702.5L213.929 1702.5ZM219.929 1702.5L221.929 1702.5L222.429 1702.5L222.429 1703.5L221.929 1703.5L219.429 1703.5L219.429 1702.5L219.929 1702.5ZM225.929 1702.5L227.929 1702.5L228.429 1702.5L228.429 1703.5L227.929 1703.5L225.429 1703.5L225.429 1702.5L225.929 1702.5ZM231.929 1702.5L233.929 1702.5L234.429 1702.5L234.429 1703.5L233.929 1703.5L231.429 1703.5L231.429 1702.5L231.929 1702.5ZM237.929 1702.5L239.929 1702.5L240.429 1702.5L240.429 1703.5L239.929 1703.5L237.429 1703.5L237.429 1702.5L237.929 1702.5ZM243.929 1702.5L245.929 1702.5L246.429 1702.5L246.429 1703.5L245.929 1703.5L243.429 1703.5L243.429 1702.5L243.929 1702.5ZM249.929 1702.5L251.929 1702.5L252.429 1702.5L252.429 1703.5L251.929 1703.5L249.429 1703.5L249.429 1702.5L249.929 1702.5ZM255.929 1702.5L257.929 1702.5L258.429 1702.5L258.429 1703.5L257.929 1703.5L255.429 1703.5L255.429 1702.5L255.929 1702.5ZM261.929 1702.5L263.929 1702.5L264.429 1702.5L264.429 1703.5L263.929 1703.5L261.429 1703.5L261.429 1702.5L261.929 1702.5ZM267.717 1704.01L269.132 1705.42L269.485 1705.78L268.778 1706.49L268.425 1706.13L266.657 1704.36L267.364 1703.66L267.717 1704.01ZM271.5 1708.86L271.5 1710.86L271.5 1711.36L270.5 1711.36L270.5 1710.86L270.5 1708.36L271.5 1708.36L271.5 1708.86ZM271.5 1714.86L271.5 1716.86L271.5 1717.36L270.5 1717.36L270.5 1716.86L270.5 1714.36L271.5 1714.36L271.5 1714.86ZM269.333 1720.37L267.919 1721.79L267.565 1722.14L266.858 1721.44L267.211 1721.08L268.979 1719.31L269.686 1720.02L269.333 1720.37ZM264.213 1723.5L262.213 1723.5L261.713 1723.5L261.713 1722.5L262.213 1722.5L264.713 1722.5L264.713 1723.5L264.213 1723.5ZM258.213 1723.5L256.213 1723.5L255.713 1723.5L255.713 1722.5L256.213 1722.5L258.713 1722.5L258.713 1723.5L258.213 1723.5ZM252.213 1723.5L250.213 1723.5L249.713 1723.5L249.713 1722.5L250.213 1722.5L252.713 1722.5L252.713 1723.5L252.213 1723.5ZM246.213 1723.5L244.213 1723.5L243.713 1723.5L243.713 1722.5L244.213 1722.5L246.713 1722.5L246.713 1723.5L246.213 1723.5ZM240.213 1723.5L238.213 1723.5L237.713 1723.5L237.713 1722.5L238.213 1722.5L240.713 1722.5L240.713 1723.5L240.213 1723.5ZM234.213 1723.5L232.213 1723.5L231.713 1723.5L231.713 1722.5L232.213 1722.5L234.713 1722.5L234.713 1723.5L234.213 1723.5ZM228.213 1723.5L226.213 1723.5L225.713 1723.5L225.713 1722.5L226.213 1722.5L228.713 1722.5L228.713 1723.5L228.213 1723.5ZM222.213 1723.5L220.213 1723.5L219.713 1723.5L219.713 1722.5L220.213 1722.5L222.713 1722.5L222.713 1723.5L222.213 1723.5ZM216.213 1723.5L214.213 1723.5L213.713 1723.5L213.713 1722.5L214.213 1722.5L216.713 1722.5L216.713 1723.5L216.213 1723.5ZM210.213 1723.5L208.793 1723.5L208.09 1722.8L207.737 1722.44L208.444 1721.74L208.797 1722.09L209.354 1722.65L209 1723L209 1722.5L210.713 1722.5L210.713 1723.5L210.213 1723.5ZM205.262 1719.97L203.847 1718.55L203.494 1718.2L204.201 1717.49L204.555 1717.85L206.322 1719.62L205.615 1720.32L205.262 1719.97ZM203.5 1714.28L203.5 1712.28L203.5 1711.78L204.5 1711.78L204.5 1712.28L204.5 1714.78L203.5 1714.78L203.5 1714.28ZM203.5 1708.28L203.5 1707.79L205.414 1705.88L206.121 1706.59L204.354 1708.35L204 1708L204.5 1708L204.5 1708.78L203.5 1708.78L203.5 1708.28Z"/>
		<path fill="white" d="M201 1705L206 1700L264 1700L269 1705L269 1716L264 1721L206 1721L201 1716L201 1705Z"/>
		<path fill="none" stroke="black" stroke-width="1" stroke-linecap="square" stroke-miterlimit="4" transform="translate(0.5 0.5)" d="M253 1721L259 1727L262 1724"/>
		<rect fill="white" x="206" y="1746" width="119" height="60"/>
		<text fill="gray" font-size="9" font-family="Segoe UI" x="206, 212.38965, 214.56934, 219.6626, 222.7124, 225.17773, 229.75684, 234.8501, 240.1499, 242.61523, 247.16797, 251.29883, 254.34863, 259.05518, 264.14844, 267.96729, 270.14697, 275.42041, 280.51367, 282.979, 287.68555, 292.95898, 295.13867, 300.23193, 303.28174, 305.74707, 308.56396, 313.8374, " y="1756, ">
				Hint and Extension Point for
		</text>
		<text fill="gray" font-size="9" font-family="Segoe UI" x="206, 211.29102, 214.41992, 219.69336, 224.98438, 229.69092, 232.81982, 235.86963, 238.04932, 242.75586, 246.57471, 249.04004, 251.85693, 254.98584, 260.25928, 268.01123, 270.47656, 273.52637, 278.61963, 283.32617, 285.7915, 292.52393, 298.3291, " y="1768, ">
				properties from the NAR
		</text>
		<text fill="gray" font-size="9" font-family="Segoe UI" x="206, 211.09326, 215.67236, 223.42432, 228.13086, 231.94971, 237.24072, 241.81982, 245.97705, 250.68359, 253.14893, 258.42236, 261.55127, 264.0166, 269.30762, 272.43652, 277.70996, 282.021, 284.20068, 289.50049, 294.20703, 297.33594, " y="1780, ">
				namespace or provider-
		</text>
		<text fill="gray" font-size="9" font-family="Segoe UI" x="206, 209.81885, 215.10986, 219.81641, 223.97363, 226.15332, 228.97021, 231.1499, 235.30713, 237.77246, 243.06348, 246.19238, 251.46582, 256.75684, 261.46338, 264.59229, 267.64209, 269.82178, 274.52832, 278.34717, 280.8125, 283.62939, 286.7583, 292.03174, 299.78369, 302.24902, 307.52246, 310.57227, 315.66553, 320.37207, " y="1792, ">
				specific properties from other
		</text>
		<text fill="gray" font-size="9" font-family="Segoe UI" x="206, 211.09326, 215.67236, 223.42432, 228.13086, 231.94971, 237.24072, 241.81982, 245.97705, 250.68359, " y="1804, ">
				namespaces
		</text>
		<rect fill="white" x="228" y="1702" width="36" height="16"/>
		<text font-size="12" font-weight="600" font-family="Segoe UI" x="228, 235.10742, 242.21484, 248.67188, 255.93164, " y="1715, ">
				##any
		</text>
		<rect fill="white" x="206" y="1702" width="20" height="16"/>
		<text fill="gray" font-size="12" font-family="Segoe UI" x="206, 212.10547, 218.89648, " y="1715, ">
				any
		</text>
		<text font-size="12" font-family="Segoe UI" x="238.76562, " y="1740, ">
				0
		</text>
		<text font-size="12" font-family="Symbol" x="253.72266, " y="1739, ">
				
		</text>
		<text font-size="12" font-family="Segoe UI" x="246.89844, 249.5, " y="1740, ">
				..
		</text>
		<path transform="translate(0.5 0.5)" d="M204.889 1700.4L205.793 1699.5L206.929 1699.5L207.429 1699.5L207.429 1700.5L206.929 1700.5L206 1700.5L206 1700L206.354 1700.35L205.243 1701.46L204.536 1700.76L204.889 1700.4ZM210.929 1699.5L212.929 1699.5L213.429 1699.5L213.429 1700.5L212.929 1700.5L210.429 1700.5L210.429 1699.5L210.929 1699.5ZM216.929 1699.5L218.929 1699.5L219.429 1699.5L219.429 1700.5L218.929 1700.5L216.429 1700.5L216.429 1699.5L216.929 1699.5ZM222.929 1699.5L224.929 1699.5L225.429 1699.5L225.429 1700.5L224.929 1700.5L222.429 1700.5L222.429 1699.5L222.929 1699.5ZM228.929 1699.5L230.929 1699.5L231.429 1699.5L231.429 1700.5L230.929 1700.5L228.429 1700.5L228.429 1699.5L228.929 1699.5ZM234.929 1699.5L236.929 1699.5L237.429 1699.5L237.429 1700.5L236.929 1700.5L234.429 1700.5L234.429 1699.5L234.929 1699.5ZM240.929 1699.5L242.929 1699.5L243.429 1699.5L243.429 1700.5L242.929 1700.5L240.429 1700.5L240.429 1699.5L240.929 1699.5ZM246.929 1699.5L248.929 1699.5L249.429 1699.5L249.429 1700.5L248.929 1700.5L246.429 1700.5L246.429 1699.5L246.929 1699.5ZM252.929 1699.5L254.929 1699.5L255.429 1699.5L255.429 1700.5L254.929 1700.5L252.429 1700.5L252.429 1699.5L252.929 1699.5ZM258.929 1699.5L260.929 1699.5L261.429 1699.5L261.429 1700.5L260.929 1700.5L258.429 1700.5L258.429 1699.5L258.929 1699.5ZM264.717 1701.01L266.132 1702.42L266.485 1702.78L265.778 1703.49L265.425 1703.13L263.657 1701.36L264.364 1700.66L264.717 1701.01ZM268.5 1705.86L268.5 1707.86L268.5 1708.36L267.5 1708.36L267.5 1707.86L267.5 1705.36L268.5 1705.36L268.5 1705.86ZM268.5 1711.86L268.5 1713.86L268.5 1714.36L267.5 1714.36L267.5 1713.86L267.5 1711.36L268.5 1711.36L268.5 1711.86ZM266.333 1717.37L264.919 1718.79L264.565 1719.14L263.858 1718.44L264.211 1718.08L265.979 1716.31L266.686 1717.02L266.333 1717.37ZM261.213 1720.5L259.213 1720.5L258.713 1720.5L258.713 1719.5L259.213 1719.5L261.713 1719.5L261.713 1720.5L261.213 1720.5ZM255.213 1720.5L253.213 1720.5L252.713 1720.5L252.713 1719.5L253.213 1719.5L255.713 1719.5L255.713 1720.5L255.213 1720.5ZM249.213 1720.5L247.213 1720.5L246.713 1720.5L246.713 1719.5L247.213 1719.5L249.713 1719.5L249.713 1720.5L249.213 1720.5ZM243.213 1720.5L241.213 1720.5L240.713 1720.5L240.713 1719.5L241.213 1719.5L243.713 1719.5L243.713 1720.5L243.213 1720.5ZM237.213 1720.5L235.213 1720.5L234.713 1720.5L234.713 1719.5L235.213 1719.5L237.713 1719.5L237.713 1720.5L237.213 1720.5ZM231.213 1720.5L229.213 1720.5L228.713 1720.5L228.713 1719.5L229.213 1719.5L231.713 1719.5L231.713 1720.5L231.213 1720.5ZM225.213 1720.5L223.213 1720.5L222.713 1720.5L222.713 1719.5L223.213 1719.5L225.713 1719.5L225.713 1720.5L225.213 1720.5ZM219.213 1720.5L217.213 1720.5L216.713 1720.5L216.713 1719.5L217.213 1719.5L219.713 1719.5L219.713 1720.5L219.213 1720.5ZM213.213 1720.5L211.213 1720.5L210.713 1720.5L210.713 1719.5L211.213 1719.5L213.713 1719.5L213.713 1720.5L213.213 1720.5ZM207.213 1720.5L205.793 1720.5L205.09 1719.8L204.737 1719.44L205.444 1718.74L205.797 1719.09L206.354 1719.65L206 1720L206 1719.5L207.713 1719.5L207.713 1720.5L207.213 1720.5ZM202.262 1716.97L200.847 1715.55L200.494 1715.2L201.201 1714.49L201.555 1714.85L203.322 1716.62L202.615 1717.32L202.262 1716.97ZM200.5 1711.28L200.5 1709.28L200.5 1708.78L201.5 1708.78L201.5 1709.28L201.5 1711.78L200.5 1711.78L200.5 1711.28ZM200.5 1705.28L200.5 1704.79L202.414 1702.88L203.121 1703.59L201.354 1705.35L201 1705L201.5 1705L201.5 1705.78L200.5 1705.78L200.5 1705.28Z"/>
		<rect x="180" y="1705" width="11" height="11"/>
		<rect fill="white" x="181" y="1706" width="9" height="9"/>
		<rect x="182" y="1710" width="7" height="1"/>
		<rect x="76" y="1272" width="11" height="11"/>
		<rect fill="white" x="77" y="1273" width="9" height="9"/>
		<rect x="78" y="1277" width="7" height="1"/>
	</g>
</svg>
