<?xml version="1.0" encoding="utf-8" ?>
<svg xmlns="http://www.w3.org/2000/svg" xmlns:xlink="http://www.w3.org/1999/xlink" width="383" height="1416">
	<clipPath id="cl_21f">
		<rect x="-10" y="-5" width="383" height="1416"/>
	</clipPath>
	<g clip-path="url(#cl_21f)">
		<path fill="none" stroke="black" stroke-width="1" stroke-linecap="square" stroke-miterlimit="4" transform="translate(0.5 0.5)" d="M88 1004L133 1004"/>
		<path fill="none" stroke="black" stroke-width="1" stroke-linecap="square" stroke-miterlimit="4" transform="translate(0.5 0.5)" d="M134 1004L134 663"/>
		<path fill="none" stroke="black" stroke-width="1" stroke-linecap="square" stroke-miterlimit="4" transform="translate(0.5 0.5)" d="M134 1004L134 1345"/>
		<path fill="none" stroke="black" stroke-width="1" stroke-linecap="square" stroke-miterlimit="4" transform="translate(0.5 0.5)" d="M134 1346L148 1346"/>
		<path fill="none" stroke="black" stroke-width="1" stroke-linecap="square" stroke-miterlimit="4" transform="translate(0.5 0.5)" d="M134 662L148 662"/>
		<rect fill="silver" x="4" y="998" width="83" height="21"/>
		<rect fill="white" y="994" width="83" height="21"/>
		<rect fill="white" x="5" y="1021" width="115" height="36"/>
		<text fill="gray" font-size="9" font-family="Segoe UI" x="5, 10.805176, 13.270508, 16.399414, 21.105957, 23.922852, 28.629395, 31.758301, 36.464844, 41.558105, 45.715332, 50.421875, 52.887207, 55.937012, 61.210449, 63.675781, 68.254883, 70.720215, 73.849121, 78.555664, 86.307617, 91.581055, 94.630859, " y="1031, ">
				A reference to a remote
		</text>
		<text fill="gray" font-size="9" font-family="Segoe UI" x="5, 9.1572266, 13.736328, 16.786133, 21.365234, 23.544922, 28.818359, 34.118164, 36.069336, 38.534668, 44.339844, 46.805176, 51.898438, 56.253418, 61.544434, 66.250977, 69.379883, 71.55957, 73.739258, 78.83252, 83.306152, 85.771484, 88.821289, 94.094727, 96.560059, 101.13916, 103.60449, 107.42334, 112.12988, " y="1043, ">
				catalog. A hyperlink to a set
		</text>
		<text fill="gray" font-size="9" font-family="Segoe UI" x="5, 10.273438, 13.090332, 15.555664, 19.374512, 23.531738, 28.625, 33.331543, 41.083496, 45.790039, 48.255371, 52.834473, 55.01416, 57.193848, 61.772949, 65.591797, 68.057129, 73.356934, 78.063477, 82.220703, 84.400391, 88.979492, 92.108398, 96.6875, 99.737305, 101.91699, 107.19043, 112.28369, 116.10254, " y="1055, ">
				of scheme alias declarations.
		</text>
		<rect fill="white" x="9" y="996" width="62" height="16"/>
		<text font-size="12" font-weight="600" font-family="Segoe UI" x="9, 14.759766, 21.216797, 25.886719, 32.34375, 35.753906, 43.089844, 50.519531, 58.054688, 64.546875, " y="1009, ">
				catalogRef
		</text>
		<rect fill="none" stroke="black" stroke-width="1" stroke-linecap="square" stroke-miterlimit="4" transform="translate(0.5 0.5)" y="994" width="82" height="20"/>
		<path fill="white" d="M226 19L226 0L149 0L149 19L149 1323L362 1323L362 19L226 19Z"/>
		<rect fill="white" x="169" y="2" width="51" height="16"/>
		<text font-size="12" font-style="italic" font-family="Segoe UI" x="169, 175.50391, 179.38281, 183.26172, 187.5332, 190.63867, 197.14258, 203.83984, 207.73047, 213.57227, " y="15, ">
				attributes
		</text>
		<path fill="none" stroke="black" stroke-width="1" stroke-linecap="square" stroke-miterlimit="4" transform="translate(0.5 0.5)" d="M226 19L226 0L149 0L149 19L149 1323L362 1323L362 19L226 19Z"/>
		<rect fill="silver" x="167" y="32" width="52" height="21"/>
		<rect fill="white" x="163" y="28" width="52" height="21"/>
		<rect fill="white" x="168" y="55" width="95" height="24"/>
		<text fill="gray" font-size="9" font-family="Segoe UI" x="168, 173.80518, 176.27051, 181.36377, 185.71875, 191.00977, 195.71631, 198.84521, 201.0249, 203.20459, 208.29785, 212.77148, 215.23682, 218.28662, 223.56006, 226.02539, 230.60449, 233.06982, 236.19873, 240.90527, 248.65723, 253.93066, 256.98047, " y="65, ">
				A hyperlink to a remote
		</text>
		<text fill="gray" font-size="9" font-family="Segoe UI" x="168, 173.57227, 178.15137, 181.20117, 185.78027, 187.95996, 193.2334, 198.5332, " y="77, ">
				Catalog.
		</text>
		<rect fill="white" x="172" y="30" width="36" height="16"/>
		<text font-size="12" font-weight="600" font-family="Segoe UI" x="172, 179.22461, 183.95312, 190.44531, " y="43, ">
				href
		</text>
		<rect fill="none" stroke="black" stroke-width="1" stroke-linecap="square" stroke-miterlimit="4" transform="translate(0.5 0.5)" x="163" y="28" width="51" height="20"/>
		<path fill="white" d="M354 105L354 86L163 86L163 105L163 1208L354 1208L354 105Z"/>
		<rect fill="white" x="168" y="1211" width="179" height="48"/>
		<text fill="gray" font-size="9" font-family="Segoe UI" x="168, 173.80518, 176.27051, 181.57031, 184.69922, 189.97266, 195.06592, 200.35693, 202.82227, 208.0957, 210.9126, 213.37793, 217.95703, 221.00684, 224.05664, 227.18555, 229.36523, 234.65625, 239.74951, 242.79932, 247.50586, 251.32471, 253.79004, 256.60693, 261.88037, 265.00928, 267.47461, 272.05371, 274.2334, 276.41309, 278.87842, 283.58496, 285.76465, 290.47119, 298.22314, 302.92969, 308.02295, 311.07275, 314.8916, 317.35693, 322.63037, 325.44727, 327.9126, 332.4917, 334.95703, 341.13135, " y="1221, ">
				A group of attributes for all elements of a G2
		</text>
		<text fill="gray" font-size="9" font-family="Segoe UI" x="168, 170.39502, 173.44482, 178.15137, 185.90332, 188.36865, 193.0752, 197.20605, 201.36328, 206.06982, 211.36084, 214.41064, 216.87598, 219.05566, 222.10547, 225.92432, 228.38965, 231.51855, 236.79199, 242.06543, 245.11523, 247.58057, 252.28711, 254.4668, 259.17334, 266.92529, 271.63184, 276.7251, 279.7749, 281.72607, 284.19141, 287.24121, 292.33447, 297.04102, 299.50635, 301.68604, 304.73584, 309.44238, 317.19434, 325.27588, 329.98242, 333.03223, " y="1233, ">
				Item except its root element, the itemMeta
		</text>
		<text fill="gray" font-size="9" font-family="Segoe UI" x="168, 172.70654, 174.88623, 179.59277, 187.34473, 192.05127, 197.14453, 200.19434, 202.65967, 207.23877, 212.33203, 217.63184, 220.09717, 224.67627, 226.85596, 229.03564, 231.50098, 236.77441, 239.59131, 242.05664, 244.23633, 247.28613, 251.10498, 253.57031, 257.72754, 262.8208, 265.00049, 267.18018, 272.47998, 275.60889, 280.31543, 285.40869, 287.87402, 294.37793, 299.47119, 301.65088, 305.80811, 310.90137, 313.3667, 317.9458, 321.07471, " y="1245, ">
				element and all of its children which are
		</text>
		<text fill="gray" font-size="9" font-family="Segoe UI" x="168, 175.75195, 180.33105, 185.42432, 190.72412, 195.30322, 198.35303, 203.62646, 206.75537, 211.11035, " y="1257, ">
				mandatory.
		</text>
		<rect fill="white" x="205" y="88" width="143" height="16"/>
		<text font-size="12" font-weight="600" font-family="Segoe UI" x="205, 210.75977, 218.0957, 229.08789, 240.08008, 247.41602, 254.67578, 261.68945, 269.02539, 278.53516, 285.02734, 289.80273, 298, 302.66992, 307.33984, 312.16211, 315.57227, 323.01367, 330.27344, 334.89648, 341.38867, " y="101, ">
				commonPowerAttributes
		</text>
		<rect fill="white" x="183" y="88" width="20" height="16"/>
		<text fill="gray" font-size="12" font-family="Segoe UI" x="183, 190.06641, 194.23828, " y="101, ">
				grp
		</text>
		<path fill="none" stroke="gray" stroke-width="1" stroke-linecap="square" stroke-miterlimit="4" transform="translate(0.5 0.5)" d="M163 105L163 1208L354 1208L354 105L354 105"/>
		<path fill="none" stroke="black" stroke-width="1" stroke-linecap="square" stroke-miterlimit="4" transform="translate(0.5 0.5)" d="M354 105L354 86L163 86L163 105"/>
		<rect x="168" y="91" width="11" height="11"/>
		<rect fill="white" x="169" y="92" width="9" height="9"/>
		<rect x="170" y="96" width="7" height="1"/>
		<rect fill="silver" x="175" y="119" width="52" height="21"/>
		<rect fill="white" x="171" y="115" width="52" height="21"/>
		<rect fill="white" x="176" y="142" width="101" height="24"/>
		<text fill="gray" font-size="9" font-family="Segoe UI" x="176, 180.71533, 185.80859, 190.51514, 192.98047, 195.16016, 200.43359, 204.59082, 209.16992, 211.34961, 213.81494, 215.99463, 221.29443, 226.00098, 231.09424, 234.14404, 236.32373, 239.14062, 241.32031, 246.02686, 249.15576, 251.62109, 256.89453, 259.71143, 262.17676, 265.22656, 270.31982, " y="152, ">
				The local identifier of the
		</text>
		<text fill="gray" font-size="9" font-family="Segoe UI" x="176, 181.29102, 184.41992, 189.69336, 194.98438, 199.69092, 202.81982, 205.86963, 210.22461, " y="164, ">
				property.
		</text>
		<rect fill="white" x="180" y="117" width="36" height="16"/>
		<text font-size="12" font-weight="600" font-family="Segoe UI" x="180, 183.41016, " y="130, ">
				id
		</text>
		<rect fill="none" stroke="black" stroke-width="1" stroke-linecap="square" stroke-miterlimit="4" transform="translate(0.5 0.5)" x="171" y="115" width="51" height="20"/>
		<rect fill="silver" x="175" y="177" width="58" height="21"/>
		<rect fill="white" x="171" y="173" width="58" height="21"/>
		<rect fill="white" x="176" y="200" width="121" height="120"/>
		<text fill="gray" font-size="9" font-family="Segoe UI" x="176, 178.39502, 181.21191, 183.67725, 186.72705, 191.82031, 196.52686, 198.99219, 204.2832, 207.41211, 212.68555, 217.97656, 222.68311, 225.81201, 228.86182, 233.2168, 235.68213, 239.99316, 244.57227, 246.75195, 251.84521, 256.55176, 259.01709, 261.19678, 265.01562, 267.48096, 272.57422, 277.84766, " y="210, ">
				If the property value is not
		</text>
		<text fill="gray" font-size="9" font-family="Segoe UI" x="176, 181.2998, 186.00635, 188.82324, 191.00293, 196.09619, 200.80273, 206.10254, 208.05371, 210.51904, 214.33789, 219.62891, 224.33545, 228.49268, 230.67236, 233.48926, 235.66895, 240.37549, 244.19434, 246.65967, 253.16357, 258.25684, 260.43652, 264.59375, 269.68701, 272.15234, 276.85889, 281.95215, 285.00195, 287.18164, 290.23145, " y="222, ">
				defined, specifies which entity
		</text>
		<text fill="gray" font-size="9" font-family="Segoe UI" x="176, 178.71582, 184.00684, 188.71338, 191.84229, 195.66113, 200.93457, 206.02783, 207.979, 210.44434, 215.71777, 218.84668, 224.14648, 228.72559, 233.81885, 235.99854, 239.81738, 244.39648, 247.44629, 249.62598, 254.89941, 259.99268, 262.45801, 267.73145, " y="234, ">
				(person, organisation or
		</text>
		<text fill="gray" font-size="9" font-family="Segoe UI" x="176, 179.81885, 184.17383, 187.99268, 191.04248, 195.74902, 203.50098, 206.2168, 208.68213, 215.18604, 217.36572, 219.54541, 221.7251, 224.19043, 228.89697, 234.19678, 236.37646, 239.42627, 241.8916, 244.94141, 250.03467, 254.74121, 257.20654, 262.49756, 265.62646, 270.8999, 276.19092, 280.89746, 284.02637, 287.07617, " y="246, ">
				system) will edit the property
		</text>
		<text fill="gray" font-size="9" font-family="Segoe UI" x="176, 180.31104, 184.89014, 187.06982, 192.16309, 196.86963, 199.33496, 202.93408, 205.39941, 210.10596, 214.23682, 219.52783, 222.65674, 227.36328, 231.18213, 235.00098, 239.70752, 245.00732, 247.47266, 252.76367, 257.11865, 259.58398, 264.16309, 266.62842, 273.41357, 278.98584, 284.25928, 289.55908, 294.26562, " y="258, ">
				value - expressed by a QCode.
		</text>
		<text fill="gray" font-size="9" font-family="Segoe UI" x="176, 178.39502, 181.21191, 183.67725, 186.72705, 191.82031, 196.52686, 198.99219, 204.2832, 207.41211, 212.68555, 217.97656, 222.68311, 225.81201, 228.86182, 233.2168, 235.68213, 239.99316, 244.57227, 246.75195, 251.84521, 256.55176, 259.01709, 261.19678, " y="270, ">
				If the property value is
		</text>
		<text fill="gray" font-size="9" font-family="Segoe UI" x="176, 181.2998, 186.00635, 188.82324, 191.00293, 196.09619, 200.80273, 206.10254, 208.05371, 210.51904, 214.33789, 219.62891, 224.33545, 228.49268, 230.67236, 233.48926, 235.66895, 240.37549, 244.19434, 246.65967, 253.16357, 258.25684, 260.43652, 264.59375, 269.68701, 272.15234, 276.85889, 281.95215, 285.00195, 287.18164, 290.23145, " y="282, ">
				defined, specifies which entity
		</text>
		<text fill="gray" font-size="9" font-family="Segoe UI" x="176, 178.71582, 184.00684, 188.71338, 191.84229, 195.66113, 200.93457, 206.02783, 207.979, 210.44434, 215.71777, 218.84668, 224.14648, 228.72559, 233.81885, 235.99854, 239.81738, 244.39648, 247.44629, 249.62598, 254.89941, 259.99268, 262.45801, 267.73145, " y="294, ">
				(person, organisation or
		</text>
		<text fill="gray" font-size="9" font-family="Segoe UI" x="176, 179.81885, 184.17383, 187.99268, 191.04248, 195.74902, 203.50098, 206.2168, 208.68213, 213.77539, 218.35449, 222.17334, 224.63867, 229.34521, 234.64502, 236.82471, 239.87451, 244.58105, 249.88086, 252.34619, 255.396, 260.48926, " y="306, ">
				system) has edited the
		</text>
		<text fill="gray" font-size="9" font-family="Segoe UI" x="176, 181.29102, 184.41992, 189.69336, 194.98438, 199.69092, 202.81982, 205.86963, 210.22461, 212.68994, 217.00098, 221.58008, 223.75977, 228.85303, 233.55957, " y="318, ">
				property value.
		</text>
		<rect fill="white" x="180" y="175" width="42" height="16"/>
		<text font-size="12" font-weight="600" font-family="Segoe UI" x="180, 185.75977, 190.48828, 196.98047, 203.4375, 208.06055, 215.39648, " y="188, ">
				creator
		</text>
		<rect fill="none" stroke="black" stroke-width="1" stroke-linecap="square" stroke-miterlimit="4" transform="translate(0.5 0.5)" x="171" y="173" width="57" height="20"/>
		<rect fill="silver" x="175" y="331" width="73" height="21"/>
		<rect fill="white" x="171" y="327" width="73" height="21"/>
		<rect fill="white" x="176" y="354" width="120" height="108"/>
		<text fill="gray" font-size="9" font-family="Segoe UI" x="176, 178.39502, 181.21191, 183.67725, 186.72705, 191.82031, 196.52686, 198.99219, 204.2832, 207.41211, 212.68555, 217.97656, 222.68311, 225.81201, 228.86182, 233.2168, 235.68213, 239.99316, 244.57227, 246.75195, 251.84521, 256.55176, 259.01709, 261.19678, 265.01562, 267.48096, 272.57422, 277.84766, " y="364, ">
				If the property value is not
		</text>
		<text fill="gray" font-size="9" font-family="Segoe UI" x="176, 181.2998, 186.00635, 188.82324, 191.00293, 196.09619, 200.80273, 206.10254, 208.05371, 210.51904, 214.33789, 219.62891, 224.33545, 228.49268, 230.67236, 233.48926, 235.66895, 240.37549, 244.19434, 246.65967, 253.16357, 258.25684, 260.43652, 264.59375, 269.68701, 272.15234, 276.85889, 281.95215, 285.00195, 287.18164, 290.23145, " y="376, ">
				defined, specifies which entity
		</text>
		<text fill="gray" font-size="9" font-family="Segoe UI" x="176, 178.71582, 184.00684, 188.71338, 191.84229, 195.66113, 200.93457, 206.02783, 207.979, 210.44434, 215.71777, 218.84668, 224.14648, 228.72559, 233.81885, 235.99854, 239.81738, 244.39648, 247.44629, 249.62598, 254.89941, 259.99268, 262.45801, 267.73145, " y="388, ">
				(person, organisation or
		</text>
		<text fill="gray" font-size="9" font-family="Segoe UI" x="176, 179.81885, 184.17383, 187.99268, 191.04248, 195.74902, 203.50098, 206.2168, 208.68213, 215.18604, 217.36572, 219.54541, 221.7251, 224.19043, 228.89697, 234.19678, 236.37646, 239.42627, 241.8916, 244.94141, 250.03467, 254.74121, 257.20654, 262.49756, 265.62646, 270.8999, 276.19092, 280.89746, 284.02637, 287.07617, " y="400, ">
				system) will edit the property
		</text>
		<text fill="gray" font-size="9" font-family="Segoe UI" x="176, 179.59912, 182.06445, 186.771, 190.90186, 196.19287, 199.32178, 204.02832, 207.84717, 211.66602, 216.37256, 221.67236, 224.1377, 229.42871, 233.78369, 236.24902, 240.82812, 243.29346, 249.47656, 254.85986, 257.25488, 259.20605, 261.67139, 264.06641, 266.8833, 269.34863, 272.39844, 277.4917, " y="412, ">
				- expressed by a URI. If the
		</text>
		<text fill="gray" font-size="9" font-family="Segoe UI" x="176, 181.29102, 184.41992, 189.69336, 194.98438, 199.69092, 202.81982, 205.86963, 210.22461, 212.68994, 217.00098, 221.58008, 223.75977, 228.85303, 233.55957, 236.0249, 238.20459, 242.02344, 244.48877, 249.78857, 254.49512, 257.31201, 259.4917, 264.58496, 269.2915, 274.59131, " y="424, ">
				property value is defined,
		</text>
		<text fill="gray" font-size="9" font-family="Segoe UI" x="176, 179.81885, 185.10986, 189.81641, 193.97363, 196.15332, 198.97021, 201.1499, 205.85645, 209.67529, 212.14062, 218.64453, 223.73779, 225.91748, 230.07471, 235.16797, 237.6333, 242.33984, 247.43311, 250.48291, 252.6626, 255.7124, 260.06738, 262.53271, 265.24854, 270.53955, 275.24609, 278.375, 282.19385, 287.46729, 292.56055, " y="436, ">
				specifies which entity (person,
		</text>
		<text fill="gray" font-size="9" font-family="Segoe UI" x="176, 181.27344, 184.40234, 189.70215, 194.28125, 199.37451, 201.5542, 205.37305, 209.95215, 213.00195, 215.18164, 220.45508, 225.54834, 228.01367, 233.28711, 236.41602, 238.88135, 242.7002, 247.05518, 250.87402, 253.92383, 258.63037, 266.38232, 269.09814, 271.56348, 276.65674, 281.23584, " y="448, ">
				organisation or system) has
		</text>
		<text fill="gray" font-size="9" font-family="Segoe UI" x="176, 180.70654, 186.00635, 188.18604, 191.23584, 195.94238, 201.24219, 203.70752, 206.75732, 211.85059, 216.55713, 219.02246, 224.31348, 227.44238, 232.71582, 238.00684, 242.71338, 245.84229, 248.89209, 253.24707, " y="460, ">
				edited the property.
		</text>
		<rect fill="white" x="180" y="329" width="57" height="16"/>
		<text font-size="12" font-weight="600" font-family="Segoe UI" x="180, 185.75977, 190.48828, 196.98047, 203.4375, 208.06055, 215.39648, 220.20703, 227.4668, 232.28906, " y="342, ">
				creatoruri
		</text>
		<rect fill="none" stroke="black" stroke-width="1" stroke-linecap="square" stroke-miterlimit="4" transform="translate(0.5 0.5)" x="171" y="327" width="72" height="20"/>
		<rect fill="silver" x="175" y="473" width="69" height="21"/>
		<rect fill="white" x="171" y="469" width="69" height="21"/>
		<rect fill="white" x="176" y="496" width="119" height="72"/>
		<text fill="gray" font-size="9" font-family="Segoe UI" x="176, 180.71533, 185.80859, 190.51514, 192.98047, 198.28027, 202.85938, 205.90918, 210.61572, 213.08105, 215.79688, 220.37598, 225.46924, 230.76904, 232.72021, 235.18555, 240.45898, 245.75, 248.7998, 250.97949, 256.25293, 261.34619, 265.92529, 268.10498, 270.28467, 274.63965, 276.59082, 279.05615, 282.10596, 287.19922, " y="506, ">
				The date (and, optionally, the
		</text>
		<text fill="gray" font-size="9" font-family="Segoe UI" x="176, 179.0498, 181.22949, 188.98145, 193.68799, 196.40381, 198.86914, 205.37305, 210.46631, 215.17285, 220.26611, 222.73145, 225.78125, 230.87451, 235.58105, 238.04639, 243.3374, 246.46631, 251.73975, 257.03076, 261.7373, 264.86621, 267.91602, 272.271, 274.73633, 281.24023, 285.81934, " y="518, ">
				time) when the property was
		</text>
		<text fill="gray" font-size="9" font-family="Segoe UI" x="176, 178.17969, 182.75879, 186.57764, 189.62744, 192.09277, 199.84473, 205.11816, 210.41797, 212.59766, 215.41455, 217.59424, 222.30078, 227.60059, 229.55176, 232.01709, 236.73242, 241.82568, 246.53223, 248.99756, 251.17725, 256.27051, 258.4502, 261.5, 263.67969, 268.25879, 270.43848, 272.90381, 277.21484, 281.79395, 283.97363, 289.06689, " y="530, ">
				last modified. The initial value
		</text>
		<text fill="gray" font-size="9" font-family="Segoe UI" x="176, 178.17969, 181.99854, 184.46387, 187.51367, 192.60693, 197.31348, 199.77881, 205.07861, 209.65771, 212.70752, 217.41406, 219.87939, 222.59521, 227.17432, 232.26758, 237.56738, 239.51855, 241.98389, 247.25732, 252.54834, 255.59814, 257.77783, 263.05127, 268.14453, 272.72363, 274.90332, 277.08301, 281.43799, " y="542, ">
				is the date (and, optionally,
		</text>
		<text fill="gray" font-size="9" font-family="Segoe UI" x="176, 179.0498, 184.14307, 188.84961, 191.31494, 194.36475, 196.54443, 204.29639, 209.00293, 211.71875, 214.18408, 219.45752, 222.27441, 224.73975, 228.89697, 232.02588, 236.73242, 241.31152, 244.36133, 246.54102, 251.81445, 256.90771, 259.37305, 264.64648, 267.46338, 269.92871, 272.97852, 278.07178, " y="554, ">
				the time) of creation of the
		</text>
		<text fill="gray" font-size="9" font-family="Segoe UI" x="176, 181.29102, 184.41992, 189.69336, 194.98438, 199.69092, 202.81982, 205.86963, 210.22461, " y="566, ">
				property.
		</text>
		<rect fill="white" x="180" y="471" width="53" height="16"/>
		<text font-size="12" font-weight="600" font-family="Segoe UI" x="180, 190.99219, 198.32812, 205.75781, 209.16797, 213.76758, 217.17773, 223.66992, " y="484, ">
				modified
		</text>
		<rect fill="none" stroke="black" stroke-width="1" stroke-linecap="square" stroke-miterlimit="4" transform="translate(0.5 0.5)" x="171" y="469" width="68" height="20"/>
		<rect fill="silver" x="175" y="579" width="59" height="21"/>
		<rect fill="white" x="171" y="575" width="59" height="21"/>
		<rect fill="white" x="176" y="602" width="118" height="108"/>
		<text fill="gray" font-size="9" font-family="Segoe UI" x="176, 178.39502, 181.21191, 183.67725, 187.49609, 192.20264, 195.25244, 197.71777, 200.76758, 206.04102, 208.50635, 211.55615, 214.68506, 219.77832, 224.48486, 226.9502, 230, 235.09326, " y="612, ">
				If set to true the
		</text>
		<text fill="gray" font-size="9" font-family="Segoe UI" x="176, 180.15723, 185.43066, 188.55957, 191.68848, 196.39502, 200.21387, 205.50488, 210.77832, 215.87158, 221.17139, 223.35107, 228.44434, 233.74414, 236.20947, 241.50049, 244.62939, 249.90283, 255.19385, 259.90039, 263.0293, 266.0791, 270.43408, 272.89941, 279.40332, 283.98242, " y="624, ">
				corresponding property was
		</text>
		<text fill="gray" font-size="9" font-family="Segoe UI" x="176, 180.5791, 185.87891, 191.17871, 195.88525, 201.18506, 203.65039, 206.7002, 211.97363, 214.43896, 217.48877, 222.58203, 227.28857, 229.75391, 235.92822, 240.77979, 243.24512, 245.64014, 248.68994, 253.39648, 261.14844, 263.61377, 266.43066, 271.7041, 274.83301, 277.29834, " y="636, ">
				added to the G2 Item for a
		</text>
		<text fill="gray" font-size="9" font-family="Segoe UI" x="176, 179.81885, 185.10986, 189.81641, 193.97363, 196.15332, 198.97021, 201.1499, 205.30713, 207.77246, 211.92969, 217.02295, 220.8418, 223.8916, 229.16504, 236.91699, 241.62354, 244.75244, 247.21777, 252.49121, 255.62012, 258.08545, 263.38525, 266.51416, 271.7876, 276.88086, 282.17188, 284.63721, 289.91064, " y="648, ">
				specific customer or group of
		</text>
		<text fill="gray" font-size="9" font-family="Segoe UI" x="176, 180.15723, 185.25049, 189.06934, 192.11914, 197.39258, 205.14453, 209.85107, 212.97998, 216.79883, 219.26416, 224.5376, 229.63086, 231.81055, 236.16553, 238.1167, 240.58203, 245.29736, 250.39062, 255.09717, 257.5625, 262.8623, 267.56885, 270.38574, 274.96484, 280.05811, 282.23779, " y="660, ">
				customers only. The default
		</text>
		<text fill="gray" font-size="9" font-family="Segoe UI" x="176, 180.31104, 184.89014, 187.06982, 192.16309, 196.86963, 199.33496, 204.6084, 207.42529, 209.89062, 212.94043, 218.03369, 220.21338, 224.03223, 226.49756, 231.78857, 234.91748, 240.19092, 245.48193, 250.18848, 253.31738, 256.36719, 260.72217, 263.1875, 265.36719, 269.18604, 271.65137, 274.46826, 279.04736, 281.22705, 285.0459, " y="672, ">
				value of this property is false
		</text>
		<text fill="gray" font-size="9" font-family="Segoe UI" x="176, 182.50391, 187.59717, 189.77686, 193.93408, 199.02734, 201.49268, 206.07178, 211.36279, 216.65381, 218.8335, 221.01318, 225.71973, 229.53857, 232.00391, 238.50781, 243.60107, 248.30762, 253.40088, 255.86621, 258.91602, 264.00928, 266.18896, " y="684, ">
				which applies when this
		</text>
		<text fill="gray" font-size="9" font-family="Segoe UI" x="176, 180.5791, 183.62891, 186.67871, 189.80762, 191.9873, 197.27832, 202.37158, 205.42139, 210.12793, 212.59326, 214.77295, 218.5918, 221.05713, 226.15039, 231.42383, 234.47363, 236.93896, 242.03223, 245.85107, 250.55762, 255.85742, 258.32275, 264.82666, 267.00635, 270.05615, 275.14941, 277.61475, 280.66455, 285.75781, " y="696, ">
				attribute is not used with the
		</text>
		<text fill="gray" font-size="9" font-family="Segoe UI" x="176, 181.29102, 184.41992, 189.69336, 194.98438, 199.69092, 202.81982, 205.86963, 210.22461, " y="708, ">
				property.
		</text>
		<rect fill="white" x="180" y="577" width="43" height="16"/>
		<text font-size="12" font-weight="600" font-family="Segoe UI" x="180, 185.75977, 193.01953, 198.29883, 202.92188, 210.25781, " y="590, ">
				custom
		</text>
		<rect fill="none" stroke="black" stroke-width="1" stroke-linecap="square" stroke-miterlimit="4" transform="translate(0.5 0.5)" x="171" y="575" width="58" height="20"/>
		<rect fill="silver" x="175" y="721" width="52" height="21"/>
		<rect fill="white" x="171" y="717" width="52" height="21"/>
		<rect fill="white" x="176" y="744" width="118" height="48"/>
		<text fill="gray" font-size="9" font-family="Segoe UI" x="176, 178.39502, 183.48828, 188.78809, 190.96777, 195.125, 199.7041, 202.75391, 207.46045, 211.2793, 213.74463, 219.03564, 223.39062, 225.85596, 232.35986, 237.45312, 239.63281, 243.79004, 248.8833, 251.34863, 259.10059, 263.80713, 268.38623, 273.47949, 277.29834, 279.76367, 282.81348, 287.90674, " y="754, ">
				Indicates by which means the
		</text>
		<text fill="gray" font-size="9" font-family="Segoe UI" x="176, 180.31104, 184.89014, 187.06982, 192.16309, 196.86963, 199.33496, 205.83887, 210.41797, 214.23682, 216.70215, 221.40869, 225.53955, 228.58936, 231.71826, 236.29736, 240.45459, 243.50439, 248.21094, 253.51074, 255.97607, 258.79297, 261.92188, 267.19531, 274.94727, 277.4126, 280.4624, 285.55566, " y="766, ">
				value was extracted from the
		</text>
		<text fill="gray" font-size="9" font-family="Segoe UI" x="176, 180.15723, 185.43066, 190.52393, 193.57373, 198.28027, 203.37354, 206.42334, 208.88867, 212.48779, 214.95312, 219.65967, 223.79053, 229.08154, 232.21045, 236.91699, 240.73584, 244.55469, 249.26123, 254.56104, 257.02637, 262.31738, 266.67236, 269.1377, " y="778, ">
				content - expressed by a
		</text>
		<text fill="gray" font-size="9" font-family="Segoe UI" x="176, 182.78516, 188.35742, 193.63086, 198.93066, " y="790, ">
				QCode
		</text>
		<rect fill="white" x="180" y="719" width="36" height="16"/>
		<text font-size="12" font-weight="600" font-family="Segoe UI" x="180, 187.22461, 194.56055, " y="732, ">
				how
		</text>
		<rect fill="none" stroke="black" stroke-width="1" stroke-linecap="square" stroke-miterlimit="4" transform="translate(0.5 0.5)" x="171" y="717" width="51" height="20"/>
		<rect fill="silver" x="175" y="803" width="57" height="21"/>
		<rect fill="white" x="171" y="799" width="57" height="21"/>
		<rect fill="white" x="176" y="826" width="118" height="36"/>
		<text fill="gray" font-size="9" font-family="Segoe UI" x="176, 178.39502, 183.48828, 188.78809, 190.96777, 195.125, 199.7041, 202.75391, 207.46045, 211.2793, 213.74463, 219.03564, 223.39062, 225.85596, 232.35986, 237.45312, 239.63281, 243.79004, 248.8833, 251.34863, 259.10059, 263.80713, 268.38623, 273.47949, 277.29834, 279.76367, 282.81348, 287.90674, " y="836, ">
				Indicates by which means the
		</text>
		<text fill="gray" font-size="9" font-family="Segoe UI" x="176, 180.31104, 184.89014, 187.06982, 192.16309, 196.86963, 199.33496, 205.83887, 210.41797, 214.23682, 216.70215, 221.40869, 225.53955, 228.58936, 231.71826, 236.29736, 240.45459, 243.50439, 248.21094, 253.51074, 255.97607, 258.79297, 261.92188, 267.19531, 274.94727, 277.4126, 280.4624, 285.55566, " y="848, ">
				value was extracted from the
		</text>
		<text fill="gray" font-size="9" font-family="Segoe UI" x="176, 180.15723, 185.43066, 190.52393, 193.57373, 198.28027, 203.37354, 206.42334, 208.88867, 212.48779, 214.95312, 219.65967, 223.79053, 229.08154, 232.21045, 236.91699, 240.73584, 244.55469, 249.26123, 254.56104, 257.02637, 262.31738, 266.67236, 269.1377, 273.7168, 276.18213, 282.36523, 287.74854, " y="860, ">
				content - expressed by a URI
		</text>
		<rect fill="white" x="180" y="801" width="41" height="16"/>
		<text font-size="12" font-weight="600" font-family="Segoe UI" x="180, 187.22461, 194.56055, 204.12891, 211.38867, 216.21094, " y="814, ">
				howuri
		</text>
		<rect fill="none" stroke="black" stroke-width="1" stroke-linecap="square" stroke-miterlimit="4" transform="translate(0.5 0.5)" x="171" y="799" width="56" height="20"/>
		<rect fill="silver" x="175" y="873" width="52" height="21"/>
		<rect fill="white" x="171" y="869" width="52" height="21"/>
		<rect fill="white" x="176" y="896" width="113" height="36"/>
		<text fill="gray" font-size="9" font-family="Segoe UI" x="176, 184.40674, 189.5, 193.85498, 196.32031, 199.37012, 204.46338, 209.16992, 211.63525, 219.38721, 224.09375, 227.14355, 231.72266, 237.02246, 241.60156, 244.65137, 249.23047, 251.6958, 256.78906, 261.36816, 265.18701, 267.65234, 272.94336, 277.6499, 282.35645, " y="906, ">
				Why the metadata has been
		</text>
		<text fill="gray" font-size="9" font-family="Segoe UI" x="176, 178.17969, 183.27295, 187.43018, 189.60986, 194.70312, 200.00293, 204.70947, 210.00928, 212.47461, 216.07373, 218.53906, 223.24561, 227.37646, 232.66748, 235.79639, 240.50293, 244.32178, 248.14062, 252.84717, 258.14697, 260.6123, 265.90332, 270.2583, 272.72363, " y="918, ">
				included - expressed by a
		</text>
		<text fill="gray" font-size="9" font-family="Segoe UI" x="176, 182.78516, 188.35742, 193.63086, 198.93066, " y="930, ">
				QCode
		</text>
		<rect fill="white" x="180" y="871" width="36" height="16"/>
		<text font-size="12" font-weight="600" font-family="Segoe UI" x="180, 189.56836, 196.79297, " y="884, ">
				why
		</text>
		<rect fill="none" stroke="black" stroke-width="1" stroke-linecap="square" stroke-miterlimit="4" transform="translate(0.5 0.5)" x="171" y="869" width="51" height="20"/>
		<rect fill="silver" x="175" y="943" width="56" height="21"/>
		<rect fill="white" x="171" y="939" width="56" height="21"/>
		<rect fill="white" x="176" y="966" width="119" height="24"/>
		<text fill="gray" font-size="9" font-family="Segoe UI" x="176, 184.40674, 189.5, 193.85498, 196.32031, 199.37012, 204.46338, 209.16992, 211.63525, 219.38721, 224.09375, 227.14355, 231.72266, 237.02246, 241.60156, 244.65137, 249.23047, 251.6958, 256.78906, 261.36816, 265.18701, 267.65234, 272.94336, 277.6499, 282.35645, " y="976, ">
				Why the metadata has been
		</text>
		<text fill="gray" font-size="9" font-family="Segoe UI" x="176, 178.17969, 183.27295, 187.43018, 189.60986, 194.70312, 200.00293, 204.70947, 210.00928, 212.47461, 216.07373, 218.53906, 223.24561, 227.37646, 232.66748, 235.79639, 240.50293, 244.32178, 248.14062, 252.84717, 258.14697, 260.6123, 265.90332, 270.2583, 272.72363, 277.30273, 279.76807, 285.95117, 291.33447, " y="988, ">
				included - expressed by a URI
		</text>
		<rect fill="white" x="180" y="941" width="40" height="16"/>
		<text font-size="12" font-weight="600" font-family="Segoe UI" x="180, 189.56836, 196.79297, 203.25, 210.50977, 215.33203, " y="954, ">
				whyuri
		</text>
		<rect fill="none" stroke="black" stroke-width="1" stroke-linecap="square" stroke-miterlimit="4" transform="translate(0.5 0.5)" x="171" y="939" width="55" height="20"/>
		<rect fill="silver" x="175" y="1001" width="97" height="21"/>
		<rect fill="white" x="171" y="997" width="97" height="21"/>
		<rect fill="white" x="176" y="1024" width="117" height="72"/>
		<text fill="gray" font-size="9" font-family="Segoe UI" x="176, 182.78516, 187.87842, 192.58496, 195.05029, 200.32373, 203.45264, 205.91797, 213.66992, 218.24902, 223.34229, 227.69727, 230.1626, 234.31982, 239.59326, 244.68652, 248.50537, 251.55518, 254.68408, 259.26318, 261.44287, 266.53613, 269.58594, 273.40479, 275.87012, 278.91992, 284.01318, 288.59229, " y="1034, ">
				One or many constraints that
		</text>
		<text fill="gray" font-size="9" font-family="Segoe UI" x="176, 180.5791, 185.87012, 191.16113, 193.34082, 197.6958, 200.16113, 203.21094, 208.48438, 210.94971, 216.24072, 221.33398, 226.625, 228.80469, 230.98438, 234.80322, 239.89648, 242.07617, 247.16943, 252.46924, 254.93457, 257.98438, 263.07764, 267.78418, 270.24951, 274.56055, 279.13965, 281.31934, 286.4126, " y="1046, ">
				apply to publishing the value
		</text>
		<text fill="gray" font-size="9" font-family="Segoe UI" x="176, 181.27344, 184.09033, 186.55566, 189.60547, 194.69873, 199.40527, 201.87061, 207.16162, 210.29053, 215.56396, 220.85498, 225.56152, 228.69043, 231.74023, 236.09521, 238.56055, 242.15967, 244.625, 249.33154, 253.4624, 258.75342, 261.88232, 266.58887, 270.40771, 274.22656, 278.93311, " y="1058, ">
				of the property - expressed
		</text>
		<text fill="gray" font-size="9" font-family="Segoe UI" x="176, 181.29102, 185.646, 188.11133, 192.69043, 195.15576, 201.94092, 207.51318, 212.78662, 218.08643, 222.79297, 224.74414, 227.20947, 231.76221, 236.34131, 240.49854, 245.5918, 248.05713, 252.21436, 257.48779, 262.58105, 266.3999, 269.44971, 272.57861, 277.15771, 279.3374, 284.43066, " y="1070, ">
				by a QCode. Each constraint
		</text>
		<text fill="gray" font-size="9" font-family="Segoe UI" x="176, 180.5791, 185.87012, 191.16113, 193.34082, 195.52051, 200.22705, 204.0459, 206.51123, 209.56104, 214.83447, 217.2998, 221.87891, 224.05859, 226.23828, 228.70361, 234.00342, 238.70996, 242.52881, 246.68604, 251.39258, 256.48584, 261.78564, 266.36475, 271.45801, " y="1082, ">
				applies to all descendant
		</text>
		<text fill="gray" font-size="9" font-family="Segoe UI" x="176, 180.70654, 182.88623, 187.59277, 195.34473, 200.05127, 205.14453, 208.19434, 212.01318, " y="1094, ">
				elements.
		</text>
		<rect fill="white" x="180" y="999" width="81" height="16"/>
		<text font-size="12" font-weight="600" font-family="Segoe UI" x="180, 187.44141, 194.70117, 202.14258, 207.90234, 215.23828, 222.49805, 227.77734, 232.44727, 237.22266, 243.67969, 247.08984, 254.34961, " y="1012, ">
				pubconstraint
		</text>
		<rect fill="none" stroke="black" stroke-width="1" stroke-linecap="square" stroke-miterlimit="4" transform="translate(0.5 0.5)" x="171" y="997" width="96" height="20"/>
		<rect fill="silver" x="175" y="1107" width="112" height="21"/>
		<rect fill="white" x="171" y="1103" width="112" height="21"/>
		<rect fill="white" x="176" y="1130" width="117" height="72"/>
		<text fill="gray" font-size="9" font-family="Segoe UI" x="176, 182.78516, 187.87842, 192.58496, 195.05029, 200.32373, 203.45264, 205.91797, 213.66992, 218.24902, 223.34229, 227.69727, 230.1626, 234.31982, 239.59326, 244.68652, 248.50537, 251.55518, 254.68408, 259.26318, 261.44287, 266.53613, 269.58594, 273.40479, 275.87012, 278.91992, 284.01318, 288.59229, " y="1140, ">
				One or many constraints that
		</text>
		<text fill="gray" font-size="9" font-family="Segoe UI" x="176, 180.5791, 185.87012, 191.16113, 193.34082, 197.6958, 200.16113, 203.21094, 208.48438, 210.94971, 216.24072, 221.33398, 226.625, 228.80469, 230.98438, 234.80322, 239.89648, 242.07617, 247.16943, 252.46924, 254.93457, 257.98438, 263.07764, 267.78418, 270.24951, 274.56055, 279.13965, 281.31934, 286.4126, " y="1152, ">
				apply to publishing the value
		</text>
		<text fill="gray" font-size="9" font-family="Segoe UI" x="176, 181.27344, 184.09033, 186.55566, 189.60547, 194.69873, 199.40527, 201.87061, 207.16162, 210.29053, 215.56396, 220.85498, 225.56152, 228.69043, 231.74023, 236.09521, 238.56055, 242.15967, 244.625, 249.33154, 253.4624, 258.75342, 261.88232, 266.58887, 270.40771, 274.22656, 278.93311, " y="1164, ">
				of the property - expressed
		</text>
		<text fill="gray" font-size="9" font-family="Segoe UI" x="176, 181.29102, 185.646, 188.11133, 192.69043, 195.15576, 201.33887, 206.72217, 209.11719, 211.06836, 213.53369, 218.08643, 222.66553, 226.82275, 231.91602, 234.38135, 238.53857, 243.81201, 248.90527, 252.72412, 255.77393, 258.90283, 263.48193, 265.66162, 270.75488, " y="1176, ">
				by a URI. Each constraint
		</text>
		<text fill="gray" font-size="9" font-family="Segoe UI" x="176, 180.5791, 185.87012, 191.16113, 193.34082, 195.52051, 200.22705, 204.0459, 206.51123, 209.56104, 214.83447, 217.2998, 221.87891, 224.05859, 226.23828, 228.70361, 234.00342, 238.70996, 242.52881, 246.68604, 251.39258, 256.48584, 261.78564, 266.36475, 271.45801, " y="1188, ">
				applies to all descendant
		</text>
		<text fill="gray" font-size="9" font-family="Segoe UI" x="176, 180.70654, 182.88623, 187.59277, 195.34473, 200.05127, 205.14453, 208.19434, 212.01318, " y="1200, ">
				elements.
		</text>
		<rect fill="white" x="180" y="1105" width="96" height="16"/>
		<text font-size="12" font-weight="600" font-family="Segoe UI" x="180, 187.44141, 194.70117, 202.14258, 207.90234, 215.23828, 222.49805, 227.77734, 232.44727, 237.22266, 243.67969, 247.08984, 254.34961, 259.01953, 266.2793, 271.10156, " y="1118, ">
				pubconstrainturi
		</text>
		<rect fill="none" stroke="black" stroke-width="1" stroke-linecap="square" stroke-miterlimit="4" transform="translate(0.5 0.5)" x="171" y="1103" width="111" height="20"/>
		<path fill="silver" d="M167 1275L172 1270L240 1270L245 1275L245 1286L240 1291L172 1291L167 1286L167 1275Z"/>
		<path fill="white" d="M163 1271L168 1266L236 1266L241 1271L241 1282L236 1287L168 1287L163 1282L163 1271Z"/>
		<rect fill="white" x="168" y="1293" width="102" height="24"/>
		<text fill="gray" font-size="9" font-family="Segoe UI" x="168, 173.80518, 178.89844, 183.25342, 185.71875, 190.99219, 194.04199, 199.13525, 203.8418, 206.9707, 209.43604, 214.01514, 217.06494, 220.11475, 223.24365, 225.42334, 230.71436, 235.80762, 238.85742, 243.56396, 247.38281, 249.84814, 252.66504, 255.79395, 261.06738, " y="1303, ">
				Any other attributes from
		</text>
		<text fill="gray" font-size="9" font-family="Segoe UI" x="168, 173.27344, 176.32324, 181.4165, 186.12305, 189.25195, 191.71729, 196.81055, 201.38965, 209.1416, 213.84814, 217.66699, 222.95801, 227.53711, 231.69434, 236.40088, 240.21973, " y="1315, ">
				other namespaces.
		</text>
		<rect fill="white" x="190" y="1268" width="46" height="16"/>
		<text font-size="12" font-weight="600" font-family="Segoe UI" x="190, 197.10742, 204.21484, 211.55078, 216.2207, 223.44531, 229.9375, " y="1281, ">
				##other
		</text>
		<rect fill="white" x="168" y="1268" width="20" height="16"/>
		<text fill="gray" font-size="12" font-family="Segoe UI" x="168, 174.10547, 180.89648, " y="1281, ">
				any
		</text>
		<path fill="none" stroke="black" stroke-width="1" stroke-linecap="square" stroke-miterlimit="4" transform="translate(0.5 0.5)" d="M163 1271L168 1266L235 1266L240 1271L240 1281L235 1286L168 1286L163 1281L163 1271Z"/>
		<rect x="154" y="5" width="11" height="11"/>
		<rect fill="white" x="155" y="6" width="9" height="9"/>
		<rect x="156" y="10" width="7" height="1"/>
		<path transform="translate(0.5 0.5)" d="M194 1345.5L196 1345.5L196.5 1345.5L196.5 1346.5L196 1346.5L193.5 1346.5L193.5 1345.5L194 1345.5ZM200 1345.5L202.5 1345.5L202.5 1346.5L199.5 1346.5L199.5 1345.5L200 1345.5Z"/>
		<path fill="silver" d="M153 1345L158 1340L183 1340L188 1345L188 1356L183 1361L158 1361L153 1356L153 1345Z"/>
		<path fill="white" d="M149 1341L154 1336L179 1336L184 1341L184 1352L179 1357L154 1357L149 1352L149 1341Z"/>
		<path fill="none" stroke="black" stroke-width="1" stroke-linecap="square" stroke-miterlimit="4" transform="translate(0.5 0.5)" d="M154 1346L178 1346"/>
		<rect x="160" y="1345" width="3" height="3"/>
		<rect x="165" y="1345" width="3" height="3"/>
		<rect x="170" y="1345" width="3" height="3"/>
		<path fill="none" stroke="black" stroke-width="1" stroke-linecap="square" stroke-miterlimit="4" transform="translate(0.5 0.5)" d="M149 1341L154 1336L178 1336L183 1341L183 1351L178 1356L154 1356L149 1351L149 1341Z"/>
		<rect fill="silver" x="211" y="1343" width="52" height="21"/>
		<rect fill="white" x="207" y="1339" width="52" height="21"/>
		<rect fill="none" stroke="black" stroke-width="1" stroke-linecap="square" stroke-miterlimit="4" transform="translate(0.5 0.5)" x="207" y="1339" width="51" height="20"/>
		<rect fill="white" x="204" y="1336" width="52" height="21"/>
		<path fill="none" stroke="black" stroke-width="1" stroke-linecap="square" stroke-miterlimit="4" transform="translate(0.5 0.5)" d="M241 1357L247 1363L250 1360"/>
		<rect fill="white" x="209" y="1382" width="100" height="24"/>
		<text fill="gray" font-size="9" font-family="Segoe UI" x="209, 214.80518, 217.27051, 221.08936, 226.18262, 231.45605, 234.58496, 237.63477, 240.1001, 245.19336, 249.77246, 252.82227, 257.91553, 261.04443, 265.62354, 267.80322, 270.26855, 272.44824, 277.02734, 282.12061, 287.42041, 292.51367, 297.09277, 302.39258, " y="1392, ">
				A short natural language
		</text>
		<text fill="gray" font-size="9" font-family="Segoe UI" x="209, 214.09326, 218.67236, 226.42432, 231.13086, 233.59619, 236.41309, 241.68652, 244.81543, 247.28076, 250.33057, 255.42383, 260.13037, 262.5957, 266.75293, 271.33203, 274.38184, 278.96094, 281.14062, 286.41406, 291.71387, " y="1404, ">
				name for the catalog.
		</text>
		<rect fill="white" x="213" y="1338" width="31" height="16"/>
		<text font-size="12" font-weight="600" font-family="Segoe UI" x="213, 217.66992, 221.08008, 225.75, 229.16016, " y="1351, ">
				title
		</text>
		<path fill="none" stroke="black" stroke-width="1" stroke-linecap="square" stroke-miterlimit="4" transform="translate(0.5 0.5)" d="M206 1338L211 1338"/>
		<path fill="none" stroke="black" stroke-width="1" stroke-linecap="square" stroke-miterlimit="4" transform="translate(0.5 0.5)" d="M206 1340L210 1340"/>
		<path fill="none" stroke="black" stroke-width="1" stroke-linecap="square" stroke-miterlimit="4" transform="translate(0.5 0.5)" d="M206 1342L210 1342"/>
		<path fill="none" stroke="black" stroke-width="2" stroke-miterlimit="4" transform="translate(0.5 0.5)" d="M206 1354L210 1350"/>
		<path fill="none" stroke="black" stroke-width="1" stroke-linecap="square" stroke-miterlimit="4" transform="translate(0.5 0.5)" d="M207 1350L210 1350L210 1353"/>
		<text font-size="12" font-family="Segoe UI" x="226.76562, " y="1376, ">
				0
		</text>
		<text font-size="12" font-family="Symbol" x="241.72266, " y="1375, ">
				¥
		</text>
		<text font-size="12" font-family="Segoe UI" x="234.89844, 237.5, " y="1376, ">
				..
		</text>
		<rect fill="none" stroke="black" stroke-width="1" stroke-linecap="square" stroke-miterlimit="4" transform="translate(0.5 0.5)" x="204" y="1336" width="51" height="20"/>
		<rect x="250" y="1341" width="11" height="11"/>
		<rect fill="white" x="251" y="1342" width="9" height="9"/>
		<rect x="252" y="1346" width="7" height="1"/>
		<rect x="255" y="1343" width="1" height="7"/>
		<rect x="183" y="1341" width="11" height="11"/>
		<rect fill="white" x="184" y="1342" width="9" height="9"/>
		<rect x="185" y="1346" width="7" height="1"/>
		<rect x="77" y="999" width="11" height="11"/>
		<rect fill="white" x="78" y="1000" width="9" height="9"/>
		<rect x="79" y="1004" width="7" height="1"/>
	</g>
</svg>
