<?xml version="1.0" encoding="utf-8" ?>
<svg xmlns="http://www.w3.org/2000/svg" xmlns:xlink="http://www.w3.org/1999/xlink" width="382" height="1746">
	<clipPath id="cl_2af">
		<rect x="-10" y="-5" width="382" height="1746"/>
	</clipPath>
	<g clip-path="url(#cl_2af)">
		<rect fill="#FFFFC0" x="125" width="237" height="1736"/>
		<rect fill="none" stroke="gray" stroke-width="1" stroke-linecap="square" stroke-miterlimit="4" transform="translate(0.5 0.5)" x="125" width="236" height="1735"/>
		<path fill="none" stroke="black" stroke-width="1" stroke-linecap="square" stroke-miterlimit="4" transform="translate(0.5 0.5)" d="M57 1198L137 1198"/>
		<path fill="none" stroke="black" stroke-width="1" stroke-linecap="square" stroke-miterlimit="4" transform="translate(0.5 0.5)" d="M138 1198L138 794"/>
		<path transform="translate(0.5 0.5)" d="M138.5 1198L138.5 1200L138.5 1200.5L137.5 1200.5L137.5 1200L137.5 1197.5L138.5 1197.5L138.5 1198ZM138.5 1204L138.5 1206L138.5 1206.5L137.5 1206.5L137.5 1206L137.5 1203.5L138.5 1203.5L138.5 1204ZM138.5 1210L138.5 1212L138.5 1212.5L137.5 1212.5L137.5 1212L137.5 1209.5L138.5 1209.5L138.5 1210ZM138.5 1216L138.5 1218L138.5 1218.5L137.5 1218.5L137.5 1218L137.5 1215.5L138.5 1215.5L138.5 1216ZM138.5 1222L138.5 1224L138.5 1224.5L137.5 1224.5L137.5 1224L137.5 1221.5L138.5 1221.5L138.5 1222ZM138.5 1228L138.5 1230L138.5 1230.5L137.5 1230.5L137.5 1230L137.5 1227.5L138.5 1227.5L138.5 1228ZM138.5 1234L138.5 1236L138.5 1236.5L137.5 1236.5L137.5 1236L137.5 1233.5L138.5 1233.5L138.5 1234ZM138.5 1240L138.5 1242L138.5 1242.5L137.5 1242.5L137.5 1242L137.5 1239.5L138.5 1239.5L138.5 1240ZM138.5 1246L138.5 1248L138.5 1248.5L137.5 1248.5L137.5 1248L137.5 1245.5L138.5 1245.5L138.5 1246ZM138.5 1252L138.5 1254L138.5 1254.5L137.5 1254.5L137.5 1254L137.5 1251.5L138.5 1251.5L138.5 1252ZM138.5 1258L138.5 1260L138.5 1260.5L137.5 1260.5L137.5 1260L137.5 1257.5L138.5 1257.5L138.5 1258ZM138.5 1264L138.5 1266L138.5 1266.5L137.5 1266.5L137.5 1266L137.5 1263.5L138.5 1263.5L138.5 1264ZM138.5 1270L138.5 1272L138.5 1272.5L137.5 1272.5L137.5 1272L137.5 1269.5L138.5 1269.5L138.5 1270ZM138.5 1276L138.5 1278L138.5 1278.5L137.5 1278.5L137.5 1278L137.5 1275.5L138.5 1275.5L138.5 1276ZM138.5 1282L138.5 1284L138.5 1284.5L137.5 1284.5L137.5 1284L137.5 1281.5L138.5 1281.5L138.5 1282ZM138.5 1288L138.5 1290L138.5 1290.5L137.5 1290.5L137.5 1290L137.5 1287.5L138.5 1287.5L138.5 1288ZM138.5 1294L138.5 1296L138.5 1296.5L137.5 1296.5L137.5 1296L137.5 1293.5L138.5 1293.5L138.5 1294ZM138.5 1300L138.5 1302L138.5 1302.5L137.5 1302.5L137.5 1302L137.5 1299.5L138.5 1299.5L138.5 1300ZM138.5 1306L138.5 1308L138.5 1308.5L137.5 1308.5L137.5 1308L137.5 1305.5L138.5 1305.5L138.5 1306ZM138.5 1312L138.5 1314L138.5 1314.5L137.5 1314.5L137.5 1314L137.5 1311.5L138.5 1311.5L138.5 1312ZM138.5 1318L138.5 1320L138.5 1320.5L137.5 1320.5L137.5 1320L137.5 1317.5L138.5 1317.5L138.5 1318ZM138.5 1324L138.5 1326L138.5 1326.5L137.5 1326.5L137.5 1326L137.5 1323.5L138.5 1323.5L138.5 1324ZM138.5 1330L138.5 1332L138.5 1332.5L137.5 1332.5L137.5 1332L137.5 1329.5L138.5 1329.5L138.5 1330ZM138.5 1336L138.5 1338L138.5 1338.5L137.5 1338.5L137.5 1338L137.5 1335.5L138.5 1335.5L138.5 1336ZM138.5 1342L138.5 1344L138.5 1344.5L137.5 1344.5L137.5 1344L137.5 1341.5L138.5 1341.5L138.5 1342ZM138.5 1348L138.5 1350L138.5 1350.5L137.5 1350.5L137.5 1350L137.5 1347.5L138.5 1347.5L138.5 1348ZM138.5 1354L138.5 1356L138.5 1356.5L137.5 1356.5L137.5 1356L137.5 1353.5L138.5 1353.5L138.5 1354ZM138.5 1360L138.5 1362L138.5 1362.5L137.5 1362.5L137.5 1362L137.5 1359.5L138.5 1359.5L138.5 1360ZM138.5 1366L138.5 1368L138.5 1368.5L137.5 1368.5L137.5 1368L137.5 1365.5L138.5 1365.5L138.5 1366ZM138.5 1372L138.5 1374L138.5 1374.5L137.5 1374.5L137.5 1374L137.5 1371.5L138.5 1371.5L138.5 1372ZM138.5 1378L138.5 1380L138.5 1380.5L137.5 1380.5L137.5 1380L137.5 1377.5L138.5 1377.5L138.5 1378ZM138.5 1384L138.5 1386L138.5 1386.5L137.5 1386.5L137.5 1386L137.5 1383.5L138.5 1383.5L138.5 1384ZM138.5 1390L138.5 1392L138.5 1392.5L137.5 1392.5L137.5 1392L137.5 1389.5L138.5 1389.5L138.5 1390ZM138.5 1396L138.5 1398L138.5 1398.5L137.5 1398.5L137.5 1398L137.5 1395.5L138.5 1395.5L138.5 1396ZM138.5 1402L138.5 1404L138.5 1404.5L137.5 1404.5L137.5 1404L137.5 1401.5L138.5 1401.5L138.5 1402ZM138.5 1408L138.5 1410L138.5 1410.5L137.5 1410.5L137.5 1410L137.5 1407.5L138.5 1407.5L138.5 1408ZM138.5 1414L138.5 1416L138.5 1416.5L137.5 1416.5L137.5 1416L137.5 1413.5L138.5 1413.5L138.5 1414ZM138.5 1420L138.5 1422L138.5 1422.5L137.5 1422.5L137.5 1422L137.5 1419.5L138.5 1419.5L138.5 1420ZM138.5 1426L138.5 1428L138.5 1428.5L137.5 1428.5L137.5 1428L137.5 1425.5L138.5 1425.5L138.5 1426ZM138.5 1432L138.5 1434L138.5 1434.5L137.5 1434.5L137.5 1434L137.5 1431.5L138.5 1431.5L138.5 1432ZM138.5 1438L138.5 1440L138.5 1440.5L137.5 1440.5L137.5 1440L137.5 1437.5L138.5 1437.5L138.5 1438ZM138.5 1444L138.5 1446L138.5 1446.5L137.5 1446.5L137.5 1446L137.5 1443.5L138.5 1443.5L138.5 1444ZM138.5 1450L138.5 1452L138.5 1452.5L137.5 1452.5L137.5 1452L137.5 1449.5L138.5 1449.5L138.5 1450ZM138.5 1456L138.5 1458L138.5 1458.5L137.5 1458.5L137.5 1458L137.5 1455.5L138.5 1455.5L138.5 1456ZM138.5 1462L138.5 1464L138.5 1464.5L137.5 1464.5L137.5 1464L137.5 1461.5L138.5 1461.5L138.5 1462ZM138.5 1468L138.5 1470L138.5 1470.5L137.5 1470.5L137.5 1470L137.5 1467.5L138.5 1467.5L138.5 1468ZM138.5 1474L138.5 1476L138.5 1476.5L137.5 1476.5L137.5 1476L137.5 1473.5L138.5 1473.5L138.5 1474ZM138.5 1480L138.5 1482L138.5 1482.5L137.5 1482.5L137.5 1482L137.5 1479.5L138.5 1479.5L138.5 1480ZM138.5 1486L138.5 1488L138.5 1488.5L137.5 1488.5L137.5 1488L137.5 1485.5L138.5 1485.5L138.5 1486ZM138.5 1492L138.5 1494L138.5 1494.5L137.5 1494.5L137.5 1494L137.5 1491.5L138.5 1491.5L138.5 1492ZM138.5 1498L138.5 1500L138.5 1500.5L137.5 1500.5L137.5 1500L137.5 1497.5L138.5 1497.5L138.5 1498ZM138.5 1504L138.5 1506L138.5 1506.5L137.5 1506.5L137.5 1506L137.5 1503.5L138.5 1503.5L138.5 1504ZM138.5 1510L138.5 1512L138.5 1512.5L137.5 1512.5L137.5 1512L137.5 1509.5L138.5 1509.5L138.5 1510ZM138.5 1516L138.5 1518L138.5 1518.5L137.5 1518.5L137.5 1518L137.5 1515.5L138.5 1515.5L138.5 1516ZM138.5 1522L138.5 1524L138.5 1524.5L137.5 1524.5L137.5 1524L137.5 1521.5L138.5 1521.5L138.5 1522ZM138.5 1528L138.5 1530L138.5 1530.5L137.5 1530.5L137.5 1530L137.5 1527.5L138.5 1527.5L138.5 1528ZM138.5 1534L138.5 1536L138.5 1536.5L137.5 1536.5L137.5 1536L137.5 1533.5L138.5 1533.5L138.5 1534ZM138.5 1540L138.5 1542L138.5 1542.5L137.5 1542.5L137.5 1542L137.5 1539.5L138.5 1539.5L138.5 1540ZM138.5 1546L138.5 1548L138.5 1548.5L137.5 1548.5L137.5 1548L137.5 1545.5L138.5 1545.5L138.5 1546ZM138.5 1552L138.5 1554L138.5 1554.5L137.5 1554.5L137.5 1554L137.5 1551.5L138.5 1551.5L138.5 1552ZM138.5 1558L138.5 1560L138.5 1560.5L137.5 1560.5L137.5 1560L137.5 1557.5L138.5 1557.5L138.5 1558ZM138.5 1564L138.5 1566L138.5 1566.5L137.5 1566.5L137.5 1566L137.5 1563.5L138.5 1563.5L138.5 1564ZM138.5 1570L138.5 1572L138.5 1572.5L137.5 1572.5L137.5 1572L137.5 1569.5L138.5 1569.5L138.5 1570ZM138.5 1576L138.5 1578L138.5 1578.5L137.5 1578.5L137.5 1578L137.5 1575.5L138.5 1575.5L138.5 1576ZM138.5 1582L138.5 1584L138.5 1584.5L137.5 1584.5L137.5 1584L137.5 1581.5L138.5 1581.5L138.5 1582ZM138.5 1588L138.5 1590L138.5 1590.5L137.5 1590.5L137.5 1590L137.5 1587.5L138.5 1587.5L138.5 1588ZM138.5 1594L138.5 1596L138.5 1596.5L137.5 1596.5L137.5 1596L137.5 1593.5L138.5 1593.5L138.5 1594ZM138.5 1600L138.5 1602.5L137.5 1602.5L137.5 1599.5L138.5 1599.5L138.5 1600Z"/>
		<path transform="translate(0.5 0.5)" d="M138 1602.5L140 1602.5L140.5 1602.5L140.5 1603.5L140 1603.5L137.5 1603.5L137.5 1602.5L138 1602.5ZM144 1602.5L146 1602.5L146.5 1602.5L146.5 1603.5L146 1603.5L143.5 1603.5L143.5 1602.5L144 1602.5ZM150 1602.5L152.5 1602.5L152.5 1603.5L149.5 1603.5L149.5 1602.5L150 1602.5Z"/>
		<path fill="none" stroke="black" stroke-width="1" stroke-linecap="square" stroke-miterlimit="4" transform="translate(0.5 0.5)" d="M138 793L152 793"/>
		<rect fill="silver" x="4" y="1192" width="52" height="21"/>
		<rect fill="white" y="1188" width="52" height="21"/>
		<rect fill="#FFFFC0" x="133" y="8" width="81" height="16"/>
		<text fill="gray" font-size="12" font-weight="600" font-family="Segoe UI" x="133, 142.09961, 149.35938, 155.81641, 159.22656, 166.59766, 171.32617, 178.66211, 186.10352, 192.5957, 199.05273, 206.49414, " y="21, ">
				QualPropType
		</text>
		<rect fill="white" x="5" y="1215" width="105" height="24"/>
		<text fill="gray" font-size="9" font-family="Segoe UI" x="5, 9.715332, 14.808594, 19.515137, 21.980469, 25.109375, 30.382812, 32.5625, 37.269043, 39.734375, 45.007812, 47.824707, 50.290039, 53.339844, 58.433105, 63.139648, 65.60498, 68, 71.049805, 75.756348, 83.508301, 85.973633, 88.15332, 93.246582, 95.711914, 98.761719, 103.85498, " y="1225, ">
				The role of the Item in the
		</text>
		<text fill="gray" font-size="9" font-family="Segoe UI" x="5, 9.706543, 15.006348, 17.186035, 20.23584, 25.509277, 28.638184, 30.817871, 35.396973, 37.57666, 40.041992, 46.545898, 51.819336, 54.948242, 59.421875, 62.23877, 64.418457, 69.691895, 76.195801, " y="1237, ">
				editorial workflow.
		</text>
		<rect fill="white" x="9" y="1190" width="31" height="16"/>
		<text font-size="12" font-weight="600" font-family="Segoe UI" x="9, 13.728516, 21.064453, 24.474609, " y="1203, ">
				role
		</text>
		<rect fill="none" stroke="black" stroke-width="1" stroke-linecap="square" stroke-miterlimit="4" transform="translate(0.5 0.5)" y="1188" width="51" height="20"/>
		<path fill="white" d="M230 55L230 36L153 36L153 55L153 1549L300 1549L300 55L230 55Z"/>
		<rect fill="white" x="173" y="38" width="51" height="16"/>
		<text font-size="12" font-style="italic" font-family="Segoe UI" x="173, 179.50391, 183.38281, 187.26172, 191.5332, 194.63867, 201.14258, 207.83984, 211.73047, 217.57227, " y="51, ">
				attributes
		</text>
		<path fill="none" stroke="black" stroke-width="1" stroke-linecap="square" stroke-miterlimit="4" transform="translate(0.5 0.5)" d="M230 55L230 36L153 36L153 55L153 1549L300 1549L300 55L230 55Z"/>
		<rect fill="silver" x="171" y="68" width="52" height="21"/>
		<rect fill="white" x="167" y="64" width="52" height="21"/>
		<rect fill="white" x="172" y="91" width="101" height="24"/>
		<text fill="gray" font-size="9" font-family="Segoe UI" x="172, 176.71533, 181.80859, 186.51514, 188.98047, 191.16016, 196.43359, 200.59082, 205.16992, 207.34961, 209.81494, 211.99463, 217.29443, 222.00098, 227.09424, 230.14404, 232.32373, 235.14062, 237.32031, 242.02686, 245.15576, 247.62109, 252.89453, 255.71143, 258.17676, 261.22656, 266.31982, " y="101, ">
				The local identifier of the
		</text>
		<text fill="gray" font-size="9" font-family="Segoe UI" x="172, 177.29102, 180.41992, 185.69336, 190.98438, 195.69092, 198.81982, 201.86963, 206.22461, " y="113, ">
				property.
		</text>
		<rect fill="white" x="176" y="66" width="36" height="16"/>
		<text font-size="12" font-weight="600" font-family="Segoe UI" x="176, 179.41016, " y="79, ">
				id
		</text>
		<rect fill="none" stroke="black" stroke-width="1" stroke-linecap="square" stroke-miterlimit="4" transform="translate(0.5 0.5)" x="167" y="64" width="51" height="20"/>
		<rect fill="silver" x="171" y="126" width="58" height="21"/>
		<rect fill="white" x="167" y="122" width="58" height="21"/>
		<rect fill="white" x="172" y="149" width="121" height="120"/>
		<text fill="gray" font-size="9" font-family="Segoe UI" x="172, 174.39502, 177.21191, 179.67725, 182.72705, 187.82031, 192.52686, 194.99219, 200.2832, 203.41211, 208.68555, 213.97656, 218.68311, 221.81201, 224.86182, 229.2168, 231.68213, 235.99316, 240.57227, 242.75195, 247.84521, 252.55176, 255.01709, 257.19678, 261.01562, 263.48096, 268.57422, 273.84766, " y="159, ">
				If the property value is not
		</text>
		<text fill="gray" font-size="9" font-family="Segoe UI" x="172, 177.2998, 182.00635, 184.82324, 187.00293, 192.09619, 196.80273, 202.10254, 204.05371, 206.51904, 210.33789, 215.62891, 220.33545, 224.49268, 226.67236, 229.48926, 231.66895, 236.37549, 240.19434, 242.65967, 249.16357, 254.25684, 256.43652, 260.59375, 265.68701, 268.15234, 272.85889, 277.95215, 281.00195, 283.18164, 286.23145, " y="171, ">
				defined, specifies which entity
		</text>
		<text fill="gray" font-size="9" font-family="Segoe UI" x="172, 174.71582, 180.00684, 184.71338, 187.84229, 191.66113, 196.93457, 202.02783, 203.979, 206.44434, 211.71777, 214.84668, 220.14648, 224.72559, 229.81885, 231.99854, 235.81738, 240.39648, 243.44629, 245.62598, 250.89941, 255.99268, 258.45801, 263.73145, " y="183, ">
				(person, organisation or
		</text>
		<text fill="gray" font-size="9" font-family="Segoe UI" x="172, 175.81885, 180.17383, 183.99268, 187.04248, 191.74902, 199.50098, 202.2168, 204.68213, 211.18604, 213.36572, 215.54541, 217.7251, 220.19043, 224.89697, 230.19678, 232.37646, 235.42627, 237.8916, 240.94141, 246.03467, 250.74121, 253.20654, 258.49756, 261.62646, 266.8999, 272.19092, 276.89746, 280.02637, 283.07617, " y="195, ">
				system) will edit the property
		</text>
		<text fill="gray" font-size="9" font-family="Segoe UI" x="172, 176.31104, 180.89014, 183.06982, 188.16309, 192.86963, 195.33496, 198.93408, 201.39941, 206.10596, 210.23682, 215.52783, 218.65674, 223.36328, 227.18213, 231.00098, 235.70752, 241.00732, 243.47266, 248.76367, 253.11865, 255.58398, 260.16309, 262.62842, 269.41357, 274.98584, 280.25928, 285.55908, 290.26562, " y="207, ">
				value - expressed by a QCode.
		</text>
		<text fill="gray" font-size="9" font-family="Segoe UI" x="172, 174.39502, 177.21191, 179.67725, 182.72705, 187.82031, 192.52686, 194.99219, 200.2832, 203.41211, 208.68555, 213.97656, 218.68311, 221.81201, 224.86182, 229.2168, 231.68213, 235.99316, 240.57227, 242.75195, 247.84521, 252.55176, 255.01709, 257.19678, " y="219, ">
				If the property value is
		</text>
		<text fill="gray" font-size="9" font-family="Segoe UI" x="172, 177.2998, 182.00635, 184.82324, 187.00293, 192.09619, 196.80273, 202.10254, 204.05371, 206.51904, 210.33789, 215.62891, 220.33545, 224.49268, 226.67236, 229.48926, 231.66895, 236.37549, 240.19434, 242.65967, 249.16357, 254.25684, 256.43652, 260.59375, 265.68701, 268.15234, 272.85889, 277.95215, 281.00195, 283.18164, 286.23145, " y="231, ">
				defined, specifies which entity
		</text>
		<text fill="gray" font-size="9" font-family="Segoe UI" x="172, 174.71582, 180.00684, 184.71338, 187.84229, 191.66113, 196.93457, 202.02783, 203.979, 206.44434, 211.71777, 214.84668, 220.14648, 224.72559, 229.81885, 231.99854, 235.81738, 240.39648, 243.44629, 245.62598, 250.89941, 255.99268, 258.45801, 263.73145, " y="243, ">
				(person, organisation or
		</text>
		<text fill="gray" font-size="9" font-family="Segoe UI" x="172, 175.81885, 180.17383, 183.99268, 187.04248, 191.74902, 199.50098, 202.2168, 204.68213, 209.77539, 214.35449, 218.17334, 220.63867, 225.34521, 230.64502, 232.82471, 235.87451, 240.58105, 245.88086, 248.34619, 251.396, 256.48926, " y="255, ">
				system) has edited the
		</text>
		<text fill="gray" font-size="9" font-family="Segoe UI" x="172, 177.29102, 180.41992, 185.69336, 190.98438, 195.69092, 198.81982, 201.86963, 206.22461, 208.68994, 213.00098, 217.58008, 219.75977, 224.85303, 229.55957, " y="267, ">
				property value.
		</text>
		<rect fill="white" x="176" y="124" width="42" height="16"/>
		<text font-size="12" font-weight="600" font-family="Segoe UI" x="176, 181.75977, 186.48828, 192.98047, 199.4375, 204.06055, 211.39648, " y="137, ">
				creator
		</text>
		<rect fill="none" stroke="black" stroke-width="1" stroke-linecap="square" stroke-miterlimit="4" transform="translate(0.5 0.5)" x="167" y="122" width="57" height="20"/>
		<rect fill="silver" x="171" y="280" width="73" height="21"/>
		<rect fill="white" x="167" y="276" width="73" height="21"/>
		<rect fill="white" x="172" y="303" width="120" height="108"/>
		<text fill="gray" font-size="9" font-family="Segoe UI" x="172, 174.39502, 177.21191, 179.67725, 182.72705, 187.82031, 192.52686, 194.99219, 200.2832, 203.41211, 208.68555, 213.97656, 218.68311, 221.81201, 224.86182, 229.2168, 231.68213, 235.99316, 240.57227, 242.75195, 247.84521, 252.55176, 255.01709, 257.19678, 261.01562, 263.48096, 268.57422, 273.84766, " y="313, ">
				If the property value is not
		</text>
		<text fill="gray" font-size="9" font-family="Segoe UI" x="172, 177.2998, 182.00635, 184.82324, 187.00293, 192.09619, 196.80273, 202.10254, 204.05371, 206.51904, 210.33789, 215.62891, 220.33545, 224.49268, 226.67236, 229.48926, 231.66895, 236.37549, 240.19434, 242.65967, 249.16357, 254.25684, 256.43652, 260.59375, 265.68701, 268.15234, 272.85889, 277.95215, 281.00195, 283.18164, 286.23145, " y="325, ">
				defined, specifies which entity
		</text>
		<text fill="gray" font-size="9" font-family="Segoe UI" x="172, 174.71582, 180.00684, 184.71338, 187.84229, 191.66113, 196.93457, 202.02783, 203.979, 206.44434, 211.71777, 214.84668, 220.14648, 224.72559, 229.81885, 231.99854, 235.81738, 240.39648, 243.44629, 245.62598, 250.89941, 255.99268, 258.45801, 263.73145, " y="337, ">
				(person, organisation or
		</text>
		<text fill="gray" font-size="9" font-family="Segoe UI" x="172, 175.81885, 180.17383, 183.99268, 187.04248, 191.74902, 199.50098, 202.2168, 204.68213, 211.18604, 213.36572, 215.54541, 217.7251, 220.19043, 224.89697, 230.19678, 232.37646, 235.42627, 237.8916, 240.94141, 246.03467, 250.74121, 253.20654, 258.49756, 261.62646, 266.8999, 272.19092, 276.89746, 280.02637, 283.07617, " y="349, ">
				system) will edit the property
		</text>
		<text fill="gray" font-size="9" font-family="Segoe UI" x="172, 175.59912, 178.06445, 182.771, 186.90186, 192.19287, 195.32178, 200.02832, 203.84717, 207.66602, 212.37256, 217.67236, 220.1377, 225.42871, 229.78369, 232.24902, 236.82812, 239.29346, 245.47656, 250.85986, 253.25488, 255.20605, 257.67139, 260.06641, 262.8833, 265.34863, 268.39844, 273.4917, " y="361, ">
				- expressed by a URI. If the
		</text>
		<text fill="gray" font-size="9" font-family="Segoe UI" x="172, 177.29102, 180.41992, 185.69336, 190.98438, 195.69092, 198.81982, 201.86963, 206.22461, 208.68994, 213.00098, 217.58008, 219.75977, 224.85303, 229.55957, 232.0249, 234.20459, 238.02344, 240.48877, 245.78857, 250.49512, 253.31201, 255.4917, 260.58496, 265.2915, 270.59131, " y="373, ">
				property value is defined,
		</text>
		<text fill="gray" font-size="9" font-family="Segoe UI" x="172, 175.81885, 181.10986, 185.81641, 189.97363, 192.15332, 194.97021, 197.1499, 201.85645, 205.67529, 208.14062, 214.64453, 219.73779, 221.91748, 226.07471, 231.16797, 233.6333, 238.33984, 243.43311, 246.48291, 248.6626, 251.7124, 256.06738, 258.53271, 261.24854, 266.53955, 271.24609, 274.375, 278.19385, 283.46729, 288.56055, " y="385, ">
				specifies which entity (person,
		</text>
		<text fill="gray" font-size="9" font-family="Segoe UI" x="172, 177.27344, 180.40234, 185.70215, 190.28125, 195.37451, 197.5542, 201.37305, 205.95215, 209.00195, 211.18164, 216.45508, 221.54834, 224.01367, 229.28711, 232.41602, 234.88135, 238.7002, 243.05518, 246.87402, 249.92383, 254.63037, 262.38232, 265.09814, 267.56348, 272.65674, 277.23584, " y="397, ">
				organisation or system) has
		</text>
		<text fill="gray" font-size="9" font-family="Segoe UI" x="172, 176.70654, 182.00635, 184.18604, 187.23584, 191.94238, 197.24219, 199.70752, 202.75732, 207.85059, 212.55713, 215.02246, 220.31348, 223.44238, 228.71582, 234.00684, 238.71338, 241.84229, 244.89209, 249.24707, " y="409, ">
				edited the property.
		</text>
		<rect fill="white" x="176" y="278" width="57" height="16"/>
		<text font-size="12" font-weight="600" font-family="Segoe UI" x="176, 181.75977, 186.48828, 192.98047, 199.4375, 204.06055, 211.39648, 216.20703, 223.4668, 228.28906, " y="291, ">
				creatoruri
		</text>
		<rect fill="none" stroke="black" stroke-width="1" stroke-linecap="square" stroke-miterlimit="4" transform="translate(0.5 0.5)" x="167" y="276" width="72" height="20"/>
		<rect fill="silver" x="171" y="422" width="69" height="21"/>
		<rect fill="white" x="167" y="418" width="69" height="21"/>
		<rect fill="white" x="172" y="445" width="119" height="72"/>
		<text fill="gray" font-size="9" font-family="Segoe UI" x="172, 176.71533, 181.80859, 186.51514, 188.98047, 194.28027, 198.85938, 201.90918, 206.61572, 209.08105, 211.79688, 216.37598, 221.46924, 226.76904, 228.72021, 231.18555, 236.45898, 241.75, 244.7998, 246.97949, 252.25293, 257.34619, 261.92529, 264.10498, 266.28467, 270.63965, 272.59082, 275.05615, 278.10596, 283.19922, " y="455, ">
				The date (and, optionally, the
		</text>
		<text fill="gray" font-size="9" font-family="Segoe UI" x="172, 175.0498, 177.22949, 184.98145, 189.68799, 192.40381, 194.86914, 201.37305, 206.46631, 211.17285, 216.26611, 218.73145, 221.78125, 226.87451, 231.58105, 234.04639, 239.3374, 242.46631, 247.73975, 253.03076, 257.7373, 260.86621, 263.91602, 268.271, 270.73633, 277.24023, 281.81934, " y="467, ">
				time) when the property was
		</text>
		<text fill="gray" font-size="9" font-family="Segoe UI" x="172, 174.17969, 178.75879, 182.57764, 185.62744, 188.09277, 195.84473, 201.11816, 206.41797, 208.59766, 211.41455, 213.59424, 218.30078, 223.60059, 225.55176, 228.01709, 232.73242, 237.82568, 242.53223, 244.99756, 247.17725, 252.27051, 254.4502, 257.5, 259.67969, 264.25879, 266.43848, 268.90381, 273.21484, 277.79395, 279.97363, 285.06689, " y="479, ">
				last modified. The initial value
		</text>
		<text fill="gray" font-size="9" font-family="Segoe UI" x="172, 174.17969, 177.99854, 180.46387, 183.51367, 188.60693, 193.31348, 195.77881, 201.07861, 205.65771, 208.70752, 213.41406, 215.87939, 218.59521, 223.17432, 228.26758, 233.56738, 235.51855, 237.98389, 243.25732, 248.54834, 251.59814, 253.77783, 259.05127, 264.14453, 268.72363, 270.90332, 273.08301, 277.43799, " y="491, ">
				is the date (and, optionally,
		</text>
		<text fill="gray" font-size="9" font-family="Segoe UI" x="172, 175.0498, 180.14307, 184.84961, 187.31494, 190.36475, 192.54443, 200.29639, 205.00293, 207.71875, 210.18408, 215.45752, 218.27441, 220.73975, 224.89697, 228.02588, 232.73242, 237.31152, 240.36133, 242.54102, 247.81445, 252.90771, 255.37305, 260.64648, 263.46338, 265.92871, 268.97852, 274.07178, " y="503, ">
				the time) of creation of the
		</text>
		<text fill="gray" font-size="9" font-family="Segoe UI" x="172, 177.29102, 180.41992, 185.69336, 190.98438, 195.69092, 198.81982, 201.86963, 206.22461, " y="515, ">
				property.
		</text>
		<rect fill="white" x="176" y="420" width="53" height="16"/>
		<text font-size="12" font-weight="600" font-family="Segoe UI" x="176, 186.99219, 194.32812, 201.75781, 205.16797, 209.76758, 213.17773, 219.66992, " y="433, ">
				modified
		</text>
		<rect fill="none" stroke="black" stroke-width="1" stroke-linecap="square" stroke-miterlimit="4" transform="translate(0.5 0.5)" x="167" y="418" width="68" height="20"/>
		<rect fill="silver" x="171" y="528" width="59" height="21"/>
		<rect fill="white" x="167" y="524" width="59" height="21"/>
		<rect fill="white" x="172" y="551" width="118" height="108"/>
		<text fill="gray" font-size="9" font-family="Segoe UI" x="172, 174.39502, 177.21191, 179.67725, 183.49609, 188.20264, 191.25244, 193.71777, 196.76758, 202.04102, 204.50635, 207.55615, 210.68506, 215.77832, 220.48486, 222.9502, 226, 231.09326, " y="561, ">
				If set to true the
		</text>
		<text fill="gray" font-size="9" font-family="Segoe UI" x="172, 176.15723, 181.43066, 184.55957, 187.68848, 192.39502, 196.21387, 201.50488, 206.77832, 211.87158, 217.17139, 219.35107, 224.44434, 229.74414, 232.20947, 237.50049, 240.62939, 245.90283, 251.19385, 255.90039, 259.0293, 262.0791, 266.43408, 268.89941, 275.40332, 279.98242, " y="573, ">
				corresponding property was
		</text>
		<text fill="gray" font-size="9" font-family="Segoe UI" x="172, 176.5791, 181.87891, 187.17871, 191.88525, 197.18506, 199.65039, 202.7002, 207.97363, 210.43896, 213.48877, 218.58203, 223.28857, 225.75391, 231.92822, 236.77979, 239.24512, 241.64014, 244.68994, 249.39648, 257.14844, 259.61377, 262.43066, 267.7041, 270.83301, 273.29834, " y="585, ">
				added to the G2 Item for a
		</text>
		<text fill="gray" font-size="9" font-family="Segoe UI" x="172, 175.81885, 181.10986, 185.81641, 189.97363, 192.15332, 194.97021, 197.1499, 201.30713, 203.77246, 207.92969, 213.02295, 216.8418, 219.8916, 225.16504, 232.91699, 237.62354, 240.75244, 243.21777, 248.49121, 251.62012, 254.08545, 259.38525, 262.51416, 267.7876, 272.88086, 278.17188, 280.63721, 285.91064, " y="597, ">
				specific customer or group of
		</text>
		<text fill="gray" font-size="9" font-family="Segoe UI" x="172, 176.15723, 181.25049, 185.06934, 188.11914, 193.39258, 201.14453, 205.85107, 208.97998, 212.79883, 215.26416, 220.5376, 225.63086, 227.81055, 232.16553, 234.1167, 236.58203, 241.29736, 246.39062, 251.09717, 253.5625, 258.8623, 263.56885, 266.38574, 270.96484, 276.05811, 278.23779, " y="609, ">
				customers only. The default
		</text>
		<text fill="gray" font-size="9" font-family="Segoe UI" x="172, 176.31104, 180.89014, 183.06982, 188.16309, 192.86963, 195.33496, 200.6084, 203.42529, 205.89062, 208.94043, 214.03369, 216.21338, 220.03223, 222.49756, 227.78857, 230.91748, 236.19092, 241.48193, 246.18848, 249.31738, 252.36719, 256.72217, 259.1875, 261.36719, 265.18604, 267.65137, 270.46826, 275.04736, 277.22705, 281.0459, " y="621, ">
				value of this property is false
		</text>
		<text fill="gray" font-size="9" font-family="Segoe UI" x="172, 178.50391, 183.59717, 185.77686, 189.93408, 195.02734, 197.49268, 202.07178, 207.36279, 212.65381, 214.8335, 217.01318, 221.71973, 225.53857, 228.00391, 234.50781, 239.60107, 244.30762, 249.40088, 251.86621, 254.91602, 260.00928, 262.18896, " y="633, ">
				which applies when this
		</text>
		<text fill="gray" font-size="9" font-family="Segoe UI" x="172, 176.5791, 179.62891, 182.67871, 185.80762, 187.9873, 193.27832, 198.37158, 201.42139, 206.12793, 208.59326, 210.77295, 214.5918, 217.05713, 222.15039, 227.42383, 230.47363, 232.93896, 238.03223, 241.85107, 246.55762, 251.85742, 254.32275, 260.82666, 263.00635, 266.05615, 271.14941, 273.61475, 276.66455, 281.75781, " y="645, ">
				attribute is not used with the
		</text>
		<text fill="gray" font-size="9" font-family="Segoe UI" x="172, 177.29102, 180.41992, 185.69336, 190.98438, 195.69092, 198.81982, 201.86963, 206.22461, " y="657, ">
				property.
		</text>
		<rect fill="white" x="176" y="526" width="43" height="16"/>
		<text font-size="12" font-weight="600" font-family="Segoe UI" x="176, 181.75977, 189.01953, 194.29883, 198.92188, 206.25781, " y="539, ">
				custom
		</text>
		<rect fill="none" stroke="black" stroke-width="1" stroke-linecap="square" stroke-miterlimit="4" transform="translate(0.5 0.5)" x="167" y="524" width="58" height="20"/>
		<rect fill="silver" x="171" y="670" width="52" height="21"/>
		<rect fill="white" x="167" y="666" width="52" height="21"/>
		<rect fill="white" x="172" y="693" width="118" height="48"/>
		<text fill="gray" font-size="9" font-family="Segoe UI" x="172, 174.39502, 179.48828, 184.78809, 186.96777, 191.125, 195.7041, 198.75391, 203.46045, 207.2793, 209.74463, 215.03564, 219.39062, 221.85596, 228.35986, 233.45312, 235.63281, 239.79004, 244.8833, 247.34863, 255.10059, 259.80713, 264.38623, 269.47949, 273.29834, 275.76367, 278.81348, 283.90674, " y="703, ">
				Indicates by which means the
		</text>
		<text fill="gray" font-size="9" font-family="Segoe UI" x="172, 176.31104, 180.89014, 183.06982, 188.16309, 192.86963, 195.33496, 201.83887, 206.41797, 210.23682, 212.70215, 217.40869, 221.53955, 224.58936, 227.71826, 232.29736, 236.45459, 239.50439, 244.21094, 249.51074, 251.97607, 254.79297, 257.92188, 263.19531, 270.94727, 273.4126, 276.4624, 281.55566, " y="715, ">
				value was extracted from the
		</text>
		<text fill="gray" font-size="9" font-family="Segoe UI" x="172, 176.15723, 181.43066, 186.52393, 189.57373, 194.28027, 199.37354, 202.42334, 204.88867, 208.48779, 210.95312, 215.65967, 219.79053, 225.08154, 228.21045, 232.91699, 236.73584, 240.55469, 245.26123, 250.56104, 253.02637, 258.31738, 262.67236, 265.1377, " y="727, ">
				content - expressed by a
		</text>
		<text fill="gray" font-size="9" font-family="Segoe UI" x="172, 178.78516, 184.35742, 189.63086, 194.93066, " y="739, ">
				QCode
		</text>
		<rect fill="white" x="176" y="668" width="36" height="16"/>
		<text font-size="12" font-weight="600" font-family="Segoe UI" x="176, 183.22461, 190.56055, " y="681, ">
				how
		</text>
		<rect fill="none" stroke="black" stroke-width="1" stroke-linecap="square" stroke-miterlimit="4" transform="translate(0.5 0.5)" x="167" y="666" width="51" height="20"/>
		<rect fill="silver" x="171" y="752" width="57" height="21"/>
		<rect fill="white" x="167" y="748" width="57" height="21"/>
		<rect fill="white" x="172" y="775" width="118" height="36"/>
		<text fill="gray" font-size="9" font-family="Segoe UI" x="172, 174.39502, 179.48828, 184.78809, 186.96777, 191.125, 195.7041, 198.75391, 203.46045, 207.2793, 209.74463, 215.03564, 219.39062, 221.85596, 228.35986, 233.45312, 235.63281, 239.79004, 244.8833, 247.34863, 255.10059, 259.80713, 264.38623, 269.47949, 273.29834, 275.76367, 278.81348, 283.90674, " y="785, ">
				Indicates by which means the
		</text>
		<text fill="gray" font-size="9" font-family="Segoe UI" x="172, 176.31104, 180.89014, 183.06982, 188.16309, 192.86963, 195.33496, 201.83887, 206.41797, 210.23682, 212.70215, 217.40869, 221.53955, 224.58936, 227.71826, 232.29736, 236.45459, 239.50439, 244.21094, 249.51074, 251.97607, 254.79297, 257.92188, 263.19531, 270.94727, 273.4126, 276.4624, 281.55566, " y="797, ">
				value was extracted from the
		</text>
		<text fill="gray" font-size="9" font-family="Segoe UI" x="172, 176.15723, 181.43066, 186.52393, 189.57373, 194.28027, 199.37354, 202.42334, 204.88867, 208.48779, 210.95312, 215.65967, 219.79053, 225.08154, 228.21045, 232.91699, 236.73584, 240.55469, 245.26123, 250.56104, 253.02637, 258.31738, 262.67236, 265.1377, 269.7168, 272.18213, 278.36523, 283.74854, " y="809, ">
				content - expressed by a URI
		</text>
		<rect fill="white" x="176" y="750" width="41" height="16"/>
		<text font-size="12" font-weight="600" font-family="Segoe UI" x="176, 183.22461, 190.56055, 200.12891, 207.38867, 212.21094, " y="763, ">
				howuri
		</text>
		<rect fill="none" stroke="black" stroke-width="1" stroke-linecap="square" stroke-miterlimit="4" transform="translate(0.5 0.5)" x="167" y="748" width="56" height="20"/>
		<rect fill="silver" x="171" y="822" width="52" height="21"/>
		<rect fill="white" x="167" y="818" width="52" height="21"/>
		<rect fill="white" x="172" y="845" width="113" height="36"/>
		<text fill="gray" font-size="9" font-family="Segoe UI" x="172, 180.40674, 185.5, 189.85498, 192.32031, 195.37012, 200.46338, 205.16992, 207.63525, 215.38721, 220.09375, 223.14355, 227.72266, 233.02246, 237.60156, 240.65137, 245.23047, 247.6958, 252.78906, 257.36816, 261.18701, 263.65234, 268.94336, 273.6499, 278.35645, " y="855, ">
				Why the metadata has been
		</text>
		<text fill="gray" font-size="9" font-family="Segoe UI" x="172, 174.17969, 179.27295, 183.43018, 185.60986, 190.70312, 196.00293, 200.70947, 206.00928, 208.47461, 212.07373, 214.53906, 219.24561, 223.37646, 228.66748, 231.79639, 236.50293, 240.32178, 244.14062, 248.84717, 254.14697, 256.6123, 261.90332, 266.2583, 268.72363, " y="867, ">
				included - expressed by a
		</text>
		<text fill="gray" font-size="9" font-family="Segoe UI" x="172, 178.78516, 184.35742, 189.63086, 194.93066, " y="879, ">
				QCode
		</text>
		<rect fill="white" x="176" y="820" width="36" height="16"/>
		<text font-size="12" font-weight="600" font-family="Segoe UI" x="176, 185.56836, 192.79297, " y="833, ">
				why
		</text>
		<rect fill="none" stroke="black" stroke-width="1" stroke-linecap="square" stroke-miterlimit="4" transform="translate(0.5 0.5)" x="167" y="818" width="51" height="20"/>
		<rect fill="silver" x="171" y="892" width="56" height="21"/>
		<rect fill="white" x="167" y="888" width="56" height="21"/>
		<rect fill="white" x="172" y="915" width="119" height="24"/>
		<text fill="gray" font-size="9" font-family="Segoe UI" x="172, 180.40674, 185.5, 189.85498, 192.32031, 195.37012, 200.46338, 205.16992, 207.63525, 215.38721, 220.09375, 223.14355, 227.72266, 233.02246, 237.60156, 240.65137, 245.23047, 247.6958, 252.78906, 257.36816, 261.18701, 263.65234, 268.94336, 273.6499, 278.35645, " y="925, ">
				Why the metadata has been
		</text>
		<text fill="gray" font-size="9" font-family="Segoe UI" x="172, 174.17969, 179.27295, 183.43018, 185.60986, 190.70312, 196.00293, 200.70947, 206.00928, 208.47461, 212.07373, 214.53906, 219.24561, 223.37646, 228.66748, 231.79639, 236.50293, 240.32178, 244.14062, 248.84717, 254.14697, 256.6123, 261.90332, 266.2583, 268.72363, 273.30273, 275.76807, 281.95117, 287.33447, " y="937, ">
				included - expressed by a URI
		</text>
		<rect fill="white" x="176" y="890" width="40" height="16"/>
		<text font-size="12" font-weight="600" font-family="Segoe UI" x="176, 185.56836, 192.79297, 199.25, 206.50977, 211.33203, " y="903, ">
				whyuri
		</text>
		<rect fill="none" stroke="black" stroke-width="1" stroke-linecap="square" stroke-miterlimit="4" transform="translate(0.5 0.5)" x="167" y="888" width="55" height="20"/>
		<rect fill="silver" x="171" y="950" width="97" height="21"/>
		<rect fill="white" x="167" y="946" width="97" height="21"/>
		<rect fill="white" x="172" y="973" width="117" height="72"/>
		<text fill="gray" font-size="9" font-family="Segoe UI" x="172, 178.78516, 183.87842, 188.58496, 191.05029, 196.32373, 199.45264, 201.91797, 209.66992, 214.24902, 219.34229, 223.69727, 226.1626, 230.31982, 235.59326, 240.68652, 244.50537, 247.55518, 250.68408, 255.26318, 257.44287, 262.53613, 265.58594, 269.40479, 271.87012, 274.91992, 280.01318, 284.59229, " y="983, ">
				One or many constraints that
		</text>
		<text fill="gray" font-size="9" font-family="Segoe UI" x="172, 176.5791, 181.87012, 187.16113, 189.34082, 193.6958, 196.16113, 199.21094, 204.48438, 206.94971, 212.24072, 217.33398, 222.625, 224.80469, 226.98438, 230.80322, 235.89648, 238.07617, 243.16943, 248.46924, 250.93457, 253.98438, 259.07764, 263.78418, 266.24951, 270.56055, 275.13965, 277.31934, 282.4126, " y="995, ">
				apply to publishing the value
		</text>
		<text fill="gray" font-size="9" font-family="Segoe UI" x="172, 177.27344, 180.09033, 182.55566, 185.60547, 190.69873, 195.40527, 197.87061, 203.16162, 206.29053, 211.56396, 216.85498, 221.56152, 224.69043, 227.74023, 232.09521, 234.56055, 238.15967, 240.625, 245.33154, 249.4624, 254.75342, 257.88232, 262.58887, 266.40771, 270.22656, 274.93311, " y="1007, ">
				of the property - expressed
		</text>
		<text fill="gray" font-size="9" font-family="Segoe UI" x="172, 177.29102, 181.646, 184.11133, 188.69043, 191.15576, 197.94092, 203.51318, 208.78662, 214.08643, 218.79297, 220.74414, 223.20947, 227.76221, 232.34131, 236.49854, 241.5918, 244.05713, 248.21436, 253.48779, 258.58105, 262.3999, 265.44971, 268.57861, 273.15771, 275.3374, 280.43066, " y="1019, ">
				by a QCode. Each constraint
		</text>
		<text fill="gray" font-size="9" font-family="Segoe UI" x="172, 176.5791, 181.87012, 187.16113, 189.34082, 191.52051, 196.22705, 200.0459, 202.51123, 205.56104, 210.83447, 213.2998, 217.87891, 220.05859, 222.23828, 224.70361, 230.00342, 234.70996, 238.52881, 242.68604, 247.39258, 252.48584, 257.78564, 262.36475, 267.45801, " y="1031, ">
				applies to all descendant
		</text>
		<text fill="gray" font-size="9" font-family="Segoe UI" x="172, 176.70654, 178.88623, 183.59277, 191.34473, 196.05127, 201.14453, 204.19434, 208.01318, " y="1043, ">
				elements.
		</text>
		<rect fill="white" x="176" y="948" width="81" height="16"/>
		<text font-size="12" font-weight="600" font-family="Segoe UI" x="176, 183.44141, 190.70117, 198.14258, 203.90234, 211.23828, 218.49805, 223.77734, 228.44727, 233.22266, 239.67969, 243.08984, 250.34961, " y="961, ">
				pubconstraint
		</text>
		<rect fill="none" stroke="black" stroke-width="1" stroke-linecap="square" stroke-miterlimit="4" transform="translate(0.5 0.5)" x="167" y="946" width="96" height="20"/>
		<rect fill="silver" x="171" y="1056" width="112" height="21"/>
		<rect fill="white" x="167" y="1052" width="112" height="21"/>
		<rect fill="white" x="172" y="1079" width="117" height="72"/>
		<text fill="gray" font-size="9" font-family="Segoe UI" x="172, 178.78516, 183.87842, 188.58496, 191.05029, 196.32373, 199.45264, 201.91797, 209.66992, 214.24902, 219.34229, 223.69727, 226.1626, 230.31982, 235.59326, 240.68652, 244.50537, 247.55518, 250.68408, 255.26318, 257.44287, 262.53613, 265.58594, 269.40479, 271.87012, 274.91992, 280.01318, 284.59229, " y="1089, ">
				One or many constraints that
		</text>
		<text fill="gray" font-size="9" font-family="Segoe UI" x="172, 176.5791, 181.87012, 187.16113, 189.34082, 193.6958, 196.16113, 199.21094, 204.48438, 206.94971, 212.24072, 217.33398, 222.625, 224.80469, 226.98438, 230.80322, 235.89648, 238.07617, 243.16943, 248.46924, 250.93457, 253.98438, 259.07764, 263.78418, 266.24951, 270.56055, 275.13965, 277.31934, 282.4126, " y="1101, ">
				apply to publishing the value
		</text>
		<text fill="gray" font-size="9" font-family="Segoe UI" x="172, 177.27344, 180.09033, 182.55566, 185.60547, 190.69873, 195.40527, 197.87061, 203.16162, 206.29053, 211.56396, 216.85498, 221.56152, 224.69043, 227.74023, 232.09521, 234.56055, 238.15967, 240.625, 245.33154, 249.4624, 254.75342, 257.88232, 262.58887, 266.40771, 270.22656, 274.93311, " y="1113, ">
				of the property - expressed
		</text>
		<text fill="gray" font-size="9" font-family="Segoe UI" x="172, 177.29102, 181.646, 184.11133, 188.69043, 191.15576, 197.33887, 202.72217, 205.11719, 207.06836, 209.53369, 214.08643, 218.66553, 222.82275, 227.91602, 230.38135, 234.53857, 239.81201, 244.90527, 248.72412, 251.77393, 254.90283, 259.48193, 261.66162, 266.75488, " y="1125, ">
				by a URI. Each constraint
		</text>
		<text fill="gray" font-size="9" font-family="Segoe UI" x="172, 176.5791, 181.87012, 187.16113, 189.34082, 191.52051, 196.22705, 200.0459, 202.51123, 205.56104, 210.83447, 213.2998, 217.87891, 220.05859, 222.23828, 224.70361, 230.00342, 234.70996, 238.52881, 242.68604, 247.39258, 252.48584, 257.78564, 262.36475, 267.45801, " y="1137, ">
				applies to all descendant
		</text>
		<text fill="gray" font-size="9" font-family="Segoe UI" x="172, 176.70654, 178.88623, 183.59277, 191.34473, 196.05127, 201.14453, 204.19434, 208.01318, " y="1149, ">
				elements.
		</text>
		<rect fill="white" x="176" y="1054" width="96" height="16"/>
		<text font-size="12" font-weight="600" font-family="Segoe UI" x="176, 183.44141, 190.70117, 198.14258, 203.90234, 211.23828, 218.49805, 223.77734, 228.44727, 233.22266, 239.67969, 243.08984, 250.34961, 255.01953, 262.2793, 267.10156, " y="1067, ">
				pubconstrainturi
		</text>
		<rect fill="none" stroke="black" stroke-width="1" stroke-linecap="square" stroke-miterlimit="4" transform="translate(0.5 0.5)" x="167" y="1052" width="111" height="20"/>
		<rect fill="silver" x="171" y="1162" width="52" height="21"/>
		<rect fill="white" x="167" y="1158" width="52" height="21"/>
		<rect fill="white" x="172" y="1185" width="121" height="72"/>
		<text fill="gray" font-size="9" font-family="Segoe UI" x="172, 177.80518, 180.27051, 184.42773, 189.70117, 194.79443, 198.95166, 203.6582, 208.94922, 211.99902, 214.46436, 216.64404, 221.94385, 226.65039, 231.74365, 234.79346, 236.97314, 239.79004, 241.96973, 246.67627, 249.80518, 252.27051, 256.97705, 261.10791, 266.39893, 269.52783, 274.23438, 278.05322, 281.87207, 286.57861, " y="1195, ">
				A concept identifier expressed
		</text>
		<text fill="gray" font-size="9" font-family="Segoe UI" x="172, 176.5791, 180.39795, 182.86328, 187.44238, 189.90771, 193.72656, 196.77637, 199.90527, 202.08496, 207.17822, 212.47803, 214.94336, 220.2168, 223.03369, 225.49902, 228.54883, 233.64209, 238.34863, 240.81396, 243.63086, 248.9043, 252.0332, 259.78516, 262.25049, 266.06934, 269.88818, 273.70703, 275.6582, 279.81543, 283.97266, 288.12988, " y="1207, ">
				as a string of the form sss:ccc,
		</text>
		<text fill="gray" font-size="9" font-family="Segoe UI" x="172, 178.50391, 183.59717, 188.30371, 191.43262, 196.13916, 198.60449, 202.42334, 206.24219, 210.06104, 212.52637, 214.70605, 218.5249, 220.99023, 225.56934, 228.03467, 231.85352, 236.01074, 241.104, 245.81055, 253.5625, 258.26904, 260.73438, 265.31348, 267.49316, 269.67285, 274.25195, " y="1219, ">
				where sss is a scheme alias
		</text>
		<text fill="gray" font-size="9" font-family="Segoe UI" x="172, 176.5791, 181.67236, 186.97217, 189.4375, 193.59473, 197.75195, 201.90918, 204.37451, 206.5542, 210.37305, 212.83838, 217.41748, 219.88281, 224.04004, 229.31348, 234.61328, 239.31982, 241.271, 243.73633, 248.28906, 250.46875, 253.51855, 258.61182, 263.31836, 266.44727, 268.9126, 271.9624, 277.05566, " y="1231, ">
				and ccc is a code. Either the
		</text>
		<text fill="gray" font-size="9" font-family="Segoe UI" x="172, 177.2998, 181.45703, 186.73047, 192.03027, 196.73682, 199.20215, 204.47559, 207.60449, 210.06982, 213.11963, 218.21289, 222.91943, 225.38477, 230.47803, 233.60693, 235.78662, 238.25195, 242.83105, 245.88086, 248.93066, 252.05957, 254.23926, 259.53027, 264.62354, 267.67334, " y="1243, ">
				qcode or the uri attribute
		</text>
		<text fill="gray" font-size="9" font-family="Segoe UI" x="172, 180.08154, 186.26465, 191.0459, 195.76123, 198.22656, 203.51758, 208.22412, 210.68945, 215.78271, 219.60156, 224.30811, " y="1255, ">
				MUST be used
		</text>
		<rect fill="white" x="176" y="1160" width="36" height="16"/>
		<text font-size="12" font-weight="600" font-family="Segoe UI" x="176, 183.42969, 189.18945, 196.52539, 203.95508, " y="1173, ">
				qcode
		</text>
		<rect fill="none" stroke="black" stroke-width="1" stroke-linecap="square" stroke-miterlimit="4" transform="translate(0.5 0.5)" x="167" y="1158" width="51" height="20"/>
		<rect fill="silver" x="171" y="1268" width="52" height="21"/>
		<rect fill="white" x="167" y="1264" width="52" height="21"/>
		<rect fill="white" x="172" y="1291" width="113" height="48"/>
		<text fill="gray" font-size="9" font-family="Segoe UI" x="172, 177.80518, 180.27051, 186.45361, 191.83691, 194.23193, 196.69727, 203.20117, 208.29443, 210.47412, 214.63135, 219.72461, 222.18994, 224.36963, 229.66943, 234.37598, 239.46924, 242.51904, 244.69873, 247.51562, 249.69531, 254.40186, 258.2207, 260.68604, " y="1301, ">
				A URI which identifies a
		</text>
		<text fill="gray" font-size="9" font-family="Segoe UI" x="172, 176.15723, 181.43066, 186.52393, 190.68115, 195.3877, 200.67871, 203.72852, 208.65918, 212.2583, 214.72363, 219.43018, 221.60986, 224.65967, 229.75293, 234.45947, 237.58838, 240.05371, 243.10352, 248.19678, 252.90332, 257.83398, 263.13379, 267.29102, 272.56445, 277.86426, " y="1313, ">
				concept - either the qcode
		</text>
		<text fill="gray" font-size="9" font-family="Segoe UI" x="172, 177.27344, 180.40234, 182.86768, 185.91748, 191.01074, 195.71729, 198.18262, 203.27588, 206.40479, 208.58447, 211.0498, 215.62891, 218.67871, 221.72852, 224.85742, 227.03711, 232.32812, 237.42139, 240.47119, 245.17773, 247.64307, 255.72461, 261.90771, 266.68896, 271.4043, 273.86963, 279.16064, " y="1325, ">
				or the uri attribute MUST be
		</text>
		<text fill="gray" font-size="9" font-family="Segoe UI" x="172, 177.09326, 180.91211, 185.61865, " y="1337, ">
				used
		</text>
		<rect fill="white" x="176" y="1266" width="36" height="16"/>
		<text font-size="12" font-weight="600" font-family="Segoe UI" x="176, 183.25977, 188.08203, " y="1279, ">
				uri
		</text>
		<rect fill="none" stroke="black" stroke-width="1" stroke-linecap="square" stroke-miterlimit="4" transform="translate(0.5 0.5)" x="167" y="1264" width="51" height="20"/>
		<path fill="silver" d="M171 1355L176 1350L244 1350L249 1355L249 1366L244 1371L176 1371L171 1366L171 1355Z"/>
		<path fill="white" d="M167 1351L172 1346L240 1346L245 1351L245 1362L240 1367L172 1367L167 1362L167 1351Z"/>
		<rect fill="white" x="194" y="1348" width="46" height="16"/>
		<text font-size="12" font-weight="600" font-family="Segoe UI" x="194, 201.10742, 208.21484, 215.55078, 220.2207, 227.44531, 233.9375, " y="1361, ">
				##other
		</text>
		<rect fill="white" x="172" y="1348" width="20" height="16"/>
		<text fill="gray" font-size="12" font-family="Segoe UI" x="172, 178.10547, 184.89648, " y="1361, ">
				any
		</text>
		<path fill="none" stroke="black" stroke-width="1" stroke-linecap="square" stroke-miterlimit="4" transform="translate(0.5 0.5)" d="M167 1351L172 1346L239 1346L244 1351L244 1361L239 1366L172 1366L167 1361L167 1351Z"/>
		<rect fill="silver" x="171" y="1378" width="66" height="21"/>
		<rect fill="white" x="167" y="1374" width="66" height="21"/>
		<rect fill="white" x="172" y="1401" width="121" height="84"/>
		<text fill="gray" font-size="9" font-family="Segoe UI" x="172, 176.78125, 182.07227, 186.77881, 190.93604, 193.11572, 195.93262, 198.1123, 202.81885, 206.6377, 209.10303, 212.15283, 217.24609, 221.95264, 224.41797, 226.59766, 231.17676, 236.27002, 241.56982, 246.66309, 251.24219, 256.54199, 261.24854, 263.71387, 268.9873, 271.8042, 274.26953, 277.31934, 282.4126, 284.59229, " y="1411, ">
				Specifies the language of this
		</text>
		<text fill="gray" font-size="9" font-family="Segoe UI" x="172, 177.29102, 180.41992, 185.69336, 190.98438, 195.69092, 198.81982, 201.86963, 206.22461, 208.68994, 213.26904, 218.3623, 223.66211, 226.12744, 231.41846, 236.69189, 239.7417, 244.44824, 249.5415, 252.59131, 254.771, 259.3501, 261.52979, 263.70947, 268.06445, 270.52979, 275.10889, 277.28857, " y="1423, ">
				property and potentially all
		</text>
		<text fill="gray" font-size="9" font-family="Segoe UI" x="172, 177.2998, 182.00635, 185.8252, 189.98242, 194.68896, 199.78223, 205.08203, 209.66113, 214.75439, 217.8042, 220.26953, 225.56055, 228.68945, 233.96289, 239.25391, 243.96045, 247.08936, 250.13916, 252.31885, 257.02539, 260.84424, " y="1435, ">
				descendant properties.
		</text>
		<text fill="gray" font-size="9" font-family="Segoe UI" x="172, 176.13086, 183.88281, 186.0625, 188.01367, 190.19336, 194.77246, 199.86572, 205.16553, 207.63086, 211.94189, 216.521, 218.70068, 223.79395, 228.50049, 232.31934, 234.78467, 240.05811, 242.875, 245.34033, 250.64014, 255.34668, 259.16553, 263.32275, 268.0293, 273.12256, 278.42236, 283.00146, 288.09473, " y="1447, ">
				xml:lang values of descendant
		</text>
		<text fill="gray" font-size="9" font-family="Segoe UI" x="172, 177.29102, 180.41992, 185.69336, 190.98438, 195.69092, 198.81982, 201.86963, 204.04932, 208.75586, 212.57471, 215.04004, 220.31348, 224.62451, 229.33105, 232.45996, 235.58887, 237.76855, 243.06836, 247.7749, 250.24023, 253.29004, 258.3833, 260.56299, 264.38184, 266.84717, 271.1582, 275.7373, 277.91699, 283.01025, 287.7168, " y="1459, ">
				properties override this value.
		</text>
		<text fill="gray" font-size="9" font-family="Segoe UI" x="172, 176.93066, 181.50977, 183.68945, 188.78271, 193.48926, 197.30811, 199.77344, 204.35254, 207.48145, 212.18799, 214.65332, 219.95312, 224.65967, 227.70947, 232.41602, 235.54492, 243.29688, 245.47656, 250.56982, 255.27637, 260.57617, 263.0415, 268.33252, " y="1471, ">
				Values are determined by
		</text>
		<text fill="gray" font-size="9" font-family="Segoe UI" x="172, 174.39502, 179.48828, 182.53809, 187.24463, 190.37354, 195.4668, 200.17334, 203.22314, 205.68848, 210.84766, 216.41992, 221.46045, 223.92578, 228.77734, 233.62891, " y="1483, ">
				Internet BCP 47.
		</text>
		<rect fill="white" x="176" y="1376" width="50" height="16"/>
		<text font-size="12" font-weight="600" font-family="Segoe UI" x="176, 182.62695, 193.61914, 197.0293, 200.28125, 203.69141, 210.14844, 217.4082, " y="1389, ">
				xml:lang
		</text>
		<path fill="none" stroke="black" stroke-width="2" stroke-miterlimit="4" transform="translate(0.5 0.5)" d="M169 1392L173 1388"/>
		<path fill="none" stroke="black" stroke-width="1" stroke-linecap="square" stroke-miterlimit="4" transform="translate(0.5 0.5)" d="M170 1388L173 1388L173 1391"/>
		<rect fill="none" stroke="black" stroke-width="1" stroke-linecap="square" stroke-miterlimit="4" transform="translate(0.5 0.5)" x="167" y="1374" width="65" height="20"/>
		<rect fill="silver" x="171" y="1496" width="52" height="21"/>
		<rect fill="white" x="167" y="1492" width="52" height="21"/>
		<rect fill="white" x="172" y="1519" width="116" height="24"/>
		<text fill="gray" font-size="9" font-family="Segoe UI" x="172, 176.71533, 181.80859, 186.51514, 188.98047, 194.28027, 196.45996, 199.58887, 204.29541, 208.45264, 211.50244, 213.68213, 218.95557, 224.04883, 228.62793, 230.80762, 232.9873, 236.03711, 240.39209, 242.85742, 248.13086, 250.94775, 253.41309, 256.46289, 261.16943, 265.30029, 268.3501, 273.44336, 278.02246, " y="1529, ">
				The directionality of textual
		</text>
		<text fill="gray" font-size="9" font-family="Segoe UI" x="172, 176.15723, 181.43066, 186.52393, 189.57373, 194.28027, 199.37354, 202.42334, 204.88867, 207.60449, 212.31104, 217.4043, 222.49756, 230.24951, 234.95605, 238.08496, 242.66406, 245.71387, 247.89355, 253.16699, 258.26025, 260.21143, 262.67676, 264.85645, 267.90625, 271.03516, 272.98633, 275.45166, 278.58057, 281.63037, 283.81006, " y="1541, ">
				content (enumeration: ltr, rtl)
		</text>
		<rect fill="white" x="176" y="1494" width="36" height="16"/>
		<text font-size="12" font-weight="600" font-family="Segoe UI" x="176, 183.42969, 186.83984, " y="1507, ">
				dir
		</text>
		<rect fill="none" stroke="black" stroke-width="1" stroke-linecap="square" stroke-miterlimit="4" transform="translate(0.5 0.5)" x="167" y="1492" width="51" height="20"/>
		<rect x="158" y="41" width="11" height="11"/>
		<rect fill="white" x="159" y="42" width="9" height="9"/>
		<rect x="160" y="46" width="7" height="1"/>
		<path fill="none" stroke="black" stroke-width="1" stroke-linecap="square" stroke-miterlimit="4" transform="translate(0.5 0.5)" d="M198 1603L206 1603"/>
		<path fill="none" stroke="black" stroke-width="1" stroke-linecap="square" stroke-miterlimit="4" transform="translate(0.5 0.5)" d="M207 1603L207 1573"/>
		<path fill="none" stroke="black" stroke-width="1" stroke-linecap="square" stroke-miterlimit="4" transform="translate(0.5 0.5)" d="M207 1603L207 1634"/>
		<path fill="none" stroke="black" stroke-width="1" stroke-linecap="square" stroke-miterlimit="4" transform="translate(0.5 0.5)" d="M207 1572L221 1572"/>
		<path fill="none" stroke="black" stroke-width="1" stroke-linecap="square" stroke-miterlimit="4" transform="translate(0.5 0.5)" d="M207 1635L221 1635"/>
		<path fill="silver" d="M160 1605L165 1600L190 1600L195 1605L195 1616L190 1621L165 1621L160 1616L160 1605Z"/>
		<path fill="white" d="M156 1601L161 1596L185 1596L190 1601L190 1611L185 1616L161 1616L156 1611L156 1601Z"/>
		<path transform="translate(0.5 0.5)" d="M159.889 1596.4L160.793 1595.5L161.929 1595.5L162.429 1595.5L162.429 1596.5L161.929 1596.5L161 1596.5L161 1596L161.354 1596.35L160.243 1597.46L159.536 1596.76L159.889 1596.4ZM165.929 1595.5L167.929 1595.5L168.429 1595.5L168.429 1596.5L167.929 1596.5L165.429 1596.5L165.429 1595.5L165.929 1595.5ZM171.929 1595.5L173.929 1595.5L174.429 1595.5L174.429 1596.5L173.929 1596.5L171.429 1596.5L171.429 1595.5L171.929 1595.5ZM177.929 1595.5L179.929 1595.5L180.429 1595.5L180.429 1596.5L179.929 1596.5L177.429 1596.5L177.429 1595.5L177.929 1595.5ZM183.929 1595.5L185.207 1595.5L186.01 1596.3L186.364 1596.66L185.657 1597.36L185.303 1597.01L184.646 1596.35L185 1596L185 1596.5L183.429 1596.5L183.429 1595.5L183.929 1595.5ZM188.839 1599.13L190.253 1600.55L190.607 1600.9L189.899 1601.61L189.546 1601.25L187.778 1599.49L188.485 1598.78L188.839 1599.13ZM190.5 1604.86L190.5 1606.86L190.5 1607.36L189.5 1607.36L189.5 1606.86L189.5 1604.36L190.5 1604.36L190.5 1604.86ZM190.5 1610.86L190.5 1611.21L189.04 1612.67L188.686 1613.02L187.979 1612.31L188.333 1611.96L189.646 1610.65L190 1611L189.5 1611L189.5 1610.36L190.5 1610.36L190.5 1610.86ZM186.211 1615.5L185.207 1616.5L184.213 1616.5L183.713 1616.5L183.713 1615.5L184.213 1615.5L185 1615.5L185 1616L184.646 1615.65L185.858 1614.44L186.565 1615.14L186.211 1615.5ZM180.213 1616.5L178.213 1616.5L177.713 1616.5L177.713 1615.5L178.213 1615.5L180.713 1615.5L180.713 1616.5L180.213 1616.5ZM174.213 1616.5L172.213 1616.5L171.713 1616.5L171.713 1615.5L172.213 1615.5L174.713 1615.5L174.713 1616.5L174.213 1616.5ZM168.213 1616.5L166.213 1616.5L165.713 1616.5L165.713 1615.5L166.213 1615.5L168.713 1615.5L168.713 1616.5L168.213 1616.5ZM162.213 1616.5L160.793 1616.5L160.09 1615.8L159.737 1615.44L160.444 1614.74L160.797 1615.09L161.354 1615.65L161 1616L161 1615.5L162.713 1615.5L162.713 1616.5L162.213 1616.5ZM157.262 1612.97L155.847 1611.55L155.494 1611.2L156.201 1610.49L156.555 1610.85L158.322 1612.62L157.615 1613.32L157.262 1612.97ZM155.5 1607.28L155.5 1605.28L155.5 1604.78L156.5 1604.78L156.5 1605.28L156.5 1607.78L155.5 1607.78L155.5 1607.28ZM155.5 1601.28L155.5 1600.79L157.414 1598.88L158.121 1599.59L156.354 1601.35L156 1601L156.5 1601L156.5 1601.78L155.5 1601.78L155.5 1601.28Z"/>
		<path fill="white" d="M153 1598L158 1593L183 1593L188 1598L188 1609L183 1614L158 1614L153 1609L153 1598Z"/>
		<path fill="none" stroke="black" stroke-width="1" stroke-linecap="square" stroke-miterlimit="4" transform="translate(0.5 0.5)" d="M172 1614L178 1620L181 1617"/>
		<path fill="none" stroke="black" stroke-width="1" stroke-linecap="square" stroke-miterlimit="4" transform="translate(0.5 0.5)" d="M158 1603L163 1603L167 1599"/>
		<path fill="none" stroke="black" stroke-width="1" stroke-linecap="square" stroke-miterlimit="4" transform="translate(0.5 0.5)" d="M173 1603L181 1603"/>
		<path fill="none" stroke="black" stroke-width="1" stroke-linecap="square" stroke-miterlimit="4" transform="translate(0.5 0.5)" d="M173 1599L177 1599L177 1607L173 1607"/>
		<rect x="169" y="1598" width="3" height="3"/>
		<rect x="169" y="1602" width="3" height="3"/>
		<rect x="169" y="1606" width="3" height="3"/>
		<text font-size="12" font-family="Segoe UI" x="157.76562, " y="1633, ">
				0
		</text>
		<text font-size="12" font-family="Symbol" x="172.72266, " y="1632, ">
				
		</text>
		<text font-size="12" font-family="Segoe UI" x="165.89844, 168.5, " y="1633, ">
				..
		</text>
		<path transform="translate(0.5 0.5)" d="M156.889 1593.4L157.793 1592.5L158.929 1592.5L159.429 1592.5L159.429 1593.5L158.929 1593.5L158 1593.5L158 1593L158.354 1593.35L157.243 1594.46L156.536 1593.76L156.889 1593.4ZM162.929 1592.5L164.929 1592.5L165.429 1592.5L165.429 1593.5L164.929 1593.5L162.429 1593.5L162.429 1592.5L162.929 1592.5ZM168.929 1592.5L170.929 1592.5L171.429 1592.5L171.429 1593.5L170.929 1593.5L168.429 1593.5L168.429 1592.5L168.929 1592.5ZM174.929 1592.5L176.929 1592.5L177.429 1592.5L177.429 1593.5L176.929 1593.5L174.429 1593.5L174.429 1592.5L174.929 1592.5ZM180.929 1592.5L182.207 1592.5L183.01 1593.3L183.364 1593.66L182.657 1594.36L182.303 1594.01L181.646 1593.35L182 1593L182 1593.5L180.429 1593.5L180.429 1592.5L180.929 1592.5ZM185.839 1596.13L187.253 1597.55L187.607 1597.9L186.899 1598.61L186.546 1598.25L184.778 1596.49L185.485 1595.78L185.839 1596.13ZM187.5 1601.86L187.5 1603.86L187.5 1604.36L186.5 1604.36L186.5 1603.86L186.5 1601.36L187.5 1601.36L187.5 1601.86ZM187.5 1607.86L187.5 1608.21L186.04 1609.67L185.686 1610.02L184.979 1609.31L185.333 1608.96L186.646 1607.65L187 1608L186.5 1608L186.5 1607.36L187.5 1607.36L187.5 1607.86ZM183.211 1612.5L182.207 1613.5L181.213 1613.5L180.713 1613.5L180.713 1612.5L181.213 1612.5L182 1612.5L182 1613L181.646 1612.65L182.858 1611.44L183.565 1612.14L183.211 1612.5ZM177.213 1613.5L175.213 1613.5L174.713 1613.5L174.713 1612.5L175.213 1612.5L177.713 1612.5L177.713 1613.5L177.213 1613.5ZM171.213 1613.5L169.213 1613.5L168.713 1613.5L168.713 1612.5L169.213 1612.5L171.713 1612.5L171.713 1613.5L171.213 1613.5ZM165.213 1613.5L163.213 1613.5L162.713 1613.5L162.713 1612.5L163.213 1612.5L165.713 1612.5L165.713 1613.5L165.213 1613.5ZM159.213 1613.5L157.793 1613.5L157.09 1612.8L156.737 1612.44L157.444 1611.74L157.797 1612.09L158.354 1612.65L158 1613L158 1612.5L159.713 1612.5L159.713 1613.5L159.213 1613.5ZM154.262 1609.97L152.847 1608.55L152.494 1608.2L153.201 1607.49L153.555 1607.85L155.322 1609.62L154.615 1610.32L154.262 1609.97ZM152.5 1604.28L152.5 1602.28L152.5 1601.78L153.5 1601.78L153.5 1602.28L153.5 1604.78L152.5 1604.78L152.5 1604.28ZM152.5 1598.28L152.5 1597.79L154.414 1595.88L155.121 1596.59L153.354 1598.35L153 1598L153.5 1598L153.5 1598.78L152.5 1598.78L152.5 1598.28Z"/>
		<rect fill="silver" x="226" y="1566" width="54" height="21"/>
		<rect fill="white" x="222" y="1562" width="54" height="21"/>
		<rect fill="#FFFFC0" x="227" y="1589" width="115" height="24"/>
		<text fill="gray" font-size="9" font-family="Segoe UI" x="227, 232.80518, 235.27051, 240.36377, 244.94287, 247.99268, 253.08594, 256.21484, 260.79395, 262.97363, 265.43896, 267.61865, 272.19775, 277.29102, 282.59082, 287.68408, 292.26318, 297.56299, 302.26953, 304.73486, 309.82812, 314.40723, 322.15918, 326.86572, 329.33105, 332.14795, 337.42139, " y="1599, ">
				A natural language name for
		</text>
		<text fill="gray" font-size="9" font-family="Segoe UI" x="227, 230.0498, 235.14307, 239.84961, 242.31494, 246.47217, 251.74561, 256.83887, 260.99609, 265.70264, 270.99365, 274.04346, " y="1611, ">
				the concept.
		</text>
		<rect fill="white" x="231" y="1564" width="33" height="16"/>
		<text font-size="12" font-weight="600" font-family="Segoe UI" x="231, 238.25977, 244.7168, 255.70898, " y="1577, ">
				name
		</text>
		<path fill="none" stroke="black" stroke-width="1" stroke-linecap="square" stroke-miterlimit="4" transform="translate(0.5 0.5)" d="M224 1564L229 1564"/>
		<path fill="none" stroke="black" stroke-width="1" stroke-linecap="square" stroke-miterlimit="4" transform="translate(0.5 0.5)" d="M224 1566L228 1566"/>
		<path fill="none" stroke="black" stroke-width="1" stroke-linecap="square" stroke-miterlimit="4" transform="translate(0.5 0.5)" d="M224 1568L228 1568"/>
		<path fill="none" stroke="black" stroke-width="2" stroke-miterlimit="4" transform="translate(0.5 0.5)" d="M224 1580L228 1576"/>
		<path fill="none" stroke="black" stroke-width="1" stroke-linecap="square" stroke-miterlimit="4" transform="translate(0.5 0.5)" d="M225 1576L228 1576L228 1579"/>
		<rect fill="none" stroke="black" stroke-width="1" stroke-linecap="square" stroke-miterlimit="4" transform="translate(0.5 0.5)" x="222" y="1562" width="53" height="20"/>
		<rect x="270" y="1567" width="11" height="11"/>
		<rect fill="white" x="271" y="1568" width="9" height="9"/>
		<rect x="272" y="1572" width="7" height="1"/>
		<rect x="275" y="1569" width="1" height="7"/>
		<rect fill="silver" x="226" y="1629" width="98" height="21"/>
		<rect fill="white" x="222" y="1625" width="98" height="21"/>
		<rect fill="#FFFFC0" x="227" y="1652" width="121" height="72"/>
		<text fill="gray" font-size="9" font-family="Segoe UI" x="227, 232.11963, 236.82617, 242.11719, 245.24609, 249.95264, 253.77148, 258.47803, 263.57129, 266.62109, 270.43994, 272.90527, 275.95508, 281.04834, 285.75488, 288.22021, 293.51123, 298.78467, 302.60352, 304.7832, 307.83301, 310.0127, 315.28613, 320.37939, 322.84473, 328.11816, 330.93506, 333.40039, " y="1662, ">
				Represents the position of a
		</text>
		<text fill="gray" font-size="9" font-family="Segoe UI" x="227, 231.15723, 236.43066, 241.52393, 245.68115, 250.3877, 255.67871, 258.72852, 261.19385, 263.37354, 268.4668, 270.93213, 275.51123, 277.97656, 283.06982, 285.24951, 289.95605, 293.08496, 297.66406, 300.79297, 304.9502, 310.04346, 312.22314, 316.38037, 320.95947, " y="1674, ">
				concept in a hierarchical
		</text>
		<text fill="gray" font-size="9" font-family="Segoe UI" x="227, 230.0498, 234.62891, 238.75977, 244.0332, 249.12646, 254.3999, 262.15186, 266.50684, 268.97217, 272.02197, 275.15088, 279.85742, 284.56396, 287.0293, 292.32031, 296.67529, 299.14062, 303.71973, 306.18506, 310.00391, 314.71045, 320.01025, 325.10352, 329.81006, 334.90332, 339.06055, " y="1686, ">
				taxonomy tree by a sequence
		</text>
		<text fill="gray" font-size="9" font-family="Segoe UI" x="227, 232.27344, 235.09033, 237.55566, 244.34082, 249.91309, 255.18652, 260.48633, 265.19287, 267.6582, 270.70801, 275.98145, 280.45508, 285.16162, 290.25488, 294.07373, 296.53906, 299.66797, 304.37451, 309.66553, 312.79443, 317.50098, 321.31982, 326.02637, 331.11963, 334.16943, 336.34912, 341.44238, " y="1698, ">
				of QCode tokens representing
		</text>
		<text fill="gray" font-size="9" font-family="Segoe UI" x="227, 230.0498, 235.14307, 239.84961, 242.31494, 246.89404, 251.9873, 256.14453, 260.85107, 264.66992, 267.71973, 272.99316, 276.12207, 278.5874, 282.74463, 288.01807, 293.11133, 297.26855, 301.9751, 307.26611, 310.31592, 314.13477, 316.6001, 321.1792, 326.27246, " y="1710, ">
				the ancestor concepts and
		</text>
		<text fill="gray" font-size="9" font-family="Segoe UI" x="227, 230.0498, 235.14307, 237.32275, 241.1416, 243.60693, 247.76416, 253.0376, 258.13086, 262.28809, 266.99463, 272.28564, " y="1722, ">
				this concept
		</text>
		<rect fill="white" x="231" y="1627" width="77" height="16"/>
		<text font-size="12" font-weight="600" font-family="Segoe UI" x="231, 238.22461, 241.63477, 248.12695, 252.90234, 259.35938, 264.08789, 269.84766, 277.07227, 283.5293, 287.33203, 294.5918, 299.19141, " y="1640, ">
				hierarchyInfo
		</text>
		<path fill="none" stroke="black" stroke-width="1" stroke-linecap="square" stroke-miterlimit="4" transform="translate(0.5 0.5)" d="M224 1627L229 1627"/>
		<path fill="none" stroke="black" stroke-width="1" stroke-linecap="square" stroke-miterlimit="4" transform="translate(0.5 0.5)" d="M224 1629L228 1629"/>
		<path fill="none" stroke="black" stroke-width="1" stroke-linecap="square" stroke-miterlimit="4" transform="translate(0.5 0.5)" d="M224 1631L228 1631"/>
		<path fill="none" stroke="black" stroke-width="2" stroke-miterlimit="4" transform="translate(0.5 0.5)" d="M224 1643L228 1639"/>
		<path fill="none" stroke="black" stroke-width="1" stroke-linecap="square" stroke-miterlimit="4" transform="translate(0.5 0.5)" d="M225 1639L228 1639L228 1642"/>
		<rect fill="none" stroke="black" stroke-width="1" stroke-linecap="square" stroke-miterlimit="4" transform="translate(0.5 0.5)" x="222" y="1625" width="97" height="20"/>
		<rect x="314" y="1630" width="11" height="11"/>
		<rect fill="white" x="315" y="1631" width="9" height="9"/>
		<rect x="316" y="1635" width="7" height="1"/>
		<rect x="319" y="1632" width="1" height="7"/>
		<rect x="187" y="1598" width="11" height="11"/>
		<rect fill="white" x="188" y="1599" width="9" height="9"/>
		<rect x="189" y="1603" width="7" height="1"/>
		<rect x="46" y="1193" width="11" height="11"/>
		<rect fill="white" x="47" y="1194" width="9" height="9"/>
		<rect x="48" y="1198" width="7" height="1"/>
	</g>
</svg>
