<?xml version="1.0" encoding="utf-8" ?>
<svg xmlns="http://www.w3.org/2000/svg" xmlns:xlink="http://www.w3.org/1999/xlink" width="315" height="1390">
	<clipPath id="cl_2df">
		<rect x="-10" y="-5" width="315" height="1390"/>
	</clipPath>
	<g clip-path="url(#cl_2df)">
		<path fill="none" stroke="black" stroke-width="1" stroke-linecap="square" stroke-miterlimit="4" transform="translate(0.5 0.5)" d="M57 690L80 690"/>
		<rect fill="silver" x="4" y="684" width="52" height="21"/>
		<rect fill="white" y="680" width="52" height="21"/>
		<rect fill="white" x="5" y="707" width="61" height="12"/>
		<text fill="gray" font-size="9" font-family="Segoe UI" x="5, 10.805176, 13.270508, 19.774414, 24.480957, 29.771973, 32.237305, 36.816406, 42.116211, 47.416016, 50.544922, 55.251465, 59.070312, 62.88916, " y="717, ">
				A web address.
		</text>
		<rect fill="white" x="9" y="682" width="31" height="16"/>
		<text font-size="12" font-weight="600" font-family="Segoe UI" x="9, 18.509766, 25.001953, " y="695, ">
				web
		</text>
		<path fill="none" stroke="black" stroke-width="1" stroke-linecap="square" stroke-miterlimit="4" transform="translate(0.5 0.5)" d="M2 682L7 682"/>
		<path fill="none" stroke="black" stroke-width="1" stroke-linecap="square" stroke-miterlimit="4" transform="translate(0.5 0.5)" d="M2 684L6 684"/>
		<path fill="none" stroke="black" stroke-width="1" stroke-linecap="square" stroke-miterlimit="4" transform="translate(0.5 0.5)" d="M2 686L6 686"/>
		<rect fill="none" stroke="black" stroke-width="1" stroke-linecap="square" stroke-miterlimit="4" transform="translate(0.5 0.5)" y="680" width="51" height="20"/>
		<path fill="white" d="M158 19L158 0L81 0L81 19L81 1379L294 1379L294 19L158 19Z"/>
		<rect fill="white" x="101" y="2" width="51" height="16"/>
		<text font-size="12" font-style="italic" font-family="Segoe UI" x="101, 107.50391, 111.38281, 115.26172, 119.5332, 122.63867, 129.14258, 135.83984, 139.73047, 145.57227, " y="15, ">
				attributes
		</text>
		<path fill="none" stroke="black" stroke-width="1" stroke-linecap="square" stroke-miterlimit="4" transform="translate(0.5 0.5)" d="M158 19L158 0L81 0L81 19L81 1379L294 1379L294 19L158 19Z"/>
		<path fill="white" d="M286 47L286 28L95 28L95 47L95 1150L286 1150L286 47Z"/>
		<rect fill="white" x="100" y="1153" width="179" height="48"/>
		<text fill="gray" font-size="9" font-family="Segoe UI" x="100, 105.80518, 108.27051, 113.57031, 116.69922, 121.97266, 127.06592, 132.35693, 134.82227, 140.0957, 142.9126, 145.37793, 149.95703, 153.00684, 156.05664, 159.18555, 161.36523, 166.65625, 171.74951, 174.79932, 179.50586, 183.32471, 185.79004, 188.60693, 193.88037, 197.00928, 199.47461, 204.05371, 206.2334, 208.41309, 210.87842, 215.58496, 217.76465, 222.47119, 230.22314, 234.92969, 240.02295, 243.07275, 246.8916, 249.35693, 254.63037, 257.44727, 259.9126, 264.4917, 266.95703, 273.13135, " y="1163, ">
				A group of attributes for all elements of a G2
		</text>
		<text fill="gray" font-size="9" font-family="Segoe UI" x="100, 102.39502, 105.44482, 110.15137, 117.90332, 120.36865, 125.0752, 129.20605, 133.36328, 138.06982, 143.36084, 146.41064, 148.87598, 151.05566, 154.10547, 157.92432, 160.38965, 163.51855, 168.79199, 174.06543, 177.11523, 179.58057, 184.28711, 186.4668, 191.17334, 198.92529, 203.63184, 208.7251, 211.7749, 213.72607, 216.19141, 219.24121, 224.33447, 229.04102, 231.50635, 233.68604, 236.73584, 241.44238, 249.19434, 257.27588, 261.98242, 265.03223, " y="1175, ">
				Item except its root element, the itemMeta
		</text>
		<text fill="gray" font-size="9" font-family="Segoe UI" x="100, 104.70654, 106.88623, 111.59277, 119.34473, 124.05127, 129.14453, 132.19434, 134.65967, 139.23877, 144.33203, 149.63184, 152.09717, 156.67627, 158.85596, 161.03564, 163.50098, 168.77441, 171.59131, 174.05664, 176.23633, 179.28613, 183.10498, 185.57031, 189.72754, 194.8208, 197.00049, 199.18018, 204.47998, 207.60889, 212.31543, 217.40869, 219.87402, 226.37793, 231.47119, 233.65088, 237.80811, 242.90137, 245.3667, 249.9458, 253.07471, " y="1187, ">
				element and all of its children which are
		</text>
		<text fill="gray" font-size="9" font-family="Segoe UI" x="100, 107.75195, 112.33105, 117.42432, 122.72412, 127.30322, 130.35303, 135.62646, 138.75537, 143.11035, " y="1199, ">
				mandatory.
		</text>
		<rect fill="white" x="137" y="30" width="143" height="16"/>
		<text font-size="12" font-weight="600" font-family="Segoe UI" x="137, 142.75977, 150.0957, 161.08789, 172.08008, 179.41602, 186.67578, 193.68945, 201.02539, 210.53516, 217.02734, 221.80273, 230, 234.66992, 239.33984, 244.16211, 247.57227, 255.01367, 262.27344, 266.89648, 273.38867, " y="43, ">
				commonPowerAttributes
		</text>
		<rect fill="white" x="115" y="30" width="20" height="16"/>
		<text fill="gray" font-size="12" font-family="Segoe UI" x="115, 122.06641, 126.23828, " y="43, ">
				grp
		</text>
		<path fill="none" stroke="gray" stroke-width="1" stroke-linecap="square" stroke-miterlimit="4" transform="translate(0.5 0.5)" d="M95 47L95 1150L286 1150L286 47L286 47"/>
		<path fill="none" stroke="black" stroke-width="1" stroke-linecap="square" stroke-miterlimit="4" transform="translate(0.5 0.5)" d="M286 47L286 28L95 28L95 47"/>
		<rect x="100" y="33" width="11" height="11"/>
		<rect fill="white" x="101" y="34" width="9" height="9"/>
		<rect x="102" y="38" width="7" height="1"/>
		<rect fill="silver" x="107" y="61" width="52" height="21"/>
		<rect fill="white" x="103" y="57" width="52" height="21"/>
		<rect fill="white" x="108" y="84" width="101" height="24"/>
		<text fill="gray" font-size="9" font-family="Segoe UI" x="108, 112.71533, 117.80859, 122.51514, 124.98047, 127.16016, 132.43359, 136.59082, 141.16992, 143.34961, 145.81494, 147.99463, 153.29443, 158.00098, 163.09424, 166.14404, 168.32373, 171.14062, 173.32031, 178.02686, 181.15576, 183.62109, 188.89453, 191.71143, 194.17676, 197.22656, 202.31982, " y="94, ">
				The local identifier of the
		</text>
		<text fill="gray" font-size="9" font-family="Segoe UI" x="108, 113.29102, 116.41992, 121.69336, 126.98438, 131.69092, 134.81982, 137.86963, 142.22461, " y="106, ">
				property.
		</text>
		<rect fill="white" x="112" y="59" width="36" height="16"/>
		<text font-size="12" font-weight="600" font-family="Segoe UI" x="112, 115.41016, " y="72, ">
				id
		</text>
		<rect fill="none" stroke="black" stroke-width="1" stroke-linecap="square" stroke-miterlimit="4" transform="translate(0.5 0.5)" x="103" y="57" width="51" height="20"/>
		<rect fill="silver" x="107" y="119" width="58" height="21"/>
		<rect fill="white" x="103" y="115" width="58" height="21"/>
		<rect fill="white" x="108" y="142" width="121" height="120"/>
		<text fill="gray" font-size="9" font-family="Segoe UI" x="108, 110.39502, 113.21191, 115.67725, 118.72705, 123.82031, 128.52686, 130.99219, 136.2832, 139.41211, 144.68555, 149.97656, 154.68311, 157.81201, 160.86182, 165.2168, 167.68213, 171.99316, 176.57227, 178.75195, 183.84521, 188.55176, 191.01709, 193.19678, 197.01562, 199.48096, 204.57422, 209.84766, " y="152, ">
				If the property value is not
		</text>
		<text fill="gray" font-size="9" font-family="Segoe UI" x="108, 113.2998, 118.00635, 120.82324, 123.00293, 128.09619, 132.80273, 138.10254, 140.05371, 142.51904, 146.33789, 151.62891, 156.33545, 160.49268, 162.67236, 165.48926, 167.66895, 172.37549, 176.19434, 178.65967, 185.16357, 190.25684, 192.43652, 196.59375, 201.68701, 204.15234, 208.85889, 213.95215, 217.00195, 219.18164, 222.23145, " y="164, ">
				defined, specifies which entity
		</text>
		<text fill="gray" font-size="9" font-family="Segoe UI" x="108, 110.71582, 116.00684, 120.71338, 123.84229, 127.66113, 132.93457, 138.02783, 139.979, 142.44434, 147.71777, 150.84668, 156.14648, 160.72559, 165.81885, 167.99854, 171.81738, 176.39648, 179.44629, 181.62598, 186.89941, 191.99268, 194.45801, 199.73145, " y="176, ">
				(person, organisation or
		</text>
		<text fill="gray" font-size="9" font-family="Segoe UI" x="108, 111.81885, 116.17383, 119.99268, 123.04248, 127.74902, 135.50098, 138.2168, 140.68213, 147.18604, 149.36572, 151.54541, 153.7251, 156.19043, 160.89697, 166.19678, 168.37646, 171.42627, 173.8916, 176.94141, 182.03467, 186.74121, 189.20654, 194.49756, 197.62646, 202.8999, 208.19092, 212.89746, 216.02637, 219.07617, " y="188, ">
				system) will edit the property
		</text>
		<text fill="gray" font-size="9" font-family="Segoe UI" x="108, 112.31104, 116.89014, 119.06982, 124.16309, 128.86963, 131.33496, 134.93408, 137.39941, 142.10596, 146.23682, 151.52783, 154.65674, 159.36328, 163.18213, 167.00098, 171.70752, 177.00732, 179.47266, 184.76367, 189.11865, 191.58398, 196.16309, 198.62842, 205.41357, 210.98584, 216.25928, 221.55908, 226.26562, " y="200, ">
				value - expressed by a QCode.
		</text>
		<text fill="gray" font-size="9" font-family="Segoe UI" x="108, 110.39502, 113.21191, 115.67725, 118.72705, 123.82031, 128.52686, 130.99219, 136.2832, 139.41211, 144.68555, 149.97656, 154.68311, 157.81201, 160.86182, 165.2168, 167.68213, 171.99316, 176.57227, 178.75195, 183.84521, 188.55176, 191.01709, 193.19678, " y="212, ">
				If the property value is
		</text>
		<text fill="gray" font-size="9" font-family="Segoe UI" x="108, 113.2998, 118.00635, 120.82324, 123.00293, 128.09619, 132.80273, 138.10254, 140.05371, 142.51904, 146.33789, 151.62891, 156.33545, 160.49268, 162.67236, 165.48926, 167.66895, 172.37549, 176.19434, 178.65967, 185.16357, 190.25684, 192.43652, 196.59375, 201.68701, 204.15234, 208.85889, 213.95215, 217.00195, 219.18164, 222.23145, " y="224, ">
				defined, specifies which entity
		</text>
		<text fill="gray" font-size="9" font-family="Segoe UI" x="108, 110.71582, 116.00684, 120.71338, 123.84229, 127.66113, 132.93457, 138.02783, 139.979, 142.44434, 147.71777, 150.84668, 156.14648, 160.72559, 165.81885, 167.99854, 171.81738, 176.39648, 179.44629, 181.62598, 186.89941, 191.99268, 194.45801, 199.73145, " y="236, ">
				(person, organisation or
		</text>
		<text fill="gray" font-size="9" font-family="Segoe UI" x="108, 111.81885, 116.17383, 119.99268, 123.04248, 127.74902, 135.50098, 138.2168, 140.68213, 145.77539, 150.35449, 154.17334, 156.63867, 161.34521, 166.64502, 168.82471, 171.87451, 176.58105, 181.88086, 184.34619, 187.396, 192.48926, " y="248, ">
				system) has edited the
		</text>
		<text fill="gray" font-size="9" font-family="Segoe UI" x="108, 113.29102, 116.41992, 121.69336, 126.98438, 131.69092, 134.81982, 137.86963, 142.22461, 144.68994, 149.00098, 153.58008, 155.75977, 160.85303, 165.55957, " y="260, ">
				property value.
		</text>
		<rect fill="white" x="112" y="117" width="42" height="16"/>
		<text font-size="12" font-weight="600" font-family="Segoe UI" x="112, 117.75977, 122.48828, 128.98047, 135.4375, 140.06055, 147.39648, " y="130, ">
				creator
		</text>
		<rect fill="none" stroke="black" stroke-width="1" stroke-linecap="square" stroke-miterlimit="4" transform="translate(0.5 0.5)" x="103" y="115" width="57" height="20"/>
		<rect fill="silver" x="107" y="273" width="73" height="21"/>
		<rect fill="white" x="103" y="269" width="73" height="21"/>
		<rect fill="white" x="108" y="296" width="120" height="108"/>
		<text fill="gray" font-size="9" font-family="Segoe UI" x="108, 110.39502, 113.21191, 115.67725, 118.72705, 123.82031, 128.52686, 130.99219, 136.2832, 139.41211, 144.68555, 149.97656, 154.68311, 157.81201, 160.86182, 165.2168, 167.68213, 171.99316, 176.57227, 178.75195, 183.84521, 188.55176, 191.01709, 193.19678, 197.01562, 199.48096, 204.57422, 209.84766, " y="306, ">
				If the property value is not
		</text>
		<text fill="gray" font-size="9" font-family="Segoe UI" x="108, 113.2998, 118.00635, 120.82324, 123.00293, 128.09619, 132.80273, 138.10254, 140.05371, 142.51904, 146.33789, 151.62891, 156.33545, 160.49268, 162.67236, 165.48926, 167.66895, 172.37549, 176.19434, 178.65967, 185.16357, 190.25684, 192.43652, 196.59375, 201.68701, 204.15234, 208.85889, 213.95215, 217.00195, 219.18164, 222.23145, " y="318, ">
				defined, specifies which entity
		</text>
		<text fill="gray" font-size="9" font-family="Segoe UI" x="108, 110.71582, 116.00684, 120.71338, 123.84229, 127.66113, 132.93457, 138.02783, 139.979, 142.44434, 147.71777, 150.84668, 156.14648, 160.72559, 165.81885, 167.99854, 171.81738, 176.39648, 179.44629, 181.62598, 186.89941, 191.99268, 194.45801, 199.73145, " y="330, ">
				(person, organisation or
		</text>
		<text fill="gray" font-size="9" font-family="Segoe UI" x="108, 111.81885, 116.17383, 119.99268, 123.04248, 127.74902, 135.50098, 138.2168, 140.68213, 147.18604, 149.36572, 151.54541, 153.7251, 156.19043, 160.89697, 166.19678, 168.37646, 171.42627, 173.8916, 176.94141, 182.03467, 186.74121, 189.20654, 194.49756, 197.62646, 202.8999, 208.19092, 212.89746, 216.02637, 219.07617, " y="342, ">
				system) will edit the property
		</text>
		<text fill="gray" font-size="9" font-family="Segoe UI" x="108, 111.59912, 114.06445, 118.771, 122.90186, 128.19287, 131.32178, 136.02832, 139.84717, 143.66602, 148.37256, 153.67236, 156.1377, 161.42871, 165.78369, 168.24902, 172.82812, 175.29346, 181.47656, 186.85986, 189.25488, 191.20605, 193.67139, 196.06641, 198.8833, 201.34863, 204.39844, 209.4917, " y="354, ">
				- expressed by a URI. If the
		</text>
		<text fill="gray" font-size="9" font-family="Segoe UI" x="108, 113.29102, 116.41992, 121.69336, 126.98438, 131.69092, 134.81982, 137.86963, 142.22461, 144.68994, 149.00098, 153.58008, 155.75977, 160.85303, 165.55957, 168.0249, 170.20459, 174.02344, 176.48877, 181.78857, 186.49512, 189.31201, 191.4917, 196.58496, 201.2915, 206.59131, " y="366, ">
				property value is defined,
		</text>
		<text fill="gray" font-size="9" font-family="Segoe UI" x="108, 111.81885, 117.10986, 121.81641, 125.97363, 128.15332, 130.97021, 133.1499, 137.85645, 141.67529, 144.14062, 150.64453, 155.73779, 157.91748, 162.07471, 167.16797, 169.6333, 174.33984, 179.43311, 182.48291, 184.6626, 187.7124, 192.06738, 194.53271, 197.24854, 202.53955, 207.24609, 210.375, 214.19385, 219.46729, 224.56055, " y="378, ">
				specifies which entity (person,
		</text>
		<text fill="gray" font-size="9" font-family="Segoe UI" x="108, 113.27344, 116.40234, 121.70215, 126.28125, 131.37451, 133.5542, 137.37305, 141.95215, 145.00195, 147.18164, 152.45508, 157.54834, 160.01367, 165.28711, 168.41602, 170.88135, 174.7002, 179.05518, 182.87402, 185.92383, 190.63037, 198.38232, 201.09814, 203.56348, 208.65674, 213.23584, " y="390, ">
				organisation or system) has
		</text>
		<text fill="gray" font-size="9" font-family="Segoe UI" x="108, 112.70654, 118.00635, 120.18604, 123.23584, 127.94238, 133.24219, 135.70752, 138.75732, 143.85059, 148.55713, 151.02246, 156.31348, 159.44238, 164.71582, 170.00684, 174.71338, 177.84229, 180.89209, 185.24707, " y="402, ">
				edited the property.
		</text>
		<rect fill="white" x="112" y="271" width="57" height="16"/>
		<text font-size="12" font-weight="600" font-family="Segoe UI" x="112, 117.75977, 122.48828, 128.98047, 135.4375, 140.06055, 147.39648, 152.20703, 159.4668, 164.28906, " y="284, ">
				creatoruri
		</text>
		<rect fill="none" stroke="black" stroke-width="1" stroke-linecap="square" stroke-miterlimit="4" transform="translate(0.5 0.5)" x="103" y="269" width="72" height="20"/>
		<rect fill="silver" x="107" y="415" width="69" height="21"/>
		<rect fill="white" x="103" y="411" width="69" height="21"/>
		<rect fill="white" x="108" y="438" width="119" height="72"/>
		<text fill="gray" font-size="9" font-family="Segoe UI" x="108, 112.71533, 117.80859, 122.51514, 124.98047, 130.28027, 134.85938, 137.90918, 142.61572, 145.08105, 147.79688, 152.37598, 157.46924, 162.76904, 164.72021, 167.18555, 172.45898, 177.75, 180.7998, 182.97949, 188.25293, 193.34619, 197.92529, 200.10498, 202.28467, 206.63965, 208.59082, 211.05615, 214.10596, 219.19922, " y="448, ">
				The date (and, optionally, the
		</text>
		<text fill="gray" font-size="9" font-family="Segoe UI" x="108, 111.0498, 113.22949, 120.98145, 125.68799, 128.40381, 130.86914, 137.37305, 142.46631, 147.17285, 152.26611, 154.73145, 157.78125, 162.87451, 167.58105, 170.04639, 175.3374, 178.46631, 183.73975, 189.03076, 193.7373, 196.86621, 199.91602, 204.271, 206.73633, 213.24023, 217.81934, " y="460, ">
				time) when the property was
		</text>
		<text fill="gray" font-size="9" font-family="Segoe UI" x="108, 110.17969, 114.75879, 118.57764, 121.62744, 124.09277, 131.84473, 137.11816, 142.41797, 144.59766, 147.41455, 149.59424, 154.30078, 159.60059, 161.55176, 164.01709, 168.73242, 173.82568, 178.53223, 180.99756, 183.17725, 188.27051, 190.4502, 193.5, 195.67969, 200.25879, 202.43848, 204.90381, 209.21484, 213.79395, 215.97363, 221.06689, " y="472, ">
				last modified. The initial value
		</text>
		<text fill="gray" font-size="9" font-family="Segoe UI" x="108, 110.17969, 113.99854, 116.46387, 119.51367, 124.60693, 129.31348, 131.77881, 137.07861, 141.65771, 144.70752, 149.41406, 151.87939, 154.59521, 159.17432, 164.26758, 169.56738, 171.51855, 173.98389, 179.25732, 184.54834, 187.59814, 189.77783, 195.05127, 200.14453, 204.72363, 206.90332, 209.08301, 213.43799, " y="484, ">
				is the date (and, optionally,
		</text>
		<text fill="gray" font-size="9" font-family="Segoe UI" x="108, 111.0498, 116.14307, 120.84961, 123.31494, 126.36475, 128.54443, 136.29639, 141.00293, 143.71875, 146.18408, 151.45752, 154.27441, 156.73975, 160.89697, 164.02588, 168.73242, 173.31152, 176.36133, 178.54102, 183.81445, 188.90771, 191.37305, 196.64648, 199.46338, 201.92871, 204.97852, 210.07178, " y="496, ">
				the time) of creation of the
		</text>
		<text fill="gray" font-size="9" font-family="Segoe UI" x="108, 113.29102, 116.41992, 121.69336, 126.98438, 131.69092, 134.81982, 137.86963, 142.22461, " y="508, ">
				property.
		</text>
		<rect fill="white" x="112" y="413" width="53" height="16"/>
		<text font-size="12" font-weight="600" font-family="Segoe UI" x="112, 122.99219, 130.32812, 137.75781, 141.16797, 145.76758, 149.17773, 155.66992, " y="426, ">
				modified
		</text>
		<rect fill="none" stroke="black" stroke-width="1" stroke-linecap="square" stroke-miterlimit="4" transform="translate(0.5 0.5)" x="103" y="411" width="68" height="20"/>
		<rect fill="silver" x="107" y="521" width="59" height="21"/>
		<rect fill="white" x="103" y="517" width="59" height="21"/>
		<rect fill="white" x="108" y="544" width="118" height="108"/>
		<text fill="gray" font-size="9" font-family="Segoe UI" x="108, 110.39502, 113.21191, 115.67725, 119.49609, 124.20264, 127.25244, 129.71777, 132.76758, 138.04102, 140.50635, 143.55615, 146.68506, 151.77832, 156.48486, 158.9502, 162, 167.09326, " y="554, ">
				If set to true the
		</text>
		<text fill="gray" font-size="9" font-family="Segoe UI" x="108, 112.15723, 117.43066, 120.55957, 123.68848, 128.39502, 132.21387, 137.50488, 142.77832, 147.87158, 153.17139, 155.35107, 160.44434, 165.74414, 168.20947, 173.50049, 176.62939, 181.90283, 187.19385, 191.90039, 195.0293, 198.0791, 202.43408, 204.89941, 211.40332, 215.98242, " y="566, ">
				corresponding property was
		</text>
		<text fill="gray" font-size="9" font-family="Segoe UI" x="108, 112.5791, 117.87891, 123.17871, 127.88525, 133.18506, 135.65039, 138.7002, 143.97363, 146.43896, 149.48877, 154.58203, 159.28857, 161.75391, 167.92822, 172.77979, 175.24512, 177.64014, 180.68994, 185.39648, 193.14844, 195.61377, 198.43066, 203.7041, 206.83301, 209.29834, " y="578, ">
				added to the G2 Item for a
		</text>
		<text fill="gray" font-size="9" font-family="Segoe UI" x="108, 111.81885, 117.10986, 121.81641, 125.97363, 128.15332, 130.97021, 133.1499, 137.30713, 139.77246, 143.92969, 149.02295, 152.8418, 155.8916, 161.16504, 168.91699, 173.62354, 176.75244, 179.21777, 184.49121, 187.62012, 190.08545, 195.38525, 198.51416, 203.7876, 208.88086, 214.17188, 216.63721, 221.91064, " y="590, ">
				specific customer or group of
		</text>
		<text fill="gray" font-size="9" font-family="Segoe UI" x="108, 112.15723, 117.25049, 121.06934, 124.11914, 129.39258, 137.14453, 141.85107, 144.97998, 148.79883, 151.26416, 156.5376, 161.63086, 163.81055, 168.16553, 170.1167, 172.58203, 177.29736, 182.39062, 187.09717, 189.5625, 194.8623, 199.56885, 202.38574, 206.96484, 212.05811, 214.23779, " y="602, ">
				customers only. The default
		</text>
		<text fill="gray" font-size="9" font-family="Segoe UI" x="108, 112.31104, 116.89014, 119.06982, 124.16309, 128.86963, 131.33496, 136.6084, 139.42529, 141.89062, 144.94043, 150.03369, 152.21338, 156.03223, 158.49756, 163.78857, 166.91748, 172.19092, 177.48193, 182.18848, 185.31738, 188.36719, 192.72217, 195.1875, 197.36719, 201.18604, 203.65137, 206.46826, 211.04736, 213.22705, 217.0459, " y="614, ">
				value of this property is false
		</text>
		<text fill="gray" font-size="9" font-family="Segoe UI" x="108, 114.50391, 119.59717, 121.77686, 125.93408, 131.02734, 133.49268, 138.07178, 143.36279, 148.65381, 150.8335, 153.01318, 157.71973, 161.53857, 164.00391, 170.50781, 175.60107, 180.30762, 185.40088, 187.86621, 190.91602, 196.00928, 198.18896, " y="626, ">
				which applies when this
		</text>
		<text fill="gray" font-size="9" font-family="Segoe UI" x="108, 112.5791, 115.62891, 118.67871, 121.80762, 123.9873, 129.27832, 134.37158, 137.42139, 142.12793, 144.59326, 146.77295, 150.5918, 153.05713, 158.15039, 163.42383, 166.47363, 168.93896, 174.03223, 177.85107, 182.55762, 187.85742, 190.32275, 196.82666, 199.00635, 202.05615, 207.14941, 209.61475, 212.66455, 217.75781, " y="638, ">
				attribute is not used with the
		</text>
		<text fill="gray" font-size="9" font-family="Segoe UI" x="108, 113.29102, 116.41992, 121.69336, 126.98438, 131.69092, 134.81982, 137.86963, 142.22461, " y="650, ">
				property.
		</text>
		<rect fill="white" x="112" y="519" width="43" height="16"/>
		<text font-size="12" font-weight="600" font-family="Segoe UI" x="112, 117.75977, 125.01953, 130.29883, 134.92188, 142.25781, " y="532, ">
				custom
		</text>
		<rect fill="none" stroke="black" stroke-width="1" stroke-linecap="square" stroke-miterlimit="4" transform="translate(0.5 0.5)" x="103" y="517" width="58" height="20"/>
		<rect fill="silver" x="107" y="663" width="52" height="21"/>
		<rect fill="white" x="103" y="659" width="52" height="21"/>
		<rect fill="white" x="108" y="686" width="118" height="48"/>
		<text fill="gray" font-size="9" font-family="Segoe UI" x="108, 110.39502, 115.48828, 120.78809, 122.96777, 127.125, 131.7041, 134.75391, 139.46045, 143.2793, 145.74463, 151.03564, 155.39062, 157.85596, 164.35986, 169.45312, 171.63281, 175.79004, 180.8833, 183.34863, 191.10059, 195.80713, 200.38623, 205.47949, 209.29834, 211.76367, 214.81348, 219.90674, " y="696, ">
				Indicates by which means the
		</text>
		<text fill="gray" font-size="9" font-family="Segoe UI" x="108, 112.31104, 116.89014, 119.06982, 124.16309, 128.86963, 131.33496, 137.83887, 142.41797, 146.23682, 148.70215, 153.40869, 157.53955, 160.58936, 163.71826, 168.29736, 172.45459, 175.50439, 180.21094, 185.51074, 187.97607, 190.79297, 193.92188, 199.19531, 206.94727, 209.4126, 212.4624, 217.55566, " y="708, ">
				value was extracted from the
		</text>
		<text fill="gray" font-size="9" font-family="Segoe UI" x="108, 112.15723, 117.43066, 122.52393, 125.57373, 130.28027, 135.37354, 138.42334, 140.88867, 144.48779, 146.95312, 151.65967, 155.79053, 161.08154, 164.21045, 168.91699, 172.73584, 176.55469, 181.26123, 186.56104, 189.02637, 194.31738, 198.67236, 201.1377, " y="720, ">
				content - expressed by a
		</text>
		<text fill="gray" font-size="9" font-family="Segoe UI" x="108, 114.78516, 120.35742, 125.63086, 130.93066, " y="732, ">
				QCode
		</text>
		<rect fill="white" x="112" y="661" width="36" height="16"/>
		<text font-size="12" font-weight="600" font-family="Segoe UI" x="112, 119.22461, 126.56055, " y="674, ">
				how
		</text>
		<rect fill="none" stroke="black" stroke-width="1" stroke-linecap="square" stroke-miterlimit="4" transform="translate(0.5 0.5)" x="103" y="659" width="51" height="20"/>
		<rect fill="silver" x="107" y="745" width="57" height="21"/>
		<rect fill="white" x="103" y="741" width="57" height="21"/>
		<rect fill="white" x="108" y="768" width="118" height="36"/>
		<text fill="gray" font-size="9" font-family="Segoe UI" x="108, 110.39502, 115.48828, 120.78809, 122.96777, 127.125, 131.7041, 134.75391, 139.46045, 143.2793, 145.74463, 151.03564, 155.39062, 157.85596, 164.35986, 169.45312, 171.63281, 175.79004, 180.8833, 183.34863, 191.10059, 195.80713, 200.38623, 205.47949, 209.29834, 211.76367, 214.81348, 219.90674, " y="778, ">
				Indicates by which means the
		</text>
		<text fill="gray" font-size="9" font-family="Segoe UI" x="108, 112.31104, 116.89014, 119.06982, 124.16309, 128.86963, 131.33496, 137.83887, 142.41797, 146.23682, 148.70215, 153.40869, 157.53955, 160.58936, 163.71826, 168.29736, 172.45459, 175.50439, 180.21094, 185.51074, 187.97607, 190.79297, 193.92188, 199.19531, 206.94727, 209.4126, 212.4624, 217.55566, " y="790, ">
				value was extracted from the
		</text>
		<text fill="gray" font-size="9" font-family="Segoe UI" x="108, 112.15723, 117.43066, 122.52393, 125.57373, 130.28027, 135.37354, 138.42334, 140.88867, 144.48779, 146.95312, 151.65967, 155.79053, 161.08154, 164.21045, 168.91699, 172.73584, 176.55469, 181.26123, 186.56104, 189.02637, 194.31738, 198.67236, 201.1377, 205.7168, 208.18213, 214.36523, 219.74854, " y="802, ">
				content - expressed by a URI
		</text>
		<rect fill="white" x="112" y="743" width="41" height="16"/>
		<text font-size="12" font-weight="600" font-family="Segoe UI" x="112, 119.22461, 126.56055, 136.12891, 143.38867, 148.21094, " y="756, ">
				howuri
		</text>
		<rect fill="none" stroke="black" stroke-width="1" stroke-linecap="square" stroke-miterlimit="4" transform="translate(0.5 0.5)" x="103" y="741" width="56" height="20"/>
		<rect fill="silver" x="107" y="815" width="52" height="21"/>
		<rect fill="white" x="103" y="811" width="52" height="21"/>
		<rect fill="white" x="108" y="838" width="113" height="36"/>
		<text fill="gray" font-size="9" font-family="Segoe UI" x="108, 116.40674, 121.5, 125.85498, 128.32031, 131.37012, 136.46338, 141.16992, 143.63525, 151.38721, 156.09375, 159.14355, 163.72266, 169.02246, 173.60156, 176.65137, 181.23047, 183.6958, 188.78906, 193.36816, 197.18701, 199.65234, 204.94336, 209.6499, 214.35645, " y="848, ">
				Why the metadata has been
		</text>
		<text fill="gray" font-size="9" font-family="Segoe UI" x="108, 110.17969, 115.27295, 119.43018, 121.60986, 126.70312, 132.00293, 136.70947, 142.00928, 144.47461, 148.07373, 150.53906, 155.24561, 159.37646, 164.66748, 167.79639, 172.50293, 176.32178, 180.14062, 184.84717, 190.14697, 192.6123, 197.90332, 202.2583, 204.72363, " y="860, ">
				included - expressed by a
		</text>
		<text fill="gray" font-size="9" font-family="Segoe UI" x="108, 114.78516, 120.35742, 125.63086, 130.93066, " y="872, ">
				QCode
		</text>
		<rect fill="white" x="112" y="813" width="36" height="16"/>
		<text font-size="12" font-weight="600" font-family="Segoe UI" x="112, 121.56836, 128.79297, " y="826, ">
				why
		</text>
		<rect fill="none" stroke="black" stroke-width="1" stroke-linecap="square" stroke-miterlimit="4" transform="translate(0.5 0.5)" x="103" y="811" width="51" height="20"/>
		<rect fill="silver" x="107" y="885" width="56" height="21"/>
		<rect fill="white" x="103" y="881" width="56" height="21"/>
		<rect fill="white" x="108" y="908" width="119" height="24"/>
		<text fill="gray" font-size="9" font-family="Segoe UI" x="108, 116.40674, 121.5, 125.85498, 128.32031, 131.37012, 136.46338, 141.16992, 143.63525, 151.38721, 156.09375, 159.14355, 163.72266, 169.02246, 173.60156, 176.65137, 181.23047, 183.6958, 188.78906, 193.36816, 197.18701, 199.65234, 204.94336, 209.6499, 214.35645, " y="918, ">
				Why the metadata has been
		</text>
		<text fill="gray" font-size="9" font-family="Segoe UI" x="108, 110.17969, 115.27295, 119.43018, 121.60986, 126.70312, 132.00293, 136.70947, 142.00928, 144.47461, 148.07373, 150.53906, 155.24561, 159.37646, 164.66748, 167.79639, 172.50293, 176.32178, 180.14062, 184.84717, 190.14697, 192.6123, 197.90332, 202.2583, 204.72363, 209.30273, 211.76807, 217.95117, 223.33447, " y="930, ">
				included - expressed by a URI
		</text>
		<rect fill="white" x="112" y="883" width="40" height="16"/>
		<text font-size="12" font-weight="600" font-family="Segoe UI" x="112, 121.56836, 128.79297, 135.25, 142.50977, 147.33203, " y="896, ">
				whyuri
		</text>
		<rect fill="none" stroke="black" stroke-width="1" stroke-linecap="square" stroke-miterlimit="4" transform="translate(0.5 0.5)" x="103" y="881" width="55" height="20"/>
		<rect fill="silver" x="107" y="943" width="97" height="21"/>
		<rect fill="white" x="103" y="939" width="97" height="21"/>
		<rect fill="white" x="108" y="966" width="117" height="72"/>
		<text fill="gray" font-size="9" font-family="Segoe UI" x="108, 114.78516, 119.87842, 124.58496, 127.05029, 132.32373, 135.45264, 137.91797, 145.66992, 150.24902, 155.34229, 159.69727, 162.1626, 166.31982, 171.59326, 176.68652, 180.50537, 183.55518, 186.68408, 191.26318, 193.44287, 198.53613, 201.58594, 205.40479, 207.87012, 210.91992, 216.01318, 220.59229, " y="976, ">
				One or many constraints that
		</text>
		<text fill="gray" font-size="9" font-family="Segoe UI" x="108, 112.5791, 117.87012, 123.16113, 125.34082, 129.6958, 132.16113, 135.21094, 140.48438, 142.94971, 148.24072, 153.33398, 158.625, 160.80469, 162.98438, 166.80322, 171.89648, 174.07617, 179.16943, 184.46924, 186.93457, 189.98438, 195.07764, 199.78418, 202.24951, 206.56055, 211.13965, 213.31934, 218.4126, " y="988, ">
				apply to publishing the value
		</text>
		<text fill="gray" font-size="9" font-family="Segoe UI" x="108, 113.27344, 116.09033, 118.55566, 121.60547, 126.69873, 131.40527, 133.87061, 139.16162, 142.29053, 147.56396, 152.85498, 157.56152, 160.69043, 163.74023, 168.09521, 170.56055, 174.15967, 176.625, 181.33154, 185.4624, 190.75342, 193.88232, 198.58887, 202.40771, 206.22656, 210.93311, " y="1000, ">
				of the property - expressed
		</text>
		<text fill="gray" font-size="9" font-family="Segoe UI" x="108, 113.29102, 117.646, 120.11133, 124.69043, 127.15576, 133.94092, 139.51318, 144.78662, 150.08643, 154.79297, 156.74414, 159.20947, 163.76221, 168.34131, 172.49854, 177.5918, 180.05713, 184.21436, 189.48779, 194.58105, 198.3999, 201.44971, 204.57861, 209.15771, 211.3374, 216.43066, " y="1012, ">
				by a QCode. Each constraint
		</text>
		<text fill="gray" font-size="9" font-family="Segoe UI" x="108, 112.5791, 117.87012, 123.16113, 125.34082, 127.52051, 132.22705, 136.0459, 138.51123, 141.56104, 146.83447, 149.2998, 153.87891, 156.05859, 158.23828, 160.70361, 166.00342, 170.70996, 174.52881, 178.68604, 183.39258, 188.48584, 193.78564, 198.36475, 203.45801, " y="1024, ">
				applies to all descendant
		</text>
		<text fill="gray" font-size="9" font-family="Segoe UI" x="108, 112.70654, 114.88623, 119.59277, 127.34473, 132.05127, 137.14453, 140.19434, 144.01318, " y="1036, ">
				elements.
		</text>
		<rect fill="white" x="112" y="941" width="81" height="16"/>
		<text font-size="12" font-weight="600" font-family="Segoe UI" x="112, 119.44141, 126.70117, 134.14258, 139.90234, 147.23828, 154.49805, 159.77734, 164.44727, 169.22266, 175.67969, 179.08984, 186.34961, " y="954, ">
				pubconstraint
		</text>
		<rect fill="none" stroke="black" stroke-width="1" stroke-linecap="square" stroke-miterlimit="4" transform="translate(0.5 0.5)" x="103" y="939" width="96" height="20"/>
		<rect fill="silver" x="107" y="1049" width="112" height="21"/>
		<rect fill="white" x="103" y="1045" width="112" height="21"/>
		<rect fill="white" x="108" y="1072" width="117" height="72"/>
		<text fill="gray" font-size="9" font-family="Segoe UI" x="108, 114.78516, 119.87842, 124.58496, 127.05029, 132.32373, 135.45264, 137.91797, 145.66992, 150.24902, 155.34229, 159.69727, 162.1626, 166.31982, 171.59326, 176.68652, 180.50537, 183.55518, 186.68408, 191.26318, 193.44287, 198.53613, 201.58594, 205.40479, 207.87012, 210.91992, 216.01318, 220.59229, " y="1082, ">
				One or many constraints that
		</text>
		<text fill="gray" font-size="9" font-family="Segoe UI" x="108, 112.5791, 117.87012, 123.16113, 125.34082, 129.6958, 132.16113, 135.21094, 140.48438, 142.94971, 148.24072, 153.33398, 158.625, 160.80469, 162.98438, 166.80322, 171.89648, 174.07617, 179.16943, 184.46924, 186.93457, 189.98438, 195.07764, 199.78418, 202.24951, 206.56055, 211.13965, 213.31934, 218.4126, " y="1094, ">
				apply to publishing the value
		</text>
		<text fill="gray" font-size="9" font-family="Segoe UI" x="108, 113.27344, 116.09033, 118.55566, 121.60547, 126.69873, 131.40527, 133.87061, 139.16162, 142.29053, 147.56396, 152.85498, 157.56152, 160.69043, 163.74023, 168.09521, 170.56055, 174.15967, 176.625, 181.33154, 185.4624, 190.75342, 193.88232, 198.58887, 202.40771, 206.22656, 210.93311, " y="1106, ">
				of the property - expressed
		</text>
		<text fill="gray" font-size="9" font-family="Segoe UI" x="108, 113.29102, 117.646, 120.11133, 124.69043, 127.15576, 133.33887, 138.72217, 141.11719, 143.06836, 145.53369, 150.08643, 154.66553, 158.82275, 163.91602, 166.38135, 170.53857, 175.81201, 180.90527, 184.72412, 187.77393, 190.90283, 195.48193, 197.66162, 202.75488, " y="1118, ">
				by a URI. Each constraint
		</text>
		<text fill="gray" font-size="9" font-family="Segoe UI" x="108, 112.5791, 117.87012, 123.16113, 125.34082, 127.52051, 132.22705, 136.0459, 138.51123, 141.56104, 146.83447, 149.2998, 153.87891, 156.05859, 158.23828, 160.70361, 166.00342, 170.70996, 174.52881, 178.68604, 183.39258, 188.48584, 193.78564, 198.36475, 203.45801, " y="1130, ">
				applies to all descendant
		</text>
		<text fill="gray" font-size="9" font-family="Segoe UI" x="108, 112.70654, 114.88623, 119.59277, 127.34473, 132.05127, 137.14453, 140.19434, 144.01318, " y="1142, ">
				elements.
		</text>
		<rect fill="white" x="112" y="1047" width="96" height="16"/>
		<text font-size="12" font-weight="600" font-family="Segoe UI" x="112, 119.44141, 126.70117, 134.14258, 139.90234, 147.23828, 154.49805, 159.77734, 164.44727, 169.22266, 175.67969, 179.08984, 186.34961, 191.01953, 198.2793, 203.10156, " y="1060, ">
				pubconstrainturi
		</text>
		<rect fill="none" stroke="black" stroke-width="1" stroke-linecap="square" stroke-miterlimit="4" transform="translate(0.5 0.5)" x="103" y="1045" width="111" height="20"/>
		<rect fill="silver" x="99" y="1212" width="52" height="21"/>
		<rect fill="white" x="95" y="1208" width="52" height="21"/>
		<rect fill="white" x="100" y="1235" width="120" height="36"/>
		<text fill="gray" font-size="9" font-family="Segoe UI" x="100, 105.80518, 108.27051, 111.39941, 116.10596, 118.92285, 121.10254, 126.1958, 130.90234, 138.6543, 143.36084, 148.4541, 151.50391, 153.96924, 159.24268, 162.05957, 164.5249, 167.57471, 172.66797, 177.37451, 179.83984, 183.65869, 188.36523, 196.11719, 200.69629, 205.78955, 208.83936, 211.01904, 215.17627, " y="1245, ">
				A refinement of the semantics
		</text>
		<text fill="gray" font-size="9" font-family="Segoe UI" x="100, 105.27344, 108.09033, 110.55566, 113.60547, 118.69873, 123.40527, 125.87061, 132.37451, 137.08105, 142.37207, 144.8374, 149.4165, 154.71631, 160.01611, 163.14502, 167.85156, 171.67041, 175.48926, 177.95459, " y="1257, ">
				of the web address -
		</text>
		<text fill="gray" font-size="9" font-family="Segoe UI" x="100, 104.70654, 108.8374, 114.12842, 117.25732, 121.96387, 125.78271, 129.60156, 134.30811, 139.60791, 142.07324, 147.36426, 151.71924, 154.18457, 158.76367, 161.229, 168.01416, 173.58643, 178.85986, 184.15967, " y="1269, ">
				expressed by a QCode
		</text>
		<rect fill="white" x="104" y="1210" width="36" height="16"/>
		<text font-size="12" font-weight="600" font-family="Segoe UI" x="104, 108.72852, 116.06445, 119.47461, " y="1223, ">
				role
		</text>
		<rect fill="none" stroke="black" stroke-width="1" stroke-linecap="square" stroke-miterlimit="4" transform="translate(0.5 0.5)" x="95" y="1208" width="51" height="20"/>
		<rect fill="silver" x="99" y="1282" width="55" height="21"/>
		<rect fill="white" x="95" y="1278" width="55" height="21"/>
		<rect fill="white" x="100" y="1305" width="120" height="36"/>
		<text fill="gray" font-size="9" font-family="Segoe UI" x="100, 105.80518, 108.27051, 111.39941, 116.10596, 118.92285, 121.10254, 126.1958, 130.90234, 138.6543, 143.36084, 148.4541, 151.50391, 153.96924, 159.24268, 162.05957, 164.5249, 167.57471, 172.66797, 177.37451, 179.83984, 183.65869, 188.36523, 196.11719, 200.69629, 205.78955, 208.83936, 211.01904, 215.17627, " y="1315, ">
				A refinement of the semantics
		</text>
		<text fill="gray" font-size="9" font-family="Segoe UI" x="100, 105.27344, 108.09033, 110.55566, 113.60547, 118.69873, 123.40527, 125.87061, 132.37451, 137.08105, 142.37207, 144.8374, 149.4165, 154.71631, 160.01611, 163.14502, 167.85156, 171.67041, 175.48926, 177.95459, " y="1327, ">
				of the web address -
		</text>
		<text fill="gray" font-size="9" font-family="Segoe UI" x="100, 104.70654, 108.8374, 114.12842, 117.25732, 121.96387, 125.78271, 129.60156, 134.30811, 139.60791, 142.07324, 147.36426, 151.71924, 154.18457, 158.76367, 161.229, 167.41211, 172.79541, " y="1339, ">
				expressed by a URI
		</text>
		<rect fill="white" x="104" y="1280" width="39" height="16"/>
		<text font-size="12" font-weight="600" font-family="Segoe UI" x="104, 108.72852, 116.06445, 119.47461, 125.9668, 133.22656, 138.04883, " y="1293, ">
				roleuri
		</text>
		<rect fill="none" stroke="black" stroke-width="1" stroke-linecap="square" stroke-miterlimit="4" transform="translate(0.5 0.5)" x="95" y="1278" width="54" height="20"/>
		<path fill="silver" d="M99 1357L104 1352L172 1352L177 1357L177 1368L172 1373L104 1373L99 1368L99 1357Z"/>
		<path fill="white" d="M95 1353L100 1348L168 1348L173 1353L173 1364L168 1369L100 1369L95 1364L95 1353Z"/>
		<rect fill="white" x="122" y="1350" width="46" height="16"/>
		<text font-size="12" font-weight="600" font-family="Segoe UI" x="122, 129.10742, 136.21484, 143.55078, 148.2207, 155.44531, 161.9375, " y="1363, ">
				##other
		</text>
		<rect fill="white" x="100" y="1350" width="20" height="16"/>
		<text fill="gray" font-size="12" font-family="Segoe UI" x="100, 106.10547, 112.89648, " y="1363, ">
				any
		</text>
		<path fill="none" stroke="black" stroke-width="1" stroke-linecap="square" stroke-miterlimit="4" transform="translate(0.5 0.5)" d="M95 1353L100 1348L167 1348L172 1353L172 1363L167 1368L100 1368L95 1363L95 1353Z"/>
		<rect x="86" y="5" width="11" height="11"/>
		<rect fill="white" x="87" y="6" width="9" height="9"/>
		<rect x="88" y="10" width="7" height="1"/>
		<rect x="46" y="685" width="11" height="11"/>
		<rect fill="white" x="47" y="686" width="9" height="9"/>
		<rect x="48" y="690" width="7" height="1"/>
	</g>
</svg>
