<?xml version="1.0" encoding="utf-8" ?>
<svg xmlns="http://www.w3.org/2000/svg" xmlns:xlink="http://www.w3.org/1999/xlink" width="431" height="1726">
	<clipPath id="cl_23c">
		<rect x="-10" y="-5" width="431" height="1726"/>
	</clipPath>
	<g clip-path="url(#cl_23c)">
		<rect fill="#FFFFC0" x="119" width="261" height="1342"/>
		<rect fill="none" stroke="gray" stroke-width="1" stroke-linecap="square" stroke-miterlimit="4" transform="translate(0.5 0.5)" x="119" width="260" height="1341"/>
		<path fill="none" stroke="black" stroke-width="1" stroke-linecap="square" stroke-miterlimit="4" transform="translate(0.5 0.5)" d="M57 683L131 683"/>
		<path fill="none" stroke="black" stroke-width="1" stroke-linecap="square" stroke-miterlimit="4" transform="translate(0.5 0.5)" d="M132 683L132 1528"/>
		<path fill="none" stroke="black" stroke-width="1" stroke-linecap="square" stroke-miterlimit="4" transform="translate(0.5 0.5)" d="M132 1529L146 1529"/>
		<path fill="none" stroke="black" stroke-width="1" stroke-linecap="square" stroke-miterlimit="4" transform="translate(0.5 0.5)" d="M132 683L146 683"/>
		<rect fill="silver" x="4" y="677" width="52" height="21"/>
		<rect fill="white" y="673" width="52" height="21"/>
		<rect fill="#FFFFC0" x="127" y="8" width="183" height="16"/>
		<text fill="gray" font-size="12" font-weight="600" font-family="Segoe UI" x="127, 135.4375, 142.87891, 150.32031, 155.04883, 162.14453, 168.77148, 172.18164, 183.17383, 189.63086, 194.25391, 200.74609, 209.59375, 216.05078, 220.67383, 227.16602, 234.19727, 237.60742, 248.59961, 255.0918, 262.46289, 267.19141, 274.52734, 281.96875, 288.46094, 294.91797, 302.35938, " y="21, ">
				ApproximateDateTimePropType
		</text>
		<rect fill="white" x="5" y="700" width="99" height="12"/>
		<text fill="gray" font-size="9" font-family="Segoe UI" x="5, 9.715332, 14.808594, 19.515137, 21.980469, 27.280273, 31.859375, 34.90918, 39.615723, 42.081055, 45.130859, 50.224121, 54.930664, 57.395996, 62.102539, 66.413574, 71.120117, 76.213379, 79.263184, 81.728516, 86.435059, 91.52832, 96.828125, 100.64697, " y="710, ">
				The date the event ends.
		</text>
		<rect fill="white" x="9" y="675" width="31" height="16"/>
		<text font-size="12" font-weight="600" font-family="Segoe UI" x="9, 15.492188, 22.751953, " y="688, ">
				end
		</text>
		<path fill="none" stroke="black" stroke-width="1" stroke-linecap="square" stroke-miterlimit="4" transform="translate(0.5 0.5)" d="M2 675L7 675"/>
		<path fill="none" stroke="black" stroke-width="1" stroke-linecap="square" stroke-miterlimit="4" transform="translate(0.5 0.5)" d="M2 677L6 677"/>
		<path fill="none" stroke="black" stroke-width="1" stroke-linecap="square" stroke-miterlimit="4" transform="translate(0.5 0.5)" d="M2 679L6 679"/>
		<rect fill="#FFFFC0" x="314" y="8" width="59" height="16"/>
		<text fill="gray" font-size="12" font-family="Segoe UI" x="314, 317.62109, 323.89648, 329.4043, 333.4707, 339.74609, 346.53711, 351.62891, 354.53516, 361.56641, 368.35742, " y="21, ">
				(extension)
		</text>
		<rect fill="none" stroke="black" stroke-width="1" stroke-linecap="square" stroke-miterlimit="4" transform="translate(0.5 0.5)" y="673" width="51" height="20"/>
		<path fill="white" d="M224 55L224 36L147 36L147 55L147 1329L294 1329L294 55L224 55Z"/>
		<rect fill="white" x="167" y="38" width="51" height="16"/>
		<text font-size="12" font-style="italic" font-family="Segoe UI" x="167, 173.50391, 177.38281, 181.26172, 185.5332, 188.63867, 195.14258, 201.83984, 205.73047, 211.57227, " y="51, ">
				attributes
		</text>
		<path fill="none" stroke="black" stroke-width="1" stroke-linecap="square" stroke-miterlimit="4" transform="translate(0.5 0.5)" d="M224 55L224 36L147 36L147 55L147 1329L294 1329L294 55L224 55Z"/>
		<rect fill="silver" x="165" y="68" width="52" height="21"/>
		<rect fill="white" x="161" y="64" width="52" height="21"/>
		<rect fill="white" x="166" y="91" width="101" height="24"/>
		<text fill="gray" font-size="9" font-family="Segoe UI" x="166, 170.71533, 175.80859, 180.51514, 182.98047, 185.16016, 190.43359, 194.59082, 199.16992, 201.34961, 203.81494, 205.99463, 211.29443, 216.00098, 221.09424, 224.14404, 226.32373, 229.14062, 231.32031, 236.02686, 239.15576, 241.62109, 246.89453, 249.71143, 252.17676, 255.22656, 260.31982, " y="101, ">
				The local identifier of the
		</text>
		<text fill="gray" font-size="9" font-family="Segoe UI" x="166, 171.29102, 174.41992, 179.69336, 184.98438, 189.69092, 192.81982, 195.86963, 200.22461, " y="113, ">
				property.
		</text>
		<rect fill="white" x="170" y="66" width="36" height="16"/>
		<text font-size="12" font-weight="600" font-family="Segoe UI" x="170, 173.41016, " y="79, ">
				id
		</text>
		<rect fill="none" stroke="black" stroke-width="1" stroke-linecap="square" stroke-miterlimit="4" transform="translate(0.5 0.5)" x="161" y="64" width="51" height="20"/>
		<rect fill="silver" x="165" y="126" width="58" height="21"/>
		<rect fill="white" x="161" y="122" width="58" height="21"/>
		<rect fill="white" x="166" y="149" width="121" height="120"/>
		<text fill="gray" font-size="9" font-family="Segoe UI" x="166, 168.39502, 171.21191, 173.67725, 176.72705, 181.82031, 186.52686, 188.99219, 194.2832, 197.41211, 202.68555, 207.97656, 212.68311, 215.81201, 218.86182, 223.2168, 225.68213, 229.99316, 234.57227, 236.75195, 241.84521, 246.55176, 249.01709, 251.19678, 255.01562, 257.48096, 262.57422, 267.84766, " y="159, ">
				If the property value is not
		</text>
		<text fill="gray" font-size="9" font-family="Segoe UI" x="166, 171.2998, 176.00635, 178.82324, 181.00293, 186.09619, 190.80273, 196.10254, 198.05371, 200.51904, 204.33789, 209.62891, 214.33545, 218.49268, 220.67236, 223.48926, 225.66895, 230.37549, 234.19434, 236.65967, 243.16357, 248.25684, 250.43652, 254.59375, 259.68701, 262.15234, 266.85889, 271.95215, 275.00195, 277.18164, 280.23145, " y="171, ">
				defined, specifies which entity
		</text>
		<text fill="gray" font-size="9" font-family="Segoe UI" x="166, 168.71582, 174.00684, 178.71338, 181.84229, 185.66113, 190.93457, 196.02783, 197.979, 200.44434, 205.71777, 208.84668, 214.14648, 218.72559, 223.81885, 225.99854, 229.81738, 234.39648, 237.44629, 239.62598, 244.89941, 249.99268, 252.45801, 257.73145, " y="183, ">
				(person, organisation or
		</text>
		<text fill="gray" font-size="9" font-family="Segoe UI" x="166, 169.81885, 174.17383, 177.99268, 181.04248, 185.74902, 193.50098, 196.2168, 198.68213, 205.18604, 207.36572, 209.54541, 211.7251, 214.19043, 218.89697, 224.19678, 226.37646, 229.42627, 231.8916, 234.94141, 240.03467, 244.74121, 247.20654, 252.49756, 255.62646, 260.8999, 266.19092, 270.89746, 274.02637, 277.07617, " y="195, ">
				system) will edit the property
		</text>
		<text fill="gray" font-size="9" font-family="Segoe UI" x="166, 170.31104, 174.89014, 177.06982, 182.16309, 186.86963, 189.33496, 192.93408, 195.39941, 200.10596, 204.23682, 209.52783, 212.65674, 217.36328, 221.18213, 225.00098, 229.70752, 235.00732, 237.47266, 242.76367, 247.11865, 249.58398, 254.16309, 256.62842, 263.41357, 268.98584, 274.25928, 279.55908, 284.26562, " y="207, ">
				value - expressed by a QCode.
		</text>
		<text fill="gray" font-size="9" font-family="Segoe UI" x="166, 168.39502, 171.21191, 173.67725, 176.72705, 181.82031, 186.52686, 188.99219, 194.2832, 197.41211, 202.68555, 207.97656, 212.68311, 215.81201, 218.86182, 223.2168, 225.68213, 229.99316, 234.57227, 236.75195, 241.84521, 246.55176, 249.01709, 251.19678, " y="219, ">
				If the property value is
		</text>
		<text fill="gray" font-size="9" font-family="Segoe UI" x="166, 171.2998, 176.00635, 178.82324, 181.00293, 186.09619, 190.80273, 196.10254, 198.05371, 200.51904, 204.33789, 209.62891, 214.33545, 218.49268, 220.67236, 223.48926, 225.66895, 230.37549, 234.19434, 236.65967, 243.16357, 248.25684, 250.43652, 254.59375, 259.68701, 262.15234, 266.85889, 271.95215, 275.00195, 277.18164, 280.23145, " y="231, ">
				defined, specifies which entity
		</text>
		<text fill="gray" font-size="9" font-family="Segoe UI" x="166, 168.71582, 174.00684, 178.71338, 181.84229, 185.66113, 190.93457, 196.02783, 197.979, 200.44434, 205.71777, 208.84668, 214.14648, 218.72559, 223.81885, 225.99854, 229.81738, 234.39648, 237.44629, 239.62598, 244.89941, 249.99268, 252.45801, 257.73145, " y="243, ">
				(person, organisation or
		</text>
		<text fill="gray" font-size="9" font-family="Segoe UI" x="166, 169.81885, 174.17383, 177.99268, 181.04248, 185.74902, 193.50098, 196.2168, 198.68213, 203.77539, 208.35449, 212.17334, 214.63867, 219.34521, 224.64502, 226.82471, 229.87451, 234.58105, 239.88086, 242.34619, 245.396, 250.48926, " y="255, ">
				system) has edited the
		</text>
		<text fill="gray" font-size="9" font-family="Segoe UI" x="166, 171.29102, 174.41992, 179.69336, 184.98438, 189.69092, 192.81982, 195.86963, 200.22461, 202.68994, 207.00098, 211.58008, 213.75977, 218.85303, 223.55957, " y="267, ">
				property value.
		</text>
		<rect fill="white" x="170" y="124" width="42" height="16"/>
		<text font-size="12" font-weight="600" font-family="Segoe UI" x="170, 175.75977, 180.48828, 186.98047, 193.4375, 198.06055, 205.39648, " y="137, ">
				creator
		</text>
		<rect fill="none" stroke="black" stroke-width="1" stroke-linecap="square" stroke-miterlimit="4" transform="translate(0.5 0.5)" x="161" y="122" width="57" height="20"/>
		<rect fill="silver" x="165" y="280" width="73" height="21"/>
		<rect fill="white" x="161" y="276" width="73" height="21"/>
		<rect fill="white" x="166" y="303" width="120" height="108"/>
		<text fill="gray" font-size="9" font-family="Segoe UI" x="166, 168.39502, 171.21191, 173.67725, 176.72705, 181.82031, 186.52686, 188.99219, 194.2832, 197.41211, 202.68555, 207.97656, 212.68311, 215.81201, 218.86182, 223.2168, 225.68213, 229.99316, 234.57227, 236.75195, 241.84521, 246.55176, 249.01709, 251.19678, 255.01562, 257.48096, 262.57422, 267.84766, " y="313, ">
				If the property value is not
		</text>
		<text fill="gray" font-size="9" font-family="Segoe UI" x="166, 171.2998, 176.00635, 178.82324, 181.00293, 186.09619, 190.80273, 196.10254, 198.05371, 200.51904, 204.33789, 209.62891, 214.33545, 218.49268, 220.67236, 223.48926, 225.66895, 230.37549, 234.19434, 236.65967, 243.16357, 248.25684, 250.43652, 254.59375, 259.68701, 262.15234, 266.85889, 271.95215, 275.00195, 277.18164, 280.23145, " y="325, ">
				defined, specifies which entity
		</text>
		<text fill="gray" font-size="9" font-family="Segoe UI" x="166, 168.71582, 174.00684, 178.71338, 181.84229, 185.66113, 190.93457, 196.02783, 197.979, 200.44434, 205.71777, 208.84668, 214.14648, 218.72559, 223.81885, 225.99854, 229.81738, 234.39648, 237.44629, 239.62598, 244.89941, 249.99268, 252.45801, 257.73145, " y="337, ">
				(person, organisation or
		</text>
		<text fill="gray" font-size="9" font-family="Segoe UI" x="166, 169.81885, 174.17383, 177.99268, 181.04248, 185.74902, 193.50098, 196.2168, 198.68213, 205.18604, 207.36572, 209.54541, 211.7251, 214.19043, 218.89697, 224.19678, 226.37646, 229.42627, 231.8916, 234.94141, 240.03467, 244.74121, 247.20654, 252.49756, 255.62646, 260.8999, 266.19092, 270.89746, 274.02637, 277.07617, " y="349, ">
				system) will edit the property
		</text>
		<text fill="gray" font-size="9" font-family="Segoe UI" x="166, 169.59912, 172.06445, 176.771, 180.90186, 186.19287, 189.32178, 194.02832, 197.84717, 201.66602, 206.37256, 211.67236, 214.1377, 219.42871, 223.78369, 226.24902, 230.82812, 233.29346, 239.47656, 244.85986, 247.25488, 249.20605, 251.67139, 254.06641, 256.8833, 259.34863, 262.39844, 267.4917, " y="361, ">
				- expressed by a URI. If the
		</text>
		<text fill="gray" font-size="9" font-family="Segoe UI" x="166, 171.29102, 174.41992, 179.69336, 184.98438, 189.69092, 192.81982, 195.86963, 200.22461, 202.68994, 207.00098, 211.58008, 213.75977, 218.85303, 223.55957, 226.0249, 228.20459, 232.02344, 234.48877, 239.78857, 244.49512, 247.31201, 249.4917, 254.58496, 259.2915, 264.59131, " y="373, ">
				property value is defined,
		</text>
		<text fill="gray" font-size="9" font-family="Segoe UI" x="166, 169.81885, 175.10986, 179.81641, 183.97363, 186.15332, 188.97021, 191.1499, 195.85645, 199.67529, 202.14062, 208.64453, 213.73779, 215.91748, 220.07471, 225.16797, 227.6333, 232.33984, 237.43311, 240.48291, 242.6626, 245.7124, 250.06738, 252.53271, 255.24854, 260.53955, 265.24609, 268.375, 272.19385, 277.46729, 282.56055, " y="385, ">
				specifies which entity (person,
		</text>
		<text fill="gray" font-size="9" font-family="Segoe UI" x="166, 171.27344, 174.40234, 179.70215, 184.28125, 189.37451, 191.5542, 195.37305, 199.95215, 203.00195, 205.18164, 210.45508, 215.54834, 218.01367, 223.28711, 226.41602, 228.88135, 232.7002, 237.05518, 240.87402, 243.92383, 248.63037, 256.38232, 259.09814, 261.56348, 266.65674, 271.23584, " y="397, ">
				organisation or system) has
		</text>
		<text fill="gray" font-size="9" font-family="Segoe UI" x="166, 170.70654, 176.00635, 178.18604, 181.23584, 185.94238, 191.24219, 193.70752, 196.75732, 201.85059, 206.55713, 209.02246, 214.31348, 217.44238, 222.71582, 228.00684, 232.71338, 235.84229, 238.89209, 243.24707, " y="409, ">
				edited the property.
		</text>
		<rect fill="white" x="170" y="278" width="57" height="16"/>
		<text font-size="12" font-weight="600" font-family="Segoe UI" x="170, 175.75977, 180.48828, 186.98047, 193.4375, 198.06055, 205.39648, 210.20703, 217.4668, 222.28906, " y="291, ">
				creatoruri
		</text>
		<rect fill="none" stroke="black" stroke-width="1" stroke-linecap="square" stroke-miterlimit="4" transform="translate(0.5 0.5)" x="161" y="276" width="72" height="20"/>
		<rect fill="silver" x="165" y="422" width="69" height="21"/>
		<rect fill="white" x="161" y="418" width="69" height="21"/>
		<rect fill="white" x="166" y="445" width="119" height="72"/>
		<text fill="gray" font-size="9" font-family="Segoe UI" x="166, 170.71533, 175.80859, 180.51514, 182.98047, 188.28027, 192.85938, 195.90918, 200.61572, 203.08105, 205.79688, 210.37598, 215.46924, 220.76904, 222.72021, 225.18555, 230.45898, 235.75, 238.7998, 240.97949, 246.25293, 251.34619, 255.92529, 258.10498, 260.28467, 264.63965, 266.59082, 269.05615, 272.10596, 277.19922, " y="455, ">
				The date (and, optionally, the
		</text>
		<text fill="gray" font-size="9" font-family="Segoe UI" x="166, 169.0498, 171.22949, 178.98145, 183.68799, 186.40381, 188.86914, 195.37305, 200.46631, 205.17285, 210.26611, 212.73145, 215.78125, 220.87451, 225.58105, 228.04639, 233.3374, 236.46631, 241.73975, 247.03076, 251.7373, 254.86621, 257.91602, 262.271, 264.73633, 271.24023, 275.81934, " y="467, ">
				time) when the property was
		</text>
		<text fill="gray" font-size="9" font-family="Segoe UI" x="166, 168.17969, 172.75879, 176.57764, 179.62744, 182.09277, 189.84473, 195.11816, 200.41797, 202.59766, 205.41455, 207.59424, 212.30078, 217.60059, 219.55176, 222.01709, 226.73242, 231.82568, 236.53223, 238.99756, 241.17725, 246.27051, 248.4502, 251.5, 253.67969, 258.25879, 260.43848, 262.90381, 267.21484, 271.79395, 273.97363, 279.06689, " y="479, ">
				last modified. The initial value
		</text>
		<text fill="gray" font-size="9" font-family="Segoe UI" x="166, 168.17969, 171.99854, 174.46387, 177.51367, 182.60693, 187.31348, 189.77881, 195.07861, 199.65771, 202.70752, 207.41406, 209.87939, 212.59521, 217.17432, 222.26758, 227.56738, 229.51855, 231.98389, 237.25732, 242.54834, 245.59814, 247.77783, 253.05127, 258.14453, 262.72363, 264.90332, 267.08301, 271.43799, " y="491, ">
				is the date (and, optionally,
		</text>
		<text fill="gray" font-size="9" font-family="Segoe UI" x="166, 169.0498, 174.14307, 178.84961, 181.31494, 184.36475, 186.54443, 194.29639, 199.00293, 201.71875, 204.18408, 209.45752, 212.27441, 214.73975, 218.89697, 222.02588, 226.73242, 231.31152, 234.36133, 236.54102, 241.81445, 246.90771, 249.37305, 254.64648, 257.46338, 259.92871, 262.97852, 268.07178, " y="503, ">
				the time) of creation of the
		</text>
		<text fill="gray" font-size="9" font-family="Segoe UI" x="166, 171.29102, 174.41992, 179.69336, 184.98438, 189.69092, 192.81982, 195.86963, 200.22461, " y="515, ">
				property.
		</text>
		<rect fill="white" x="170" y="420" width="53" height="16"/>
		<text font-size="12" font-weight="600" font-family="Segoe UI" x="170, 180.99219, 188.32812, 195.75781, 199.16797, 203.76758, 207.17773, 213.66992, " y="433, ">
				modified
		</text>
		<rect fill="none" stroke="black" stroke-width="1" stroke-linecap="square" stroke-miterlimit="4" transform="translate(0.5 0.5)" x="161" y="418" width="68" height="20"/>
		<rect fill="silver" x="165" y="528" width="59" height="21"/>
		<rect fill="white" x="161" y="524" width="59" height="21"/>
		<rect fill="white" x="166" y="551" width="118" height="108"/>
		<text fill="gray" font-size="9" font-family="Segoe UI" x="166, 168.39502, 171.21191, 173.67725, 177.49609, 182.20264, 185.25244, 187.71777, 190.76758, 196.04102, 198.50635, 201.55615, 204.68506, 209.77832, 214.48486, 216.9502, 220, 225.09326, " y="561, ">
				If set to true the
		</text>
		<text fill="gray" font-size="9" font-family="Segoe UI" x="166, 170.15723, 175.43066, 178.55957, 181.68848, 186.39502, 190.21387, 195.50488, 200.77832, 205.87158, 211.17139, 213.35107, 218.44434, 223.74414, 226.20947, 231.50049, 234.62939, 239.90283, 245.19385, 249.90039, 253.0293, 256.0791, 260.43408, 262.89941, 269.40332, 273.98242, " y="573, ">
				corresponding property was
		</text>
		<text fill="gray" font-size="9" font-family="Segoe UI" x="166, 170.5791, 175.87891, 181.17871, 185.88525, 191.18506, 193.65039, 196.7002, 201.97363, 204.43896, 207.48877, 212.58203, 217.28857, 219.75391, 225.92822, 230.77979, 233.24512, 235.64014, 238.68994, 243.39648, 251.14844, 253.61377, 256.43066, 261.7041, 264.83301, 267.29834, " y="585, ">
				added to the G2 Item for a
		</text>
		<text fill="gray" font-size="9" font-family="Segoe UI" x="166, 169.81885, 175.10986, 179.81641, 183.97363, 186.15332, 188.97021, 191.1499, 195.30713, 197.77246, 201.92969, 207.02295, 210.8418, 213.8916, 219.16504, 226.91699, 231.62354, 234.75244, 237.21777, 242.49121, 245.62012, 248.08545, 253.38525, 256.51416, 261.7876, 266.88086, 272.17188, 274.63721, 279.91064, " y="597, ">
				specific customer or group of
		</text>
		<text fill="gray" font-size="9" font-family="Segoe UI" x="166, 170.15723, 175.25049, 179.06934, 182.11914, 187.39258, 195.14453, 199.85107, 202.97998, 206.79883, 209.26416, 214.5376, 219.63086, 221.81055, 226.16553, 228.1167, 230.58203, 235.29736, 240.39062, 245.09717, 247.5625, 252.8623, 257.56885, 260.38574, 264.96484, 270.05811, 272.23779, " y="609, ">
				customers only. The default
		</text>
		<text fill="gray" font-size="9" font-family="Segoe UI" x="166, 170.31104, 174.89014, 177.06982, 182.16309, 186.86963, 189.33496, 194.6084, 197.42529, 199.89062, 202.94043, 208.03369, 210.21338, 214.03223, 216.49756, 221.78857, 224.91748, 230.19092, 235.48193, 240.18848, 243.31738, 246.36719, 250.72217, 253.1875, 255.36719, 259.18604, 261.65137, 264.46826, 269.04736, 271.22705, 275.0459, " y="621, ">
				value of this property is false
		</text>
		<text fill="gray" font-size="9" font-family="Segoe UI" x="166, 172.50391, 177.59717, 179.77686, 183.93408, 189.02734, 191.49268, 196.07178, 201.36279, 206.65381, 208.8335, 211.01318, 215.71973, 219.53857, 222.00391, 228.50781, 233.60107, 238.30762, 243.40088, 245.86621, 248.91602, 254.00928, 256.18896, " y="633, ">
				which applies when this
		</text>
		<text fill="gray" font-size="9" font-family="Segoe UI" x="166, 170.5791, 173.62891, 176.67871, 179.80762, 181.9873, 187.27832, 192.37158, 195.42139, 200.12793, 202.59326, 204.77295, 208.5918, 211.05713, 216.15039, 221.42383, 224.47363, 226.93896, 232.03223, 235.85107, 240.55762, 245.85742, 248.32275, 254.82666, 257.00635, 260.05615, 265.14941, 267.61475, 270.66455, 275.75781, " y="645, ">
				attribute is not used with the
		</text>
		<text fill="gray" font-size="9" font-family="Segoe UI" x="166, 171.29102, 174.41992, 179.69336, 184.98438, 189.69092, 192.81982, 195.86963, 200.22461, " y="657, ">
				property.
		</text>
		<rect fill="white" x="170" y="526" width="43" height="16"/>
		<text font-size="12" font-weight="600" font-family="Segoe UI" x="170, 175.75977, 183.01953, 188.29883, 192.92188, 200.25781, " y="539, ">
				custom
		</text>
		<rect fill="none" stroke="black" stroke-width="1" stroke-linecap="square" stroke-miterlimit="4" transform="translate(0.5 0.5)" x="161" y="524" width="58" height="20"/>
		<rect fill="silver" x="165" y="670" width="52" height="21"/>
		<rect fill="white" x="161" y="666" width="52" height="21"/>
		<rect fill="white" x="166" y="693" width="118" height="48"/>
		<text fill="gray" font-size="9" font-family="Segoe UI" x="166, 168.39502, 173.48828, 178.78809, 180.96777, 185.125, 189.7041, 192.75391, 197.46045, 201.2793, 203.74463, 209.03564, 213.39062, 215.85596, 222.35986, 227.45312, 229.63281, 233.79004, 238.8833, 241.34863, 249.10059, 253.80713, 258.38623, 263.47949, 267.29834, 269.76367, 272.81348, 277.90674, " y="703, ">
				Indicates by which means the
		</text>
		<text fill="gray" font-size="9" font-family="Segoe UI" x="166, 170.31104, 174.89014, 177.06982, 182.16309, 186.86963, 189.33496, 195.83887, 200.41797, 204.23682, 206.70215, 211.40869, 215.53955, 218.58936, 221.71826, 226.29736, 230.45459, 233.50439, 238.21094, 243.51074, 245.97607, 248.79297, 251.92188, 257.19531, 264.94727, 267.4126, 270.4624, 275.55566, " y="715, ">
				value was extracted from the
		</text>
		<text fill="gray" font-size="9" font-family="Segoe UI" x="166, 170.15723, 175.43066, 180.52393, 183.57373, 188.28027, 193.37354, 196.42334, 198.88867, 202.48779, 204.95312, 209.65967, 213.79053, 219.08154, 222.21045, 226.91699, 230.73584, 234.55469, 239.26123, 244.56104, 247.02637, 252.31738, 256.67236, 259.1377, " y="727, ">
				content - expressed by a
		</text>
		<text fill="gray" font-size="9" font-family="Segoe UI" x="166, 172.78516, 178.35742, 183.63086, 188.93066, " y="739, ">
				QCode
		</text>
		<rect fill="white" x="170" y="668" width="36" height="16"/>
		<text font-size="12" font-weight="600" font-family="Segoe UI" x="170, 177.22461, 184.56055, " y="681, ">
				how
		</text>
		<rect fill="none" stroke="black" stroke-width="1" stroke-linecap="square" stroke-miterlimit="4" transform="translate(0.5 0.5)" x="161" y="666" width="51" height="20"/>
		<rect fill="silver" x="165" y="752" width="57" height="21"/>
		<rect fill="white" x="161" y="748" width="57" height="21"/>
		<rect fill="white" x="166" y="775" width="118" height="36"/>
		<text fill="gray" font-size="9" font-family="Segoe UI" x="166, 168.39502, 173.48828, 178.78809, 180.96777, 185.125, 189.7041, 192.75391, 197.46045, 201.2793, 203.74463, 209.03564, 213.39062, 215.85596, 222.35986, 227.45312, 229.63281, 233.79004, 238.8833, 241.34863, 249.10059, 253.80713, 258.38623, 263.47949, 267.29834, 269.76367, 272.81348, 277.90674, " y="785, ">
				Indicates by which means the
		</text>
		<text fill="gray" font-size="9" font-family="Segoe UI" x="166, 170.31104, 174.89014, 177.06982, 182.16309, 186.86963, 189.33496, 195.83887, 200.41797, 204.23682, 206.70215, 211.40869, 215.53955, 218.58936, 221.71826, 226.29736, 230.45459, 233.50439, 238.21094, 243.51074, 245.97607, 248.79297, 251.92188, 257.19531, 264.94727, 267.4126, 270.4624, 275.55566, " y="797, ">
				value was extracted from the
		</text>
		<text fill="gray" font-size="9" font-family="Segoe UI" x="166, 170.15723, 175.43066, 180.52393, 183.57373, 188.28027, 193.37354, 196.42334, 198.88867, 202.48779, 204.95312, 209.65967, 213.79053, 219.08154, 222.21045, 226.91699, 230.73584, 234.55469, 239.26123, 244.56104, 247.02637, 252.31738, 256.67236, 259.1377, 263.7168, 266.18213, 272.36523, 277.74854, " y="809, ">
				content - expressed by a URI
		</text>
		<rect fill="white" x="170" y="750" width="41" height="16"/>
		<text font-size="12" font-weight="600" font-family="Segoe UI" x="170, 177.22461, 184.56055, 194.12891, 201.38867, 206.21094, " y="763, ">
				howuri
		</text>
		<rect fill="none" stroke="black" stroke-width="1" stroke-linecap="square" stroke-miterlimit="4" transform="translate(0.5 0.5)" x="161" y="748" width="56" height="20"/>
		<rect fill="silver" x="165" y="822" width="52" height="21"/>
		<rect fill="white" x="161" y="818" width="52" height="21"/>
		<rect fill="white" x="166" y="845" width="113" height="36"/>
		<text fill="gray" font-size="9" font-family="Segoe UI" x="166, 174.40674, 179.5, 183.85498, 186.32031, 189.37012, 194.46338, 199.16992, 201.63525, 209.38721, 214.09375, 217.14355, 221.72266, 227.02246, 231.60156, 234.65137, 239.23047, 241.6958, 246.78906, 251.36816, 255.18701, 257.65234, 262.94336, 267.6499, 272.35645, " y="855, ">
				Why the metadata has been
		</text>
		<text fill="gray" font-size="9" font-family="Segoe UI" x="166, 168.17969, 173.27295, 177.43018, 179.60986, 184.70312, 190.00293, 194.70947, 200.00928, 202.47461, 206.07373, 208.53906, 213.24561, 217.37646, 222.66748, 225.79639, 230.50293, 234.32178, 238.14062, 242.84717, 248.14697, 250.6123, 255.90332, 260.2583, 262.72363, " y="867, ">
				included - expressed by a
		</text>
		<text fill="gray" font-size="9" font-family="Segoe UI" x="166, 172.78516, 178.35742, 183.63086, 188.93066, " y="879, ">
				QCode
		</text>
		<rect fill="white" x="170" y="820" width="36" height="16"/>
		<text font-size="12" font-weight="600" font-family="Segoe UI" x="170, 179.56836, 186.79297, " y="833, ">
				why
		</text>
		<rect fill="none" stroke="black" stroke-width="1" stroke-linecap="square" stroke-miterlimit="4" transform="translate(0.5 0.5)" x="161" y="818" width="51" height="20"/>
		<rect fill="silver" x="165" y="892" width="56" height="21"/>
		<rect fill="white" x="161" y="888" width="56" height="21"/>
		<rect fill="white" x="166" y="915" width="119" height="24"/>
		<text fill="gray" font-size="9" font-family="Segoe UI" x="166, 174.40674, 179.5, 183.85498, 186.32031, 189.37012, 194.46338, 199.16992, 201.63525, 209.38721, 214.09375, 217.14355, 221.72266, 227.02246, 231.60156, 234.65137, 239.23047, 241.6958, 246.78906, 251.36816, 255.18701, 257.65234, 262.94336, 267.6499, 272.35645, " y="925, ">
				Why the metadata has been
		</text>
		<text fill="gray" font-size="9" font-family="Segoe UI" x="166, 168.17969, 173.27295, 177.43018, 179.60986, 184.70312, 190.00293, 194.70947, 200.00928, 202.47461, 206.07373, 208.53906, 213.24561, 217.37646, 222.66748, 225.79639, 230.50293, 234.32178, 238.14062, 242.84717, 248.14697, 250.6123, 255.90332, 260.2583, 262.72363, 267.30273, 269.76807, 275.95117, 281.33447, " y="937, ">
				included - expressed by a URI
		</text>
		<rect fill="white" x="170" y="890" width="40" height="16"/>
		<text font-size="12" font-weight="600" font-family="Segoe UI" x="170, 179.56836, 186.79297, 193.25, 200.50977, 205.33203, " y="903, ">
				whyuri
		</text>
		<rect fill="none" stroke="black" stroke-width="1" stroke-linecap="square" stroke-miterlimit="4" transform="translate(0.5 0.5)" x="161" y="888" width="55" height="20"/>
		<rect fill="silver" x="165" y="950" width="97" height="21"/>
		<rect fill="white" x="161" y="946" width="97" height="21"/>
		<rect fill="white" x="166" y="973" width="117" height="72"/>
		<text fill="gray" font-size="9" font-family="Segoe UI" x="166, 172.78516, 177.87842, 182.58496, 185.05029, 190.32373, 193.45264, 195.91797, 203.66992, 208.24902, 213.34229, 217.69727, 220.1626, 224.31982, 229.59326, 234.68652, 238.50537, 241.55518, 244.68408, 249.26318, 251.44287, 256.53613, 259.58594, 263.40479, 265.87012, 268.91992, 274.01318, 278.59229, " y="983, ">
				One or many constraints that
		</text>
		<text fill="gray" font-size="9" font-family="Segoe UI" x="166, 170.5791, 175.87012, 181.16113, 183.34082, 187.6958, 190.16113, 193.21094, 198.48438, 200.94971, 206.24072, 211.33398, 216.625, 218.80469, 220.98438, 224.80322, 229.89648, 232.07617, 237.16943, 242.46924, 244.93457, 247.98438, 253.07764, 257.78418, 260.24951, 264.56055, 269.13965, 271.31934, 276.4126, " y="995, ">
				apply to publishing the value
		</text>
		<text fill="gray" font-size="9" font-family="Segoe UI" x="166, 171.27344, 174.09033, 176.55566, 179.60547, 184.69873, 189.40527, 191.87061, 197.16162, 200.29053, 205.56396, 210.85498, 215.56152, 218.69043, 221.74023, 226.09521, 228.56055, 232.15967, 234.625, 239.33154, 243.4624, 248.75342, 251.88232, 256.58887, 260.40771, 264.22656, 268.93311, " y="1007, ">
				of the property - expressed
		</text>
		<text fill="gray" font-size="9" font-family="Segoe UI" x="166, 171.29102, 175.646, 178.11133, 182.69043, 185.15576, 191.94092, 197.51318, 202.78662, 208.08643, 212.79297, 214.74414, 217.20947, 221.76221, 226.34131, 230.49854, 235.5918, 238.05713, 242.21436, 247.48779, 252.58105, 256.3999, 259.44971, 262.57861, 267.15771, 269.3374, 274.43066, " y="1019, ">
				by a QCode. Each constraint
		</text>
		<text fill="gray" font-size="9" font-family="Segoe UI" x="166, 170.5791, 175.87012, 181.16113, 183.34082, 185.52051, 190.22705, 194.0459, 196.51123, 199.56104, 204.83447, 207.2998, 211.87891, 214.05859, 216.23828, 218.70361, 224.00342, 228.70996, 232.52881, 236.68604, 241.39258, 246.48584, 251.78564, 256.36475, 261.45801, " y="1031, ">
				applies to all descendant
		</text>
		<text fill="gray" font-size="9" font-family="Segoe UI" x="166, 170.70654, 172.88623, 177.59277, 185.34473, 190.05127, 195.14453, 198.19434, 202.01318, " y="1043, ">
				elements.
		</text>
		<rect fill="white" x="170" y="948" width="81" height="16"/>
		<text font-size="12" font-weight="600" font-family="Segoe UI" x="170, 177.44141, 184.70117, 192.14258, 197.90234, 205.23828, 212.49805, 217.77734, 222.44727, 227.22266, 233.67969, 237.08984, 244.34961, " y="961, ">
				pubconstraint
		</text>
		<rect fill="none" stroke="black" stroke-width="1" stroke-linecap="square" stroke-miterlimit="4" transform="translate(0.5 0.5)" x="161" y="946" width="96" height="20"/>
		<rect fill="silver" x="165" y="1056" width="112" height="21"/>
		<rect fill="white" x="161" y="1052" width="112" height="21"/>
		<rect fill="white" x="166" y="1079" width="117" height="72"/>
		<text fill="gray" font-size="9" font-family="Segoe UI" x="166, 172.78516, 177.87842, 182.58496, 185.05029, 190.32373, 193.45264, 195.91797, 203.66992, 208.24902, 213.34229, 217.69727, 220.1626, 224.31982, 229.59326, 234.68652, 238.50537, 241.55518, 244.68408, 249.26318, 251.44287, 256.53613, 259.58594, 263.40479, 265.87012, 268.91992, 274.01318, 278.59229, " y="1089, ">
				One or many constraints that
		</text>
		<text fill="gray" font-size="9" font-family="Segoe UI" x="166, 170.5791, 175.87012, 181.16113, 183.34082, 187.6958, 190.16113, 193.21094, 198.48438, 200.94971, 206.24072, 211.33398, 216.625, 218.80469, 220.98438, 224.80322, 229.89648, 232.07617, 237.16943, 242.46924, 244.93457, 247.98438, 253.07764, 257.78418, 260.24951, 264.56055, 269.13965, 271.31934, 276.4126, " y="1101, ">
				apply to publishing the value
		</text>
		<text fill="gray" font-size="9" font-family="Segoe UI" x="166, 171.27344, 174.09033, 176.55566, 179.60547, 184.69873, 189.40527, 191.87061, 197.16162, 200.29053, 205.56396, 210.85498, 215.56152, 218.69043, 221.74023, 226.09521, 228.56055, 232.15967, 234.625, 239.33154, 243.4624, 248.75342, 251.88232, 256.58887, 260.40771, 264.22656, 268.93311, " y="1113, ">
				of the property - expressed
		</text>
		<text fill="gray" font-size="9" font-family="Segoe UI" x="166, 171.29102, 175.646, 178.11133, 182.69043, 185.15576, 191.33887, 196.72217, 199.11719, 201.06836, 203.53369, 208.08643, 212.66553, 216.82275, 221.91602, 224.38135, 228.53857, 233.81201, 238.90527, 242.72412, 245.77393, 248.90283, 253.48193, 255.66162, 260.75488, " y="1125, ">
				by a URI. Each constraint
		</text>
		<text fill="gray" font-size="9" font-family="Segoe UI" x="166, 170.5791, 175.87012, 181.16113, 183.34082, 185.52051, 190.22705, 194.0459, 196.51123, 199.56104, 204.83447, 207.2998, 211.87891, 214.05859, 216.23828, 218.70361, 224.00342, 228.70996, 232.52881, 236.68604, 241.39258, 246.48584, 251.78564, 256.36475, 261.45801, " y="1137, ">
				applies to all descendant
		</text>
		<text fill="gray" font-size="9" font-family="Segoe UI" x="166, 170.70654, 172.88623, 177.59277, 185.34473, 190.05127, 195.14453, 198.19434, 202.01318, " y="1149, ">
				elements.
		</text>
		<rect fill="white" x="170" y="1054" width="96" height="16"/>
		<text font-size="12" font-weight="600" font-family="Segoe UI" x="170, 177.44141, 184.70117, 192.14258, 197.90234, 205.23828, 212.49805, 217.77734, 222.44727, 227.22266, 233.67969, 237.08984, 244.34961, 249.01953, 256.2793, 261.10156, " y="1067, ">
				pubconstrainturi
		</text>
		<rect fill="none" stroke="black" stroke-width="1" stroke-linecap="square" stroke-miterlimit="4" transform="translate(0.5 0.5)" x="161" y="1052" width="111" height="20"/>
		<rect fill="silver" x="165" y="1162" width="83" height="21"/>
		<rect fill="white" x="161" y="1158" width="83" height="21"/>
		<rect fill="white" x="166" y="1185" width="121" height="36"/>
		<text fill="gray" font-size="9" font-family="Segoe UI" x="166, 170.71533, 175.80859, 180.51514, 182.98047, 188.28027, 192.85938, 195.90918, 200.61572, 203.08105, 205.79688, 210.37598, 215.46924, 220.76904, 223.23438, 228.50781, 233.79883, 236.84863, 239.02832, 244.30176, 249.39502, 253.97412, 256.15381, 258.3335, 262.68848, 265.15381, 268.20361, 270.3833, 278.13525, 282.8418, " y="1195, ">
				The date (and optionally time)
		</text>
		<text fill="gray" font-size="9" font-family="Segoe UI" x="166, 170.5791, 173.62891, 176.09424, 182.59814, 187.69141, 189.87109, 194.02832, 199.12158, 201.58691, 204.63672, 209.72998, 214.43652, 216.90186, 221.48096, 226.77197, 232.06299, 235.19189, 240.46533, 244.59619, 246.77588, 254.52783, 259.10693, 262.15674, 264.33643, 269.60986, " y="1207, ">
				at which the approximation
		</text>
		<text fill="gray" font-size="9" font-family="Segoe UI" x="166, 169.12891, 173.70801, 178.80127, 184.10107, 188.80762, 191.27295, 196.56396, 201.27051, 206.57031, 208.75, 213.84326, 217.66211, " y="1219, ">
				range begins.
		</text>
		<rect fill="white" x="170" y="1160" width="67" height="16"/>
		<text font-size="12" font-weight="600" font-family="Segoe UI" x="170, 176.45703, 183.89844, 191.33984, 196.06836, 203.16406, 209.79102, 215.07031, 219.74023, 226.19727, 231.31836, " y="1173, ">
				approxstart
		</text>
		<rect fill="none" stroke="black" stroke-width="1" stroke-linecap="square" stroke-miterlimit="4" transform="translate(0.5 0.5)" x="161" y="1158" width="82" height="20"/>
		<rect fill="silver" x="165" y="1232" width="78" height="21"/>
		<rect fill="white" x="161" y="1228" width="78" height="21"/>
		<rect fill="white" x="166" y="1255" width="114" height="36"/>
		<text fill="gray" font-size="9" font-family="Segoe UI" x="166, 170.71533, 175.80859, 180.51514, 182.98047, 188.28027, 192.85938, 195.90918, 200.61572, 203.08105, 205.79688, 210.37598, 215.46924, 220.76904, 223.23438, 228.50781, 233.79883, 236.84863, 239.02832, 244.30176, 249.39502, 253.97412, 256.15381, 258.3335, 262.68848, 265.15381, 268.20361, 273.29688, " y="1265, ">
				The date (and optionally the
		</text>
		<text fill="gray" font-size="9" font-family="Segoe UI" x="166, 169.0498, 171.22949, 178.98145, 183.68799, 186.40381, 188.86914, 193.44824, 196.49805, 198.96338, 205.46729, 210.56055, 212.74023, 216.89746, 221.99072, 224.45605, 227.50586, 232.59912, " y="1277, ">
				time) at which the
		</text>
		<text fill="gray" font-size="9" font-family="Segoe UI" x="166, 170.5791, 175.87012, 181.16113, 184.29004, 189.56348, 193.69434, 195.87402, 203.62598, 208.20508, 211.25488, 213.43457, 218.70801, 223.80127, 226.2666, 229.39551, 233.97461, 239.06787, 244.36768, 249.07422, 251.53955, 256.24609, 261.33936, 266.63916, 270.45801, " y="1289, ">
				approximation range ends.
		</text>
		<rect fill="white" x="170" y="1230" width="62" height="16"/>
		<text font-size="12" font-weight="600" font-family="Segoe UI" x="170, 176.45703, 183.89844, 191.33984, 196.06836, 203.16406, 209.58594, 216.07812, 223.33789, " y="1243, ">
				approxend
		</text>
		<rect fill="none" stroke="black" stroke-width="1" stroke-linecap="square" stroke-miterlimit="4" transform="translate(0.5 0.5)" x="161" y="1228" width="77" height="20"/>
		<path fill="silver" d="M165 1307L170 1302L238 1302L243 1307L243 1318L238 1323L170 1323L165 1318L165 1307Z"/>
		<path fill="white" d="M161 1303L166 1298L234 1298L239 1303L239 1314L234 1319L166 1319L161 1314L161 1303Z"/>
		<rect fill="white" x="188" y="1300" width="46" height="16"/>
		<text font-size="12" font-weight="600" font-family="Segoe UI" x="188, 195.10742, 202.21484, 209.55078, 214.2207, 221.44531, 227.9375, " y="1313, ">
				##other
		</text>
		<rect fill="white" x="166" y="1300" width="20" height="16"/>
		<text fill="gray" font-size="12" font-family="Segoe UI" x="166, 172.10547, 178.89648, " y="1313, ">
				any
		</text>
		<path fill="none" stroke="black" stroke-width="1" stroke-linecap="square" stroke-miterlimit="4" transform="translate(0.5 0.5)" d="M161 1303L166 1298L233 1298L238 1303L238 1313L233 1318L166 1318L161 1313L161 1303Z"/>
		<rect x="152" y="41" width="11" height="11"/>
		<rect fill="white" x="153" y="42" width="9" height="9"/>
		<rect x="154" y="46" width="7" height="1"/>
		<path fill="white" d="M224 1373L224 1354L147 1354L147 1373L147 1703L370 1703L370 1373L224 1373Z"/>
		<rect fill="white" x="167" y="1356" width="51" height="16"/>
		<text font-size="12" font-style="italic" font-family="Segoe UI" x="167, 173.50391, 177.38281, 181.26172, 185.5332, 188.63867, 195.14258, 201.83984, 205.73047, 211.57227, " y="1369, ">
				attributes
		</text>
		<path fill="none" stroke="black" stroke-width="1" stroke-linecap="square" stroke-miterlimit="4" transform="translate(0.5 0.5)" d="M224 1373L224 1354L147 1354L147 1373L147 1703L370 1703L370 1373L224 1373Z"/>
		<path fill="white" d="M362 1401L362 1382L161 1382L161 1401L161 1670L362 1670L362 1401Z"/>
		<rect fill="white" x="166" y="1673" width="193" height="24"/>
		<text fill="gray" font-size="9" font-family="Segoe UI" x="166, 171.80518, 174.27051, 179.57031, 182.69922, 187.97266, 193.06592, 198.35693, 200.82227, 206.0957, 208.9126, 211.37793, 215.95703, 219.00684, 222.05664, 225.18555, 227.36523, 232.65625, 237.74951, 240.79932, 245.50586, 249.32471, 251.79004, 254.91895, 259.62549, 262.44238, 264.62207, 269.32861, 273.48584, 276.53564, 278.71533, 283.80859, 289.1084, 291.57373, 294.62354, 299.7168, 304.42334, 306.88867, 311.0459, 316.31934, 321.4126, 324.22949, 326.40918, 329.53809, 337.29004, 341.86914, 344.91895, 347.09863, 352.37207, " y="1683, ">
				A group of attributes reflecting the confirmation
		</text>
		<text fill="gray" font-size="9" font-family="Segoe UI" x="166, 169.81885, 172.86865, 177.44775, 180.49756, 185.59082, 189.40967, 191.875, 197.14844, 199.96533, 202.43066, 207.00977, 209.4751, 214.7749, 219.354, 222.40381, 227.11035, " y="1695, ">
				status of a date.
		</text>
		<rect fill="white" x="203" y="1384" width="153" height="16"/>
		<text font-size="12" font-weight="600" font-family="Segoe UI" x="203, 208.75977, 216.0957, 223.35547, 227.95508, 231.36523, 236.17578, 247.16797, 253.625, 258.29492, 261.70508, 269.04102, 276.30078, 282.72852, 287.39844, 293.85547, 298.52539, 305.78516, 311.06445, 319.26172, 323.93164, 328.60156, 333.42383, 336.83398, " y="1397, ">
				confirmationStatusAttrib
		</text>
		<text font-size="12" font-weight="600" font-family="Segoe UI" x="344.27539, 347.52734, 350.7793, " y="1397, ">
				...
		</text>
		<rect fill="white" x="181" y="1384" width="20" height="16"/>
		<text fill="gray" font-size="12" font-family="Segoe UI" x="181, 188.06641, 192.23828, " y="1397, ">
				grp
		</text>
		<path fill="none" stroke="gray" stroke-width="1" stroke-linecap="square" stroke-miterlimit="4" transform="translate(0.5 0.5)" d="M161 1401L161 1670L362 1670L362 1401L362 1401"/>
		<path fill="none" stroke="black" stroke-width="1" stroke-linecap="square" stroke-miterlimit="4" transform="translate(0.5 0.5)" d="M362 1401L362 1382L161 1382L161 1401"/>
		<rect x="166" y="1387" width="11" height="11"/>
		<rect fill="white" x="167" y="1388" width="9" height="9"/>
		<rect x="168" y="1392" width="7" height="1"/>
		<rect fill="silver" x="173" y="1415" width="124" height="21"/>
		<rect fill="white" x="169" y="1411" width="124" height="21"/>
		<rect fill="white" x="174" y="1438" width="114" height="108"/>
		<text fill="gray" font-size="9" font-family="Segoe UI" x="174, 176.39502, 181.48828, 186.78809, 188.96777, 193.125, 197.7041, 200.75391, 205.46045, 209.2793, 211.74463, 214.79443, 219.8877, 224.59424, 227.05957, 231.2168, 236.49023, 241.5835, 244.40039, 246.58008, 249.70898, 257.46094, 262.04004, 265.08984, 267.26953, 272.54297, " y="1448, ">
				Indicates the confirmation
		</text>
		<text fill="gray" font-size="9" font-family="Segoe UI" x="174, 177.81885, 180.86865, 185.44775, 188.49756, 193.59082, 197.40967, 199.875, 205.14844, 207.96533, 210.43066, 213.48047, 218.57373, 223.28027, 225.74561, 231.04541, 235.62451, 238.67432, 243.38086, 246.8877, 252.17871, 256.88525, 260.01416, 262.19385, 267.46729, 272.76709, " y="1460, ">
				status of the date/period/
		</text>
		<text fill="gray" font-size="9" font-family="Segoe UI" x="174, 179.2998, 184.39307, 187.52197, 192.10107, 195.15088, 197.33057, 202.604, 207.69727, 209.64844, 212.11377, 216.8291, 221.92236, 226.62891, 229.09424, 232.22314, 236.92969, 241.08691, 246.36035, 254.1123, 261.86426, 266.5708, 271.66406, 276.96387, 281.67041, " y="1472, ">
				duration. The recommended
		</text>
		<text fill="gray" font-size="9" font-family="Segoe UI" x="174, 178.31104, 183.58447, 187.7417, 192.3208, 197.61182, 202.70508, 204.88477, 209.46387, 212.59277, 216.94775, 219.41309, 221.59277, 225.41162, 227.87695, 230.92676, 236.02002, 240.72656, 243.19189, 245.58691, 250.62744, 254.92529, 260.49756, 262.96289, 267.51562, 271.82666, 276.5332, 281.62646, " y="1484, ">
				vocabulary is the IPTC Event
		</text>
		<text fill="gray" font-size="9" font-family="Segoe UI" x="174, 180.31055, 184.88965, 187.93945, 192.646, 195.11133, 200.68359, 205.95703, 211.05029, 213.86719, 216.04688, 219.17578, 226.92773, 231.50684, 234.55664, 236.73633, 242.00977, " y="1496, ">
				Date Confirmation
		</text>
		<text fill="gray" font-size="9" font-family="Segoe UI" x="174, 180.73242, 185.43896, 191.94287, 195.76172, 201.33398, 206.60742, 211.90723, 216.61377, 220.43262, 222.89795, 226.49707, 228.9624, 234.05566, 237.10547, 240.15527, 245.44629, 247.39746, 250.9043, " y="1508, ">
				NewsCodes - http://
		</text>
		<text fill="gray" font-size="9" font-family="Segoe UI" x="174, 178.15723, 182.46826, 184.41943, 186.59912, 191.89014, 194.93994, 199.09717, 201.04834, 206.32178, 209.45068, 214.75049, 218.25732, 223.35059, 228.05713, 234.56104, 238.37988, 242.53711, 247.81055, 253.11035, 257.81689, 261.63574, " y="1520, ">
				cv.iptc.org/newscodes/
		</text>
		<text fill="gray" font-size="9" font-family="Segoe UI" x="174, 178.70654, 183.01758, 187.72412, 192.81738, 195.86719, 201.16699, 205.74609, 208.7959, 213.50244, 217.65967, 222.93311, 228.02637, 230.84326, 233.02295, 236.15186, 243.90381, 247.41064, 249.87598, " y="1532, ">
				eventdateconfirm/ -
		</text>
		<text fill="gray" font-size="9" font-family="Segoe UI" x="174, 178.70654, 182.8374, 188.12842, 191.25732, 195.96387, 199.78271, 203.60156, 208.30811, 213.60791, 216.07324, 221.36426, 225.71924, 228.18457, 232.76367, 235.229, 242.01416, 247.58643, 252.85986, 258.15967, 262.86621, " y="1544, ">
				expressed by a QCode.
		</text>
		<rect fill="white" x="178" y="1413" width="108" height="16"/>
		<text font-size="12" font-weight="600" font-family="Segoe UI" x="178, 183.75977, 191.0957, 198.35547, 202.95508, 206.36523, 211.17578, 222.16797, 228.625, 233.29492, 236.70508, 244.04102, 251.30078, 256.58008, 261.25, 267.70703, 272.37695, 279.63672, " y="1426, ">
				confirmationstatus
		</text>
		<rect fill="none" stroke="black" stroke-width="1" stroke-linecap="square" stroke-miterlimit="4" transform="translate(0.5 0.5)" x="169" y="1411" width="123" height="20"/>
		<rect fill="silver" x="173" y="1557" width="140" height="21"/>
		<rect fill="white" x="169" y="1553" width="140" height="21"/>
		<rect fill="white" x="174" y="1580" width="131" height="84"/>
		<text fill="gray" font-size="9" font-family="Segoe UI" x="174, 176.39502, 181.48828, 186.78809, 188.96777, 193.125, 197.7041, 200.75391, 205.46045, 209.2793, 211.74463, 214.79443, 219.8877, 224.59424, 227.05957, 231.2168, 236.49023, 241.5835, 244.40039, 246.58008, 249.70898, 257.46094, 262.04004, 265.08984, 267.26953, 272.54297, 277.63623, 280.10156, 283.92041, 286.97021, 291.54932, 294.59912, 299.69238, " y="1590, ">
				Indicates the confirmation status
		</text>
		<text fill="gray" font-size="9" font-family="Segoe UI" x="174, 179.27344, 182.09033, 184.55566, 187.60547, 192.69873, 197.40527, 199.87061, 205.17041, 209.74951, 212.79932, 217.50586, 221.0127, 226.30371, 231.01025, 234.13916, 236.31885, 241.59229, 246.89209, 250.39893, 255.69873, 260.79199, 263.9209, 268.5, 271.5498, 273.72949, 279.00293, 284.09619, 286.04736, 288.5127, 293.22803, 298.32129, " y="1602, ">
				of the date/period/duration. The
		</text>
		<text fill="gray" font-size="9" font-family="Segoe UI" x="174, 177.12891, 181.83545, 185.99268, 191.26611, 199.01807, 206.77002, 211.47656, 216.56982, 221.86963, 226.57617, 231.87598, 234.34131, 238.65234, 243.92578, 248.08301, 252.66211, 257.95312, 263.04639, 265.22607, 269.80518, 272.93408, 277.28906, 279.75439, 281.93408, 285.75293, 288.21826, 291.26807, 296.36133, " y="1614, ">
				recommended vocabulary is the
		</text>
		<text fill="gray" font-size="9" font-family="Segoe UI" x="174, 176.39502, 181.43555, 185.7334, 191.30566, 193.771, 198.32373, 202.63477, 207.34131, 212.43457, 215.48438, 217.94971, 224.26025, 228.83936, 231.88916, 236.5957, 239.06104, 244.6333, 249.90674, 255, 257.81689, 259.99658, 263.12549, 270.87744, 275.45654, 278.50635, 280.68604, 285.95947, " y="1626, ">
				IPTC Event Date Confirmation
		</text>
		<text fill="gray" font-size="9" font-family="Segoe UI" x="174, 180.73242, 185.43896, 191.94287, 195.76172, 201.33398, 206.60742, 211.90723, 216.61377, 220.43262, 222.89795, 226.49707, 228.9624, 234.05566, 237.10547, 240.15527, 245.44629, 247.39746, 250.9043, 254.41113, 258.56836, 262.87939, 264.83057, 267.01025, 272.30127, 275.35107, 279.5083, 281.45947, 286.73291, 289.86182, 295.16162, " y="1638, ">
				NewsCodes - http://cv.iptc.org/
		</text>
		<text fill="gray" font-size="9" font-family="Segoe UI" x="174, 179.09326, 183.7998, 190.30371, 194.12256, 198.27979, 203.55322, 208.85303, 213.55957, 217.37842, 220.88525, 225.5918, 229.90283, 234.60938, 239.70264, 242.75244, 248.05225, 252.63135, 255.68115, 260.3877, 264.54492, 269.81836, 274.91162, 277.72852, 279.9082, 283.03711, 290.78906, 294.2959, 296.76123, " y="1650, ">
				newscodes/eventdateconfirm/ -
		</text>
		<text fill="gray" font-size="9" font-family="Segoe UI" x="174, 178.70654, 182.8374, 188.12842, 191.25732, 195.96387, 199.78271, 203.60156, 208.30811, 213.60791, 216.07324, 221.36426, 225.71924, 228.18457, 232.76367, 235.229, 241.41211, 246.79541, 249.19043, " y="1662, ">
				expressed by a URI.
		</text>
		<rect fill="white" x="178" y="1555" width="124" height="16"/>
		<text font-size="12" font-weight="600" font-family="Segoe UI" x="178, 183.75977, 191.0957, 198.35547, 202.95508, 206.36523, 211.17578, 222.16797, 228.625, 233.29492, 236.70508, 244.04102, 251.30078, 256.58008, 261.25, 267.70703, 272.37695, 279.63672, 284.91602, 292.17578, 296.99805, " y="1568, ">
				confirmationstatusuri
		</text>
		<rect fill="none" stroke="black" stroke-width="1" stroke-linecap="square" stroke-miterlimit="4" transform="translate(0.5 0.5)" x="169" y="1553" width="139" height="20"/>
		<rect x="152" y="1359" width="11" height="11"/>
		<rect fill="white" x="153" y="1360" width="9" height="9"/>
		<rect x="154" y="1364" width="7" height="1"/>
		<rect x="46" y="678" width="11" height="11"/>
		<rect fill="white" x="47" y="679" width="9" height="9"/>
		<rect x="48" y="683" width="7" height="1"/>
	</g>
</svg>
