<?xml version="1.0" encoding="utf-8" ?>
<svg xmlns="http://www.w3.org/2000/svg" xmlns:xlink="http://www.w3.org/1999/xlink" width="355" height="1224">
	<clipPath id="cl_259">
		<rect x="-10" y="-5" width="355" height="1224"/>
	</clipPath>
	<g clip-path="url(#cl_259)">
		<rect fill="#FFFFC0" x="140" width="185" height="1202"/>
		<rect fill="none" stroke="gray" stroke-width="1" stroke-linecap="square" stroke-miterlimit="4" transform="translate(0.5 0.5)" x="140" width="184" height="1201"/>
		<path fill="none" stroke="black" stroke-width="1" stroke-linecap="square" stroke-miterlimit="4" transform="translate(0.5 0.5)" d="M75 613L146 613"/>
		<rect fill="silver" x="4" y="607" width="70" height="21"/>
		<rect fill="white" y="603" width="70" height="21"/>
		<rect fill="#FFFFC0" x="148" y="8" width="166" height="16"/>
		<text fill="gray" font-size="12" font-weight="600" font-family="Segoe UI" x="148, 154.12891, 158.93945, 166.19922, 173.45898, 179.21875, 185.67578, 190.29883, 196.79102, 204.2207, 213.06836, 219.52539, 224.14844, 230.64062, 237.67188, 241.08203, 252.07422, 258.56641, 265.9375, 270.66602, 278.00195, 285.44336, 291.93555, 298.39258, 305.83398, " y="21, ">
				TruncatedDateTimePropType
		</text>
		<rect fill="white" x="5" y="630" width="120" height="24"/>
		<text fill="gray" font-size="9" font-family="Segoe UI" x="5, 9.715332, 14.808594, 19.515137, 21.980469, 27.280273, 31.859375, 34.90918, 39.615723, 42.081055, 45.130859, 50.224121, 54.930664, 57.395996, 62.695801, 67.402344, 72.675781, 77.966797, 83.240234, 85.419922, 87.599609, 90.649414, 92.829102, 96.986328, 101.56543, 103.74512, 106.21045, 110.78955, 113.91846, 118.625, " y="640, ">
				The date the geopolitical area
		</text>
		<text fill="gray" font-size="9" font-family="Segoe UI" x="5, 11.503906, 16.083008, 19.901855, 22.367188, 25.184082, 30.45752, 35.550781, 40.644043, 45.943848, 50.650391, 55.950195, 59.457031, 64.163574, 67.982422, 71.032227, 75.611328, 80.902344, 83.082031, 85.261719, 89.080566, 94.173828, 98.880371, 104.18018, " y="652, ">
				was founded/established.
		</text>
		<rect fill="white" x="9" y="605" width="49" height="16"/>
		<text font-size="12" font-weight="600" font-family="Segoe UI" x="9, 13.599609, 20.935547, 28.195312, 35.455078, 42.884766, 49.376953, " y="618, ">
				founded
		</text>
		<path fill="none" stroke="black" stroke-width="1" stroke-linecap="square" stroke-miterlimit="4" transform="translate(0.5 0.5)" d="M2 605L7 605"/>
		<path fill="none" stroke="black" stroke-width="1" stroke-linecap="square" stroke-miterlimit="4" transform="translate(0.5 0.5)" d="M2 607L6 607"/>
		<path fill="none" stroke="black" stroke-width="1" stroke-linecap="square" stroke-miterlimit="4" transform="translate(0.5 0.5)" d="M2 609L6 609"/>
		<rect fill="none" stroke="black" stroke-width="1" stroke-linecap="square" stroke-miterlimit="4" transform="translate(0.5 0.5)" y="603" width="69" height="20"/>
		<path fill="white" d="M224 55L224 36L147 36L147 55L147 1189L294 1189L294 55L224 55Z"/>
		<rect fill="white" x="167" y="38" width="51" height="16"/>
		<text font-size="12" font-style="italic" font-family="Segoe UI" x="167, 173.50391, 177.38281, 181.26172, 185.5332, 188.63867, 195.14258, 201.83984, 205.73047, 211.57227, " y="51, ">
				attributes
		</text>
		<path fill="none" stroke="black" stroke-width="1" stroke-linecap="square" stroke-miterlimit="4" transform="translate(0.5 0.5)" d="M224 55L224 36L147 36L147 55L147 1189L294 1189L294 55L224 55Z"/>
		<rect fill="silver" x="165" y="68" width="52" height="21"/>
		<rect fill="white" x="161" y="64" width="52" height="21"/>
		<rect fill="white" x="166" y="91" width="101" height="24"/>
		<text fill="gray" font-size="9" font-family="Segoe UI" x="166, 170.71533, 175.80859, 180.51514, 182.98047, 185.16016, 190.43359, 194.59082, 199.16992, 201.34961, 203.81494, 205.99463, 211.29443, 216.00098, 221.09424, 224.14404, 226.32373, 229.14062, 231.32031, 236.02686, 239.15576, 241.62109, 246.89453, 249.71143, 252.17676, 255.22656, 260.31982, " y="101, ">
				The local identifier of the
		</text>
		<text fill="gray" font-size="9" font-family="Segoe UI" x="166, 171.29102, 174.41992, 179.69336, 184.98438, 189.69092, 192.81982, 195.86963, 200.22461, " y="113, ">
				property.
		</text>
		<rect fill="white" x="170" y="66" width="36" height="16"/>
		<text font-size="12" font-weight="600" font-family="Segoe UI" x="170, 173.41016, " y="79, ">
				id
		</text>
		<rect fill="none" stroke="black" stroke-width="1" stroke-linecap="square" stroke-miterlimit="4" transform="translate(0.5 0.5)" x="161" y="64" width="51" height="20"/>
		<rect fill="silver" x="165" y="126" width="58" height="21"/>
		<rect fill="white" x="161" y="122" width="58" height="21"/>
		<rect fill="white" x="166" y="149" width="121" height="120"/>
		<text fill="gray" font-size="9" font-family="Segoe UI" x="166, 168.39502, 171.21191, 173.67725, 176.72705, 181.82031, 186.52686, 188.99219, 194.2832, 197.41211, 202.68555, 207.97656, 212.68311, 215.81201, 218.86182, 223.2168, 225.68213, 229.99316, 234.57227, 236.75195, 241.84521, 246.55176, 249.01709, 251.19678, 255.01562, 257.48096, 262.57422, 267.84766, " y="159, ">
				If the property value is not
		</text>
		<text fill="gray" font-size="9" font-family="Segoe UI" x="166, 171.2998, 176.00635, 178.82324, 181.00293, 186.09619, 190.80273, 196.10254, 198.05371, 200.51904, 204.33789, 209.62891, 214.33545, 218.49268, 220.67236, 223.48926, 225.66895, 230.37549, 234.19434, 236.65967, 243.16357, 248.25684, 250.43652, 254.59375, 259.68701, 262.15234, 266.85889, 271.95215, 275.00195, 277.18164, 280.23145, " y="171, ">
				defined, specifies which entity
		</text>
		<text fill="gray" font-size="9" font-family="Segoe UI" x="166, 168.71582, 174.00684, 178.71338, 181.84229, 185.66113, 190.93457, 196.02783, 197.979, 200.44434, 205.71777, 208.84668, 214.14648, 218.72559, 223.81885, 225.99854, 229.81738, 234.39648, 237.44629, 239.62598, 244.89941, 249.99268, 252.45801, 257.73145, " y="183, ">
				(person, organisation or
		</text>
		<text fill="gray" font-size="9" font-family="Segoe UI" x="166, 169.81885, 174.17383, 177.99268, 181.04248, 185.74902, 193.50098, 196.2168, 198.68213, 205.18604, 207.36572, 209.54541, 211.7251, 214.19043, 218.89697, 224.19678, 226.37646, 229.42627, 231.8916, 234.94141, 240.03467, 244.74121, 247.20654, 252.49756, 255.62646, 260.8999, 266.19092, 270.89746, 274.02637, 277.07617, " y="195, ">
				system) will edit the property
		</text>
		<text fill="gray" font-size="9" font-family="Segoe UI" x="166, 170.31104, 174.89014, 177.06982, 182.16309, 186.86963, 189.33496, 192.93408, 195.39941, 200.10596, 204.23682, 209.52783, 212.65674, 217.36328, 221.18213, 225.00098, 229.70752, 235.00732, 237.47266, 242.76367, 247.11865, 249.58398, 254.16309, 256.62842, 263.41357, 268.98584, 274.25928, 279.55908, 284.26562, " y="207, ">
				value - expressed by a QCode.
		</text>
		<text fill="gray" font-size="9" font-family="Segoe UI" x="166, 168.39502, 171.21191, 173.67725, 176.72705, 181.82031, 186.52686, 188.99219, 194.2832, 197.41211, 202.68555, 207.97656, 212.68311, 215.81201, 218.86182, 223.2168, 225.68213, 229.99316, 234.57227, 236.75195, 241.84521, 246.55176, 249.01709, 251.19678, " y="219, ">
				If the property value is
		</text>
		<text fill="gray" font-size="9" font-family="Segoe UI" x="166, 171.2998, 176.00635, 178.82324, 181.00293, 186.09619, 190.80273, 196.10254, 198.05371, 200.51904, 204.33789, 209.62891, 214.33545, 218.49268, 220.67236, 223.48926, 225.66895, 230.37549, 234.19434, 236.65967, 243.16357, 248.25684, 250.43652, 254.59375, 259.68701, 262.15234, 266.85889, 271.95215, 275.00195, 277.18164, 280.23145, " y="231, ">
				defined, specifies which entity
		</text>
		<text fill="gray" font-size="9" font-family="Segoe UI" x="166, 168.71582, 174.00684, 178.71338, 181.84229, 185.66113, 190.93457, 196.02783, 197.979, 200.44434, 205.71777, 208.84668, 214.14648, 218.72559, 223.81885, 225.99854, 229.81738, 234.39648, 237.44629, 239.62598, 244.89941, 249.99268, 252.45801, 257.73145, " y="243, ">
				(person, organisation or
		</text>
		<text fill="gray" font-size="9" font-family="Segoe UI" x="166, 169.81885, 174.17383, 177.99268, 181.04248, 185.74902, 193.50098, 196.2168, 198.68213, 203.77539, 208.35449, 212.17334, 214.63867, 219.34521, 224.64502, 226.82471, 229.87451, 234.58105, 239.88086, 242.34619, 245.396, 250.48926, " y="255, ">
				system) has edited the
		</text>
		<text fill="gray" font-size="9" font-family="Segoe UI" x="166, 171.29102, 174.41992, 179.69336, 184.98438, 189.69092, 192.81982, 195.86963, 200.22461, 202.68994, 207.00098, 211.58008, 213.75977, 218.85303, 223.55957, " y="267, ">
				property value.
		</text>
		<rect fill="white" x="170" y="124" width="42" height="16"/>
		<text font-size="12" font-weight="600" font-family="Segoe UI" x="170, 175.75977, 180.48828, 186.98047, 193.4375, 198.06055, 205.39648, " y="137, ">
				creator
		</text>
		<rect fill="none" stroke="black" stroke-width="1" stroke-linecap="square" stroke-miterlimit="4" transform="translate(0.5 0.5)" x="161" y="122" width="57" height="20"/>
		<rect fill="silver" x="165" y="280" width="73" height="21"/>
		<rect fill="white" x="161" y="276" width="73" height="21"/>
		<rect fill="white" x="166" y="303" width="120" height="108"/>
		<text fill="gray" font-size="9" font-family="Segoe UI" x="166, 168.39502, 171.21191, 173.67725, 176.72705, 181.82031, 186.52686, 188.99219, 194.2832, 197.41211, 202.68555, 207.97656, 212.68311, 215.81201, 218.86182, 223.2168, 225.68213, 229.99316, 234.57227, 236.75195, 241.84521, 246.55176, 249.01709, 251.19678, 255.01562, 257.48096, 262.57422, 267.84766, " y="313, ">
				If the property value is not
		</text>
		<text fill="gray" font-size="9" font-family="Segoe UI" x="166, 171.2998, 176.00635, 178.82324, 181.00293, 186.09619, 190.80273, 196.10254, 198.05371, 200.51904, 204.33789, 209.62891, 214.33545, 218.49268, 220.67236, 223.48926, 225.66895, 230.37549, 234.19434, 236.65967, 243.16357, 248.25684, 250.43652, 254.59375, 259.68701, 262.15234, 266.85889, 271.95215, 275.00195, 277.18164, 280.23145, " y="325, ">
				defined, specifies which entity
		</text>
		<text fill="gray" font-size="9" font-family="Segoe UI" x="166, 168.71582, 174.00684, 178.71338, 181.84229, 185.66113, 190.93457, 196.02783, 197.979, 200.44434, 205.71777, 208.84668, 214.14648, 218.72559, 223.81885, 225.99854, 229.81738, 234.39648, 237.44629, 239.62598, 244.89941, 249.99268, 252.45801, 257.73145, " y="337, ">
				(person, organisation or
		</text>
		<text fill="gray" font-size="9" font-family="Segoe UI" x="166, 169.81885, 174.17383, 177.99268, 181.04248, 185.74902, 193.50098, 196.2168, 198.68213, 205.18604, 207.36572, 209.54541, 211.7251, 214.19043, 218.89697, 224.19678, 226.37646, 229.42627, 231.8916, 234.94141, 240.03467, 244.74121, 247.20654, 252.49756, 255.62646, 260.8999, 266.19092, 270.89746, 274.02637, 277.07617, " y="349, ">
				system) will edit the property
		</text>
		<text fill="gray" font-size="9" font-family="Segoe UI" x="166, 169.59912, 172.06445, 176.771, 180.90186, 186.19287, 189.32178, 194.02832, 197.84717, 201.66602, 206.37256, 211.67236, 214.1377, 219.42871, 223.78369, 226.24902, 230.82812, 233.29346, 239.47656, 244.85986, 247.25488, 249.20605, 251.67139, 254.06641, 256.8833, 259.34863, 262.39844, 267.4917, " y="361, ">
				- expressed by a URI. If the
		</text>
		<text fill="gray" font-size="9" font-family="Segoe UI" x="166, 171.29102, 174.41992, 179.69336, 184.98438, 189.69092, 192.81982, 195.86963, 200.22461, 202.68994, 207.00098, 211.58008, 213.75977, 218.85303, 223.55957, 226.0249, 228.20459, 232.02344, 234.48877, 239.78857, 244.49512, 247.31201, 249.4917, 254.58496, 259.2915, 264.59131, " y="373, ">
				property value is defined,
		</text>
		<text fill="gray" font-size="9" font-family="Segoe UI" x="166, 169.81885, 175.10986, 179.81641, 183.97363, 186.15332, 188.97021, 191.1499, 195.85645, 199.67529, 202.14062, 208.64453, 213.73779, 215.91748, 220.07471, 225.16797, 227.6333, 232.33984, 237.43311, 240.48291, 242.6626, 245.7124, 250.06738, 252.53271, 255.24854, 260.53955, 265.24609, 268.375, 272.19385, 277.46729, 282.56055, " y="385, ">
				specifies which entity (person,
		</text>
		<text fill="gray" font-size="9" font-family="Segoe UI" x="166, 171.27344, 174.40234, 179.70215, 184.28125, 189.37451, 191.5542, 195.37305, 199.95215, 203.00195, 205.18164, 210.45508, 215.54834, 218.01367, 223.28711, 226.41602, 228.88135, 232.7002, 237.05518, 240.87402, 243.92383, 248.63037, 256.38232, 259.09814, 261.56348, 266.65674, 271.23584, " y="397, ">
				organisation or system) has
		</text>
		<text fill="gray" font-size="9" font-family="Segoe UI" x="166, 170.70654, 176.00635, 178.18604, 181.23584, 185.94238, 191.24219, 193.70752, 196.75732, 201.85059, 206.55713, 209.02246, 214.31348, 217.44238, 222.71582, 228.00684, 232.71338, 235.84229, 238.89209, 243.24707, " y="409, ">
				edited the property.
		</text>
		<rect fill="white" x="170" y="278" width="57" height="16"/>
		<text font-size="12" font-weight="600" font-family="Segoe UI" x="170, 175.75977, 180.48828, 186.98047, 193.4375, 198.06055, 205.39648, 210.20703, 217.4668, 222.28906, " y="291, ">
				creatoruri
		</text>
		<rect fill="none" stroke="black" stroke-width="1" stroke-linecap="square" stroke-miterlimit="4" transform="translate(0.5 0.5)" x="161" y="276" width="72" height="20"/>
		<rect fill="silver" x="165" y="422" width="69" height="21"/>
		<rect fill="white" x="161" y="418" width="69" height="21"/>
		<rect fill="white" x="166" y="445" width="119" height="72"/>
		<text fill="gray" font-size="9" font-family="Segoe UI" x="166, 170.71533, 175.80859, 180.51514, 182.98047, 188.28027, 192.85938, 195.90918, 200.61572, 203.08105, 205.79688, 210.37598, 215.46924, 220.76904, 222.72021, 225.18555, 230.45898, 235.75, 238.7998, 240.97949, 246.25293, 251.34619, 255.92529, 258.10498, 260.28467, 264.63965, 266.59082, 269.05615, 272.10596, 277.19922, " y="455, ">
				The date (and, optionally, the
		</text>
		<text fill="gray" font-size="9" font-family="Segoe UI" x="166, 169.0498, 171.22949, 178.98145, 183.68799, 186.40381, 188.86914, 195.37305, 200.46631, 205.17285, 210.26611, 212.73145, 215.78125, 220.87451, 225.58105, 228.04639, 233.3374, 236.46631, 241.73975, 247.03076, 251.7373, 254.86621, 257.91602, 262.271, 264.73633, 271.24023, 275.81934, " y="467, ">
				time) when the property was
		</text>
		<text fill="gray" font-size="9" font-family="Segoe UI" x="166, 168.17969, 172.75879, 176.57764, 179.62744, 182.09277, 189.84473, 195.11816, 200.41797, 202.59766, 205.41455, 207.59424, 212.30078, 217.60059, 219.55176, 222.01709, 226.73242, 231.82568, 236.53223, 238.99756, 241.17725, 246.27051, 248.4502, 251.5, 253.67969, 258.25879, 260.43848, 262.90381, 267.21484, 271.79395, 273.97363, 279.06689, " y="479, ">
				last modified. The initial value
		</text>
		<text fill="gray" font-size="9" font-family="Segoe UI" x="166, 168.17969, 171.99854, 174.46387, 177.51367, 182.60693, 187.31348, 189.77881, 195.07861, 199.65771, 202.70752, 207.41406, 209.87939, 212.59521, 217.17432, 222.26758, 227.56738, 229.51855, 231.98389, 237.25732, 242.54834, 245.59814, 247.77783, 253.05127, 258.14453, 262.72363, 264.90332, 267.08301, 271.43799, " y="491, ">
				is the date (and, optionally,
		</text>
		<text fill="gray" font-size="9" font-family="Segoe UI" x="166, 169.0498, 174.14307, 178.84961, 181.31494, 184.36475, 186.54443, 194.29639, 199.00293, 201.71875, 204.18408, 209.45752, 212.27441, 214.73975, 218.89697, 222.02588, 226.73242, 231.31152, 234.36133, 236.54102, 241.81445, 246.90771, 249.37305, 254.64648, 257.46338, 259.92871, 262.97852, 268.07178, " y="503, ">
				the time) of creation of the
		</text>
		<text fill="gray" font-size="9" font-family="Segoe UI" x="166, 171.29102, 174.41992, 179.69336, 184.98438, 189.69092, 192.81982, 195.86963, 200.22461, " y="515, ">
				property.
		</text>
		<rect fill="white" x="170" y="420" width="53" height="16"/>
		<text font-size="12" font-weight="600" font-family="Segoe UI" x="170, 180.99219, 188.32812, 195.75781, 199.16797, 203.76758, 207.17773, 213.66992, " y="433, ">
				modified
		</text>
		<rect fill="none" stroke="black" stroke-width="1" stroke-linecap="square" stroke-miterlimit="4" transform="translate(0.5 0.5)" x="161" y="418" width="68" height="20"/>
		<rect fill="silver" x="165" y="528" width="59" height="21"/>
		<rect fill="white" x="161" y="524" width="59" height="21"/>
		<rect fill="white" x="166" y="551" width="118" height="108"/>
		<text fill="gray" font-size="9" font-family="Segoe UI" x="166, 168.39502, 171.21191, 173.67725, 177.49609, 182.20264, 185.25244, 187.71777, 190.76758, 196.04102, 198.50635, 201.55615, 204.68506, 209.77832, 214.48486, 216.9502, 220, 225.09326, " y="561, ">
				If set to true the
		</text>
		<text fill="gray" font-size="9" font-family="Segoe UI" x="166, 170.15723, 175.43066, 178.55957, 181.68848, 186.39502, 190.21387, 195.50488, 200.77832, 205.87158, 211.17139, 213.35107, 218.44434, 223.74414, 226.20947, 231.50049, 234.62939, 239.90283, 245.19385, 249.90039, 253.0293, 256.0791, 260.43408, 262.89941, 269.40332, 273.98242, " y="573, ">
				corresponding property was
		</text>
		<text fill="gray" font-size="9" font-family="Segoe UI" x="166, 170.5791, 175.87891, 181.17871, 185.88525, 191.18506, 193.65039, 196.7002, 201.97363, 204.43896, 207.48877, 212.58203, 217.28857, 219.75391, 225.92822, 230.77979, 233.24512, 235.64014, 238.68994, 243.39648, 251.14844, 253.61377, 256.43066, 261.7041, 264.83301, 267.29834, " y="585, ">
				added to the G2 Item for a
		</text>
		<text fill="gray" font-size="9" font-family="Segoe UI" x="166, 169.81885, 175.10986, 179.81641, 183.97363, 186.15332, 188.97021, 191.1499, 195.30713, 197.77246, 201.92969, 207.02295, 210.8418, 213.8916, 219.16504, 226.91699, 231.62354, 234.75244, 237.21777, 242.49121, 245.62012, 248.08545, 253.38525, 256.51416, 261.7876, 266.88086, 272.17188, 274.63721, 279.91064, " y="597, ">
				specific customer or group of
		</text>
		<text fill="gray" font-size="9" font-family="Segoe UI" x="166, 170.15723, 175.25049, 179.06934, 182.11914, 187.39258, 195.14453, 199.85107, 202.97998, 206.79883, 209.26416, 214.5376, 219.63086, 221.81055, 226.16553, 228.1167, 230.58203, 235.29736, 240.39062, 245.09717, 247.5625, 252.8623, 257.56885, 260.38574, 264.96484, 270.05811, 272.23779, " y="609, ">
				customers only. The default
		</text>
		<text fill="gray" font-size="9" font-family="Segoe UI" x="166, 170.31104, 174.89014, 177.06982, 182.16309, 186.86963, 189.33496, 194.6084, 197.42529, 199.89062, 202.94043, 208.03369, 210.21338, 214.03223, 216.49756, 221.78857, 224.91748, 230.19092, 235.48193, 240.18848, 243.31738, 246.36719, 250.72217, 253.1875, 255.36719, 259.18604, 261.65137, 264.46826, 269.04736, 271.22705, 275.0459, " y="621, ">
				value of this property is false
		</text>
		<text fill="gray" font-size="9" font-family="Segoe UI" x="166, 172.50391, 177.59717, 179.77686, 183.93408, 189.02734, 191.49268, 196.07178, 201.36279, 206.65381, 208.8335, 211.01318, 215.71973, 219.53857, 222.00391, 228.50781, 233.60107, 238.30762, 243.40088, 245.86621, 248.91602, 254.00928, 256.18896, " y="633, ">
				which applies when this
		</text>
		<text fill="gray" font-size="9" font-family="Segoe UI" x="166, 170.5791, 173.62891, 176.67871, 179.80762, 181.9873, 187.27832, 192.37158, 195.42139, 200.12793, 202.59326, 204.77295, 208.5918, 211.05713, 216.15039, 221.42383, 224.47363, 226.93896, 232.03223, 235.85107, 240.55762, 245.85742, 248.32275, 254.82666, 257.00635, 260.05615, 265.14941, 267.61475, 270.66455, 275.75781, " y="645, ">
				attribute is not used with the
		</text>
		<text fill="gray" font-size="9" font-family="Segoe UI" x="166, 171.29102, 174.41992, 179.69336, 184.98438, 189.69092, 192.81982, 195.86963, 200.22461, " y="657, ">
				property.
		</text>
		<rect fill="white" x="170" y="526" width="43" height="16"/>
		<text font-size="12" font-weight="600" font-family="Segoe UI" x="170, 175.75977, 183.01953, 188.29883, 192.92188, 200.25781, " y="539, ">
				custom
		</text>
		<rect fill="none" stroke="black" stroke-width="1" stroke-linecap="square" stroke-miterlimit="4" transform="translate(0.5 0.5)" x="161" y="524" width="58" height="20"/>
		<rect fill="silver" x="165" y="670" width="52" height="21"/>
		<rect fill="white" x="161" y="666" width="52" height="21"/>
		<rect fill="white" x="166" y="693" width="118" height="48"/>
		<text fill="gray" font-size="9" font-family="Segoe UI" x="166, 168.39502, 173.48828, 178.78809, 180.96777, 185.125, 189.7041, 192.75391, 197.46045, 201.2793, 203.74463, 209.03564, 213.39062, 215.85596, 222.35986, 227.45312, 229.63281, 233.79004, 238.8833, 241.34863, 249.10059, 253.80713, 258.38623, 263.47949, 267.29834, 269.76367, 272.81348, 277.90674, " y="703, ">
				Indicates by which means the
		</text>
		<text fill="gray" font-size="9" font-family="Segoe UI" x="166, 170.31104, 174.89014, 177.06982, 182.16309, 186.86963, 189.33496, 195.83887, 200.41797, 204.23682, 206.70215, 211.40869, 215.53955, 218.58936, 221.71826, 226.29736, 230.45459, 233.50439, 238.21094, 243.51074, 245.97607, 248.79297, 251.92188, 257.19531, 264.94727, 267.4126, 270.4624, 275.55566, " y="715, ">
				value was extracted from the
		</text>
		<text fill="gray" font-size="9" font-family="Segoe UI" x="166, 170.15723, 175.43066, 180.52393, 183.57373, 188.28027, 193.37354, 196.42334, 198.88867, 202.48779, 204.95312, 209.65967, 213.79053, 219.08154, 222.21045, 226.91699, 230.73584, 234.55469, 239.26123, 244.56104, 247.02637, 252.31738, 256.67236, 259.1377, " y="727, ">
				content - expressed by a
		</text>
		<text fill="gray" font-size="9" font-family="Segoe UI" x="166, 172.78516, 178.35742, 183.63086, 188.93066, " y="739, ">
				QCode
		</text>
		<rect fill="white" x="170" y="668" width="36" height="16"/>
		<text font-size="12" font-weight="600" font-family="Segoe UI" x="170, 177.22461, 184.56055, " y="681, ">
				how
		</text>
		<rect fill="none" stroke="black" stroke-width="1" stroke-linecap="square" stroke-miterlimit="4" transform="translate(0.5 0.5)" x="161" y="666" width="51" height="20"/>
		<rect fill="silver" x="165" y="752" width="57" height="21"/>
		<rect fill="white" x="161" y="748" width="57" height="21"/>
		<rect fill="white" x="166" y="775" width="118" height="36"/>
		<text fill="gray" font-size="9" font-family="Segoe UI" x="166, 168.39502, 173.48828, 178.78809, 180.96777, 185.125, 189.7041, 192.75391, 197.46045, 201.2793, 203.74463, 209.03564, 213.39062, 215.85596, 222.35986, 227.45312, 229.63281, 233.79004, 238.8833, 241.34863, 249.10059, 253.80713, 258.38623, 263.47949, 267.29834, 269.76367, 272.81348, 277.90674, " y="785, ">
				Indicates by which means the
		</text>
		<text fill="gray" font-size="9" font-family="Segoe UI" x="166, 170.31104, 174.89014, 177.06982, 182.16309, 186.86963, 189.33496, 195.83887, 200.41797, 204.23682, 206.70215, 211.40869, 215.53955, 218.58936, 221.71826, 226.29736, 230.45459, 233.50439, 238.21094, 243.51074, 245.97607, 248.79297, 251.92188, 257.19531, 264.94727, 267.4126, 270.4624, 275.55566, " y="797, ">
				value was extracted from the
		</text>
		<text fill="gray" font-size="9" font-family="Segoe UI" x="166, 170.15723, 175.43066, 180.52393, 183.57373, 188.28027, 193.37354, 196.42334, 198.88867, 202.48779, 204.95312, 209.65967, 213.79053, 219.08154, 222.21045, 226.91699, 230.73584, 234.55469, 239.26123, 244.56104, 247.02637, 252.31738, 256.67236, 259.1377, 263.7168, 266.18213, 272.36523, 277.74854, " y="809, ">
				content - expressed by a URI
		</text>
		<rect fill="white" x="170" y="750" width="41" height="16"/>
		<text font-size="12" font-weight="600" font-family="Segoe UI" x="170, 177.22461, 184.56055, 194.12891, 201.38867, 206.21094, " y="763, ">
				howuri
		</text>
		<rect fill="none" stroke="black" stroke-width="1" stroke-linecap="square" stroke-miterlimit="4" transform="translate(0.5 0.5)" x="161" y="748" width="56" height="20"/>
		<rect fill="silver" x="165" y="822" width="52" height="21"/>
		<rect fill="white" x="161" y="818" width="52" height="21"/>
		<rect fill="white" x="166" y="845" width="113" height="36"/>
		<text fill="gray" font-size="9" font-family="Segoe UI" x="166, 174.40674, 179.5, 183.85498, 186.32031, 189.37012, 194.46338, 199.16992, 201.63525, 209.38721, 214.09375, 217.14355, 221.72266, 227.02246, 231.60156, 234.65137, 239.23047, 241.6958, 246.78906, 251.36816, 255.18701, 257.65234, 262.94336, 267.6499, 272.35645, " y="855, ">
				Why the metadata has been
		</text>
		<text fill="gray" font-size="9" font-family="Segoe UI" x="166, 168.17969, 173.27295, 177.43018, 179.60986, 184.70312, 190.00293, 194.70947, 200.00928, 202.47461, 206.07373, 208.53906, 213.24561, 217.37646, 222.66748, 225.79639, 230.50293, 234.32178, 238.14062, 242.84717, 248.14697, 250.6123, 255.90332, 260.2583, 262.72363, " y="867, ">
				included - expressed by a
		</text>
		<text fill="gray" font-size="9" font-family="Segoe UI" x="166, 172.78516, 178.35742, 183.63086, 188.93066, " y="879, ">
				QCode
		</text>
		<rect fill="white" x="170" y="820" width="36" height="16"/>
		<text font-size="12" font-weight="600" font-family="Segoe UI" x="170, 179.56836, 186.79297, " y="833, ">
				why
		</text>
		<rect fill="none" stroke="black" stroke-width="1" stroke-linecap="square" stroke-miterlimit="4" transform="translate(0.5 0.5)" x="161" y="818" width="51" height="20"/>
		<rect fill="silver" x="165" y="892" width="56" height="21"/>
		<rect fill="white" x="161" y="888" width="56" height="21"/>
		<rect fill="white" x="166" y="915" width="119" height="24"/>
		<text fill="gray" font-size="9" font-family="Segoe UI" x="166, 174.40674, 179.5, 183.85498, 186.32031, 189.37012, 194.46338, 199.16992, 201.63525, 209.38721, 214.09375, 217.14355, 221.72266, 227.02246, 231.60156, 234.65137, 239.23047, 241.6958, 246.78906, 251.36816, 255.18701, 257.65234, 262.94336, 267.6499, 272.35645, " y="925, ">
				Why the metadata has been
		</text>
		<text fill="gray" font-size="9" font-family="Segoe UI" x="166, 168.17969, 173.27295, 177.43018, 179.60986, 184.70312, 190.00293, 194.70947, 200.00928, 202.47461, 206.07373, 208.53906, 213.24561, 217.37646, 222.66748, 225.79639, 230.50293, 234.32178, 238.14062, 242.84717, 248.14697, 250.6123, 255.90332, 260.2583, 262.72363, 267.30273, 269.76807, 275.95117, 281.33447, " y="937, ">
				included - expressed by a URI
		</text>
		<rect fill="white" x="170" y="890" width="40" height="16"/>
		<text font-size="12" font-weight="600" font-family="Segoe UI" x="170, 179.56836, 186.79297, 193.25, 200.50977, 205.33203, " y="903, ">
				whyuri
		</text>
		<rect fill="none" stroke="black" stroke-width="1" stroke-linecap="square" stroke-miterlimit="4" transform="translate(0.5 0.5)" x="161" y="888" width="55" height="20"/>
		<rect fill="silver" x="165" y="950" width="97" height="21"/>
		<rect fill="white" x="161" y="946" width="97" height="21"/>
		<rect fill="white" x="166" y="973" width="117" height="72"/>
		<text fill="gray" font-size="9" font-family="Segoe UI" x="166, 172.78516, 177.87842, 182.58496, 185.05029, 190.32373, 193.45264, 195.91797, 203.66992, 208.24902, 213.34229, 217.69727, 220.1626, 224.31982, 229.59326, 234.68652, 238.50537, 241.55518, 244.68408, 249.26318, 251.44287, 256.53613, 259.58594, 263.40479, 265.87012, 268.91992, 274.01318, 278.59229, " y="983, ">
				One or many constraints that
		</text>
		<text fill="gray" font-size="9" font-family="Segoe UI" x="166, 170.5791, 175.87012, 181.16113, 183.34082, 187.6958, 190.16113, 193.21094, 198.48438, 200.94971, 206.24072, 211.33398, 216.625, 218.80469, 220.98438, 224.80322, 229.89648, 232.07617, 237.16943, 242.46924, 244.93457, 247.98438, 253.07764, 257.78418, 260.24951, 264.56055, 269.13965, 271.31934, 276.4126, " y="995, ">
				apply to publishing the value
		</text>
		<text fill="gray" font-size="9" font-family="Segoe UI" x="166, 171.27344, 174.09033, 176.55566, 179.60547, 184.69873, 189.40527, 191.87061, 197.16162, 200.29053, 205.56396, 210.85498, 215.56152, 218.69043, 221.74023, 226.09521, 228.56055, 232.15967, 234.625, 239.33154, 243.4624, 248.75342, 251.88232, 256.58887, 260.40771, 264.22656, 268.93311, " y="1007, ">
				of the property - expressed
		</text>
		<text fill="gray" font-size="9" font-family="Segoe UI" x="166, 171.29102, 175.646, 178.11133, 182.69043, 185.15576, 191.94092, 197.51318, 202.78662, 208.08643, 212.79297, 214.74414, 217.20947, 221.76221, 226.34131, 230.49854, 235.5918, 238.05713, 242.21436, 247.48779, 252.58105, 256.3999, 259.44971, 262.57861, 267.15771, 269.3374, 274.43066, " y="1019, ">
				by a QCode. Each constraint
		</text>
		<text fill="gray" font-size="9" font-family="Segoe UI" x="166, 170.5791, 175.87012, 181.16113, 183.34082, 185.52051, 190.22705, 194.0459, 196.51123, 199.56104, 204.83447, 207.2998, 211.87891, 214.05859, 216.23828, 218.70361, 224.00342, 228.70996, 232.52881, 236.68604, 241.39258, 246.48584, 251.78564, 256.36475, 261.45801, " y="1031, ">
				applies to all descendant
		</text>
		<text fill="gray" font-size="9" font-family="Segoe UI" x="166, 170.70654, 172.88623, 177.59277, 185.34473, 190.05127, 195.14453, 198.19434, 202.01318, " y="1043, ">
				elements.
		</text>
		<rect fill="white" x="170" y="948" width="81" height="16"/>
		<text font-size="12" font-weight="600" font-family="Segoe UI" x="170, 177.44141, 184.70117, 192.14258, 197.90234, 205.23828, 212.49805, 217.77734, 222.44727, 227.22266, 233.67969, 237.08984, 244.34961, " y="961, ">
				pubconstraint
		</text>
		<rect fill="none" stroke="black" stroke-width="1" stroke-linecap="square" stroke-miterlimit="4" transform="translate(0.5 0.5)" x="161" y="946" width="96" height="20"/>
		<rect fill="silver" x="165" y="1056" width="112" height="21"/>
		<rect fill="white" x="161" y="1052" width="112" height="21"/>
		<rect fill="white" x="166" y="1079" width="117" height="72"/>
		<text fill="gray" font-size="9" font-family="Segoe UI" x="166, 172.78516, 177.87842, 182.58496, 185.05029, 190.32373, 193.45264, 195.91797, 203.66992, 208.24902, 213.34229, 217.69727, 220.1626, 224.31982, 229.59326, 234.68652, 238.50537, 241.55518, 244.68408, 249.26318, 251.44287, 256.53613, 259.58594, 263.40479, 265.87012, 268.91992, 274.01318, 278.59229, " y="1089, ">
				One or many constraints that
		</text>
		<text fill="gray" font-size="9" font-family="Segoe UI" x="166, 170.5791, 175.87012, 181.16113, 183.34082, 187.6958, 190.16113, 193.21094, 198.48438, 200.94971, 206.24072, 211.33398, 216.625, 218.80469, 220.98438, 224.80322, 229.89648, 232.07617, 237.16943, 242.46924, 244.93457, 247.98438, 253.07764, 257.78418, 260.24951, 264.56055, 269.13965, 271.31934, 276.4126, " y="1101, ">
				apply to publishing the value
		</text>
		<text fill="gray" font-size="9" font-family="Segoe UI" x="166, 171.27344, 174.09033, 176.55566, 179.60547, 184.69873, 189.40527, 191.87061, 197.16162, 200.29053, 205.56396, 210.85498, 215.56152, 218.69043, 221.74023, 226.09521, 228.56055, 232.15967, 234.625, 239.33154, 243.4624, 248.75342, 251.88232, 256.58887, 260.40771, 264.22656, 268.93311, " y="1113, ">
				of the property - expressed
		</text>
		<text fill="gray" font-size="9" font-family="Segoe UI" x="166, 171.29102, 175.646, 178.11133, 182.69043, 185.15576, 191.33887, 196.72217, 199.11719, 201.06836, 203.53369, 208.08643, 212.66553, 216.82275, 221.91602, 224.38135, 228.53857, 233.81201, 238.90527, 242.72412, 245.77393, 248.90283, 253.48193, 255.66162, 260.75488, " y="1125, ">
				by a URI. Each constraint
		</text>
		<text fill="gray" font-size="9" font-family="Segoe UI" x="166, 170.5791, 175.87012, 181.16113, 183.34082, 185.52051, 190.22705, 194.0459, 196.51123, 199.56104, 204.83447, 207.2998, 211.87891, 214.05859, 216.23828, 218.70361, 224.00342, 228.70996, 232.52881, 236.68604, 241.39258, 246.48584, 251.78564, 256.36475, 261.45801, " y="1137, ">
				applies to all descendant
		</text>
		<text fill="gray" font-size="9" font-family="Segoe UI" x="166, 170.70654, 172.88623, 177.59277, 185.34473, 190.05127, 195.14453, 198.19434, 202.01318, " y="1149, ">
				elements.
		</text>
		<rect fill="white" x="170" y="1054" width="96" height="16"/>
		<text font-size="12" font-weight="600" font-family="Segoe UI" x="170, 177.44141, 184.70117, 192.14258, 197.90234, 205.23828, 212.49805, 217.77734, 222.44727, 227.22266, 233.67969, 237.08984, 244.34961, 249.01953, 256.2793, 261.10156, " y="1067, ">
				pubconstrainturi
		</text>
		<rect fill="none" stroke="black" stroke-width="1" stroke-linecap="square" stroke-miterlimit="4" transform="translate(0.5 0.5)" x="161" y="1052" width="111" height="20"/>
		<path fill="silver" d="M165 1167L170 1162L238 1162L243 1167L243 1178L238 1183L170 1183L165 1178L165 1167Z"/>
		<path fill="white" d="M161 1163L166 1158L234 1158L239 1163L239 1174L234 1179L166 1179L161 1174L161 1163Z"/>
		<rect fill="white" x="188" y="1160" width="46" height="16"/>
		<text font-size="12" font-weight="600" font-family="Segoe UI" x="188, 195.10742, 202.21484, 209.55078, 214.2207, 221.44531, 227.9375, " y="1173, ">
				##other
		</text>
		<rect fill="white" x="166" y="1160" width="20" height="16"/>
		<text fill="gray" font-size="12" font-family="Segoe UI" x="166, 172.10547, 178.89648, " y="1173, ">
				any
		</text>
		<path fill="none" stroke="black" stroke-width="1" stroke-linecap="square" stroke-miterlimit="4" transform="translate(0.5 0.5)" d="M161 1163L166 1158L233 1158L238 1163L238 1173L233 1178L166 1178L161 1173L161 1163Z"/>
		<rect x="152" y="41" width="11" height="11"/>
		<rect fill="white" x="153" y="42" width="9" height="9"/>
		<rect x="154" y="46" width="7" height="1"/>
		<rect x="64" y="608" width="11" height="11"/>
		<rect fill="white" x="65" y="609" width="9" height="9"/>
		<rect x="66" y="613" width="7" height="1"/>
	</g>
</svg>
