<?xml version="1.0" encoding="utf-8" ?>
<svg xmlns="http://www.w3.org/2000/svg" xmlns:xlink="http://www.w3.org/1999/xlink" width="392" height="1746">
	<clipPath id="cl_43">
		<rect x="-10" y="-5" width="392" height="1746"/>
	</clipPath>
	<g clip-path="url(#cl_43)">
		<rect fill="#FFFFC0" x="135" width="237" height="1736"/>
		<rect fill="none" stroke="gray" stroke-width="1" stroke-linecap="square" stroke-miterlimit="4" transform="translate(0.5 0.5)" x="135" width="236" height="1735"/>
		<path fill="none" stroke="black" stroke-width="1" stroke-linecap="square" stroke-miterlimit="4" transform="translate(0.5 0.5)" d="M67 1198L147 1198"/>
		<path fill="none" stroke="black" stroke-width="1" stroke-linecap="square" stroke-miterlimit="4" transform="translate(0.5 0.5)" d="M148 1198L148 794"/>
		<path transform="translate(0.5 0.5)" d="M148.5 1198L148.5 1200L148.5 1200.5L147.5 1200.5L147.5 1200L147.5 1197.5L148.5 1197.5L148.5 1198ZM148.5 1204L148.5 1206L148.5 1206.5L147.5 1206.5L147.5 1206L147.5 1203.5L148.5 1203.5L148.5 1204ZM148.5 1210L148.5 1212L148.5 1212.5L147.5 1212.5L147.5 1212L147.5 1209.5L148.5 1209.5L148.5 1210ZM148.5 1216L148.5 1218L148.5 1218.5L147.5 1218.5L147.5 1218L147.5 1215.5L148.5 1215.5L148.5 1216ZM148.5 1222L148.5 1224L148.5 1224.5L147.5 1224.5L147.5 1224L147.5 1221.5L148.5 1221.5L148.5 1222ZM148.5 1228L148.5 1230L148.5 1230.5L147.5 1230.5L147.5 1230L147.5 1227.5L148.5 1227.5L148.5 1228ZM148.5 1234L148.5 1236L148.5 1236.5L147.5 1236.5L147.5 1236L147.5 1233.5L148.5 1233.5L148.5 1234ZM148.5 1240L148.5 1242L148.5 1242.5L147.5 1242.5L147.5 1242L147.5 1239.5L148.5 1239.5L148.5 1240ZM148.5 1246L148.5 1248L148.5 1248.5L147.5 1248.5L147.5 1248L147.5 1245.5L148.5 1245.5L148.5 1246ZM148.5 1252L148.5 1254L148.5 1254.5L147.5 1254.5L147.5 1254L147.5 1251.5L148.5 1251.5L148.5 1252ZM148.5 1258L148.5 1260L148.5 1260.5L147.5 1260.5L147.5 1260L147.5 1257.5L148.5 1257.5L148.5 1258ZM148.5 1264L148.5 1266L148.5 1266.5L147.5 1266.5L147.5 1266L147.5 1263.5L148.5 1263.5L148.5 1264ZM148.5 1270L148.5 1272L148.5 1272.5L147.5 1272.5L147.5 1272L147.5 1269.5L148.5 1269.5L148.5 1270ZM148.5 1276L148.5 1278L148.5 1278.5L147.5 1278.5L147.5 1278L147.5 1275.5L148.5 1275.5L148.5 1276ZM148.5 1282L148.5 1284L148.5 1284.5L147.5 1284.5L147.5 1284L147.5 1281.5L148.5 1281.5L148.5 1282ZM148.5 1288L148.5 1290L148.5 1290.5L147.5 1290.5L147.5 1290L147.5 1287.5L148.5 1287.5L148.5 1288ZM148.5 1294L148.5 1296L148.5 1296.5L147.5 1296.5L147.5 1296L147.5 1293.5L148.5 1293.5L148.5 1294ZM148.5 1300L148.5 1302L148.5 1302.5L147.5 1302.5L147.5 1302L147.5 1299.5L148.5 1299.5L148.5 1300ZM148.5 1306L148.5 1308L148.5 1308.5L147.5 1308.5L147.5 1308L147.5 1305.5L148.5 1305.5L148.5 1306ZM148.5 1312L148.5 1314L148.5 1314.5L147.5 1314.5L147.5 1314L147.5 1311.5L148.5 1311.5L148.5 1312ZM148.5 1318L148.5 1320L148.5 1320.5L147.5 1320.5L147.5 1320L147.5 1317.5L148.5 1317.5L148.5 1318ZM148.5 1324L148.5 1326L148.5 1326.5L147.5 1326.5L147.5 1326L147.5 1323.5L148.5 1323.5L148.5 1324ZM148.5 1330L148.5 1332L148.5 1332.5L147.5 1332.5L147.5 1332L147.5 1329.5L148.5 1329.5L148.5 1330ZM148.5 1336L148.5 1338L148.5 1338.5L147.5 1338.5L147.5 1338L147.5 1335.5L148.5 1335.5L148.5 1336ZM148.5 1342L148.5 1344L148.5 1344.5L147.5 1344.5L147.5 1344L147.5 1341.5L148.5 1341.5L148.5 1342ZM148.5 1348L148.5 1350L148.5 1350.5L147.5 1350.5L147.5 1350L147.5 1347.5L148.5 1347.5L148.5 1348ZM148.5 1354L148.5 1356L148.5 1356.5L147.5 1356.5L147.5 1356L147.5 1353.5L148.5 1353.5L148.5 1354ZM148.5 1360L148.5 1362L148.5 1362.5L147.5 1362.5L147.5 1362L147.5 1359.5L148.5 1359.5L148.5 1360ZM148.5 1366L148.5 1368L148.5 1368.5L147.5 1368.5L147.5 1368L147.5 1365.5L148.5 1365.5L148.5 1366ZM148.5 1372L148.5 1374L148.5 1374.5L147.5 1374.5L147.5 1374L147.5 1371.5L148.5 1371.5L148.5 1372ZM148.5 1378L148.5 1380L148.5 1380.5L147.5 1380.5L147.5 1380L147.5 1377.5L148.5 1377.5L148.5 1378ZM148.5 1384L148.5 1386L148.5 1386.5L147.5 1386.5L147.5 1386L147.5 1383.5L148.5 1383.5L148.5 1384ZM148.5 1390L148.5 1392L148.5 1392.5L147.5 1392.5L147.5 1392L147.5 1389.5L148.5 1389.5L148.5 1390ZM148.5 1396L148.5 1398L148.5 1398.5L147.5 1398.5L147.5 1398L147.5 1395.5L148.5 1395.5L148.5 1396ZM148.5 1402L148.5 1404L148.5 1404.5L147.5 1404.5L147.5 1404L147.5 1401.5L148.5 1401.5L148.5 1402ZM148.5 1408L148.5 1410L148.5 1410.5L147.5 1410.5L147.5 1410L147.5 1407.5L148.5 1407.5L148.5 1408ZM148.5 1414L148.5 1416L148.5 1416.5L147.5 1416.5L147.5 1416L147.5 1413.5L148.5 1413.5L148.5 1414ZM148.5 1420L148.5 1422L148.5 1422.5L147.5 1422.5L147.5 1422L147.5 1419.5L148.5 1419.5L148.5 1420ZM148.5 1426L148.5 1428L148.5 1428.5L147.5 1428.5L147.5 1428L147.5 1425.5L148.5 1425.5L148.5 1426ZM148.5 1432L148.5 1434L148.5 1434.5L147.5 1434.5L147.5 1434L147.5 1431.5L148.5 1431.5L148.5 1432ZM148.5 1438L148.5 1440L148.5 1440.5L147.5 1440.5L147.5 1440L147.5 1437.5L148.5 1437.5L148.5 1438ZM148.5 1444L148.5 1446L148.5 1446.5L147.5 1446.5L147.5 1446L147.5 1443.5L148.5 1443.5L148.5 1444ZM148.5 1450L148.5 1452L148.5 1452.5L147.5 1452.5L147.5 1452L147.5 1449.5L148.5 1449.5L148.5 1450ZM148.5 1456L148.5 1458L148.5 1458.5L147.5 1458.5L147.5 1458L147.5 1455.5L148.5 1455.5L148.5 1456ZM148.5 1462L148.5 1464L148.5 1464.5L147.5 1464.5L147.5 1464L147.5 1461.5L148.5 1461.5L148.5 1462ZM148.5 1468L148.5 1470L148.5 1470.5L147.5 1470.5L147.5 1470L147.5 1467.5L148.5 1467.5L148.5 1468ZM148.5 1474L148.5 1476L148.5 1476.5L147.5 1476.5L147.5 1476L147.5 1473.5L148.5 1473.5L148.5 1474ZM148.5 1480L148.5 1482L148.5 1482.5L147.5 1482.5L147.5 1482L147.5 1479.5L148.5 1479.5L148.5 1480ZM148.5 1486L148.5 1488L148.5 1488.5L147.5 1488.5L147.5 1488L147.5 1485.5L148.5 1485.5L148.5 1486ZM148.5 1492L148.5 1494L148.5 1494.5L147.5 1494.5L147.5 1494L147.5 1491.5L148.5 1491.5L148.5 1492ZM148.5 1498L148.5 1500L148.5 1500.5L147.5 1500.5L147.5 1500L147.5 1497.5L148.5 1497.5L148.5 1498ZM148.5 1504L148.5 1506L148.5 1506.5L147.5 1506.5L147.5 1506L147.5 1503.5L148.5 1503.5L148.5 1504ZM148.5 1510L148.5 1512L148.5 1512.5L147.5 1512.5L147.5 1512L147.5 1509.5L148.5 1509.5L148.5 1510ZM148.5 1516L148.5 1518L148.5 1518.5L147.5 1518.5L147.5 1518L147.5 1515.5L148.5 1515.5L148.5 1516ZM148.5 1522L148.5 1524L148.5 1524.5L147.5 1524.5L147.5 1524L147.5 1521.5L148.5 1521.5L148.5 1522ZM148.5 1528L148.5 1530L148.5 1530.5L147.5 1530.5L147.5 1530L147.5 1527.5L148.5 1527.5L148.5 1528ZM148.5 1534L148.5 1536L148.5 1536.5L147.5 1536.5L147.5 1536L147.5 1533.5L148.5 1533.5L148.5 1534ZM148.5 1540L148.5 1542L148.5 1542.5L147.5 1542.5L147.5 1542L147.5 1539.5L148.5 1539.5L148.5 1540ZM148.5 1546L148.5 1548L148.5 1548.5L147.5 1548.5L147.5 1548L147.5 1545.5L148.5 1545.5L148.5 1546ZM148.5 1552L148.5 1554L148.5 1554.5L147.5 1554.5L147.5 1554L147.5 1551.5L148.5 1551.5L148.5 1552ZM148.5 1558L148.5 1560L148.5 1560.5L147.5 1560.5L147.5 1560L147.5 1557.5L148.5 1557.5L148.5 1558ZM148.5 1564L148.5 1566L148.5 1566.5L147.5 1566.5L147.5 1566L147.5 1563.5L148.5 1563.5L148.5 1564ZM148.5 1570L148.5 1572L148.5 1572.5L147.5 1572.5L147.5 1572L147.5 1569.5L148.5 1569.5L148.5 1570ZM148.5 1576L148.5 1578L148.5 1578.5L147.5 1578.5L147.5 1578L147.5 1575.5L148.5 1575.5L148.5 1576ZM148.5 1582L148.5 1584L148.5 1584.5L147.5 1584.5L147.5 1584L147.5 1581.5L148.5 1581.5L148.5 1582ZM148.5 1588L148.5 1590L148.5 1590.5L147.5 1590.5L147.5 1590L147.5 1587.5L148.5 1587.5L148.5 1588ZM148.5 1594L148.5 1596L148.5 1596.5L147.5 1596.5L147.5 1596L147.5 1593.5L148.5 1593.5L148.5 1594ZM148.5 1600L148.5 1602.5L147.5 1602.5L147.5 1599.5L148.5 1599.5L148.5 1600Z"/>
		<path transform="translate(0.5 0.5)" d="M148 1602.5L150 1602.5L150.5 1602.5L150.5 1603.5L150 1603.5L147.5 1603.5L147.5 1602.5L148 1602.5ZM154 1602.5L156 1602.5L156.5 1602.5L156.5 1603.5L156 1603.5L153.5 1603.5L153.5 1602.5L154 1602.5ZM160 1602.5L162.5 1602.5L162.5 1603.5L159.5 1603.5L159.5 1602.5L160 1602.5Z"/>
		<path fill="none" stroke="black" stroke-width="1" stroke-linecap="square" stroke-miterlimit="4" transform="translate(0.5 0.5)" d="M148 793L162 793"/>
		<rect fill="silver" x="7" y="1195" width="62" height="21"/>
		<rect fill="white" x="3" y="1191" width="62" height="21"/>
		<rect fill="none" stroke="black" stroke-width="1" stroke-linecap="square" stroke-miterlimit="4" transform="translate(0.5 0.5)" x="3" y="1191" width="61" height="20"/>
		<rect fill="white" y="1188" width="62" height="21"/>
		<path fill="none" stroke="black" stroke-width="1" stroke-linecap="square" stroke-miterlimit="4" transform="translate(0.5 0.5)" d="M47 1209L53 1215L56 1212"/>
		<rect fill="#FFFFC0" x="143" y="8" width="81" height="16"/>
		<text fill="gray" font-size="12" font-weight="600" font-family="Segoe UI" x="143, 152.09961, 159.35938, 165.81641, 169.22656, 176.59766, 181.32617, 188.66211, 196.10352, 202.5957, 209.05273, 216.49414, " y="21, ">
				QualPropType
		</text>
		<rect fill="white" x="5" y="1234" width="115" height="36"/>
		<text fill="gray" font-size="9" font-family="Segoe UI" x="5, 10.805176, 15.898438, 18.36377, 23.070312, 28.370117, 30.549805, 33.599609, 38.873047, 42.001953, 44.181641, 48.760742, 50.94043, 53.405762, 57.224609, 61.931152, 65.060059, 69.371094, 71.550781, 75.708008, 80.414551, 82.879883, 88.170898, 92.525879, 94.991211, 101.49512, 106.58838, 108.76807, 112.92529, " y="1244, ">
				An editorial service by which
		</text>
		<text fill="gray" font-size="9" font-family="Segoe UI" x="5, 8.0498047, 13.143066, 17.849609, 20.314941, 25.605957, 27.785645, 32.364746, 37.458008, 42.55127, 47.257812, 52.557617, 55.022949, 61.197266, 66.048828, 68.51416, 70.693848, 73.743652, 78.450195, 86.202148, 88.66748, 95.171387, 97.351074, 99.530762, 101.71045, 104.17578, 109.4668, " y="1256, ">
				the planned G2 item will be
		</text>
		<text fill="gray" font-size="9" font-family="Segoe UI" x="5, 10.299805, 12.479492, 16.29834, 19.348145, 22.477051, 24.656738, 29.947754, 35.041016, 38.09082, 42.797363, 48.097168, " y="1268, ">
				distributed.
		</text>
		<rect fill="white" x="9" y="1190" width="41" height="16"/>
		<text font-size="12" font-weight="600" font-family="Segoe UI" x="9, 14.279297, 20.771484, 26.027344, 32.53125, 35.941406, 41.701172, " y="1203, ">
				service
		</text>
		<text font-size="12" font-family="Segoe UI" x="32.765625, " y="1228, ">
				0
		</text>
		<text font-size="12" font-family="Symbol" x="47.722656, " y="1227, ">
				¥
		</text>
		<text font-size="12" font-family="Segoe UI" x="40.898438, 43.5, " y="1228, ">
				..
		</text>
		<rect fill="none" stroke="black" stroke-width="1" stroke-linecap="square" stroke-miterlimit="4" transform="translate(0.5 0.5)" y="1188" width="61" height="20"/>
		<path fill="white" d="M240 55L240 36L163 36L163 55L163 1549L310 1549L310 55L240 55Z"/>
		<rect fill="white" x="183" y="38" width="51" height="16"/>
		<text font-size="12" font-style="italic" font-family="Segoe UI" x="183, 189.50391, 193.38281, 197.26172, 201.5332, 204.63867, 211.14258, 217.83984, 221.73047, 227.57227, " y="51, ">
				attributes
		</text>
		<path fill="none" stroke="black" stroke-width="1" stroke-linecap="square" stroke-miterlimit="4" transform="translate(0.5 0.5)" d="M240 55L240 36L163 36L163 55L163 1549L310 1549L310 55L240 55Z"/>
		<rect fill="silver" x="181" y="68" width="52" height="21"/>
		<rect fill="white" x="177" y="64" width="52" height="21"/>
		<rect fill="white" x="182" y="91" width="101" height="24"/>
		<text fill="gray" font-size="9" font-family="Segoe UI" x="182, 186.71533, 191.80859, 196.51514, 198.98047, 201.16016, 206.43359, 210.59082, 215.16992, 217.34961, 219.81494, 221.99463, 227.29443, 232.00098, 237.09424, 240.14404, 242.32373, 245.14062, 247.32031, 252.02686, 255.15576, 257.62109, 262.89453, 265.71143, 268.17676, 271.22656, 276.31982, " y="101, ">
				The local identifier of the
		</text>
		<text fill="gray" font-size="9" font-family="Segoe UI" x="182, 187.29102, 190.41992, 195.69336, 200.98438, 205.69092, 208.81982, 211.86963, 216.22461, " y="113, ">
				property.
		</text>
		<rect fill="white" x="186" y="66" width="36" height="16"/>
		<text font-size="12" font-weight="600" font-family="Segoe UI" x="186, 189.41016, " y="79, ">
				id
		</text>
		<rect fill="none" stroke="black" stroke-width="1" stroke-linecap="square" stroke-miterlimit="4" transform="translate(0.5 0.5)" x="177" y="64" width="51" height="20"/>
		<rect fill="silver" x="181" y="126" width="58" height="21"/>
		<rect fill="white" x="177" y="122" width="58" height="21"/>
		<rect fill="white" x="182" y="149" width="121" height="120"/>
		<text fill="gray" font-size="9" font-family="Segoe UI" x="182, 184.39502, 187.21191, 189.67725, 192.72705, 197.82031, 202.52686, 204.99219, 210.2832, 213.41211, 218.68555, 223.97656, 228.68311, 231.81201, 234.86182, 239.2168, 241.68213, 245.99316, 250.57227, 252.75195, 257.84521, 262.55176, 265.01709, 267.19678, 271.01562, 273.48096, 278.57422, 283.84766, " y="159, ">
				If the property value is not
		</text>
		<text fill="gray" font-size="9" font-family="Segoe UI" x="182, 187.2998, 192.00635, 194.82324, 197.00293, 202.09619, 206.80273, 212.10254, 214.05371, 216.51904, 220.33789, 225.62891, 230.33545, 234.49268, 236.67236, 239.48926, 241.66895, 246.37549, 250.19434, 252.65967, 259.16357, 264.25684, 266.43652, 270.59375, 275.68701, 278.15234, 282.85889, 287.95215, 291.00195, 293.18164, 296.23145, " y="171, ">
				defined, specifies which entity
		</text>
		<text fill="gray" font-size="9" font-family="Segoe UI" x="182, 184.71582, 190.00684, 194.71338, 197.84229, 201.66113, 206.93457, 212.02783, 213.979, 216.44434, 221.71777, 224.84668, 230.14648, 234.72559, 239.81885, 241.99854, 245.81738, 250.39648, 253.44629, 255.62598, 260.89941, 265.99268, 268.45801, 273.73145, " y="183, ">
				(person, organisation or
		</text>
		<text fill="gray" font-size="9" font-family="Segoe UI" x="182, 185.81885, 190.17383, 193.99268, 197.04248, 201.74902, 209.50098, 212.2168, 214.68213, 221.18604, 223.36572, 225.54541, 227.7251, 230.19043, 234.89697, 240.19678, 242.37646, 245.42627, 247.8916, 250.94141, 256.03467, 260.74121, 263.20654, 268.49756, 271.62646, 276.8999, 282.19092, 286.89746, 290.02637, 293.07617, " y="195, ">
				system) will edit the property
		</text>
		<text fill="gray" font-size="9" font-family="Segoe UI" x="182, 186.31104, 190.89014, 193.06982, 198.16309, 202.86963, 205.33496, 208.93408, 211.39941, 216.10596, 220.23682, 225.52783, 228.65674, 233.36328, 237.18213, 241.00098, 245.70752, 251.00732, 253.47266, 258.76367, 263.11865, 265.58398, 270.16309, 272.62842, 279.41357, 284.98584, 290.25928, 295.55908, 300.26562, " y="207, ">
				value - expressed by a QCode.
		</text>
		<text fill="gray" font-size="9" font-family="Segoe UI" x="182, 184.39502, 187.21191, 189.67725, 192.72705, 197.82031, 202.52686, 204.99219, 210.2832, 213.41211, 218.68555, 223.97656, 228.68311, 231.81201, 234.86182, 239.2168, 241.68213, 245.99316, 250.57227, 252.75195, 257.84521, 262.55176, 265.01709, 267.19678, " y="219, ">
				If the property value is
		</text>
		<text fill="gray" font-size="9" font-family="Segoe UI" x="182, 187.2998, 192.00635, 194.82324, 197.00293, 202.09619, 206.80273, 212.10254, 214.05371, 216.51904, 220.33789, 225.62891, 230.33545, 234.49268, 236.67236, 239.48926, 241.66895, 246.37549, 250.19434, 252.65967, 259.16357, 264.25684, 266.43652, 270.59375, 275.68701, 278.15234, 282.85889, 287.95215, 291.00195, 293.18164, 296.23145, " y="231, ">
				defined, specifies which entity
		</text>
		<text fill="gray" font-size="9" font-family="Segoe UI" x="182, 184.71582, 190.00684, 194.71338, 197.84229, 201.66113, 206.93457, 212.02783, 213.979, 216.44434, 221.71777, 224.84668, 230.14648, 234.72559, 239.81885, 241.99854, 245.81738, 250.39648, 253.44629, 255.62598, 260.89941, 265.99268, 268.45801, 273.73145, " y="243, ">
				(person, organisation or
		</text>
		<text fill="gray" font-size="9" font-family="Segoe UI" x="182, 185.81885, 190.17383, 193.99268, 197.04248, 201.74902, 209.50098, 212.2168, 214.68213, 219.77539, 224.35449, 228.17334, 230.63867, 235.34521, 240.64502, 242.82471, 245.87451, 250.58105, 255.88086, 258.34619, 261.396, 266.48926, " y="255, ">
				system) has edited the
		</text>
		<text fill="gray" font-size="9" font-family="Segoe UI" x="182, 187.29102, 190.41992, 195.69336, 200.98438, 205.69092, 208.81982, 211.86963, 216.22461, 218.68994, 223.00098, 227.58008, 229.75977, 234.85303, 239.55957, " y="267, ">
				property value.
		</text>
		<rect fill="white" x="186" y="124" width="42" height="16"/>
		<text font-size="12" font-weight="600" font-family="Segoe UI" x="186, 191.75977, 196.48828, 202.98047, 209.4375, 214.06055, 221.39648, " y="137, ">
				creator
		</text>
		<rect fill="none" stroke="black" stroke-width="1" stroke-linecap="square" stroke-miterlimit="4" transform="translate(0.5 0.5)" x="177" y="122" width="57" height="20"/>
		<rect fill="silver" x="181" y="280" width="73" height="21"/>
		<rect fill="white" x="177" y="276" width="73" height="21"/>
		<rect fill="white" x="182" y="303" width="120" height="108"/>
		<text fill="gray" font-size="9" font-family="Segoe UI" x="182, 184.39502, 187.21191, 189.67725, 192.72705, 197.82031, 202.52686, 204.99219, 210.2832, 213.41211, 218.68555, 223.97656, 228.68311, 231.81201, 234.86182, 239.2168, 241.68213, 245.99316, 250.57227, 252.75195, 257.84521, 262.55176, 265.01709, 267.19678, 271.01562, 273.48096, 278.57422, 283.84766, " y="313, ">
				If the property value is not
		</text>
		<text fill="gray" font-size="9" font-family="Segoe UI" x="182, 187.2998, 192.00635, 194.82324, 197.00293, 202.09619, 206.80273, 212.10254, 214.05371, 216.51904, 220.33789, 225.62891, 230.33545, 234.49268, 236.67236, 239.48926, 241.66895, 246.37549, 250.19434, 252.65967, 259.16357, 264.25684, 266.43652, 270.59375, 275.68701, 278.15234, 282.85889, 287.95215, 291.00195, 293.18164, 296.23145, " y="325, ">
				defined, specifies which entity
		</text>
		<text fill="gray" font-size="9" font-family="Segoe UI" x="182, 184.71582, 190.00684, 194.71338, 197.84229, 201.66113, 206.93457, 212.02783, 213.979, 216.44434, 221.71777, 224.84668, 230.14648, 234.72559, 239.81885, 241.99854, 245.81738, 250.39648, 253.44629, 255.62598, 260.89941, 265.99268, 268.45801, 273.73145, " y="337, ">
				(person, organisation or
		</text>
		<text fill="gray" font-size="9" font-family="Segoe UI" x="182, 185.81885, 190.17383, 193.99268, 197.04248, 201.74902, 209.50098, 212.2168, 214.68213, 221.18604, 223.36572, 225.54541, 227.7251, 230.19043, 234.89697, 240.19678, 242.37646, 245.42627, 247.8916, 250.94141, 256.03467, 260.74121, 263.20654, 268.49756, 271.62646, 276.8999, 282.19092, 286.89746, 290.02637, 293.07617, " y="349, ">
				system) will edit the property
		</text>
		<text fill="gray" font-size="9" font-family="Segoe UI" x="182, 185.59912, 188.06445, 192.771, 196.90186, 202.19287, 205.32178, 210.02832, 213.84717, 217.66602, 222.37256, 227.67236, 230.1377, 235.42871, 239.78369, 242.24902, 246.82812, 249.29346, 255.47656, 260.85986, 263.25488, 265.20605, 267.67139, 270.06641, 272.8833, 275.34863, 278.39844, 283.4917, " y="361, ">
				- expressed by a URI. If the
		</text>
		<text fill="gray" font-size="9" font-family="Segoe UI" x="182, 187.29102, 190.41992, 195.69336, 200.98438, 205.69092, 208.81982, 211.86963, 216.22461, 218.68994, 223.00098, 227.58008, 229.75977, 234.85303, 239.55957, 242.0249, 244.20459, 248.02344, 250.48877, 255.78857, 260.49512, 263.31201, 265.4917, 270.58496, 275.2915, 280.59131, " y="373, ">
				property value is defined,
		</text>
		<text fill="gray" font-size="9" font-family="Segoe UI" x="182, 185.81885, 191.10986, 195.81641, 199.97363, 202.15332, 204.97021, 207.1499, 211.85645, 215.67529, 218.14062, 224.64453, 229.73779, 231.91748, 236.07471, 241.16797, 243.6333, 248.33984, 253.43311, 256.48291, 258.6626, 261.7124, 266.06738, 268.53271, 271.24854, 276.53955, 281.24609, 284.375, 288.19385, 293.46729, 298.56055, " y="385, ">
				specifies which entity (person,
		</text>
		<text fill="gray" font-size="9" font-family="Segoe UI" x="182, 187.27344, 190.40234, 195.70215, 200.28125, 205.37451, 207.5542, 211.37305, 215.95215, 219.00195, 221.18164, 226.45508, 231.54834, 234.01367, 239.28711, 242.41602, 244.88135, 248.7002, 253.05518, 256.87402, 259.92383, 264.63037, 272.38232, 275.09814, 277.56348, 282.65674, 287.23584, " y="397, ">
				organisation or system) has
		</text>
		<text fill="gray" font-size="9" font-family="Segoe UI" x="182, 186.70654, 192.00635, 194.18604, 197.23584, 201.94238, 207.24219, 209.70752, 212.75732, 217.85059, 222.55713, 225.02246, 230.31348, 233.44238, 238.71582, 244.00684, 248.71338, 251.84229, 254.89209, 259.24707, " y="409, ">
				edited the property.
		</text>
		<rect fill="white" x="186" y="278" width="57" height="16"/>
		<text font-size="12" font-weight="600" font-family="Segoe UI" x="186, 191.75977, 196.48828, 202.98047, 209.4375, 214.06055, 221.39648, 226.20703, 233.4668, 238.28906, " y="291, ">
				creatoruri
		</text>
		<rect fill="none" stroke="black" stroke-width="1" stroke-linecap="square" stroke-miterlimit="4" transform="translate(0.5 0.5)" x="177" y="276" width="72" height="20"/>
		<rect fill="silver" x="181" y="422" width="69" height="21"/>
		<rect fill="white" x="177" y="418" width="69" height="21"/>
		<rect fill="white" x="182" y="445" width="119" height="72"/>
		<text fill="gray" font-size="9" font-family="Segoe UI" x="182, 186.71533, 191.80859, 196.51514, 198.98047, 204.28027, 208.85938, 211.90918, 216.61572, 219.08105, 221.79688, 226.37598, 231.46924, 236.76904, 238.72021, 241.18555, 246.45898, 251.75, 254.7998, 256.97949, 262.25293, 267.34619, 271.92529, 274.10498, 276.28467, 280.63965, 282.59082, 285.05615, 288.10596, 293.19922, " y="455, ">
				The date (and, optionally, the
		</text>
		<text fill="gray" font-size="9" font-family="Segoe UI" x="182, 185.0498, 187.22949, 194.98145, 199.68799, 202.40381, 204.86914, 211.37305, 216.46631, 221.17285, 226.26611, 228.73145, 231.78125, 236.87451, 241.58105, 244.04639, 249.3374, 252.46631, 257.73975, 263.03076, 267.7373, 270.86621, 273.91602, 278.271, 280.73633, 287.24023, 291.81934, " y="467, ">
				time) when the property was
		</text>
		<text fill="gray" font-size="9" font-family="Segoe UI" x="182, 184.17969, 188.75879, 192.57764, 195.62744, 198.09277, 205.84473, 211.11816, 216.41797, 218.59766, 221.41455, 223.59424, 228.30078, 233.60059, 235.55176, 238.01709, 242.73242, 247.82568, 252.53223, 254.99756, 257.17725, 262.27051, 264.4502, 267.5, 269.67969, 274.25879, 276.43848, 278.90381, 283.21484, 287.79395, 289.97363, 295.06689, " y="479, ">
				last modified. The initial value
		</text>
		<text fill="gray" font-size="9" font-family="Segoe UI" x="182, 184.17969, 187.99854, 190.46387, 193.51367, 198.60693, 203.31348, 205.77881, 211.07861, 215.65771, 218.70752, 223.41406, 225.87939, 228.59521, 233.17432, 238.26758, 243.56738, 245.51855, 247.98389, 253.25732, 258.54834, 261.59814, 263.77783, 269.05127, 274.14453, 278.72363, 280.90332, 283.08301, 287.43799, " y="491, ">
				is the date (and, optionally,
		</text>
		<text fill="gray" font-size="9" font-family="Segoe UI" x="182, 185.0498, 190.14307, 194.84961, 197.31494, 200.36475, 202.54443, 210.29639, 215.00293, 217.71875, 220.18408, 225.45752, 228.27441, 230.73975, 234.89697, 238.02588, 242.73242, 247.31152, 250.36133, 252.54102, 257.81445, 262.90771, 265.37305, 270.64648, 273.46338, 275.92871, 278.97852, 284.07178, " y="503, ">
				the time) of creation of the
		</text>
		<text fill="gray" font-size="9" font-family="Segoe UI" x="182, 187.29102, 190.41992, 195.69336, 200.98438, 205.69092, 208.81982, 211.86963, 216.22461, " y="515, ">
				property.
		</text>
		<rect fill="white" x="186" y="420" width="53" height="16"/>
		<text font-size="12" font-weight="600" font-family="Segoe UI" x="186, 196.99219, 204.32812, 211.75781, 215.16797, 219.76758, 223.17773, 229.66992, " y="433, ">
				modified
		</text>
		<rect fill="none" stroke="black" stroke-width="1" stroke-linecap="square" stroke-miterlimit="4" transform="translate(0.5 0.5)" x="177" y="418" width="68" height="20"/>
		<rect fill="silver" x="181" y="528" width="59" height="21"/>
		<rect fill="white" x="177" y="524" width="59" height="21"/>
		<rect fill="white" x="182" y="551" width="118" height="108"/>
		<text fill="gray" font-size="9" font-family="Segoe UI" x="182, 184.39502, 187.21191, 189.67725, 193.49609, 198.20264, 201.25244, 203.71777, 206.76758, 212.04102, 214.50635, 217.55615, 220.68506, 225.77832, 230.48486, 232.9502, 236, 241.09326, " y="561, ">
				If set to true the
		</text>
		<text fill="gray" font-size="9" font-family="Segoe UI" x="182, 186.15723, 191.43066, 194.55957, 197.68848, 202.39502, 206.21387, 211.50488, 216.77832, 221.87158, 227.17139, 229.35107, 234.44434, 239.74414, 242.20947, 247.50049, 250.62939, 255.90283, 261.19385, 265.90039, 269.0293, 272.0791, 276.43408, 278.89941, 285.40332, 289.98242, " y="573, ">
				corresponding property was
		</text>
		<text fill="gray" font-size="9" font-family="Segoe UI" x="182, 186.5791, 191.87891, 197.17871, 201.88525, 207.18506, 209.65039, 212.7002, 217.97363, 220.43896, 223.48877, 228.58203, 233.28857, 235.75391, 241.92822, 246.77979, 249.24512, 251.64014, 254.68994, 259.39648, 267.14844, 269.61377, 272.43066, 277.7041, 280.83301, 283.29834, " y="585, ">
				added to the G2 Item for a
		</text>
		<text fill="gray" font-size="9" font-family="Segoe UI" x="182, 185.81885, 191.10986, 195.81641, 199.97363, 202.15332, 204.97021, 207.1499, 211.30713, 213.77246, 217.92969, 223.02295, 226.8418, 229.8916, 235.16504, 242.91699, 247.62354, 250.75244, 253.21777, 258.49121, 261.62012, 264.08545, 269.38525, 272.51416, 277.7876, 282.88086, 288.17188, 290.63721, 295.91064, " y="597, ">
				specific customer or group of
		</text>
		<text fill="gray" font-size="9" font-family="Segoe UI" x="182, 186.15723, 191.25049, 195.06934, 198.11914, 203.39258, 211.14453, 215.85107, 218.97998, 222.79883, 225.26416, 230.5376, 235.63086, 237.81055, 242.16553, 244.1167, 246.58203, 251.29736, 256.39062, 261.09717, 263.5625, 268.8623, 273.56885, 276.38574, 280.96484, 286.05811, 288.23779, " y="609, ">
				customers only. The default
		</text>
		<text fill="gray" font-size="9" font-family="Segoe UI" x="182, 186.31104, 190.89014, 193.06982, 198.16309, 202.86963, 205.33496, 210.6084, 213.42529, 215.89062, 218.94043, 224.03369, 226.21338, 230.03223, 232.49756, 237.78857, 240.91748, 246.19092, 251.48193, 256.18848, 259.31738, 262.36719, 266.72217, 269.1875, 271.36719, 275.18604, 277.65137, 280.46826, 285.04736, 287.22705, 291.0459, " y="621, ">
				value of this property is false
		</text>
		<text fill="gray" font-size="9" font-family="Segoe UI" x="182, 188.50391, 193.59717, 195.77686, 199.93408, 205.02734, 207.49268, 212.07178, 217.36279, 222.65381, 224.8335, 227.01318, 231.71973, 235.53857, 238.00391, 244.50781, 249.60107, 254.30762, 259.40088, 261.86621, 264.91602, 270.00928, 272.18896, " y="633, ">
				which applies when this
		</text>
		<text fill="gray" font-size="9" font-family="Segoe UI" x="182, 186.5791, 189.62891, 192.67871, 195.80762, 197.9873, 203.27832, 208.37158, 211.42139, 216.12793, 218.59326, 220.77295, 224.5918, 227.05713, 232.15039, 237.42383, 240.47363, 242.93896, 248.03223, 251.85107, 256.55762, 261.85742, 264.32275, 270.82666, 273.00635, 276.05615, 281.14941, 283.61475, 286.66455, 291.75781, " y="645, ">
				attribute is not used with the
		</text>
		<text fill="gray" font-size="9" font-family="Segoe UI" x="182, 187.29102, 190.41992, 195.69336, 200.98438, 205.69092, 208.81982, 211.86963, 216.22461, " y="657, ">
				property.
		</text>
		<rect fill="white" x="186" y="526" width="43" height="16"/>
		<text font-size="12" font-weight="600" font-family="Segoe UI" x="186, 191.75977, 199.01953, 204.29883, 208.92188, 216.25781, " y="539, ">
				custom
		</text>
		<rect fill="none" stroke="black" stroke-width="1" stroke-linecap="square" stroke-miterlimit="4" transform="translate(0.5 0.5)" x="177" y="524" width="58" height="20"/>
		<rect fill="silver" x="181" y="670" width="52" height="21"/>
		<rect fill="white" x="177" y="666" width="52" height="21"/>
		<rect fill="white" x="182" y="693" width="118" height="48"/>
		<text fill="gray" font-size="9" font-family="Segoe UI" x="182, 184.39502, 189.48828, 194.78809, 196.96777, 201.125, 205.7041, 208.75391, 213.46045, 217.2793, 219.74463, 225.03564, 229.39062, 231.85596, 238.35986, 243.45312, 245.63281, 249.79004, 254.8833, 257.34863, 265.10059, 269.80713, 274.38623, 279.47949, 283.29834, 285.76367, 288.81348, 293.90674, " y="703, ">
				Indicates by which means the
		</text>
		<text fill="gray" font-size="9" font-family="Segoe UI" x="182, 186.31104, 190.89014, 193.06982, 198.16309, 202.86963, 205.33496, 211.83887, 216.41797, 220.23682, 222.70215, 227.40869, 231.53955, 234.58936, 237.71826, 242.29736, 246.45459, 249.50439, 254.21094, 259.51074, 261.97607, 264.79297, 267.92188, 273.19531, 280.94727, 283.4126, 286.4624, 291.55566, " y="715, ">
				value was extracted from the
		</text>
		<text fill="gray" font-size="9" font-family="Segoe UI" x="182, 186.15723, 191.43066, 196.52393, 199.57373, 204.28027, 209.37354, 212.42334, 214.88867, 218.48779, 220.95312, 225.65967, 229.79053, 235.08154, 238.21045, 242.91699, 246.73584, 250.55469, 255.26123, 260.56104, 263.02637, 268.31738, 272.67236, 275.1377, " y="727, ">
				content - expressed by a
		</text>
		<text fill="gray" font-size="9" font-family="Segoe UI" x="182, 188.78516, 194.35742, 199.63086, 204.93066, " y="739, ">
				QCode
		</text>
		<rect fill="white" x="186" y="668" width="36" height="16"/>
		<text font-size="12" font-weight="600" font-family="Segoe UI" x="186, 193.22461, 200.56055, " y="681, ">
				how
		</text>
		<rect fill="none" stroke="black" stroke-width="1" stroke-linecap="square" stroke-miterlimit="4" transform="translate(0.5 0.5)" x="177" y="666" width="51" height="20"/>
		<rect fill="silver" x="181" y="752" width="57" height="21"/>
		<rect fill="white" x="177" y="748" width="57" height="21"/>
		<rect fill="white" x="182" y="775" width="118" height="36"/>
		<text fill="gray" font-size="9" font-family="Segoe UI" x="182, 184.39502, 189.48828, 194.78809, 196.96777, 201.125, 205.7041, 208.75391, 213.46045, 217.2793, 219.74463, 225.03564, 229.39062, 231.85596, 238.35986, 243.45312, 245.63281, 249.79004, 254.8833, 257.34863, 265.10059, 269.80713, 274.38623, 279.47949, 283.29834, 285.76367, 288.81348, 293.90674, " y="785, ">
				Indicates by which means the
		</text>
		<text fill="gray" font-size="9" font-family="Segoe UI" x="182, 186.31104, 190.89014, 193.06982, 198.16309, 202.86963, 205.33496, 211.83887, 216.41797, 220.23682, 222.70215, 227.40869, 231.53955, 234.58936, 237.71826, 242.29736, 246.45459, 249.50439, 254.21094, 259.51074, 261.97607, 264.79297, 267.92188, 273.19531, 280.94727, 283.4126, 286.4624, 291.55566, " y="797, ">
				value was extracted from the
		</text>
		<text fill="gray" font-size="9" font-family="Segoe UI" x="182, 186.15723, 191.43066, 196.52393, 199.57373, 204.28027, 209.37354, 212.42334, 214.88867, 218.48779, 220.95312, 225.65967, 229.79053, 235.08154, 238.21045, 242.91699, 246.73584, 250.55469, 255.26123, 260.56104, 263.02637, 268.31738, 272.67236, 275.1377, 279.7168, 282.18213, 288.36523, 293.74854, " y="809, ">
				content - expressed by a URI
		</text>
		<rect fill="white" x="186" y="750" width="41" height="16"/>
		<text font-size="12" font-weight="600" font-family="Segoe UI" x="186, 193.22461, 200.56055, 210.12891, 217.38867, 222.21094, " y="763, ">
				howuri
		</text>
		<rect fill="none" stroke="black" stroke-width="1" stroke-linecap="square" stroke-miterlimit="4" transform="translate(0.5 0.5)" x="177" y="748" width="56" height="20"/>
		<rect fill="silver" x="181" y="822" width="52" height="21"/>
		<rect fill="white" x="177" y="818" width="52" height="21"/>
		<rect fill="white" x="182" y="845" width="113" height="36"/>
		<text fill="gray" font-size="9" font-family="Segoe UI" x="182, 190.40674, 195.5, 199.85498, 202.32031, 205.37012, 210.46338, 215.16992, 217.63525, 225.38721, 230.09375, 233.14355, 237.72266, 243.02246, 247.60156, 250.65137, 255.23047, 257.6958, 262.78906, 267.36816, 271.18701, 273.65234, 278.94336, 283.6499, 288.35645, " y="855, ">
				Why the metadata has been
		</text>
		<text fill="gray" font-size="9" font-family="Segoe UI" x="182, 184.17969, 189.27295, 193.43018, 195.60986, 200.70312, 206.00293, 210.70947, 216.00928, 218.47461, 222.07373, 224.53906, 229.24561, 233.37646, 238.66748, 241.79639, 246.50293, 250.32178, 254.14062, 258.84717, 264.14697, 266.6123, 271.90332, 276.2583, 278.72363, " y="867, ">
				included - expressed by a
		</text>
		<text fill="gray" font-size="9" font-family="Segoe UI" x="182, 188.78516, 194.35742, 199.63086, 204.93066, " y="879, ">
				QCode
		</text>
		<rect fill="white" x="186" y="820" width="36" height="16"/>
		<text font-size="12" font-weight="600" font-family="Segoe UI" x="186, 195.56836, 202.79297, " y="833, ">
				why
		</text>
		<rect fill="none" stroke="black" stroke-width="1" stroke-linecap="square" stroke-miterlimit="4" transform="translate(0.5 0.5)" x="177" y="818" width="51" height="20"/>
		<rect fill="silver" x="181" y="892" width="56" height="21"/>
		<rect fill="white" x="177" y="888" width="56" height="21"/>
		<rect fill="white" x="182" y="915" width="119" height="24"/>
		<text fill="gray" font-size="9" font-family="Segoe UI" x="182, 190.40674, 195.5, 199.85498, 202.32031, 205.37012, 210.46338, 215.16992, 217.63525, 225.38721, 230.09375, 233.14355, 237.72266, 243.02246, 247.60156, 250.65137, 255.23047, 257.6958, 262.78906, 267.36816, 271.18701, 273.65234, 278.94336, 283.6499, 288.35645, " y="925, ">
				Why the metadata has been
		</text>
		<text fill="gray" font-size="9" font-family="Segoe UI" x="182, 184.17969, 189.27295, 193.43018, 195.60986, 200.70312, 206.00293, 210.70947, 216.00928, 218.47461, 222.07373, 224.53906, 229.24561, 233.37646, 238.66748, 241.79639, 246.50293, 250.32178, 254.14062, 258.84717, 264.14697, 266.6123, 271.90332, 276.2583, 278.72363, 283.30273, 285.76807, 291.95117, 297.33447, " y="937, ">
				included - expressed by a URI
		</text>
		<rect fill="white" x="186" y="890" width="40" height="16"/>
		<text font-size="12" font-weight="600" font-family="Segoe UI" x="186, 195.56836, 202.79297, 209.25, 216.50977, 221.33203, " y="903, ">
				whyuri
		</text>
		<rect fill="none" stroke="black" stroke-width="1" stroke-linecap="square" stroke-miterlimit="4" transform="translate(0.5 0.5)" x="177" y="888" width="55" height="20"/>
		<rect fill="silver" x="181" y="950" width="97" height="21"/>
		<rect fill="white" x="177" y="946" width="97" height="21"/>
		<rect fill="white" x="182" y="973" width="117" height="72"/>
		<text fill="gray" font-size="9" font-family="Segoe UI" x="182, 188.78516, 193.87842, 198.58496, 201.05029, 206.32373, 209.45264, 211.91797, 219.66992, 224.24902, 229.34229, 233.69727, 236.1626, 240.31982, 245.59326, 250.68652, 254.50537, 257.55518, 260.68408, 265.26318, 267.44287, 272.53613, 275.58594, 279.40479, 281.87012, 284.91992, 290.01318, 294.59229, " y="983, ">
				One or many constraints that
		</text>
		<text fill="gray" font-size="9" font-family="Segoe UI" x="182, 186.5791, 191.87012, 197.16113, 199.34082, 203.6958, 206.16113, 209.21094, 214.48438, 216.94971, 222.24072, 227.33398, 232.625, 234.80469, 236.98438, 240.80322, 245.89648, 248.07617, 253.16943, 258.46924, 260.93457, 263.98438, 269.07764, 273.78418, 276.24951, 280.56055, 285.13965, 287.31934, 292.4126, " y="995, ">
				apply to publishing the value
		</text>
		<text fill="gray" font-size="9" font-family="Segoe UI" x="182, 187.27344, 190.09033, 192.55566, 195.60547, 200.69873, 205.40527, 207.87061, 213.16162, 216.29053, 221.56396, 226.85498, 231.56152, 234.69043, 237.74023, 242.09521, 244.56055, 248.15967, 250.625, 255.33154, 259.4624, 264.75342, 267.88232, 272.58887, 276.40771, 280.22656, 284.93311, " y="1007, ">
				of the property - expressed
		</text>
		<text fill="gray" font-size="9" font-family="Segoe UI" x="182, 187.29102, 191.646, 194.11133, 198.69043, 201.15576, 207.94092, 213.51318, 218.78662, 224.08643, 228.79297, 230.74414, 233.20947, 237.76221, 242.34131, 246.49854, 251.5918, 254.05713, 258.21436, 263.48779, 268.58105, 272.3999, 275.44971, 278.57861, 283.15771, 285.3374, 290.43066, " y="1019, ">
				by a QCode. Each constraint
		</text>
		<text fill="gray" font-size="9" font-family="Segoe UI" x="182, 186.5791, 191.87012, 197.16113, 199.34082, 201.52051, 206.22705, 210.0459, 212.51123, 215.56104, 220.83447, 223.2998, 227.87891, 230.05859, 232.23828, 234.70361, 240.00342, 244.70996, 248.52881, 252.68604, 257.39258, 262.48584, 267.78564, 272.36475, 277.45801, " y="1031, ">
				applies to all descendant
		</text>
		<text fill="gray" font-size="9" font-family="Segoe UI" x="182, 186.70654, 188.88623, 193.59277, 201.34473, 206.05127, 211.14453, 214.19434, 218.01318, " y="1043, ">
				elements.
		</text>
		<rect fill="white" x="186" y="948" width="81" height="16"/>
		<text font-size="12" font-weight="600" font-family="Segoe UI" x="186, 193.44141, 200.70117, 208.14258, 213.90234, 221.23828, 228.49805, 233.77734, 238.44727, 243.22266, 249.67969, 253.08984, 260.34961, " y="961, ">
				pubconstraint
		</text>
		<rect fill="none" stroke="black" stroke-width="1" stroke-linecap="square" stroke-miterlimit="4" transform="translate(0.5 0.5)" x="177" y="946" width="96" height="20"/>
		<rect fill="silver" x="181" y="1056" width="112" height="21"/>
		<rect fill="white" x="177" y="1052" width="112" height="21"/>
		<rect fill="white" x="182" y="1079" width="117" height="72"/>
		<text fill="gray" font-size="9" font-family="Segoe UI" x="182, 188.78516, 193.87842, 198.58496, 201.05029, 206.32373, 209.45264, 211.91797, 219.66992, 224.24902, 229.34229, 233.69727, 236.1626, 240.31982, 245.59326, 250.68652, 254.50537, 257.55518, 260.68408, 265.26318, 267.44287, 272.53613, 275.58594, 279.40479, 281.87012, 284.91992, 290.01318, 294.59229, " y="1089, ">
				One or many constraints that
		</text>
		<text fill="gray" font-size="9" font-family="Segoe UI" x="182, 186.5791, 191.87012, 197.16113, 199.34082, 203.6958, 206.16113, 209.21094, 214.48438, 216.94971, 222.24072, 227.33398, 232.625, 234.80469, 236.98438, 240.80322, 245.89648, 248.07617, 253.16943, 258.46924, 260.93457, 263.98438, 269.07764, 273.78418, 276.24951, 280.56055, 285.13965, 287.31934, 292.4126, " y="1101, ">
				apply to publishing the value
		</text>
		<text fill="gray" font-size="9" font-family="Segoe UI" x="182, 187.27344, 190.09033, 192.55566, 195.60547, 200.69873, 205.40527, 207.87061, 213.16162, 216.29053, 221.56396, 226.85498, 231.56152, 234.69043, 237.74023, 242.09521, 244.56055, 248.15967, 250.625, 255.33154, 259.4624, 264.75342, 267.88232, 272.58887, 276.40771, 280.22656, 284.93311, " y="1113, ">
				of the property - expressed
		</text>
		<text fill="gray" font-size="9" font-family="Segoe UI" x="182, 187.29102, 191.646, 194.11133, 198.69043, 201.15576, 207.33887, 212.72217, 215.11719, 217.06836, 219.53369, 224.08643, 228.66553, 232.82275, 237.91602, 240.38135, 244.53857, 249.81201, 254.90527, 258.72412, 261.77393, 264.90283, 269.48193, 271.66162, 276.75488, " y="1125, ">
				by a URI. Each constraint
		</text>
		<text fill="gray" font-size="9" font-family="Segoe UI" x="182, 186.5791, 191.87012, 197.16113, 199.34082, 201.52051, 206.22705, 210.0459, 212.51123, 215.56104, 220.83447, 223.2998, 227.87891, 230.05859, 232.23828, 234.70361, 240.00342, 244.70996, 248.52881, 252.68604, 257.39258, 262.48584, 267.78564, 272.36475, 277.45801, " y="1137, ">
				applies to all descendant
		</text>
		<text fill="gray" font-size="9" font-family="Segoe UI" x="182, 186.70654, 188.88623, 193.59277, 201.34473, 206.05127, 211.14453, 214.19434, 218.01318, " y="1149, ">
				elements.
		</text>
		<rect fill="white" x="186" y="1054" width="96" height="16"/>
		<text font-size="12" font-weight="600" font-family="Segoe UI" x="186, 193.44141, 200.70117, 208.14258, 213.90234, 221.23828, 228.49805, 233.77734, 238.44727, 243.22266, 249.67969, 253.08984, 260.34961, 265.01953, 272.2793, 277.10156, " y="1067, ">
				pubconstrainturi
		</text>
		<rect fill="none" stroke="black" stroke-width="1" stroke-linecap="square" stroke-miterlimit="4" transform="translate(0.5 0.5)" x="177" y="1052" width="111" height="20"/>
		<rect fill="silver" x="181" y="1162" width="52" height="21"/>
		<rect fill="white" x="177" y="1158" width="52" height="21"/>
		<rect fill="white" x="182" y="1185" width="121" height="72"/>
		<text fill="gray" font-size="9" font-family="Segoe UI" x="182, 187.80518, 190.27051, 194.42773, 199.70117, 204.79443, 208.95166, 213.6582, 218.94922, 221.99902, 224.46436, 226.64404, 231.94385, 236.65039, 241.74365, 244.79346, 246.97314, 249.79004, 251.96973, 256.67627, 259.80518, 262.27051, 266.97705, 271.10791, 276.39893, 279.52783, 284.23438, 288.05322, 291.87207, 296.57861, " y="1195, ">
				A concept identifier expressed
		</text>
		<text fill="gray" font-size="9" font-family="Segoe UI" x="182, 186.5791, 190.39795, 192.86328, 197.44238, 199.90771, 203.72656, 206.77637, 209.90527, 212.08496, 217.17822, 222.47803, 224.94336, 230.2168, 233.03369, 235.49902, 238.54883, 243.64209, 248.34863, 250.81396, 253.63086, 258.9043, 262.0332, 269.78516, 272.25049, 276.06934, 279.88818, 283.70703, 285.6582, 289.81543, 293.97266, 298.12988, " y="1207, ">
				as a string of the form sss:ccc,
		</text>
		<text fill="gray" font-size="9" font-family="Segoe UI" x="182, 188.50391, 193.59717, 198.30371, 201.43262, 206.13916, 208.60449, 212.42334, 216.24219, 220.06104, 222.52637, 224.70605, 228.5249, 230.99023, 235.56934, 238.03467, 241.85352, 246.01074, 251.104, 255.81055, 263.5625, 268.26904, 270.73438, 275.31348, 277.49316, 279.67285, 284.25195, " y="1219, ">
				where sss is a scheme alias
		</text>
		<text fill="gray" font-size="9" font-family="Segoe UI" x="182, 186.5791, 191.67236, 196.97217, 199.4375, 203.59473, 207.75195, 211.90918, 214.37451, 216.5542, 220.37305, 222.83838, 227.41748, 229.88281, 234.04004, 239.31348, 244.61328, 249.31982, 251.271, 253.73633, 258.28906, 260.46875, 263.51855, 268.61182, 273.31836, 276.44727, 278.9126, 281.9624, 287.05566, " y="1231, ">
				and ccc is a code. Either the
		</text>
		<text fill="gray" font-size="9" font-family="Segoe UI" x="182, 187.2998, 191.45703, 196.73047, 202.03027, 206.73682, 209.20215, 214.47559, 217.60449, 220.06982, 223.11963, 228.21289, 232.91943, 235.38477, 240.47803, 243.60693, 245.78662, 248.25195, 252.83105, 255.88086, 258.93066, 262.05957, 264.23926, 269.53027, 274.62354, 277.67334, " y="1243, ">
				qcode or the uri attribute
		</text>
		<text fill="gray" font-size="9" font-family="Segoe UI" x="182, 190.08154, 196.26465, 201.0459, 205.76123, 208.22656, 213.51758, 218.22412, 220.68945, 225.78271, 229.60156, 234.30811, " y="1255, ">
				MUST be used
		</text>
		<rect fill="white" x="186" y="1160" width="36" height="16"/>
		<text font-size="12" font-weight="600" font-family="Segoe UI" x="186, 193.42969, 199.18945, 206.52539, 213.95508, " y="1173, ">
				qcode
		</text>
		<rect fill="none" stroke="black" stroke-width="1" stroke-linecap="square" stroke-miterlimit="4" transform="translate(0.5 0.5)" x="177" y="1158" width="51" height="20"/>
		<rect fill="silver" x="181" y="1268" width="52" height="21"/>
		<rect fill="white" x="177" y="1264" width="52" height="21"/>
		<rect fill="white" x="182" y="1291" width="113" height="48"/>
		<text fill="gray" font-size="9" font-family="Segoe UI" x="182, 187.80518, 190.27051, 196.45361, 201.83691, 204.23193, 206.69727, 213.20117, 218.29443, 220.47412, 224.63135, 229.72461, 232.18994, 234.36963, 239.66943, 244.37598, 249.46924, 252.51904, 254.69873, 257.51562, 259.69531, 264.40186, 268.2207, 270.68604, " y="1301, ">
				A URI which identifies a
		</text>
		<text fill="gray" font-size="9" font-family="Segoe UI" x="182, 186.15723, 191.43066, 196.52393, 200.68115, 205.3877, 210.67871, 213.72852, 218.65918, 222.2583, 224.72363, 229.43018, 231.60986, 234.65967, 239.75293, 244.45947, 247.58838, 250.05371, 253.10352, 258.19678, 262.90332, 267.83398, 273.13379, 277.29102, 282.56445, 287.86426, " y="1313, ">
				concept - either the qcode
		</text>
		<text fill="gray" font-size="9" font-family="Segoe UI" x="182, 187.27344, 190.40234, 192.86768, 195.91748, 201.01074, 205.71729, 208.18262, 213.27588, 216.40479, 218.58447, 221.0498, 225.62891, 228.67871, 231.72852, 234.85742, 237.03711, 242.32812, 247.42139, 250.47119, 255.17773, 257.64307, 265.72461, 271.90771, 276.68896, 281.4043, 283.86963, 289.16064, " y="1325, ">
				or the uri attribute MUST be
		</text>
		<text fill="gray" font-size="9" font-family="Segoe UI" x="182, 187.09326, 190.91211, 195.61865, " y="1337, ">
				used
		</text>
		<rect fill="white" x="186" y="1266" width="36" height="16"/>
		<text font-size="12" font-weight="600" font-family="Segoe UI" x="186, 193.25977, 198.08203, " y="1279, ">
				uri
		</text>
		<rect fill="none" stroke="black" stroke-width="1" stroke-linecap="square" stroke-miterlimit="4" transform="translate(0.5 0.5)" x="177" y="1264" width="51" height="20"/>
		<path fill="silver" d="M181 1355L186 1350L254 1350L259 1355L259 1366L254 1371L186 1371L181 1366L181 1355Z"/>
		<path fill="white" d="M177 1351L182 1346L250 1346L255 1351L255 1362L250 1367L182 1367L177 1362L177 1351Z"/>
		<rect fill="white" x="204" y="1348" width="46" height="16"/>
		<text font-size="12" font-weight="600" font-family="Segoe UI" x="204, 211.10742, 218.21484, 225.55078, 230.2207, 237.44531, 243.9375, " y="1361, ">
				##other
		</text>
		<rect fill="white" x="182" y="1348" width="20" height="16"/>
		<text fill="gray" font-size="12" font-family="Segoe UI" x="182, 188.10547, 194.89648, " y="1361, ">
				any
		</text>
		<path fill="none" stroke="black" stroke-width="1" stroke-linecap="square" stroke-miterlimit="4" transform="translate(0.5 0.5)" d="M177 1351L182 1346L249 1346L254 1351L254 1361L249 1366L182 1366L177 1361L177 1351Z"/>
		<rect fill="silver" x="181" y="1378" width="66" height="21"/>
		<rect fill="white" x="177" y="1374" width="66" height="21"/>
		<rect fill="white" x="182" y="1401" width="121" height="84"/>
		<text fill="gray" font-size="9" font-family="Segoe UI" x="182, 186.78125, 192.07227, 196.77881, 200.93604, 203.11572, 205.93262, 208.1123, 212.81885, 216.6377, 219.10303, 222.15283, 227.24609, 231.95264, 234.41797, 236.59766, 241.17676, 246.27002, 251.56982, 256.66309, 261.24219, 266.54199, 271.24854, 273.71387, 278.9873, 281.8042, 284.26953, 287.31934, 292.4126, 294.59229, " y="1411, ">
				Specifies the language of this
		</text>
		<text fill="gray" font-size="9" font-family="Segoe UI" x="182, 187.29102, 190.41992, 195.69336, 200.98438, 205.69092, 208.81982, 211.86963, 216.22461, 218.68994, 223.26904, 228.3623, 233.66211, 236.12744, 241.41846, 246.69189, 249.7417, 254.44824, 259.5415, 262.59131, 264.771, 269.3501, 271.52979, 273.70947, 278.06445, 280.52979, 285.10889, 287.28857, " y="1423, ">
				property and potentially all
		</text>
		<text fill="gray" font-size="9" font-family="Segoe UI" x="182, 187.2998, 192.00635, 195.8252, 199.98242, 204.68896, 209.78223, 215.08203, 219.66113, 224.75439, 227.8042, 230.26953, 235.56055, 238.68945, 243.96289, 249.25391, 253.96045, 257.08936, 260.13916, 262.31885, 267.02539, 270.84424, " y="1435, ">
				descendant properties.
		</text>
		<text fill="gray" font-size="9" font-family="Segoe UI" x="182, 186.13086, 193.88281, 196.0625, 198.01367, 200.19336, 204.77246, 209.86572, 215.16553, 217.63086, 221.94189, 226.521, 228.70068, 233.79395, 238.50049, 242.31934, 244.78467, 250.05811, 252.875, 255.34033, 260.64014, 265.34668, 269.16553, 273.32275, 278.0293, 283.12256, 288.42236, 293.00146, 298.09473, " y="1447, ">
				xml:lang values of descendant
		</text>
		<text fill="gray" font-size="9" font-family="Segoe UI" x="182, 187.29102, 190.41992, 195.69336, 200.98438, 205.69092, 208.81982, 211.86963, 214.04932, 218.75586, 222.57471, 225.04004, 230.31348, 234.62451, 239.33105, 242.45996, 245.58887, 247.76855, 253.06836, 257.7749, 260.24023, 263.29004, 268.3833, 270.56299, 274.38184, 276.84717, 281.1582, 285.7373, 287.91699, 293.01025, 297.7168, " y="1459, ">
				properties override this value.
		</text>
		<text fill="gray" font-size="9" font-family="Segoe UI" x="182, 186.93066, 191.50977, 193.68945, 198.78271, 203.48926, 207.30811, 209.77344, 214.35254, 217.48145, 222.18799, 224.65332, 229.95312, 234.65967, 237.70947, 242.41602, 245.54492, 253.29688, 255.47656, 260.56982, 265.27637, 270.57617, 273.0415, 278.33252, " y="1471, ">
				Values are determined by
		</text>
		<text fill="gray" font-size="9" font-family="Segoe UI" x="182, 184.39502, 189.48828, 192.53809, 197.24463, 200.37354, 205.4668, 210.17334, 213.22314, 215.68848, 220.84766, 226.41992, 231.46045, 233.92578, 238.77734, 243.62891, " y="1483, ">
				Internet BCP 47.
		</text>
		<rect fill="white" x="186" y="1376" width="50" height="16"/>
		<text font-size="12" font-weight="600" font-family="Segoe UI" x="186, 192.62695, 203.61914, 207.0293, 210.28125, 213.69141, 220.14844, 227.4082, " y="1389, ">
				xml:lang
		</text>
		<path fill="none" stroke="black" stroke-width="2" stroke-miterlimit="4" transform="translate(0.5 0.5)" d="M179 1392L183 1388"/>
		<path fill="none" stroke="black" stroke-width="1" stroke-linecap="square" stroke-miterlimit="4" transform="translate(0.5 0.5)" d="M180 1388L183 1388L183 1391"/>
		<rect fill="none" stroke="black" stroke-width="1" stroke-linecap="square" stroke-miterlimit="4" transform="translate(0.5 0.5)" x="177" y="1374" width="65" height="20"/>
		<rect fill="silver" x="181" y="1496" width="52" height="21"/>
		<rect fill="white" x="177" y="1492" width="52" height="21"/>
		<rect fill="white" x="182" y="1519" width="116" height="24"/>
		<text fill="gray" font-size="9" font-family="Segoe UI" x="182, 186.71533, 191.80859, 196.51514, 198.98047, 204.28027, 206.45996, 209.58887, 214.29541, 218.45264, 221.50244, 223.68213, 228.95557, 234.04883, 238.62793, 240.80762, 242.9873, 246.03711, 250.39209, 252.85742, 258.13086, 260.94775, 263.41309, 266.46289, 271.16943, 275.30029, 278.3501, 283.44336, 288.02246, " y="1529, ">
				The directionality of textual
		</text>
		<text fill="gray" font-size="9" font-family="Segoe UI" x="182, 186.15723, 191.43066, 196.52393, 199.57373, 204.28027, 209.37354, 212.42334, 214.88867, 217.60449, 222.31104, 227.4043, 232.49756, 240.24951, 244.95605, 248.08496, 252.66406, 255.71387, 257.89355, 263.16699, 268.26025, 270.21143, 272.67676, 274.85645, 277.90625, 281.03516, 282.98633, 285.45166, 288.58057, 291.63037, 293.81006, " y="1541, ">
				content (enumeration: ltr, rtl)
		</text>
		<rect fill="white" x="186" y="1494" width="36" height="16"/>
		<text font-size="12" font-weight="600" font-family="Segoe UI" x="186, 193.42969, 196.83984, " y="1507, ">
				dir
		</text>
		<rect fill="none" stroke="black" stroke-width="1" stroke-linecap="square" stroke-miterlimit="4" transform="translate(0.5 0.5)" x="177" y="1492" width="51" height="20"/>
		<rect x="168" y="41" width="11" height="11"/>
		<rect fill="white" x="169" y="42" width="9" height="9"/>
		<rect x="170" y="46" width="7" height="1"/>
		<path fill="none" stroke="black" stroke-width="1" stroke-linecap="square" stroke-miterlimit="4" transform="translate(0.5 0.5)" d="M208 1603L216 1603"/>
		<path fill="none" stroke="black" stroke-width="1" stroke-linecap="square" stroke-miterlimit="4" transform="translate(0.5 0.5)" d="M217 1603L217 1573"/>
		<path fill="none" stroke="black" stroke-width="1" stroke-linecap="square" stroke-miterlimit="4" transform="translate(0.5 0.5)" d="M217 1603L217 1634"/>
		<path fill="none" stroke="black" stroke-width="1" stroke-linecap="square" stroke-miterlimit="4" transform="translate(0.5 0.5)" d="M217 1572L231 1572"/>
		<path fill="none" stroke="black" stroke-width="1" stroke-linecap="square" stroke-miterlimit="4" transform="translate(0.5 0.5)" d="M217 1635L231 1635"/>
		<path fill="silver" d="M170 1605L175 1600L200 1600L205 1605L205 1616L200 1621L175 1621L170 1616L170 1605Z"/>
		<path fill="white" d="M166 1601L171 1596L195 1596L200 1601L200 1611L195 1616L171 1616L166 1611L166 1601Z"/>
		<path transform="translate(0.5 0.5)" d="M169.889 1596.4L170.793 1595.5L171.929 1595.5L172.429 1595.5L172.429 1596.5L171.929 1596.5L171 1596.5L171 1596L171.354 1596.35L170.243 1597.46L169.536 1596.76L169.889 1596.4ZM175.929 1595.5L177.929 1595.5L178.429 1595.5L178.429 1596.5L177.929 1596.5L175.429 1596.5L175.429 1595.5L175.929 1595.5ZM181.929 1595.5L183.929 1595.5L184.429 1595.5L184.429 1596.5L183.929 1596.5L181.429 1596.5L181.429 1595.5L181.929 1595.5ZM187.929 1595.5L189.929 1595.5L190.429 1595.5L190.429 1596.5L189.929 1596.5L187.429 1596.5L187.429 1595.5L187.929 1595.5ZM193.929 1595.5L195.207 1595.5L196.01 1596.3L196.364 1596.66L195.657 1597.36L195.303 1597.01L194.646 1596.35L195 1596L195 1596.5L193.429 1596.5L193.429 1595.5L193.929 1595.5ZM198.839 1599.13L200.253 1600.55L200.607 1600.9L199.899 1601.61L199.546 1601.25L197.778 1599.49L198.485 1598.78L198.839 1599.13ZM200.5 1604.86L200.5 1606.86L200.5 1607.36L199.5 1607.36L199.5 1606.86L199.5 1604.36L200.5 1604.36L200.5 1604.86ZM200.5 1610.86L200.5 1611.21L199.04 1612.67L198.686 1613.02L197.979 1612.31L198.333 1611.96L199.646 1610.65L200 1611L199.5 1611L199.5 1610.36L200.5 1610.36L200.5 1610.86ZM196.211 1615.5L195.207 1616.5L194.213 1616.5L193.713 1616.5L193.713 1615.5L194.213 1615.5L195 1615.5L195 1616L194.646 1615.65L195.858 1614.44L196.565 1615.14L196.211 1615.5ZM190.213 1616.5L188.213 1616.5L187.713 1616.5L187.713 1615.5L188.213 1615.5L190.713 1615.5L190.713 1616.5L190.213 1616.5ZM184.213 1616.5L182.213 1616.5L181.713 1616.5L181.713 1615.5L182.213 1615.5L184.713 1615.5L184.713 1616.5L184.213 1616.5ZM178.213 1616.5L176.213 1616.5L175.713 1616.5L175.713 1615.5L176.213 1615.5L178.713 1615.5L178.713 1616.5L178.213 1616.5ZM172.213 1616.5L170.793 1616.5L170.09 1615.8L169.737 1615.44L170.444 1614.74L170.797 1615.09L171.354 1615.65L171 1616L171 1615.5L172.713 1615.5L172.713 1616.5L172.213 1616.5ZM167.262 1612.97L165.847 1611.55L165.494 1611.2L166.201 1610.49L166.555 1610.85L168.322 1612.62L167.615 1613.32L167.262 1612.97ZM165.5 1607.28L165.5 1605.28L165.5 1604.78L166.5 1604.78L166.5 1605.28L166.5 1607.78L165.5 1607.78L165.5 1607.28ZM165.5 1601.28L165.5 1600.79L167.414 1598.88L168.121 1599.59L166.354 1601.35L166 1601L166.5 1601L166.5 1601.78L165.5 1601.78L165.5 1601.28Z"/>
		<path fill="white" d="M163 1598L168 1593L193 1593L198 1598L198 1609L193 1614L168 1614L163 1609L163 1598Z"/>
		<path fill="none" stroke="black" stroke-width="1" stroke-linecap="square" stroke-miterlimit="4" transform="translate(0.5 0.5)" d="M182 1614L188 1620L191 1617"/>
		<path fill="none" stroke="black" stroke-width="1" stroke-linecap="square" stroke-miterlimit="4" transform="translate(0.5 0.5)" d="M168 1603L173 1603L177 1599"/>
		<path fill="none" stroke="black" stroke-width="1" stroke-linecap="square" stroke-miterlimit="4" transform="translate(0.5 0.5)" d="M183 1603L191 1603"/>
		<path fill="none" stroke="black" stroke-width="1" stroke-linecap="square" stroke-miterlimit="4" transform="translate(0.5 0.5)" d="M183 1599L187 1599L187 1607L183 1607"/>
		<rect x="179" y="1598" width="3" height="3"/>
		<rect x="179" y="1602" width="3" height="3"/>
		<rect x="179" y="1606" width="3" height="3"/>
		<text font-size="12" font-family="Segoe UI" x="167.76562, " y="1633, ">
				0
		</text>
		<text font-size="12" font-family="Symbol" x="182.72266, " y="1632, ">
				¥
		</text>
		<text font-size="12" font-family="Segoe UI" x="175.89844, 178.5, " y="1633, ">
				..
		</text>
		<path transform="translate(0.5 0.5)" d="M166.889 1593.4L167.793 1592.5L168.929 1592.5L169.429 1592.5L169.429 1593.5L168.929 1593.5L168 1593.5L168 1593L168.354 1593.35L167.243 1594.46L166.536 1593.76L166.889 1593.4ZM172.929 1592.5L174.929 1592.5L175.429 1592.5L175.429 1593.5L174.929 1593.5L172.429 1593.5L172.429 1592.5L172.929 1592.5ZM178.929 1592.5L180.929 1592.5L181.429 1592.5L181.429 1593.5L180.929 1593.5L178.429 1593.5L178.429 1592.5L178.929 1592.5ZM184.929 1592.5L186.929 1592.5L187.429 1592.5L187.429 1593.5L186.929 1593.5L184.429 1593.5L184.429 1592.5L184.929 1592.5ZM190.929 1592.5L192.207 1592.5L193.01 1593.3L193.364 1593.66L192.657 1594.36L192.303 1594.01L191.646 1593.35L192 1593L192 1593.5L190.429 1593.5L190.429 1592.5L190.929 1592.5ZM195.839 1596.13L197.253 1597.55L197.607 1597.9L196.899 1598.61L196.546 1598.25L194.778 1596.49L195.485 1595.78L195.839 1596.13ZM197.5 1601.86L197.5 1603.86L197.5 1604.36L196.5 1604.36L196.5 1603.86L196.5 1601.36L197.5 1601.36L197.5 1601.86ZM197.5 1607.86L197.5 1608.21L196.04 1609.67L195.686 1610.02L194.979 1609.31L195.333 1608.96L196.646 1607.65L197 1608L196.5 1608L196.5 1607.36L197.5 1607.36L197.5 1607.86ZM193.211 1612.5L192.207 1613.5L191.213 1613.5L190.713 1613.5L190.713 1612.5L191.213 1612.5L192 1612.5L192 1613L191.646 1612.65L192.858 1611.44L193.565 1612.14L193.211 1612.5ZM187.213 1613.5L185.213 1613.5L184.713 1613.5L184.713 1612.5L185.213 1612.5L187.713 1612.5L187.713 1613.5L187.213 1613.5ZM181.213 1613.5L179.213 1613.5L178.713 1613.5L178.713 1612.5L179.213 1612.5L181.713 1612.5L181.713 1613.5L181.213 1613.5ZM175.213 1613.5L173.213 1613.5L172.713 1613.5L172.713 1612.5L173.213 1612.5L175.713 1612.5L175.713 1613.5L175.213 1613.5ZM169.213 1613.5L167.793 1613.5L167.09 1612.8L166.737 1612.44L167.444 1611.74L167.797 1612.09L168.354 1612.65L168 1613L168 1612.5L169.713 1612.5L169.713 1613.5L169.213 1613.5ZM164.262 1609.97L162.847 1608.55L162.494 1608.2L163.201 1607.49L163.555 1607.85L165.322 1609.62L164.615 1610.32L164.262 1609.97ZM162.5 1604.28L162.5 1602.28L162.5 1601.78L163.5 1601.78L163.5 1602.28L163.5 1604.78L162.5 1604.78L162.5 1604.28ZM162.5 1598.28L162.5 1597.79L164.414 1595.88L165.121 1596.59L163.354 1598.35L163 1598L163.5 1598L163.5 1598.78L162.5 1598.78L162.5 1598.28Z"/>
		<rect fill="silver" x="236" y="1566" width="54" height="21"/>
		<rect fill="white" x="232" y="1562" width="54" height="21"/>
		<rect fill="#FFFFC0" x="237" y="1589" width="115" height="24"/>
		<text fill="gray" font-size="9" font-family="Segoe UI" x="237, 242.80518, 245.27051, 250.36377, 254.94287, 257.99268, 263.08594, 266.21484, 270.79395, 272.97363, 275.43896, 277.61865, 282.19775, 287.29102, 292.59082, 297.68408, 302.26318, 307.56299, 312.26953, 314.73486, 319.82812, 324.40723, 332.15918, 336.86572, 339.33105, 342.14795, 347.42139, " y="1599, ">
				A natural language name for
		</text>
		<text fill="gray" font-size="9" font-family="Segoe UI" x="237, 240.0498, 245.14307, 249.84961, 252.31494, 256.47217, 261.74561, 266.83887, 270.99609, 275.70264, 280.99365, 284.04346, " y="1611, ">
				the concept.
		</text>
		<rect fill="white" x="241" y="1564" width="33" height="16"/>
		<text font-size="12" font-weight="600" font-family="Segoe UI" x="241, 248.25977, 254.7168, 265.70898, " y="1577, ">
				name
		</text>
		<path fill="none" stroke="black" stroke-width="1" stroke-linecap="square" stroke-miterlimit="4" transform="translate(0.5 0.5)" d="M234 1564L239 1564"/>
		<path fill="none" stroke="black" stroke-width="1" stroke-linecap="square" stroke-miterlimit="4" transform="translate(0.5 0.5)" d="M234 1566L238 1566"/>
		<path fill="none" stroke="black" stroke-width="1" stroke-linecap="square" stroke-miterlimit="4" transform="translate(0.5 0.5)" d="M234 1568L238 1568"/>
		<path fill="none" stroke="black" stroke-width="2" stroke-miterlimit="4" transform="translate(0.5 0.5)" d="M234 1580L238 1576"/>
		<path fill="none" stroke="black" stroke-width="1" stroke-linecap="square" stroke-miterlimit="4" transform="translate(0.5 0.5)" d="M235 1576L238 1576L238 1579"/>
		<rect fill="none" stroke="black" stroke-width="1" stroke-linecap="square" stroke-miterlimit="4" transform="translate(0.5 0.5)" x="232" y="1562" width="53" height="20"/>
		<rect x="280" y="1567" width="11" height="11"/>
		<rect fill="white" x="281" y="1568" width="9" height="9"/>
		<rect x="282" y="1572" width="7" height="1"/>
		<rect x="285" y="1569" width="1" height="7"/>
		<rect fill="silver" x="236" y="1629" width="98" height="21"/>
		<rect fill="white" x="232" y="1625" width="98" height="21"/>
		<rect fill="#FFFFC0" x="237" y="1652" width="121" height="72"/>
		<text fill="gray" font-size="9" font-family="Segoe UI" x="237, 242.11963, 246.82617, 252.11719, 255.24609, 259.95264, 263.77148, 268.47803, 273.57129, 276.62109, 280.43994, 282.90527, 285.95508, 291.04834, 295.75488, 298.22021, 303.51123, 308.78467, 312.60352, 314.7832, 317.83301, 320.0127, 325.28613, 330.37939, 332.84473, 338.11816, 340.93506, 343.40039, " y="1662, ">
				Represents the position of a
		</text>
		<text fill="gray" font-size="9" font-family="Segoe UI" x="237, 241.15723, 246.43066, 251.52393, 255.68115, 260.3877, 265.67871, 268.72852, 271.19385, 273.37354, 278.4668, 280.93213, 285.51123, 287.97656, 293.06982, 295.24951, 299.95605, 303.08496, 307.66406, 310.79297, 314.9502, 320.04346, 322.22314, 326.38037, 330.95947, " y="1674, ">
				concept in a hierarchical
		</text>
		<text fill="gray" font-size="9" font-family="Segoe UI" x="237, 240.0498, 244.62891, 248.75977, 254.0332, 259.12646, 264.3999, 272.15186, 276.50684, 278.97217, 282.02197, 285.15088, 289.85742, 294.56396, 297.0293, 302.32031, 306.67529, 309.14062, 313.71973, 316.18506, 320.00391, 324.71045, 330.01025, 335.10352, 339.81006, 344.90332, 349.06055, " y="1686, ">
				taxonomy tree by a sequence
		</text>
		<text fill="gray" font-size="9" font-family="Segoe UI" x="237, 242.27344, 245.09033, 247.55566, 254.34082, 259.91309, 265.18652, 270.48633, 275.19287, 277.6582, 280.70801, 285.98145, 290.45508, 295.16162, 300.25488, 304.07373, 306.53906, 309.66797, 314.37451, 319.66553, 322.79443, 327.50098, 331.31982, 336.02637, 341.11963, 344.16943, 346.34912, 351.44238, " y="1698, ">
				of QCode tokens representing
		</text>
		<text fill="gray" font-size="9" font-family="Segoe UI" x="237, 240.0498, 245.14307, 249.84961, 252.31494, 256.89404, 261.9873, 266.14453, 270.85107, 274.66992, 277.71973, 282.99316, 286.12207, 288.5874, 292.74463, 298.01807, 303.11133, 307.26855, 311.9751, 317.26611, 320.31592, 324.13477, 326.6001, 331.1792, 336.27246, " y="1710, ">
				the ancestor concepts and
		</text>
		<text fill="gray" font-size="9" font-family="Segoe UI" x="237, 240.0498, 245.14307, 247.32275, 251.1416, 253.60693, 257.76416, 263.0376, 268.13086, 272.28809, 276.99463, 282.28564, " y="1722, ">
				this concept
		</text>
		<rect fill="white" x="241" y="1627" width="77" height="16"/>
		<text font-size="12" font-weight="600" font-family="Segoe UI" x="241, 248.22461, 251.63477, 258.12695, 262.90234, 269.35938, 274.08789, 279.84766, 287.07227, 293.5293, 297.33203, 304.5918, 309.19141, " y="1640, ">
				hierarchyInfo
		</text>
		<path fill="none" stroke="black" stroke-width="1" stroke-linecap="square" stroke-miterlimit="4" transform="translate(0.5 0.5)" d="M234 1627L239 1627"/>
		<path fill="none" stroke="black" stroke-width="1" stroke-linecap="square" stroke-miterlimit="4" transform="translate(0.5 0.5)" d="M234 1629L238 1629"/>
		<path fill="none" stroke="black" stroke-width="1" stroke-linecap="square" stroke-miterlimit="4" transform="translate(0.5 0.5)" d="M234 1631L238 1631"/>
		<path fill="none" stroke="black" stroke-width="2" stroke-miterlimit="4" transform="translate(0.5 0.5)" d="M234 1643L238 1639"/>
		<path fill="none" stroke="black" stroke-width="1" stroke-linecap="square" stroke-miterlimit="4" transform="translate(0.5 0.5)" d="M235 1639L238 1639L238 1642"/>
		<rect fill="none" stroke="black" stroke-width="1" stroke-linecap="square" stroke-miterlimit="4" transform="translate(0.5 0.5)" x="232" y="1625" width="97" height="20"/>
		<rect x="324" y="1630" width="11" height="11"/>
		<rect fill="white" x="325" y="1631" width="9" height="9"/>
		<rect x="326" y="1635" width="7" height="1"/>
		<rect x="329" y="1632" width="1" height="7"/>
		<rect x="197" y="1598" width="11" height="11"/>
		<rect fill="white" x="198" y="1599" width="9" height="9"/>
		<rect x="199" y="1603" width="7" height="1"/>
		<rect x="56" y="1193" width="11" height="11"/>
		<rect fill="white" x="57" y="1194" width="9" height="9"/>
		<rect x="58" y="1198" width="7" height="1"/>
	</g>
</svg>
