<?xml version="1.0" encoding="utf-8" ?>
<svg xmlns="http://www.w3.org/2000/svg" xmlns:xlink="http://www.w3.org/1999/xlink" width="382" height="1273">
	<clipPath id="cl_98">
		<rect x="-10" y="-5" width="382" height="1273"/>
	</clipPath>
	<g clip-path="url(#cl_98)">
		<path fill="none" stroke="black" stroke-width="1" stroke-linecap="square" stroke-miterlimit="4" transform="translate(0.5 0.5)" d="M91 917L132 917"/>
		<path fill="none" stroke="black" stroke-width="1" stroke-linecap="square" stroke-miterlimit="4" transform="translate(0.5 0.5)" d="M133 917L133 605"/>
		<path fill="none" stroke="black" stroke-width="1" stroke-linecap="square" stroke-miterlimit="4" transform="translate(0.5 0.5)" d="M133 917L133 1229"/>
		<path fill="none" stroke="black" stroke-width="1" stroke-linecap="square" stroke-miterlimit="4" transform="translate(0.5 0.5)" d="M133 1230L147 1230"/>
		<path fill="none" stroke="black" stroke-width="1" stroke-linecap="square" stroke-miterlimit="4" transform="translate(0.5 0.5)" d="M133 604L147 604"/>
		<rect fill="silver" x="4" y="911" width="86" height="21"/>
		<rect fill="white" y="907" width="86" height="21"/>
		<rect fill="white" x="5" y="934" width="114" height="24"/>
		<text fill="gray" font-size="9" font-family="Segoe UI" x="5, 11.785156, 16.878418, 21.584961, 24.050293, 27.100098, 32.373535, 34.838867, 42.59082, 47.169922, 52.263184, 56.618164, 59.083496, 64.383301, 68.962402, 72.012207, 76.591309, 80.410156, 85.116699, 88.166504, 91.985352, 94.450684, 99.029785, 104.3208, 109.59424, 114.6875, " y="944, ">
				One to many datasets about
		</text>
		<text fill="gray" font-size="9" font-family="Segoe UI" x="5, 10.291016, 15.384277, 20.675293, 22.85498, 25.034668, 28.853516, 33.946777, 36.126465, 41.219727, 46.519531, 48.984863, 52.034668, 57.12793, 59.307617, 63.126465, 65.591797, 67.771484, 70.821289, 75.527832, 83.279785, " y="956, ">
				publishing this item.
		</text>
		<rect fill="white" x="9" y="909" width="65" height="16"/>
		<text font-size="12" font-weight="600" font-family="Segoe UI" x="9, 16.441406, 23.701172, 31.142578, 40.335938, 43.746094, 49.025391, 53.648438, 60.984375, 66.240234, " y="922, ">
				pubHistory
		</text>
		<rect fill="none" stroke="black" stroke-width="1" stroke-linecap="square" stroke-miterlimit="4" transform="translate(0.5 0.5)" y="907" width="85" height="20"/>
		<path fill="white" d="M225 19L225 0L148 0L148 19L148 1207L361 1207L361 19L225 19Z"/>
		<rect fill="white" x="168" y="2" width="51" height="16"/>
		<text font-size="12" font-style="italic" font-family="Segoe UI" x="168, 174.50391, 178.38281, 182.26172, 186.5332, 189.63867, 196.14258, 202.83984, 206.73047, 212.57227, " y="15, ">
				attributes
		</text>
		<path fill="none" stroke="black" stroke-width="1" stroke-linecap="square" stroke-miterlimit="4" transform="translate(0.5 0.5)" d="M225 19L225 0L148 0L148 19L148 1207L361 1207L361 19L225 19Z"/>
		<path fill="white" d="M353 47L353 28L162 28L162 47L162 1150L353 1150L353 47Z"/>
		<rect fill="white" x="167" y="1153" width="179" height="48"/>
		<text fill="gray" font-size="9" font-family="Segoe UI" x="167, 172.80518, 175.27051, 180.57031, 183.69922, 188.97266, 194.06592, 199.35693, 201.82227, 207.0957, 209.9126, 212.37793, 216.95703, 220.00684, 223.05664, 226.18555, 228.36523, 233.65625, 238.74951, 241.79932, 246.50586, 250.32471, 252.79004, 255.60693, 260.88037, 264.00928, 266.47461, 271.05371, 273.2334, 275.41309, 277.87842, 282.58496, 284.76465, 289.47119, 297.22314, 301.92969, 307.02295, 310.07275, 313.8916, 316.35693, 321.63037, 324.44727, 326.9126, 331.4917, 333.95703, 340.13135, " y="1163, ">
				A group of attributes for all elements of a G2
		</text>
		<text fill="gray" font-size="9" font-family="Segoe UI" x="167, 169.39502, 172.44482, 177.15137, 184.90332, 187.36865, 192.0752, 196.20605, 200.36328, 205.06982, 210.36084, 213.41064, 215.87598, 218.05566, 221.10547, 224.92432, 227.38965, 230.51855, 235.79199, 241.06543, 244.11523, 246.58057, 251.28711, 253.4668, 258.17334, 265.92529, 270.63184, 275.7251, 278.7749, 280.72607, 283.19141, 286.24121, 291.33447, 296.04102, 298.50635, 300.68604, 303.73584, 308.44238, 316.19434, 324.27588, 328.98242, 332.03223, " y="1175, ">
				Item except its root element, the itemMeta
		</text>
		<text fill="gray" font-size="9" font-family="Segoe UI" x="167, 171.70654, 173.88623, 178.59277, 186.34473, 191.05127, 196.14453, 199.19434, 201.65967, 206.23877, 211.33203, 216.63184, 219.09717, 223.67627, 225.85596, 228.03564, 230.50098, 235.77441, 238.59131, 241.05664, 243.23633, 246.28613, 250.10498, 252.57031, 256.72754, 261.8208, 264.00049, 266.18018, 271.47998, 274.60889, 279.31543, 284.40869, 286.87402, 293.37793, 298.47119, 300.65088, 304.80811, 309.90137, 312.3667, 316.9458, 320.07471, " y="1187, ">
				element and all of its children which are
		</text>
		<text fill="gray" font-size="9" font-family="Segoe UI" x="167, 174.75195, 179.33105, 184.42432, 189.72412, 194.30322, 197.35303, 202.62646, 205.75537, 210.11035, " y="1199, ">
				mandatory.
		</text>
		<rect fill="white" x="204" y="30" width="143" height="16"/>
		<text font-size="12" font-weight="600" font-family="Segoe UI" x="204, 209.75977, 217.0957, 228.08789, 239.08008, 246.41602, 253.67578, 260.68945, 268.02539, 277.53516, 284.02734, 288.80273, 297, 301.66992, 306.33984, 311.16211, 314.57227, 322.01367, 329.27344, 333.89648, 340.38867, " y="43, ">
				commonPowerAttributes
		</text>
		<rect fill="white" x="182" y="30" width="20" height="16"/>
		<text fill="gray" font-size="12" font-family="Segoe UI" x="182, 189.06641, 193.23828, " y="43, ">
				grp
		</text>
		<path fill="none" stroke="gray" stroke-width="1" stroke-linecap="square" stroke-miterlimit="4" transform="translate(0.5 0.5)" d="M162 47L162 1150L353 1150L353 47L353 47"/>
		<path fill="none" stroke="black" stroke-width="1" stroke-linecap="square" stroke-miterlimit="4" transform="translate(0.5 0.5)" d="M353 47L353 28L162 28L162 47"/>
		<rect x="167" y="33" width="11" height="11"/>
		<rect fill="white" x="168" y="34" width="9" height="9"/>
		<rect x="169" y="38" width="7" height="1"/>
		<rect fill="silver" x="174" y="61" width="52" height="21"/>
		<rect fill="white" x="170" y="57" width="52" height="21"/>
		<rect fill="white" x="175" y="84" width="101" height="24"/>
		<text fill="gray" font-size="9" font-family="Segoe UI" x="175, 179.71533, 184.80859, 189.51514, 191.98047, 194.16016, 199.43359, 203.59082, 208.16992, 210.34961, 212.81494, 214.99463, 220.29443, 225.00098, 230.09424, 233.14404, 235.32373, 238.14062, 240.32031, 245.02686, 248.15576, 250.62109, 255.89453, 258.71143, 261.17676, 264.22656, 269.31982, " y="94, ">
				The local identifier of the
		</text>
		<text fill="gray" font-size="9" font-family="Segoe UI" x="175, 180.29102, 183.41992, 188.69336, 193.98438, 198.69092, 201.81982, 204.86963, 209.22461, " y="106, ">
				property.
		</text>
		<rect fill="white" x="179" y="59" width="36" height="16"/>
		<text font-size="12" font-weight="600" font-family="Segoe UI" x="179, 182.41016, " y="72, ">
				id
		</text>
		<rect fill="none" stroke="black" stroke-width="1" stroke-linecap="square" stroke-miterlimit="4" transform="translate(0.5 0.5)" x="170" y="57" width="51" height="20"/>
		<rect fill="silver" x="174" y="119" width="58" height="21"/>
		<rect fill="white" x="170" y="115" width="58" height="21"/>
		<rect fill="white" x="175" y="142" width="121" height="120"/>
		<text fill="gray" font-size="9" font-family="Segoe UI" x="175, 177.39502, 180.21191, 182.67725, 185.72705, 190.82031, 195.52686, 197.99219, 203.2832, 206.41211, 211.68555, 216.97656, 221.68311, 224.81201, 227.86182, 232.2168, 234.68213, 238.99316, 243.57227, 245.75195, 250.84521, 255.55176, 258.01709, 260.19678, 264.01562, 266.48096, 271.57422, 276.84766, " y="152, ">
				If the property value is not
		</text>
		<text fill="gray" font-size="9" font-family="Segoe UI" x="175, 180.2998, 185.00635, 187.82324, 190.00293, 195.09619, 199.80273, 205.10254, 207.05371, 209.51904, 213.33789, 218.62891, 223.33545, 227.49268, 229.67236, 232.48926, 234.66895, 239.37549, 243.19434, 245.65967, 252.16357, 257.25684, 259.43652, 263.59375, 268.68701, 271.15234, 275.85889, 280.95215, 284.00195, 286.18164, 289.23145, " y="164, ">
				defined, specifies which entity
		</text>
		<text fill="gray" font-size="9" font-family="Segoe UI" x="175, 177.71582, 183.00684, 187.71338, 190.84229, 194.66113, 199.93457, 205.02783, 206.979, 209.44434, 214.71777, 217.84668, 223.14648, 227.72559, 232.81885, 234.99854, 238.81738, 243.39648, 246.44629, 248.62598, 253.89941, 258.99268, 261.45801, 266.73145, " y="176, ">
				(person, organisation or
		</text>
		<text fill="gray" font-size="9" font-family="Segoe UI" x="175, 178.81885, 183.17383, 186.99268, 190.04248, 194.74902, 202.50098, 205.2168, 207.68213, 214.18604, 216.36572, 218.54541, 220.7251, 223.19043, 227.89697, 233.19678, 235.37646, 238.42627, 240.8916, 243.94141, 249.03467, 253.74121, 256.20654, 261.49756, 264.62646, 269.8999, 275.19092, 279.89746, 283.02637, 286.07617, " y="188, ">
				system) will edit the property
		</text>
		<text fill="gray" font-size="9" font-family="Segoe UI" x="175, 179.31104, 183.89014, 186.06982, 191.16309, 195.86963, 198.33496, 201.93408, 204.39941, 209.10596, 213.23682, 218.52783, 221.65674, 226.36328, 230.18213, 234.00098, 238.70752, 244.00732, 246.47266, 251.76367, 256.11865, 258.58398, 263.16309, 265.62842, 272.41357, 277.98584, 283.25928, 288.55908, 293.26562, " y="200, ">
				value - expressed by a QCode.
		</text>
		<text fill="gray" font-size="9" font-family="Segoe UI" x="175, 177.39502, 180.21191, 182.67725, 185.72705, 190.82031, 195.52686, 197.99219, 203.2832, 206.41211, 211.68555, 216.97656, 221.68311, 224.81201, 227.86182, 232.2168, 234.68213, 238.99316, 243.57227, 245.75195, 250.84521, 255.55176, 258.01709, 260.19678, " y="212, ">
				If the property value is
		</text>
		<text fill="gray" font-size="9" font-family="Segoe UI" x="175, 180.2998, 185.00635, 187.82324, 190.00293, 195.09619, 199.80273, 205.10254, 207.05371, 209.51904, 213.33789, 218.62891, 223.33545, 227.49268, 229.67236, 232.48926, 234.66895, 239.37549, 243.19434, 245.65967, 252.16357, 257.25684, 259.43652, 263.59375, 268.68701, 271.15234, 275.85889, 280.95215, 284.00195, 286.18164, 289.23145, " y="224, ">
				defined, specifies which entity
		</text>
		<text fill="gray" font-size="9" font-family="Segoe UI" x="175, 177.71582, 183.00684, 187.71338, 190.84229, 194.66113, 199.93457, 205.02783, 206.979, 209.44434, 214.71777, 217.84668, 223.14648, 227.72559, 232.81885, 234.99854, 238.81738, 243.39648, 246.44629, 248.62598, 253.89941, 258.99268, 261.45801, 266.73145, " y="236, ">
				(person, organisation or
		</text>
		<text fill="gray" font-size="9" font-family="Segoe UI" x="175, 178.81885, 183.17383, 186.99268, 190.04248, 194.74902, 202.50098, 205.2168, 207.68213, 212.77539, 217.35449, 221.17334, 223.63867, 228.34521, 233.64502, 235.82471, 238.87451, 243.58105, 248.88086, 251.34619, 254.396, 259.48926, " y="248, ">
				system) has edited the
		</text>
		<text fill="gray" font-size="9" font-family="Segoe UI" x="175, 180.29102, 183.41992, 188.69336, 193.98438, 198.69092, 201.81982, 204.86963, 209.22461, 211.68994, 216.00098, 220.58008, 222.75977, 227.85303, 232.55957, " y="260, ">
				property value.
		</text>
		<rect fill="white" x="179" y="117" width="42" height="16"/>
		<text font-size="12" font-weight="600" font-family="Segoe UI" x="179, 184.75977, 189.48828, 195.98047, 202.4375, 207.06055, 214.39648, " y="130, ">
				creator
		</text>
		<rect fill="none" stroke="black" stroke-width="1" stroke-linecap="square" stroke-miterlimit="4" transform="translate(0.5 0.5)" x="170" y="115" width="57" height="20"/>
		<rect fill="silver" x="174" y="273" width="73" height="21"/>
		<rect fill="white" x="170" y="269" width="73" height="21"/>
		<rect fill="white" x="175" y="296" width="120" height="108"/>
		<text fill="gray" font-size="9" font-family="Segoe UI" x="175, 177.39502, 180.21191, 182.67725, 185.72705, 190.82031, 195.52686, 197.99219, 203.2832, 206.41211, 211.68555, 216.97656, 221.68311, 224.81201, 227.86182, 232.2168, 234.68213, 238.99316, 243.57227, 245.75195, 250.84521, 255.55176, 258.01709, 260.19678, 264.01562, 266.48096, 271.57422, 276.84766, " y="306, ">
				If the property value is not
		</text>
		<text fill="gray" font-size="9" font-family="Segoe UI" x="175, 180.2998, 185.00635, 187.82324, 190.00293, 195.09619, 199.80273, 205.10254, 207.05371, 209.51904, 213.33789, 218.62891, 223.33545, 227.49268, 229.67236, 232.48926, 234.66895, 239.37549, 243.19434, 245.65967, 252.16357, 257.25684, 259.43652, 263.59375, 268.68701, 271.15234, 275.85889, 280.95215, 284.00195, 286.18164, 289.23145, " y="318, ">
				defined, specifies which entity
		</text>
		<text fill="gray" font-size="9" font-family="Segoe UI" x="175, 177.71582, 183.00684, 187.71338, 190.84229, 194.66113, 199.93457, 205.02783, 206.979, 209.44434, 214.71777, 217.84668, 223.14648, 227.72559, 232.81885, 234.99854, 238.81738, 243.39648, 246.44629, 248.62598, 253.89941, 258.99268, 261.45801, 266.73145, " y="330, ">
				(person, organisation or
		</text>
		<text fill="gray" font-size="9" font-family="Segoe UI" x="175, 178.81885, 183.17383, 186.99268, 190.04248, 194.74902, 202.50098, 205.2168, 207.68213, 214.18604, 216.36572, 218.54541, 220.7251, 223.19043, 227.89697, 233.19678, 235.37646, 238.42627, 240.8916, 243.94141, 249.03467, 253.74121, 256.20654, 261.49756, 264.62646, 269.8999, 275.19092, 279.89746, 283.02637, 286.07617, " y="342, ">
				system) will edit the property
		</text>
		<text fill="gray" font-size="9" font-family="Segoe UI" x="175, 178.59912, 181.06445, 185.771, 189.90186, 195.19287, 198.32178, 203.02832, 206.84717, 210.66602, 215.37256, 220.67236, 223.1377, 228.42871, 232.78369, 235.24902, 239.82812, 242.29346, 248.47656, 253.85986, 256.25488, 258.20605, 260.67139, 263.06641, 265.8833, 268.34863, 271.39844, 276.4917, " y="354, ">
				- expressed by a URI. If the
		</text>
		<text fill="gray" font-size="9" font-family="Segoe UI" x="175, 180.29102, 183.41992, 188.69336, 193.98438, 198.69092, 201.81982, 204.86963, 209.22461, 211.68994, 216.00098, 220.58008, 222.75977, 227.85303, 232.55957, 235.0249, 237.20459, 241.02344, 243.48877, 248.78857, 253.49512, 256.31201, 258.4917, 263.58496, 268.2915, 273.59131, " y="366, ">
				property value is defined,
		</text>
		<text fill="gray" font-size="9" font-family="Segoe UI" x="175, 178.81885, 184.10986, 188.81641, 192.97363, 195.15332, 197.97021, 200.1499, 204.85645, 208.67529, 211.14062, 217.64453, 222.73779, 224.91748, 229.07471, 234.16797, 236.6333, 241.33984, 246.43311, 249.48291, 251.6626, 254.7124, 259.06738, 261.53271, 264.24854, 269.53955, 274.24609, 277.375, 281.19385, 286.46729, 291.56055, " y="378, ">
				specifies which entity (person,
		</text>
		<text fill="gray" font-size="9" font-family="Segoe UI" x="175, 180.27344, 183.40234, 188.70215, 193.28125, 198.37451, 200.5542, 204.37305, 208.95215, 212.00195, 214.18164, 219.45508, 224.54834, 227.01367, 232.28711, 235.41602, 237.88135, 241.7002, 246.05518, 249.87402, 252.92383, 257.63037, 265.38232, 268.09814, 270.56348, 275.65674, 280.23584, " y="390, ">
				organisation or system) has
		</text>
		<text fill="gray" font-size="9" font-family="Segoe UI" x="175, 179.70654, 185.00635, 187.18604, 190.23584, 194.94238, 200.24219, 202.70752, 205.75732, 210.85059, 215.55713, 218.02246, 223.31348, 226.44238, 231.71582, 237.00684, 241.71338, 244.84229, 247.89209, 252.24707, " y="402, ">
				edited the property.
		</text>
		<rect fill="white" x="179" y="271" width="57" height="16"/>
		<text font-size="12" font-weight="600" font-family="Segoe UI" x="179, 184.75977, 189.48828, 195.98047, 202.4375, 207.06055, 214.39648, 219.20703, 226.4668, 231.28906, " y="284, ">
				creatoruri
		</text>
		<rect fill="none" stroke="black" stroke-width="1" stroke-linecap="square" stroke-miterlimit="4" transform="translate(0.5 0.5)" x="170" y="269" width="72" height="20"/>
		<rect fill="silver" x="174" y="415" width="69" height="21"/>
		<rect fill="white" x="170" y="411" width="69" height="21"/>
		<rect fill="white" x="175" y="438" width="119" height="72"/>
		<text fill="gray" font-size="9" font-family="Segoe UI" x="175, 179.71533, 184.80859, 189.51514, 191.98047, 197.28027, 201.85938, 204.90918, 209.61572, 212.08105, 214.79688, 219.37598, 224.46924, 229.76904, 231.72021, 234.18555, 239.45898, 244.75, 247.7998, 249.97949, 255.25293, 260.34619, 264.92529, 267.10498, 269.28467, 273.63965, 275.59082, 278.05615, 281.10596, 286.19922, " y="448, ">
				The date (and, optionally, the
		</text>
		<text fill="gray" font-size="9" font-family="Segoe UI" x="175, 178.0498, 180.22949, 187.98145, 192.68799, 195.40381, 197.86914, 204.37305, 209.46631, 214.17285, 219.26611, 221.73145, 224.78125, 229.87451, 234.58105, 237.04639, 242.3374, 245.46631, 250.73975, 256.03076, 260.7373, 263.86621, 266.91602, 271.271, 273.73633, 280.24023, 284.81934, " y="460, ">
				time) when the property was
		</text>
		<text fill="gray" font-size="9" font-family="Segoe UI" x="175, 177.17969, 181.75879, 185.57764, 188.62744, 191.09277, 198.84473, 204.11816, 209.41797, 211.59766, 214.41455, 216.59424, 221.30078, 226.60059, 228.55176, 231.01709, 235.73242, 240.82568, 245.53223, 247.99756, 250.17725, 255.27051, 257.4502, 260.5, 262.67969, 267.25879, 269.43848, 271.90381, 276.21484, 280.79395, 282.97363, 288.06689, " y="472, ">
				last modified. The initial value
		</text>
		<text fill="gray" font-size="9" font-family="Segoe UI" x="175, 177.17969, 180.99854, 183.46387, 186.51367, 191.60693, 196.31348, 198.77881, 204.07861, 208.65771, 211.70752, 216.41406, 218.87939, 221.59521, 226.17432, 231.26758, 236.56738, 238.51855, 240.98389, 246.25732, 251.54834, 254.59814, 256.77783, 262.05127, 267.14453, 271.72363, 273.90332, 276.08301, 280.43799, " y="484, ">
				is the date (and, optionally,
		</text>
		<text fill="gray" font-size="9" font-family="Segoe UI" x="175, 178.0498, 183.14307, 187.84961, 190.31494, 193.36475, 195.54443, 203.29639, 208.00293, 210.71875, 213.18408, 218.45752, 221.27441, 223.73975, 227.89697, 231.02588, 235.73242, 240.31152, 243.36133, 245.54102, 250.81445, 255.90771, 258.37305, 263.64648, 266.46338, 268.92871, 271.97852, 277.07178, " y="496, ">
				the time) of creation of the
		</text>
		<text fill="gray" font-size="9" font-family="Segoe UI" x="175, 180.29102, 183.41992, 188.69336, 193.98438, 198.69092, 201.81982, 204.86963, 209.22461, " y="508, ">
				property.
		</text>
		<rect fill="white" x="179" y="413" width="53" height="16"/>
		<text font-size="12" font-weight="600" font-family="Segoe UI" x="179, 189.99219, 197.32812, 204.75781, 208.16797, 212.76758, 216.17773, 222.66992, " y="426, ">
				modified
		</text>
		<rect fill="none" stroke="black" stroke-width="1" stroke-linecap="square" stroke-miterlimit="4" transform="translate(0.5 0.5)" x="170" y="411" width="68" height="20"/>
		<rect fill="silver" x="174" y="521" width="59" height="21"/>
		<rect fill="white" x="170" y="517" width="59" height="21"/>
		<rect fill="white" x="175" y="544" width="118" height="108"/>
		<text fill="gray" font-size="9" font-family="Segoe UI" x="175, 177.39502, 180.21191, 182.67725, 186.49609, 191.20264, 194.25244, 196.71777, 199.76758, 205.04102, 207.50635, 210.55615, 213.68506, 218.77832, 223.48486, 225.9502, 229, 234.09326, " y="554, ">
				If set to true the
		</text>
		<text fill="gray" font-size="9" font-family="Segoe UI" x="175, 179.15723, 184.43066, 187.55957, 190.68848, 195.39502, 199.21387, 204.50488, 209.77832, 214.87158, 220.17139, 222.35107, 227.44434, 232.74414, 235.20947, 240.50049, 243.62939, 248.90283, 254.19385, 258.90039, 262.0293, 265.0791, 269.43408, 271.89941, 278.40332, 282.98242, " y="566, ">
				corresponding property was
		</text>
		<text fill="gray" font-size="9" font-family="Segoe UI" x="175, 179.5791, 184.87891, 190.17871, 194.88525, 200.18506, 202.65039, 205.7002, 210.97363, 213.43896, 216.48877, 221.58203, 226.28857, 228.75391, 234.92822, 239.77979, 242.24512, 244.64014, 247.68994, 252.39648, 260.14844, 262.61377, 265.43066, 270.7041, 273.83301, 276.29834, " y="578, ">
				added to the G2 Item for a
		</text>
		<text fill="gray" font-size="9" font-family="Segoe UI" x="175, 178.81885, 184.10986, 188.81641, 192.97363, 195.15332, 197.97021, 200.1499, 204.30713, 206.77246, 210.92969, 216.02295, 219.8418, 222.8916, 228.16504, 235.91699, 240.62354, 243.75244, 246.21777, 251.49121, 254.62012, 257.08545, 262.38525, 265.51416, 270.7876, 275.88086, 281.17188, 283.63721, 288.91064, " y="590, ">
				specific customer or group of
		</text>
		<text fill="gray" font-size="9" font-family="Segoe UI" x="175, 179.15723, 184.25049, 188.06934, 191.11914, 196.39258, 204.14453, 208.85107, 211.97998, 215.79883, 218.26416, 223.5376, 228.63086, 230.81055, 235.16553, 237.1167, 239.58203, 244.29736, 249.39062, 254.09717, 256.5625, 261.8623, 266.56885, 269.38574, 273.96484, 279.05811, 281.23779, " y="602, ">
				customers only. The default
		</text>
		<text fill="gray" font-size="9" font-family="Segoe UI" x="175, 179.31104, 183.89014, 186.06982, 191.16309, 195.86963, 198.33496, 203.6084, 206.42529, 208.89062, 211.94043, 217.03369, 219.21338, 223.03223, 225.49756, 230.78857, 233.91748, 239.19092, 244.48193, 249.18848, 252.31738, 255.36719, 259.72217, 262.1875, 264.36719, 268.18604, 270.65137, 273.46826, 278.04736, 280.22705, 284.0459, " y="614, ">
				value of this property is false
		</text>
		<text fill="gray" font-size="9" font-family="Segoe UI" x="175, 181.50391, 186.59717, 188.77686, 192.93408, 198.02734, 200.49268, 205.07178, 210.36279, 215.65381, 217.8335, 220.01318, 224.71973, 228.53857, 231.00391, 237.50781, 242.60107, 247.30762, 252.40088, 254.86621, 257.91602, 263.00928, 265.18896, " y="626, ">
				which applies when this
		</text>
		<text fill="gray" font-size="9" font-family="Segoe UI" x="175, 179.5791, 182.62891, 185.67871, 188.80762, 190.9873, 196.27832, 201.37158, 204.42139, 209.12793, 211.59326, 213.77295, 217.5918, 220.05713, 225.15039, 230.42383, 233.47363, 235.93896, 241.03223, 244.85107, 249.55762, 254.85742, 257.32275, 263.82666, 266.00635, 269.05615, 274.14941, 276.61475, 279.66455, 284.75781, " y="638, ">
				attribute is not used with the
		</text>
		<text fill="gray" font-size="9" font-family="Segoe UI" x="175, 180.29102, 183.41992, 188.69336, 193.98438, 198.69092, 201.81982, 204.86963, 209.22461, " y="650, ">
				property.
		</text>
		<rect fill="white" x="179" y="519" width="43" height="16"/>
		<text font-size="12" font-weight="600" font-family="Segoe UI" x="179, 184.75977, 192.01953, 197.29883, 201.92188, 209.25781, " y="532, ">
				custom
		</text>
		<rect fill="none" stroke="black" stroke-width="1" stroke-linecap="square" stroke-miterlimit="4" transform="translate(0.5 0.5)" x="170" y="517" width="58" height="20"/>
		<rect fill="silver" x="174" y="663" width="52" height="21"/>
		<rect fill="white" x="170" y="659" width="52" height="21"/>
		<rect fill="white" x="175" y="686" width="118" height="48"/>
		<text fill="gray" font-size="9" font-family="Segoe UI" x="175, 177.39502, 182.48828, 187.78809, 189.96777, 194.125, 198.7041, 201.75391, 206.46045, 210.2793, 212.74463, 218.03564, 222.39062, 224.85596, 231.35986, 236.45312, 238.63281, 242.79004, 247.8833, 250.34863, 258.10059, 262.80713, 267.38623, 272.47949, 276.29834, 278.76367, 281.81348, 286.90674, " y="696, ">
				Indicates by which means the
		</text>
		<text fill="gray" font-size="9" font-family="Segoe UI" x="175, 179.31104, 183.89014, 186.06982, 191.16309, 195.86963, 198.33496, 204.83887, 209.41797, 213.23682, 215.70215, 220.40869, 224.53955, 227.58936, 230.71826, 235.29736, 239.45459, 242.50439, 247.21094, 252.51074, 254.97607, 257.79297, 260.92188, 266.19531, 273.94727, 276.4126, 279.4624, 284.55566, " y="708, ">
				value was extracted from the
		</text>
		<text fill="gray" font-size="9" font-family="Segoe UI" x="175, 179.15723, 184.43066, 189.52393, 192.57373, 197.28027, 202.37354, 205.42334, 207.88867, 211.48779, 213.95312, 218.65967, 222.79053, 228.08154, 231.21045, 235.91699, 239.73584, 243.55469, 248.26123, 253.56104, 256.02637, 261.31738, 265.67236, 268.1377, " y="720, ">
				content - expressed by a
		</text>
		<text fill="gray" font-size="9" font-family="Segoe UI" x="175, 181.78516, 187.35742, 192.63086, 197.93066, " y="732, ">
				QCode
		</text>
		<rect fill="white" x="179" y="661" width="36" height="16"/>
		<text font-size="12" font-weight="600" font-family="Segoe UI" x="179, 186.22461, 193.56055, " y="674, ">
				how
		</text>
		<rect fill="none" stroke="black" stroke-width="1" stroke-linecap="square" stroke-miterlimit="4" transform="translate(0.5 0.5)" x="170" y="659" width="51" height="20"/>
		<rect fill="silver" x="174" y="745" width="57" height="21"/>
		<rect fill="white" x="170" y="741" width="57" height="21"/>
		<rect fill="white" x="175" y="768" width="118" height="36"/>
		<text fill="gray" font-size="9" font-family="Segoe UI" x="175, 177.39502, 182.48828, 187.78809, 189.96777, 194.125, 198.7041, 201.75391, 206.46045, 210.2793, 212.74463, 218.03564, 222.39062, 224.85596, 231.35986, 236.45312, 238.63281, 242.79004, 247.8833, 250.34863, 258.10059, 262.80713, 267.38623, 272.47949, 276.29834, 278.76367, 281.81348, 286.90674, " y="778, ">
				Indicates by which means the
		</text>
		<text fill="gray" font-size="9" font-family="Segoe UI" x="175, 179.31104, 183.89014, 186.06982, 191.16309, 195.86963, 198.33496, 204.83887, 209.41797, 213.23682, 215.70215, 220.40869, 224.53955, 227.58936, 230.71826, 235.29736, 239.45459, 242.50439, 247.21094, 252.51074, 254.97607, 257.79297, 260.92188, 266.19531, 273.94727, 276.4126, 279.4624, 284.55566, " y="790, ">
				value was extracted from the
		</text>
		<text fill="gray" font-size="9" font-family="Segoe UI" x="175, 179.15723, 184.43066, 189.52393, 192.57373, 197.28027, 202.37354, 205.42334, 207.88867, 211.48779, 213.95312, 218.65967, 222.79053, 228.08154, 231.21045, 235.91699, 239.73584, 243.55469, 248.26123, 253.56104, 256.02637, 261.31738, 265.67236, 268.1377, 272.7168, 275.18213, 281.36523, 286.74854, " y="802, ">
				content - expressed by a URI
		</text>
		<rect fill="white" x="179" y="743" width="41" height="16"/>
		<text font-size="12" font-weight="600" font-family="Segoe UI" x="179, 186.22461, 193.56055, 203.12891, 210.38867, 215.21094, " y="756, ">
				howuri
		</text>
		<rect fill="none" stroke="black" stroke-width="1" stroke-linecap="square" stroke-miterlimit="4" transform="translate(0.5 0.5)" x="170" y="741" width="56" height="20"/>
		<rect fill="silver" x="174" y="815" width="52" height="21"/>
		<rect fill="white" x="170" y="811" width="52" height="21"/>
		<rect fill="white" x="175" y="838" width="113" height="36"/>
		<text fill="gray" font-size="9" font-family="Segoe UI" x="175, 183.40674, 188.5, 192.85498, 195.32031, 198.37012, 203.46338, 208.16992, 210.63525, 218.38721, 223.09375, 226.14355, 230.72266, 236.02246, 240.60156, 243.65137, 248.23047, 250.6958, 255.78906, 260.36816, 264.18701, 266.65234, 271.94336, 276.6499, 281.35645, " y="848, ">
				Why the metadata has been
		</text>
		<text fill="gray" font-size="9" font-family="Segoe UI" x="175, 177.17969, 182.27295, 186.43018, 188.60986, 193.70312, 199.00293, 203.70947, 209.00928, 211.47461, 215.07373, 217.53906, 222.24561, 226.37646, 231.66748, 234.79639, 239.50293, 243.32178, 247.14062, 251.84717, 257.14697, 259.6123, 264.90332, 269.2583, 271.72363, " y="860, ">
				included - expressed by a
		</text>
		<text fill="gray" font-size="9" font-family="Segoe UI" x="175, 181.78516, 187.35742, 192.63086, 197.93066, " y="872, ">
				QCode
		</text>
		<rect fill="white" x="179" y="813" width="36" height="16"/>
		<text font-size="12" font-weight="600" font-family="Segoe UI" x="179, 188.56836, 195.79297, " y="826, ">
				why
		</text>
		<rect fill="none" stroke="black" stroke-width="1" stroke-linecap="square" stroke-miterlimit="4" transform="translate(0.5 0.5)" x="170" y="811" width="51" height="20"/>
		<rect fill="silver" x="174" y="885" width="56" height="21"/>
		<rect fill="white" x="170" y="881" width="56" height="21"/>
		<rect fill="white" x="175" y="908" width="119" height="24"/>
		<text fill="gray" font-size="9" font-family="Segoe UI" x="175, 183.40674, 188.5, 192.85498, 195.32031, 198.37012, 203.46338, 208.16992, 210.63525, 218.38721, 223.09375, 226.14355, 230.72266, 236.02246, 240.60156, 243.65137, 248.23047, 250.6958, 255.78906, 260.36816, 264.18701, 266.65234, 271.94336, 276.6499, 281.35645, " y="918, ">
				Why the metadata has been
		</text>
		<text fill="gray" font-size="9" font-family="Segoe UI" x="175, 177.17969, 182.27295, 186.43018, 188.60986, 193.70312, 199.00293, 203.70947, 209.00928, 211.47461, 215.07373, 217.53906, 222.24561, 226.37646, 231.66748, 234.79639, 239.50293, 243.32178, 247.14062, 251.84717, 257.14697, 259.6123, 264.90332, 269.2583, 271.72363, 276.30273, 278.76807, 284.95117, 290.33447, " y="930, ">
				included - expressed by a URI
		</text>
		<rect fill="white" x="179" y="883" width="40" height="16"/>
		<text font-size="12" font-weight="600" font-family="Segoe UI" x="179, 188.56836, 195.79297, 202.25, 209.50977, 214.33203, " y="896, ">
				whyuri
		</text>
		<rect fill="none" stroke="black" stroke-width="1" stroke-linecap="square" stroke-miterlimit="4" transform="translate(0.5 0.5)" x="170" y="881" width="55" height="20"/>
		<rect fill="silver" x="174" y="943" width="97" height="21"/>
		<rect fill="white" x="170" y="939" width="97" height="21"/>
		<rect fill="white" x="175" y="966" width="117" height="72"/>
		<text fill="gray" font-size="9" font-family="Segoe UI" x="175, 181.78516, 186.87842, 191.58496, 194.05029, 199.32373, 202.45264, 204.91797, 212.66992, 217.24902, 222.34229, 226.69727, 229.1626, 233.31982, 238.59326, 243.68652, 247.50537, 250.55518, 253.68408, 258.26318, 260.44287, 265.53613, 268.58594, 272.40479, 274.87012, 277.91992, 283.01318, 287.59229, " y="976, ">
				One or many constraints that
		</text>
		<text fill="gray" font-size="9" font-family="Segoe UI" x="175, 179.5791, 184.87012, 190.16113, 192.34082, 196.6958, 199.16113, 202.21094, 207.48438, 209.94971, 215.24072, 220.33398, 225.625, 227.80469, 229.98438, 233.80322, 238.89648, 241.07617, 246.16943, 251.46924, 253.93457, 256.98438, 262.07764, 266.78418, 269.24951, 273.56055, 278.13965, 280.31934, 285.4126, " y="988, ">
				apply to publishing the value
		</text>
		<text fill="gray" font-size="9" font-family="Segoe UI" x="175, 180.27344, 183.09033, 185.55566, 188.60547, 193.69873, 198.40527, 200.87061, 206.16162, 209.29053, 214.56396, 219.85498, 224.56152, 227.69043, 230.74023, 235.09521, 237.56055, 241.15967, 243.625, 248.33154, 252.4624, 257.75342, 260.88232, 265.58887, 269.40771, 273.22656, 277.93311, " y="1000, ">
				of the property - expressed
		</text>
		<text fill="gray" font-size="9" font-family="Segoe UI" x="175, 180.29102, 184.646, 187.11133, 191.69043, 194.15576, 200.94092, 206.51318, 211.78662, 217.08643, 221.79297, 223.74414, 226.20947, 230.76221, 235.34131, 239.49854, 244.5918, 247.05713, 251.21436, 256.48779, 261.58105, 265.3999, 268.44971, 271.57861, 276.15771, 278.3374, 283.43066, " y="1012, ">
				by a QCode. Each constraint
		</text>
		<text fill="gray" font-size="9" font-family="Segoe UI" x="175, 179.5791, 184.87012, 190.16113, 192.34082, 194.52051, 199.22705, 203.0459, 205.51123, 208.56104, 213.83447, 216.2998, 220.87891, 223.05859, 225.23828, 227.70361, 233.00342, 237.70996, 241.52881, 245.68604, 250.39258, 255.48584, 260.78564, 265.36475, 270.45801, " y="1024, ">
				applies to all descendant
		</text>
		<text fill="gray" font-size="9" font-family="Segoe UI" x="175, 179.70654, 181.88623, 186.59277, 194.34473, 199.05127, 204.14453, 207.19434, 211.01318, " y="1036, ">
				elements.
		</text>
		<rect fill="white" x="179" y="941" width="81" height="16"/>
		<text font-size="12" font-weight="600" font-family="Segoe UI" x="179, 186.44141, 193.70117, 201.14258, 206.90234, 214.23828, 221.49805, 226.77734, 231.44727, 236.22266, 242.67969, 246.08984, 253.34961, " y="954, ">
				pubconstraint
		</text>
		<rect fill="none" stroke="black" stroke-width="1" stroke-linecap="square" stroke-miterlimit="4" transform="translate(0.5 0.5)" x="170" y="939" width="96" height="20"/>
		<rect fill="silver" x="174" y="1049" width="112" height="21"/>
		<rect fill="white" x="170" y="1045" width="112" height="21"/>
		<rect fill="white" x="175" y="1072" width="117" height="72"/>
		<text fill="gray" font-size="9" font-family="Segoe UI" x="175, 181.78516, 186.87842, 191.58496, 194.05029, 199.32373, 202.45264, 204.91797, 212.66992, 217.24902, 222.34229, 226.69727, 229.1626, 233.31982, 238.59326, 243.68652, 247.50537, 250.55518, 253.68408, 258.26318, 260.44287, 265.53613, 268.58594, 272.40479, 274.87012, 277.91992, 283.01318, 287.59229, " y="1082, ">
				One or many constraints that
		</text>
		<text fill="gray" font-size="9" font-family="Segoe UI" x="175, 179.5791, 184.87012, 190.16113, 192.34082, 196.6958, 199.16113, 202.21094, 207.48438, 209.94971, 215.24072, 220.33398, 225.625, 227.80469, 229.98438, 233.80322, 238.89648, 241.07617, 246.16943, 251.46924, 253.93457, 256.98438, 262.07764, 266.78418, 269.24951, 273.56055, 278.13965, 280.31934, 285.4126, " y="1094, ">
				apply to publishing the value
		</text>
		<text fill="gray" font-size="9" font-family="Segoe UI" x="175, 180.27344, 183.09033, 185.55566, 188.60547, 193.69873, 198.40527, 200.87061, 206.16162, 209.29053, 214.56396, 219.85498, 224.56152, 227.69043, 230.74023, 235.09521, 237.56055, 241.15967, 243.625, 248.33154, 252.4624, 257.75342, 260.88232, 265.58887, 269.40771, 273.22656, 277.93311, " y="1106, ">
				of the property - expressed
		</text>
		<text fill="gray" font-size="9" font-family="Segoe UI" x="175, 180.29102, 184.646, 187.11133, 191.69043, 194.15576, 200.33887, 205.72217, 208.11719, 210.06836, 212.53369, 217.08643, 221.66553, 225.82275, 230.91602, 233.38135, 237.53857, 242.81201, 247.90527, 251.72412, 254.77393, 257.90283, 262.48193, 264.66162, 269.75488, " y="1118, ">
				by a URI. Each constraint
		</text>
		<text fill="gray" font-size="9" font-family="Segoe UI" x="175, 179.5791, 184.87012, 190.16113, 192.34082, 194.52051, 199.22705, 203.0459, 205.51123, 208.56104, 213.83447, 216.2998, 220.87891, 223.05859, 225.23828, 227.70361, 233.00342, 237.70996, 241.52881, 245.68604, 250.39258, 255.48584, 260.78564, 265.36475, 270.45801, " y="1130, ">
				applies to all descendant
		</text>
		<text fill="gray" font-size="9" font-family="Segoe UI" x="175, 179.70654, 181.88623, 186.59277, 194.34473, 199.05127, 204.14453, 207.19434, 211.01318, " y="1142, ">
				elements.
		</text>
		<rect fill="white" x="179" y="1047" width="96" height="16"/>
		<text font-size="12" font-weight="600" font-family="Segoe UI" x="179, 186.44141, 193.70117, 201.14258, 206.90234, 214.23828, 221.49805, 226.77734, 231.44727, 236.22266, 242.67969, 246.08984, 253.34961, 258.01953, 265.2793, 270.10156, " y="1060, ">
				pubconstrainturi
		</text>
		<rect fill="none" stroke="black" stroke-width="1" stroke-linecap="square" stroke-miterlimit="4" transform="translate(0.5 0.5)" x="170" y="1045" width="111" height="20"/>
		<rect x="153" y="5" width="11" height="11"/>
		<rect fill="white" x="154" y="6" width="9" height="9"/>
		<rect x="155" y="10" width="7" height="1"/>
		<path fill="none" stroke="black" stroke-width="1" stroke-linecap="square" stroke-miterlimit="4" transform="translate(0.5 0.5)" d="M193 1230L202 1230"/>
		<path fill="silver" d="M152 1229L157 1224L182 1224L187 1229L187 1240L182 1245L157 1245L152 1240L152 1229Z"/>
		<path fill="white" d="M148 1225L153 1220L178 1220L183 1225L183 1236L178 1241L153 1241L148 1236L148 1225Z"/>
		<path fill="none" stroke="black" stroke-width="1" stroke-linecap="square" stroke-miterlimit="4" transform="translate(0.5 0.5)" d="M153 1230L177 1230"/>
		<rect x="159" y="1229" width="3" height="3"/>
		<rect x="164" y="1229" width="3" height="3"/>
		<rect x="169" y="1229" width="3" height="3"/>
		<path fill="none" stroke="black" stroke-width="1" stroke-linecap="square" stroke-miterlimit="4" transform="translate(0.5 0.5)" d="M148 1225L153 1220L177 1220L182 1225L182 1235L177 1240L153 1240L148 1235L148 1225Z"/>
		<rect fill="silver" x="210" y="1227" width="78" height="21"/>
		<rect fill="white" x="206" y="1223" width="78" height="21"/>
		<rect fill="none" stroke="black" stroke-width="1" stroke-linecap="square" stroke-miterlimit="4" transform="translate(0.5 0.5)" x="206" y="1223" width="77" height="20"/>
		<rect fill="white" x="203" y="1220" width="78" height="21"/>
		<path fill="none" stroke="black" stroke-width="1" stroke-linecap="square" stroke-miterlimit="4" transform="translate(0.5 0.5)" d="M266 1241L272 1247L275 1244"/>
		<rect fill="white" x="212" y="1222" width="57" height="16"/>
		<text font-size="12" font-weight="600" font-family="Segoe UI" x="212, 219.44141, 226.70117, 234.14258, 237.55273, 240.96289, 246.24219, 253.4668, 259.95898, " y="1235, ">
				published
		</text>
		<text font-size="12" font-family="Segoe UI" x="251.76562, " y="1260, ">
				1
		</text>
		<text font-size="12" font-family="Symbol" x="266.72266, " y="1259, ">
				¥
		</text>
		<text font-size="12" font-family="Segoe UI" x="259.89844, 262.5, " y="1260, ">
				..
		</text>
		<rect fill="none" stroke="black" stroke-width="1" stroke-linecap="square" stroke-miterlimit="4" transform="translate(0.5 0.5)" x="203" y="1220" width="77" height="20"/>
		<rect x="275" y="1225" width="11" height="11"/>
		<rect fill="white" x="276" y="1226" width="9" height="9"/>
		<rect x="277" y="1230" width="7" height="1"/>
		<rect x="280" y="1227" width="1" height="7"/>
		<rect x="182" y="1225" width="11" height="11"/>
		<rect fill="white" x="183" y="1226" width="9" height="9"/>
		<rect x="184" y="1230" width="7" height="1"/>
		<rect x="80" y="912" width="11" height="11"/>
		<rect fill="white" x="81" y="913" width="9" height="9"/>
		<rect x="82" y="917" width="7" height="1"/>
	</g>
</svg>
