<?xml version="1.0" encoding="utf-8" ?>
<svg xmlns="http://www.w3.org/2000/svg" xmlns:xlink="http://www.w3.org/1999/xlink" width="436" height="1869">
	<clipPath id="cl_5">
		<rect x="-10" y="-5" width="436" height="1869"/>
	</clipPath>
	<g clip-path="url(#cl_5)">
		<rect fill="#FFFFC0" x="114" width="302" height="1859"/>
		<rect fill="none" stroke="gray" stroke-width="1" stroke-linecap="square" stroke-miterlimit="4" transform="translate(0.5 0.5)" x="114" width="301" height="1858"/>
		<path fill="none" stroke="black" stroke-width="1" stroke-linecap="square" stroke-miterlimit="4" transform="translate(0.5 0.5)" d="M100 1141L126 1141"/>
		<path fill="none" stroke="black" stroke-width="1" stroke-linecap="square" stroke-miterlimit="4" transform="translate(0.5 0.5)" d="M127 1141L127 702"/>
		<path fill="none" stroke="black" stroke-width="1" stroke-linecap="square" stroke-miterlimit="4" transform="translate(0.5 0.5)" d="M127 1141L127 1580"/>
		<path fill="none" stroke="black" stroke-width="1" stroke-linecap="square" stroke-miterlimit="4" transform="translate(0.5 0.5)" d="M127 1581L141 1581"/>
		<path fill="none" stroke="black" stroke-width="1" stroke-linecap="square" stroke-miterlimit="4" transform="translate(0.5 0.5)" d="M127 701L141 701"/>
		<rect fill="silver" x="4" y="1135" width="95" height="21"/>
		<rect fill="white" y="1131" width="95" height="21"/>
		<rect fill="#FFFFC0" x="122" y="8" width="146" height="16"/>
		<text fill="gray" font-size="12" font-weight="600" font-family="Segoe UI" x="122, 129.48828, 136.82422, 144.08398, 148.70703, 155.19922, 162.45898, 167.12891, 178.61328, 185.10547, 189.77539, 196.23242, 203.66211, 210.11914, 214.78906, 221.24609, 228.73438, 235.19141, 239.86133, 246.35352, 252.81055, 260.25195, " y="21, ">
				ContentMetadataCatType
		</text>
		<rect fill="white" x="5" y="1158" width="94" height="24"/>
		<text fill="gray" font-size="9" font-family="Segoe UI" x="5, 10.572266, 15.845703, 20.938965, 23.98877, 28.695312, 33.788574, 36.838379, 39.303711, 47.385254, 52.091797, 55.141602, 59.720703, 65.020508, 69.599609, 72.649414, 77.228516, 79.693848, 82.510742, 87.78418, 90.913086, 93.378418, " y="1168, ">
				Content Metadata for a
		</text>
		<text fill="gray" font-size="9" font-family="Segoe UI" x="5, 10.040527, 12.220215, 16.799316, 21.892578, 26.98584, 29.165527, 34.258789, 39.558594, 42.023926, 44.418945, 47.46875, 52.175293, " y="1180, ">
				Planning Item
		</text>
		<rect fill="white" x="9" y="1133" width="74" height="16"/>
		<text font-size="12" font-weight="600" font-family="Segoe UI" x="9, 14.759766, 22.095703, 29.355469, 33.978516, 40.470703, 47.730469, 52.400391, 63.884766, 70.376953, 75.046875, " y="1146, ">
				contentMeta
		</text>
		<rect fill="none" stroke="black" stroke-width="1" stroke-linecap="square" stroke-miterlimit="4" transform="translate(0.5 0.5)" y="1131" width="94" height="20"/>
		<path fill="white" d="M219 55L219 36L142 36L142 55L142 1365L289 1365L289 55L219 55Z"/>
		<rect fill="white" x="162" y="38" width="51" height="16"/>
		<text font-size="12" font-style="italic" font-family="Segoe UI" x="162, 168.50391, 172.38281, 176.26172, 180.5332, 183.63867, 190.14258, 196.83984, 200.73047, 206.57227, " y="51, ">
				attributes
		</text>
		<path fill="none" stroke="black" stroke-width="1" stroke-linecap="square" stroke-miterlimit="4" transform="translate(0.5 0.5)" d="M219 55L219 36L142 36L142 55L142 1365L289 1365L289 55L219 55Z"/>
		<rect fill="silver" x="160" y="68" width="52" height="21"/>
		<rect fill="white" x="156" y="64" width="52" height="21"/>
		<rect fill="white" x="161" y="91" width="101" height="24"/>
		<text fill="gray" font-size="9" font-family="Segoe UI" x="161, 165.71533, 170.80859, 175.51514, 177.98047, 180.16016, 185.43359, 189.59082, 194.16992, 196.34961, 198.81494, 200.99463, 206.29443, 211.00098, 216.09424, 219.14404, 221.32373, 224.14062, 226.32031, 231.02686, 234.15576, 236.62109, 241.89453, 244.71143, 247.17676, 250.22656, 255.31982, " y="101, ">
				The local identifier of the
		</text>
		<text fill="gray" font-size="9" font-family="Segoe UI" x="161, 166.29102, 169.41992, 174.69336, 179.98438, 184.69092, 187.81982, 190.86963, 195.22461, " y="113, ">
				property.
		</text>
		<rect fill="white" x="165" y="66" width="36" height="16"/>
		<text font-size="12" font-weight="600" font-family="Segoe UI" x="165, 168.41016, " y="79, ">
				id
		</text>
		<rect fill="none" stroke="black" stroke-width="1" stroke-linecap="square" stroke-miterlimit="4" transform="translate(0.5 0.5)" x="156" y="64" width="51" height="20"/>
		<rect fill="silver" x="160" y="126" width="58" height="21"/>
		<rect fill="white" x="156" y="122" width="58" height="21"/>
		<rect fill="white" x="161" y="149" width="121" height="120"/>
		<text fill="gray" font-size="9" font-family="Segoe UI" x="161, 163.39502, 166.21191, 168.67725, 171.72705, 176.82031, 181.52686, 183.99219, 189.2832, 192.41211, 197.68555, 202.97656, 207.68311, 210.81201, 213.86182, 218.2168, 220.68213, 224.99316, 229.57227, 231.75195, 236.84521, 241.55176, 244.01709, 246.19678, 250.01562, 252.48096, 257.57422, 262.84766, " y="159, ">
				If the property value is not
		</text>
		<text fill="gray" font-size="9" font-family="Segoe UI" x="161, 166.2998, 171.00635, 173.82324, 176.00293, 181.09619, 185.80273, 191.10254, 193.05371, 195.51904, 199.33789, 204.62891, 209.33545, 213.49268, 215.67236, 218.48926, 220.66895, 225.37549, 229.19434, 231.65967, 238.16357, 243.25684, 245.43652, 249.59375, 254.68701, 257.15234, 261.85889, 266.95215, 270.00195, 272.18164, 275.23145, " y="171, ">
				defined, specifies which entity
		</text>
		<text fill="gray" font-size="9" font-family="Segoe UI" x="161, 163.71582, 169.00684, 173.71338, 176.84229, 180.66113, 185.93457, 191.02783, 192.979, 195.44434, 200.71777, 203.84668, 209.14648, 213.72559, 218.81885, 220.99854, 224.81738, 229.39648, 232.44629, 234.62598, 239.89941, 244.99268, 247.45801, 252.73145, " y="183, ">
				(person, organisation or
		</text>
		<text fill="gray" font-size="9" font-family="Segoe UI" x="161, 164.81885, 169.17383, 172.99268, 176.04248, 180.74902, 188.50098, 191.2168, 193.68213, 200.18604, 202.36572, 204.54541, 206.7251, 209.19043, 213.89697, 219.19678, 221.37646, 224.42627, 226.8916, 229.94141, 235.03467, 239.74121, 242.20654, 247.49756, 250.62646, 255.8999, 261.19092, 265.89746, 269.02637, 272.07617, " y="195, ">
				system) will edit the property
		</text>
		<text fill="gray" font-size="9" font-family="Segoe UI" x="161, 165.31104, 169.89014, 172.06982, 177.16309, 181.86963, 184.33496, 187.93408, 190.39941, 195.10596, 199.23682, 204.52783, 207.65674, 212.36328, 216.18213, 220.00098, 224.70752, 230.00732, 232.47266, 237.76367, 242.11865, 244.58398, 249.16309, 251.62842, 258.41357, 263.98584, 269.25928, 274.55908, 279.26562, " y="207, ">
				value - expressed by a QCode.
		</text>
		<text fill="gray" font-size="9" font-family="Segoe UI" x="161, 163.39502, 166.21191, 168.67725, 171.72705, 176.82031, 181.52686, 183.99219, 189.2832, 192.41211, 197.68555, 202.97656, 207.68311, 210.81201, 213.86182, 218.2168, 220.68213, 224.99316, 229.57227, 231.75195, 236.84521, 241.55176, 244.01709, 246.19678, " y="219, ">
				If the property value is
		</text>
		<text fill="gray" font-size="9" font-family="Segoe UI" x="161, 166.2998, 171.00635, 173.82324, 176.00293, 181.09619, 185.80273, 191.10254, 193.05371, 195.51904, 199.33789, 204.62891, 209.33545, 213.49268, 215.67236, 218.48926, 220.66895, 225.37549, 229.19434, 231.65967, 238.16357, 243.25684, 245.43652, 249.59375, 254.68701, 257.15234, 261.85889, 266.95215, 270.00195, 272.18164, 275.23145, " y="231, ">
				defined, specifies which entity
		</text>
		<text fill="gray" font-size="9" font-family="Segoe UI" x="161, 163.71582, 169.00684, 173.71338, 176.84229, 180.66113, 185.93457, 191.02783, 192.979, 195.44434, 200.71777, 203.84668, 209.14648, 213.72559, 218.81885, 220.99854, 224.81738, 229.39648, 232.44629, 234.62598, 239.89941, 244.99268, 247.45801, 252.73145, " y="243, ">
				(person, organisation or
		</text>
		<text fill="gray" font-size="9" font-family="Segoe UI" x="161, 164.81885, 169.17383, 172.99268, 176.04248, 180.74902, 188.50098, 191.2168, 193.68213, 198.77539, 203.35449, 207.17334, 209.63867, 214.34521, 219.64502, 221.82471, 224.87451, 229.58105, 234.88086, 237.34619, 240.396, 245.48926, " y="255, ">
				system) has edited the
		</text>
		<text fill="gray" font-size="9" font-family="Segoe UI" x="161, 166.29102, 169.41992, 174.69336, 179.98438, 184.69092, 187.81982, 190.86963, 195.22461, 197.68994, 202.00098, 206.58008, 208.75977, 213.85303, 218.55957, " y="267, ">
				property value.
		</text>
		<rect fill="white" x="165" y="124" width="42" height="16"/>
		<text font-size="12" font-weight="600" font-family="Segoe UI" x="165, 170.75977, 175.48828, 181.98047, 188.4375, 193.06055, 200.39648, " y="137, ">
				creator
		</text>
		<rect fill="none" stroke="black" stroke-width="1" stroke-linecap="square" stroke-miterlimit="4" transform="translate(0.5 0.5)" x="156" y="122" width="57" height="20"/>
		<rect fill="silver" x="160" y="280" width="73" height="21"/>
		<rect fill="white" x="156" y="276" width="73" height="21"/>
		<rect fill="white" x="161" y="303" width="120" height="108"/>
		<text fill="gray" font-size="9" font-family="Segoe UI" x="161, 163.39502, 166.21191, 168.67725, 171.72705, 176.82031, 181.52686, 183.99219, 189.2832, 192.41211, 197.68555, 202.97656, 207.68311, 210.81201, 213.86182, 218.2168, 220.68213, 224.99316, 229.57227, 231.75195, 236.84521, 241.55176, 244.01709, 246.19678, 250.01562, 252.48096, 257.57422, 262.84766, " y="313, ">
				If the property value is not
		</text>
		<text fill="gray" font-size="9" font-family="Segoe UI" x="161, 166.2998, 171.00635, 173.82324, 176.00293, 181.09619, 185.80273, 191.10254, 193.05371, 195.51904, 199.33789, 204.62891, 209.33545, 213.49268, 215.67236, 218.48926, 220.66895, 225.37549, 229.19434, 231.65967, 238.16357, 243.25684, 245.43652, 249.59375, 254.68701, 257.15234, 261.85889, 266.95215, 270.00195, 272.18164, 275.23145, " y="325, ">
				defined, specifies which entity
		</text>
		<text fill="gray" font-size="9" font-family="Segoe UI" x="161, 163.71582, 169.00684, 173.71338, 176.84229, 180.66113, 185.93457, 191.02783, 192.979, 195.44434, 200.71777, 203.84668, 209.14648, 213.72559, 218.81885, 220.99854, 224.81738, 229.39648, 232.44629, 234.62598, 239.89941, 244.99268, 247.45801, 252.73145, " y="337, ">
				(person, organisation or
		</text>
		<text fill="gray" font-size="9" font-family="Segoe UI" x="161, 164.81885, 169.17383, 172.99268, 176.04248, 180.74902, 188.50098, 191.2168, 193.68213, 200.18604, 202.36572, 204.54541, 206.7251, 209.19043, 213.89697, 219.19678, 221.37646, 224.42627, 226.8916, 229.94141, 235.03467, 239.74121, 242.20654, 247.49756, 250.62646, 255.8999, 261.19092, 265.89746, 269.02637, 272.07617, " y="349, ">
				system) will edit the property
		</text>
		<text fill="gray" font-size="9" font-family="Segoe UI" x="161, 164.59912, 167.06445, 171.771, 175.90186, 181.19287, 184.32178, 189.02832, 192.84717, 196.66602, 201.37256, 206.67236, 209.1377, 214.42871, 218.78369, 221.24902, 225.82812, 228.29346, 234.47656, 239.85986, 242.25488, 244.20605, 246.67139, 249.06641, 251.8833, 254.34863, 257.39844, 262.4917, " y="361, ">
				- expressed by a URI. If the
		</text>
		<text fill="gray" font-size="9" font-family="Segoe UI" x="161, 166.29102, 169.41992, 174.69336, 179.98438, 184.69092, 187.81982, 190.86963, 195.22461, 197.68994, 202.00098, 206.58008, 208.75977, 213.85303, 218.55957, 221.0249, 223.20459, 227.02344, 229.48877, 234.78857, 239.49512, 242.31201, 244.4917, 249.58496, 254.2915, 259.59131, " y="373, ">
				property value is defined,
		</text>
		<text fill="gray" font-size="9" font-family="Segoe UI" x="161, 164.81885, 170.10986, 174.81641, 178.97363, 181.15332, 183.97021, 186.1499, 190.85645, 194.67529, 197.14062, 203.64453, 208.73779, 210.91748, 215.07471, 220.16797, 222.6333, 227.33984, 232.43311, 235.48291, 237.6626, 240.7124, 245.06738, 247.53271, 250.24854, 255.53955, 260.24609, 263.375, 267.19385, 272.46729, 277.56055, " y="385, ">
				specifies which entity (person,
		</text>
		<text fill="gray" font-size="9" font-family="Segoe UI" x="161, 166.27344, 169.40234, 174.70215, 179.28125, 184.37451, 186.5542, 190.37305, 194.95215, 198.00195, 200.18164, 205.45508, 210.54834, 213.01367, 218.28711, 221.41602, 223.88135, 227.7002, 232.05518, 235.87402, 238.92383, 243.63037, 251.38232, 254.09814, 256.56348, 261.65674, 266.23584, " y="397, ">
				organisation or system) has
		</text>
		<text fill="gray" font-size="9" font-family="Segoe UI" x="161, 165.70654, 171.00635, 173.18604, 176.23584, 180.94238, 186.24219, 188.70752, 191.75732, 196.85059, 201.55713, 204.02246, 209.31348, 212.44238, 217.71582, 223.00684, 227.71338, 230.84229, 233.89209, 238.24707, " y="409, ">
				edited the property.
		</text>
		<rect fill="white" x="165" y="278" width="57" height="16"/>
		<text font-size="12" font-weight="600" font-family="Segoe UI" x="165, 170.75977, 175.48828, 181.98047, 188.4375, 193.06055, 200.39648, 205.20703, 212.4668, 217.28906, " y="291, ">
				creatoruri
		</text>
		<rect fill="none" stroke="black" stroke-width="1" stroke-linecap="square" stroke-miterlimit="4" transform="translate(0.5 0.5)" x="156" y="276" width="72" height="20"/>
		<rect fill="silver" x="160" y="422" width="69" height="21"/>
		<rect fill="white" x="156" y="418" width="69" height="21"/>
		<rect fill="white" x="161" y="445" width="119" height="72"/>
		<text fill="gray" font-size="9" font-family="Segoe UI" x="161, 165.71533, 170.80859, 175.51514, 177.98047, 183.28027, 187.85938, 190.90918, 195.61572, 198.08105, 200.79688, 205.37598, 210.46924, 215.76904, 217.72021, 220.18555, 225.45898, 230.75, 233.7998, 235.97949, 241.25293, 246.34619, 250.92529, 253.10498, 255.28467, 259.63965, 261.59082, 264.05615, 267.10596, 272.19922, " y="455, ">
				The date (and, optionally, the
		</text>
		<text fill="gray" font-size="9" font-family="Segoe UI" x="161, 164.0498, 166.22949, 173.98145, 178.68799, 181.40381, 183.86914, 190.37305, 195.46631, 200.17285, 205.26611, 207.73145, 210.78125, 215.87451, 220.58105, 223.04639, 228.3374, 231.46631, 236.73975, 242.03076, 246.7373, 249.86621, 252.91602, 257.271, 259.73633, 266.24023, 270.81934, " y="467, ">
				time) when the property was
		</text>
		<text fill="gray" font-size="9" font-family="Segoe UI" x="161, 163.17969, 167.75879, 171.57764, 174.62744, 177.09277, 184.84473, 190.11816, 195.41797, 197.59766, 200.41455, 202.59424, 207.30078, 212.60059, 214.55176, 217.01709, 221.73242, 226.82568, 231.53223, 233.99756, 236.17725, 241.27051, 243.4502, 246.5, 248.67969, 253.25879, 255.43848, 257.90381, 262.21484, 266.79395, 268.97363, 274.06689, " y="479, ">
				last modified. The initial value
		</text>
		<text fill="gray" font-size="9" font-family="Segoe UI" x="161, 163.17969, 166.99854, 169.46387, 172.51367, 177.60693, 182.31348, 184.77881, 190.07861, 194.65771, 197.70752, 202.41406, 204.87939, 207.59521, 212.17432, 217.26758, 222.56738, 224.51855, 226.98389, 232.25732, 237.54834, 240.59814, 242.77783, 248.05127, 253.14453, 257.72363, 259.90332, 262.08301, 266.43799, " y="491, ">
				is the date (and, optionally,
		</text>
		<text fill="gray" font-size="9" font-family="Segoe UI" x="161, 164.0498, 169.14307, 173.84961, 176.31494, 179.36475, 181.54443, 189.29639, 194.00293, 196.71875, 199.18408, 204.45752, 207.27441, 209.73975, 213.89697, 217.02588, 221.73242, 226.31152, 229.36133, 231.54102, 236.81445, 241.90771, 244.37305, 249.64648, 252.46338, 254.92871, 257.97852, 263.07178, " y="503, ">
				the time) of creation of the
		</text>
		<text fill="gray" font-size="9" font-family="Segoe UI" x="161, 166.29102, 169.41992, 174.69336, 179.98438, 184.69092, 187.81982, 190.86963, 195.22461, " y="515, ">
				property.
		</text>
		<rect fill="white" x="165" y="420" width="53" height="16"/>
		<text font-size="12" font-weight="600" font-family="Segoe UI" x="165, 175.99219, 183.32812, 190.75781, 194.16797, 198.76758, 202.17773, 208.66992, " y="433, ">
				modified
		</text>
		<rect fill="none" stroke="black" stroke-width="1" stroke-linecap="square" stroke-miterlimit="4" transform="translate(0.5 0.5)" x="156" y="418" width="68" height="20"/>
		<rect fill="silver" x="160" y="528" width="59" height="21"/>
		<rect fill="white" x="156" y="524" width="59" height="21"/>
		<rect fill="white" x="161" y="551" width="118" height="108"/>
		<text fill="gray" font-size="9" font-family="Segoe UI" x="161, 163.39502, 166.21191, 168.67725, 172.49609, 177.20264, 180.25244, 182.71777, 185.76758, 191.04102, 193.50635, 196.55615, 199.68506, 204.77832, 209.48486, 211.9502, 215, 220.09326, " y="561, ">
				If set to true the
		</text>
		<text fill="gray" font-size="9" font-family="Segoe UI" x="161, 165.15723, 170.43066, 173.55957, 176.68848, 181.39502, 185.21387, 190.50488, 195.77832, 200.87158, 206.17139, 208.35107, 213.44434, 218.74414, 221.20947, 226.50049, 229.62939, 234.90283, 240.19385, 244.90039, 248.0293, 251.0791, 255.43408, 257.89941, 264.40332, 268.98242, " y="573, ">
				corresponding property was
		</text>
		<text fill="gray" font-size="9" font-family="Segoe UI" x="161, 165.5791, 170.87891, 176.17871, 180.88525, 186.18506, 188.65039, 191.7002, 196.97363, 199.43896, 202.48877, 207.58203, 212.28857, 214.75391, 220.92822, 225.77979, 228.24512, 230.64014, 233.68994, 238.39648, 246.14844, 248.61377, 251.43066, 256.7041, 259.83301, 262.29834, " y="585, ">
				added to the G2 Item for a
		</text>
		<text fill="gray" font-size="9" font-family="Segoe UI" x="161, 164.81885, 170.10986, 174.81641, 178.97363, 181.15332, 183.97021, 186.1499, 190.30713, 192.77246, 196.92969, 202.02295, 205.8418, 208.8916, 214.16504, 221.91699, 226.62354, 229.75244, 232.21777, 237.49121, 240.62012, 243.08545, 248.38525, 251.51416, 256.7876, 261.88086, 267.17188, 269.63721, 274.91064, " y="597, ">
				specific customer or group of
		</text>
		<text fill="gray" font-size="9" font-family="Segoe UI" x="161, 165.15723, 170.25049, 174.06934, 177.11914, 182.39258, 190.14453, 194.85107, 197.97998, 201.79883, 204.26416, 209.5376, 214.63086, 216.81055, 221.16553, 223.1167, 225.58203, 230.29736, 235.39062, 240.09717, 242.5625, 247.8623, 252.56885, 255.38574, 259.96484, 265.05811, 267.23779, " y="609, ">
				customers only. The default
		</text>
		<text fill="gray" font-size="9" font-family="Segoe UI" x="161, 165.31104, 169.89014, 172.06982, 177.16309, 181.86963, 184.33496, 189.6084, 192.42529, 194.89062, 197.94043, 203.03369, 205.21338, 209.03223, 211.49756, 216.78857, 219.91748, 225.19092, 230.48193, 235.18848, 238.31738, 241.36719, 245.72217, 248.1875, 250.36719, 254.18604, 256.65137, 259.46826, 264.04736, 266.22705, 270.0459, " y="621, ">
				value of this property is false
		</text>
		<text fill="gray" font-size="9" font-family="Segoe UI" x="161, 167.50391, 172.59717, 174.77686, 178.93408, 184.02734, 186.49268, 191.07178, 196.36279, 201.65381, 203.8335, 206.01318, 210.71973, 214.53857, 217.00391, 223.50781, 228.60107, 233.30762, 238.40088, 240.86621, 243.91602, 249.00928, 251.18896, " y="633, ">
				which applies when this
		</text>
		<text fill="gray" font-size="9" font-family="Segoe UI" x="161, 165.5791, 168.62891, 171.67871, 174.80762, 176.9873, 182.27832, 187.37158, 190.42139, 195.12793, 197.59326, 199.77295, 203.5918, 206.05713, 211.15039, 216.42383, 219.47363, 221.93896, 227.03223, 230.85107, 235.55762, 240.85742, 243.32275, 249.82666, 252.00635, 255.05615, 260.14941, 262.61475, 265.66455, 270.75781, " y="645, ">
				attribute is not used with the
		</text>
		<text fill="gray" font-size="9" font-family="Segoe UI" x="161, 166.29102, 169.41992, 174.69336, 179.98438, 184.69092, 187.81982, 190.86963, 195.22461, " y="657, ">
				property.
		</text>
		<rect fill="white" x="165" y="526" width="43" height="16"/>
		<text font-size="12" font-weight="600" font-family="Segoe UI" x="165, 170.75977, 178.01953, 183.29883, 187.92188, 195.25781, " y="539, ">
				custom
		</text>
		<rect fill="none" stroke="black" stroke-width="1" stroke-linecap="square" stroke-miterlimit="4" transform="translate(0.5 0.5)" x="156" y="524" width="58" height="20"/>
		<rect fill="silver" x="160" y="670" width="52" height="21"/>
		<rect fill="white" x="156" y="666" width="52" height="21"/>
		<rect fill="white" x="161" y="693" width="118" height="48"/>
		<text fill="gray" font-size="9" font-family="Segoe UI" x="161, 163.39502, 168.48828, 173.78809, 175.96777, 180.125, 184.7041, 187.75391, 192.46045, 196.2793, 198.74463, 204.03564, 208.39062, 210.85596, 217.35986, 222.45312, 224.63281, 228.79004, 233.8833, 236.34863, 244.10059, 248.80713, 253.38623, 258.47949, 262.29834, 264.76367, 267.81348, 272.90674, " y="703, ">
				Indicates by which means the
		</text>
		<text fill="gray" font-size="9" font-family="Segoe UI" x="161, 165.31104, 169.89014, 172.06982, 177.16309, 181.86963, 184.33496, 190.83887, 195.41797, 199.23682, 201.70215, 206.40869, 210.53955, 213.58936, 216.71826, 221.29736, 225.45459, 228.50439, 233.21094, 238.51074, 240.97607, 243.79297, 246.92188, 252.19531, 259.94727, 262.4126, 265.4624, 270.55566, " y="715, ">
				value was extracted from the
		</text>
		<text fill="gray" font-size="9" font-family="Segoe UI" x="161, 165.15723, 170.43066, 175.52393, 178.57373, 183.28027, 188.37354, 191.42334, 193.88867, 197.48779, 199.95312, 204.65967, 208.79053, 214.08154, 217.21045, 221.91699, 225.73584, 229.55469, 234.26123, 239.56104, 242.02637, 247.31738, 251.67236, 254.1377, " y="727, ">
				content - expressed by a
		</text>
		<text fill="gray" font-size="9" font-family="Segoe UI" x="161, 167.78516, 173.35742, 178.63086, 183.93066, " y="739, ">
				QCode
		</text>
		<rect fill="white" x="165" y="668" width="36" height="16"/>
		<text font-size="12" font-weight="600" font-family="Segoe UI" x="165, 172.22461, 179.56055, " y="681, ">
				how
		</text>
		<rect fill="none" stroke="black" stroke-width="1" stroke-linecap="square" stroke-miterlimit="4" transform="translate(0.5 0.5)" x="156" y="666" width="51" height="20"/>
		<rect fill="silver" x="160" y="752" width="57" height="21"/>
		<rect fill="white" x="156" y="748" width="57" height="21"/>
		<rect fill="white" x="161" y="775" width="118" height="36"/>
		<text fill="gray" font-size="9" font-family="Segoe UI" x="161, 163.39502, 168.48828, 173.78809, 175.96777, 180.125, 184.7041, 187.75391, 192.46045, 196.2793, 198.74463, 204.03564, 208.39062, 210.85596, 217.35986, 222.45312, 224.63281, 228.79004, 233.8833, 236.34863, 244.10059, 248.80713, 253.38623, 258.47949, 262.29834, 264.76367, 267.81348, 272.90674, " y="785, ">
				Indicates by which means the
		</text>
		<text fill="gray" font-size="9" font-family="Segoe UI" x="161, 165.31104, 169.89014, 172.06982, 177.16309, 181.86963, 184.33496, 190.83887, 195.41797, 199.23682, 201.70215, 206.40869, 210.53955, 213.58936, 216.71826, 221.29736, 225.45459, 228.50439, 233.21094, 238.51074, 240.97607, 243.79297, 246.92188, 252.19531, 259.94727, 262.4126, 265.4624, 270.55566, " y="797, ">
				value was extracted from the
		</text>
		<text fill="gray" font-size="9" font-family="Segoe UI" x="161, 165.15723, 170.43066, 175.52393, 178.57373, 183.28027, 188.37354, 191.42334, 193.88867, 197.48779, 199.95312, 204.65967, 208.79053, 214.08154, 217.21045, 221.91699, 225.73584, 229.55469, 234.26123, 239.56104, 242.02637, 247.31738, 251.67236, 254.1377, 258.7168, 261.18213, 267.36523, 272.74854, " y="809, ">
				content - expressed by a URI
		</text>
		<rect fill="white" x="165" y="750" width="41" height="16"/>
		<text font-size="12" font-weight="600" font-family="Segoe UI" x="165, 172.22461, 179.56055, 189.12891, 196.38867, 201.21094, " y="763, ">
				howuri
		</text>
		<rect fill="none" stroke="black" stroke-width="1" stroke-linecap="square" stroke-miterlimit="4" transform="translate(0.5 0.5)" x="156" y="748" width="56" height="20"/>
		<rect fill="silver" x="160" y="822" width="52" height="21"/>
		<rect fill="white" x="156" y="818" width="52" height="21"/>
		<rect fill="white" x="161" y="845" width="113" height="36"/>
		<text fill="gray" font-size="9" font-family="Segoe UI" x="161, 169.40674, 174.5, 178.85498, 181.32031, 184.37012, 189.46338, 194.16992, 196.63525, 204.38721, 209.09375, 212.14355, 216.72266, 222.02246, 226.60156, 229.65137, 234.23047, 236.6958, 241.78906, 246.36816, 250.18701, 252.65234, 257.94336, 262.6499, 267.35645, " y="855, ">
				Why the metadata has been
		</text>
		<text fill="gray" font-size="9" font-family="Segoe UI" x="161, 163.17969, 168.27295, 172.43018, 174.60986, 179.70312, 185.00293, 189.70947, 195.00928, 197.47461, 201.07373, 203.53906, 208.24561, 212.37646, 217.66748, 220.79639, 225.50293, 229.32178, 233.14062, 237.84717, 243.14697, 245.6123, 250.90332, 255.2583, 257.72363, " y="867, ">
				included - expressed by a
		</text>
		<text fill="gray" font-size="9" font-family="Segoe UI" x="161, 167.78516, 173.35742, 178.63086, 183.93066, " y="879, ">
				QCode
		</text>
		<rect fill="white" x="165" y="820" width="36" height="16"/>
		<text font-size="12" font-weight="600" font-family="Segoe UI" x="165, 174.56836, 181.79297, " y="833, ">
				why
		</text>
		<rect fill="none" stroke="black" stroke-width="1" stroke-linecap="square" stroke-miterlimit="4" transform="translate(0.5 0.5)" x="156" y="818" width="51" height="20"/>
		<rect fill="silver" x="160" y="892" width="56" height="21"/>
		<rect fill="white" x="156" y="888" width="56" height="21"/>
		<rect fill="white" x="161" y="915" width="119" height="24"/>
		<text fill="gray" font-size="9" font-family="Segoe UI" x="161, 169.40674, 174.5, 178.85498, 181.32031, 184.37012, 189.46338, 194.16992, 196.63525, 204.38721, 209.09375, 212.14355, 216.72266, 222.02246, 226.60156, 229.65137, 234.23047, 236.6958, 241.78906, 246.36816, 250.18701, 252.65234, 257.94336, 262.6499, 267.35645, " y="925, ">
				Why the metadata has been
		</text>
		<text fill="gray" font-size="9" font-family="Segoe UI" x="161, 163.17969, 168.27295, 172.43018, 174.60986, 179.70312, 185.00293, 189.70947, 195.00928, 197.47461, 201.07373, 203.53906, 208.24561, 212.37646, 217.66748, 220.79639, 225.50293, 229.32178, 233.14062, 237.84717, 243.14697, 245.6123, 250.90332, 255.2583, 257.72363, 262.30273, 264.76807, 270.95117, 276.33447, " y="937, ">
				included - expressed by a URI
		</text>
		<rect fill="white" x="165" y="890" width="40" height="16"/>
		<text font-size="12" font-weight="600" font-family="Segoe UI" x="165, 174.56836, 181.79297, 188.25, 195.50977, 200.33203, " y="903, ">
				whyuri
		</text>
		<rect fill="none" stroke="black" stroke-width="1" stroke-linecap="square" stroke-miterlimit="4" transform="translate(0.5 0.5)" x="156" y="888" width="55" height="20"/>
		<rect fill="silver" x="160" y="950" width="97" height="21"/>
		<rect fill="white" x="156" y="946" width="97" height="21"/>
		<rect fill="white" x="161" y="973" width="117" height="72"/>
		<text fill="gray" font-size="9" font-family="Segoe UI" x="161, 167.78516, 172.87842, 177.58496, 180.05029, 185.32373, 188.45264, 190.91797, 198.66992, 203.24902, 208.34229, 212.69727, 215.1626, 219.31982, 224.59326, 229.68652, 233.50537, 236.55518, 239.68408, 244.26318, 246.44287, 251.53613, 254.58594, 258.40479, 260.87012, 263.91992, 269.01318, 273.59229, " y="983, ">
				One or many constraints that
		</text>
		<text fill="gray" font-size="9" font-family="Segoe UI" x="161, 165.5791, 170.87012, 176.16113, 178.34082, 182.6958, 185.16113, 188.21094, 193.48438, 195.94971, 201.24072, 206.33398, 211.625, 213.80469, 215.98438, 219.80322, 224.89648, 227.07617, 232.16943, 237.46924, 239.93457, 242.98438, 248.07764, 252.78418, 255.24951, 259.56055, 264.13965, 266.31934, 271.4126, " y="995, ">
				apply to publishing the value
		</text>
		<text fill="gray" font-size="9" font-family="Segoe UI" x="161, 166.27344, 169.09033, 171.55566, 174.60547, 179.69873, 184.40527, 186.87061, 192.16162, 195.29053, 200.56396, 205.85498, 210.56152, 213.69043, 216.74023, 221.09521, 223.56055, 227.15967, 229.625, 234.33154, 238.4624, 243.75342, 246.88232, 251.58887, 255.40771, 259.22656, 263.93311, " y="1007, ">
				of the property - expressed
		</text>
		<text fill="gray" font-size="9" font-family="Segoe UI" x="161, 166.29102, 170.646, 173.11133, 177.69043, 180.15576, 186.94092, 192.51318, 197.78662, 203.08643, 207.79297, 209.74414, 212.20947, 216.76221, 221.34131, 225.49854, 230.5918, 233.05713, 237.21436, 242.48779, 247.58105, 251.3999, 254.44971, 257.57861, 262.15771, 264.3374, 269.43066, " y="1019, ">
				by a QCode. Each constraint
		</text>
		<text fill="gray" font-size="9" font-family="Segoe UI" x="161, 165.5791, 170.87012, 176.16113, 178.34082, 180.52051, 185.22705, 189.0459, 191.51123, 194.56104, 199.83447, 202.2998, 206.87891, 209.05859, 211.23828, 213.70361, 219.00342, 223.70996, 227.52881, 231.68604, 236.39258, 241.48584, 246.78564, 251.36475, 256.45801, " y="1031, ">
				applies to all descendant
		</text>
		<text fill="gray" font-size="9" font-family="Segoe UI" x="161, 165.70654, 167.88623, 172.59277, 180.34473, 185.05127, 190.14453, 193.19434, 197.01318, " y="1043, ">
				elements.
		</text>
		<rect fill="white" x="165" y="948" width="81" height="16"/>
		<text font-size="12" font-weight="600" font-family="Segoe UI" x="165, 172.44141, 179.70117, 187.14258, 192.90234, 200.23828, 207.49805, 212.77734, 217.44727, 222.22266, 228.67969, 232.08984, 239.34961, " y="961, ">
				pubconstraint
		</text>
		<rect fill="none" stroke="black" stroke-width="1" stroke-linecap="square" stroke-miterlimit="4" transform="translate(0.5 0.5)" x="156" y="946" width="96" height="20"/>
		<rect fill="silver" x="160" y="1056" width="112" height="21"/>
		<rect fill="white" x="156" y="1052" width="112" height="21"/>
		<rect fill="white" x="161" y="1079" width="117" height="72"/>
		<text fill="gray" font-size="9" font-family="Segoe UI" x="161, 167.78516, 172.87842, 177.58496, 180.05029, 185.32373, 188.45264, 190.91797, 198.66992, 203.24902, 208.34229, 212.69727, 215.1626, 219.31982, 224.59326, 229.68652, 233.50537, 236.55518, 239.68408, 244.26318, 246.44287, 251.53613, 254.58594, 258.40479, 260.87012, 263.91992, 269.01318, 273.59229, " y="1089, ">
				One or many constraints that
		</text>
		<text fill="gray" font-size="9" font-family="Segoe UI" x="161, 165.5791, 170.87012, 176.16113, 178.34082, 182.6958, 185.16113, 188.21094, 193.48438, 195.94971, 201.24072, 206.33398, 211.625, 213.80469, 215.98438, 219.80322, 224.89648, 227.07617, 232.16943, 237.46924, 239.93457, 242.98438, 248.07764, 252.78418, 255.24951, 259.56055, 264.13965, 266.31934, 271.4126, " y="1101, ">
				apply to publishing the value
		</text>
		<text fill="gray" font-size="9" font-family="Segoe UI" x="161, 166.27344, 169.09033, 171.55566, 174.60547, 179.69873, 184.40527, 186.87061, 192.16162, 195.29053, 200.56396, 205.85498, 210.56152, 213.69043, 216.74023, 221.09521, 223.56055, 227.15967, 229.625, 234.33154, 238.4624, 243.75342, 246.88232, 251.58887, 255.40771, 259.22656, 263.93311, " y="1113, ">
				of the property - expressed
		</text>
		<text fill="gray" font-size="9" font-family="Segoe UI" x="161, 166.29102, 170.646, 173.11133, 177.69043, 180.15576, 186.33887, 191.72217, 194.11719, 196.06836, 198.53369, 203.08643, 207.66553, 211.82275, 216.91602, 219.38135, 223.53857, 228.81201, 233.90527, 237.72412, 240.77393, 243.90283, 248.48193, 250.66162, 255.75488, " y="1125, ">
				by a URI. Each constraint
		</text>
		<text fill="gray" font-size="9" font-family="Segoe UI" x="161, 165.5791, 170.87012, 176.16113, 178.34082, 180.52051, 185.22705, 189.0459, 191.51123, 194.56104, 199.83447, 202.2998, 206.87891, 209.05859, 211.23828, 213.70361, 219.00342, 223.70996, 227.52881, 231.68604, 236.39258, 241.48584, 246.78564, 251.36475, 256.45801, " y="1137, ">
				applies to all descendant
		</text>
		<text fill="gray" font-size="9" font-family="Segoe UI" x="161, 165.70654, 167.88623, 172.59277, 180.34473, 185.05127, 190.14453, 193.19434, 197.01318, " y="1149, ">
				elements.
		</text>
		<rect fill="white" x="165" y="1054" width="96" height="16"/>
		<text font-size="12" font-weight="600" font-family="Segoe UI" x="165, 172.44141, 179.70117, 187.14258, 192.90234, 200.23828, 207.49805, 212.77734, 217.44727, 222.22266, 228.67969, 232.08984, 239.34961, 244.01953, 251.2793, 256.10156, " y="1067, ">
				pubconstrainturi
		</text>
		<rect fill="none" stroke="black" stroke-width="1" stroke-linecap="square" stroke-miterlimit="4" transform="translate(0.5 0.5)" x="156" y="1052" width="111" height="20"/>
		<rect fill="silver" x="160" y="1162" width="66" height="21"/>
		<rect fill="white" x="156" y="1158" width="66" height="21"/>
		<rect fill="white" x="161" y="1185" width="121" height="84"/>
		<text fill="gray" font-size="9" font-family="Segoe UI" x="161, 165.78125, 171.07227, 175.77881, 179.93604, 182.11572, 184.93262, 187.1123, 191.81885, 195.6377, 198.10303, 201.15283, 206.24609, 210.95264, 213.41797, 215.59766, 220.17676, 225.27002, 230.56982, 235.66309, 240.24219, 245.54199, 250.24854, 252.71387, 257.9873, 260.8042, 263.26953, 266.31934, 271.4126, 273.59229, " y="1195, ">
				Specifies the language of this
		</text>
		<text fill="gray" font-size="9" font-family="Segoe UI" x="161, 166.29102, 169.41992, 174.69336, 179.98438, 184.69092, 187.81982, 190.86963, 195.22461, 197.68994, 202.26904, 207.3623, 212.66211, 215.12744, 220.41846, 225.69189, 228.7417, 233.44824, 238.5415, 241.59131, 243.771, 248.3501, 250.52979, 252.70947, 257.06445, 259.52979, 264.10889, 266.28857, " y="1207, ">
				property and potentially all
		</text>
		<text fill="gray" font-size="9" font-family="Segoe UI" x="161, 166.2998, 171.00635, 174.8252, 178.98242, 183.68896, 188.78223, 194.08203, 198.66113, 203.75439, 206.8042, 209.26953, 214.56055, 217.68945, 222.96289, 228.25391, 232.96045, 236.08936, 239.13916, 241.31885, 246.02539, 249.84424, " y="1219, ">
				descendant properties.
		</text>
		<text fill="gray" font-size="9" font-family="Segoe UI" x="161, 165.13086, 172.88281, 175.0625, 177.01367, 179.19336, 183.77246, 188.86572, 194.16553, 196.63086, 200.94189, 205.521, 207.70068, 212.79395, 217.50049, 221.31934, 223.78467, 229.05811, 231.875, 234.34033, 239.64014, 244.34668, 248.16553, 252.32275, 257.0293, 262.12256, 267.42236, 272.00146, 277.09473, " y="1231, ">
				xml:lang values of descendant
		</text>
		<text fill="gray" font-size="9" font-family="Segoe UI" x="161, 166.29102, 169.41992, 174.69336, 179.98438, 184.69092, 187.81982, 190.86963, 193.04932, 197.75586, 201.57471, 204.04004, 209.31348, 213.62451, 218.33105, 221.45996, 224.58887, 226.76855, 232.06836, 236.7749, 239.24023, 242.29004, 247.3833, 249.56299, 253.38184, 255.84717, 260.1582, 264.7373, 266.91699, 272.01025, 276.7168, " y="1243, ">
				properties override this value.
		</text>
		<text fill="gray" font-size="9" font-family="Segoe UI" x="161, 165.93066, 170.50977, 172.68945, 177.78271, 182.48926, 186.30811, 188.77344, 193.35254, 196.48145, 201.18799, 203.65332, 208.95312, 213.65967, 216.70947, 221.41602, 224.54492, 232.29688, 234.47656, 239.56982, 244.27637, 249.57617, 252.0415, 257.33252, " y="1255, ">
				Values are determined by
		</text>
		<text fill="gray" font-size="9" font-family="Segoe UI" x="161, 163.39502, 168.48828, 171.53809, 176.24463, 179.37354, 184.4668, 189.17334, 192.22314, 194.68848, 199.84766, 205.41992, 210.46045, 212.92578, 217.77734, 222.62891, " y="1267, ">
				Internet BCP 47.
		</text>
		<rect fill="white" x="165" y="1160" width="50" height="16"/>
		<text font-size="12" font-weight="600" font-family="Segoe UI" x="165, 171.62695, 182.61914, 186.0293, 189.28125, 192.69141, 199.14844, 206.4082, " y="1173, ">
				xml:lang
		</text>
		<path fill="none" stroke="black" stroke-width="2" stroke-miterlimit="4" transform="translate(0.5 0.5)" d="M158 1176L162 1172"/>
		<path fill="none" stroke="black" stroke-width="1" stroke-linecap="square" stroke-miterlimit="4" transform="translate(0.5 0.5)" d="M159 1172L162 1172L162 1175"/>
		<rect fill="none" stroke="black" stroke-width="1" stroke-linecap="square" stroke-miterlimit="4" transform="translate(0.5 0.5)" x="156" y="1158" width="65" height="20"/>
		<rect fill="silver" x="160" y="1280" width="52" height="21"/>
		<rect fill="white" x="156" y="1276" width="52" height="21"/>
		<rect fill="white" x="161" y="1303" width="116" height="24"/>
		<text fill="gray" font-size="9" font-family="Segoe UI" x="161, 165.71533, 170.80859, 175.51514, 177.98047, 183.28027, 185.45996, 188.58887, 193.29541, 197.45264, 200.50244, 202.68213, 207.95557, 213.04883, 217.62793, 219.80762, 221.9873, 225.03711, 229.39209, 231.85742, 237.13086, 239.94775, 242.41309, 245.46289, 250.16943, 254.30029, 257.3501, 262.44336, 267.02246, " y="1313, ">
				The directionality of textual
		</text>
		<text fill="gray" font-size="9" font-family="Segoe UI" x="161, 165.15723, 170.43066, 175.52393, 178.57373, 183.28027, 188.37354, 191.42334, 193.88867, 196.60449, 201.31104, 206.4043, 211.49756, 219.24951, 223.95605, 227.08496, 231.66406, 234.71387, 236.89355, 242.16699, 247.26025, 249.21143, 251.67676, 253.85645, 256.90625, 260.03516, 261.98633, 264.45166, 267.58057, 270.63037, 272.81006, " y="1325, ">
				content (enumeration: ltr, rtl)
		</text>
		<rect fill="white" x="165" y="1278" width="36" height="16"/>
		<text font-size="12" font-weight="600" font-family="Segoe UI" x="165, 172.42969, 175.83984, " y="1291, ">
				dir
		</text>
		<rect fill="none" stroke="black" stroke-width="1" stroke-linecap="square" stroke-miterlimit="4" transform="translate(0.5 0.5)" x="156" y="1276" width="51" height="20"/>
		<path fill="silver" d="M160 1343L165 1338L233 1338L238 1343L238 1354L233 1359L165 1359L160 1354L160 1343Z"/>
		<path fill="white" d="M156 1339L161 1334L229 1334L234 1339L234 1350L229 1355L161 1355L156 1350L156 1339Z"/>
		<rect fill="white" x="183" y="1336" width="46" height="16"/>
		<text font-size="12" font-weight="600" font-family="Segoe UI" x="183, 190.10742, 197.21484, 204.55078, 209.2207, 216.44531, 222.9375, " y="1349, ">
				##other
		</text>
		<rect fill="white" x="161" y="1336" width="20" height="16"/>
		<text fill="gray" font-size="12" font-family="Segoe UI" x="161, 167.10547, 173.89648, " y="1349, ">
				any
		</text>
		<path fill="none" stroke="black" stroke-width="1" stroke-linecap="square" stroke-miterlimit="4" transform="translate(0.5 0.5)" d="M156 1339L161 1334L228 1334L233 1339L233 1349L228 1354L161 1354L156 1349L156 1339Z"/>
		<rect x="147" y="41" width="11" height="11"/>
		<rect fill="white" x="148" y="42" width="9" height="9"/>
		<rect x="149" y="46" width="7" height="1"/>
		<path transform="translate(0.5 0.5)" d="M187 1580.5L189 1580.5L189.5 1580.5L189.5 1581.5L189 1581.5L186.5 1581.5L186.5 1580.5L187 1580.5ZM193 1580.5L195.5 1580.5L195.5 1581.5L192.5 1581.5L192.5 1580.5L193 1580.5Z"/>
		<path transform="translate(0.5 0.5)" d="M195.5 1581L195.5 1579L195.5 1578.5L196.5 1578.5L196.5 1579L196.5 1581.5L195.5 1581.5L195.5 1581ZM195.5 1575L195.5 1573L195.5 1572.5L196.5 1572.5L196.5 1573L196.5 1575.5L195.5 1575.5L195.5 1575ZM195.5 1569L195.5 1567L195.5 1566.5L196.5 1566.5L196.5 1567L196.5 1569.5L195.5 1569.5L195.5 1569ZM195.5 1563L195.5 1561L195.5 1560.5L196.5 1560.5L196.5 1561L196.5 1563.5L195.5 1563.5L195.5 1563ZM195.5 1557L195.5 1555L195.5 1554.5L196.5 1554.5L196.5 1555L196.5 1557.5L195.5 1557.5L195.5 1557ZM195.5 1551L195.5 1549L195.5 1548.5L196.5 1548.5L196.5 1549L196.5 1551.5L195.5 1551.5L195.5 1551ZM195.5 1545L195.5 1543L195.5 1542.5L196.5 1542.5L196.5 1543L196.5 1545.5L195.5 1545.5L195.5 1545ZM195.5 1539L195.5 1537L195.5 1536.5L196.5 1536.5L196.5 1537L196.5 1539.5L195.5 1539.5L195.5 1539ZM195.5 1533L195.5 1531L195.5 1530.5L196.5 1530.5L196.5 1531L196.5 1533.5L195.5 1533.5L195.5 1533ZM195.5 1527L195.5 1525L195.5 1524.5L196.5 1524.5L196.5 1525L196.5 1527.5L195.5 1527.5L195.5 1527ZM195.5 1521L195.5 1519L195.5 1518.5L196.5 1518.5L196.5 1519L196.5 1521.5L195.5 1521.5L195.5 1521ZM195.5 1515L195.5 1513L195.5 1512.5L196.5 1512.5L196.5 1513L196.5 1515.5L195.5 1515.5L195.5 1515ZM195.5 1509L195.5 1507L195.5 1506.5L196.5 1506.5L196.5 1507L196.5 1509.5L195.5 1509.5L195.5 1509ZM195.5 1503L195.5 1501L195.5 1500.5L196.5 1500.5L196.5 1501L196.5 1503.5L195.5 1503.5L195.5 1503ZM195.5 1497L195.5 1495L195.5 1494.5L196.5 1494.5L196.5 1495L196.5 1497.5L195.5 1497.5L195.5 1497ZM195.5 1491L195.5 1489L195.5 1488.5L196.5 1488.5L196.5 1489L196.5 1491.5L195.5 1491.5L195.5 1491ZM195.5 1485L195.5 1483L195.5 1482.5L196.5 1482.5L196.5 1483L196.5 1485.5L195.5 1485.5L195.5 1485ZM195.5 1479L195.5 1477L195.5 1476.5L196.5 1476.5L196.5 1477L196.5 1479.5L195.5 1479.5L195.5 1479ZM195.5 1473L195.5 1471L195.5 1470.5L196.5 1470.5L196.5 1471L196.5 1473.5L195.5 1473.5L195.5 1473ZM195.5 1467L195.5 1465L195.5 1464.5L196.5 1464.5L196.5 1465L196.5 1467.5L195.5 1467.5L195.5 1467ZM195.5 1461L195.5 1459L195.5 1458.5L196.5 1458.5L196.5 1459L196.5 1461.5L195.5 1461.5L195.5 1461ZM195.5 1455L195.5 1453L195.5 1452.5L196.5 1452.5L196.5 1453L196.5 1455.5L195.5 1455.5L195.5 1455ZM195.5 1449L195.5 1447L195.5 1446.5L196.5 1446.5L196.5 1447L196.5 1449.5L195.5 1449.5L195.5 1449ZM195.5 1443L195.5 1441L195.5 1440.5L196.5 1440.5L196.5 1441L196.5 1443.5L195.5 1443.5L195.5 1443ZM195.5 1437L195.5 1435L195.5 1434.5L196.5 1434.5L196.5 1435L196.5 1437.5L195.5 1437.5L195.5 1437ZM195.5 1431L195.5 1429L195.5 1428.5L196.5 1428.5L196.5 1429L196.5 1431.5L195.5 1431.5L195.5 1431ZM195.5 1425L195.5 1423L195.5 1422.5L196.5 1422.5L196.5 1423L196.5 1425.5L195.5 1425.5L195.5 1425ZM195.5 1419L195.5 1417L195.5 1416.5L196.5 1416.5L196.5 1417L196.5 1419.5L195.5 1419.5L195.5 1419ZM195.5 1413L195.5 1411L195.5 1410.5L196.5 1410.5L196.5 1411L196.5 1413.5L195.5 1413.5L195.5 1413ZM195.5 1407L195.5 1405L195.5 1404.5L196.5 1404.5L196.5 1405L196.5 1407.5L195.5 1407.5L195.5 1407ZM195.5 1401L195.5 1399L195.5 1398.5L196.5 1398.5L196.5 1399L196.5 1401.5L195.5 1401.5L195.5 1401ZM195.5 1395L195.5 1392.5L196.5 1392.5L196.5 1395.5L195.5 1395.5L195.5 1395Z"/>
		<path transform="translate(0.5 0.5)" d="M196.5 1581L196.5 1583L196.5 1583.5L195.5 1583.5L195.5 1583L195.5 1580.5L196.5 1580.5L196.5 1581ZM196.5 1587L196.5 1589L196.5 1589.5L195.5 1589.5L195.5 1589L195.5 1586.5L196.5 1586.5L196.5 1587ZM196.5 1593L196.5 1595L196.5 1595.5L195.5 1595.5L195.5 1595L195.5 1592.5L196.5 1592.5L196.5 1593ZM196.5 1599L196.5 1601L196.5 1601.5L195.5 1601.5L195.5 1601L195.5 1598.5L196.5 1598.5L196.5 1599ZM196.5 1605L196.5 1607L196.5 1607.5L195.5 1607.5L195.5 1607L195.5 1604.5L196.5 1604.5L196.5 1605ZM196.5 1611L196.5 1613L196.5 1613.5L195.5 1613.5L195.5 1613L195.5 1610.5L196.5 1610.5L196.5 1611ZM196.5 1617L196.5 1619L196.5 1619.5L195.5 1619.5L195.5 1619L195.5 1616.5L196.5 1616.5L196.5 1617ZM196.5 1623L196.5 1625L196.5 1625.5L195.5 1625.5L195.5 1625L195.5 1622.5L196.5 1622.5L196.5 1623ZM196.5 1629L196.5 1631L196.5 1631.5L195.5 1631.5L195.5 1631L195.5 1628.5L196.5 1628.5L196.5 1629ZM196.5 1635L196.5 1637L196.5 1637.5L195.5 1637.5L195.5 1637L195.5 1634.5L196.5 1634.5L196.5 1635ZM196.5 1641L196.5 1643L196.5 1643.5L195.5 1643.5L195.5 1643L195.5 1640.5L196.5 1640.5L196.5 1641ZM196.5 1647L196.5 1649L196.5 1649.5L195.5 1649.5L195.5 1649L195.5 1646.5L196.5 1646.5L196.5 1647ZM196.5 1653L196.5 1655L196.5 1655.5L195.5 1655.5L195.5 1655L195.5 1652.5L196.5 1652.5L196.5 1653ZM196.5 1659L196.5 1661L196.5 1661.5L195.5 1661.5L195.5 1661L195.5 1658.5L196.5 1658.5L196.5 1659ZM196.5 1665L196.5 1667L196.5 1667.5L195.5 1667.5L195.5 1667L195.5 1664.5L196.5 1664.5L196.5 1665ZM196.5 1671L196.5 1673L196.5 1673.5L195.5 1673.5L195.5 1673L195.5 1670.5L196.5 1670.5L196.5 1671ZM196.5 1677L196.5 1679L196.5 1679.5L195.5 1679.5L195.5 1679L195.5 1676.5L196.5 1676.5L196.5 1677ZM196.5 1683L196.5 1685L196.5 1685.5L195.5 1685.5L195.5 1685L195.5 1682.5L196.5 1682.5L196.5 1683ZM196.5 1689L196.5 1691L196.5 1691.5L195.5 1691.5L195.5 1691L195.5 1688.5L196.5 1688.5L196.5 1689ZM196.5 1695L196.5 1697L196.5 1697.5L195.5 1697.5L195.5 1697L195.5 1694.5L196.5 1694.5L196.5 1695ZM196.5 1701L196.5 1703L196.5 1703.5L195.5 1703.5L195.5 1703L195.5 1700.5L196.5 1700.5L196.5 1701ZM196.5 1707L196.5 1709L196.5 1709.5L195.5 1709.5L195.5 1709L195.5 1706.5L196.5 1706.5L196.5 1707ZM196.5 1713L196.5 1715L196.5 1715.5L195.5 1715.5L195.5 1715L195.5 1712.5L196.5 1712.5L196.5 1713ZM196.5 1719L196.5 1721L196.5 1721.5L195.5 1721.5L195.5 1721L195.5 1718.5L196.5 1718.5L196.5 1719ZM196.5 1725L196.5 1727L196.5 1727.5L195.5 1727.5L195.5 1727L195.5 1724.5L196.5 1724.5L196.5 1725ZM196.5 1731L196.5 1733L196.5 1733.5L195.5 1733.5L195.5 1733L195.5 1730.5L196.5 1730.5L196.5 1731ZM196.5 1737L196.5 1739L196.5 1739.5L195.5 1739.5L195.5 1739L195.5 1736.5L196.5 1736.5L196.5 1737ZM196.5 1743L196.5 1745L196.5 1745.5L195.5 1745.5L195.5 1745L195.5 1742.5L196.5 1742.5L196.5 1743ZM196.5 1749L196.5 1751L196.5 1751.5L195.5 1751.5L195.5 1751L195.5 1748.5L196.5 1748.5L196.5 1749ZM196.5 1755L196.5 1757L196.5 1757.5L195.5 1757.5L195.5 1757L195.5 1754.5L196.5 1754.5L196.5 1755ZM196.5 1761L196.5 1763L196.5 1763.5L195.5 1763.5L195.5 1763L195.5 1760.5L196.5 1760.5L196.5 1761ZM196.5 1767L196.5 1769L196.5 1769.5L195.5 1769.5L195.5 1769L195.5 1766.5L196.5 1766.5L196.5 1767ZM196.5 1773L196.5 1774.5L195.5 1774.5L195.5 1772.5L196.5 1772.5L196.5 1773Z"/>
		<path transform="translate(0.5 0.5)" d="M196 1387.5L198 1387.5L198.5 1387.5L198.5 1388.5L198 1388.5L195.5 1388.5L195.5 1387.5L196 1387.5ZM202 1387.5L204 1387.5L204.5 1387.5L204.5 1388.5L204 1388.5L201.5 1388.5L201.5 1387.5L202 1387.5ZM208 1387.5L210.5 1387.5L210.5 1388.5L207.5 1388.5L207.5 1387.5L208 1387.5Z"/>
		<path transform="translate(0.5 0.5)" d="M196 1462.5L198 1462.5L198.5 1462.5L198.5 1463.5L198 1463.5L195.5 1463.5L195.5 1462.5L196 1462.5ZM202 1462.5L204 1462.5L204.5 1462.5L204.5 1463.5L204 1463.5L201.5 1463.5L201.5 1462.5L202 1462.5ZM208 1462.5L210.5 1462.5L210.5 1463.5L207.5 1463.5L207.5 1462.5L208 1462.5Z"/>
		<path transform="translate(0.5 0.5)" d="M196 1624.5L198 1624.5L198.5 1624.5L198.5 1625.5L198 1625.5L195.5 1625.5L195.5 1624.5L196 1624.5ZM202 1624.5L204 1624.5L204.5 1624.5L204.5 1625.5L204 1625.5L201.5 1625.5L201.5 1624.5L202 1624.5ZM208 1624.5L210.5 1624.5L210.5 1625.5L207.5 1625.5L207.5 1624.5L208 1624.5Z"/>
		<path transform="translate(0.5 0.5)" d="M196 1774.5L198 1774.5L198.5 1774.5L198.5 1775.5L198 1775.5L195.5 1775.5L195.5 1774.5L196 1774.5ZM202 1774.5L204 1774.5L204.5 1774.5L204.5 1775.5L204 1775.5L201.5 1775.5L201.5 1774.5L202 1774.5ZM208 1774.5L210.5 1774.5L210.5 1775.5L207.5 1775.5L207.5 1774.5L208 1774.5Z"/>
		<path fill="silver" d="M146 1580L151 1575L176 1575L181 1580L181 1591L176 1596L151 1596L146 1591L146 1580Z"/>
		<path fill="white" d="M142 1576L147 1571L172 1571L177 1576L177 1587L172 1592L147 1592L142 1587L142 1576Z"/>
		<path fill="none" stroke="black" stroke-width="1" stroke-linecap="square" stroke-miterlimit="4" transform="translate(0.5 0.5)" d="M147 1581L171 1581"/>
		<rect x="153" y="1580" width="3" height="3"/>
		<rect x="158" y="1580" width="3" height="3"/>
		<rect x="163" y="1580" width="3" height="3"/>
		<path fill="none" stroke="black" stroke-width="1" stroke-linecap="square" stroke-miterlimit="4" transform="translate(0.5 0.5)" d="M142 1576L147 1571L171 1571L176 1576L176 1586L171 1591L147 1591L142 1586L142 1576Z"/>
		<rect fill="silver" x="215" y="1382" width="110" height="21"/>
		<rect fill="white" x="211" y="1378" width="110" height="21"/>
		<rect fill="#FFFFC0" x="216" y="1405" width="114" height="36"/>
		<text fill="gray" font-size="9" font-family="Segoe UI" x="216, 220.71533, 225.80859, 230.51514, 232.98047, 238.28027, 242.85938, 245.90918, 250.61572, 253.08105, 255.79688, 260.37598, 265.46924, 270.76904, 273.23438, 278.50781, 283.79883, 286.84863, 289.02832, 294.30176, 299.39502, 303.97412, 306.15381, 308.3335, 312.68848, 315.15381, 318.20361, 323.29688, " y="1415, ">
				The date (and optionally the
		</text>
		<text fill="gray" font-size="9" font-family="Segoe UI" x="216, 219.0498, 221.22949, 228.98145, 233.68799, 236.40381, 238.86914, 244.14258, 249.23584, 251.70117, 258.20508, 263.29834, 265.47803, 269.63525, 274.72852, 277.19385, 280.24365, 285.33691, 290.04346, 292.50879, 296.66602, 301.93945, 307.03271, 310.08252, 314.78906, 319.88232, " y="1427, ">
				time) on which the content
		</text>
		<text fill="gray" font-size="9" font-family="Segoe UI" x="216, 222.50391, 227.08301, 230.90186, 233.36719, 237.52441, 240.65332, 245.35986, 249.93896, 252.98877, 257.69531, 262.99512, " y="1439, ">
				was created.
		</text>
		<rect fill="white" x="220" y="1380" width="89" height="16"/>
		<text font-size="12" font-weight="600" font-family="Segoe UI" x="220, 225.75977, 233.0957, 240.35547, 244.97852, 251.4707, 258.73047, 263.40039, 270.88867, 275.61719, 282.10938, 288.56641, 293.18945, 299.68164, " y="1393, ">
				contentCreated
		</text>
		<path fill="none" stroke="black" stroke-width="1" stroke-linecap="square" stroke-miterlimit="4" transform="translate(0.5 0.5)" d="M213 1380L218 1380"/>
		<path fill="none" stroke="black" stroke-width="1" stroke-linecap="square" stroke-miterlimit="4" transform="translate(0.5 0.5)" d="M213 1382L217 1382"/>
		<path fill="none" stroke="black" stroke-width="1" stroke-linecap="square" stroke-miterlimit="4" transform="translate(0.5 0.5)" d="M213 1384L217 1384"/>
		<path fill="none" stroke="black" stroke-width="2" stroke-miterlimit="4" transform="translate(0.5 0.5)" d="M213 1396L217 1392"/>
		<path fill="none" stroke="black" stroke-width="1" stroke-linecap="square" stroke-miterlimit="4" transform="translate(0.5 0.5)" d="M214 1392L217 1392L217 1395"/>
		<rect fill="none" stroke="black" stroke-width="1" stroke-linecap="square" stroke-miterlimit="4" transform="translate(0.5 0.5)" x="211" y="1378" width="109" height="20"/>
		<rect x="315" y="1383" width="11" height="11"/>
		<rect fill="white" x="316" y="1384" width="9" height="9"/>
		<rect x="317" y="1388" width="7" height="1"/>
		<rect x="320" y="1385" width="1" height="7"/>
		<rect fill="silver" x="215" y="1457" width="117" height="21"/>
		<rect fill="white" x="211" y="1453" width="117" height="21"/>
		<rect fill="#FFFFC0" x="216" y="1480" width="114" height="36"/>
		<text fill="gray" font-size="9" font-family="Segoe UI" x="216, 220.71533, 225.80859, 230.51514, 232.98047, 238.28027, 242.85938, 245.90918, 250.61572, 253.08105, 255.79688, 260.37598, 265.46924, 270.76904, 273.23438, 278.50781, 283.79883, 286.84863, 289.02832, 294.30176, 299.39502, 303.97412, 306.15381, 308.3335, 312.68848, 315.15381, 318.20361, 323.29688, " y="1490, ">
				The date (and optionally the
		</text>
		<text fill="gray" font-size="9" font-family="Segoe UI" x="216, 219.0498, 221.22949, 228.98145, 233.68799, 236.40381, 238.86914, 244.14258, 249.23584, 251.70117, 258.20508, 263.29834, 265.47803, 269.63525, 274.72852, 277.19385, 280.24365, 285.33691, 290.04346, 292.50879, 296.66602, 301.93945, 307.03271, 310.08252, 314.78906, 319.88232, " y="1502, ">
				time) on which the content
		</text>
		<text fill="gray" font-size="9" font-family="Segoe UI" x="216, 222.50391, 227.08301, 230.90186, 233.36719, 235.54688, 240.12598, 243.94482, 246.99463, 249.45996, 257.21191, 262.48535, 267.78516, 269.96484, 272.78174, 274.96143, 279.66797, 284.96777, " y="1514, ">
				was last modified.
		</text>
		<rect fill="white" x="220" y="1455" width="96" height="16"/>
		<text font-size="12" font-weight="600" font-family="Segoe UI" x="220, 225.75977, 233.0957, 240.35547, 244.97852, 251.4707, 258.73047, 263.40039, 274.88477, 282.2207, 289.65039, 293.06055, 297.66016, 301.07031, 307.5625, " y="1468, ">
				contentModified
		</text>
		<path fill="none" stroke="black" stroke-width="1" stroke-linecap="square" stroke-miterlimit="4" transform="translate(0.5 0.5)" d="M213 1455L218 1455"/>
		<path fill="none" stroke="black" stroke-width="1" stroke-linecap="square" stroke-miterlimit="4" transform="translate(0.5 0.5)" d="M213 1457L217 1457"/>
		<path fill="none" stroke="black" stroke-width="1" stroke-linecap="square" stroke-miterlimit="4" transform="translate(0.5 0.5)" d="M213 1459L217 1459"/>
		<path fill="none" stroke="black" stroke-width="2" stroke-miterlimit="4" transform="translate(0.5 0.5)" d="M213 1471L217 1467"/>
		<path fill="none" stroke="black" stroke-width="1" stroke-linecap="square" stroke-miterlimit="4" transform="translate(0.5 0.5)" d="M214 1467L217 1467L217 1470"/>
		<rect fill="none" stroke="black" stroke-width="1" stroke-linecap="square" stroke-miterlimit="4" transform="translate(0.5 0.5)" x="211" y="1453" width="116" height="20"/>
		<rect x="322" y="1458" width="11" height="11"/>
		<rect fill="white" x="323" y="1459" width="9" height="9"/>
		<rect x="324" y="1463" width="7" height="1"/>
		<rect x="327" y="1460" width="1" height="7"/>
		<path fill="none" stroke="black" stroke-width="1" stroke-linecap="square" stroke-miterlimit="4" transform="translate(0.5 0.5)" d="M256 1625L264 1625"/>
		<path fill="none" stroke="black" stroke-width="1" stroke-linecap="square" stroke-miterlimit="4" transform="translate(0.5 0.5)" d="M265 1625L265 1539"/>
		<path fill="none" stroke="black" stroke-width="1" stroke-linecap="square" stroke-miterlimit="4" transform="translate(0.5 0.5)" d="M265 1625L265 1711"/>
		<path fill="none" stroke="black" stroke-width="1" stroke-linecap="square" stroke-miterlimit="4" transform="translate(0.5 0.5)" d="M265 1538L279 1538"/>
		<path fill="none" stroke="black" stroke-width="1" stroke-linecap="square" stroke-miterlimit="4" transform="translate(0.5 0.5)" d="M265 1613L279 1613"/>
		<path fill="none" stroke="black" stroke-width="1" stroke-linecap="square" stroke-miterlimit="4" transform="translate(0.5 0.5)" d="M265 1712L279 1712"/>
		<path fill="silver" d="M218 1627L223 1622L248 1622L253 1627L253 1638L248 1643L223 1643L218 1638L218 1627Z"/>
		<path fill="white" d="M214 1623L219 1618L243 1618L248 1623L248 1633L243 1638L219 1638L214 1633L214 1623Z"/>
		<path transform="translate(0.5 0.5)" d="M217.889 1618.4L218.793 1617.5L219.929 1617.5L220.429 1617.5L220.429 1618.5L219.929 1618.5L219 1618.5L219 1618L219.354 1618.35L218.243 1619.46L217.536 1618.76L217.889 1618.4ZM223.929 1617.5L225.929 1617.5L226.429 1617.5L226.429 1618.5L225.929 1618.5L223.429 1618.5L223.429 1617.5L223.929 1617.5ZM229.929 1617.5L231.929 1617.5L232.429 1617.5L232.429 1618.5L231.929 1618.5L229.429 1618.5L229.429 1617.5L229.929 1617.5ZM235.929 1617.5L237.929 1617.5L238.429 1617.5L238.429 1618.5L237.929 1618.5L235.429 1618.5L235.429 1617.5L235.929 1617.5ZM241.929 1617.5L243.207 1617.5L244.01 1618.3L244.364 1618.66L243.657 1619.36L243.303 1619.01L242.646 1618.35L243 1618L243 1618.5L241.429 1618.5L241.429 1617.5L241.929 1617.5ZM246.839 1621.13L248.253 1622.55L248.607 1622.9L247.899 1623.61L247.546 1623.25L245.778 1621.49L246.485 1620.78L246.839 1621.13ZM248.5 1626.86L248.5 1628.86L248.5 1629.36L247.5 1629.36L247.5 1628.86L247.5 1626.36L248.5 1626.36L248.5 1626.86ZM248.5 1632.86L248.5 1633.21L247.04 1634.67L246.686 1635.02L245.979 1634.31L246.333 1633.96L247.646 1632.65L248 1633L247.5 1633L247.5 1632.36L248.5 1632.36L248.5 1632.86ZM244.211 1637.5L243.207 1638.5L242.213 1638.5L241.713 1638.5L241.713 1637.5L242.213 1637.5L243 1637.5L243 1638L242.646 1637.65L243.858 1636.44L244.565 1637.14L244.211 1637.5ZM238.213 1638.5L236.213 1638.5L235.713 1638.5L235.713 1637.5L236.213 1637.5L238.713 1637.5L238.713 1638.5L238.213 1638.5ZM232.213 1638.5L230.213 1638.5L229.713 1638.5L229.713 1637.5L230.213 1637.5L232.713 1637.5L232.713 1638.5L232.213 1638.5ZM226.213 1638.5L224.213 1638.5L223.713 1638.5L223.713 1637.5L224.213 1637.5L226.713 1637.5L226.713 1638.5L226.213 1638.5ZM220.213 1638.5L218.793 1638.5L218.09 1637.8L217.737 1637.44L218.444 1636.74L218.797 1637.09L219.354 1637.65L219 1638L219 1637.5L220.713 1637.5L220.713 1638.5L220.213 1638.5ZM215.262 1634.97L213.847 1633.55L213.494 1633.2L214.201 1632.49L214.555 1632.85L216.322 1634.62L215.615 1635.32L215.262 1634.97ZM213.5 1629.28L213.5 1627.28L213.5 1626.78L214.5 1626.78L214.5 1627.28L214.5 1629.78L213.5 1629.78L213.5 1629.28ZM213.5 1623.28L213.5 1622.79L215.414 1620.88L216.121 1621.59L214.354 1623.35L214 1623L214.5 1623L214.5 1623.78L213.5 1623.78L213.5 1623.28Z"/>
		<path fill="white" d="M211 1620L216 1615L241 1615L246 1620L246 1631L241 1636L216 1636L211 1631L211 1620Z"/>
		<path fill="none" stroke="black" stroke-width="1" stroke-linecap="square" stroke-miterlimit="4" transform="translate(0.5 0.5)" d="M230 1636L236 1642L239 1639"/>
		<path fill="none" stroke="black" stroke-width="1" stroke-linecap="square" stroke-miterlimit="4" transform="translate(0.5 0.5)" d="M216 1625L221 1625L225 1621"/>
		<path fill="none" stroke="black" stroke-width="1" stroke-linecap="square" stroke-miterlimit="4" transform="translate(0.5 0.5)" d="M231 1625L239 1625"/>
		<path fill="none" stroke="black" stroke-width="1" stroke-linecap="square" stroke-miterlimit="4" transform="translate(0.5 0.5)" d="M231 1621L235 1621L235 1629L231 1629"/>
		<rect x="227" y="1620" width="3" height="3"/>
		<rect x="227" y="1624" width="3" height="3"/>
		<rect x="227" y="1628" width="3" height="3"/>
		<text font-size="12" font-family="Segoe UI" x="215.76562, " y="1655, ">
				0
		</text>
		<text font-size="12" font-family="Symbol" x="230.72266, " y="1654, ">
				
		</text>
		<text font-size="12" font-family="Segoe UI" x="223.89844, 226.5, " y="1655, ">
				..
		</text>
		<path transform="translate(0.5 0.5)" d="M214.889 1615.4L215.793 1614.5L216.929 1614.5L217.429 1614.5L217.429 1615.5L216.929 1615.5L216 1615.5L216 1615L216.354 1615.35L215.243 1616.46L214.536 1615.76L214.889 1615.4ZM220.929 1614.5L222.929 1614.5L223.429 1614.5L223.429 1615.5L222.929 1615.5L220.429 1615.5L220.429 1614.5L220.929 1614.5ZM226.929 1614.5L228.929 1614.5L229.429 1614.5L229.429 1615.5L228.929 1615.5L226.429 1615.5L226.429 1614.5L226.929 1614.5ZM232.929 1614.5L234.929 1614.5L235.429 1614.5L235.429 1615.5L234.929 1615.5L232.429 1615.5L232.429 1614.5L232.929 1614.5ZM238.929 1614.5L240.207 1614.5L241.01 1615.3L241.364 1615.66L240.657 1616.36L240.303 1616.01L239.646 1615.35L240 1615L240 1615.5L238.429 1615.5L238.429 1614.5L238.929 1614.5ZM243.839 1618.13L245.253 1619.55L245.607 1619.9L244.899 1620.61L244.546 1620.25L242.778 1618.49L243.485 1617.78L243.839 1618.13ZM245.5 1623.86L245.5 1625.86L245.5 1626.36L244.5 1626.36L244.5 1625.86L244.5 1623.36L245.5 1623.36L245.5 1623.86ZM245.5 1629.86L245.5 1630.21L244.04 1631.67L243.686 1632.02L242.979 1631.31L243.333 1630.96L244.646 1629.65L245 1630L244.5 1630L244.5 1629.36L245.5 1629.36L245.5 1629.86ZM241.211 1634.5L240.207 1635.5L239.213 1635.5L238.713 1635.5L238.713 1634.5L239.213 1634.5L240 1634.5L240 1635L239.646 1634.65L240.858 1633.44L241.565 1634.14L241.211 1634.5ZM235.213 1635.5L233.213 1635.5L232.713 1635.5L232.713 1634.5L233.213 1634.5L235.713 1634.5L235.713 1635.5L235.213 1635.5ZM229.213 1635.5L227.213 1635.5L226.713 1635.5L226.713 1634.5L227.213 1634.5L229.713 1634.5L229.713 1635.5L229.213 1635.5ZM223.213 1635.5L221.213 1635.5L220.713 1635.5L220.713 1634.5L221.213 1634.5L223.713 1634.5L223.713 1635.5L223.213 1635.5ZM217.213 1635.5L215.793 1635.5L215.09 1634.8L214.737 1634.44L215.444 1633.74L215.797 1634.09L216.354 1634.65L216 1635L216 1634.5L217.713 1634.5L217.713 1635.5L217.213 1635.5ZM212.262 1631.97L210.847 1630.55L210.494 1630.2L211.201 1629.49L211.555 1629.85L213.322 1631.62L212.615 1632.32L212.262 1631.97ZM210.5 1626.28L210.5 1624.28L210.5 1623.78L211.5 1623.78L211.5 1624.28L211.5 1626.78L210.5 1626.78L210.5 1626.28ZM210.5 1620.28L210.5 1619.79L212.414 1617.88L213.121 1618.59L211.354 1620.35L211 1620L211.5 1620L211.5 1620.78L210.5 1620.78L210.5 1620.28Z"/>
		<rect fill="silver" x="284" y="1532" width="63" height="21"/>
		<rect fill="white" x="280" y="1528" width="63" height="21"/>
		<rect fill="#FFFFC0" x="285" y="1555" width="111" height="36"/>
		<text fill="gray" font-size="9" font-family="Segoe UI" x="285, 290.80518, 293.27051, 298.56152, 303.14062, 306.26953, 309.31934, 313.67432, 316.13965, 318.85547, 324.14648, 328.85303, 331.98193, 335.80078, 341.07422, 346.16748, 348.63281, 353.90625, " y="1565, ">
				A party (person or
		</text>
		<text fill="gray" font-size="9" font-family="Segoe UI" x="285, 290.27344, 293.40234, 298.70215, 303.28125, 308.37451, 310.5542, 314.37305, 318.95215, 322.00195, 324.18164, 329.45508, 334.54834, 337.26416, 339.72949, 346.2334, 351.32666, 353.50635, 357.66357, 362.75684, 365.22217, 369.37939, 372.5083, 377.21484, 381.79395, 384.84375, 389.55029, " y="1577, ">
				organisation) which created
		</text>
		<text fill="gray" font-size="9" font-family="Segoe UI" x="285, 288.0498, 293.14307, 297.84961, 300.31494, 303.44385, 308.15039, 311.96924, 317.24268, 322.33594, 325.46484, 329.62207, 334.32861, " y="1589, ">
				the resource.
		</text>
		<rect fill="white" x="289" y="1530" width="42" height="16"/>
		<text font-size="12" font-weight="600" font-family="Segoe UI" x="289, 294.75977, 299.48828, 305.98047, 312.4375, 317.06055, 324.39648, " y="1543, ">
				creator
		</text>
		<path fill="none" stroke="black" stroke-width="2" stroke-miterlimit="4" transform="translate(0.5 0.5)" d="M282 1546L286 1542"/>
		<path fill="none" stroke="black" stroke-width="1" stroke-linecap="square" stroke-miterlimit="4" transform="translate(0.5 0.5)" d="M283 1542L286 1542L286 1545"/>
		<rect fill="none" stroke="black" stroke-width="1" stroke-linecap="square" stroke-miterlimit="4" transform="translate(0.5 0.5)" x="280" y="1528" width="62" height="20"/>
		<rect x="337" y="1533" width="11" height="11"/>
		<rect fill="white" x="338" y="1534" width="9" height="9"/>
		<rect x="339" y="1538" width="7" height="1"/>
		<rect x="342" y="1535" width="1" height="7"/>
		<rect fill="silver" x="284" y="1607" width="87" height="21"/>
		<rect fill="white" x="280" y="1603" width="87" height="21"/>
		<rect fill="#FFFFC0" x="285" y="1630" width="117" height="60"/>
		<text fill="gray" font-size="9" font-family="Segoe UI" x="285, 290.80518, 293.27051, 298.56152, 303.14062, 306.26953, 309.31934, 313.67432, 316.13965, 318.85547, 324.14648, 328.85303, 331.98193, 335.80078, 341.07422, 346.16748, 348.63281, 353.90625, " y="1640, ">
				A party (person or
		</text>
		<text fill="gray" font-size="9" font-family="Segoe UI" x="285, 290.27344, 293.40234, 298.70215, 303.28125, 308.37451, 310.5542, 314.37305, 318.95215, 322.00195, 324.18164, 329.45508, 334.54834, 337.26416, 339.72949, 346.2334, 351.32666, 353.50635, 357.66357, 362.75684, 365.22217, 372.97412, 378.24756, 383.54736, 385.72705, 388.54395, 390.72363, 395.43018, " y="1652, ">
				organisation) which modified
		</text>
		<text fill="gray" font-size="9" font-family="Segoe UI" x="285, 290.27344, 293.40234, 295.86768, 300.57422, 305.66748, 310.76074, 315.33984, 320.43311, 324.59033, 329.29688, 334.59668, 337.06201, 340.11182, 345.20508, 349.91162, 352.37695, 356.53418, 361.80762, 366.90088, 369.95068, 374.65723, 379.75049, 382.80029, " y="1664, ">
				or enhanced the content,
		</text>
		<text fill="gray" font-size="9" font-family="Segoe UI" x="285, 290.29102, 293.41992, 298.12646, 300.94336, 305.6499, 308.77881, 313.35791, 318.64893, 320.82861, 325.18359, 327.64893, 330.69873, 335.79199, 340.49854, 342.96387, 348.05713, 352.63623, 360.38818, 365.09473, 367.56006, 372.8335, 375.65039, 378.11572, " y="1676, ">
				preferably the name of a
		</text>
		<text fill="gray" font-size="9" font-family="Segoe UI" x="285, 290.29102, 294.99756, 298.12646, 301.94531, 307.21875, 312.31201, " y="1688, ">
				person.
		</text>
		<rect fill="white" x="289" y="1605" width="66" height="16"/>
		<text font-size="12" font-weight="600" font-family="Segoe UI" x="289, 294.75977, 302.0957, 309.35547, 314.02539, 318.84766, 322.25781, 329.69922, 336.95898, 341.58203, 348.91797, " y="1618, ">
				contributor
		</text>
		<path fill="none" stroke="black" stroke-width="2" stroke-miterlimit="4" transform="translate(0.5 0.5)" d="M282 1621L286 1617"/>
		<path fill="none" stroke="black" stroke-width="1" stroke-linecap="square" stroke-miterlimit="4" transform="translate(0.5 0.5)" d="M283 1617L286 1617L286 1620"/>
		<rect fill="none" stroke="black" stroke-width="1" stroke-linecap="square" stroke-miterlimit="4" transform="translate(0.5 0.5)" x="280" y="1603" width="86" height="20"/>
		<rect x="361" y="1608" width="11" height="11"/>
		<rect fill="white" x="362" y="1609" width="9" height="9"/>
		<rect x="363" y="1613" width="7" height="1"/>
		<rect x="366" y="1610" width="1" height="7"/>
		<rect fill="silver" x="284" y="1706" width="52" height="21"/>
		<rect fill="white" x="280" y="1702" width="52" height="21"/>
		<rect fill="#FFFFC0" x="285" y="1729" width="97" height="24"/>
		<text fill="gray" font-size="9" font-family="Segoe UI" x="285, 290.80518, 295.89844, 298.36377, 302.94287, 305.12256, 308.17236, 312.87891, 316.00781, 321.10107, 325.68018, 328.72998, 330.90967, 335.2207, 339.92725, 342.39258, 344.57227, 349.87207, 354.57861, 359.67188, 362.72168, 364.90137, 367.71826, 369.89795, 374.60449, " y="1739, ">
				An alternative identifier
		</text>
		<text fill="gray" font-size="9" font-family="Segoe UI" x="285, 289.5791, 293.39795, 297.2168, 299.39648, 304.69629, 309.78955, 314.49609, 319.7959, 322.26123, 325.31104, 330.58447, 333.0498, 336.09961, 341.19287, 345.89941, 348.36475, 352.52197, 357.79541, 362.88867, 365.93848, 370.64502, 375.73828, 378.78809, " y="1751, ">
				assigned to the content.
		</text>
		<rect fill="white" x="289" y="1704" width="31" height="16"/>
		<text font-size="12" font-weight="600" font-family="Segoe UI" x="289, 295.45703, 298.86719, 303.53711, 307.33984, " y="1717, ">
				altId
		</text>
		<path fill="none" stroke="black" stroke-width="1" stroke-linecap="square" stroke-miterlimit="4" transform="translate(0.5 0.5)" d="M282 1704L287 1704"/>
		<path fill="none" stroke="black" stroke-width="1" stroke-linecap="square" stroke-miterlimit="4" transform="translate(0.5 0.5)" d="M282 1706L286 1706"/>
		<path fill="none" stroke="black" stroke-width="1" stroke-linecap="square" stroke-miterlimit="4" transform="translate(0.5 0.5)" d="M282 1708L286 1708"/>
		<path fill="none" stroke="black" stroke-width="2" stroke-miterlimit="4" transform="translate(0.5 0.5)" d="M282 1720L286 1716"/>
		<path fill="none" stroke="black" stroke-width="1" stroke-linecap="square" stroke-miterlimit="4" transform="translate(0.5 0.5)" d="M283 1716L286 1716L286 1719"/>
		<rect fill="none" stroke="black" stroke-width="1" stroke-linecap="square" stroke-miterlimit="4" transform="translate(0.5 0.5)" x="280" y="1702" width="51" height="20"/>
		<rect x="326" y="1707" width="11" height="11"/>
		<rect fill="white" x="327" y="1708" width="9" height="9"/>
		<rect x="328" y="1712" width="7" height="1"/>
		<rect x="331" y="1709" width="1" height="7"/>
		<rect x="245" y="1620" width="11" height="11"/>
		<rect fill="white" x="246" y="1621" width="9" height="9"/>
		<rect x="247" y="1625" width="7" height="1"/>
		<path fill="silver" d="M218 1777L223 1772L291 1772L296 1777L296 1788L291 1793L223 1793L218 1788L218 1777Z"/>
		<path fill="white" d="M214 1773L219 1768L286 1768L291 1773L291 1783L286 1788L219 1788L214 1783L214 1773Z"/>
		<path transform="translate(0.5 0.5)" d="M217.889 1768.4L218.793 1767.5L219.929 1767.5L220.429 1767.5L220.429 1768.5L219.929 1768.5L219 1768.5L219 1768L219.354 1768.35L218.243 1769.46L217.536 1768.76L217.889 1768.4ZM223.929 1767.5L225.929 1767.5L226.429 1767.5L226.429 1768.5L225.929 1768.5L223.429 1768.5L223.429 1767.5L223.929 1767.5ZM229.929 1767.5L231.929 1767.5L232.429 1767.5L232.429 1768.5L231.929 1768.5L229.429 1768.5L229.429 1767.5L229.929 1767.5ZM235.929 1767.5L237.929 1767.5L238.429 1767.5L238.429 1768.5L237.929 1768.5L235.429 1768.5L235.429 1767.5L235.929 1767.5ZM241.929 1767.5L243.929 1767.5L244.429 1767.5L244.429 1768.5L243.929 1768.5L241.429 1768.5L241.429 1767.5L241.929 1767.5ZM247.929 1767.5L249.929 1767.5L250.429 1767.5L250.429 1768.5L249.929 1768.5L247.429 1768.5L247.429 1767.5L247.929 1767.5ZM253.929 1767.5L255.929 1767.5L256.429 1767.5L256.429 1768.5L255.929 1768.5L253.429 1768.5L253.429 1767.5L253.929 1767.5ZM259.929 1767.5L261.929 1767.5L262.429 1767.5L262.429 1768.5L261.929 1768.5L259.429 1768.5L259.429 1767.5L259.929 1767.5ZM265.929 1767.5L267.929 1767.5L268.429 1767.5L268.429 1768.5L267.929 1768.5L265.429 1768.5L265.429 1767.5L265.929 1767.5ZM271.929 1767.5L273.929 1767.5L274.429 1767.5L274.429 1768.5L273.929 1768.5L271.429 1768.5L271.429 1767.5L271.929 1767.5ZM277.929 1767.5L279.929 1767.5L280.429 1767.5L280.429 1768.5L279.929 1768.5L277.429 1768.5L277.429 1767.5L277.929 1767.5ZM283.929 1767.5L285.929 1767.5L286.429 1767.5L286.429 1768.5L285.929 1768.5L283.429 1768.5L283.429 1767.5L283.929 1767.5ZM289.132 1770.42L290.546 1771.84L290.899 1772.19L290.192 1772.9L289.839 1772.55L288.071 1770.78L288.778 1770.07L289.132 1770.42ZM291.5 1775.86L291.5 1777.86L291.5 1778.36L290.5 1778.36L290.5 1777.86L290.5 1775.36L291.5 1775.36L291.5 1775.86ZM291.5 1781.86L291.5 1783.21L290.747 1783.96L290.393 1784.31L289.686 1783.61L290.04 1783.25L290.646 1782.65L291 1783L290.5 1783L290.5 1781.36L291.5 1781.36L291.5 1781.86ZM287.919 1786.79L286.504 1788.2L286.151 1788.56L285.444 1787.85L285.797 1787.5L287.565 1785.73L288.272 1786.44L287.919 1786.79ZM282.213 1788.5L280.213 1788.5L279.713 1788.5L279.713 1787.5L280.213 1787.5L282.713 1787.5L282.713 1788.5L282.213 1788.5ZM276.213 1788.5L274.213 1788.5L273.713 1788.5L273.713 1787.5L274.213 1787.5L276.713 1787.5L276.713 1788.5L276.213 1788.5ZM270.213 1788.5L268.213 1788.5L267.713 1788.5L267.713 1787.5L268.213 1787.5L270.713 1787.5L270.713 1788.5L270.213 1788.5ZM264.213 1788.5L262.213 1788.5L261.713 1788.5L261.713 1787.5L262.213 1787.5L264.713 1787.5L264.713 1788.5L264.213 1788.5ZM258.213 1788.5L256.213 1788.5L255.713 1788.5L255.713 1787.5L256.213 1787.5L258.713 1787.5L258.713 1788.5L258.213 1788.5ZM252.213 1788.5L250.213 1788.5L249.713 1788.5L249.713 1787.5L250.213 1787.5L252.713 1787.5L252.713 1788.5L252.213 1788.5ZM246.213 1788.5L244.213 1788.5L243.713 1788.5L243.713 1787.5L244.213 1787.5L246.713 1787.5L246.713 1788.5L246.213 1788.5ZM240.213 1788.5L238.213 1788.5L237.713 1788.5L237.713 1787.5L238.213 1787.5L240.713 1787.5L240.713 1788.5L240.213 1788.5ZM234.213 1788.5L232.213 1788.5L231.713 1788.5L231.713 1787.5L232.213 1787.5L234.713 1787.5L234.713 1788.5L234.213 1788.5ZM228.213 1788.5L226.213 1788.5L225.713 1788.5L225.713 1787.5L226.213 1787.5L228.713 1787.5L228.713 1788.5L228.213 1788.5ZM222.213 1788.5L220.213 1788.5L219.713 1788.5L219.713 1787.5L220.213 1787.5L222.713 1787.5L222.713 1788.5L222.213 1788.5ZM216.676 1786.38L215.262 1784.97L214.908 1784.62L215.615 1783.91L215.969 1784.26L217.737 1786.03L217.029 1786.74L216.676 1786.38ZM213.5 1781.28L213.5 1779.28L213.5 1778.78L214.5 1778.78L214.5 1779.28L214.5 1781.78L213.5 1781.78L213.5 1781.28ZM213.5 1775.28L213.5 1773.28L213.5 1772.78L214.5 1772.78L214.5 1773.28L214.5 1775.78L213.5 1775.78L213.5 1775.28ZM213.646 1772.65L215.414 1770.88L216.121 1771.59L214 1773.71L213.293 1773L213.646 1772.65Z"/>
		<path fill="white" d="M211 1770L216 1765L284 1765L289 1770L289 1781L284 1786L216 1786L211 1781L211 1770Z"/>
		<path fill="none" stroke="black" stroke-width="1" stroke-linecap="square" stroke-miterlimit="4" transform="translate(0.5 0.5)" d="M273 1786L279 1792L282 1789"/>
		<rect fill="#FFFFC0" x="216" y="1811" width="120" height="36"/>
		<text fill="gray" font-size="9" font-family="Segoe UI" x="216, 220.55273, 224.68359, 227.7334, 232.43994, 237.5332, 241.35205, 243.53174, 248.80518, 253.89844, 256.36377, 261.65479, 266.92822, 269.10791, 274.20117, 277.25098, 279.71631, 282.5332, 287.80664, 290.93555, 293.40088, 298.69189, 301.8208, 307.09424, 311.40527, 313.58496, 318.88477, 323.59131, 326.72021, " y="1821, ">
				Extension point for provider-
		</text>
		<text fill="gray" font-size="9" font-family="Segoe UI" x="216, 221.2998, 226.00635, 228.82324, 231.00293, 236.09619, 240.80273, 246.10254, 248.56787, 253.85889, 256.98779, 262.26123, 267.55225, 272.25879, 275.3877, 278.4375, 280.61719, 285.32373, 289.14258, 291.60791, 294.4248, 297.55371, 302.82715, 310.5791, 313.04443, 318.31787, 321.36768, 326.46094, 331.16748, " y="1833, ">
				defined properties from other
		</text>
		<text fill="gray" font-size="9" font-family="Segoe UI" x="216, 221.09326, 225.67236, 233.42432, 238.13086, 241.94971, 247.24072, 251.81982, 255.97705, 260.68359, " y="1845, ">
				namespaces
		</text>
		<rect fill="white" x="238" y="1767" width="46" height="16"/>
		<text font-size="12" font-weight="600" font-family="Segoe UI" x="238, 245.10742, 252.21484, 259.55078, 264.2207, 271.44531, 277.9375, " y="1780, ">
				##other
		</text>
		<rect fill="white" x="216" y="1767" width="20" height="16"/>
		<text fill="gray" font-size="12" font-family="Segoe UI" x="216, 222.10547, 228.89648, " y="1780, ">
				any
		</text>
		<text font-size="12" font-family="Segoe UI" x="258.76562, " y="1805, ">
				0
		</text>
		<text font-size="12" font-family="Symbol" x="273.72266, " y="1804, ">
				
		</text>
		<text font-size="12" font-family="Segoe UI" x="266.89844, 269.5, " y="1805, ">
				..
		</text>
		<path transform="translate(0.5 0.5)" d="M214.889 1765.4L215.793 1764.5L216.929 1764.5L217.429 1764.5L217.429 1765.5L216.929 1765.5L216 1765.5L216 1765L216.354 1765.35L215.243 1766.46L214.536 1765.76L214.889 1765.4ZM220.929 1764.5L222.929 1764.5L223.429 1764.5L223.429 1765.5L222.929 1765.5L220.429 1765.5L220.429 1764.5L220.929 1764.5ZM226.929 1764.5L228.929 1764.5L229.429 1764.5L229.429 1765.5L228.929 1765.5L226.429 1765.5L226.429 1764.5L226.929 1764.5ZM232.929 1764.5L234.929 1764.5L235.429 1764.5L235.429 1765.5L234.929 1765.5L232.429 1765.5L232.429 1764.5L232.929 1764.5ZM238.929 1764.5L240.929 1764.5L241.429 1764.5L241.429 1765.5L240.929 1765.5L238.429 1765.5L238.429 1764.5L238.929 1764.5ZM244.929 1764.5L246.929 1764.5L247.429 1764.5L247.429 1765.5L246.929 1765.5L244.429 1765.5L244.429 1764.5L244.929 1764.5ZM250.929 1764.5L252.929 1764.5L253.429 1764.5L253.429 1765.5L252.929 1765.5L250.429 1765.5L250.429 1764.5L250.929 1764.5ZM256.929 1764.5L258.929 1764.5L259.429 1764.5L259.429 1765.5L258.929 1765.5L256.429 1765.5L256.429 1764.5L256.929 1764.5ZM262.929 1764.5L264.929 1764.5L265.429 1764.5L265.429 1765.5L264.929 1765.5L262.429 1765.5L262.429 1764.5L262.929 1764.5ZM268.929 1764.5L270.929 1764.5L271.429 1764.5L271.429 1765.5L270.929 1765.5L268.429 1765.5L268.429 1764.5L268.929 1764.5ZM274.929 1764.5L276.929 1764.5L277.429 1764.5L277.429 1765.5L276.929 1765.5L274.429 1765.5L274.429 1764.5L274.929 1764.5ZM280.929 1764.5L282.929 1764.5L283.429 1764.5L283.429 1765.5L282.929 1765.5L280.429 1765.5L280.429 1764.5L280.929 1764.5ZM286.132 1767.42L287.546 1768.84L287.899 1769.19L287.192 1769.9L286.839 1769.55L285.071 1767.78L285.778 1767.07L286.132 1767.42ZM288.5 1772.86L288.5 1774.86L288.5 1775.36L287.5 1775.36L287.5 1774.86L287.5 1772.36L288.5 1772.36L288.5 1772.86ZM288.5 1778.86L288.5 1780.21L287.747 1780.96L287.393 1781.31L286.686 1780.61L287.04 1780.25L287.646 1779.65L288 1780L287.5 1780L287.5 1778.36L288.5 1778.36L288.5 1778.86ZM284.919 1783.79L283.504 1785.2L283.151 1785.56L282.444 1784.85L282.797 1784.5L284.565 1782.73L285.272 1783.44L284.919 1783.79ZM279.213 1785.5L277.213 1785.5L276.713 1785.5L276.713 1784.5L277.213 1784.5L279.713 1784.5L279.713 1785.5L279.213 1785.5ZM273.213 1785.5L271.213 1785.5L270.713 1785.5L270.713 1784.5L271.213 1784.5L273.713 1784.5L273.713 1785.5L273.213 1785.5ZM267.213 1785.5L265.213 1785.5L264.713 1785.5L264.713 1784.5L265.213 1784.5L267.713 1784.5L267.713 1785.5L267.213 1785.5ZM261.213 1785.5L259.213 1785.5L258.713 1785.5L258.713 1784.5L259.213 1784.5L261.713 1784.5L261.713 1785.5L261.213 1785.5ZM255.213 1785.5L253.213 1785.5L252.713 1785.5L252.713 1784.5L253.213 1784.5L255.713 1784.5L255.713 1785.5L255.213 1785.5ZM249.213 1785.5L247.213 1785.5L246.713 1785.5L246.713 1784.5L247.213 1784.5L249.713 1784.5L249.713 1785.5L249.213 1785.5ZM243.213 1785.5L241.213 1785.5L240.713 1785.5L240.713 1784.5L241.213 1784.5L243.713 1784.5L243.713 1785.5L243.213 1785.5ZM237.213 1785.5L235.213 1785.5L234.713 1785.5L234.713 1784.5L235.213 1784.5L237.713 1784.5L237.713 1785.5L237.213 1785.5ZM231.213 1785.5L229.213 1785.5L228.713 1785.5L228.713 1784.5L229.213 1784.5L231.713 1784.5L231.713 1785.5L231.213 1785.5ZM225.213 1785.5L223.213 1785.5L222.713 1785.5L222.713 1784.5L223.213 1784.5L225.713 1784.5L225.713 1785.5L225.213 1785.5ZM219.213 1785.5L217.213 1785.5L216.713 1785.5L216.713 1784.5L217.213 1784.5L219.713 1784.5L219.713 1785.5L219.213 1785.5ZM213.676 1783.38L212.262 1781.97L211.908 1781.62L212.615 1780.91L212.969 1781.26L214.737 1783.03L214.029 1783.74L213.676 1783.38ZM210.5 1778.28L210.5 1776.28L210.5 1775.78L211.5 1775.78L211.5 1776.28L211.5 1778.78L210.5 1778.78L210.5 1778.28ZM210.5 1772.28L210.5 1770.28L210.5 1769.78L211.5 1769.78L211.5 1770.28L211.5 1772.78L210.5 1772.78L210.5 1772.28ZM210.646 1769.65L212.414 1767.88L213.121 1768.59L211 1770.71L210.293 1770L210.646 1769.65Z"/>
		<rect x="176" y="1576" width="11" height="11"/>
		<rect fill="white" x="177" y="1577" width="9" height="9"/>
		<rect x="178" y="1581" width="7" height="1"/>
		<rect x="89" y="1136" width="11" height="11"/>
		<rect fill="white" x="90" y="1137" width="9" height="9"/>
		<rect x="91" y="1141" width="7" height="1"/>
	</g>
</svg>
