<?xml version="1.0" encoding="utf-8" ?>
<svg xmlns="http://www.w3.org/2000/svg" xmlns:xlink="http://www.w3.org/1999/xlink" width="467" height="1206">
	<clipPath id="cl_4">
		<rect x="-10" y="-5" width="467" height="1206"/>
	</clipPath>
	<g clip-path="url(#cl_4)">
		<rect fill="#FFFFC0" x="130" width="317" height="1070"/>
		<rect fill="none" stroke="gray" stroke-width="1" stroke-linecap="square" stroke-miterlimit="4" transform="translate(0.5 0.5)" x="130" width="316" height="1069"/>
		<path fill="none" stroke="black" stroke-width="1" stroke-linecap="square" stroke-miterlimit="4" transform="translate(0.5 0.5)" d="M95 555L142 555"/>
		<path fill="none" stroke="black" stroke-width="1" stroke-linecap="square" stroke-miterlimit="4" transform="translate(0.5 0.5)" d="M143 555L143 306"/>
		<path fill="none" stroke="black" stroke-width="1" stroke-linecap="square" stroke-miterlimit="4" transform="translate(0.5 0.5)" d="M143 555L143 1122"/>
		<path fill="none" stroke="black" stroke-width="1" stroke-linecap="square" stroke-miterlimit="4" transform="translate(0.5 0.5)" d="M143 806L157 806"/>
		<path fill="none" stroke="black" stroke-width="1" stroke-linecap="square" stroke-miterlimit="4" transform="translate(0.5 0.5)" d="M143 1123L157 1123"/>
		<path fill="none" stroke="black" stroke-width="1" stroke-linecap="square" stroke-miterlimit="4" transform="translate(0.5 0.5)" d="M143 305L157 305"/>
		<rect fill="silver" x="4" y="549" width="90" height="21"/>
		<rect fill="white" y="545" width="90" height="21"/>
		<rect fill="#FFFFC0" x="138" y="8" width="76" height="16"/>
		<text fill="gray" font-size="12" font-weight="600" font-family="Segoe UI" x="138, 146.4375, 153.69727, 160.1543, 163.95703, 168.58008, 175.07227, 186.06445, 192.55664, 199.01367, 206.45508, " y="21, ">
				AnyItemType
		</text>
		<rect fill="white" x="5" y="572" width="110" height="36"/>
		<text fill="gray" font-size="9" font-family="Segoe UI" x="5, 10.805176, 15.898438, 18.36377, 20.758789, 23.808594, 28.515137, 36.26709, 38.732422, 42.889648, 48.163086, 53.256348, 56.306152, 60.885254, 63.064941, 68.158203, 70.337891, 75.431152, 80.730957, 83.196289, 87.775391, 90.240723, 94.05957, 96.239258, 101.33252, 106.63232, 108.81201, " y="582, ">
				An Item containing a single
		</text>
		<text fill="gray" font-size="9" font-family="Segoe UI" x="5, 12.751953, 17.331055, 22.424316, 27.003418, 32.303223, 37.009766, 42.30957, 44.774902, 51.507324, 56.213867, 62.717773, 66.536621, 74.618164, 78.854492, 82.453613, 88.62793, " y="594, ">
				managed NewsML-G2
		</text>
		<text fill="gray" font-size="9" font-family="Segoe UI" x="5, 9.1572266, 13.736328, 16.786133, 21.365234, 23.544922, 28.818359, " y="606, ">
				catalog
		</text>
		<rect fill="white" x="9" y="547" width="69" height="16"/>
		<text font-size="12" font-weight="600" font-family="Segoe UI" x="9, 14.759766, 21.216797, 25.886719, 32.34375, 35.753906, 43.089844, 50.519531, 54.322266, 58.945312, 65.4375, " y="560, ">
				catalogItem
		</text>
		<rect fill="#FFFFC0" x="218" y="8" width="59" height="16"/>
		<text fill="gray" font-size="12" font-family="Segoe UI" x="218, 221.62109, 227.89648, 233.4043, 237.4707, 243.74609, 250.53711, 255.62891, 258.53516, 265.56641, 272.35742, " y="21, ">
				(extension)
		</text>
		<rect fill="none" stroke="black" stroke-width="1" stroke-linecap="square" stroke-miterlimit="4" transform="translate(0.5 0.5)" y="545" width="89" height="20"/>
		<path fill="white" d="M235 55L235 36L158 36L158 55L158 573L305 573L305 55L235 55Z"/>
		<rect fill="white" x="178" y="38" width="51" height="16"/>
		<text font-size="12" font-style="italic" font-family="Segoe UI" x="178, 184.50391, 188.38281, 192.26172, 196.5332, 199.63867, 206.14258, 212.83984, 216.73047, 222.57227, " y="51, ">
				attributes
		</text>
		<path fill="none" stroke="black" stroke-width="1" stroke-linecap="square" stroke-miterlimit="4" transform="translate(0.5 0.5)" d="M235 55L235 36L158 36L158 55L158 573L305 573L305 55L235 55Z"/>
		<rect fill="silver" x="176" y="68" width="67" height="21"/>
		<rect fill="white" x="172" y="64" width="67" height="21"/>
		<rect fill="white" x="177" y="91" width="118" height="24"/>
		<text fill="gray" font-size="9" font-family="Segoe UI" x="177, 181.71533, 186.80859, 191.51514, 193.98047, 196.37549, 201.41602, 205.71387, 211.28613, 213.75146, 217.57031, 220.62012, 225.19922, 230.29248, 235.59229, 240.17139, 243.30029, 248.6001, 251.06543, 257.56934, 259.74902, 262.79883, 267.89209, 270.35742, 276.86133, 281.95459, 284.13428, 288.2915, " y="101, ">
				The IPTC standard with which
		</text>
		<text fill="gray" font-size="9" font-family="Segoe UI" x="177, 180.0498, 185.14307, 189.84961, 192.31494, 194.70996, 197.75977, 202.46631, 210.21826, 212.68359, 214.86328, 218.68213, 221.14746, 225.30469, 230.57812, 235.67139, 238.48828, 243.76172, 246.89062, 254.64258, 259.22168, 264.31494, 267.36475, " y="113, ">
				the Item is conformant.
		</text>
		<rect fill="white" x="181" y="66" width="51" height="16"/>
		<text font-size="12" font-weight="600" font-family="Segoe UI" x="181, 186.2793, 190.94922, 197.40625, 204.66602, 212.0957, 218.55273, 223.28125, " y="79, ">
				standard
		</text>
		<rect fill="none" stroke="black" stroke-width="1" stroke-linecap="square" stroke-miterlimit="4" transform="translate(0.5 0.5)" x="172" y="64" width="66" height="20"/>
		<rect fill="silver" x="176" y="126" width="108" height="21"/>
		<rect fill="white" x="172" y="122" width="108" height="21"/>
		<rect fill="white" x="177" y="149" width="116" height="36"/>
		<text fill="gray" font-size="9" font-family="Segoe UI" x="177, 181.71533, 186.80859, 191.51514, 193.98047, 201.73242, 206.31152, 208.49121, 213.76465, 216.89355, 220.49268, 228.24463, 230.42432, 235.51758, 240.79102, 243.91992, 246.38525, 250.69629, 255.40283, 258.53174, 262.35059, 264.53027, 269.80371, 274.89697, 277.3623, 282.63574, " y="159, ">
				The major-minor version of
		</text>
		<text fill="gray" font-size="9" font-family="Segoe UI" x="177, 180.0498, 185.14307, 189.84961, 192.31494, 194.70996, 199.75049, 204.04834, 209.62061, 212.08594, 215.90479, 218.95459, 223.53369, 228.62695, 233.92676, 238.50586, 241.63477, 246.93457, 249.3999, 255.90381, 258.0835, 261.1333, 266.22656, 268.69189, 275.1958, 280.28906, 282.46875, 286.62598, " y="171, ">
				the IPTC standard with which
		</text>
		<text fill="gray" font-size="9" font-family="Segoe UI" x="177, 180.0498, 185.14307, 189.84961, 192.31494, 194.70996, 197.75977, 202.46631, 210.21826, 212.68359, 214.86328, 218.68213, 221.14746, 225.30469, 230.57812, 235.67139, 238.48828, 243.76172, 246.89062, 254.64258, 259.22168, 264.31494, 267.36475, " y="183, ">
				the Item is conformant.
		</text>
		<rect fill="white" x="181" y="124" width="92" height="16"/>
		<text font-size="12" font-weight="600" font-family="Segoe UI" x="181, 186.2793, 190.94922, 197.40625, 204.66602, 212.0957, 218.55273, 223.28125, 230.71094, 237.09766, 243.58984, 248.43555, 253.71484, 257.125, 264.46094, " y="137, ">
				standardversion
		</text>
		<rect fill="none" stroke="black" stroke-width="1" stroke-linecap="square" stroke-miterlimit="4" transform="translate(0.5 0.5)" x="172" y="122" width="107" height="20"/>
		<rect fill="silver" x="176" y="196" width="92" height="21"/>
		<rect fill="white" x="172" y="192" width="92" height="21"/>
		<rect fill="white" x="177" y="219" width="119" height="24"/>
		<text fill="gray" font-size="9" font-family="Segoe UI" x="177, 181.71533, 186.80859, 191.51514, 193.98047, 198.1377, 203.41113, 208.50439, 211.32129, 216.59473, 219.72363, 227.47559, 232.05469, 237.14795, 241.30518, 246.01172, 248.47705, 250.65674, 255.36328, 259.67432, 264.38086, 266.56055, 269.02588, 275.52979, 277.70947, 280.75928, " y="229, ">
				The conformance level with
		</text>
		<text fill="gray" font-size="9" font-family="Segoe UI" x="177, 183.50391, 188.59717, 190.77686, 194.93408, 200.02734, 202.49268, 205.54248, 210.63574, 215.34229, 217.80762, 220.20264, 223.25244, 227.95898, 235.71094, 238.17627, 240.35596, 244.1748, 246.64014, 250.79736, 256.0708, 261.16406, 263.98096, 269.25439, 272.3833, 280.13525, 284.71436, 289.80762, 292.85742, " y="241, ">
				which the Item is conformant.
		</text>
		<rect fill="white" x="181" y="194" width="76" height="16"/>
		<text font-size="12" font-weight="600" font-family="Segoe UI" x="181, 186.75977, 194.0957, 201.35547, 205.95508, 213.29102, 218.10156, 229.09375, 235.55078, 242.81055, 248.57031, " y="207, ">
				conformance
		</text>
		<rect fill="none" stroke="black" stroke-width="1" stroke-linecap="square" stroke-miterlimit="4" transform="translate(0.5 0.5)" x="172" y="192" width="91" height="20"/>
		<rect fill="silver" x="176" y="254" width="52" height="21"/>
		<rect fill="white" x="172" y="250" width="52" height="21"/>
		<rect fill="white" x="177" y="277" width="118" height="36"/>
		<text fill="gray" font-size="9" font-family="Segoe UI" x="177, 181.71533, 186.80859, 191.51514, 193.98047, 199.27148, 203.97803, 207.10693, 210.92578, 213.10547, 216.92432, 219.97412, 224.68066, 229.77393, 232.82373, 234.7749, 237.24023, 242.3335, 247.42676, 249.60645, 253.91748, 258.62402, 261.75293, 265.57178, 270.15088, 272.33057, 274.51025, " y="287, ">
				The persistent, universally
		</text>
		<text fill="gray" font-size="9" font-family="Segoe UI" x="177, 182.09326, 187.18652, 189.36621, 194.66602, 199.75928, 204.46582, 206.93115, 209.11084, 214.41064, 219.11719, 224.21045, 227.26025, 229.43994, 232.25684, 234.43652, 239.14307, 242.27197, 244.7373, 248.89453, 254.16797, 261.91992, 269.67188, 274.94531, 280.03857, 282.50391, 285.3208, 290.59424, " y="299, ">
				unique identifier common for
		</text>
		<text fill="gray" font-size="9" font-family="Segoe UI" x="177, 181.5791, 183.75879, 185.93848, 188.40381, 192.71484, 197.42139, 200.55029, 204.36914, 206.54883, 211.82227, 216.91553, 220.73438, 223.19971, 228.47314, 231.29004, 233.75537, 236.80518, 241.89844, 246.60498, 249.07031, 251.46533, 254.51514, 259.22168, 266.97363, " y="311, ">
				all versions of the Item.
		</text>
		<rect fill="white" x="181" y="252" width="36" height="16"/>
		<text font-size="12" font-weight="600" font-family="Segoe UI" x="181, 188.42969, 195.68945, 199.09961, " y="265, ">
				guid
		</text>
		<rect fill="none" stroke="black" stroke-width="1" stroke-linecap="square" stroke-miterlimit="4" transform="translate(0.5 0.5)" x="172" y="250" width="51" height="20"/>
		<rect fill="silver" x="176" y="324" width="59" height="21"/>
		<rect fill="white" x="172" y="320" width="59" height="21"/>
		<rect fill="white" x="177" y="347" width="95" height="12"/>
		<text fill="gray" font-size="9" font-family="Segoe UI" x="177, 181.71533, 186.80859, 191.51514, 193.98047, 198.2915, 202.99805, 206.12695, 209.9458, 212.12549, 217.39893, 222.49219, 224.95752, 230.23096, 233.04785, 235.51318, 238.56299, 243.65625, 248.36279, 250.82812, 253.22314, 256.27295, 260.97949, 268.73145, " y="357, ">
				The version of the Item.
		</text>
		<rect fill="white" x="181" y="322" width="43" height="16"/>
		<text font-size="12" font-weight="600" font-family="Segoe UI" x="181, 187.38672, 193.87891, 198.72461, 204.00391, 207.41406, 214.75, " y="335, ">
				version
		</text>
		<rect fill="none" stroke="black" stroke-width="1" stroke-linecap="square" stroke-miterlimit="4" transform="translate(0.5 0.5)" x="172" y="320" width="58" height="20"/>
		<rect fill="silver" x="176" y="370" width="66" height="21"/>
		<rect fill="white" x="172" y="366" width="66" height="21"/>
		<rect fill="white" x="177" y="393" width="121" height="84"/>
		<text fill="gray" font-size="9" font-family="Segoe UI" x="177, 181.78125, 187.07227, 191.77881, 195.93604, 198.11572, 200.93262, 203.1123, 207.81885, 211.6377, 214.10303, 217.15283, 222.24609, 226.95264, 229.41797, 231.59766, 236.17676, 241.27002, 246.56982, 251.66309, 256.24219, 261.54199, 266.24854, 268.71387, 273.9873, 276.8042, 279.26953, 282.31934, 287.4126, 289.59229, " y="403, ">
				Specifies the language of this
		</text>
		<text fill="gray" font-size="9" font-family="Segoe UI" x="177, 182.29102, 185.41992, 190.69336, 195.98438, 200.69092, 203.81982, 206.86963, 211.22461, 213.68994, 218.26904, 223.3623, 228.66211, 231.12744, 236.41846, 241.69189, 244.7417, 249.44824, 254.5415, 257.59131, 259.771, 264.3501, 266.52979, 268.70947, 273.06445, 275.52979, 280.10889, 282.28857, " y="415, ">
				property and potentially all
		</text>
		<text fill="gray" font-size="9" font-family="Segoe UI" x="177, 182.2998, 187.00635, 190.8252, 194.98242, 199.68896, 204.78223, 210.08203, 214.66113, 219.75439, 222.8042, 225.26953, 230.56055, 233.68945, 238.96289, 244.25391, 248.96045, 252.08936, 255.13916, 257.31885, 262.02539, 265.84424, " y="427, ">
				descendant properties.
		</text>
		<text fill="gray" font-size="9" font-family="Segoe UI" x="177, 181.13086, 188.88281, 191.0625, 193.01367, 195.19336, 199.77246, 204.86572, 210.16553, 212.63086, 216.94189, 221.521, 223.70068, 228.79395, 233.50049, 237.31934, 239.78467, 245.05811, 247.875, 250.34033, 255.64014, 260.34668, 264.16553, 268.32275, 273.0293, 278.12256, 283.42236, 288.00146, 293.09473, " y="439, ">
				xml:lang values of descendant
		</text>
		<text fill="gray" font-size="9" font-family="Segoe UI" x="177, 182.29102, 185.41992, 190.69336, 195.98438, 200.69092, 203.81982, 206.86963, 209.04932, 213.75586, 217.57471, 220.04004, 225.31348, 229.62451, 234.33105, 237.45996, 240.58887, 242.76855, 248.06836, 252.7749, 255.24023, 258.29004, 263.3833, 265.56299, 269.38184, 271.84717, 276.1582, 280.7373, 282.91699, 288.01025, 292.7168, " y="451, ">
				properties override this value.
		</text>
		<text fill="gray" font-size="9" font-family="Segoe UI" x="177, 181.93066, 186.50977, 188.68945, 193.78271, 198.48926, 202.30811, 204.77344, 209.35254, 212.48145, 217.18799, 219.65332, 224.95312, 229.65967, 232.70947, 237.41602, 240.54492, 248.29688, 250.47656, 255.56982, 260.27637, 265.57617, 268.0415, 273.33252, " y="463, ">
				Values are determined by
		</text>
		<text fill="gray" font-size="9" font-family="Segoe UI" x="177, 179.39502, 184.48828, 187.53809, 192.24463, 195.37354, 200.4668, 205.17334, 208.22314, 210.68848, 215.84766, 221.41992, 226.46045, 228.92578, 233.77734, 238.62891, " y="475, ">
				Internet BCP 47.
		</text>
		<rect fill="white" x="181" y="368" width="50" height="16"/>
		<text font-size="12" font-weight="600" font-family="Segoe UI" x="181, 187.62695, 198.61914, 202.0293, 205.28125, 208.69141, 215.14844, 222.4082, " y="381, ">
				xml:lang
		</text>
		<path fill="none" stroke="black" stroke-width="2" stroke-miterlimit="4" transform="translate(0.5 0.5)" d="M174 384L178 380"/>
		<path fill="none" stroke="black" stroke-width="1" stroke-linecap="square" stroke-miterlimit="4" transform="translate(0.5 0.5)" d="M175 380L178 380L178 383"/>
		<rect fill="none" stroke="black" stroke-width="1" stroke-linecap="square" stroke-miterlimit="4" transform="translate(0.5 0.5)" x="172" y="366" width="65" height="20"/>
		<rect fill="silver" x="176" y="488" width="52" height="21"/>
		<rect fill="white" x="172" y="484" width="52" height="21"/>
		<rect fill="white" x="177" y="511" width="116" height="24"/>
		<text fill="gray" font-size="9" font-family="Segoe UI" x="177, 181.71533, 186.80859, 191.51514, 193.98047, 199.28027, 201.45996, 204.58887, 209.29541, 213.45264, 216.50244, 218.68213, 223.95557, 229.04883, 233.62793, 235.80762, 237.9873, 241.03711, 245.39209, 247.85742, 253.13086, 255.94775, 258.41309, 261.46289, 266.16943, 270.30029, 273.3501, 278.44336, 283.02246, " y="521, ">
				The directionality of textual
		</text>
		<text fill="gray" font-size="9" font-family="Segoe UI" x="177, 181.15723, 186.43066, 191.52393, 194.57373, 199.28027, 204.37354, 207.42334, 209.88867, 212.60449, 217.31104, 222.4043, 227.49756, 235.24951, 239.95605, 243.08496, 247.66406, 250.71387, 252.89355, 258.16699, 263.26025, 265.21143, 267.67676, 269.85645, 272.90625, 276.03516, 277.98633, 280.45166, 283.58057, 286.63037, 288.81006, " y="533, ">
				content (enumeration: ltr, rtl)
		</text>
		<rect fill="white" x="181" y="486" width="36" height="16"/>
		<text font-size="12" font-weight="600" font-family="Segoe UI" x="181, 188.42969, 191.83984, " y="499, ">
				dir
		</text>
		<rect fill="none" stroke="black" stroke-width="1" stroke-linecap="square" stroke-miterlimit="4" transform="translate(0.5 0.5)" x="172" y="484" width="51" height="20"/>
		<path fill="silver" d="M176 551L181 546L249 546L254 551L254 562L249 567L181 567L176 562L176 551Z"/>
		<path fill="white" d="M172 547L177 542L245 542L250 547L250 558L245 563L177 563L172 558L172 547Z"/>
		<rect fill="white" x="199" y="544" width="46" height="16"/>
		<text font-size="12" font-weight="600" font-family="Segoe UI" x="199, 206.10742, 213.21484, 220.55078, 225.2207, 232.44531, 238.9375, " y="557, ">
				##other
		</text>
		<rect fill="white" x="177" y="544" width="20" height="16"/>
		<text fill="gray" font-size="12" font-family="Segoe UI" x="177, 183.10547, 189.89648, " y="557, ">
				any
		</text>
		<path fill="none" stroke="black" stroke-width="1" stroke-linecap="square" stroke-miterlimit="4" transform="translate(0.5 0.5)" d="M172 547L177 542L244 542L249 547L249 557L244 562L177 562L172 557L172 547Z"/>
		<rect x="163" y="41" width="11" height="11"/>
		<rect fill="white" x="164" y="42" width="9" height="9"/>
		<rect x="165" y="46" width="7" height="1"/>
		<path fill="none" stroke="black" stroke-width="1" stroke-linecap="square" stroke-miterlimit="4" transform="translate(0.5 0.5)" d="M203 806L211 806"/>
		<path transform="translate(0.5 0.5)" d="M211.5 806L211.5 804L211.5 803.5L212.5 803.5L212.5 804L212.5 806.5L211.5 806.5L211.5 806ZM211.5 800L211.5 798L211.5 797.5L212.5 797.5L212.5 798L212.5 800.5L211.5 800.5L211.5 800ZM211.5 794L211.5 792L211.5 791.5L212.5 791.5L212.5 792L212.5 794.5L211.5 794.5L211.5 794ZM211.5 788L211.5 786L211.5 785.5L212.5 785.5L212.5 786L212.5 788.5L211.5 788.5L211.5 788ZM211.5 782L211.5 780L211.5 779.5L212.5 779.5L212.5 780L212.5 782.5L211.5 782.5L211.5 782ZM211.5 776L211.5 774L211.5 773.5L212.5 773.5L212.5 774L212.5 776.5L211.5 776.5L211.5 776ZM211.5 770L211.5 768L211.5 767.5L212.5 767.5L212.5 768L212.5 770.5L211.5 770.5L211.5 770ZM211.5 764L211.5 762L211.5 761.5L212.5 761.5L212.5 762L212.5 764.5L211.5 764.5L211.5 764ZM211.5 758L211.5 756L211.5 755.5L212.5 755.5L212.5 756L212.5 758.5L211.5 758.5L211.5 758ZM211.5 752L211.5 750L211.5 749.5L212.5 749.5L212.5 750L212.5 752.5L211.5 752.5L211.5 752ZM211.5 746L211.5 744L211.5 743.5L212.5 743.5L212.5 744L212.5 746.5L211.5 746.5L211.5 746ZM211.5 740L211.5 738L211.5 737.5L212.5 737.5L212.5 738L212.5 740.5L211.5 740.5L211.5 740ZM211.5 734L211.5 732L211.5 731.5L212.5 731.5L212.5 732L212.5 734.5L211.5 734.5L211.5 734ZM211.5 728L211.5 726L211.5 725.5L212.5 725.5L212.5 726L212.5 728.5L211.5 728.5L211.5 728ZM211.5 722L211.5 720L211.5 719.5L212.5 719.5L212.5 720L212.5 722.5L211.5 722.5L211.5 722ZM211.5 716L211.5 714L211.5 713.5L212.5 713.5L212.5 714L212.5 716.5L211.5 716.5L211.5 716ZM211.5 710L211.5 708L211.5 707.5L212.5 707.5L212.5 708L212.5 710.5L211.5 710.5L211.5 710ZM211.5 704L211.5 702L211.5 701.5L212.5 701.5L212.5 702L212.5 704.5L211.5 704.5L211.5 704ZM211.5 698L211.5 696L211.5 695.5L212.5 695.5L212.5 696L212.5 698.5L211.5 698.5L211.5 698ZM211.5 692L211.5 690L211.5 689.5L212.5 689.5L212.5 690L212.5 692.5L211.5 692.5L211.5 692ZM211.5 686L211.5 684L211.5 683.5L212.5 683.5L212.5 684L212.5 686.5L211.5 686.5L211.5 686ZM211.5 680L211.5 678L211.5 677.5L212.5 677.5L212.5 678L212.5 680.5L211.5 680.5L211.5 680ZM211.5 674L211.5 672L211.5 671.5L212.5 671.5L212.5 672L212.5 674.5L211.5 674.5L211.5 674ZM211.5 668L211.5 666L211.5 665.5L212.5 665.5L212.5 666L212.5 668.5L211.5 668.5L211.5 668ZM211.5 662L211.5 660L211.5 659.5L212.5 659.5L212.5 660L212.5 662.5L211.5 662.5L211.5 662ZM211.5 656L211.5 654L211.5 653.5L212.5 653.5L212.5 654L212.5 656.5L211.5 656.5L211.5 656ZM211.5 650L211.5 648L211.5 647.5L212.5 647.5L212.5 648L212.5 650.5L211.5 650.5L211.5 650ZM211.5 644L211.5 642L211.5 641.5L212.5 641.5L212.5 642L212.5 644.5L211.5 644.5L211.5 644ZM211.5 638L211.5 636L211.5 635.5L212.5 635.5L212.5 636L212.5 638.5L211.5 638.5L211.5 638ZM211.5 632L211.5 630L211.5 629.5L212.5 629.5L212.5 630L212.5 632.5L211.5 632.5L211.5 632ZM211.5 626L211.5 624L211.5 623.5L212.5 623.5L212.5 624L212.5 626.5L211.5 626.5L211.5 626ZM211.5 620L211.5 618L211.5 617.5L212.5 617.5L212.5 618L212.5 620.5L211.5 620.5L211.5 620ZM211.5 614L211.5 612L211.5 611.5L212.5 611.5L212.5 612L212.5 614.5L211.5 614.5L211.5 614ZM211.5 608L211.5 606L211.5 605.5L212.5 605.5L212.5 606L212.5 608.5L211.5 608.5L211.5 608ZM211.5 602L211.5 599.5L212.5 599.5L212.5 602.5L211.5 602.5L211.5 602Z"/>
		<path fill="none" stroke="black" stroke-width="1" stroke-linecap="square" stroke-miterlimit="4" transform="translate(0.5 0.5)" d="M212 806L212 1016"/>
		<path transform="translate(0.5 0.5)" d="M212 595.5L214 595.5L214.5 595.5L214.5 596.5L214 596.5L211.5 596.5L211.5 595.5L212 595.5ZM218 595.5L220 595.5L220.5 595.5L220.5 596.5L220 596.5L217.5 596.5L217.5 595.5L218 595.5ZM224 595.5L226.5 595.5L226.5 596.5L223.5 596.5L223.5 595.5L224 595.5Z"/>
		<path transform="translate(0.5 0.5)" d="M212 683.5L214 683.5L214.5 683.5L214.5 684.5L214 684.5L211.5 684.5L211.5 683.5L212 683.5ZM218 683.5L220 683.5L220.5 683.5L220.5 684.5L220 684.5L217.5 684.5L217.5 683.5L218 683.5ZM224 683.5L226.5 683.5L226.5 684.5L223.5 684.5L223.5 683.5L224 683.5Z"/>
		<path transform="translate(0.5 0.5)" d="M212 772.5L214 772.5L214.5 772.5L214.5 773.5L214 773.5L211.5 773.5L211.5 772.5L212 772.5ZM218 772.5L220 772.5L220.5 772.5L220.5 773.5L220 773.5L217.5 773.5L217.5 772.5L218 772.5ZM224 772.5L226.5 772.5L226.5 773.5L223.5 773.5L223.5 772.5L224 772.5Z"/>
		<path transform="translate(0.5 0.5)" d="M212 871.5L214 871.5L214.5 871.5L214.5 872.5L214 872.5L211.5 872.5L211.5 871.5L212 871.5ZM218 871.5L220 871.5L220.5 871.5L220.5 872.5L220 872.5L217.5 872.5L217.5 871.5L218 871.5ZM224 871.5L226.5 871.5L226.5 872.5L223.5 872.5L223.5 871.5L224 871.5Z"/>
		<path transform="translate(0.5 0.5)" d="M212 934.5L214 934.5L214.5 934.5L214.5 935.5L214 935.5L211.5 935.5L211.5 934.5L212 934.5ZM218 934.5L220 934.5L220.5 934.5L220.5 935.5L220 935.5L217.5 935.5L217.5 934.5L218 934.5ZM224 934.5L226.5 934.5L226.5 935.5L223.5 935.5L223.5 934.5L224 934.5Z"/>
		<path fill="none" stroke="black" stroke-width="1" stroke-linecap="square" stroke-miterlimit="4" transform="translate(0.5 0.5)" d="M212 1017L226 1017"/>
		<path fill="silver" d="M162 805L167 800L192 800L197 805L197 816L192 821L167 821L162 816L162 805Z"/>
		<path fill="white" d="M158 801L163 796L188 796L193 801L193 812L188 817L163 817L158 812L158 801Z"/>
		<path fill="none" stroke="black" stroke-width="1" stroke-linecap="square" stroke-miterlimit="4" transform="translate(0.5 0.5)" d="M163 806L187 806"/>
		<rect x="169" y="805" width="3" height="3"/>
		<rect x="174" y="805" width="3" height="3"/>
		<rect x="179" y="805" width="3" height="3"/>
		<path fill="none" stroke="black" stroke-width="1" stroke-linecap="square" stroke-miterlimit="4" transform="translate(0.5 0.5)" d="M158 801L163 796L187 796L192 801L192 811L187 816L163 816L158 811L158 801Z"/>
		<path fill="silver" d="M231 595L236 590L423 590L428 595L428 606L423 611L236 611L231 606L231 595Z"/>
		<path fill="white" d="M227 591L232 586L419 586L424 591L424 602L419 607L232 607L227 602L227 591Z"/>
		<rect fill="#FFFFC0" x="232" y="613" width="115" height="12"/>
		<text fill="gray" font-size="9" font-family="Segoe UI" x="232, 240.40674, 245.2583, 250.83057, 252.90039, 256.71924, 259.18457, 264.49316, 272.57471, 276.81104, 279.27637, 285.58691, 287.7666, 293.06641, 295.24609, 298.2959, 302.875, 305.05469, 307.52002, 312.30127, 314.48096, 319.78076, 324.87402, 329.45312, 332.50293, 337.59619, 340.7251, " y="623, ">
				W3C&apos;s XML Digital Signature
		</text>
		<rect fill="white" x="254" y="588" width="165" height="16"/>
		<text font-size="12" font-weight="600" font-family="Segoe UI" x="254, 261.22461, 265.89453, 270.56445, 278.00586, 281.25781, 286.57812, 291.89844, 301.4668, 311.03516, 320.12305, 323.375, 332.94336, 339.8457, 343.09766, 350.43359, 355.16211, 362.5918, " y="601, ">
				http://www.w3.org/
		</text>
		<text font-size="12" font-weight="600" font-family="Segoe UI" x="367.91211, 371.16406, 374.41602, " y="601, ">
				...
		</text>
		<rect fill="white" x="232" y="588" width="20" height="16"/>
		<text fill="gray" font-size="12" font-family="Segoe UI" x="232, 238.10547, 244.89648, " y="601, ">
				any
		</text>
		<path transform="translate(0.5 0.5)" d="M230.889 586.404L231.793 585.5L232.929 585.5L233.429 585.5L233.429 586.5L232.929 586.5L232 586.5L232 586L232.354 586.354L231.243 587.465L230.536 586.757L230.889 586.404ZM236.929 585.5L238.929 585.5L239.429 585.5L239.429 586.5L238.929 586.5L236.429 586.5L236.429 585.5L236.929 585.5ZM242.929 585.5L244.929 585.5L245.429 585.5L245.429 586.5L244.929 586.5L242.429 586.5L242.429 585.5L242.929 585.5ZM248.929 585.5L250.929 585.5L251.429 585.5L251.429 586.5L250.929 586.5L248.429 586.5L248.429 585.5L248.929 585.5ZM254.929 585.5L256.929 585.5L257.429 585.5L257.429 586.5L256.929 586.5L254.429 586.5L254.429 585.5L254.929 585.5ZM260.929 585.5L262.929 585.5L263.429 585.5L263.429 586.5L262.929 586.5L260.429 586.5L260.429 585.5L260.929 585.5ZM266.929 585.5L268.929 585.5L269.429 585.5L269.429 586.5L268.929 586.5L266.429 586.5L266.429 585.5L266.929 585.5ZM272.929 585.5L274.929 585.5L275.429 585.5L275.429 586.5L274.929 586.5L272.429 586.5L272.429 585.5L272.929 585.5ZM278.929 585.5L280.929 585.5L281.429 585.5L281.429 586.5L280.929 586.5L278.429 586.5L278.429 585.5L278.929 585.5ZM284.929 585.5L286.929 585.5L287.429 585.5L287.429 586.5L286.929 586.5L284.429 586.5L284.429 585.5L284.929 585.5ZM290.929 585.5L292.929 585.5L293.429 585.5L293.429 586.5L292.929 586.5L290.429 586.5L290.429 585.5L290.929 585.5ZM296.929 585.5L298.929 585.5L299.429 585.5L299.429 586.5L298.929 586.5L296.429 586.5L296.429 585.5L296.929 585.5ZM302.929 585.5L304.929 585.5L305.429 585.5L305.429 586.5L304.929 586.5L302.429 586.5L302.429 585.5L302.929 585.5ZM308.929 585.5L310.929 585.5L311.429 585.5L311.429 586.5L310.929 586.5L308.429 586.5L308.429 585.5L308.929 585.5ZM314.929 585.5L316.929 585.5L317.429 585.5L317.429 586.5L316.929 586.5L314.429 586.5L314.429 585.5L314.929 585.5ZM320.929 585.5L322.929 585.5L323.429 585.5L323.429 586.5L322.929 586.5L320.429 586.5L320.429 585.5L320.929 585.5ZM326.929 585.5L328.929 585.5L329.429 585.5L329.429 586.5L328.929 586.5L326.429 586.5L326.429 585.5L326.929 585.5ZM332.929 585.5L334.929 585.5L335.429 585.5L335.429 586.5L334.929 586.5L332.429 586.5L332.429 585.5L332.929 585.5ZM338.929 585.5L340.929 585.5L341.429 585.5L341.429 586.5L340.929 586.5L338.429 586.5L338.429 585.5L338.929 585.5ZM344.929 585.5L346.929 585.5L347.429 585.5L347.429 586.5L346.929 586.5L344.429 586.5L344.429 585.5L344.929 585.5ZM350.929 585.5L352.929 585.5L353.429 585.5L353.429 586.5L352.929 586.5L350.429 586.5L350.429 585.5L350.929 585.5ZM356.929 585.5L358.929 585.5L359.429 585.5L359.429 586.5L358.929 586.5L356.429 586.5L356.429 585.5L356.929 585.5ZM362.929 585.5L364.929 585.5L365.429 585.5L365.429 586.5L364.929 586.5L362.429 586.5L362.429 585.5L362.929 585.5ZM368.929 585.5L370.929 585.5L371.429 585.5L371.429 586.5L370.929 586.5L368.429 586.5L368.429 585.5L368.929 585.5ZM374.929 585.5L376.929 585.5L377.429 585.5L377.429 586.5L376.929 586.5L374.429 586.5L374.429 585.5L374.929 585.5ZM380.929 585.5L382.929 585.5L383.429 585.5L383.429 586.5L382.929 586.5L380.429 586.5L380.429 585.5L380.929 585.5ZM386.929 585.5L388.929 585.5L389.429 585.5L389.429 586.5L388.929 586.5L386.429 586.5L386.429 585.5L386.929 585.5ZM392.929 585.5L394.929 585.5L395.429 585.5L395.429 586.5L394.929 586.5L392.429 586.5L392.429 585.5L392.929 585.5ZM398.929 585.5L400.929 585.5L401.429 585.5L401.429 586.5L400.929 586.5L398.429 586.5L398.429 585.5L398.929 585.5ZM404.929 585.5L406.929 585.5L407.429 585.5L407.429 586.5L406.929 586.5L404.429 586.5L404.429 585.5L404.929 585.5ZM410.929 585.5L412.929 585.5L413.429 585.5L413.429 586.5L412.929 586.5L410.429 586.5L410.429 585.5L410.929 585.5ZM416.929 585.5L418.207 585.5L419.01 586.303L419.364 586.657L418.657 587.364L418.303 587.01L417.646 586.354L418 586L418 586.5L416.429 586.5L416.429 585.5L416.929 585.5ZM421.839 589.132L423.253 590.546L423.607 590.899L422.899 591.607L422.546 591.253L420.778 589.485L421.485 588.778L421.839 589.132ZM423.5 594.858L423.5 596.858L423.5 597.358L422.5 597.358L422.5 596.858L422.5 594.358L423.5 594.358L423.5 594.858ZM423.5 600.858L423.5 601.207L422.04 602.667L421.686 603.021L420.979 602.314L421.333 601.96L422.646 600.646L423 601L422.5 601L422.5 600.358L423.5 600.358L423.5 600.858ZM419.211 605.496L418.207 606.5L417.213 606.5L416.713 606.5L416.713 605.5L417.213 605.5L418 605.5L418 606L417.646 605.646L418.858 604.435L419.565 605.142L419.211 605.496ZM413.213 606.5L411.213 606.5L410.713 606.5L410.713 605.5L411.213 605.5L413.713 605.5L413.713 606.5L413.213 606.5ZM407.213 606.5L405.213 606.5L404.713 606.5L404.713 605.5L405.213 605.5L407.713 605.5L407.713 606.5L407.213 606.5ZM401.213 606.5L399.213 606.5L398.713 606.5L398.713 605.5L399.213 605.5L401.713 605.5L401.713 606.5L401.213 606.5ZM395.213 606.5L393.213 606.5L392.713 606.5L392.713 605.5L393.213 605.5L395.713 605.5L395.713 606.5L395.213 606.5ZM389.213 606.5L387.213 606.5L386.713 606.5L386.713 605.5L387.213 605.5L389.713 605.5L389.713 606.5L389.213 606.5ZM383.213 606.5L381.213 606.5L380.713 606.5L380.713 605.5L381.213 605.5L383.713 605.5L383.713 606.5L383.213 606.5ZM377.213 606.5L375.213 606.5L374.713 606.5L374.713 605.5L375.213 605.5L377.713 605.5L377.713 606.5L377.213 606.5ZM371.213 606.5L369.213 606.5L368.713 606.5L368.713 605.5L369.213 605.5L371.713 605.5L371.713 606.5L371.213 606.5ZM365.213 606.5L363.213 606.5L362.713 606.5L362.713 605.5L363.213 605.5L365.713 605.5L365.713 606.5L365.213 606.5ZM359.213 606.5L357.213 606.5L356.713 606.5L356.713 605.5L357.213 605.5L359.713 605.5L359.713 606.5L359.213 606.5ZM353.213 606.5L351.213 606.5L350.713 606.5L350.713 605.5L351.213 605.5L353.713 605.5L353.713 606.5L353.213 606.5ZM347.213 606.5L345.213 606.5L344.713 606.5L344.713 605.5L345.213 605.5L347.713 605.5L347.713 606.5L347.213 606.5ZM341.213 606.5L339.213 606.5L338.713 606.5L338.713 605.5L339.213 605.5L341.713 605.5L341.713 606.5L341.213 606.5ZM335.213 606.5L333.213 606.5L332.713 606.5L332.713 605.5L333.213 605.5L335.713 605.5L335.713 606.5L335.213 606.5ZM329.213 606.5L327.213 606.5L326.713 606.5L326.713 605.5L327.213 605.5L329.713 605.5L329.713 606.5L329.213 606.5ZM323.213 606.5L321.213 606.5L320.713 606.5L320.713 605.5L321.213 605.5L323.713 605.5L323.713 606.5L323.213 606.5ZM317.213 606.5L315.213 606.5L314.713 606.5L314.713 605.5L315.213 605.5L317.713 605.5L317.713 606.5L317.213 606.5ZM311.213 606.5L309.213 606.5L308.713 606.5L308.713 605.5L309.213 605.5L311.713 605.5L311.713 606.5L311.213 606.5ZM305.213 606.5L303.213 606.5L302.713 606.5L302.713 605.5L303.213 605.5L305.713 605.5L305.713 606.5L305.213 606.5ZM299.213 606.5L297.213 606.5L296.713 606.5L296.713 605.5L297.213 605.5L299.713 605.5L299.713 606.5L299.213 606.5ZM293.213 606.5L291.213 606.5L290.713 606.5L290.713 605.5L291.213 605.5L293.713 605.5L293.713 606.5L293.213 606.5ZM287.213 606.5L285.213 606.5L284.713 606.5L284.713 605.5L285.213 605.5L287.713 605.5L287.713 606.5L287.213 606.5ZM281.213 606.5L279.213 606.5L278.713 606.5L278.713 605.5L279.213 605.5L281.713 605.5L281.713 606.5L281.213 606.5ZM275.213 606.5L273.213 606.5L272.713 606.5L272.713 605.5L273.213 605.5L275.713 605.5L275.713 606.5L275.213 606.5ZM269.213 606.5L267.213 606.5L266.713 606.5L266.713 605.5L267.213 605.5L269.713 605.5L269.713 606.5L269.213 606.5ZM263.213 606.5L261.213 606.5L260.713 606.5L260.713 605.5L261.213 605.5L263.713 605.5L263.713 606.5L263.213 606.5ZM257.213 606.5L255.213 606.5L254.713 606.5L254.713 605.5L255.213 605.5L257.713 605.5L257.713 606.5L257.213 606.5ZM251.213 606.5L249.213 606.5L248.713 606.5L248.713 605.5L249.213 605.5L251.713 605.5L251.713 606.5L251.213 606.5ZM245.213 606.5L243.213 606.5L242.713 606.5L242.713 605.5L243.213 605.5L245.713 605.5L245.713 606.5L245.213 606.5ZM239.213 606.5L237.213 606.5L236.713 606.5L236.713 605.5L237.213 605.5L239.713 605.5L239.713 606.5L239.213 606.5ZM233.213 606.5L231.793 606.5L231.09 605.797L230.737 605.444L231.444 604.737L231.797 605.09L232.354 605.646L232 606L232 605.5L233.713 605.5L233.713 606.5L233.213 606.5ZM228.262 602.969L226.847 601.555L226.494 601.201L227.201 600.494L227.555 600.847L229.322 602.615L228.615 603.322L228.262 602.969ZM226.5 597.284L226.5 595.284L226.5 594.784L227.5 594.784L227.5 595.284L227.5 597.784L226.5 597.784L226.5 597.284ZM226.5 591.284L226.5 590.793L228.414 588.879L229.121 589.586L227.354 591.354L227 591L227.5 591L227.5 591.784L226.5 591.784L226.5 591.284Z"/>
		<path fill="none" stroke="black" stroke-width="1" stroke-linecap="square" stroke-miterlimit="4" transform="translate(0.5 0.5)" d="M272 684L280 684"/>
		<path fill="none" stroke="black" stroke-width="1" stroke-linecap="square" stroke-miterlimit="4" transform="translate(0.5 0.5)" d="M281 684L281 648"/>
		<path fill="none" stroke="black" stroke-width="1" stroke-linecap="square" stroke-miterlimit="4" transform="translate(0.5 0.5)" d="M281 684L281 721"/>
		<path fill="none" stroke="black" stroke-width="1" stroke-linecap="square" stroke-miterlimit="4" transform="translate(0.5 0.5)" d="M281 647L295 647"/>
		<path fill="none" stroke="black" stroke-width="1" stroke-linecap="square" stroke-miterlimit="4" transform="translate(0.5 0.5)" d="M281 722L295 722"/>
		<path fill="silver" d="M234 686L239 681L264 681L269 686L269 697L264 702L239 702L234 697L234 686Z"/>
		<path fill="white" d="M230 682L235 677L259 677L264 682L264 692L259 697L235 697L230 692L230 682Z"/>
		<path transform="translate(0.5 0.5)" d="M233.889 677.404L234.793 676.5L235.929 676.5L236.429 676.5L236.429 677.5L235.929 677.5L235 677.5L235 677L235.354 677.354L234.243 678.465L233.536 677.757L233.889 677.404ZM239.929 676.5L241.929 676.5L242.429 676.5L242.429 677.5L241.929 677.5L239.429 677.5L239.429 676.5L239.929 676.5ZM245.929 676.5L247.929 676.5L248.429 676.5L248.429 677.5L247.929 677.5L245.429 677.5L245.429 676.5L245.929 676.5ZM251.929 676.5L253.929 676.5L254.429 676.5L254.429 677.5L253.929 677.5L251.429 677.5L251.429 676.5L251.929 676.5ZM257.929 676.5L259.207 676.5L260.01 677.303L260.364 677.657L259.657 678.364L259.303 678.01L258.646 677.354L259 677L259 677.5L257.429 677.5L257.429 676.5L257.929 676.5ZM262.839 680.132L264.253 681.546L264.607 681.899L263.9 682.607L263.546 682.253L261.778 680.485L262.485 679.778L262.839 680.132ZM264.5 685.858L264.5 687.858L264.5 688.358L263.5 688.358L263.5 687.858L263.5 685.358L264.5 685.358L264.5 685.858ZM264.5 691.858L264.5 692.207L263.04 693.667L262.686 694.021L261.979 693.314L262.333 692.96L263.646 691.646L264 692L263.5 692L263.5 691.358L264.5 691.358L264.5 691.858ZM260.211 696.496L259.207 697.5L258.213 697.5L257.713 697.5L257.713 696.5L258.213 696.5L259 696.5L259 697L258.646 696.646L259.858 695.435L260.565 696.142L260.211 696.496ZM254.213 697.5L252.213 697.5L251.713 697.5L251.713 696.5L252.213 696.5L254.713 696.5L254.713 697.5L254.213 697.5ZM248.213 697.5L246.213 697.5L245.713 697.5L245.713 696.5L246.213 696.5L248.713 696.5L248.713 697.5L248.213 697.5ZM242.213 697.5L240.213 697.5L239.713 697.5L239.713 696.5L240.213 696.5L242.713 696.5L242.713 697.5L242.213 697.5ZM236.213 697.5L234.793 697.5L234.09 696.797L233.737 696.444L234.444 695.737L234.797 696.09L235.354 696.646L235 697L235 696.5L236.713 696.5L236.713 697.5L236.213 697.5ZM231.262 693.969L229.847 692.555L229.494 692.201L230.201 691.494L230.555 691.847L232.322 693.615L231.615 694.322L231.262 693.969ZM229.5 688.284L229.5 686.284L229.5 685.784L230.5 685.784L230.5 686.284L230.5 688.784L229.5 688.784L229.5 688.284ZM229.5 682.284L229.5 681.793L231.414 679.879L232.121 680.586L230.354 682.354L230 682L230.5 682L230.5 682.784L229.5 682.784L229.5 682.284Z"/>
		<path fill="white" d="M227 679L232 674L257 674L262 679L262 690L257 695L232 695L227 690L227 679Z"/>
		<path fill="none" stroke="black" stroke-width="1" stroke-linecap="square" stroke-miterlimit="4" transform="translate(0.5 0.5)" d="M246 695L252 701L255 698"/>
		<path fill="none" stroke="black" stroke-width="1" stroke-linecap="square" stroke-miterlimit="4" transform="translate(0.5 0.5)" d="M232 684L237 684L241 680"/>
		<path fill="none" stroke="black" stroke-width="1" stroke-linecap="square" stroke-miterlimit="4" transform="translate(0.5 0.5)" d="M247 684L255 684"/>
		<path fill="none" stroke="black" stroke-width="1" stroke-linecap="square" stroke-miterlimit="4" transform="translate(0.5 0.5)" d="M247 680L251 680L251 688L247 688"/>
		<rect x="243" y="679" width="3" height="3"/>
		<rect x="243" y="683" width="3" height="3"/>
		<rect x="243" y="687" width="3" height="3"/>
		<text font-size="12" font-family="Segoe UI" x="231.76562, " y="714, ">
				0
		</text>
		<text font-size="12" font-family="Symbol" x="246.72266, " y="713, ">
				¥
		</text>
		<text font-size="12" font-family="Segoe UI" x="239.89844, 242.5, " y="714, ">
				..
		</text>
		<path transform="translate(0.5 0.5)" d="M230.889 674.404L231.793 673.5L232.929 673.5L233.429 673.5L233.429 674.5L232.929 674.5L232 674.5L232 674L232.354 674.354L231.243 675.465L230.536 674.757L230.889 674.404ZM236.929 673.5L238.929 673.5L239.429 673.5L239.429 674.5L238.929 674.5L236.429 674.5L236.429 673.5L236.929 673.5ZM242.929 673.5L244.929 673.5L245.429 673.5L245.429 674.5L244.929 674.5L242.429 674.5L242.429 673.5L242.929 673.5ZM248.929 673.5L250.929 673.5L251.429 673.5L251.429 674.5L250.929 674.5L248.429 674.5L248.429 673.5L248.929 673.5ZM254.929 673.5L256.207 673.5L257.01 674.303L257.364 674.657L256.657 675.364L256.303 675.01L255.646 674.354L256 674L256 674.5L254.429 674.5L254.429 673.5L254.929 673.5ZM259.839 677.132L261.253 678.546L261.607 678.899L260.9 679.607L260.546 679.253L258.778 677.485L259.485 676.778L259.839 677.132ZM261.5 682.858L261.5 684.858L261.5 685.358L260.5 685.358L260.5 684.858L260.5 682.358L261.5 682.358L261.5 682.858ZM261.5 688.858L261.5 689.207L260.04 690.667L259.686 691.021L258.979 690.314L259.333 689.96L260.646 688.646L261 689L260.5 689L260.5 688.358L261.5 688.358L261.5 688.858ZM257.211 693.496L256.207 694.5L255.213 694.5L254.713 694.5L254.713 693.5L255.213 693.5L256 693.5L256 694L255.646 693.646L256.858 692.435L257.565 693.142L257.211 693.496ZM251.213 694.5L249.213 694.5L248.713 694.5L248.713 693.5L249.213 693.5L251.713 693.5L251.713 694.5L251.213 694.5ZM245.213 694.5L243.213 694.5L242.713 694.5L242.713 693.5L243.213 693.5L245.713 693.5L245.713 694.5L245.213 694.5ZM239.213 694.5L237.213 694.5L236.713 694.5L236.713 693.5L237.213 693.5L239.713 693.5L239.713 694.5L239.213 694.5ZM233.213 694.5L231.793 694.5L231.09 693.797L230.737 693.444L231.444 692.737L231.797 693.09L232.354 693.646L232 694L232 693.5L233.713 693.5L233.713 694.5L233.213 694.5ZM228.262 690.969L226.847 689.555L226.494 689.201L227.201 688.494L227.555 688.847L229.322 690.615L228.615 691.322L228.262 690.969ZM226.5 685.284L226.5 683.284L226.5 682.784L227.5 682.784L227.5 683.284L227.5 685.784L226.5 685.784L226.5 685.284ZM226.5 679.284L226.5 678.793L228.414 676.879L229.121 677.586L227.354 679.354L227 679L227.5 679L227.5 679.784L226.5 679.784L226.5 679.284Z"/>
		<rect fill="silver" x="300" y="641" width="83" height="21"/>
		<rect fill="white" x="296" y="637" width="83" height="21"/>
		<rect fill="#FFFFC0" x="301" y="664" width="115" height="36"/>
		<text fill="gray" font-size="9" font-family="Segoe UI" x="301, 306.80518, 309.27051, 312.39941, 317.10596, 319.92285, 324.62939, 327.7583, 332.46484, 337.55811, 341.71533, 346.42188, 348.88721, 351.93701, 357.21045, 359.67578, 364.25488, 366.72021, 369.84912, 374.55566, 382.30762, 387.58105, 390.63086, " y="674, ">
				A reference to a remote
		</text>
		<text fill="gray" font-size="9" font-family="Segoe UI" x="301, 305.15723, 309.73633, 312.78613, 317.36523, 319.54492, 324.81836, 330.11816, 332.06934, 334.53467, 340.33984, 342.80518, 347.89844, 352.25342, 357.54443, 362.25098, 365.37988, 367.55957, 369.73926, 374.83252, 379.30615, 381.77148, 384.82129, 390.09473, 392.56006, 397.13916, 399.60449, 403.42334, 408.12988, " y="686, ">
				catalog. A hyperlink to a set
		</text>
		<text fill="gray" font-size="9" font-family="Segoe UI" x="301, 306.27344, 309.09033, 311.55566, 315.37451, 319.53174, 324.625, 329.33154, 337.0835, 341.79004, 344.25537, 348.83447, 351.01416, 353.19385, 357.77295, 361.5918, 364.05713, 369.35693, 374.06348, 378.2207, 380.40039, 384.97949, 388.1084, 392.6875, 395.7373, 397.91699, 403.19043, 408.28369, 412.10254, " y="698, ">
				of scheme alias declarations.
		</text>
		<rect fill="white" x="305" y="639" width="62" height="16"/>
		<text font-size="12" font-weight="600" font-family="Segoe UI" x="305, 310.75977, 317.2168, 321.88672, 328.34375, 331.75391, 339.08984, 346.51953, 354.05469, 360.54688, " y="652, ">
				catalogRef
		</text>
		<path fill="none" stroke="black" stroke-width="2" stroke-miterlimit="4" transform="translate(0.5 0.5)" d="M298 655L302 651"/>
		<path fill="none" stroke="black" stroke-width="1" stroke-linecap="square" stroke-miterlimit="4" transform="translate(0.5 0.5)" d="M299 651L302 651L302 654"/>
		<rect fill="none" stroke="black" stroke-width="1" stroke-linecap="square" stroke-miterlimit="4" transform="translate(0.5 0.5)" x="296" y="637" width="82" height="20"/>
		<rect x="373" y="642" width="11" height="11"/>
		<rect fill="white" x="374" y="643" width="9" height="9"/>
		<rect x="375" y="647" width="7" height="1"/>
		<rect x="378" y="644" width="1" height="7"/>
		<rect fill="silver" x="300" y="716" width="64" height="21"/>
		<rect fill="white" x="296" y="712" width="64" height="21"/>
		<rect fill="#FFFFC0" x="301" y="739" width="104" height="12"/>
		<text fill="gray" font-size="9" font-family="Segoe UI" x="301, 306.80518, 309.27051, 311.4502, 316.72363, 320.88086, 325.45996, 327.63965, 330.10498, 335.37842, 338.50732, 340.97266, 344.10156, 348.80811, 356.56006, 361.8335, 364.8833, 369.58984, 372.05518, 376.2124, 380.7915, 383.84131, 388.42041, 390.6001, 395.87354, 401.17334, " y="749, ">
				A local or remote catalog.
		</text>
		<rect fill="white" x="305" y="714" width="43" height="16"/>
		<text font-size="12" font-weight="600" font-family="Segoe UI" x="305, 310.75977, 317.2168, 321.88672, 328.34375, 331.75391, 339.08984, " y="727, ">
				catalog
		</text>
		<path fill="none" stroke="black" stroke-width="2" stroke-miterlimit="4" transform="translate(0.5 0.5)" d="M298 730L302 726"/>
		<path fill="none" stroke="black" stroke-width="1" stroke-linecap="square" stroke-miterlimit="4" transform="translate(0.5 0.5)" d="M299 726L302 726L302 729"/>
		<rect fill="none" stroke="black" stroke-width="1" stroke-linecap="square" stroke-miterlimit="4" transform="translate(0.5 0.5)" x="296" y="712" width="63" height="20"/>
		<rect x="354" y="717" width="11" height="11"/>
		<rect fill="white" x="355" y="718" width="9" height="9"/>
		<rect x="356" y="722" width="7" height="1"/>
		<rect x="359" y="719" width="1" height="7"/>
		<rect x="261" y="679" width="11" height="11"/>
		<rect fill="white" x="262" y="680" width="9" height="9"/>
		<rect x="263" y="684" width="7" height="1"/>
		<rect fill="silver" x="231" y="767" width="86" height="21"/>
		<rect fill="white" x="227" y="763" width="86" height="21"/>
		<rect fill="#FFFFC0" x="232" y="790" width="117" height="60"/>
		<text fill="gray" font-size="9" font-family="Segoe UI" x="234.46533, 240.27051, 242.73584, 247.8291, 250.00879, 253.82764, 256.87744, 262.15088, 265.27979, 269.63477, 272.1001, 277.37354, 280.19043, 282.65576, 285.70557, 290.79883, 295.50537, 297.9707, 302.12793, 305.25684, 309.96338, 314.54248, 317.59229, 319.77197, 325.04541, 330.13867, 332.604, 337.18311, 342.27637, " y="800, ">
				A history of the creation and
		</text>
		<text fill="gray" font-size="9" font-family="Segoe UI" x="232, 239.75195, 245.02539, 250.3252, 252.50488, 255.32178, 257.50146, 261.65869, 266.23779, 269.2876, 271.46729, 276.74072, 281.83398, 285.65283, 288.11816, 293.3916, 296.2085, 298.67383, 301.72363, 306.81689, 311.52344, 313.98877, 318.146, 323.41943, 328.5127, 331.5625, 336.26904, 341.3623, " y="812, ">
				modifications of the content
		</text>
		<text fill="gray" font-size="9" font-family="Segoe UI" x="232, 237.27344, 242.56445, 244.74414, 249.45068, 253.60791, 256.65771, 259.12305, 264.39648, 267.21338, 269.67871, 272.72852, 277.82178, 280.00146, 283.82031, 286.28564, 288.46533, 291.51514, 296.22168, 303.97363, 305.9248, 308.39014, 313.09668, 317.22754, 322.51855, 325.64746, 330.354, 334.17285, 337.9917, 342.69824, " y="824, ">
				object of this item, expressed
		</text>
		<text fill="gray" font-size="9" font-family="Segoe UI" x="232, 236.5791, 240.39795, 242.86328, 247.44238, 249.90771, 253.72656, 258.43311, 263.73291, 268.82617, 273.53271, 278.62598, 282.7832, 287.48975, 289.95508, 295.22852, 298.04541, 300.51074, 305.604, 310.87744, 316.16846, 319.9873, " y="836, ">
				as a sequence of hops.
		</text>
		<rect fill="white" x="236" y="765" width="65" height="16"/>
		<text font-size="12" font-weight="600" font-family="Segoe UI" x="236, 243.22461, 250.56055, 258.00195, 267.19531, 270.60547, 275.88477, 280.50781, 287.84375, 293.09961, " y="778, ">
				hopHistory
		</text>
		<path fill="none" stroke="black" stroke-width="2" stroke-miterlimit="4" transform="translate(0.5 0.5)" d="M229 781L233 777"/>
		<path fill="none" stroke="black" stroke-width="1" stroke-linecap="square" stroke-miterlimit="4" transform="translate(0.5 0.5)" d="M230 777L233 777L233 780"/>
		<rect fill="none" stroke="black" stroke-width="1" stroke-linecap="square" stroke-miterlimit="4" transform="translate(0.5 0.5)" x="227" y="763" width="85" height="20"/>
		<rect x="307" y="768" width="11" height="11"/>
		<rect fill="white" x="308" y="769" width="9" height="9"/>
		<rect x="309" y="773" width="7" height="1"/>
		<rect x="312" y="770" width="1" height="7"/>
		<rect fill="silver" x="231" y="866" width="86" height="21"/>
		<rect fill="white" x="227" y="862" width="86" height="21"/>
		<rect fill="#FFFFC0" x="232" y="889" width="114" height="24"/>
		<text fill="gray" font-size="9" font-family="Segoe UI" x="232, 238.78516, 243.87842, 248.58496, 251.05029, 254.1001, 259.37354, 261.83887, 269.59082, 274.16992, 279.26318, 283.61816, 286.0835, 291.3833, 295.9624, 299.01221, 303.59131, 307.41016, 312.1167, 315.1665, 318.98535, 321.45068, 326.02979, 331.3208, 336.59424, 341.6875, " y="899, ">
				One to many datasets about
		</text>
		<text fill="gray" font-size="9" font-family="Segoe UI" x="232, 237.29102, 242.38428, 247.67529, 249.85498, 252.03467, 255.85352, 260.94678, 263.12646, 268.21973, 273.51953, 275.98486, 279.03467, 284.12793, 286.30762, 290.12646, 292.5918, 294.77148, 297.82129, 302.52783, 310.27979, " y="911, ">
				publishing this item.
		</text>
		<rect fill="white" x="236" y="864" width="65" height="16"/>
		<text font-size="12" font-weight="600" font-family="Segoe UI" x="236, 243.44141, 250.70117, 258.14258, 267.33594, 270.74609, 276.02539, 280.64844, 287.98438, 293.24023, " y="877, ">
				pubHistory
		</text>
		<path fill="none" stroke="black" stroke-width="2" stroke-miterlimit="4" transform="translate(0.5 0.5)" d="M229 880L233 876"/>
		<path fill="none" stroke="black" stroke-width="1" stroke-linecap="square" stroke-miterlimit="4" transform="translate(0.5 0.5)" d="M230 876L233 876L233 879"/>
		<rect fill="none" stroke="black" stroke-width="1" stroke-linecap="square" stroke-miterlimit="4" transform="translate(0.5 0.5)" x="227" y="862" width="85" height="20"/>
		<rect x="307" y="867" width="11" height="11"/>
		<rect fill="white" x="308" y="868" width="9" height="9"/>
		<rect x="309" y="872" width="7" height="1"/>
		<rect x="312" y="869" width="1" height="7"/>
		<rect fill="silver" x="234" y="932" width="78" height="21"/>
		<rect fill="white" x="230" y="928" width="78" height="21"/>
		<rect fill="none" stroke="black" stroke-width="1" stroke-linecap="square" stroke-miterlimit="4" transform="translate(0.5 0.5)" x="230" y="928" width="77" height="20"/>
		<rect fill="white" x="227" y="925" width="78" height="21"/>
		<path fill="none" stroke="black" stroke-width="1" stroke-linecap="square" stroke-miterlimit="4" transform="translate(0.5 0.5)" d="M290 946L296 952L299 949"/>
		<rect fill="#FFFFC0" x="232" y="971" width="102" height="24"/>
		<text fill="gray" font-size="9" font-family="Segoe UI" x="232, 236.55273, 240.68359, 245.97461, 249.10352, 253.81006, 257.62891, 261.44775, 263.62744, 268.90088, 273.99414, 276.45947, 281.73291, 284.5498, 287.01514, 290.14404, 292.32373, 297.62354, 302.7168, 305.7666, 309.58545, 312.05078, 315.10059, 320.37402, 322.83936, 328.13037, " y="981, ">
				Expression of rights to be
		</text>
		<text fill="gray" font-size="9" font-family="Segoe UI" x="232, 236.5791, 241.87012, 247.16113, 249.34082, 251.52051, 256.22705, 261.52686, 263.99219, 267.04199, 272.31543, 274.78076, 278.93799, 284.21143, 289.30469, 292.35449, 297.06104, 302.1543, " y="993, ">
				applied to content
		</text>
		<rect fill="white" x="236" y="927" width="57" height="16"/>
		<text font-size="12" font-weight="600" font-family="Segoe UI" x="236, 240.82227, 244.23242, 251.66211, 258.88672, 263.55664, 268.83594, 272.63867, 279.89844, 284.49805, " y="940, ">
				rightsInfo
		</text>
		<path fill="none" stroke="black" stroke-width="2" stroke-miterlimit="4" transform="translate(0.5 0.5)" d="M229 943L233 939"/>
		<path fill="none" stroke="black" stroke-width="1" stroke-linecap="square" stroke-miterlimit="4" transform="translate(0.5 0.5)" d="M230 939L233 939L233 942"/>
		<text font-size="12" font-family="Segoe UI" x="275.76562, " y="965, ">
				0
		</text>
		<text font-size="12" font-family="Symbol" x="290.72266, " y="964, ">
				¥
		</text>
		<text font-size="12" font-family="Segoe UI" x="283.89844, 286.5, " y="965, ">
				..
		</text>
		<rect fill="none" stroke="black" stroke-width="1" stroke-linecap="square" stroke-miterlimit="4" transform="translate(0.5 0.5)" x="227" y="925" width="77" height="20"/>
		<rect x="299" y="930" width="11" height="11"/>
		<rect fill="white" x="300" y="931" width="9" height="9"/>
		<rect x="301" y="935" width="7" height="1"/>
		<rect x="304" y="932" width="1" height="7"/>
		<rect fill="silver" x="231" y="1011" width="77" height="21"/>
		<rect fill="white" x="227" y="1007" width="77" height="21"/>
		<rect fill="#FFFFC0" x="232" y="1034" width="106" height="24"/>
		<text fill="gray" font-size="9" font-family="Segoe UI" x="232, 237.80518, 240.27051, 244.08936, 248.7959, 251.8457, 254.31104, 259.58447, 262.40137, 264.8667, 270.15771, 273.28662, 278.56006, 283.85107, 288.55762, 291.68652, 294.73633, 296.91602, 301.62256, 305.44141, 307.90674, 313.20654, 315.38623, 318.51514, 323.22168, 327.37891, 330.42871, 332.6084, " y="1044, ">
				A set of properties directly
		</text>
		<text fill="gray" font-size="9" font-family="Segoe UI" x="232, 236.5791, 240.39795, 244.2168, 249.49023, 253.64746, 255.82715, 260.40625, 263.45605, 268.1626, 273.4624, 275.92773, 282.43164, 284.61133, 287.66113, 292.75439, 295.21973, 298.26953, 303.36279, 308.06934, 310.53467, 312.92969, 315.97949, 320.68604, " y="1056, ">
				associated with the Item
		</text>
		<rect fill="white" x="236" y="1009" width="56" height="16"/>
		<text font-size="12" font-weight="600" font-family="Segoe UI" x="236, 239.41016, 244.0332, 250.52539, 261.51758, 273.00195, 279.49414, 284.16406, " y="1022, ">
				itemMeta
		</text>
		<path fill="none" stroke="black" stroke-width="2" stroke-miterlimit="4" transform="translate(0.5 0.5)" d="M229 1025L233 1021"/>
		<path fill="none" stroke="black" stroke-width="1" stroke-linecap="square" stroke-miterlimit="4" transform="translate(0.5 0.5)" d="M230 1021L233 1021L233 1024"/>
		<rect fill="none" stroke="black" stroke-width="1" stroke-linecap="square" stroke-miterlimit="4" transform="translate(0.5 0.5)" x="227" y="1007" width="76" height="20"/>
		<rect x="298" y="1012" width="11" height="11"/>
		<rect fill="white" x="299" y="1013" width="9" height="9"/>
		<rect x="300" y="1017" width="7" height="1"/>
		<rect x="303" y="1014" width="1" height="7"/>
		<rect x="192" y="801" width="11" height="11"/>
		<rect fill="white" x="193" y="802" width="9" height="9"/>
		<rect x="194" y="806" width="7" height="1"/>
		<path fill="none" stroke="black" stroke-width="1" stroke-linecap="square" stroke-miterlimit="4" transform="translate(0.5 0.5)" d="M203 1123L211 1123"/>
		<path transform="translate(0.5 0.5)" d="M211.5 1123L211.5 1121L211.5 1120.5L212.5 1120.5L212.5 1121L212.5 1123.5L211.5 1123.5L211.5 1123ZM211.5 1117L211.5 1115L211.5 1114.5L212.5 1114.5L212.5 1115L212.5 1117.5L211.5 1117.5L211.5 1117ZM211.5 1111L211.5 1109L211.5 1108.5L212.5 1108.5L212.5 1109L212.5 1111.5L211.5 1111.5L211.5 1111ZM211.5 1105L211.5 1103L211.5 1102.5L212.5 1102.5L212.5 1103L212.5 1105.5L211.5 1105.5L211.5 1105ZM211.5 1099L211.5 1096.5L212.5 1096.5L212.5 1099.5L211.5 1099.5L211.5 1099Z"/>
		<path fill="none" stroke="black" stroke-width="1" stroke-linecap="square" stroke-miterlimit="4" transform="translate(0.5 0.5)" d="M212 1123L212 1154"/>
		<path transform="translate(0.5 0.5)" d="M212 1091.5L214 1091.5L214.5 1091.5L214.5 1092.5L214 1092.5L211.5 1092.5L211.5 1091.5L212 1091.5ZM218 1091.5L220 1091.5L220.5 1091.5L220.5 1092.5L220 1092.5L217.5 1092.5L217.5 1091.5L218 1091.5ZM224 1091.5L226.5 1091.5L226.5 1092.5L223.5 1092.5L223.5 1091.5L224 1091.5Z"/>
		<path fill="none" stroke="black" stroke-width="1" stroke-linecap="square" stroke-miterlimit="4" transform="translate(0.5 0.5)" d="M212 1155L226 1155"/>
		<path fill="silver" d="M162 1122L167 1117L192 1117L197 1122L197 1133L192 1138L167 1138L162 1133L162 1122Z"/>
		<path fill="white" d="M158 1118L163 1113L188 1113L193 1118L193 1129L188 1134L163 1134L158 1129L158 1118Z"/>
		<path fill="none" stroke="black" stroke-width="1" stroke-linecap="square" stroke-miterlimit="4" transform="translate(0.5 0.5)" d="M163 1123L187 1123"/>
		<rect x="169" y="1122" width="3" height="3"/>
		<rect x="174" y="1122" width="3" height="3"/>
		<rect x="179" y="1122" width="3" height="3"/>
		<path fill="none" stroke="black" stroke-width="1" stroke-linecap="square" stroke-miterlimit="4" transform="translate(0.5 0.5)" d="M158 1118L163 1113L187 1113L192 1118L192 1128L187 1133L163 1133L158 1128L158 1118Z"/>
		<rect fill="silver" x="231" y="1086" width="95" height="21"/>
		<rect fill="white" x="227" y="1082" width="95" height="21"/>
		<rect fill="white" x="232" y="1109" width="94" height="24"/>
		<text fill="gray" font-size="9" font-family="Segoe UI" x="232, 237.57227, 242.8457, 247.93896, 250.98877, 255.69531, 260.78857, 263.83838, 266.30371, 274.38525, 279.0918, 282.1416, 286.7207, 292.02051, 296.59961, 299.64941, 304.22852, 306.69385, 309.51074, 314.78418, 317.91309, 320.37842, " y="1119, ">
				Content Metadata for a
		</text>
		<text fill="gray" font-size="9" font-family="Segoe UI" x="232, 237.04053, 239.22021, 243.79932, 248.89258, 253.98584, 256.16553, 261.25879, 266.55859, 269.02393, 271.41895, 274.46875, 279.17529, " y="1131, ">
				Planning Item
		</text>
		<rect fill="white" x="236" y="1084" width="74" height="16"/>
		<text font-size="12" font-weight="600" font-family="Segoe UI" x="236, 241.75977, 249.0957, 256.35547, 260.97852, 267.4707, 274.73047, 279.40039, 290.88477, 297.37695, 302.04688, " y="1097, ">
				contentMeta
		</text>
		<rect fill="none" stroke="black" stroke-width="1" stroke-linecap="square" stroke-miterlimit="4" transform="translate(0.5 0.5)" x="227" y="1082" width="94" height="20"/>
		<rect x="316" y="1087" width="11" height="11"/>
		<rect fill="white" x="317" y="1088" width="9" height="9"/>
		<rect x="318" y="1092" width="7" height="1"/>
		<rect x="321" y="1089" width="1" height="7"/>
		<rect fill="silver" x="231" y="1149" width="119" height="21"/>
		<rect fill="white" x="227" y="1145" width="119" height="21"/>
		<rect fill="white" x="232" y="1172" width="99" height="24"/>
		<text fill="gray" font-size="9" font-family="Segoe UI" x="232, 236.71533, 241.80859, 246.51514, 248.98047, 253.1377, 258.41113, 263.50439, 266.5542, 271.1333, 273.31299, 278.40625, 283.11279, 286.2417, 288.70703, 293.98047, 296.79736, 299.2627, 303.8418, 306.30713, 310.12598, 312.30566, 317.39893, 322.69873, 324.87842, " y="1182, ">
				The container of a single
		</text>
		<text fill="gray" font-size="9" font-family="Segoe UI" x="232, 236.15723, 240.73633, 243.78613, 248.36523, 250.54492, 255.81836, " y="1194, ">
				catalog
		</text>
		<rect fill="white" x="236" y="1147" width="98" height="16"/>
		<text font-size="12" font-weight="600" font-family="Segoe UI" x="236, 241.75977, 248.2168, 252.88672, 259.34375, 262.75391, 270.08984, 277.51953, 285.00781, 292.34375, 299.60352, 304.27344, 310.73047, 314.14062, 321.40039, 327.89258, " y="1160, ">
				catalogContainer
		</text>
		<path fill="none" stroke="black" stroke-width="2" stroke-miterlimit="4" transform="translate(0.5 0.5)" d="M229 1163L233 1159"/>
		<path fill="none" stroke="black" stroke-width="1" stroke-linecap="square" stroke-miterlimit="4" transform="translate(0.5 0.5)" d="M230 1159L233 1159L233 1162"/>
		<rect fill="none" stroke="black" stroke-width="1" stroke-linecap="square" stroke-miterlimit="4" transform="translate(0.5 0.5)" x="227" y="1145" width="118" height="20"/>
		<rect x="340" y="1150" width="11" height="11"/>
		<rect fill="white" x="341" y="1151" width="9" height="9"/>
		<rect x="342" y="1155" width="7" height="1"/>
		<rect x="345" y="1152" width="1" height="7"/>
		<rect x="192" y="1118" width="11" height="11"/>
		<rect fill="white" x="193" y="1119" width="9" height="9"/>
		<rect x="194" y="1123" width="7" height="1"/>
		<rect x="84" y="550" width="11" height="11"/>
		<rect fill="white" x="85" y="551" width="9" height="9"/>
		<rect x="86" y="555" width="7" height="1"/>
	</g>
</svg>
