<?xml version="1.0" encoding="utf-8" ?>
<svg xmlns="http://www.w3.org/2000/svg" xmlns:xlink="http://www.w3.org/1999/xlink" width="393" height="1746">
	<clipPath id="cl_38">
		<rect x="-10" y="-5" width="393" height="1746"/>
	</clipPath>
	<g clip-path="url(#cl_38)">
		<rect fill="#FFFFC0" x="136" width="237" height="1736"/>
		<rect fill="none" stroke="gray" stroke-width="1" stroke-linecap="square" stroke-miterlimit="4" transform="translate(0.5 0.5)" x="136" width="236" height="1735"/>
		<path fill="none" stroke="black" stroke-width="1" stroke-linecap="square" stroke-miterlimit="4" transform="translate(0.5 0.5)" d="M97 1198L148 1198"/>
		<path fill="none" stroke="black" stroke-width="1" stroke-linecap="square" stroke-miterlimit="4" transform="translate(0.5 0.5)" d="M149 1198L149 794"/>
		<path transform="translate(0.5 0.5)" d="M149.5 1198L149.5 1200L149.5 1200.5L148.5 1200.5L148.5 1200L148.5 1197.5L149.5 1197.5L149.5 1198ZM149.5 1204L149.5 1206L149.5 1206.5L148.5 1206.5L148.5 1206L148.5 1203.5L149.5 1203.5L149.5 1204ZM149.5 1210L149.5 1212L149.5 1212.5L148.5 1212.5L148.5 1212L148.5 1209.5L149.5 1209.5L149.5 1210ZM149.5 1216L149.5 1218L149.5 1218.5L148.5 1218.5L148.5 1218L148.5 1215.5L149.5 1215.5L149.5 1216ZM149.5 1222L149.5 1224L149.5 1224.5L148.5 1224.5L148.5 1224L148.5 1221.5L149.5 1221.5L149.5 1222ZM149.5 1228L149.5 1230L149.5 1230.5L148.5 1230.5L148.5 1230L148.5 1227.5L149.5 1227.5L149.5 1228ZM149.5 1234L149.5 1236L149.5 1236.5L148.5 1236.5L148.5 1236L148.5 1233.5L149.5 1233.5L149.5 1234ZM149.5 1240L149.5 1242L149.5 1242.5L148.5 1242.5L148.5 1242L148.5 1239.5L149.5 1239.5L149.5 1240ZM149.5 1246L149.5 1248L149.5 1248.5L148.5 1248.5L148.5 1248L148.5 1245.5L149.5 1245.5L149.5 1246ZM149.5 1252L149.5 1254L149.5 1254.5L148.5 1254.5L148.5 1254L148.5 1251.5L149.5 1251.5L149.5 1252ZM149.5 1258L149.5 1260L149.5 1260.5L148.5 1260.5L148.5 1260L148.5 1257.5L149.5 1257.5L149.5 1258ZM149.5 1264L149.5 1266L149.5 1266.5L148.5 1266.5L148.5 1266L148.5 1263.5L149.5 1263.5L149.5 1264ZM149.5 1270L149.5 1272L149.5 1272.5L148.5 1272.5L148.5 1272L148.5 1269.5L149.5 1269.5L149.5 1270ZM149.5 1276L149.5 1278L149.5 1278.5L148.5 1278.5L148.5 1278L148.5 1275.5L149.5 1275.5L149.5 1276ZM149.5 1282L149.5 1284L149.5 1284.5L148.5 1284.5L148.5 1284L148.5 1281.5L149.5 1281.5L149.5 1282ZM149.5 1288L149.5 1290L149.5 1290.5L148.5 1290.5L148.5 1290L148.5 1287.5L149.5 1287.5L149.5 1288ZM149.5 1294L149.5 1296L149.5 1296.5L148.5 1296.5L148.5 1296L148.5 1293.5L149.5 1293.5L149.5 1294ZM149.5 1300L149.5 1302L149.5 1302.5L148.5 1302.5L148.5 1302L148.5 1299.5L149.5 1299.5L149.5 1300ZM149.5 1306L149.5 1308L149.5 1308.5L148.5 1308.5L148.5 1308L148.5 1305.5L149.5 1305.5L149.5 1306ZM149.5 1312L149.5 1314L149.5 1314.5L148.5 1314.5L148.5 1314L148.5 1311.5L149.5 1311.5L149.5 1312ZM149.5 1318L149.5 1320L149.5 1320.5L148.5 1320.5L148.5 1320L148.5 1317.5L149.5 1317.5L149.5 1318ZM149.5 1324L149.5 1326L149.5 1326.5L148.5 1326.5L148.5 1326L148.5 1323.5L149.5 1323.5L149.5 1324ZM149.5 1330L149.5 1332L149.5 1332.5L148.5 1332.5L148.5 1332L148.5 1329.5L149.5 1329.5L149.5 1330ZM149.5 1336L149.5 1338L149.5 1338.5L148.5 1338.5L148.5 1338L148.5 1335.5L149.5 1335.5L149.5 1336ZM149.5 1342L149.5 1344L149.5 1344.5L148.5 1344.5L148.5 1344L148.5 1341.5L149.5 1341.5L149.5 1342ZM149.5 1348L149.5 1350L149.5 1350.5L148.5 1350.5L148.5 1350L148.5 1347.5L149.5 1347.5L149.5 1348ZM149.5 1354L149.5 1356L149.5 1356.5L148.5 1356.5L148.5 1356L148.5 1353.5L149.5 1353.5L149.5 1354ZM149.5 1360L149.5 1362L149.5 1362.5L148.5 1362.5L148.5 1362L148.5 1359.5L149.5 1359.5L149.5 1360ZM149.5 1366L149.5 1368L149.5 1368.5L148.5 1368.5L148.5 1368L148.5 1365.5L149.5 1365.5L149.5 1366ZM149.5 1372L149.5 1374L149.5 1374.5L148.5 1374.5L148.5 1374L148.5 1371.5L149.5 1371.5L149.5 1372ZM149.5 1378L149.5 1380L149.5 1380.5L148.5 1380.5L148.5 1380L148.5 1377.5L149.5 1377.5L149.5 1378ZM149.5 1384L149.5 1386L149.5 1386.5L148.5 1386.5L148.5 1386L148.5 1383.5L149.5 1383.5L149.5 1384ZM149.5 1390L149.5 1392L149.5 1392.5L148.5 1392.5L148.5 1392L148.5 1389.5L149.5 1389.5L149.5 1390ZM149.5 1396L149.5 1398L149.5 1398.5L148.5 1398.5L148.5 1398L148.5 1395.5L149.5 1395.5L149.5 1396ZM149.5 1402L149.5 1404L149.5 1404.5L148.5 1404.5L148.5 1404L148.5 1401.5L149.5 1401.5L149.5 1402ZM149.5 1408L149.5 1410L149.5 1410.5L148.5 1410.5L148.5 1410L148.5 1407.5L149.5 1407.5L149.5 1408ZM149.5 1414L149.5 1416L149.5 1416.5L148.5 1416.5L148.5 1416L148.5 1413.5L149.5 1413.5L149.5 1414ZM149.5 1420L149.5 1422L149.5 1422.5L148.5 1422.5L148.5 1422L148.5 1419.5L149.5 1419.5L149.5 1420ZM149.5 1426L149.5 1428L149.5 1428.5L148.5 1428.5L148.5 1428L148.5 1425.5L149.5 1425.5L149.5 1426ZM149.5 1432L149.5 1434L149.5 1434.5L148.5 1434.5L148.5 1434L148.5 1431.5L149.5 1431.5L149.5 1432ZM149.5 1438L149.5 1440L149.5 1440.5L148.5 1440.5L148.5 1440L148.5 1437.5L149.5 1437.5L149.5 1438ZM149.5 1444L149.5 1446L149.5 1446.5L148.5 1446.5L148.5 1446L148.5 1443.5L149.5 1443.5L149.5 1444ZM149.5 1450L149.5 1452L149.5 1452.5L148.5 1452.5L148.5 1452L148.5 1449.5L149.5 1449.5L149.5 1450ZM149.5 1456L149.5 1458L149.5 1458.5L148.5 1458.5L148.5 1458L148.5 1455.5L149.5 1455.5L149.5 1456ZM149.5 1462L149.5 1464L149.5 1464.5L148.5 1464.5L148.5 1464L148.5 1461.5L149.5 1461.5L149.5 1462ZM149.5 1468L149.5 1470L149.5 1470.5L148.5 1470.5L148.5 1470L148.5 1467.5L149.5 1467.5L149.5 1468ZM149.5 1474L149.5 1476L149.5 1476.5L148.5 1476.5L148.5 1476L148.5 1473.5L149.5 1473.5L149.5 1474ZM149.5 1480L149.5 1482L149.5 1482.5L148.5 1482.5L148.5 1482L148.5 1479.5L149.5 1479.5L149.5 1480ZM149.5 1486L149.5 1488L149.5 1488.5L148.5 1488.5L148.5 1488L148.5 1485.5L149.5 1485.5L149.5 1486ZM149.5 1492L149.5 1494L149.5 1494.5L148.5 1494.5L148.5 1494L148.5 1491.5L149.5 1491.5L149.5 1492ZM149.5 1498L149.5 1500L149.5 1500.5L148.5 1500.5L148.5 1500L148.5 1497.5L149.5 1497.5L149.5 1498ZM149.5 1504L149.5 1506L149.5 1506.5L148.5 1506.5L148.5 1506L148.5 1503.5L149.5 1503.5L149.5 1504ZM149.5 1510L149.5 1512L149.5 1512.5L148.5 1512.5L148.5 1512L148.5 1509.5L149.5 1509.5L149.5 1510ZM149.5 1516L149.5 1518L149.5 1518.5L148.5 1518.5L148.5 1518L148.5 1515.5L149.5 1515.5L149.5 1516ZM149.5 1522L149.5 1524L149.5 1524.5L148.5 1524.5L148.5 1524L148.5 1521.5L149.5 1521.5L149.5 1522ZM149.5 1528L149.5 1530L149.5 1530.5L148.5 1530.5L148.5 1530L148.5 1527.5L149.5 1527.5L149.5 1528ZM149.5 1534L149.5 1536L149.5 1536.5L148.5 1536.5L148.5 1536L148.5 1533.5L149.5 1533.5L149.5 1534ZM149.5 1540L149.5 1542L149.5 1542.5L148.5 1542.5L148.5 1542L148.5 1539.5L149.5 1539.5L149.5 1540ZM149.5 1546L149.5 1548L149.5 1548.5L148.5 1548.5L148.5 1548L148.5 1545.5L149.5 1545.5L149.5 1546ZM149.5 1552L149.5 1554L149.5 1554.5L148.5 1554.5L148.5 1554L148.5 1551.5L149.5 1551.5L149.5 1552ZM149.5 1558L149.5 1560L149.5 1560.5L148.5 1560.5L148.5 1560L148.5 1557.5L149.5 1557.5L149.5 1558ZM149.5 1564L149.5 1566L149.5 1566.5L148.5 1566.5L148.5 1566L148.5 1563.5L149.5 1563.5L149.5 1564ZM149.5 1570L149.5 1572L149.5 1572.5L148.5 1572.5L148.5 1572L148.5 1569.5L149.5 1569.5L149.5 1570ZM149.5 1576L149.5 1578L149.5 1578.5L148.5 1578.5L148.5 1578L148.5 1575.5L149.5 1575.5L149.5 1576ZM149.5 1582L149.5 1584L149.5 1584.5L148.5 1584.5L148.5 1584L148.5 1581.5L149.5 1581.5L149.5 1582ZM149.5 1588L149.5 1590L149.5 1590.5L148.5 1590.5L148.5 1590L148.5 1587.5L149.5 1587.5L149.5 1588ZM149.5 1594L149.5 1596L149.5 1596.5L148.5 1596.5L148.5 1596L148.5 1593.5L149.5 1593.5L149.5 1594ZM149.5 1600L149.5 1602.5L148.5 1602.5L148.5 1599.5L149.5 1599.5L149.5 1600Z"/>
		<path transform="translate(0.5 0.5)" d="M149 1602.5L151 1602.5L151.5 1602.5L151.5 1603.5L151 1603.5L148.5 1603.5L148.5 1602.5L149 1602.5ZM155 1602.5L157 1602.5L157.5 1602.5L157.5 1603.5L157 1603.5L154.5 1603.5L154.5 1602.5L155 1602.5ZM161 1602.5L163.5 1602.5L163.5 1603.5L160.5 1603.5L160.5 1602.5L161 1602.5Z"/>
		<path fill="none" stroke="black" stroke-width="1" stroke-linecap="square" stroke-miterlimit="4" transform="translate(0.5 0.5)" d="M149 793L163 793"/>
		<rect fill="silver" x="4" y="1192" width="92" height="21"/>
		<rect fill="white" y="1188" width="92" height="21"/>
		<rect fill="#FFFFC0" x="144" y="8" width="81" height="16"/>
		<text fill="gray" font-size="12" font-weight="600" font-family="Segoe UI" x="144, 153.09961, 160.35938, 166.81641, 170.22656, 177.59766, 182.32617, 189.66211, 197.10352, 203.5957, 210.05273, 217.49414, " y="21, ">
				QualPropType
		</text>
		<rect fill="white" x="5" y="1215" width="116" height="24"/>
		<text fill="gray" font-size="9" font-family="Segoe UI" x="5, 7.3950195, 12.488281, 17.788086, 19.967773, 24.125, 28.704102, 31.753906, 33.933594, 39.207031, 44.300293, 46.765625, 52.039062, 54.855957, 57.321289, 60.371094, 65.464355, 70.170898, 72.63623, 77.215332, 81.372559, 85.529785, 90.236328, 94.055176, 97.874023, 100.05371, 105.34473, 107.52441, 109.7041, 111.88379, 114.93359, " y="1225, ">
				Indication of the accessibility
		</text>
		<text fill="gray" font-size="9" font-family="Segoe UI" x="5, 10.273438, 13.090332, 15.555664, 18.605469, 23.69873, 28.405273, 30.870605, 35.577148, 39.888184, 44.594727, 49.687988, " y="1237, ">
				of the event
		</text>
		<rect fill="white" x="9" y="1190" width="71" height="16"/>
		<text font-size="12" font-weight="600" font-family="Segoe UI" x="9, 15.457031, 21.216797, 26.976562, 33.46875, 38.748047, 44.027344, 50.455078, 55.125, 61.582031, 66.251953, 73.511719, " y="1203, ">
				accessStatus
		</text>
		<rect fill="none" stroke="black" stroke-width="1" stroke-linecap="square" stroke-miterlimit="4" transform="translate(0.5 0.5)" y="1188" width="91" height="20"/>
		<path fill="white" d="M241 55L241 36L164 36L164 55L164 1549L311 1549L311 55L241 55Z"/>
		<rect fill="white" x="184" y="38" width="51" height="16"/>
		<text font-size="12" font-style="italic" font-family="Segoe UI" x="184, 190.50391, 194.38281, 198.26172, 202.5332, 205.63867, 212.14258, 218.83984, 222.73047, 228.57227, " y="51, ">
				attributes
		</text>
		<path fill="none" stroke="black" stroke-width="1" stroke-linecap="square" stroke-miterlimit="4" transform="translate(0.5 0.5)" d="M241 55L241 36L164 36L164 55L164 1549L311 1549L311 55L241 55Z"/>
		<rect fill="silver" x="182" y="68" width="52" height="21"/>
		<rect fill="white" x="178" y="64" width="52" height="21"/>
		<rect fill="white" x="183" y="91" width="101" height="24"/>
		<text fill="gray" font-size="9" font-family="Segoe UI" x="183, 187.71533, 192.80859, 197.51514, 199.98047, 202.16016, 207.43359, 211.59082, 216.16992, 218.34961, 220.81494, 222.99463, 228.29443, 233.00098, 238.09424, 241.14404, 243.32373, 246.14062, 248.32031, 253.02686, 256.15576, 258.62109, 263.89453, 266.71143, 269.17676, 272.22656, 277.31982, " y="101, ">
				The local identifier of the
		</text>
		<text fill="gray" font-size="9" font-family="Segoe UI" x="183, 188.29102, 191.41992, 196.69336, 201.98438, 206.69092, 209.81982, 212.86963, 217.22461, " y="113, ">
				property.
		</text>
		<rect fill="white" x="187" y="66" width="36" height="16"/>
		<text font-size="12" font-weight="600" font-family="Segoe UI" x="187, 190.41016, " y="79, ">
				id
		</text>
		<rect fill="none" stroke="black" stroke-width="1" stroke-linecap="square" stroke-miterlimit="4" transform="translate(0.5 0.5)" x="178" y="64" width="51" height="20"/>
		<rect fill="silver" x="182" y="126" width="58" height="21"/>
		<rect fill="white" x="178" y="122" width="58" height="21"/>
		<rect fill="white" x="183" y="149" width="121" height="120"/>
		<text fill="gray" font-size="9" font-family="Segoe UI" x="183, 185.39502, 188.21191, 190.67725, 193.72705, 198.82031, 203.52686, 205.99219, 211.2832, 214.41211, 219.68555, 224.97656, 229.68311, 232.81201, 235.86182, 240.2168, 242.68213, 246.99316, 251.57227, 253.75195, 258.84521, 263.55176, 266.01709, 268.19678, 272.01562, 274.48096, 279.57422, 284.84766, " y="159, ">
				If the property value is not
		</text>
		<text fill="gray" font-size="9" font-family="Segoe UI" x="183, 188.2998, 193.00635, 195.82324, 198.00293, 203.09619, 207.80273, 213.10254, 215.05371, 217.51904, 221.33789, 226.62891, 231.33545, 235.49268, 237.67236, 240.48926, 242.66895, 247.37549, 251.19434, 253.65967, 260.16357, 265.25684, 267.43652, 271.59375, 276.68701, 279.15234, 283.85889, 288.95215, 292.00195, 294.18164, 297.23145, " y="171, ">
				defined, specifies which entity
		</text>
		<text fill="gray" font-size="9" font-family="Segoe UI" x="183, 185.71582, 191.00684, 195.71338, 198.84229, 202.66113, 207.93457, 213.02783, 214.979, 217.44434, 222.71777, 225.84668, 231.14648, 235.72559, 240.81885, 242.99854, 246.81738, 251.39648, 254.44629, 256.62598, 261.89941, 266.99268, 269.45801, 274.73145, " y="183, ">
				(person, organisation or
		</text>
		<text fill="gray" font-size="9" font-family="Segoe UI" x="183, 186.81885, 191.17383, 194.99268, 198.04248, 202.74902, 210.50098, 213.2168, 215.68213, 222.18604, 224.36572, 226.54541, 228.7251, 231.19043, 235.89697, 241.19678, 243.37646, 246.42627, 248.8916, 251.94141, 257.03467, 261.74121, 264.20654, 269.49756, 272.62646, 277.8999, 283.19092, 287.89746, 291.02637, 294.07617, " y="195, ">
				system) will edit the property
		</text>
		<text fill="gray" font-size="9" font-family="Segoe UI" x="183, 187.31104, 191.89014, 194.06982, 199.16309, 203.86963, 206.33496, 209.93408, 212.39941, 217.10596, 221.23682, 226.52783, 229.65674, 234.36328, 238.18213, 242.00098, 246.70752, 252.00732, 254.47266, 259.76367, 264.11865, 266.58398, 271.16309, 273.62842, 280.41357, 285.98584, 291.25928, 296.55908, 301.26562, " y="207, ">
				value - expressed by a QCode.
		</text>
		<text fill="gray" font-size="9" font-family="Segoe UI" x="183, 185.39502, 188.21191, 190.67725, 193.72705, 198.82031, 203.52686, 205.99219, 211.2832, 214.41211, 219.68555, 224.97656, 229.68311, 232.81201, 235.86182, 240.2168, 242.68213, 246.99316, 251.57227, 253.75195, 258.84521, 263.55176, 266.01709, 268.19678, " y="219, ">
				If the property value is
		</text>
		<text fill="gray" font-size="9" font-family="Segoe UI" x="183, 188.2998, 193.00635, 195.82324, 198.00293, 203.09619, 207.80273, 213.10254, 215.05371, 217.51904, 221.33789, 226.62891, 231.33545, 235.49268, 237.67236, 240.48926, 242.66895, 247.37549, 251.19434, 253.65967, 260.16357, 265.25684, 267.43652, 271.59375, 276.68701, 279.15234, 283.85889, 288.95215, 292.00195, 294.18164, 297.23145, " y="231, ">
				defined, specifies which entity
		</text>
		<text fill="gray" font-size="9" font-family="Segoe UI" x="183, 185.71582, 191.00684, 195.71338, 198.84229, 202.66113, 207.93457, 213.02783, 214.979, 217.44434, 222.71777, 225.84668, 231.14648, 235.72559, 240.81885, 242.99854, 246.81738, 251.39648, 254.44629, 256.62598, 261.89941, 266.99268, 269.45801, 274.73145, " y="243, ">
				(person, organisation or
		</text>
		<text fill="gray" font-size="9" font-family="Segoe UI" x="183, 186.81885, 191.17383, 194.99268, 198.04248, 202.74902, 210.50098, 213.2168, 215.68213, 220.77539, 225.35449, 229.17334, 231.63867, 236.34521, 241.64502, 243.82471, 246.87451, 251.58105, 256.88086, 259.34619, 262.396, 267.48926, " y="255, ">
				system) has edited the
		</text>
		<text fill="gray" font-size="9" font-family="Segoe UI" x="183, 188.29102, 191.41992, 196.69336, 201.98438, 206.69092, 209.81982, 212.86963, 217.22461, 219.68994, 224.00098, 228.58008, 230.75977, 235.85303, 240.55957, " y="267, ">
				property value.
		</text>
		<rect fill="white" x="187" y="124" width="42" height="16"/>
		<text font-size="12" font-weight="600" font-family="Segoe UI" x="187, 192.75977, 197.48828, 203.98047, 210.4375, 215.06055, 222.39648, " y="137, ">
				creator
		</text>
		<rect fill="none" stroke="black" stroke-width="1" stroke-linecap="square" stroke-miterlimit="4" transform="translate(0.5 0.5)" x="178" y="122" width="57" height="20"/>
		<rect fill="silver" x="182" y="280" width="73" height="21"/>
		<rect fill="white" x="178" y="276" width="73" height="21"/>
		<rect fill="white" x="183" y="303" width="120" height="108"/>
		<text fill="gray" font-size="9" font-family="Segoe UI" x="183, 185.39502, 188.21191, 190.67725, 193.72705, 198.82031, 203.52686, 205.99219, 211.2832, 214.41211, 219.68555, 224.97656, 229.68311, 232.81201, 235.86182, 240.2168, 242.68213, 246.99316, 251.57227, 253.75195, 258.84521, 263.55176, 266.01709, 268.19678, 272.01562, 274.48096, 279.57422, 284.84766, " y="313, ">
				If the property value is not
		</text>
		<text fill="gray" font-size="9" font-family="Segoe UI" x="183, 188.2998, 193.00635, 195.82324, 198.00293, 203.09619, 207.80273, 213.10254, 215.05371, 217.51904, 221.33789, 226.62891, 231.33545, 235.49268, 237.67236, 240.48926, 242.66895, 247.37549, 251.19434, 253.65967, 260.16357, 265.25684, 267.43652, 271.59375, 276.68701, 279.15234, 283.85889, 288.95215, 292.00195, 294.18164, 297.23145, " y="325, ">
				defined, specifies which entity
		</text>
		<text fill="gray" font-size="9" font-family="Segoe UI" x="183, 185.71582, 191.00684, 195.71338, 198.84229, 202.66113, 207.93457, 213.02783, 214.979, 217.44434, 222.71777, 225.84668, 231.14648, 235.72559, 240.81885, 242.99854, 246.81738, 251.39648, 254.44629, 256.62598, 261.89941, 266.99268, 269.45801, 274.73145, " y="337, ">
				(person, organisation or
		</text>
		<text fill="gray" font-size="9" font-family="Segoe UI" x="183, 186.81885, 191.17383, 194.99268, 198.04248, 202.74902, 210.50098, 213.2168, 215.68213, 222.18604, 224.36572, 226.54541, 228.7251, 231.19043, 235.89697, 241.19678, 243.37646, 246.42627, 248.8916, 251.94141, 257.03467, 261.74121, 264.20654, 269.49756, 272.62646, 277.8999, 283.19092, 287.89746, 291.02637, 294.07617, " y="349, ">
				system) will edit the property
		</text>
		<text fill="gray" font-size="9" font-family="Segoe UI" x="183, 186.59912, 189.06445, 193.771, 197.90186, 203.19287, 206.32178, 211.02832, 214.84717, 218.66602, 223.37256, 228.67236, 231.1377, 236.42871, 240.78369, 243.24902, 247.82812, 250.29346, 256.47656, 261.85986, 264.25488, 266.20605, 268.67139, 271.06641, 273.8833, 276.34863, 279.39844, 284.4917, " y="361, ">
				- expressed by a URI. If the
		</text>
		<text fill="gray" font-size="9" font-family="Segoe UI" x="183, 188.29102, 191.41992, 196.69336, 201.98438, 206.69092, 209.81982, 212.86963, 217.22461, 219.68994, 224.00098, 228.58008, 230.75977, 235.85303, 240.55957, 243.0249, 245.20459, 249.02344, 251.48877, 256.78857, 261.49512, 264.31201, 266.4917, 271.58496, 276.2915, 281.59131, " y="373, ">
				property value is defined,
		</text>
		<text fill="gray" font-size="9" font-family="Segoe UI" x="183, 186.81885, 192.10986, 196.81641, 200.97363, 203.15332, 205.97021, 208.1499, 212.85645, 216.67529, 219.14062, 225.64453, 230.73779, 232.91748, 237.07471, 242.16797, 244.6333, 249.33984, 254.43311, 257.48291, 259.6626, 262.7124, 267.06738, 269.53271, 272.24854, 277.53955, 282.24609, 285.375, 289.19385, 294.46729, 299.56055, " y="385, ">
				specifies which entity (person,
		</text>
		<text fill="gray" font-size="9" font-family="Segoe UI" x="183, 188.27344, 191.40234, 196.70215, 201.28125, 206.37451, 208.5542, 212.37305, 216.95215, 220.00195, 222.18164, 227.45508, 232.54834, 235.01367, 240.28711, 243.41602, 245.88135, 249.7002, 254.05518, 257.87402, 260.92383, 265.63037, 273.38232, 276.09814, 278.56348, 283.65674, 288.23584, " y="397, ">
				organisation or system) has
		</text>
		<text fill="gray" font-size="9" font-family="Segoe UI" x="183, 187.70654, 193.00635, 195.18604, 198.23584, 202.94238, 208.24219, 210.70752, 213.75732, 218.85059, 223.55713, 226.02246, 231.31348, 234.44238, 239.71582, 245.00684, 249.71338, 252.84229, 255.89209, 260.24707, " y="409, ">
				edited the property.
		</text>
		<rect fill="white" x="187" y="278" width="57" height="16"/>
		<text font-size="12" font-weight="600" font-family="Segoe UI" x="187, 192.75977, 197.48828, 203.98047, 210.4375, 215.06055, 222.39648, 227.20703, 234.4668, 239.28906, " y="291, ">
				creatoruri
		</text>
		<rect fill="none" stroke="black" stroke-width="1" stroke-linecap="square" stroke-miterlimit="4" transform="translate(0.5 0.5)" x="178" y="276" width="72" height="20"/>
		<rect fill="silver" x="182" y="422" width="69" height="21"/>
		<rect fill="white" x="178" y="418" width="69" height="21"/>
		<rect fill="white" x="183" y="445" width="119" height="72"/>
		<text fill="gray" font-size="9" font-family="Segoe UI" x="183, 187.71533, 192.80859, 197.51514, 199.98047, 205.28027, 209.85938, 212.90918, 217.61572, 220.08105, 222.79688, 227.37598, 232.46924, 237.76904, 239.72021, 242.18555, 247.45898, 252.75, 255.7998, 257.97949, 263.25293, 268.34619, 272.92529, 275.10498, 277.28467, 281.63965, 283.59082, 286.05615, 289.10596, 294.19922, " y="455, ">
				The date (and, optionally, the
		</text>
		<text fill="gray" font-size="9" font-family="Segoe UI" x="183, 186.0498, 188.22949, 195.98145, 200.68799, 203.40381, 205.86914, 212.37305, 217.46631, 222.17285, 227.26611, 229.73145, 232.78125, 237.87451, 242.58105, 245.04639, 250.3374, 253.46631, 258.73975, 264.03076, 268.7373, 271.86621, 274.91602, 279.271, 281.73633, 288.24023, 292.81934, " y="467, ">
				time) when the property was
		</text>
		<text fill="gray" font-size="9" font-family="Segoe UI" x="183, 185.17969, 189.75879, 193.57764, 196.62744, 199.09277, 206.84473, 212.11816, 217.41797, 219.59766, 222.41455, 224.59424, 229.30078, 234.60059, 236.55176, 239.01709, 243.73242, 248.82568, 253.53223, 255.99756, 258.17725, 263.27051, 265.4502, 268.5, 270.67969, 275.25879, 277.43848, 279.90381, 284.21484, 288.79395, 290.97363, 296.06689, " y="479, ">
				last modified. The initial value
		</text>
		<text fill="gray" font-size="9" font-family="Segoe UI" x="183, 185.17969, 188.99854, 191.46387, 194.51367, 199.60693, 204.31348, 206.77881, 212.07861, 216.65771, 219.70752, 224.41406, 226.87939, 229.59521, 234.17432, 239.26758, 244.56738, 246.51855, 248.98389, 254.25732, 259.54834, 262.59814, 264.77783, 270.05127, 275.14453, 279.72363, 281.90332, 284.08301, 288.43799, " y="491, ">
				is the date (and, optionally,
		</text>
		<text fill="gray" font-size="9" font-family="Segoe UI" x="183, 186.0498, 191.14307, 195.84961, 198.31494, 201.36475, 203.54443, 211.29639, 216.00293, 218.71875, 221.18408, 226.45752, 229.27441, 231.73975, 235.89697, 239.02588, 243.73242, 248.31152, 251.36133, 253.54102, 258.81445, 263.90771, 266.37305, 271.64648, 274.46338, 276.92871, 279.97852, 285.07178, " y="503, ">
				the time) of creation of the
		</text>
		<text fill="gray" font-size="9" font-family="Segoe UI" x="183, 188.29102, 191.41992, 196.69336, 201.98438, 206.69092, 209.81982, 212.86963, 217.22461, " y="515, ">
				property.
		</text>
		<rect fill="white" x="187" y="420" width="53" height="16"/>
		<text font-size="12" font-weight="600" font-family="Segoe UI" x="187, 197.99219, 205.32812, 212.75781, 216.16797, 220.76758, 224.17773, 230.66992, " y="433, ">
				modified
		</text>
		<rect fill="none" stroke="black" stroke-width="1" stroke-linecap="square" stroke-miterlimit="4" transform="translate(0.5 0.5)" x="178" y="418" width="68" height="20"/>
		<rect fill="silver" x="182" y="528" width="59" height="21"/>
		<rect fill="white" x="178" y="524" width="59" height="21"/>
		<rect fill="white" x="183" y="551" width="118" height="108"/>
		<text fill="gray" font-size="9" font-family="Segoe UI" x="183, 185.39502, 188.21191, 190.67725, 194.49609, 199.20264, 202.25244, 204.71777, 207.76758, 213.04102, 215.50635, 218.55615, 221.68506, 226.77832, 231.48486, 233.9502, 237, 242.09326, " y="561, ">
				If set to true the
		</text>
		<text fill="gray" font-size="9" font-family="Segoe UI" x="183, 187.15723, 192.43066, 195.55957, 198.68848, 203.39502, 207.21387, 212.50488, 217.77832, 222.87158, 228.17139, 230.35107, 235.44434, 240.74414, 243.20947, 248.50049, 251.62939, 256.90283, 262.19385, 266.90039, 270.0293, 273.0791, 277.43408, 279.89941, 286.40332, 290.98242, " y="573, ">
				corresponding property was
		</text>
		<text fill="gray" font-size="9" font-family="Segoe UI" x="183, 187.5791, 192.87891, 198.17871, 202.88525, 208.18506, 210.65039, 213.7002, 218.97363, 221.43896, 224.48877, 229.58203, 234.28857, 236.75391, 242.92822, 247.77979, 250.24512, 252.64014, 255.68994, 260.39648, 268.14844, 270.61377, 273.43066, 278.7041, 281.83301, 284.29834, " y="585, ">
				added to the G2 Item for a
		</text>
		<text fill="gray" font-size="9" font-family="Segoe UI" x="183, 186.81885, 192.10986, 196.81641, 200.97363, 203.15332, 205.97021, 208.1499, 212.30713, 214.77246, 218.92969, 224.02295, 227.8418, 230.8916, 236.16504, 243.91699, 248.62354, 251.75244, 254.21777, 259.49121, 262.62012, 265.08545, 270.38525, 273.51416, 278.7876, 283.88086, 289.17188, 291.63721, 296.91064, " y="597, ">
				specific customer or group of
		</text>
		<text fill="gray" font-size="9" font-family="Segoe UI" x="183, 187.15723, 192.25049, 196.06934, 199.11914, 204.39258, 212.14453, 216.85107, 219.97998, 223.79883, 226.26416, 231.5376, 236.63086, 238.81055, 243.16553, 245.1167, 247.58203, 252.29736, 257.39062, 262.09717, 264.5625, 269.8623, 274.56885, 277.38574, 281.96484, 287.05811, 289.23779, " y="609, ">
				customers only. The default
		</text>
		<text fill="gray" font-size="9" font-family="Segoe UI" x="183, 187.31104, 191.89014, 194.06982, 199.16309, 203.86963, 206.33496, 211.6084, 214.42529, 216.89062, 219.94043, 225.03369, 227.21338, 231.03223, 233.49756, 238.78857, 241.91748, 247.19092, 252.48193, 257.18848, 260.31738, 263.36719, 267.72217, 270.1875, 272.36719, 276.18604, 278.65137, 281.46826, 286.04736, 288.22705, 292.0459, " y="621, ">
				value of this property is false
		</text>
		<text fill="gray" font-size="9" font-family="Segoe UI" x="183, 189.50391, 194.59717, 196.77686, 200.93408, 206.02734, 208.49268, 213.07178, 218.36279, 223.65381, 225.8335, 228.01318, 232.71973, 236.53857, 239.00391, 245.50781, 250.60107, 255.30762, 260.40088, 262.86621, 265.91602, 271.00928, 273.18896, " y="633, ">
				which applies when this
		</text>
		<text fill="gray" font-size="9" font-family="Segoe UI" x="183, 187.5791, 190.62891, 193.67871, 196.80762, 198.9873, 204.27832, 209.37158, 212.42139, 217.12793, 219.59326, 221.77295, 225.5918, 228.05713, 233.15039, 238.42383, 241.47363, 243.93896, 249.03223, 252.85107, 257.55762, 262.85742, 265.32275, 271.82666, 274.00635, 277.05615, 282.14941, 284.61475, 287.66455, 292.75781, " y="645, ">
				attribute is not used with the
		</text>
		<text fill="gray" font-size="9" font-family="Segoe UI" x="183, 188.29102, 191.41992, 196.69336, 201.98438, 206.69092, 209.81982, 212.86963, 217.22461, " y="657, ">
				property.
		</text>
		<rect fill="white" x="187" y="526" width="43" height="16"/>
		<text font-size="12" font-weight="600" font-family="Segoe UI" x="187, 192.75977, 200.01953, 205.29883, 209.92188, 217.25781, " y="539, ">
				custom
		</text>
		<rect fill="none" stroke="black" stroke-width="1" stroke-linecap="square" stroke-miterlimit="4" transform="translate(0.5 0.5)" x="178" y="524" width="58" height="20"/>
		<rect fill="silver" x="182" y="670" width="52" height="21"/>
		<rect fill="white" x="178" y="666" width="52" height="21"/>
		<rect fill="white" x="183" y="693" width="118" height="48"/>
		<text fill="gray" font-size="9" font-family="Segoe UI" x="183, 185.39502, 190.48828, 195.78809, 197.96777, 202.125, 206.7041, 209.75391, 214.46045, 218.2793, 220.74463, 226.03564, 230.39062, 232.85596, 239.35986, 244.45312, 246.63281, 250.79004, 255.8833, 258.34863, 266.10059, 270.80713, 275.38623, 280.47949, 284.29834, 286.76367, 289.81348, 294.90674, " y="703, ">
				Indicates by which means the
		</text>
		<text fill="gray" font-size="9" font-family="Segoe UI" x="183, 187.31104, 191.89014, 194.06982, 199.16309, 203.86963, 206.33496, 212.83887, 217.41797, 221.23682, 223.70215, 228.40869, 232.53955, 235.58936, 238.71826, 243.29736, 247.45459, 250.50439, 255.21094, 260.51074, 262.97607, 265.79297, 268.92188, 274.19531, 281.94727, 284.4126, 287.4624, 292.55566, " y="715, ">
				value was extracted from the
		</text>
		<text fill="gray" font-size="9" font-family="Segoe UI" x="183, 187.15723, 192.43066, 197.52393, 200.57373, 205.28027, 210.37354, 213.42334, 215.88867, 219.48779, 221.95312, 226.65967, 230.79053, 236.08154, 239.21045, 243.91699, 247.73584, 251.55469, 256.26123, 261.56104, 264.02637, 269.31738, 273.67236, 276.1377, " y="727, ">
				content - expressed by a
		</text>
		<text fill="gray" font-size="9" font-family="Segoe UI" x="183, 189.78516, 195.35742, 200.63086, 205.93066, " y="739, ">
				QCode
		</text>
		<rect fill="white" x="187" y="668" width="36" height="16"/>
		<text font-size="12" font-weight="600" font-family="Segoe UI" x="187, 194.22461, 201.56055, " y="681, ">
				how
		</text>
		<rect fill="none" stroke="black" stroke-width="1" stroke-linecap="square" stroke-miterlimit="4" transform="translate(0.5 0.5)" x="178" y="666" width="51" height="20"/>
		<rect fill="silver" x="182" y="752" width="57" height="21"/>
		<rect fill="white" x="178" y="748" width="57" height="21"/>
		<rect fill="white" x="183" y="775" width="118" height="36"/>
		<text fill="gray" font-size="9" font-family="Segoe UI" x="183, 185.39502, 190.48828, 195.78809, 197.96777, 202.125, 206.7041, 209.75391, 214.46045, 218.2793, 220.74463, 226.03564, 230.39062, 232.85596, 239.35986, 244.45312, 246.63281, 250.79004, 255.8833, 258.34863, 266.10059, 270.80713, 275.38623, 280.47949, 284.29834, 286.76367, 289.81348, 294.90674, " y="785, ">
				Indicates by which means the
		</text>
		<text fill="gray" font-size="9" font-family="Segoe UI" x="183, 187.31104, 191.89014, 194.06982, 199.16309, 203.86963, 206.33496, 212.83887, 217.41797, 221.23682, 223.70215, 228.40869, 232.53955, 235.58936, 238.71826, 243.29736, 247.45459, 250.50439, 255.21094, 260.51074, 262.97607, 265.79297, 268.92188, 274.19531, 281.94727, 284.4126, 287.4624, 292.55566, " y="797, ">
				value was extracted from the
		</text>
		<text fill="gray" font-size="9" font-family="Segoe UI" x="183, 187.15723, 192.43066, 197.52393, 200.57373, 205.28027, 210.37354, 213.42334, 215.88867, 219.48779, 221.95312, 226.65967, 230.79053, 236.08154, 239.21045, 243.91699, 247.73584, 251.55469, 256.26123, 261.56104, 264.02637, 269.31738, 273.67236, 276.1377, 280.7168, 283.18213, 289.36523, 294.74854, " y="809, ">
				content - expressed by a URI
		</text>
		<rect fill="white" x="187" y="750" width="41" height="16"/>
		<text font-size="12" font-weight="600" font-family="Segoe UI" x="187, 194.22461, 201.56055, 211.12891, 218.38867, 223.21094, " y="763, ">
				howuri
		</text>
		<rect fill="none" stroke="black" stroke-width="1" stroke-linecap="square" stroke-miterlimit="4" transform="translate(0.5 0.5)" x="178" y="748" width="56" height="20"/>
		<rect fill="silver" x="182" y="822" width="52" height="21"/>
		<rect fill="white" x="178" y="818" width="52" height="21"/>
		<rect fill="white" x="183" y="845" width="113" height="36"/>
		<text fill="gray" font-size="9" font-family="Segoe UI" x="183, 191.40674, 196.5, 200.85498, 203.32031, 206.37012, 211.46338, 216.16992, 218.63525, 226.38721, 231.09375, 234.14355, 238.72266, 244.02246, 248.60156, 251.65137, 256.23047, 258.6958, 263.78906, 268.36816, 272.18701, 274.65234, 279.94336, 284.6499, 289.35645, " y="855, ">
				Why the metadata has been
		</text>
		<text fill="gray" font-size="9" font-family="Segoe UI" x="183, 185.17969, 190.27295, 194.43018, 196.60986, 201.70312, 207.00293, 211.70947, 217.00928, 219.47461, 223.07373, 225.53906, 230.24561, 234.37646, 239.66748, 242.79639, 247.50293, 251.32178, 255.14062, 259.84717, 265.14697, 267.6123, 272.90332, 277.2583, 279.72363, " y="867, ">
				included - expressed by a
		</text>
		<text fill="gray" font-size="9" font-family="Segoe UI" x="183, 189.78516, 195.35742, 200.63086, 205.93066, " y="879, ">
				QCode
		</text>
		<rect fill="white" x="187" y="820" width="36" height="16"/>
		<text font-size="12" font-weight="600" font-family="Segoe UI" x="187, 196.56836, 203.79297, " y="833, ">
				why
		</text>
		<rect fill="none" stroke="black" stroke-width="1" stroke-linecap="square" stroke-miterlimit="4" transform="translate(0.5 0.5)" x="178" y="818" width="51" height="20"/>
		<rect fill="silver" x="182" y="892" width="56" height="21"/>
		<rect fill="white" x="178" y="888" width="56" height="21"/>
		<rect fill="white" x="183" y="915" width="119" height="24"/>
		<text fill="gray" font-size="9" font-family="Segoe UI" x="183, 191.40674, 196.5, 200.85498, 203.32031, 206.37012, 211.46338, 216.16992, 218.63525, 226.38721, 231.09375, 234.14355, 238.72266, 244.02246, 248.60156, 251.65137, 256.23047, 258.6958, 263.78906, 268.36816, 272.18701, 274.65234, 279.94336, 284.6499, 289.35645, " y="925, ">
				Why the metadata has been
		</text>
		<text fill="gray" font-size="9" font-family="Segoe UI" x="183, 185.17969, 190.27295, 194.43018, 196.60986, 201.70312, 207.00293, 211.70947, 217.00928, 219.47461, 223.07373, 225.53906, 230.24561, 234.37646, 239.66748, 242.79639, 247.50293, 251.32178, 255.14062, 259.84717, 265.14697, 267.6123, 272.90332, 277.2583, 279.72363, 284.30273, 286.76807, 292.95117, 298.33447, " y="937, ">
				included - expressed by a URI
		</text>
		<rect fill="white" x="187" y="890" width="40" height="16"/>
		<text font-size="12" font-weight="600" font-family="Segoe UI" x="187, 196.56836, 203.79297, 210.25, 217.50977, 222.33203, " y="903, ">
				whyuri
		</text>
		<rect fill="none" stroke="black" stroke-width="1" stroke-linecap="square" stroke-miterlimit="4" transform="translate(0.5 0.5)" x="178" y="888" width="55" height="20"/>
		<rect fill="silver" x="182" y="950" width="97" height="21"/>
		<rect fill="white" x="178" y="946" width="97" height="21"/>
		<rect fill="white" x="183" y="973" width="117" height="72"/>
		<text fill="gray" font-size="9" font-family="Segoe UI" x="183, 189.78516, 194.87842, 199.58496, 202.05029, 207.32373, 210.45264, 212.91797, 220.66992, 225.24902, 230.34229, 234.69727, 237.1626, 241.31982, 246.59326, 251.68652, 255.50537, 258.55518, 261.68408, 266.26318, 268.44287, 273.53613, 276.58594, 280.40479, 282.87012, 285.91992, 291.01318, 295.59229, " y="983, ">
				One or many constraints that
		</text>
		<text fill="gray" font-size="9" font-family="Segoe UI" x="183, 187.5791, 192.87012, 198.16113, 200.34082, 204.6958, 207.16113, 210.21094, 215.48438, 217.94971, 223.24072, 228.33398, 233.625, 235.80469, 237.98438, 241.80322, 246.89648, 249.07617, 254.16943, 259.46924, 261.93457, 264.98438, 270.07764, 274.78418, 277.24951, 281.56055, 286.13965, 288.31934, 293.4126, " y="995, ">
				apply to publishing the value
		</text>
		<text fill="gray" font-size="9" font-family="Segoe UI" x="183, 188.27344, 191.09033, 193.55566, 196.60547, 201.69873, 206.40527, 208.87061, 214.16162, 217.29053, 222.56396, 227.85498, 232.56152, 235.69043, 238.74023, 243.09521, 245.56055, 249.15967, 251.625, 256.33154, 260.4624, 265.75342, 268.88232, 273.58887, 277.40771, 281.22656, 285.93311, " y="1007, ">
				of the property - expressed
		</text>
		<text fill="gray" font-size="9" font-family="Segoe UI" x="183, 188.29102, 192.646, 195.11133, 199.69043, 202.15576, 208.94092, 214.51318, 219.78662, 225.08643, 229.79297, 231.74414, 234.20947, 238.76221, 243.34131, 247.49854, 252.5918, 255.05713, 259.21436, 264.48779, 269.58105, 273.3999, 276.44971, 279.57861, 284.15771, 286.3374, 291.43066, " y="1019, ">
				by a QCode. Each constraint
		</text>
		<text fill="gray" font-size="9" font-family="Segoe UI" x="183, 187.5791, 192.87012, 198.16113, 200.34082, 202.52051, 207.22705, 211.0459, 213.51123, 216.56104, 221.83447, 224.2998, 228.87891, 231.05859, 233.23828, 235.70361, 241.00342, 245.70996, 249.52881, 253.68604, 258.39258, 263.48584, 268.78564, 273.36475, 278.45801, " y="1031, ">
				applies to all descendant
		</text>
		<text fill="gray" font-size="9" font-family="Segoe UI" x="183, 187.70654, 189.88623, 194.59277, 202.34473, 207.05127, 212.14453, 215.19434, 219.01318, " y="1043, ">
				elements.
		</text>
		<rect fill="white" x="187" y="948" width="81" height="16"/>
		<text font-size="12" font-weight="600" font-family="Segoe UI" x="187, 194.44141, 201.70117, 209.14258, 214.90234, 222.23828, 229.49805, 234.77734, 239.44727, 244.22266, 250.67969, 254.08984, 261.34961, " y="961, ">
				pubconstraint
		</text>
		<rect fill="none" stroke="black" stroke-width="1" stroke-linecap="square" stroke-miterlimit="4" transform="translate(0.5 0.5)" x="178" y="946" width="96" height="20"/>
		<rect fill="silver" x="182" y="1056" width="112" height="21"/>
		<rect fill="white" x="178" y="1052" width="112" height="21"/>
		<rect fill="white" x="183" y="1079" width="117" height="72"/>
		<text fill="gray" font-size="9" font-family="Segoe UI" x="183, 189.78516, 194.87842, 199.58496, 202.05029, 207.32373, 210.45264, 212.91797, 220.66992, 225.24902, 230.34229, 234.69727, 237.1626, 241.31982, 246.59326, 251.68652, 255.50537, 258.55518, 261.68408, 266.26318, 268.44287, 273.53613, 276.58594, 280.40479, 282.87012, 285.91992, 291.01318, 295.59229, " y="1089, ">
				One or many constraints that
		</text>
		<text fill="gray" font-size="9" font-family="Segoe UI" x="183, 187.5791, 192.87012, 198.16113, 200.34082, 204.6958, 207.16113, 210.21094, 215.48438, 217.94971, 223.24072, 228.33398, 233.625, 235.80469, 237.98438, 241.80322, 246.89648, 249.07617, 254.16943, 259.46924, 261.93457, 264.98438, 270.07764, 274.78418, 277.24951, 281.56055, 286.13965, 288.31934, 293.4126, " y="1101, ">
				apply to publishing the value
		</text>
		<text fill="gray" font-size="9" font-family="Segoe UI" x="183, 188.27344, 191.09033, 193.55566, 196.60547, 201.69873, 206.40527, 208.87061, 214.16162, 217.29053, 222.56396, 227.85498, 232.56152, 235.69043, 238.74023, 243.09521, 245.56055, 249.15967, 251.625, 256.33154, 260.4624, 265.75342, 268.88232, 273.58887, 277.40771, 281.22656, 285.93311, " y="1113, ">
				of the property - expressed
		</text>
		<text fill="gray" font-size="9" font-family="Segoe UI" x="183, 188.29102, 192.646, 195.11133, 199.69043, 202.15576, 208.33887, 213.72217, 216.11719, 218.06836, 220.53369, 225.08643, 229.66553, 233.82275, 238.91602, 241.38135, 245.53857, 250.81201, 255.90527, 259.72412, 262.77393, 265.90283, 270.48193, 272.66162, 277.75488, " y="1125, ">
				by a URI. Each constraint
		</text>
		<text fill="gray" font-size="9" font-family="Segoe UI" x="183, 187.5791, 192.87012, 198.16113, 200.34082, 202.52051, 207.22705, 211.0459, 213.51123, 216.56104, 221.83447, 224.2998, 228.87891, 231.05859, 233.23828, 235.70361, 241.00342, 245.70996, 249.52881, 253.68604, 258.39258, 263.48584, 268.78564, 273.36475, 278.45801, " y="1137, ">
				applies to all descendant
		</text>
		<text fill="gray" font-size="9" font-family="Segoe UI" x="183, 187.70654, 189.88623, 194.59277, 202.34473, 207.05127, 212.14453, 215.19434, 219.01318, " y="1149, ">
				elements.
		</text>
		<rect fill="white" x="187" y="1054" width="96" height="16"/>
		<text font-size="12" font-weight="600" font-family="Segoe UI" x="187, 194.44141, 201.70117, 209.14258, 214.90234, 222.23828, 229.49805, 234.77734, 239.44727, 244.22266, 250.67969, 254.08984, 261.34961, 266.01953, 273.2793, 278.10156, " y="1067, ">
				pubconstrainturi
		</text>
		<rect fill="none" stroke="black" stroke-width="1" stroke-linecap="square" stroke-miterlimit="4" transform="translate(0.5 0.5)" x="178" y="1052" width="111" height="20"/>
		<rect fill="silver" x="182" y="1162" width="52" height="21"/>
		<rect fill="white" x="178" y="1158" width="52" height="21"/>
		<rect fill="white" x="183" y="1185" width="121" height="72"/>
		<text fill="gray" font-size="9" font-family="Segoe UI" x="183, 188.80518, 191.27051, 195.42773, 200.70117, 205.79443, 209.95166, 214.6582, 219.94922, 222.99902, 225.46436, 227.64404, 232.94385, 237.65039, 242.74365, 245.79346, 247.97314, 250.79004, 252.96973, 257.67627, 260.80518, 263.27051, 267.97705, 272.10791, 277.39893, 280.52783, 285.23438, 289.05322, 292.87207, 297.57861, " y="1195, ">
				A concept identifier expressed
		</text>
		<text fill="gray" font-size="9" font-family="Segoe UI" x="183, 187.5791, 191.39795, 193.86328, 198.44238, 200.90771, 204.72656, 207.77637, 210.90527, 213.08496, 218.17822, 223.47803, 225.94336, 231.2168, 234.03369, 236.49902, 239.54883, 244.64209, 249.34863, 251.81396, 254.63086, 259.9043, 263.0332, 270.78516, 273.25049, 277.06934, 280.88818, 284.70703, 286.6582, 290.81543, 294.97266, 299.12988, " y="1207, ">
				as a string of the form sss:ccc,
		</text>
		<text fill="gray" font-size="9" font-family="Segoe UI" x="183, 189.50391, 194.59717, 199.30371, 202.43262, 207.13916, 209.60449, 213.42334, 217.24219, 221.06104, 223.52637, 225.70605, 229.5249, 231.99023, 236.56934, 239.03467, 242.85352, 247.01074, 252.104, 256.81055, 264.5625, 269.26904, 271.73438, 276.31348, 278.49316, 280.67285, 285.25195, " y="1219, ">
				where sss is a scheme alias
		</text>
		<text fill="gray" font-size="9" font-family="Segoe UI" x="183, 187.5791, 192.67236, 197.97217, 200.4375, 204.59473, 208.75195, 212.90918, 215.37451, 217.5542, 221.37305, 223.83838, 228.41748, 230.88281, 235.04004, 240.31348, 245.61328, 250.31982, 252.271, 254.73633, 259.28906, 261.46875, 264.51855, 269.61182, 274.31836, 277.44727, 279.9126, 282.9624, 288.05566, " y="1231, ">
				and ccc is a code. Either the
		</text>
		<text fill="gray" font-size="9" font-family="Segoe UI" x="183, 188.2998, 192.45703, 197.73047, 203.03027, 207.73682, 210.20215, 215.47559, 218.60449, 221.06982, 224.11963, 229.21289, 233.91943, 236.38477, 241.47803, 244.60693, 246.78662, 249.25195, 253.83105, 256.88086, 259.93066, 263.05957, 265.23926, 270.53027, 275.62354, 278.67334, " y="1243, ">
				qcode or the uri attribute
		</text>
		<text fill="gray" font-size="9" font-family="Segoe UI" x="183, 191.08154, 197.26465, 202.0459, 206.76123, 209.22656, 214.51758, 219.22412, 221.68945, 226.78271, 230.60156, 235.30811, " y="1255, ">
				MUST be used
		</text>
		<rect fill="white" x="187" y="1160" width="36" height="16"/>
		<text font-size="12" font-weight="600" font-family="Segoe UI" x="187, 194.42969, 200.18945, 207.52539, 214.95508, " y="1173, ">
				qcode
		</text>
		<rect fill="none" stroke="black" stroke-width="1" stroke-linecap="square" stroke-miterlimit="4" transform="translate(0.5 0.5)" x="178" y="1158" width="51" height="20"/>
		<rect fill="silver" x="182" y="1268" width="52" height="21"/>
		<rect fill="white" x="178" y="1264" width="52" height="21"/>
		<rect fill="white" x="183" y="1291" width="113" height="48"/>
		<text fill="gray" font-size="9" font-family="Segoe UI" x="183, 188.80518, 191.27051, 197.45361, 202.83691, 205.23193, 207.69727, 214.20117, 219.29443, 221.47412, 225.63135, 230.72461, 233.18994, 235.36963, 240.66943, 245.37598, 250.46924, 253.51904, 255.69873, 258.51562, 260.69531, 265.40186, 269.2207, 271.68604, " y="1301, ">
				A URI which identifies a
		</text>
		<text fill="gray" font-size="9" font-family="Segoe UI" x="183, 187.15723, 192.43066, 197.52393, 201.68115, 206.3877, 211.67871, 214.72852, 219.65918, 223.2583, 225.72363, 230.43018, 232.60986, 235.65967, 240.75293, 245.45947, 248.58838, 251.05371, 254.10352, 259.19678, 263.90332, 268.83398, 274.13379, 278.29102, 283.56445, 288.86426, " y="1313, ">
				concept - either the qcode
		</text>
		<text fill="gray" font-size="9" font-family="Segoe UI" x="183, 188.27344, 191.40234, 193.86768, 196.91748, 202.01074, 206.71729, 209.18262, 214.27588, 217.40479, 219.58447, 222.0498, 226.62891, 229.67871, 232.72852, 235.85742, 238.03711, 243.32812, 248.42139, 251.47119, 256.17773, 258.64307, 266.72461, 272.90771, 277.68896, 282.4043, 284.86963, 290.16064, " y="1325, ">
				or the uri attribute MUST be
		</text>
		<text fill="gray" font-size="9" font-family="Segoe UI" x="183, 188.09326, 191.91211, 196.61865, " y="1337, ">
				used
		</text>
		<rect fill="white" x="187" y="1266" width="36" height="16"/>
		<text font-size="12" font-weight="600" font-family="Segoe UI" x="187, 194.25977, 199.08203, " y="1279, ">
				uri
		</text>
		<rect fill="none" stroke="black" stroke-width="1" stroke-linecap="square" stroke-miterlimit="4" transform="translate(0.5 0.5)" x="178" y="1264" width="51" height="20"/>
		<path fill="silver" d="M182 1355L187 1350L255 1350L260 1355L260 1366L255 1371L187 1371L182 1366L182 1355Z"/>
		<path fill="white" d="M178 1351L183 1346L251 1346L256 1351L256 1362L251 1367L183 1367L178 1362L178 1351Z"/>
		<rect fill="white" x="205" y="1348" width="46" height="16"/>
		<text font-size="12" font-weight="600" font-family="Segoe UI" x="205, 212.10742, 219.21484, 226.55078, 231.2207, 238.44531, 244.9375, " y="1361, ">
				##other
		</text>
		<rect fill="white" x="183" y="1348" width="20" height="16"/>
		<text fill="gray" font-size="12" font-family="Segoe UI" x="183, 189.10547, 195.89648, " y="1361, ">
				any
		</text>
		<path fill="none" stroke="black" stroke-width="1" stroke-linecap="square" stroke-miterlimit="4" transform="translate(0.5 0.5)" d="M178 1351L183 1346L250 1346L255 1351L255 1361L250 1366L183 1366L178 1361L178 1351Z"/>
		<rect fill="silver" x="182" y="1378" width="66" height="21"/>
		<rect fill="white" x="178" y="1374" width="66" height="21"/>
		<rect fill="white" x="183" y="1401" width="121" height="84"/>
		<text fill="gray" font-size="9" font-family="Segoe UI" x="183, 187.78125, 193.07227, 197.77881, 201.93604, 204.11572, 206.93262, 209.1123, 213.81885, 217.6377, 220.10303, 223.15283, 228.24609, 232.95264, 235.41797, 237.59766, 242.17676, 247.27002, 252.56982, 257.66309, 262.24219, 267.54199, 272.24854, 274.71387, 279.9873, 282.8042, 285.26953, 288.31934, 293.4126, 295.59229, " y="1411, ">
				Specifies the language of this
		</text>
		<text fill="gray" font-size="9" font-family="Segoe UI" x="183, 188.29102, 191.41992, 196.69336, 201.98438, 206.69092, 209.81982, 212.86963, 217.22461, 219.68994, 224.26904, 229.3623, 234.66211, 237.12744, 242.41846, 247.69189, 250.7417, 255.44824, 260.5415, 263.59131, 265.771, 270.3501, 272.52979, 274.70947, 279.06445, 281.52979, 286.10889, 288.28857, " y="1423, ">
				property and potentially all
		</text>
		<text fill="gray" font-size="9" font-family="Segoe UI" x="183, 188.2998, 193.00635, 196.8252, 200.98242, 205.68896, 210.78223, 216.08203, 220.66113, 225.75439, 228.8042, 231.26953, 236.56055, 239.68945, 244.96289, 250.25391, 254.96045, 258.08936, 261.13916, 263.31885, 268.02539, 271.84424, " y="1435, ">
				descendant properties.
		</text>
		<text fill="gray" font-size="9" font-family="Segoe UI" x="183, 187.13086, 194.88281, 197.0625, 199.01367, 201.19336, 205.77246, 210.86572, 216.16553, 218.63086, 222.94189, 227.521, 229.70068, 234.79395, 239.50049, 243.31934, 245.78467, 251.05811, 253.875, 256.34033, 261.64014, 266.34668, 270.16553, 274.32275, 279.0293, 284.12256, 289.42236, 294.00146, 299.09473, " y="1447, ">
				xml:lang values of descendant
		</text>
		<text fill="gray" font-size="9" font-family="Segoe UI" x="183, 188.29102, 191.41992, 196.69336, 201.98438, 206.69092, 209.81982, 212.86963, 215.04932, 219.75586, 223.57471, 226.04004, 231.31348, 235.62451, 240.33105, 243.45996, 246.58887, 248.76855, 254.06836, 258.7749, 261.24023, 264.29004, 269.3833, 271.56299, 275.38184, 277.84717, 282.1582, 286.7373, 288.91699, 294.01025, 298.7168, " y="1459, ">
				properties override this value.
		</text>
		<text fill="gray" font-size="9" font-family="Segoe UI" x="183, 187.93066, 192.50977, 194.68945, 199.78271, 204.48926, 208.30811, 210.77344, 215.35254, 218.48145, 223.18799, 225.65332, 230.95312, 235.65967, 238.70947, 243.41602, 246.54492, 254.29688, 256.47656, 261.56982, 266.27637, 271.57617, 274.0415, 279.33252, " y="1471, ">
				Values are determined by
		</text>
		<text fill="gray" font-size="9" font-family="Segoe UI" x="183, 185.39502, 190.48828, 193.53809, 198.24463, 201.37354, 206.4668, 211.17334, 214.22314, 216.68848, 221.84766, 227.41992, 232.46045, 234.92578, 239.77734, 244.62891, " y="1483, ">
				Internet BCP 47.
		</text>
		<rect fill="white" x="187" y="1376" width="50" height="16"/>
		<text font-size="12" font-weight="600" font-family="Segoe UI" x="187, 193.62695, 204.61914, 208.0293, 211.28125, 214.69141, 221.14844, 228.4082, " y="1389, ">
				xml:lang
		</text>
		<path fill="none" stroke="black" stroke-width="2" stroke-miterlimit="4" transform="translate(0.5 0.5)" d="M180 1392L184 1388"/>
		<path fill="none" stroke="black" stroke-width="1" stroke-linecap="square" stroke-miterlimit="4" transform="translate(0.5 0.5)" d="M181 1388L184 1388L184 1391"/>
		<rect fill="none" stroke="black" stroke-width="1" stroke-linecap="square" stroke-miterlimit="4" transform="translate(0.5 0.5)" x="178" y="1374" width="65" height="20"/>
		<rect fill="silver" x="182" y="1496" width="52" height="21"/>
		<rect fill="white" x="178" y="1492" width="52" height="21"/>
		<rect fill="white" x="183" y="1519" width="116" height="24"/>
		<text fill="gray" font-size="9" font-family="Segoe UI" x="183, 187.71533, 192.80859, 197.51514, 199.98047, 205.28027, 207.45996, 210.58887, 215.29541, 219.45264, 222.50244, 224.68213, 229.95557, 235.04883, 239.62793, 241.80762, 243.9873, 247.03711, 251.39209, 253.85742, 259.13086, 261.94775, 264.41309, 267.46289, 272.16943, 276.30029, 279.3501, 284.44336, 289.02246, " y="1529, ">
				The directionality of textual
		</text>
		<text fill="gray" font-size="9" font-family="Segoe UI" x="183, 187.15723, 192.43066, 197.52393, 200.57373, 205.28027, 210.37354, 213.42334, 215.88867, 218.60449, 223.31104, 228.4043, 233.49756, 241.24951, 245.95605, 249.08496, 253.66406, 256.71387, 258.89355, 264.16699, 269.26025, 271.21143, 273.67676, 275.85645, 278.90625, 282.03516, 283.98633, 286.45166, 289.58057, 292.63037, 294.81006, " y="1541, ">
				content (enumeration: ltr, rtl)
		</text>
		<rect fill="white" x="187" y="1494" width="36" height="16"/>
		<text font-size="12" font-weight="600" font-family="Segoe UI" x="187, 194.42969, 197.83984, " y="1507, ">
				dir
		</text>
		<rect fill="none" stroke="black" stroke-width="1" stroke-linecap="square" stroke-miterlimit="4" transform="translate(0.5 0.5)" x="178" y="1492" width="51" height="20"/>
		<rect x="169" y="41" width="11" height="11"/>
		<rect fill="white" x="170" y="42" width="9" height="9"/>
		<rect x="171" y="46" width="7" height="1"/>
		<path fill="none" stroke="black" stroke-width="1" stroke-linecap="square" stroke-miterlimit="4" transform="translate(0.5 0.5)" d="M209 1603L217 1603"/>
		<path fill="none" stroke="black" stroke-width="1" stroke-linecap="square" stroke-miterlimit="4" transform="translate(0.5 0.5)" d="M218 1603L218 1573"/>
		<path fill="none" stroke="black" stroke-width="1" stroke-linecap="square" stroke-miterlimit="4" transform="translate(0.5 0.5)" d="M218 1603L218 1634"/>
		<path fill="none" stroke="black" stroke-width="1" stroke-linecap="square" stroke-miterlimit="4" transform="translate(0.5 0.5)" d="M218 1572L232 1572"/>
		<path fill="none" stroke="black" stroke-width="1" stroke-linecap="square" stroke-miterlimit="4" transform="translate(0.5 0.5)" d="M218 1635L232 1635"/>
		<path fill="silver" d="M171 1605L176 1600L201 1600L206 1605L206 1616L201 1621L176 1621L171 1616L171 1605Z"/>
		<path fill="white" d="M167 1601L172 1596L196 1596L201 1601L201 1611L196 1616L172 1616L167 1611L167 1601Z"/>
		<path transform="translate(0.5 0.5)" d="M170.889 1596.4L171.793 1595.5L172.929 1595.5L173.429 1595.5L173.429 1596.5L172.929 1596.5L172 1596.5L172 1596L172.354 1596.35L171.243 1597.46L170.536 1596.76L170.889 1596.4ZM176.929 1595.5L178.929 1595.5L179.429 1595.5L179.429 1596.5L178.929 1596.5L176.429 1596.5L176.429 1595.5L176.929 1595.5ZM182.929 1595.5L184.929 1595.5L185.429 1595.5L185.429 1596.5L184.929 1596.5L182.429 1596.5L182.429 1595.5L182.929 1595.5ZM188.929 1595.5L190.929 1595.5L191.429 1595.5L191.429 1596.5L190.929 1596.5L188.429 1596.5L188.429 1595.5L188.929 1595.5ZM194.929 1595.5L196.207 1595.5L197.01 1596.3L197.364 1596.66L196.657 1597.36L196.303 1597.01L195.646 1596.35L196 1596L196 1596.5L194.429 1596.5L194.429 1595.5L194.929 1595.5ZM199.839 1599.13L201.253 1600.55L201.607 1600.9L200.899 1601.61L200.546 1601.25L198.778 1599.49L199.485 1598.78L199.839 1599.13ZM201.5 1604.86L201.5 1606.86L201.5 1607.36L200.5 1607.36L200.5 1606.86L200.5 1604.36L201.5 1604.36L201.5 1604.86ZM201.5 1610.86L201.5 1611.21L200.04 1612.67L199.686 1613.02L198.979 1612.31L199.333 1611.96L200.646 1610.65L201 1611L200.5 1611L200.5 1610.36L201.5 1610.36L201.5 1610.86ZM197.211 1615.5L196.207 1616.5L195.213 1616.5L194.713 1616.5L194.713 1615.5L195.213 1615.5L196 1615.5L196 1616L195.646 1615.65L196.858 1614.44L197.565 1615.14L197.211 1615.5ZM191.213 1616.5L189.213 1616.5L188.713 1616.5L188.713 1615.5L189.213 1615.5L191.713 1615.5L191.713 1616.5L191.213 1616.5ZM185.213 1616.5L183.213 1616.5L182.713 1616.5L182.713 1615.5L183.213 1615.5L185.713 1615.5L185.713 1616.5L185.213 1616.5ZM179.213 1616.5L177.213 1616.5L176.713 1616.5L176.713 1615.5L177.213 1615.5L179.713 1615.5L179.713 1616.5L179.213 1616.5ZM173.213 1616.5L171.793 1616.5L171.09 1615.8L170.737 1615.44L171.444 1614.74L171.797 1615.09L172.354 1615.65L172 1616L172 1615.5L173.713 1615.5L173.713 1616.5L173.213 1616.5ZM168.262 1612.97L166.847 1611.55L166.494 1611.2L167.201 1610.49L167.555 1610.85L169.322 1612.62L168.615 1613.32L168.262 1612.97ZM166.5 1607.28L166.5 1605.28L166.5 1604.78L167.5 1604.78L167.5 1605.28L167.5 1607.78L166.5 1607.78L166.5 1607.28ZM166.5 1601.28L166.5 1600.79L168.414 1598.88L169.121 1599.59L167.354 1601.35L167 1601L167.5 1601L167.5 1601.78L166.5 1601.78L166.5 1601.28Z"/>
		<path fill="white" d="M164 1598L169 1593L194 1593L199 1598L199 1609L194 1614L169 1614L164 1609L164 1598Z"/>
		<path fill="none" stroke="black" stroke-width="1" stroke-linecap="square" stroke-miterlimit="4" transform="translate(0.5 0.5)" d="M183 1614L189 1620L192 1617"/>
		<path fill="none" stroke="black" stroke-width="1" stroke-linecap="square" stroke-miterlimit="4" transform="translate(0.5 0.5)" d="M169 1603L174 1603L178 1599"/>
		<path fill="none" stroke="black" stroke-width="1" stroke-linecap="square" stroke-miterlimit="4" transform="translate(0.5 0.5)" d="M184 1603L192 1603"/>
		<path fill="none" stroke="black" stroke-width="1" stroke-linecap="square" stroke-miterlimit="4" transform="translate(0.5 0.5)" d="M184 1599L188 1599L188 1607L184 1607"/>
		<rect x="180" y="1598" width="3" height="3"/>
		<rect x="180" y="1602" width="3" height="3"/>
		<rect x="180" y="1606" width="3" height="3"/>
		<text font-size="12" font-family="Segoe UI" x="168.76562, " y="1633, ">
				0
		</text>
		<text font-size="12" font-family="Symbol" x="183.72266, " y="1632, ">
				
		</text>
		<text font-size="12" font-family="Segoe UI" x="176.89844, 179.5, " y="1633, ">
				..
		</text>
		<path transform="translate(0.5 0.5)" d="M167.889 1593.4L168.793 1592.5L169.929 1592.5L170.429 1592.5L170.429 1593.5L169.929 1593.5L169 1593.5L169 1593L169.354 1593.35L168.243 1594.46L167.536 1593.76L167.889 1593.4ZM173.929 1592.5L175.929 1592.5L176.429 1592.5L176.429 1593.5L175.929 1593.5L173.429 1593.5L173.429 1592.5L173.929 1592.5ZM179.929 1592.5L181.929 1592.5L182.429 1592.5L182.429 1593.5L181.929 1593.5L179.429 1593.5L179.429 1592.5L179.929 1592.5ZM185.929 1592.5L187.929 1592.5L188.429 1592.5L188.429 1593.5L187.929 1593.5L185.429 1593.5L185.429 1592.5L185.929 1592.5ZM191.929 1592.5L193.207 1592.5L194.01 1593.3L194.364 1593.66L193.657 1594.36L193.303 1594.01L192.646 1593.35L193 1593L193 1593.5L191.429 1593.5L191.429 1592.5L191.929 1592.5ZM196.839 1596.13L198.253 1597.55L198.607 1597.9L197.899 1598.61L197.546 1598.25L195.778 1596.49L196.485 1595.78L196.839 1596.13ZM198.5 1601.86L198.5 1603.86L198.5 1604.36L197.5 1604.36L197.5 1603.86L197.5 1601.36L198.5 1601.36L198.5 1601.86ZM198.5 1607.86L198.5 1608.21L197.04 1609.67L196.686 1610.02L195.979 1609.31L196.333 1608.96L197.646 1607.65L198 1608L197.5 1608L197.5 1607.36L198.5 1607.36L198.5 1607.86ZM194.211 1612.5L193.207 1613.5L192.213 1613.5L191.713 1613.5L191.713 1612.5L192.213 1612.5L193 1612.5L193 1613L192.646 1612.65L193.858 1611.44L194.565 1612.14L194.211 1612.5ZM188.213 1613.5L186.213 1613.5L185.713 1613.5L185.713 1612.5L186.213 1612.5L188.713 1612.5L188.713 1613.5L188.213 1613.5ZM182.213 1613.5L180.213 1613.5L179.713 1613.5L179.713 1612.5L180.213 1612.5L182.713 1612.5L182.713 1613.5L182.213 1613.5ZM176.213 1613.5L174.213 1613.5L173.713 1613.5L173.713 1612.5L174.213 1612.5L176.713 1612.5L176.713 1613.5L176.213 1613.5ZM170.213 1613.5L168.793 1613.5L168.09 1612.8L167.737 1612.44L168.444 1611.74L168.797 1612.09L169.354 1612.65L169 1613L169 1612.5L170.713 1612.5L170.713 1613.5L170.213 1613.5ZM165.262 1609.97L163.847 1608.55L163.494 1608.2L164.201 1607.49L164.555 1607.85L166.322 1609.62L165.615 1610.32L165.262 1609.97ZM163.5 1604.28L163.5 1602.28L163.5 1601.78L164.5 1601.78L164.5 1602.28L164.5 1604.78L163.5 1604.78L163.5 1604.28ZM163.5 1598.28L163.5 1597.79L165.414 1595.88L166.121 1596.59L164.354 1598.35L164 1598L164.5 1598L164.5 1598.78L163.5 1598.78L163.5 1598.28Z"/>
		<rect fill="silver" x="237" y="1566" width="54" height="21"/>
		<rect fill="white" x="233" y="1562" width="54" height="21"/>
		<rect fill="#FFFFC0" x="238" y="1589" width="115" height="24"/>
		<text fill="gray" font-size="9" font-family="Segoe UI" x="238, 243.80518, 246.27051, 251.36377, 255.94287, 258.99268, 264.08594, 267.21484, 271.79395, 273.97363, 276.43896, 278.61865, 283.19775, 288.29102, 293.59082, 298.68408, 303.26318, 308.56299, 313.26953, 315.73486, 320.82812, 325.40723, 333.15918, 337.86572, 340.33105, 343.14795, 348.42139, " y="1599, ">
				A natural language name for
		</text>
		<text fill="gray" font-size="9" font-family="Segoe UI" x="238, 241.0498, 246.14307, 250.84961, 253.31494, 257.47217, 262.74561, 267.83887, 271.99609, 276.70264, 281.99365, 285.04346, " y="1611, ">
				the concept.
		</text>
		<rect fill="white" x="242" y="1564" width="33" height="16"/>
		<text font-size="12" font-weight="600" font-family="Segoe UI" x="242, 249.25977, 255.7168, 266.70898, " y="1577, ">
				name
		</text>
		<path fill="none" stroke="black" stroke-width="1" stroke-linecap="square" stroke-miterlimit="4" transform="translate(0.5 0.5)" d="M235 1564L240 1564"/>
		<path fill="none" stroke="black" stroke-width="1" stroke-linecap="square" stroke-miterlimit="4" transform="translate(0.5 0.5)" d="M235 1566L239 1566"/>
		<path fill="none" stroke="black" stroke-width="1" stroke-linecap="square" stroke-miterlimit="4" transform="translate(0.5 0.5)" d="M235 1568L239 1568"/>
		<path fill="none" stroke="black" stroke-width="2" stroke-miterlimit="4" transform="translate(0.5 0.5)" d="M235 1580L239 1576"/>
		<path fill="none" stroke="black" stroke-width="1" stroke-linecap="square" stroke-miterlimit="4" transform="translate(0.5 0.5)" d="M236 1576L239 1576L239 1579"/>
		<rect fill="none" stroke="black" stroke-width="1" stroke-linecap="square" stroke-miterlimit="4" transform="translate(0.5 0.5)" x="233" y="1562" width="53" height="20"/>
		<rect x="281" y="1567" width="11" height="11"/>
		<rect fill="white" x="282" y="1568" width="9" height="9"/>
		<rect x="283" y="1572" width="7" height="1"/>
		<rect x="286" y="1569" width="1" height="7"/>
		<rect fill="silver" x="237" y="1629" width="98" height="21"/>
		<rect fill="white" x="233" y="1625" width="98" height="21"/>
		<rect fill="#FFFFC0" x="238" y="1652" width="121" height="72"/>
		<text fill="gray" font-size="9" font-family="Segoe UI" x="238, 243.11963, 247.82617, 253.11719, 256.24609, 260.95264, 264.77148, 269.47803, 274.57129, 277.62109, 281.43994, 283.90527, 286.95508, 292.04834, 296.75488, 299.22021, 304.51123, 309.78467, 313.60352, 315.7832, 318.83301, 321.0127, 326.28613, 331.37939, 333.84473, 339.11816, 341.93506, 344.40039, " y="1662, ">
				Represents the position of a
		</text>
		<text fill="gray" font-size="9" font-family="Segoe UI" x="238, 242.15723, 247.43066, 252.52393, 256.68115, 261.3877, 266.67871, 269.72852, 272.19385, 274.37354, 279.4668, 281.93213, 286.51123, 288.97656, 294.06982, 296.24951, 300.95605, 304.08496, 308.66406, 311.79297, 315.9502, 321.04346, 323.22314, 327.38037, 331.95947, " y="1674, ">
				concept in a hierarchical
		</text>
		<text fill="gray" font-size="9" font-family="Segoe UI" x="238, 241.0498, 245.62891, 249.75977, 255.0332, 260.12646, 265.3999, 273.15186, 277.50684, 279.97217, 283.02197, 286.15088, 290.85742, 295.56396, 298.0293, 303.32031, 307.67529, 310.14062, 314.71973, 317.18506, 321.00391, 325.71045, 331.01025, 336.10352, 340.81006, 345.90332, 350.06055, " y="1686, ">
				taxonomy tree by a sequence
		</text>
		<text fill="gray" font-size="9" font-family="Segoe UI" x="238, 243.27344, 246.09033, 248.55566, 255.34082, 260.91309, 266.18652, 271.48633, 276.19287, 278.6582, 281.70801, 286.98145, 291.45508, 296.16162, 301.25488, 305.07373, 307.53906, 310.66797, 315.37451, 320.66553, 323.79443, 328.50098, 332.31982, 337.02637, 342.11963, 345.16943, 347.34912, 352.44238, " y="1698, ">
				of QCode tokens representing
		</text>
		<text fill="gray" font-size="9" font-family="Segoe UI" x="238, 241.0498, 246.14307, 250.84961, 253.31494, 257.89404, 262.9873, 267.14453, 271.85107, 275.66992, 278.71973, 283.99316, 287.12207, 289.5874, 293.74463, 299.01807, 304.11133, 308.26855, 312.9751, 318.26611, 321.31592, 325.13477, 327.6001, 332.1792, 337.27246, " y="1710, ">
				the ancestor concepts and
		</text>
		<text fill="gray" font-size="9" font-family="Segoe UI" x="238, 241.0498, 246.14307, 248.32275, 252.1416, 254.60693, 258.76416, 264.0376, 269.13086, 273.28809, 277.99463, 283.28564, " y="1722, ">
				this concept
		</text>
		<rect fill="white" x="242" y="1627" width="77" height="16"/>
		<text font-size="12" font-weight="600" font-family="Segoe UI" x="242, 249.22461, 252.63477, 259.12695, 263.90234, 270.35938, 275.08789, 280.84766, 288.07227, 294.5293, 298.33203, 305.5918, 310.19141, " y="1640, ">
				hierarchyInfo
		</text>
		<path fill="none" stroke="black" stroke-width="1" stroke-linecap="square" stroke-miterlimit="4" transform="translate(0.5 0.5)" d="M235 1627L240 1627"/>
		<path fill="none" stroke="black" stroke-width="1" stroke-linecap="square" stroke-miterlimit="4" transform="translate(0.5 0.5)" d="M235 1629L239 1629"/>
		<path fill="none" stroke="black" stroke-width="1" stroke-linecap="square" stroke-miterlimit="4" transform="translate(0.5 0.5)" d="M235 1631L239 1631"/>
		<path fill="none" stroke="black" stroke-width="2" stroke-miterlimit="4" transform="translate(0.5 0.5)" d="M235 1643L239 1639"/>
		<path fill="none" stroke="black" stroke-width="1" stroke-linecap="square" stroke-miterlimit="4" transform="translate(0.5 0.5)" d="M236 1639L239 1639L239 1642"/>
		<rect fill="none" stroke="black" stroke-width="1" stroke-linecap="square" stroke-miterlimit="4" transform="translate(0.5 0.5)" x="233" y="1625" width="97" height="20"/>
		<rect x="325" y="1630" width="11" height="11"/>
		<rect fill="white" x="326" y="1631" width="9" height="9"/>
		<rect x="327" y="1635" width="7" height="1"/>
		<rect x="330" y="1632" width="1" height="7"/>
		<rect x="198" y="1598" width="11" height="11"/>
		<rect fill="white" x="199" y="1599" width="9" height="9"/>
		<rect x="200" y="1603" width="7" height="1"/>
		<rect x="86" y="1193" width="11" height="11"/>
		<rect fill="white" x="87" y="1194" width="9" height="9"/>
		<rect x="88" y="1198" width="7" height="1"/>
	</g>
</svg>
