<?xml version="1.0" encoding="utf-8" ?>
<svg xmlns="http://www.w3.org/2000/svg" xmlns:xlink="http://www.w3.org/1999/xlink" width="280" height="1364">
	<clipPath id="cl_d1">
		<rect x="-10" y="-5" width="280" height="1364"/>
	</clipPath>
	<g clip-path="url(#cl_d1)">
		<rect fill="#FFFFC0" x="91" width="162" height="1342"/>
		<rect fill="none" stroke="gray" stroke-width="1" stroke-linecap="square" stroke-miterlimit="4" transform="translate(0.5 0.5)" x="91" width="161" height="1341"/>
		<path fill="none" stroke="black" stroke-width="1" stroke-linecap="square" stroke-miterlimit="4" transform="translate(0.5 0.5)" d="M58 683L97 683"/>
		<rect fill="silver" x="4" y="677" width="53" height="21"/>
		<rect fill="white" y="673" width="53" height="21"/>
		<rect fill="#FFFFC0" x="99" y="8" width="129" height="16"/>
		<text fill="gray" font-size="12" font-weight="600" font-family="Segoe UI" x="99, 105.38672, 108.79688, 115.28906, 121.04883, 125.71875, 130.44727, 137.7832, 145.04297, 148.45312, 154.21289, 162.65039, 170.08008, 177.50977, 182.23828, 188.73047, 194.00977, 199.28906, 205.78125, 212.23828, 219.67969, " y="21, ">
				ElectronicAddressType
		</text>
		<rect fill="white" x="5" y="700" width="71" height="12"/>
		<text fill="gray" font-size="9" font-family="Segoe UI" x="5, 10.805176, 15.898438, 18.36377, 23.070312, 30.822266, 35.401367, 37.581055, 39.760742, 42.226074, 46.805176, 52.10498, 57.404785, 60.533691, 65.240234, 69.059082, 72.87793, " y="710, ">
				An email address.
		</text>
		<rect fill="white" x="9" y="675" width="32" height="16"/>
		<text font-size="12" font-weight="600" font-family="Segoe UI" x="9, 15.492188, 26.484375, 32.941406, 36.351562, " y="688, ">
				email
		</text>
		<path fill="none" stroke="black" stroke-width="1" stroke-linecap="square" stroke-miterlimit="4" transform="translate(0.5 0.5)" d="M2 675L7 675"/>
		<path fill="none" stroke="black" stroke-width="1" stroke-linecap="square" stroke-miterlimit="4" transform="translate(0.5 0.5)" d="M2 677L6 677"/>
		<path fill="none" stroke="black" stroke-width="1" stroke-linecap="square" stroke-miterlimit="4" transform="translate(0.5 0.5)" d="M2 679L6 679"/>
		<rect fill="none" stroke="black" stroke-width="1" stroke-linecap="square" stroke-miterlimit="4" transform="translate(0.5 0.5)" y="673" width="52" height="20"/>
		<path fill="white" d="M175 55L175 36L98 36L98 55L98 1329L245 1329L245 55L175 55Z"/>
		<rect fill="white" x="118" y="38" width="51" height="16"/>
		<text font-size="12" font-style="italic" font-family="Segoe UI" x="118, 124.50391, 128.38281, 132.26172, 136.5332, 139.63867, 146.14258, 152.83984, 156.73047, 162.57227, " y="51, ">
				attributes
		</text>
		<path fill="none" stroke="black" stroke-width="1" stroke-linecap="square" stroke-miterlimit="4" transform="translate(0.5 0.5)" d="M175 55L175 36L98 36L98 55L98 1329L245 1329L245 55L175 55Z"/>
		<rect fill="silver" x="116" y="68" width="52" height="21"/>
		<rect fill="white" x="112" y="64" width="52" height="21"/>
		<rect fill="white" x="117" y="91" width="101" height="24"/>
		<text fill="gray" font-size="9" font-family="Segoe UI" x="117, 121.71533, 126.80859, 131.51514, 133.98047, 136.16016, 141.43359, 145.59082, 150.16992, 152.34961, 154.81494, 156.99463, 162.29443, 167.00098, 172.09424, 175.14404, 177.32373, 180.14062, 182.32031, 187.02686, 190.15576, 192.62109, 197.89453, 200.71143, 203.17676, 206.22656, 211.31982, " y="101, ">
				The local identifier of the
		</text>
		<text fill="gray" font-size="9" font-family="Segoe UI" x="117, 122.29102, 125.41992, 130.69336, 135.98438, 140.69092, 143.81982, 146.86963, 151.22461, " y="113, ">
				property.
		</text>
		<rect fill="white" x="121" y="66" width="36" height="16"/>
		<text font-size="12" font-weight="600" font-family="Segoe UI" x="121, 124.41016, " y="79, ">
				id
		</text>
		<rect fill="none" stroke="black" stroke-width="1" stroke-linecap="square" stroke-miterlimit="4" transform="translate(0.5 0.5)" x="112" y="64" width="51" height="20"/>
		<rect fill="silver" x="116" y="126" width="58" height="21"/>
		<rect fill="white" x="112" y="122" width="58" height="21"/>
		<rect fill="white" x="117" y="149" width="121" height="120"/>
		<text fill="gray" font-size="9" font-family="Segoe UI" x="117, 119.39502, 122.21191, 124.67725, 127.72705, 132.82031, 137.52686, 139.99219, 145.2832, 148.41211, 153.68555, 158.97656, 163.68311, 166.81201, 169.86182, 174.2168, 176.68213, 180.99316, 185.57227, 187.75195, 192.84521, 197.55176, 200.01709, 202.19678, 206.01562, 208.48096, 213.57422, 218.84766, " y="159, ">
				If the property value is not
		</text>
		<text fill="gray" font-size="9" font-family="Segoe UI" x="117, 122.2998, 127.00635, 129.82324, 132.00293, 137.09619, 141.80273, 147.10254, 149.05371, 151.51904, 155.33789, 160.62891, 165.33545, 169.49268, 171.67236, 174.48926, 176.66895, 181.37549, 185.19434, 187.65967, 194.16357, 199.25684, 201.43652, 205.59375, 210.68701, 213.15234, 217.85889, 222.95215, 226.00195, 228.18164, 231.23145, " y="171, ">
				defined, specifies which entity
		</text>
		<text fill="gray" font-size="9" font-family="Segoe UI" x="117, 119.71582, 125.00684, 129.71338, 132.84229, 136.66113, 141.93457, 147.02783, 148.979, 151.44434, 156.71777, 159.84668, 165.14648, 169.72559, 174.81885, 176.99854, 180.81738, 185.39648, 188.44629, 190.62598, 195.89941, 200.99268, 203.45801, 208.73145, " y="183, ">
				(person, organisation or
		</text>
		<text fill="gray" font-size="9" font-family="Segoe UI" x="117, 120.81885, 125.17383, 128.99268, 132.04248, 136.74902, 144.50098, 147.2168, 149.68213, 156.18604, 158.36572, 160.54541, 162.7251, 165.19043, 169.89697, 175.19678, 177.37646, 180.42627, 182.8916, 185.94141, 191.03467, 195.74121, 198.20654, 203.49756, 206.62646, 211.8999, 217.19092, 221.89746, 225.02637, 228.07617, " y="195, ">
				system) will edit the property
		</text>
		<text fill="gray" font-size="9" font-family="Segoe UI" x="117, 121.31104, 125.89014, 128.06982, 133.16309, 137.86963, 140.33496, 143.93408, 146.39941, 151.10596, 155.23682, 160.52783, 163.65674, 168.36328, 172.18213, 176.00098, 180.70752, 186.00732, 188.47266, 193.76367, 198.11865, 200.58398, 205.16309, 207.62842, 214.41357, 219.98584, 225.25928, 230.55908, 235.26562, " y="207, ">
				value - expressed by a QCode.
		</text>
		<text fill="gray" font-size="9" font-family="Segoe UI" x="117, 119.39502, 122.21191, 124.67725, 127.72705, 132.82031, 137.52686, 139.99219, 145.2832, 148.41211, 153.68555, 158.97656, 163.68311, 166.81201, 169.86182, 174.2168, 176.68213, 180.99316, 185.57227, 187.75195, 192.84521, 197.55176, 200.01709, 202.19678, " y="219, ">
				If the property value is
		</text>
		<text fill="gray" font-size="9" font-family="Segoe UI" x="117, 122.2998, 127.00635, 129.82324, 132.00293, 137.09619, 141.80273, 147.10254, 149.05371, 151.51904, 155.33789, 160.62891, 165.33545, 169.49268, 171.67236, 174.48926, 176.66895, 181.37549, 185.19434, 187.65967, 194.16357, 199.25684, 201.43652, 205.59375, 210.68701, 213.15234, 217.85889, 222.95215, 226.00195, 228.18164, 231.23145, " y="231, ">
				defined, specifies which entity
		</text>
		<text fill="gray" font-size="9" font-family="Segoe UI" x="117, 119.71582, 125.00684, 129.71338, 132.84229, 136.66113, 141.93457, 147.02783, 148.979, 151.44434, 156.71777, 159.84668, 165.14648, 169.72559, 174.81885, 176.99854, 180.81738, 185.39648, 188.44629, 190.62598, 195.89941, 200.99268, 203.45801, 208.73145, " y="243, ">
				(person, organisation or
		</text>
		<text fill="gray" font-size="9" font-family="Segoe UI" x="117, 120.81885, 125.17383, 128.99268, 132.04248, 136.74902, 144.50098, 147.2168, 149.68213, 154.77539, 159.35449, 163.17334, 165.63867, 170.34521, 175.64502, 177.82471, 180.87451, 185.58105, 190.88086, 193.34619, 196.396, 201.48926, " y="255, ">
				system) has edited the
		</text>
		<text fill="gray" font-size="9" font-family="Segoe UI" x="117, 122.29102, 125.41992, 130.69336, 135.98438, 140.69092, 143.81982, 146.86963, 151.22461, 153.68994, 158.00098, 162.58008, 164.75977, 169.85303, 174.55957, " y="267, ">
				property value.
		</text>
		<rect fill="white" x="121" y="124" width="42" height="16"/>
		<text font-size="12" font-weight="600" font-family="Segoe UI" x="121, 126.75977, 131.48828, 137.98047, 144.4375, 149.06055, 156.39648, " y="137, ">
				creator
		</text>
		<rect fill="none" stroke="black" stroke-width="1" stroke-linecap="square" stroke-miterlimit="4" transform="translate(0.5 0.5)" x="112" y="122" width="57" height="20"/>
		<rect fill="silver" x="116" y="280" width="73" height="21"/>
		<rect fill="white" x="112" y="276" width="73" height="21"/>
		<rect fill="white" x="117" y="303" width="120" height="108"/>
		<text fill="gray" font-size="9" font-family="Segoe UI" x="117, 119.39502, 122.21191, 124.67725, 127.72705, 132.82031, 137.52686, 139.99219, 145.2832, 148.41211, 153.68555, 158.97656, 163.68311, 166.81201, 169.86182, 174.2168, 176.68213, 180.99316, 185.57227, 187.75195, 192.84521, 197.55176, 200.01709, 202.19678, 206.01562, 208.48096, 213.57422, 218.84766, " y="313, ">
				If the property value is not
		</text>
		<text fill="gray" font-size="9" font-family="Segoe UI" x="117, 122.2998, 127.00635, 129.82324, 132.00293, 137.09619, 141.80273, 147.10254, 149.05371, 151.51904, 155.33789, 160.62891, 165.33545, 169.49268, 171.67236, 174.48926, 176.66895, 181.37549, 185.19434, 187.65967, 194.16357, 199.25684, 201.43652, 205.59375, 210.68701, 213.15234, 217.85889, 222.95215, 226.00195, 228.18164, 231.23145, " y="325, ">
				defined, specifies which entity
		</text>
		<text fill="gray" font-size="9" font-family="Segoe UI" x="117, 119.71582, 125.00684, 129.71338, 132.84229, 136.66113, 141.93457, 147.02783, 148.979, 151.44434, 156.71777, 159.84668, 165.14648, 169.72559, 174.81885, 176.99854, 180.81738, 185.39648, 188.44629, 190.62598, 195.89941, 200.99268, 203.45801, 208.73145, " y="337, ">
				(person, organisation or
		</text>
		<text fill="gray" font-size="9" font-family="Segoe UI" x="117, 120.81885, 125.17383, 128.99268, 132.04248, 136.74902, 144.50098, 147.2168, 149.68213, 156.18604, 158.36572, 160.54541, 162.7251, 165.19043, 169.89697, 175.19678, 177.37646, 180.42627, 182.8916, 185.94141, 191.03467, 195.74121, 198.20654, 203.49756, 206.62646, 211.8999, 217.19092, 221.89746, 225.02637, 228.07617, " y="349, ">
				system) will edit the property
		</text>
		<text fill="gray" font-size="9" font-family="Segoe UI" x="117, 120.59912, 123.06445, 127.771, 131.90186, 137.19287, 140.32178, 145.02832, 148.84717, 152.66602, 157.37256, 162.67236, 165.1377, 170.42871, 174.78369, 177.24902, 181.82812, 184.29346, 190.47656, 195.85986, 198.25488, 200.20605, 202.67139, 205.06641, 207.8833, 210.34863, 213.39844, 218.4917, " y="361, ">
				- expressed by a URI. If the
		</text>
		<text fill="gray" font-size="9" font-family="Segoe UI" x="117, 122.29102, 125.41992, 130.69336, 135.98438, 140.69092, 143.81982, 146.86963, 151.22461, 153.68994, 158.00098, 162.58008, 164.75977, 169.85303, 174.55957, 177.0249, 179.20459, 183.02344, 185.48877, 190.78857, 195.49512, 198.31201, 200.4917, 205.58496, 210.2915, 215.59131, " y="373, ">
				property value is defined,
		</text>
		<text fill="gray" font-size="9" font-family="Segoe UI" x="117, 120.81885, 126.10986, 130.81641, 134.97363, 137.15332, 139.97021, 142.1499, 146.85645, 150.67529, 153.14062, 159.64453, 164.73779, 166.91748, 171.07471, 176.16797, 178.6333, 183.33984, 188.43311, 191.48291, 193.6626, 196.7124, 201.06738, 203.53271, 206.24854, 211.53955, 216.24609, 219.375, 223.19385, 228.46729, 233.56055, " y="385, ">
				specifies which entity (person,
		</text>
		<text fill="gray" font-size="9" font-family="Segoe UI" x="117, 122.27344, 125.40234, 130.70215, 135.28125, 140.37451, 142.5542, 146.37305, 150.95215, 154.00195, 156.18164, 161.45508, 166.54834, 169.01367, 174.28711, 177.41602, 179.88135, 183.7002, 188.05518, 191.87402, 194.92383, 199.63037, 207.38232, 210.09814, 212.56348, 217.65674, 222.23584, " y="397, ">
				organisation or system) has
		</text>
		<text fill="gray" font-size="9" font-family="Segoe UI" x="117, 121.70654, 127.00635, 129.18604, 132.23584, 136.94238, 142.24219, 144.70752, 147.75732, 152.85059, 157.55713, 160.02246, 165.31348, 168.44238, 173.71582, 179.00684, 183.71338, 186.84229, 189.89209, 194.24707, " y="409, ">
				edited the property.
		</text>
		<rect fill="white" x="121" y="278" width="57" height="16"/>
		<text font-size="12" font-weight="600" font-family="Segoe UI" x="121, 126.75977, 131.48828, 137.98047, 144.4375, 149.06055, 156.39648, 161.20703, 168.4668, 173.28906, " y="291, ">
				creatoruri
		</text>
		<rect fill="none" stroke="black" stroke-width="1" stroke-linecap="square" stroke-miterlimit="4" transform="translate(0.5 0.5)" x="112" y="276" width="72" height="20"/>
		<rect fill="silver" x="116" y="422" width="69" height="21"/>
		<rect fill="white" x="112" y="418" width="69" height="21"/>
		<rect fill="white" x="117" y="445" width="119" height="72"/>
		<text fill="gray" font-size="9" font-family="Segoe UI" x="117, 121.71533, 126.80859, 131.51514, 133.98047, 139.28027, 143.85938, 146.90918, 151.61572, 154.08105, 156.79688, 161.37598, 166.46924, 171.76904, 173.72021, 176.18555, 181.45898, 186.75, 189.7998, 191.97949, 197.25293, 202.34619, 206.92529, 209.10498, 211.28467, 215.63965, 217.59082, 220.05615, 223.10596, 228.19922, " y="455, ">
				The date (and, optionally, the
		</text>
		<text fill="gray" font-size="9" font-family="Segoe UI" x="117, 120.0498, 122.22949, 129.98145, 134.68799, 137.40381, 139.86914, 146.37305, 151.46631, 156.17285, 161.26611, 163.73145, 166.78125, 171.87451, 176.58105, 179.04639, 184.3374, 187.46631, 192.73975, 198.03076, 202.7373, 205.86621, 208.91602, 213.271, 215.73633, 222.24023, 226.81934, " y="467, ">
				time) when the property was
		</text>
		<text fill="gray" font-size="9" font-family="Segoe UI" x="117, 119.17969, 123.75879, 127.57764, 130.62744, 133.09277, 140.84473, 146.11816, 151.41797, 153.59766, 156.41455, 158.59424, 163.30078, 168.60059, 170.55176, 173.01709, 177.73242, 182.82568, 187.53223, 189.99756, 192.17725, 197.27051, 199.4502, 202.5, 204.67969, 209.25879, 211.43848, 213.90381, 218.21484, 222.79395, 224.97363, 230.06689, " y="479, ">
				last modified. The initial value
		</text>
		<text fill="gray" font-size="9" font-family="Segoe UI" x="117, 119.17969, 122.99854, 125.46387, 128.51367, 133.60693, 138.31348, 140.77881, 146.07861, 150.65771, 153.70752, 158.41406, 160.87939, 163.59521, 168.17432, 173.26758, 178.56738, 180.51855, 182.98389, 188.25732, 193.54834, 196.59814, 198.77783, 204.05127, 209.14453, 213.72363, 215.90332, 218.08301, 222.43799, " y="491, ">
				is the date (and, optionally,
		</text>
		<text fill="gray" font-size="9" font-family="Segoe UI" x="117, 120.0498, 125.14307, 129.84961, 132.31494, 135.36475, 137.54443, 145.29639, 150.00293, 152.71875, 155.18408, 160.45752, 163.27441, 165.73975, 169.89697, 173.02588, 177.73242, 182.31152, 185.36133, 187.54102, 192.81445, 197.90771, 200.37305, 205.64648, 208.46338, 210.92871, 213.97852, 219.07178, " y="503, ">
				the time) of creation of the
		</text>
		<text fill="gray" font-size="9" font-family="Segoe UI" x="117, 122.29102, 125.41992, 130.69336, 135.98438, 140.69092, 143.81982, 146.86963, 151.22461, " y="515, ">
				property.
		</text>
		<rect fill="white" x="121" y="420" width="53" height="16"/>
		<text font-size="12" font-weight="600" font-family="Segoe UI" x="121, 131.99219, 139.32812, 146.75781, 150.16797, 154.76758, 158.17773, 164.66992, " y="433, ">
				modified
		</text>
		<rect fill="none" stroke="black" stroke-width="1" stroke-linecap="square" stroke-miterlimit="4" transform="translate(0.5 0.5)" x="112" y="418" width="68" height="20"/>
		<rect fill="silver" x="116" y="528" width="59" height="21"/>
		<rect fill="white" x="112" y="524" width="59" height="21"/>
		<rect fill="white" x="117" y="551" width="118" height="108"/>
		<text fill="gray" font-size="9" font-family="Segoe UI" x="117, 119.39502, 122.21191, 124.67725, 128.49609, 133.20264, 136.25244, 138.71777, 141.76758, 147.04102, 149.50635, 152.55615, 155.68506, 160.77832, 165.48486, 167.9502, 171, 176.09326, " y="561, ">
				If set to true the
		</text>
		<text fill="gray" font-size="9" font-family="Segoe UI" x="117, 121.15723, 126.43066, 129.55957, 132.68848, 137.39502, 141.21387, 146.50488, 151.77832, 156.87158, 162.17139, 164.35107, 169.44434, 174.74414, 177.20947, 182.50049, 185.62939, 190.90283, 196.19385, 200.90039, 204.0293, 207.0791, 211.43408, 213.89941, 220.40332, 224.98242, " y="573, ">
				corresponding property was
		</text>
		<text fill="gray" font-size="9" font-family="Segoe UI" x="117, 121.5791, 126.87891, 132.17871, 136.88525, 142.18506, 144.65039, 147.7002, 152.97363, 155.43896, 158.48877, 163.58203, 168.28857, 170.75391, 176.92822, 181.77979, 184.24512, 186.64014, 189.68994, 194.39648, 202.14844, 204.61377, 207.43066, 212.7041, 215.83301, 218.29834, " y="585, ">
				added to the G2 Item for a
		</text>
		<text fill="gray" font-size="9" font-family="Segoe UI" x="117, 120.81885, 126.10986, 130.81641, 134.97363, 137.15332, 139.97021, 142.1499, 146.30713, 148.77246, 152.92969, 158.02295, 161.8418, 164.8916, 170.16504, 177.91699, 182.62354, 185.75244, 188.21777, 193.49121, 196.62012, 199.08545, 204.38525, 207.51416, 212.7876, 217.88086, 223.17188, 225.63721, 230.91064, " y="597, ">
				specific customer or group of
		</text>
		<text fill="gray" font-size="9" font-family="Segoe UI" x="117, 121.15723, 126.25049, 130.06934, 133.11914, 138.39258, 146.14453, 150.85107, 153.97998, 157.79883, 160.26416, 165.5376, 170.63086, 172.81055, 177.16553, 179.1167, 181.58203, 186.29736, 191.39062, 196.09717, 198.5625, 203.8623, 208.56885, 211.38574, 215.96484, 221.05811, 223.23779, " y="609, ">
				customers only. The default
		</text>
		<text fill="gray" font-size="9" font-family="Segoe UI" x="117, 121.31104, 125.89014, 128.06982, 133.16309, 137.86963, 140.33496, 145.6084, 148.42529, 150.89062, 153.94043, 159.03369, 161.21338, 165.03223, 167.49756, 172.78857, 175.91748, 181.19092, 186.48193, 191.18848, 194.31738, 197.36719, 201.72217, 204.1875, 206.36719, 210.18604, 212.65137, 215.46826, 220.04736, 222.22705, 226.0459, " y="621, ">
				value of this property is false
		</text>
		<text fill="gray" font-size="9" font-family="Segoe UI" x="117, 123.50391, 128.59717, 130.77686, 134.93408, 140.02734, 142.49268, 147.07178, 152.36279, 157.65381, 159.8335, 162.01318, 166.71973, 170.53857, 173.00391, 179.50781, 184.60107, 189.30762, 194.40088, 196.86621, 199.91602, 205.00928, 207.18896, " y="633, ">
				which applies when this
		</text>
		<text fill="gray" font-size="9" font-family="Segoe UI" x="117, 121.5791, 124.62891, 127.67871, 130.80762, 132.9873, 138.27832, 143.37158, 146.42139, 151.12793, 153.59326, 155.77295, 159.5918, 162.05713, 167.15039, 172.42383, 175.47363, 177.93896, 183.03223, 186.85107, 191.55762, 196.85742, 199.32275, 205.82666, 208.00635, 211.05615, 216.14941, 218.61475, 221.66455, 226.75781, " y="645, ">
				attribute is not used with the
		</text>
		<text fill="gray" font-size="9" font-family="Segoe UI" x="117, 122.29102, 125.41992, 130.69336, 135.98438, 140.69092, 143.81982, 146.86963, 151.22461, " y="657, ">
				property.
		</text>
		<rect fill="white" x="121" y="526" width="43" height="16"/>
		<text font-size="12" font-weight="600" font-family="Segoe UI" x="121, 126.75977, 134.01953, 139.29883, 143.92188, 151.25781, " y="539, ">
				custom
		</text>
		<rect fill="none" stroke="black" stroke-width="1" stroke-linecap="square" stroke-miterlimit="4" transform="translate(0.5 0.5)" x="112" y="524" width="58" height="20"/>
		<rect fill="silver" x="116" y="670" width="52" height="21"/>
		<rect fill="white" x="112" y="666" width="52" height="21"/>
		<rect fill="white" x="117" y="693" width="118" height="48"/>
		<text fill="gray" font-size="9" font-family="Segoe UI" x="117, 119.39502, 124.48828, 129.78809, 131.96777, 136.125, 140.7041, 143.75391, 148.46045, 152.2793, 154.74463, 160.03564, 164.39062, 166.85596, 173.35986, 178.45312, 180.63281, 184.79004, 189.8833, 192.34863, 200.10059, 204.80713, 209.38623, 214.47949, 218.29834, 220.76367, 223.81348, 228.90674, " y="703, ">
				Indicates by which means the
		</text>
		<text fill="gray" font-size="9" font-family="Segoe UI" x="117, 121.31104, 125.89014, 128.06982, 133.16309, 137.86963, 140.33496, 146.83887, 151.41797, 155.23682, 157.70215, 162.40869, 166.53955, 169.58936, 172.71826, 177.29736, 181.45459, 184.50439, 189.21094, 194.51074, 196.97607, 199.79297, 202.92188, 208.19531, 215.94727, 218.4126, 221.4624, 226.55566, " y="715, ">
				value was extracted from the
		</text>
		<text fill="gray" font-size="9" font-family="Segoe UI" x="117, 121.15723, 126.43066, 131.52393, 134.57373, 139.28027, 144.37354, 147.42334, 149.88867, 153.48779, 155.95312, 160.65967, 164.79053, 170.08154, 173.21045, 177.91699, 181.73584, 185.55469, 190.26123, 195.56104, 198.02637, 203.31738, 207.67236, 210.1377, " y="727, ">
				content - expressed by a
		</text>
		<text fill="gray" font-size="9" font-family="Segoe UI" x="117, 123.78516, 129.35742, 134.63086, 139.93066, " y="739, ">
				QCode
		</text>
		<rect fill="white" x="121" y="668" width="36" height="16"/>
		<text font-size="12" font-weight="600" font-family="Segoe UI" x="121, 128.22461, 135.56055, " y="681, ">
				how
		</text>
		<rect fill="none" stroke="black" stroke-width="1" stroke-linecap="square" stroke-miterlimit="4" transform="translate(0.5 0.5)" x="112" y="666" width="51" height="20"/>
		<rect fill="silver" x="116" y="752" width="57" height="21"/>
		<rect fill="white" x="112" y="748" width="57" height="21"/>
		<rect fill="white" x="117" y="775" width="118" height="36"/>
		<text fill="gray" font-size="9" font-family="Segoe UI" x="117, 119.39502, 124.48828, 129.78809, 131.96777, 136.125, 140.7041, 143.75391, 148.46045, 152.2793, 154.74463, 160.03564, 164.39062, 166.85596, 173.35986, 178.45312, 180.63281, 184.79004, 189.8833, 192.34863, 200.10059, 204.80713, 209.38623, 214.47949, 218.29834, 220.76367, 223.81348, 228.90674, " y="785, ">
				Indicates by which means the
		</text>
		<text fill="gray" font-size="9" font-family="Segoe UI" x="117, 121.31104, 125.89014, 128.06982, 133.16309, 137.86963, 140.33496, 146.83887, 151.41797, 155.23682, 157.70215, 162.40869, 166.53955, 169.58936, 172.71826, 177.29736, 181.45459, 184.50439, 189.21094, 194.51074, 196.97607, 199.79297, 202.92188, 208.19531, 215.94727, 218.4126, 221.4624, 226.55566, " y="797, ">
				value was extracted from the
		</text>
		<text fill="gray" font-size="9" font-family="Segoe UI" x="117, 121.15723, 126.43066, 131.52393, 134.57373, 139.28027, 144.37354, 147.42334, 149.88867, 153.48779, 155.95312, 160.65967, 164.79053, 170.08154, 173.21045, 177.91699, 181.73584, 185.55469, 190.26123, 195.56104, 198.02637, 203.31738, 207.67236, 210.1377, 214.7168, 217.18213, 223.36523, 228.74854, " y="809, ">
				content - expressed by a URI
		</text>
		<rect fill="white" x="121" y="750" width="41" height="16"/>
		<text font-size="12" font-weight="600" font-family="Segoe UI" x="121, 128.22461, 135.56055, 145.12891, 152.38867, 157.21094, " y="763, ">
				howuri
		</text>
		<rect fill="none" stroke="black" stroke-width="1" stroke-linecap="square" stroke-miterlimit="4" transform="translate(0.5 0.5)" x="112" y="748" width="56" height="20"/>
		<rect fill="silver" x="116" y="822" width="52" height="21"/>
		<rect fill="white" x="112" y="818" width="52" height="21"/>
		<rect fill="white" x="117" y="845" width="113" height="36"/>
		<text fill="gray" font-size="9" font-family="Segoe UI" x="117, 125.40674, 130.5, 134.85498, 137.32031, 140.37012, 145.46338, 150.16992, 152.63525, 160.38721, 165.09375, 168.14355, 172.72266, 178.02246, 182.60156, 185.65137, 190.23047, 192.6958, 197.78906, 202.36816, 206.18701, 208.65234, 213.94336, 218.6499, 223.35645, " y="855, ">
				Why the metadata has been
		</text>
		<text fill="gray" font-size="9" font-family="Segoe UI" x="117, 119.17969, 124.27295, 128.43018, 130.60986, 135.70312, 141.00293, 145.70947, 151.00928, 153.47461, 157.07373, 159.53906, 164.24561, 168.37646, 173.66748, 176.79639, 181.50293, 185.32178, 189.14062, 193.84717, 199.14697, 201.6123, 206.90332, 211.2583, 213.72363, " y="867, ">
				included - expressed by a
		</text>
		<text fill="gray" font-size="9" font-family="Segoe UI" x="117, 123.78516, 129.35742, 134.63086, 139.93066, " y="879, ">
				QCode
		</text>
		<rect fill="white" x="121" y="820" width="36" height="16"/>
		<text font-size="12" font-weight="600" font-family="Segoe UI" x="121, 130.56836, 137.79297, " y="833, ">
				why
		</text>
		<rect fill="none" stroke="black" stroke-width="1" stroke-linecap="square" stroke-miterlimit="4" transform="translate(0.5 0.5)" x="112" y="818" width="51" height="20"/>
		<rect fill="silver" x="116" y="892" width="56" height="21"/>
		<rect fill="white" x="112" y="888" width="56" height="21"/>
		<rect fill="white" x="117" y="915" width="119" height="24"/>
		<text fill="gray" font-size="9" font-family="Segoe UI" x="117, 125.40674, 130.5, 134.85498, 137.32031, 140.37012, 145.46338, 150.16992, 152.63525, 160.38721, 165.09375, 168.14355, 172.72266, 178.02246, 182.60156, 185.65137, 190.23047, 192.6958, 197.78906, 202.36816, 206.18701, 208.65234, 213.94336, 218.6499, 223.35645, " y="925, ">
				Why the metadata has been
		</text>
		<text fill="gray" font-size="9" font-family="Segoe UI" x="117, 119.17969, 124.27295, 128.43018, 130.60986, 135.70312, 141.00293, 145.70947, 151.00928, 153.47461, 157.07373, 159.53906, 164.24561, 168.37646, 173.66748, 176.79639, 181.50293, 185.32178, 189.14062, 193.84717, 199.14697, 201.6123, 206.90332, 211.2583, 213.72363, 218.30273, 220.76807, 226.95117, 232.33447, " y="937, ">
				included - expressed by a URI
		</text>
		<rect fill="white" x="121" y="890" width="40" height="16"/>
		<text font-size="12" font-weight="600" font-family="Segoe UI" x="121, 130.56836, 137.79297, 144.25, 151.50977, 156.33203, " y="903, ">
				whyuri
		</text>
		<rect fill="none" stroke="black" stroke-width="1" stroke-linecap="square" stroke-miterlimit="4" transform="translate(0.5 0.5)" x="112" y="888" width="55" height="20"/>
		<rect fill="silver" x="116" y="950" width="97" height="21"/>
		<rect fill="white" x="112" y="946" width="97" height="21"/>
		<rect fill="white" x="117" y="973" width="117" height="72"/>
		<text fill="gray" font-size="9" font-family="Segoe UI" x="117, 123.78516, 128.87842, 133.58496, 136.05029, 141.32373, 144.45264, 146.91797, 154.66992, 159.24902, 164.34229, 168.69727, 171.1626, 175.31982, 180.59326, 185.68652, 189.50537, 192.55518, 195.68408, 200.26318, 202.44287, 207.53613, 210.58594, 214.40479, 216.87012, 219.91992, 225.01318, 229.59229, " y="983, ">
				One or many constraints that
		</text>
		<text fill="gray" font-size="9" font-family="Segoe UI" x="117, 121.5791, 126.87012, 132.16113, 134.34082, 138.6958, 141.16113, 144.21094, 149.48438, 151.94971, 157.24072, 162.33398, 167.625, 169.80469, 171.98438, 175.80322, 180.89648, 183.07617, 188.16943, 193.46924, 195.93457, 198.98438, 204.07764, 208.78418, 211.24951, 215.56055, 220.13965, 222.31934, 227.4126, " y="995, ">
				apply to publishing the value
		</text>
		<text fill="gray" font-size="9" font-family="Segoe UI" x="117, 122.27344, 125.09033, 127.55566, 130.60547, 135.69873, 140.40527, 142.87061, 148.16162, 151.29053, 156.56396, 161.85498, 166.56152, 169.69043, 172.74023, 177.09521, 179.56055, 183.15967, 185.625, 190.33154, 194.4624, 199.75342, 202.88232, 207.58887, 211.40771, 215.22656, 219.93311, " y="1007, ">
				of the property - expressed
		</text>
		<text fill="gray" font-size="9" font-family="Segoe UI" x="117, 122.29102, 126.646, 129.11133, 133.69043, 136.15576, 142.94092, 148.51318, 153.78662, 159.08643, 163.79297, 165.74414, 168.20947, 172.76221, 177.34131, 181.49854, 186.5918, 189.05713, 193.21436, 198.48779, 203.58105, 207.3999, 210.44971, 213.57861, 218.15771, 220.3374, 225.43066, " y="1019, ">
				by a QCode. Each constraint
		</text>
		<text fill="gray" font-size="9" font-family="Segoe UI" x="117, 121.5791, 126.87012, 132.16113, 134.34082, 136.52051, 141.22705, 145.0459, 147.51123, 150.56104, 155.83447, 158.2998, 162.87891, 165.05859, 167.23828, 169.70361, 175.00342, 179.70996, 183.52881, 187.68604, 192.39258, 197.48584, 202.78564, 207.36475, 212.45801, " y="1031, ">
				applies to all descendant
		</text>
		<text fill="gray" font-size="9" font-family="Segoe UI" x="117, 121.70654, 123.88623, 128.59277, 136.34473, 141.05127, 146.14453, 149.19434, 153.01318, " y="1043, ">
				elements.
		</text>
		<rect fill="white" x="121" y="948" width="81" height="16"/>
		<text font-size="12" font-weight="600" font-family="Segoe UI" x="121, 128.44141, 135.70117, 143.14258, 148.90234, 156.23828, 163.49805, 168.77734, 173.44727, 178.22266, 184.67969, 188.08984, 195.34961, " y="961, ">
				pubconstraint
		</text>
		<rect fill="none" stroke="black" stroke-width="1" stroke-linecap="square" stroke-miterlimit="4" transform="translate(0.5 0.5)" x="112" y="946" width="96" height="20"/>
		<rect fill="silver" x="116" y="1056" width="112" height="21"/>
		<rect fill="white" x="112" y="1052" width="112" height="21"/>
		<rect fill="white" x="117" y="1079" width="117" height="72"/>
		<text fill="gray" font-size="9" font-family="Segoe UI" x="117, 123.78516, 128.87842, 133.58496, 136.05029, 141.32373, 144.45264, 146.91797, 154.66992, 159.24902, 164.34229, 168.69727, 171.1626, 175.31982, 180.59326, 185.68652, 189.50537, 192.55518, 195.68408, 200.26318, 202.44287, 207.53613, 210.58594, 214.40479, 216.87012, 219.91992, 225.01318, 229.59229, " y="1089, ">
				One or many constraints that
		</text>
		<text fill="gray" font-size="9" font-family="Segoe UI" x="117, 121.5791, 126.87012, 132.16113, 134.34082, 138.6958, 141.16113, 144.21094, 149.48438, 151.94971, 157.24072, 162.33398, 167.625, 169.80469, 171.98438, 175.80322, 180.89648, 183.07617, 188.16943, 193.46924, 195.93457, 198.98438, 204.07764, 208.78418, 211.24951, 215.56055, 220.13965, 222.31934, 227.4126, " y="1101, ">
				apply to publishing the value
		</text>
		<text fill="gray" font-size="9" font-family="Segoe UI" x="117, 122.27344, 125.09033, 127.55566, 130.60547, 135.69873, 140.40527, 142.87061, 148.16162, 151.29053, 156.56396, 161.85498, 166.56152, 169.69043, 172.74023, 177.09521, 179.56055, 183.15967, 185.625, 190.33154, 194.4624, 199.75342, 202.88232, 207.58887, 211.40771, 215.22656, 219.93311, " y="1113, ">
				of the property - expressed
		</text>
		<text fill="gray" font-size="9" font-family="Segoe UI" x="117, 122.29102, 126.646, 129.11133, 133.69043, 136.15576, 142.33887, 147.72217, 150.11719, 152.06836, 154.53369, 159.08643, 163.66553, 167.82275, 172.91602, 175.38135, 179.53857, 184.81201, 189.90527, 193.72412, 196.77393, 199.90283, 204.48193, 206.66162, 211.75488, " y="1125, ">
				by a URI. Each constraint
		</text>
		<text fill="gray" font-size="9" font-family="Segoe UI" x="117, 121.5791, 126.87012, 132.16113, 134.34082, 136.52051, 141.22705, 145.0459, 147.51123, 150.56104, 155.83447, 158.2998, 162.87891, 165.05859, 167.23828, 169.70361, 175.00342, 179.70996, 183.52881, 187.68604, 192.39258, 197.48584, 202.78564, 207.36475, 212.45801, " y="1137, ">
				applies to all descendant
		</text>
		<text fill="gray" font-size="9" font-family="Segoe UI" x="117, 121.70654, 123.88623, 128.59277, 136.34473, 141.05127, 146.14453, 149.19434, 153.01318, " y="1149, ">
				elements.
		</text>
		<rect fill="white" x="121" y="1054" width="96" height="16"/>
		<text font-size="12" font-weight="600" font-family="Segoe UI" x="121, 128.44141, 135.70117, 143.14258, 148.90234, 156.23828, 163.49805, 168.77734, 173.44727, 178.22266, 184.67969, 188.08984, 195.34961, 200.01953, 207.2793, 212.10156, " y="1067, ">
				pubconstrainturi
		</text>
		<rect fill="none" stroke="black" stroke-width="1" stroke-linecap="square" stroke-miterlimit="4" transform="translate(0.5 0.5)" x="112" y="1052" width="111" height="20"/>
		<rect fill="silver" x="116" y="1162" width="52" height="21"/>
		<rect fill="white" x="112" y="1158" width="52" height="21"/>
		<rect fill="white" x="117" y="1185" width="120" height="36"/>
		<text fill="gray" font-size="9" font-family="Segoe UI" x="117, 122.80518, 125.27051, 128.39941, 133.10596, 135.92285, 138.10254, 143.1958, 147.90234, 155.6543, 160.36084, 165.4541, 168.50391, 170.96924, 176.24268, 179.05957, 181.5249, 184.57471, 189.66797, 194.37451, 196.83984, 200.65869, 205.36523, 213.11719, 217.69629, 222.78955, 225.83936, 228.01904, 232.17627, " y="1195, ">
				A refinement of the semantics
		</text>
		<text fill="gray" font-size="9" font-family="Segoe UI" x="117, 122.27344, 125.09033, 127.55566, 130.60547, 135.69873, 140.40527, 142.87061, 147.57715, 149.75684, 154.46338, 158.62061, 161.67041, 164.79932, 170.07275, 175.16602, 177.3457, 181.50293, 183.96826, 188.54736, 193.84717, 199.14697, 202.27588, 206.98242, 210.80127, 214.62012, 217.08545, " y="1207, ">
				of the electronic address -
		</text>
		<text fill="gray" font-size="9" font-family="Segoe UI" x="117, 121.70654, 125.8374, 131.12842, 134.25732, 138.96387, 142.78271, 146.60156, 151.30811, 156.60791, 159.07324, 164.36426, 168.71924, 171.18457, 175.76367, 178.229, 185.01416, 190.58643, 195.85986, 201.15967, " y="1219, ">
				expressed by a QCode
		</text>
		<rect fill="white" x="121" y="1160" width="36" height="16"/>
		<text font-size="12" font-weight="600" font-family="Segoe UI" x="121, 125.72852, 133.06445, 136.47461, " y="1173, ">
				role
		</text>
		<rect fill="none" stroke="black" stroke-width="1" stroke-linecap="square" stroke-miterlimit="4" transform="translate(0.5 0.5)" x="112" y="1158" width="51" height="20"/>
		<rect fill="silver" x="116" y="1232" width="55" height="21"/>
		<rect fill="white" x="112" y="1228" width="55" height="21"/>
		<rect fill="white" x="117" y="1255" width="120" height="36"/>
		<text fill="gray" font-size="9" font-family="Segoe UI" x="117, 122.80518, 125.27051, 128.39941, 133.10596, 135.92285, 138.10254, 143.1958, 147.90234, 155.6543, 160.36084, 165.4541, 168.50391, 170.96924, 176.24268, 179.05957, 181.5249, 184.57471, 189.66797, 194.37451, 196.83984, 200.65869, 205.36523, 213.11719, 217.69629, 222.78955, 225.83936, 228.01904, 232.17627, " y="1265, ">
				A refinement of the semantics
		</text>
		<text fill="gray" font-size="9" font-family="Segoe UI" x="117, 122.27344, 125.09033, 127.55566, 130.60547, 135.69873, 140.40527, 142.87061, 147.57715, 149.75684, 154.46338, 158.62061, 161.67041, 164.79932, 170.07275, 175.16602, 177.3457, 181.50293, 183.96826, 188.54736, 193.84717, 199.14697, 202.27588, 206.98242, 210.80127, 214.62012, 217.08545, " y="1277, ">
				of the electronic address -
		</text>
		<text fill="gray" font-size="9" font-family="Segoe UI" x="117, 121.70654, 125.8374, 131.12842, 134.25732, 138.96387, 142.78271, 146.60156, 151.30811, 156.60791, 159.07324, 164.36426, 168.71924, 171.18457, 175.76367, 178.229, 184.41211, 189.79541, " y="1289, ">
				expressed by a URI
		</text>
		<rect fill="white" x="121" y="1230" width="39" height="16"/>
		<text font-size="12" font-weight="600" font-family="Segoe UI" x="121, 125.72852, 133.06445, 136.47461, 142.9668, 150.22656, 155.04883, " y="1243, ">
				roleuri
		</text>
		<rect fill="none" stroke="black" stroke-width="1" stroke-linecap="square" stroke-miterlimit="4" transform="translate(0.5 0.5)" x="112" y="1228" width="54" height="20"/>
		<path fill="silver" d="M116 1307L121 1302L189 1302L194 1307L194 1318L189 1323L121 1323L116 1318L116 1307Z"/>
		<path fill="white" d="M112 1303L117 1298L185 1298L190 1303L190 1314L185 1319L117 1319L112 1314L112 1303Z"/>
		<rect fill="white" x="139" y="1300" width="46" height="16"/>
		<text font-size="12" font-weight="600" font-family="Segoe UI" x="139, 146.10742, 153.21484, 160.55078, 165.2207, 172.44531, 178.9375, " y="1313, ">
				##other
		</text>
		<rect fill="white" x="117" y="1300" width="20" height="16"/>
		<text fill="gray" font-size="12" font-family="Segoe UI" x="117, 123.10547, 129.89648, " y="1313, ">
				any
		</text>
		<path fill="none" stroke="black" stroke-width="1" stroke-linecap="square" stroke-miterlimit="4" transform="translate(0.5 0.5)" d="M112 1303L117 1298L184 1298L189 1303L189 1313L184 1318L117 1318L112 1313L112 1303Z"/>
		<rect x="103" y="41" width="11" height="11"/>
		<rect fill="white" x="104" y="42" width="9" height="9"/>
		<rect x="105" y="46" width="7" height="1"/>
		<rect x="47" y="678" width="11" height="11"/>
		<rect fill="white" x="48" y="679" width="9" height="9"/>
		<rect x="49" y="683" width="7" height="1"/>
	</g>
</svg>
