<?xml version="1.0" encoding="utf-8" ?>
<svg xmlns="http://www.w3.org/2000/svg" xmlns:xlink="http://www.w3.org/1999/xlink" width="319" height="1224">
	<clipPath id="cl_3d5">
		<rect x="-10" y="-5" width="319" height="1224"/>
	</clipPath>
	<g clip-path="url(#cl_3d5)">
		<rect fill="#FFFFC0" x="130" width="162" height="1202"/>
		<rect fill="none" stroke="gray" stroke-width="1" stroke-linecap="square" stroke-miterlimit="4" transform="translate(0.5 0.5)" x="130" width="161" height="1201"/>
		<path fill="none" stroke="black" stroke-width="1" stroke-linecap="square" stroke-miterlimit="4" transform="translate(0.5 0.5)" d="M59 613L136 613"/>
		<rect fill="silver" x="4" y="607" width="54" height="21"/>
		<rect fill="white" y="603" width="54" height="21"/>
		<rect fill="#FFFFC0" x="138" y="8" width="131" height="16"/>
		<text fill="gray" font-size="12" font-weight="600" font-family="Segoe UI" x="138, 146.84766, 153.30469, 157.92773, 164.41992, 173.51953, 180.96094, 185.63086, 192.66211, 196.07227, 207.06445, 213.55664, 220.92773, 225.65625, 232.99219, 240.43359, 246.92578, 253.38281, 260.82422, " y="21, ">
				DateOptTimePropType
		</text>
		<rect fill="white" x="5" y="630" width="110" height="12"/>
		<text fill="gray" font-size="9" font-family="Segoe UI" x="5, 9.5527344, 13.683594, 18.974609, 21.154297, 23.333984, 27.491211, 29.670898, 32.720703, 35.186035, 40.48584, 45.064941, 48.114746, 52.821289, 56.640137, 59.105469, 64.378906, 67.195801, 69.661133, 72.790039, 77.496582, 81.653809, 86.74707, 89.875977, 93.004883, 97.711426, 102.80469, 106.96191, 111.66846, " y="640, ">
				Explicit dates of recurrence.
		</text>
		<rect fill="white" x="9" y="605" width="33" height="16"/>
		<text font-size="12" font-weight="600" font-family="Segoe UI" x="9, 13.775391, 22.623047, 29.080078, 33.703125, " y="618, ">
				rDate
		</text>
		<path fill="none" stroke="black" stroke-width="1" stroke-linecap="square" stroke-miterlimit="4" transform="translate(0.5 0.5)" d="M2 605L7 605"/>
		<path fill="none" stroke="black" stroke-width="1" stroke-linecap="square" stroke-miterlimit="4" transform="translate(0.5 0.5)" d="M2 607L6 607"/>
		<path fill="none" stroke="black" stroke-width="1" stroke-linecap="square" stroke-miterlimit="4" transform="translate(0.5 0.5)" d="M2 609L6 609"/>
		<rect fill="none" stroke="black" stroke-width="1" stroke-linecap="square" stroke-miterlimit="4" transform="translate(0.5 0.5)" y="603" width="53" height="20"/>
		<path fill="white" d="M214 55L214 36L137 36L137 55L137 1189L284 1189L284 55L214 55Z"/>
		<rect fill="white" x="157" y="38" width="51" height="16"/>
		<text font-size="12" font-style="italic" font-family="Segoe UI" x="157, 163.50391, 167.38281, 171.26172, 175.5332, 178.63867, 185.14258, 191.83984, 195.73047, 201.57227, " y="51, ">
				attributes
		</text>
		<path fill="none" stroke="black" stroke-width="1" stroke-linecap="square" stroke-miterlimit="4" transform="translate(0.5 0.5)" d="M214 55L214 36L137 36L137 55L137 1189L284 1189L284 55L214 55Z"/>
		<rect fill="silver" x="155" y="68" width="52" height="21"/>
		<rect fill="white" x="151" y="64" width="52" height="21"/>
		<rect fill="white" x="156" y="91" width="101" height="24"/>
		<text fill="gray" font-size="9" font-family="Segoe UI" x="156, 160.71533, 165.80859, 170.51514, 172.98047, 175.16016, 180.43359, 184.59082, 189.16992, 191.34961, 193.81494, 195.99463, 201.29443, 206.00098, 211.09424, 214.14404, 216.32373, 219.14062, 221.32031, 226.02686, 229.15576, 231.62109, 236.89453, 239.71143, 242.17676, 245.22656, 250.31982, " y="101, ">
				The local identifier of the
		</text>
		<text fill="gray" font-size="9" font-family="Segoe UI" x="156, 161.29102, 164.41992, 169.69336, 174.98438, 179.69092, 182.81982, 185.86963, 190.22461, " y="113, ">
				property.
		</text>
		<rect fill="white" x="160" y="66" width="36" height="16"/>
		<text font-size="12" font-weight="600" font-family="Segoe UI" x="160, 163.41016, " y="79, ">
				id
		</text>
		<rect fill="none" stroke="black" stroke-width="1" stroke-linecap="square" stroke-miterlimit="4" transform="translate(0.5 0.5)" x="151" y="64" width="51" height="20"/>
		<rect fill="silver" x="155" y="126" width="58" height="21"/>
		<rect fill="white" x="151" y="122" width="58" height="21"/>
		<rect fill="white" x="156" y="149" width="121" height="120"/>
		<text fill="gray" font-size="9" font-family="Segoe UI" x="156, 158.39502, 161.21191, 163.67725, 166.72705, 171.82031, 176.52686, 178.99219, 184.2832, 187.41211, 192.68555, 197.97656, 202.68311, 205.81201, 208.86182, 213.2168, 215.68213, 219.99316, 224.57227, 226.75195, 231.84521, 236.55176, 239.01709, 241.19678, 245.01562, 247.48096, 252.57422, 257.84766, " y="159, ">
				If the property value is not
		</text>
		<text fill="gray" font-size="9" font-family="Segoe UI" x="156, 161.2998, 166.00635, 168.82324, 171.00293, 176.09619, 180.80273, 186.10254, 188.05371, 190.51904, 194.33789, 199.62891, 204.33545, 208.49268, 210.67236, 213.48926, 215.66895, 220.37549, 224.19434, 226.65967, 233.16357, 238.25684, 240.43652, 244.59375, 249.68701, 252.15234, 256.85889, 261.95215, 265.00195, 267.18164, 270.23145, " y="171, ">
				defined, specifies which entity
		</text>
		<text fill="gray" font-size="9" font-family="Segoe UI" x="156, 158.71582, 164.00684, 168.71338, 171.84229, 175.66113, 180.93457, 186.02783, 187.979, 190.44434, 195.71777, 198.84668, 204.14648, 208.72559, 213.81885, 215.99854, 219.81738, 224.39648, 227.44629, 229.62598, 234.89941, 239.99268, 242.45801, 247.73145, " y="183, ">
				(person, organisation or
		</text>
		<text fill="gray" font-size="9" font-family="Segoe UI" x="156, 159.81885, 164.17383, 167.99268, 171.04248, 175.74902, 183.50098, 186.2168, 188.68213, 195.18604, 197.36572, 199.54541, 201.7251, 204.19043, 208.89697, 214.19678, 216.37646, 219.42627, 221.8916, 224.94141, 230.03467, 234.74121, 237.20654, 242.49756, 245.62646, 250.8999, 256.19092, 260.89746, 264.02637, 267.07617, " y="195, ">
				system) will edit the property
		</text>
		<text fill="gray" font-size="9" font-family="Segoe UI" x="156, 160.31104, 164.89014, 167.06982, 172.16309, 176.86963, 179.33496, 182.93408, 185.39941, 190.10596, 194.23682, 199.52783, 202.65674, 207.36328, 211.18213, 215.00098, 219.70752, 225.00732, 227.47266, 232.76367, 237.11865, 239.58398, 244.16309, 246.62842, 253.41357, 258.98584, 264.25928, 269.55908, 274.26562, " y="207, ">
				value - expressed by a QCode.
		</text>
		<text fill="gray" font-size="9" font-family="Segoe UI" x="156, 158.39502, 161.21191, 163.67725, 166.72705, 171.82031, 176.52686, 178.99219, 184.2832, 187.41211, 192.68555, 197.97656, 202.68311, 205.81201, 208.86182, 213.2168, 215.68213, 219.99316, 224.57227, 226.75195, 231.84521, 236.55176, 239.01709, 241.19678, " y="219, ">
				If the property value is
		</text>
		<text fill="gray" font-size="9" font-family="Segoe UI" x="156, 161.2998, 166.00635, 168.82324, 171.00293, 176.09619, 180.80273, 186.10254, 188.05371, 190.51904, 194.33789, 199.62891, 204.33545, 208.49268, 210.67236, 213.48926, 215.66895, 220.37549, 224.19434, 226.65967, 233.16357, 238.25684, 240.43652, 244.59375, 249.68701, 252.15234, 256.85889, 261.95215, 265.00195, 267.18164, 270.23145, " y="231, ">
				defined, specifies which entity
		</text>
		<text fill="gray" font-size="9" font-family="Segoe UI" x="156, 158.71582, 164.00684, 168.71338, 171.84229, 175.66113, 180.93457, 186.02783, 187.979, 190.44434, 195.71777, 198.84668, 204.14648, 208.72559, 213.81885, 215.99854, 219.81738, 224.39648, 227.44629, 229.62598, 234.89941, 239.99268, 242.45801, 247.73145, " y="243, ">
				(person, organisation or
		</text>
		<text fill="gray" font-size="9" font-family="Segoe UI" x="156, 159.81885, 164.17383, 167.99268, 171.04248, 175.74902, 183.50098, 186.2168, 188.68213, 193.77539, 198.35449, 202.17334, 204.63867, 209.34521, 214.64502, 216.82471, 219.87451, 224.58105, 229.88086, 232.34619, 235.396, 240.48926, " y="255, ">
				system) has edited the
		</text>
		<text fill="gray" font-size="9" font-family="Segoe UI" x="156, 161.29102, 164.41992, 169.69336, 174.98438, 179.69092, 182.81982, 185.86963, 190.22461, 192.68994, 197.00098, 201.58008, 203.75977, 208.85303, 213.55957, " y="267, ">
				property value.
		</text>
		<rect fill="white" x="160" y="124" width="42" height="16"/>
		<text font-size="12" font-weight="600" font-family="Segoe UI" x="160, 165.75977, 170.48828, 176.98047, 183.4375, 188.06055, 195.39648, " y="137, ">
				creator
		</text>
		<rect fill="none" stroke="black" stroke-width="1" stroke-linecap="square" stroke-miterlimit="4" transform="translate(0.5 0.5)" x="151" y="122" width="57" height="20"/>
		<rect fill="silver" x="155" y="280" width="73" height="21"/>
		<rect fill="white" x="151" y="276" width="73" height="21"/>
		<rect fill="white" x="156" y="303" width="120" height="108"/>
		<text fill="gray" font-size="9" font-family="Segoe UI" x="156, 158.39502, 161.21191, 163.67725, 166.72705, 171.82031, 176.52686, 178.99219, 184.2832, 187.41211, 192.68555, 197.97656, 202.68311, 205.81201, 208.86182, 213.2168, 215.68213, 219.99316, 224.57227, 226.75195, 231.84521, 236.55176, 239.01709, 241.19678, 245.01562, 247.48096, 252.57422, 257.84766, " y="313, ">
				If the property value is not
		</text>
		<text fill="gray" font-size="9" font-family="Segoe UI" x="156, 161.2998, 166.00635, 168.82324, 171.00293, 176.09619, 180.80273, 186.10254, 188.05371, 190.51904, 194.33789, 199.62891, 204.33545, 208.49268, 210.67236, 213.48926, 215.66895, 220.37549, 224.19434, 226.65967, 233.16357, 238.25684, 240.43652, 244.59375, 249.68701, 252.15234, 256.85889, 261.95215, 265.00195, 267.18164, 270.23145, " y="325, ">
				defined, specifies which entity
		</text>
		<text fill="gray" font-size="9" font-family="Segoe UI" x="156, 158.71582, 164.00684, 168.71338, 171.84229, 175.66113, 180.93457, 186.02783, 187.979, 190.44434, 195.71777, 198.84668, 204.14648, 208.72559, 213.81885, 215.99854, 219.81738, 224.39648, 227.44629, 229.62598, 234.89941, 239.99268, 242.45801, 247.73145, " y="337, ">
				(person, organisation or
		</text>
		<text fill="gray" font-size="9" font-family="Segoe UI" x="156, 159.81885, 164.17383, 167.99268, 171.04248, 175.74902, 183.50098, 186.2168, 188.68213, 195.18604, 197.36572, 199.54541, 201.7251, 204.19043, 208.89697, 214.19678, 216.37646, 219.42627, 221.8916, 224.94141, 230.03467, 234.74121, 237.20654, 242.49756, 245.62646, 250.8999, 256.19092, 260.89746, 264.02637, 267.07617, " y="349, ">
				system) will edit the property
		</text>
		<text fill="gray" font-size="9" font-family="Segoe UI" x="156, 159.59912, 162.06445, 166.771, 170.90186, 176.19287, 179.32178, 184.02832, 187.84717, 191.66602, 196.37256, 201.67236, 204.1377, 209.42871, 213.78369, 216.24902, 220.82812, 223.29346, 229.47656, 234.85986, 237.25488, 239.20605, 241.67139, 244.06641, 246.8833, 249.34863, 252.39844, 257.4917, " y="361, ">
				- expressed by a URI. If the
		</text>
		<text fill="gray" font-size="9" font-family="Segoe UI" x="156, 161.29102, 164.41992, 169.69336, 174.98438, 179.69092, 182.81982, 185.86963, 190.22461, 192.68994, 197.00098, 201.58008, 203.75977, 208.85303, 213.55957, 216.0249, 218.20459, 222.02344, 224.48877, 229.78857, 234.49512, 237.31201, 239.4917, 244.58496, 249.2915, 254.59131, " y="373, ">
				property value is defined,
		</text>
		<text fill="gray" font-size="9" font-family="Segoe UI" x="156, 159.81885, 165.10986, 169.81641, 173.97363, 176.15332, 178.97021, 181.1499, 185.85645, 189.67529, 192.14062, 198.64453, 203.73779, 205.91748, 210.07471, 215.16797, 217.6333, 222.33984, 227.43311, 230.48291, 232.6626, 235.7124, 240.06738, 242.53271, 245.24854, 250.53955, 255.24609, 258.375, 262.19385, 267.46729, 272.56055, " y="385, ">
				specifies which entity (person,
		</text>
		<text fill="gray" font-size="9" font-family="Segoe UI" x="156, 161.27344, 164.40234, 169.70215, 174.28125, 179.37451, 181.5542, 185.37305, 189.95215, 193.00195, 195.18164, 200.45508, 205.54834, 208.01367, 213.28711, 216.41602, 218.88135, 222.7002, 227.05518, 230.87402, 233.92383, 238.63037, 246.38232, 249.09814, 251.56348, 256.65674, 261.23584, " y="397, ">
				organisation or system) has
		</text>
		<text fill="gray" font-size="9" font-family="Segoe UI" x="156, 160.70654, 166.00635, 168.18604, 171.23584, 175.94238, 181.24219, 183.70752, 186.75732, 191.85059, 196.55713, 199.02246, 204.31348, 207.44238, 212.71582, 218.00684, 222.71338, 225.84229, 228.89209, 233.24707, " y="409, ">
				edited the property.
		</text>
		<rect fill="white" x="160" y="278" width="57" height="16"/>
		<text font-size="12" font-weight="600" font-family="Segoe UI" x="160, 165.75977, 170.48828, 176.98047, 183.4375, 188.06055, 195.39648, 200.20703, 207.4668, 212.28906, " y="291, ">
				creatoruri
		</text>
		<rect fill="none" stroke="black" stroke-width="1" stroke-linecap="square" stroke-miterlimit="4" transform="translate(0.5 0.5)" x="151" y="276" width="72" height="20"/>
		<rect fill="silver" x="155" y="422" width="69" height="21"/>
		<rect fill="white" x="151" y="418" width="69" height="21"/>
		<rect fill="white" x="156" y="445" width="119" height="72"/>
		<text fill="gray" font-size="9" font-family="Segoe UI" x="156, 160.71533, 165.80859, 170.51514, 172.98047, 178.28027, 182.85938, 185.90918, 190.61572, 193.08105, 195.79688, 200.37598, 205.46924, 210.76904, 212.72021, 215.18555, 220.45898, 225.75, 228.7998, 230.97949, 236.25293, 241.34619, 245.92529, 248.10498, 250.28467, 254.63965, 256.59082, 259.05615, 262.10596, 267.19922, " y="455, ">
				The date (and, optionally, the
		</text>
		<text fill="gray" font-size="9" font-family="Segoe UI" x="156, 159.0498, 161.22949, 168.98145, 173.68799, 176.40381, 178.86914, 185.37305, 190.46631, 195.17285, 200.26611, 202.73145, 205.78125, 210.87451, 215.58105, 218.04639, 223.3374, 226.46631, 231.73975, 237.03076, 241.7373, 244.86621, 247.91602, 252.271, 254.73633, 261.24023, 265.81934, " y="467, ">
				time) when the property was
		</text>
		<text fill="gray" font-size="9" font-family="Segoe UI" x="156, 158.17969, 162.75879, 166.57764, 169.62744, 172.09277, 179.84473, 185.11816, 190.41797, 192.59766, 195.41455, 197.59424, 202.30078, 207.60059, 209.55176, 212.01709, 216.73242, 221.82568, 226.53223, 228.99756, 231.17725, 236.27051, 238.4502, 241.5, 243.67969, 248.25879, 250.43848, 252.90381, 257.21484, 261.79395, 263.97363, 269.06689, " y="479, ">
				last modified. The initial value
		</text>
		<text fill="gray" font-size="9" font-family="Segoe UI" x="156, 158.17969, 161.99854, 164.46387, 167.51367, 172.60693, 177.31348, 179.77881, 185.07861, 189.65771, 192.70752, 197.41406, 199.87939, 202.59521, 207.17432, 212.26758, 217.56738, 219.51855, 221.98389, 227.25732, 232.54834, 235.59814, 237.77783, 243.05127, 248.14453, 252.72363, 254.90332, 257.08301, 261.43799, " y="491, ">
				is the date (and, optionally,
		</text>
		<text fill="gray" font-size="9" font-family="Segoe UI" x="156, 159.0498, 164.14307, 168.84961, 171.31494, 174.36475, 176.54443, 184.29639, 189.00293, 191.71875, 194.18408, 199.45752, 202.27441, 204.73975, 208.89697, 212.02588, 216.73242, 221.31152, 224.36133, 226.54102, 231.81445, 236.90771, 239.37305, 244.64648, 247.46338, 249.92871, 252.97852, 258.07178, " y="503, ">
				the time) of creation of the
		</text>
		<text fill="gray" font-size="9" font-family="Segoe UI" x="156, 161.29102, 164.41992, 169.69336, 174.98438, 179.69092, 182.81982, 185.86963, 190.22461, " y="515, ">
				property.
		</text>
		<rect fill="white" x="160" y="420" width="53" height="16"/>
		<text font-size="12" font-weight="600" font-family="Segoe UI" x="160, 170.99219, 178.32812, 185.75781, 189.16797, 193.76758, 197.17773, 203.66992, " y="433, ">
				modified
		</text>
		<rect fill="none" stroke="black" stroke-width="1" stroke-linecap="square" stroke-miterlimit="4" transform="translate(0.5 0.5)" x="151" y="418" width="68" height="20"/>
		<rect fill="silver" x="155" y="528" width="59" height="21"/>
		<rect fill="white" x="151" y="524" width="59" height="21"/>
		<rect fill="white" x="156" y="551" width="118" height="108"/>
		<text fill="gray" font-size="9" font-family="Segoe UI" x="156, 158.39502, 161.21191, 163.67725, 167.49609, 172.20264, 175.25244, 177.71777, 180.76758, 186.04102, 188.50635, 191.55615, 194.68506, 199.77832, 204.48486, 206.9502, 210, 215.09326, " y="561, ">
				If set to true the
		</text>
		<text fill="gray" font-size="9" font-family="Segoe UI" x="156, 160.15723, 165.43066, 168.55957, 171.68848, 176.39502, 180.21387, 185.50488, 190.77832, 195.87158, 201.17139, 203.35107, 208.44434, 213.74414, 216.20947, 221.50049, 224.62939, 229.90283, 235.19385, 239.90039, 243.0293, 246.0791, 250.43408, 252.89941, 259.40332, 263.98242, " y="573, ">
				corresponding property was
		</text>
		<text fill="gray" font-size="9" font-family="Segoe UI" x="156, 160.5791, 165.87891, 171.17871, 175.88525, 181.18506, 183.65039, 186.7002, 191.97363, 194.43896, 197.48877, 202.58203, 207.28857, 209.75391, 215.92822, 220.77979, 223.24512, 225.64014, 228.68994, 233.39648, 241.14844, 243.61377, 246.43066, 251.7041, 254.83301, 257.29834, " y="585, ">
				added to the G2 Item for a
		</text>
		<text fill="gray" font-size="9" font-family="Segoe UI" x="156, 159.81885, 165.10986, 169.81641, 173.97363, 176.15332, 178.97021, 181.1499, 185.30713, 187.77246, 191.92969, 197.02295, 200.8418, 203.8916, 209.16504, 216.91699, 221.62354, 224.75244, 227.21777, 232.49121, 235.62012, 238.08545, 243.38525, 246.51416, 251.7876, 256.88086, 262.17188, 264.63721, 269.91064, " y="597, ">
				specific customer or group of
		</text>
		<text fill="gray" font-size="9" font-family="Segoe UI" x="156, 160.15723, 165.25049, 169.06934, 172.11914, 177.39258, 185.14453, 189.85107, 192.97998, 196.79883, 199.26416, 204.5376, 209.63086, 211.81055, 216.16553, 218.1167, 220.58203, 225.29736, 230.39062, 235.09717, 237.5625, 242.8623, 247.56885, 250.38574, 254.96484, 260.05811, 262.23779, " y="609, ">
				customers only. The default
		</text>
		<text fill="gray" font-size="9" font-family="Segoe UI" x="156, 160.31104, 164.89014, 167.06982, 172.16309, 176.86963, 179.33496, 184.6084, 187.42529, 189.89062, 192.94043, 198.03369, 200.21338, 204.03223, 206.49756, 211.78857, 214.91748, 220.19092, 225.48193, 230.18848, 233.31738, 236.36719, 240.72217, 243.1875, 245.36719, 249.18604, 251.65137, 254.46826, 259.04736, 261.22705, 265.0459, " y="621, ">
				value of this property is false
		</text>
		<text fill="gray" font-size="9" font-family="Segoe UI" x="156, 162.50391, 167.59717, 169.77686, 173.93408, 179.02734, 181.49268, 186.07178, 191.36279, 196.65381, 198.8335, 201.01318, 205.71973, 209.53857, 212.00391, 218.50781, 223.60107, 228.30762, 233.40088, 235.86621, 238.91602, 244.00928, 246.18896, " y="633, ">
				which applies when this
		</text>
		<text fill="gray" font-size="9" font-family="Segoe UI" x="156, 160.5791, 163.62891, 166.67871, 169.80762, 171.9873, 177.27832, 182.37158, 185.42139, 190.12793, 192.59326, 194.77295, 198.5918, 201.05713, 206.15039, 211.42383, 214.47363, 216.93896, 222.03223, 225.85107, 230.55762, 235.85742, 238.32275, 244.82666, 247.00635, 250.05615, 255.14941, 257.61475, 260.66455, 265.75781, " y="645, ">
				attribute is not used with the
		</text>
		<text fill="gray" font-size="9" font-family="Segoe UI" x="156, 161.29102, 164.41992, 169.69336, 174.98438, 179.69092, 182.81982, 185.86963, 190.22461, " y="657, ">
				property.
		</text>
		<rect fill="white" x="160" y="526" width="43" height="16"/>
		<text font-size="12" font-weight="600" font-family="Segoe UI" x="160, 165.75977, 173.01953, 178.29883, 182.92188, 190.25781, " y="539, ">
				custom
		</text>
		<rect fill="none" stroke="black" stroke-width="1" stroke-linecap="square" stroke-miterlimit="4" transform="translate(0.5 0.5)" x="151" y="524" width="58" height="20"/>
		<rect fill="silver" x="155" y="670" width="52" height="21"/>
		<rect fill="white" x="151" y="666" width="52" height="21"/>
		<rect fill="white" x="156" y="693" width="118" height="48"/>
		<text fill="gray" font-size="9" font-family="Segoe UI" x="156, 158.39502, 163.48828, 168.78809, 170.96777, 175.125, 179.7041, 182.75391, 187.46045, 191.2793, 193.74463, 199.03564, 203.39062, 205.85596, 212.35986, 217.45312, 219.63281, 223.79004, 228.8833, 231.34863, 239.10059, 243.80713, 248.38623, 253.47949, 257.29834, 259.76367, 262.81348, 267.90674, " y="703, ">
				Indicates by which means the
		</text>
		<text fill="gray" font-size="9" font-family="Segoe UI" x="156, 160.31104, 164.89014, 167.06982, 172.16309, 176.86963, 179.33496, 185.83887, 190.41797, 194.23682, 196.70215, 201.40869, 205.53955, 208.58936, 211.71826, 216.29736, 220.45459, 223.50439, 228.21094, 233.51074, 235.97607, 238.79297, 241.92188, 247.19531, 254.94727, 257.4126, 260.4624, 265.55566, " y="715, ">
				value was extracted from the
		</text>
		<text fill="gray" font-size="9" font-family="Segoe UI" x="156, 160.15723, 165.43066, 170.52393, 173.57373, 178.28027, 183.37354, 186.42334, 188.88867, 192.48779, 194.95312, 199.65967, 203.79053, 209.08154, 212.21045, 216.91699, 220.73584, 224.55469, 229.26123, 234.56104, 237.02637, 242.31738, 246.67236, 249.1377, " y="727, ">
				content - expressed by a
		</text>
		<text fill="gray" font-size="9" font-family="Segoe UI" x="156, 162.78516, 168.35742, 173.63086, 178.93066, " y="739, ">
				QCode
		</text>
		<rect fill="white" x="160" y="668" width="36" height="16"/>
		<text font-size="12" font-weight="600" font-family="Segoe UI" x="160, 167.22461, 174.56055, " y="681, ">
				how
		</text>
		<rect fill="none" stroke="black" stroke-width="1" stroke-linecap="square" stroke-miterlimit="4" transform="translate(0.5 0.5)" x="151" y="666" width="51" height="20"/>
		<rect fill="silver" x="155" y="752" width="57" height="21"/>
		<rect fill="white" x="151" y="748" width="57" height="21"/>
		<rect fill="white" x="156" y="775" width="118" height="36"/>
		<text fill="gray" font-size="9" font-family="Segoe UI" x="156, 158.39502, 163.48828, 168.78809, 170.96777, 175.125, 179.7041, 182.75391, 187.46045, 191.2793, 193.74463, 199.03564, 203.39062, 205.85596, 212.35986, 217.45312, 219.63281, 223.79004, 228.8833, 231.34863, 239.10059, 243.80713, 248.38623, 253.47949, 257.29834, 259.76367, 262.81348, 267.90674, " y="785, ">
				Indicates by which means the
		</text>
		<text fill="gray" font-size="9" font-family="Segoe UI" x="156, 160.31104, 164.89014, 167.06982, 172.16309, 176.86963, 179.33496, 185.83887, 190.41797, 194.23682, 196.70215, 201.40869, 205.53955, 208.58936, 211.71826, 216.29736, 220.45459, 223.50439, 228.21094, 233.51074, 235.97607, 238.79297, 241.92188, 247.19531, 254.94727, 257.4126, 260.4624, 265.55566, " y="797, ">
				value was extracted from the
		</text>
		<text fill="gray" font-size="9" font-family="Segoe UI" x="156, 160.15723, 165.43066, 170.52393, 173.57373, 178.28027, 183.37354, 186.42334, 188.88867, 192.48779, 194.95312, 199.65967, 203.79053, 209.08154, 212.21045, 216.91699, 220.73584, 224.55469, 229.26123, 234.56104, 237.02637, 242.31738, 246.67236, 249.1377, 253.7168, 256.18213, 262.36523, 267.74854, " y="809, ">
				content - expressed by a URI
		</text>
		<rect fill="white" x="160" y="750" width="41" height="16"/>
		<text font-size="12" font-weight="600" font-family="Segoe UI" x="160, 167.22461, 174.56055, 184.12891, 191.38867, 196.21094, " y="763, ">
				howuri
		</text>
		<rect fill="none" stroke="black" stroke-width="1" stroke-linecap="square" stroke-miterlimit="4" transform="translate(0.5 0.5)" x="151" y="748" width="56" height="20"/>
		<rect fill="silver" x="155" y="822" width="52" height="21"/>
		<rect fill="white" x="151" y="818" width="52" height="21"/>
		<rect fill="white" x="156" y="845" width="113" height="36"/>
		<text fill="gray" font-size="9" font-family="Segoe UI" x="156, 164.40674, 169.5, 173.85498, 176.32031, 179.37012, 184.46338, 189.16992, 191.63525, 199.38721, 204.09375, 207.14355, 211.72266, 217.02246, 221.60156, 224.65137, 229.23047, 231.6958, 236.78906, 241.36816, 245.18701, 247.65234, 252.94336, 257.6499, 262.35645, " y="855, ">
				Why the metadata has been
		</text>
		<text fill="gray" font-size="9" font-family="Segoe UI" x="156, 158.17969, 163.27295, 167.43018, 169.60986, 174.70312, 180.00293, 184.70947, 190.00928, 192.47461, 196.07373, 198.53906, 203.24561, 207.37646, 212.66748, 215.79639, 220.50293, 224.32178, 228.14062, 232.84717, 238.14697, 240.6123, 245.90332, 250.2583, 252.72363, " y="867, ">
				included - expressed by a
		</text>
		<text fill="gray" font-size="9" font-family="Segoe UI" x="156, 162.78516, 168.35742, 173.63086, 178.93066, " y="879, ">
				QCode
		</text>
		<rect fill="white" x="160" y="820" width="36" height="16"/>
		<text font-size="12" font-weight="600" font-family="Segoe UI" x="160, 169.56836, 176.79297, " y="833, ">
				why
		</text>
		<rect fill="none" stroke="black" stroke-width="1" stroke-linecap="square" stroke-miterlimit="4" transform="translate(0.5 0.5)" x="151" y="818" width="51" height="20"/>
		<rect fill="silver" x="155" y="892" width="56" height="21"/>
		<rect fill="white" x="151" y="888" width="56" height="21"/>
		<rect fill="white" x="156" y="915" width="119" height="24"/>
		<text fill="gray" font-size="9" font-family="Segoe UI" x="156, 164.40674, 169.5, 173.85498, 176.32031, 179.37012, 184.46338, 189.16992, 191.63525, 199.38721, 204.09375, 207.14355, 211.72266, 217.02246, 221.60156, 224.65137, 229.23047, 231.6958, 236.78906, 241.36816, 245.18701, 247.65234, 252.94336, 257.6499, 262.35645, " y="925, ">
				Why the metadata has been
		</text>
		<text fill="gray" font-size="9" font-family="Segoe UI" x="156, 158.17969, 163.27295, 167.43018, 169.60986, 174.70312, 180.00293, 184.70947, 190.00928, 192.47461, 196.07373, 198.53906, 203.24561, 207.37646, 212.66748, 215.79639, 220.50293, 224.32178, 228.14062, 232.84717, 238.14697, 240.6123, 245.90332, 250.2583, 252.72363, 257.30273, 259.76807, 265.95117, 271.33447, " y="937, ">
				included - expressed by a URI
		</text>
		<rect fill="white" x="160" y="890" width="40" height="16"/>
		<text font-size="12" font-weight="600" font-family="Segoe UI" x="160, 169.56836, 176.79297, 183.25, 190.50977, 195.33203, " y="903, ">
				whyuri
		</text>
		<rect fill="none" stroke="black" stroke-width="1" stroke-linecap="square" stroke-miterlimit="4" transform="translate(0.5 0.5)" x="151" y="888" width="55" height="20"/>
		<rect fill="silver" x="155" y="950" width="97" height="21"/>
		<rect fill="white" x="151" y="946" width="97" height="21"/>
		<rect fill="white" x="156" y="973" width="117" height="72"/>
		<text fill="gray" font-size="9" font-family="Segoe UI" x="156, 162.78516, 167.87842, 172.58496, 175.05029, 180.32373, 183.45264, 185.91797, 193.66992, 198.24902, 203.34229, 207.69727, 210.1626, 214.31982, 219.59326, 224.68652, 228.50537, 231.55518, 234.68408, 239.26318, 241.44287, 246.53613, 249.58594, 253.40479, 255.87012, 258.91992, 264.01318, 268.59229, " y="983, ">
				One or many constraints that
		</text>
		<text fill="gray" font-size="9" font-family="Segoe UI" x="156, 160.5791, 165.87012, 171.16113, 173.34082, 177.6958, 180.16113, 183.21094, 188.48438, 190.94971, 196.24072, 201.33398, 206.625, 208.80469, 210.98438, 214.80322, 219.89648, 222.07617, 227.16943, 232.46924, 234.93457, 237.98438, 243.07764, 247.78418, 250.24951, 254.56055, 259.13965, 261.31934, 266.4126, " y="995, ">
				apply to publishing the value
		</text>
		<text fill="gray" font-size="9" font-family="Segoe UI" x="156, 161.27344, 164.09033, 166.55566, 169.60547, 174.69873, 179.40527, 181.87061, 187.16162, 190.29053, 195.56396, 200.85498, 205.56152, 208.69043, 211.74023, 216.09521, 218.56055, 222.15967, 224.625, 229.33154, 233.4624, 238.75342, 241.88232, 246.58887, 250.40771, 254.22656, 258.93311, " y="1007, ">
				of the property - expressed
		</text>
		<text fill="gray" font-size="9" font-family="Segoe UI" x="156, 161.29102, 165.646, 168.11133, 172.69043, 175.15576, 181.94092, 187.51318, 192.78662, 198.08643, 202.79297, 204.74414, 207.20947, 211.76221, 216.34131, 220.49854, 225.5918, 228.05713, 232.21436, 237.48779, 242.58105, 246.3999, 249.44971, 252.57861, 257.15771, 259.3374, 264.43066, " y="1019, ">
				by a QCode. Each constraint
		</text>
		<text fill="gray" font-size="9" font-family="Segoe UI" x="156, 160.5791, 165.87012, 171.16113, 173.34082, 175.52051, 180.22705, 184.0459, 186.51123, 189.56104, 194.83447, 197.2998, 201.87891, 204.05859, 206.23828, 208.70361, 214.00342, 218.70996, 222.52881, 226.68604, 231.39258, 236.48584, 241.78564, 246.36475, 251.45801, " y="1031, ">
				applies to all descendant
		</text>
		<text fill="gray" font-size="9" font-family="Segoe UI" x="156, 160.70654, 162.88623, 167.59277, 175.34473, 180.05127, 185.14453, 188.19434, 192.01318, " y="1043, ">
				elements.
		</text>
		<rect fill="white" x="160" y="948" width="81" height="16"/>
		<text font-size="12" font-weight="600" font-family="Segoe UI" x="160, 167.44141, 174.70117, 182.14258, 187.90234, 195.23828, 202.49805, 207.77734, 212.44727, 217.22266, 223.67969, 227.08984, 234.34961, " y="961, ">
				pubconstraint
		</text>
		<rect fill="none" stroke="black" stroke-width="1" stroke-linecap="square" stroke-miterlimit="4" transform="translate(0.5 0.5)" x="151" y="946" width="96" height="20"/>
		<rect fill="silver" x="155" y="1056" width="112" height="21"/>
		<rect fill="white" x="151" y="1052" width="112" height="21"/>
		<rect fill="white" x="156" y="1079" width="117" height="72"/>
		<text fill="gray" font-size="9" font-family="Segoe UI" x="156, 162.78516, 167.87842, 172.58496, 175.05029, 180.32373, 183.45264, 185.91797, 193.66992, 198.24902, 203.34229, 207.69727, 210.1626, 214.31982, 219.59326, 224.68652, 228.50537, 231.55518, 234.68408, 239.26318, 241.44287, 246.53613, 249.58594, 253.40479, 255.87012, 258.91992, 264.01318, 268.59229, " y="1089, ">
				One or many constraints that
		</text>
		<text fill="gray" font-size="9" font-family="Segoe UI" x="156, 160.5791, 165.87012, 171.16113, 173.34082, 177.6958, 180.16113, 183.21094, 188.48438, 190.94971, 196.24072, 201.33398, 206.625, 208.80469, 210.98438, 214.80322, 219.89648, 222.07617, 227.16943, 232.46924, 234.93457, 237.98438, 243.07764, 247.78418, 250.24951, 254.56055, 259.13965, 261.31934, 266.4126, " y="1101, ">
				apply to publishing the value
		</text>
		<text fill="gray" font-size="9" font-family="Segoe UI" x="156, 161.27344, 164.09033, 166.55566, 169.60547, 174.69873, 179.40527, 181.87061, 187.16162, 190.29053, 195.56396, 200.85498, 205.56152, 208.69043, 211.74023, 216.09521, 218.56055, 222.15967, 224.625, 229.33154, 233.4624, 238.75342, 241.88232, 246.58887, 250.40771, 254.22656, 258.93311, " y="1113, ">
				of the property - expressed
		</text>
		<text fill="gray" font-size="9" font-family="Segoe UI" x="156, 161.29102, 165.646, 168.11133, 172.69043, 175.15576, 181.33887, 186.72217, 189.11719, 191.06836, 193.53369, 198.08643, 202.66553, 206.82275, 211.91602, 214.38135, 218.53857, 223.81201, 228.90527, 232.72412, 235.77393, 238.90283, 243.48193, 245.66162, 250.75488, " y="1125, ">
				by a URI. Each constraint
		</text>
		<text fill="gray" font-size="9" font-family="Segoe UI" x="156, 160.5791, 165.87012, 171.16113, 173.34082, 175.52051, 180.22705, 184.0459, 186.51123, 189.56104, 194.83447, 197.2998, 201.87891, 204.05859, 206.23828, 208.70361, 214.00342, 218.70996, 222.52881, 226.68604, 231.39258, 236.48584, 241.78564, 246.36475, 251.45801, " y="1137, ">
				applies to all descendant
		</text>
		<text fill="gray" font-size="9" font-family="Segoe UI" x="156, 160.70654, 162.88623, 167.59277, 175.34473, 180.05127, 185.14453, 188.19434, 192.01318, " y="1149, ">
				elements.
		</text>
		<rect fill="white" x="160" y="1054" width="96" height="16"/>
		<text font-size="12" font-weight="600" font-family="Segoe UI" x="160, 167.44141, 174.70117, 182.14258, 187.90234, 195.23828, 202.49805, 207.77734, 212.44727, 217.22266, 223.67969, 227.08984, 234.34961, 239.01953, 246.2793, 251.10156, " y="1067, ">
				pubconstrainturi
		</text>
		<rect fill="none" stroke="black" stroke-width="1" stroke-linecap="square" stroke-miterlimit="4" transform="translate(0.5 0.5)" x="151" y="1052" width="111" height="20"/>
		<path fill="silver" d="M155 1167L160 1162L228 1162L233 1167L233 1178L228 1183L160 1183L155 1178L155 1167Z"/>
		<path fill="white" d="M151 1163L156 1158L224 1158L229 1163L229 1174L224 1179L156 1179L151 1174L151 1163Z"/>
		<rect fill="white" x="178" y="1160" width="46" height="16"/>
		<text font-size="12" font-weight="600" font-family="Segoe UI" x="178, 185.10742, 192.21484, 199.55078, 204.2207, 211.44531, 217.9375, " y="1173, ">
				##other
		</text>
		<rect fill="white" x="156" y="1160" width="20" height="16"/>
		<text fill="gray" font-size="12" font-family="Segoe UI" x="156, 162.10547, 168.89648, " y="1173, ">
				any
		</text>
		<path fill="none" stroke="black" stroke-width="1" stroke-linecap="square" stroke-miterlimit="4" transform="translate(0.5 0.5)" d="M151 1163L156 1158L223 1158L228 1163L228 1173L223 1178L156 1178L151 1173L151 1163Z"/>
		<rect x="142" y="41" width="11" height="11"/>
		<rect fill="white" x="143" y="42" width="9" height="9"/>
		<rect x="144" y="46" width="7" height="1"/>
		<rect x="48" y="608" width="11" height="11"/>
		<rect fill="white" x="49" y="609" width="9" height="9"/>
		<rect x="50" y="613" width="7" height="1"/>
	</g>
</svg>
