<?xml version="1.0" encoding="utf-8" ?>
<svg xmlns="http://www.w3.org/2000/svg" xmlns:xlink="http://www.w3.org/1999/xlink" width="360" height="1218">
	<clipPath id="cl_357">
		<rect x="-10" y="-5" width="360" height="1218"/>
	</clipPath>
	<g clip-path="url(#cl_357)">
		<path fill="none" stroke="black" stroke-width="1" stroke-linecap="square" stroke-miterlimit="4" transform="translate(0.5 0.5)" d="M112 604L125 604"/>
		<rect fill="silver" x="4" y="598" width="107" height="21"/>
		<rect fill="white" y="594" width="107" height="21"/>
		<rect fill="white" x="5" y="621" width="94" height="24"/>
		<text fill="gray" font-size="9" font-family="Segoe UI" x="5, 9.715332, 14.808594, 19.515137, 21.980469, 26.454102, 28.633789, 33.727051, 39.026855, 41.492188, 46.765625, 49.58252, 52.047852, 57.338867, 59.518555, 64.097656, 69.190918, 74.28418, 78.990723, 84.290527, 86.755859, 92.930176, " y="631, ">
				The kind of planned G2
		</text>
		<text fill="gray" font-size="9" font-family="Segoe UI" x="5, 7.1796875, 10.229492, 14.936035, 22.687988, 25.403809, 29.222656, " y="643, ">
				item(s)
		</text>
		<rect fill="white" x="9" y="596" width="86" height="16"/>
		<text font-size="12" font-weight="600" font-family="Segoe UI" x="9, 16.429688, 23.332031, 29.091797, 36.427734, 43.6875, 48.310547, 54.802734, 62.0625, 66.732422, 73.224609, 79.681641, 87.123047, " y="609, ">
				g2contentType
		</text>
		<path fill="none" stroke="black" stroke-width="1" stroke-linecap="square" stroke-miterlimit="4" transform="translate(0.5 0.5)" d="M2 596L7 596"/>
		<path fill="none" stroke="black" stroke-width="1" stroke-linecap="square" stroke-miterlimit="4" transform="translate(0.5 0.5)" d="M2 598L6 598"/>
		<path fill="none" stroke="black" stroke-width="1" stroke-linecap="square" stroke-miterlimit="4" transform="translate(0.5 0.5)" d="M2 600L6 600"/>
		<rect fill="none" stroke="black" stroke-width="1" stroke-linecap="square" stroke-miterlimit="4" transform="translate(0.5 0.5)" y="594" width="106" height="20"/>
		<path fill="white" d="M203 19L203 0L126 0L126 19L126 1207L339 1207L339 19L203 19Z"/>
		<rect fill="white" x="146" y="2" width="51" height="16"/>
		<text font-size="12" font-style="italic" font-family="Segoe UI" x="146, 152.50391, 156.38281, 160.26172, 164.5332, 167.63867, 174.14258, 180.83984, 184.73047, 190.57227, " y="15, ">
				attributes
		</text>
		<path fill="none" stroke="black" stroke-width="1" stroke-linecap="square" stroke-miterlimit="4" transform="translate(0.5 0.5)" d="M203 19L203 0L126 0L126 19L126 1207L339 1207L339 19L203 19Z"/>
		<path fill="white" d="M331 47L331 28L140 28L140 47L140 1150L331 1150L331 47Z"/>
		<rect fill="white" x="145" y="1153" width="179" height="48"/>
		<text fill="gray" font-size="9" font-family="Segoe UI" x="145, 150.80518, 153.27051, 158.57031, 161.69922, 166.97266, 172.06592, 177.35693, 179.82227, 185.0957, 187.9126, 190.37793, 194.95703, 198.00684, 201.05664, 204.18555, 206.36523, 211.65625, 216.74951, 219.79932, 224.50586, 228.32471, 230.79004, 233.60693, 238.88037, 242.00928, 244.47461, 249.05371, 251.2334, 253.41309, 255.87842, 260.58496, 262.76465, 267.47119, 275.22314, 279.92969, 285.02295, 288.07275, 291.8916, 294.35693, 299.63037, 302.44727, 304.9126, 309.4917, 311.95703, 318.13135, " y="1163, ">
				A group of attributes for all elements of a G2
		</text>
		<text fill="gray" font-size="9" font-family="Segoe UI" x="145, 147.39502, 150.44482, 155.15137, 162.90332, 165.36865, 170.0752, 174.20605, 178.36328, 183.06982, 188.36084, 191.41064, 193.87598, 196.05566, 199.10547, 202.92432, 205.38965, 208.51855, 213.79199, 219.06543, 222.11523, 224.58057, 229.28711, 231.4668, 236.17334, 243.92529, 248.63184, 253.7251, 256.7749, 258.72607, 261.19141, 264.24121, 269.33447, 274.04102, 276.50635, 278.68604, 281.73584, 286.44238, 294.19434, 302.27588, 306.98242, 310.03223, " y="1175, ">
				Item except its root element, the itemMeta
		</text>
		<text fill="gray" font-size="9" font-family="Segoe UI" x="145, 149.70654, 151.88623, 156.59277, 164.34473, 169.05127, 174.14453, 177.19434, 179.65967, 184.23877, 189.33203, 194.63184, 197.09717, 201.67627, 203.85596, 206.03564, 208.50098, 213.77441, 216.59131, 219.05664, 221.23633, 224.28613, 228.10498, 230.57031, 234.72754, 239.8208, 242.00049, 244.18018, 249.47998, 252.60889, 257.31543, 262.40869, 264.87402, 271.37793, 276.47119, 278.65088, 282.80811, 287.90137, 290.3667, 294.9458, 298.07471, " y="1187, ">
				element and all of its children which are
		</text>
		<text fill="gray" font-size="9" font-family="Segoe UI" x="145, 152.75195, 157.33105, 162.42432, 167.72412, 172.30322, 175.35303, 180.62646, 183.75537, 188.11035, " y="1199, ">
				mandatory.
		</text>
		<rect fill="white" x="182" y="30" width="143" height="16"/>
		<text font-size="12" font-weight="600" font-family="Segoe UI" x="182, 187.75977, 195.0957, 206.08789, 217.08008, 224.41602, 231.67578, 238.68945, 246.02539, 255.53516, 262.02734, 266.80273, 275, 279.66992, 284.33984, 289.16211, 292.57227, 300.01367, 307.27344, 311.89648, 318.38867, " y="43, ">
				commonPowerAttributes
		</text>
		<rect fill="white" x="160" y="30" width="20" height="16"/>
		<text fill="gray" font-size="12" font-family="Segoe UI" x="160, 167.06641, 171.23828, " y="43, ">
				grp
		</text>
		<path fill="none" stroke="gray" stroke-width="1" stroke-linecap="square" stroke-miterlimit="4" transform="translate(0.5 0.5)" d="M140 47L140 1150L331 1150L331 47L331 47"/>
		<path fill="none" stroke="black" stroke-width="1" stroke-linecap="square" stroke-miterlimit="4" transform="translate(0.5 0.5)" d="M331 47L331 28L140 28L140 47"/>
		<rect x="145" y="33" width="11" height="11"/>
		<rect fill="white" x="146" y="34" width="9" height="9"/>
		<rect x="147" y="38" width="7" height="1"/>
		<rect fill="silver" x="152" y="61" width="52" height="21"/>
		<rect fill="white" x="148" y="57" width="52" height="21"/>
		<rect fill="white" x="153" y="84" width="101" height="24"/>
		<text fill="gray" font-size="9" font-family="Segoe UI" x="153, 157.71533, 162.80859, 167.51514, 169.98047, 172.16016, 177.43359, 181.59082, 186.16992, 188.34961, 190.81494, 192.99463, 198.29443, 203.00098, 208.09424, 211.14404, 213.32373, 216.14062, 218.32031, 223.02686, 226.15576, 228.62109, 233.89453, 236.71143, 239.17676, 242.22656, 247.31982, " y="94, ">
				The local identifier of the
		</text>
		<text fill="gray" font-size="9" font-family="Segoe UI" x="153, 158.29102, 161.41992, 166.69336, 171.98438, 176.69092, 179.81982, 182.86963, 187.22461, " y="106, ">
				property.
		</text>
		<rect fill="white" x="157" y="59" width="36" height="16"/>
		<text font-size="12" font-weight="600" font-family="Segoe UI" x="157, 160.41016, " y="72, ">
				id
		</text>
		<rect fill="none" stroke="black" stroke-width="1" stroke-linecap="square" stroke-miterlimit="4" transform="translate(0.5 0.5)" x="148" y="57" width="51" height="20"/>
		<rect fill="silver" x="152" y="119" width="58" height="21"/>
		<rect fill="white" x="148" y="115" width="58" height="21"/>
		<rect fill="white" x="153" y="142" width="121" height="120"/>
		<text fill="gray" font-size="9" font-family="Segoe UI" x="153, 155.39502, 158.21191, 160.67725, 163.72705, 168.82031, 173.52686, 175.99219, 181.2832, 184.41211, 189.68555, 194.97656, 199.68311, 202.81201, 205.86182, 210.2168, 212.68213, 216.99316, 221.57227, 223.75195, 228.84521, 233.55176, 236.01709, 238.19678, 242.01562, 244.48096, 249.57422, 254.84766, " y="152, ">
				If the property value is not
		</text>
		<text fill="gray" font-size="9" font-family="Segoe UI" x="153, 158.2998, 163.00635, 165.82324, 168.00293, 173.09619, 177.80273, 183.10254, 185.05371, 187.51904, 191.33789, 196.62891, 201.33545, 205.49268, 207.67236, 210.48926, 212.66895, 217.37549, 221.19434, 223.65967, 230.16357, 235.25684, 237.43652, 241.59375, 246.68701, 249.15234, 253.85889, 258.95215, 262.00195, 264.18164, 267.23145, " y="164, ">
				defined, specifies which entity
		</text>
		<text fill="gray" font-size="9" font-family="Segoe UI" x="153, 155.71582, 161.00684, 165.71338, 168.84229, 172.66113, 177.93457, 183.02783, 184.979, 187.44434, 192.71777, 195.84668, 201.14648, 205.72559, 210.81885, 212.99854, 216.81738, 221.39648, 224.44629, 226.62598, 231.89941, 236.99268, 239.45801, 244.73145, " y="176, ">
				(person, organisation or
		</text>
		<text fill="gray" font-size="9" font-family="Segoe UI" x="153, 156.81885, 161.17383, 164.99268, 168.04248, 172.74902, 180.50098, 183.2168, 185.68213, 192.18604, 194.36572, 196.54541, 198.7251, 201.19043, 205.89697, 211.19678, 213.37646, 216.42627, 218.8916, 221.94141, 227.03467, 231.74121, 234.20654, 239.49756, 242.62646, 247.8999, 253.19092, 257.89746, 261.02637, 264.07617, " y="188, ">
				system) will edit the property
		</text>
		<text fill="gray" font-size="9" font-family="Segoe UI" x="153, 157.31104, 161.89014, 164.06982, 169.16309, 173.86963, 176.33496, 179.93408, 182.39941, 187.10596, 191.23682, 196.52783, 199.65674, 204.36328, 208.18213, 212.00098, 216.70752, 222.00732, 224.47266, 229.76367, 234.11865, 236.58398, 241.16309, 243.62842, 250.41357, 255.98584, 261.25928, 266.55908, 271.26562, " y="200, ">
				value - expressed by a QCode.
		</text>
		<text fill="gray" font-size="9" font-family="Segoe UI" x="153, 155.39502, 158.21191, 160.67725, 163.72705, 168.82031, 173.52686, 175.99219, 181.2832, 184.41211, 189.68555, 194.97656, 199.68311, 202.81201, 205.86182, 210.2168, 212.68213, 216.99316, 221.57227, 223.75195, 228.84521, 233.55176, 236.01709, 238.19678, " y="212, ">
				If the property value is
		</text>
		<text fill="gray" font-size="9" font-family="Segoe UI" x="153, 158.2998, 163.00635, 165.82324, 168.00293, 173.09619, 177.80273, 183.10254, 185.05371, 187.51904, 191.33789, 196.62891, 201.33545, 205.49268, 207.67236, 210.48926, 212.66895, 217.37549, 221.19434, 223.65967, 230.16357, 235.25684, 237.43652, 241.59375, 246.68701, 249.15234, 253.85889, 258.95215, 262.00195, 264.18164, 267.23145, " y="224, ">
				defined, specifies which entity
		</text>
		<text fill="gray" font-size="9" font-family="Segoe UI" x="153, 155.71582, 161.00684, 165.71338, 168.84229, 172.66113, 177.93457, 183.02783, 184.979, 187.44434, 192.71777, 195.84668, 201.14648, 205.72559, 210.81885, 212.99854, 216.81738, 221.39648, 224.44629, 226.62598, 231.89941, 236.99268, 239.45801, 244.73145, " y="236, ">
				(person, organisation or
		</text>
		<text fill="gray" font-size="9" font-family="Segoe UI" x="153, 156.81885, 161.17383, 164.99268, 168.04248, 172.74902, 180.50098, 183.2168, 185.68213, 190.77539, 195.35449, 199.17334, 201.63867, 206.34521, 211.64502, 213.82471, 216.87451, 221.58105, 226.88086, 229.34619, 232.396, 237.48926, " y="248, ">
				system) has edited the
		</text>
		<text fill="gray" font-size="9" font-family="Segoe UI" x="153, 158.29102, 161.41992, 166.69336, 171.98438, 176.69092, 179.81982, 182.86963, 187.22461, 189.68994, 194.00098, 198.58008, 200.75977, 205.85303, 210.55957, " y="260, ">
				property value.
		</text>
		<rect fill="white" x="157" y="117" width="42" height="16"/>
		<text font-size="12" font-weight="600" font-family="Segoe UI" x="157, 162.75977, 167.48828, 173.98047, 180.4375, 185.06055, 192.39648, " y="130, ">
				creator
		</text>
		<rect fill="none" stroke="black" stroke-width="1" stroke-linecap="square" stroke-miterlimit="4" transform="translate(0.5 0.5)" x="148" y="115" width="57" height="20"/>
		<rect fill="silver" x="152" y="273" width="73" height="21"/>
		<rect fill="white" x="148" y="269" width="73" height="21"/>
		<rect fill="white" x="153" y="296" width="120" height="108"/>
		<text fill="gray" font-size="9" font-family="Segoe UI" x="153, 155.39502, 158.21191, 160.67725, 163.72705, 168.82031, 173.52686, 175.99219, 181.2832, 184.41211, 189.68555, 194.97656, 199.68311, 202.81201, 205.86182, 210.2168, 212.68213, 216.99316, 221.57227, 223.75195, 228.84521, 233.55176, 236.01709, 238.19678, 242.01562, 244.48096, 249.57422, 254.84766, " y="306, ">
				If the property value is not
		</text>
		<text fill="gray" font-size="9" font-family="Segoe UI" x="153, 158.2998, 163.00635, 165.82324, 168.00293, 173.09619, 177.80273, 183.10254, 185.05371, 187.51904, 191.33789, 196.62891, 201.33545, 205.49268, 207.67236, 210.48926, 212.66895, 217.37549, 221.19434, 223.65967, 230.16357, 235.25684, 237.43652, 241.59375, 246.68701, 249.15234, 253.85889, 258.95215, 262.00195, 264.18164, 267.23145, " y="318, ">
				defined, specifies which entity
		</text>
		<text fill="gray" font-size="9" font-family="Segoe UI" x="153, 155.71582, 161.00684, 165.71338, 168.84229, 172.66113, 177.93457, 183.02783, 184.979, 187.44434, 192.71777, 195.84668, 201.14648, 205.72559, 210.81885, 212.99854, 216.81738, 221.39648, 224.44629, 226.62598, 231.89941, 236.99268, 239.45801, 244.73145, " y="330, ">
				(person, organisation or
		</text>
		<text fill="gray" font-size="9" font-family="Segoe UI" x="153, 156.81885, 161.17383, 164.99268, 168.04248, 172.74902, 180.50098, 183.2168, 185.68213, 192.18604, 194.36572, 196.54541, 198.7251, 201.19043, 205.89697, 211.19678, 213.37646, 216.42627, 218.8916, 221.94141, 227.03467, 231.74121, 234.20654, 239.49756, 242.62646, 247.8999, 253.19092, 257.89746, 261.02637, 264.07617, " y="342, ">
				system) will edit the property
		</text>
		<text fill="gray" font-size="9" font-family="Segoe UI" x="153, 156.59912, 159.06445, 163.771, 167.90186, 173.19287, 176.32178, 181.02832, 184.84717, 188.66602, 193.37256, 198.67236, 201.1377, 206.42871, 210.78369, 213.24902, 217.82812, 220.29346, 226.47656, 231.85986, 234.25488, 236.20605, 238.67139, 241.06641, 243.8833, 246.34863, 249.39844, 254.4917, " y="354, ">
				- expressed by a URI. If the
		</text>
		<text fill="gray" font-size="9" font-family="Segoe UI" x="153, 158.29102, 161.41992, 166.69336, 171.98438, 176.69092, 179.81982, 182.86963, 187.22461, 189.68994, 194.00098, 198.58008, 200.75977, 205.85303, 210.55957, 213.0249, 215.20459, 219.02344, 221.48877, 226.78857, 231.49512, 234.31201, 236.4917, 241.58496, 246.2915, 251.59131, " y="366, ">
				property value is defined,
		</text>
		<text fill="gray" font-size="9" font-family="Segoe UI" x="153, 156.81885, 162.10986, 166.81641, 170.97363, 173.15332, 175.97021, 178.1499, 182.85645, 186.67529, 189.14062, 195.64453, 200.73779, 202.91748, 207.07471, 212.16797, 214.6333, 219.33984, 224.43311, 227.48291, 229.6626, 232.7124, 237.06738, 239.53271, 242.24854, 247.53955, 252.24609, 255.375, 259.19385, 264.46729, 269.56055, " y="378, ">
				specifies which entity (person,
		</text>
		<text fill="gray" font-size="9" font-family="Segoe UI" x="153, 158.27344, 161.40234, 166.70215, 171.28125, 176.37451, 178.5542, 182.37305, 186.95215, 190.00195, 192.18164, 197.45508, 202.54834, 205.01367, 210.28711, 213.41602, 215.88135, 219.7002, 224.05518, 227.87402, 230.92383, 235.63037, 243.38232, 246.09814, 248.56348, 253.65674, 258.23584, " y="390, ">
				organisation or system) has
		</text>
		<text fill="gray" font-size="9" font-family="Segoe UI" x="153, 157.70654, 163.00635, 165.18604, 168.23584, 172.94238, 178.24219, 180.70752, 183.75732, 188.85059, 193.55713, 196.02246, 201.31348, 204.44238, 209.71582, 215.00684, 219.71338, 222.84229, 225.89209, 230.24707, " y="402, ">
				edited the property.
		</text>
		<rect fill="white" x="157" y="271" width="57" height="16"/>
		<text font-size="12" font-weight="600" font-family="Segoe UI" x="157, 162.75977, 167.48828, 173.98047, 180.4375, 185.06055, 192.39648, 197.20703, 204.4668, 209.28906, " y="284, ">
				creatoruri
		</text>
		<rect fill="none" stroke="black" stroke-width="1" stroke-linecap="square" stroke-miterlimit="4" transform="translate(0.5 0.5)" x="148" y="269" width="72" height="20"/>
		<rect fill="silver" x="152" y="415" width="69" height="21"/>
		<rect fill="white" x="148" y="411" width="69" height="21"/>
		<rect fill="white" x="153" y="438" width="119" height="72"/>
		<text fill="gray" font-size="9" font-family="Segoe UI" x="153, 157.71533, 162.80859, 167.51514, 169.98047, 175.28027, 179.85938, 182.90918, 187.61572, 190.08105, 192.79688, 197.37598, 202.46924, 207.76904, 209.72021, 212.18555, 217.45898, 222.75, 225.7998, 227.97949, 233.25293, 238.34619, 242.92529, 245.10498, 247.28467, 251.63965, 253.59082, 256.05615, 259.10596, 264.19922, " y="448, ">
				The date (and, optionally, the
		</text>
		<text fill="gray" font-size="9" font-family="Segoe UI" x="153, 156.0498, 158.22949, 165.98145, 170.68799, 173.40381, 175.86914, 182.37305, 187.46631, 192.17285, 197.26611, 199.73145, 202.78125, 207.87451, 212.58105, 215.04639, 220.3374, 223.46631, 228.73975, 234.03076, 238.7373, 241.86621, 244.91602, 249.271, 251.73633, 258.24023, 262.81934, " y="460, ">
				time) when the property was
		</text>
		<text fill="gray" font-size="9" font-family="Segoe UI" x="153, 155.17969, 159.75879, 163.57764, 166.62744, 169.09277, 176.84473, 182.11816, 187.41797, 189.59766, 192.41455, 194.59424, 199.30078, 204.60059, 206.55176, 209.01709, 213.73242, 218.82568, 223.53223, 225.99756, 228.17725, 233.27051, 235.4502, 238.5, 240.67969, 245.25879, 247.43848, 249.90381, 254.21484, 258.79395, 260.97363, 266.06689, " y="472, ">
				last modified. The initial value
		</text>
		<text fill="gray" font-size="9" font-family="Segoe UI" x="153, 155.17969, 158.99854, 161.46387, 164.51367, 169.60693, 174.31348, 176.77881, 182.07861, 186.65771, 189.70752, 194.41406, 196.87939, 199.59521, 204.17432, 209.26758, 214.56738, 216.51855, 218.98389, 224.25732, 229.54834, 232.59814, 234.77783, 240.05127, 245.14453, 249.72363, 251.90332, 254.08301, 258.43799, " y="484, ">
				is the date (and, optionally,
		</text>
		<text fill="gray" font-size="9" font-family="Segoe UI" x="153, 156.0498, 161.14307, 165.84961, 168.31494, 171.36475, 173.54443, 181.29639, 186.00293, 188.71875, 191.18408, 196.45752, 199.27441, 201.73975, 205.89697, 209.02588, 213.73242, 218.31152, 221.36133, 223.54102, 228.81445, 233.90771, 236.37305, 241.64648, 244.46338, 246.92871, 249.97852, 255.07178, " y="496, ">
				the time) of creation of the
		</text>
		<text fill="gray" font-size="9" font-family="Segoe UI" x="153, 158.29102, 161.41992, 166.69336, 171.98438, 176.69092, 179.81982, 182.86963, 187.22461, " y="508, ">
				property.
		</text>
		<rect fill="white" x="157" y="413" width="53" height="16"/>
		<text font-size="12" font-weight="600" font-family="Segoe UI" x="157, 167.99219, 175.32812, 182.75781, 186.16797, 190.76758, 194.17773, 200.66992, " y="426, ">
				modified
		</text>
		<rect fill="none" stroke="black" stroke-width="1" stroke-linecap="square" stroke-miterlimit="4" transform="translate(0.5 0.5)" x="148" y="411" width="68" height="20"/>
		<rect fill="silver" x="152" y="521" width="59" height="21"/>
		<rect fill="white" x="148" y="517" width="59" height="21"/>
		<rect fill="white" x="153" y="544" width="118" height="108"/>
		<text fill="gray" font-size="9" font-family="Segoe UI" x="153, 155.39502, 158.21191, 160.67725, 164.49609, 169.20264, 172.25244, 174.71777, 177.76758, 183.04102, 185.50635, 188.55615, 191.68506, 196.77832, 201.48486, 203.9502, 207, 212.09326, " y="554, ">
				If set to true the
		</text>
		<text fill="gray" font-size="9" font-family="Segoe UI" x="153, 157.15723, 162.43066, 165.55957, 168.68848, 173.39502, 177.21387, 182.50488, 187.77832, 192.87158, 198.17139, 200.35107, 205.44434, 210.74414, 213.20947, 218.50049, 221.62939, 226.90283, 232.19385, 236.90039, 240.0293, 243.0791, 247.43408, 249.89941, 256.40332, 260.98242, " y="566, ">
				corresponding property was
		</text>
		<text fill="gray" font-size="9" font-family="Segoe UI" x="153, 157.5791, 162.87891, 168.17871, 172.88525, 178.18506, 180.65039, 183.7002, 188.97363, 191.43896, 194.48877, 199.58203, 204.28857, 206.75391, 212.92822, 217.77979, 220.24512, 222.64014, 225.68994, 230.39648, 238.14844, 240.61377, 243.43066, 248.7041, 251.83301, 254.29834, " y="578, ">
				added to the G2 Item for a
		</text>
		<text fill="gray" font-size="9" font-family="Segoe UI" x="153, 156.81885, 162.10986, 166.81641, 170.97363, 173.15332, 175.97021, 178.1499, 182.30713, 184.77246, 188.92969, 194.02295, 197.8418, 200.8916, 206.16504, 213.91699, 218.62354, 221.75244, 224.21777, 229.49121, 232.62012, 235.08545, 240.38525, 243.51416, 248.7876, 253.88086, 259.17188, 261.63721, 266.91064, " y="590, ">
				specific customer or group of
		</text>
		<text fill="gray" font-size="9" font-family="Segoe UI" x="153, 157.15723, 162.25049, 166.06934, 169.11914, 174.39258, 182.14453, 186.85107, 189.97998, 193.79883, 196.26416, 201.5376, 206.63086, 208.81055, 213.16553, 215.1167, 217.58203, 222.29736, 227.39062, 232.09717, 234.5625, 239.8623, 244.56885, 247.38574, 251.96484, 257.05811, 259.23779, " y="602, ">
				customers only. The default
		</text>
		<text fill="gray" font-size="9" font-family="Segoe UI" x="153, 157.31104, 161.89014, 164.06982, 169.16309, 173.86963, 176.33496, 181.6084, 184.42529, 186.89062, 189.94043, 195.03369, 197.21338, 201.03223, 203.49756, 208.78857, 211.91748, 217.19092, 222.48193, 227.18848, 230.31738, 233.36719, 237.72217, 240.1875, 242.36719, 246.18604, 248.65137, 251.46826, 256.04736, 258.22705, 262.0459, " y="614, ">
				value of this property is false
		</text>
		<text fill="gray" font-size="9" font-family="Segoe UI" x="153, 159.50391, 164.59717, 166.77686, 170.93408, 176.02734, 178.49268, 183.07178, 188.36279, 193.65381, 195.8335, 198.01318, 202.71973, 206.53857, 209.00391, 215.50781, 220.60107, 225.30762, 230.40088, 232.86621, 235.91602, 241.00928, 243.18896, " y="626, ">
				which applies when this
		</text>
		<text fill="gray" font-size="9" font-family="Segoe UI" x="153, 157.5791, 160.62891, 163.67871, 166.80762, 168.9873, 174.27832, 179.37158, 182.42139, 187.12793, 189.59326, 191.77295, 195.5918, 198.05713, 203.15039, 208.42383, 211.47363, 213.93896, 219.03223, 222.85107, 227.55762, 232.85742, 235.32275, 241.82666, 244.00635, 247.05615, 252.14941, 254.61475, 257.66455, 262.75781, " y="638, ">
				attribute is not used with the
		</text>
		<text fill="gray" font-size="9" font-family="Segoe UI" x="153, 158.29102, 161.41992, 166.69336, 171.98438, 176.69092, 179.81982, 182.86963, 187.22461, " y="650, ">
				property.
		</text>
		<rect fill="white" x="157" y="519" width="43" height="16"/>
		<text font-size="12" font-weight="600" font-family="Segoe UI" x="157, 162.75977, 170.01953, 175.29883, 179.92188, 187.25781, " y="532, ">
				custom
		</text>
		<rect fill="none" stroke="black" stroke-width="1" stroke-linecap="square" stroke-miterlimit="4" transform="translate(0.5 0.5)" x="148" y="517" width="58" height="20"/>
		<rect fill="silver" x="152" y="663" width="52" height="21"/>
		<rect fill="white" x="148" y="659" width="52" height="21"/>
		<rect fill="white" x="153" y="686" width="118" height="48"/>
		<text fill="gray" font-size="9" font-family="Segoe UI" x="153, 155.39502, 160.48828, 165.78809, 167.96777, 172.125, 176.7041, 179.75391, 184.46045, 188.2793, 190.74463, 196.03564, 200.39062, 202.85596, 209.35986, 214.45312, 216.63281, 220.79004, 225.8833, 228.34863, 236.10059, 240.80713, 245.38623, 250.47949, 254.29834, 256.76367, 259.81348, 264.90674, " y="696, ">
				Indicates by which means the
		</text>
		<text fill="gray" font-size="9" font-family="Segoe UI" x="153, 157.31104, 161.89014, 164.06982, 169.16309, 173.86963, 176.33496, 182.83887, 187.41797, 191.23682, 193.70215, 198.40869, 202.53955, 205.58936, 208.71826, 213.29736, 217.45459, 220.50439, 225.21094, 230.51074, 232.97607, 235.79297, 238.92188, 244.19531, 251.94727, 254.4126, 257.4624, 262.55566, " y="708, ">
				value was extracted from the
		</text>
		<text fill="gray" font-size="9" font-family="Segoe UI" x="153, 157.15723, 162.43066, 167.52393, 170.57373, 175.28027, 180.37354, 183.42334, 185.88867, 189.48779, 191.95312, 196.65967, 200.79053, 206.08154, 209.21045, 213.91699, 217.73584, 221.55469, 226.26123, 231.56104, 234.02637, 239.31738, 243.67236, 246.1377, " y="720, ">
				content - expressed by a
		</text>
		<text fill="gray" font-size="9" font-family="Segoe UI" x="153, 159.78516, 165.35742, 170.63086, 175.93066, " y="732, ">
				QCode
		</text>
		<rect fill="white" x="157" y="661" width="36" height="16"/>
		<text font-size="12" font-weight="600" font-family="Segoe UI" x="157, 164.22461, 171.56055, " y="674, ">
				how
		</text>
		<rect fill="none" stroke="black" stroke-width="1" stroke-linecap="square" stroke-miterlimit="4" transform="translate(0.5 0.5)" x="148" y="659" width="51" height="20"/>
		<rect fill="silver" x="152" y="745" width="57" height="21"/>
		<rect fill="white" x="148" y="741" width="57" height="21"/>
		<rect fill="white" x="153" y="768" width="118" height="36"/>
		<text fill="gray" font-size="9" font-family="Segoe UI" x="153, 155.39502, 160.48828, 165.78809, 167.96777, 172.125, 176.7041, 179.75391, 184.46045, 188.2793, 190.74463, 196.03564, 200.39062, 202.85596, 209.35986, 214.45312, 216.63281, 220.79004, 225.8833, 228.34863, 236.10059, 240.80713, 245.38623, 250.47949, 254.29834, 256.76367, 259.81348, 264.90674, " y="778, ">
				Indicates by which means the
		</text>
		<text fill="gray" font-size="9" font-family="Segoe UI" x="153, 157.31104, 161.89014, 164.06982, 169.16309, 173.86963, 176.33496, 182.83887, 187.41797, 191.23682, 193.70215, 198.40869, 202.53955, 205.58936, 208.71826, 213.29736, 217.45459, 220.50439, 225.21094, 230.51074, 232.97607, 235.79297, 238.92188, 244.19531, 251.94727, 254.4126, 257.4624, 262.55566, " y="790, ">
				value was extracted from the
		</text>
		<text fill="gray" font-size="9" font-family="Segoe UI" x="153, 157.15723, 162.43066, 167.52393, 170.57373, 175.28027, 180.37354, 183.42334, 185.88867, 189.48779, 191.95312, 196.65967, 200.79053, 206.08154, 209.21045, 213.91699, 217.73584, 221.55469, 226.26123, 231.56104, 234.02637, 239.31738, 243.67236, 246.1377, 250.7168, 253.18213, 259.36523, 264.74854, " y="802, ">
				content - expressed by a URI
		</text>
		<rect fill="white" x="157" y="743" width="41" height="16"/>
		<text font-size="12" font-weight="600" font-family="Segoe UI" x="157, 164.22461, 171.56055, 181.12891, 188.38867, 193.21094, " y="756, ">
				howuri
		</text>
		<rect fill="none" stroke="black" stroke-width="1" stroke-linecap="square" stroke-miterlimit="4" transform="translate(0.5 0.5)" x="148" y="741" width="56" height="20"/>
		<rect fill="silver" x="152" y="815" width="52" height="21"/>
		<rect fill="white" x="148" y="811" width="52" height="21"/>
		<rect fill="white" x="153" y="838" width="113" height="36"/>
		<text fill="gray" font-size="9" font-family="Segoe UI" x="153, 161.40674, 166.5, 170.85498, 173.32031, 176.37012, 181.46338, 186.16992, 188.63525, 196.38721, 201.09375, 204.14355, 208.72266, 214.02246, 218.60156, 221.65137, 226.23047, 228.6958, 233.78906, 238.36816, 242.18701, 244.65234, 249.94336, 254.6499, 259.35645, " y="848, ">
				Why the metadata has been
		</text>
		<text fill="gray" font-size="9" font-family="Segoe UI" x="153, 155.17969, 160.27295, 164.43018, 166.60986, 171.70312, 177.00293, 181.70947, 187.00928, 189.47461, 193.07373, 195.53906, 200.24561, 204.37646, 209.66748, 212.79639, 217.50293, 221.32178, 225.14062, 229.84717, 235.14697, 237.6123, 242.90332, 247.2583, 249.72363, " y="860, ">
				included - expressed by a
		</text>
		<text fill="gray" font-size="9" font-family="Segoe UI" x="153, 159.78516, 165.35742, 170.63086, 175.93066, " y="872, ">
				QCode
		</text>
		<rect fill="white" x="157" y="813" width="36" height="16"/>
		<text font-size="12" font-weight="600" font-family="Segoe UI" x="157, 166.56836, 173.79297, " y="826, ">
				why
		</text>
		<rect fill="none" stroke="black" stroke-width="1" stroke-linecap="square" stroke-miterlimit="4" transform="translate(0.5 0.5)" x="148" y="811" width="51" height="20"/>
		<rect fill="silver" x="152" y="885" width="56" height="21"/>
		<rect fill="white" x="148" y="881" width="56" height="21"/>
		<rect fill="white" x="153" y="908" width="119" height="24"/>
		<text fill="gray" font-size="9" font-family="Segoe UI" x="153, 161.40674, 166.5, 170.85498, 173.32031, 176.37012, 181.46338, 186.16992, 188.63525, 196.38721, 201.09375, 204.14355, 208.72266, 214.02246, 218.60156, 221.65137, 226.23047, 228.6958, 233.78906, 238.36816, 242.18701, 244.65234, 249.94336, 254.6499, 259.35645, " y="918, ">
				Why the metadata has been
		</text>
		<text fill="gray" font-size="9" font-family="Segoe UI" x="153, 155.17969, 160.27295, 164.43018, 166.60986, 171.70312, 177.00293, 181.70947, 187.00928, 189.47461, 193.07373, 195.53906, 200.24561, 204.37646, 209.66748, 212.79639, 217.50293, 221.32178, 225.14062, 229.84717, 235.14697, 237.6123, 242.90332, 247.2583, 249.72363, 254.30273, 256.76807, 262.95117, 268.33447, " y="930, ">
				included - expressed by a URI
		</text>
		<rect fill="white" x="157" y="883" width="40" height="16"/>
		<text font-size="12" font-weight="600" font-family="Segoe UI" x="157, 166.56836, 173.79297, 180.25, 187.50977, 192.33203, " y="896, ">
				whyuri
		</text>
		<rect fill="none" stroke="black" stroke-width="1" stroke-linecap="square" stroke-miterlimit="4" transform="translate(0.5 0.5)" x="148" y="881" width="55" height="20"/>
		<rect fill="silver" x="152" y="943" width="97" height="21"/>
		<rect fill="white" x="148" y="939" width="97" height="21"/>
		<rect fill="white" x="153" y="966" width="117" height="72"/>
		<text fill="gray" font-size="9" font-family="Segoe UI" x="153, 159.78516, 164.87842, 169.58496, 172.05029, 177.32373, 180.45264, 182.91797, 190.66992, 195.24902, 200.34229, 204.69727, 207.1626, 211.31982, 216.59326, 221.68652, 225.50537, 228.55518, 231.68408, 236.26318, 238.44287, 243.53613, 246.58594, 250.40479, 252.87012, 255.91992, 261.01318, 265.59229, " y="976, ">
				One or many constraints that
		</text>
		<text fill="gray" font-size="9" font-family="Segoe UI" x="153, 157.5791, 162.87012, 168.16113, 170.34082, 174.6958, 177.16113, 180.21094, 185.48438, 187.94971, 193.24072, 198.33398, 203.625, 205.80469, 207.98438, 211.80322, 216.89648, 219.07617, 224.16943, 229.46924, 231.93457, 234.98438, 240.07764, 244.78418, 247.24951, 251.56055, 256.13965, 258.31934, 263.4126, " y="988, ">
				apply to publishing the value
		</text>
		<text fill="gray" font-size="9" font-family="Segoe UI" x="153, 158.27344, 161.09033, 163.55566, 166.60547, 171.69873, 176.40527, 178.87061, 184.16162, 187.29053, 192.56396, 197.85498, 202.56152, 205.69043, 208.74023, 213.09521, 215.56055, 219.15967, 221.625, 226.33154, 230.4624, 235.75342, 238.88232, 243.58887, 247.40771, 251.22656, 255.93311, " y="1000, ">
				of the property - expressed
		</text>
		<text fill="gray" font-size="9" font-family="Segoe UI" x="153, 158.29102, 162.646, 165.11133, 169.69043, 172.15576, 178.94092, 184.51318, 189.78662, 195.08643, 199.79297, 201.74414, 204.20947, 208.76221, 213.34131, 217.49854, 222.5918, 225.05713, 229.21436, 234.48779, 239.58105, 243.3999, 246.44971, 249.57861, 254.15771, 256.3374, 261.43066, " y="1012, ">
				by a QCode. Each constraint
		</text>
		<text fill="gray" font-size="9" font-family="Segoe UI" x="153, 157.5791, 162.87012, 168.16113, 170.34082, 172.52051, 177.22705, 181.0459, 183.51123, 186.56104, 191.83447, 194.2998, 198.87891, 201.05859, 203.23828, 205.70361, 211.00342, 215.70996, 219.52881, 223.68604, 228.39258, 233.48584, 238.78564, 243.36475, 248.45801, " y="1024, ">
				applies to all descendant
		</text>
		<text fill="gray" font-size="9" font-family="Segoe UI" x="153, 157.70654, 159.88623, 164.59277, 172.34473, 177.05127, 182.14453, 185.19434, 189.01318, " y="1036, ">
				elements.
		</text>
		<rect fill="white" x="157" y="941" width="81" height="16"/>
		<text font-size="12" font-weight="600" font-family="Segoe UI" x="157, 164.44141, 171.70117, 179.14258, 184.90234, 192.23828, 199.49805, 204.77734, 209.44727, 214.22266, 220.67969, 224.08984, 231.34961, " y="954, ">
				pubconstraint
		</text>
		<rect fill="none" stroke="black" stroke-width="1" stroke-linecap="square" stroke-miterlimit="4" transform="translate(0.5 0.5)" x="148" y="939" width="96" height="20"/>
		<rect fill="silver" x="152" y="1049" width="112" height="21"/>
		<rect fill="white" x="148" y="1045" width="112" height="21"/>
		<rect fill="white" x="153" y="1072" width="117" height="72"/>
		<text fill="gray" font-size="9" font-family="Segoe UI" x="153, 159.78516, 164.87842, 169.58496, 172.05029, 177.32373, 180.45264, 182.91797, 190.66992, 195.24902, 200.34229, 204.69727, 207.1626, 211.31982, 216.59326, 221.68652, 225.50537, 228.55518, 231.68408, 236.26318, 238.44287, 243.53613, 246.58594, 250.40479, 252.87012, 255.91992, 261.01318, 265.59229, " y="1082, ">
				One or many constraints that
		</text>
		<text fill="gray" font-size="9" font-family="Segoe UI" x="153, 157.5791, 162.87012, 168.16113, 170.34082, 174.6958, 177.16113, 180.21094, 185.48438, 187.94971, 193.24072, 198.33398, 203.625, 205.80469, 207.98438, 211.80322, 216.89648, 219.07617, 224.16943, 229.46924, 231.93457, 234.98438, 240.07764, 244.78418, 247.24951, 251.56055, 256.13965, 258.31934, 263.4126, " y="1094, ">
				apply to publishing the value
		</text>
		<text fill="gray" font-size="9" font-family="Segoe UI" x="153, 158.27344, 161.09033, 163.55566, 166.60547, 171.69873, 176.40527, 178.87061, 184.16162, 187.29053, 192.56396, 197.85498, 202.56152, 205.69043, 208.74023, 213.09521, 215.56055, 219.15967, 221.625, 226.33154, 230.4624, 235.75342, 238.88232, 243.58887, 247.40771, 251.22656, 255.93311, " y="1106, ">
				of the property - expressed
		</text>
		<text fill="gray" font-size="9" font-family="Segoe UI" x="153, 158.29102, 162.646, 165.11133, 169.69043, 172.15576, 178.33887, 183.72217, 186.11719, 188.06836, 190.53369, 195.08643, 199.66553, 203.82275, 208.91602, 211.38135, 215.53857, 220.81201, 225.90527, 229.72412, 232.77393, 235.90283, 240.48193, 242.66162, 247.75488, " y="1118, ">
				by a URI. Each constraint
		</text>
		<text fill="gray" font-size="9" font-family="Segoe UI" x="153, 157.5791, 162.87012, 168.16113, 170.34082, 172.52051, 177.22705, 181.0459, 183.51123, 186.56104, 191.83447, 194.2998, 198.87891, 201.05859, 203.23828, 205.70361, 211.00342, 215.70996, 219.52881, 223.68604, 228.39258, 233.48584, 238.78564, 243.36475, 248.45801, " y="1130, ">
				applies to all descendant
		</text>
		<text fill="gray" font-size="9" font-family="Segoe UI" x="153, 157.70654, 159.88623, 164.59277, 172.34473, 177.05127, 182.14453, 185.19434, 189.01318, " y="1142, ">
				elements.
		</text>
		<rect fill="white" x="157" y="1047" width="96" height="16"/>
		<text font-size="12" font-weight="600" font-family="Segoe UI" x="157, 164.44141, 171.70117, 179.14258, 184.90234, 192.23828, 199.49805, 204.77734, 209.44727, 214.22266, 220.67969, 224.08984, 231.34961, 236.01953, 243.2793, 248.10156, " y="1060, ">
				pubconstrainturi
		</text>
		<rect fill="none" stroke="black" stroke-width="1" stroke-linecap="square" stroke-miterlimit="4" transform="translate(0.5 0.5)" x="148" y="1045" width="111" height="20"/>
		<rect x="131" y="5" width="11" height="11"/>
		<rect fill="white" x="132" y="6" width="9" height="9"/>
		<rect x="133" y="10" width="7" height="1"/>
		<rect x="101" y="599" width="11" height="11"/>
		<rect fill="white" x="102" y="600" width="9" height="9"/>
		<rect x="103" y="604" width="7" height="1"/>
	</g>
</svg>
