<?xml version="1.0" encoding="utf-8" ?>
<svg xmlns="http://www.w3.org/2000/svg" xmlns:xlink="http://www.w3.org/1999/xlink" width="385" height="2085">
	<clipPath id="cl_40b">
		<rect x="-10" y="-5" width="385" height="2085"/>
	</clipPath>
	<g clip-path="url(#cl_40b)">
		<path fill="none" stroke="black" stroke-width="1" stroke-linecap="square" stroke-miterlimit="4" transform="translate(0.5 0.5)" d="M87 1373L135 1373"/>
		<path fill="none" stroke="black" stroke-width="1" stroke-linecap="square" stroke-miterlimit="4" transform="translate(0.5 0.5)" d="M136 1373L136 863"/>
		<path transform="translate(0.5 0.5)" d="M136.5 1373L136.5 1375L136.5 1375.5L135.5 1375.5L135.5 1375L135.5 1372.5L136.5 1372.5L136.5 1373ZM136.5 1379L136.5 1381L136.5 1381.5L135.5 1381.5L135.5 1381L135.5 1378.5L136.5 1378.5L136.5 1379ZM136.5 1385L136.5 1387L136.5 1387.5L135.5 1387.5L135.5 1387L135.5 1384.5L136.5 1384.5L136.5 1385ZM136.5 1391L136.5 1393L136.5 1393.5L135.5 1393.5L135.5 1393L135.5 1390.5L136.5 1390.5L136.5 1391ZM136.5 1397L136.5 1399L136.5 1399.5L135.5 1399.5L135.5 1399L135.5 1396.5L136.5 1396.5L136.5 1397ZM136.5 1403L136.5 1405L136.5 1405.5L135.5 1405.5L135.5 1405L135.5 1402.5L136.5 1402.5L136.5 1403ZM136.5 1409L136.5 1411L136.5 1411.5L135.5 1411.5L135.5 1411L135.5 1408.5L136.5 1408.5L136.5 1409ZM136.5 1415L136.5 1417L136.5 1417.5L135.5 1417.5L135.5 1417L135.5 1414.5L136.5 1414.5L136.5 1415ZM136.5 1421L136.5 1423L136.5 1423.5L135.5 1423.5L135.5 1423L135.5 1420.5L136.5 1420.5L136.5 1421ZM136.5 1427L136.5 1429L136.5 1429.5L135.5 1429.5L135.5 1429L135.5 1426.5L136.5 1426.5L136.5 1427ZM136.5 1433L136.5 1435L136.5 1435.5L135.5 1435.5L135.5 1435L135.5 1432.5L136.5 1432.5L136.5 1433ZM136.5 1439L136.5 1441L136.5 1441.5L135.5 1441.5L135.5 1441L135.5 1438.5L136.5 1438.5L136.5 1439ZM136.5 1445L136.5 1447L136.5 1447.5L135.5 1447.5L135.5 1447L135.5 1444.5L136.5 1444.5L136.5 1445ZM136.5 1451L136.5 1453L136.5 1453.5L135.5 1453.5L135.5 1453L135.5 1450.5L136.5 1450.5L136.5 1451ZM136.5 1457L136.5 1459L136.5 1459.5L135.5 1459.5L135.5 1459L135.5 1456.5L136.5 1456.5L136.5 1457ZM136.5 1463L136.5 1465L136.5 1465.5L135.5 1465.5L135.5 1465L135.5 1462.5L136.5 1462.5L136.5 1463ZM136.5 1469L136.5 1471L136.5 1471.5L135.5 1471.5L135.5 1471L135.5 1468.5L136.5 1468.5L136.5 1469ZM136.5 1475L136.5 1477L136.5 1477.5L135.5 1477.5L135.5 1477L135.5 1474.5L136.5 1474.5L136.5 1475ZM136.5 1481L136.5 1483L136.5 1483.5L135.5 1483.5L135.5 1483L135.5 1480.5L136.5 1480.5L136.5 1481ZM136.5 1487L136.5 1489L136.5 1489.5L135.5 1489.5L135.5 1489L135.5 1486.5L136.5 1486.5L136.5 1487ZM136.5 1493L136.5 1495L136.5 1495.5L135.5 1495.5L135.5 1495L135.5 1492.5L136.5 1492.5L136.5 1493ZM136.5 1499L136.5 1501L136.5 1501.5L135.5 1501.5L135.5 1501L135.5 1498.5L136.5 1498.5L136.5 1499ZM136.5 1505L136.5 1507L136.5 1507.5L135.5 1507.5L135.5 1507L135.5 1504.5L136.5 1504.5L136.5 1505ZM136.5 1511L136.5 1513L136.5 1513.5L135.5 1513.5L135.5 1513L135.5 1510.5L136.5 1510.5L136.5 1511ZM136.5 1517L136.5 1519L136.5 1519.5L135.5 1519.5L135.5 1519L135.5 1516.5L136.5 1516.5L136.5 1517ZM136.5 1523L136.5 1525L136.5 1525.5L135.5 1525.5L135.5 1525L135.5 1522.5L136.5 1522.5L136.5 1523ZM136.5 1529L136.5 1531L136.5 1531.5L135.5 1531.5L135.5 1531L135.5 1528.5L136.5 1528.5L136.5 1529ZM136.5 1535L136.5 1537L136.5 1537.5L135.5 1537.5L135.5 1537L135.5 1534.5L136.5 1534.5L136.5 1535ZM136.5 1541L136.5 1543L136.5 1543.5L135.5 1543.5L135.5 1543L135.5 1540.5L136.5 1540.5L136.5 1541ZM136.5 1547L136.5 1549L136.5 1549.5L135.5 1549.5L135.5 1549L135.5 1546.5L136.5 1546.5L136.5 1547ZM136.5 1553L136.5 1555L136.5 1555.5L135.5 1555.5L135.5 1555L135.5 1552.5L136.5 1552.5L136.5 1553ZM136.5 1559L136.5 1561L136.5 1561.5L135.5 1561.5L135.5 1561L135.5 1558.5L136.5 1558.5L136.5 1559ZM136.5 1565L136.5 1567L136.5 1567.5L135.5 1567.5L135.5 1567L135.5 1564.5L136.5 1564.5L136.5 1565ZM136.5 1571L136.5 1573L136.5 1573.5L135.5 1573.5L135.5 1573L135.5 1570.5L136.5 1570.5L136.5 1571ZM136.5 1577L136.5 1579L136.5 1579.5L135.5 1579.5L135.5 1579L135.5 1576.5L136.5 1576.5L136.5 1577ZM136.5 1583L136.5 1585L136.5 1585.5L135.5 1585.5L135.5 1585L135.5 1582.5L136.5 1582.5L136.5 1583ZM136.5 1589L136.5 1591L136.5 1591.5L135.5 1591.5L135.5 1591L135.5 1588.5L136.5 1588.5L136.5 1589ZM136.5 1595L136.5 1597L136.5 1597.5L135.5 1597.5L135.5 1597L135.5 1594.5L136.5 1594.5L136.5 1595ZM136.5 1601L136.5 1603L136.5 1603.5L135.5 1603.5L135.5 1603L135.5 1600.5L136.5 1600.5L136.5 1601ZM136.5 1607L136.5 1609L136.5 1609.5L135.5 1609.5L135.5 1609L135.5 1606.5L136.5 1606.5L136.5 1607ZM136.5 1613L136.5 1615L136.5 1615.5L135.5 1615.5L135.5 1615L135.5 1612.5L136.5 1612.5L136.5 1613ZM136.5 1619L136.5 1621L136.5 1621.5L135.5 1621.5L135.5 1621L135.5 1618.5L136.5 1618.5L136.5 1619ZM136.5 1625L136.5 1627L136.5 1627.5L135.5 1627.5L135.5 1627L135.5 1624.5L136.5 1624.5L136.5 1625ZM136.5 1631L136.5 1633L136.5 1633.5L135.5 1633.5L135.5 1633L135.5 1630.5L136.5 1630.5L136.5 1631ZM136.5 1637L136.5 1639L136.5 1639.5L135.5 1639.5L135.5 1639L135.5 1636.5L136.5 1636.5L136.5 1637ZM136.5 1643L136.5 1645L136.5 1645.5L135.5 1645.5L135.5 1645L135.5 1642.5L136.5 1642.5L136.5 1643ZM136.5 1649L136.5 1651L136.5 1651.5L135.5 1651.5L135.5 1651L135.5 1648.5L136.5 1648.5L136.5 1649ZM136.5 1655L136.5 1657L136.5 1657.5L135.5 1657.5L135.5 1657L135.5 1654.5L136.5 1654.5L136.5 1655ZM136.5 1661L136.5 1663L136.5 1663.5L135.5 1663.5L135.5 1663L135.5 1660.5L136.5 1660.5L136.5 1661ZM136.5 1667L136.5 1669L136.5 1669.5L135.5 1669.5L135.5 1669L135.5 1666.5L136.5 1666.5L136.5 1667ZM136.5 1673L136.5 1675L136.5 1675.5L135.5 1675.5L135.5 1675L135.5 1672.5L136.5 1672.5L136.5 1673ZM136.5 1679L136.5 1681L136.5 1681.5L135.5 1681.5L135.5 1681L135.5 1678.5L136.5 1678.5L136.5 1679ZM136.5 1685L136.5 1687L136.5 1687.5L135.5 1687.5L135.5 1687L135.5 1684.5L136.5 1684.5L136.5 1685ZM136.5 1691L136.5 1693L136.5 1693.5L135.5 1693.5L135.5 1693L135.5 1690.5L136.5 1690.5L136.5 1691ZM136.5 1697L136.5 1699L136.5 1699.5L135.5 1699.5L135.5 1699L135.5 1696.5L136.5 1696.5L136.5 1697ZM136.5 1703L136.5 1705L136.5 1705.5L135.5 1705.5L135.5 1705L135.5 1702.5L136.5 1702.5L136.5 1703ZM136.5 1709L136.5 1711L136.5 1711.5L135.5 1711.5L135.5 1711L135.5 1708.5L136.5 1708.5L136.5 1709ZM136.5 1715L136.5 1717L136.5 1717.5L135.5 1717.5L135.5 1717L135.5 1714.5L136.5 1714.5L136.5 1715ZM136.5 1721L136.5 1723L136.5 1723.5L135.5 1723.5L135.5 1723L135.5 1720.5L136.5 1720.5L136.5 1721ZM136.5 1727L136.5 1729L136.5 1729.5L135.5 1729.5L135.5 1729L135.5 1726.5L136.5 1726.5L136.5 1727ZM136.5 1733L136.5 1735L136.5 1735.5L135.5 1735.5L135.5 1735L135.5 1732.5L136.5 1732.5L136.5 1733ZM136.5 1739L136.5 1741L136.5 1741.5L135.5 1741.5L135.5 1741L135.5 1738.5L136.5 1738.5L136.5 1739ZM136.5 1745L136.5 1747L136.5 1747.5L135.5 1747.5L135.5 1747L135.5 1744.5L136.5 1744.5L136.5 1745ZM136.5 1751L136.5 1753L136.5 1753.5L135.5 1753.5L135.5 1753L135.5 1750.5L136.5 1750.5L136.5 1751ZM136.5 1757L136.5 1759L136.5 1759.5L135.5 1759.5L135.5 1759L135.5 1756.5L136.5 1756.5L136.5 1757ZM136.5 1763L136.5 1765L136.5 1765.5L135.5 1765.5L135.5 1765L135.5 1762.5L136.5 1762.5L136.5 1763ZM136.5 1769L136.5 1771L136.5 1771.5L135.5 1771.5L135.5 1771L135.5 1768.5L136.5 1768.5L136.5 1769ZM136.5 1775L136.5 1777L136.5 1777.5L135.5 1777.5L135.5 1777L135.5 1774.5L136.5 1774.5L136.5 1775ZM136.5 1781L136.5 1783L136.5 1783.5L135.5 1783.5L135.5 1783L135.5 1780.5L136.5 1780.5L136.5 1781ZM136.5 1787L136.5 1789L136.5 1789.5L135.5 1789.5L135.5 1789L135.5 1786.5L136.5 1786.5L136.5 1787ZM136.5 1793L136.5 1795L136.5 1795.5L135.5 1795.5L135.5 1795L135.5 1792.5L136.5 1792.5L136.5 1793ZM136.5 1799L136.5 1801L136.5 1801.5L135.5 1801.5L135.5 1801L135.5 1798.5L136.5 1798.5L136.5 1799ZM136.5 1805L136.5 1807L136.5 1807.5L135.5 1807.5L135.5 1807L135.5 1804.5L136.5 1804.5L136.5 1805ZM136.5 1811L136.5 1813L136.5 1813.5L135.5 1813.5L135.5 1813L135.5 1810.5L136.5 1810.5L136.5 1811ZM136.5 1817L136.5 1819L136.5 1819.5L135.5 1819.5L135.5 1819L135.5 1816.5L136.5 1816.5L136.5 1817ZM136.5 1823L136.5 1825L136.5 1825.5L135.5 1825.5L135.5 1825L135.5 1822.5L136.5 1822.5L136.5 1823ZM136.5 1829L136.5 1831L136.5 1831.5L135.5 1831.5L135.5 1831L135.5 1828.5L136.5 1828.5L136.5 1829ZM136.5 1835L136.5 1837L136.5 1837.5L135.5 1837.5L135.5 1837L135.5 1834.5L136.5 1834.5L136.5 1835ZM136.5 1841L136.5 1843L136.5 1843.5L135.5 1843.5L135.5 1843L135.5 1840.5L136.5 1840.5L136.5 1841ZM136.5 1847L136.5 1849L136.5 1849.5L135.5 1849.5L135.5 1849L135.5 1846.5L136.5 1846.5L136.5 1847ZM136.5 1853L136.5 1855L136.5 1855.5L135.5 1855.5L135.5 1855L135.5 1852.5L136.5 1852.5L136.5 1853ZM136.5 1859L136.5 1861L136.5 1861.5L135.5 1861.5L135.5 1861L135.5 1858.5L136.5 1858.5L136.5 1859ZM136.5 1865L136.5 1867L136.5 1867.5L135.5 1867.5L135.5 1867L135.5 1864.5L136.5 1864.5L136.5 1865ZM136.5 1871L136.5 1873L136.5 1873.5L135.5 1873.5L135.5 1873L135.5 1870.5L136.5 1870.5L136.5 1871ZM136.5 1877L136.5 1879.5L135.5 1879.5L135.5 1876.5L136.5 1876.5L136.5 1877Z"/>
		<path transform="translate(0.5 0.5)" d="M136 1883.5L138 1883.5L138.5 1883.5L138.5 1884.5L138 1884.5L135.5 1884.5L135.5 1883.5L136 1883.5ZM142 1883.5L144 1883.5L144.5 1883.5L144.5 1884.5L144 1884.5L141.5 1884.5L141.5 1883.5L142 1883.5ZM148 1883.5L150.5 1883.5L150.5 1884.5L147.5 1884.5L147.5 1883.5L148 1883.5Z"/>
		<path fill="none" stroke="black" stroke-width="1" stroke-linecap="square" stroke-miterlimit="4" transform="translate(0.5 0.5)" d="M136 862L150 862"/>
		<path fill="silver" d="M4 1372L9 1367L87 1367L87 1389L9 1389L4 1384L4 1372Z"/>
		<path fill="white" d="M0 1368L5 1363L83 1363L83 1385L5 1385L0 1380L0 1368Z"/>
		<rect fill="white" x="5" y="1390" width="117" height="48"/>
		<text fill="gray" font-size="9" font-family="Segoe UI" x="5, 9.715332, 14.808594, 19.515137, 21.980469, 27.020996, 32.593262, 36.82959, 40.428711, 43.478516, 47.833496, 53.124512, 57.831055, 60.296387, 63.113281, 68.386719, 71.515625, 73.980957, 76.160645, 81.253906, 84.070801, 89.344238, 92.473145, 100.2251, 104.8042, 107.854, 110.03369, 115.30713, " y="1400, ">
				The PCL-type for information
		</text>
		<text fill="gray" font-size="9" font-family="Segoe UI" x="5, 9.5791016, 14.870117, 20.143555, 25.236816, 28.286621, 30.751953, 33.801758, 38.89502, 43.601562, 46.066895, 50.224121, 55.497559, 60.59082, 63.640625, 68.347168, 73.44043, 76.490234, 78.955566, 83.534668, 87.353516, 89.818848, 94.912109, 99.491211, 102.54102, 107.63428, 110.76318, 115.34229, " y="1412, ">
				about the content as natural
		</text>
		<text fill="gray" font-size="9" font-family="Segoe UI" x="5, 7.1796875, 11.758789, 16.852051, 22.151855, 27.245117, 31.824219, 37.124023, 41.830566, 44.295898, 48.114746, 51.164551, 54.293457, 56.473145, 61.566406, 66.866211, 69.331543, 75.835449, 78.015137, 81.064941, 86.158203, 88.623535, 96.375488, 98.555176, 103.64844, 105.82812, 113.58008, 118.15918, " y="1424, ">
				language string with minimal
		</text>
		<text fill="gray" font-size="9" font-family="Segoe UI" x="5, 12.751953, 17.331055, 20.459961, 24.933594, 30.026855, " y="1436, ">
				markup
		</text>
		<rect fill="white" x="5" y="1365" width="65" height="16"/>
		<text font-size="12" font-weight="600" font-family="Segoe UI" x="5, 11.134766, 17.591797, 25.033203, 31.525391, 34.935547, 41.837891, 48.330078, 54.787109, 62.228516, " y="1378, ">
				Label1Type
		</text>
		<path fill="none" stroke="black" stroke-width="1" stroke-linecap="square" stroke-miterlimit="4" transform="translate(0.5 0.5)" d="M0 1368L5 1363L82 1363L82 1384L5 1384L0 1379L0 1368Z"/>
		<path fill="white" d="M228 19L228 0L151 0L151 19L151 1723L364 1723L364 19L228 19Z"/>
		<rect fill="white" x="171" y="2" width="51" height="16"/>
		<text font-size="12" font-style="italic" font-family="Segoe UI" x="171, 177.50391, 181.38281, 185.26172, 189.5332, 192.63867, 199.14258, 205.83984, 209.73047, 215.57227, " y="15, ">
				attributes
		</text>
		<path fill="none" stroke="black" stroke-width="1" stroke-linecap="square" stroke-miterlimit="4" transform="translate(0.5 0.5)" d="M228 19L228 0L151 0L151 19L151 1723L364 1723L364 19L228 19Z"/>
		<path fill="white" d="M356 47L356 28L165 28L165 47L165 1150L356 1150L356 47Z"/>
		<rect fill="white" x="170" y="1153" width="179" height="48"/>
		<text fill="gray" font-size="9" font-family="Segoe UI" x="170, 175.80518, 178.27051, 183.57031, 186.69922, 191.97266, 197.06592, 202.35693, 204.82227, 210.0957, 212.9126, 215.37793, 219.95703, 223.00684, 226.05664, 229.18555, 231.36523, 236.65625, 241.74951, 244.79932, 249.50586, 253.32471, 255.79004, 258.60693, 263.88037, 267.00928, 269.47461, 274.05371, 276.2334, 278.41309, 280.87842, 285.58496, 287.76465, 292.47119, 300.22314, 304.92969, 310.02295, 313.07275, 316.8916, 319.35693, 324.63037, 327.44727, 329.9126, 334.4917, 336.95703, 343.13135, " y="1163, ">
				A group of attributes for all elements of a G2
		</text>
		<text fill="gray" font-size="9" font-family="Segoe UI" x="170, 172.39502, 175.44482, 180.15137, 187.90332, 190.36865, 195.0752, 199.20605, 203.36328, 208.06982, 213.36084, 216.41064, 218.87598, 221.05566, 224.10547, 227.92432, 230.38965, 233.51855, 238.79199, 244.06543, 247.11523, 249.58057, 254.28711, 256.4668, 261.17334, 268.92529, 273.63184, 278.7251, 281.7749, 283.72607, 286.19141, 289.24121, 294.33447, 299.04102, 301.50635, 303.68604, 306.73584, 311.44238, 319.19434, 327.27588, 331.98242, 335.03223, " y="1175, ">
				Item except its root element, the itemMeta
		</text>
		<text fill="gray" font-size="9" font-family="Segoe UI" x="170, 174.70654, 176.88623, 181.59277, 189.34473, 194.05127, 199.14453, 202.19434, 204.65967, 209.23877, 214.33203, 219.63184, 222.09717, 226.67627, 228.85596, 231.03564, 233.50098, 238.77441, 241.59131, 244.05664, 246.23633, 249.28613, 253.10498, 255.57031, 259.72754, 264.8208, 267.00049, 269.18018, 274.47998, 277.60889, 282.31543, 287.40869, 289.87402, 296.37793, 301.47119, 303.65088, 307.80811, 312.90137, 315.3667, 319.9458, 323.07471, " y="1187, ">
				element and all of its children which are
		</text>
		<text fill="gray" font-size="9" font-family="Segoe UI" x="170, 177.75195, 182.33105, 187.42432, 192.72412, 197.30322, 200.35303, 205.62646, 208.75537, 213.11035, " y="1199, ">
				mandatory.
		</text>
		<rect fill="white" x="207" y="30" width="143" height="16"/>
		<text font-size="12" font-weight="600" font-family="Segoe UI" x="207, 212.75977, 220.0957, 231.08789, 242.08008, 249.41602, 256.67578, 263.68945, 271.02539, 280.53516, 287.02734, 291.80273, 300, 304.66992, 309.33984, 314.16211, 317.57227, 325.01367, 332.27344, 336.89648, 343.38867, " y="43, ">
				commonPowerAttributes
		</text>
		<rect fill="white" x="185" y="30" width="20" height="16"/>
		<text fill="gray" font-size="12" font-family="Segoe UI" x="185, 192.06641, 196.23828, " y="43, ">
				grp
		</text>
		<path fill="none" stroke="gray" stroke-width="1" stroke-linecap="square" stroke-miterlimit="4" transform="translate(0.5 0.5)" d="M165 47L165 1150L356 1150L356 47L356 47"/>
		<path fill="none" stroke="black" stroke-width="1" stroke-linecap="square" stroke-miterlimit="4" transform="translate(0.5 0.5)" d="M356 47L356 28L165 28L165 47"/>
		<rect x="170" y="33" width="11" height="11"/>
		<rect fill="white" x="171" y="34" width="9" height="9"/>
		<rect x="172" y="38" width="7" height="1"/>
		<rect fill="silver" x="177" y="61" width="52" height="21"/>
		<rect fill="white" x="173" y="57" width="52" height="21"/>
		<rect fill="white" x="178" y="84" width="101" height="24"/>
		<text fill="gray" font-size="9" font-family="Segoe UI" x="178, 182.71533, 187.80859, 192.51514, 194.98047, 197.16016, 202.43359, 206.59082, 211.16992, 213.34961, 215.81494, 217.99463, 223.29443, 228.00098, 233.09424, 236.14404, 238.32373, 241.14062, 243.32031, 248.02686, 251.15576, 253.62109, 258.89453, 261.71143, 264.17676, 267.22656, 272.31982, " y="94, ">
				The local identifier of the
		</text>
		<text fill="gray" font-size="9" font-family="Segoe UI" x="178, 183.29102, 186.41992, 191.69336, 196.98438, 201.69092, 204.81982, 207.86963, 212.22461, " y="106, ">
				property.
		</text>
		<rect fill="white" x="182" y="59" width="36" height="16"/>
		<text font-size="12" font-weight="600" font-family="Segoe UI" x="182, 185.41016, " y="72, ">
				id
		</text>
		<rect fill="none" stroke="black" stroke-width="1" stroke-linecap="square" stroke-miterlimit="4" transform="translate(0.5 0.5)" x="173" y="57" width="51" height="20"/>
		<rect fill="silver" x="177" y="119" width="58" height="21"/>
		<rect fill="white" x="173" y="115" width="58" height="21"/>
		<rect fill="white" x="178" y="142" width="121" height="120"/>
		<text fill="gray" font-size="9" font-family="Segoe UI" x="178, 180.39502, 183.21191, 185.67725, 188.72705, 193.82031, 198.52686, 200.99219, 206.2832, 209.41211, 214.68555, 219.97656, 224.68311, 227.81201, 230.86182, 235.2168, 237.68213, 241.99316, 246.57227, 248.75195, 253.84521, 258.55176, 261.01709, 263.19678, 267.01562, 269.48096, 274.57422, 279.84766, " y="152, ">
				If the property value is not
		</text>
		<text fill="gray" font-size="9" font-family="Segoe UI" x="178, 183.2998, 188.00635, 190.82324, 193.00293, 198.09619, 202.80273, 208.10254, 210.05371, 212.51904, 216.33789, 221.62891, 226.33545, 230.49268, 232.67236, 235.48926, 237.66895, 242.37549, 246.19434, 248.65967, 255.16357, 260.25684, 262.43652, 266.59375, 271.68701, 274.15234, 278.85889, 283.95215, 287.00195, 289.18164, 292.23145, " y="164, ">
				defined, specifies which entity
		</text>
		<text fill="gray" font-size="9" font-family="Segoe UI" x="178, 180.71582, 186.00684, 190.71338, 193.84229, 197.66113, 202.93457, 208.02783, 209.979, 212.44434, 217.71777, 220.84668, 226.14648, 230.72559, 235.81885, 237.99854, 241.81738, 246.39648, 249.44629, 251.62598, 256.89941, 261.99268, 264.45801, 269.73145, " y="176, ">
				(person, organisation or
		</text>
		<text fill="gray" font-size="9" font-family="Segoe UI" x="178, 181.81885, 186.17383, 189.99268, 193.04248, 197.74902, 205.50098, 208.2168, 210.68213, 217.18604, 219.36572, 221.54541, 223.7251, 226.19043, 230.89697, 236.19678, 238.37646, 241.42627, 243.8916, 246.94141, 252.03467, 256.74121, 259.20654, 264.49756, 267.62646, 272.8999, 278.19092, 282.89746, 286.02637, 289.07617, " y="188, ">
				system) will edit the property
		</text>
		<text fill="gray" font-size="9" font-family="Segoe UI" x="178, 182.31104, 186.89014, 189.06982, 194.16309, 198.86963, 201.33496, 204.93408, 207.39941, 212.10596, 216.23682, 221.52783, 224.65674, 229.36328, 233.18213, 237.00098, 241.70752, 247.00732, 249.47266, 254.76367, 259.11865, 261.58398, 266.16309, 268.62842, 275.41357, 280.98584, 286.25928, 291.55908, 296.26562, " y="200, ">
				value - expressed by a QCode.
		</text>
		<text fill="gray" font-size="9" font-family="Segoe UI" x="178, 180.39502, 183.21191, 185.67725, 188.72705, 193.82031, 198.52686, 200.99219, 206.2832, 209.41211, 214.68555, 219.97656, 224.68311, 227.81201, 230.86182, 235.2168, 237.68213, 241.99316, 246.57227, 248.75195, 253.84521, 258.55176, 261.01709, 263.19678, " y="212, ">
				If the property value is
		</text>
		<text fill="gray" font-size="9" font-family="Segoe UI" x="178, 183.2998, 188.00635, 190.82324, 193.00293, 198.09619, 202.80273, 208.10254, 210.05371, 212.51904, 216.33789, 221.62891, 226.33545, 230.49268, 232.67236, 235.48926, 237.66895, 242.37549, 246.19434, 248.65967, 255.16357, 260.25684, 262.43652, 266.59375, 271.68701, 274.15234, 278.85889, 283.95215, 287.00195, 289.18164, 292.23145, " y="224, ">
				defined, specifies which entity
		</text>
		<text fill="gray" font-size="9" font-family="Segoe UI" x="178, 180.71582, 186.00684, 190.71338, 193.84229, 197.66113, 202.93457, 208.02783, 209.979, 212.44434, 217.71777, 220.84668, 226.14648, 230.72559, 235.81885, 237.99854, 241.81738, 246.39648, 249.44629, 251.62598, 256.89941, 261.99268, 264.45801, 269.73145, " y="236, ">
				(person, organisation or
		</text>
		<text fill="gray" font-size="9" font-family="Segoe UI" x="178, 181.81885, 186.17383, 189.99268, 193.04248, 197.74902, 205.50098, 208.2168, 210.68213, 215.77539, 220.35449, 224.17334, 226.63867, 231.34521, 236.64502, 238.82471, 241.87451, 246.58105, 251.88086, 254.34619, 257.396, 262.48926, " y="248, ">
				system) has edited the
		</text>
		<text fill="gray" font-size="9" font-family="Segoe UI" x="178, 183.29102, 186.41992, 191.69336, 196.98438, 201.69092, 204.81982, 207.86963, 212.22461, 214.68994, 219.00098, 223.58008, 225.75977, 230.85303, 235.55957, " y="260, ">
				property value.
		</text>
		<rect fill="white" x="182" y="117" width="42" height="16"/>
		<text font-size="12" font-weight="600" font-family="Segoe UI" x="182, 187.75977, 192.48828, 198.98047, 205.4375, 210.06055, 217.39648, " y="130, ">
				creator
		</text>
		<rect fill="none" stroke="black" stroke-width="1" stroke-linecap="square" stroke-miterlimit="4" transform="translate(0.5 0.5)" x="173" y="115" width="57" height="20"/>
		<rect fill="silver" x="177" y="273" width="73" height="21"/>
		<rect fill="white" x="173" y="269" width="73" height="21"/>
		<rect fill="white" x="178" y="296" width="120" height="108"/>
		<text fill="gray" font-size="9" font-family="Segoe UI" x="178, 180.39502, 183.21191, 185.67725, 188.72705, 193.82031, 198.52686, 200.99219, 206.2832, 209.41211, 214.68555, 219.97656, 224.68311, 227.81201, 230.86182, 235.2168, 237.68213, 241.99316, 246.57227, 248.75195, 253.84521, 258.55176, 261.01709, 263.19678, 267.01562, 269.48096, 274.57422, 279.84766, " y="306, ">
				If the property value is not
		</text>
		<text fill="gray" font-size="9" font-family="Segoe UI" x="178, 183.2998, 188.00635, 190.82324, 193.00293, 198.09619, 202.80273, 208.10254, 210.05371, 212.51904, 216.33789, 221.62891, 226.33545, 230.49268, 232.67236, 235.48926, 237.66895, 242.37549, 246.19434, 248.65967, 255.16357, 260.25684, 262.43652, 266.59375, 271.68701, 274.15234, 278.85889, 283.95215, 287.00195, 289.18164, 292.23145, " y="318, ">
				defined, specifies which entity
		</text>
		<text fill="gray" font-size="9" font-family="Segoe UI" x="178, 180.71582, 186.00684, 190.71338, 193.84229, 197.66113, 202.93457, 208.02783, 209.979, 212.44434, 217.71777, 220.84668, 226.14648, 230.72559, 235.81885, 237.99854, 241.81738, 246.39648, 249.44629, 251.62598, 256.89941, 261.99268, 264.45801, 269.73145, " y="330, ">
				(person, organisation or
		</text>
		<text fill="gray" font-size="9" font-family="Segoe UI" x="178, 181.81885, 186.17383, 189.99268, 193.04248, 197.74902, 205.50098, 208.2168, 210.68213, 217.18604, 219.36572, 221.54541, 223.7251, 226.19043, 230.89697, 236.19678, 238.37646, 241.42627, 243.8916, 246.94141, 252.03467, 256.74121, 259.20654, 264.49756, 267.62646, 272.8999, 278.19092, 282.89746, 286.02637, 289.07617, " y="342, ">
				system) will edit the property
		</text>
		<text fill="gray" font-size="9" font-family="Segoe UI" x="178, 181.59912, 184.06445, 188.771, 192.90186, 198.19287, 201.32178, 206.02832, 209.84717, 213.66602, 218.37256, 223.67236, 226.1377, 231.42871, 235.78369, 238.24902, 242.82812, 245.29346, 251.47656, 256.85986, 259.25488, 261.20605, 263.67139, 266.06641, 268.8833, 271.34863, 274.39844, 279.4917, " y="354, ">
				- expressed by a URI. If the
		</text>
		<text fill="gray" font-size="9" font-family="Segoe UI" x="178, 183.29102, 186.41992, 191.69336, 196.98438, 201.69092, 204.81982, 207.86963, 212.22461, 214.68994, 219.00098, 223.58008, 225.75977, 230.85303, 235.55957, 238.0249, 240.20459, 244.02344, 246.48877, 251.78857, 256.49512, 259.31201, 261.4917, 266.58496, 271.2915, 276.59131, " y="366, ">
				property value is defined,
		</text>
		<text fill="gray" font-size="9" font-family="Segoe UI" x="178, 181.81885, 187.10986, 191.81641, 195.97363, 198.15332, 200.97021, 203.1499, 207.85645, 211.67529, 214.14062, 220.64453, 225.73779, 227.91748, 232.07471, 237.16797, 239.6333, 244.33984, 249.43311, 252.48291, 254.6626, 257.7124, 262.06738, 264.53271, 267.24854, 272.53955, 277.24609, 280.375, 284.19385, 289.46729, 294.56055, " y="378, ">
				specifies which entity (person,
		</text>
		<text fill="gray" font-size="9" font-family="Segoe UI" x="178, 183.27344, 186.40234, 191.70215, 196.28125, 201.37451, 203.5542, 207.37305, 211.95215, 215.00195, 217.18164, 222.45508, 227.54834, 230.01367, 235.28711, 238.41602, 240.88135, 244.7002, 249.05518, 252.87402, 255.92383, 260.63037, 268.38232, 271.09814, 273.56348, 278.65674, 283.23584, " y="390, ">
				organisation or system) has
		</text>
		<text fill="gray" font-size="9" font-family="Segoe UI" x="178, 182.70654, 188.00635, 190.18604, 193.23584, 197.94238, 203.24219, 205.70752, 208.75732, 213.85059, 218.55713, 221.02246, 226.31348, 229.44238, 234.71582, 240.00684, 244.71338, 247.84229, 250.89209, 255.24707, " y="402, ">
				edited the property.
		</text>
		<rect fill="white" x="182" y="271" width="57" height="16"/>
		<text font-size="12" font-weight="600" font-family="Segoe UI" x="182, 187.75977, 192.48828, 198.98047, 205.4375, 210.06055, 217.39648, 222.20703, 229.4668, 234.28906, " y="284, ">
				creatoruri
		</text>
		<rect fill="none" stroke="black" stroke-width="1" stroke-linecap="square" stroke-miterlimit="4" transform="translate(0.5 0.5)" x="173" y="269" width="72" height="20"/>
		<rect fill="silver" x="177" y="415" width="69" height="21"/>
		<rect fill="white" x="173" y="411" width="69" height="21"/>
		<rect fill="white" x="178" y="438" width="119" height="72"/>
		<text fill="gray" font-size="9" font-family="Segoe UI" x="178, 182.71533, 187.80859, 192.51514, 194.98047, 200.28027, 204.85938, 207.90918, 212.61572, 215.08105, 217.79688, 222.37598, 227.46924, 232.76904, 234.72021, 237.18555, 242.45898, 247.75, 250.7998, 252.97949, 258.25293, 263.34619, 267.92529, 270.10498, 272.28467, 276.63965, 278.59082, 281.05615, 284.10596, 289.19922, " y="448, ">
				The date (and, optionally, the
		</text>
		<text fill="gray" font-size="9" font-family="Segoe UI" x="178, 181.0498, 183.22949, 190.98145, 195.68799, 198.40381, 200.86914, 207.37305, 212.46631, 217.17285, 222.26611, 224.73145, 227.78125, 232.87451, 237.58105, 240.04639, 245.3374, 248.46631, 253.73975, 259.03076, 263.7373, 266.86621, 269.91602, 274.271, 276.73633, 283.24023, 287.81934, " y="460, ">
				time) when the property was
		</text>
		<text fill="gray" font-size="9" font-family="Segoe UI" x="178, 180.17969, 184.75879, 188.57764, 191.62744, 194.09277, 201.84473, 207.11816, 212.41797, 214.59766, 217.41455, 219.59424, 224.30078, 229.60059, 231.55176, 234.01709, 238.73242, 243.82568, 248.53223, 250.99756, 253.17725, 258.27051, 260.4502, 263.5, 265.67969, 270.25879, 272.43848, 274.90381, 279.21484, 283.79395, 285.97363, 291.06689, " y="472, ">
				last modified. The initial value
		</text>
		<text fill="gray" font-size="9" font-family="Segoe UI" x="178, 180.17969, 183.99854, 186.46387, 189.51367, 194.60693, 199.31348, 201.77881, 207.07861, 211.65771, 214.70752, 219.41406, 221.87939, 224.59521, 229.17432, 234.26758, 239.56738, 241.51855, 243.98389, 249.25732, 254.54834, 257.59814, 259.77783, 265.05127, 270.14453, 274.72363, 276.90332, 279.08301, 283.43799, " y="484, ">
				is the date (and, optionally,
		</text>
		<text fill="gray" font-size="9" font-family="Segoe UI" x="178, 181.0498, 186.14307, 190.84961, 193.31494, 196.36475, 198.54443, 206.29639, 211.00293, 213.71875, 216.18408, 221.45752, 224.27441, 226.73975, 230.89697, 234.02588, 238.73242, 243.31152, 246.36133, 248.54102, 253.81445, 258.90771, 261.37305, 266.64648, 269.46338, 271.92871, 274.97852, 280.07178, " y="496, ">
				the time) of creation of the
		</text>
		<text fill="gray" font-size="9" font-family="Segoe UI" x="178, 183.29102, 186.41992, 191.69336, 196.98438, 201.69092, 204.81982, 207.86963, 212.22461, " y="508, ">
				property.
		</text>
		<rect fill="white" x="182" y="413" width="53" height="16"/>
		<text font-size="12" font-weight="600" font-family="Segoe UI" x="182, 192.99219, 200.32812, 207.75781, 211.16797, 215.76758, 219.17773, 225.66992, " y="426, ">
				modified
		</text>
		<rect fill="none" stroke="black" stroke-width="1" stroke-linecap="square" stroke-miterlimit="4" transform="translate(0.5 0.5)" x="173" y="411" width="68" height="20"/>
		<rect fill="silver" x="177" y="521" width="59" height="21"/>
		<rect fill="white" x="173" y="517" width="59" height="21"/>
		<rect fill="white" x="178" y="544" width="118" height="108"/>
		<text fill="gray" font-size="9" font-family="Segoe UI" x="178, 180.39502, 183.21191, 185.67725, 189.49609, 194.20264, 197.25244, 199.71777, 202.76758, 208.04102, 210.50635, 213.55615, 216.68506, 221.77832, 226.48486, 228.9502, 232, 237.09326, " y="554, ">
				If set to true the
		</text>
		<text fill="gray" font-size="9" font-family="Segoe UI" x="178, 182.15723, 187.43066, 190.55957, 193.68848, 198.39502, 202.21387, 207.50488, 212.77832, 217.87158, 223.17139, 225.35107, 230.44434, 235.74414, 238.20947, 243.50049, 246.62939, 251.90283, 257.19385, 261.90039, 265.0293, 268.0791, 272.43408, 274.89941, 281.40332, 285.98242, " y="566, ">
				corresponding property was
		</text>
		<text fill="gray" font-size="9" font-family="Segoe UI" x="178, 182.5791, 187.87891, 193.17871, 197.88525, 203.18506, 205.65039, 208.7002, 213.97363, 216.43896, 219.48877, 224.58203, 229.28857, 231.75391, 237.92822, 242.77979, 245.24512, 247.64014, 250.68994, 255.39648, 263.14844, 265.61377, 268.43066, 273.7041, 276.83301, 279.29834, " y="578, ">
				added to the G2 Item for a
		</text>
		<text fill="gray" font-size="9" font-family="Segoe UI" x="178, 181.81885, 187.10986, 191.81641, 195.97363, 198.15332, 200.97021, 203.1499, 207.30713, 209.77246, 213.92969, 219.02295, 222.8418, 225.8916, 231.16504, 238.91699, 243.62354, 246.75244, 249.21777, 254.49121, 257.62012, 260.08545, 265.38525, 268.51416, 273.7876, 278.88086, 284.17188, 286.63721, 291.91064, " y="590, ">
				specific customer or group of
		</text>
		<text fill="gray" font-size="9" font-family="Segoe UI" x="178, 182.15723, 187.25049, 191.06934, 194.11914, 199.39258, 207.14453, 211.85107, 214.97998, 218.79883, 221.26416, 226.5376, 231.63086, 233.81055, 238.16553, 240.1167, 242.58203, 247.29736, 252.39062, 257.09717, 259.5625, 264.8623, 269.56885, 272.38574, 276.96484, 282.05811, 284.23779, " y="602, ">
				customers only. The default
		</text>
		<text fill="gray" font-size="9" font-family="Segoe UI" x="178, 182.31104, 186.89014, 189.06982, 194.16309, 198.86963, 201.33496, 206.6084, 209.42529, 211.89062, 214.94043, 220.03369, 222.21338, 226.03223, 228.49756, 233.78857, 236.91748, 242.19092, 247.48193, 252.18848, 255.31738, 258.36719, 262.72217, 265.1875, 267.36719, 271.18604, 273.65137, 276.46826, 281.04736, 283.22705, 287.0459, " y="614, ">
				value of this property is false
		</text>
		<text fill="gray" font-size="9" font-family="Segoe UI" x="178, 184.50391, 189.59717, 191.77686, 195.93408, 201.02734, 203.49268, 208.07178, 213.36279, 218.65381, 220.8335, 223.01318, 227.71973, 231.53857, 234.00391, 240.50781, 245.60107, 250.30762, 255.40088, 257.86621, 260.91602, 266.00928, 268.18896, " y="626, ">
				which applies when this
		</text>
		<text fill="gray" font-size="9" font-family="Segoe UI" x="178, 182.5791, 185.62891, 188.67871, 191.80762, 193.9873, 199.27832, 204.37158, 207.42139, 212.12793, 214.59326, 216.77295, 220.5918, 223.05713, 228.15039, 233.42383, 236.47363, 238.93896, 244.03223, 247.85107, 252.55762, 257.85742, 260.32275, 266.82666, 269.00635, 272.05615, 277.14941, 279.61475, 282.66455, 287.75781, " y="638, ">
				attribute is not used with the
		</text>
		<text fill="gray" font-size="9" font-family="Segoe UI" x="178, 183.29102, 186.41992, 191.69336, 196.98438, 201.69092, 204.81982, 207.86963, 212.22461, " y="650, ">
				property.
		</text>
		<rect fill="white" x="182" y="519" width="43" height="16"/>
		<text font-size="12" font-weight="600" font-family="Segoe UI" x="182, 187.75977, 195.01953, 200.29883, 204.92188, 212.25781, " y="532, ">
				custom
		</text>
		<rect fill="none" stroke="black" stroke-width="1" stroke-linecap="square" stroke-miterlimit="4" transform="translate(0.5 0.5)" x="173" y="517" width="58" height="20"/>
		<rect fill="silver" x="177" y="663" width="52" height="21"/>
		<rect fill="white" x="173" y="659" width="52" height="21"/>
		<rect fill="white" x="178" y="686" width="118" height="48"/>
		<text fill="gray" font-size="9" font-family="Segoe UI" x="178, 180.39502, 185.48828, 190.78809, 192.96777, 197.125, 201.7041, 204.75391, 209.46045, 213.2793, 215.74463, 221.03564, 225.39062, 227.85596, 234.35986, 239.45312, 241.63281, 245.79004, 250.8833, 253.34863, 261.10059, 265.80713, 270.38623, 275.47949, 279.29834, 281.76367, 284.81348, 289.90674, " y="696, ">
				Indicates by which means the
		</text>
		<text fill="gray" font-size="9" font-family="Segoe UI" x="178, 182.31104, 186.89014, 189.06982, 194.16309, 198.86963, 201.33496, 207.83887, 212.41797, 216.23682, 218.70215, 223.40869, 227.53955, 230.58936, 233.71826, 238.29736, 242.45459, 245.50439, 250.21094, 255.51074, 257.97607, 260.79297, 263.92188, 269.19531, 276.94727, 279.4126, 282.4624, 287.55566, " y="708, ">
				value was extracted from the
		</text>
		<text fill="gray" font-size="9" font-family="Segoe UI" x="178, 182.15723, 187.43066, 192.52393, 195.57373, 200.28027, 205.37354, 208.42334, 210.88867, 214.48779, 216.95312, 221.65967, 225.79053, 231.08154, 234.21045, 238.91699, 242.73584, 246.55469, 251.26123, 256.56104, 259.02637, 264.31738, 268.67236, 271.1377, " y="720, ">
				content - expressed by a
		</text>
		<text fill="gray" font-size="9" font-family="Segoe UI" x="178, 184.78516, 190.35742, 195.63086, 200.93066, " y="732, ">
				QCode
		</text>
		<rect fill="white" x="182" y="661" width="36" height="16"/>
		<text font-size="12" font-weight="600" font-family="Segoe UI" x="182, 189.22461, 196.56055, " y="674, ">
				how
		</text>
		<rect fill="none" stroke="black" stroke-width="1" stroke-linecap="square" stroke-miterlimit="4" transform="translate(0.5 0.5)" x="173" y="659" width="51" height="20"/>
		<rect fill="silver" x="177" y="745" width="57" height="21"/>
		<rect fill="white" x="173" y="741" width="57" height="21"/>
		<rect fill="white" x="178" y="768" width="118" height="36"/>
		<text fill="gray" font-size="9" font-family="Segoe UI" x="178, 180.39502, 185.48828, 190.78809, 192.96777, 197.125, 201.7041, 204.75391, 209.46045, 213.2793, 215.74463, 221.03564, 225.39062, 227.85596, 234.35986, 239.45312, 241.63281, 245.79004, 250.8833, 253.34863, 261.10059, 265.80713, 270.38623, 275.47949, 279.29834, 281.76367, 284.81348, 289.90674, " y="778, ">
				Indicates by which means the
		</text>
		<text fill="gray" font-size="9" font-family="Segoe UI" x="178, 182.31104, 186.89014, 189.06982, 194.16309, 198.86963, 201.33496, 207.83887, 212.41797, 216.23682, 218.70215, 223.40869, 227.53955, 230.58936, 233.71826, 238.29736, 242.45459, 245.50439, 250.21094, 255.51074, 257.97607, 260.79297, 263.92188, 269.19531, 276.94727, 279.4126, 282.4624, 287.55566, " y="790, ">
				value was extracted from the
		</text>
		<text fill="gray" font-size="9" font-family="Segoe UI" x="178, 182.15723, 187.43066, 192.52393, 195.57373, 200.28027, 205.37354, 208.42334, 210.88867, 214.48779, 216.95312, 221.65967, 225.79053, 231.08154, 234.21045, 238.91699, 242.73584, 246.55469, 251.26123, 256.56104, 259.02637, 264.31738, 268.67236, 271.1377, 275.7168, 278.18213, 284.36523, 289.74854, " y="802, ">
				content - expressed by a URI
		</text>
		<rect fill="white" x="182" y="743" width="41" height="16"/>
		<text font-size="12" font-weight="600" font-family="Segoe UI" x="182, 189.22461, 196.56055, 206.12891, 213.38867, 218.21094, " y="756, ">
				howuri
		</text>
		<rect fill="none" stroke="black" stroke-width="1" stroke-linecap="square" stroke-miterlimit="4" transform="translate(0.5 0.5)" x="173" y="741" width="56" height="20"/>
		<rect fill="silver" x="177" y="815" width="52" height="21"/>
		<rect fill="white" x="173" y="811" width="52" height="21"/>
		<rect fill="white" x="178" y="838" width="113" height="36"/>
		<text fill="gray" font-size="9" font-family="Segoe UI" x="178, 186.40674, 191.5, 195.85498, 198.32031, 201.37012, 206.46338, 211.16992, 213.63525, 221.38721, 226.09375, 229.14355, 233.72266, 239.02246, 243.60156, 246.65137, 251.23047, 253.6958, 258.78906, 263.36816, 267.18701, 269.65234, 274.94336, 279.6499, 284.35645, " y="848, ">
				Why the metadata has been
		</text>
		<text fill="gray" font-size="9" font-family="Segoe UI" x="178, 180.17969, 185.27295, 189.43018, 191.60986, 196.70312, 202.00293, 206.70947, 212.00928, 214.47461, 218.07373, 220.53906, 225.24561, 229.37646, 234.66748, 237.79639, 242.50293, 246.32178, 250.14062, 254.84717, 260.14697, 262.6123, 267.90332, 272.2583, 274.72363, " y="860, ">
				included - expressed by a
		</text>
		<text fill="gray" font-size="9" font-family="Segoe UI" x="178, 184.78516, 190.35742, 195.63086, 200.93066, " y="872, ">
				QCode
		</text>
		<rect fill="white" x="182" y="813" width="36" height="16"/>
		<text font-size="12" font-weight="600" font-family="Segoe UI" x="182, 191.56836, 198.79297, " y="826, ">
				why
		</text>
		<rect fill="none" stroke="black" stroke-width="1" stroke-linecap="square" stroke-miterlimit="4" transform="translate(0.5 0.5)" x="173" y="811" width="51" height="20"/>
		<rect fill="silver" x="177" y="885" width="56" height="21"/>
		<rect fill="white" x="173" y="881" width="56" height="21"/>
		<rect fill="white" x="178" y="908" width="119" height="24"/>
		<text fill="gray" font-size="9" font-family="Segoe UI" x="178, 186.40674, 191.5, 195.85498, 198.32031, 201.37012, 206.46338, 211.16992, 213.63525, 221.38721, 226.09375, 229.14355, 233.72266, 239.02246, 243.60156, 246.65137, 251.23047, 253.6958, 258.78906, 263.36816, 267.18701, 269.65234, 274.94336, 279.6499, 284.35645, " y="918, ">
				Why the metadata has been
		</text>
		<text fill="gray" font-size="9" font-family="Segoe UI" x="178, 180.17969, 185.27295, 189.43018, 191.60986, 196.70312, 202.00293, 206.70947, 212.00928, 214.47461, 218.07373, 220.53906, 225.24561, 229.37646, 234.66748, 237.79639, 242.50293, 246.32178, 250.14062, 254.84717, 260.14697, 262.6123, 267.90332, 272.2583, 274.72363, 279.30273, 281.76807, 287.95117, 293.33447, " y="930, ">
				included - expressed by a URI
		</text>
		<rect fill="white" x="182" y="883" width="40" height="16"/>
		<text font-size="12" font-weight="600" font-family="Segoe UI" x="182, 191.56836, 198.79297, 205.25, 212.50977, 217.33203, " y="896, ">
				whyuri
		</text>
		<rect fill="none" stroke="black" stroke-width="1" stroke-linecap="square" stroke-miterlimit="4" transform="translate(0.5 0.5)" x="173" y="881" width="55" height="20"/>
		<rect fill="silver" x="177" y="943" width="97" height="21"/>
		<rect fill="white" x="173" y="939" width="97" height="21"/>
		<rect fill="white" x="178" y="966" width="117" height="72"/>
		<text fill="gray" font-size="9" font-family="Segoe UI" x="178, 184.78516, 189.87842, 194.58496, 197.05029, 202.32373, 205.45264, 207.91797, 215.66992, 220.24902, 225.34229, 229.69727, 232.1626, 236.31982, 241.59326, 246.68652, 250.50537, 253.55518, 256.68408, 261.26318, 263.44287, 268.53613, 271.58594, 275.40479, 277.87012, 280.91992, 286.01318, 290.59229, " y="976, ">
				One or many constraints that
		</text>
		<text fill="gray" font-size="9" font-family="Segoe UI" x="178, 182.5791, 187.87012, 193.16113, 195.34082, 199.6958, 202.16113, 205.21094, 210.48438, 212.94971, 218.24072, 223.33398, 228.625, 230.80469, 232.98438, 236.80322, 241.89648, 244.07617, 249.16943, 254.46924, 256.93457, 259.98438, 265.07764, 269.78418, 272.24951, 276.56055, 281.13965, 283.31934, 288.4126, " y="988, ">
				apply to publishing the value
		</text>
		<text fill="gray" font-size="9" font-family="Segoe UI" x="178, 183.27344, 186.09033, 188.55566, 191.60547, 196.69873, 201.40527, 203.87061, 209.16162, 212.29053, 217.56396, 222.85498, 227.56152, 230.69043, 233.74023, 238.09521, 240.56055, 244.15967, 246.625, 251.33154, 255.4624, 260.75342, 263.88232, 268.58887, 272.40771, 276.22656, 280.93311, " y="1000, ">
				of the property - expressed
		</text>
		<text fill="gray" font-size="9" font-family="Segoe UI" x="178, 183.29102, 187.646, 190.11133, 194.69043, 197.15576, 203.94092, 209.51318, 214.78662, 220.08643, 224.79297, 226.74414, 229.20947, 233.76221, 238.34131, 242.49854, 247.5918, 250.05713, 254.21436, 259.48779, 264.58105, 268.3999, 271.44971, 274.57861, 279.15771, 281.3374, 286.43066, " y="1012, ">
				by a QCode. Each constraint
		</text>
		<text fill="gray" font-size="9" font-family="Segoe UI" x="178, 182.5791, 187.87012, 193.16113, 195.34082, 197.52051, 202.22705, 206.0459, 208.51123, 211.56104, 216.83447, 219.2998, 223.87891, 226.05859, 228.23828, 230.70361, 236.00342, 240.70996, 244.52881, 248.68604, 253.39258, 258.48584, 263.78564, 268.36475, 273.45801, " y="1024, ">
				applies to all descendant
		</text>
		<text fill="gray" font-size="9" font-family="Segoe UI" x="178, 182.70654, 184.88623, 189.59277, 197.34473, 202.05127, 207.14453, 210.19434, 214.01318, " y="1036, ">
				elements.
		</text>
		<rect fill="white" x="182" y="941" width="81" height="16"/>
		<text font-size="12" font-weight="600" font-family="Segoe UI" x="182, 189.44141, 196.70117, 204.14258, 209.90234, 217.23828, 224.49805, 229.77734, 234.44727, 239.22266, 245.67969, 249.08984, 256.34961, " y="954, ">
				pubconstraint
		</text>
		<rect fill="none" stroke="black" stroke-width="1" stroke-linecap="square" stroke-miterlimit="4" transform="translate(0.5 0.5)" x="173" y="939" width="96" height="20"/>
		<rect fill="silver" x="177" y="1049" width="112" height="21"/>
		<rect fill="white" x="173" y="1045" width="112" height="21"/>
		<rect fill="white" x="178" y="1072" width="117" height="72"/>
		<text fill="gray" font-size="9" font-family="Segoe UI" x="178, 184.78516, 189.87842, 194.58496, 197.05029, 202.32373, 205.45264, 207.91797, 215.66992, 220.24902, 225.34229, 229.69727, 232.1626, 236.31982, 241.59326, 246.68652, 250.50537, 253.55518, 256.68408, 261.26318, 263.44287, 268.53613, 271.58594, 275.40479, 277.87012, 280.91992, 286.01318, 290.59229, " y="1082, ">
				One or many constraints that
		</text>
		<text fill="gray" font-size="9" font-family="Segoe UI" x="178, 182.5791, 187.87012, 193.16113, 195.34082, 199.6958, 202.16113, 205.21094, 210.48438, 212.94971, 218.24072, 223.33398, 228.625, 230.80469, 232.98438, 236.80322, 241.89648, 244.07617, 249.16943, 254.46924, 256.93457, 259.98438, 265.07764, 269.78418, 272.24951, 276.56055, 281.13965, 283.31934, 288.4126, " y="1094, ">
				apply to publishing the value
		</text>
		<text fill="gray" font-size="9" font-family="Segoe UI" x="178, 183.27344, 186.09033, 188.55566, 191.60547, 196.69873, 201.40527, 203.87061, 209.16162, 212.29053, 217.56396, 222.85498, 227.56152, 230.69043, 233.74023, 238.09521, 240.56055, 244.15967, 246.625, 251.33154, 255.4624, 260.75342, 263.88232, 268.58887, 272.40771, 276.22656, 280.93311, " y="1106, ">
				of the property - expressed
		</text>
		<text fill="gray" font-size="9" font-family="Segoe UI" x="178, 183.29102, 187.646, 190.11133, 194.69043, 197.15576, 203.33887, 208.72217, 211.11719, 213.06836, 215.53369, 220.08643, 224.66553, 228.82275, 233.91602, 236.38135, 240.53857, 245.81201, 250.90527, 254.72412, 257.77393, 260.90283, 265.48193, 267.66162, 272.75488, " y="1118, ">
				by a URI. Each constraint
		</text>
		<text fill="gray" font-size="9" font-family="Segoe UI" x="178, 182.5791, 187.87012, 193.16113, 195.34082, 197.52051, 202.22705, 206.0459, 208.51123, 211.56104, 216.83447, 219.2998, 223.87891, 226.05859, 228.23828, 230.70361, 236.00342, 240.70996, 244.52881, 248.68604, 253.39258, 258.48584, 263.78564, 268.36475, 273.45801, " y="1130, ">
				applies to all descendant
		</text>
		<text fill="gray" font-size="9" font-family="Segoe UI" x="178, 182.70654, 184.88623, 189.59277, 197.34473, 202.05127, 207.14453, 210.19434, 214.01318, " y="1142, ">
				elements.
		</text>
		<rect fill="white" x="182" y="1047" width="96" height="16"/>
		<text font-size="12" font-weight="600" font-family="Segoe UI" x="182, 189.44141, 196.70117, 204.14258, 209.90234, 217.23828, 224.49805, 229.77734, 234.44727, 239.22266, 245.67969, 249.08984, 256.34961, 261.01953, 268.2793, 273.10156, " y="1060, ">
				pubconstrainturi
		</text>
		<rect fill="none" stroke="black" stroke-width="1" stroke-linecap="square" stroke-miterlimit="4" transform="translate(0.5 0.5)" x="173" y="1045" width="111" height="20"/>
		<path fill="white" d="M296 1227L296 1208L165 1208L165 1227L165 1412L306 1412L306 1227L296 1227Z"/>
		<rect fill="white" x="170" y="1415" width="110" height="36"/>
		<text fill="gray" font-size="9" font-family="Segoe UI" x="170, 175.80518, 178.27051, 183.57031, 186.69922, 191.97266, 197.06592, 202.35693, 204.82227, 210.0957, 212.9126, 215.37793, 219.95703, 223.00684, 226.05664, 229.18555, 231.36523, 236.65625, 241.74951, 244.79932, 249.50586, 253.32471, 255.79004, 258.60693, 263.88037, " y="1425, ">
				A group of attributes for
		</text>
		<text fill="gray" font-size="9" font-family="Segoe UI" x="170, 172.17969, 176.75879, 181.85205, 187.15186, 192.24512, 196.82422, 202.12402, 206.83057, 209.2959, 213.875, 218.96826, 224.26807, 226.7334, 230.55225, 234.70947, 237.83838, 240.01807, 245.30908, 248.35889, 250.82422, 253.95312, 258.65967, 260.83936, 265.41846, 268.46826, 273.1748, " y="1437, ">
				language and script related
		</text>
		<text fill="gray" font-size="9" font-family="Segoe UI" x="170, 172.17969, 177.27295, 180.08984, 185.36328, 188.49219, 196.24414, 200.82324, 203.87305, 206.05273, 211.32617, " y="1449, ">
				information
		</text>
		<rect fill="white" x="207" y="1210" width="83" height="16"/>
		<text font-size="12" font-weight="600" font-family="Segoe UI" x="207, 210.41016, 217.3125, 224.21484, 231.47461, 239.67188, 244.3418, 249.01172, 253.83398, 257.24414, 264.68555, 271.94531, 276.56836, 283.06055, " y="1223, ">
				i18nAttributes
		</text>
		<rect fill="white" x="185" y="1210" width="20" height="16"/>
		<text fill="gray" font-size="12" font-family="Segoe UI" x="185, 192.06641, 196.23828, " y="1223, ">
				grp
		</text>
		<path fill="none" stroke="gray" stroke-width="1" stroke-linecap="square" stroke-miterlimit="4" transform="translate(0.5 0.5)" d="M165 1227L165 1412L306 1412L306 1227L296 1227"/>
		<path fill="none" stroke="black" stroke-width="1" stroke-linecap="square" stroke-miterlimit="4" transform="translate(0.5 0.5)" d="M296 1227L296 1208L165 1208L165 1227"/>
		<rect x="170" y="1213" width="11" height="11"/>
		<rect fill="white" x="171" y="1214" width="9" height="9"/>
		<rect x="172" y="1218" width="7" height="1"/>
		<rect fill="silver" x="177" y="1241" width="66" height="21"/>
		<rect fill="white" x="173" y="1237" width="66" height="21"/>
		<rect fill="white" x="178" y="1264" width="121" height="84"/>
		<text fill="gray" font-size="9" font-family="Segoe UI" x="178, 182.78125, 188.07227, 192.77881, 196.93604, 199.11572, 201.93262, 204.1123, 208.81885, 212.6377, 215.10303, 218.15283, 223.24609, 227.95264, 230.41797, 232.59766, 237.17676, 242.27002, 247.56982, 252.66309, 257.24219, 262.54199, 267.24854, 269.71387, 274.9873, 277.8042, 280.26953, 283.31934, 288.4126, 290.59229, " y="1274, ">
				Specifies the language of this
		</text>
		<text fill="gray" font-size="9" font-family="Segoe UI" x="178, 183.29102, 186.41992, 191.69336, 196.98438, 201.69092, 204.81982, 207.86963, 212.22461, 214.68994, 219.26904, 224.3623, 229.66211, 232.12744, 237.41846, 242.69189, 245.7417, 250.44824, 255.5415, 258.59131, 260.771, 265.3501, 267.52979, 269.70947, 274.06445, 276.52979, 281.10889, 283.28857, " y="1286, ">
				property and potentially all
		</text>
		<text fill="gray" font-size="9" font-family="Segoe UI" x="178, 183.2998, 188.00635, 191.8252, 195.98242, 200.68896, 205.78223, 211.08203, 215.66113, 220.75439, 223.8042, 226.26953, 231.56055, 234.68945, 239.96289, 245.25391, 249.96045, 253.08936, 256.13916, 258.31885, 263.02539, 266.84424, " y="1298, ">
				descendant properties.
		</text>
		<text fill="gray" font-size="9" font-family="Segoe UI" x="178, 182.13086, 189.88281, 192.0625, 194.01367, 196.19336, 200.77246, 205.86572, 211.16553, 213.63086, 217.94189, 222.521, 224.70068, 229.79395, 234.50049, 238.31934, 240.78467, 246.05811, 248.875, 251.34033, 256.64014, 261.34668, 265.16553, 269.32275, 274.0293, 279.12256, 284.42236, 289.00146, 294.09473, " y="1310, ">
				xml:lang values of descendant
		</text>
		<text fill="gray" font-size="9" font-family="Segoe UI" x="178, 183.29102, 186.41992, 191.69336, 196.98438, 201.69092, 204.81982, 207.86963, 210.04932, 214.75586, 218.57471, 221.04004, 226.31348, 230.62451, 235.33105, 238.45996, 241.58887, 243.76855, 249.06836, 253.7749, 256.24023, 259.29004, 264.3833, 266.56299, 270.38184, 272.84717, 277.1582, 281.7373, 283.91699, 289.01025, 293.7168, " y="1322, ">
				properties override this value.
		</text>
		<text fill="gray" font-size="9" font-family="Segoe UI" x="178, 182.93066, 187.50977, 189.68945, 194.78271, 199.48926, 203.30811, 205.77344, 210.35254, 213.48145, 218.18799, 220.65332, 225.95312, 230.65967, 233.70947, 238.41602, 241.54492, 249.29688, 251.47656, 256.56982, 261.27637, 266.57617, 269.0415, 274.33252, " y="1334, ">
				Values are determined by
		</text>
		<text fill="gray" font-size="9" font-family="Segoe UI" x="178, 180.39502, 185.48828, 188.53809, 193.24463, 196.37354, 201.4668, 206.17334, 209.22314, 211.68848, 216.84766, 222.41992, 227.46045, 229.92578, 234.77734, 239.62891, " y="1346, ">
				Internet BCP 47.
		</text>
		<rect fill="white" x="182" y="1239" width="50" height="16"/>
		<text font-size="12" font-weight="600" font-family="Segoe UI" x="182, 188.62695, 199.61914, 203.0293, 206.28125, 209.69141, 216.14844, 223.4082, " y="1252, ">
				xml:lang
		</text>
		<path fill="none" stroke="black" stroke-width="2" stroke-miterlimit="4" transform="translate(0.5 0.5)" d="M175 1255L179 1251"/>
		<path fill="none" stroke="black" stroke-width="1" stroke-linecap="square" stroke-miterlimit="4" transform="translate(0.5 0.5)" d="M176 1251L179 1251L179 1254"/>
		<rect fill="none" stroke="black" stroke-width="1" stroke-linecap="square" stroke-miterlimit="4" transform="translate(0.5 0.5)" x="173" y="1237" width="65" height="20"/>
		<rect fill="silver" x="177" y="1359" width="52" height="21"/>
		<rect fill="white" x="173" y="1355" width="52" height="21"/>
		<rect fill="white" x="178" y="1382" width="116" height="24"/>
		<text fill="gray" font-size="9" font-family="Segoe UI" x="178, 182.71533, 187.80859, 192.51514, 194.98047, 200.28027, 202.45996, 205.58887, 210.29541, 214.45264, 217.50244, 219.68213, 224.95557, 230.04883, 234.62793, 236.80762, 238.9873, 242.03711, 246.39209, 248.85742, 254.13086, 256.94775, 259.41309, 262.46289, 267.16943, 271.30029, 274.3501, 279.44336, 284.02246, " y="1392, ">
				The directionality of textual
		</text>
		<text fill="gray" font-size="9" font-family="Segoe UI" x="178, 182.15723, 187.43066, 192.52393, 195.57373, 200.28027, 205.37354, 208.42334, 210.88867, 213.60449, 218.31104, 223.4043, 228.49756, 236.24951, 240.95605, 244.08496, 248.66406, 251.71387, 253.89355, 259.16699, 264.26025, 266.21143, 268.67676, 270.85645, 273.90625, 277.03516, 278.98633, 281.45166, 284.58057, 287.63037, 289.81006, " y="1404, ">
				content (enumeration: ltr, rtl)
		</text>
		<rect fill="white" x="182" y="1357" width="36" height="16"/>
		<text font-size="12" font-weight="600" font-family="Segoe UI" x="182, 189.42969, 192.83984, " y="1370, ">
				dir
		</text>
		<rect fill="none" stroke="black" stroke-width="1" stroke-linecap="square" stroke-miterlimit="4" transform="translate(0.5 0.5)" x="173" y="1355" width="51" height="20"/>
		<rect fill="silver" x="169" y="1462" width="52" height="21"/>
		<rect fill="white" x="165" y="1458" width="52" height="21"/>
		<rect fill="white" x="170" y="1485" width="120" height="36"/>
		<text fill="gray" font-size="9" font-family="Segoe UI" x="170, 175.80518, 178.27051, 181.39941, 186.10596, 188.92285, 191.10254, 196.1958, 200.90234, 208.6543, 213.36084, 218.4541, 221.50391, 223.96924, 229.24268, 232.05957, 234.5249, 237.57471, 242.66797, 247.37451, 249.83984, 253.65869, 258.36523, 266.11719, 270.69629, 275.78955, 278.83936, 281.01904, 285.17627, " y="1495, ">
				A refinement of the semantics
		</text>
		<text fill="gray" font-size="9" font-family="Segoe UI" x="170, 175.27344, 178.09033, 180.55566, 183.60547, 188.69873, 193.40527, 195.87061, 198.05029, 202.62939, 207.92041, 212.62695, 214.80664, 217.27197, 220.87109, 223.33643, 228.04297, 232.17383, 237.46484, 240.59375, 245.30029, 249.11914, 252.93799, 257.64453, 262.94434, 265.40967, 270.70068, 275.05566, 277.521, " y="1507, ">
				of the label - expressed by a
		</text>
		<text fill="gray" font-size="9" font-family="Segoe UI" x="170, 176.78516, 182.35742, 187.63086, 192.93066, " y="1519, ">
				QCode
		</text>
		<rect fill="white" x="174" y="1460" width="36" height="16"/>
		<text font-size="12" font-weight="600" font-family="Segoe UI" x="174, 178.72852, 186.06445, 189.47461, " y="1473, ">
				role
		</text>
		<rect fill="none" stroke="black" stroke-width="1" stroke-linecap="square" stroke-miterlimit="4" transform="translate(0.5 0.5)" x="165" y="1458" width="51" height="20"/>
		<rect fill="silver" x="169" y="1532" width="55" height="21"/>
		<rect fill="white" x="165" y="1528" width="55" height="21"/>
		<rect fill="white" x="170" y="1555" width="120" height="36"/>
		<text fill="gray" font-size="9" font-family="Segoe UI" x="170, 175.80518, 178.27051, 181.39941, 186.10596, 188.92285, 191.10254, 196.1958, 200.90234, 208.6543, 213.36084, 218.4541, 221.50391, 223.96924, 229.24268, 232.05957, 234.5249, 237.57471, 242.66797, 247.37451, 249.83984, 253.65869, 258.36523, 266.11719, 270.69629, 275.78955, 278.83936, 281.01904, 285.17627, " y="1565, ">
				A refinement of the semantics
		</text>
		<text fill="gray" font-size="9" font-family="Segoe UI" x="170, 175.27344, 178.09033, 180.55566, 183.60547, 188.69873, 193.40527, 195.87061, 198.05029, 202.62939, 207.92041, 212.62695, 214.80664, 217.27197, 220.87109, 223.33643, 228.04297, 232.17383, 237.46484, 240.59375, 245.30029, 249.11914, 252.93799, 257.64453, 262.94434, 265.40967, 270.70068, 275.05566, 277.521, " y="1577, ">
				of the label - expressed by a
		</text>
		<text fill="gray" font-size="9" font-family="Segoe UI" x="170, 176.18311, 181.56641, " y="1589, ">
				URI
		</text>
		<rect fill="white" x="174" y="1530" width="39" height="16"/>
		<text font-size="12" font-weight="600" font-family="Segoe UI" x="174, 178.72852, 186.06445, 189.47461, 195.9668, 203.22656, 208.04883, " y="1543, ">
				roleuri
		</text>
		<rect fill="none" stroke="black" stroke-width="1" stroke-linecap="square" stroke-miterlimit="4" transform="translate(0.5 0.5)" x="165" y="1528" width="54" height="20"/>
		<rect fill="silver" x="169" y="1602" width="52" height="21"/>
		<rect fill="white" x="165" y="1598" width="52" height="21"/>
		<rect fill="white" x="170" y="1625" width="106" height="60"/>
		<text fill="gray" font-size="9" font-family="Segoe UI" x="170, 175.80518, 180.89844, 183.36377, 185.54346, 190.63672, 195.93652, 198.11621, 202.27344, 206.85254, 209.90234, 212.08203, 217.35547, 222.44873, 224.91406, 230.1875, 233.00439, 235.46973, 238.51953, 243.61279, 248.31934, 250.78467, 253.83447, 258.41357, 261.54248, 266.84229, 271.54883, " y="1635, ">
				An indication of the target
		</text>
		<text fill="gray" font-size="9" font-family="Segoe UI" x="170, 177.75195, 182.4585, 187.7583, 189.93799, 194.51709, 196.98242, 200.03223, 204.38721, 209.67822, 214.38477, 217.10059, 220.91943, 223.63525, 225.58643, 228.05176, 232.36279, 236.94189, 239.12158, 244.21484, 248.92139, 252.74023, 255.20557, 259.78467, " y="1647, ">
				media type(s), values as
		</text>
		<text fill="gray" font-size="9" font-family="Segoe UI" x="170, 175.2998, 180.00635, 182.82324, 185.00293, 190.09619, 194.80273, 200.10254, 202.56787, 207.85889, 212.21387, 214.6792, 217.729, 222.82227, 227.52881, 229.99414, 235.56641, 240.14551, 243.96436, 248.12158, 252.70068, 258.00049, 260.18018, 265.27344, " y="1659, ">
				defined by the Cascading
		</text>
		<text fill="gray" font-size="9" font-family="Segoe UI" x="170, 174.49121, 177.54102, 181.896, 184.07568, 188.78223, 191.24756, 196.02881, 201.12207, 205.82861, 210.53516, 213.58496, 217.40381, 219.86914, 223.68799, 228.979, 233.68555, 237.84277, 240.02246, 242.83936, 245.01904, 249.17627, 253.75537, 256.80518, 258.98486, 264.2583, " y="1671, ">
				Style Sheets specification
		</text>
		<text fill="gray" font-size="9" font-family="Segoe UI" x="170, 172.71582, 178.28809, 183.06934, 187.85059, 190.56641, " y="1683, ">
				[CSS].
		</text>
		<rect fill="white" x="174" y="1600" width="36" height="16"/>
		<text font-size="12" font-weight="600" font-family="Segoe UI" x="174, 184.99219, 191.48438, 198.91406, 202.32422, " y="1613, ">
				media
		</text>
		<rect fill="none" stroke="black" stroke-width="1" stroke-linecap="square" stroke-miterlimit="4" transform="translate(0.5 0.5)" x="165" y="1598" width="51" height="20"/>
		<path fill="silver" d="M169 1701L174 1696L242 1696L247 1701L247 1712L242 1717L174 1717L169 1712L169 1701Z"/>
		<path fill="white" d="M165 1697L170 1692L238 1692L243 1697L243 1708L238 1713L170 1713L165 1708L165 1697Z"/>
		<rect fill="white" x="192" y="1694" width="46" height="16"/>
		<text font-size="12" font-weight="600" font-family="Segoe UI" x="192, 199.10742, 206.21484, 213.55078, 218.2207, 225.44531, 231.9375, " y="1707, ">
				##other
		</text>
		<rect fill="white" x="170" y="1694" width="20" height="16"/>
		<text fill="gray" font-size="12" font-family="Segoe UI" x="170, 176.10547, 182.89648, " y="1707, ">
				any
		</text>
		<path fill="none" stroke="black" stroke-width="1" stroke-linecap="square" stroke-miterlimit="4" transform="translate(0.5 0.5)" d="M165 1697L170 1692L237 1692L242 1697L242 1707L237 1712L170 1712L165 1707L165 1697Z"/>
		<rect x="156" y="5" width="11" height="11"/>
		<rect fill="white" x="157" y="6" width="9" height="9"/>
		<rect x="158" y="10" width="7" height="1"/>
		<path fill="none" stroke="black" stroke-width="1" stroke-linecap="square" stroke-miterlimit="4" transform="translate(0.5 0.5)" d="M196 1884L204 1884"/>
		<path fill="none" stroke="black" stroke-width="1" stroke-linecap="square" stroke-miterlimit="4" transform="translate(0.5 0.5)" d="M205 1884L205 1747"/>
		<path fill="none" stroke="black" stroke-width="1" stroke-linecap="square" stroke-miterlimit="4" transform="translate(0.5 0.5)" d="M205 1884L205 2021"/>
		<path fill="none" stroke="black" stroke-width="1" stroke-linecap="square" stroke-miterlimit="4" transform="translate(0.5 0.5)" d="M205 1746L219 1746"/>
		<path fill="none" stroke="black" stroke-width="1" stroke-linecap="square" stroke-miterlimit="4" transform="translate(0.5 0.5)" d="M205 1809L219 1809"/>
		<path fill="none" stroke="black" stroke-width="1" stroke-linecap="square" stroke-miterlimit="4" transform="translate(0.5 0.5)" d="M205 1884L219 1884"/>
		<path fill="none" stroke="black" stroke-width="1" stroke-linecap="square" stroke-miterlimit="4" transform="translate(0.5 0.5)" d="M205 1959L219 1959"/>
		<path fill="none" stroke="black" stroke-width="1" stroke-linecap="square" stroke-miterlimit="4" transform="translate(0.5 0.5)" d="M205 2022L219 2022"/>
		<path fill="silver" d="M158 1886L163 1881L188 1881L193 1886L193 1897L188 1902L163 1902L158 1897L158 1886Z"/>
		<path fill="white" d="M154 1882L159 1877L183 1877L188 1882L188 1892L183 1897L159 1897L154 1892L154 1882Z"/>
		<path transform="translate(0.5 0.5)" d="M157.889 1877.4L158.793 1876.5L159.929 1876.5L160.429 1876.5L160.429 1877.5L159.929 1877.5L159 1877.5L159 1877L159.354 1877.35L158.243 1878.46L157.536 1877.76L157.889 1877.4ZM163.929 1876.5L165.929 1876.5L166.429 1876.5L166.429 1877.5L165.929 1877.5L163.429 1877.5L163.429 1876.5L163.929 1876.5ZM169.929 1876.5L171.929 1876.5L172.429 1876.5L172.429 1877.5L171.929 1877.5L169.429 1877.5L169.429 1876.5L169.929 1876.5ZM175.929 1876.5L177.929 1876.5L178.429 1876.5L178.429 1877.5L177.929 1877.5L175.429 1877.5L175.429 1876.5L175.929 1876.5ZM181.929 1876.5L183.207 1876.5L184.01 1877.3L184.364 1877.66L183.657 1878.36L183.303 1878.01L182.646 1877.35L183 1877L183 1877.5L181.429 1877.5L181.429 1876.5L181.929 1876.5ZM186.839 1880.13L188.253 1881.55L188.607 1881.9L187.899 1882.61L187.546 1882.25L185.778 1880.49L186.485 1879.78L186.839 1880.13ZM188.5 1885.86L188.5 1887.86L188.5 1888.36L187.5 1888.36L187.5 1887.86L187.5 1885.36L188.5 1885.36L188.5 1885.86ZM188.5 1891.86L188.5 1892.21L187.04 1893.67L186.686 1894.02L185.979 1893.31L186.333 1892.96L187.646 1891.65L188 1892L187.5 1892L187.5 1891.36L188.5 1891.36L188.5 1891.86ZM184.211 1896.5L183.207 1897.5L182.213 1897.5L181.713 1897.5L181.713 1896.5L182.213 1896.5L183 1896.5L183 1897L182.646 1896.65L183.858 1895.44L184.565 1896.14L184.211 1896.5ZM178.213 1897.5L176.213 1897.5L175.713 1897.5L175.713 1896.5L176.213 1896.5L178.713 1896.5L178.713 1897.5L178.213 1897.5ZM172.213 1897.5L170.213 1897.5L169.713 1897.5L169.713 1896.5L170.213 1896.5L172.713 1896.5L172.713 1897.5L172.213 1897.5ZM166.213 1897.5L164.213 1897.5L163.713 1897.5L163.713 1896.5L164.213 1896.5L166.713 1896.5L166.713 1897.5L166.213 1897.5ZM160.213 1897.5L158.793 1897.5L158.09 1896.8L157.737 1896.44L158.444 1895.74L158.797 1896.09L159.354 1896.65L159 1897L159 1896.5L160.713 1896.5L160.713 1897.5L160.213 1897.5ZM155.262 1893.97L153.847 1892.55L153.494 1892.2L154.201 1891.49L154.555 1891.85L156.322 1893.62L155.615 1894.32L155.262 1893.97ZM153.5 1888.28L153.5 1886.28L153.5 1885.78L154.5 1885.78L154.5 1886.28L154.5 1888.78L153.5 1888.78L153.5 1888.28ZM153.5 1882.28L153.5 1881.79L155.414 1879.88L156.121 1880.59L154.354 1882.35L154 1882L154.5 1882L154.5 1882.78L153.5 1882.78L153.5 1882.28Z"/>
		<path fill="white" d="M151 1879L156 1874L181 1874L186 1879L186 1890L181 1895L156 1895L151 1890L151 1879Z"/>
		<path fill="none" stroke="black" stroke-width="1" stroke-linecap="square" stroke-miterlimit="4" transform="translate(0.5 0.5)" d="M170 1895L176 1901L179 1898"/>
		<path fill="none" stroke="black" stroke-width="1" stroke-linecap="square" stroke-miterlimit="4" transform="translate(0.5 0.5)" d="M156 1884L161 1884L165 1880"/>
		<path fill="none" stroke="black" stroke-width="1" stroke-linecap="square" stroke-miterlimit="4" transform="translate(0.5 0.5)" d="M171 1884L179 1884"/>
		<path fill="none" stroke="black" stroke-width="1" stroke-linecap="square" stroke-miterlimit="4" transform="translate(0.5 0.5)" d="M171 1880L175 1880L175 1888L171 1888"/>
		<rect x="167" y="1879" width="3" height="3"/>
		<rect x="167" y="1883" width="3" height="3"/>
		<rect x="167" y="1887" width="3" height="3"/>
		<text font-size="12" font-family="Segoe UI" x="155.76562, " y="1914, ">
				0
		</text>
		<text font-size="12" font-family="Symbol" x="170.72266, " y="1913, ">
				
		</text>
		<text font-size="12" font-family="Segoe UI" x="163.89844, 166.5, " y="1914, ">
				..
		</text>
		<path transform="translate(0.5 0.5)" d="M154.889 1874.4L155.793 1873.5L156.929 1873.5L157.429 1873.5L157.429 1874.5L156.929 1874.5L156 1874.5L156 1874L156.354 1874.35L155.243 1875.46L154.536 1874.76L154.889 1874.4ZM160.929 1873.5L162.929 1873.5L163.429 1873.5L163.429 1874.5L162.929 1874.5L160.429 1874.5L160.429 1873.5L160.929 1873.5ZM166.929 1873.5L168.929 1873.5L169.429 1873.5L169.429 1874.5L168.929 1874.5L166.429 1874.5L166.429 1873.5L166.929 1873.5ZM172.929 1873.5L174.929 1873.5L175.429 1873.5L175.429 1874.5L174.929 1874.5L172.429 1874.5L172.429 1873.5L172.929 1873.5ZM178.929 1873.5L180.207 1873.5L181.01 1874.3L181.364 1874.66L180.657 1875.36L180.303 1875.01L179.646 1874.35L180 1874L180 1874.5L178.429 1874.5L178.429 1873.5L178.929 1873.5ZM183.839 1877.13L185.253 1878.55L185.607 1878.9L184.899 1879.61L184.546 1879.25L182.778 1877.49L183.485 1876.78L183.839 1877.13ZM185.5 1882.86L185.5 1884.86L185.5 1885.36L184.5 1885.36L184.5 1884.86L184.5 1882.36L185.5 1882.36L185.5 1882.86ZM185.5 1888.86L185.5 1889.21L184.04 1890.67L183.686 1891.02L182.979 1890.31L183.333 1889.96L184.646 1888.65L185 1889L184.5 1889L184.5 1888.36L185.5 1888.36L185.5 1888.86ZM181.211 1893.5L180.207 1894.5L179.213 1894.5L178.713 1894.5L178.713 1893.5L179.213 1893.5L180 1893.5L180 1894L179.646 1893.65L180.858 1892.44L181.565 1893.14L181.211 1893.5ZM175.213 1894.5L173.213 1894.5L172.713 1894.5L172.713 1893.5L173.213 1893.5L175.713 1893.5L175.713 1894.5L175.213 1894.5ZM169.213 1894.5L167.213 1894.5L166.713 1894.5L166.713 1893.5L167.213 1893.5L169.713 1893.5L169.713 1894.5L169.213 1894.5ZM163.213 1894.5L161.213 1894.5L160.713 1894.5L160.713 1893.5L161.213 1893.5L163.713 1893.5L163.713 1894.5L163.213 1894.5ZM157.213 1894.5L155.793 1894.5L155.09 1893.8L154.737 1893.44L155.444 1892.74L155.797 1893.09L156.354 1893.65L156 1894L156 1893.5L157.713 1893.5L157.713 1894.5L157.213 1894.5ZM152.262 1890.97L150.847 1889.55L150.494 1889.2L151.201 1888.49L151.555 1888.85L153.322 1890.62L152.615 1891.32L152.262 1890.97ZM150.5 1885.28L150.5 1883.28L150.5 1882.78L151.5 1882.78L151.5 1883.28L151.5 1885.78L150.5 1885.78L150.5 1885.28ZM150.5 1879.28L150.5 1878.79L152.414 1876.88L153.121 1877.59L151.354 1879.35L151 1879L151.5 1879L151.5 1879.78L150.5 1879.78L150.5 1879.28Z"/>
		<rect fill="silver" x="224" y="1740" width="52" height="21"/>
		<rect fill="white" x="220" y="1736" width="52" height="21"/>
		<rect fill="white" x="225" y="1763" width="109" height="24"/>
		<text fill="gray" font-size="9" font-family="Segoe UI" x="225, 230.80518, 235.89844, 238.36377, 242.94287, 248.03613, 252.19336, 257.28662, 262.56006, 265.68896, 268.1543, 270.97119, 276.24463, 279.37354, 281.83887, 284.01855, 289.11182, 291.2915, 293.47119, 298.56445, 303.271, 305.73633, 307.91602, 310.0957, 315.18896, 319.6626, 321.84229, 326.93555, " y="1773, ">
				An anchor for inline linking
		</text>
		<text fill="gray" font-size="9" font-family="Segoe UI" x="225, 227.17969, 229.35938, 233.83301, 238.53955, 241.00488, 243.18457, 248.27783, 250.74316, 257.13281, 261.84814, 269.92969, " y="1785, ">
				like in HTML
		</text>
		<rect fill="white" x="229" y="1738" width="31" height="16"/>
		<text font-size="12" font-weight="600" font-family="Segoe UI" x="229, " y="1751, ">
				a
		</text>
		<path fill="none" stroke="black" stroke-width="1" stroke-linecap="square" stroke-miterlimit="4" transform="translate(0.5 0.5)" d="M222 1738L227 1738"/>
		<path fill="none" stroke="black" stroke-width="1" stroke-linecap="square" stroke-miterlimit="4" transform="translate(0.5 0.5)" d="M222 1740L226 1740"/>
		<path fill="none" stroke="black" stroke-width="1" stroke-linecap="square" stroke-miterlimit="4" transform="translate(0.5 0.5)" d="M222 1742L226 1742"/>
		<path fill="none" stroke="black" stroke-width="2" stroke-miterlimit="4" transform="translate(0.5 0.5)" d="M222 1754L226 1750"/>
		<path fill="none" stroke="black" stroke-width="1" stroke-linecap="square" stroke-miterlimit="4" transform="translate(0.5 0.5)" d="M223 1750L226 1750L226 1753"/>
		<rect fill="none" stroke="black" stroke-width="1" stroke-linecap="square" stroke-miterlimit="4" transform="translate(0.5 0.5)" x="220" y="1736" width="51" height="20"/>
		<rect x="266" y="1741" width="11" height="11"/>
		<rect fill="white" x="267" y="1742" width="9" height="9"/>
		<rect x="268" y="1746" width="7" height="1"/>
		<rect x="271" y="1743" width="1" height="7"/>
		<rect fill="silver" x="224" y="1803" width="52" height="21"/>
		<rect fill="white" x="220" y="1799" width="52" height="21"/>
		<rect fill="white" x="225" y="1826" width="113" height="36"/>
		<text fill="gray" font-size="9" font-family="Segoe UI" x="225, 230.80518, 233.27051, 238.57031, 243.27686, 248.37012, 253.07666, 256.20557, 258.38525, 262.54248, 265.00781, 272.75977, 277.46631, 281.62354, 286.7168, 291.2959, 296.38916, 298.56885, 302.3877, 310.13965, 312.60498, 315.42188, 320.69531, " y="1836, ">
				A generic mechanism for
		</text>
		<text fill="gray" font-size="9" font-family="Segoe UI" x="225, 229.5791, 234.87891, 240.17871, 242.3584, 247.45166, 252.75146, 255.2168, 257.39648, 262.48975, 264.66943, 266.84912, 271.94238, 276.64893, 279.11426, 281.29395, 286.38721, 289.2041, 294.47754, 297.60645, 305.3584, 309.9375, 312.9873, 315.16699, 320.44043, 325.53369, 327.99902, 331.04883, " y="1848, ">
				adding inline information to
		</text>
		<text fill="gray" font-size="9" font-family="Segoe UI" x="225, 230.29102, 234.87012, 237.99902, 241.04883, 244.86768, 247.33301, 252.60645, 255.42334, 257.88867, 260.93848, 266.03174, 270.73828, 273.20361, 276.25342, 280.95996, 285.09082, 288.14062, 293.23389, 297.81299, 299.99268, 302.45801, 306.61523, 311.88867, 316.98193, 320.03174, 324.73828, 329.83154, " y="1860, ">
				parts of the textual content
		</text>
		<rect fill="white" x="229" y="1801" width="31" height="16"/>
		<text font-size="12" font-weight="600" font-family="Segoe UI" x="229, 234.2793, 241.60352, 248.06055, " y="1814, ">
				span
		</text>
		<path fill="none" stroke="black" stroke-width="1" stroke-linecap="square" stroke-miterlimit="4" transform="translate(0.5 0.5)" d="M222 1801L227 1801"/>
		<path fill="none" stroke="black" stroke-width="1" stroke-linecap="square" stroke-miterlimit="4" transform="translate(0.5 0.5)" d="M222 1803L226 1803"/>
		<path fill="none" stroke="black" stroke-width="1" stroke-linecap="square" stroke-miterlimit="4" transform="translate(0.5 0.5)" d="M222 1805L226 1805"/>
		<path fill="none" stroke="black" stroke-width="2" stroke-miterlimit="4" transform="translate(0.5 0.5)" d="M222 1817L226 1813"/>
		<path fill="none" stroke="black" stroke-width="1" stroke-linecap="square" stroke-miterlimit="4" transform="translate(0.5 0.5)" d="M223 1813L226 1813L226 1816"/>
		<rect fill="none" stroke="black" stroke-width="1" stroke-linecap="square" stroke-miterlimit="4" transform="translate(0.5 0.5)" x="220" y="1799" width="51" height="20"/>
		<rect x="266" y="1804" width="11" height="11"/>
		<rect fill="white" x="267" y="1805" width="9" height="9"/>
		<rect x="268" y="1809" width="7" height="1"/>
		<rect x="271" y="1806" width="1" height="7"/>
		<rect fill="silver" x="224" y="1878" width="52" height="21"/>
		<rect fill="white" x="220" y="1874" width="52" height="21"/>
		<rect fill="white" x="225" y="1901" width="119" height="36"/>
		<text fill="gray" font-size="9" font-family="Segoe UI" x="225, 229.78125, 231.96094, 239.71289, 245.00391, 247.18359, 251.89014, 254.35547, 262.76221, 267.61377, 273.18604, 275.65137, 281.03467, 286.12793, 291.41895, 295.77393, 298.23926, 304.04443, 309.1377, 314.23096, 319.50439, 322.5542, 327.1333, 330.18311, 332.36279, 337.63623, " y="1911, ">
				Simple W3C Ruby Annotation
		</text>
		<text fill="gray" font-size="9" font-family="Segoe UI" x="225, 228.59912, 231.06445, 234.8833, 239.58984, 244.29639, 246.76172, 251.85498, 254.90479, 257.95459, 263.24561, 265.19678, 268.70361, 272.21045, 278.71436, 285.21826, 291.72217, 293.67334, 300.17725, 305.02881, 306.97998, 312.25342, 315.38232, 320.68213, 324.18896, 328.9043, 334.2876, " y="1923, ">
				- see http://www.w3.org/TR/
		</text>
		<text fill="gray" font-size="9" font-family="Segoe UI" x="225, 228.12891, 233.22217, 238.51318, 242.86816, 246.375, 251.69238, 255.51123, 257.69092, 265.44287, 270.73389, 272.91357, 277.62012, 281.21924, 284.34814, 289.44141, 294.73242, 299.0874, " y="1935, ">
				ruby/#simple-ruby1
		</text>
		<rect fill="white" x="229" y="1876" width="31" height="16"/>
		<text font-size="12" font-weight="600" font-family="Segoe UI" x="229, 233.81055, 241.07031, 248.51172, " y="1889, ">
				ruby
		</text>
		<path fill="none" stroke="black" stroke-width="2" stroke-miterlimit="4" transform="translate(0.5 0.5)" d="M222 1892L226 1888"/>
		<path fill="none" stroke="black" stroke-width="1" stroke-linecap="square" stroke-miterlimit="4" transform="translate(0.5 0.5)" d="M223 1888L226 1888L226 1891"/>
		<rect fill="none" stroke="black" stroke-width="1" stroke-linecap="square" stroke-miterlimit="4" transform="translate(0.5 0.5)" x="220" y="1874" width="51" height="20"/>
		<rect x="266" y="1879" width="11" height="11"/>
		<rect fill="white" x="267" y="1880" width="9" height="9"/>
		<rect x="268" y="1884" width="7" height="1"/>
		<rect x="271" y="1881" width="1" height="7"/>
		<rect fill="silver" x="224" y="1953" width="54" height="21"/>
		<rect fill="white" x="220" y="1949" width="54" height="21"/>
		<rect fill="white" x="225" y="1976" width="108" height="24"/>
		<text fill="gray" font-size="9" font-family="Segoe UI" x="225, 230.80518, 235.89844, 238.36377, 240.54346, 245.63672, 247.81641, 249.99609, 255.08936, 259.7959, 262.26123, 270.01318, 274.59229, 277.72119, 282.19482, 287.28809, 292.5791, 295.04443, 298.09424, 302.67334, 307.97314, 310.43848, 313.48828, 318.76172, 321.22705, 326.51807, " y="1986, ">
				An inline markup tag to be
		</text>
		<text fill="gray" font-size="9" font-family="Segoe UI" x="225, 230.09326, 233.91211, 238.61865, 243.91846, 246.38379, 252.8877, 255.06738, 258.11719, 263.21045, 265.67578, 270.25488, 275.34814, 279.70312, 282.16846, 286.32568, 291.59912, 296.69238, 300.84961, 305.55615, 310.84717, " y="1998, ">
				used with any concept
		</text>
		<rect fill="white" x="229" y="1951" width="33" height="16"/>
		<text font-size="12" font-weight="600" font-family="Segoe UI" x="229, 232.41016, 239.66992, 243.08008, 246.49023, 253.75, " y="1964, ">
				inline
		</text>
		<path fill="none" stroke="black" stroke-width="1" stroke-linecap="square" stroke-miterlimit="4" transform="translate(0.5 0.5)" d="M222 1951L227 1951"/>
		<path fill="none" stroke="black" stroke-width="1" stroke-linecap="square" stroke-miterlimit="4" transform="translate(0.5 0.5)" d="M222 1953L226 1953"/>
		<path fill="none" stroke="black" stroke-width="1" stroke-linecap="square" stroke-miterlimit="4" transform="translate(0.5 0.5)" d="M222 1955L226 1955"/>
		<path fill="none" stroke="black" stroke-width="2" stroke-miterlimit="4" transform="translate(0.5 0.5)" d="M222 1967L226 1963"/>
		<path fill="none" stroke="black" stroke-width="1" stroke-linecap="square" stroke-miterlimit="4" transform="translate(0.5 0.5)" d="M223 1963L226 1963L226 1966"/>
		<rect fill="none" stroke="black" stroke-width="1" stroke-linecap="square" stroke-miterlimit="4" transform="translate(0.5 0.5)" x="220" y="1949" width="53" height="20"/>
		<rect x="268" y="1954" width="11" height="11"/>
		<rect fill="white" x="269" y="1955" width="9" height="9"/>
		<rect x="270" y="1959" width="7" height="1"/>
		<rect x="273" y="1956" width="1" height="7"/>
		<path fill="silver" d="M224 2021L229 2016L297 2016L302 2021L302 2032L297 2037L229 2037L224 2032L224 2021Z"/>
		<path fill="white" d="M220 2017L225 2012L293 2012L298 2017L298 2028L293 2033L225 2033L220 2028L220 2017Z"/>
		<rect fill="white" x="225" y="2039" width="120" height="36"/>
		<text fill="gray" font-size="9" font-family="Segoe UI" x="225, 229.55273, 233.68359, 236.7334, 241.43994, 246.5332, 250.35205, 252.53174, 257.80518, 262.89844, 265.36377, 270.65479, 275.92822, 278.10791, 283.20117, 286.25098, 288.71631, 291.5332, 296.80664, 299.93555, 302.40088, 307.69189, 310.8208, 316.09424, 320.40527, 322.58496, 327.88477, 332.59131, 335.72021, " y="2049, ">
				Extension point for provider-
		</text>
		<text fill="gray" font-size="9" font-family="Segoe UI" x="225, 230.2998, 235.00635, 237.82324, 240.00293, 245.09619, 249.80273, 255.10254, 257.56787, 262.85889, 265.98779, 271.26123, 276.55225, 281.25879, 284.3877, 287.4375, 289.61719, 294.32373, 298.14258, 300.60791, 303.4248, 306.55371, 311.82715, 319.5791, 322.04443, 327.31787, 330.36768, 335.46094, 340.16748, " y="2061, ">
				defined properties from other
		</text>
		<text fill="gray" font-size="9" font-family="Segoe UI" x="225, 230.09326, 234.67236, 242.42432, 247.13086, 250.94971, 256.24072, 260.81982, 264.97705, 269.68359, " y="2073, ">
				namespaces
		</text>
		<rect fill="white" x="247" y="2014" width="46" height="16"/>
		<text font-size="12" font-weight="600" font-family="Segoe UI" x="247, 254.10742, 261.21484, 268.55078, 273.2207, 280.44531, 286.9375, " y="2027, ">
				##other
		</text>
		<rect fill="white" x="225" y="2014" width="20" height="16"/>
		<text fill="gray" font-size="12" font-family="Segoe UI" x="225, 231.10547, 237.89648, " y="2027, ">
				any
		</text>
		<path fill="none" stroke="black" stroke-width="1" stroke-linecap="square" stroke-miterlimit="4" transform="translate(0.5 0.5)" d="M220 2017L225 2012L292 2012L297 2017L297 2027L292 2032L225 2032L220 2027L220 2017Z"/>
		<rect x="185" y="1879" width="11" height="11"/>
		<rect fill="white" x="186" y="1880" width="9" height="9"/>
		<rect x="187" y="1884" width="7" height="1"/>
		<rect x="77" y="1368" width="11" height="11"/>
		<rect fill="white" x="78" y="1369" width="9" height="9"/>
		<rect x="79" y="1373" width="7" height="1"/>
	</g>
</svg>
