<?xml version="1.0" encoding="utf-8" ?>
<svg xmlns="http://www.w3.org/2000/svg" xmlns:xlink="http://www.w3.org/1999/xlink" width="375" height="1250">
	<clipPath id="cl_3c1">
		<rect x="-10" y="-5" width="375" height="1250"/>
	</clipPath>
	<g clip-path="url(#cl_3c1)">
		<path fill="none" stroke="black" stroke-width="1" stroke-linecap="square" stroke-miterlimit="4" transform="translate(0.5 0.5)" d="M114 620L140 620"/>
		<rect fill="silver" x="4" y="614" width="109" height="21"/>
		<rect fill="white" y="610" width="109" height="21"/>
		<rect fill="white" x="5" y="637" width="121" height="60"/>
		<text fill="gray" font-size="9" font-family="Segoe UI" x="5, 10.805176, 13.270508, 19.453613, 24.836914, 27.231934, 29.697266, 36.201172, 41.294434, 43.474121, 47.631348, 52.724609, 55.189941, 57.369629, 62.669434, 67.375977, 72.469238, 75.519043, 77.69873, 80.515625, 82.695312, 87.401855, 91.220703, 93.686035, 98.265137, 103.3584, 108.63184, 111.68164, 116.7749, 121.48145, " y="647, ">
				A URI which identifies another
		</text>
		<text fill="gray" font-size="9" font-family="Segoe UI" x="5, 8.8188477, 12.976074, 18.069336, 22.775879, 30.527832, 35.234375, 37.699707, 44.203613, 46.383301, 49.433105, 54.526367, 56.991699, 61.148926, 66.422363, 71.515625, 75.672852, 80.379395, 85.67041, 88.720215, 92.539062, 95.004395, 98.054199, 103.14746, 107.72656, " y="659, ">
				scheme with concepts that
		</text>
		<text fill="gray" font-size="9" font-family="Segoe UI" x="5, 10.093262, 13.912109, 18.618652, 21.083984, 24.133789, 29.227051, 33.933594, 36.398926, 40.217773, 44.796875, 52.548828, 57.255371, 59.720703, 63.87793, 69.151367, 74.451172, 79.157715, 82.976562, 85.441895, 90.020996, 95.114258, 100.41406, 102.87939, 107.4585, 110.5874, " y="671, ">
				use the same codes and are
		</text>
		<text fill="gray" font-size="9" font-family="Segoe UI" x="5, 8.8188477, 13.525391, 21.277344, 25.856445, 30.949707, 33.999512, 36.179199, 40.336426, 44.915527, 47.095215, 49.274902, 53.629883, 56.095215, 60.801758, 66.101562, 71.194824, 73.374512, 77.685547, 82.264648, 84.444336, 89.150879, 94.244141, 97.293945, 99.759277, 102.80908, 108.08252, 110.54785, 113.59766, 118.69092, " y="683, ">
				semantically equivalent to the
		</text>
		<text fill="gray" font-size="9" font-family="Segoe UI" x="5, 9.1572266, 14.430664, 19.523926, 23.681152, 28.387695, 33.678711, 36.728516, 40.547363, 43.012695, 48.286133, 51.103027, 53.568359, 56.618164, 61.711426, 63.891113, 67.709961, 70.175293, 73.994141, 78.151367, 83.244629, 87.951172, 95.703125, " y="695, ">
				concepts of this scheme
		</text>
		<rect fill="white" x="9" y="612" width="88" height="16"/>
		<text font-size="12" font-weight="600" font-family="Segoe UI" x="9, 14.279297, 20.736328, 31.728516, 38.220703, 46.658203, 51.9375, 58.664062, 64.423828, 71.648438, 78.140625, 89.132812, " y="625, ">
				sameAsScheme
		</text>
		<path fill="none" stroke="black" stroke-width="1" stroke-linecap="square" stroke-miterlimit="4" transform="translate(0.5 0.5)" d="M2 612L7 612"/>
		<path fill="none" stroke="black" stroke-width="1" stroke-linecap="square" stroke-miterlimit="4" transform="translate(0.5 0.5)" d="M2 614L6 614"/>
		<path fill="none" stroke="black" stroke-width="1" stroke-linecap="square" stroke-miterlimit="4" transform="translate(0.5 0.5)" d="M2 616L6 616"/>
		<rect fill="none" stroke="black" stroke-width="1" stroke-linecap="square" stroke-miterlimit="4" transform="translate(0.5 0.5)" y="610" width="108" height="20"/>
		<path fill="white" d="M218 19L218 0L141 0L141 19L141 1239L354 1239L354 19L218 19Z"/>
		<rect fill="white" x="161" y="2" width="51" height="16"/>
		<text font-size="12" font-style="italic" font-family="Segoe UI" x="161, 167.50391, 171.38281, 175.26172, 179.5332, 182.63867, 189.14258, 195.83984, 199.73047, 205.57227, " y="15, ">
				attributes
		</text>
		<path fill="none" stroke="black" stroke-width="1" stroke-linecap="square" stroke-miterlimit="4" transform="translate(0.5 0.5)" d="M218 19L218 0L141 0L141 19L141 1239L354 1239L354 19L218 19Z"/>
		<path fill="white" d="M346 47L346 28L155 28L155 47L155 1150L346 1150L346 47Z"/>
		<rect fill="white" x="160" y="1153" width="179" height="48"/>
		<text fill="gray" font-size="9" font-family="Segoe UI" x="160, 165.80518, 168.27051, 173.57031, 176.69922, 181.97266, 187.06592, 192.35693, 194.82227, 200.0957, 202.9126, 205.37793, 209.95703, 213.00684, 216.05664, 219.18555, 221.36523, 226.65625, 231.74951, 234.79932, 239.50586, 243.32471, 245.79004, 248.60693, 253.88037, 257.00928, 259.47461, 264.05371, 266.2334, 268.41309, 270.87842, 275.58496, 277.76465, 282.47119, 290.22314, 294.92969, 300.02295, 303.07275, 306.8916, 309.35693, 314.63037, 317.44727, 319.9126, 324.4917, 326.95703, 333.13135, " y="1163, ">
				A group of attributes for all elements of a G2
		</text>
		<text fill="gray" font-size="9" font-family="Segoe UI" x="160, 162.39502, 165.44482, 170.15137, 177.90332, 180.36865, 185.0752, 189.20605, 193.36328, 198.06982, 203.36084, 206.41064, 208.87598, 211.05566, 214.10547, 217.92432, 220.38965, 223.51855, 228.79199, 234.06543, 237.11523, 239.58057, 244.28711, 246.4668, 251.17334, 258.92529, 263.63184, 268.7251, 271.7749, 273.72607, 276.19141, 279.24121, 284.33447, 289.04102, 291.50635, 293.68604, 296.73584, 301.44238, 309.19434, 317.27588, 321.98242, 325.03223, " y="1175, ">
				Item except its root element, the itemMeta
		</text>
		<text fill="gray" font-size="9" font-family="Segoe UI" x="160, 164.70654, 166.88623, 171.59277, 179.34473, 184.05127, 189.14453, 192.19434, 194.65967, 199.23877, 204.33203, 209.63184, 212.09717, 216.67627, 218.85596, 221.03564, 223.50098, 228.77441, 231.59131, 234.05664, 236.23633, 239.28613, 243.10498, 245.57031, 249.72754, 254.8208, 257.00049, 259.18018, 264.47998, 267.60889, 272.31543, 277.40869, 279.87402, 286.37793, 291.47119, 293.65088, 297.80811, 302.90137, 305.3667, 309.9458, 313.07471, " y="1187, ">
				element and all of its children which are
		</text>
		<text fill="gray" font-size="9" font-family="Segoe UI" x="160, 167.75195, 172.33105, 177.42432, 182.72412, 187.30322, 190.35303, 195.62646, 198.75537, 203.11035, " y="1199, ">
				mandatory.
		</text>
		<rect fill="white" x="197" y="30" width="143" height="16"/>
		<text font-size="12" font-weight="600" font-family="Segoe UI" x="197, 202.75977, 210.0957, 221.08789, 232.08008, 239.41602, 246.67578, 253.68945, 261.02539, 270.53516, 277.02734, 281.80273, 290, 294.66992, 299.33984, 304.16211, 307.57227, 315.01367, 322.27344, 326.89648, 333.38867, " y="43, ">
				commonPowerAttributes
		</text>
		<rect fill="white" x="175" y="30" width="20" height="16"/>
		<text fill="gray" font-size="12" font-family="Segoe UI" x="175, 182.06641, 186.23828, " y="43, ">
				grp
		</text>
		<path fill="none" stroke="gray" stroke-width="1" stroke-linecap="square" stroke-miterlimit="4" transform="translate(0.5 0.5)" d="M155 47L155 1150L346 1150L346 47L346 47"/>
		<path fill="none" stroke="black" stroke-width="1" stroke-linecap="square" stroke-miterlimit="4" transform="translate(0.5 0.5)" d="M346 47L346 28L155 28L155 47"/>
		<rect x="160" y="33" width="11" height="11"/>
		<rect fill="white" x="161" y="34" width="9" height="9"/>
		<rect x="162" y="38" width="7" height="1"/>
		<rect fill="silver" x="167" y="61" width="52" height="21"/>
		<rect fill="white" x="163" y="57" width="52" height="21"/>
		<rect fill="white" x="168" y="84" width="101" height="24"/>
		<text fill="gray" font-size="9" font-family="Segoe UI" x="168, 172.71533, 177.80859, 182.51514, 184.98047, 187.16016, 192.43359, 196.59082, 201.16992, 203.34961, 205.81494, 207.99463, 213.29443, 218.00098, 223.09424, 226.14404, 228.32373, 231.14062, 233.32031, 238.02686, 241.15576, 243.62109, 248.89453, 251.71143, 254.17676, 257.22656, 262.31982, " y="94, ">
				The local identifier of the
		</text>
		<text fill="gray" font-size="9" font-family="Segoe UI" x="168, 173.29102, 176.41992, 181.69336, 186.98438, 191.69092, 194.81982, 197.86963, 202.22461, " y="106, ">
				property.
		</text>
		<rect fill="white" x="172" y="59" width="36" height="16"/>
		<text font-size="12" font-weight="600" font-family="Segoe UI" x="172, 175.41016, " y="72, ">
				id
		</text>
		<rect fill="none" stroke="black" stroke-width="1" stroke-linecap="square" stroke-miterlimit="4" transform="translate(0.5 0.5)" x="163" y="57" width="51" height="20"/>
		<rect fill="silver" x="167" y="119" width="58" height="21"/>
		<rect fill="white" x="163" y="115" width="58" height="21"/>
		<rect fill="white" x="168" y="142" width="121" height="120"/>
		<text fill="gray" font-size="9" font-family="Segoe UI" x="168, 170.39502, 173.21191, 175.67725, 178.72705, 183.82031, 188.52686, 190.99219, 196.2832, 199.41211, 204.68555, 209.97656, 214.68311, 217.81201, 220.86182, 225.2168, 227.68213, 231.99316, 236.57227, 238.75195, 243.84521, 248.55176, 251.01709, 253.19678, 257.01562, 259.48096, 264.57422, 269.84766, " y="152, ">
				If the property value is not
		</text>
		<text fill="gray" font-size="9" font-family="Segoe UI" x="168, 173.2998, 178.00635, 180.82324, 183.00293, 188.09619, 192.80273, 198.10254, 200.05371, 202.51904, 206.33789, 211.62891, 216.33545, 220.49268, 222.67236, 225.48926, 227.66895, 232.37549, 236.19434, 238.65967, 245.16357, 250.25684, 252.43652, 256.59375, 261.68701, 264.15234, 268.85889, 273.95215, 277.00195, 279.18164, 282.23145, " y="164, ">
				defined, specifies which entity
		</text>
		<text fill="gray" font-size="9" font-family="Segoe UI" x="168, 170.71582, 176.00684, 180.71338, 183.84229, 187.66113, 192.93457, 198.02783, 199.979, 202.44434, 207.71777, 210.84668, 216.14648, 220.72559, 225.81885, 227.99854, 231.81738, 236.39648, 239.44629, 241.62598, 246.89941, 251.99268, 254.45801, 259.73145, " y="176, ">
				(person, organisation or
		</text>
		<text fill="gray" font-size="9" font-family="Segoe UI" x="168, 171.81885, 176.17383, 179.99268, 183.04248, 187.74902, 195.50098, 198.2168, 200.68213, 207.18604, 209.36572, 211.54541, 213.7251, 216.19043, 220.89697, 226.19678, 228.37646, 231.42627, 233.8916, 236.94141, 242.03467, 246.74121, 249.20654, 254.49756, 257.62646, 262.8999, 268.19092, 272.89746, 276.02637, 279.07617, " y="188, ">
				system) will edit the property
		</text>
		<text fill="gray" font-size="9" font-family="Segoe UI" x="168, 172.31104, 176.89014, 179.06982, 184.16309, 188.86963, 191.33496, 194.93408, 197.39941, 202.10596, 206.23682, 211.52783, 214.65674, 219.36328, 223.18213, 227.00098, 231.70752, 237.00732, 239.47266, 244.76367, 249.11865, 251.58398, 256.16309, 258.62842, 265.41357, 270.98584, 276.25928, 281.55908, 286.26562, " y="200, ">
				value - expressed by a QCode.
		</text>
		<text fill="gray" font-size="9" font-family="Segoe UI" x="168, 170.39502, 173.21191, 175.67725, 178.72705, 183.82031, 188.52686, 190.99219, 196.2832, 199.41211, 204.68555, 209.97656, 214.68311, 217.81201, 220.86182, 225.2168, 227.68213, 231.99316, 236.57227, 238.75195, 243.84521, 248.55176, 251.01709, 253.19678, " y="212, ">
				If the property value is
		</text>
		<text fill="gray" font-size="9" font-family="Segoe UI" x="168, 173.2998, 178.00635, 180.82324, 183.00293, 188.09619, 192.80273, 198.10254, 200.05371, 202.51904, 206.33789, 211.62891, 216.33545, 220.49268, 222.67236, 225.48926, 227.66895, 232.37549, 236.19434, 238.65967, 245.16357, 250.25684, 252.43652, 256.59375, 261.68701, 264.15234, 268.85889, 273.95215, 277.00195, 279.18164, 282.23145, " y="224, ">
				defined, specifies which entity
		</text>
		<text fill="gray" font-size="9" font-family="Segoe UI" x="168, 170.71582, 176.00684, 180.71338, 183.84229, 187.66113, 192.93457, 198.02783, 199.979, 202.44434, 207.71777, 210.84668, 216.14648, 220.72559, 225.81885, 227.99854, 231.81738, 236.39648, 239.44629, 241.62598, 246.89941, 251.99268, 254.45801, 259.73145, " y="236, ">
				(person, organisation or
		</text>
		<text fill="gray" font-size="9" font-family="Segoe UI" x="168, 171.81885, 176.17383, 179.99268, 183.04248, 187.74902, 195.50098, 198.2168, 200.68213, 205.77539, 210.35449, 214.17334, 216.63867, 221.34521, 226.64502, 228.82471, 231.87451, 236.58105, 241.88086, 244.34619, 247.396, 252.48926, " y="248, ">
				system) has edited the
		</text>
		<text fill="gray" font-size="9" font-family="Segoe UI" x="168, 173.29102, 176.41992, 181.69336, 186.98438, 191.69092, 194.81982, 197.86963, 202.22461, 204.68994, 209.00098, 213.58008, 215.75977, 220.85303, 225.55957, " y="260, ">
				property value.
		</text>
		<rect fill="white" x="172" y="117" width="42" height="16"/>
		<text font-size="12" font-weight="600" font-family="Segoe UI" x="172, 177.75977, 182.48828, 188.98047, 195.4375, 200.06055, 207.39648, " y="130, ">
				creator
		</text>
		<rect fill="none" stroke="black" stroke-width="1" stroke-linecap="square" stroke-miterlimit="4" transform="translate(0.5 0.5)" x="163" y="115" width="57" height="20"/>
		<rect fill="silver" x="167" y="273" width="73" height="21"/>
		<rect fill="white" x="163" y="269" width="73" height="21"/>
		<rect fill="white" x="168" y="296" width="120" height="108"/>
		<text fill="gray" font-size="9" font-family="Segoe UI" x="168, 170.39502, 173.21191, 175.67725, 178.72705, 183.82031, 188.52686, 190.99219, 196.2832, 199.41211, 204.68555, 209.97656, 214.68311, 217.81201, 220.86182, 225.2168, 227.68213, 231.99316, 236.57227, 238.75195, 243.84521, 248.55176, 251.01709, 253.19678, 257.01562, 259.48096, 264.57422, 269.84766, " y="306, ">
				If the property value is not
		</text>
		<text fill="gray" font-size="9" font-family="Segoe UI" x="168, 173.2998, 178.00635, 180.82324, 183.00293, 188.09619, 192.80273, 198.10254, 200.05371, 202.51904, 206.33789, 211.62891, 216.33545, 220.49268, 222.67236, 225.48926, 227.66895, 232.37549, 236.19434, 238.65967, 245.16357, 250.25684, 252.43652, 256.59375, 261.68701, 264.15234, 268.85889, 273.95215, 277.00195, 279.18164, 282.23145, " y="318, ">
				defined, specifies which entity
		</text>
		<text fill="gray" font-size="9" font-family="Segoe UI" x="168, 170.71582, 176.00684, 180.71338, 183.84229, 187.66113, 192.93457, 198.02783, 199.979, 202.44434, 207.71777, 210.84668, 216.14648, 220.72559, 225.81885, 227.99854, 231.81738, 236.39648, 239.44629, 241.62598, 246.89941, 251.99268, 254.45801, 259.73145, " y="330, ">
				(person, organisation or
		</text>
		<text fill="gray" font-size="9" font-family="Segoe UI" x="168, 171.81885, 176.17383, 179.99268, 183.04248, 187.74902, 195.50098, 198.2168, 200.68213, 207.18604, 209.36572, 211.54541, 213.7251, 216.19043, 220.89697, 226.19678, 228.37646, 231.42627, 233.8916, 236.94141, 242.03467, 246.74121, 249.20654, 254.49756, 257.62646, 262.8999, 268.19092, 272.89746, 276.02637, 279.07617, " y="342, ">
				system) will edit the property
		</text>
		<text fill="gray" font-size="9" font-family="Segoe UI" x="168, 171.59912, 174.06445, 178.771, 182.90186, 188.19287, 191.32178, 196.02832, 199.84717, 203.66602, 208.37256, 213.67236, 216.1377, 221.42871, 225.78369, 228.24902, 232.82812, 235.29346, 241.47656, 246.85986, 249.25488, 251.20605, 253.67139, 256.06641, 258.8833, 261.34863, 264.39844, 269.4917, " y="354, ">
				- expressed by a URI. If the
		</text>
		<text fill="gray" font-size="9" font-family="Segoe UI" x="168, 173.29102, 176.41992, 181.69336, 186.98438, 191.69092, 194.81982, 197.86963, 202.22461, 204.68994, 209.00098, 213.58008, 215.75977, 220.85303, 225.55957, 228.0249, 230.20459, 234.02344, 236.48877, 241.78857, 246.49512, 249.31201, 251.4917, 256.58496, 261.2915, 266.59131, " y="366, ">
				property value is defined,
		</text>
		<text fill="gray" font-size="9" font-family="Segoe UI" x="168, 171.81885, 177.10986, 181.81641, 185.97363, 188.15332, 190.97021, 193.1499, 197.85645, 201.67529, 204.14062, 210.64453, 215.73779, 217.91748, 222.07471, 227.16797, 229.6333, 234.33984, 239.43311, 242.48291, 244.6626, 247.7124, 252.06738, 254.53271, 257.24854, 262.53955, 267.24609, 270.375, 274.19385, 279.46729, 284.56055, " y="378, ">
				specifies which entity (person,
		</text>
		<text fill="gray" font-size="9" font-family="Segoe UI" x="168, 173.27344, 176.40234, 181.70215, 186.28125, 191.37451, 193.5542, 197.37305, 201.95215, 205.00195, 207.18164, 212.45508, 217.54834, 220.01367, 225.28711, 228.41602, 230.88135, 234.7002, 239.05518, 242.87402, 245.92383, 250.63037, 258.38232, 261.09814, 263.56348, 268.65674, 273.23584, " y="390, ">
				organisation or system) has
		</text>
		<text fill="gray" font-size="9" font-family="Segoe UI" x="168, 172.70654, 178.00635, 180.18604, 183.23584, 187.94238, 193.24219, 195.70752, 198.75732, 203.85059, 208.55713, 211.02246, 216.31348, 219.44238, 224.71582, 230.00684, 234.71338, 237.84229, 240.89209, 245.24707, " y="402, ">
				edited the property.
		</text>
		<rect fill="white" x="172" y="271" width="57" height="16"/>
		<text font-size="12" font-weight="600" font-family="Segoe UI" x="172, 177.75977, 182.48828, 188.98047, 195.4375, 200.06055, 207.39648, 212.20703, 219.4668, 224.28906, " y="284, ">
				creatoruri
		</text>
		<rect fill="none" stroke="black" stroke-width="1" stroke-linecap="square" stroke-miterlimit="4" transform="translate(0.5 0.5)" x="163" y="269" width="72" height="20"/>
		<rect fill="silver" x="167" y="415" width="69" height="21"/>
		<rect fill="white" x="163" y="411" width="69" height="21"/>
		<rect fill="white" x="168" y="438" width="119" height="72"/>
		<text fill="gray" font-size="9" font-family="Segoe UI" x="168, 172.71533, 177.80859, 182.51514, 184.98047, 190.28027, 194.85938, 197.90918, 202.61572, 205.08105, 207.79688, 212.37598, 217.46924, 222.76904, 224.72021, 227.18555, 232.45898, 237.75, 240.7998, 242.97949, 248.25293, 253.34619, 257.92529, 260.10498, 262.28467, 266.63965, 268.59082, 271.05615, 274.10596, 279.19922, " y="448, ">
				The date (and, optionally, the
		</text>
		<text fill="gray" font-size="9" font-family="Segoe UI" x="168, 171.0498, 173.22949, 180.98145, 185.68799, 188.40381, 190.86914, 197.37305, 202.46631, 207.17285, 212.26611, 214.73145, 217.78125, 222.87451, 227.58105, 230.04639, 235.3374, 238.46631, 243.73975, 249.03076, 253.7373, 256.86621, 259.91602, 264.271, 266.73633, 273.24023, 277.81934, " y="460, ">
				time) when the property was
		</text>
		<text fill="gray" font-size="9" font-family="Segoe UI" x="168, 170.17969, 174.75879, 178.57764, 181.62744, 184.09277, 191.84473, 197.11816, 202.41797, 204.59766, 207.41455, 209.59424, 214.30078, 219.60059, 221.55176, 224.01709, 228.73242, 233.82568, 238.53223, 240.99756, 243.17725, 248.27051, 250.4502, 253.5, 255.67969, 260.25879, 262.43848, 264.90381, 269.21484, 273.79395, 275.97363, 281.06689, " y="472, ">
				last modified. The initial value
		</text>
		<text fill="gray" font-size="9" font-family="Segoe UI" x="168, 170.17969, 173.99854, 176.46387, 179.51367, 184.60693, 189.31348, 191.77881, 197.07861, 201.65771, 204.70752, 209.41406, 211.87939, 214.59521, 219.17432, 224.26758, 229.56738, 231.51855, 233.98389, 239.25732, 244.54834, 247.59814, 249.77783, 255.05127, 260.14453, 264.72363, 266.90332, 269.08301, 273.43799, " y="484, ">
				is the date (and, optionally,
		</text>
		<text fill="gray" font-size="9" font-family="Segoe UI" x="168, 171.0498, 176.14307, 180.84961, 183.31494, 186.36475, 188.54443, 196.29639, 201.00293, 203.71875, 206.18408, 211.45752, 214.27441, 216.73975, 220.89697, 224.02588, 228.73242, 233.31152, 236.36133, 238.54102, 243.81445, 248.90771, 251.37305, 256.64648, 259.46338, 261.92871, 264.97852, 270.07178, " y="496, ">
				the time) of creation of the
		</text>
		<text fill="gray" font-size="9" font-family="Segoe UI" x="168, 173.29102, 176.41992, 181.69336, 186.98438, 191.69092, 194.81982, 197.86963, 202.22461, " y="508, ">
				property.
		</text>
		<rect fill="white" x="172" y="413" width="53" height="16"/>
		<text font-size="12" font-weight="600" font-family="Segoe UI" x="172, 182.99219, 190.32812, 197.75781, 201.16797, 205.76758, 209.17773, 215.66992, " y="426, ">
				modified
		</text>
		<rect fill="none" stroke="black" stroke-width="1" stroke-linecap="square" stroke-miterlimit="4" transform="translate(0.5 0.5)" x="163" y="411" width="68" height="20"/>
		<rect fill="silver" x="167" y="521" width="59" height="21"/>
		<rect fill="white" x="163" y="517" width="59" height="21"/>
		<rect fill="white" x="168" y="544" width="118" height="108"/>
		<text fill="gray" font-size="9" font-family="Segoe UI" x="168, 170.39502, 173.21191, 175.67725, 179.49609, 184.20264, 187.25244, 189.71777, 192.76758, 198.04102, 200.50635, 203.55615, 206.68506, 211.77832, 216.48486, 218.9502, 222, 227.09326, " y="554, ">
				If set to true the
		</text>
		<text fill="gray" font-size="9" font-family="Segoe UI" x="168, 172.15723, 177.43066, 180.55957, 183.68848, 188.39502, 192.21387, 197.50488, 202.77832, 207.87158, 213.17139, 215.35107, 220.44434, 225.74414, 228.20947, 233.50049, 236.62939, 241.90283, 247.19385, 251.90039, 255.0293, 258.0791, 262.43408, 264.89941, 271.40332, 275.98242, " y="566, ">
				corresponding property was
		</text>
		<text fill="gray" font-size="9" font-family="Segoe UI" x="168, 172.5791, 177.87891, 183.17871, 187.88525, 193.18506, 195.65039, 198.7002, 203.97363, 206.43896, 209.48877, 214.58203, 219.28857, 221.75391, 227.92822, 232.77979, 235.24512, 237.64014, 240.68994, 245.39648, 253.14844, 255.61377, 258.43066, 263.7041, 266.83301, 269.29834, " y="578, ">
				added to the G2 Item for a
		</text>
		<text fill="gray" font-size="9" font-family="Segoe UI" x="168, 171.81885, 177.10986, 181.81641, 185.97363, 188.15332, 190.97021, 193.1499, 197.30713, 199.77246, 203.92969, 209.02295, 212.8418, 215.8916, 221.16504, 228.91699, 233.62354, 236.75244, 239.21777, 244.49121, 247.62012, 250.08545, 255.38525, 258.51416, 263.7876, 268.88086, 274.17188, 276.63721, 281.91064, " y="590, ">
				specific customer or group of
		</text>
		<text fill="gray" font-size="9" font-family="Segoe UI" x="168, 172.15723, 177.25049, 181.06934, 184.11914, 189.39258, 197.14453, 201.85107, 204.97998, 208.79883, 211.26416, 216.5376, 221.63086, 223.81055, 228.16553, 230.1167, 232.58203, 237.29736, 242.39062, 247.09717, 249.5625, 254.8623, 259.56885, 262.38574, 266.96484, 272.05811, 274.23779, " y="602, ">
				customers only. The default
		</text>
		<text fill="gray" font-size="9" font-family="Segoe UI" x="168, 172.31104, 176.89014, 179.06982, 184.16309, 188.86963, 191.33496, 196.6084, 199.42529, 201.89062, 204.94043, 210.03369, 212.21338, 216.03223, 218.49756, 223.78857, 226.91748, 232.19092, 237.48193, 242.18848, 245.31738, 248.36719, 252.72217, 255.1875, 257.36719, 261.18604, 263.65137, 266.46826, 271.04736, 273.22705, 277.0459, " y="614, ">
				value of this property is false
		</text>
		<text fill="gray" font-size="9" font-family="Segoe UI" x="168, 174.50391, 179.59717, 181.77686, 185.93408, 191.02734, 193.49268, 198.07178, 203.36279, 208.65381, 210.8335, 213.01318, 217.71973, 221.53857, 224.00391, 230.50781, 235.60107, 240.30762, 245.40088, 247.86621, 250.91602, 256.00928, 258.18896, " y="626, ">
				which applies when this
		</text>
		<text fill="gray" font-size="9" font-family="Segoe UI" x="168, 172.5791, 175.62891, 178.67871, 181.80762, 183.9873, 189.27832, 194.37158, 197.42139, 202.12793, 204.59326, 206.77295, 210.5918, 213.05713, 218.15039, 223.42383, 226.47363, 228.93896, 234.03223, 237.85107, 242.55762, 247.85742, 250.32275, 256.82666, 259.00635, 262.05615, 267.14941, 269.61475, 272.66455, 277.75781, " y="638, ">
				attribute is not used with the
		</text>
		<text fill="gray" font-size="9" font-family="Segoe UI" x="168, 173.29102, 176.41992, 181.69336, 186.98438, 191.69092, 194.81982, 197.86963, 202.22461, " y="650, ">
				property.
		</text>
		<rect fill="white" x="172" y="519" width="43" height="16"/>
		<text font-size="12" font-weight="600" font-family="Segoe UI" x="172, 177.75977, 185.01953, 190.29883, 194.92188, 202.25781, " y="532, ">
				custom
		</text>
		<rect fill="none" stroke="black" stroke-width="1" stroke-linecap="square" stroke-miterlimit="4" transform="translate(0.5 0.5)" x="163" y="517" width="58" height="20"/>
		<rect fill="silver" x="167" y="663" width="52" height="21"/>
		<rect fill="white" x="163" y="659" width="52" height="21"/>
		<rect fill="white" x="168" y="686" width="118" height="48"/>
		<text fill="gray" font-size="9" font-family="Segoe UI" x="168, 170.39502, 175.48828, 180.78809, 182.96777, 187.125, 191.7041, 194.75391, 199.46045, 203.2793, 205.74463, 211.03564, 215.39062, 217.85596, 224.35986, 229.45312, 231.63281, 235.79004, 240.8833, 243.34863, 251.10059, 255.80713, 260.38623, 265.47949, 269.29834, 271.76367, 274.81348, 279.90674, " y="696, ">
				Indicates by which means the
		</text>
		<text fill="gray" font-size="9" font-family="Segoe UI" x="168, 172.31104, 176.89014, 179.06982, 184.16309, 188.86963, 191.33496, 197.83887, 202.41797, 206.23682, 208.70215, 213.40869, 217.53955, 220.58936, 223.71826, 228.29736, 232.45459, 235.50439, 240.21094, 245.51074, 247.97607, 250.79297, 253.92188, 259.19531, 266.94727, 269.4126, 272.4624, 277.55566, " y="708, ">
				value was extracted from the
		</text>
		<text fill="gray" font-size="9" font-family="Segoe UI" x="168, 172.15723, 177.43066, 182.52393, 185.57373, 190.28027, 195.37354, 198.42334, 200.88867, 204.48779, 206.95312, 211.65967, 215.79053, 221.08154, 224.21045, 228.91699, 232.73584, 236.55469, 241.26123, 246.56104, 249.02637, 254.31738, 258.67236, 261.1377, " y="720, ">
				content - expressed by a
		</text>
		<text fill="gray" font-size="9" font-family="Segoe UI" x="168, 174.78516, 180.35742, 185.63086, 190.93066, " y="732, ">
				QCode
		</text>
		<rect fill="white" x="172" y="661" width="36" height="16"/>
		<text font-size="12" font-weight="600" font-family="Segoe UI" x="172, 179.22461, 186.56055, " y="674, ">
				how
		</text>
		<rect fill="none" stroke="black" stroke-width="1" stroke-linecap="square" stroke-miterlimit="4" transform="translate(0.5 0.5)" x="163" y="659" width="51" height="20"/>
		<rect fill="silver" x="167" y="745" width="57" height="21"/>
		<rect fill="white" x="163" y="741" width="57" height="21"/>
		<rect fill="white" x="168" y="768" width="118" height="36"/>
		<text fill="gray" font-size="9" font-family="Segoe UI" x="168, 170.39502, 175.48828, 180.78809, 182.96777, 187.125, 191.7041, 194.75391, 199.46045, 203.2793, 205.74463, 211.03564, 215.39062, 217.85596, 224.35986, 229.45312, 231.63281, 235.79004, 240.8833, 243.34863, 251.10059, 255.80713, 260.38623, 265.47949, 269.29834, 271.76367, 274.81348, 279.90674, " y="778, ">
				Indicates by which means the
		</text>
		<text fill="gray" font-size="9" font-family="Segoe UI" x="168, 172.31104, 176.89014, 179.06982, 184.16309, 188.86963, 191.33496, 197.83887, 202.41797, 206.23682, 208.70215, 213.40869, 217.53955, 220.58936, 223.71826, 228.29736, 232.45459, 235.50439, 240.21094, 245.51074, 247.97607, 250.79297, 253.92188, 259.19531, 266.94727, 269.4126, 272.4624, 277.55566, " y="790, ">
				value was extracted from the
		</text>
		<text fill="gray" font-size="9" font-family="Segoe UI" x="168, 172.15723, 177.43066, 182.52393, 185.57373, 190.28027, 195.37354, 198.42334, 200.88867, 204.48779, 206.95312, 211.65967, 215.79053, 221.08154, 224.21045, 228.91699, 232.73584, 236.55469, 241.26123, 246.56104, 249.02637, 254.31738, 258.67236, 261.1377, 265.7168, 268.18213, 274.36523, 279.74854, " y="802, ">
				content - expressed by a URI
		</text>
		<rect fill="white" x="172" y="743" width="41" height="16"/>
		<text font-size="12" font-weight="600" font-family="Segoe UI" x="172, 179.22461, 186.56055, 196.12891, 203.38867, 208.21094, " y="756, ">
				howuri
		</text>
		<rect fill="none" stroke="black" stroke-width="1" stroke-linecap="square" stroke-miterlimit="4" transform="translate(0.5 0.5)" x="163" y="741" width="56" height="20"/>
		<rect fill="silver" x="167" y="815" width="52" height="21"/>
		<rect fill="white" x="163" y="811" width="52" height="21"/>
		<rect fill="white" x="168" y="838" width="113" height="36"/>
		<text fill="gray" font-size="9" font-family="Segoe UI" x="168, 176.40674, 181.5, 185.85498, 188.32031, 191.37012, 196.46338, 201.16992, 203.63525, 211.38721, 216.09375, 219.14355, 223.72266, 229.02246, 233.60156, 236.65137, 241.23047, 243.6958, 248.78906, 253.36816, 257.18701, 259.65234, 264.94336, 269.6499, 274.35645, " y="848, ">
				Why the metadata has been
		</text>
		<text fill="gray" font-size="9" font-family="Segoe UI" x="168, 170.17969, 175.27295, 179.43018, 181.60986, 186.70312, 192.00293, 196.70947, 202.00928, 204.47461, 208.07373, 210.53906, 215.24561, 219.37646, 224.66748, 227.79639, 232.50293, 236.32178, 240.14062, 244.84717, 250.14697, 252.6123, 257.90332, 262.2583, 264.72363, " y="860, ">
				included - expressed by a
		</text>
		<text fill="gray" font-size="9" font-family="Segoe UI" x="168, 174.78516, 180.35742, 185.63086, 190.93066, " y="872, ">
				QCode
		</text>
		<rect fill="white" x="172" y="813" width="36" height="16"/>
		<text font-size="12" font-weight="600" font-family="Segoe UI" x="172, 181.56836, 188.79297, " y="826, ">
				why
		</text>
		<rect fill="none" stroke="black" stroke-width="1" stroke-linecap="square" stroke-miterlimit="4" transform="translate(0.5 0.5)" x="163" y="811" width="51" height="20"/>
		<rect fill="silver" x="167" y="885" width="56" height="21"/>
		<rect fill="white" x="163" y="881" width="56" height="21"/>
		<rect fill="white" x="168" y="908" width="119" height="24"/>
		<text fill="gray" font-size="9" font-family="Segoe UI" x="168, 176.40674, 181.5, 185.85498, 188.32031, 191.37012, 196.46338, 201.16992, 203.63525, 211.38721, 216.09375, 219.14355, 223.72266, 229.02246, 233.60156, 236.65137, 241.23047, 243.6958, 248.78906, 253.36816, 257.18701, 259.65234, 264.94336, 269.6499, 274.35645, " y="918, ">
				Why the metadata has been
		</text>
		<text fill="gray" font-size="9" font-family="Segoe UI" x="168, 170.17969, 175.27295, 179.43018, 181.60986, 186.70312, 192.00293, 196.70947, 202.00928, 204.47461, 208.07373, 210.53906, 215.24561, 219.37646, 224.66748, 227.79639, 232.50293, 236.32178, 240.14062, 244.84717, 250.14697, 252.6123, 257.90332, 262.2583, 264.72363, 269.30273, 271.76807, 277.95117, 283.33447, " y="930, ">
				included - expressed by a URI
		</text>
		<rect fill="white" x="172" y="883" width="40" height="16"/>
		<text font-size="12" font-weight="600" font-family="Segoe UI" x="172, 181.56836, 188.79297, 195.25, 202.50977, 207.33203, " y="896, ">
				whyuri
		</text>
		<rect fill="none" stroke="black" stroke-width="1" stroke-linecap="square" stroke-miterlimit="4" transform="translate(0.5 0.5)" x="163" y="881" width="55" height="20"/>
		<rect fill="silver" x="167" y="943" width="97" height="21"/>
		<rect fill="white" x="163" y="939" width="97" height="21"/>
		<rect fill="white" x="168" y="966" width="117" height="72"/>
		<text fill="gray" font-size="9" font-family="Segoe UI" x="168, 174.78516, 179.87842, 184.58496, 187.05029, 192.32373, 195.45264, 197.91797, 205.66992, 210.24902, 215.34229, 219.69727, 222.1626, 226.31982, 231.59326, 236.68652, 240.50537, 243.55518, 246.68408, 251.26318, 253.44287, 258.53613, 261.58594, 265.40479, 267.87012, 270.91992, 276.01318, 280.59229, " y="976, ">
				One or many constraints that
		</text>
		<text fill="gray" font-size="9" font-family="Segoe UI" x="168, 172.5791, 177.87012, 183.16113, 185.34082, 189.6958, 192.16113, 195.21094, 200.48438, 202.94971, 208.24072, 213.33398, 218.625, 220.80469, 222.98438, 226.80322, 231.89648, 234.07617, 239.16943, 244.46924, 246.93457, 249.98438, 255.07764, 259.78418, 262.24951, 266.56055, 271.13965, 273.31934, 278.4126, " y="988, ">
				apply to publishing the value
		</text>
		<text fill="gray" font-size="9" font-family="Segoe UI" x="168, 173.27344, 176.09033, 178.55566, 181.60547, 186.69873, 191.40527, 193.87061, 199.16162, 202.29053, 207.56396, 212.85498, 217.56152, 220.69043, 223.74023, 228.09521, 230.56055, 234.15967, 236.625, 241.33154, 245.4624, 250.75342, 253.88232, 258.58887, 262.40771, 266.22656, 270.93311, " y="1000, ">
				of the property - expressed
		</text>
		<text fill="gray" font-size="9" font-family="Segoe UI" x="168, 173.29102, 177.646, 180.11133, 184.69043, 187.15576, 193.94092, 199.51318, 204.78662, 210.08643, 214.79297, 216.74414, 219.20947, 223.76221, 228.34131, 232.49854, 237.5918, 240.05713, 244.21436, 249.48779, 254.58105, 258.3999, 261.44971, 264.57861, 269.15771, 271.3374, 276.43066, " y="1012, ">
				by a QCode. Each constraint
		</text>
		<text fill="gray" font-size="9" font-family="Segoe UI" x="168, 172.5791, 177.87012, 183.16113, 185.34082, 187.52051, 192.22705, 196.0459, 198.51123, 201.56104, 206.83447, 209.2998, 213.87891, 216.05859, 218.23828, 220.70361, 226.00342, 230.70996, 234.52881, 238.68604, 243.39258, 248.48584, 253.78564, 258.36475, 263.45801, " y="1024, ">
				applies to all descendant
		</text>
		<text fill="gray" font-size="9" font-family="Segoe UI" x="168, 172.70654, 174.88623, 179.59277, 187.34473, 192.05127, 197.14453, 200.19434, 204.01318, " y="1036, ">
				elements.
		</text>
		<rect fill="white" x="172" y="941" width="81" height="16"/>
		<text font-size="12" font-weight="600" font-family="Segoe UI" x="172, 179.44141, 186.70117, 194.14258, 199.90234, 207.23828, 214.49805, 219.77734, 224.44727, 229.22266, 235.67969, 239.08984, 246.34961, " y="954, ">
				pubconstraint
		</text>
		<rect fill="none" stroke="black" stroke-width="1" stroke-linecap="square" stroke-miterlimit="4" transform="translate(0.5 0.5)" x="163" y="939" width="96" height="20"/>
		<rect fill="silver" x="167" y="1049" width="112" height="21"/>
		<rect fill="white" x="163" y="1045" width="112" height="21"/>
		<rect fill="white" x="168" y="1072" width="117" height="72"/>
		<text fill="gray" font-size="9" font-family="Segoe UI" x="168, 174.78516, 179.87842, 184.58496, 187.05029, 192.32373, 195.45264, 197.91797, 205.66992, 210.24902, 215.34229, 219.69727, 222.1626, 226.31982, 231.59326, 236.68652, 240.50537, 243.55518, 246.68408, 251.26318, 253.44287, 258.53613, 261.58594, 265.40479, 267.87012, 270.91992, 276.01318, 280.59229, " y="1082, ">
				One or many constraints that
		</text>
		<text fill="gray" font-size="9" font-family="Segoe UI" x="168, 172.5791, 177.87012, 183.16113, 185.34082, 189.6958, 192.16113, 195.21094, 200.48438, 202.94971, 208.24072, 213.33398, 218.625, 220.80469, 222.98438, 226.80322, 231.89648, 234.07617, 239.16943, 244.46924, 246.93457, 249.98438, 255.07764, 259.78418, 262.24951, 266.56055, 271.13965, 273.31934, 278.4126, " y="1094, ">
				apply to publishing the value
		</text>
		<text fill="gray" font-size="9" font-family="Segoe UI" x="168, 173.27344, 176.09033, 178.55566, 181.60547, 186.69873, 191.40527, 193.87061, 199.16162, 202.29053, 207.56396, 212.85498, 217.56152, 220.69043, 223.74023, 228.09521, 230.56055, 234.15967, 236.625, 241.33154, 245.4624, 250.75342, 253.88232, 258.58887, 262.40771, 266.22656, 270.93311, " y="1106, ">
				of the property - expressed
		</text>
		<text fill="gray" font-size="9" font-family="Segoe UI" x="168, 173.29102, 177.646, 180.11133, 184.69043, 187.15576, 193.33887, 198.72217, 201.11719, 203.06836, 205.53369, 210.08643, 214.66553, 218.82275, 223.91602, 226.38135, 230.53857, 235.81201, 240.90527, 244.72412, 247.77393, 250.90283, 255.48193, 257.66162, 262.75488, " y="1118, ">
				by a URI. Each constraint
		</text>
		<text fill="gray" font-size="9" font-family="Segoe UI" x="168, 172.5791, 177.87012, 183.16113, 185.34082, 187.52051, 192.22705, 196.0459, 198.51123, 201.56104, 206.83447, 209.2998, 213.87891, 216.05859, 218.23828, 220.70361, 226.00342, 230.70996, 234.52881, 238.68604, 243.39258, 248.48584, 253.78564, 258.36475, 263.45801, " y="1130, ">
				applies to all descendant
		</text>
		<text fill="gray" font-size="9" font-family="Segoe UI" x="168, 172.70654, 174.88623, 179.59277, 187.34473, 192.05127, 197.14453, 200.19434, 204.01318, " y="1142, ">
				elements.
		</text>
		<rect fill="white" x="172" y="1047" width="96" height="16"/>
		<text font-size="12" font-weight="600" font-family="Segoe UI" x="172, 179.44141, 186.70117, 194.14258, 199.90234, 207.23828, 214.49805, 219.77734, 224.44727, 229.22266, 235.67969, 239.08984, 246.34961, 251.01953, 258.2793, 263.10156, " y="1060, ">
				pubconstrainturi
		</text>
		<rect fill="none" stroke="black" stroke-width="1" stroke-linecap="square" stroke-miterlimit="4" transform="translate(0.5 0.5)" x="163" y="1045" width="111" height="20"/>
		<path fill="silver" d="M159 1217L164 1212L232 1212L237 1217L237 1228L232 1233L164 1233L159 1228L159 1217Z"/>
		<path fill="white" d="M155 1213L160 1208L228 1208L233 1213L233 1224L228 1229L160 1229L155 1224L155 1213Z"/>
		<rect fill="white" x="182" y="1210" width="46" height="16"/>
		<text font-size="12" font-weight="600" font-family="Segoe UI" x="182, 189.10742, 196.21484, 203.55078, 208.2207, 215.44531, 221.9375, " y="1223, ">
				##other
		</text>
		<rect fill="white" x="160" y="1210" width="20" height="16"/>
		<text fill="gray" font-size="12" font-family="Segoe UI" x="160, 166.10547, 172.89648, " y="1223, ">
				any
		</text>
		<path fill="none" stroke="black" stroke-width="1" stroke-linecap="square" stroke-miterlimit="4" transform="translate(0.5 0.5)" d="M155 1213L160 1208L227 1208L232 1213L232 1223L227 1228L160 1228L155 1223L155 1213Z"/>
		<rect x="146" y="5" width="11" height="11"/>
		<rect fill="white" x="147" y="6" width="9" height="9"/>
		<rect x="148" y="10" width="7" height="1"/>
		<rect x="103" y="615" width="11" height="11"/>
		<rect fill="white" x="104" y="616" width="9" height="9"/>
		<rect x="105" y="620" width="7" height="1"/>
	</g>
</svg>
