<?xml version="1.0" encoding="utf-8" ?>
<svg xmlns="http://www.w3.org/2000/svg" xmlns:xlink="http://www.w3.org/1999/xlink" width="338" height="1224">
	<clipPath id="cl_39f">
		<rect x="-10" y="-5" width="338" height="1224"/>
	</clipPath>
	<g clip-path="url(#cl_39f)">
		<rect fill="#FFFFC0" x="123" width="185" height="1202"/>
		<rect fill="none" stroke="gray" stroke-width="1" stroke-linecap="square" stroke-miterlimit="4" transform="translate(0.5 0.5)" x="123" width="184" height="1201"/>
		<path fill="none" stroke="black" stroke-width="1" stroke-linecap="square" stroke-miterlimit="4" transform="translate(0.5 0.5)" d="M57 613L129 613"/>
		<rect fill="silver" x="4" y="607" width="52" height="21"/>
		<rect fill="white" y="603" width="52" height="21"/>
		<rect fill="#FFFFC0" x="131" y="8" width="166" height="16"/>
		<text fill="gray" font-size="12" font-weight="600" font-family="Segoe UI" x="131, 137.12891, 141.93945, 149.19922, 156.45898, 162.21875, 168.67578, 173.29883, 179.79102, 187.2207, 196.06836, 202.52539, 207.14844, 213.64062, 220.67188, 224.08203, 235.07422, 241.56641, 248.9375, 253.66602, 261.00195, 268.44336, 274.93555, 281.39258, 288.83398, " y="21, ">
				TruncatedDateTimePropType
		</text>
		<rect fill="white" x="5" y="630" width="103" height="12"/>
		<text fill="gray" font-size="9" font-family="Segoe UI" x="5, 9.715332, 14.808594, 19.515137, 21.980469, 27.280273, 31.859375, 34.90918, 39.615723, 42.081055, 45.130859, 50.224121, 54.930664, 57.395996, 62.687012, 67.393555, 70.522461, 74.341309, 79.614746, 84.708008, 87.17334, 92.473145, 94.652832, 99.359375, 104.65918, " y="640, ">
				The date the person died.
		</text>
		<rect fill="white" x="9" y="605" width="31" height="16"/>
		<text font-size="12" font-weight="600" font-family="Segoe UI" x="9, 16.429688, 19.839844, 26.332031, " y="618, ">
				died
		</text>
		<path fill="none" stroke="black" stroke-width="1" stroke-linecap="square" stroke-miterlimit="4" transform="translate(0.5 0.5)" d="M2 605L7 605"/>
		<path fill="none" stroke="black" stroke-width="1" stroke-linecap="square" stroke-miterlimit="4" transform="translate(0.5 0.5)" d="M2 607L6 607"/>
		<path fill="none" stroke="black" stroke-width="1" stroke-linecap="square" stroke-miterlimit="4" transform="translate(0.5 0.5)" d="M2 609L6 609"/>
		<rect fill="none" stroke="black" stroke-width="1" stroke-linecap="square" stroke-miterlimit="4" transform="translate(0.5 0.5)" y="603" width="51" height="20"/>
		<path fill="white" d="M207 55L207 36L130 36L130 55L130 1189L277 1189L277 55L207 55Z"/>
		<rect fill="white" x="150" y="38" width="51" height="16"/>
		<text font-size="12" font-style="italic" font-family="Segoe UI" x="150, 156.50391, 160.38281, 164.26172, 168.5332, 171.63867, 178.14258, 184.83984, 188.73047, 194.57227, " y="51, ">
				attributes
		</text>
		<path fill="none" stroke="black" stroke-width="1" stroke-linecap="square" stroke-miterlimit="4" transform="translate(0.5 0.5)" d="M207 55L207 36L130 36L130 55L130 1189L277 1189L277 55L207 55Z"/>
		<rect fill="silver" x="148" y="68" width="52" height="21"/>
		<rect fill="white" x="144" y="64" width="52" height="21"/>
		<rect fill="white" x="149" y="91" width="101" height="24"/>
		<text fill="gray" font-size="9" font-family="Segoe UI" x="149, 153.71533, 158.80859, 163.51514, 165.98047, 168.16016, 173.43359, 177.59082, 182.16992, 184.34961, 186.81494, 188.99463, 194.29443, 199.00098, 204.09424, 207.14404, 209.32373, 212.14062, 214.32031, 219.02686, 222.15576, 224.62109, 229.89453, 232.71143, 235.17676, 238.22656, 243.31982, " y="101, ">
				The local identifier of the
		</text>
		<text fill="gray" font-size="9" font-family="Segoe UI" x="149, 154.29102, 157.41992, 162.69336, 167.98438, 172.69092, 175.81982, 178.86963, 183.22461, " y="113, ">
				property.
		</text>
		<rect fill="white" x="153" y="66" width="36" height="16"/>
		<text font-size="12" font-weight="600" font-family="Segoe UI" x="153, 156.41016, " y="79, ">
				id
		</text>
		<rect fill="none" stroke="black" stroke-width="1" stroke-linecap="square" stroke-miterlimit="4" transform="translate(0.5 0.5)" x="144" y="64" width="51" height="20"/>
		<rect fill="silver" x="148" y="126" width="58" height="21"/>
		<rect fill="white" x="144" y="122" width="58" height="21"/>
		<rect fill="white" x="149" y="149" width="121" height="120"/>
		<text fill="gray" font-size="9" font-family="Segoe UI" x="149, 151.39502, 154.21191, 156.67725, 159.72705, 164.82031, 169.52686, 171.99219, 177.2832, 180.41211, 185.68555, 190.97656, 195.68311, 198.81201, 201.86182, 206.2168, 208.68213, 212.99316, 217.57227, 219.75195, 224.84521, 229.55176, 232.01709, 234.19678, 238.01562, 240.48096, 245.57422, 250.84766, " y="159, ">
				If the property value is not
		</text>
		<text fill="gray" font-size="9" font-family="Segoe UI" x="149, 154.2998, 159.00635, 161.82324, 164.00293, 169.09619, 173.80273, 179.10254, 181.05371, 183.51904, 187.33789, 192.62891, 197.33545, 201.49268, 203.67236, 206.48926, 208.66895, 213.37549, 217.19434, 219.65967, 226.16357, 231.25684, 233.43652, 237.59375, 242.68701, 245.15234, 249.85889, 254.95215, 258.00195, 260.18164, 263.23145, " y="171, ">
				defined, specifies which entity
		</text>
		<text fill="gray" font-size="9" font-family="Segoe UI" x="149, 151.71582, 157.00684, 161.71338, 164.84229, 168.66113, 173.93457, 179.02783, 180.979, 183.44434, 188.71777, 191.84668, 197.14648, 201.72559, 206.81885, 208.99854, 212.81738, 217.39648, 220.44629, 222.62598, 227.89941, 232.99268, 235.45801, 240.73145, " y="183, ">
				(person, organisation or
		</text>
		<text fill="gray" font-size="9" font-family="Segoe UI" x="149, 152.81885, 157.17383, 160.99268, 164.04248, 168.74902, 176.50098, 179.2168, 181.68213, 188.18604, 190.36572, 192.54541, 194.7251, 197.19043, 201.89697, 207.19678, 209.37646, 212.42627, 214.8916, 217.94141, 223.03467, 227.74121, 230.20654, 235.49756, 238.62646, 243.8999, 249.19092, 253.89746, 257.02637, 260.07617, " y="195, ">
				system) will edit the property
		</text>
		<text fill="gray" font-size="9" font-family="Segoe UI" x="149, 153.31104, 157.89014, 160.06982, 165.16309, 169.86963, 172.33496, 175.93408, 178.39941, 183.10596, 187.23682, 192.52783, 195.65674, 200.36328, 204.18213, 208.00098, 212.70752, 218.00732, 220.47266, 225.76367, 230.11865, 232.58398, 237.16309, 239.62842, 246.41357, 251.98584, 257.25928, 262.55908, 267.26562, " y="207, ">
				value - expressed by a QCode.
		</text>
		<text fill="gray" font-size="9" font-family="Segoe UI" x="149, 151.39502, 154.21191, 156.67725, 159.72705, 164.82031, 169.52686, 171.99219, 177.2832, 180.41211, 185.68555, 190.97656, 195.68311, 198.81201, 201.86182, 206.2168, 208.68213, 212.99316, 217.57227, 219.75195, 224.84521, 229.55176, 232.01709, 234.19678, " y="219, ">
				If the property value is
		</text>
		<text fill="gray" font-size="9" font-family="Segoe UI" x="149, 154.2998, 159.00635, 161.82324, 164.00293, 169.09619, 173.80273, 179.10254, 181.05371, 183.51904, 187.33789, 192.62891, 197.33545, 201.49268, 203.67236, 206.48926, 208.66895, 213.37549, 217.19434, 219.65967, 226.16357, 231.25684, 233.43652, 237.59375, 242.68701, 245.15234, 249.85889, 254.95215, 258.00195, 260.18164, 263.23145, " y="231, ">
				defined, specifies which entity
		</text>
		<text fill="gray" font-size="9" font-family="Segoe UI" x="149, 151.71582, 157.00684, 161.71338, 164.84229, 168.66113, 173.93457, 179.02783, 180.979, 183.44434, 188.71777, 191.84668, 197.14648, 201.72559, 206.81885, 208.99854, 212.81738, 217.39648, 220.44629, 222.62598, 227.89941, 232.99268, 235.45801, 240.73145, " y="243, ">
				(person, organisation or
		</text>
		<text fill="gray" font-size="9" font-family="Segoe UI" x="149, 152.81885, 157.17383, 160.99268, 164.04248, 168.74902, 176.50098, 179.2168, 181.68213, 186.77539, 191.35449, 195.17334, 197.63867, 202.34521, 207.64502, 209.82471, 212.87451, 217.58105, 222.88086, 225.34619, 228.396, 233.48926, " y="255, ">
				system) has edited the
		</text>
		<text fill="gray" font-size="9" font-family="Segoe UI" x="149, 154.29102, 157.41992, 162.69336, 167.98438, 172.69092, 175.81982, 178.86963, 183.22461, 185.68994, 190.00098, 194.58008, 196.75977, 201.85303, 206.55957, " y="267, ">
				property value.
		</text>
		<rect fill="white" x="153" y="124" width="42" height="16"/>
		<text font-size="12" font-weight="600" font-family="Segoe UI" x="153, 158.75977, 163.48828, 169.98047, 176.4375, 181.06055, 188.39648, " y="137, ">
				creator
		</text>
		<rect fill="none" stroke="black" stroke-width="1" stroke-linecap="square" stroke-miterlimit="4" transform="translate(0.5 0.5)" x="144" y="122" width="57" height="20"/>
		<rect fill="silver" x="148" y="280" width="73" height="21"/>
		<rect fill="white" x="144" y="276" width="73" height="21"/>
		<rect fill="white" x="149" y="303" width="120" height="108"/>
		<text fill="gray" font-size="9" font-family="Segoe UI" x="149, 151.39502, 154.21191, 156.67725, 159.72705, 164.82031, 169.52686, 171.99219, 177.2832, 180.41211, 185.68555, 190.97656, 195.68311, 198.81201, 201.86182, 206.2168, 208.68213, 212.99316, 217.57227, 219.75195, 224.84521, 229.55176, 232.01709, 234.19678, 238.01562, 240.48096, 245.57422, 250.84766, " y="313, ">
				If the property value is not
		</text>
		<text fill="gray" font-size="9" font-family="Segoe UI" x="149, 154.2998, 159.00635, 161.82324, 164.00293, 169.09619, 173.80273, 179.10254, 181.05371, 183.51904, 187.33789, 192.62891, 197.33545, 201.49268, 203.67236, 206.48926, 208.66895, 213.37549, 217.19434, 219.65967, 226.16357, 231.25684, 233.43652, 237.59375, 242.68701, 245.15234, 249.85889, 254.95215, 258.00195, 260.18164, 263.23145, " y="325, ">
				defined, specifies which entity
		</text>
		<text fill="gray" font-size="9" font-family="Segoe UI" x="149, 151.71582, 157.00684, 161.71338, 164.84229, 168.66113, 173.93457, 179.02783, 180.979, 183.44434, 188.71777, 191.84668, 197.14648, 201.72559, 206.81885, 208.99854, 212.81738, 217.39648, 220.44629, 222.62598, 227.89941, 232.99268, 235.45801, 240.73145, " y="337, ">
				(person, organisation or
		</text>
		<text fill="gray" font-size="9" font-family="Segoe UI" x="149, 152.81885, 157.17383, 160.99268, 164.04248, 168.74902, 176.50098, 179.2168, 181.68213, 188.18604, 190.36572, 192.54541, 194.7251, 197.19043, 201.89697, 207.19678, 209.37646, 212.42627, 214.8916, 217.94141, 223.03467, 227.74121, 230.20654, 235.49756, 238.62646, 243.8999, 249.19092, 253.89746, 257.02637, 260.07617, " y="349, ">
				system) will edit the property
		</text>
		<text fill="gray" font-size="9" font-family="Segoe UI" x="149, 152.59912, 155.06445, 159.771, 163.90186, 169.19287, 172.32178, 177.02832, 180.84717, 184.66602, 189.37256, 194.67236, 197.1377, 202.42871, 206.78369, 209.24902, 213.82812, 216.29346, 222.47656, 227.85986, 230.25488, 232.20605, 234.67139, 237.06641, 239.8833, 242.34863, 245.39844, 250.4917, " y="361, ">
				- expressed by a URI. If the
		</text>
		<text fill="gray" font-size="9" font-family="Segoe UI" x="149, 154.29102, 157.41992, 162.69336, 167.98438, 172.69092, 175.81982, 178.86963, 183.22461, 185.68994, 190.00098, 194.58008, 196.75977, 201.85303, 206.55957, 209.0249, 211.20459, 215.02344, 217.48877, 222.78857, 227.49512, 230.31201, 232.4917, 237.58496, 242.2915, 247.59131, " y="373, ">
				property value is defined,
		</text>
		<text fill="gray" font-size="9" font-family="Segoe UI" x="149, 152.81885, 158.10986, 162.81641, 166.97363, 169.15332, 171.97021, 174.1499, 178.85645, 182.67529, 185.14062, 191.64453, 196.73779, 198.91748, 203.07471, 208.16797, 210.6333, 215.33984, 220.43311, 223.48291, 225.6626, 228.7124, 233.06738, 235.53271, 238.24854, 243.53955, 248.24609, 251.375, 255.19385, 260.46729, 265.56055, " y="385, ">
				specifies which entity (person,
		</text>
		<text fill="gray" font-size="9" font-family="Segoe UI" x="149, 154.27344, 157.40234, 162.70215, 167.28125, 172.37451, 174.5542, 178.37305, 182.95215, 186.00195, 188.18164, 193.45508, 198.54834, 201.01367, 206.28711, 209.41602, 211.88135, 215.7002, 220.05518, 223.87402, 226.92383, 231.63037, 239.38232, 242.09814, 244.56348, 249.65674, 254.23584, " y="397, ">
				organisation or system) has
		</text>
		<text fill="gray" font-size="9" font-family="Segoe UI" x="149, 153.70654, 159.00635, 161.18604, 164.23584, 168.94238, 174.24219, 176.70752, 179.75732, 184.85059, 189.55713, 192.02246, 197.31348, 200.44238, 205.71582, 211.00684, 215.71338, 218.84229, 221.89209, 226.24707, " y="409, ">
				edited the property.
		</text>
		<rect fill="white" x="153" y="278" width="57" height="16"/>
		<text font-size="12" font-weight="600" font-family="Segoe UI" x="153, 158.75977, 163.48828, 169.98047, 176.4375, 181.06055, 188.39648, 193.20703, 200.4668, 205.28906, " y="291, ">
				creatoruri
		</text>
		<rect fill="none" stroke="black" stroke-width="1" stroke-linecap="square" stroke-miterlimit="4" transform="translate(0.5 0.5)" x="144" y="276" width="72" height="20"/>
		<rect fill="silver" x="148" y="422" width="69" height="21"/>
		<rect fill="white" x="144" y="418" width="69" height="21"/>
		<rect fill="white" x="149" y="445" width="119" height="72"/>
		<text fill="gray" font-size="9" font-family="Segoe UI" x="149, 153.71533, 158.80859, 163.51514, 165.98047, 171.28027, 175.85938, 178.90918, 183.61572, 186.08105, 188.79688, 193.37598, 198.46924, 203.76904, 205.72021, 208.18555, 213.45898, 218.75, 221.7998, 223.97949, 229.25293, 234.34619, 238.92529, 241.10498, 243.28467, 247.63965, 249.59082, 252.05615, 255.10596, 260.19922, " y="455, ">
				The date (and, optionally, the
		</text>
		<text fill="gray" font-size="9" font-family="Segoe UI" x="149, 152.0498, 154.22949, 161.98145, 166.68799, 169.40381, 171.86914, 178.37305, 183.46631, 188.17285, 193.26611, 195.73145, 198.78125, 203.87451, 208.58105, 211.04639, 216.3374, 219.46631, 224.73975, 230.03076, 234.7373, 237.86621, 240.91602, 245.271, 247.73633, 254.24023, 258.81934, " y="467, ">
				time) when the property was
		</text>
		<text fill="gray" font-size="9" font-family="Segoe UI" x="149, 151.17969, 155.75879, 159.57764, 162.62744, 165.09277, 172.84473, 178.11816, 183.41797, 185.59766, 188.41455, 190.59424, 195.30078, 200.60059, 202.55176, 205.01709, 209.73242, 214.82568, 219.53223, 221.99756, 224.17725, 229.27051, 231.4502, 234.5, 236.67969, 241.25879, 243.43848, 245.90381, 250.21484, 254.79395, 256.97363, 262.06689, " y="479, ">
				last modified. The initial value
		</text>
		<text fill="gray" font-size="9" font-family="Segoe UI" x="149, 151.17969, 154.99854, 157.46387, 160.51367, 165.60693, 170.31348, 172.77881, 178.07861, 182.65771, 185.70752, 190.41406, 192.87939, 195.59521, 200.17432, 205.26758, 210.56738, 212.51855, 214.98389, 220.25732, 225.54834, 228.59814, 230.77783, 236.05127, 241.14453, 245.72363, 247.90332, 250.08301, 254.43799, " y="491, ">
				is the date (and, optionally,
		</text>
		<text fill="gray" font-size="9" font-family="Segoe UI" x="149, 152.0498, 157.14307, 161.84961, 164.31494, 167.36475, 169.54443, 177.29639, 182.00293, 184.71875, 187.18408, 192.45752, 195.27441, 197.73975, 201.89697, 205.02588, 209.73242, 214.31152, 217.36133, 219.54102, 224.81445, 229.90771, 232.37305, 237.64648, 240.46338, 242.92871, 245.97852, 251.07178, " y="503, ">
				the time) of creation of the
		</text>
		<text fill="gray" font-size="9" font-family="Segoe UI" x="149, 154.29102, 157.41992, 162.69336, 167.98438, 172.69092, 175.81982, 178.86963, 183.22461, " y="515, ">
				property.
		</text>
		<rect fill="white" x="153" y="420" width="53" height="16"/>
		<text font-size="12" font-weight="600" font-family="Segoe UI" x="153, 163.99219, 171.32812, 178.75781, 182.16797, 186.76758, 190.17773, 196.66992, " y="433, ">
				modified
		</text>
		<rect fill="none" stroke="black" stroke-width="1" stroke-linecap="square" stroke-miterlimit="4" transform="translate(0.5 0.5)" x="144" y="418" width="68" height="20"/>
		<rect fill="silver" x="148" y="528" width="59" height="21"/>
		<rect fill="white" x="144" y="524" width="59" height="21"/>
		<rect fill="white" x="149" y="551" width="118" height="108"/>
		<text fill="gray" font-size="9" font-family="Segoe UI" x="149, 151.39502, 154.21191, 156.67725, 160.49609, 165.20264, 168.25244, 170.71777, 173.76758, 179.04102, 181.50635, 184.55615, 187.68506, 192.77832, 197.48486, 199.9502, 203, 208.09326, " y="561, ">
				If set to true the
		</text>
		<text fill="gray" font-size="9" font-family="Segoe UI" x="149, 153.15723, 158.43066, 161.55957, 164.68848, 169.39502, 173.21387, 178.50488, 183.77832, 188.87158, 194.17139, 196.35107, 201.44434, 206.74414, 209.20947, 214.50049, 217.62939, 222.90283, 228.19385, 232.90039, 236.0293, 239.0791, 243.43408, 245.89941, 252.40332, 256.98242, " y="573, ">
				corresponding property was
		</text>
		<text fill="gray" font-size="9" font-family="Segoe UI" x="149, 153.5791, 158.87891, 164.17871, 168.88525, 174.18506, 176.65039, 179.7002, 184.97363, 187.43896, 190.48877, 195.58203, 200.28857, 202.75391, 208.92822, 213.77979, 216.24512, 218.64014, 221.68994, 226.39648, 234.14844, 236.61377, 239.43066, 244.7041, 247.83301, 250.29834, " y="585, ">
				added to the G2 Item for a
		</text>
		<text fill="gray" font-size="9" font-family="Segoe UI" x="149, 152.81885, 158.10986, 162.81641, 166.97363, 169.15332, 171.97021, 174.1499, 178.30713, 180.77246, 184.92969, 190.02295, 193.8418, 196.8916, 202.16504, 209.91699, 214.62354, 217.75244, 220.21777, 225.49121, 228.62012, 231.08545, 236.38525, 239.51416, 244.7876, 249.88086, 255.17188, 257.63721, 262.91064, " y="597, ">
				specific customer or group of
		</text>
		<text fill="gray" font-size="9" font-family="Segoe UI" x="149, 153.15723, 158.25049, 162.06934, 165.11914, 170.39258, 178.14453, 182.85107, 185.97998, 189.79883, 192.26416, 197.5376, 202.63086, 204.81055, 209.16553, 211.1167, 213.58203, 218.29736, 223.39062, 228.09717, 230.5625, 235.8623, 240.56885, 243.38574, 247.96484, 253.05811, 255.23779, " y="609, ">
				customers only. The default
		</text>
		<text fill="gray" font-size="9" font-family="Segoe UI" x="149, 153.31104, 157.89014, 160.06982, 165.16309, 169.86963, 172.33496, 177.6084, 180.42529, 182.89062, 185.94043, 191.03369, 193.21338, 197.03223, 199.49756, 204.78857, 207.91748, 213.19092, 218.48193, 223.18848, 226.31738, 229.36719, 233.72217, 236.1875, 238.36719, 242.18604, 244.65137, 247.46826, 252.04736, 254.22705, 258.0459, " y="621, ">
				value of this property is false
		</text>
		<text fill="gray" font-size="9" font-family="Segoe UI" x="149, 155.50391, 160.59717, 162.77686, 166.93408, 172.02734, 174.49268, 179.07178, 184.36279, 189.65381, 191.8335, 194.01318, 198.71973, 202.53857, 205.00391, 211.50781, 216.60107, 221.30762, 226.40088, 228.86621, 231.91602, 237.00928, 239.18896, " y="633, ">
				which applies when this
		</text>
		<text fill="gray" font-size="9" font-family="Segoe UI" x="149, 153.5791, 156.62891, 159.67871, 162.80762, 164.9873, 170.27832, 175.37158, 178.42139, 183.12793, 185.59326, 187.77295, 191.5918, 194.05713, 199.15039, 204.42383, 207.47363, 209.93896, 215.03223, 218.85107, 223.55762, 228.85742, 231.32275, 237.82666, 240.00635, 243.05615, 248.14941, 250.61475, 253.66455, 258.75781, " y="645, ">
				attribute is not used with the
		</text>
		<text fill="gray" font-size="9" font-family="Segoe UI" x="149, 154.29102, 157.41992, 162.69336, 167.98438, 172.69092, 175.81982, 178.86963, 183.22461, " y="657, ">
				property.
		</text>
		<rect fill="white" x="153" y="526" width="43" height="16"/>
		<text font-size="12" font-weight="600" font-family="Segoe UI" x="153, 158.75977, 166.01953, 171.29883, 175.92188, 183.25781, " y="539, ">
				custom
		</text>
		<rect fill="none" stroke="black" stroke-width="1" stroke-linecap="square" stroke-miterlimit="4" transform="translate(0.5 0.5)" x="144" y="524" width="58" height="20"/>
		<rect fill="silver" x="148" y="670" width="52" height="21"/>
		<rect fill="white" x="144" y="666" width="52" height="21"/>
		<rect fill="white" x="149" y="693" width="118" height="48"/>
		<text fill="gray" font-size="9" font-family="Segoe UI" x="149, 151.39502, 156.48828, 161.78809, 163.96777, 168.125, 172.7041, 175.75391, 180.46045, 184.2793, 186.74463, 192.03564, 196.39062, 198.85596, 205.35986, 210.45312, 212.63281, 216.79004, 221.8833, 224.34863, 232.10059, 236.80713, 241.38623, 246.47949, 250.29834, 252.76367, 255.81348, 260.90674, " y="703, ">
				Indicates by which means the
		</text>
		<text fill="gray" font-size="9" font-family="Segoe UI" x="149, 153.31104, 157.89014, 160.06982, 165.16309, 169.86963, 172.33496, 178.83887, 183.41797, 187.23682, 189.70215, 194.40869, 198.53955, 201.58936, 204.71826, 209.29736, 213.45459, 216.50439, 221.21094, 226.51074, 228.97607, 231.79297, 234.92188, 240.19531, 247.94727, 250.4126, 253.4624, 258.55566, " y="715, ">
				value was extracted from the
		</text>
		<text fill="gray" font-size="9" font-family="Segoe UI" x="149, 153.15723, 158.43066, 163.52393, 166.57373, 171.28027, 176.37354, 179.42334, 181.88867, 185.48779, 187.95312, 192.65967, 196.79053, 202.08154, 205.21045, 209.91699, 213.73584, 217.55469, 222.26123, 227.56104, 230.02637, 235.31738, 239.67236, 242.1377, " y="727, ">
				content - expressed by a
		</text>
		<text fill="gray" font-size="9" font-family="Segoe UI" x="149, 155.78516, 161.35742, 166.63086, 171.93066, " y="739, ">
				QCode
		</text>
		<rect fill="white" x="153" y="668" width="36" height="16"/>
		<text font-size="12" font-weight="600" font-family="Segoe UI" x="153, 160.22461, 167.56055, " y="681, ">
				how
		</text>
		<rect fill="none" stroke="black" stroke-width="1" stroke-linecap="square" stroke-miterlimit="4" transform="translate(0.5 0.5)" x="144" y="666" width="51" height="20"/>
		<rect fill="silver" x="148" y="752" width="57" height="21"/>
		<rect fill="white" x="144" y="748" width="57" height="21"/>
		<rect fill="white" x="149" y="775" width="118" height="36"/>
		<text fill="gray" font-size="9" font-family="Segoe UI" x="149, 151.39502, 156.48828, 161.78809, 163.96777, 168.125, 172.7041, 175.75391, 180.46045, 184.2793, 186.74463, 192.03564, 196.39062, 198.85596, 205.35986, 210.45312, 212.63281, 216.79004, 221.8833, 224.34863, 232.10059, 236.80713, 241.38623, 246.47949, 250.29834, 252.76367, 255.81348, 260.90674, " y="785, ">
				Indicates by which means the
		</text>
		<text fill="gray" font-size="9" font-family="Segoe UI" x="149, 153.31104, 157.89014, 160.06982, 165.16309, 169.86963, 172.33496, 178.83887, 183.41797, 187.23682, 189.70215, 194.40869, 198.53955, 201.58936, 204.71826, 209.29736, 213.45459, 216.50439, 221.21094, 226.51074, 228.97607, 231.79297, 234.92188, 240.19531, 247.94727, 250.4126, 253.4624, 258.55566, " y="797, ">
				value was extracted from the
		</text>
		<text fill="gray" font-size="9" font-family="Segoe UI" x="149, 153.15723, 158.43066, 163.52393, 166.57373, 171.28027, 176.37354, 179.42334, 181.88867, 185.48779, 187.95312, 192.65967, 196.79053, 202.08154, 205.21045, 209.91699, 213.73584, 217.55469, 222.26123, 227.56104, 230.02637, 235.31738, 239.67236, 242.1377, 246.7168, 249.18213, 255.36523, 260.74854, " y="809, ">
				content - expressed by a URI
		</text>
		<rect fill="white" x="153" y="750" width="41" height="16"/>
		<text font-size="12" font-weight="600" font-family="Segoe UI" x="153, 160.22461, 167.56055, 177.12891, 184.38867, 189.21094, " y="763, ">
				howuri
		</text>
		<rect fill="none" stroke="black" stroke-width="1" stroke-linecap="square" stroke-miterlimit="4" transform="translate(0.5 0.5)" x="144" y="748" width="56" height="20"/>
		<rect fill="silver" x="148" y="822" width="52" height="21"/>
		<rect fill="white" x="144" y="818" width="52" height="21"/>
		<rect fill="white" x="149" y="845" width="113" height="36"/>
		<text fill="gray" font-size="9" font-family="Segoe UI" x="149, 157.40674, 162.5, 166.85498, 169.32031, 172.37012, 177.46338, 182.16992, 184.63525, 192.38721, 197.09375, 200.14355, 204.72266, 210.02246, 214.60156, 217.65137, 222.23047, 224.6958, 229.78906, 234.36816, 238.18701, 240.65234, 245.94336, 250.6499, 255.35645, " y="855, ">
				Why the metadata has been
		</text>
		<text fill="gray" font-size="9" font-family="Segoe UI" x="149, 151.17969, 156.27295, 160.43018, 162.60986, 167.70312, 173.00293, 177.70947, 183.00928, 185.47461, 189.07373, 191.53906, 196.24561, 200.37646, 205.66748, 208.79639, 213.50293, 217.32178, 221.14062, 225.84717, 231.14697, 233.6123, 238.90332, 243.2583, 245.72363, " y="867, ">
				included - expressed by a
		</text>
		<text fill="gray" font-size="9" font-family="Segoe UI" x="149, 155.78516, 161.35742, 166.63086, 171.93066, " y="879, ">
				QCode
		</text>
		<rect fill="white" x="153" y="820" width="36" height="16"/>
		<text font-size="12" font-weight="600" font-family="Segoe UI" x="153, 162.56836, 169.79297, " y="833, ">
				why
		</text>
		<rect fill="none" stroke="black" stroke-width="1" stroke-linecap="square" stroke-miterlimit="4" transform="translate(0.5 0.5)" x="144" y="818" width="51" height="20"/>
		<rect fill="silver" x="148" y="892" width="56" height="21"/>
		<rect fill="white" x="144" y="888" width="56" height="21"/>
		<rect fill="white" x="149" y="915" width="119" height="24"/>
		<text fill="gray" font-size="9" font-family="Segoe UI" x="149, 157.40674, 162.5, 166.85498, 169.32031, 172.37012, 177.46338, 182.16992, 184.63525, 192.38721, 197.09375, 200.14355, 204.72266, 210.02246, 214.60156, 217.65137, 222.23047, 224.6958, 229.78906, 234.36816, 238.18701, 240.65234, 245.94336, 250.6499, 255.35645, " y="925, ">
				Why the metadata has been
		</text>
		<text fill="gray" font-size="9" font-family="Segoe UI" x="149, 151.17969, 156.27295, 160.43018, 162.60986, 167.70312, 173.00293, 177.70947, 183.00928, 185.47461, 189.07373, 191.53906, 196.24561, 200.37646, 205.66748, 208.79639, 213.50293, 217.32178, 221.14062, 225.84717, 231.14697, 233.6123, 238.90332, 243.2583, 245.72363, 250.30273, 252.76807, 258.95117, 264.33447, " y="937, ">
				included - expressed by a URI
		</text>
		<rect fill="white" x="153" y="890" width="40" height="16"/>
		<text font-size="12" font-weight="600" font-family="Segoe UI" x="153, 162.56836, 169.79297, 176.25, 183.50977, 188.33203, " y="903, ">
				whyuri
		</text>
		<rect fill="none" stroke="black" stroke-width="1" stroke-linecap="square" stroke-miterlimit="4" transform="translate(0.5 0.5)" x="144" y="888" width="55" height="20"/>
		<rect fill="silver" x="148" y="950" width="97" height="21"/>
		<rect fill="white" x="144" y="946" width="97" height="21"/>
		<rect fill="white" x="149" y="973" width="117" height="72"/>
		<text fill="gray" font-size="9" font-family="Segoe UI" x="149, 155.78516, 160.87842, 165.58496, 168.05029, 173.32373, 176.45264, 178.91797, 186.66992, 191.24902, 196.34229, 200.69727, 203.1626, 207.31982, 212.59326, 217.68652, 221.50537, 224.55518, 227.68408, 232.26318, 234.44287, 239.53613, 242.58594, 246.40479, 248.87012, 251.91992, 257.01318, 261.59229, " y="983, ">
				One or many constraints that
		</text>
		<text fill="gray" font-size="9" font-family="Segoe UI" x="149, 153.5791, 158.87012, 164.16113, 166.34082, 170.6958, 173.16113, 176.21094, 181.48438, 183.94971, 189.24072, 194.33398, 199.625, 201.80469, 203.98438, 207.80322, 212.89648, 215.07617, 220.16943, 225.46924, 227.93457, 230.98438, 236.07764, 240.78418, 243.24951, 247.56055, 252.13965, 254.31934, 259.4126, " y="995, ">
				apply to publishing the value
		</text>
		<text fill="gray" font-size="9" font-family="Segoe UI" x="149, 154.27344, 157.09033, 159.55566, 162.60547, 167.69873, 172.40527, 174.87061, 180.16162, 183.29053, 188.56396, 193.85498, 198.56152, 201.69043, 204.74023, 209.09521, 211.56055, 215.15967, 217.625, 222.33154, 226.4624, 231.75342, 234.88232, 239.58887, 243.40771, 247.22656, 251.93311, " y="1007, ">
				of the property - expressed
		</text>
		<text fill="gray" font-size="9" font-family="Segoe UI" x="149, 154.29102, 158.646, 161.11133, 165.69043, 168.15576, 174.94092, 180.51318, 185.78662, 191.08643, 195.79297, 197.74414, 200.20947, 204.76221, 209.34131, 213.49854, 218.5918, 221.05713, 225.21436, 230.48779, 235.58105, 239.3999, 242.44971, 245.57861, 250.15771, 252.3374, 257.43066, " y="1019, ">
				by a QCode. Each constraint
		</text>
		<text fill="gray" font-size="9" font-family="Segoe UI" x="149, 153.5791, 158.87012, 164.16113, 166.34082, 168.52051, 173.22705, 177.0459, 179.51123, 182.56104, 187.83447, 190.2998, 194.87891, 197.05859, 199.23828, 201.70361, 207.00342, 211.70996, 215.52881, 219.68604, 224.39258, 229.48584, 234.78564, 239.36475, 244.45801, " y="1031, ">
				applies to all descendant
		</text>
		<text fill="gray" font-size="9" font-family="Segoe UI" x="149, 153.70654, 155.88623, 160.59277, 168.34473, 173.05127, 178.14453, 181.19434, 185.01318, " y="1043, ">
				elements.
		</text>
		<rect fill="white" x="153" y="948" width="81" height="16"/>
		<text font-size="12" font-weight="600" font-family="Segoe UI" x="153, 160.44141, 167.70117, 175.14258, 180.90234, 188.23828, 195.49805, 200.77734, 205.44727, 210.22266, 216.67969, 220.08984, 227.34961, " y="961, ">
				pubconstraint
		</text>
		<rect fill="none" stroke="black" stroke-width="1" stroke-linecap="square" stroke-miterlimit="4" transform="translate(0.5 0.5)" x="144" y="946" width="96" height="20"/>
		<rect fill="silver" x="148" y="1056" width="112" height="21"/>
		<rect fill="white" x="144" y="1052" width="112" height="21"/>
		<rect fill="white" x="149" y="1079" width="117" height="72"/>
		<text fill="gray" font-size="9" font-family="Segoe UI" x="149, 155.78516, 160.87842, 165.58496, 168.05029, 173.32373, 176.45264, 178.91797, 186.66992, 191.24902, 196.34229, 200.69727, 203.1626, 207.31982, 212.59326, 217.68652, 221.50537, 224.55518, 227.68408, 232.26318, 234.44287, 239.53613, 242.58594, 246.40479, 248.87012, 251.91992, 257.01318, 261.59229, " y="1089, ">
				One or many constraints that
		</text>
		<text fill="gray" font-size="9" font-family="Segoe UI" x="149, 153.5791, 158.87012, 164.16113, 166.34082, 170.6958, 173.16113, 176.21094, 181.48438, 183.94971, 189.24072, 194.33398, 199.625, 201.80469, 203.98438, 207.80322, 212.89648, 215.07617, 220.16943, 225.46924, 227.93457, 230.98438, 236.07764, 240.78418, 243.24951, 247.56055, 252.13965, 254.31934, 259.4126, " y="1101, ">
				apply to publishing the value
		</text>
		<text fill="gray" font-size="9" font-family="Segoe UI" x="149, 154.27344, 157.09033, 159.55566, 162.60547, 167.69873, 172.40527, 174.87061, 180.16162, 183.29053, 188.56396, 193.85498, 198.56152, 201.69043, 204.74023, 209.09521, 211.56055, 215.15967, 217.625, 222.33154, 226.4624, 231.75342, 234.88232, 239.58887, 243.40771, 247.22656, 251.93311, " y="1113, ">
				of the property - expressed
		</text>
		<text fill="gray" font-size="9" font-family="Segoe UI" x="149, 154.29102, 158.646, 161.11133, 165.69043, 168.15576, 174.33887, 179.72217, 182.11719, 184.06836, 186.53369, 191.08643, 195.66553, 199.82275, 204.91602, 207.38135, 211.53857, 216.81201, 221.90527, 225.72412, 228.77393, 231.90283, 236.48193, 238.66162, 243.75488, " y="1125, ">
				by a URI. Each constraint
		</text>
		<text fill="gray" font-size="9" font-family="Segoe UI" x="149, 153.5791, 158.87012, 164.16113, 166.34082, 168.52051, 173.22705, 177.0459, 179.51123, 182.56104, 187.83447, 190.2998, 194.87891, 197.05859, 199.23828, 201.70361, 207.00342, 211.70996, 215.52881, 219.68604, 224.39258, 229.48584, 234.78564, 239.36475, 244.45801, " y="1137, ">
				applies to all descendant
		</text>
		<text fill="gray" font-size="9" font-family="Segoe UI" x="149, 153.70654, 155.88623, 160.59277, 168.34473, 173.05127, 178.14453, 181.19434, 185.01318, " y="1149, ">
				elements.
		</text>
		<rect fill="white" x="153" y="1054" width="96" height="16"/>
		<text font-size="12" font-weight="600" font-family="Segoe UI" x="153, 160.44141, 167.70117, 175.14258, 180.90234, 188.23828, 195.49805, 200.77734, 205.44727, 210.22266, 216.67969, 220.08984, 227.34961, 232.01953, 239.2793, 244.10156, " y="1067, ">
				pubconstrainturi
		</text>
		<rect fill="none" stroke="black" stroke-width="1" stroke-linecap="square" stroke-miterlimit="4" transform="translate(0.5 0.5)" x="144" y="1052" width="111" height="20"/>
		<path fill="silver" d="M148 1167L153 1162L221 1162L226 1167L226 1178L221 1183L153 1183L148 1178L148 1167Z"/>
		<path fill="white" d="M144 1163L149 1158L217 1158L222 1163L222 1174L217 1179L149 1179L144 1174L144 1163Z"/>
		<rect fill="white" x="171" y="1160" width="46" height="16"/>
		<text font-size="12" font-weight="600" font-family="Segoe UI" x="171, 178.10742, 185.21484, 192.55078, 197.2207, 204.44531, 210.9375, " y="1173, ">
				##other
		</text>
		<rect fill="white" x="149" y="1160" width="20" height="16"/>
		<text fill="gray" font-size="12" font-family="Segoe UI" x="149, 155.10547, 161.89648, " y="1173, ">
				any
		</text>
		<path fill="none" stroke="black" stroke-width="1" stroke-linecap="square" stroke-miterlimit="4" transform="translate(0.5 0.5)" d="M144 1163L149 1158L216 1158L221 1163L221 1173L216 1178L149 1178L144 1173L144 1163Z"/>
		<rect x="135" y="41" width="11" height="11"/>
		<rect fill="white" x="136" y="42" width="9" height="9"/>
		<rect x="137" y="46" width="7" height="1"/>
		<rect x="46" y="608" width="11" height="11"/>
		<rect fill="white" x="47" y="609" width="9" height="9"/>
		<rect x="48" y="613" width="7" height="1"/>
	</g>
</svg>
