<?xml version="1.0" encoding="utf-8" ?>
<svg xmlns="http://www.w3.org/2000/svg" xmlns:xlink="http://www.w3.org/1999/xlink" width="385" height="2000">
	<clipPath id="cl_4b2">
		<rect x="-10" y="-5" width="385" height="2000"/>
	</clipPath>
	<g clip-path="url(#cl_4b2)">
		<rect fill="#FFFFC0" x="129" width="236" height="1990"/>
		<rect fill="none" stroke="gray" stroke-width="1" stroke-linecap="square" stroke-miterlimit="4" transform="translate(0.5 0.5)" x="129" width="235" height="1989"/>
		<path fill="none" stroke="black" stroke-width="1" stroke-linecap="square" stroke-miterlimit="4" transform="translate(0.5 0.5)" d="M65 1283L141 1283"/>
		<path fill="none" stroke="black" stroke-width="1" stroke-linecap="square" stroke-miterlimit="4" transform="translate(0.5 0.5)" d="M142 1283L142 807"/>
		<path transform="translate(0.5 0.5)" d="M142.5 1283L142.5 1285L142.5 1285.5L141.5 1285.5L141.5 1285L141.5 1282.5L142.5 1282.5L142.5 1283ZM142.5 1289L142.5 1291L142.5 1291.5L141.5 1291.5L141.5 1291L141.5 1288.5L142.5 1288.5L142.5 1289ZM142.5 1295L142.5 1297L142.5 1297.5L141.5 1297.5L141.5 1297L141.5 1294.5L142.5 1294.5L142.5 1295ZM142.5 1301L142.5 1303L142.5 1303.5L141.5 1303.5L141.5 1303L141.5 1300.5L142.5 1300.5L142.5 1301ZM142.5 1307L142.5 1309L142.5 1309.5L141.5 1309.5L141.5 1309L141.5 1306.5L142.5 1306.5L142.5 1307ZM142.5 1313L142.5 1315L142.5 1315.5L141.5 1315.5L141.5 1315L141.5 1312.5L142.5 1312.5L142.5 1313ZM142.5 1319L142.5 1321L142.5 1321.5L141.5 1321.5L141.5 1321L141.5 1318.5L142.5 1318.5L142.5 1319ZM142.5 1325L142.5 1327L142.5 1327.5L141.5 1327.5L141.5 1327L141.5 1324.5L142.5 1324.5L142.5 1325ZM142.5 1331L142.5 1333L142.5 1333.5L141.5 1333.5L141.5 1333L141.5 1330.5L142.5 1330.5L142.5 1331ZM142.5 1337L142.5 1339L142.5 1339.5L141.5 1339.5L141.5 1339L141.5 1336.5L142.5 1336.5L142.5 1337ZM142.5 1343L142.5 1345L142.5 1345.5L141.5 1345.5L141.5 1345L141.5 1342.5L142.5 1342.5L142.5 1343ZM142.5 1349L142.5 1351L142.5 1351.5L141.5 1351.5L141.5 1351L141.5 1348.5L142.5 1348.5L142.5 1349ZM142.5 1355L142.5 1357L142.5 1357.5L141.5 1357.5L141.5 1357L141.5 1354.5L142.5 1354.5L142.5 1355ZM142.5 1361L142.5 1363L142.5 1363.5L141.5 1363.5L141.5 1363L141.5 1360.5L142.5 1360.5L142.5 1361ZM142.5 1367L142.5 1369L142.5 1369.5L141.5 1369.5L141.5 1369L141.5 1366.5L142.5 1366.5L142.5 1367ZM142.5 1373L142.5 1375L142.5 1375.5L141.5 1375.5L141.5 1375L141.5 1372.5L142.5 1372.5L142.5 1373ZM142.5 1379L142.5 1381L142.5 1381.5L141.5 1381.5L141.5 1381L141.5 1378.5L142.5 1378.5L142.5 1379ZM142.5 1385L142.5 1387L142.5 1387.5L141.5 1387.5L141.5 1387L141.5 1384.5L142.5 1384.5L142.5 1385ZM142.5 1391L142.5 1393L142.5 1393.5L141.5 1393.5L141.5 1393L141.5 1390.5L142.5 1390.5L142.5 1391ZM142.5 1397L142.5 1399L142.5 1399.5L141.5 1399.5L141.5 1399L141.5 1396.5L142.5 1396.5L142.5 1397ZM142.5 1403L142.5 1405L142.5 1405.5L141.5 1405.5L141.5 1405L141.5 1402.5L142.5 1402.5L142.5 1403ZM142.5 1409L142.5 1411L142.5 1411.5L141.5 1411.5L141.5 1411L141.5 1408.5L142.5 1408.5L142.5 1409ZM142.5 1415L142.5 1417L142.5 1417.5L141.5 1417.5L141.5 1417L141.5 1414.5L142.5 1414.5L142.5 1415ZM142.5 1421L142.5 1423L142.5 1423.5L141.5 1423.5L141.5 1423L141.5 1420.5L142.5 1420.5L142.5 1421ZM142.5 1427L142.5 1429L142.5 1429.5L141.5 1429.5L141.5 1429L141.5 1426.5L142.5 1426.5L142.5 1427ZM142.5 1433L142.5 1435L142.5 1435.5L141.5 1435.5L141.5 1435L141.5 1432.5L142.5 1432.5L142.5 1433ZM142.5 1439L142.5 1441L142.5 1441.5L141.5 1441.5L141.5 1441L141.5 1438.5L142.5 1438.5L142.5 1439ZM142.5 1445L142.5 1447L142.5 1447.5L141.5 1447.5L141.5 1447L141.5 1444.5L142.5 1444.5L142.5 1445ZM142.5 1451L142.5 1453L142.5 1453.5L141.5 1453.5L141.5 1453L141.5 1450.5L142.5 1450.5L142.5 1451ZM142.5 1457L142.5 1459L142.5 1459.5L141.5 1459.5L141.5 1459L141.5 1456.5L142.5 1456.5L142.5 1457ZM142.5 1463L142.5 1465L142.5 1465.5L141.5 1465.5L141.5 1465L141.5 1462.5L142.5 1462.5L142.5 1463ZM142.5 1469L142.5 1471L142.5 1471.5L141.5 1471.5L141.5 1471L141.5 1468.5L142.5 1468.5L142.5 1469ZM142.5 1475L142.5 1477L142.5 1477.5L141.5 1477.5L141.5 1477L141.5 1474.5L142.5 1474.5L142.5 1475ZM142.5 1481L142.5 1483L142.5 1483.5L141.5 1483.5L141.5 1483L141.5 1480.5L142.5 1480.5L142.5 1481ZM142.5 1487L142.5 1489L142.5 1489.5L141.5 1489.5L141.5 1489L141.5 1486.5L142.5 1486.5L142.5 1487ZM142.5 1493L142.5 1495L142.5 1495.5L141.5 1495.5L141.5 1495L141.5 1492.5L142.5 1492.5L142.5 1493ZM142.5 1499L142.5 1501L142.5 1501.5L141.5 1501.5L141.5 1501L141.5 1498.5L142.5 1498.5L142.5 1499ZM142.5 1505L142.5 1507L142.5 1507.5L141.5 1507.5L141.5 1507L141.5 1504.5L142.5 1504.5L142.5 1505ZM142.5 1511L142.5 1513L142.5 1513.5L141.5 1513.5L141.5 1513L141.5 1510.5L142.5 1510.5L142.5 1511ZM142.5 1517L142.5 1519L142.5 1519.5L141.5 1519.5L141.5 1519L141.5 1516.5L142.5 1516.5L142.5 1517ZM142.5 1523L142.5 1525L142.5 1525.5L141.5 1525.5L141.5 1525L141.5 1522.5L142.5 1522.5L142.5 1523ZM142.5 1529L142.5 1531L142.5 1531.5L141.5 1531.5L141.5 1531L141.5 1528.5L142.5 1528.5L142.5 1529ZM142.5 1535L142.5 1537L142.5 1537.5L141.5 1537.5L141.5 1537L141.5 1534.5L142.5 1534.5L142.5 1535ZM142.5 1541L142.5 1543L142.5 1543.5L141.5 1543.5L141.5 1543L141.5 1540.5L142.5 1540.5L142.5 1541ZM142.5 1547L142.5 1549L142.5 1549.5L141.5 1549.5L141.5 1549L141.5 1546.5L142.5 1546.5L142.5 1547ZM142.5 1553L142.5 1555L142.5 1555.5L141.5 1555.5L141.5 1555L141.5 1552.5L142.5 1552.5L142.5 1553ZM142.5 1559L142.5 1561L142.5 1561.5L141.5 1561.5L141.5 1561L141.5 1558.5L142.5 1558.5L142.5 1559ZM142.5 1565L142.5 1567L142.5 1567.5L141.5 1567.5L141.5 1567L141.5 1564.5L142.5 1564.5L142.5 1565ZM142.5 1571L142.5 1573L142.5 1573.5L141.5 1573.5L141.5 1573L141.5 1570.5L142.5 1570.5L142.5 1571ZM142.5 1577L142.5 1579L142.5 1579.5L141.5 1579.5L141.5 1579L141.5 1576.5L142.5 1576.5L142.5 1577ZM142.5 1583L142.5 1585L142.5 1585.5L141.5 1585.5L141.5 1585L141.5 1582.5L142.5 1582.5L142.5 1583ZM142.5 1589L142.5 1591L142.5 1591.5L141.5 1591.5L141.5 1591L141.5 1588.5L142.5 1588.5L142.5 1589ZM142.5 1595L142.5 1597L142.5 1597.5L141.5 1597.5L141.5 1597L141.5 1594.5L142.5 1594.5L142.5 1595ZM142.5 1601L142.5 1603L142.5 1603.5L141.5 1603.5L141.5 1603L141.5 1600.5L142.5 1600.5L142.5 1601ZM142.5 1607L142.5 1609L142.5 1609.5L141.5 1609.5L141.5 1609L141.5 1606.5L142.5 1606.5L142.5 1607ZM142.5 1613L142.5 1615L142.5 1615.5L141.5 1615.5L141.5 1615L141.5 1612.5L142.5 1612.5L142.5 1613ZM142.5 1619L142.5 1621L142.5 1621.5L141.5 1621.5L141.5 1621L141.5 1618.5L142.5 1618.5L142.5 1619ZM142.5 1625L142.5 1627L142.5 1627.5L141.5 1627.5L141.5 1627L141.5 1624.5L142.5 1624.5L142.5 1625ZM142.5 1631L142.5 1633L142.5 1633.5L141.5 1633.5L141.5 1633L141.5 1630.5L142.5 1630.5L142.5 1631ZM142.5 1637L142.5 1639L142.5 1639.5L141.5 1639.5L141.5 1639L141.5 1636.5L142.5 1636.5L142.5 1637ZM142.5 1643L142.5 1645L142.5 1645.5L141.5 1645.5L141.5 1645L141.5 1642.5L142.5 1642.5L142.5 1643ZM142.5 1649L142.5 1651L142.5 1651.5L141.5 1651.5L141.5 1651L141.5 1648.5L142.5 1648.5L142.5 1649ZM142.5 1655L142.5 1657L142.5 1657.5L141.5 1657.5L141.5 1657L141.5 1654.5L142.5 1654.5L142.5 1655ZM142.5 1661L142.5 1663L142.5 1663.5L141.5 1663.5L141.5 1663L141.5 1660.5L142.5 1660.5L142.5 1661ZM142.5 1667L142.5 1669L142.5 1669.5L141.5 1669.5L141.5 1669L141.5 1666.5L142.5 1666.5L142.5 1667ZM142.5 1673L142.5 1675L142.5 1675.5L141.5 1675.5L141.5 1675L141.5 1672.5L142.5 1672.5L142.5 1673ZM142.5 1679L142.5 1681L142.5 1681.5L141.5 1681.5L141.5 1681L141.5 1678.5L142.5 1678.5L142.5 1679ZM142.5 1685L142.5 1687L142.5 1687.5L141.5 1687.5L141.5 1687L141.5 1684.5L142.5 1684.5L142.5 1685ZM142.5 1691L142.5 1693L142.5 1693.5L141.5 1693.5L141.5 1693L141.5 1690.5L142.5 1690.5L142.5 1691ZM142.5 1697L142.5 1699L142.5 1699.5L141.5 1699.5L141.5 1699L141.5 1696.5L142.5 1696.5L142.5 1697ZM142.5 1703L142.5 1705L142.5 1705.5L141.5 1705.5L141.5 1705L141.5 1702.5L142.5 1702.5L142.5 1703ZM142.5 1709L142.5 1711L142.5 1711.5L141.5 1711.5L141.5 1711L141.5 1708.5L142.5 1708.5L142.5 1709ZM142.5 1715L142.5 1717L142.5 1717.5L141.5 1717.5L141.5 1717L141.5 1714.5L142.5 1714.5L142.5 1715ZM142.5 1721L142.5 1723L142.5 1723.5L141.5 1723.5L141.5 1723L141.5 1720.5L142.5 1720.5L142.5 1721ZM142.5 1727L142.5 1729L142.5 1729.5L141.5 1729.5L141.5 1729L141.5 1726.5L142.5 1726.5L142.5 1727ZM142.5 1733L142.5 1735L142.5 1735.5L141.5 1735.5L141.5 1735L141.5 1732.5L142.5 1732.5L142.5 1733ZM142.5 1739L142.5 1741L142.5 1741.5L141.5 1741.5L141.5 1741L141.5 1738.5L142.5 1738.5L142.5 1739ZM142.5 1745L142.5 1747L142.5 1747.5L141.5 1747.5L141.5 1747L141.5 1744.5L142.5 1744.5L142.5 1745ZM142.5 1751L142.5 1753L142.5 1753.5L141.5 1753.5L141.5 1753L141.5 1750.5L142.5 1750.5L142.5 1751ZM142.5 1757L142.5 1759.5L141.5 1759.5L141.5 1756.5L142.5 1756.5L142.5 1757Z"/>
		<path transform="translate(0.5 0.5)" d="M142 1760.5L144 1760.5L144.5 1760.5L144.5 1761.5L144 1761.5L141.5 1761.5L141.5 1760.5L142 1760.5ZM148 1760.5L150 1760.5L150.5 1760.5L150.5 1761.5L150 1761.5L147.5 1761.5L147.5 1760.5L148 1760.5ZM154 1760.5L156.5 1760.5L156.5 1761.5L153.5 1761.5L153.5 1760.5L154 1760.5Z"/>
		<path fill="none" stroke="black" stroke-width="1" stroke-linecap="square" stroke-miterlimit="4" transform="translate(0.5 0.5)" d="M142 806L156 806"/>
		<rect fill="silver" x="4" y="1277" width="60" height="21"/>
		<rect fill="white" y="1273" width="60" height="21"/>
		<rect fill="#FFFFC0" x="137" y="8" width="59" height="16"/>
		<text fill="gray" font-size="12" font-weight="600" font-family="Segoe UI" x="137, 144.69336, 148.10352, 155.43945, 161.19922, 167.9082, 174.40039, 180.85742, 188.29883, " y="21, ">
				BlockType
		</text>
		<rect fill="white" x="5" y="1300" width="109" height="36"/>
		<text fill="gray" font-size="9" font-family="Segoe UI" x="5, 11.310547, 16.01709, 19.066895, 23.645996, 25.825684, 28.005371, 32.711914, 38.011719, 40.477051, 42.656738, 47.75, 50.566895, 55.840332, 58.969238, 66.721191, 71.300293, 74.350098, 76.529785, 81.803223, 86.896484, 89.361816, 93.940918, 99.231934, 104.50537, 109.59863, " y="1310, ">
				Detailed information about
		</text>
		<text fill="gray" font-size="9" font-family="Segoe UI" x="5, 8.0498047, 13.143066, 17.849609, 20.314941, 25.605957, 28.734863, 33.441406, 37.598633, 39.77832, 43.597168, 48.303711, 50.769043, 52.94873, 58.222168, 62.379395, 66.958496, 70.008301, 72.187988, 77.461426, 82.554688, 85.02002, 90.293457, 93.110352, 95.575684, 98.625488, 103.71875, " y="1322, ">
				the precise location of the
		</text>
		<text fill="gray" font-size="9" font-family="Segoe UI" x="5, 9.706543, 14.97998, 17.159668, 22.25293, 25.302734, 27.768066, 33.041504, 35.858398, 38.32373, 40.71875, 45.812012, 48.861816, 53.568359, 56.697266, 61.403809, 65.222656, 68.272461, " y="1334, ">
				Point of Interest.
		</text>
		<rect fill="white" x="9" y="1275" width="39" height="16"/>
		<text font-size="12" font-weight="600" font-family="Segoe UI" x="9, 16.429688, 22.921875, 27.591797, 34.048828, 37.458984, 40.869141, " y="1288, ">
				details
		</text>
		<path fill="none" stroke="black" stroke-width="1" stroke-linecap="square" stroke-miterlimit="4" transform="translate(0.5 0.5)" d="M2 1275L7 1275"/>
		<path fill="none" stroke="black" stroke-width="1" stroke-linecap="square" stroke-miterlimit="4" transform="translate(0.5 0.5)" d="M2 1277L6 1277"/>
		<path fill="none" stroke="black" stroke-width="1" stroke-linecap="square" stroke-miterlimit="4" transform="translate(0.5 0.5)" d="M2 1279L6 1279"/>
		<rect fill="none" stroke="black" stroke-width="1" stroke-linecap="square" stroke-miterlimit="4" transform="translate(0.5 0.5)" y="1273" width="59" height="20"/>
		<path fill="white" d="M234 55L234 36L157 36L157 55L157 1575L304 1575L304 55L234 55Z"/>
		<rect fill="white" x="177" y="38" width="51" height="16"/>
		<text font-size="12" font-style="italic" font-family="Segoe UI" x="177, 183.50391, 187.38281, 191.26172, 195.5332, 198.63867, 205.14258, 211.83984, 215.73047, 221.57227, " y="51, ">
				attributes
		</text>
		<path fill="none" stroke="black" stroke-width="1" stroke-linecap="square" stroke-miterlimit="4" transform="translate(0.5 0.5)" d="M234 55L234 36L157 36L157 55L157 1575L304 1575L304 55L234 55Z"/>
		<rect fill="silver" x="175" y="68" width="52" height="21"/>
		<rect fill="white" x="171" y="64" width="52" height="21"/>
		<rect fill="white" x="176" y="91" width="101" height="24"/>
		<text fill="gray" font-size="9" font-family="Segoe UI" x="176, 180.71533, 185.80859, 190.51514, 192.98047, 195.16016, 200.43359, 204.59082, 209.16992, 211.34961, 213.81494, 215.99463, 221.29443, 226.00098, 231.09424, 234.14404, 236.32373, 239.14062, 241.32031, 246.02686, 249.15576, 251.62109, 256.89453, 259.71143, 262.17676, 265.22656, 270.31982, " y="101, ">
				The local identifier of the
		</text>
		<text fill="gray" font-size="9" font-family="Segoe UI" x="176, 181.29102, 184.41992, 189.69336, 194.98438, 199.69092, 202.81982, 205.86963, 210.22461, " y="113, ">
				property.
		</text>
		<rect fill="white" x="180" y="66" width="36" height="16"/>
		<text font-size="12" font-weight="600" font-family="Segoe UI" x="180, 183.41016, " y="79, ">
				id
		</text>
		<rect fill="none" stroke="black" stroke-width="1" stroke-linecap="square" stroke-miterlimit="4" transform="translate(0.5 0.5)" x="171" y="64" width="51" height="20"/>
		<rect fill="silver" x="175" y="126" width="58" height="21"/>
		<rect fill="white" x="171" y="122" width="58" height="21"/>
		<rect fill="white" x="176" y="149" width="121" height="120"/>
		<text fill="gray" font-size="9" font-family="Segoe UI" x="176, 178.39502, 181.21191, 183.67725, 186.72705, 191.82031, 196.52686, 198.99219, 204.2832, 207.41211, 212.68555, 217.97656, 222.68311, 225.81201, 228.86182, 233.2168, 235.68213, 239.99316, 244.57227, 246.75195, 251.84521, 256.55176, 259.01709, 261.19678, 265.01562, 267.48096, 272.57422, 277.84766, " y="159, ">
				If the property value is not
		</text>
		<text fill="gray" font-size="9" font-family="Segoe UI" x="176, 181.2998, 186.00635, 188.82324, 191.00293, 196.09619, 200.80273, 206.10254, 208.05371, 210.51904, 214.33789, 219.62891, 224.33545, 228.49268, 230.67236, 233.48926, 235.66895, 240.37549, 244.19434, 246.65967, 253.16357, 258.25684, 260.43652, 264.59375, 269.68701, 272.15234, 276.85889, 281.95215, 285.00195, 287.18164, 290.23145, " y="171, ">
				defined, specifies which entity
		</text>
		<text fill="gray" font-size="9" font-family="Segoe UI" x="176, 178.71582, 184.00684, 188.71338, 191.84229, 195.66113, 200.93457, 206.02783, 207.979, 210.44434, 215.71777, 218.84668, 224.14648, 228.72559, 233.81885, 235.99854, 239.81738, 244.39648, 247.44629, 249.62598, 254.89941, 259.99268, 262.45801, 267.73145, " y="183, ">
				(person, organisation or
		</text>
		<text fill="gray" font-size="9" font-family="Segoe UI" x="176, 179.81885, 184.17383, 187.99268, 191.04248, 195.74902, 203.50098, 206.2168, 208.68213, 215.18604, 217.36572, 219.54541, 221.7251, 224.19043, 228.89697, 234.19678, 236.37646, 239.42627, 241.8916, 244.94141, 250.03467, 254.74121, 257.20654, 262.49756, 265.62646, 270.8999, 276.19092, 280.89746, 284.02637, 287.07617, " y="195, ">
				system) will edit the property
		</text>
		<text fill="gray" font-size="9" font-family="Segoe UI" x="176, 180.31104, 184.89014, 187.06982, 192.16309, 196.86963, 199.33496, 202.93408, 205.39941, 210.10596, 214.23682, 219.52783, 222.65674, 227.36328, 231.18213, 235.00098, 239.70752, 245.00732, 247.47266, 252.76367, 257.11865, 259.58398, 264.16309, 266.62842, 273.41357, 278.98584, 284.25928, 289.55908, 294.26562, " y="207, ">
				value - expressed by a QCode.
		</text>
		<text fill="gray" font-size="9" font-family="Segoe UI" x="176, 178.39502, 181.21191, 183.67725, 186.72705, 191.82031, 196.52686, 198.99219, 204.2832, 207.41211, 212.68555, 217.97656, 222.68311, 225.81201, 228.86182, 233.2168, 235.68213, 239.99316, 244.57227, 246.75195, 251.84521, 256.55176, 259.01709, 261.19678, " y="219, ">
				If the property value is
		</text>
		<text fill="gray" font-size="9" font-family="Segoe UI" x="176, 181.2998, 186.00635, 188.82324, 191.00293, 196.09619, 200.80273, 206.10254, 208.05371, 210.51904, 214.33789, 219.62891, 224.33545, 228.49268, 230.67236, 233.48926, 235.66895, 240.37549, 244.19434, 246.65967, 253.16357, 258.25684, 260.43652, 264.59375, 269.68701, 272.15234, 276.85889, 281.95215, 285.00195, 287.18164, 290.23145, " y="231, ">
				defined, specifies which entity
		</text>
		<text fill="gray" font-size="9" font-family="Segoe UI" x="176, 178.71582, 184.00684, 188.71338, 191.84229, 195.66113, 200.93457, 206.02783, 207.979, 210.44434, 215.71777, 218.84668, 224.14648, 228.72559, 233.81885, 235.99854, 239.81738, 244.39648, 247.44629, 249.62598, 254.89941, 259.99268, 262.45801, 267.73145, " y="243, ">
				(person, organisation or
		</text>
		<text fill="gray" font-size="9" font-family="Segoe UI" x="176, 179.81885, 184.17383, 187.99268, 191.04248, 195.74902, 203.50098, 206.2168, 208.68213, 213.77539, 218.35449, 222.17334, 224.63867, 229.34521, 234.64502, 236.82471, 239.87451, 244.58105, 249.88086, 252.34619, 255.396, 260.48926, " y="255, ">
				system) has edited the
		</text>
		<text fill="gray" font-size="9" font-family="Segoe UI" x="176, 181.29102, 184.41992, 189.69336, 194.98438, 199.69092, 202.81982, 205.86963, 210.22461, 212.68994, 217.00098, 221.58008, 223.75977, 228.85303, 233.55957, " y="267, ">
				property value.
		</text>
		<rect fill="white" x="180" y="124" width="42" height="16"/>
		<text font-size="12" font-weight="600" font-family="Segoe UI" x="180, 185.75977, 190.48828, 196.98047, 203.4375, 208.06055, 215.39648, " y="137, ">
				creator
		</text>
		<rect fill="none" stroke="black" stroke-width="1" stroke-linecap="square" stroke-miterlimit="4" transform="translate(0.5 0.5)" x="171" y="122" width="57" height="20"/>
		<rect fill="silver" x="175" y="280" width="73" height="21"/>
		<rect fill="white" x="171" y="276" width="73" height="21"/>
		<rect fill="white" x="176" y="303" width="120" height="108"/>
		<text fill="gray" font-size="9" font-family="Segoe UI" x="176, 178.39502, 181.21191, 183.67725, 186.72705, 191.82031, 196.52686, 198.99219, 204.2832, 207.41211, 212.68555, 217.97656, 222.68311, 225.81201, 228.86182, 233.2168, 235.68213, 239.99316, 244.57227, 246.75195, 251.84521, 256.55176, 259.01709, 261.19678, 265.01562, 267.48096, 272.57422, 277.84766, " y="313, ">
				If the property value is not
		</text>
		<text fill="gray" font-size="9" font-family="Segoe UI" x="176, 181.2998, 186.00635, 188.82324, 191.00293, 196.09619, 200.80273, 206.10254, 208.05371, 210.51904, 214.33789, 219.62891, 224.33545, 228.49268, 230.67236, 233.48926, 235.66895, 240.37549, 244.19434, 246.65967, 253.16357, 258.25684, 260.43652, 264.59375, 269.68701, 272.15234, 276.85889, 281.95215, 285.00195, 287.18164, 290.23145, " y="325, ">
				defined, specifies which entity
		</text>
		<text fill="gray" font-size="9" font-family="Segoe UI" x="176, 178.71582, 184.00684, 188.71338, 191.84229, 195.66113, 200.93457, 206.02783, 207.979, 210.44434, 215.71777, 218.84668, 224.14648, 228.72559, 233.81885, 235.99854, 239.81738, 244.39648, 247.44629, 249.62598, 254.89941, 259.99268, 262.45801, 267.73145, " y="337, ">
				(person, organisation or
		</text>
		<text fill="gray" font-size="9" font-family="Segoe UI" x="176, 179.81885, 184.17383, 187.99268, 191.04248, 195.74902, 203.50098, 206.2168, 208.68213, 215.18604, 217.36572, 219.54541, 221.7251, 224.19043, 228.89697, 234.19678, 236.37646, 239.42627, 241.8916, 244.94141, 250.03467, 254.74121, 257.20654, 262.49756, 265.62646, 270.8999, 276.19092, 280.89746, 284.02637, 287.07617, " y="349, ">
				system) will edit the property
		</text>
		<text fill="gray" font-size="9" font-family="Segoe UI" x="176, 179.59912, 182.06445, 186.771, 190.90186, 196.19287, 199.32178, 204.02832, 207.84717, 211.66602, 216.37256, 221.67236, 224.1377, 229.42871, 233.78369, 236.24902, 240.82812, 243.29346, 249.47656, 254.85986, 257.25488, 259.20605, 261.67139, 264.06641, 266.8833, 269.34863, 272.39844, 277.4917, " y="361, ">
				- expressed by a URI. If the
		</text>
		<text fill="gray" font-size="9" font-family="Segoe UI" x="176, 181.29102, 184.41992, 189.69336, 194.98438, 199.69092, 202.81982, 205.86963, 210.22461, 212.68994, 217.00098, 221.58008, 223.75977, 228.85303, 233.55957, 236.0249, 238.20459, 242.02344, 244.48877, 249.78857, 254.49512, 257.31201, 259.4917, 264.58496, 269.2915, 274.59131, " y="373, ">
				property value is defined,
		</text>
		<text fill="gray" font-size="9" font-family="Segoe UI" x="176, 179.81885, 185.10986, 189.81641, 193.97363, 196.15332, 198.97021, 201.1499, 205.85645, 209.67529, 212.14062, 218.64453, 223.73779, 225.91748, 230.07471, 235.16797, 237.6333, 242.33984, 247.43311, 250.48291, 252.6626, 255.7124, 260.06738, 262.53271, 265.24854, 270.53955, 275.24609, 278.375, 282.19385, 287.46729, 292.56055, " y="385, ">
				specifies which entity (person,
		</text>
		<text fill="gray" font-size="9" font-family="Segoe UI" x="176, 181.27344, 184.40234, 189.70215, 194.28125, 199.37451, 201.5542, 205.37305, 209.95215, 213.00195, 215.18164, 220.45508, 225.54834, 228.01367, 233.28711, 236.41602, 238.88135, 242.7002, 247.05518, 250.87402, 253.92383, 258.63037, 266.38232, 269.09814, 271.56348, 276.65674, 281.23584, " y="397, ">
				organisation or system) has
		</text>
		<text fill="gray" font-size="9" font-family="Segoe UI" x="176, 180.70654, 186.00635, 188.18604, 191.23584, 195.94238, 201.24219, 203.70752, 206.75732, 211.85059, 216.55713, 219.02246, 224.31348, 227.44238, 232.71582, 238.00684, 242.71338, 245.84229, 248.89209, 253.24707, " y="409, ">
				edited the property.
		</text>
		<rect fill="white" x="180" y="278" width="57" height="16"/>
		<text font-size="12" font-weight="600" font-family="Segoe UI" x="180, 185.75977, 190.48828, 196.98047, 203.4375, 208.06055, 215.39648, 220.20703, 227.4668, 232.28906, " y="291, ">
				creatoruri
		</text>
		<rect fill="none" stroke="black" stroke-width="1" stroke-linecap="square" stroke-miterlimit="4" transform="translate(0.5 0.5)" x="171" y="276" width="72" height="20"/>
		<rect fill="silver" x="175" y="422" width="69" height="21"/>
		<rect fill="white" x="171" y="418" width="69" height="21"/>
		<rect fill="white" x="176" y="445" width="119" height="72"/>
		<text fill="gray" font-size="9" font-family="Segoe UI" x="176, 180.71533, 185.80859, 190.51514, 192.98047, 198.28027, 202.85938, 205.90918, 210.61572, 213.08105, 215.79688, 220.37598, 225.46924, 230.76904, 232.72021, 235.18555, 240.45898, 245.75, 248.7998, 250.97949, 256.25293, 261.34619, 265.92529, 268.10498, 270.28467, 274.63965, 276.59082, 279.05615, 282.10596, 287.19922, " y="455, ">
				The date (and, optionally, the
		</text>
		<text fill="gray" font-size="9" font-family="Segoe UI" x="176, 179.0498, 181.22949, 188.98145, 193.68799, 196.40381, 198.86914, 205.37305, 210.46631, 215.17285, 220.26611, 222.73145, 225.78125, 230.87451, 235.58105, 238.04639, 243.3374, 246.46631, 251.73975, 257.03076, 261.7373, 264.86621, 267.91602, 272.271, 274.73633, 281.24023, 285.81934, " y="467, ">
				time) when the property was
		</text>
		<text fill="gray" font-size="9" font-family="Segoe UI" x="176, 178.17969, 182.75879, 186.57764, 189.62744, 192.09277, 199.84473, 205.11816, 210.41797, 212.59766, 215.41455, 217.59424, 222.30078, 227.60059, 229.55176, 232.01709, 236.73242, 241.82568, 246.53223, 248.99756, 251.17725, 256.27051, 258.4502, 261.5, 263.67969, 268.25879, 270.43848, 272.90381, 277.21484, 281.79395, 283.97363, 289.06689, " y="479, ">
				last modified. The initial value
		</text>
		<text fill="gray" font-size="9" font-family="Segoe UI" x="176, 178.17969, 181.99854, 184.46387, 187.51367, 192.60693, 197.31348, 199.77881, 205.07861, 209.65771, 212.70752, 217.41406, 219.87939, 222.59521, 227.17432, 232.26758, 237.56738, 239.51855, 241.98389, 247.25732, 252.54834, 255.59814, 257.77783, 263.05127, 268.14453, 272.72363, 274.90332, 277.08301, 281.43799, " y="491, ">
				is the date (and, optionally,
		</text>
		<text fill="gray" font-size="9" font-family="Segoe UI" x="176, 179.0498, 184.14307, 188.84961, 191.31494, 194.36475, 196.54443, 204.29639, 209.00293, 211.71875, 214.18408, 219.45752, 222.27441, 224.73975, 228.89697, 232.02588, 236.73242, 241.31152, 244.36133, 246.54102, 251.81445, 256.90771, 259.37305, 264.64648, 267.46338, 269.92871, 272.97852, 278.07178, " y="503, ">
				the time) of creation of the
		</text>
		<text fill="gray" font-size="9" font-family="Segoe UI" x="176, 181.29102, 184.41992, 189.69336, 194.98438, 199.69092, 202.81982, 205.86963, 210.22461, " y="515, ">
				property.
		</text>
		<rect fill="white" x="180" y="420" width="53" height="16"/>
		<text font-size="12" font-weight="600" font-family="Segoe UI" x="180, 190.99219, 198.32812, 205.75781, 209.16797, 213.76758, 217.17773, 223.66992, " y="433, ">
				modified
		</text>
		<rect fill="none" stroke="black" stroke-width="1" stroke-linecap="square" stroke-miterlimit="4" transform="translate(0.5 0.5)" x="171" y="418" width="68" height="20"/>
		<rect fill="silver" x="175" y="528" width="59" height="21"/>
		<rect fill="white" x="171" y="524" width="59" height="21"/>
		<rect fill="white" x="176" y="551" width="118" height="108"/>
		<text fill="gray" font-size="9" font-family="Segoe UI" x="176, 178.39502, 181.21191, 183.67725, 187.49609, 192.20264, 195.25244, 197.71777, 200.76758, 206.04102, 208.50635, 211.55615, 214.68506, 219.77832, 224.48486, 226.9502, 230, 235.09326, " y="561, ">
				If set to true the
		</text>
		<text fill="gray" font-size="9" font-family="Segoe UI" x="176, 180.15723, 185.43066, 188.55957, 191.68848, 196.39502, 200.21387, 205.50488, 210.77832, 215.87158, 221.17139, 223.35107, 228.44434, 233.74414, 236.20947, 241.50049, 244.62939, 249.90283, 255.19385, 259.90039, 263.0293, 266.0791, 270.43408, 272.89941, 279.40332, 283.98242, " y="573, ">
				corresponding property was
		</text>
		<text fill="gray" font-size="9" font-family="Segoe UI" x="176, 180.5791, 185.87891, 191.17871, 195.88525, 201.18506, 203.65039, 206.7002, 211.97363, 214.43896, 217.48877, 222.58203, 227.28857, 229.75391, 235.92822, 240.77979, 243.24512, 245.64014, 248.68994, 253.39648, 261.14844, 263.61377, 266.43066, 271.7041, 274.83301, 277.29834, " y="585, ">
				added to the G2 Item for a
		</text>
		<text fill="gray" font-size="9" font-family="Segoe UI" x="176, 179.81885, 185.10986, 189.81641, 193.97363, 196.15332, 198.97021, 201.1499, 205.30713, 207.77246, 211.92969, 217.02295, 220.8418, 223.8916, 229.16504, 236.91699, 241.62354, 244.75244, 247.21777, 252.49121, 255.62012, 258.08545, 263.38525, 266.51416, 271.7876, 276.88086, 282.17188, 284.63721, 289.91064, " y="597, ">
				specific customer or group of
		</text>
		<text fill="gray" font-size="9" font-family="Segoe UI" x="176, 180.15723, 185.25049, 189.06934, 192.11914, 197.39258, 205.14453, 209.85107, 212.97998, 216.79883, 219.26416, 224.5376, 229.63086, 231.81055, 236.16553, 238.1167, 240.58203, 245.29736, 250.39062, 255.09717, 257.5625, 262.8623, 267.56885, 270.38574, 274.96484, 280.05811, 282.23779, " y="609, ">
				customers only. The default
		</text>
		<text fill="gray" font-size="9" font-family="Segoe UI" x="176, 180.31104, 184.89014, 187.06982, 192.16309, 196.86963, 199.33496, 204.6084, 207.42529, 209.89062, 212.94043, 218.03369, 220.21338, 224.03223, 226.49756, 231.78857, 234.91748, 240.19092, 245.48193, 250.18848, 253.31738, 256.36719, 260.72217, 263.1875, 265.36719, 269.18604, 271.65137, 274.46826, 279.04736, 281.22705, 285.0459, " y="621, ">
				value of this property is false
		</text>
		<text fill="gray" font-size="9" font-family="Segoe UI" x="176, 182.50391, 187.59717, 189.77686, 193.93408, 199.02734, 201.49268, 206.07178, 211.36279, 216.65381, 218.8335, 221.01318, 225.71973, 229.53857, 232.00391, 238.50781, 243.60107, 248.30762, 253.40088, 255.86621, 258.91602, 264.00928, 266.18896, " y="633, ">
				which applies when this
		</text>
		<text fill="gray" font-size="9" font-family="Segoe UI" x="176, 180.5791, 183.62891, 186.67871, 189.80762, 191.9873, 197.27832, 202.37158, 205.42139, 210.12793, 212.59326, 214.77295, 218.5918, 221.05713, 226.15039, 231.42383, 234.47363, 236.93896, 242.03223, 245.85107, 250.55762, 255.85742, 258.32275, 264.82666, 267.00635, 270.05615, 275.14941, 277.61475, 280.66455, 285.75781, " y="645, ">
				attribute is not used with the
		</text>
		<text fill="gray" font-size="9" font-family="Segoe UI" x="176, 181.29102, 184.41992, 189.69336, 194.98438, 199.69092, 202.81982, 205.86963, 210.22461, " y="657, ">
				property.
		</text>
		<rect fill="white" x="180" y="526" width="43" height="16"/>
		<text font-size="12" font-weight="600" font-family="Segoe UI" x="180, 185.75977, 193.01953, 198.29883, 202.92188, 210.25781, " y="539, ">
				custom
		</text>
		<rect fill="none" stroke="black" stroke-width="1" stroke-linecap="square" stroke-miterlimit="4" transform="translate(0.5 0.5)" x="171" y="524" width="58" height="20"/>
		<rect fill="silver" x="175" y="670" width="52" height="21"/>
		<rect fill="white" x="171" y="666" width="52" height="21"/>
		<rect fill="white" x="176" y="693" width="118" height="48"/>
		<text fill="gray" font-size="9" font-family="Segoe UI" x="176, 178.39502, 183.48828, 188.78809, 190.96777, 195.125, 199.7041, 202.75391, 207.46045, 211.2793, 213.74463, 219.03564, 223.39062, 225.85596, 232.35986, 237.45312, 239.63281, 243.79004, 248.8833, 251.34863, 259.10059, 263.80713, 268.38623, 273.47949, 277.29834, 279.76367, 282.81348, 287.90674, " y="703, ">
				Indicates by which means the
		</text>
		<text fill="gray" font-size="9" font-family="Segoe UI" x="176, 180.31104, 184.89014, 187.06982, 192.16309, 196.86963, 199.33496, 205.83887, 210.41797, 214.23682, 216.70215, 221.40869, 225.53955, 228.58936, 231.71826, 236.29736, 240.45459, 243.50439, 248.21094, 253.51074, 255.97607, 258.79297, 261.92188, 267.19531, 274.94727, 277.4126, 280.4624, 285.55566, " y="715, ">
				value was extracted from the
		</text>
		<text fill="gray" font-size="9" font-family="Segoe UI" x="176, 180.15723, 185.43066, 190.52393, 193.57373, 198.28027, 203.37354, 206.42334, 208.88867, 212.48779, 214.95312, 219.65967, 223.79053, 229.08154, 232.21045, 236.91699, 240.73584, 244.55469, 249.26123, 254.56104, 257.02637, 262.31738, 266.67236, 269.1377, " y="727, ">
				content - expressed by a
		</text>
		<text fill="gray" font-size="9" font-family="Segoe UI" x="176, 182.78516, 188.35742, 193.63086, 198.93066, " y="739, ">
				QCode
		</text>
		<rect fill="white" x="180" y="668" width="36" height="16"/>
		<text font-size="12" font-weight="600" font-family="Segoe UI" x="180, 187.22461, 194.56055, " y="681, ">
				how
		</text>
		<rect fill="none" stroke="black" stroke-width="1" stroke-linecap="square" stroke-miterlimit="4" transform="translate(0.5 0.5)" x="171" y="666" width="51" height="20"/>
		<rect fill="silver" x="175" y="752" width="57" height="21"/>
		<rect fill="white" x="171" y="748" width="57" height="21"/>
		<rect fill="white" x="176" y="775" width="118" height="36"/>
		<text fill="gray" font-size="9" font-family="Segoe UI" x="176, 178.39502, 183.48828, 188.78809, 190.96777, 195.125, 199.7041, 202.75391, 207.46045, 211.2793, 213.74463, 219.03564, 223.39062, 225.85596, 232.35986, 237.45312, 239.63281, 243.79004, 248.8833, 251.34863, 259.10059, 263.80713, 268.38623, 273.47949, 277.29834, 279.76367, 282.81348, 287.90674, " y="785, ">
				Indicates by which means the
		</text>
		<text fill="gray" font-size="9" font-family="Segoe UI" x="176, 180.31104, 184.89014, 187.06982, 192.16309, 196.86963, 199.33496, 205.83887, 210.41797, 214.23682, 216.70215, 221.40869, 225.53955, 228.58936, 231.71826, 236.29736, 240.45459, 243.50439, 248.21094, 253.51074, 255.97607, 258.79297, 261.92188, 267.19531, 274.94727, 277.4126, 280.4624, 285.55566, " y="797, ">
				value was extracted from the
		</text>
		<text fill="gray" font-size="9" font-family="Segoe UI" x="176, 180.15723, 185.43066, 190.52393, 193.57373, 198.28027, 203.37354, 206.42334, 208.88867, 212.48779, 214.95312, 219.65967, 223.79053, 229.08154, 232.21045, 236.91699, 240.73584, 244.55469, 249.26123, 254.56104, 257.02637, 262.31738, 266.67236, 269.1377, 273.7168, 276.18213, 282.36523, 287.74854, " y="809, ">
				content - expressed by a URI
		</text>
		<rect fill="white" x="180" y="750" width="41" height="16"/>
		<text font-size="12" font-weight="600" font-family="Segoe UI" x="180, 187.22461, 194.56055, 204.12891, 211.38867, 216.21094, " y="763, ">
				howuri
		</text>
		<rect fill="none" stroke="black" stroke-width="1" stroke-linecap="square" stroke-miterlimit="4" transform="translate(0.5 0.5)" x="171" y="748" width="56" height="20"/>
		<rect fill="silver" x="175" y="822" width="52" height="21"/>
		<rect fill="white" x="171" y="818" width="52" height="21"/>
		<rect fill="white" x="176" y="845" width="113" height="36"/>
		<text fill="gray" font-size="9" font-family="Segoe UI" x="176, 184.40674, 189.5, 193.85498, 196.32031, 199.37012, 204.46338, 209.16992, 211.63525, 219.38721, 224.09375, 227.14355, 231.72266, 237.02246, 241.60156, 244.65137, 249.23047, 251.6958, 256.78906, 261.36816, 265.18701, 267.65234, 272.94336, 277.6499, 282.35645, " y="855, ">
				Why the metadata has been
		</text>
		<text fill="gray" font-size="9" font-family="Segoe UI" x="176, 178.17969, 183.27295, 187.43018, 189.60986, 194.70312, 200.00293, 204.70947, 210.00928, 212.47461, 216.07373, 218.53906, 223.24561, 227.37646, 232.66748, 235.79639, 240.50293, 244.32178, 248.14062, 252.84717, 258.14697, 260.6123, 265.90332, 270.2583, 272.72363, " y="867, ">
				included - expressed by a
		</text>
		<text fill="gray" font-size="9" font-family="Segoe UI" x="176, 182.78516, 188.35742, 193.63086, 198.93066, " y="879, ">
				QCode
		</text>
		<rect fill="white" x="180" y="820" width="36" height="16"/>
		<text font-size="12" font-weight="600" font-family="Segoe UI" x="180, 189.56836, 196.79297, " y="833, ">
				why
		</text>
		<rect fill="none" stroke="black" stroke-width="1" stroke-linecap="square" stroke-miterlimit="4" transform="translate(0.5 0.5)" x="171" y="818" width="51" height="20"/>
		<rect fill="silver" x="175" y="892" width="56" height="21"/>
		<rect fill="white" x="171" y="888" width="56" height="21"/>
		<rect fill="white" x="176" y="915" width="119" height="24"/>
		<text fill="gray" font-size="9" font-family="Segoe UI" x="176, 184.40674, 189.5, 193.85498, 196.32031, 199.37012, 204.46338, 209.16992, 211.63525, 219.38721, 224.09375, 227.14355, 231.72266, 237.02246, 241.60156, 244.65137, 249.23047, 251.6958, 256.78906, 261.36816, 265.18701, 267.65234, 272.94336, 277.6499, 282.35645, " y="925, ">
				Why the metadata has been
		</text>
		<text fill="gray" font-size="9" font-family="Segoe UI" x="176, 178.17969, 183.27295, 187.43018, 189.60986, 194.70312, 200.00293, 204.70947, 210.00928, 212.47461, 216.07373, 218.53906, 223.24561, 227.37646, 232.66748, 235.79639, 240.50293, 244.32178, 248.14062, 252.84717, 258.14697, 260.6123, 265.90332, 270.2583, 272.72363, 277.30273, 279.76807, 285.95117, 291.33447, " y="937, ">
				included - expressed by a URI
		</text>
		<rect fill="white" x="180" y="890" width="40" height="16"/>
		<text font-size="12" font-weight="600" font-family="Segoe UI" x="180, 189.56836, 196.79297, 203.25, 210.50977, 215.33203, " y="903, ">
				whyuri
		</text>
		<rect fill="none" stroke="black" stroke-width="1" stroke-linecap="square" stroke-miterlimit="4" transform="translate(0.5 0.5)" x="171" y="888" width="55" height="20"/>
		<rect fill="silver" x="175" y="950" width="97" height="21"/>
		<rect fill="white" x="171" y="946" width="97" height="21"/>
		<rect fill="white" x="176" y="973" width="117" height="72"/>
		<text fill="gray" font-size="9" font-family="Segoe UI" x="176, 182.78516, 187.87842, 192.58496, 195.05029, 200.32373, 203.45264, 205.91797, 213.66992, 218.24902, 223.34229, 227.69727, 230.1626, 234.31982, 239.59326, 244.68652, 248.50537, 251.55518, 254.68408, 259.26318, 261.44287, 266.53613, 269.58594, 273.40479, 275.87012, 278.91992, 284.01318, 288.59229, " y="983, ">
				One or many constraints that
		</text>
		<text fill="gray" font-size="9" font-family="Segoe UI" x="176, 180.5791, 185.87012, 191.16113, 193.34082, 197.6958, 200.16113, 203.21094, 208.48438, 210.94971, 216.24072, 221.33398, 226.625, 228.80469, 230.98438, 234.80322, 239.89648, 242.07617, 247.16943, 252.46924, 254.93457, 257.98438, 263.07764, 267.78418, 270.24951, 274.56055, 279.13965, 281.31934, 286.4126, " y="995, ">
				apply to publishing the value
		</text>
		<text fill="gray" font-size="9" font-family="Segoe UI" x="176, 181.27344, 184.09033, 186.55566, 189.60547, 194.69873, 199.40527, 201.87061, 207.16162, 210.29053, 215.56396, 220.85498, 225.56152, 228.69043, 231.74023, 236.09521, 238.56055, 242.15967, 244.625, 249.33154, 253.4624, 258.75342, 261.88232, 266.58887, 270.40771, 274.22656, 278.93311, " y="1007, ">
				of the property - expressed
		</text>
		<text fill="gray" font-size="9" font-family="Segoe UI" x="176, 181.29102, 185.646, 188.11133, 192.69043, 195.15576, 201.94092, 207.51318, 212.78662, 218.08643, 222.79297, 224.74414, 227.20947, 231.76221, 236.34131, 240.49854, 245.5918, 248.05713, 252.21436, 257.48779, 262.58105, 266.3999, 269.44971, 272.57861, 277.15771, 279.3374, 284.43066, " y="1019, ">
				by a QCode. Each constraint
		</text>
		<text fill="gray" font-size="9" font-family="Segoe UI" x="176, 180.5791, 185.87012, 191.16113, 193.34082, 195.52051, 200.22705, 204.0459, 206.51123, 209.56104, 214.83447, 217.2998, 221.87891, 224.05859, 226.23828, 228.70361, 234.00342, 238.70996, 242.52881, 246.68604, 251.39258, 256.48584, 261.78564, 266.36475, 271.45801, " y="1031, ">
				applies to all descendant
		</text>
		<text fill="gray" font-size="9" font-family="Segoe UI" x="176, 180.70654, 182.88623, 187.59277, 195.34473, 200.05127, 205.14453, 208.19434, 212.01318, " y="1043, ">
				elements.
		</text>
		<rect fill="white" x="180" y="948" width="81" height="16"/>
		<text font-size="12" font-weight="600" font-family="Segoe UI" x="180, 187.44141, 194.70117, 202.14258, 207.90234, 215.23828, 222.49805, 227.77734, 232.44727, 237.22266, 243.67969, 247.08984, 254.34961, " y="961, ">
				pubconstraint
		</text>
		<rect fill="none" stroke="black" stroke-width="1" stroke-linecap="square" stroke-miterlimit="4" transform="translate(0.5 0.5)" x="171" y="946" width="96" height="20"/>
		<rect fill="silver" x="175" y="1056" width="112" height="21"/>
		<rect fill="white" x="171" y="1052" width="112" height="21"/>
		<rect fill="white" x="176" y="1079" width="117" height="72"/>
		<text fill="gray" font-size="9" font-family="Segoe UI" x="176, 182.78516, 187.87842, 192.58496, 195.05029, 200.32373, 203.45264, 205.91797, 213.66992, 218.24902, 223.34229, 227.69727, 230.1626, 234.31982, 239.59326, 244.68652, 248.50537, 251.55518, 254.68408, 259.26318, 261.44287, 266.53613, 269.58594, 273.40479, 275.87012, 278.91992, 284.01318, 288.59229, " y="1089, ">
				One or many constraints that
		</text>
		<text fill="gray" font-size="9" font-family="Segoe UI" x="176, 180.5791, 185.87012, 191.16113, 193.34082, 197.6958, 200.16113, 203.21094, 208.48438, 210.94971, 216.24072, 221.33398, 226.625, 228.80469, 230.98438, 234.80322, 239.89648, 242.07617, 247.16943, 252.46924, 254.93457, 257.98438, 263.07764, 267.78418, 270.24951, 274.56055, 279.13965, 281.31934, 286.4126, " y="1101, ">
				apply to publishing the value
		</text>
		<text fill="gray" font-size="9" font-family="Segoe UI" x="176, 181.27344, 184.09033, 186.55566, 189.60547, 194.69873, 199.40527, 201.87061, 207.16162, 210.29053, 215.56396, 220.85498, 225.56152, 228.69043, 231.74023, 236.09521, 238.56055, 242.15967, 244.625, 249.33154, 253.4624, 258.75342, 261.88232, 266.58887, 270.40771, 274.22656, 278.93311, " y="1113, ">
				of the property - expressed
		</text>
		<text fill="gray" font-size="9" font-family="Segoe UI" x="176, 181.29102, 185.646, 188.11133, 192.69043, 195.15576, 201.33887, 206.72217, 209.11719, 211.06836, 213.53369, 218.08643, 222.66553, 226.82275, 231.91602, 234.38135, 238.53857, 243.81201, 248.90527, 252.72412, 255.77393, 258.90283, 263.48193, 265.66162, 270.75488, " y="1125, ">
				by a URI. Each constraint
		</text>
		<text fill="gray" font-size="9" font-family="Segoe UI" x="176, 180.5791, 185.87012, 191.16113, 193.34082, 195.52051, 200.22705, 204.0459, 206.51123, 209.56104, 214.83447, 217.2998, 221.87891, 224.05859, 226.23828, 228.70361, 234.00342, 238.70996, 242.52881, 246.68604, 251.39258, 256.48584, 261.78564, 266.36475, 271.45801, " y="1137, ">
				applies to all descendant
		</text>
		<text fill="gray" font-size="9" font-family="Segoe UI" x="176, 180.70654, 182.88623, 187.59277, 195.34473, 200.05127, 205.14453, 208.19434, 212.01318, " y="1149, ">
				elements.
		</text>
		<rect fill="white" x="180" y="1054" width="96" height="16"/>
		<text font-size="12" font-weight="600" font-family="Segoe UI" x="180, 187.44141, 194.70117, 202.14258, 207.90234, 215.23828, 222.49805, 227.77734, 232.44727, 237.22266, 243.67969, 247.08984, 254.34961, 259.01953, 266.2793, 271.10156, " y="1067, ">
				pubconstrainturi
		</text>
		<rect fill="none" stroke="black" stroke-width="1" stroke-linecap="square" stroke-miterlimit="4" transform="translate(0.5 0.5)" x="171" y="1052" width="111" height="20"/>
		<rect fill="silver" x="175" y="1162" width="66" height="21"/>
		<rect fill="white" x="171" y="1158" width="66" height="21"/>
		<rect fill="white" x="176" y="1185" width="121" height="84"/>
		<text fill="gray" font-size="9" font-family="Segoe UI" x="176, 180.78125, 186.07227, 190.77881, 194.93604, 197.11572, 199.93262, 202.1123, 206.81885, 210.6377, 213.10303, 216.15283, 221.24609, 225.95264, 228.41797, 230.59766, 235.17676, 240.27002, 245.56982, 250.66309, 255.24219, 260.54199, 265.24854, 267.71387, 272.9873, 275.8042, 278.26953, 281.31934, 286.4126, 288.59229, " y="1195, ">
				Specifies the language of this
		</text>
		<text fill="gray" font-size="9" font-family="Segoe UI" x="176, 181.29102, 184.41992, 189.69336, 194.98438, 199.69092, 202.81982, 205.86963, 210.22461, 212.68994, 217.26904, 222.3623, 227.66211, 230.12744, 235.41846, 240.69189, 243.7417, 248.44824, 253.5415, 256.59131, 258.771, 263.3501, 265.52979, 267.70947, 272.06445, 274.52979, 279.10889, 281.28857, " y="1207, ">
				property and potentially all
		</text>
		<text fill="gray" font-size="9" font-family="Segoe UI" x="176, 181.2998, 186.00635, 189.8252, 193.98242, 198.68896, 203.78223, 209.08203, 213.66113, 218.75439, 221.8042, 224.26953, 229.56055, 232.68945, 237.96289, 243.25391, 247.96045, 251.08936, 254.13916, 256.31885, 261.02539, 264.84424, " y="1219, ">
				descendant properties.
		</text>
		<text fill="gray" font-size="9" font-family="Segoe UI" x="176, 180.13086, 187.88281, 190.0625, 192.01367, 194.19336, 198.77246, 203.86572, 209.16553, 211.63086, 215.94189, 220.521, 222.70068, 227.79395, 232.50049, 236.31934, 238.78467, 244.05811, 246.875, 249.34033, 254.64014, 259.34668, 263.16553, 267.32275, 272.0293, 277.12256, 282.42236, 287.00146, 292.09473, " y="1231, ">
				xml:lang values of descendant
		</text>
		<text fill="gray" font-size="9" font-family="Segoe UI" x="176, 181.29102, 184.41992, 189.69336, 194.98438, 199.69092, 202.81982, 205.86963, 208.04932, 212.75586, 216.57471, 219.04004, 224.31348, 228.62451, 233.33105, 236.45996, 239.58887, 241.76855, 247.06836, 251.7749, 254.24023, 257.29004, 262.3833, 264.56299, 268.38184, 270.84717, 275.1582, 279.7373, 281.91699, 287.01025, 291.7168, " y="1243, ">
				properties override this value.
		</text>
		<text fill="gray" font-size="9" font-family="Segoe UI" x="176, 180.93066, 185.50977, 187.68945, 192.78271, 197.48926, 201.30811, 203.77344, 208.35254, 211.48145, 216.18799, 218.65332, 223.95312, 228.65967, 231.70947, 236.41602, 239.54492, 247.29688, 249.47656, 254.56982, 259.27637, 264.57617, 267.0415, 272.33252, " y="1255, ">
				Values are determined by
		</text>
		<text fill="gray" font-size="9" font-family="Segoe UI" x="176, 178.39502, 183.48828, 186.53809, 191.24463, 194.37354, 199.4668, 204.17334, 207.22314, 209.68848, 214.84766, 220.41992, 225.46045, 227.92578, 232.77734, 237.62891, " y="1267, ">
				Internet BCP 47.
		</text>
		<rect fill="white" x="180" y="1160" width="50" height="16"/>
		<text font-size="12" font-weight="600" font-family="Segoe UI" x="180, 186.62695, 197.61914, 201.0293, 204.28125, 207.69141, 214.14844, 221.4082, " y="1173, ">
				xml:lang
		</text>
		<path fill="none" stroke="black" stroke-width="2" stroke-miterlimit="4" transform="translate(0.5 0.5)" d="M173 1176L177 1172"/>
		<path fill="none" stroke="black" stroke-width="1" stroke-linecap="square" stroke-miterlimit="4" transform="translate(0.5 0.5)" d="M174 1172L177 1172L177 1175"/>
		<rect fill="none" stroke="black" stroke-width="1" stroke-linecap="square" stroke-miterlimit="4" transform="translate(0.5 0.5)" x="171" y="1158" width="65" height="20"/>
		<rect fill="silver" x="175" y="1280" width="52" height="21"/>
		<rect fill="white" x="171" y="1276" width="52" height="21"/>
		<rect fill="white" x="176" y="1303" width="116" height="24"/>
		<text fill="gray" font-size="9" font-family="Segoe UI" x="176, 180.71533, 185.80859, 190.51514, 192.98047, 198.28027, 200.45996, 203.58887, 208.29541, 212.45264, 215.50244, 217.68213, 222.95557, 228.04883, 232.62793, 234.80762, 236.9873, 240.03711, 244.39209, 246.85742, 252.13086, 254.94775, 257.41309, 260.46289, 265.16943, 269.30029, 272.3501, 277.44336, 282.02246, " y="1313, ">
				The directionality of textual
		</text>
		<text fill="gray" font-size="9" font-family="Segoe UI" x="176, 180.15723, 185.43066, 190.52393, 193.57373, 198.28027, 203.37354, 206.42334, 208.88867, 211.60449, 216.31104, 221.4043, 226.49756, 234.24951, 238.95605, 242.08496, 246.66406, 249.71387, 251.89355, 257.16699, 262.26025, 264.21143, 266.67676, 268.85645, 271.90625, 275.03516, 276.98633, 279.45166, 282.58057, 285.63037, 287.81006, " y="1325, ">
				content (enumeration: ltr, rtl)
		</text>
		<rect fill="white" x="180" y="1278" width="36" height="16"/>
		<text font-size="12" font-weight="600" font-family="Segoe UI" x="180, 187.42969, 190.83984, " y="1291, ">
				dir
		</text>
		<rect fill="none" stroke="black" stroke-width="1" stroke-linecap="square" stroke-miterlimit="4" transform="translate(0.5 0.5)" x="171" y="1276" width="51" height="20"/>
		<rect fill="silver" x="175" y="1338" width="52" height="21"/>
		<rect fill="white" x="171" y="1334" width="52" height="21"/>
		<rect fill="white" x="176" y="1361" width="115" height="60"/>
		<text fill="gray" font-size="9" font-family="Segoe UI" x="176, 181.80518, 186.89844, 189.36377, 191.54346, 196.63672, 201.93652, 204.11621, 208.27344, 212.85254, 215.90234, 218.08203, 223.35547, 228.44873, 230.91406, 236.1875, 239.00439, 241.46973, 244.51953, 249.61279, 254.31934, 256.78467, 259.83447, 264.41357, 267.54248, 272.84229, 277.54883, " y="1371, ">
				An indication of the target
		</text>
		<text fill="gray" font-size="9" font-family="Segoe UI" x="176, 183.75195, 188.4585, 193.7583, 195.93799, 200.51709, 202.98242, 206.03223, 210.38721, 215.67822, 220.38477, 223.10059, 226.91943, " y="1383, ">
				media type(s)
		</text>
		<text fill="gray" font-size="9" font-family="Segoe UI" x="176, 180.31104, 184.89014, 187.06982, 192.16309, 196.86963, 200.68848, 203.15381, 207.73291, 211.55176, 214.01709, 219.31689, 224.02344, 226.84033, 229.02002, 234.11328, 238.81982, 244.11963, 246.58496, 251.87598, 256.23096, 258.69629, 261.74609, 266.83936, " y="1395, ">
				values as defined by the
		</text>
		<text fill="gray" font-size="9" font-family="Segoe UI" x="176, 181.57227, 186.15137, 189.97021, 194.12744, 198.70654, 204.00635, 206.18604, 211.2793, 216.5791, 219.04443, 223.53564, 226.58545, 230.94043, 233.12012, 237.82666, 240.29199, 245.07324, 250.1665, 254.87305, 259.57959, 262.62939, 266.44824, 268.91357, 271.62939, 277.20166, 281.98291, 286.76416, " y="1407, ">
				Cascading Style Sheets (CSS)
		</text>
		<text fill="gray" font-size="9" font-family="Segoe UI" x="176, 179.81885, 185.10986, 189.81641, 193.97363, 196.15332, 198.97021, 201.1499, 205.30713, 209.88623, 212.93604, 215.11572, 220.38916, 225.48242, " y="1419, ">
				specification.
		</text>
		<rect fill="white" x="180" y="1336" width="36" height="16"/>
		<text font-size="12" font-weight="600" font-family="Segoe UI" x="180, 190.99219, 197.48438, 204.91406, 208.32422, " y="1349, ">
				media
		</text>
		<rect fill="none" stroke="black" stroke-width="1" stroke-linecap="square" stroke-miterlimit="4" transform="translate(0.5 0.5)" x="171" y="1334" width="51" height="20"/>
		<rect fill="silver" x="175" y="1432" width="52" height="21"/>
		<rect fill="white" x="171" y="1428" width="52" height="21"/>
		<rect fill="white" x="176" y="1455" width="120" height="24"/>
		<text fill="gray" font-size="9" font-family="Segoe UI" x="176, 181.80518, 184.27051, 187.39941, 192.10596, 194.92285, 197.10254, 202.1958, 206.90234, 214.6543, 219.36084, 224.4541, 227.50391, 229.96924, 235.24268, 238.05957, 240.5249, 243.57471, 248.66797, 253.37451, 255.83984, 259.65869, 264.36523, 272.11719, 276.69629, 281.78955, 284.83936, 287.01904, 291.17627, " y="1465, ">
				A refinement of the semantics
		</text>
		<text fill="gray" font-size="9" font-family="Segoe UI" x="176, 181.27344, 184.09033, 186.55566, 189.60547, 194.69873, 199.40527, 201.87061, 207.16162, 209.34131, 214.61475, 218.77197, 223.24561, " y="1477, ">
				of the block.
		</text>
		<rect fill="white" x="180" y="1430" width="36" height="16"/>
		<text font-size="12" font-weight="600" font-family="Segoe UI" x="180, 184.72852, 192.06445, 195.47461, " y="1443, ">
				role
		</text>
		<rect fill="none" stroke="black" stroke-width="1" stroke-linecap="square" stroke-miterlimit="4" transform="translate(0.5 0.5)" x="171" y="1428" width="51" height="20"/>
		<rect fill="silver" x="175" y="1490" width="55" height="21"/>
		<rect fill="white" x="171" y="1486" width="55" height="21"/>
		<rect fill="white" x="176" y="1513" width="114" height="24"/>
		<text fill="gray" font-size="9" font-family="Segoe UI" x="176, 181.80518, 184.27051, 190.45361, 195.83691, 198.23193, 200.69727, 202.87695, 208.17676, 212.8833, 217.97656, 221.02637, 223.20605, 226.02295, 230.37793, 232.55762, 237.65088, 242.95068, 245.41602, 248.46582, 253.55908, 258.26562, 260.73096, 263.85986, 268.56641, 271.3833, 273.56299, 278.65625, 283.36279, " y="1523, ">
				A URI identifying the refined
		</text>
		<text fill="gray" font-size="9" font-family="Segoe UI" x="176, 179.81885, 184.52539, 192.27734, 196.85645, 201.94971, 204.99951, 207.1792, 211.33643, 215.15527, 217.62061, 222.89404, 225.71094, 228.17627, 231.22607, 236.31934, 241.02588, 243.49121, 248.79102, 253.49756, 256.31445, 258.49414, 263.5874, 265.76709, 268.81689, 270.99658, 276.27002, 281.36328, " y="1535, ">
				semantics of the definition.
		</text>
		<rect fill="white" x="180" y="1488" width="39" height="16"/>
		<text font-size="12" font-weight="600" font-family="Segoe UI" x="180, 184.72852, 192.06445, 195.47461, 201.9668, 209.22656, 214.04883, " y="1501, ">
				roleuri
		</text>
		<rect fill="none" stroke="black" stroke-width="1" stroke-linecap="square" stroke-miterlimit="4" transform="translate(0.5 0.5)" x="171" y="1486" width="54" height="20"/>
		<path fill="silver" d="M175 1553L180 1548L248 1548L253 1553L253 1564L248 1569L180 1569L175 1564L175 1553Z"/>
		<path fill="white" d="M171 1549L176 1544L244 1544L249 1549L249 1560L244 1565L176 1565L171 1560L171 1549Z"/>
		<rect fill="white" x="198" y="1546" width="46" height="16"/>
		<text font-size="12" font-weight="600" font-family="Segoe UI" x="198, 205.10742, 212.21484, 219.55078, 224.2207, 231.44531, 237.9375, " y="1559, ">
				##other
		</text>
		<rect fill="white" x="176" y="1546" width="20" height="16"/>
		<text fill="gray" font-size="12" font-family="Segoe UI" x="176, 182.10547, 188.89648, " y="1559, ">
				any
		</text>
		<path fill="none" stroke="black" stroke-width="1" stroke-linecap="square" stroke-miterlimit="4" transform="translate(0.5 0.5)" d="M171 1549L176 1544L243 1544L248 1549L248 1559L243 1564L176 1564L171 1559L171 1549Z"/>
		<rect x="162" y="41" width="11" height="11"/>
		<rect fill="white" x="163" y="42" width="9" height="9"/>
		<rect x="164" y="46" width="7" height="1"/>
		<path fill="none" stroke="black" stroke-width="1" stroke-linecap="square" stroke-miterlimit="4" transform="translate(0.5 0.5)" d="M202 1761L210 1761"/>
		<path fill="none" stroke="black" stroke-width="1" stroke-linecap="square" stroke-miterlimit="4" transform="translate(0.5 0.5)" d="M211 1761L211 1599"/>
		<path fill="none" stroke="black" stroke-width="1" stroke-linecap="square" stroke-miterlimit="4" transform="translate(0.5 0.5)" d="M211 1761L211 1924"/>
		<path fill="none" stroke="black" stroke-width="1" stroke-linecap="square" stroke-miterlimit="4" transform="translate(0.5 0.5)" d="M211 1598L225 1598"/>
		<path fill="none" stroke="black" stroke-width="1" stroke-linecap="square" stroke-miterlimit="4" transform="translate(0.5 0.5)" d="M211 1661L225 1661"/>
		<path fill="none" stroke="black" stroke-width="1" stroke-linecap="square" stroke-miterlimit="4" transform="translate(0.5 0.5)" d="M211 1736L225 1736"/>
		<path fill="none" stroke="black" stroke-width="1" stroke-linecap="square" stroke-miterlimit="4" transform="translate(0.5 0.5)" d="M211 1811L225 1811"/>
		<path fill="none" stroke="black" stroke-width="1" stroke-linecap="square" stroke-miterlimit="4" transform="translate(0.5 0.5)" d="M211 1862L225 1862"/>
		<path fill="none" stroke="black" stroke-width="1" stroke-linecap="square" stroke-miterlimit="4" transform="translate(0.5 0.5)" d="M211 1925L225 1925"/>
		<path fill="silver" d="M164 1763L169 1758L194 1758L199 1763L199 1774L194 1779L169 1779L164 1774L164 1763Z"/>
		<path fill="white" d="M160 1759L165 1754L189 1754L194 1759L194 1769L189 1774L165 1774L160 1769L160 1759Z"/>
		<path transform="translate(0.5 0.5)" d="M163.889 1754.4L164.793 1753.5L165.929 1753.5L166.429 1753.5L166.429 1754.5L165.929 1754.5L165 1754.5L165 1754L165.354 1754.35L164.243 1755.46L163.536 1754.76L163.889 1754.4ZM169.929 1753.5L171.929 1753.5L172.429 1753.5L172.429 1754.5L171.929 1754.5L169.429 1754.5L169.429 1753.5L169.929 1753.5ZM175.929 1753.5L177.929 1753.5L178.429 1753.5L178.429 1754.5L177.929 1754.5L175.429 1754.5L175.429 1753.5L175.929 1753.5ZM181.929 1753.5L183.929 1753.5L184.429 1753.5L184.429 1754.5L183.929 1754.5L181.429 1754.5L181.429 1753.5L181.929 1753.5ZM187.929 1753.5L189.207 1753.5L190.01 1754.3L190.364 1754.66L189.657 1755.36L189.303 1755.01L188.646 1754.35L189 1754L189 1754.5L187.429 1754.5L187.429 1753.5L187.929 1753.5ZM192.839 1757.13L194.253 1758.55L194.607 1758.9L193.899 1759.61L193.546 1759.25L191.778 1757.49L192.485 1756.78L192.839 1757.13ZM194.5 1762.86L194.5 1764.86L194.5 1765.36L193.5 1765.36L193.5 1764.86L193.5 1762.36L194.5 1762.36L194.5 1762.86ZM194.5 1768.86L194.5 1769.21L193.04 1770.67L192.686 1771.02L191.979 1770.31L192.333 1769.96L193.646 1768.65L194 1769L193.5 1769L193.5 1768.36L194.5 1768.36L194.5 1768.86ZM190.211 1773.5L189.207 1774.5L188.213 1774.5L187.713 1774.5L187.713 1773.5L188.213 1773.5L189 1773.5L189 1774L188.646 1773.65L189.858 1772.44L190.565 1773.14L190.211 1773.5ZM184.213 1774.5L182.213 1774.5L181.713 1774.5L181.713 1773.5L182.213 1773.5L184.713 1773.5L184.713 1774.5L184.213 1774.5ZM178.213 1774.5L176.213 1774.5L175.713 1774.5L175.713 1773.5L176.213 1773.5L178.713 1773.5L178.713 1774.5L178.213 1774.5ZM172.213 1774.5L170.213 1774.5L169.713 1774.5L169.713 1773.5L170.213 1773.5L172.713 1773.5L172.713 1774.5L172.213 1774.5ZM166.213 1774.5L164.793 1774.5L164.09 1773.8L163.737 1773.44L164.444 1772.74L164.797 1773.09L165.354 1773.65L165 1774L165 1773.5L166.713 1773.5L166.713 1774.5L166.213 1774.5ZM161.262 1770.97L159.847 1769.55L159.494 1769.2L160.201 1768.49L160.555 1768.85L162.322 1770.62L161.615 1771.32L161.262 1770.97ZM159.5 1765.28L159.5 1763.28L159.5 1762.78L160.5 1762.78L160.5 1763.28L160.5 1765.78L159.5 1765.78L159.5 1765.28ZM159.5 1759.28L159.5 1758.79L161.414 1756.88L162.121 1757.59L160.354 1759.35L160 1759L160.5 1759L160.5 1759.78L159.5 1759.78L159.5 1759.28Z"/>
		<path fill="white" d="M157 1756L162 1751L187 1751L192 1756L192 1767L187 1772L162 1772L157 1767L157 1756Z"/>
		<path fill="none" stroke="black" stroke-width="1" stroke-linecap="square" stroke-miterlimit="4" transform="translate(0.5 0.5)" d="M176 1772L182 1778L185 1775"/>
		<path fill="none" stroke="black" stroke-width="1" stroke-linecap="square" stroke-miterlimit="4" transform="translate(0.5 0.5)" d="M162 1761L167 1761L171 1757"/>
		<path fill="none" stroke="black" stroke-width="1" stroke-linecap="square" stroke-miterlimit="4" transform="translate(0.5 0.5)" d="M177 1761L185 1761"/>
		<path fill="none" stroke="black" stroke-width="1" stroke-linecap="square" stroke-miterlimit="4" transform="translate(0.5 0.5)" d="M177 1757L181 1757L181 1765L177 1765"/>
		<rect x="173" y="1756" width="3" height="3"/>
		<rect x="173" y="1760" width="3" height="3"/>
		<rect x="173" y="1764" width="3" height="3"/>
		<text font-size="12" font-family="Segoe UI" x="161.76562, " y="1791, ">
				0
		</text>
		<text font-size="12" font-family="Symbol" x="176.72266, " y="1790, ">
				
		</text>
		<text font-size="12" font-family="Segoe UI" x="169.89844, 172.5, " y="1791, ">
				..
		</text>
		<path transform="translate(0.5 0.5)" d="M160.889 1751.4L161.793 1750.5L162.929 1750.5L163.429 1750.5L163.429 1751.5L162.929 1751.5L162 1751.5L162 1751L162.354 1751.35L161.243 1752.46L160.536 1751.76L160.889 1751.4ZM166.929 1750.5L168.929 1750.5L169.429 1750.5L169.429 1751.5L168.929 1751.5L166.429 1751.5L166.429 1750.5L166.929 1750.5ZM172.929 1750.5L174.929 1750.5L175.429 1750.5L175.429 1751.5L174.929 1751.5L172.429 1751.5L172.429 1750.5L172.929 1750.5ZM178.929 1750.5L180.929 1750.5L181.429 1750.5L181.429 1751.5L180.929 1751.5L178.429 1751.5L178.429 1750.5L178.929 1750.5ZM184.929 1750.5L186.207 1750.5L187.01 1751.3L187.364 1751.66L186.657 1752.36L186.303 1752.01L185.646 1751.35L186 1751L186 1751.5L184.429 1751.5L184.429 1750.5L184.929 1750.5ZM189.839 1754.13L191.253 1755.55L191.607 1755.9L190.899 1756.61L190.546 1756.25L188.778 1754.49L189.485 1753.78L189.839 1754.13ZM191.5 1759.86L191.5 1761.86L191.5 1762.36L190.5 1762.36L190.5 1761.86L190.5 1759.36L191.5 1759.36L191.5 1759.86ZM191.5 1765.86L191.5 1766.21L190.04 1767.67L189.686 1768.02L188.979 1767.31L189.333 1766.96L190.646 1765.65L191 1766L190.5 1766L190.5 1765.36L191.5 1765.36L191.5 1765.86ZM187.211 1770.5L186.207 1771.5L185.213 1771.5L184.713 1771.5L184.713 1770.5L185.213 1770.5L186 1770.5L186 1771L185.646 1770.65L186.858 1769.44L187.565 1770.14L187.211 1770.5ZM181.213 1771.5L179.213 1771.5L178.713 1771.5L178.713 1770.5L179.213 1770.5L181.713 1770.5L181.713 1771.5L181.213 1771.5ZM175.213 1771.5L173.213 1771.5L172.713 1771.5L172.713 1770.5L173.213 1770.5L175.713 1770.5L175.713 1771.5L175.213 1771.5ZM169.213 1771.5L167.213 1771.5L166.713 1771.5L166.713 1770.5L167.213 1770.5L169.713 1770.5L169.713 1771.5L169.213 1771.5ZM163.213 1771.5L161.793 1771.5L161.09 1770.8L160.737 1770.44L161.444 1769.74L161.797 1770.09L162.354 1770.65L162 1771L162 1770.5L163.713 1770.5L163.713 1771.5L163.213 1771.5ZM158.262 1767.97L156.847 1766.55L156.494 1766.2L157.201 1765.49L157.555 1765.85L159.322 1767.62L158.615 1768.32L158.262 1767.97ZM156.5 1762.28L156.5 1760.28L156.5 1759.78L157.5 1759.78L157.5 1760.28L157.5 1762.78L156.5 1762.78L156.5 1762.28ZM156.5 1756.28L156.5 1755.79L158.414 1753.88L159.121 1754.59L157.354 1756.35L157 1756L157.5 1756L157.5 1756.78L156.5 1756.78L156.5 1756.28Z"/>
		<rect fill="silver" x="230" y="1592" width="52" height="21"/>
		<rect fill="white" x="226" y="1588" width="52" height="21"/>
		<rect fill="#FFFFC0" x="231" y="1615" width="109" height="24"/>
		<text fill="gray" font-size="9" font-family="Segoe UI" x="231, 236.80518, 241.89844, 244.36377, 248.94287, 254.03613, 258.19336, 263.28662, 268.56006, 271.68896, 274.1543, 276.97119, 282.24463, 285.37354, 287.83887, 290.01855, 295.11182, 297.2915, 299.47119, 304.56445, 309.271, 311.73633, 313.91602, 316.0957, 321.18896, 325.6626, 327.84229, 332.93555, " y="1625, ">
				An anchor for inline linking
		</text>
		<text fill="gray" font-size="9" font-family="Segoe UI" x="231, 233.17969, 235.35938, 239.83301, 244.53955, 247.00488, 249.18457, 254.27783, 256.74316, 263.13281, 267.84814, 275.92969, " y="1637, ">
				like in HTML
		</text>
		<rect fill="white" x="235" y="1590" width="31" height="16"/>
		<text font-size="12" font-weight="600" font-family="Segoe UI" x="235, " y="1603, ">
				a
		</text>
		<path fill="none" stroke="black" stroke-width="1" stroke-linecap="square" stroke-miterlimit="4" transform="translate(0.5 0.5)" d="M228 1590L233 1590"/>
		<path fill="none" stroke="black" stroke-width="1" stroke-linecap="square" stroke-miterlimit="4" transform="translate(0.5 0.5)" d="M228 1592L232 1592"/>
		<path fill="none" stroke="black" stroke-width="1" stroke-linecap="square" stroke-miterlimit="4" transform="translate(0.5 0.5)" d="M228 1594L232 1594"/>
		<path fill="none" stroke="black" stroke-width="2" stroke-miterlimit="4" transform="translate(0.5 0.5)" d="M228 1606L232 1602"/>
		<path fill="none" stroke="black" stroke-width="1" stroke-linecap="square" stroke-miterlimit="4" transform="translate(0.5 0.5)" d="M229 1602L232 1602L232 1605"/>
		<rect fill="none" stroke="black" stroke-width="1" stroke-linecap="square" stroke-miterlimit="4" transform="translate(0.5 0.5)" x="226" y="1588" width="51" height="20"/>
		<rect x="272" y="1593" width="11" height="11"/>
		<rect fill="white" x="273" y="1594" width="9" height="9"/>
		<rect x="274" y="1598" width="7" height="1"/>
		<rect x="277" y="1595" width="1" height="7"/>
		<rect fill="silver" x="230" y="1655" width="52" height="21"/>
		<rect fill="white" x="226" y="1651" width="52" height="21"/>
		<rect fill="#FFFFC0" x="231" y="1678" width="113" height="36"/>
		<text fill="gray" font-size="9" font-family="Segoe UI" x="231, 236.80518, 239.27051, 244.57031, 249.27686, 254.37012, 259.07666, 262.20557, 264.38525, 268.54248, 271.00781, 278.75977, 283.46631, 287.62354, 292.7168, 297.2959, 302.38916, 304.56885, 308.3877, 316.13965, 318.60498, 321.42188, 326.69531, " y="1688, ">
				A generic mechanism for
		</text>
		<text fill="gray" font-size="9" font-family="Segoe UI" x="231, 235.5791, 240.87891, 246.17871, 248.3584, 253.45166, 258.75146, 261.2168, 263.39648, 268.48975, 270.66943, 272.84912, 277.94238, 282.64893, 285.11426, 287.29395, 292.38721, 295.2041, 300.47754, 303.60645, 311.3584, 315.9375, 318.9873, 321.16699, 326.44043, 331.53369, 333.99902, 337.04883, " y="1700, ">
				adding inline information to
		</text>
		<text fill="gray" font-size="9" font-family="Segoe UI" x="231, 236.29102, 240.87012, 243.99902, 247.04883, 250.86768, 253.33301, 258.60645, 261.42334, 263.88867, 266.93848, 272.03174, 276.73828, 279.20361, 282.25342, 286.95996, 291.09082, 294.14062, 299.23389, 303.81299, 305.99268, 308.45801, 312.61523, 317.88867, 322.98193, 326.03174, 330.73828, 335.83154, " y="1712, ">
				parts of the textual content
		</text>
		<rect fill="white" x="235" y="1653" width="31" height="16"/>
		<text font-size="12" font-weight="600" font-family="Segoe UI" x="235, 240.2793, 247.60352, 254.06055, " y="1666, ">
				span
		</text>
		<path fill="none" stroke="black" stroke-width="1" stroke-linecap="square" stroke-miterlimit="4" transform="translate(0.5 0.5)" d="M228 1653L233 1653"/>
		<path fill="none" stroke="black" stroke-width="1" stroke-linecap="square" stroke-miterlimit="4" transform="translate(0.5 0.5)" d="M228 1655L232 1655"/>
		<path fill="none" stroke="black" stroke-width="1" stroke-linecap="square" stroke-miterlimit="4" transform="translate(0.5 0.5)" d="M228 1657L232 1657"/>
		<path fill="none" stroke="black" stroke-width="2" stroke-miterlimit="4" transform="translate(0.5 0.5)" d="M228 1669L232 1665"/>
		<path fill="none" stroke="black" stroke-width="1" stroke-linecap="square" stroke-miterlimit="4" transform="translate(0.5 0.5)" d="M229 1665L232 1665L232 1668"/>
		<rect fill="none" stroke="black" stroke-width="1" stroke-linecap="square" stroke-miterlimit="4" transform="translate(0.5 0.5)" x="226" y="1651" width="51" height="20"/>
		<rect x="272" y="1656" width="11" height="11"/>
		<rect fill="white" x="273" y="1657" width="9" height="9"/>
		<rect x="274" y="1661" width="7" height="1"/>
		<rect x="277" y="1658" width="1" height="7"/>
		<rect fill="silver" x="230" y="1730" width="52" height="21"/>
		<rect fill="white" x="226" y="1726" width="52" height="21"/>
		<rect fill="#FFFFC0" x="231" y="1753" width="119" height="36"/>
		<text fill="gray" font-size="9" font-family="Segoe UI" x="231, 235.78125, 237.96094, 245.71289, 251.00391, 253.18359, 257.89014, 260.35547, 268.76221, 273.61377, 279.18604, 281.65137, 287.03467, 292.12793, 297.41895, 301.77393, 304.23926, 310.04443, 315.1377, 320.23096, 325.50439, 328.5542, 333.1333, 336.18311, 338.36279, 343.63623, " y="1763, ">
				Simple W3C Ruby Annotation
		</text>
		<text fill="gray" font-size="9" font-family="Segoe UI" x="231, 234.59912, 237.06445, 240.8833, 245.58984, 250.29639, 252.76172, 257.85498, 260.90479, 263.95459, 269.24561, 271.19678, 274.70361, 278.21045, 284.71436, 291.21826, 297.72217, 299.67334, 306.17725, 311.02881, 312.97998, 318.25342, 321.38232, 326.68213, 330.18896, 334.9043, 340.2876, " y="1775, ">
				- see http://www.w3.org/TR/
		</text>
		<text fill="gray" font-size="9" font-family="Segoe UI" x="231, 234.12891, 239.22217, 244.51318, 248.86816, 252.375, 257.69238, 261.51123, 263.69092, 271.44287, 276.73389, 278.91357, 283.62012, 287.21924, 290.34814, 295.44141, 300.73242, 305.0874, " y="1787, ">
				ruby/#simple-ruby1
		</text>
		<rect fill="white" x="235" y="1728" width="31" height="16"/>
		<text font-size="12" font-weight="600" font-family="Segoe UI" x="235, 239.81055, 247.07031, 254.51172, " y="1741, ">
				ruby
		</text>
		<path fill="none" stroke="black" stroke-width="2" stroke-miterlimit="4" transform="translate(0.5 0.5)" d="M228 1744L232 1740"/>
		<path fill="none" stroke="black" stroke-width="1" stroke-linecap="square" stroke-miterlimit="4" transform="translate(0.5 0.5)" d="M229 1740L232 1740L232 1743"/>
		<rect fill="none" stroke="black" stroke-width="1" stroke-linecap="square" stroke-miterlimit="4" transform="translate(0.5 0.5)" x="226" y="1726" width="51" height="20"/>
		<rect x="272" y="1731" width="11" height="11"/>
		<rect fill="white" x="273" y="1732" width="9" height="9"/>
		<rect x="274" y="1736" width="7" height="1"/>
		<rect x="277" y="1733" width="1" height="7"/>
		<rect fill="silver" x="230" y="1805" width="52" height="21"/>
		<rect fill="white" x="226" y="1801" width="52" height="21"/>
		<rect fill="#FFFFC0" x="231" y="1828" width="49" height="12"/>
		<text fill="gray" font-size="9" font-family="Segoe UI" x="231, 236.80518, 239.27051, 241.4502, 243.62988, 248.72314, 253.42969, 255.89502, 261.18604, 264.31494, 269.02148, 273.60059, " y="1838, ">
				A line break
		</text>
		<rect fill="white" x="235" y="1803" width="31" height="16"/>
		<text font-size="12" font-weight="600" font-family="Segoe UI" x="235, 242.44141, " y="1816, ">
				br
		</text>
		<path fill="none" stroke="black" stroke-width="2" stroke-miterlimit="4" transform="translate(0.5 0.5)" d="M228 1819L232 1815"/>
		<path fill="none" stroke="black" stroke-width="1" stroke-linecap="square" stroke-miterlimit="4" transform="translate(0.5 0.5)" d="M229 1815L232 1815L232 1818"/>
		<rect fill="none" stroke="black" stroke-width="1" stroke-linecap="square" stroke-miterlimit="4" transform="translate(0.5 0.5)" x="226" y="1801" width="51" height="20"/>
		<rect x="272" y="1806" width="11" height="11"/>
		<rect fill="white" x="273" y="1807" width="9" height="9"/>
		<rect x="274" y="1811" width="7" height="1"/>
		<rect x="277" y="1808" width="1" height="7"/>
		<rect fill="silver" x="230" y="1856" width="54" height="21"/>
		<rect fill="white" x="226" y="1852" width="54" height="21"/>
		<rect fill="#FFFFC0" x="231" y="1879" width="108" height="24"/>
		<text fill="gray" font-size="9" font-family="Segoe UI" x="231, 236.80518, 241.89844, 244.36377, 246.54346, 251.63672, 253.81641, 255.99609, 261.08936, 265.7959, 268.26123, 276.01318, 280.59229, 283.72119, 288.19482, 293.28809, 298.5791, 301.04443, 304.09424, 308.67334, 313.97314, 316.43848, 319.48828, 324.76172, 327.22705, 332.51807, " y="1889, ">
				An inline markup tag to be
		</text>
		<text fill="gray" font-size="9" font-family="Segoe UI" x="231, 236.09326, 239.91211, 244.61865, 249.91846, 252.38379, 258.8877, 261.06738, 264.11719, 269.21045, 271.67578, 276.25488, 281.34814, 285.70312, 288.16846, 292.32568, 297.59912, 302.69238, 306.84961, 311.55615, 316.84717, " y="1901, ">
				used with any concept
		</text>
		<rect fill="white" x="235" y="1854" width="33" height="16"/>
		<text font-size="12" font-weight="600" font-family="Segoe UI" x="235, 238.41016, 245.66992, 249.08008, 252.49023, 259.75, " y="1867, ">
				inline
		</text>
		<path fill="none" stroke="black" stroke-width="1" stroke-linecap="square" stroke-miterlimit="4" transform="translate(0.5 0.5)" d="M228 1854L233 1854"/>
		<path fill="none" stroke="black" stroke-width="1" stroke-linecap="square" stroke-miterlimit="4" transform="translate(0.5 0.5)" d="M228 1856L232 1856"/>
		<path fill="none" stroke="black" stroke-width="1" stroke-linecap="square" stroke-miterlimit="4" transform="translate(0.5 0.5)" d="M228 1858L232 1858"/>
		<path fill="none" stroke="black" stroke-width="2" stroke-miterlimit="4" transform="translate(0.5 0.5)" d="M228 1870L232 1866"/>
		<path fill="none" stroke="black" stroke-width="1" stroke-linecap="square" stroke-miterlimit="4" transform="translate(0.5 0.5)" d="M229 1866L232 1866L232 1869"/>
		<rect fill="none" stroke="black" stroke-width="1" stroke-linecap="square" stroke-miterlimit="4" transform="translate(0.5 0.5)" x="226" y="1852" width="53" height="20"/>
		<rect x="274" y="1857" width="11" height="11"/>
		<rect fill="white" x="275" y="1858" width="9" height="9"/>
		<rect x="276" y="1862" width="7" height="1"/>
		<rect x="279" y="1859" width="1" height="7"/>
		<path fill="silver" d="M230 1924L235 1919L303 1919L308 1924L308 1935L303 1940L235 1940L230 1935L230 1924Z"/>
		<path fill="white" d="M226 1920L231 1915L299 1915L304 1920L304 1931L299 1936L231 1936L226 1931L226 1920Z"/>
		<rect fill="#FFFFC0" x="231" y="1942" width="120" height="36"/>
		<text fill="gray" font-size="9" font-family="Segoe UI" x="231, 235.55273, 239.68359, 242.7334, 247.43994, 252.5332, 256.35205, 258.53174, 263.80518, 268.89844, 271.36377, 276.65479, 281.92822, 284.10791, 289.20117, 292.25098, 294.71631, 297.5332, 302.80664, 305.93555, 308.40088, 313.69189, 316.8208, 322.09424, 326.40527, 328.58496, 333.88477, 338.59131, 341.72021, " y="1952, ">
				Extension point for provider-
		</text>
		<text fill="gray" font-size="9" font-family="Segoe UI" x="231, 236.2998, 241.00635, 243.82324, 246.00293, 251.09619, 255.80273, 261.10254, 263.56787, 268.85889, 271.98779, 277.26123, 282.55225, 287.25879, 290.3877, 293.4375, 295.61719, 300.32373, 304.14258, 306.60791, 309.4248, 312.55371, 317.82715, 325.5791, 328.04443, 333.31787, 336.36768, 341.46094, 346.16748, " y="1964, ">
				defined properties from other
		</text>
		<text fill="gray" font-size="9" font-family="Segoe UI" x="231, 236.09326, 240.67236, 248.42432, 253.13086, 256.94971, 262.24072, 266.81982, 270.97705, 275.68359, " y="1976, ">
				namespaces
		</text>
		<rect fill="white" x="253" y="1917" width="46" height="16"/>
		<text font-size="12" font-weight="600" font-family="Segoe UI" x="253, 260.10742, 267.21484, 274.55078, 279.2207, 286.44531, 292.9375, " y="1930, ">
				##other
		</text>
		<rect fill="white" x="231" y="1917" width="20" height="16"/>
		<text fill="gray" font-size="12" font-family="Segoe UI" x="231, 237.10547, 243.89648, " y="1930, ">
				any
		</text>
		<path fill="none" stroke="black" stroke-width="1" stroke-linecap="square" stroke-miterlimit="4" transform="translate(0.5 0.5)" d="M226 1920L231 1915L298 1915L303 1920L303 1930L298 1935L231 1935L226 1930L226 1920Z"/>
		<rect x="191" y="1756" width="11" height="11"/>
		<rect fill="white" x="192" y="1757" width="9" height="9"/>
		<rect x="193" y="1761" width="7" height="1"/>
		<rect x="54" y="1278" width="11" height="11"/>
		<rect fill="white" x="55" y="1279" width="9" height="9"/>
		<rect x="56" y="1283" width="7" height="1"/>
	</g>
</svg>
