<?xml version="1.0" encoding="utf-8" ?>
<svg xmlns="http://www.w3.org/2000/svg" xmlns:xlink="http://www.w3.org/1999/xlink" width="408" height="1726">
	<clipPath id="cl_451">
		<rect x="-10" y="-5" width="408" height="1726"/>
	</clipPath>
	<g clip-path="url(#cl_451)">
		<rect fill="#FFFFC0" x="96" width="261" height="1342"/>
		<rect fill="none" stroke="gray" stroke-width="1" stroke-linecap="square" stroke-miterlimit="4" transform="translate(0.5 0.5)" x="96" width="260" height="1341"/>
		<path fill="none" stroke="black" stroke-width="1" stroke-linecap="square" stroke-miterlimit="4" transform="translate(0.5 0.5)" d="M57 683L108 683"/>
		<path fill="none" stroke="black" stroke-width="1" stroke-linecap="square" stroke-miterlimit="4" transform="translate(0.5 0.5)" d="M109 683L109 1528"/>
		<path fill="none" stroke="black" stroke-width="1" stroke-linecap="square" stroke-miterlimit="4" transform="translate(0.5 0.5)" d="M109 1529L123 1529"/>
		<path fill="none" stroke="black" stroke-width="1" stroke-linecap="square" stroke-miterlimit="4" transform="translate(0.5 0.5)" d="M109 683L123 683"/>
		<rect fill="silver" x="4" y="677" width="52" height="21"/>
		<rect fill="white" y="673" width="52" height="21"/>
		<rect fill="#FFFFC0" x="104" y="8" width="183" height="16"/>
		<text fill="gray" font-size="12" font-weight="600" font-family="Segoe UI" x="104, 112.4375, 119.87891, 127.32031, 132.04883, 139.14453, 145.77148, 149.18164, 160.17383, 166.63086, 171.25391, 177.74609, 186.59375, 193.05078, 197.67383, 204.16602, 211.19727, 214.60742, 225.59961, 232.0918, 239.46289, 244.19141, 251.52734, 258.96875, 265.46094, 271.91797, 279.35938, " y="21, ">
				ApproximateDateTimePropType
		</text>
		<rect fill="white" x="5" y="700" width="76" height="24"/>
		<text fill="gray" font-size="9" font-family="Segoe UI" x="5, 9.715332, 14.808594, 19.515137, 21.980469, 27.280273, 31.859375, 34.90918, 39.615723, 42.081055, 45.130859, 50.224121, 54.930664, 57.395996, 62.102539, 66.413574, 71.120117, 76.213379, " y="710, ">
				The date the event
		</text>
		<text fill="gray" font-size="9" font-family="Segoe UI" x="5, 9.1572266, 14.430664, 22.182617, 29.93457, 34.641113, 39.734375, 43.891602, 48.598145, 52.416992, " y="722, ">
				commences.
		</text>
		<rect fill="white" x="9" y="675" width="31" height="16"/>
		<text font-size="12" font-weight="600" font-family="Segoe UI" x="9, 14.279297, 18.949219, 25.40625, 30.527344, " y="688, ">
				start
		</text>
		<path fill="none" stroke="black" stroke-width="1" stroke-linecap="square" stroke-miterlimit="4" transform="translate(0.5 0.5)" d="M2 675L7 675"/>
		<path fill="none" stroke="black" stroke-width="1" stroke-linecap="square" stroke-miterlimit="4" transform="translate(0.5 0.5)" d="M2 677L6 677"/>
		<path fill="none" stroke="black" stroke-width="1" stroke-linecap="square" stroke-miterlimit="4" transform="translate(0.5 0.5)" d="M2 679L6 679"/>
		<rect fill="#FFFFC0" x="291" y="8" width="59" height="16"/>
		<text fill="gray" font-size="12" font-family="Segoe UI" x="291, 294.62109, 300.89648, 306.4043, 310.4707, 316.74609, 323.53711, 328.62891, 331.53516, 338.56641, 345.35742, " y="21, ">
				(extension)
		</text>
		<rect fill="none" stroke="black" stroke-width="1" stroke-linecap="square" stroke-miterlimit="4" transform="translate(0.5 0.5)" y="673" width="51" height="20"/>
		<path fill="white" d="M201 55L201 36L124 36L124 55L124 1329L271 1329L271 55L201 55Z"/>
		<rect fill="white" x="144" y="38" width="51" height="16"/>
		<text font-size="12" font-style="italic" font-family="Segoe UI" x="144, 150.50391, 154.38281, 158.26172, 162.5332, 165.63867, 172.14258, 178.83984, 182.73047, 188.57227, " y="51, ">
				attributes
		</text>
		<path fill="none" stroke="black" stroke-width="1" stroke-linecap="square" stroke-miterlimit="4" transform="translate(0.5 0.5)" d="M201 55L201 36L124 36L124 55L124 1329L271 1329L271 55L201 55Z"/>
		<rect fill="silver" x="142" y="68" width="52" height="21"/>
		<rect fill="white" x="138" y="64" width="52" height="21"/>
		<rect fill="white" x="143" y="91" width="101" height="24"/>
		<text fill="gray" font-size="9" font-family="Segoe UI" x="143, 147.71533, 152.80859, 157.51514, 159.98047, 162.16016, 167.43359, 171.59082, 176.16992, 178.34961, 180.81494, 182.99463, 188.29443, 193.00098, 198.09424, 201.14404, 203.32373, 206.14062, 208.32031, 213.02686, 216.15576, 218.62109, 223.89453, 226.71143, 229.17676, 232.22656, 237.31982, " y="101, ">
				The local identifier of the
		</text>
		<text fill="gray" font-size="9" font-family="Segoe UI" x="143, 148.29102, 151.41992, 156.69336, 161.98438, 166.69092, 169.81982, 172.86963, 177.22461, " y="113, ">
				property.
		</text>
		<rect fill="white" x="147" y="66" width="36" height="16"/>
		<text font-size="12" font-weight="600" font-family="Segoe UI" x="147, 150.41016, " y="79, ">
				id
		</text>
		<rect fill="none" stroke="black" stroke-width="1" stroke-linecap="square" stroke-miterlimit="4" transform="translate(0.5 0.5)" x="138" y="64" width="51" height="20"/>
		<rect fill="silver" x="142" y="126" width="58" height="21"/>
		<rect fill="white" x="138" y="122" width="58" height="21"/>
		<rect fill="white" x="143" y="149" width="121" height="120"/>
		<text fill="gray" font-size="9" font-family="Segoe UI" x="143, 145.39502, 148.21191, 150.67725, 153.72705, 158.82031, 163.52686, 165.99219, 171.2832, 174.41211, 179.68555, 184.97656, 189.68311, 192.81201, 195.86182, 200.2168, 202.68213, 206.99316, 211.57227, 213.75195, 218.84521, 223.55176, 226.01709, 228.19678, 232.01562, 234.48096, 239.57422, 244.84766, " y="159, ">
				If the property value is not
		</text>
		<text fill="gray" font-size="9" font-family="Segoe UI" x="143, 148.2998, 153.00635, 155.82324, 158.00293, 163.09619, 167.80273, 173.10254, 175.05371, 177.51904, 181.33789, 186.62891, 191.33545, 195.49268, 197.67236, 200.48926, 202.66895, 207.37549, 211.19434, 213.65967, 220.16357, 225.25684, 227.43652, 231.59375, 236.68701, 239.15234, 243.85889, 248.95215, 252.00195, 254.18164, 257.23145, " y="171, ">
				defined, specifies which entity
		</text>
		<text fill="gray" font-size="9" font-family="Segoe UI" x="143, 145.71582, 151.00684, 155.71338, 158.84229, 162.66113, 167.93457, 173.02783, 174.979, 177.44434, 182.71777, 185.84668, 191.14648, 195.72559, 200.81885, 202.99854, 206.81738, 211.39648, 214.44629, 216.62598, 221.89941, 226.99268, 229.45801, 234.73145, " y="183, ">
				(person, organisation or
		</text>
		<text fill="gray" font-size="9" font-family="Segoe UI" x="143, 146.81885, 151.17383, 154.99268, 158.04248, 162.74902, 170.50098, 173.2168, 175.68213, 182.18604, 184.36572, 186.54541, 188.7251, 191.19043, 195.89697, 201.19678, 203.37646, 206.42627, 208.8916, 211.94141, 217.03467, 221.74121, 224.20654, 229.49756, 232.62646, 237.8999, 243.19092, 247.89746, 251.02637, 254.07617, " y="195, ">
				system) will edit the property
		</text>
		<text fill="gray" font-size="9" font-family="Segoe UI" x="143, 147.31104, 151.89014, 154.06982, 159.16309, 163.86963, 166.33496, 169.93408, 172.39941, 177.10596, 181.23682, 186.52783, 189.65674, 194.36328, 198.18213, 202.00098, 206.70752, 212.00732, 214.47266, 219.76367, 224.11865, 226.58398, 231.16309, 233.62842, 240.41357, 245.98584, 251.25928, 256.55908, 261.26562, " y="207, ">
				value - expressed by a QCode.
		</text>
		<text fill="gray" font-size="9" font-family="Segoe UI" x="143, 145.39502, 148.21191, 150.67725, 153.72705, 158.82031, 163.52686, 165.99219, 171.2832, 174.41211, 179.68555, 184.97656, 189.68311, 192.81201, 195.86182, 200.2168, 202.68213, 206.99316, 211.57227, 213.75195, 218.84521, 223.55176, 226.01709, 228.19678, " y="219, ">
				If the property value is
		</text>
		<text fill="gray" font-size="9" font-family="Segoe UI" x="143, 148.2998, 153.00635, 155.82324, 158.00293, 163.09619, 167.80273, 173.10254, 175.05371, 177.51904, 181.33789, 186.62891, 191.33545, 195.49268, 197.67236, 200.48926, 202.66895, 207.37549, 211.19434, 213.65967, 220.16357, 225.25684, 227.43652, 231.59375, 236.68701, 239.15234, 243.85889, 248.95215, 252.00195, 254.18164, 257.23145, " y="231, ">
				defined, specifies which entity
		</text>
		<text fill="gray" font-size="9" font-family="Segoe UI" x="143, 145.71582, 151.00684, 155.71338, 158.84229, 162.66113, 167.93457, 173.02783, 174.979, 177.44434, 182.71777, 185.84668, 191.14648, 195.72559, 200.81885, 202.99854, 206.81738, 211.39648, 214.44629, 216.62598, 221.89941, 226.99268, 229.45801, 234.73145, " y="243, ">
				(person, organisation or
		</text>
		<text fill="gray" font-size="9" font-family="Segoe UI" x="143, 146.81885, 151.17383, 154.99268, 158.04248, 162.74902, 170.50098, 173.2168, 175.68213, 180.77539, 185.35449, 189.17334, 191.63867, 196.34521, 201.64502, 203.82471, 206.87451, 211.58105, 216.88086, 219.34619, 222.396, 227.48926, " y="255, ">
				system) has edited the
		</text>
		<text fill="gray" font-size="9" font-family="Segoe UI" x="143, 148.29102, 151.41992, 156.69336, 161.98438, 166.69092, 169.81982, 172.86963, 177.22461, 179.68994, 184.00098, 188.58008, 190.75977, 195.85303, 200.55957, " y="267, ">
				property value.
		</text>
		<rect fill="white" x="147" y="124" width="42" height="16"/>
		<text font-size="12" font-weight="600" font-family="Segoe UI" x="147, 152.75977, 157.48828, 163.98047, 170.4375, 175.06055, 182.39648, " y="137, ">
				creator
		</text>
		<rect fill="none" stroke="black" stroke-width="1" stroke-linecap="square" stroke-miterlimit="4" transform="translate(0.5 0.5)" x="138" y="122" width="57" height="20"/>
		<rect fill="silver" x="142" y="280" width="73" height="21"/>
		<rect fill="white" x="138" y="276" width="73" height="21"/>
		<rect fill="white" x="143" y="303" width="120" height="108"/>
		<text fill="gray" font-size="9" font-family="Segoe UI" x="143, 145.39502, 148.21191, 150.67725, 153.72705, 158.82031, 163.52686, 165.99219, 171.2832, 174.41211, 179.68555, 184.97656, 189.68311, 192.81201, 195.86182, 200.2168, 202.68213, 206.99316, 211.57227, 213.75195, 218.84521, 223.55176, 226.01709, 228.19678, 232.01562, 234.48096, 239.57422, 244.84766, " y="313, ">
				If the property value is not
		</text>
		<text fill="gray" font-size="9" font-family="Segoe UI" x="143, 148.2998, 153.00635, 155.82324, 158.00293, 163.09619, 167.80273, 173.10254, 175.05371, 177.51904, 181.33789, 186.62891, 191.33545, 195.49268, 197.67236, 200.48926, 202.66895, 207.37549, 211.19434, 213.65967, 220.16357, 225.25684, 227.43652, 231.59375, 236.68701, 239.15234, 243.85889, 248.95215, 252.00195, 254.18164, 257.23145, " y="325, ">
				defined, specifies which entity
		</text>
		<text fill="gray" font-size="9" font-family="Segoe UI" x="143, 145.71582, 151.00684, 155.71338, 158.84229, 162.66113, 167.93457, 173.02783, 174.979, 177.44434, 182.71777, 185.84668, 191.14648, 195.72559, 200.81885, 202.99854, 206.81738, 211.39648, 214.44629, 216.62598, 221.89941, 226.99268, 229.45801, 234.73145, " y="337, ">
				(person, organisation or
		</text>
		<text fill="gray" font-size="9" font-family="Segoe UI" x="143, 146.81885, 151.17383, 154.99268, 158.04248, 162.74902, 170.50098, 173.2168, 175.68213, 182.18604, 184.36572, 186.54541, 188.7251, 191.19043, 195.89697, 201.19678, 203.37646, 206.42627, 208.8916, 211.94141, 217.03467, 221.74121, 224.20654, 229.49756, 232.62646, 237.8999, 243.19092, 247.89746, 251.02637, 254.07617, " y="349, ">
				system) will edit the property
		</text>
		<text fill="gray" font-size="9" font-family="Segoe UI" x="143, 146.59912, 149.06445, 153.771, 157.90186, 163.19287, 166.32178, 171.02832, 174.84717, 178.66602, 183.37256, 188.67236, 191.1377, 196.42871, 200.78369, 203.24902, 207.82812, 210.29346, 216.47656, 221.85986, 224.25488, 226.20605, 228.67139, 231.06641, 233.8833, 236.34863, 239.39844, 244.4917, " y="361, ">
				- expressed by a URI. If the
		</text>
		<text fill="gray" font-size="9" font-family="Segoe UI" x="143, 148.29102, 151.41992, 156.69336, 161.98438, 166.69092, 169.81982, 172.86963, 177.22461, 179.68994, 184.00098, 188.58008, 190.75977, 195.85303, 200.55957, 203.0249, 205.20459, 209.02344, 211.48877, 216.78857, 221.49512, 224.31201, 226.4917, 231.58496, 236.2915, 241.59131, " y="373, ">
				property value is defined,
		</text>
		<text fill="gray" font-size="9" font-family="Segoe UI" x="143, 146.81885, 152.10986, 156.81641, 160.97363, 163.15332, 165.97021, 168.1499, 172.85645, 176.67529, 179.14062, 185.64453, 190.73779, 192.91748, 197.07471, 202.16797, 204.6333, 209.33984, 214.43311, 217.48291, 219.6626, 222.7124, 227.06738, 229.53271, 232.24854, 237.53955, 242.24609, 245.375, 249.19385, 254.46729, 259.56055, " y="385, ">
				specifies which entity (person,
		</text>
		<text fill="gray" font-size="9" font-family="Segoe UI" x="143, 148.27344, 151.40234, 156.70215, 161.28125, 166.37451, 168.5542, 172.37305, 176.95215, 180.00195, 182.18164, 187.45508, 192.54834, 195.01367, 200.28711, 203.41602, 205.88135, 209.7002, 214.05518, 217.87402, 220.92383, 225.63037, 233.38232, 236.09814, 238.56348, 243.65674, 248.23584, " y="397, ">
				organisation or system) has
		</text>
		<text fill="gray" font-size="9" font-family="Segoe UI" x="143, 147.70654, 153.00635, 155.18604, 158.23584, 162.94238, 168.24219, 170.70752, 173.75732, 178.85059, 183.55713, 186.02246, 191.31348, 194.44238, 199.71582, 205.00684, 209.71338, 212.84229, 215.89209, 220.24707, " y="409, ">
				edited the property.
		</text>
		<rect fill="white" x="147" y="278" width="57" height="16"/>
		<text font-size="12" font-weight="600" font-family="Segoe UI" x="147, 152.75977, 157.48828, 163.98047, 170.4375, 175.06055, 182.39648, 187.20703, 194.4668, 199.28906, " y="291, ">
				creatoruri
		</text>
		<rect fill="none" stroke="black" stroke-width="1" stroke-linecap="square" stroke-miterlimit="4" transform="translate(0.5 0.5)" x="138" y="276" width="72" height="20"/>
		<rect fill="silver" x="142" y="422" width="69" height="21"/>
		<rect fill="white" x="138" y="418" width="69" height="21"/>
		<rect fill="white" x="143" y="445" width="119" height="72"/>
		<text fill="gray" font-size="9" font-family="Segoe UI" x="143, 147.71533, 152.80859, 157.51514, 159.98047, 165.28027, 169.85938, 172.90918, 177.61572, 180.08105, 182.79688, 187.37598, 192.46924, 197.76904, 199.72021, 202.18555, 207.45898, 212.75, 215.7998, 217.97949, 223.25293, 228.34619, 232.92529, 235.10498, 237.28467, 241.63965, 243.59082, 246.05615, 249.10596, 254.19922, " y="455, ">
				The date (and, optionally, the
		</text>
		<text fill="gray" font-size="9" font-family="Segoe UI" x="143, 146.0498, 148.22949, 155.98145, 160.68799, 163.40381, 165.86914, 172.37305, 177.46631, 182.17285, 187.26611, 189.73145, 192.78125, 197.87451, 202.58105, 205.04639, 210.3374, 213.46631, 218.73975, 224.03076, 228.7373, 231.86621, 234.91602, 239.271, 241.73633, 248.24023, 252.81934, " y="467, ">
				time) when the property was
		</text>
		<text fill="gray" font-size="9" font-family="Segoe UI" x="143, 145.17969, 149.75879, 153.57764, 156.62744, 159.09277, 166.84473, 172.11816, 177.41797, 179.59766, 182.41455, 184.59424, 189.30078, 194.60059, 196.55176, 199.01709, 203.73242, 208.82568, 213.53223, 215.99756, 218.17725, 223.27051, 225.4502, 228.5, 230.67969, 235.25879, 237.43848, 239.90381, 244.21484, 248.79395, 250.97363, 256.06689, " y="479, ">
				last modified. The initial value
		</text>
		<text fill="gray" font-size="9" font-family="Segoe UI" x="143, 145.17969, 148.99854, 151.46387, 154.51367, 159.60693, 164.31348, 166.77881, 172.07861, 176.65771, 179.70752, 184.41406, 186.87939, 189.59521, 194.17432, 199.26758, 204.56738, 206.51855, 208.98389, 214.25732, 219.54834, 222.59814, 224.77783, 230.05127, 235.14453, 239.72363, 241.90332, 244.08301, 248.43799, " y="491, ">
				is the date (and, optionally,
		</text>
		<text fill="gray" font-size="9" font-family="Segoe UI" x="143, 146.0498, 151.14307, 155.84961, 158.31494, 161.36475, 163.54443, 171.29639, 176.00293, 178.71875, 181.18408, 186.45752, 189.27441, 191.73975, 195.89697, 199.02588, 203.73242, 208.31152, 211.36133, 213.54102, 218.81445, 223.90771, 226.37305, 231.64648, 234.46338, 236.92871, 239.97852, 245.07178, " y="503, ">
				the time) of creation of the
		</text>
		<text fill="gray" font-size="9" font-family="Segoe UI" x="143, 148.29102, 151.41992, 156.69336, 161.98438, 166.69092, 169.81982, 172.86963, 177.22461, " y="515, ">
				property.
		</text>
		<rect fill="white" x="147" y="420" width="53" height="16"/>
		<text font-size="12" font-weight="600" font-family="Segoe UI" x="147, 157.99219, 165.32812, 172.75781, 176.16797, 180.76758, 184.17773, 190.66992, " y="433, ">
				modified
		</text>
		<rect fill="none" stroke="black" stroke-width="1" stroke-linecap="square" stroke-miterlimit="4" transform="translate(0.5 0.5)" x="138" y="418" width="68" height="20"/>
		<rect fill="silver" x="142" y="528" width="59" height="21"/>
		<rect fill="white" x="138" y="524" width="59" height="21"/>
		<rect fill="white" x="143" y="551" width="118" height="108"/>
		<text fill="gray" font-size="9" font-family="Segoe UI" x="143, 145.39502, 148.21191, 150.67725, 154.49609, 159.20264, 162.25244, 164.71777, 167.76758, 173.04102, 175.50635, 178.55615, 181.68506, 186.77832, 191.48486, 193.9502, 197, 202.09326, " y="561, ">
				If set to true the
		</text>
		<text fill="gray" font-size="9" font-family="Segoe UI" x="143, 147.15723, 152.43066, 155.55957, 158.68848, 163.39502, 167.21387, 172.50488, 177.77832, 182.87158, 188.17139, 190.35107, 195.44434, 200.74414, 203.20947, 208.50049, 211.62939, 216.90283, 222.19385, 226.90039, 230.0293, 233.0791, 237.43408, 239.89941, 246.40332, 250.98242, " y="573, ">
				corresponding property was
		</text>
		<text fill="gray" font-size="9" font-family="Segoe UI" x="143, 147.5791, 152.87891, 158.17871, 162.88525, 168.18506, 170.65039, 173.7002, 178.97363, 181.43896, 184.48877, 189.58203, 194.28857, 196.75391, 202.92822, 207.77979, 210.24512, 212.64014, 215.68994, 220.39648, 228.14844, 230.61377, 233.43066, 238.7041, 241.83301, 244.29834, " y="585, ">
				added to the G2 Item for a
		</text>
		<text fill="gray" font-size="9" font-family="Segoe UI" x="143, 146.81885, 152.10986, 156.81641, 160.97363, 163.15332, 165.97021, 168.1499, 172.30713, 174.77246, 178.92969, 184.02295, 187.8418, 190.8916, 196.16504, 203.91699, 208.62354, 211.75244, 214.21777, 219.49121, 222.62012, 225.08545, 230.38525, 233.51416, 238.7876, 243.88086, 249.17188, 251.63721, 256.91064, " y="597, ">
				specific customer or group of
		</text>
		<text fill="gray" font-size="9" font-family="Segoe UI" x="143, 147.15723, 152.25049, 156.06934, 159.11914, 164.39258, 172.14453, 176.85107, 179.97998, 183.79883, 186.26416, 191.5376, 196.63086, 198.81055, 203.16553, 205.1167, 207.58203, 212.29736, 217.39062, 222.09717, 224.5625, 229.8623, 234.56885, 237.38574, 241.96484, 247.05811, 249.23779, " y="609, ">
				customers only. The default
		</text>
		<text fill="gray" font-size="9" font-family="Segoe UI" x="143, 147.31104, 151.89014, 154.06982, 159.16309, 163.86963, 166.33496, 171.6084, 174.42529, 176.89062, 179.94043, 185.03369, 187.21338, 191.03223, 193.49756, 198.78857, 201.91748, 207.19092, 212.48193, 217.18848, 220.31738, 223.36719, 227.72217, 230.1875, 232.36719, 236.18604, 238.65137, 241.46826, 246.04736, 248.22705, 252.0459, " y="621, ">
				value of this property is false
		</text>
		<text fill="gray" font-size="9" font-family="Segoe UI" x="143, 149.50391, 154.59717, 156.77686, 160.93408, 166.02734, 168.49268, 173.07178, 178.36279, 183.65381, 185.8335, 188.01318, 192.71973, 196.53857, 199.00391, 205.50781, 210.60107, 215.30762, 220.40088, 222.86621, 225.91602, 231.00928, 233.18896, " y="633, ">
				which applies when this
		</text>
		<text fill="gray" font-size="9" font-family="Segoe UI" x="143, 147.5791, 150.62891, 153.67871, 156.80762, 158.9873, 164.27832, 169.37158, 172.42139, 177.12793, 179.59326, 181.77295, 185.5918, 188.05713, 193.15039, 198.42383, 201.47363, 203.93896, 209.03223, 212.85107, 217.55762, 222.85742, 225.32275, 231.82666, 234.00635, 237.05615, 242.14941, 244.61475, 247.66455, 252.75781, " y="645, ">
				attribute is not used with the
		</text>
		<text fill="gray" font-size="9" font-family="Segoe UI" x="143, 148.29102, 151.41992, 156.69336, 161.98438, 166.69092, 169.81982, 172.86963, 177.22461, " y="657, ">
				property.
		</text>
		<rect fill="white" x="147" y="526" width="43" height="16"/>
		<text font-size="12" font-weight="600" font-family="Segoe UI" x="147, 152.75977, 160.01953, 165.29883, 169.92188, 177.25781, " y="539, ">
				custom
		</text>
		<rect fill="none" stroke="black" stroke-width="1" stroke-linecap="square" stroke-miterlimit="4" transform="translate(0.5 0.5)" x="138" y="524" width="58" height="20"/>
		<rect fill="silver" x="142" y="670" width="52" height="21"/>
		<rect fill="white" x="138" y="666" width="52" height="21"/>
		<rect fill="white" x="143" y="693" width="118" height="48"/>
		<text fill="gray" font-size="9" font-family="Segoe UI" x="143, 145.39502, 150.48828, 155.78809, 157.96777, 162.125, 166.7041, 169.75391, 174.46045, 178.2793, 180.74463, 186.03564, 190.39062, 192.85596, 199.35986, 204.45312, 206.63281, 210.79004, 215.8833, 218.34863, 226.10059, 230.80713, 235.38623, 240.47949, 244.29834, 246.76367, 249.81348, 254.90674, " y="703, ">
				Indicates by which means the
		</text>
		<text fill="gray" font-size="9" font-family="Segoe UI" x="143, 147.31104, 151.89014, 154.06982, 159.16309, 163.86963, 166.33496, 172.83887, 177.41797, 181.23682, 183.70215, 188.40869, 192.53955, 195.58936, 198.71826, 203.29736, 207.45459, 210.50439, 215.21094, 220.51074, 222.97607, 225.79297, 228.92188, 234.19531, 241.94727, 244.4126, 247.4624, 252.55566, " y="715, ">
				value was extracted from the
		</text>
		<text fill="gray" font-size="9" font-family="Segoe UI" x="143, 147.15723, 152.43066, 157.52393, 160.57373, 165.28027, 170.37354, 173.42334, 175.88867, 179.48779, 181.95312, 186.65967, 190.79053, 196.08154, 199.21045, 203.91699, 207.73584, 211.55469, 216.26123, 221.56104, 224.02637, 229.31738, 233.67236, 236.1377, " y="727, ">
				content - expressed by a
		</text>
		<text fill="gray" font-size="9" font-family="Segoe UI" x="143, 149.78516, 155.35742, 160.63086, 165.93066, " y="739, ">
				QCode
		</text>
		<rect fill="white" x="147" y="668" width="36" height="16"/>
		<text font-size="12" font-weight="600" font-family="Segoe UI" x="147, 154.22461, 161.56055, " y="681, ">
				how
		</text>
		<rect fill="none" stroke="black" stroke-width="1" stroke-linecap="square" stroke-miterlimit="4" transform="translate(0.5 0.5)" x="138" y="666" width="51" height="20"/>
		<rect fill="silver" x="142" y="752" width="57" height="21"/>
		<rect fill="white" x="138" y="748" width="57" height="21"/>
		<rect fill="white" x="143" y="775" width="118" height="36"/>
		<text fill="gray" font-size="9" font-family="Segoe UI" x="143, 145.39502, 150.48828, 155.78809, 157.96777, 162.125, 166.7041, 169.75391, 174.46045, 178.2793, 180.74463, 186.03564, 190.39062, 192.85596, 199.35986, 204.45312, 206.63281, 210.79004, 215.8833, 218.34863, 226.10059, 230.80713, 235.38623, 240.47949, 244.29834, 246.76367, 249.81348, 254.90674, " y="785, ">
				Indicates by which means the
		</text>
		<text fill="gray" font-size="9" font-family="Segoe UI" x="143, 147.31104, 151.89014, 154.06982, 159.16309, 163.86963, 166.33496, 172.83887, 177.41797, 181.23682, 183.70215, 188.40869, 192.53955, 195.58936, 198.71826, 203.29736, 207.45459, 210.50439, 215.21094, 220.51074, 222.97607, 225.79297, 228.92188, 234.19531, 241.94727, 244.4126, 247.4624, 252.55566, " y="797, ">
				value was extracted from the
		</text>
		<text fill="gray" font-size="9" font-family="Segoe UI" x="143, 147.15723, 152.43066, 157.52393, 160.57373, 165.28027, 170.37354, 173.42334, 175.88867, 179.48779, 181.95312, 186.65967, 190.79053, 196.08154, 199.21045, 203.91699, 207.73584, 211.55469, 216.26123, 221.56104, 224.02637, 229.31738, 233.67236, 236.1377, 240.7168, 243.18213, 249.36523, 254.74854, " y="809, ">
				content - expressed by a URI
		</text>
		<rect fill="white" x="147" y="750" width="41" height="16"/>
		<text font-size="12" font-weight="600" font-family="Segoe UI" x="147, 154.22461, 161.56055, 171.12891, 178.38867, 183.21094, " y="763, ">
				howuri
		</text>
		<rect fill="none" stroke="black" stroke-width="1" stroke-linecap="square" stroke-miterlimit="4" transform="translate(0.5 0.5)" x="138" y="748" width="56" height="20"/>
		<rect fill="silver" x="142" y="822" width="52" height="21"/>
		<rect fill="white" x="138" y="818" width="52" height="21"/>
		<rect fill="white" x="143" y="845" width="113" height="36"/>
		<text fill="gray" font-size="9" font-family="Segoe UI" x="143, 151.40674, 156.5, 160.85498, 163.32031, 166.37012, 171.46338, 176.16992, 178.63525, 186.38721, 191.09375, 194.14355, 198.72266, 204.02246, 208.60156, 211.65137, 216.23047, 218.6958, 223.78906, 228.36816, 232.18701, 234.65234, 239.94336, 244.6499, 249.35645, " y="855, ">
				Why the metadata has been
		</text>
		<text fill="gray" font-size="9" font-family="Segoe UI" x="143, 145.17969, 150.27295, 154.43018, 156.60986, 161.70312, 167.00293, 171.70947, 177.00928, 179.47461, 183.07373, 185.53906, 190.24561, 194.37646, 199.66748, 202.79639, 207.50293, 211.32178, 215.14062, 219.84717, 225.14697, 227.6123, 232.90332, 237.2583, 239.72363, " y="867, ">
				included - expressed by a
		</text>
		<text fill="gray" font-size="9" font-family="Segoe UI" x="143, 149.78516, 155.35742, 160.63086, 165.93066, " y="879, ">
				QCode
		</text>
		<rect fill="white" x="147" y="820" width="36" height="16"/>
		<text font-size="12" font-weight="600" font-family="Segoe UI" x="147, 156.56836, 163.79297, " y="833, ">
				why
		</text>
		<rect fill="none" stroke="black" stroke-width="1" stroke-linecap="square" stroke-miterlimit="4" transform="translate(0.5 0.5)" x="138" y="818" width="51" height="20"/>
		<rect fill="silver" x="142" y="892" width="56" height="21"/>
		<rect fill="white" x="138" y="888" width="56" height="21"/>
		<rect fill="white" x="143" y="915" width="119" height="24"/>
		<text fill="gray" font-size="9" font-family="Segoe UI" x="143, 151.40674, 156.5, 160.85498, 163.32031, 166.37012, 171.46338, 176.16992, 178.63525, 186.38721, 191.09375, 194.14355, 198.72266, 204.02246, 208.60156, 211.65137, 216.23047, 218.6958, 223.78906, 228.36816, 232.18701, 234.65234, 239.94336, 244.6499, 249.35645, " y="925, ">
				Why the metadata has been
		</text>
		<text fill="gray" font-size="9" font-family="Segoe UI" x="143, 145.17969, 150.27295, 154.43018, 156.60986, 161.70312, 167.00293, 171.70947, 177.00928, 179.47461, 183.07373, 185.53906, 190.24561, 194.37646, 199.66748, 202.79639, 207.50293, 211.32178, 215.14062, 219.84717, 225.14697, 227.6123, 232.90332, 237.2583, 239.72363, 244.30273, 246.76807, 252.95117, 258.33447, " y="937, ">
				included - expressed by a URI
		</text>
		<rect fill="white" x="147" y="890" width="40" height="16"/>
		<text font-size="12" font-weight="600" font-family="Segoe UI" x="147, 156.56836, 163.79297, 170.25, 177.50977, 182.33203, " y="903, ">
				whyuri
		</text>
		<rect fill="none" stroke="black" stroke-width="1" stroke-linecap="square" stroke-miterlimit="4" transform="translate(0.5 0.5)" x="138" y="888" width="55" height="20"/>
		<rect fill="silver" x="142" y="950" width="97" height="21"/>
		<rect fill="white" x="138" y="946" width="97" height="21"/>
		<rect fill="white" x="143" y="973" width="117" height="72"/>
		<text fill="gray" font-size="9" font-family="Segoe UI" x="143, 149.78516, 154.87842, 159.58496, 162.05029, 167.32373, 170.45264, 172.91797, 180.66992, 185.24902, 190.34229, 194.69727, 197.1626, 201.31982, 206.59326, 211.68652, 215.50537, 218.55518, 221.68408, 226.26318, 228.44287, 233.53613, 236.58594, 240.40479, 242.87012, 245.91992, 251.01318, 255.59229, " y="983, ">
				One or many constraints that
		</text>
		<text fill="gray" font-size="9" font-family="Segoe UI" x="143, 147.5791, 152.87012, 158.16113, 160.34082, 164.6958, 167.16113, 170.21094, 175.48438, 177.94971, 183.24072, 188.33398, 193.625, 195.80469, 197.98438, 201.80322, 206.89648, 209.07617, 214.16943, 219.46924, 221.93457, 224.98438, 230.07764, 234.78418, 237.24951, 241.56055, 246.13965, 248.31934, 253.4126, " y="995, ">
				apply to publishing the value
		</text>
		<text fill="gray" font-size="9" font-family="Segoe UI" x="143, 148.27344, 151.09033, 153.55566, 156.60547, 161.69873, 166.40527, 168.87061, 174.16162, 177.29053, 182.56396, 187.85498, 192.56152, 195.69043, 198.74023, 203.09521, 205.56055, 209.15967, 211.625, 216.33154, 220.4624, 225.75342, 228.88232, 233.58887, 237.40771, 241.22656, 245.93311, " y="1007, ">
				of the property - expressed
		</text>
		<text fill="gray" font-size="9" font-family="Segoe UI" x="143, 148.29102, 152.646, 155.11133, 159.69043, 162.15576, 168.94092, 174.51318, 179.78662, 185.08643, 189.79297, 191.74414, 194.20947, 198.76221, 203.34131, 207.49854, 212.5918, 215.05713, 219.21436, 224.48779, 229.58105, 233.3999, 236.44971, 239.57861, 244.15771, 246.3374, 251.43066, " y="1019, ">
				by a QCode. Each constraint
		</text>
		<text fill="gray" font-size="9" font-family="Segoe UI" x="143, 147.5791, 152.87012, 158.16113, 160.34082, 162.52051, 167.22705, 171.0459, 173.51123, 176.56104, 181.83447, 184.2998, 188.87891, 191.05859, 193.23828, 195.70361, 201.00342, 205.70996, 209.52881, 213.68604, 218.39258, 223.48584, 228.78564, 233.36475, 238.45801, " y="1031, ">
				applies to all descendant
		</text>
		<text fill="gray" font-size="9" font-family="Segoe UI" x="143, 147.70654, 149.88623, 154.59277, 162.34473, 167.05127, 172.14453, 175.19434, 179.01318, " y="1043, ">
				elements.
		</text>
		<rect fill="white" x="147" y="948" width="81" height="16"/>
		<text font-size="12" font-weight="600" font-family="Segoe UI" x="147, 154.44141, 161.70117, 169.14258, 174.90234, 182.23828, 189.49805, 194.77734, 199.44727, 204.22266, 210.67969, 214.08984, 221.34961, " y="961, ">
				pubconstraint
		</text>
		<rect fill="none" stroke="black" stroke-width="1" stroke-linecap="square" stroke-miterlimit="4" transform="translate(0.5 0.5)" x="138" y="946" width="96" height="20"/>
		<rect fill="silver" x="142" y="1056" width="112" height="21"/>
		<rect fill="white" x="138" y="1052" width="112" height="21"/>
		<rect fill="white" x="143" y="1079" width="117" height="72"/>
		<text fill="gray" font-size="9" font-family="Segoe UI" x="143, 149.78516, 154.87842, 159.58496, 162.05029, 167.32373, 170.45264, 172.91797, 180.66992, 185.24902, 190.34229, 194.69727, 197.1626, 201.31982, 206.59326, 211.68652, 215.50537, 218.55518, 221.68408, 226.26318, 228.44287, 233.53613, 236.58594, 240.40479, 242.87012, 245.91992, 251.01318, 255.59229, " y="1089, ">
				One or many constraints that
		</text>
		<text fill="gray" font-size="9" font-family="Segoe UI" x="143, 147.5791, 152.87012, 158.16113, 160.34082, 164.6958, 167.16113, 170.21094, 175.48438, 177.94971, 183.24072, 188.33398, 193.625, 195.80469, 197.98438, 201.80322, 206.89648, 209.07617, 214.16943, 219.46924, 221.93457, 224.98438, 230.07764, 234.78418, 237.24951, 241.56055, 246.13965, 248.31934, 253.4126, " y="1101, ">
				apply to publishing the value
		</text>
		<text fill="gray" font-size="9" font-family="Segoe UI" x="143, 148.27344, 151.09033, 153.55566, 156.60547, 161.69873, 166.40527, 168.87061, 174.16162, 177.29053, 182.56396, 187.85498, 192.56152, 195.69043, 198.74023, 203.09521, 205.56055, 209.15967, 211.625, 216.33154, 220.4624, 225.75342, 228.88232, 233.58887, 237.40771, 241.22656, 245.93311, " y="1113, ">
				of the property - expressed
		</text>
		<text fill="gray" font-size="9" font-family="Segoe UI" x="143, 148.29102, 152.646, 155.11133, 159.69043, 162.15576, 168.33887, 173.72217, 176.11719, 178.06836, 180.53369, 185.08643, 189.66553, 193.82275, 198.91602, 201.38135, 205.53857, 210.81201, 215.90527, 219.72412, 222.77393, 225.90283, 230.48193, 232.66162, 237.75488, " y="1125, ">
				by a URI. Each constraint
		</text>
		<text fill="gray" font-size="9" font-family="Segoe UI" x="143, 147.5791, 152.87012, 158.16113, 160.34082, 162.52051, 167.22705, 171.0459, 173.51123, 176.56104, 181.83447, 184.2998, 188.87891, 191.05859, 193.23828, 195.70361, 201.00342, 205.70996, 209.52881, 213.68604, 218.39258, 223.48584, 228.78564, 233.36475, 238.45801, " y="1137, ">
				applies to all descendant
		</text>
		<text fill="gray" font-size="9" font-family="Segoe UI" x="143, 147.70654, 149.88623, 154.59277, 162.34473, 167.05127, 172.14453, 175.19434, 179.01318, " y="1149, ">
				elements.
		</text>
		<rect fill="white" x="147" y="1054" width="96" height="16"/>
		<text font-size="12" font-weight="600" font-family="Segoe UI" x="147, 154.44141, 161.70117, 169.14258, 174.90234, 182.23828, 189.49805, 194.77734, 199.44727, 204.22266, 210.67969, 214.08984, 221.34961, 226.01953, 233.2793, 238.10156, " y="1067, ">
				pubconstrainturi
		</text>
		<rect fill="none" stroke="black" stroke-width="1" stroke-linecap="square" stroke-miterlimit="4" transform="translate(0.5 0.5)" x="138" y="1052" width="111" height="20"/>
		<rect fill="silver" x="142" y="1162" width="83" height="21"/>
		<rect fill="white" x="138" y="1158" width="83" height="21"/>
		<rect fill="white" x="143" y="1185" width="121" height="36"/>
		<text fill="gray" font-size="9" font-family="Segoe UI" x="143, 147.71533, 152.80859, 157.51514, 159.98047, 165.28027, 169.85938, 172.90918, 177.61572, 180.08105, 182.79688, 187.37598, 192.46924, 197.76904, 200.23438, 205.50781, 210.79883, 213.84863, 216.02832, 221.30176, 226.39502, 230.97412, 233.15381, 235.3335, 239.68848, 242.15381, 245.20361, 247.3833, 255.13525, 259.8418, " y="1195, ">
				The date (and optionally time)
		</text>
		<text fill="gray" font-size="9" font-family="Segoe UI" x="143, 147.5791, 150.62891, 153.09424, 159.59814, 164.69141, 166.87109, 171.02832, 176.12158, 178.58691, 181.63672, 186.72998, 191.43652, 193.90186, 198.48096, 203.77197, 209.06299, 212.19189, 217.46533, 221.59619, 223.77588, 231.52783, 236.10693, 239.15674, 241.33643, 246.60986, " y="1207, ">
				at which the approximation
		</text>
		<text fill="gray" font-size="9" font-family="Segoe UI" x="143, 146.12891, 150.70801, 155.80127, 161.10107, 165.80762, 168.27295, 173.56396, 178.27051, 183.57031, 185.75, 190.84326, 194.66211, " y="1219, ">
				range begins.
		</text>
		<rect fill="white" x="147" y="1160" width="67" height="16"/>
		<text font-size="12" font-weight="600" font-family="Segoe UI" x="147, 153.45703, 160.89844, 168.33984, 173.06836, 180.16406, 186.79102, 192.07031, 196.74023, 203.19727, 208.31836, " y="1173, ">
				approxstart
		</text>
		<rect fill="none" stroke="black" stroke-width="1" stroke-linecap="square" stroke-miterlimit="4" transform="translate(0.5 0.5)" x="138" y="1158" width="82" height="20"/>
		<rect fill="silver" x="142" y="1232" width="78" height="21"/>
		<rect fill="white" x="138" y="1228" width="78" height="21"/>
		<rect fill="white" x="143" y="1255" width="114" height="36"/>
		<text fill="gray" font-size="9" font-family="Segoe UI" x="143, 147.71533, 152.80859, 157.51514, 159.98047, 165.28027, 169.85938, 172.90918, 177.61572, 180.08105, 182.79688, 187.37598, 192.46924, 197.76904, 200.23438, 205.50781, 210.79883, 213.84863, 216.02832, 221.30176, 226.39502, 230.97412, 233.15381, 235.3335, 239.68848, 242.15381, 245.20361, 250.29688, " y="1265, ">
				The date (and optionally the
		</text>
		<text fill="gray" font-size="9" font-family="Segoe UI" x="143, 146.0498, 148.22949, 155.98145, 160.68799, 163.40381, 165.86914, 170.44824, 173.49805, 175.96338, 182.46729, 187.56055, 189.74023, 193.89746, 198.99072, 201.45605, 204.50586, 209.59912, " y="1277, ">
				time) at which the
		</text>
		<text fill="gray" font-size="9" font-family="Segoe UI" x="143, 147.5791, 152.87012, 158.16113, 161.29004, 166.56348, 170.69434, 172.87402, 180.62598, 185.20508, 188.25488, 190.43457, 195.70801, 200.80127, 203.2666, 206.39551, 210.97461, 216.06787, 221.36768, 226.07422, 228.53955, 233.24609, 238.33936, 243.63916, 247.45801, " y="1289, ">
				approximation range ends.
		</text>
		<rect fill="white" x="147" y="1230" width="62" height="16"/>
		<text font-size="12" font-weight="600" font-family="Segoe UI" x="147, 153.45703, 160.89844, 168.33984, 173.06836, 180.16406, 186.58594, 193.07812, 200.33789, " y="1243, ">
				approxend
		</text>
		<rect fill="none" stroke="black" stroke-width="1" stroke-linecap="square" stroke-miterlimit="4" transform="translate(0.5 0.5)" x="138" y="1228" width="77" height="20"/>
		<path fill="silver" d="M142 1307L147 1302L215 1302L220 1307L220 1318L215 1323L147 1323L142 1318L142 1307Z"/>
		<path fill="white" d="M138 1303L143 1298L211 1298L216 1303L216 1314L211 1319L143 1319L138 1314L138 1303Z"/>
		<rect fill="white" x="165" y="1300" width="46" height="16"/>
		<text font-size="12" font-weight="600" font-family="Segoe UI" x="165, 172.10742, 179.21484, 186.55078, 191.2207, 198.44531, 204.9375, " y="1313, ">
				##other
		</text>
		<rect fill="white" x="143" y="1300" width="20" height="16"/>
		<text fill="gray" font-size="12" font-family="Segoe UI" x="143, 149.10547, 155.89648, " y="1313, ">
				any
		</text>
		<path fill="none" stroke="black" stroke-width="1" stroke-linecap="square" stroke-miterlimit="4" transform="translate(0.5 0.5)" d="M138 1303L143 1298L210 1298L215 1303L215 1313L210 1318L143 1318L138 1313L138 1303Z"/>
		<rect x="129" y="41" width="11" height="11"/>
		<rect fill="white" x="130" y="42" width="9" height="9"/>
		<rect x="131" y="46" width="7" height="1"/>
		<path fill="white" d="M201 1373L201 1354L124 1354L124 1373L124 1703L347 1703L347 1373L201 1373Z"/>
		<rect fill="white" x="144" y="1356" width="51" height="16"/>
		<text font-size="12" font-style="italic" font-family="Segoe UI" x="144, 150.50391, 154.38281, 158.26172, 162.5332, 165.63867, 172.14258, 178.83984, 182.73047, 188.57227, " y="1369, ">
				attributes
		</text>
		<path fill="none" stroke="black" stroke-width="1" stroke-linecap="square" stroke-miterlimit="4" transform="translate(0.5 0.5)" d="M201 1373L201 1354L124 1354L124 1373L124 1703L347 1703L347 1373L201 1373Z"/>
		<path fill="white" d="M339 1401L339 1382L138 1382L138 1401L138 1670L339 1670L339 1401Z"/>
		<rect fill="white" x="143" y="1673" width="193" height="24"/>
		<text fill="gray" font-size="9" font-family="Segoe UI" x="143, 148.80518, 151.27051, 156.57031, 159.69922, 164.97266, 170.06592, 175.35693, 177.82227, 183.0957, 185.9126, 188.37793, 192.95703, 196.00684, 199.05664, 202.18555, 204.36523, 209.65625, 214.74951, 217.79932, 222.50586, 226.32471, 228.79004, 231.91895, 236.62549, 239.44238, 241.62207, 246.32861, 250.48584, 253.53564, 255.71533, 260.80859, 266.1084, 268.57373, 271.62354, 276.7168, 281.42334, 283.88867, 288.0459, 293.31934, 298.4126, 301.22949, 303.40918, 306.53809, 314.29004, 318.86914, 321.91895, 324.09863, 329.37207, " y="1683, ">
				A group of attributes reflecting the confirmation
		</text>
		<text fill="gray" font-size="9" font-family="Segoe UI" x="143, 146.81885, 149.86865, 154.44775, 157.49756, 162.59082, 166.40967, 168.875, 174.14844, 176.96533, 179.43066, 184.00977, 186.4751, 191.7749, 196.354, 199.40381, 204.11035, " y="1695, ">
				status of a date.
		</text>
		<rect fill="white" x="180" y="1384" width="153" height="16"/>
		<text font-size="12" font-weight="600" font-family="Segoe UI" x="180, 185.75977, 193.0957, 200.35547, 204.95508, 208.36523, 213.17578, 224.16797, 230.625, 235.29492, 238.70508, 246.04102, 253.30078, 259.72852, 264.39844, 270.85547, 275.52539, 282.78516, 288.06445, 296.26172, 300.93164, 305.60156, 310.42383, 313.83398, " y="1397, ">
				confirmationStatusAttrib
		</text>
		<text font-size="12" font-weight="600" font-family="Segoe UI" x="321.27539, 324.52734, 327.7793, " y="1397, ">
				...
		</text>
		<rect fill="white" x="158" y="1384" width="20" height="16"/>
		<text fill="gray" font-size="12" font-family="Segoe UI" x="158, 165.06641, 169.23828, " y="1397, ">
				grp
		</text>
		<path fill="none" stroke="gray" stroke-width="1" stroke-linecap="square" stroke-miterlimit="4" transform="translate(0.5 0.5)" d="M138 1401L138 1670L339 1670L339 1401L339 1401"/>
		<path fill="none" stroke="black" stroke-width="1" stroke-linecap="square" stroke-miterlimit="4" transform="translate(0.5 0.5)" d="M339 1401L339 1382L138 1382L138 1401"/>
		<rect x="143" y="1387" width="11" height="11"/>
		<rect fill="white" x="144" y="1388" width="9" height="9"/>
		<rect x="145" y="1392" width="7" height="1"/>
		<rect fill="silver" x="150" y="1415" width="124" height="21"/>
		<rect fill="white" x="146" y="1411" width="124" height="21"/>
		<rect fill="white" x="151" y="1438" width="114" height="108"/>
		<text fill="gray" font-size="9" font-family="Segoe UI" x="151, 153.39502, 158.48828, 163.78809, 165.96777, 170.125, 174.7041, 177.75391, 182.46045, 186.2793, 188.74463, 191.79443, 196.8877, 201.59424, 204.05957, 208.2168, 213.49023, 218.5835, 221.40039, 223.58008, 226.70898, 234.46094, 239.04004, 242.08984, 244.26953, 249.54297, " y="1448, ">
				Indicates the confirmation
		</text>
		<text fill="gray" font-size="9" font-family="Segoe UI" x="151, 154.81885, 157.86865, 162.44775, 165.49756, 170.59082, 174.40967, 176.875, 182.14844, 184.96533, 187.43066, 190.48047, 195.57373, 200.28027, 202.74561, 208.04541, 212.62451, 215.67432, 220.38086, 223.8877, 229.17871, 233.88525, 237.01416, 239.19385, 244.46729, 249.76709, " y="1460, ">
				status of the date/period/
		</text>
		<text fill="gray" font-size="9" font-family="Segoe UI" x="151, 156.2998, 161.39307, 164.52197, 169.10107, 172.15088, 174.33057, 179.604, 184.69727, 186.64844, 189.11377, 193.8291, 198.92236, 203.62891, 206.09424, 209.22314, 213.92969, 218.08691, 223.36035, 231.1123, 238.86426, 243.5708, 248.66406, 253.96387, 258.67041, " y="1472, ">
				duration. The recommended
		</text>
		<text fill="gray" font-size="9" font-family="Segoe UI" x="151, 155.31104, 160.58447, 164.7417, 169.3208, 174.61182, 179.70508, 181.88477, 186.46387, 189.59277, 193.94775, 196.41309, 198.59277, 202.41162, 204.87695, 207.92676, 213.02002, 217.72656, 220.19189, 222.58691, 227.62744, 231.92529, 237.49756, 239.96289, 244.51562, 248.82666, 253.5332, 258.62646, " y="1484, ">
				vocabulary is the IPTC Event
		</text>
		<text fill="gray" font-size="9" font-family="Segoe UI" x="151, 157.31055, 161.88965, 164.93945, 169.646, 172.11133, 177.68359, 182.95703, 188.05029, 190.86719, 193.04688, 196.17578, 203.92773, 208.50684, 211.55664, 213.73633, 219.00977, " y="1496, ">
				Date Confirmation
		</text>
		<text fill="gray" font-size="9" font-family="Segoe UI" x="151, 157.73242, 162.43896, 168.94287, 172.76172, 178.33398, 183.60742, 188.90723, 193.61377, 197.43262, 199.89795, 203.49707, 205.9624, 211.05566, 214.10547, 217.15527, 222.44629, 224.39746, 227.9043, " y="1508, ">
				NewsCodes - http://
		</text>
		<text fill="gray" font-size="9" font-family="Segoe UI" x="151, 155.15723, 159.46826, 161.41943, 163.59912, 168.89014, 171.93994, 176.09717, 178.04834, 183.32178, 186.45068, 191.75049, 195.25732, 200.35059, 205.05713, 211.56104, 215.37988, 219.53711, 224.81055, 230.11035, 234.81689, 238.63574, " y="1520, ">
				cv.iptc.org/newscodes/
		</text>
		<text fill="gray" font-size="9" font-family="Segoe UI" x="151, 155.70654, 160.01758, 164.72412, 169.81738, 172.86719, 178.16699, 182.74609, 185.7959, 190.50244, 194.65967, 199.93311, 205.02637, 207.84326, 210.02295, 213.15186, 220.90381, 224.41064, 226.87598, " y="1532, ">
				eventdateconfirm/ -
		</text>
		<text fill="gray" font-size="9" font-family="Segoe UI" x="151, 155.70654, 159.8374, 165.12842, 168.25732, 172.96387, 176.78271, 180.60156, 185.30811, 190.60791, 193.07324, 198.36426, 202.71924, 205.18457, 209.76367, 212.229, 219.01416, 224.58643, 229.85986, 235.15967, 239.86621, " y="1544, ">
				expressed by a QCode.
		</text>
		<rect fill="white" x="155" y="1413" width="108" height="16"/>
		<text font-size="12" font-weight="600" font-family="Segoe UI" x="155, 160.75977, 168.0957, 175.35547, 179.95508, 183.36523, 188.17578, 199.16797, 205.625, 210.29492, 213.70508, 221.04102, 228.30078, 233.58008, 238.25, 244.70703, 249.37695, 256.63672, " y="1426, ">
				confirmationstatus
		</text>
		<rect fill="none" stroke="black" stroke-width="1" stroke-linecap="square" stroke-miterlimit="4" transform="translate(0.5 0.5)" x="146" y="1411" width="123" height="20"/>
		<rect fill="silver" x="150" y="1557" width="140" height="21"/>
		<rect fill="white" x="146" y="1553" width="140" height="21"/>
		<rect fill="white" x="151" y="1580" width="131" height="84"/>
		<text fill="gray" font-size="9" font-family="Segoe UI" x="151, 153.39502, 158.48828, 163.78809, 165.96777, 170.125, 174.7041, 177.75391, 182.46045, 186.2793, 188.74463, 191.79443, 196.8877, 201.59424, 204.05957, 208.2168, 213.49023, 218.5835, 221.40039, 223.58008, 226.70898, 234.46094, 239.04004, 242.08984, 244.26953, 249.54297, 254.63623, 257.10156, 260.92041, 263.97021, 268.54932, 271.59912, 276.69238, " y="1590, ">
				Indicates the confirmation status
		</text>
		<text fill="gray" font-size="9" font-family="Segoe UI" x="151, 156.27344, 159.09033, 161.55566, 164.60547, 169.69873, 174.40527, 176.87061, 182.17041, 186.74951, 189.79932, 194.50586, 198.0127, 203.30371, 208.01025, 211.13916, 213.31885, 218.59229, 223.89209, 227.39893, 232.69873, 237.79199, 240.9209, 245.5, 248.5498, 250.72949, 256.00293, 261.09619, 263.04736, 265.5127, 270.22803, 275.32129, " y="1602, ">
				of the date/period/duration. The
		</text>
		<text fill="gray" font-size="9" font-family="Segoe UI" x="151, 154.12891, 158.83545, 162.99268, 168.26611, 176.01807, 183.77002, 188.47656, 193.56982, 198.86963, 203.57617, 208.87598, 211.34131, 215.65234, 220.92578, 225.08301, 229.66211, 234.95312, 240.04639, 242.22607, 246.80518, 249.93408, 254.28906, 256.75439, 258.93408, 262.75293, 265.21826, 268.26807, 273.36133, " y="1614, ">
				recommended vocabulary is the
		</text>
		<text fill="gray" font-size="9" font-family="Segoe UI" x="151, 153.39502, 158.43555, 162.7334, 168.30566, 170.771, 175.32373, 179.63477, 184.34131, 189.43457, 192.48438, 194.94971, 201.26025, 205.83936, 208.88916, 213.5957, 216.06104, 221.6333, 226.90674, 232, 234.81689, 236.99658, 240.12549, 247.87744, 252.45654, 255.50635, 257.68604, 262.95947, " y="1626, ">
				IPTC Event Date Confirmation
		</text>
		<text fill="gray" font-size="9" font-family="Segoe UI" x="151, 157.73242, 162.43896, 168.94287, 172.76172, 178.33398, 183.60742, 188.90723, 193.61377, 197.43262, 199.89795, 203.49707, 205.9624, 211.05566, 214.10547, 217.15527, 222.44629, 224.39746, 227.9043, 231.41113, 235.56836, 239.87939, 241.83057, 244.01025, 249.30127, 252.35107, 256.5083, 258.45947, 263.73291, 266.86182, 272.16162, " y="1638, ">
				NewsCodes - http://cv.iptc.org/
		</text>
		<text fill="gray" font-size="9" font-family="Segoe UI" x="151, 156.09326, 160.7998, 167.30371, 171.12256, 175.27979, 180.55322, 185.85303, 190.55957, 194.37842, 197.88525, 202.5918, 206.90283, 211.60938, 216.70264, 219.75244, 225.05225, 229.63135, 232.68115, 237.3877, 241.54492, 246.81836, 251.91162, 254.72852, 256.9082, 260.03711, 267.78906, 271.2959, 273.76123, " y="1650, ">
				newscodes/eventdateconfirm/ -
		</text>
		<text fill="gray" font-size="9" font-family="Segoe UI" x="151, 155.70654, 159.8374, 165.12842, 168.25732, 172.96387, 176.78271, 180.60156, 185.30811, 190.60791, 193.07324, 198.36426, 202.71924, 205.18457, 209.76367, 212.229, 218.41211, 223.79541, 226.19043, " y="1662, ">
				expressed by a URI.
		</text>
		<rect fill="white" x="155" y="1555" width="124" height="16"/>
		<text font-size="12" font-weight="600" font-family="Segoe UI" x="155, 160.75977, 168.0957, 175.35547, 179.95508, 183.36523, 188.17578, 199.16797, 205.625, 210.29492, 213.70508, 221.04102, 228.30078, 233.58008, 238.25, 244.70703, 249.37695, 256.63672, 261.91602, 269.17578, 273.99805, " y="1568, ">
				confirmationstatusuri
		</text>
		<rect fill="none" stroke="black" stroke-width="1" stroke-linecap="square" stroke-miterlimit="4" transform="translate(0.5 0.5)" x="146" y="1553" width="139" height="20"/>
		<rect x="129" y="1359" width="11" height="11"/>
		<rect fill="white" x="130" y="1360" width="9" height="9"/>
		<rect x="131" y="1364" width="7" height="1"/>
		<rect x="46" y="678" width="11" height="11"/>
		<rect fill="white" x="47" y="679" width="9" height="9"/>
		<rect x="48" y="683" width="7" height="1"/>
	</g>
</svg>
