<?xml version="1.0" encoding="utf-8" ?>
<svg xmlns="http://www.w3.org/2000/svg" xmlns:xlink="http://www.w3.org/1999/xlink" width="387" height="1594">
	<clipPath id="cl_42d">
		<rect x="-10" y="-5" width="387" height="1594"/>
	</clipPath>
	<g clip-path="url(#cl_42d)">
		<path fill="none" stroke="black" stroke-width="1" stroke-linecap="square" stroke-miterlimit="4" transform="translate(0.5 0.5)" d="M57 1128L137 1128"/>
		<path fill="none" stroke="black" stroke-width="1" stroke-linecap="square" stroke-miterlimit="4" transform="translate(0.5 0.5)" d="M138 1128L138 746"/>
		<path fill="none" stroke="black" stroke-width="1" stroke-linecap="square" stroke-miterlimit="4" transform="translate(0.5 0.5)" d="M138 1128L138 1511"/>
		<path fill="none" stroke="black" stroke-width="1" stroke-linecap="square" stroke-miterlimit="4" transform="translate(0.5 0.5)" d="M138 1512L152 1512"/>
		<path fill="none" stroke="black" stroke-width="1" stroke-linecap="square" stroke-miterlimit="4" transform="translate(0.5 0.5)" d="M138 745L152 745"/>
		<rect fill="silver" x="4" y="1122" width="52" height="21"/>
		<rect fill="white" y="1118" width="52" height="21"/>
		<rect fill="white" x="5" y="1145" width="119" height="24"/>
		<text fill="gray" font-size="9" font-family="Segoe UI" x="5, 10.805176, 13.270508, 18.570312, 21.699219, 26.972656, 32.065918, 37.356934, 39.822266, 45.095703, 47.912598, 50.37793, 55.084473, 59.215332, 61.39502, 65.213867, 68.263672, 70.443359, 75.536621, 80.836426, 83.301758, 87.458984, 92.732422, 97.825684, 101.98291, 106.68945, 111.98047, 115.03027, " y="1155, ">
				A group of existing concepts
		</text>
		<text fill="gray" font-size="9" font-family="Segoe UI" x="5, 11.503906, 16.597168, 18.776855, 22.934082, 28.027344, 30.492676, 35.199219, 39.330078, 44.621094, 47.75, 52.456543, 56.275391, 60.094238, 62.55957, 67.138672, 69.604004, 74.697266, 79.403809, 85.907715, 88.373047, 92.530273, 97.803711, 102.89697, 107.0542, 111.76074, 117.05176, 120.10156, " y="1167, ">
				which express a new concept.
		</text>
		<rect fill="white" x="9" y="1120" width="31" height="16"/>
		<text font-size="12" font-weight="600" font-family="Segoe UI" x="9, 16.324219, 22.78125, " y="1133, ">
				bag
		</text>
		<rect fill="none" stroke="black" stroke-width="1" stroke-linecap="square" stroke-miterlimit="4" transform="translate(0.5 0.5)" y="1118" width="51" height="20"/>
		<path fill="white" d="M230 19L230 0L153 0L153 19L153 1489L366 1489L366 19L230 19Z"/>
		<rect fill="white" x="173" y="2" width="51" height="16"/>
		<text font-size="12" font-style="italic" font-family="Segoe UI" x="173, 179.50391, 183.38281, 187.26172, 191.5332, 194.63867, 201.14258, 207.83984, 211.73047, 217.57227, " y="15, ">
				attributes
		</text>
		<path fill="none" stroke="black" stroke-width="1" stroke-linecap="square" stroke-miterlimit="4" transform="translate(0.5 0.5)" d="M230 19L230 0L153 0L153 19L153 1489L366 1489L366 19L230 19Z"/>
		<path fill="white" d="M358 47L358 28L167 28L167 47L167 1150L358 1150L358 47Z"/>
		<rect fill="white" x="172" y="1153" width="179" height="48"/>
		<text fill="gray" font-size="9" font-family="Segoe UI" x="172, 177.80518, 180.27051, 185.57031, 188.69922, 193.97266, 199.06592, 204.35693, 206.82227, 212.0957, 214.9126, 217.37793, 221.95703, 225.00684, 228.05664, 231.18555, 233.36523, 238.65625, 243.74951, 246.79932, 251.50586, 255.32471, 257.79004, 260.60693, 265.88037, 269.00928, 271.47461, 276.05371, 278.2334, 280.41309, 282.87842, 287.58496, 289.76465, 294.47119, 302.22314, 306.92969, 312.02295, 315.07275, 318.8916, 321.35693, 326.63037, 329.44727, 331.9126, 336.4917, 338.95703, 345.13135, " y="1163, ">
				A group of attributes for all elements of a G2
		</text>
		<text fill="gray" font-size="9" font-family="Segoe UI" x="172, 174.39502, 177.44482, 182.15137, 189.90332, 192.36865, 197.0752, 201.20605, 205.36328, 210.06982, 215.36084, 218.41064, 220.87598, 223.05566, 226.10547, 229.92432, 232.38965, 235.51855, 240.79199, 246.06543, 249.11523, 251.58057, 256.28711, 258.4668, 263.17334, 270.92529, 275.63184, 280.7251, 283.7749, 285.72607, 288.19141, 291.24121, 296.33447, 301.04102, 303.50635, 305.68604, 308.73584, 313.44238, 321.19434, 329.27588, 333.98242, 337.03223, " y="1175, ">
				Item except its root element, the itemMeta
		</text>
		<text fill="gray" font-size="9" font-family="Segoe UI" x="172, 176.70654, 178.88623, 183.59277, 191.34473, 196.05127, 201.14453, 204.19434, 206.65967, 211.23877, 216.33203, 221.63184, 224.09717, 228.67627, 230.85596, 233.03564, 235.50098, 240.77441, 243.59131, 246.05664, 248.23633, 251.28613, 255.10498, 257.57031, 261.72754, 266.8208, 269.00049, 271.18018, 276.47998, 279.60889, 284.31543, 289.40869, 291.87402, 298.37793, 303.47119, 305.65088, 309.80811, 314.90137, 317.3667, 321.9458, 325.07471, " y="1187, ">
				element and all of its children which are
		</text>
		<text fill="gray" font-size="9" font-family="Segoe UI" x="172, 179.75195, 184.33105, 189.42432, 194.72412, 199.30322, 202.35303, 207.62646, 210.75537, 215.11035, " y="1199, ">
				mandatory.
		</text>
		<rect fill="white" x="209" y="30" width="143" height="16"/>
		<text font-size="12" font-weight="600" font-family="Segoe UI" x="209, 214.75977, 222.0957, 233.08789, 244.08008, 251.41602, 258.67578, 265.68945, 273.02539, 282.53516, 289.02734, 293.80273, 302, 306.66992, 311.33984, 316.16211, 319.57227, 327.01367, 334.27344, 338.89648, 345.38867, " y="43, ">
				commonPowerAttributes
		</text>
		<rect fill="white" x="187" y="30" width="20" height="16"/>
		<text fill="gray" font-size="12" font-family="Segoe UI" x="187, 194.06641, 198.23828, " y="43, ">
				grp
		</text>
		<path fill="none" stroke="gray" stroke-width="1" stroke-linecap="square" stroke-miterlimit="4" transform="translate(0.5 0.5)" d="M167 47L167 1150L358 1150L358 47L358 47"/>
		<path fill="none" stroke="black" stroke-width="1" stroke-linecap="square" stroke-miterlimit="4" transform="translate(0.5 0.5)" d="M358 47L358 28L167 28L167 47"/>
		<rect x="172" y="33" width="11" height="11"/>
		<rect fill="white" x="173" y="34" width="9" height="9"/>
		<rect x="174" y="38" width="7" height="1"/>
		<rect fill="silver" x="179" y="61" width="52" height="21"/>
		<rect fill="white" x="175" y="57" width="52" height="21"/>
		<rect fill="white" x="180" y="84" width="101" height="24"/>
		<text fill="gray" font-size="9" font-family="Segoe UI" x="180, 184.71533, 189.80859, 194.51514, 196.98047, 199.16016, 204.43359, 208.59082, 213.16992, 215.34961, 217.81494, 219.99463, 225.29443, 230.00098, 235.09424, 238.14404, 240.32373, 243.14062, 245.32031, 250.02686, 253.15576, 255.62109, 260.89453, 263.71143, 266.17676, 269.22656, 274.31982, " y="94, ">
				The local identifier of the
		</text>
		<text fill="gray" font-size="9" font-family="Segoe UI" x="180, 185.29102, 188.41992, 193.69336, 198.98438, 203.69092, 206.81982, 209.86963, 214.22461, " y="106, ">
				property.
		</text>
		<rect fill="white" x="184" y="59" width="36" height="16"/>
		<text font-size="12" font-weight="600" font-family="Segoe UI" x="184, 187.41016, " y="72, ">
				id
		</text>
		<rect fill="none" stroke="black" stroke-width="1" stroke-linecap="square" stroke-miterlimit="4" transform="translate(0.5 0.5)" x="175" y="57" width="51" height="20"/>
		<rect fill="silver" x="179" y="119" width="58" height="21"/>
		<rect fill="white" x="175" y="115" width="58" height="21"/>
		<rect fill="white" x="180" y="142" width="121" height="120"/>
		<text fill="gray" font-size="9" font-family="Segoe UI" x="180, 182.39502, 185.21191, 187.67725, 190.72705, 195.82031, 200.52686, 202.99219, 208.2832, 211.41211, 216.68555, 221.97656, 226.68311, 229.81201, 232.86182, 237.2168, 239.68213, 243.99316, 248.57227, 250.75195, 255.84521, 260.55176, 263.01709, 265.19678, 269.01562, 271.48096, 276.57422, 281.84766, " y="152, ">
				If the property value is not
		</text>
		<text fill="gray" font-size="9" font-family="Segoe UI" x="180, 185.2998, 190.00635, 192.82324, 195.00293, 200.09619, 204.80273, 210.10254, 212.05371, 214.51904, 218.33789, 223.62891, 228.33545, 232.49268, 234.67236, 237.48926, 239.66895, 244.37549, 248.19434, 250.65967, 257.16357, 262.25684, 264.43652, 268.59375, 273.68701, 276.15234, 280.85889, 285.95215, 289.00195, 291.18164, 294.23145, " y="164, ">
				defined, specifies which entity
		</text>
		<text fill="gray" font-size="9" font-family="Segoe UI" x="180, 182.71582, 188.00684, 192.71338, 195.84229, 199.66113, 204.93457, 210.02783, 211.979, 214.44434, 219.71777, 222.84668, 228.14648, 232.72559, 237.81885, 239.99854, 243.81738, 248.39648, 251.44629, 253.62598, 258.89941, 263.99268, 266.45801, 271.73145, " y="176, ">
				(person, organisation or
		</text>
		<text fill="gray" font-size="9" font-family="Segoe UI" x="180, 183.81885, 188.17383, 191.99268, 195.04248, 199.74902, 207.50098, 210.2168, 212.68213, 219.18604, 221.36572, 223.54541, 225.7251, 228.19043, 232.89697, 238.19678, 240.37646, 243.42627, 245.8916, 248.94141, 254.03467, 258.74121, 261.20654, 266.49756, 269.62646, 274.8999, 280.19092, 284.89746, 288.02637, 291.07617, " y="188, ">
				system) will edit the property
		</text>
		<text fill="gray" font-size="9" font-family="Segoe UI" x="180, 184.31104, 188.89014, 191.06982, 196.16309, 200.86963, 203.33496, 206.93408, 209.39941, 214.10596, 218.23682, 223.52783, 226.65674, 231.36328, 235.18213, 239.00098, 243.70752, 249.00732, 251.47266, 256.76367, 261.11865, 263.58398, 268.16309, 270.62842, 277.41357, 282.98584, 288.25928, 293.55908, 298.26562, " y="200, ">
				value - expressed by a QCode.
		</text>
		<text fill="gray" font-size="9" font-family="Segoe UI" x="180, 182.39502, 185.21191, 187.67725, 190.72705, 195.82031, 200.52686, 202.99219, 208.2832, 211.41211, 216.68555, 221.97656, 226.68311, 229.81201, 232.86182, 237.2168, 239.68213, 243.99316, 248.57227, 250.75195, 255.84521, 260.55176, 263.01709, 265.19678, " y="212, ">
				If the property value is
		</text>
		<text fill="gray" font-size="9" font-family="Segoe UI" x="180, 185.2998, 190.00635, 192.82324, 195.00293, 200.09619, 204.80273, 210.10254, 212.05371, 214.51904, 218.33789, 223.62891, 228.33545, 232.49268, 234.67236, 237.48926, 239.66895, 244.37549, 248.19434, 250.65967, 257.16357, 262.25684, 264.43652, 268.59375, 273.68701, 276.15234, 280.85889, 285.95215, 289.00195, 291.18164, 294.23145, " y="224, ">
				defined, specifies which entity
		</text>
		<text fill="gray" font-size="9" font-family="Segoe UI" x="180, 182.71582, 188.00684, 192.71338, 195.84229, 199.66113, 204.93457, 210.02783, 211.979, 214.44434, 219.71777, 222.84668, 228.14648, 232.72559, 237.81885, 239.99854, 243.81738, 248.39648, 251.44629, 253.62598, 258.89941, 263.99268, 266.45801, 271.73145, " y="236, ">
				(person, organisation or
		</text>
		<text fill="gray" font-size="9" font-family="Segoe UI" x="180, 183.81885, 188.17383, 191.99268, 195.04248, 199.74902, 207.50098, 210.2168, 212.68213, 217.77539, 222.35449, 226.17334, 228.63867, 233.34521, 238.64502, 240.82471, 243.87451, 248.58105, 253.88086, 256.34619, 259.396, 264.48926, " y="248, ">
				system) has edited the
		</text>
		<text fill="gray" font-size="9" font-family="Segoe UI" x="180, 185.29102, 188.41992, 193.69336, 198.98438, 203.69092, 206.81982, 209.86963, 214.22461, 216.68994, 221.00098, 225.58008, 227.75977, 232.85303, 237.55957, " y="260, ">
				property value.
		</text>
		<rect fill="white" x="184" y="117" width="42" height="16"/>
		<text font-size="12" font-weight="600" font-family="Segoe UI" x="184, 189.75977, 194.48828, 200.98047, 207.4375, 212.06055, 219.39648, " y="130, ">
				creator
		</text>
		<rect fill="none" stroke="black" stroke-width="1" stroke-linecap="square" stroke-miterlimit="4" transform="translate(0.5 0.5)" x="175" y="115" width="57" height="20"/>
		<rect fill="silver" x="179" y="273" width="73" height="21"/>
		<rect fill="white" x="175" y="269" width="73" height="21"/>
		<rect fill="white" x="180" y="296" width="120" height="108"/>
		<text fill="gray" font-size="9" font-family="Segoe UI" x="180, 182.39502, 185.21191, 187.67725, 190.72705, 195.82031, 200.52686, 202.99219, 208.2832, 211.41211, 216.68555, 221.97656, 226.68311, 229.81201, 232.86182, 237.2168, 239.68213, 243.99316, 248.57227, 250.75195, 255.84521, 260.55176, 263.01709, 265.19678, 269.01562, 271.48096, 276.57422, 281.84766, " y="306, ">
				If the property value is not
		</text>
		<text fill="gray" font-size="9" font-family="Segoe UI" x="180, 185.2998, 190.00635, 192.82324, 195.00293, 200.09619, 204.80273, 210.10254, 212.05371, 214.51904, 218.33789, 223.62891, 228.33545, 232.49268, 234.67236, 237.48926, 239.66895, 244.37549, 248.19434, 250.65967, 257.16357, 262.25684, 264.43652, 268.59375, 273.68701, 276.15234, 280.85889, 285.95215, 289.00195, 291.18164, 294.23145, " y="318, ">
				defined, specifies which entity
		</text>
		<text fill="gray" font-size="9" font-family="Segoe UI" x="180, 182.71582, 188.00684, 192.71338, 195.84229, 199.66113, 204.93457, 210.02783, 211.979, 214.44434, 219.71777, 222.84668, 228.14648, 232.72559, 237.81885, 239.99854, 243.81738, 248.39648, 251.44629, 253.62598, 258.89941, 263.99268, 266.45801, 271.73145, " y="330, ">
				(person, organisation or
		</text>
		<text fill="gray" font-size="9" font-family="Segoe UI" x="180, 183.81885, 188.17383, 191.99268, 195.04248, 199.74902, 207.50098, 210.2168, 212.68213, 219.18604, 221.36572, 223.54541, 225.7251, 228.19043, 232.89697, 238.19678, 240.37646, 243.42627, 245.8916, 248.94141, 254.03467, 258.74121, 261.20654, 266.49756, 269.62646, 274.8999, 280.19092, 284.89746, 288.02637, 291.07617, " y="342, ">
				system) will edit the property
		</text>
		<text fill="gray" font-size="9" font-family="Segoe UI" x="180, 183.59912, 186.06445, 190.771, 194.90186, 200.19287, 203.32178, 208.02832, 211.84717, 215.66602, 220.37256, 225.67236, 228.1377, 233.42871, 237.78369, 240.24902, 244.82812, 247.29346, 253.47656, 258.85986, 261.25488, 263.20605, 265.67139, 268.06641, 270.8833, 273.34863, 276.39844, 281.4917, " y="354, ">
				- expressed by a URI. If the
		</text>
		<text fill="gray" font-size="9" font-family="Segoe UI" x="180, 185.29102, 188.41992, 193.69336, 198.98438, 203.69092, 206.81982, 209.86963, 214.22461, 216.68994, 221.00098, 225.58008, 227.75977, 232.85303, 237.55957, 240.0249, 242.20459, 246.02344, 248.48877, 253.78857, 258.49512, 261.31201, 263.4917, 268.58496, 273.2915, 278.59131, " y="366, ">
				property value is defined,
		</text>
		<text fill="gray" font-size="9" font-family="Segoe UI" x="180, 183.81885, 189.10986, 193.81641, 197.97363, 200.15332, 202.97021, 205.1499, 209.85645, 213.67529, 216.14062, 222.64453, 227.73779, 229.91748, 234.07471, 239.16797, 241.6333, 246.33984, 251.43311, 254.48291, 256.6626, 259.7124, 264.06738, 266.53271, 269.24854, 274.53955, 279.24609, 282.375, 286.19385, 291.46729, 296.56055, " y="378, ">
				specifies which entity (person,
		</text>
		<text fill="gray" font-size="9" font-family="Segoe UI" x="180, 185.27344, 188.40234, 193.70215, 198.28125, 203.37451, 205.5542, 209.37305, 213.95215, 217.00195, 219.18164, 224.45508, 229.54834, 232.01367, 237.28711, 240.41602, 242.88135, 246.7002, 251.05518, 254.87402, 257.92383, 262.63037, 270.38232, 273.09814, 275.56348, 280.65674, 285.23584, " y="390, ">
				organisation or system) has
		</text>
		<text fill="gray" font-size="9" font-family="Segoe UI" x="180, 184.70654, 190.00635, 192.18604, 195.23584, 199.94238, 205.24219, 207.70752, 210.75732, 215.85059, 220.55713, 223.02246, 228.31348, 231.44238, 236.71582, 242.00684, 246.71338, 249.84229, 252.89209, 257.24707, " y="402, ">
				edited the property.
		</text>
		<rect fill="white" x="184" y="271" width="57" height="16"/>
		<text font-size="12" font-weight="600" font-family="Segoe UI" x="184, 189.75977, 194.48828, 200.98047, 207.4375, 212.06055, 219.39648, 224.20703, 231.4668, 236.28906, " y="284, ">
				creatoruri
		</text>
		<rect fill="none" stroke="black" stroke-width="1" stroke-linecap="square" stroke-miterlimit="4" transform="translate(0.5 0.5)" x="175" y="269" width="72" height="20"/>
		<rect fill="silver" x="179" y="415" width="69" height="21"/>
		<rect fill="white" x="175" y="411" width="69" height="21"/>
		<rect fill="white" x="180" y="438" width="119" height="72"/>
		<text fill="gray" font-size="9" font-family="Segoe UI" x="180, 184.71533, 189.80859, 194.51514, 196.98047, 202.28027, 206.85938, 209.90918, 214.61572, 217.08105, 219.79688, 224.37598, 229.46924, 234.76904, 236.72021, 239.18555, 244.45898, 249.75, 252.7998, 254.97949, 260.25293, 265.34619, 269.92529, 272.10498, 274.28467, 278.63965, 280.59082, 283.05615, 286.10596, 291.19922, " y="448, ">
				The date (and, optionally, the
		</text>
		<text fill="gray" font-size="9" font-family="Segoe UI" x="180, 183.0498, 185.22949, 192.98145, 197.68799, 200.40381, 202.86914, 209.37305, 214.46631, 219.17285, 224.26611, 226.73145, 229.78125, 234.87451, 239.58105, 242.04639, 247.3374, 250.46631, 255.73975, 261.03076, 265.7373, 268.86621, 271.91602, 276.271, 278.73633, 285.24023, 289.81934, " y="460, ">
				time) when the property was
		</text>
		<text fill="gray" font-size="9" font-family="Segoe UI" x="180, 182.17969, 186.75879, 190.57764, 193.62744, 196.09277, 203.84473, 209.11816, 214.41797, 216.59766, 219.41455, 221.59424, 226.30078, 231.60059, 233.55176, 236.01709, 240.73242, 245.82568, 250.53223, 252.99756, 255.17725, 260.27051, 262.4502, 265.5, 267.67969, 272.25879, 274.43848, 276.90381, 281.21484, 285.79395, 287.97363, 293.06689, " y="472, ">
				last modified. The initial value
		</text>
		<text fill="gray" font-size="9" font-family="Segoe UI" x="180, 182.17969, 185.99854, 188.46387, 191.51367, 196.60693, 201.31348, 203.77881, 209.07861, 213.65771, 216.70752, 221.41406, 223.87939, 226.59521, 231.17432, 236.26758, 241.56738, 243.51855, 245.98389, 251.25732, 256.54834, 259.59814, 261.77783, 267.05127, 272.14453, 276.72363, 278.90332, 281.08301, 285.43799, " y="484, ">
				is the date (and, optionally,
		</text>
		<text fill="gray" font-size="9" font-family="Segoe UI" x="180, 183.0498, 188.14307, 192.84961, 195.31494, 198.36475, 200.54443, 208.29639, 213.00293, 215.71875, 218.18408, 223.45752, 226.27441, 228.73975, 232.89697, 236.02588, 240.73242, 245.31152, 248.36133, 250.54102, 255.81445, 260.90771, 263.37305, 268.64648, 271.46338, 273.92871, 276.97852, 282.07178, " y="496, ">
				the time) of creation of the
		</text>
		<text fill="gray" font-size="9" font-family="Segoe UI" x="180, 185.29102, 188.41992, 193.69336, 198.98438, 203.69092, 206.81982, 209.86963, 214.22461, " y="508, ">
				property.
		</text>
		<rect fill="white" x="184" y="413" width="53" height="16"/>
		<text font-size="12" font-weight="600" font-family="Segoe UI" x="184, 194.99219, 202.32812, 209.75781, 213.16797, 217.76758, 221.17773, 227.66992, " y="426, ">
				modified
		</text>
		<rect fill="none" stroke="black" stroke-width="1" stroke-linecap="square" stroke-miterlimit="4" transform="translate(0.5 0.5)" x="175" y="411" width="68" height="20"/>
		<rect fill="silver" x="179" y="521" width="59" height="21"/>
		<rect fill="white" x="175" y="517" width="59" height="21"/>
		<rect fill="white" x="180" y="544" width="118" height="108"/>
		<text fill="gray" font-size="9" font-family="Segoe UI" x="180, 182.39502, 185.21191, 187.67725, 191.49609, 196.20264, 199.25244, 201.71777, 204.76758, 210.04102, 212.50635, 215.55615, 218.68506, 223.77832, 228.48486, 230.9502, 234, 239.09326, " y="554, ">
				If set to true the
		</text>
		<text fill="gray" font-size="9" font-family="Segoe UI" x="180, 184.15723, 189.43066, 192.55957, 195.68848, 200.39502, 204.21387, 209.50488, 214.77832, 219.87158, 225.17139, 227.35107, 232.44434, 237.74414, 240.20947, 245.50049, 248.62939, 253.90283, 259.19385, 263.90039, 267.0293, 270.0791, 274.43408, 276.89941, 283.40332, 287.98242, " y="566, ">
				corresponding property was
		</text>
		<text fill="gray" font-size="9" font-family="Segoe UI" x="180, 184.5791, 189.87891, 195.17871, 199.88525, 205.18506, 207.65039, 210.7002, 215.97363, 218.43896, 221.48877, 226.58203, 231.28857, 233.75391, 239.92822, 244.77979, 247.24512, 249.64014, 252.68994, 257.39648, 265.14844, 267.61377, 270.43066, 275.7041, 278.83301, 281.29834, " y="578, ">
				added to the G2 Item for a
		</text>
		<text fill="gray" font-size="9" font-family="Segoe UI" x="180, 183.81885, 189.10986, 193.81641, 197.97363, 200.15332, 202.97021, 205.1499, 209.30713, 211.77246, 215.92969, 221.02295, 224.8418, 227.8916, 233.16504, 240.91699, 245.62354, 248.75244, 251.21777, 256.49121, 259.62012, 262.08545, 267.38525, 270.51416, 275.7876, 280.88086, 286.17188, 288.63721, 293.91064, " y="590, ">
				specific customer or group of
		</text>
		<text fill="gray" font-size="9" font-family="Segoe UI" x="180, 184.15723, 189.25049, 193.06934, 196.11914, 201.39258, 209.14453, 213.85107, 216.97998, 220.79883, 223.26416, 228.5376, 233.63086, 235.81055, 240.16553, 242.1167, 244.58203, 249.29736, 254.39062, 259.09717, 261.5625, 266.8623, 271.56885, 274.38574, 278.96484, 284.05811, 286.23779, " y="602, ">
				customers only. The default
		</text>
		<text fill="gray" font-size="9" font-family="Segoe UI" x="180, 184.31104, 188.89014, 191.06982, 196.16309, 200.86963, 203.33496, 208.6084, 211.42529, 213.89062, 216.94043, 222.03369, 224.21338, 228.03223, 230.49756, 235.78857, 238.91748, 244.19092, 249.48193, 254.18848, 257.31738, 260.36719, 264.72217, 267.1875, 269.36719, 273.18604, 275.65137, 278.46826, 283.04736, 285.22705, 289.0459, " y="614, ">
				value of this property is false
		</text>
		<text fill="gray" font-size="9" font-family="Segoe UI" x="180, 186.50391, 191.59717, 193.77686, 197.93408, 203.02734, 205.49268, 210.07178, 215.36279, 220.65381, 222.8335, 225.01318, 229.71973, 233.53857, 236.00391, 242.50781, 247.60107, 252.30762, 257.40088, 259.86621, 262.91602, 268.00928, 270.18896, " y="626, ">
				which applies when this
		</text>
		<text fill="gray" font-size="9" font-family="Segoe UI" x="180, 184.5791, 187.62891, 190.67871, 193.80762, 195.9873, 201.27832, 206.37158, 209.42139, 214.12793, 216.59326, 218.77295, 222.5918, 225.05713, 230.15039, 235.42383, 238.47363, 240.93896, 246.03223, 249.85107, 254.55762, 259.85742, 262.32275, 268.82666, 271.00635, 274.05615, 279.14941, 281.61475, 284.66455, 289.75781, " y="638, ">
				attribute is not used with the
		</text>
		<text fill="gray" font-size="9" font-family="Segoe UI" x="180, 185.29102, 188.41992, 193.69336, 198.98438, 203.69092, 206.81982, 209.86963, 214.22461, " y="650, ">
				property.
		</text>
		<rect fill="white" x="184" y="519" width="43" height="16"/>
		<text font-size="12" font-weight="600" font-family="Segoe UI" x="184, 189.75977, 197.01953, 202.29883, 206.92188, 214.25781, " y="532, ">
				custom
		</text>
		<rect fill="none" stroke="black" stroke-width="1" stroke-linecap="square" stroke-miterlimit="4" transform="translate(0.5 0.5)" x="175" y="517" width="58" height="20"/>
		<rect fill="silver" x="179" y="663" width="52" height="21"/>
		<rect fill="white" x="175" y="659" width="52" height="21"/>
		<rect fill="white" x="180" y="686" width="118" height="48"/>
		<text fill="gray" font-size="9" font-family="Segoe UI" x="180, 182.39502, 187.48828, 192.78809, 194.96777, 199.125, 203.7041, 206.75391, 211.46045, 215.2793, 217.74463, 223.03564, 227.39062, 229.85596, 236.35986, 241.45312, 243.63281, 247.79004, 252.8833, 255.34863, 263.10059, 267.80713, 272.38623, 277.47949, 281.29834, 283.76367, 286.81348, 291.90674, " y="696, ">
				Indicates by which means the
		</text>
		<text fill="gray" font-size="9" font-family="Segoe UI" x="180, 184.31104, 188.89014, 191.06982, 196.16309, 200.86963, 203.33496, 209.83887, 214.41797, 218.23682, 220.70215, 225.40869, 229.53955, 232.58936, 235.71826, 240.29736, 244.45459, 247.50439, 252.21094, 257.51074, 259.97607, 262.79297, 265.92188, 271.19531, 278.94727, 281.4126, 284.4624, 289.55566, " y="708, ">
				value was extracted from the
		</text>
		<text fill="gray" font-size="9" font-family="Segoe UI" x="180, 184.15723, 189.43066, 194.52393, 197.57373, 202.28027, 207.37354, 210.42334, 212.88867, 216.48779, 218.95312, 223.65967, 227.79053, 233.08154, 236.21045, 240.91699, 244.73584, 248.55469, 253.26123, 258.56104, 261.02637, 266.31738, 270.67236, 273.1377, " y="720, ">
				content - expressed by a
		</text>
		<text fill="gray" font-size="9" font-family="Segoe UI" x="180, 186.78516, 192.35742, 197.63086, 202.93066, " y="732, ">
				QCode
		</text>
		<rect fill="white" x="184" y="661" width="36" height="16"/>
		<text font-size="12" font-weight="600" font-family="Segoe UI" x="184, 191.22461, 198.56055, " y="674, ">
				how
		</text>
		<rect fill="none" stroke="black" stroke-width="1" stroke-linecap="square" stroke-miterlimit="4" transform="translate(0.5 0.5)" x="175" y="659" width="51" height="20"/>
		<rect fill="silver" x="179" y="745" width="57" height="21"/>
		<rect fill="white" x="175" y="741" width="57" height="21"/>
		<rect fill="white" x="180" y="768" width="118" height="36"/>
		<text fill="gray" font-size="9" font-family="Segoe UI" x="180, 182.39502, 187.48828, 192.78809, 194.96777, 199.125, 203.7041, 206.75391, 211.46045, 215.2793, 217.74463, 223.03564, 227.39062, 229.85596, 236.35986, 241.45312, 243.63281, 247.79004, 252.8833, 255.34863, 263.10059, 267.80713, 272.38623, 277.47949, 281.29834, 283.76367, 286.81348, 291.90674, " y="778, ">
				Indicates by which means the
		</text>
		<text fill="gray" font-size="9" font-family="Segoe UI" x="180, 184.31104, 188.89014, 191.06982, 196.16309, 200.86963, 203.33496, 209.83887, 214.41797, 218.23682, 220.70215, 225.40869, 229.53955, 232.58936, 235.71826, 240.29736, 244.45459, 247.50439, 252.21094, 257.51074, 259.97607, 262.79297, 265.92188, 271.19531, 278.94727, 281.4126, 284.4624, 289.55566, " y="790, ">
				value was extracted from the
		</text>
		<text fill="gray" font-size="9" font-family="Segoe UI" x="180, 184.15723, 189.43066, 194.52393, 197.57373, 202.28027, 207.37354, 210.42334, 212.88867, 216.48779, 218.95312, 223.65967, 227.79053, 233.08154, 236.21045, 240.91699, 244.73584, 248.55469, 253.26123, 258.56104, 261.02637, 266.31738, 270.67236, 273.1377, 277.7168, 280.18213, 286.36523, 291.74854, " y="802, ">
				content - expressed by a URI
		</text>
		<rect fill="white" x="184" y="743" width="41" height="16"/>
		<text font-size="12" font-weight="600" font-family="Segoe UI" x="184, 191.22461, 198.56055, 208.12891, 215.38867, 220.21094, " y="756, ">
				howuri
		</text>
		<rect fill="none" stroke="black" stroke-width="1" stroke-linecap="square" stroke-miterlimit="4" transform="translate(0.5 0.5)" x="175" y="741" width="56" height="20"/>
		<rect fill="silver" x="179" y="815" width="52" height="21"/>
		<rect fill="white" x="175" y="811" width="52" height="21"/>
		<rect fill="white" x="180" y="838" width="113" height="36"/>
		<text fill="gray" font-size="9" font-family="Segoe UI" x="180, 188.40674, 193.5, 197.85498, 200.32031, 203.37012, 208.46338, 213.16992, 215.63525, 223.38721, 228.09375, 231.14355, 235.72266, 241.02246, 245.60156, 248.65137, 253.23047, 255.6958, 260.78906, 265.36816, 269.18701, 271.65234, 276.94336, 281.6499, 286.35645, " y="848, ">
				Why the metadata has been
		</text>
		<text fill="gray" font-size="9" font-family="Segoe UI" x="180, 182.17969, 187.27295, 191.43018, 193.60986, 198.70312, 204.00293, 208.70947, 214.00928, 216.47461, 220.07373, 222.53906, 227.24561, 231.37646, 236.66748, 239.79639, 244.50293, 248.32178, 252.14062, 256.84717, 262.14697, 264.6123, 269.90332, 274.2583, 276.72363, " y="860, ">
				included - expressed by a
		</text>
		<text fill="gray" font-size="9" font-family="Segoe UI" x="180, 186.78516, 192.35742, 197.63086, 202.93066, " y="872, ">
				QCode
		</text>
		<rect fill="white" x="184" y="813" width="36" height="16"/>
		<text font-size="12" font-weight="600" font-family="Segoe UI" x="184, 193.56836, 200.79297, " y="826, ">
				why
		</text>
		<rect fill="none" stroke="black" stroke-width="1" stroke-linecap="square" stroke-miterlimit="4" transform="translate(0.5 0.5)" x="175" y="811" width="51" height="20"/>
		<rect fill="silver" x="179" y="885" width="56" height="21"/>
		<rect fill="white" x="175" y="881" width="56" height="21"/>
		<rect fill="white" x="180" y="908" width="119" height="24"/>
		<text fill="gray" font-size="9" font-family="Segoe UI" x="180, 188.40674, 193.5, 197.85498, 200.32031, 203.37012, 208.46338, 213.16992, 215.63525, 223.38721, 228.09375, 231.14355, 235.72266, 241.02246, 245.60156, 248.65137, 253.23047, 255.6958, 260.78906, 265.36816, 269.18701, 271.65234, 276.94336, 281.6499, 286.35645, " y="918, ">
				Why the metadata has been
		</text>
		<text fill="gray" font-size="9" font-family="Segoe UI" x="180, 182.17969, 187.27295, 191.43018, 193.60986, 198.70312, 204.00293, 208.70947, 214.00928, 216.47461, 220.07373, 222.53906, 227.24561, 231.37646, 236.66748, 239.79639, 244.50293, 248.32178, 252.14062, 256.84717, 262.14697, 264.6123, 269.90332, 274.2583, 276.72363, 281.30273, 283.76807, 289.95117, 295.33447, " y="930, ">
				included - expressed by a URI
		</text>
		<rect fill="white" x="184" y="883" width="40" height="16"/>
		<text font-size="12" font-weight="600" font-family="Segoe UI" x="184, 193.56836, 200.79297, 207.25, 214.50977, 219.33203, " y="896, ">
				whyuri
		</text>
		<rect fill="none" stroke="black" stroke-width="1" stroke-linecap="square" stroke-miterlimit="4" transform="translate(0.5 0.5)" x="175" y="881" width="55" height="20"/>
		<rect fill="silver" x="179" y="943" width="97" height="21"/>
		<rect fill="white" x="175" y="939" width="97" height="21"/>
		<rect fill="white" x="180" y="966" width="117" height="72"/>
		<text fill="gray" font-size="9" font-family="Segoe UI" x="180, 186.78516, 191.87842, 196.58496, 199.05029, 204.32373, 207.45264, 209.91797, 217.66992, 222.24902, 227.34229, 231.69727, 234.1626, 238.31982, 243.59326, 248.68652, 252.50537, 255.55518, 258.68408, 263.26318, 265.44287, 270.53613, 273.58594, 277.40479, 279.87012, 282.91992, 288.01318, 292.59229, " y="976, ">
				One or many constraints that
		</text>
		<text fill="gray" font-size="9" font-family="Segoe UI" x="180, 184.5791, 189.87012, 195.16113, 197.34082, 201.6958, 204.16113, 207.21094, 212.48438, 214.94971, 220.24072, 225.33398, 230.625, 232.80469, 234.98438, 238.80322, 243.89648, 246.07617, 251.16943, 256.46924, 258.93457, 261.98438, 267.07764, 271.78418, 274.24951, 278.56055, 283.13965, 285.31934, 290.4126, " y="988, ">
				apply to publishing the value
		</text>
		<text fill="gray" font-size="9" font-family="Segoe UI" x="180, 185.27344, 188.09033, 190.55566, 193.60547, 198.69873, 203.40527, 205.87061, 211.16162, 214.29053, 219.56396, 224.85498, 229.56152, 232.69043, 235.74023, 240.09521, 242.56055, 246.15967, 248.625, 253.33154, 257.4624, 262.75342, 265.88232, 270.58887, 274.40771, 278.22656, 282.93311, " y="1000, ">
				of the property - expressed
		</text>
		<text fill="gray" font-size="9" font-family="Segoe UI" x="180, 185.29102, 189.646, 192.11133, 196.69043, 199.15576, 205.94092, 211.51318, 216.78662, 222.08643, 226.79297, 228.74414, 231.20947, 235.76221, 240.34131, 244.49854, 249.5918, 252.05713, 256.21436, 261.48779, 266.58105, 270.3999, 273.44971, 276.57861, 281.15771, 283.3374, 288.43066, " y="1012, ">
				by a QCode. Each constraint
		</text>
		<text fill="gray" font-size="9" font-family="Segoe UI" x="180, 184.5791, 189.87012, 195.16113, 197.34082, 199.52051, 204.22705, 208.0459, 210.51123, 213.56104, 218.83447, 221.2998, 225.87891, 228.05859, 230.23828, 232.70361, 238.00342, 242.70996, 246.52881, 250.68604, 255.39258, 260.48584, 265.78564, 270.36475, 275.45801, " y="1024, ">
				applies to all descendant
		</text>
		<text fill="gray" font-size="9" font-family="Segoe UI" x="180, 184.70654, 186.88623, 191.59277, 199.34473, 204.05127, 209.14453, 212.19434, 216.01318, " y="1036, ">
				elements.
		</text>
		<rect fill="white" x="184" y="941" width="81" height="16"/>
		<text font-size="12" font-weight="600" font-family="Segoe UI" x="184, 191.44141, 198.70117, 206.14258, 211.90234, 219.23828, 226.49805, 231.77734, 236.44727, 241.22266, 247.67969, 251.08984, 258.34961, " y="954, ">
				pubconstraint
		</text>
		<rect fill="none" stroke="black" stroke-width="1" stroke-linecap="square" stroke-miterlimit="4" transform="translate(0.5 0.5)" x="175" y="939" width="96" height="20"/>
		<rect fill="silver" x="179" y="1049" width="112" height="21"/>
		<rect fill="white" x="175" y="1045" width="112" height="21"/>
		<rect fill="white" x="180" y="1072" width="117" height="72"/>
		<text fill="gray" font-size="9" font-family="Segoe UI" x="180, 186.78516, 191.87842, 196.58496, 199.05029, 204.32373, 207.45264, 209.91797, 217.66992, 222.24902, 227.34229, 231.69727, 234.1626, 238.31982, 243.59326, 248.68652, 252.50537, 255.55518, 258.68408, 263.26318, 265.44287, 270.53613, 273.58594, 277.40479, 279.87012, 282.91992, 288.01318, 292.59229, " y="1082, ">
				One or many constraints that
		</text>
		<text fill="gray" font-size="9" font-family="Segoe UI" x="180, 184.5791, 189.87012, 195.16113, 197.34082, 201.6958, 204.16113, 207.21094, 212.48438, 214.94971, 220.24072, 225.33398, 230.625, 232.80469, 234.98438, 238.80322, 243.89648, 246.07617, 251.16943, 256.46924, 258.93457, 261.98438, 267.07764, 271.78418, 274.24951, 278.56055, 283.13965, 285.31934, 290.4126, " y="1094, ">
				apply to publishing the value
		</text>
		<text fill="gray" font-size="9" font-family="Segoe UI" x="180, 185.27344, 188.09033, 190.55566, 193.60547, 198.69873, 203.40527, 205.87061, 211.16162, 214.29053, 219.56396, 224.85498, 229.56152, 232.69043, 235.74023, 240.09521, 242.56055, 246.15967, 248.625, 253.33154, 257.4624, 262.75342, 265.88232, 270.58887, 274.40771, 278.22656, 282.93311, " y="1106, ">
				of the property - expressed
		</text>
		<text fill="gray" font-size="9" font-family="Segoe UI" x="180, 185.29102, 189.646, 192.11133, 196.69043, 199.15576, 205.33887, 210.72217, 213.11719, 215.06836, 217.53369, 222.08643, 226.66553, 230.82275, 235.91602, 238.38135, 242.53857, 247.81201, 252.90527, 256.72412, 259.77393, 262.90283, 267.48193, 269.66162, 274.75488, " y="1118, ">
				by a URI. Each constraint
		</text>
		<text fill="gray" font-size="9" font-family="Segoe UI" x="180, 184.5791, 189.87012, 195.16113, 197.34082, 199.52051, 204.22705, 208.0459, 210.51123, 213.56104, 218.83447, 221.2998, 225.87891, 228.05859, 230.23828, 232.70361, 238.00342, 242.70996, 246.52881, 250.68604, 255.39258, 260.48584, 265.78564, 270.36475, 275.45801, " y="1130, ">
				applies to all descendant
		</text>
		<text fill="gray" font-size="9" font-family="Segoe UI" x="180, 184.70654, 186.88623, 191.59277, 199.34473, 204.05127, 209.14453, 212.19434, 216.01318, " y="1142, ">
				elements.
		</text>
		<rect fill="white" x="184" y="1047" width="96" height="16"/>
		<text font-size="12" font-weight="600" font-family="Segoe UI" x="184, 191.44141, 198.70117, 206.14258, 211.90234, 219.23828, 226.49805, 231.77734, 236.44727, 241.22266, 247.67969, 251.08984, 258.34961, 263.01953, 270.2793, 275.10156, " y="1060, ">
				pubconstrainturi
		</text>
		<rect fill="none" stroke="black" stroke-width="1" stroke-linecap="square" stroke-miterlimit="4" transform="translate(0.5 0.5)" x="175" y="1045" width="111" height="20"/>
		<path fill="white" d="M298 1227L298 1208L167 1208L167 1227L167 1412L308 1412L308 1227L298 1227Z"/>
		<rect fill="white" x="172" y="1415" width="110" height="36"/>
		<text fill="gray" font-size="9" font-family="Segoe UI" x="172, 177.80518, 180.27051, 185.57031, 188.69922, 193.97266, 199.06592, 204.35693, 206.82227, 212.0957, 214.9126, 217.37793, 221.95703, 225.00684, 228.05664, 231.18555, 233.36523, 238.65625, 243.74951, 246.79932, 251.50586, 255.32471, 257.79004, 260.60693, 265.88037, " y="1425, ">
				A group of attributes for
		</text>
		<text fill="gray" font-size="9" font-family="Segoe UI" x="172, 174.17969, 178.75879, 183.85205, 189.15186, 194.24512, 198.82422, 204.12402, 208.83057, 211.2959, 215.875, 220.96826, 226.26807, 228.7334, 232.55225, 236.70947, 239.83838, 242.01807, 247.30908, 250.35889, 252.82422, 255.95312, 260.65967, 262.83936, 267.41846, 270.46826, 275.1748, " y="1437, ">
				language and script related
		</text>
		<text fill="gray" font-size="9" font-family="Segoe UI" x="172, 174.17969, 179.27295, 182.08984, 187.36328, 190.49219, 198.24414, 202.82324, 205.87305, 208.05273, 213.32617, " y="1449, ">
				information
		</text>
		<rect fill="white" x="209" y="1210" width="83" height="16"/>
		<text font-size="12" font-weight="600" font-family="Segoe UI" x="209, 212.41016, 219.3125, 226.21484, 233.47461, 241.67188, 246.3418, 251.01172, 255.83398, 259.24414, 266.68555, 273.94531, 278.56836, 285.06055, " y="1223, ">
				i18nAttributes
		</text>
		<rect fill="white" x="187" y="1210" width="20" height="16"/>
		<text fill="gray" font-size="12" font-family="Segoe UI" x="187, 194.06641, 198.23828, " y="1223, ">
				grp
		</text>
		<path fill="none" stroke="gray" stroke-width="1" stroke-linecap="square" stroke-miterlimit="4" transform="translate(0.5 0.5)" d="M167 1227L167 1412L308 1412L308 1227L298 1227"/>
		<path fill="none" stroke="black" stroke-width="1" stroke-linecap="square" stroke-miterlimit="4" transform="translate(0.5 0.5)" d="M298 1227L298 1208L167 1208L167 1227"/>
		<rect x="172" y="1213" width="11" height="11"/>
		<rect fill="white" x="173" y="1214" width="9" height="9"/>
		<rect x="174" y="1218" width="7" height="1"/>
		<rect fill="silver" x="179" y="1241" width="66" height="21"/>
		<rect fill="white" x="175" y="1237" width="66" height="21"/>
		<rect fill="white" x="180" y="1264" width="121" height="84"/>
		<text fill="gray" font-size="9" font-family="Segoe UI" x="180, 184.78125, 190.07227, 194.77881, 198.93604, 201.11572, 203.93262, 206.1123, 210.81885, 214.6377, 217.10303, 220.15283, 225.24609, 229.95264, 232.41797, 234.59766, 239.17676, 244.27002, 249.56982, 254.66309, 259.24219, 264.54199, 269.24854, 271.71387, 276.9873, 279.8042, 282.26953, 285.31934, 290.4126, 292.59229, " y="1274, ">
				Specifies the language of this
		</text>
		<text fill="gray" font-size="9" font-family="Segoe UI" x="180, 185.29102, 188.41992, 193.69336, 198.98438, 203.69092, 206.81982, 209.86963, 214.22461, 216.68994, 221.26904, 226.3623, 231.66211, 234.12744, 239.41846, 244.69189, 247.7417, 252.44824, 257.5415, 260.59131, 262.771, 267.3501, 269.52979, 271.70947, 276.06445, 278.52979, 283.10889, 285.28857, " y="1286, ">
				property and potentially all
		</text>
		<text fill="gray" font-size="9" font-family="Segoe UI" x="180, 185.2998, 190.00635, 193.8252, 197.98242, 202.68896, 207.78223, 213.08203, 217.66113, 222.75439, 225.8042, 228.26953, 233.56055, 236.68945, 241.96289, 247.25391, 251.96045, 255.08936, 258.13916, 260.31885, 265.02539, 268.84424, " y="1298, ">
				descendant properties.
		</text>
		<text fill="gray" font-size="9" font-family="Segoe UI" x="180, 184.13086, 191.88281, 194.0625, 196.01367, 198.19336, 202.77246, 207.86572, 213.16553, 215.63086, 219.94189, 224.521, 226.70068, 231.79395, 236.50049, 240.31934, 242.78467, 248.05811, 250.875, 253.34033, 258.64014, 263.34668, 267.16553, 271.32275, 276.0293, 281.12256, 286.42236, 291.00146, 296.09473, " y="1310, ">
				xml:lang values of descendant
		</text>
		<text fill="gray" font-size="9" font-family="Segoe UI" x="180, 185.29102, 188.41992, 193.69336, 198.98438, 203.69092, 206.81982, 209.86963, 212.04932, 216.75586, 220.57471, 223.04004, 228.31348, 232.62451, 237.33105, 240.45996, 243.58887, 245.76855, 251.06836, 255.7749, 258.24023, 261.29004, 266.3833, 268.56299, 272.38184, 274.84717, 279.1582, 283.7373, 285.91699, 291.01025, 295.7168, " y="1322, ">
				properties override this value.
		</text>
		<text fill="gray" font-size="9" font-family="Segoe UI" x="180, 184.93066, 189.50977, 191.68945, 196.78271, 201.48926, 205.30811, 207.77344, 212.35254, 215.48145, 220.18799, 222.65332, 227.95312, 232.65967, 235.70947, 240.41602, 243.54492, 251.29688, 253.47656, 258.56982, 263.27637, 268.57617, 271.0415, 276.33252, " y="1334, ">
				Values are determined by
		</text>
		<text fill="gray" font-size="9" font-family="Segoe UI" x="180, 182.39502, 187.48828, 190.53809, 195.24463, 198.37354, 203.4668, 208.17334, 211.22314, 213.68848, 218.84766, 224.41992, 229.46045, 231.92578, 236.77734, 241.62891, " y="1346, ">
				Internet BCP 47.
		</text>
		<rect fill="white" x="184" y="1239" width="50" height="16"/>
		<text font-size="12" font-weight="600" font-family="Segoe UI" x="184, 190.62695, 201.61914, 205.0293, 208.28125, 211.69141, 218.14844, 225.4082, " y="1252, ">
				xml:lang
		</text>
		<path fill="none" stroke="black" stroke-width="2" stroke-miterlimit="4" transform="translate(0.5 0.5)" d="M177 1255L181 1251"/>
		<path fill="none" stroke="black" stroke-width="1" stroke-linecap="square" stroke-miterlimit="4" transform="translate(0.5 0.5)" d="M178 1251L181 1251L181 1254"/>
		<rect fill="none" stroke="black" stroke-width="1" stroke-linecap="square" stroke-miterlimit="4" transform="translate(0.5 0.5)" x="175" y="1237" width="65" height="20"/>
		<rect fill="silver" x="179" y="1359" width="52" height="21"/>
		<rect fill="white" x="175" y="1355" width="52" height="21"/>
		<rect fill="white" x="180" y="1382" width="116" height="24"/>
		<text fill="gray" font-size="9" font-family="Segoe UI" x="180, 184.71533, 189.80859, 194.51514, 196.98047, 202.28027, 204.45996, 207.58887, 212.29541, 216.45264, 219.50244, 221.68213, 226.95557, 232.04883, 236.62793, 238.80762, 240.9873, 244.03711, 248.39209, 250.85742, 256.13086, 258.94775, 261.41309, 264.46289, 269.16943, 273.30029, 276.3501, 281.44336, 286.02246, " y="1392, ">
				The directionality of textual
		</text>
		<text fill="gray" font-size="9" font-family="Segoe UI" x="180, 184.15723, 189.43066, 194.52393, 197.57373, 202.28027, 207.37354, 210.42334, 212.88867, 215.60449, 220.31104, 225.4043, 230.49756, 238.24951, 242.95605, 246.08496, 250.66406, 253.71387, 255.89355, 261.16699, 266.26025, 268.21143, 270.67676, 272.85645, 275.90625, 279.03516, 280.98633, 283.45166, 286.58057, 289.63037, 291.81006, " y="1404, ">
				content (enumeration: ltr, rtl)
		</text>
		<rect fill="white" x="184" y="1357" width="36" height="16"/>
		<text font-size="12" font-weight="600" font-family="Segoe UI" x="184, 191.42969, 194.83984, " y="1370, ">
				dir
		</text>
		<rect fill="none" stroke="black" stroke-width="1" stroke-linecap="square" stroke-miterlimit="4" transform="translate(0.5 0.5)" x="175" y="1355" width="51" height="20"/>
		<path fill="silver" d="M171 1467L176 1462L244 1462L249 1467L249 1478L244 1483L176 1483L171 1478L171 1467Z"/>
		<path fill="white" d="M167 1463L172 1458L240 1458L245 1463L245 1474L240 1479L172 1479L167 1474L167 1463Z"/>
		<rect fill="white" x="194" y="1460" width="46" height="16"/>
		<text font-size="12" font-weight="600" font-family="Segoe UI" x="194, 201.10742, 208.21484, 215.55078, 220.2207, 227.44531, 233.9375, " y="1473, ">
				##other
		</text>
		<rect fill="white" x="172" y="1460" width="20" height="16"/>
		<text fill="gray" font-size="12" font-family="Segoe UI" x="172, 178.10547, 184.89648, " y="1473, ">
				any
		</text>
		<path fill="none" stroke="black" stroke-width="1" stroke-linecap="square" stroke-miterlimit="4" transform="translate(0.5 0.5)" d="M167 1463L172 1458L239 1458L244 1463L244 1473L239 1478L172 1478L167 1473L167 1463Z"/>
		<rect x="158" y="5" width="11" height="11"/>
		<rect fill="white" x="159" y="6" width="9" height="9"/>
		<rect x="160" y="10" width="7" height="1"/>
		<path fill="none" stroke="black" stroke-width="1" stroke-linecap="square" stroke-miterlimit="4" transform="translate(0.5 0.5)" d="M198 1512L207 1512"/>
		<path fill="silver" d="M157 1511L162 1506L187 1506L192 1511L192 1522L187 1527L162 1527L157 1522L157 1511Z"/>
		<path fill="white" d="M153 1507L158 1502L183 1502L188 1507L188 1518L183 1523L158 1523L153 1518L153 1507Z"/>
		<path fill="none" stroke="black" stroke-width="1" stroke-linecap="square" stroke-miterlimit="4" transform="translate(0.5 0.5)" d="M158 1512L182 1512"/>
		<rect x="164" y="1511" width="3" height="3"/>
		<rect x="169" y="1511" width="3" height="3"/>
		<rect x="174" y="1511" width="3" height="3"/>
		<path fill="none" stroke="black" stroke-width="1" stroke-linecap="square" stroke-miterlimit="4" transform="translate(0.5 0.5)" d="M153 1507L158 1502L182 1502L187 1507L187 1517L182 1522L158 1522L153 1517L153 1507Z"/>
		<rect fill="silver" x="215" y="1509" width="52" height="21"/>
		<rect fill="white" x="211" y="1505" width="52" height="21"/>
		<rect fill="none" stroke="black" stroke-width="1" stroke-linecap="square" stroke-miterlimit="4" transform="translate(0.5 0.5)" x="211" y="1505" width="51" height="20"/>
		<rect fill="white" x="208" y="1502" width="52" height="21"/>
		<path fill="none" stroke="black" stroke-width="1" stroke-linecap="square" stroke-miterlimit="4" transform="translate(0.5 0.5)" d="M245 1523L251 1529L254 1526"/>
		<rect fill="white" x="213" y="1548" width="118" height="36"/>
		<text fill="gray" font-size="9" font-family="Segoe UI" x="213, 218.80518, 223.89844, 226.36377, 228.54346, 233.63672, 238.93652, 241.11621, 245.42725, 247.60693, 252.90674, 258, 262.5791, 264.75879, 267.22412, 271.38135, 276.65479, 281.74805, 285.90527, 290.61182, 295.90283, 298.95264, 300.90381, 303.36914, 308.66016, 313.23926, 316.36816, 319.41797, 321.8833, 327.15674, " y="1558, ">
				An individual concept, part of
		</text>
		<text fill="gray" font-size="9" font-family="Segoe UI" x="213, 217.5791, 220.04443, 224.20166, 229.4751, 237.22705, 242.51807, 247.7915, 251.61035, 253.79004, 256.83984, 261.54639, 264.01172, 268.16895, 273.44238, 278.53564, 282.69287, 287.39941, 292.69043, " y="1570, ">
				a composite concept
		</text>
		<text fill="gray" font-size="9" font-family="Segoe UI" x="213, 217.70654, 221.8374, 227.12842, 230.25732, 234.96387, 238.78271, 242.60156, 247.30811, 252.60791, 255.07324, 260.36426, 264.71924, 267.18457, 271.76367, 274.229, 279.52002, 284.09912, 289.39893, " y="1582, ">
				expressed by a bag.
		</text>
		<rect fill="white" x="217" y="1504" width="31" height="16"/>
		<text font-size="12" font-weight="600" font-family="Segoe UI" x="217, 224.44141, 227.85156, " y="1517, ">
				bit
		</text>
		<text font-size="12" font-family="Segoe UI" x="230.76562, " y="1542, ">
				1
		</text>
		<text font-size="12" font-family="Symbol" x="245.72266, " y="1541, ">
				¥
		</text>
		<text font-size="12" font-family="Segoe UI" x="238.89844, 241.5, " y="1542, ">
				..
		</text>
		<rect fill="none" stroke="black" stroke-width="1" stroke-linecap="square" stroke-miterlimit="4" transform="translate(0.5 0.5)" x="208" y="1502" width="51" height="20"/>
		<rect x="254" y="1507" width="11" height="11"/>
		<rect fill="white" x="255" y="1508" width="9" height="9"/>
		<rect x="256" y="1512" width="7" height="1"/>
		<rect x="259" y="1509" width="1" height="7"/>
		<rect x="187" y="1507" width="11" height="11"/>
		<rect fill="white" x="188" y="1508" width="9" height="9"/>
		<rect x="189" y="1512" width="7" height="1"/>
		<rect x="46" y="1123" width="11" height="11"/>
		<rect fill="white" x="47" y="1124" width="9" height="9"/>
		<rect x="48" y="1128" width="7" height="1"/>
	</g>
</svg>
