<?xml version="1.0" encoding="utf-8" ?>
<svg xmlns="http://www.w3.org/2000/svg" xmlns:xlink="http://www.w3.org/1999/xlink" width="357" height="1886">
	<clipPath id="cl_519">
		<rect x="-10" y="-5" width="357" height="1886"/>
	</clipPath>
	<g clip-path="url(#cl_519)">
		<path fill="none" stroke="black" stroke-width="1" stroke-linecap="square" stroke-miterlimit="4" transform="translate(0.5 0.5)" d="M86 938L122 938"/>
		<rect fill="silver" x="7" y="935" width="81" height="21"/>
		<rect fill="white" x="3" y="931" width="81" height="21"/>
		<rect fill="none" stroke="black" stroke-width="1" stroke-linecap="square" stroke-miterlimit="4" transform="translate(0.5 0.5)" x="3" y="931" width="80" height="20"/>
		<rect fill="white" y="928" width="81" height="21"/>
		<path fill="none" stroke="black" stroke-width="1" stroke-linecap="square" stroke-miterlimit="4" transform="translate(0.5 0.5)" d="M66 949L72 955L75 952"/>
		<rect fill="white" x="5" y="974" width="103" height="48"/>
		<text fill="gray" font-size="9" font-family="Segoe UI" x="5, 10.805176, 13.270508, 18.570312, 23.276855, 25.456543, 27.63623, 35.388184, 37.567871, 40.617676, 45.324219, 48.453125, 50.918457, 53.735352, 59.008789, 62.137695, 64.603027, 69.182129, 71.647461, 76.938477, 79.118164, 83.824707, 87.981934, 92.688477, 95.153809, 100.42725, " y="984, ">
				A delimiter for a piece of
		</text>
		<text fill="gray" font-size="9" font-family="Segoe UI" x="5, 8.8188477, 11.868652, 14.997559, 19.704102, 24.283203, 32.035156, 34.214844, 39.308105, 44.60791, 47.073242, 54.825195, 59.531738, 64.831543, 67.01123, 71.590332, 74.055664, 78.212891, 83.486328, 88.57959, 91.629395, 96.335938, 101.4292, 104.479, " y="996, ">
				streaming media content,
		</text>
		<text fill="gray" font-size="9" font-family="Segoe UI" x="5, 9.706543, 13.837402, 19.128418, 22.257324, 26.963867, 30.782715, 34.601562, 39.308105, 44.60791, 47.073242, 49.25293, 54.346191, 56.811523, 61.122559, 65.70166, 68.830566, 71.010254, 76.283691, 81.376953, 85.195801, 87.661133, 90.710938, 92.890625, 100.64258, " y="1008, ">
				expressed in various time
		</text>
		<text fill="gray" font-size="9" font-family="Segoe UI" x="5, 7.8168945, 13.090332, 16.219238, 23.971191, 28.550293, 31.600098, " y="1020, ">
				formats
		</text>
		<rect fill="white" x="9" y="930" width="60" height="16"/>
		<text font-size="12" font-weight="600" font-family="Segoe UI" x="9, 13.669922, 17.080078, 28.072266, 34.564453, 43.412109, 49.904297, 53.314453, 56.724609, " y="943, ">
				timeDelim
		</text>
		<text font-size="12" font-family="Segoe UI" x="51.765625, " y="968, ">
				0
		</text>
		<text font-size="12" font-family="Symbol" x="66.722656, " y="967, ">
				¥
		</text>
		<text font-size="12" font-family="Segoe UI" x="59.898438, 62.5, " y="968, ">
				..
		</text>
		<rect fill="none" stroke="black" stroke-width="1" stroke-linecap="square" stroke-miterlimit="4" transform="translate(0.5 0.5)" y="928" width="80" height="20"/>
		<path fill="white" d="M200 19L200 0L123 0L123 19L123 1875L336 1875L336 19L200 19Z"/>
		<rect fill="white" x="143" y="2" width="51" height="16"/>
		<text font-size="12" font-style="italic" font-family="Segoe UI" x="143, 149.50391, 153.38281, 157.26172, 161.5332, 164.63867, 171.14258, 177.83984, 181.73047, 187.57227, " y="15, ">
				attributes
		</text>
		<path fill="none" stroke="black" stroke-width="1" stroke-linecap="square" stroke-miterlimit="4" transform="translate(0.5 0.5)" d="M200 19L200 0L123 0L123 19L123 1875L336 1875L336 19L200 19Z"/>
		<path fill="white" d="M328 47L328 28L137 28L137 47L137 1150L328 1150L328 47Z"/>
		<rect fill="white" x="142" y="1153" width="179" height="48"/>
		<text fill="gray" font-size="9" font-family="Segoe UI" x="142, 147.80518, 150.27051, 155.57031, 158.69922, 163.97266, 169.06592, 174.35693, 176.82227, 182.0957, 184.9126, 187.37793, 191.95703, 195.00684, 198.05664, 201.18555, 203.36523, 208.65625, 213.74951, 216.79932, 221.50586, 225.32471, 227.79004, 230.60693, 235.88037, 239.00928, 241.47461, 246.05371, 248.2334, 250.41309, 252.87842, 257.58496, 259.76465, 264.47119, 272.22314, 276.92969, 282.02295, 285.07275, 288.8916, 291.35693, 296.63037, 299.44727, 301.9126, 306.4917, 308.95703, 315.13135, " y="1163, ">
				A group of attributes for all elements of a G2
		</text>
		<text fill="gray" font-size="9" font-family="Segoe UI" x="142, 144.39502, 147.44482, 152.15137, 159.90332, 162.36865, 167.0752, 171.20605, 175.36328, 180.06982, 185.36084, 188.41064, 190.87598, 193.05566, 196.10547, 199.92432, 202.38965, 205.51855, 210.79199, 216.06543, 219.11523, 221.58057, 226.28711, 228.4668, 233.17334, 240.92529, 245.63184, 250.7251, 253.7749, 255.72607, 258.19141, 261.24121, 266.33447, 271.04102, 273.50635, 275.68604, 278.73584, 283.44238, 291.19434, 299.27588, 303.98242, 307.03223, " y="1175, ">
				Item except its root element, the itemMeta
		</text>
		<text fill="gray" font-size="9" font-family="Segoe UI" x="142, 146.70654, 148.88623, 153.59277, 161.34473, 166.05127, 171.14453, 174.19434, 176.65967, 181.23877, 186.33203, 191.63184, 194.09717, 198.67627, 200.85596, 203.03564, 205.50098, 210.77441, 213.59131, 216.05664, 218.23633, 221.28613, 225.10498, 227.57031, 231.72754, 236.8208, 239.00049, 241.18018, 246.47998, 249.60889, 254.31543, 259.40869, 261.87402, 268.37793, 273.47119, 275.65088, 279.80811, 284.90137, 287.3667, 291.9458, 295.07471, " y="1187, ">
				element and all of its children which are
		</text>
		<text fill="gray" font-size="9" font-family="Segoe UI" x="142, 149.75195, 154.33105, 159.42432, 164.72412, 169.30322, 172.35303, 177.62646, 180.75537, 185.11035, " y="1199, ">
				mandatory.
		</text>
		<rect fill="white" x="179" y="30" width="143" height="16"/>
		<text font-size="12" font-weight="600" font-family="Segoe UI" x="179, 184.75977, 192.0957, 203.08789, 214.08008, 221.41602, 228.67578, 235.68945, 243.02539, 252.53516, 259.02734, 263.80273, 272, 276.66992, 281.33984, 286.16211, 289.57227, 297.01367, 304.27344, 308.89648, 315.38867, " y="43, ">
				commonPowerAttributes
		</text>
		<rect fill="white" x="157" y="30" width="20" height="16"/>
		<text fill="gray" font-size="12" font-family="Segoe UI" x="157, 164.06641, 168.23828, " y="43, ">
				grp
		</text>
		<path fill="none" stroke="gray" stroke-width="1" stroke-linecap="square" stroke-miterlimit="4" transform="translate(0.5 0.5)" d="M137 47L137 1150L328 1150L328 47L328 47"/>
		<path fill="none" stroke="black" stroke-width="1" stroke-linecap="square" stroke-miterlimit="4" transform="translate(0.5 0.5)" d="M328 47L328 28L137 28L137 47"/>
		<rect x="142" y="33" width="11" height="11"/>
		<rect fill="white" x="143" y="34" width="9" height="9"/>
		<rect x="144" y="38" width="7" height="1"/>
		<rect fill="silver" x="149" y="61" width="52" height="21"/>
		<rect fill="white" x="145" y="57" width="52" height="21"/>
		<rect fill="white" x="150" y="84" width="101" height="24"/>
		<text fill="gray" font-size="9" font-family="Segoe UI" x="150, 154.71533, 159.80859, 164.51514, 166.98047, 169.16016, 174.43359, 178.59082, 183.16992, 185.34961, 187.81494, 189.99463, 195.29443, 200.00098, 205.09424, 208.14404, 210.32373, 213.14062, 215.32031, 220.02686, 223.15576, 225.62109, 230.89453, 233.71143, 236.17676, 239.22656, 244.31982, " y="94, ">
				The local identifier of the
		</text>
		<text fill="gray" font-size="9" font-family="Segoe UI" x="150, 155.29102, 158.41992, 163.69336, 168.98438, 173.69092, 176.81982, 179.86963, 184.22461, " y="106, ">
				property.
		</text>
		<rect fill="white" x="154" y="59" width="36" height="16"/>
		<text font-size="12" font-weight="600" font-family="Segoe UI" x="154, 157.41016, " y="72, ">
				id
		</text>
		<rect fill="none" stroke="black" stroke-width="1" stroke-linecap="square" stroke-miterlimit="4" transform="translate(0.5 0.5)" x="145" y="57" width="51" height="20"/>
		<rect fill="silver" x="149" y="119" width="58" height="21"/>
		<rect fill="white" x="145" y="115" width="58" height="21"/>
		<rect fill="white" x="150" y="142" width="121" height="120"/>
		<text fill="gray" font-size="9" font-family="Segoe UI" x="150, 152.39502, 155.21191, 157.67725, 160.72705, 165.82031, 170.52686, 172.99219, 178.2832, 181.41211, 186.68555, 191.97656, 196.68311, 199.81201, 202.86182, 207.2168, 209.68213, 213.99316, 218.57227, 220.75195, 225.84521, 230.55176, 233.01709, 235.19678, 239.01562, 241.48096, 246.57422, 251.84766, " y="152, ">
				If the property value is not
		</text>
		<text fill="gray" font-size="9" font-family="Segoe UI" x="150, 155.2998, 160.00635, 162.82324, 165.00293, 170.09619, 174.80273, 180.10254, 182.05371, 184.51904, 188.33789, 193.62891, 198.33545, 202.49268, 204.67236, 207.48926, 209.66895, 214.37549, 218.19434, 220.65967, 227.16357, 232.25684, 234.43652, 238.59375, 243.68701, 246.15234, 250.85889, 255.95215, 259.00195, 261.18164, 264.23145, " y="164, ">
				defined, specifies which entity
		</text>
		<text fill="gray" font-size="9" font-family="Segoe UI" x="150, 152.71582, 158.00684, 162.71338, 165.84229, 169.66113, 174.93457, 180.02783, 181.979, 184.44434, 189.71777, 192.84668, 198.14648, 202.72559, 207.81885, 209.99854, 213.81738, 218.39648, 221.44629, 223.62598, 228.89941, 233.99268, 236.45801, 241.73145, " y="176, ">
				(person, organisation or
		</text>
		<text fill="gray" font-size="9" font-family="Segoe UI" x="150, 153.81885, 158.17383, 161.99268, 165.04248, 169.74902, 177.50098, 180.2168, 182.68213, 189.18604, 191.36572, 193.54541, 195.7251, 198.19043, 202.89697, 208.19678, 210.37646, 213.42627, 215.8916, 218.94141, 224.03467, 228.74121, 231.20654, 236.49756, 239.62646, 244.8999, 250.19092, 254.89746, 258.02637, 261.07617, " y="188, ">
				system) will edit the property
		</text>
		<text fill="gray" font-size="9" font-family="Segoe UI" x="150, 154.31104, 158.89014, 161.06982, 166.16309, 170.86963, 173.33496, 176.93408, 179.39941, 184.10596, 188.23682, 193.52783, 196.65674, 201.36328, 205.18213, 209.00098, 213.70752, 219.00732, 221.47266, 226.76367, 231.11865, 233.58398, 238.16309, 240.62842, 247.41357, 252.98584, 258.25928, 263.55908, 268.26562, " y="200, ">
				value - expressed by a QCode.
		</text>
		<text fill="gray" font-size="9" font-family="Segoe UI" x="150, 152.39502, 155.21191, 157.67725, 160.72705, 165.82031, 170.52686, 172.99219, 178.2832, 181.41211, 186.68555, 191.97656, 196.68311, 199.81201, 202.86182, 207.2168, 209.68213, 213.99316, 218.57227, 220.75195, 225.84521, 230.55176, 233.01709, 235.19678, " y="212, ">
				If the property value is
		</text>
		<text fill="gray" font-size="9" font-family="Segoe UI" x="150, 155.2998, 160.00635, 162.82324, 165.00293, 170.09619, 174.80273, 180.10254, 182.05371, 184.51904, 188.33789, 193.62891, 198.33545, 202.49268, 204.67236, 207.48926, 209.66895, 214.37549, 218.19434, 220.65967, 227.16357, 232.25684, 234.43652, 238.59375, 243.68701, 246.15234, 250.85889, 255.95215, 259.00195, 261.18164, 264.23145, " y="224, ">
				defined, specifies which entity
		</text>
		<text fill="gray" font-size="9" font-family="Segoe UI" x="150, 152.71582, 158.00684, 162.71338, 165.84229, 169.66113, 174.93457, 180.02783, 181.979, 184.44434, 189.71777, 192.84668, 198.14648, 202.72559, 207.81885, 209.99854, 213.81738, 218.39648, 221.44629, 223.62598, 228.89941, 233.99268, 236.45801, 241.73145, " y="236, ">
				(person, organisation or
		</text>
		<text fill="gray" font-size="9" font-family="Segoe UI" x="150, 153.81885, 158.17383, 161.99268, 165.04248, 169.74902, 177.50098, 180.2168, 182.68213, 187.77539, 192.35449, 196.17334, 198.63867, 203.34521, 208.64502, 210.82471, 213.87451, 218.58105, 223.88086, 226.34619, 229.396, 234.48926, " y="248, ">
				system) has edited the
		</text>
		<text fill="gray" font-size="9" font-family="Segoe UI" x="150, 155.29102, 158.41992, 163.69336, 168.98438, 173.69092, 176.81982, 179.86963, 184.22461, 186.68994, 191.00098, 195.58008, 197.75977, 202.85303, 207.55957, " y="260, ">
				property value.
		</text>
		<rect fill="white" x="154" y="117" width="42" height="16"/>
		<text font-size="12" font-weight="600" font-family="Segoe UI" x="154, 159.75977, 164.48828, 170.98047, 177.4375, 182.06055, 189.39648, " y="130, ">
				creator
		</text>
		<rect fill="none" stroke="black" stroke-width="1" stroke-linecap="square" stroke-miterlimit="4" transform="translate(0.5 0.5)" x="145" y="115" width="57" height="20"/>
		<rect fill="silver" x="149" y="273" width="73" height="21"/>
		<rect fill="white" x="145" y="269" width="73" height="21"/>
		<rect fill="white" x="150" y="296" width="120" height="108"/>
		<text fill="gray" font-size="9" font-family="Segoe UI" x="150, 152.39502, 155.21191, 157.67725, 160.72705, 165.82031, 170.52686, 172.99219, 178.2832, 181.41211, 186.68555, 191.97656, 196.68311, 199.81201, 202.86182, 207.2168, 209.68213, 213.99316, 218.57227, 220.75195, 225.84521, 230.55176, 233.01709, 235.19678, 239.01562, 241.48096, 246.57422, 251.84766, " y="306, ">
				If the property value is not
		</text>
		<text fill="gray" font-size="9" font-family="Segoe UI" x="150, 155.2998, 160.00635, 162.82324, 165.00293, 170.09619, 174.80273, 180.10254, 182.05371, 184.51904, 188.33789, 193.62891, 198.33545, 202.49268, 204.67236, 207.48926, 209.66895, 214.37549, 218.19434, 220.65967, 227.16357, 232.25684, 234.43652, 238.59375, 243.68701, 246.15234, 250.85889, 255.95215, 259.00195, 261.18164, 264.23145, " y="318, ">
				defined, specifies which entity
		</text>
		<text fill="gray" font-size="9" font-family="Segoe UI" x="150, 152.71582, 158.00684, 162.71338, 165.84229, 169.66113, 174.93457, 180.02783, 181.979, 184.44434, 189.71777, 192.84668, 198.14648, 202.72559, 207.81885, 209.99854, 213.81738, 218.39648, 221.44629, 223.62598, 228.89941, 233.99268, 236.45801, 241.73145, " y="330, ">
				(person, organisation or
		</text>
		<text fill="gray" font-size="9" font-family="Segoe UI" x="150, 153.81885, 158.17383, 161.99268, 165.04248, 169.74902, 177.50098, 180.2168, 182.68213, 189.18604, 191.36572, 193.54541, 195.7251, 198.19043, 202.89697, 208.19678, 210.37646, 213.42627, 215.8916, 218.94141, 224.03467, 228.74121, 231.20654, 236.49756, 239.62646, 244.8999, 250.19092, 254.89746, 258.02637, 261.07617, " y="342, ">
				system) will edit the property
		</text>
		<text fill="gray" font-size="9" font-family="Segoe UI" x="150, 153.59912, 156.06445, 160.771, 164.90186, 170.19287, 173.32178, 178.02832, 181.84717, 185.66602, 190.37256, 195.67236, 198.1377, 203.42871, 207.78369, 210.24902, 214.82812, 217.29346, 223.47656, 228.85986, 231.25488, 233.20605, 235.67139, 238.06641, 240.8833, 243.34863, 246.39844, 251.4917, " y="354, ">
				- expressed by a URI. If the
		</text>
		<text fill="gray" font-size="9" font-family="Segoe UI" x="150, 155.29102, 158.41992, 163.69336, 168.98438, 173.69092, 176.81982, 179.86963, 184.22461, 186.68994, 191.00098, 195.58008, 197.75977, 202.85303, 207.55957, 210.0249, 212.20459, 216.02344, 218.48877, 223.78857, 228.49512, 231.31201, 233.4917, 238.58496, 243.2915, 248.59131, " y="366, ">
				property value is defined,
		</text>
		<text fill="gray" font-size="9" font-family="Segoe UI" x="150, 153.81885, 159.10986, 163.81641, 167.97363, 170.15332, 172.97021, 175.1499, 179.85645, 183.67529, 186.14062, 192.64453, 197.73779, 199.91748, 204.07471, 209.16797, 211.6333, 216.33984, 221.43311, 224.48291, 226.6626, 229.7124, 234.06738, 236.53271, 239.24854, 244.53955, 249.24609, 252.375, 256.19385, 261.46729, 266.56055, " y="378, ">
				specifies which entity (person,
		</text>
		<text fill="gray" font-size="9" font-family="Segoe UI" x="150, 155.27344, 158.40234, 163.70215, 168.28125, 173.37451, 175.5542, 179.37305, 183.95215, 187.00195, 189.18164, 194.45508, 199.54834, 202.01367, 207.28711, 210.41602, 212.88135, 216.7002, 221.05518, 224.87402, 227.92383, 232.63037, 240.38232, 243.09814, 245.56348, 250.65674, 255.23584, " y="390, ">
				organisation or system) has
		</text>
		<text fill="gray" font-size="9" font-family="Segoe UI" x="150, 154.70654, 160.00635, 162.18604, 165.23584, 169.94238, 175.24219, 177.70752, 180.75732, 185.85059, 190.55713, 193.02246, 198.31348, 201.44238, 206.71582, 212.00684, 216.71338, 219.84229, 222.89209, 227.24707, " y="402, ">
				edited the property.
		</text>
		<rect fill="white" x="154" y="271" width="57" height="16"/>
		<text font-size="12" font-weight="600" font-family="Segoe UI" x="154, 159.75977, 164.48828, 170.98047, 177.4375, 182.06055, 189.39648, 194.20703, 201.4668, 206.28906, " y="284, ">
				creatoruri
		</text>
		<rect fill="none" stroke="black" stroke-width="1" stroke-linecap="square" stroke-miterlimit="4" transform="translate(0.5 0.5)" x="145" y="269" width="72" height="20"/>
		<rect fill="silver" x="149" y="415" width="69" height="21"/>
		<rect fill="white" x="145" y="411" width="69" height="21"/>
		<rect fill="white" x="150" y="438" width="119" height="72"/>
		<text fill="gray" font-size="9" font-family="Segoe UI" x="150, 154.71533, 159.80859, 164.51514, 166.98047, 172.28027, 176.85938, 179.90918, 184.61572, 187.08105, 189.79688, 194.37598, 199.46924, 204.76904, 206.72021, 209.18555, 214.45898, 219.75, 222.7998, 224.97949, 230.25293, 235.34619, 239.92529, 242.10498, 244.28467, 248.63965, 250.59082, 253.05615, 256.10596, 261.19922, " y="448, ">
				The date (and, optionally, the
		</text>
		<text fill="gray" font-size="9" font-family="Segoe UI" x="150, 153.0498, 155.22949, 162.98145, 167.68799, 170.40381, 172.86914, 179.37305, 184.46631, 189.17285, 194.26611, 196.73145, 199.78125, 204.87451, 209.58105, 212.04639, 217.3374, 220.46631, 225.73975, 231.03076, 235.7373, 238.86621, 241.91602, 246.271, 248.73633, 255.24023, 259.81934, " y="460, ">
				time) when the property was
		</text>
		<text fill="gray" font-size="9" font-family="Segoe UI" x="150, 152.17969, 156.75879, 160.57764, 163.62744, 166.09277, 173.84473, 179.11816, 184.41797, 186.59766, 189.41455, 191.59424, 196.30078, 201.60059, 203.55176, 206.01709, 210.73242, 215.82568, 220.53223, 222.99756, 225.17725, 230.27051, 232.4502, 235.5, 237.67969, 242.25879, 244.43848, 246.90381, 251.21484, 255.79395, 257.97363, 263.06689, " y="472, ">
				last modified. The initial value
		</text>
		<text fill="gray" font-size="9" font-family="Segoe UI" x="150, 152.17969, 155.99854, 158.46387, 161.51367, 166.60693, 171.31348, 173.77881, 179.07861, 183.65771, 186.70752, 191.41406, 193.87939, 196.59521, 201.17432, 206.26758, 211.56738, 213.51855, 215.98389, 221.25732, 226.54834, 229.59814, 231.77783, 237.05127, 242.14453, 246.72363, 248.90332, 251.08301, 255.43799, " y="484, ">
				is the date (and, optionally,
		</text>
		<text fill="gray" font-size="9" font-family="Segoe UI" x="150, 153.0498, 158.14307, 162.84961, 165.31494, 168.36475, 170.54443, 178.29639, 183.00293, 185.71875, 188.18408, 193.45752, 196.27441, 198.73975, 202.89697, 206.02588, 210.73242, 215.31152, 218.36133, 220.54102, 225.81445, 230.90771, 233.37305, 238.64648, 241.46338, 243.92871, 246.97852, 252.07178, " y="496, ">
				the time) of creation of the
		</text>
		<text fill="gray" font-size="9" font-family="Segoe UI" x="150, 155.29102, 158.41992, 163.69336, 168.98438, 173.69092, 176.81982, 179.86963, 184.22461, " y="508, ">
				property.
		</text>
		<rect fill="white" x="154" y="413" width="53" height="16"/>
		<text font-size="12" font-weight="600" font-family="Segoe UI" x="154, 164.99219, 172.32812, 179.75781, 183.16797, 187.76758, 191.17773, 197.66992, " y="426, ">
				modified
		</text>
		<rect fill="none" stroke="black" stroke-width="1" stroke-linecap="square" stroke-miterlimit="4" transform="translate(0.5 0.5)" x="145" y="411" width="68" height="20"/>
		<rect fill="silver" x="149" y="521" width="59" height="21"/>
		<rect fill="white" x="145" y="517" width="59" height="21"/>
		<rect fill="white" x="150" y="544" width="118" height="108"/>
		<text fill="gray" font-size="9" font-family="Segoe UI" x="150, 152.39502, 155.21191, 157.67725, 161.49609, 166.20264, 169.25244, 171.71777, 174.76758, 180.04102, 182.50635, 185.55615, 188.68506, 193.77832, 198.48486, 200.9502, 204, 209.09326, " y="554, ">
				If set to true the
		</text>
		<text fill="gray" font-size="9" font-family="Segoe UI" x="150, 154.15723, 159.43066, 162.55957, 165.68848, 170.39502, 174.21387, 179.50488, 184.77832, 189.87158, 195.17139, 197.35107, 202.44434, 207.74414, 210.20947, 215.50049, 218.62939, 223.90283, 229.19385, 233.90039, 237.0293, 240.0791, 244.43408, 246.89941, 253.40332, 257.98242, " y="566, ">
				corresponding property was
		</text>
		<text fill="gray" font-size="9" font-family="Segoe UI" x="150, 154.5791, 159.87891, 165.17871, 169.88525, 175.18506, 177.65039, 180.7002, 185.97363, 188.43896, 191.48877, 196.58203, 201.28857, 203.75391, 209.92822, 214.77979, 217.24512, 219.64014, 222.68994, 227.39648, 235.14844, 237.61377, 240.43066, 245.7041, 248.83301, 251.29834, " y="578, ">
				added to the G2 Item for a
		</text>
		<text fill="gray" font-size="9" font-family="Segoe UI" x="150, 153.81885, 159.10986, 163.81641, 167.97363, 170.15332, 172.97021, 175.1499, 179.30713, 181.77246, 185.92969, 191.02295, 194.8418, 197.8916, 203.16504, 210.91699, 215.62354, 218.75244, 221.21777, 226.49121, 229.62012, 232.08545, 237.38525, 240.51416, 245.7876, 250.88086, 256.17188, 258.63721, 263.91064, " y="590, ">
				specific customer or group of
		</text>
		<text fill="gray" font-size="9" font-family="Segoe UI" x="150, 154.15723, 159.25049, 163.06934, 166.11914, 171.39258, 179.14453, 183.85107, 186.97998, 190.79883, 193.26416, 198.5376, 203.63086, 205.81055, 210.16553, 212.1167, 214.58203, 219.29736, 224.39062, 229.09717, 231.5625, 236.8623, 241.56885, 244.38574, 248.96484, 254.05811, 256.23779, " y="602, ">
				customers only. The default
		</text>
		<text fill="gray" font-size="9" font-family="Segoe UI" x="150, 154.31104, 158.89014, 161.06982, 166.16309, 170.86963, 173.33496, 178.6084, 181.42529, 183.89062, 186.94043, 192.03369, 194.21338, 198.03223, 200.49756, 205.78857, 208.91748, 214.19092, 219.48193, 224.18848, 227.31738, 230.36719, 234.72217, 237.1875, 239.36719, 243.18604, 245.65137, 248.46826, 253.04736, 255.22705, 259.0459, " y="614, ">
				value of this property is false
		</text>
		<text fill="gray" font-size="9" font-family="Segoe UI" x="150, 156.50391, 161.59717, 163.77686, 167.93408, 173.02734, 175.49268, 180.07178, 185.36279, 190.65381, 192.8335, 195.01318, 199.71973, 203.53857, 206.00391, 212.50781, 217.60107, 222.30762, 227.40088, 229.86621, 232.91602, 238.00928, 240.18896, " y="626, ">
				which applies when this
		</text>
		<text fill="gray" font-size="9" font-family="Segoe UI" x="150, 154.5791, 157.62891, 160.67871, 163.80762, 165.9873, 171.27832, 176.37158, 179.42139, 184.12793, 186.59326, 188.77295, 192.5918, 195.05713, 200.15039, 205.42383, 208.47363, 210.93896, 216.03223, 219.85107, 224.55762, 229.85742, 232.32275, 238.82666, 241.00635, 244.05615, 249.14941, 251.61475, 254.66455, 259.75781, " y="638, ">
				attribute is not used with the
		</text>
		<text fill="gray" font-size="9" font-family="Segoe UI" x="150, 155.29102, 158.41992, 163.69336, 168.98438, 173.69092, 176.81982, 179.86963, 184.22461, " y="650, ">
				property.
		</text>
		<rect fill="white" x="154" y="519" width="43" height="16"/>
		<text font-size="12" font-weight="600" font-family="Segoe UI" x="154, 159.75977, 167.01953, 172.29883, 176.92188, 184.25781, " y="532, ">
				custom
		</text>
		<rect fill="none" stroke="black" stroke-width="1" stroke-linecap="square" stroke-miterlimit="4" transform="translate(0.5 0.5)" x="145" y="517" width="58" height="20"/>
		<rect fill="silver" x="149" y="663" width="52" height="21"/>
		<rect fill="white" x="145" y="659" width="52" height="21"/>
		<rect fill="white" x="150" y="686" width="118" height="48"/>
		<text fill="gray" font-size="9" font-family="Segoe UI" x="150, 152.39502, 157.48828, 162.78809, 164.96777, 169.125, 173.7041, 176.75391, 181.46045, 185.2793, 187.74463, 193.03564, 197.39062, 199.85596, 206.35986, 211.45312, 213.63281, 217.79004, 222.8833, 225.34863, 233.10059, 237.80713, 242.38623, 247.47949, 251.29834, 253.76367, 256.81348, 261.90674, " y="696, ">
				Indicates by which means the
		</text>
		<text fill="gray" font-size="9" font-family="Segoe UI" x="150, 154.31104, 158.89014, 161.06982, 166.16309, 170.86963, 173.33496, 179.83887, 184.41797, 188.23682, 190.70215, 195.40869, 199.53955, 202.58936, 205.71826, 210.29736, 214.45459, 217.50439, 222.21094, 227.51074, 229.97607, 232.79297, 235.92188, 241.19531, 248.94727, 251.4126, 254.4624, 259.55566, " y="708, ">
				value was extracted from the
		</text>
		<text fill="gray" font-size="9" font-family="Segoe UI" x="150, 154.15723, 159.43066, 164.52393, 167.57373, 172.28027, 177.37354, 180.42334, 182.88867, 186.48779, 188.95312, 193.65967, 197.79053, 203.08154, 206.21045, 210.91699, 214.73584, 218.55469, 223.26123, 228.56104, 231.02637, 236.31738, 240.67236, 243.1377, " y="720, ">
				content - expressed by a
		</text>
		<text fill="gray" font-size="9" font-family="Segoe UI" x="150, 156.78516, 162.35742, 167.63086, 172.93066, " y="732, ">
				QCode
		</text>
		<rect fill="white" x="154" y="661" width="36" height="16"/>
		<text font-size="12" font-weight="600" font-family="Segoe UI" x="154, 161.22461, 168.56055, " y="674, ">
				how
		</text>
		<rect fill="none" stroke="black" stroke-width="1" stroke-linecap="square" stroke-miterlimit="4" transform="translate(0.5 0.5)" x="145" y="659" width="51" height="20"/>
		<rect fill="silver" x="149" y="745" width="57" height="21"/>
		<rect fill="white" x="145" y="741" width="57" height="21"/>
		<rect fill="white" x="150" y="768" width="118" height="36"/>
		<text fill="gray" font-size="9" font-family="Segoe UI" x="150, 152.39502, 157.48828, 162.78809, 164.96777, 169.125, 173.7041, 176.75391, 181.46045, 185.2793, 187.74463, 193.03564, 197.39062, 199.85596, 206.35986, 211.45312, 213.63281, 217.79004, 222.8833, 225.34863, 233.10059, 237.80713, 242.38623, 247.47949, 251.29834, 253.76367, 256.81348, 261.90674, " y="778, ">
				Indicates by which means the
		</text>
		<text fill="gray" font-size="9" font-family="Segoe UI" x="150, 154.31104, 158.89014, 161.06982, 166.16309, 170.86963, 173.33496, 179.83887, 184.41797, 188.23682, 190.70215, 195.40869, 199.53955, 202.58936, 205.71826, 210.29736, 214.45459, 217.50439, 222.21094, 227.51074, 229.97607, 232.79297, 235.92188, 241.19531, 248.94727, 251.4126, 254.4624, 259.55566, " y="790, ">
				value was extracted from the
		</text>
		<text fill="gray" font-size="9" font-family="Segoe UI" x="150, 154.15723, 159.43066, 164.52393, 167.57373, 172.28027, 177.37354, 180.42334, 182.88867, 186.48779, 188.95312, 193.65967, 197.79053, 203.08154, 206.21045, 210.91699, 214.73584, 218.55469, 223.26123, 228.56104, 231.02637, 236.31738, 240.67236, 243.1377, 247.7168, 250.18213, 256.36523, 261.74854, " y="802, ">
				content - expressed by a URI
		</text>
		<rect fill="white" x="154" y="743" width="41" height="16"/>
		<text font-size="12" font-weight="600" font-family="Segoe UI" x="154, 161.22461, 168.56055, 178.12891, 185.38867, 190.21094, " y="756, ">
				howuri
		</text>
		<rect fill="none" stroke="black" stroke-width="1" stroke-linecap="square" stroke-miterlimit="4" transform="translate(0.5 0.5)" x="145" y="741" width="56" height="20"/>
		<rect fill="silver" x="149" y="815" width="52" height="21"/>
		<rect fill="white" x="145" y="811" width="52" height="21"/>
		<rect fill="white" x="150" y="838" width="113" height="36"/>
		<text fill="gray" font-size="9" font-family="Segoe UI" x="150, 158.40674, 163.5, 167.85498, 170.32031, 173.37012, 178.46338, 183.16992, 185.63525, 193.38721, 198.09375, 201.14355, 205.72266, 211.02246, 215.60156, 218.65137, 223.23047, 225.6958, 230.78906, 235.36816, 239.18701, 241.65234, 246.94336, 251.6499, 256.35645, " y="848, ">
				Why the metadata has been
		</text>
		<text fill="gray" font-size="9" font-family="Segoe UI" x="150, 152.17969, 157.27295, 161.43018, 163.60986, 168.70312, 174.00293, 178.70947, 184.00928, 186.47461, 190.07373, 192.53906, 197.24561, 201.37646, 206.66748, 209.79639, 214.50293, 218.32178, 222.14062, 226.84717, 232.14697, 234.6123, 239.90332, 244.2583, 246.72363, " y="860, ">
				included - expressed by a
		</text>
		<text fill="gray" font-size="9" font-family="Segoe UI" x="150, 156.78516, 162.35742, 167.63086, 172.93066, " y="872, ">
				QCode
		</text>
		<rect fill="white" x="154" y="813" width="36" height="16"/>
		<text font-size="12" font-weight="600" font-family="Segoe UI" x="154, 163.56836, 170.79297, " y="826, ">
				why
		</text>
		<rect fill="none" stroke="black" stroke-width="1" stroke-linecap="square" stroke-miterlimit="4" transform="translate(0.5 0.5)" x="145" y="811" width="51" height="20"/>
		<rect fill="silver" x="149" y="885" width="56" height="21"/>
		<rect fill="white" x="145" y="881" width="56" height="21"/>
		<rect fill="white" x="150" y="908" width="119" height="24"/>
		<text fill="gray" font-size="9" font-family="Segoe UI" x="150, 158.40674, 163.5, 167.85498, 170.32031, 173.37012, 178.46338, 183.16992, 185.63525, 193.38721, 198.09375, 201.14355, 205.72266, 211.02246, 215.60156, 218.65137, 223.23047, 225.6958, 230.78906, 235.36816, 239.18701, 241.65234, 246.94336, 251.6499, 256.35645, " y="918, ">
				Why the metadata has been
		</text>
		<text fill="gray" font-size="9" font-family="Segoe UI" x="150, 152.17969, 157.27295, 161.43018, 163.60986, 168.70312, 174.00293, 178.70947, 184.00928, 186.47461, 190.07373, 192.53906, 197.24561, 201.37646, 206.66748, 209.79639, 214.50293, 218.32178, 222.14062, 226.84717, 232.14697, 234.6123, 239.90332, 244.2583, 246.72363, 251.30273, 253.76807, 259.95117, 265.33447, " y="930, ">
				included - expressed by a URI
		</text>
		<rect fill="white" x="154" y="883" width="40" height="16"/>
		<text font-size="12" font-weight="600" font-family="Segoe UI" x="154, 163.56836, 170.79297, 177.25, 184.50977, 189.33203, " y="896, ">
				whyuri
		</text>
		<rect fill="none" stroke="black" stroke-width="1" stroke-linecap="square" stroke-miterlimit="4" transform="translate(0.5 0.5)" x="145" y="881" width="55" height="20"/>
		<rect fill="silver" x="149" y="943" width="97" height="21"/>
		<rect fill="white" x="145" y="939" width="97" height="21"/>
		<rect fill="white" x="150" y="966" width="117" height="72"/>
		<text fill="gray" font-size="9" font-family="Segoe UI" x="150, 156.78516, 161.87842, 166.58496, 169.05029, 174.32373, 177.45264, 179.91797, 187.66992, 192.24902, 197.34229, 201.69727, 204.1626, 208.31982, 213.59326, 218.68652, 222.50537, 225.55518, 228.68408, 233.26318, 235.44287, 240.53613, 243.58594, 247.40479, 249.87012, 252.91992, 258.01318, 262.59229, " y="976, ">
				One or many constraints that
		</text>
		<text fill="gray" font-size="9" font-family="Segoe UI" x="150, 154.5791, 159.87012, 165.16113, 167.34082, 171.6958, 174.16113, 177.21094, 182.48438, 184.94971, 190.24072, 195.33398, 200.625, 202.80469, 204.98438, 208.80322, 213.89648, 216.07617, 221.16943, 226.46924, 228.93457, 231.98438, 237.07764, 241.78418, 244.24951, 248.56055, 253.13965, 255.31934, 260.4126, " y="988, ">
				apply to publishing the value
		</text>
		<text fill="gray" font-size="9" font-family="Segoe UI" x="150, 155.27344, 158.09033, 160.55566, 163.60547, 168.69873, 173.40527, 175.87061, 181.16162, 184.29053, 189.56396, 194.85498, 199.56152, 202.69043, 205.74023, 210.09521, 212.56055, 216.15967, 218.625, 223.33154, 227.4624, 232.75342, 235.88232, 240.58887, 244.40771, 248.22656, 252.93311, " y="1000, ">
				of the property - expressed
		</text>
		<text fill="gray" font-size="9" font-family="Segoe UI" x="150, 155.29102, 159.646, 162.11133, 166.69043, 169.15576, 175.94092, 181.51318, 186.78662, 192.08643, 196.79297, 198.74414, 201.20947, 205.76221, 210.34131, 214.49854, 219.5918, 222.05713, 226.21436, 231.48779, 236.58105, 240.3999, 243.44971, 246.57861, 251.15771, 253.3374, 258.43066, " y="1012, ">
				by a QCode. Each constraint
		</text>
		<text fill="gray" font-size="9" font-family="Segoe UI" x="150, 154.5791, 159.87012, 165.16113, 167.34082, 169.52051, 174.22705, 178.0459, 180.51123, 183.56104, 188.83447, 191.2998, 195.87891, 198.05859, 200.23828, 202.70361, 208.00342, 212.70996, 216.52881, 220.68604, 225.39258, 230.48584, 235.78564, 240.36475, 245.45801, " y="1024, ">
				applies to all descendant
		</text>
		<text fill="gray" font-size="9" font-family="Segoe UI" x="150, 154.70654, 156.88623, 161.59277, 169.34473, 174.05127, 179.14453, 182.19434, 186.01318, " y="1036, ">
				elements.
		</text>
		<rect fill="white" x="154" y="941" width="81" height="16"/>
		<text font-size="12" font-weight="600" font-family="Segoe UI" x="154, 161.44141, 168.70117, 176.14258, 181.90234, 189.23828, 196.49805, 201.77734, 206.44727, 211.22266, 217.67969, 221.08984, 228.34961, " y="954, ">
				pubconstraint
		</text>
		<rect fill="none" stroke="black" stroke-width="1" stroke-linecap="square" stroke-miterlimit="4" transform="translate(0.5 0.5)" x="145" y="939" width="96" height="20"/>
		<rect fill="silver" x="149" y="1049" width="112" height="21"/>
		<rect fill="white" x="145" y="1045" width="112" height="21"/>
		<rect fill="white" x="150" y="1072" width="117" height="72"/>
		<text fill="gray" font-size="9" font-family="Segoe UI" x="150, 156.78516, 161.87842, 166.58496, 169.05029, 174.32373, 177.45264, 179.91797, 187.66992, 192.24902, 197.34229, 201.69727, 204.1626, 208.31982, 213.59326, 218.68652, 222.50537, 225.55518, 228.68408, 233.26318, 235.44287, 240.53613, 243.58594, 247.40479, 249.87012, 252.91992, 258.01318, 262.59229, " y="1082, ">
				One or many constraints that
		</text>
		<text fill="gray" font-size="9" font-family="Segoe UI" x="150, 154.5791, 159.87012, 165.16113, 167.34082, 171.6958, 174.16113, 177.21094, 182.48438, 184.94971, 190.24072, 195.33398, 200.625, 202.80469, 204.98438, 208.80322, 213.89648, 216.07617, 221.16943, 226.46924, 228.93457, 231.98438, 237.07764, 241.78418, 244.24951, 248.56055, 253.13965, 255.31934, 260.4126, " y="1094, ">
				apply to publishing the value
		</text>
		<text fill="gray" font-size="9" font-family="Segoe UI" x="150, 155.27344, 158.09033, 160.55566, 163.60547, 168.69873, 173.40527, 175.87061, 181.16162, 184.29053, 189.56396, 194.85498, 199.56152, 202.69043, 205.74023, 210.09521, 212.56055, 216.15967, 218.625, 223.33154, 227.4624, 232.75342, 235.88232, 240.58887, 244.40771, 248.22656, 252.93311, " y="1106, ">
				of the property - expressed
		</text>
		<text fill="gray" font-size="9" font-family="Segoe UI" x="150, 155.29102, 159.646, 162.11133, 166.69043, 169.15576, 175.33887, 180.72217, 183.11719, 185.06836, 187.53369, 192.08643, 196.66553, 200.82275, 205.91602, 208.38135, 212.53857, 217.81201, 222.90527, 226.72412, 229.77393, 232.90283, 237.48193, 239.66162, 244.75488, " y="1118, ">
				by a URI. Each constraint
		</text>
		<text fill="gray" font-size="9" font-family="Segoe UI" x="150, 154.5791, 159.87012, 165.16113, 167.34082, 169.52051, 174.22705, 178.0459, 180.51123, 183.56104, 188.83447, 191.2998, 195.87891, 198.05859, 200.23828, 202.70361, 208.00342, 212.70996, 216.52881, 220.68604, 225.39258, 230.48584, 235.78564, 240.36475, 245.45801, " y="1130, ">
				applies to all descendant
		</text>
		<text fill="gray" font-size="9" font-family="Segoe UI" x="150, 154.70654, 156.88623, 161.59277, 169.34473, 174.05127, 179.14453, 182.19434, 186.01318, " y="1142, ">
				elements.
		</text>
		<rect fill="white" x="154" y="1047" width="96" height="16"/>
		<text font-size="12" font-weight="600" font-family="Segoe UI" x="154, 161.44141, 168.70117, 176.14258, 181.90234, 189.23828, 196.49805, 201.77734, 206.44727, 211.22266, 217.67969, 221.08984, 228.34961, 233.01953, 240.2793, 245.10156, " y="1060, ">
				pubconstrainturi
		</text>
		<rect fill="none" stroke="black" stroke-width="1" stroke-linecap="square" stroke-miterlimit="4" transform="translate(0.5 0.5)" x="145" y="1045" width="111" height="20"/>
		<rect fill="silver" x="141" y="1212" width="52" height="21"/>
		<rect fill="white" x="137" y="1208" width="52" height="21"/>
		<rect fill="white" x="142" y="1235" width="120" height="96"/>
		<text fill="gray" font-size="9" font-family="Segoe UI" x="142, 146.71533, 151.80859, 156.51514, 158.98047, 162.79932, 165.84912, 170.42822, 173.55713, 176.60693, 179.07227, 182.12207, 184.30176, 192.05371, 196.76025, 199.22559, 204.49902, 207.31592, 209.78125, 212.83105, 217.92432, 222.63086, 225.09619, 230.38721, 234.96631, 238.09521, 241.14502, 243.61035, 245.79004, 250.8833, 253.34863, " y="1245, ">
				The start time of the part in a
		</text>
		<text fill="gray" font-size="9" font-family="Segoe UI" x="142, 145.0498, 147.22949, 154.98145, 159.68799, 161.86768, 164.04736, 169.14062, 173.84717, 175.79834, 178.26367, 182.979, 188.07227, 192.77881, 195.24414, 199.95068, 204.08154, 209.37256, 212.50146, 217.20801, 221.02686, 224.8457, 229.55225, 234.85205, 237.31738, 240.36719, 242.54688, 250.29883, " y="1257, ">
				timeline. The expressed time
		</text>
		<text fill="gray" font-size="9" font-family="Segoe UI" x="142, 147.09326, 152.18652, 154.36621, 157.41602, 159.88135, 162.06104, 165.87988, 168.34521, 173.05176, 177.18262, 181.33984, 183.51953, 188.61279, 193.9126, 198.61914, 203.91895, 205.87012, 208.33545, 214.51855, 218.3374, 220.51709, 225.61035, 230.91016, 233.37549, 236.42529, 241.51855, " y="1269, ">
				unit is excluded. Using the
		</text>
		<text fill="gray" font-size="9" font-family="Segoe UI" x="142, 146.55273, 151.85254, 154.03223, 157.08203, 159.54736, 165.73047, 170.82373, 173.00342, 176.05322, 178.51855, 181.64746, 186.354, 191.65381, 196.74707, 198.92676, 202.05566, 206.76221, 210.58105, 213.04639, 216.09619, 221.18945, 225.896, 228.36133, 231.17822, 234.30713, 238.88623, 246.63818, " y="1281, ">
				Edit Unit requires the frame
		</text>
		<text fill="gray" font-size="9" font-family="Segoe UI" x="142, 145.12891, 149.70801, 152.75781, 157.46436, 159.92969, 165.20312, 168.33203, 170.79736, 174.61621, 179.19531, 186.94727, 192.23828, 194.41797, 196.59766, 201.69092, 206.99072, 209.45605, 212.58496, 217.16406, 220.21387, 224.92041, 227.38574, 230.43555, 235.70898, 238.17432, 243.46533, " y="1293, ">
				rate or sampling rate to be
		</text>
		<text fill="gray" font-size="9" font-family="Segoe UI" x="142, 146.47363, 151.56689, 156.84033, 163.34424, 168.4375, 170.38867, 172.854, 175.90381, 180.99707, 183.17676, 186.99561, 189.46094, 197.21289, 202.30615, 206.125, 209.1748, 211.64014, 216.93115, 221.6377, 224.10303, 229.40283, 234.10938, 236.92627, 239.10596, 244.19922, 248.90576, " y="1305, ">
				known, this must be defined
		</text>
		<text fill="gray" font-size="9" font-family="Segoe UI" x="142, 147.29102, 151.646, 154.11133, 157.16113, 162.25439, 166.96094, 169.42627, 172.55518, 177.26172, 180.07861, 184.78516, 187.91406, 192.62061, 197.71387, 201.87109, 206.57764, 211.87744, 214.34277, 217.47168, 222.17822, 227.27148, 232.57129, 234.75098, 237.80078, 239.98047, 245.25391, 250.34717, 252.8125, 258.08594, " y="1317, ">
				by the referenced rendition of
		</text>
		<text fill="gray" font-size="9" font-family="Segoe UI" x="142, 145.0498, 150.14307, 154.84961, 157.31494, 161.47217, 166.74561, 171.83887, 174.88867, 179.59521, 184.68848, 187.73828, " y="1329, ">
				the content.
		</text>
		<rect fill="white" x="146" y="1210" width="36" height="16"/>
		<text font-size="12" font-weight="600" font-family="Segoe UI" x="146, 151.2793, 155.94922, 162.40625, 167.52734, " y="1223, ">
				start
		</text>
		<rect fill="none" stroke="black" stroke-width="1" stroke-linecap="square" stroke-miterlimit="4" transform="translate(0.5 0.5)" x="137" y="1208" width="51" height="20"/>
		<rect fill="silver" x="141" y="1342" width="52" height="21"/>
		<rect fill="white" x="137" y="1338" width="52" height="21"/>
		<rect fill="white" x="142" y="1365" width="120" height="96"/>
		<text fill="gray" font-size="9" font-family="Segoe UI" x="142, 146.71533, 151.80859, 156.51514, 158.98047, 163.68701, 168.78027, 174.08008, 176.54541, 179.59521, 181.7749, 189.52686, 194.2334, 196.69873, 201.97217, 204.78906, 207.25439, 210.3042, 215.39746, 220.104, 222.56934, 227.86035, 232.43945, 235.56836, 238.61816, 241.0835, 243.26318, 248.35645, 250.82178, " y="1375, ">
				The end time of the part in a
		</text>
		<text fill="gray" font-size="9" font-family="Segoe UI" x="142, 145.0498, 147.22949, 154.98145, 159.68799, 161.86768, 164.04736, 169.14062, 173.84717, 175.79834, 178.26367, 182.979, 188.07227, 192.77881, 195.24414, 199.95068, 204.08154, 209.37256, 212.50146, 217.20801, 221.02686, 224.8457, 229.55225, 234.85205, 237.31738, 240.36719, 242.54688, 250.29883, " y="1387, ">
				timeline. The expressed time
		</text>
		<text fill="gray" font-size="9" font-family="Segoe UI" x="142, 147.09326, 152.18652, 154.36621, 157.41602, 159.88135, 162.06104, 165.87988, 168.34521, 170.5249, 175.61816, 179.77539, 181.95508, 187.04834, 192.34814, 197.05469, 202.35449, 204.30566, 206.771, 212.9541, 216.77295, 218.95264, 224.0459, 229.3457, 231.81104, 234.86084, 239.9541, " y="1399, ">
				unit is included. Using the
		</text>
		<text fill="gray" font-size="9" font-family="Segoe UI" x="142, 146.55273, 151.85254, 154.03223, 157.08203, 159.54736, 165.73047, 170.82373, 173.00342, 176.05322, 178.51855, 181.64746, 186.354, 191.65381, 196.74707, 198.92676, 202.05566, 206.76221, 210.58105, 213.04639, 216.09619, 221.18945, 225.896, 228.36133, 231.17822, 234.30713, 238.88623, 246.63818, " y="1411, ">
				Edit Unit requires the frame
		</text>
		<text fill="gray" font-size="9" font-family="Segoe UI" x="142, 145.12891, 149.70801, 152.75781, 157.46436, 159.92969, 165.20312, 168.33203, 170.79736, 174.61621, 179.19531, 186.94727, 192.23828, 194.41797, 196.59766, 201.69092, 206.99072, 209.45605, 212.58496, 217.16406, 220.21387, 224.92041, 227.38574, 230.43555, 235.70898, 238.17432, 243.46533, " y="1423, ">
				rate or sampling rate to be
		</text>
		<text fill="gray" font-size="9" font-family="Segoe UI" x="142, 146.47363, 151.56689, 156.84033, 163.34424, 168.4375, 170.38867, 172.854, 175.90381, 180.99707, 183.17676, 186.99561, 189.46094, 197.21289, 202.30615, 206.125, 209.1748, 211.64014, 216.93115, 221.6377, 224.10303, 229.40283, 234.10938, 236.92627, 239.10596, 244.19922, 248.90576, " y="1435, ">
				known, this must be defined
		</text>
		<text fill="gray" font-size="9" font-family="Segoe UI" x="142, 147.29102, 151.646, 154.11133, 157.16113, 162.25439, 166.96094, 169.42627, 172.55518, 177.26172, 180.07861, 184.78516, 187.91406, 192.62061, 197.71387, 201.87109, 206.57764, 211.87744, 214.34277, 217.47168, 222.17822, 227.27148, 232.57129, 234.75098, 237.80078, 239.98047, 245.25391, 250.34717, 252.8125, 258.08594, " y="1447, ">
				by the referenced rendition of
		</text>
		<text fill="gray" font-size="9" font-family="Segoe UI" x="142, 145.0498, 150.14307, 154.84961, 157.31494, 161.47217, 166.74561, 171.83887, 174.88867, 179.59521, 184.68848, 187.73828, " y="1459, ">
				the content.
		</text>
		<rect fill="white" x="146" y="1340" width="36" height="16"/>
		<text font-size="12" font-weight="600" font-family="Segoe UI" x="146, 152.49219, 159.75195, " y="1353, ">
				end
		</text>
		<rect fill="none" stroke="black" stroke-width="1" stroke-linecap="square" stroke-miterlimit="4" transform="translate(0.5 0.5)" x="137" y="1338" width="51" height="20"/>
		<rect fill="silver" x="141" y="1472" width="66" height="21"/>
		<rect fill="white" x="137" y="1468" width="66" height="21"/>
		<rect fill="white" x="142" y="1495" width="120" height="72"/>
		<text fill="gray" font-size="9" font-family="Segoe UI" x="142, 146.71533, 151.80859, 156.51514, 158.98047, 164.07373, 169.16699, 171.34668, 174.39648, 176.86182, 181.95508, 185.77393, 190.48047, 195.78027, 198.24561, 201.0625, 206.33594, 209.46484, 211.93018, 214.97998, 220.07324, 224.77979, 227.24512, 231.06396, 234.11377, 238.69287, 241.82178, " y="1505, ">
				The unit used for the start
		</text>
		<text fill="gray" font-size="9" font-family="Segoe UI" x="142, 146.5791, 151.67236, 156.97217, 159.4375, 164.14404, 169.2373, 174.53711, 177.00244, 180.05225, 182.23193, 189.98389, 194.69043, 198.50928, 201.55908, 206.13818, 213.89014, 219.18115, 223, 225.46533, " y="1517, ">
				and end timestamps -
		</text>
		<text fill="gray" font-size="9" font-family="Segoe UI" x="142, 146.70654, 150.8374, 156.12842, 159.25732, 163.96387, 167.78271, 171.60156, 176.30811, 181.60791, 184.07324, 189.36426, 193.71924, 196.18457, 200.76367, 203.229, 210.01416, 215.58643, 220.85986, 226.15967, 230.86621, 233.33154, " y="1529, ">
				expressed by a QCode /
		</text>
		<text fill="gray" font-size="9" font-family="Segoe UI" x="142, 146.70654, 148.88623, 151.93604, 157.0293, 161.73584, 164.86475, 167.33008, 170.37988, 175.47314, 180.17969, 182.64502, 185.69482, 187.87451, 195.62646, 200.33301, 205.42627, 210.51953, 212.69922, 215.74902, 218.21436, 223.48779, 226.6167, 229.08203, 232.13184, 237.2251, " y="1541, ">
				either the timeunit or the
		</text>
		<text fill="gray" font-size="9" font-family="Segoe UI" x="142, 145.0498, 147.22949, 154.98145, 159.68799, 164.78125, 169.87451, 172.0542, 175.104, 180.19727, 183.32617, 185.50586, 187.97119, 192.55029, 195.6001, 198.6499, 201.77881, 203.9585, 209.24951, 214.34277, 217.39258, 222.09912, 224.56445, 232.646, 238.8291, 243.61035, 248.32568, 250.79102, 256.08203, " y="1553, ">
				timeunituri attribute MUST be
		</text>
		<text fill="gray" font-size="9" font-family="Segoe UI" x="142, 147.09326, 150.91211, 155.61865, " y="1565, ">
				used
		</text>
		<rect fill="white" x="146" y="1470" width="50" height="16"/>
		<text font-size="12" font-weight="600" font-family="Segoe UI" x="146, 150.66992, 154.08008, 165.07227, 171.56445, 178.82422, 186.08398, 189.49414, " y="1483, ">
				timeunit
		</text>
		<rect fill="none" stroke="black" stroke-width="1" stroke-linecap="square" stroke-miterlimit="4" transform="translate(0.5 0.5)" x="137" y="1468" width="65" height="20"/>
		<rect fill="silver" x="141" y="1578" width="81" height="21"/>
		<rect fill="white" x="137" y="1574" width="81" height="21"/>
		<rect fill="white" x="142" y="1601" width="120" height="72"/>
		<text fill="gray" font-size="9" font-family="Segoe UI" x="142, 146.71533, 151.80859, 156.51514, 158.98047, 164.07373, 169.16699, 171.34668, 174.39648, 176.86182, 181.95508, 185.77393, 190.48047, 195.78027, 198.24561, 201.0625, 206.33594, 209.46484, 211.93018, 214.97998, 220.07324, 224.77979, 227.24512, 231.06396, 234.11377, 238.69287, 241.82178, " y="1611, ">
				The unit used for the start
		</text>
		<text fill="gray" font-size="9" font-family="Segoe UI" x="142, 146.5791, 151.67236, 156.97217, 159.4375, 164.14404, 169.2373, 174.53711, 177.00244, 180.05225, 182.23193, 189.98389, 194.69043, 198.50928, 201.55908, 206.13818, 213.89014, 219.18115, 223, 225.46533, " y="1623, ">
				and end timestamps -
		</text>
		<text fill="gray" font-size="9" font-family="Segoe UI" x="142, 146.70654, 150.8374, 156.12842, 159.25732, 163.96387, 167.78271, 171.60156, 176.30811, 181.60791, 184.07324, 189.36426, 193.71924, 196.18457, 200.76367, 203.229, 209.41211, 214.79541, 217.19043, 219.65576, 223.1626, 225.62793, 230.33447, 232.51416, 235.56396, 240.65723, 245.36377, " y="1635, ">
				expressed by a URI / either
		</text>
		<text fill="gray" font-size="9" font-family="Segoe UI" x="142, 145.0498, 150.14307, 154.84961, 157.31494, 160.36475, 162.54443, 170.29639, 175.00293, 180.09619, 185.18945, 187.36914, 190.41895, 192.88428, 198.15771, 201.28662, 203.75195, 206.80176, 211.89502, " y="1647, ">
				the timeunit or the
		</text>
		<text fill="gray" font-size="9" font-family="Segoe UI" x="142, 145.0498, 147.22949, 154.98145, 159.68799, 164.78125, 169.87451, 172.0542, 175.104, 180.19727, 183.32617, 185.50586, 187.97119, 192.55029, 195.6001, 198.6499, 201.77881, 203.9585, 209.24951, 214.34277, 217.39258, 222.09912, 224.56445, 232.646, 238.8291, 243.61035, 248.32568, 250.79102, 256.08203, " y="1659, ">
				timeunituri attribute MUST be
		</text>
		<text fill="gray" font-size="9" font-family="Segoe UI" x="142, 147.09326, 150.91211, 155.61865, " y="1671, ">
				used
		</text>
		<rect fill="white" x="146" y="1576" width="65" height="16"/>
		<text font-size="12" font-weight="600" font-family="Segoe UI" x="146, 150.66992, 154.08008, 165.07227, 171.56445, 178.82422, 186.08398, 189.49414, 194.16406, 201.42383, 206.24609, " y="1589, ">
				timeunituri
		</text>
		<rect fill="none" stroke="black" stroke-width="1" stroke-linecap="square" stroke-miterlimit="4" transform="translate(0.5 0.5)" x="137" y="1574" width="80" height="20"/>
		<rect fill="silver" x="141" y="1684" width="85" height="21"/>
		<rect fill="white" x="137" y="1680" width="85" height="21"/>
		<rect fill="white" x="142" y="1707" width="114" height="48"/>
		<text fill="gray" font-size="9" font-family="Segoe UI" x="142, 147.11963, 151.82617, 154.64307, 159.34961, 162.47852, 166.29736, 168.7627, 171.8125, 177.08594, 179.55127, 182.60107, 187.69434, 192.40088, 194.86621, 199.02344, 204.29688, 209.39014, 212.43994, 217.14648, 222.23975, " y="1717, ">
				Refers to the content
		</text>
		<text fill="gray" font-size="9" font-family="Segoe UI" x="142, 145.12891, 149.83545, 154.92871, 160.22852, 162.4082, 165.45801, 167.6377, 172.91113, 178.00439, 180.46973, 186.97363, 189.15332, 192.20312, 197.29639, 199.76172, 202.81152, 207.90479, 210.08447, 213.90332, 216.36865, 223.15381, 228.72607, 233.99951, 239.29932, 244.00586, 246.47119, 251.05029, " y="1729, ">
				rendition with this QCode as
		</text>
		<text fill="gray" font-size="9" font-family="Segoe UI" x="142, 145.12891, 149.83545, 154.92871, 160.22852, 162.4082, 165.45801, 167.6377, 172.91113, 178.00439, 180.46973, 185.04883, 188.09863, 191.14844, 194.27734, 196.45703, 201.74805, 206.84131, 209.89111, 214.59766, 217.06299, 221.37402, 225.95312, 228.13281, 233.22607, 237.93262, 240.39795, " y="1741, ">
				rendition attribute value -
		</text>
		<text fill="gray" font-size="9" font-family="Segoe UI" x="142, 146.70654, 150.8374, 156.12842, 159.25732, 163.96387, 167.78271, 171.60156, 176.30811, 181.60791, 184.07324, 189.36426, 193.71924, 196.18457, 200.76367, 203.229, 210.01416, 215.58643, 220.85986, 226.15967, " y="1753, ">
				expressed by a QCode
		</text>
		<rect fill="white" x="146" y="1682" width="69" height="16"/>
		<text font-size="12" font-weight="600" font-family="Segoe UI" x="146, 150.72852, 157.2207, 164.48047, 171.91016, 175.32031, 179.99023, 183.40039, 190.73633, 197.99609, 202.72461, 209.2168, " y="1695, ">
				renditionref
		</text>
		<rect fill="none" stroke="black" stroke-width="1" stroke-linecap="square" stroke-miterlimit="4" transform="translate(0.5 0.5)" x="137" y="1680" width="84" height="20"/>
		<rect fill="silver" x="141" y="1766" width="101" height="21"/>
		<rect fill="white" x="137" y="1762" width="101" height="21"/>
		<rect fill="white" x="142" y="1789" width="114" height="48"/>
		<text fill="gray" font-size="9" font-family="Segoe UI" x="142, 147.11963, 151.82617, 154.64307, 159.34961, 162.47852, 166.29736, 168.7627, 171.8125, 177.08594, 179.55127, 182.60107, 187.69434, 192.40088, 194.86621, 199.02344, 204.29688, 209.39014, 212.43994, 217.14648, 222.23975, " y="1799, ">
				Refers to the content
		</text>
		<text fill="gray" font-size="9" font-family="Segoe UI" x="142, 145.12891, 149.83545, 154.92871, 160.22852, 162.4082, 165.45801, 167.6377, 172.91113, 178.00439, 180.46973, 186.97363, 189.15332, 192.20312, 197.29639, 199.76172, 202.81152, 207.90479, 210.08447, 213.90332, 216.36865, 223.15381, 228.72607, 233.99951, 239.29932, 244.00586, 246.47119, 251.05029, " y="1811, ">
				rendition with this QCode as
		</text>
		<text fill="gray" font-size="9" font-family="Segoe UI" x="142, 145.12891, 149.83545, 154.92871, 160.22852, 162.4082, 165.45801, 167.6377, 172.91113, 178.00439, 180.46973, 185.04883, 188.09863, 191.14844, 194.27734, 196.45703, 201.74805, 206.84131, 209.89111, 214.59766, 217.06299, 221.37402, 225.95312, 228.13281, 233.22607, 237.93262, 240.39795, " y="1823, ">
				rendition attribute value -
		</text>
		<text fill="gray" font-size="9" font-family="Segoe UI" x="142, 146.70654, 150.8374, 156.12842, 159.25732, 163.96387, 167.78271, 171.60156, 176.30811, 181.60791, 184.07324, 189.36426, 193.71924, 196.18457, 200.76367, 203.229, 209.41211, 214.79541, " y="1835, ">
				expressed by a URI
		</text>
		<rect fill="white" x="146" y="1764" width="85" height="16"/>
		<text font-size="12" font-weight="600" font-family="Segoe UI" x="146, 150.72852, 157.2207, 164.48047, 171.91016, 175.32031, 179.99023, 183.40039, 190.73633, 197.99609, 202.72461, 209.2168, 213.81641, 221.07617, 225.89844, " y="1777, ">
				renditionrefuri
		</text>
		<rect fill="none" stroke="black" stroke-width="1" stroke-linecap="square" stroke-miterlimit="4" transform="translate(0.5 0.5)" x="137" y="1762" width="100" height="20"/>
		<path fill="silver" d="M141 1853L146 1848L214 1848L219 1853L219 1864L214 1869L146 1869L141 1864L141 1853Z"/>
		<path fill="white" d="M137 1849L142 1844L210 1844L215 1849L215 1860L210 1865L142 1865L137 1860L137 1849Z"/>
		<rect fill="white" x="164" y="1846" width="46" height="16"/>
		<text font-size="12" font-weight="600" font-family="Segoe UI" x="164, 171.10742, 178.21484, 185.55078, 190.2207, 197.44531, 203.9375, " y="1859, ">
				##other
		</text>
		<rect fill="white" x="142" y="1846" width="20" height="16"/>
		<text fill="gray" font-size="12" font-family="Segoe UI" x="142, 148.10547, 154.89648, " y="1859, ">
				any
		</text>
		<path fill="none" stroke="black" stroke-width="1" stroke-linecap="square" stroke-miterlimit="4" transform="translate(0.5 0.5)" d="M137 1849L142 1844L209 1844L214 1849L214 1859L209 1864L142 1864L137 1859L137 1849Z"/>
		<rect x="128" y="5" width="11" height="11"/>
		<rect fill="white" x="129" y="6" width="9" height="9"/>
		<rect x="130" y="10" width="7" height="1"/>
		<rect x="75" y="933" width="11" height="11"/>
		<rect fill="white" x="76" y="934" width="9" height="9"/>
		<rect x="77" y="938" width="7" height="1"/>
	</g>
</svg>
