<?xml version="1.0" encoding="utf-8" ?>
<svg xmlns="http://www.w3.org/2000/svg" xmlns:xlink="http://www.w3.org/1999/xlink" width="393" height="2591">
	<clipPath id="cl_48a">
		<rect x="-10" y="-5" width="393" height="2591"/>
	</clipPath>
	<g clip-path="url(#cl_48a)">
		<rect fill="#FFFFC0" x="136" width="237" height="2581"/>
		<rect fill="none" stroke="gray" stroke-width="1" stroke-linecap="square" stroke-miterlimit="4" transform="translate(0.5 0.5)" x="136" width="236" height="2580"/>
		<path fill="none" stroke="black" stroke-width="1" stroke-linecap="square" stroke-miterlimit="4" transform="translate(0.5 0.5)" d="M102 1757L148 1757"/>
		<path fill="none" stroke="black" stroke-width="1" stroke-linecap="square" stroke-miterlimit="4" transform="translate(0.5 0.5)" d="M149 1757L149 1086"/>
		<path transform="translate(0.5 0.5)" d="M149.5 1757L149.5 1759L149.5 1759.5L148.5 1759.5L148.5 1759L148.5 1756.5L149.5 1756.5L149.5 1757ZM149.5 1763L149.5 1765L149.5 1765.5L148.5 1765.5L148.5 1765L148.5 1762.5L149.5 1762.5L149.5 1763ZM149.5 1769L149.5 1771L149.5 1771.5L148.5 1771.5L148.5 1771L148.5 1768.5L149.5 1768.5L149.5 1769ZM149.5 1775L149.5 1777L149.5 1777.5L148.5 1777.5L148.5 1777L148.5 1774.5L149.5 1774.5L149.5 1775ZM149.5 1781L149.5 1783L149.5 1783.5L148.5 1783.5L148.5 1783L148.5 1780.5L149.5 1780.5L149.5 1781ZM149.5 1787L149.5 1789L149.5 1789.5L148.5 1789.5L148.5 1789L148.5 1786.5L149.5 1786.5L149.5 1787ZM149.5 1793L149.5 1795L149.5 1795.5L148.5 1795.5L148.5 1795L148.5 1792.5L149.5 1792.5L149.5 1793ZM149.5 1799L149.5 1801L149.5 1801.5L148.5 1801.5L148.5 1801L148.5 1798.5L149.5 1798.5L149.5 1799ZM149.5 1805L149.5 1807L149.5 1807.5L148.5 1807.5L148.5 1807L148.5 1804.5L149.5 1804.5L149.5 1805ZM149.5 1811L149.5 1813L149.5 1813.5L148.5 1813.5L148.5 1813L148.5 1810.5L149.5 1810.5L149.5 1811ZM149.5 1817L149.5 1819L149.5 1819.5L148.5 1819.5L148.5 1819L148.5 1816.5L149.5 1816.5L149.5 1817ZM149.5 1823L149.5 1825L149.5 1825.5L148.5 1825.5L148.5 1825L148.5 1822.5L149.5 1822.5L149.5 1823ZM149.5 1829L149.5 1831L149.5 1831.5L148.5 1831.5L148.5 1831L148.5 1828.5L149.5 1828.5L149.5 1829ZM149.5 1835L149.5 1837L149.5 1837.5L148.5 1837.5L148.5 1837L148.5 1834.5L149.5 1834.5L149.5 1835ZM149.5 1841L149.5 1843L149.5 1843.5L148.5 1843.5L148.5 1843L148.5 1840.5L149.5 1840.5L149.5 1841ZM149.5 1847L149.5 1849L149.5 1849.5L148.5 1849.5L148.5 1849L148.5 1846.5L149.5 1846.5L149.5 1847ZM149.5 1853L149.5 1855L149.5 1855.5L148.5 1855.5L148.5 1855L148.5 1852.5L149.5 1852.5L149.5 1853ZM149.5 1859L149.5 1861L149.5 1861.5L148.5 1861.5L148.5 1861L148.5 1858.5L149.5 1858.5L149.5 1859ZM149.5 1865L149.5 1867L149.5 1867.5L148.5 1867.5L148.5 1867L148.5 1864.5L149.5 1864.5L149.5 1865ZM149.5 1871L149.5 1873L149.5 1873.5L148.5 1873.5L148.5 1873L148.5 1870.5L149.5 1870.5L149.5 1871ZM149.5 1877L149.5 1879L149.5 1879.5L148.5 1879.5L148.5 1879L148.5 1876.5L149.5 1876.5L149.5 1877ZM149.5 1883L149.5 1885L149.5 1885.5L148.5 1885.5L148.5 1885L148.5 1882.5L149.5 1882.5L149.5 1883ZM149.5 1889L149.5 1891L149.5 1891.5L148.5 1891.5L148.5 1891L148.5 1888.5L149.5 1888.5L149.5 1889ZM149.5 1895L149.5 1897L149.5 1897.5L148.5 1897.5L148.5 1897L148.5 1894.5L149.5 1894.5L149.5 1895ZM149.5 1901L149.5 1903L149.5 1903.5L148.5 1903.5L148.5 1903L148.5 1900.5L149.5 1900.5L149.5 1901ZM149.5 1907L149.5 1909L149.5 1909.5L148.5 1909.5L148.5 1909L148.5 1906.5L149.5 1906.5L149.5 1907ZM149.5 1913L149.5 1915L149.5 1915.5L148.5 1915.5L148.5 1915L148.5 1912.5L149.5 1912.5L149.5 1913ZM149.5 1919L149.5 1921L149.5 1921.5L148.5 1921.5L148.5 1921L148.5 1918.5L149.5 1918.5L149.5 1919ZM149.5 1925L149.5 1927L149.5 1927.5L148.5 1927.5L148.5 1927L148.5 1924.5L149.5 1924.5L149.5 1925ZM149.5 1931L149.5 1933L149.5 1933.5L148.5 1933.5L148.5 1933L148.5 1930.5L149.5 1930.5L149.5 1931ZM149.5 1937L149.5 1939L149.5 1939.5L148.5 1939.5L148.5 1939L148.5 1936.5L149.5 1936.5L149.5 1937ZM149.5 1943L149.5 1945L149.5 1945.5L148.5 1945.5L148.5 1945L148.5 1942.5L149.5 1942.5L149.5 1943ZM149.5 1949L149.5 1951L149.5 1951.5L148.5 1951.5L148.5 1951L148.5 1948.5L149.5 1948.5L149.5 1949ZM149.5 1955L149.5 1957L149.5 1957.5L148.5 1957.5L148.5 1957L148.5 1954.5L149.5 1954.5L149.5 1955ZM149.5 1961L149.5 1963L149.5 1963.5L148.5 1963.5L148.5 1963L148.5 1960.5L149.5 1960.5L149.5 1961ZM149.5 1967L149.5 1969L149.5 1969.5L148.5 1969.5L148.5 1969L148.5 1966.5L149.5 1966.5L149.5 1967ZM149.5 1973L149.5 1975L149.5 1975.5L148.5 1975.5L148.5 1975L148.5 1972.5L149.5 1972.5L149.5 1973ZM149.5 1979L149.5 1981L149.5 1981.5L148.5 1981.5L148.5 1981L148.5 1978.5L149.5 1978.5L149.5 1979ZM149.5 1985L149.5 1987L149.5 1987.5L148.5 1987.5L148.5 1987L148.5 1984.5L149.5 1984.5L149.5 1985ZM149.5 1991L149.5 1993L149.5 1993.5L148.5 1993.5L148.5 1993L148.5 1990.5L149.5 1990.5L149.5 1991ZM149.5 1997L149.5 1999L149.5 1999.5L148.5 1999.5L148.5 1999L148.5 1996.5L149.5 1996.5L149.5 1997ZM149.5 2003L149.5 2005L149.5 2005.5L148.5 2005.5L148.5 2005L148.5 2002.5L149.5 2002.5L149.5 2003ZM149.5 2009L149.5 2011L149.5 2011.5L148.5 2011.5L148.5 2011L148.5 2008.5L149.5 2008.5L149.5 2009ZM149.5 2015L149.5 2017L149.5 2017.5L148.5 2017.5L148.5 2017L148.5 2014.5L149.5 2014.5L149.5 2015ZM149.5 2021L149.5 2023L149.5 2023.5L148.5 2023.5L148.5 2023L148.5 2020.5L149.5 2020.5L149.5 2021ZM149.5 2027L149.5 2029L149.5 2029.5L148.5 2029.5L148.5 2029L148.5 2026.5L149.5 2026.5L149.5 2027ZM149.5 2033L149.5 2035L149.5 2035.5L148.5 2035.5L148.5 2035L148.5 2032.5L149.5 2032.5L149.5 2033ZM149.5 2039L149.5 2041L149.5 2041.5L148.5 2041.5L148.5 2041L148.5 2038.5L149.5 2038.5L149.5 2039ZM149.5 2045L149.5 2047L149.5 2047.5L148.5 2047.5L148.5 2047L148.5 2044.5L149.5 2044.5L149.5 2045ZM149.5 2051L149.5 2053L149.5 2053.5L148.5 2053.5L148.5 2053L148.5 2050.5L149.5 2050.5L149.5 2051ZM149.5 2057L149.5 2059L149.5 2059.5L148.5 2059.5L148.5 2059L148.5 2056.5L149.5 2056.5L149.5 2057ZM149.5 2063L149.5 2065L149.5 2065.5L148.5 2065.5L148.5 2065L148.5 2062.5L149.5 2062.5L149.5 2063ZM149.5 2069L149.5 2071L149.5 2071.5L148.5 2071.5L148.5 2071L148.5 2068.5L149.5 2068.5L149.5 2069ZM149.5 2075L149.5 2077L149.5 2077.5L148.5 2077.5L148.5 2077L148.5 2074.5L149.5 2074.5L149.5 2075ZM149.5 2081L149.5 2083L149.5 2083.5L148.5 2083.5L148.5 2083L148.5 2080.5L149.5 2080.5L149.5 2081ZM149.5 2087L149.5 2089L149.5 2089.5L148.5 2089.5L148.5 2089L148.5 2086.5L149.5 2086.5L149.5 2087ZM149.5 2093L149.5 2095L149.5 2095.5L148.5 2095.5L148.5 2095L148.5 2092.5L149.5 2092.5L149.5 2093ZM149.5 2099L149.5 2101L149.5 2101.5L148.5 2101.5L148.5 2101L148.5 2098.5L149.5 2098.5L149.5 2099ZM149.5 2105L149.5 2107L149.5 2107.5L148.5 2107.5L148.5 2107L148.5 2104.5L149.5 2104.5L149.5 2105ZM149.5 2111L149.5 2113L149.5 2113.5L148.5 2113.5L148.5 2113L148.5 2110.5L149.5 2110.5L149.5 2111ZM149.5 2117L149.5 2119L149.5 2119.5L148.5 2119.5L148.5 2119L148.5 2116.5L149.5 2116.5L149.5 2117ZM149.5 2123L149.5 2125L149.5 2125.5L148.5 2125.5L148.5 2125L148.5 2122.5L149.5 2122.5L149.5 2123ZM149.5 2129L149.5 2131L149.5 2131.5L148.5 2131.5L148.5 2131L148.5 2128.5L149.5 2128.5L149.5 2129ZM149.5 2135L149.5 2137L149.5 2137.5L148.5 2137.5L148.5 2137L148.5 2134.5L149.5 2134.5L149.5 2135ZM149.5 2141L149.5 2143L149.5 2143.5L148.5 2143.5L148.5 2143L148.5 2140.5L149.5 2140.5L149.5 2141ZM149.5 2147L149.5 2149L149.5 2149.5L148.5 2149.5L148.5 2149L148.5 2146.5L149.5 2146.5L149.5 2147ZM149.5 2153L149.5 2155L149.5 2155.5L148.5 2155.5L148.5 2155L148.5 2152.5L149.5 2152.5L149.5 2153ZM149.5 2159L149.5 2161L149.5 2161.5L148.5 2161.5L148.5 2161L148.5 2158.5L149.5 2158.5L149.5 2159ZM149.5 2165L149.5 2167L149.5 2167.5L148.5 2167.5L148.5 2167L148.5 2164.5L149.5 2164.5L149.5 2165ZM149.5 2171L149.5 2173L149.5 2173.5L148.5 2173.5L148.5 2173L148.5 2170.5L149.5 2170.5L149.5 2171ZM149.5 2177L149.5 2179L149.5 2179.5L148.5 2179.5L148.5 2179L148.5 2176.5L149.5 2176.5L149.5 2177ZM149.5 2183L149.5 2185L149.5 2185.5L148.5 2185.5L148.5 2185L148.5 2182.5L149.5 2182.5L149.5 2183ZM149.5 2189L149.5 2191L149.5 2191.5L148.5 2191.5L148.5 2191L148.5 2188.5L149.5 2188.5L149.5 2189ZM149.5 2195L149.5 2197L149.5 2197.5L148.5 2197.5L148.5 2197L148.5 2194.5L149.5 2194.5L149.5 2195ZM149.5 2201L149.5 2203L149.5 2203.5L148.5 2203.5L148.5 2203L148.5 2200.5L149.5 2200.5L149.5 2201ZM149.5 2207L149.5 2209L149.5 2209.5L148.5 2209.5L148.5 2209L148.5 2206.5L149.5 2206.5L149.5 2207ZM149.5 2213L149.5 2215L149.5 2215.5L148.5 2215.5L148.5 2215L148.5 2212.5L149.5 2212.5L149.5 2213ZM149.5 2219L149.5 2221L149.5 2221.5L148.5 2221.5L148.5 2221L148.5 2218.5L149.5 2218.5L149.5 2219ZM149.5 2225L149.5 2227L149.5 2227.5L148.5 2227.5L148.5 2227L148.5 2224.5L149.5 2224.5L149.5 2225ZM149.5 2231L149.5 2233L149.5 2233.5L148.5 2233.5L148.5 2233L148.5 2230.5L149.5 2230.5L149.5 2231ZM149.5 2237L149.5 2239L149.5 2239.5L148.5 2239.5L148.5 2239L148.5 2236.5L149.5 2236.5L149.5 2237ZM149.5 2243L149.5 2245L149.5 2245.5L148.5 2245.5L148.5 2245L148.5 2242.5L149.5 2242.5L149.5 2243ZM149.5 2249L149.5 2251L149.5 2251.5L148.5 2251.5L148.5 2251L148.5 2248.5L149.5 2248.5L149.5 2249ZM149.5 2255L149.5 2257L149.5 2257.5L148.5 2257.5L148.5 2257L148.5 2254.5L149.5 2254.5L149.5 2255ZM149.5 2261L149.5 2263L149.5 2263.5L148.5 2263.5L148.5 2263L148.5 2260.5L149.5 2260.5L149.5 2261ZM149.5 2267L149.5 2269L149.5 2269.5L148.5 2269.5L148.5 2269L148.5 2266.5L149.5 2266.5L149.5 2267ZM149.5 2273L149.5 2275L149.5 2275.5L148.5 2275.5L148.5 2275L148.5 2272.5L149.5 2272.5L149.5 2273ZM149.5 2279L149.5 2281L149.5 2281.5L148.5 2281.5L148.5 2281L148.5 2278.5L149.5 2278.5L149.5 2279ZM149.5 2285L149.5 2287L149.5 2287.5L148.5 2287.5L148.5 2287L148.5 2284.5L149.5 2284.5L149.5 2285ZM149.5 2291L149.5 2293L149.5 2293.5L148.5 2293.5L148.5 2293L148.5 2290.5L149.5 2290.5L149.5 2291ZM149.5 2297L149.5 2299L149.5 2299.5L148.5 2299.5L148.5 2299L148.5 2296.5L149.5 2296.5L149.5 2297ZM149.5 2303L149.5 2305L149.5 2305.5L148.5 2305.5L148.5 2305L148.5 2302.5L149.5 2302.5L149.5 2303ZM149.5 2309L149.5 2311L149.5 2311.5L148.5 2311.5L148.5 2311L148.5 2308.5L149.5 2308.5L149.5 2309ZM149.5 2315L149.5 2317L149.5 2317.5L148.5 2317.5L148.5 2317L148.5 2314.5L149.5 2314.5L149.5 2315ZM149.5 2321L149.5 2323L149.5 2323.5L148.5 2323.5L148.5 2323L148.5 2320.5L149.5 2320.5L149.5 2321ZM149.5 2327L149.5 2329L149.5 2329.5L148.5 2329.5L148.5 2329L148.5 2326.5L149.5 2326.5L149.5 2327ZM149.5 2333L149.5 2335L149.5 2335.5L148.5 2335.5L148.5 2335L148.5 2332.5L149.5 2332.5L149.5 2333ZM149.5 2339L149.5 2341L149.5 2341.5L148.5 2341.5L148.5 2341L148.5 2338.5L149.5 2338.5L149.5 2339ZM149.5 2345L149.5 2347L149.5 2347.5L148.5 2347.5L148.5 2347L148.5 2344.5L149.5 2344.5L149.5 2345ZM149.5 2351L149.5 2353L149.5 2353.5L148.5 2353.5L148.5 2353L148.5 2350.5L149.5 2350.5L149.5 2351ZM149.5 2357L149.5 2359L149.5 2359.5L148.5 2359.5L148.5 2359L148.5 2356.5L149.5 2356.5L149.5 2357ZM149.5 2363L149.5 2365L149.5 2365.5L148.5 2365.5L148.5 2365L148.5 2362.5L149.5 2362.5L149.5 2363ZM149.5 2369L149.5 2371L149.5 2371.5L148.5 2371.5L148.5 2371L148.5 2368.5L149.5 2368.5L149.5 2369ZM149.5 2375L149.5 2377L149.5 2377.5L148.5 2377.5L148.5 2377L148.5 2374.5L149.5 2374.5L149.5 2375ZM149.5 2381L149.5 2383L149.5 2383.5L148.5 2383.5L148.5 2383L148.5 2380.5L149.5 2380.5L149.5 2381ZM149.5 2387L149.5 2389L149.5 2389.5L148.5 2389.5L148.5 2389L148.5 2386.5L149.5 2386.5L149.5 2387ZM149.5 2393L149.5 2395L149.5 2395.5L148.5 2395.5L148.5 2395L148.5 2392.5L149.5 2392.5L149.5 2393ZM149.5 2399L149.5 2401L149.5 2401.5L148.5 2401.5L148.5 2401L148.5 2398.5L149.5 2398.5L149.5 2399ZM149.5 2405L149.5 2407L149.5 2407.5L148.5 2407.5L148.5 2407L148.5 2404.5L149.5 2404.5L149.5 2405ZM149.5 2411L149.5 2413L149.5 2413.5L148.5 2413.5L148.5 2413L148.5 2410.5L149.5 2410.5L149.5 2411ZM149.5 2417L149.5 2419L149.5 2419.5L148.5 2419.5L148.5 2419L148.5 2416.5L149.5 2416.5L149.5 2417ZM149.5 2423L149.5 2425.5L148.5 2425.5L148.5 2422.5L149.5 2422.5L149.5 2423Z"/>
		<path transform="translate(0.5 0.5)" d="M149 2186.5L151 2186.5L151.5 2186.5L151.5 2187.5L151 2187.5L148.5 2187.5L148.5 2186.5L149 2186.5ZM155 2186.5L157 2186.5L157.5 2186.5L157.5 2187.5L157 2187.5L154.5 2187.5L154.5 2186.5L155 2186.5ZM161 2186.5L163.5 2186.5L163.5 2187.5L160.5 2187.5L160.5 2186.5L161 2186.5Z"/>
		<path transform="translate(0.5 0.5)" d="M149 2428.5L151 2428.5L151.5 2428.5L151.5 2429.5L151 2429.5L148.5 2429.5L148.5 2428.5L149 2428.5ZM155 2428.5L157 2428.5L157.5 2428.5L157.5 2429.5L157 2429.5L154.5 2429.5L154.5 2428.5L155 2428.5ZM161 2428.5L163.5 2428.5L163.5 2429.5L160.5 2429.5L160.5 2428.5L161 2428.5Z"/>
		<path fill="none" stroke="black" stroke-width="1" stroke-linecap="square" stroke-miterlimit="4" transform="translate(0.5 0.5)" d="M149 1085L163 1085"/>
		<rect fill="silver" x="4" y="1751" width="97" height="21"/>
		<rect fill="white" y="1747" width="97" height="21"/>
		<rect fill="#FFFFC0" x="144" y="8" width="117" height="16"/>
		<text fill="gray" font-size="12" font-weight="600" font-family="Segoe UI" x="144, 151.53516, 158.02734, 161.4375, 167.89453, 172.51758, 179.00977, 186.43945, 193.92773, 201.26367, 208.52344, 214.2832, 220.77539, 228.2168, 232.88672, 239.37891, 245.83594, 253.27734, " y="21, ">
				RelatedConceptType
		</text>
		<rect fill="white" x="5" y="1774" width="116" height="36"/>
		<text fill="gray" font-size="9" font-family="Segoe UI" x="5, 9.715332, 14.808594, 19.515137, 21.980469, 26.137695, 31.411133, 36.504395, 40.661621, 45.368164, 50.65918, 53.708984, 56.174316, 62.678223, 67.771484, 69.951172, 74.108398, 79.20166, 81.666992, 83.84668, 87.665527, 90.130859, 92.947754, 97.526855, 101.68408, 106.39062, 109.44043, 114.14697, " y="1784, ">
				The concept which is faceted
		</text>
		<text fill="gray" font-size="9" font-family="Segoe UI" x="5, 10.291016, 14.645996, 17.111328, 22.384766, 25.43457, 30.527832, 35.234375, 38.363281, 40.828613, 44.98584, 50.259277, 55.352539, 59.509766, 64.216309, 69.507324, 72.557129, 75.272949, 79.091797, 81.807617, 84.272949, 88.852051, 92.670898, 96.489746, 101.19629, 104.3252, 107.375, 112.08154, " y="1796, ">
				by other concept(s) asserted
		</text>
		<text fill="gray" font-size="9" font-family="Segoe UI" x="5, 10.291016, 14.645996, 17.111328, 19.928223, 24.507324, 28.664551, 33.371094, 36.420898, 41.993164, 47.266602, 52.359863, 56.51709, 61.223633, 66.514648, " y="1808, ">
				by facetConcept
		</text>
		<rect fill="white" x="9" y="1749" width="76" height="16"/>
		<text font-size="12" font-weight="600" font-family="Segoe UI" x="9, 19.992188, 26.449219, 29.859375, 37.119141, 44.607422, 51.943359, 59.203125, 64.962891, 71.455078, 78.896484, " y="1762, ">
				mainConcept
		</text>
		<rect fill="none" stroke="black" stroke-width="1" stroke-linecap="square" stroke-miterlimit="4" transform="translate(0.5 0.5)" y="1747" width="96" height="20"/>
		<path fill="white" d="M241 55L241 36L164 36L164 55L164 2133L311 2133L311 55L241 55Z"/>
		<rect fill="white" x="184" y="38" width="51" height="16"/>
		<text font-size="12" font-style="italic" font-family="Segoe UI" x="184, 190.50391, 194.38281, 198.26172, 202.5332, 205.63867, 212.14258, 218.83984, 222.73047, 228.57227, " y="51, ">
				attributes
		</text>
		<path fill="none" stroke="black" stroke-width="1" stroke-linecap="square" stroke-miterlimit="4" transform="translate(0.5 0.5)" d="M241 55L241 36L164 36L164 55L164 2133L311 2133L311 55L241 55Z"/>
		<rect fill="silver" x="182" y="68" width="52" height="21"/>
		<rect fill="white" x="178" y="64" width="52" height="21"/>
		<rect fill="white" x="183" y="91" width="101" height="24"/>
		<text fill="gray" font-size="9" font-family="Segoe UI" x="183, 187.71533, 192.80859, 197.51514, 199.98047, 202.16016, 207.43359, 211.59082, 216.16992, 218.34961, 220.81494, 222.99463, 228.29443, 233.00098, 238.09424, 241.14404, 243.32373, 246.14062, 248.32031, 253.02686, 256.15576, 258.62109, 263.89453, 266.71143, 269.17676, 272.22656, 277.31982, " y="101, ">
				The local identifier of the
		</text>
		<text fill="gray" font-size="9" font-family="Segoe UI" x="183, 188.29102, 191.41992, 196.69336, 201.98438, 206.69092, 209.81982, 212.86963, 217.22461, " y="113, ">
				property.
		</text>
		<rect fill="white" x="187" y="66" width="36" height="16"/>
		<text font-size="12" font-weight="600" font-family="Segoe UI" x="187, 190.41016, " y="79, ">
				id
		</text>
		<rect fill="none" stroke="black" stroke-width="1" stroke-linecap="square" stroke-miterlimit="4" transform="translate(0.5 0.5)" x="178" y="64" width="51" height="20"/>
		<rect fill="silver" x="182" y="126" width="58" height="21"/>
		<rect fill="white" x="178" y="122" width="58" height="21"/>
		<rect fill="white" x="183" y="149" width="121" height="120"/>
		<text fill="gray" font-size="9" font-family="Segoe UI" x="183, 185.39502, 188.21191, 190.67725, 193.72705, 198.82031, 203.52686, 205.99219, 211.2832, 214.41211, 219.68555, 224.97656, 229.68311, 232.81201, 235.86182, 240.2168, 242.68213, 246.99316, 251.57227, 253.75195, 258.84521, 263.55176, 266.01709, 268.19678, 272.01562, 274.48096, 279.57422, 284.84766, " y="159, ">
				If the property value is not
		</text>
		<text fill="gray" font-size="9" font-family="Segoe UI" x="183, 188.2998, 193.00635, 195.82324, 198.00293, 203.09619, 207.80273, 213.10254, 215.05371, 217.51904, 221.33789, 226.62891, 231.33545, 235.49268, 237.67236, 240.48926, 242.66895, 247.37549, 251.19434, 253.65967, 260.16357, 265.25684, 267.43652, 271.59375, 276.68701, 279.15234, 283.85889, 288.95215, 292.00195, 294.18164, 297.23145, " y="171, ">
				defined, specifies which entity
		</text>
		<text fill="gray" font-size="9" font-family="Segoe UI" x="183, 185.71582, 191.00684, 195.71338, 198.84229, 202.66113, 207.93457, 213.02783, 214.979, 217.44434, 222.71777, 225.84668, 231.14648, 235.72559, 240.81885, 242.99854, 246.81738, 251.39648, 254.44629, 256.62598, 261.89941, 266.99268, 269.45801, 274.73145, " y="183, ">
				(person, organisation or
		</text>
		<text fill="gray" font-size="9" font-family="Segoe UI" x="183, 186.81885, 191.17383, 194.99268, 198.04248, 202.74902, 210.50098, 213.2168, 215.68213, 222.18604, 224.36572, 226.54541, 228.7251, 231.19043, 235.89697, 241.19678, 243.37646, 246.42627, 248.8916, 251.94141, 257.03467, 261.74121, 264.20654, 269.49756, 272.62646, 277.8999, 283.19092, 287.89746, 291.02637, 294.07617, " y="195, ">
				system) will edit the property
		</text>
		<text fill="gray" font-size="9" font-family="Segoe UI" x="183, 187.31104, 191.89014, 194.06982, 199.16309, 203.86963, 206.33496, 209.93408, 212.39941, 217.10596, 221.23682, 226.52783, 229.65674, 234.36328, 238.18213, 242.00098, 246.70752, 252.00732, 254.47266, 259.76367, 264.11865, 266.58398, 271.16309, 273.62842, 280.41357, 285.98584, 291.25928, 296.55908, 301.26562, " y="207, ">
				value - expressed by a QCode.
		</text>
		<text fill="gray" font-size="9" font-family="Segoe UI" x="183, 185.39502, 188.21191, 190.67725, 193.72705, 198.82031, 203.52686, 205.99219, 211.2832, 214.41211, 219.68555, 224.97656, 229.68311, 232.81201, 235.86182, 240.2168, 242.68213, 246.99316, 251.57227, 253.75195, 258.84521, 263.55176, 266.01709, 268.19678, " y="219, ">
				If the property value is
		</text>
		<text fill="gray" font-size="9" font-family="Segoe UI" x="183, 188.2998, 193.00635, 195.82324, 198.00293, 203.09619, 207.80273, 213.10254, 215.05371, 217.51904, 221.33789, 226.62891, 231.33545, 235.49268, 237.67236, 240.48926, 242.66895, 247.37549, 251.19434, 253.65967, 260.16357, 265.25684, 267.43652, 271.59375, 276.68701, 279.15234, 283.85889, 288.95215, 292.00195, 294.18164, 297.23145, " y="231, ">
				defined, specifies which entity
		</text>
		<text fill="gray" font-size="9" font-family="Segoe UI" x="183, 185.71582, 191.00684, 195.71338, 198.84229, 202.66113, 207.93457, 213.02783, 214.979, 217.44434, 222.71777, 225.84668, 231.14648, 235.72559, 240.81885, 242.99854, 246.81738, 251.39648, 254.44629, 256.62598, 261.89941, 266.99268, 269.45801, 274.73145, " y="243, ">
				(person, organisation or
		</text>
		<text fill="gray" font-size="9" font-family="Segoe UI" x="183, 186.81885, 191.17383, 194.99268, 198.04248, 202.74902, 210.50098, 213.2168, 215.68213, 220.77539, 225.35449, 229.17334, 231.63867, 236.34521, 241.64502, 243.82471, 246.87451, 251.58105, 256.88086, 259.34619, 262.396, 267.48926, " y="255, ">
				system) has edited the
		</text>
		<text fill="gray" font-size="9" font-family="Segoe UI" x="183, 188.29102, 191.41992, 196.69336, 201.98438, 206.69092, 209.81982, 212.86963, 217.22461, 219.68994, 224.00098, 228.58008, 230.75977, 235.85303, 240.55957, " y="267, ">
				property value.
		</text>
		<rect fill="white" x="187" y="124" width="42" height="16"/>
		<text font-size="12" font-weight="600" font-family="Segoe UI" x="187, 192.75977, 197.48828, 203.98047, 210.4375, 215.06055, 222.39648, " y="137, ">
				creator
		</text>
		<rect fill="none" stroke="black" stroke-width="1" stroke-linecap="square" stroke-miterlimit="4" transform="translate(0.5 0.5)" x="178" y="122" width="57" height="20"/>
		<rect fill="silver" x="182" y="280" width="73" height="21"/>
		<rect fill="white" x="178" y="276" width="73" height="21"/>
		<rect fill="white" x="183" y="303" width="120" height="108"/>
		<text fill="gray" font-size="9" font-family="Segoe UI" x="183, 185.39502, 188.21191, 190.67725, 193.72705, 198.82031, 203.52686, 205.99219, 211.2832, 214.41211, 219.68555, 224.97656, 229.68311, 232.81201, 235.86182, 240.2168, 242.68213, 246.99316, 251.57227, 253.75195, 258.84521, 263.55176, 266.01709, 268.19678, 272.01562, 274.48096, 279.57422, 284.84766, " y="313, ">
				If the property value is not
		</text>
		<text fill="gray" font-size="9" font-family="Segoe UI" x="183, 188.2998, 193.00635, 195.82324, 198.00293, 203.09619, 207.80273, 213.10254, 215.05371, 217.51904, 221.33789, 226.62891, 231.33545, 235.49268, 237.67236, 240.48926, 242.66895, 247.37549, 251.19434, 253.65967, 260.16357, 265.25684, 267.43652, 271.59375, 276.68701, 279.15234, 283.85889, 288.95215, 292.00195, 294.18164, 297.23145, " y="325, ">
				defined, specifies which entity
		</text>
		<text fill="gray" font-size="9" font-family="Segoe UI" x="183, 185.71582, 191.00684, 195.71338, 198.84229, 202.66113, 207.93457, 213.02783, 214.979, 217.44434, 222.71777, 225.84668, 231.14648, 235.72559, 240.81885, 242.99854, 246.81738, 251.39648, 254.44629, 256.62598, 261.89941, 266.99268, 269.45801, 274.73145, " y="337, ">
				(person, organisation or
		</text>
		<text fill="gray" font-size="9" font-family="Segoe UI" x="183, 186.81885, 191.17383, 194.99268, 198.04248, 202.74902, 210.50098, 213.2168, 215.68213, 222.18604, 224.36572, 226.54541, 228.7251, 231.19043, 235.89697, 241.19678, 243.37646, 246.42627, 248.8916, 251.94141, 257.03467, 261.74121, 264.20654, 269.49756, 272.62646, 277.8999, 283.19092, 287.89746, 291.02637, 294.07617, " y="349, ">
				system) will edit the property
		</text>
		<text fill="gray" font-size="9" font-family="Segoe UI" x="183, 186.59912, 189.06445, 193.771, 197.90186, 203.19287, 206.32178, 211.02832, 214.84717, 218.66602, 223.37256, 228.67236, 231.1377, 236.42871, 240.78369, 243.24902, 247.82812, 250.29346, 256.47656, 261.85986, 264.25488, 266.20605, 268.67139, 271.06641, 273.8833, 276.34863, 279.39844, 284.4917, " y="361, ">
				- expressed by a URI. If the
		</text>
		<text fill="gray" font-size="9" font-family="Segoe UI" x="183, 188.29102, 191.41992, 196.69336, 201.98438, 206.69092, 209.81982, 212.86963, 217.22461, 219.68994, 224.00098, 228.58008, 230.75977, 235.85303, 240.55957, 243.0249, 245.20459, 249.02344, 251.48877, 256.78857, 261.49512, 264.31201, 266.4917, 271.58496, 276.2915, 281.59131, " y="373, ">
				property value is defined,
		</text>
		<text fill="gray" font-size="9" font-family="Segoe UI" x="183, 186.81885, 192.10986, 196.81641, 200.97363, 203.15332, 205.97021, 208.1499, 212.85645, 216.67529, 219.14062, 225.64453, 230.73779, 232.91748, 237.07471, 242.16797, 244.6333, 249.33984, 254.43311, 257.48291, 259.6626, 262.7124, 267.06738, 269.53271, 272.24854, 277.53955, 282.24609, 285.375, 289.19385, 294.46729, 299.56055, " y="385, ">
				specifies which entity (person,
		</text>
		<text fill="gray" font-size="9" font-family="Segoe UI" x="183, 188.27344, 191.40234, 196.70215, 201.28125, 206.37451, 208.5542, 212.37305, 216.95215, 220.00195, 222.18164, 227.45508, 232.54834, 235.01367, 240.28711, 243.41602, 245.88135, 249.7002, 254.05518, 257.87402, 260.92383, 265.63037, 273.38232, 276.09814, 278.56348, 283.65674, 288.23584, " y="397, ">
				organisation or system) has
		</text>
		<text fill="gray" font-size="9" font-family="Segoe UI" x="183, 187.70654, 193.00635, 195.18604, 198.23584, 202.94238, 208.24219, 210.70752, 213.75732, 218.85059, 223.55713, 226.02246, 231.31348, 234.44238, 239.71582, 245.00684, 249.71338, 252.84229, 255.89209, 260.24707, " y="409, ">
				edited the property.
		</text>
		<rect fill="white" x="187" y="278" width="57" height="16"/>
		<text font-size="12" font-weight="600" font-family="Segoe UI" x="187, 192.75977, 197.48828, 203.98047, 210.4375, 215.06055, 222.39648, 227.20703, 234.4668, 239.28906, " y="291, ">
				creatoruri
		</text>
		<rect fill="none" stroke="black" stroke-width="1" stroke-linecap="square" stroke-miterlimit="4" transform="translate(0.5 0.5)" x="178" y="276" width="72" height="20"/>
		<rect fill="silver" x="182" y="422" width="69" height="21"/>
		<rect fill="white" x="178" y="418" width="69" height="21"/>
		<rect fill="white" x="183" y="445" width="119" height="72"/>
		<text fill="gray" font-size="9" font-family="Segoe UI" x="183, 187.71533, 192.80859, 197.51514, 199.98047, 205.28027, 209.85938, 212.90918, 217.61572, 220.08105, 222.79688, 227.37598, 232.46924, 237.76904, 239.72021, 242.18555, 247.45898, 252.75, 255.7998, 257.97949, 263.25293, 268.34619, 272.92529, 275.10498, 277.28467, 281.63965, 283.59082, 286.05615, 289.10596, 294.19922, " y="455, ">
				The date (and, optionally, the
		</text>
		<text fill="gray" font-size="9" font-family="Segoe UI" x="183, 186.0498, 188.22949, 195.98145, 200.68799, 203.40381, 205.86914, 212.37305, 217.46631, 222.17285, 227.26611, 229.73145, 232.78125, 237.87451, 242.58105, 245.04639, 250.3374, 253.46631, 258.73975, 264.03076, 268.7373, 271.86621, 274.91602, 279.271, 281.73633, 288.24023, 292.81934, " y="467, ">
				time) when the property was
		</text>
		<text fill="gray" font-size="9" font-family="Segoe UI" x="183, 185.17969, 189.75879, 193.57764, 196.62744, 199.09277, 206.84473, 212.11816, 217.41797, 219.59766, 222.41455, 224.59424, 229.30078, 234.60059, 236.55176, 239.01709, 243.73242, 248.82568, 253.53223, 255.99756, 258.17725, 263.27051, 265.4502, 268.5, 270.67969, 275.25879, 277.43848, 279.90381, 284.21484, 288.79395, 290.97363, 296.06689, " y="479, ">
				last modified. The initial value
		</text>
		<text fill="gray" font-size="9" font-family="Segoe UI" x="183, 185.17969, 188.99854, 191.46387, 194.51367, 199.60693, 204.31348, 206.77881, 212.07861, 216.65771, 219.70752, 224.41406, 226.87939, 229.59521, 234.17432, 239.26758, 244.56738, 246.51855, 248.98389, 254.25732, 259.54834, 262.59814, 264.77783, 270.05127, 275.14453, 279.72363, 281.90332, 284.08301, 288.43799, " y="491, ">
				is the date (and, optionally,
		</text>
		<text fill="gray" font-size="9" font-family="Segoe UI" x="183, 186.0498, 191.14307, 195.84961, 198.31494, 201.36475, 203.54443, 211.29639, 216.00293, 218.71875, 221.18408, 226.45752, 229.27441, 231.73975, 235.89697, 239.02588, 243.73242, 248.31152, 251.36133, 253.54102, 258.81445, 263.90771, 266.37305, 271.64648, 274.46338, 276.92871, 279.97852, 285.07178, " y="503, ">
				the time) of creation of the
		</text>
		<text fill="gray" font-size="9" font-family="Segoe UI" x="183, 188.29102, 191.41992, 196.69336, 201.98438, 206.69092, 209.81982, 212.86963, 217.22461, " y="515, ">
				property.
		</text>
		<rect fill="white" x="187" y="420" width="53" height="16"/>
		<text font-size="12" font-weight="600" font-family="Segoe UI" x="187, 197.99219, 205.32812, 212.75781, 216.16797, 220.76758, 224.17773, 230.66992, " y="433, ">
				modified
		</text>
		<rect fill="none" stroke="black" stroke-width="1" stroke-linecap="square" stroke-miterlimit="4" transform="translate(0.5 0.5)" x="178" y="418" width="68" height="20"/>
		<rect fill="silver" x="182" y="528" width="59" height="21"/>
		<rect fill="white" x="178" y="524" width="59" height="21"/>
		<rect fill="white" x="183" y="551" width="118" height="108"/>
		<text fill="gray" font-size="9" font-family="Segoe UI" x="183, 185.39502, 188.21191, 190.67725, 194.49609, 199.20264, 202.25244, 204.71777, 207.76758, 213.04102, 215.50635, 218.55615, 221.68506, 226.77832, 231.48486, 233.9502, 237, 242.09326, " y="561, ">
				If set to true the
		</text>
		<text fill="gray" font-size="9" font-family="Segoe UI" x="183, 187.15723, 192.43066, 195.55957, 198.68848, 203.39502, 207.21387, 212.50488, 217.77832, 222.87158, 228.17139, 230.35107, 235.44434, 240.74414, 243.20947, 248.50049, 251.62939, 256.90283, 262.19385, 266.90039, 270.0293, 273.0791, 277.43408, 279.89941, 286.40332, 290.98242, " y="573, ">
				corresponding property was
		</text>
		<text fill="gray" font-size="9" font-family="Segoe UI" x="183, 187.5791, 192.87891, 198.17871, 202.88525, 208.18506, 210.65039, 213.7002, 218.97363, 221.43896, 224.48877, 229.58203, 234.28857, 236.75391, 242.92822, 247.77979, 250.24512, 252.64014, 255.68994, 260.39648, 268.14844, 270.61377, 273.43066, 278.7041, 281.83301, 284.29834, " y="585, ">
				added to the G2 Item for a
		</text>
		<text fill="gray" font-size="9" font-family="Segoe UI" x="183, 186.81885, 192.10986, 196.81641, 200.97363, 203.15332, 205.97021, 208.1499, 212.30713, 214.77246, 218.92969, 224.02295, 227.8418, 230.8916, 236.16504, 243.91699, 248.62354, 251.75244, 254.21777, 259.49121, 262.62012, 265.08545, 270.38525, 273.51416, 278.7876, 283.88086, 289.17188, 291.63721, 296.91064, " y="597, ">
				specific customer or group of
		</text>
		<text fill="gray" font-size="9" font-family="Segoe UI" x="183, 187.15723, 192.25049, 196.06934, 199.11914, 204.39258, 212.14453, 216.85107, 219.97998, 223.79883, 226.26416, 231.5376, 236.63086, 238.81055, 243.16553, 245.1167, 247.58203, 252.29736, 257.39062, 262.09717, 264.5625, 269.8623, 274.56885, 277.38574, 281.96484, 287.05811, 289.23779, " y="609, ">
				customers only. The default
		</text>
		<text fill="gray" font-size="9" font-family="Segoe UI" x="183, 187.31104, 191.89014, 194.06982, 199.16309, 203.86963, 206.33496, 211.6084, 214.42529, 216.89062, 219.94043, 225.03369, 227.21338, 231.03223, 233.49756, 238.78857, 241.91748, 247.19092, 252.48193, 257.18848, 260.31738, 263.36719, 267.72217, 270.1875, 272.36719, 276.18604, 278.65137, 281.46826, 286.04736, 288.22705, 292.0459, " y="621, ">
				value of this property is false
		</text>
		<text fill="gray" font-size="9" font-family="Segoe UI" x="183, 189.50391, 194.59717, 196.77686, 200.93408, 206.02734, 208.49268, 213.07178, 218.36279, 223.65381, 225.8335, 228.01318, 232.71973, 236.53857, 239.00391, 245.50781, 250.60107, 255.30762, 260.40088, 262.86621, 265.91602, 271.00928, 273.18896, " y="633, ">
				which applies when this
		</text>
		<text fill="gray" font-size="9" font-family="Segoe UI" x="183, 187.5791, 190.62891, 193.67871, 196.80762, 198.9873, 204.27832, 209.37158, 212.42139, 217.12793, 219.59326, 221.77295, 225.5918, 228.05713, 233.15039, 238.42383, 241.47363, 243.93896, 249.03223, 252.85107, 257.55762, 262.85742, 265.32275, 271.82666, 274.00635, 277.05615, 282.14941, 284.61475, 287.66455, 292.75781, " y="645, ">
				attribute is not used with the
		</text>
		<text fill="gray" font-size="9" font-family="Segoe UI" x="183, 188.29102, 191.41992, 196.69336, 201.98438, 206.69092, 209.81982, 212.86963, 217.22461, " y="657, ">
				property.
		</text>
		<rect fill="white" x="187" y="526" width="43" height="16"/>
		<text font-size="12" font-weight="600" font-family="Segoe UI" x="187, 192.75977, 200.01953, 205.29883, 209.92188, 217.25781, " y="539, ">
				custom
		</text>
		<rect fill="none" stroke="black" stroke-width="1" stroke-linecap="square" stroke-miterlimit="4" transform="translate(0.5 0.5)" x="178" y="524" width="58" height="20"/>
		<rect fill="silver" x="182" y="670" width="52" height="21"/>
		<rect fill="white" x="178" y="666" width="52" height="21"/>
		<rect fill="white" x="183" y="693" width="118" height="48"/>
		<text fill="gray" font-size="9" font-family="Segoe UI" x="183, 185.39502, 190.48828, 195.78809, 197.96777, 202.125, 206.7041, 209.75391, 214.46045, 218.2793, 220.74463, 226.03564, 230.39062, 232.85596, 239.35986, 244.45312, 246.63281, 250.79004, 255.8833, 258.34863, 266.10059, 270.80713, 275.38623, 280.47949, 284.29834, 286.76367, 289.81348, 294.90674, " y="703, ">
				Indicates by which means the
		</text>
		<text fill="gray" font-size="9" font-family="Segoe UI" x="183, 187.31104, 191.89014, 194.06982, 199.16309, 203.86963, 206.33496, 212.83887, 217.41797, 221.23682, 223.70215, 228.40869, 232.53955, 235.58936, 238.71826, 243.29736, 247.45459, 250.50439, 255.21094, 260.51074, 262.97607, 265.79297, 268.92188, 274.19531, 281.94727, 284.4126, 287.4624, 292.55566, " y="715, ">
				value was extracted from the
		</text>
		<text fill="gray" font-size="9" font-family="Segoe UI" x="183, 187.15723, 192.43066, 197.52393, 200.57373, 205.28027, 210.37354, 213.42334, 215.88867, 219.48779, 221.95312, 226.65967, 230.79053, 236.08154, 239.21045, 243.91699, 247.73584, 251.55469, 256.26123, 261.56104, 264.02637, 269.31738, 273.67236, 276.1377, " y="727, ">
				content - expressed by a
		</text>
		<text fill="gray" font-size="9" font-family="Segoe UI" x="183, 189.78516, 195.35742, 200.63086, 205.93066, " y="739, ">
				QCode
		</text>
		<rect fill="white" x="187" y="668" width="36" height="16"/>
		<text font-size="12" font-weight="600" font-family="Segoe UI" x="187, 194.22461, 201.56055, " y="681, ">
				how
		</text>
		<rect fill="none" stroke="black" stroke-width="1" stroke-linecap="square" stroke-miterlimit="4" transform="translate(0.5 0.5)" x="178" y="666" width="51" height="20"/>
		<rect fill="silver" x="182" y="752" width="57" height="21"/>
		<rect fill="white" x="178" y="748" width="57" height="21"/>
		<rect fill="white" x="183" y="775" width="118" height="36"/>
		<text fill="gray" font-size="9" font-family="Segoe UI" x="183, 185.39502, 190.48828, 195.78809, 197.96777, 202.125, 206.7041, 209.75391, 214.46045, 218.2793, 220.74463, 226.03564, 230.39062, 232.85596, 239.35986, 244.45312, 246.63281, 250.79004, 255.8833, 258.34863, 266.10059, 270.80713, 275.38623, 280.47949, 284.29834, 286.76367, 289.81348, 294.90674, " y="785, ">
				Indicates by which means the
		</text>
		<text fill="gray" font-size="9" font-family="Segoe UI" x="183, 187.31104, 191.89014, 194.06982, 199.16309, 203.86963, 206.33496, 212.83887, 217.41797, 221.23682, 223.70215, 228.40869, 232.53955, 235.58936, 238.71826, 243.29736, 247.45459, 250.50439, 255.21094, 260.51074, 262.97607, 265.79297, 268.92188, 274.19531, 281.94727, 284.4126, 287.4624, 292.55566, " y="797, ">
				value was extracted from the
		</text>
		<text fill="gray" font-size="9" font-family="Segoe UI" x="183, 187.15723, 192.43066, 197.52393, 200.57373, 205.28027, 210.37354, 213.42334, 215.88867, 219.48779, 221.95312, 226.65967, 230.79053, 236.08154, 239.21045, 243.91699, 247.73584, 251.55469, 256.26123, 261.56104, 264.02637, 269.31738, 273.67236, 276.1377, 280.7168, 283.18213, 289.36523, 294.74854, " y="809, ">
				content - expressed by a URI
		</text>
		<rect fill="white" x="187" y="750" width="41" height="16"/>
		<text font-size="12" font-weight="600" font-family="Segoe UI" x="187, 194.22461, 201.56055, 211.12891, 218.38867, 223.21094, " y="763, ">
				howuri
		</text>
		<rect fill="none" stroke="black" stroke-width="1" stroke-linecap="square" stroke-miterlimit="4" transform="translate(0.5 0.5)" x="178" y="748" width="56" height="20"/>
		<rect fill="silver" x="182" y="822" width="52" height="21"/>
		<rect fill="white" x="178" y="818" width="52" height="21"/>
		<rect fill="white" x="183" y="845" width="113" height="36"/>
		<text fill="gray" font-size="9" font-family="Segoe UI" x="183, 191.40674, 196.5, 200.85498, 203.32031, 206.37012, 211.46338, 216.16992, 218.63525, 226.38721, 231.09375, 234.14355, 238.72266, 244.02246, 248.60156, 251.65137, 256.23047, 258.6958, 263.78906, 268.36816, 272.18701, 274.65234, 279.94336, 284.6499, 289.35645, " y="855, ">
				Why the metadata has been
		</text>
		<text fill="gray" font-size="9" font-family="Segoe UI" x="183, 185.17969, 190.27295, 194.43018, 196.60986, 201.70312, 207.00293, 211.70947, 217.00928, 219.47461, 223.07373, 225.53906, 230.24561, 234.37646, 239.66748, 242.79639, 247.50293, 251.32178, 255.14062, 259.84717, 265.14697, 267.6123, 272.90332, 277.2583, 279.72363, " y="867, ">
				included - expressed by a
		</text>
		<text fill="gray" font-size="9" font-family="Segoe UI" x="183, 189.78516, 195.35742, 200.63086, 205.93066, " y="879, ">
				QCode
		</text>
		<rect fill="white" x="187" y="820" width="36" height="16"/>
		<text font-size="12" font-weight="600" font-family="Segoe UI" x="187, 196.56836, 203.79297, " y="833, ">
				why
		</text>
		<rect fill="none" stroke="black" stroke-width="1" stroke-linecap="square" stroke-miterlimit="4" transform="translate(0.5 0.5)" x="178" y="818" width="51" height="20"/>
		<rect fill="silver" x="182" y="892" width="56" height="21"/>
		<rect fill="white" x="178" y="888" width="56" height="21"/>
		<rect fill="white" x="183" y="915" width="119" height="24"/>
		<text fill="gray" font-size="9" font-family="Segoe UI" x="183, 191.40674, 196.5, 200.85498, 203.32031, 206.37012, 211.46338, 216.16992, 218.63525, 226.38721, 231.09375, 234.14355, 238.72266, 244.02246, 248.60156, 251.65137, 256.23047, 258.6958, 263.78906, 268.36816, 272.18701, 274.65234, 279.94336, 284.6499, 289.35645, " y="925, ">
				Why the metadata has been
		</text>
		<text fill="gray" font-size="9" font-family="Segoe UI" x="183, 185.17969, 190.27295, 194.43018, 196.60986, 201.70312, 207.00293, 211.70947, 217.00928, 219.47461, 223.07373, 225.53906, 230.24561, 234.37646, 239.66748, 242.79639, 247.50293, 251.32178, 255.14062, 259.84717, 265.14697, 267.6123, 272.90332, 277.2583, 279.72363, 284.30273, 286.76807, 292.95117, 298.33447, " y="937, ">
				included - expressed by a URI
		</text>
		<rect fill="white" x="187" y="890" width="40" height="16"/>
		<text font-size="12" font-weight="600" font-family="Segoe UI" x="187, 196.56836, 203.79297, 210.25, 217.50977, 222.33203, " y="903, ">
				whyuri
		</text>
		<rect fill="none" stroke="black" stroke-width="1" stroke-linecap="square" stroke-miterlimit="4" transform="translate(0.5 0.5)" x="178" y="888" width="55" height="20"/>
		<rect fill="silver" x="182" y="950" width="97" height="21"/>
		<rect fill="white" x="178" y="946" width="97" height="21"/>
		<rect fill="white" x="183" y="973" width="117" height="72"/>
		<text fill="gray" font-size="9" font-family="Segoe UI" x="183, 189.78516, 194.87842, 199.58496, 202.05029, 207.32373, 210.45264, 212.91797, 220.66992, 225.24902, 230.34229, 234.69727, 237.1626, 241.31982, 246.59326, 251.68652, 255.50537, 258.55518, 261.68408, 266.26318, 268.44287, 273.53613, 276.58594, 280.40479, 282.87012, 285.91992, 291.01318, 295.59229, " y="983, ">
				One or many constraints that
		</text>
		<text fill="gray" font-size="9" font-family="Segoe UI" x="183, 187.5791, 192.87012, 198.16113, 200.34082, 204.6958, 207.16113, 210.21094, 215.48438, 217.94971, 223.24072, 228.33398, 233.625, 235.80469, 237.98438, 241.80322, 246.89648, 249.07617, 254.16943, 259.46924, 261.93457, 264.98438, 270.07764, 274.78418, 277.24951, 281.56055, 286.13965, 288.31934, 293.4126, " y="995, ">
				apply to publishing the value
		</text>
		<text fill="gray" font-size="9" font-family="Segoe UI" x="183, 188.27344, 191.09033, 193.55566, 196.60547, 201.69873, 206.40527, 208.87061, 214.16162, 217.29053, 222.56396, 227.85498, 232.56152, 235.69043, 238.74023, 243.09521, 245.56055, 249.15967, 251.625, 256.33154, 260.4624, 265.75342, 268.88232, 273.58887, 277.40771, 281.22656, 285.93311, " y="1007, ">
				of the property - expressed
		</text>
		<text fill="gray" font-size="9" font-family="Segoe UI" x="183, 188.29102, 192.646, 195.11133, 199.69043, 202.15576, 208.94092, 214.51318, 219.78662, 225.08643, 229.79297, 231.74414, 234.20947, 238.76221, 243.34131, 247.49854, 252.5918, 255.05713, 259.21436, 264.48779, 269.58105, 273.3999, 276.44971, 279.57861, 284.15771, 286.3374, 291.43066, " y="1019, ">
				by a QCode. Each constraint
		</text>
		<text fill="gray" font-size="9" font-family="Segoe UI" x="183, 187.5791, 192.87012, 198.16113, 200.34082, 202.52051, 207.22705, 211.0459, 213.51123, 216.56104, 221.83447, 224.2998, 228.87891, 231.05859, 233.23828, 235.70361, 241.00342, 245.70996, 249.52881, 253.68604, 258.39258, 263.48584, 268.78564, 273.36475, 278.45801, " y="1031, ">
				applies to all descendant
		</text>
		<text fill="gray" font-size="9" font-family="Segoe UI" x="183, 187.70654, 189.88623, 194.59277, 202.34473, 207.05127, 212.14453, 215.19434, 219.01318, " y="1043, ">
				elements.
		</text>
		<rect fill="white" x="187" y="948" width="81" height="16"/>
		<text font-size="12" font-weight="600" font-family="Segoe UI" x="187, 194.44141, 201.70117, 209.14258, 214.90234, 222.23828, 229.49805, 234.77734, 239.44727, 244.22266, 250.67969, 254.08984, 261.34961, " y="961, ">
				pubconstraint
		</text>
		<rect fill="none" stroke="black" stroke-width="1" stroke-linecap="square" stroke-miterlimit="4" transform="translate(0.5 0.5)" x="178" y="946" width="96" height="20"/>
		<rect fill="silver" x="182" y="1056" width="112" height="21"/>
		<rect fill="white" x="178" y="1052" width="112" height="21"/>
		<rect fill="white" x="183" y="1079" width="117" height="72"/>
		<text fill="gray" font-size="9" font-family="Segoe UI" x="183, 189.78516, 194.87842, 199.58496, 202.05029, 207.32373, 210.45264, 212.91797, 220.66992, 225.24902, 230.34229, 234.69727, 237.1626, 241.31982, 246.59326, 251.68652, 255.50537, 258.55518, 261.68408, 266.26318, 268.44287, 273.53613, 276.58594, 280.40479, 282.87012, 285.91992, 291.01318, 295.59229, " y="1089, ">
				One or many constraints that
		</text>
		<text fill="gray" font-size="9" font-family="Segoe UI" x="183, 187.5791, 192.87012, 198.16113, 200.34082, 204.6958, 207.16113, 210.21094, 215.48438, 217.94971, 223.24072, 228.33398, 233.625, 235.80469, 237.98438, 241.80322, 246.89648, 249.07617, 254.16943, 259.46924, 261.93457, 264.98438, 270.07764, 274.78418, 277.24951, 281.56055, 286.13965, 288.31934, 293.4126, " y="1101, ">
				apply to publishing the value
		</text>
		<text fill="gray" font-size="9" font-family="Segoe UI" x="183, 188.27344, 191.09033, 193.55566, 196.60547, 201.69873, 206.40527, 208.87061, 214.16162, 217.29053, 222.56396, 227.85498, 232.56152, 235.69043, 238.74023, 243.09521, 245.56055, 249.15967, 251.625, 256.33154, 260.4624, 265.75342, 268.88232, 273.58887, 277.40771, 281.22656, 285.93311, " y="1113, ">
				of the property - expressed
		</text>
		<text fill="gray" font-size="9" font-family="Segoe UI" x="183, 188.29102, 192.646, 195.11133, 199.69043, 202.15576, 208.33887, 213.72217, 216.11719, 218.06836, 220.53369, 225.08643, 229.66553, 233.82275, 238.91602, 241.38135, 245.53857, 250.81201, 255.90527, 259.72412, 262.77393, 265.90283, 270.48193, 272.66162, 277.75488, " y="1125, ">
				by a URI. Each constraint
		</text>
		<text fill="gray" font-size="9" font-family="Segoe UI" x="183, 187.5791, 192.87012, 198.16113, 200.34082, 202.52051, 207.22705, 211.0459, 213.51123, 216.56104, 221.83447, 224.2998, 228.87891, 231.05859, 233.23828, 235.70361, 241.00342, 245.70996, 249.52881, 253.68604, 258.39258, 263.48584, 268.78564, 273.36475, 278.45801, " y="1137, ">
				applies to all descendant
		</text>
		<text fill="gray" font-size="9" font-family="Segoe UI" x="183, 187.70654, 189.88623, 194.59277, 202.34473, 207.05127, 212.14453, 215.19434, 219.01318, " y="1149, ">
				elements.
		</text>
		<rect fill="white" x="187" y="1054" width="96" height="16"/>
		<text font-size="12" font-weight="600" font-family="Segoe UI" x="187, 194.44141, 201.70117, 209.14258, 214.90234, 222.23828, 229.49805, 234.77734, 239.44727, 244.22266, 250.67969, 254.08984, 261.34961, 266.01953, 273.2793, 278.10156, " y="1067, ">
				pubconstrainturi
		</text>
		<rect fill="none" stroke="black" stroke-width="1" stroke-linecap="square" stroke-miterlimit="4" transform="translate(0.5 0.5)" x="178" y="1052" width="111" height="20"/>
		<rect fill="silver" x="182" y="1162" width="52" height="21"/>
		<rect fill="white" x="178" y="1158" width="52" height="21"/>
		<rect fill="white" x="183" y="1185" width="121" height="48"/>
		<text fill="gray" font-size="9" font-family="Segoe UI" x="183, 188.80518, 191.27051, 195.42773, 200.70117, 205.79443, 209.95166, 214.6582, 219.94922, 222.99902, 225.46436, 227.64404, 232.94385, 237.65039, 242.74365, 245.79346, 247.97314, 250.79004, 252.96973, 257.67627, 260.80518, 263.27051, 267.97705, 272.10791, 277.39893, 280.52783, 285.23438, 289.05322, 292.87207, 297.57861, " y="1195, ">
				A concept identifier expressed
		</text>
		<text fill="gray" font-size="9" font-family="Segoe UI" x="183, 187.5791, 191.39795, 193.86328, 198.44238, 200.90771, 204.72656, 207.77637, 210.90527, 213.08496, 218.17822, 223.47803, 225.94336, 231.2168, 234.03369, 236.49902, 239.54883, 244.64209, 249.34863, 251.81396, 254.63086, 259.9043, 263.0332, 270.78516, 273.25049, 277.06934, 280.88818, 284.70703, 286.6582, 290.81543, 294.97266, 299.12988, " y="1207, ">
				as a string of the form sss:ccc,
		</text>
		<text fill="gray" font-size="9" font-family="Segoe UI" x="183, 189.50391, 194.59717, 199.30371, 202.43262, 207.13916, 209.60449, 213.42334, 217.24219, 221.06104, 223.52637, 225.70605, 229.5249, 231.99023, 236.56934, 239.03467, 242.85352, 247.01074, 252.104, 256.81055, 264.5625, 269.26904, 271.73438, 276.31348, 278.49316, 280.67285, 285.25195, " y="1219, ">
				where sss is a scheme alias
		</text>
		<text fill="gray" font-size="9" font-family="Segoe UI" x="183, 187.5791, 192.67236, 197.97217, 200.4375, 204.59473, 208.75195, 212.90918, 215.37451, 217.5542, 221.37305, 223.83838, 228.41748, 230.88281, 235.04004, 240.31348, 245.61328, " y="1231, ">
				and ccc is a code
		</text>
		<rect fill="white" x="187" y="1160" width="36" height="16"/>
		<text font-size="12" font-weight="600" font-family="Segoe UI" x="187, 194.42969, 200.18945, 207.52539, 214.95508, " y="1173, ">
				qcode
		</text>
		<rect fill="none" stroke="black" stroke-width="1" stroke-linecap="square" stroke-miterlimit="4" transform="translate(0.5 0.5)" x="178" y="1158" width="51" height="20"/>
		<rect fill="silver" x="182" y="1244" width="52" height="21"/>
		<rect fill="white" x="178" y="1240" width="52" height="21"/>
		<rect fill="white" x="183" y="1267" width="95" height="24"/>
		<text fill="gray" font-size="9" font-family="Segoe UI" x="183, 188.80518, 191.27051, 197.45361, 202.83691, 205.23193, 207.69727, 214.20117, 219.29443, 221.47412, 225.63135, 230.72461, 233.18994, 235.36963, 240.66943, 245.37598, 250.46924, 253.51904, 255.69873, 258.51562, 260.69531, 265.40186, 269.2207, 271.68604, " y="1277, ">
				A URI which identifies a
		</text>
		<text fill="gray" font-size="9" font-family="Segoe UI" x="183, 187.15723, 192.43066, 197.52393, 201.68115, 206.3877, 211.67871, 214.72852, " y="1289, ">
				concept.
		</text>
		<rect fill="white" x="187" y="1242" width="36" height="16"/>
		<text font-size="12" font-weight="600" font-family="Segoe UI" x="187, 194.25977, 199.08203, " y="1255, ">
				uri
		</text>
		<rect fill="none" stroke="black" stroke-width="1" stroke-linecap="square" stroke-miterlimit="4" transform="translate(0.5 0.5)" x="178" y="1240" width="51" height="20"/>
		<rect fill="silver" x="182" y="1302" width="52" height="21"/>
		<rect fill="white" x="178" y="1298" width="52" height="21"/>
		<rect fill="white" x="183" y="1325" width="121" height="24"/>
		<text fill="gray" font-size="9" font-family="Segoe UI" x="183, 188.80518, 191.27051, 195.42773, 200.70117, 205.79443, 209.95166, 214.6582, 219.94922, 222.99902, 225.46436, 227.64404, 232.94385, 237.65039, 242.74365, 245.79346, 247.97314, 250.79004, 252.96973, 257.67627, 260.80518, 263.27051, 267.97705, 272.10791, 277.39893, 280.52783, 285.23438, 289.05322, 292.87207, 297.57861, " y="1335, ">
				A concept identifier expressed
		</text>
		<text fill="gray" font-size="9" font-family="Segoe UI" x="183, 187.5791, 191.39795, 193.86328, 198.44238, 200.90771, 203.72461, 206.85352, 211.56006, 216.2666, 218.73193, 221.78174, 226.48828, 230.61914, 233.66895, 236.13428, 239.95312, 243.00293, 246.13184, 248.31152, 253.40479, " y="1347, ">
				as a free text string
		</text>
		<rect fill="white" x="187" y="1300" width="36" height="16"/>
		<text font-size="12" font-weight="600" font-family="Segoe UI" x="187, 190.41016, 193.82031, 198.44336, 204.93555, 209.71094, 216.16797, " y="1313, ">
				literal
		</text>
		<rect fill="none" stroke="black" stroke-width="1" stroke-linecap="square" stroke-miterlimit="4" transform="translate(0.5 0.5)" x="178" y="1298" width="51" height="20"/>
		<rect fill="silver" x="182" y="1360" width="52" height="21"/>
		<rect fill="white" x="178" y="1356" width="52" height="21"/>
		<rect fill="white" x="183" y="1383" width="119" height="48"/>
		<text fill="gray" font-size="9" font-family="Segoe UI" x="183, 187.71533, 192.80859, 197.51514, 199.98047, 203.03027, 207.38525, 212.67627, 217.38281, 219.84814, 225.12158, 227.93848, 230.40381, 233.45361, 238.54688, 243.25342, 245.71875, 249.87598, 255.14941, 260.24268, 264.3999, 269.10645, 274.39746, " y="1393, ">
				The type of the concept
		</text>
		<text fill="gray" font-size="9" font-family="Segoe UI" x="183, 187.5791, 191.39795, 195.2168, 197.39648, 202.69629, 207.78955, 212.49609, 217.7959, 220.26123, 224.84033, 228.65918, 231.12451, 235.28174, 240.55518, 245.64844, 248.69824, 251.82715, 257.10059, 259.28027, 261.45996, 266.1665, " y="1405, ">
				assigned as controlled
		</text>
		<text fill="gray" font-size="9" font-family="Segoe UI" x="183, 188.29102, 191.41992, 196.69336, 201.98438, 206.69092, 209.81982, 212.86963, 217.22461, 219.68994, 224.00098, 228.58008, 230.75977, 235.85303, 240.55957, 243.0249, 246.62402, 249.08936, 253.7959, 257.92676, 263.21777, 266.34668, 271.05322, 274.87207, 278.69092, 283.39746, 288.69727, 291.1626, 296.45361, " y="1417, ">
				property value - expressed by
		</text>
		<text fill="gray" font-size="9" font-family="Segoe UI" x="183, 187.5791, 190.04443, 196.82959, 202.40186, 207.67529, 212.9751, " y="1429, ">
				a QCode
		</text>
		<rect fill="white" x="187" y="1358" width="36" height="16"/>
		<text font-size="12" font-weight="600" font-family="Segoe UI" x="187, 191.66992, 198.12695, 205.56836, " y="1371, ">
				type
		</text>
		<rect fill="none" stroke="black" stroke-width="1" stroke-linecap="square" stroke-miterlimit="4" transform="translate(0.5 0.5)" x="178" y="1356" width="51" height="20"/>
		<rect fill="silver" x="182" y="1442" width="58" height="21"/>
		<rect fill="white" x="178" y="1438" width="58" height="21"/>
		<rect fill="white" x="183" y="1465" width="119" height="48"/>
		<text fill="gray" font-size="9" font-family="Segoe UI" x="183, 187.71533, 192.80859, 197.51514, 199.98047, 203.03027, 207.38525, 212.67627, 217.38281, 219.84814, 225.12158, 227.93848, 230.40381, 233.45361, 238.54688, 243.25342, 245.71875, 249.87598, 255.14941, 260.24268, 264.3999, 269.10645, 274.39746, " y="1475, ">
				The type of the concept
		</text>
		<text fill="gray" font-size="9" font-family="Segoe UI" x="183, 187.5791, 191.39795, 195.2168, 197.39648, 202.69629, 207.78955, 212.49609, 217.7959, 220.26123, 224.84033, 228.65918, 231.12451, 235.28174, 240.55518, 245.64844, 248.69824, 251.82715, 257.10059, 259.28027, 261.45996, 266.1665, " y="1487, ">
				assigned as controlled
		</text>
		<text fill="gray" font-size="9" font-family="Segoe UI" x="183, 188.29102, 191.41992, 196.69336, 201.98438, 206.69092, 209.81982, 212.86963, 217.22461, 219.68994, 224.00098, 228.58008, 230.75977, 235.85303, 240.55957, 243.0249, 246.62402, 249.08936, 253.7959, 257.92676, 263.21777, 266.34668, 271.05322, 274.87207, 278.69092, 283.39746, 288.69727, 291.1626, 296.45361, " y="1499, ">
				property value - expressed by
		</text>
		<text fill="gray" font-size="9" font-family="Segoe UI" x="183, 187.5791, 190.04443, 196.22754, 201.61084, " y="1511, ">
				a URI
		</text>
		<rect fill="white" x="187" y="1440" width="42" height="16"/>
		<text font-size="12" font-weight="600" font-family="Segoe UI" x="187, 191.66992, 198.12695, 205.56836, 212.06055, 219.32031, 224.14258, " y="1453, ">
				typeuri
		</text>
		<rect fill="none" stroke="black" stroke-width="1" stroke-linecap="square" stroke-miterlimit="4" transform="translate(0.5 0.5)" x="178" y="1438" width="57" height="20"/>
		<rect fill="silver" x="182" y="1524" width="66" height="21"/>
		<rect fill="white" x="178" y="1520" width="66" height="21"/>
		<rect fill="white" x="183" y="1547" width="121" height="84"/>
		<text fill="gray" font-size="9" font-family="Segoe UI" x="183, 187.78125, 193.07227, 197.77881, 201.93604, 204.11572, 206.93262, 209.1123, 213.81885, 217.6377, 220.10303, 223.15283, 228.24609, 232.95264, 235.41797, 237.59766, 242.17676, 247.27002, 252.56982, 257.66309, 262.24219, 267.54199, 272.24854, 274.71387, 279.9873, 282.8042, 285.26953, 288.31934, 293.4126, 295.59229, " y="1557, ">
				Specifies the language of this
		</text>
		<text fill="gray" font-size="9" font-family="Segoe UI" x="183, 188.29102, 191.41992, 196.69336, 201.98438, 206.69092, 209.81982, 212.86963, 217.22461, 219.68994, 224.26904, 229.3623, 234.66211, 237.12744, 242.41846, 247.69189, 250.7417, 255.44824, 260.5415, 263.59131, 265.771, 270.3501, 272.52979, 274.70947, 279.06445, 281.52979, 286.10889, 288.28857, " y="1569, ">
				property and potentially all
		</text>
		<text fill="gray" font-size="9" font-family="Segoe UI" x="183, 188.2998, 193.00635, 196.8252, 200.98242, 205.68896, 210.78223, 216.08203, 220.66113, 225.75439, 228.8042, 231.26953, 236.56055, 239.68945, 244.96289, 250.25391, 254.96045, 258.08936, 261.13916, 263.31885, 268.02539, 271.84424, " y="1581, ">
				descendant properties.
		</text>
		<text fill="gray" font-size="9" font-family="Segoe UI" x="183, 187.13086, 194.88281, 197.0625, 199.01367, 201.19336, 205.77246, 210.86572, 216.16553, 218.63086, 222.94189, 227.521, 229.70068, 234.79395, 239.50049, 243.31934, 245.78467, 251.05811, 253.875, 256.34033, 261.64014, 266.34668, 270.16553, 274.32275, 279.0293, 284.12256, 289.42236, 294.00146, 299.09473, " y="1593, ">
				xml:lang values of descendant
		</text>
		<text fill="gray" font-size="9" font-family="Segoe UI" x="183, 188.29102, 191.41992, 196.69336, 201.98438, 206.69092, 209.81982, 212.86963, 215.04932, 219.75586, 223.57471, 226.04004, 231.31348, 235.62451, 240.33105, 243.45996, 246.58887, 248.76855, 254.06836, 258.7749, 261.24023, 264.29004, 269.3833, 271.56299, 275.38184, 277.84717, 282.1582, 286.7373, 288.91699, 294.01025, 298.7168, " y="1605, ">
				properties override this value.
		</text>
		<text fill="gray" font-size="9" font-family="Segoe UI" x="183, 187.93066, 192.50977, 194.68945, 199.78271, 204.48926, 208.30811, 210.77344, 215.35254, 218.48145, 223.18799, 225.65332, 230.95312, 235.65967, 238.70947, 243.41602, 246.54492, 254.29688, 256.47656, 261.56982, 266.27637, 271.57617, 274.0415, 279.33252, " y="1617, ">
				Values are determined by
		</text>
		<text fill="gray" font-size="9" font-family="Segoe UI" x="183, 185.39502, 190.48828, 193.53809, 198.24463, 201.37354, 206.4668, 211.17334, 214.22314, 216.68848, 221.84766, 227.41992, 232.46045, 234.92578, 239.77734, 244.62891, " y="1629, ">
				Internet BCP 47.
		</text>
		<rect fill="white" x="187" y="1522" width="50" height="16"/>
		<text font-size="12" font-weight="600" font-family="Segoe UI" x="187, 193.62695, 204.61914, 208.0293, 211.28125, 214.69141, 221.14844, 228.4082, " y="1535, ">
				xml:lang
		</text>
		<path fill="none" stroke="black" stroke-width="2" stroke-miterlimit="4" transform="translate(0.5 0.5)" d="M180 1538L184 1534"/>
		<path fill="none" stroke="black" stroke-width="1" stroke-linecap="square" stroke-miterlimit="4" transform="translate(0.5 0.5)" d="M181 1534L184 1534L184 1537"/>
		<rect fill="none" stroke="black" stroke-width="1" stroke-linecap="square" stroke-miterlimit="4" transform="translate(0.5 0.5)" x="178" y="1520" width="65" height="20"/>
		<rect fill="silver" x="182" y="1642" width="52" height="21"/>
		<rect fill="white" x="178" y="1638" width="52" height="21"/>
		<rect fill="white" x="183" y="1665" width="116" height="24"/>
		<text fill="gray" font-size="9" font-family="Segoe UI" x="183, 187.71533, 192.80859, 197.51514, 199.98047, 205.28027, 207.45996, 210.58887, 215.29541, 219.45264, 222.50244, 224.68213, 229.95557, 235.04883, 239.62793, 241.80762, 243.9873, 247.03711, 251.39209, 253.85742, 259.13086, 261.94775, 264.41309, 267.46289, 272.16943, 276.30029, 279.3501, 284.44336, 289.02246, " y="1675, ">
				The directionality of textual
		</text>
		<text fill="gray" font-size="9" font-family="Segoe UI" x="183, 187.15723, 192.43066, 197.52393, 200.57373, 205.28027, 210.37354, 213.42334, 215.88867, 218.60449, 223.31104, 228.4043, 233.49756, 241.24951, 245.95605, 249.08496, 253.66406, 256.71387, 258.89355, 264.16699, 269.26025, 271.21143, 273.67676, 275.85645, 278.90625, 282.03516, 283.98633, 286.45166, 289.58057, 292.63037, 294.81006, " y="1687, ">
				content (enumeration: ltr, rtl)
		</text>
		<rect fill="white" x="187" y="1640" width="36" height="16"/>
		<text font-size="12" font-weight="600" font-family="Segoe UI" x="187, 194.42969, 197.83984, " y="1653, ">
				dir
		</text>
		<rect fill="none" stroke="black" stroke-width="1" stroke-linecap="square" stroke-miterlimit="4" transform="translate(0.5 0.5)" x="178" y="1638" width="51" height="20"/>
		<path fill="silver" d="M182 1705L187 1700L255 1700L260 1705L260 1716L255 1721L187 1721L182 1716L182 1705Z"/>
		<path fill="white" d="M178 1701L183 1696L251 1696L256 1701L256 1712L251 1717L183 1717L178 1712L178 1701Z"/>
		<rect fill="white" x="205" y="1698" width="46" height="16"/>
		<text font-size="12" font-weight="600" font-family="Segoe UI" x="205, 212.10742, 219.21484, 226.55078, 231.2207, 238.44531, 244.9375, " y="1711, ">
				##other
		</text>
		<rect fill="white" x="183" y="1698" width="20" height="16"/>
		<text fill="gray" font-size="12" font-family="Segoe UI" x="183, 189.10547, 195.89648, " y="1711, ">
				any
		</text>
		<path fill="none" stroke="black" stroke-width="1" stroke-linecap="square" stroke-miterlimit="4" transform="translate(0.5 0.5)" d="M178 1701L183 1696L250 1696L255 1701L255 1711L250 1716L183 1716L178 1711L178 1701Z"/>
		<rect fill="silver" x="182" y="1728" width="52" height="21"/>
		<rect fill="white" x="178" y="1724" width="52" height="21"/>
		<rect fill="white" x="183" y="1751" width="120" height="60"/>
		<text fill="gray" font-size="9" font-family="Segoe UI" x="183, 187.71533, 192.80859, 197.51514, 199.98047, 202.16016, 207.45996, 212.1665, 217.25977, 220.30957, 222.48926, 225.30615, 227.48584, 232.19238, 235.32129, 237.78662, 243.06006, 245.87695, 248.34229, 251.39209, 256.48535, " y="1761, ">
				The identifier of the
		</text>
		<text fill="gray" font-size="9" font-family="Segoe UI" x="183, 186.12891, 190.83545, 193.01514, 197.59424, 200.64404, 202.82373, 208.09717, 213.19043, 217.00928, 222.10254, 224.28223, 229.57324, 232.03857, 237.32959, 242.03613, 245.08594, 251.58984, 256.29639, 261.00293, 266.09619, 268.56152, 271.61133, 276.70459, " y="1773, ">
				relationship between the
		</text>
		<text fill="gray" font-size="9" font-family="Segoe UI" x="183, 187.15723, 192.25049, 195.37939, 198.5083, 203.21484, 208.30811, 211.35791, 213.82324, 217.98047, 223.25391, 228.34717, 232.50439, 237.21094, 242.50195, 245.55176, 248.01709, 252.59619, 257.68945, 262.98926, 265.45459, 268.50439, 273.59766, " y="1785, ">
				current concept and the
		</text>
		<text fill="gray" font-size="9" font-family="Segoe UI" x="183, 186.0498, 190.62891, 193.75781, 199.05762, 203.76416, 206.81396, 209.2793, 213.43652, 218.70996, 223.80322, 227.96045, 232.66699, 237.95801, 241.00781, 243.47314, 247.07227, 249.5376, 254.24414, 258.375, 263.66602, 266.79492, 271.50146, 275.32031, 279.13916, 283.8457, 289.14551, 291.61084, 296.90186, " y="1797, ">
				target concept - expressed by
		</text>
		<text fill="gray" font-size="9" font-family="Segoe UI" x="183, 187.5791, 190.04443, 196.82959, 202.40186, 207.67529, 212.9751, " y="1809, ">
				a QCode
		</text>
		<rect fill="white" x="187" y="1726" width="36" height="16"/>
		<text font-size="12" font-weight="600" font-family="Segoe UI" x="187, 191.72852, 198.2207, " y="1739, ">
				rel
		</text>
		<rect fill="none" stroke="black" stroke-width="1" stroke-linecap="square" stroke-miterlimit="4" transform="translate(0.5 0.5)" x="178" y="1724" width="51" height="20"/>
		<rect fill="silver" x="182" y="1822" width="52" height="21"/>
		<rect fill="white" x="178" y="1818" width="52" height="21"/>
		<rect fill="white" x="183" y="1845" width="120" height="60"/>
		<text fill="gray" font-size="9" font-family="Segoe UI" x="183, 187.71533, 192.80859, 197.51514, 199.98047, 202.16016, 207.45996, 212.1665, 217.25977, 220.30957, 222.48926, 225.30615, 227.48584, 232.19238, 235.32129, 237.78662, 243.06006, 245.87695, 248.34229, 251.39209, 256.48535, " y="1855, ">
				The identifier of the
		</text>
		<text fill="gray" font-size="9" font-family="Segoe UI" x="183, 186.12891, 190.83545, 193.01514, 197.59424, 200.64404, 202.82373, 208.09717, 213.19043, 217.00928, 222.10254, 224.28223, 229.57324, 232.03857, 237.32959, 242.03613, 245.08594, 251.58984, 256.29639, 261.00293, 266.09619, 268.56152, 271.61133, 276.70459, " y="1867, ">
				relationship between the
		</text>
		<text fill="gray" font-size="9" font-family="Segoe UI" x="183, 187.15723, 192.25049, 195.37939, 198.5083, 203.21484, 208.30811, 211.35791, 213.82324, 217.98047, 223.25391, 228.34717, 232.50439, 237.21094, 242.50195, 245.55176, 248.01709, 252.59619, 257.68945, 262.98926, 265.45459, 268.50439, 273.59766, " y="1879, ">
				current concept and the
		</text>
		<text fill="gray" font-size="9" font-family="Segoe UI" x="183, 186.0498, 190.62891, 193.75781, 199.05762, 203.76416, 206.81396, 209.2793, 213.43652, 218.70996, 223.80322, 227.96045, 232.66699, 237.95801, 241.00781, 243.47314, 247.07227, 249.5376, 254.24414, 258.375, 263.66602, 266.79492, 271.50146, 275.32031, 279.13916, 283.8457, 289.14551, 291.61084, 296.90186, " y="1891, ">
				target concept - expressed by
		</text>
		<text fill="gray" font-size="9" font-family="Segoe UI" x="183, 187.5791, 190.04443, 196.22754, 201.61084, " y="1903, ">
				a URI
		</text>
		<rect fill="white" x="187" y="1820" width="36" height="16"/>
		<text font-size="12" font-weight="600" font-family="Segoe UI" x="187, 191.72852, 198.2207, 201.63086, 208.89062, 213.71289, " y="1833, ">
				reluri
		</text>
		<rect fill="none" stroke="black" stroke-width="1" stroke-linecap="square" stroke-miterlimit="4" transform="translate(0.5 0.5)" x="178" y="1818" width="51" height="20"/>
		<rect fill="silver" x="182" y="1916" width="52" height="21"/>
		<rect fill="white" x="178" y="1912" width="52" height="21"/>
		<rect fill="white" x="183" y="1939" width="110" height="48"/>
		<text fill="gray" font-size="9" font-family="Segoe UI" x="183, 187.71533, 192.80859, 197.51514, 199.98047, 203.10938, 207.68848, 212.78174, 217.25537, 219.7207, 224.99414, 227.81104, 230.27637, 233.32617, 238.41943, 243.12598, 245.59131, 249.74854, 254.8418, 257.9707, 261.09961, 265.80615, 270.89941, " y="1949, ">
				The rank of the current
		</text>
		<text fill="gray" font-size="9" font-family="Segoe UI" x="183, 187.15723, 192.43066, 197.52393, 201.68115, 206.3877, 211.67871, 214.72852, 217.19385, 221.77295, 229.5249, 234.79834, 239.8916, 245.19141, 247.65674, 251.81396, 257.0874, 262.18066, 266.33789, 271.04443, 276.33545, 279.38525, " y="1961, ">
				concept among concepts
		</text>
		<text fill="gray" font-size="9" font-family="Segoe UI" x="183, 188.09326, 192.67236, 196.9834, 199.16309, 204.25635, 209.55615, 212.02148, 216.60059, 219.06592, 222.19482, 226.90137, 229.08105, 233.66016, 236.70996, 238.88965, 244.16309, 249.25635, 253.0752, 258.16846, 260.34814, 265.63916, 268.10449, 271.1543, 276.42773, 278.89307, 281.94287, 287.03613, " y="1973, ">
				having a relationship to the
		</text>
		<text fill="gray" font-size="9" font-family="Segoe UI" x="183, 186.0498, 190.62891, 193.75781, 199.05762, 203.76416, 206.81396, 209.2793, 213.43652, 218.70996, 223.80322, 227.96045, 232.66699, 237.95801, 241.00781, " y="1985, ">
				target concept.
		</text>
		<rect fill="white" x="187" y="1914" width="36" height="16"/>
		<text font-size="12" font-weight="600" font-family="Segoe UI" x="187, 191.77539, 198.23242, 205.49219, " y="1927, ">
				rank
		</text>
		<rect fill="none" stroke="black" stroke-width="1" stroke-linecap="square" stroke-miterlimit="4" transform="translate(0.5 0.5)" x="178" y="1912" width="51" height="20"/>
		<rect fill="silver" x="182" y="1998" width="72" height="21"/>
		<rect fill="white" x="178" y="1994" width="72" height="21"/>
		<rect fill="white" x="183" y="2021" width="117" height="36"/>
		<text fill="gray" font-size="9" font-family="Segoe UI" x="183, 187.71533, 192.80859, 197.51514, 199.98047, 205.28027, 209.85938, 212.90918, 217.61572, 220.08105, 222.79688, 227.37598, 232.46924, 237.76904, 239.72021, 242.18555, 247.45898, 252.75, 255.7998, 257.97949, 263.25293, 268.34619, 272.92529, 275.10498, 277.28467, 281.63965, 283.59082, 286.05615, 289.10596, 294.19922, " y="2031, ">
				The date (and, optionally, the
		</text>
		<text fill="gray" font-size="9" font-family="Segoe UI" x="183, 186.0498, 188.22949, 195.98145, 200.68799, 203.40381, 205.86914, 211.16016, 215.8667, 218.68359, 223.95703, 227.08594, 231.79248, 234.25781, 240.76172, 245.85498, 248.03467, 252.19189, 257.28516, 259.75049, " y="2043, ">
				time) before which a
		</text>
		<text fill="gray" font-size="9" font-family="Segoe UI" x="183, 186.12891, 190.83545, 193.01514, 197.59424, 200.64404, 202.82373, 208.09717, 213.19043, 217.00928, 222.10254, 224.28223, 229.57324, 232.03857, 234.21826, 238.03711, 240.50244, 245.5957, 250.86914, 253.91895, 256.38428, 260.69531, 265.27441, 267.4541, 269.63379, 274.93359, " y="2055, ">
				relationship is not valid.
		</text>
		<rect fill="white" x="187" y="1996" width="56" height="16"/>
		<text font-size="12" font-weight="600" font-family="Segoe UI" x="187, 193.32227, 199.7793, 203.18945, 206.59961, 214.0293, 218.62891, 223.35742, 230.69336, " y="2009, ">
				validfrom
		</text>
		<rect fill="none" stroke="black" stroke-width="1" stroke-linecap="square" stroke-miterlimit="4" transform="translate(0.5 0.5)" x="178" y="1994" width="71" height="20"/>
		<rect fill="silver" x="182" y="2068" width="56" height="21"/>
		<rect fill="white" x="178" y="2064" width="56" height="21"/>
		<rect fill="white" x="183" y="2091" width="117" height="36"/>
		<text fill="gray" font-size="9" font-family="Segoe UI" x="183, 187.71533, 192.80859, 197.51514, 199.98047, 205.28027, 209.85938, 212.90918, 217.61572, 220.08105, 222.79688, 227.37598, 232.46924, 237.76904, 239.72021, 242.18555, 247.45898, 252.75, 255.7998, 257.97949, 263.25293, 268.34619, 272.92529, 275.10498, 277.28467, 281.63965, 283.59082, 286.05615, 289.10596, 294.19922, " y="2101, ">
				The date (and, optionally, the
		</text>
		<text fill="gray" font-size="9" font-family="Segoe UI" x="183, 186.0498, 188.22949, 195.98145, 200.68799, 203.40381, 205.86914, 210.44824, 213.26514, 216.31494, 221.02148, 224.15039, 226.61572, 233.11963, 238.21289, 240.39258, 244.5498, 249.64307, 252.1084, " y="2113, ">
				time) after which a
		</text>
		<text fill="gray" font-size="9" font-family="Segoe UI" x="183, 186.12891, 190.83545, 193.01514, 197.59424, 200.64404, 202.82373, 208.09717, 213.19043, 217.00928, 222.10254, 224.28223, 229.57324, 232.03857, 234.21826, 238.03711, 240.50244, 245.5957, 250.86914, 253.91895, 256.38428, 260.69531, 265.27441, 267.4541, 269.63379, 274.93359, " y="2125, ">
				relationship is not valid.
		</text>
		<rect fill="white" x="187" y="2066" width="40" height="16"/>
		<text font-size="12" font-weight="600" font-family="Segoe UI" x="187, 193.32227, 199.7793, 203.18945, 206.59961, 214.0293, 218.65234, " y="2079, ">
				validto
		</text>
		<rect fill="none" stroke="black" stroke-width="1" stroke-linecap="square" stroke-miterlimit="4" transform="translate(0.5 0.5)" x="178" y="2064" width="55" height="20"/>
		<rect x="169" y="41" width="11" height="11"/>
		<rect fill="white" x="170" y="42" width="9" height="9"/>
		<rect x="171" y="46" width="7" height="1"/>
		<path fill="none" stroke="black" stroke-width="1" stroke-linecap="square" stroke-miterlimit="4" transform="translate(0.5 0.5)" d="M209 2187L217 2187"/>
		<path fill="none" stroke="black" stroke-width="1" stroke-linecap="square" stroke-miterlimit="4" transform="translate(0.5 0.5)" d="M218 2187L218 2157"/>
		<path fill="none" stroke="black" stroke-width="1" stroke-linecap="square" stroke-miterlimit="4" transform="translate(0.5 0.5)" d="M218 2187L218 2218"/>
		<path fill="none" stroke="black" stroke-width="1" stroke-linecap="square" stroke-miterlimit="4" transform="translate(0.5 0.5)" d="M218 2156L232 2156"/>
		<path fill="none" stroke="black" stroke-width="1" stroke-linecap="square" stroke-miterlimit="4" transform="translate(0.5 0.5)" d="M218 2219L232 2219"/>
		<path fill="silver" d="M171 2189L176 2184L201 2184L206 2189L206 2200L201 2205L176 2205L171 2200L171 2189Z"/>
		<path fill="white" d="M167 2185L172 2180L196 2180L201 2185L201 2195L196 2200L172 2200L167 2195L167 2185Z"/>
		<path transform="translate(0.5 0.5)" d="M170.889 2180.4L171.793 2179.5L172.929 2179.5L173.429 2179.5L173.429 2180.5L172.929 2180.5L172 2180.5L172 2180L172.354 2180.35L171.243 2181.46L170.536 2180.76L170.889 2180.4ZM176.929 2179.5L178.929 2179.5L179.429 2179.5L179.429 2180.5L178.929 2180.5L176.429 2180.5L176.429 2179.5L176.929 2179.5ZM182.929 2179.5L184.929 2179.5L185.429 2179.5L185.429 2180.5L184.929 2180.5L182.429 2180.5L182.429 2179.5L182.929 2179.5ZM188.929 2179.5L190.929 2179.5L191.429 2179.5L191.429 2180.5L190.929 2180.5L188.429 2180.5L188.429 2179.5L188.929 2179.5ZM194.929 2179.5L196.207 2179.5L197.01 2180.3L197.364 2180.66L196.657 2181.36L196.303 2181.01L195.646 2180.35L196 2180L196 2180.5L194.429 2180.5L194.429 2179.5L194.929 2179.5ZM199.839 2183.13L201.253 2184.55L201.607 2184.9L200.9 2185.61L200.546 2185.25L198.778 2183.49L199.485 2182.78L199.839 2183.13ZM201.5 2188.86L201.5 2190.86L201.5 2191.36L200.5 2191.36L200.5 2190.86L200.5 2188.36L201.5 2188.36L201.5 2188.86ZM201.5 2194.86L201.5 2195.21L200.04 2196.67L199.686 2197.02L198.979 2196.31L199.333 2195.96L200.646 2194.65L201 2195L200.5 2195L200.5 2194.36L201.5 2194.36L201.5 2194.86ZM197.211 2199.5L196.207 2200.5L195.213 2200.5L194.713 2200.5L194.713 2199.5L195.213 2199.5L196 2199.5L196 2200L195.646 2199.65L196.858 2198.44L197.565 2199.14L197.211 2199.5ZM191.213 2200.5L189.213 2200.5L188.713 2200.5L188.713 2199.5L189.213 2199.5L191.713 2199.5L191.713 2200.5L191.213 2200.5ZM185.213 2200.5L183.213 2200.5L182.713 2200.5L182.713 2199.5L183.213 2199.5L185.713 2199.5L185.713 2200.5L185.213 2200.5ZM179.213 2200.5L177.213 2200.5L176.713 2200.5L176.713 2199.5L177.213 2199.5L179.713 2199.5L179.713 2200.5L179.213 2200.5ZM173.213 2200.5L171.793 2200.5L171.09 2199.8L170.737 2199.44L171.444 2198.74L171.797 2199.09L172.354 2199.65L172 2200L172 2199.5L173.713 2199.5L173.713 2200.5L173.213 2200.5ZM168.262 2196.97L166.847 2195.55L166.494 2195.2L167.201 2194.49L167.555 2194.85L169.322 2196.62L168.615 2197.32L168.262 2196.97ZM166.5 2191.28L166.5 2189.28L166.5 2188.78L167.5 2188.78L167.5 2189.28L167.5 2191.78L166.5 2191.78L166.5 2191.28ZM166.5 2185.28L166.5 2184.79L168.414 2182.88L169.121 2183.59L167.354 2185.35L167 2185L167.5 2185L167.5 2185.78L166.5 2185.78L166.5 2185.28Z"/>
		<path fill="white" d="M164 2182L169 2177L194 2177L199 2182L199 2193L194 2198L169 2198L164 2193L164 2182Z"/>
		<path fill="none" stroke="black" stroke-width="1" stroke-linecap="square" stroke-miterlimit="4" transform="translate(0.5 0.5)" d="M183 2198L189 2204L192 2201"/>
		<path fill="none" stroke="black" stroke-width="1" stroke-linecap="square" stroke-miterlimit="4" transform="translate(0.5 0.5)" d="M169 2187L174 2187L178 2183"/>
		<path fill="none" stroke="black" stroke-width="1" stroke-linecap="square" stroke-miterlimit="4" transform="translate(0.5 0.5)" d="M184 2187L192 2187"/>
		<path fill="none" stroke="black" stroke-width="1" stroke-linecap="square" stroke-miterlimit="4" transform="translate(0.5 0.5)" d="M184 2183L188 2183L188 2191L184 2191"/>
		<rect x="180" y="2182" width="3" height="3"/>
		<rect x="180" y="2186" width="3" height="3"/>
		<rect x="180" y="2190" width="3" height="3"/>
		<text font-size="12" font-family="Segoe UI" x="168.76562, " y="2217, ">
				0
		</text>
		<text font-size="12" font-family="Symbol" x="183.72266, " y="2216, ">
				
		</text>
		<text font-size="12" font-family="Segoe UI" x="176.89844, 179.5, " y="2217, ">
				..
		</text>
		<path transform="translate(0.5 0.5)" d="M167.889 2177.4L168.793 2176.5L169.929 2176.5L170.429 2176.5L170.429 2177.5L169.929 2177.5L169 2177.5L169 2177L169.354 2177.35L168.243 2178.46L167.536 2177.76L167.889 2177.4ZM173.929 2176.5L175.929 2176.5L176.429 2176.5L176.429 2177.5L175.929 2177.5L173.429 2177.5L173.429 2176.5L173.929 2176.5ZM179.929 2176.5L181.929 2176.5L182.429 2176.5L182.429 2177.5L181.929 2177.5L179.429 2177.5L179.429 2176.5L179.929 2176.5ZM185.929 2176.5L187.929 2176.5L188.429 2176.5L188.429 2177.5L187.929 2177.5L185.429 2177.5L185.429 2176.5L185.929 2176.5ZM191.929 2176.5L193.207 2176.5L194.01 2177.3L194.364 2177.66L193.657 2178.36L193.303 2178.01L192.646 2177.35L193 2177L193 2177.5L191.429 2177.5L191.429 2176.5L191.929 2176.5ZM196.839 2180.13L198.253 2181.55L198.607 2181.9L197.9 2182.61L197.546 2182.25L195.778 2180.49L196.485 2179.78L196.839 2180.13ZM198.5 2185.86L198.5 2187.86L198.5 2188.36L197.5 2188.36L197.5 2187.86L197.5 2185.36L198.5 2185.36L198.5 2185.86ZM198.5 2191.86L198.5 2192.21L197.04 2193.67L196.686 2194.02L195.979 2193.31L196.333 2192.96L197.646 2191.65L198 2192L197.5 2192L197.5 2191.36L198.5 2191.36L198.5 2191.86ZM194.211 2196.5L193.207 2197.5L192.213 2197.5L191.713 2197.5L191.713 2196.5L192.213 2196.5L193 2196.5L193 2197L192.646 2196.65L193.858 2195.44L194.565 2196.14L194.211 2196.5ZM188.213 2197.5L186.213 2197.5L185.713 2197.5L185.713 2196.5L186.213 2196.5L188.713 2196.5L188.713 2197.5L188.213 2197.5ZM182.213 2197.5L180.213 2197.5L179.713 2197.5L179.713 2196.5L180.213 2196.5L182.713 2196.5L182.713 2197.5L182.213 2197.5ZM176.213 2197.5L174.213 2197.5L173.713 2197.5L173.713 2196.5L174.213 2196.5L176.713 2196.5L176.713 2197.5L176.213 2197.5ZM170.213 2197.5L168.793 2197.5L168.09 2196.8L167.737 2196.44L168.444 2195.74L168.797 2196.09L169.354 2196.65L169 2197L169 2196.5L170.713 2196.5L170.713 2197.5L170.213 2197.5ZM165.262 2193.97L163.847 2192.55L163.494 2192.2L164.201 2191.49L164.555 2191.85L166.322 2193.62L165.615 2194.32L165.262 2193.97ZM163.5 2188.28L163.5 2186.28L163.5 2185.78L164.5 2185.78L164.5 2186.28L164.5 2188.78L163.5 2188.78L163.5 2188.28ZM163.5 2182.28L163.5 2181.79L165.414 2179.88L166.121 2180.59L164.354 2182.35L164 2182L164.5 2182L164.5 2182.78L163.5 2182.78L163.5 2182.28Z"/>
		<rect fill="silver" x="237" y="2150" width="54" height="21"/>
		<rect fill="white" x="233" y="2146" width="54" height="21"/>
		<rect fill="#FFFFC0" x="238" y="2173" width="115" height="24"/>
		<text fill="gray" font-size="9" font-family="Segoe UI" x="238, 243.80518, 246.27051, 251.36377, 255.94287, 258.99268, 264.08594, 267.21484, 271.79395, 273.97363, 276.43896, 278.61865, 283.19775, 288.29102, 293.59082, 298.68408, 303.26318, 308.56299, 313.26953, 315.73486, 320.82812, 325.40723, 333.15918, 337.86572, 340.33105, 343.14795, 348.42139, " y="2183, ">
				A natural language name for
		</text>
		<text fill="gray" font-size="9" font-family="Segoe UI" x="238, 241.0498, 246.14307, 250.84961, 253.31494, 257.47217, 262.74561, 267.83887, 271.99609, 276.70264, 281.99365, 285.04346, " y="2195, ">
				the concept.
		</text>
		<rect fill="white" x="242" y="2148" width="33" height="16"/>
		<text font-size="12" font-weight="600" font-family="Segoe UI" x="242, 249.25977, 255.7168, 266.70898, " y="2161, ">
				name
		</text>
		<path fill="none" stroke="black" stroke-width="1" stroke-linecap="square" stroke-miterlimit="4" transform="translate(0.5 0.5)" d="M235 2148L240 2148"/>
		<path fill="none" stroke="black" stroke-width="1" stroke-linecap="square" stroke-miterlimit="4" transform="translate(0.5 0.5)" d="M235 2150L239 2150"/>
		<path fill="none" stroke="black" stroke-width="1" stroke-linecap="square" stroke-miterlimit="4" transform="translate(0.5 0.5)" d="M235 2152L239 2152"/>
		<path fill="none" stroke="black" stroke-width="2" stroke-miterlimit="4" transform="translate(0.5 0.5)" d="M235 2164L239 2160"/>
		<path fill="none" stroke="black" stroke-width="1" stroke-linecap="square" stroke-miterlimit="4" transform="translate(0.5 0.5)" d="M236 2160L239 2160L239 2163"/>
		<rect fill="none" stroke="black" stroke-width="1" stroke-linecap="square" stroke-miterlimit="4" transform="translate(0.5 0.5)" x="233" y="2146" width="53" height="20"/>
		<rect x="281" y="2151" width="11" height="11"/>
		<rect fill="white" x="282" y="2152" width="9" height="9"/>
		<rect x="283" y="2156" width="7" height="1"/>
		<rect x="286" y="2153" width="1" height="7"/>
		<rect fill="silver" x="237" y="2213" width="98" height="21"/>
		<rect fill="white" x="233" y="2209" width="98" height="21"/>
		<rect fill="#FFFFC0" x="238" y="2236" width="121" height="72"/>
		<text fill="gray" font-size="9" font-family="Segoe UI" x="238, 243.11963, 247.82617, 253.11719, 256.24609, 260.95264, 264.77148, 269.47803, 274.57129, 277.62109, 281.43994, 283.90527, 286.95508, 292.04834, 296.75488, 299.22021, 304.51123, 309.78467, 313.60352, 315.7832, 318.83301, 321.0127, 326.28613, 331.37939, 333.84473, 339.11816, 341.93506, 344.40039, " y="2246, ">
				Represents the position of a
		</text>
		<text fill="gray" font-size="9" font-family="Segoe UI" x="238, 242.15723, 247.43066, 252.52393, 256.68115, 261.3877, 266.67871, 269.72852, 272.19385, 274.37354, 279.4668, 281.93213, 286.51123, 288.97656, 294.06982, 296.24951, 300.95605, 304.08496, 308.66406, 311.79297, 315.9502, 321.04346, 323.22314, 327.38037, 331.95947, " y="2258, ">
				concept in a hierarchical
		</text>
		<text fill="gray" font-size="9" font-family="Segoe UI" x="238, 241.0498, 245.62891, 249.75977, 255.0332, 260.12646, 265.3999, 273.15186, 277.50684, 279.97217, 283.02197, 286.15088, 290.85742, 295.56396, 298.0293, 303.32031, 307.67529, 310.14062, 314.71973, 317.18506, 321.00391, 325.71045, 331.01025, 336.10352, 340.81006, 345.90332, 350.06055, " y="2270, ">
				taxonomy tree by a sequence
		</text>
		<text fill="gray" font-size="9" font-family="Segoe UI" x="238, 243.27344, 246.09033, 248.55566, 255.34082, 260.91309, 266.18652, 271.48633, 276.19287, 278.6582, 281.70801, 286.98145, 291.45508, 296.16162, 301.25488, 305.07373, 307.53906, 310.66797, 315.37451, 320.66553, 323.79443, 328.50098, 332.31982, 337.02637, 342.11963, 345.16943, 347.34912, 352.44238, " y="2282, ">
				of QCode tokens representing
		</text>
		<text fill="gray" font-size="9" font-family="Segoe UI" x="238, 241.0498, 246.14307, 250.84961, 253.31494, 257.89404, 262.9873, 267.14453, 271.85107, 275.66992, 278.71973, 283.99316, 287.12207, 289.5874, 293.74463, 299.01807, 304.11133, 308.26855, 312.9751, 318.26611, 321.31592, 325.13477, 327.6001, 332.1792, 337.27246, " y="2294, ">
				the ancestor concepts and
		</text>
		<text fill="gray" font-size="9" font-family="Segoe UI" x="238, 241.0498, 246.14307, 248.32275, 252.1416, 254.60693, 258.76416, 264.0376, 269.13086, 273.28809, 277.99463, 283.28564, " y="2306, ">
				this concept
		</text>
		<rect fill="white" x="242" y="2211" width="77" height="16"/>
		<text font-size="12" font-weight="600" font-family="Segoe UI" x="242, 249.22461, 252.63477, 259.12695, 263.90234, 270.35938, 275.08789, 280.84766, 288.07227, 294.5293, 298.33203, 305.5918, 310.19141, " y="2224, ">
				hierarchyInfo
		</text>
		<path fill="none" stroke="black" stroke-width="1" stroke-linecap="square" stroke-miterlimit="4" transform="translate(0.5 0.5)" d="M235 2211L240 2211"/>
		<path fill="none" stroke="black" stroke-width="1" stroke-linecap="square" stroke-miterlimit="4" transform="translate(0.5 0.5)" d="M235 2213L239 2213"/>
		<path fill="none" stroke="black" stroke-width="1" stroke-linecap="square" stroke-miterlimit="4" transform="translate(0.5 0.5)" d="M235 2215L239 2215"/>
		<path fill="none" stroke="black" stroke-width="2" stroke-miterlimit="4" transform="translate(0.5 0.5)" d="M235 2227L239 2223"/>
		<path fill="none" stroke="black" stroke-width="1" stroke-linecap="square" stroke-miterlimit="4" transform="translate(0.5 0.5)" d="M236 2223L239 2223L239 2226"/>
		<rect fill="none" stroke="black" stroke-width="1" stroke-linecap="square" stroke-miterlimit="4" transform="translate(0.5 0.5)" x="233" y="2209" width="97" height="20"/>
		<rect x="325" y="2214" width="11" height="11"/>
		<rect fill="white" x="326" y="2215" width="9" height="9"/>
		<rect x="327" y="2219" width="7" height="1"/>
		<rect x="330" y="2216" width="1" height="7"/>
		<rect x="198" y="2182" width="11" height="11"/>
		<rect fill="white" x="199" y="2183" width="9" height="9"/>
		<rect x="200" y="2187" width="7" height="1"/>
		<path fill="none" stroke="black" stroke-width="1" stroke-linecap="square" stroke-miterlimit="4" transform="translate(0.5 0.5)" d="M209 2429L217 2429"/>
		<path fill="none" stroke="black" stroke-width="1" stroke-linecap="square" stroke-miterlimit="4" transform="translate(0.5 0.5)" d="M218 2429L218 2331"/>
		<path fill="none" stroke="black" stroke-width="1" stroke-linecap="square" stroke-miterlimit="4" transform="translate(0.5 0.5)" d="M218 2429L218 2527"/>
		<path fill="none" stroke="black" stroke-width="1" stroke-linecap="square" stroke-miterlimit="4" transform="translate(0.5 0.5)" d="M218 2330L232 2330"/>
		<path fill="none" stroke="black" stroke-width="1" stroke-linecap="square" stroke-miterlimit="4" transform="translate(0.5 0.5)" d="M218 2441L232 2441"/>
		<path fill="none" stroke="black" stroke-width="1" stroke-linecap="square" stroke-miterlimit="4" transform="translate(0.5 0.5)" d="M218 2528L232 2528"/>
		<path fill="silver" d="M171 2431L176 2426L201 2426L206 2431L206 2442L201 2447L176 2447L171 2442L171 2431Z"/>
		<path fill="white" d="M167 2427L172 2422L196 2422L201 2427L201 2437L196 2442L172 2442L167 2437L167 2427Z"/>
		<path transform="translate(0.5 0.5)" d="M170.889 2422.4L171.793 2421.5L172.929 2421.5L173.429 2421.5L173.429 2422.5L172.929 2422.5L172 2422.5L172 2422L172.354 2422.35L171.243 2423.46L170.536 2422.76L170.889 2422.4ZM176.929 2421.5L178.929 2421.5L179.429 2421.5L179.429 2422.5L178.929 2422.5L176.429 2422.5L176.429 2421.5L176.929 2421.5ZM182.929 2421.5L184.929 2421.5L185.429 2421.5L185.429 2422.5L184.929 2422.5L182.429 2422.5L182.429 2421.5L182.929 2421.5ZM188.929 2421.5L190.929 2421.5L191.429 2421.5L191.429 2422.5L190.929 2422.5L188.429 2422.5L188.429 2421.5L188.929 2421.5ZM194.929 2421.5L196.207 2421.5L197.01 2422.3L197.364 2422.66L196.657 2423.36L196.303 2423.01L195.646 2422.35L196 2422L196 2422.5L194.429 2422.5L194.429 2421.5L194.929 2421.5ZM199.839 2425.13L201.253 2426.55L201.607 2426.9L200.9 2427.61L200.546 2427.25L198.778 2425.49L199.485 2424.78L199.839 2425.13ZM201.5 2430.86L201.5 2432.86L201.5 2433.36L200.5 2433.36L200.5 2432.86L200.5 2430.36L201.5 2430.36L201.5 2430.86ZM201.5 2436.86L201.5 2437.21L200.04 2438.67L199.686 2439.02L198.979 2438.31L199.333 2437.96L200.646 2436.65L201 2437L200.5 2437L200.5 2436.36L201.5 2436.36L201.5 2436.86ZM197.211 2441.5L196.207 2442.5L195.213 2442.5L194.713 2442.5L194.713 2441.5L195.213 2441.5L196 2441.5L196 2442L195.646 2441.65L196.858 2440.44L197.565 2441.14L197.211 2441.5ZM191.213 2442.5L189.213 2442.5L188.713 2442.5L188.713 2441.5L189.213 2441.5L191.713 2441.5L191.713 2442.5L191.213 2442.5ZM185.213 2442.5L183.213 2442.5L182.713 2442.5L182.713 2441.5L183.213 2441.5L185.713 2441.5L185.713 2442.5L185.213 2442.5ZM179.213 2442.5L177.213 2442.5L176.713 2442.5L176.713 2441.5L177.213 2441.5L179.713 2441.5L179.713 2442.5L179.213 2442.5ZM173.213 2442.5L171.793 2442.5L171.09 2441.8L170.737 2441.44L171.444 2440.74L171.797 2441.09L172.354 2441.65L172 2442L172 2441.5L173.713 2441.5L173.713 2442.5L173.213 2442.5ZM168.262 2438.97L166.847 2437.55L166.494 2437.2L167.201 2436.49L167.555 2436.85L169.322 2438.62L168.615 2439.32L168.262 2438.97ZM166.5 2433.28L166.5 2431.28L166.5 2430.78L167.5 2430.78L167.5 2431.28L167.5 2433.78L166.5 2433.78L166.5 2433.28ZM166.5 2427.28L166.5 2426.79L168.414 2424.88L169.121 2425.59L167.354 2427.35L167 2427L167.5 2427L167.5 2427.78L166.5 2427.78L166.5 2427.28Z"/>
		<path fill="white" d="M164 2424L169 2419L194 2419L199 2424L199 2435L194 2440L169 2440L164 2435L164 2424Z"/>
		<path fill="none" stroke="black" stroke-width="1" stroke-linecap="square" stroke-miterlimit="4" transform="translate(0.5 0.5)" d="M183 2440L189 2446L192 2443"/>
		<path fill="none" stroke="black" stroke-width="1" stroke-linecap="square" stroke-miterlimit="4" transform="translate(0.5 0.5)" d="M169 2429L174 2429L178 2425"/>
		<path fill="none" stroke="black" stroke-width="1" stroke-linecap="square" stroke-miterlimit="4" transform="translate(0.5 0.5)" d="M184 2429L192 2429"/>
		<path fill="none" stroke="black" stroke-width="1" stroke-linecap="square" stroke-miterlimit="4" transform="translate(0.5 0.5)" d="M184 2425L188 2425L188 2433L184 2433"/>
		<rect x="180" y="2424" width="3" height="3"/>
		<rect x="180" y="2428" width="3" height="3"/>
		<rect x="180" y="2432" width="3" height="3"/>
		<text font-size="12" font-family="Segoe UI" x="168.76562, " y="2459, ">
				0
		</text>
		<text font-size="12" font-family="Symbol" x="183.72266, " y="2458, ">
				
		</text>
		<text font-size="12" font-family="Segoe UI" x="176.89844, 179.5, " y="2459, ">
				..
		</text>
		<path transform="translate(0.5 0.5)" d="M167.889 2419.4L168.793 2418.5L169.929 2418.5L170.429 2418.5L170.429 2419.5L169.929 2419.5L169 2419.5L169 2419L169.354 2419.35L168.243 2420.46L167.536 2419.76L167.889 2419.4ZM173.929 2418.5L175.929 2418.5L176.429 2418.5L176.429 2419.5L175.929 2419.5L173.429 2419.5L173.429 2418.5L173.929 2418.5ZM179.929 2418.5L181.929 2418.5L182.429 2418.5L182.429 2419.5L181.929 2419.5L179.429 2419.5L179.429 2418.5L179.929 2418.5ZM185.929 2418.5L187.929 2418.5L188.429 2418.5L188.429 2419.5L187.929 2419.5L185.429 2419.5L185.429 2418.5L185.929 2418.5ZM191.929 2418.5L193.207 2418.5L194.01 2419.3L194.364 2419.66L193.657 2420.36L193.303 2420.01L192.646 2419.35L193 2419L193 2419.5L191.429 2419.5L191.429 2418.5L191.929 2418.5ZM196.839 2422.13L198.253 2423.55L198.607 2423.9L197.9 2424.61L197.546 2424.25L195.778 2422.49L196.485 2421.78L196.839 2422.13ZM198.5 2427.86L198.5 2429.86L198.5 2430.36L197.5 2430.36L197.5 2429.86L197.5 2427.36L198.5 2427.36L198.5 2427.86ZM198.5 2433.86L198.5 2434.21L197.04 2435.67L196.686 2436.02L195.979 2435.31L196.333 2434.96L197.646 2433.65L198 2434L197.5 2434L197.5 2433.36L198.5 2433.36L198.5 2433.86ZM194.211 2438.5L193.207 2439.5L192.213 2439.5L191.713 2439.5L191.713 2438.5L192.213 2438.5L193 2438.5L193 2439L192.646 2438.65L193.858 2437.44L194.565 2438.14L194.211 2438.5ZM188.213 2439.5L186.213 2439.5L185.713 2439.5L185.713 2438.5L186.213 2438.5L188.713 2438.5L188.713 2439.5L188.213 2439.5ZM182.213 2439.5L180.213 2439.5L179.713 2439.5L179.713 2438.5L180.213 2438.5L182.713 2438.5L182.713 2439.5L182.213 2439.5ZM176.213 2439.5L174.213 2439.5L173.713 2439.5L173.713 2438.5L174.213 2438.5L176.713 2438.5L176.713 2439.5L176.213 2439.5ZM170.213 2439.5L168.793 2439.5L168.09 2438.8L167.737 2438.44L168.444 2437.74L168.797 2438.09L169.354 2438.65L169 2439L169 2438.5L170.713 2438.5L170.713 2439.5L170.213 2439.5ZM165.262 2435.97L163.847 2434.55L163.494 2434.2L164.201 2433.49L164.555 2433.85L166.322 2435.62L165.615 2436.32L165.262 2435.97ZM163.5 2430.28L163.5 2428.28L163.5 2427.78L164.5 2427.78L164.5 2428.28L164.5 2430.78L163.5 2430.78L163.5 2430.28ZM163.5 2424.28L163.5 2423.79L165.414 2421.88L166.121 2422.59L164.354 2424.35L164 2424L164.5 2424L164.5 2424.78L163.5 2424.78L163.5 2424.28Z"/>
		<rect fill="silver" x="237" y="2324" width="52" height="21"/>
		<rect fill="white" x="233" y="2320" width="52" height="21"/>
		<rect fill="#FFFFC0" x="238" y="2347" width="121" height="72"/>
		<text fill="gray" font-size="9" font-family="Segoe UI" x="238, 240.39502, 245.48828, 247.95361, 254.68604, 260.49121, 265.87451, 268.33984, 273.19141, 275.14258, 279.99414, 282.45947, 287.03857, 292.13184, 297.43164, 299.89697, 302.07666, 306.65576, 309.70557, 314.41211, 317.54102, 319.49219, 321.95752, 324.77441, 329.35352, 333.51074, 338.21729, 341.26709, 343.73242, 345.91211, " y="2357, ">
				In NAR 1.8 and later, facet is
		</text>
		<text fill="gray" font-size="9" font-family="Segoe UI" x="238, 243.2998, 248.00635, 253.29736, 256.42627, 261.13281, 265.29004, 269.86914, 272.91895, 277.62549, 282.92529, 285.39062, 289.96973, 295.06299, 300.36279, 302.82812, 307.60938, 313.99902, 320.78418, 326.96729, 331.20361, 337.51416, 339.97949, 346.71191, 353.09277, " y="2369, ">
				deprecated and SHOULD NOT
		</text>
		<text fill="gray" font-size="9" font-family="Segoe UI" x="238, 240.71582, 244.53467, 249.24121, 253.94775, 256.41309, 261.79639, 266.19092, 271.76318, 274.22852, 279.08008, 283.93164, 288.7832, 293.63477, 296.35059, 298.81592, 304.10693, 308.81348, 311.27881, 316.37207, 320.19092, 324.89746, 330.19727, 332.14844, 334.61377, 337.66357, 342.75684, " y="2381, ">
				(see RFC 2119) be used, the
		</text>
		<text fill="gray" font-size="9" font-family="Segoe UI" x="238, 241.52881, 244.65771, 249.36426, 251.54395, 256.12305, 259.17285, 263.87939, 269.1792, 272.70801, 275.17334, 280.46436, 283.59326, 288.8667, 294.15771, 298.86426, 301.99316, 305.04297, 309.39795, 311.86328, 315.68213, 320.77539, 326.04883, 331.14209, 333.32178, 338.62158, 341.08691, 346.37793, " y="2393, ">
				&quot;related&quot; property should be
		</text>
		<text fill="gray" font-size="9" font-family="Segoe UI" x="238, 243.09326, 246.91211, 251.61865, 256.91846, 259.38379, 261.56348, 266.65674, 270.47559, 273.52539, 278.23193, 282.81104, 288.11084, 290.57617, 293.29199, 299.7959, 304.375, 308.19385, 310.14502, 312.61035, 318.41553, 323.50879, 325.97412, 328.15381, 333.24707, 336.29688, 339.42578, 341.60547, 346.69873, 350.51758, 352.69727, " y="2405, ">
				used instead (was: An intrinsic
		</text>
		<text fill="gray" font-size="9" font-family="Segoe UI" x="238, 243.29102, 246.41992, 251.69336, 256.98438, 261.69092, 264.81982, 267.86963, 272.22461, 274.68994, 279.96338, 282.78027, 285.24561, 288.29541, 293.38867, 298.09521, 300.56055, 304.71777, 309.99121, 315.08447, 319.2417, 323.94824, 329.23926, 332.28906, 334.24023, " y="2417, ">
				property of the concept.)
		</text>
		<rect fill="white" x="242" y="2322" width="31" height="16"/>
		<text font-size="12" font-weight="600" font-family="Segoe UI" x="242, 246.59961, 253.05664, 258.81641, 265.30859, " y="2335, ">
				facet
		</text>
		<path fill="none" stroke="black" stroke-width="2" stroke-miterlimit="4" transform="translate(0.5 0.5)" d="M235 2338L239 2334"/>
		<path fill="none" stroke="black" stroke-width="1" stroke-linecap="square" stroke-miterlimit="4" transform="translate(0.5 0.5)" d="M236 2334L239 2334L239 2337"/>
		<rect fill="none" stroke="black" stroke-width="1" stroke-linecap="square" stroke-miterlimit="4" transform="translate(0.5 0.5)" x="233" y="2320" width="51" height="20"/>
		<rect x="279" y="2325" width="11" height="11"/>
		<rect fill="white" x="280" y="2326" width="9" height="9"/>
		<rect x="281" y="2330" width="7" height="1"/>
		<rect x="284" y="2327" width="1" height="7"/>
		<rect fill="silver" x="237" y="2435" width="62" height="21"/>
		<rect fill="white" x="233" y="2431" width="62" height="21"/>
		<rect fill="#FFFFC0" x="238" y="2458" width="115" height="48"/>
		<text fill="gray" font-size="9" font-family="Segoe UI" x="238, 243.80518, 246.27051, 249.39941, 254.10596, 256.28564, 260.86475, 263.91455, 268.62109, 273.9209, 276.38623, 280.54346, 285.81689, 290.91016, 295.06738, 299.77393, 305.06494, 308.11475, 310.06592, 312.53125, 319.03516, 324.12842, 328.83496, 331.96387, 336.67041, 339.13574, 342.18555, 347.27881, " y="2468, ">
				A related concept, where the
		</text>
		<text fill="gray" font-size="9" font-family="Segoe UI" x="238, 241.12891, 245.83545, 248.01514, 252.59424, 255.64404, 257.82373, 263.09717, 268.19043, 272.00928, 277.10254, 279.28223, 284.57324, 287.03857, 289.21826, 293.03711, 295.50244, 300.80225, 302.98193, 305.79883, 308.61572, 313.32227, 316.45117, 321.15771, 326.25098, 329.30078, 331.76611, 334.58301, 337.71191, 342.98535, " y="2480, ">
				relationship is different from
		</text>
		<text fill="gray" font-size="9" font-family="Segoe UI" x="238, 240.06982, 243.88867, 248.46777, 256.21973, 260.92627, 266.73145, 270.55029, 272.62012, 274.57129, 277.03662, 279.10645, 284.39746, 287.52637, 292.7998, 297.37891, 302.67871, 307.38525, 310.51416, 312.58398, 315.04932, 320.32275, " y="2492, ">
				&apos;sameAs&apos;, &apos;broader&apos; or
		</text>
		<text fill="gray" font-size="9" font-family="Segoe UI" x="238, 240.06982, 245.16309, 249.74219, 252.87109, 256, 261.27344, 267.77734, 272.48389, 275.61279, 277.68262, " y="2504, ">
				&apos;narrower&apos;.
		</text>
		<rect fill="white" x="242" y="2433" width="41" height="16"/>
		<text font-size="12" font-weight="600" font-family="Segoe UI" x="242, 246.72852, 253.2207, 256.63086, 263.08789, 267.71094, 274.20312, " y="2446, ">
				related
		</text>
		<rect fill="none" stroke="black" stroke-width="1" stroke-linecap="square" stroke-miterlimit="4" transform="translate(0.5 0.5)" x="233" y="2431" width="61" height="20"/>
		<rect x="289" y="2436" width="11" height="11"/>
		<rect fill="white" x="290" y="2437" width="9" height="9"/>
		<rect x="291" y="2441" width="7" height="1"/>
		<rect x="294" y="2438" width="1" height="7"/>
		<rect fill="silver" x="237" y="2522" width="65" height="21"/>
		<rect fill="white" x="233" y="2518" width="65" height="21"/>
		<rect fill="#FFFFC0" x="238" y="2545" width="121" height="24"/>
		<text fill="gray" font-size="9" font-family="Segoe UI" x="238, 243.80518, 248.89844, 251.36377, 253.54346, 258.84326, 263.5498, 268.64307, 271.69287, 273.87256, 276.68945, 278.86914, 283.57568, 286.70459, 289.16992, 294.44336, 297.26025, 299.72559, 304.30469, 306.77002, 310.92725, 316.20068, 321.29395, 325.45117, 330.15771, 335.44873, 338.49854, 340.96387, 347.46777, 349.64746, 352.69727, " y="2555, ">
				An identifier of a concept with
		</text>
		<text fill="gray" font-size="9" font-family="Segoe UI" x="238, 242.70654, 248.00635, 253.09961, 255.2793, 259.59033, 264.16943, 266.34912, 271.05566, 276.14893, 279.19873, 281.66406, 285.48291, 290.18945, 297.94141, 302.52051, 307.61377, 310.66357, 312.84326, 317.00049, " y="2567, ">
				equivalent semantics
		</text>
		<rect fill="white" x="242" y="2520" width="44" height="16"/>
		<text font-size="12" font-weight="600" font-family="Segoe UI" x="242, 247.2793, 253.73633, 264.72852, 271.2207, 279.6582, " y="2533, ">
				sameAs
		</text>
		<path fill="none" stroke="black" stroke-width="2" stroke-miterlimit="4" transform="translate(0.5 0.5)" d="M235 2536L239 2532"/>
		<path fill="none" stroke="black" stroke-width="1" stroke-linecap="square" stroke-miterlimit="4" transform="translate(0.5 0.5)" d="M236 2532L239 2532L239 2535"/>
		<rect fill="none" stroke="black" stroke-width="1" stroke-linecap="square" stroke-miterlimit="4" transform="translate(0.5 0.5)" x="233" y="2518" width="64" height="20"/>
		<rect x="292" y="2523" width="11" height="11"/>
		<rect fill="white" x="293" y="2524" width="9" height="9"/>
		<rect x="294" y="2528" width="7" height="1"/>
		<rect x="297" y="2525" width="1" height="7"/>
		<rect x="198" y="2424" width="11" height="11"/>
		<rect fill="white" x="199" y="2425" width="9" height="9"/>
		<rect x="200" y="2429" width="7" height="1"/>
		<rect x="91" y="1752" width="11" height="11"/>
		<rect fill="white" x="92" y="1753" width="9" height="9"/>
		<rect x="93" y="1757" width="7" height="1"/>
	</g>
</svg>
