<?xml version="1.0" encoding="utf-8" ?>
<svg xmlns="http://www.w3.org/2000/svg" xmlns:xlink="http://www.w3.org/1999/xlink" width="377" height="2097">
	<clipPath id="cl_426">
		<rect x="-10" y="-5" width="377" height="2097"/>
	</clipPath>
	<g clip-path="url(#cl_426)">
		<path fill="none" stroke="black" stroke-width="1" stroke-linecap="square" stroke-miterlimit="4" transform="translate(0.5 0.5)" d="M57 1399L127 1399"/>
		<path fill="none" stroke="black" stroke-width="1" stroke-linecap="square" stroke-miterlimit="4" transform="translate(0.5 0.5)" d="M128 1399L128 891"/>
		<path transform="translate(0.5 0.5)" d="M128.5 1399L128.5 1401L128.5 1401.5L127.5 1401.5L127.5 1401L127.5 1398.5L128.5 1398.5L128.5 1399ZM128.5 1405L128.5 1407L128.5 1407.5L127.5 1407.5L127.5 1407L127.5 1404.5L128.5 1404.5L128.5 1405ZM128.5 1411L128.5 1413L128.5 1413.5L127.5 1413.5L127.5 1413L127.5 1410.5L128.5 1410.5L128.5 1411ZM128.5 1417L128.5 1419L128.5 1419.5L127.5 1419.5L127.5 1419L127.5 1416.5L128.5 1416.5L128.5 1417ZM128.5 1423L128.5 1425L128.5 1425.5L127.5 1425.5L127.5 1425L127.5 1422.5L128.5 1422.5L128.5 1423ZM128.5 1429L128.5 1431L128.5 1431.5L127.5 1431.5L127.5 1431L127.5 1428.5L128.5 1428.5L128.5 1429ZM128.5 1435L128.5 1437L128.5 1437.5L127.5 1437.5L127.5 1437L127.5 1434.5L128.5 1434.5L128.5 1435ZM128.5 1441L128.5 1443L128.5 1443.5L127.5 1443.5L127.5 1443L127.5 1440.5L128.5 1440.5L128.5 1441ZM128.5 1447L128.5 1449L128.5 1449.5L127.5 1449.5L127.5 1449L127.5 1446.5L128.5 1446.5L128.5 1447ZM128.5 1453L128.5 1455L128.5 1455.5L127.5 1455.5L127.5 1455L127.5 1452.5L128.5 1452.5L128.5 1453ZM128.5 1459L128.5 1461L128.5 1461.5L127.5 1461.5L127.5 1461L127.5 1458.5L128.5 1458.5L128.5 1459ZM128.5 1465L128.5 1467L128.5 1467.5L127.5 1467.5L127.5 1467L127.5 1464.5L128.5 1464.5L128.5 1465ZM128.5 1471L128.5 1473L128.5 1473.5L127.5 1473.5L127.5 1473L127.5 1470.5L128.5 1470.5L128.5 1471ZM128.5 1477L128.5 1479L128.5 1479.5L127.5 1479.5L127.5 1479L127.5 1476.5L128.5 1476.5L128.5 1477ZM128.5 1483L128.5 1485L128.5 1485.5L127.5 1485.5L127.5 1485L127.5 1482.5L128.5 1482.5L128.5 1483ZM128.5 1489L128.5 1491L128.5 1491.5L127.5 1491.5L127.5 1491L127.5 1488.5L128.5 1488.5L128.5 1489ZM128.5 1495L128.5 1497L128.5 1497.5L127.5 1497.5L127.5 1497L127.5 1494.5L128.5 1494.5L128.5 1495ZM128.5 1501L128.5 1503L128.5 1503.5L127.5 1503.5L127.5 1503L127.5 1500.5L128.5 1500.5L128.5 1501ZM128.5 1507L128.5 1509L128.5 1509.5L127.5 1509.5L127.5 1509L127.5 1506.5L128.5 1506.5L128.5 1507ZM128.5 1513L128.5 1515L128.5 1515.5L127.5 1515.5L127.5 1515L127.5 1512.5L128.5 1512.5L128.5 1513ZM128.5 1519L128.5 1521L128.5 1521.5L127.5 1521.5L127.5 1521L127.5 1518.5L128.5 1518.5L128.5 1519ZM128.5 1525L128.5 1527L128.5 1527.5L127.5 1527.5L127.5 1527L127.5 1524.5L128.5 1524.5L128.5 1525ZM128.5 1531L128.5 1533L128.5 1533.5L127.5 1533.5L127.5 1533L127.5 1530.5L128.5 1530.5L128.5 1531ZM128.5 1537L128.5 1539L128.5 1539.5L127.5 1539.5L127.5 1539L127.5 1536.5L128.5 1536.5L128.5 1537ZM128.5 1543L128.5 1545L128.5 1545.5L127.5 1545.5L127.5 1545L127.5 1542.5L128.5 1542.5L128.5 1543ZM128.5 1549L128.5 1551L128.5 1551.5L127.5 1551.5L127.5 1551L127.5 1548.5L128.5 1548.5L128.5 1549ZM128.5 1555L128.5 1557L128.5 1557.5L127.5 1557.5L127.5 1557L127.5 1554.5L128.5 1554.5L128.5 1555ZM128.5 1561L128.5 1563L128.5 1563.5L127.5 1563.5L127.5 1563L127.5 1560.5L128.5 1560.5L128.5 1561ZM128.5 1567L128.5 1569L128.5 1569.5L127.5 1569.5L127.5 1569L127.5 1566.5L128.5 1566.5L128.5 1567ZM128.5 1573L128.5 1575L128.5 1575.5L127.5 1575.5L127.5 1575L127.5 1572.5L128.5 1572.5L128.5 1573ZM128.5 1579L128.5 1581L128.5 1581.5L127.5 1581.5L127.5 1581L127.5 1578.5L128.5 1578.5L128.5 1579ZM128.5 1585L128.5 1587L128.5 1587.5L127.5 1587.5L127.5 1587L127.5 1584.5L128.5 1584.5L128.5 1585ZM128.5 1591L128.5 1593L128.5 1593.5L127.5 1593.5L127.5 1593L127.5 1590.5L128.5 1590.5L128.5 1591ZM128.5 1597L128.5 1599L128.5 1599.5L127.5 1599.5L127.5 1599L127.5 1596.5L128.5 1596.5L128.5 1597ZM128.5 1603L128.5 1605L128.5 1605.5L127.5 1605.5L127.5 1605L127.5 1602.5L128.5 1602.5L128.5 1603ZM128.5 1609L128.5 1611L128.5 1611.5L127.5 1611.5L127.5 1611L127.5 1608.5L128.5 1608.5L128.5 1609ZM128.5 1615L128.5 1617L128.5 1617.5L127.5 1617.5L127.5 1617L127.5 1614.5L128.5 1614.5L128.5 1615ZM128.5 1621L128.5 1623L128.5 1623.5L127.5 1623.5L127.5 1623L127.5 1620.5L128.5 1620.5L128.5 1621ZM128.5 1627L128.5 1629L128.5 1629.5L127.5 1629.5L127.5 1629L127.5 1626.5L128.5 1626.5L128.5 1627ZM128.5 1633L128.5 1635L128.5 1635.5L127.5 1635.5L127.5 1635L127.5 1632.5L128.5 1632.5L128.5 1633ZM128.5 1639L128.5 1641L128.5 1641.5L127.5 1641.5L127.5 1641L127.5 1638.5L128.5 1638.5L128.5 1639ZM128.5 1645L128.5 1647L128.5 1647.5L127.5 1647.5L127.5 1647L127.5 1644.5L128.5 1644.5L128.5 1645ZM128.5 1651L128.5 1653L128.5 1653.5L127.5 1653.5L127.5 1653L127.5 1650.5L128.5 1650.5L128.5 1651ZM128.5 1657L128.5 1659L128.5 1659.5L127.5 1659.5L127.5 1659L127.5 1656.5L128.5 1656.5L128.5 1657ZM128.5 1663L128.5 1665L128.5 1665.5L127.5 1665.5L127.5 1665L127.5 1662.5L128.5 1662.5L128.5 1663ZM128.5 1669L128.5 1671L128.5 1671.5L127.5 1671.5L127.5 1671L127.5 1668.5L128.5 1668.5L128.5 1669ZM128.5 1675L128.5 1677L128.5 1677.5L127.5 1677.5L127.5 1677L127.5 1674.5L128.5 1674.5L128.5 1675ZM128.5 1681L128.5 1683L128.5 1683.5L127.5 1683.5L127.5 1683L127.5 1680.5L128.5 1680.5L128.5 1681ZM128.5 1687L128.5 1689L128.5 1689.5L127.5 1689.5L127.5 1689L127.5 1686.5L128.5 1686.5L128.5 1687ZM128.5 1693L128.5 1695L128.5 1695.5L127.5 1695.5L127.5 1695L127.5 1692.5L128.5 1692.5L128.5 1693ZM128.5 1699L128.5 1701L128.5 1701.5L127.5 1701.5L127.5 1701L127.5 1698.5L128.5 1698.5L128.5 1699ZM128.5 1705L128.5 1707L128.5 1707.5L127.5 1707.5L127.5 1707L127.5 1704.5L128.5 1704.5L128.5 1705ZM128.5 1711L128.5 1713L128.5 1713.5L127.5 1713.5L127.5 1713L127.5 1710.5L128.5 1710.5L128.5 1711ZM128.5 1717L128.5 1719L128.5 1719.5L127.5 1719.5L127.5 1719L127.5 1716.5L128.5 1716.5L128.5 1717ZM128.5 1723L128.5 1725L128.5 1725.5L127.5 1725.5L127.5 1725L127.5 1722.5L128.5 1722.5L128.5 1723ZM128.5 1729L128.5 1731L128.5 1731.5L127.5 1731.5L127.5 1731L127.5 1728.5L128.5 1728.5L128.5 1729ZM128.5 1735L128.5 1737L128.5 1737.5L127.5 1737.5L127.5 1737L127.5 1734.5L128.5 1734.5L128.5 1735ZM128.5 1741L128.5 1743L128.5 1743.5L127.5 1743.5L127.5 1743L127.5 1740.5L128.5 1740.5L128.5 1741ZM128.5 1747L128.5 1749L128.5 1749.5L127.5 1749.5L127.5 1749L127.5 1746.5L128.5 1746.5L128.5 1747ZM128.5 1753L128.5 1755L128.5 1755.5L127.5 1755.5L127.5 1755L127.5 1752.5L128.5 1752.5L128.5 1753ZM128.5 1759L128.5 1761L128.5 1761.5L127.5 1761.5L127.5 1761L127.5 1758.5L128.5 1758.5L128.5 1759ZM128.5 1765L128.5 1767L128.5 1767.5L127.5 1767.5L127.5 1767L127.5 1764.5L128.5 1764.5L128.5 1765ZM128.5 1771L128.5 1773L128.5 1773.5L127.5 1773.5L127.5 1773L127.5 1770.5L128.5 1770.5L128.5 1771ZM128.5 1777L128.5 1779L128.5 1779.5L127.5 1779.5L127.5 1779L127.5 1776.5L128.5 1776.5L128.5 1777ZM128.5 1783L128.5 1785L128.5 1785.5L127.5 1785.5L127.5 1785L127.5 1782.5L128.5 1782.5L128.5 1783ZM128.5 1789L128.5 1791L128.5 1791.5L127.5 1791.5L127.5 1791L127.5 1788.5L128.5 1788.5L128.5 1789ZM128.5 1795L128.5 1797L128.5 1797.5L127.5 1797.5L127.5 1797L127.5 1794.5L128.5 1794.5L128.5 1795ZM128.5 1801L128.5 1803L128.5 1803.5L127.5 1803.5L127.5 1803L127.5 1800.5L128.5 1800.5L128.5 1801ZM128.5 1807L128.5 1809L128.5 1809.5L127.5 1809.5L127.5 1809L127.5 1806.5L128.5 1806.5L128.5 1807ZM128.5 1813L128.5 1815L128.5 1815.5L127.5 1815.5L127.5 1815L127.5 1812.5L128.5 1812.5L128.5 1813ZM128.5 1819L128.5 1821L128.5 1821.5L127.5 1821.5L127.5 1821L127.5 1818.5L128.5 1818.5L128.5 1819ZM128.5 1825L128.5 1827L128.5 1827.5L127.5 1827.5L127.5 1827L127.5 1824.5L128.5 1824.5L128.5 1825ZM128.5 1831L128.5 1833L128.5 1833.5L127.5 1833.5L127.5 1833L127.5 1830.5L128.5 1830.5L128.5 1831ZM128.5 1837L128.5 1839L128.5 1839.5L127.5 1839.5L127.5 1839L127.5 1836.5L128.5 1836.5L128.5 1837ZM128.5 1843L128.5 1845L128.5 1845.5L127.5 1845.5L127.5 1845L127.5 1842.5L128.5 1842.5L128.5 1843ZM128.5 1849L128.5 1851L128.5 1851.5L127.5 1851.5L127.5 1851L127.5 1848.5L128.5 1848.5L128.5 1849ZM128.5 1855L128.5 1857L128.5 1857.5L127.5 1857.5L127.5 1857L127.5 1854.5L128.5 1854.5L128.5 1855ZM128.5 1861L128.5 1863L128.5 1863.5L127.5 1863.5L127.5 1863L127.5 1860.5L128.5 1860.5L128.5 1861ZM128.5 1867L128.5 1869L128.5 1869.5L127.5 1869.5L127.5 1869L127.5 1866.5L128.5 1866.5L128.5 1867ZM128.5 1873L128.5 1875L128.5 1875.5L127.5 1875.5L127.5 1875L127.5 1872.5L128.5 1872.5L128.5 1873ZM128.5 1879L128.5 1881L128.5 1881.5L127.5 1881.5L127.5 1881L127.5 1878.5L128.5 1878.5L128.5 1879ZM128.5 1885L128.5 1887L128.5 1887.5L127.5 1887.5L127.5 1887L127.5 1884.5L128.5 1884.5L128.5 1885ZM128.5 1891L128.5 1893L128.5 1893.5L127.5 1893.5L127.5 1893L127.5 1890.5L128.5 1890.5L128.5 1891ZM128.5 1897L128.5 1899L128.5 1899.5L127.5 1899.5L127.5 1899L127.5 1896.5L128.5 1896.5L128.5 1897ZM128.5 1903L128.5 1905.5L127.5 1905.5L127.5 1902.5L128.5 1902.5L128.5 1903Z"/>
		<path transform="translate(0.5 0.5)" d="M128 1907.5L130 1907.5L130.5 1907.5L130.5 1908.5L130 1908.5L127.5 1908.5L127.5 1907.5L128 1907.5ZM134 1907.5L136 1907.5L136.5 1907.5L136.5 1908.5L136 1908.5L133.5 1908.5L133.5 1907.5L134 1907.5ZM140 1907.5L142.5 1907.5L142.5 1908.5L139.5 1908.5L139.5 1907.5L140 1907.5Z"/>
		<path fill="none" stroke="black" stroke-width="1" stroke-linecap="square" stroke-miterlimit="4" transform="translate(0.5 0.5)" d="M128 890L142 890"/>
		<rect fill="silver" x="4" y="1393" width="52" height="21"/>
		<rect fill="white" y="1389" width="52" height="21"/>
		<rect fill="white" x="5" y="1416" width="109" height="24"/>
		<text fill="gray" font-size="9" font-family="Segoe UI" x="5, 10.805176, 15.898438, 18.36377, 22.942871, 28.036133, 32.193359, 37.286621, 42.560059, 45.688965, 48.154297, 50.971191, 56.244629, 59.373535, 61.838867, 64.018555, 69.111816, 71.291504, 73.471191, 78.564453, 83.270996, 85.736328, 87.916016, 90.095703, 95.188965, 99.662598, 101.84229, 106.93555, " y="1426, ">
				An anchor for inline linking
		</text>
		<text fill="gray" font-size="9" font-family="Segoe UI" x="5, 7.1796875, 9.359375, 13.833008, 18.539551, 21.004883, 23.18457, 28.277832, 30.743164, 37.132812, 41.848145, 49.929688, " y="1438, ">
				like in HTML
		</text>
		<rect fill="white" x="9" y="1391" width="31" height="16"/>
		<text font-size="12" font-weight="600" font-family="Segoe UI" x="9, " y="1404, ">
				a
		</text>
		<path fill="none" stroke="black" stroke-width="1" stroke-linecap="square" stroke-miterlimit="4" transform="translate(0.5 0.5)" d="M2 1391L7 1391"/>
		<path fill="none" stroke="black" stroke-width="1" stroke-linecap="square" stroke-miterlimit="4" transform="translate(0.5 0.5)" d="M2 1393L6 1393"/>
		<path fill="none" stroke="black" stroke-width="1" stroke-linecap="square" stroke-miterlimit="4" transform="translate(0.5 0.5)" d="M2 1395L6 1395"/>
		<rect fill="none" stroke="black" stroke-width="1" stroke-linecap="square" stroke-miterlimit="4" transform="translate(0.5 0.5)" y="1389" width="51" height="20"/>
		<path fill="white" d="M220 19L220 0L143 0L143 19L143 1779L356 1779L356 19L220 19Z"/>
		<rect fill="white" x="163" y="2" width="51" height="16"/>
		<text font-size="12" font-style="italic" font-family="Segoe UI" x="163, 169.50391, 173.38281, 177.26172, 181.5332, 184.63867, 191.14258, 197.83984, 201.73047, 207.57227, " y="15, ">
				attributes
		</text>
		<path fill="none" stroke="black" stroke-width="1" stroke-linecap="square" stroke-miterlimit="4" transform="translate(0.5 0.5)" d="M220 19L220 0L143 0L143 19L143 1779L356 1779L356 19L220 19Z"/>
		<path fill="white" d="M348 47L348 28L157 28L157 47L157 1150L348 1150L348 47Z"/>
		<rect fill="white" x="162" y="1153" width="179" height="48"/>
		<text fill="gray" font-size="9" font-family="Segoe UI" x="162, 167.80518, 170.27051, 175.57031, 178.69922, 183.97266, 189.06592, 194.35693, 196.82227, 202.0957, 204.9126, 207.37793, 211.95703, 215.00684, 218.05664, 221.18555, 223.36523, 228.65625, 233.74951, 236.79932, 241.50586, 245.32471, 247.79004, 250.60693, 255.88037, 259.00928, 261.47461, 266.05371, 268.2334, 270.41309, 272.87842, 277.58496, 279.76465, 284.47119, 292.22314, 296.92969, 302.02295, 305.07275, 308.8916, 311.35693, 316.63037, 319.44727, 321.9126, 326.4917, 328.95703, 335.13135, " y="1163, ">
				A group of attributes for all elements of a G2
		</text>
		<text fill="gray" font-size="9" font-family="Segoe UI" x="162, 164.39502, 167.44482, 172.15137, 179.90332, 182.36865, 187.0752, 191.20605, 195.36328, 200.06982, 205.36084, 208.41064, 210.87598, 213.05566, 216.10547, 219.92432, 222.38965, 225.51855, 230.79199, 236.06543, 239.11523, 241.58057, 246.28711, 248.4668, 253.17334, 260.92529, 265.63184, 270.7251, 273.7749, 275.72607, 278.19141, 281.24121, 286.33447, 291.04102, 293.50635, 295.68604, 298.73584, 303.44238, 311.19434, 319.27588, 323.98242, 327.03223, " y="1175, ">
				Item except its root element, the itemMeta
		</text>
		<text fill="gray" font-size="9" font-family="Segoe UI" x="162, 166.70654, 168.88623, 173.59277, 181.34473, 186.05127, 191.14453, 194.19434, 196.65967, 201.23877, 206.33203, 211.63184, 214.09717, 218.67627, 220.85596, 223.03564, 225.50098, 230.77441, 233.59131, 236.05664, 238.23633, 241.28613, 245.10498, 247.57031, 251.72754, 256.8208, 259.00049, 261.18018, 266.47998, 269.60889, 274.31543, 279.40869, 281.87402, 288.37793, 293.47119, 295.65088, 299.80811, 304.90137, 307.3667, 311.9458, 315.07471, " y="1187, ">
				element and all of its children which are
		</text>
		<text fill="gray" font-size="9" font-family="Segoe UI" x="162, 169.75195, 174.33105, 179.42432, 184.72412, 189.30322, 192.35303, 197.62646, 200.75537, 205.11035, " y="1199, ">
				mandatory.
		</text>
		<rect fill="white" x="199" y="30" width="143" height="16"/>
		<text font-size="12" font-weight="600" font-family="Segoe UI" x="199, 204.75977, 212.0957, 223.08789, 234.08008, 241.41602, 248.67578, 255.68945, 263.02539, 272.53516, 279.02734, 283.80273, 292, 296.66992, 301.33984, 306.16211, 309.57227, 317.01367, 324.27344, 328.89648, 335.38867, " y="43, ">
				commonPowerAttributes
		</text>
		<rect fill="white" x="177" y="30" width="20" height="16"/>
		<text fill="gray" font-size="12" font-family="Segoe UI" x="177, 184.06641, 188.23828, " y="43, ">
				grp
		</text>
		<path fill="none" stroke="gray" stroke-width="1" stroke-linecap="square" stroke-miterlimit="4" transform="translate(0.5 0.5)" d="M157 47L157 1150L348 1150L348 47L348 47"/>
		<path fill="none" stroke="black" stroke-width="1" stroke-linecap="square" stroke-miterlimit="4" transform="translate(0.5 0.5)" d="M348 47L348 28L157 28L157 47"/>
		<rect x="162" y="33" width="11" height="11"/>
		<rect fill="white" x="163" y="34" width="9" height="9"/>
		<rect x="164" y="38" width="7" height="1"/>
		<rect fill="silver" x="169" y="61" width="52" height="21"/>
		<rect fill="white" x="165" y="57" width="52" height="21"/>
		<rect fill="white" x="170" y="84" width="101" height="24"/>
		<text fill="gray" font-size="9" font-family="Segoe UI" x="170, 174.71533, 179.80859, 184.51514, 186.98047, 189.16016, 194.43359, 198.59082, 203.16992, 205.34961, 207.81494, 209.99463, 215.29443, 220.00098, 225.09424, 228.14404, 230.32373, 233.14062, 235.32031, 240.02686, 243.15576, 245.62109, 250.89453, 253.71143, 256.17676, 259.22656, 264.31982, " y="94, ">
				The local identifier of the
		</text>
		<text fill="gray" font-size="9" font-family="Segoe UI" x="170, 175.29102, 178.41992, 183.69336, 188.98438, 193.69092, 196.81982, 199.86963, 204.22461, " y="106, ">
				property.
		</text>
		<rect fill="white" x="174" y="59" width="36" height="16"/>
		<text font-size="12" font-weight="600" font-family="Segoe UI" x="174, 177.41016, " y="72, ">
				id
		</text>
		<rect fill="none" stroke="black" stroke-width="1" stroke-linecap="square" stroke-miterlimit="4" transform="translate(0.5 0.5)" x="165" y="57" width="51" height="20"/>
		<rect fill="silver" x="169" y="119" width="58" height="21"/>
		<rect fill="white" x="165" y="115" width="58" height="21"/>
		<rect fill="white" x="170" y="142" width="121" height="120"/>
		<text fill="gray" font-size="9" font-family="Segoe UI" x="170, 172.39502, 175.21191, 177.67725, 180.72705, 185.82031, 190.52686, 192.99219, 198.2832, 201.41211, 206.68555, 211.97656, 216.68311, 219.81201, 222.86182, 227.2168, 229.68213, 233.99316, 238.57227, 240.75195, 245.84521, 250.55176, 253.01709, 255.19678, 259.01562, 261.48096, 266.57422, 271.84766, " y="152, ">
				If the property value is not
		</text>
		<text fill="gray" font-size="9" font-family="Segoe UI" x="170, 175.2998, 180.00635, 182.82324, 185.00293, 190.09619, 194.80273, 200.10254, 202.05371, 204.51904, 208.33789, 213.62891, 218.33545, 222.49268, 224.67236, 227.48926, 229.66895, 234.37549, 238.19434, 240.65967, 247.16357, 252.25684, 254.43652, 258.59375, 263.68701, 266.15234, 270.85889, 275.95215, 279.00195, 281.18164, 284.23145, " y="164, ">
				defined, specifies which entity
		</text>
		<text fill="gray" font-size="9" font-family="Segoe UI" x="170, 172.71582, 178.00684, 182.71338, 185.84229, 189.66113, 194.93457, 200.02783, 201.979, 204.44434, 209.71777, 212.84668, 218.14648, 222.72559, 227.81885, 229.99854, 233.81738, 238.39648, 241.44629, 243.62598, 248.89941, 253.99268, 256.45801, 261.73145, " y="176, ">
				(person, organisation or
		</text>
		<text fill="gray" font-size="9" font-family="Segoe UI" x="170, 173.81885, 178.17383, 181.99268, 185.04248, 189.74902, 197.50098, 200.2168, 202.68213, 209.18604, 211.36572, 213.54541, 215.7251, 218.19043, 222.89697, 228.19678, 230.37646, 233.42627, 235.8916, 238.94141, 244.03467, 248.74121, 251.20654, 256.49756, 259.62646, 264.8999, 270.19092, 274.89746, 278.02637, 281.07617, " y="188, ">
				system) will edit the property
		</text>
		<text fill="gray" font-size="9" font-family="Segoe UI" x="170, 174.31104, 178.89014, 181.06982, 186.16309, 190.86963, 193.33496, 196.93408, 199.39941, 204.10596, 208.23682, 213.52783, 216.65674, 221.36328, 225.18213, 229.00098, 233.70752, 239.00732, 241.47266, 246.76367, 251.11865, 253.58398, 258.16309, 260.62842, 267.41357, 272.98584, 278.25928, 283.55908, 288.26562, " y="200, ">
				value - expressed by a QCode.
		</text>
		<text fill="gray" font-size="9" font-family="Segoe UI" x="170, 172.39502, 175.21191, 177.67725, 180.72705, 185.82031, 190.52686, 192.99219, 198.2832, 201.41211, 206.68555, 211.97656, 216.68311, 219.81201, 222.86182, 227.2168, 229.68213, 233.99316, 238.57227, 240.75195, 245.84521, 250.55176, 253.01709, 255.19678, " y="212, ">
				If the property value is
		</text>
		<text fill="gray" font-size="9" font-family="Segoe UI" x="170, 175.2998, 180.00635, 182.82324, 185.00293, 190.09619, 194.80273, 200.10254, 202.05371, 204.51904, 208.33789, 213.62891, 218.33545, 222.49268, 224.67236, 227.48926, 229.66895, 234.37549, 238.19434, 240.65967, 247.16357, 252.25684, 254.43652, 258.59375, 263.68701, 266.15234, 270.85889, 275.95215, 279.00195, 281.18164, 284.23145, " y="224, ">
				defined, specifies which entity
		</text>
		<text fill="gray" font-size="9" font-family="Segoe UI" x="170, 172.71582, 178.00684, 182.71338, 185.84229, 189.66113, 194.93457, 200.02783, 201.979, 204.44434, 209.71777, 212.84668, 218.14648, 222.72559, 227.81885, 229.99854, 233.81738, 238.39648, 241.44629, 243.62598, 248.89941, 253.99268, 256.45801, 261.73145, " y="236, ">
				(person, organisation or
		</text>
		<text fill="gray" font-size="9" font-family="Segoe UI" x="170, 173.81885, 178.17383, 181.99268, 185.04248, 189.74902, 197.50098, 200.2168, 202.68213, 207.77539, 212.35449, 216.17334, 218.63867, 223.34521, 228.64502, 230.82471, 233.87451, 238.58105, 243.88086, 246.34619, 249.396, 254.48926, " y="248, ">
				system) has edited the
		</text>
		<text fill="gray" font-size="9" font-family="Segoe UI" x="170, 175.29102, 178.41992, 183.69336, 188.98438, 193.69092, 196.81982, 199.86963, 204.22461, 206.68994, 211.00098, 215.58008, 217.75977, 222.85303, 227.55957, " y="260, ">
				property value.
		</text>
		<rect fill="white" x="174" y="117" width="42" height="16"/>
		<text font-size="12" font-weight="600" font-family="Segoe UI" x="174, 179.75977, 184.48828, 190.98047, 197.4375, 202.06055, 209.39648, " y="130, ">
				creator
		</text>
		<rect fill="none" stroke="black" stroke-width="1" stroke-linecap="square" stroke-miterlimit="4" transform="translate(0.5 0.5)" x="165" y="115" width="57" height="20"/>
		<rect fill="silver" x="169" y="273" width="73" height="21"/>
		<rect fill="white" x="165" y="269" width="73" height="21"/>
		<rect fill="white" x="170" y="296" width="120" height="108"/>
		<text fill="gray" font-size="9" font-family="Segoe UI" x="170, 172.39502, 175.21191, 177.67725, 180.72705, 185.82031, 190.52686, 192.99219, 198.2832, 201.41211, 206.68555, 211.97656, 216.68311, 219.81201, 222.86182, 227.2168, 229.68213, 233.99316, 238.57227, 240.75195, 245.84521, 250.55176, 253.01709, 255.19678, 259.01562, 261.48096, 266.57422, 271.84766, " y="306, ">
				If the property value is not
		</text>
		<text fill="gray" font-size="9" font-family="Segoe UI" x="170, 175.2998, 180.00635, 182.82324, 185.00293, 190.09619, 194.80273, 200.10254, 202.05371, 204.51904, 208.33789, 213.62891, 218.33545, 222.49268, 224.67236, 227.48926, 229.66895, 234.37549, 238.19434, 240.65967, 247.16357, 252.25684, 254.43652, 258.59375, 263.68701, 266.15234, 270.85889, 275.95215, 279.00195, 281.18164, 284.23145, " y="318, ">
				defined, specifies which entity
		</text>
		<text fill="gray" font-size="9" font-family="Segoe UI" x="170, 172.71582, 178.00684, 182.71338, 185.84229, 189.66113, 194.93457, 200.02783, 201.979, 204.44434, 209.71777, 212.84668, 218.14648, 222.72559, 227.81885, 229.99854, 233.81738, 238.39648, 241.44629, 243.62598, 248.89941, 253.99268, 256.45801, 261.73145, " y="330, ">
				(person, organisation or
		</text>
		<text fill="gray" font-size="9" font-family="Segoe UI" x="170, 173.81885, 178.17383, 181.99268, 185.04248, 189.74902, 197.50098, 200.2168, 202.68213, 209.18604, 211.36572, 213.54541, 215.7251, 218.19043, 222.89697, 228.19678, 230.37646, 233.42627, 235.8916, 238.94141, 244.03467, 248.74121, 251.20654, 256.49756, 259.62646, 264.8999, 270.19092, 274.89746, 278.02637, 281.07617, " y="342, ">
				system) will edit the property
		</text>
		<text fill="gray" font-size="9" font-family="Segoe UI" x="170, 173.59912, 176.06445, 180.771, 184.90186, 190.19287, 193.32178, 198.02832, 201.84717, 205.66602, 210.37256, 215.67236, 218.1377, 223.42871, 227.78369, 230.24902, 234.82812, 237.29346, 243.47656, 248.85986, 251.25488, 253.20605, 255.67139, 258.06641, 260.8833, 263.34863, 266.39844, 271.4917, " y="354, ">
				- expressed by a URI. If the
		</text>
		<text fill="gray" font-size="9" font-family="Segoe UI" x="170, 175.29102, 178.41992, 183.69336, 188.98438, 193.69092, 196.81982, 199.86963, 204.22461, 206.68994, 211.00098, 215.58008, 217.75977, 222.85303, 227.55957, 230.0249, 232.20459, 236.02344, 238.48877, 243.78857, 248.49512, 251.31201, 253.4917, 258.58496, 263.2915, 268.59131, " y="366, ">
				property value is defined,
		</text>
		<text fill="gray" font-size="9" font-family="Segoe UI" x="170, 173.81885, 179.10986, 183.81641, 187.97363, 190.15332, 192.97021, 195.1499, 199.85645, 203.67529, 206.14062, 212.64453, 217.73779, 219.91748, 224.07471, 229.16797, 231.6333, 236.33984, 241.43311, 244.48291, 246.6626, 249.7124, 254.06738, 256.53271, 259.24854, 264.53955, 269.24609, 272.375, 276.19385, 281.46729, 286.56055, " y="378, ">
				specifies which entity (person,
		</text>
		<text fill="gray" font-size="9" font-family="Segoe UI" x="170, 175.27344, 178.40234, 183.70215, 188.28125, 193.37451, 195.5542, 199.37305, 203.95215, 207.00195, 209.18164, 214.45508, 219.54834, 222.01367, 227.28711, 230.41602, 232.88135, 236.7002, 241.05518, 244.87402, 247.92383, 252.63037, 260.38232, 263.09814, 265.56348, 270.65674, 275.23584, " y="390, ">
				organisation or system) has
		</text>
		<text fill="gray" font-size="9" font-family="Segoe UI" x="170, 174.70654, 180.00635, 182.18604, 185.23584, 189.94238, 195.24219, 197.70752, 200.75732, 205.85059, 210.55713, 213.02246, 218.31348, 221.44238, 226.71582, 232.00684, 236.71338, 239.84229, 242.89209, 247.24707, " y="402, ">
				edited the property.
		</text>
		<rect fill="white" x="174" y="271" width="57" height="16"/>
		<text font-size="12" font-weight="600" font-family="Segoe UI" x="174, 179.75977, 184.48828, 190.98047, 197.4375, 202.06055, 209.39648, 214.20703, 221.4668, 226.28906, " y="284, ">
				creatoruri
		</text>
		<rect fill="none" stroke="black" stroke-width="1" stroke-linecap="square" stroke-miterlimit="4" transform="translate(0.5 0.5)" x="165" y="269" width="72" height="20"/>
		<rect fill="silver" x="169" y="415" width="69" height="21"/>
		<rect fill="white" x="165" y="411" width="69" height="21"/>
		<rect fill="white" x="170" y="438" width="119" height="72"/>
		<text fill="gray" font-size="9" font-family="Segoe UI" x="170, 174.71533, 179.80859, 184.51514, 186.98047, 192.28027, 196.85938, 199.90918, 204.61572, 207.08105, 209.79688, 214.37598, 219.46924, 224.76904, 226.72021, 229.18555, 234.45898, 239.75, 242.7998, 244.97949, 250.25293, 255.34619, 259.92529, 262.10498, 264.28467, 268.63965, 270.59082, 273.05615, 276.10596, 281.19922, " y="448, ">
				The date (and, optionally, the
		</text>
		<text fill="gray" font-size="9" font-family="Segoe UI" x="170, 173.0498, 175.22949, 182.98145, 187.68799, 190.40381, 192.86914, 199.37305, 204.46631, 209.17285, 214.26611, 216.73145, 219.78125, 224.87451, 229.58105, 232.04639, 237.3374, 240.46631, 245.73975, 251.03076, 255.7373, 258.86621, 261.91602, 266.271, 268.73633, 275.24023, 279.81934, " y="460, ">
				time) when the property was
		</text>
		<text fill="gray" font-size="9" font-family="Segoe UI" x="170, 172.17969, 176.75879, 180.57764, 183.62744, 186.09277, 193.84473, 199.11816, 204.41797, 206.59766, 209.41455, 211.59424, 216.30078, 221.60059, 223.55176, 226.01709, 230.73242, 235.82568, 240.53223, 242.99756, 245.17725, 250.27051, 252.4502, 255.5, 257.67969, 262.25879, 264.43848, 266.90381, 271.21484, 275.79395, 277.97363, 283.06689, " y="472, ">
				last modified. The initial value
		</text>
		<text fill="gray" font-size="9" font-family="Segoe UI" x="170, 172.17969, 175.99854, 178.46387, 181.51367, 186.60693, 191.31348, 193.77881, 199.07861, 203.65771, 206.70752, 211.41406, 213.87939, 216.59521, 221.17432, 226.26758, 231.56738, 233.51855, 235.98389, 241.25732, 246.54834, 249.59814, 251.77783, 257.05127, 262.14453, 266.72363, 268.90332, 271.08301, 275.43799, " y="484, ">
				is the date (and, optionally,
		</text>
		<text fill="gray" font-size="9" font-family="Segoe UI" x="170, 173.0498, 178.14307, 182.84961, 185.31494, 188.36475, 190.54443, 198.29639, 203.00293, 205.71875, 208.18408, 213.45752, 216.27441, 218.73975, 222.89697, 226.02588, 230.73242, 235.31152, 238.36133, 240.54102, 245.81445, 250.90771, 253.37305, 258.64648, 261.46338, 263.92871, 266.97852, 272.07178, " y="496, ">
				the time) of creation of the
		</text>
		<text fill="gray" font-size="9" font-family="Segoe UI" x="170, 175.29102, 178.41992, 183.69336, 188.98438, 193.69092, 196.81982, 199.86963, 204.22461, " y="508, ">
				property.
		</text>
		<rect fill="white" x="174" y="413" width="53" height="16"/>
		<text font-size="12" font-weight="600" font-family="Segoe UI" x="174, 184.99219, 192.32812, 199.75781, 203.16797, 207.76758, 211.17773, 217.66992, " y="426, ">
				modified
		</text>
		<rect fill="none" stroke="black" stroke-width="1" stroke-linecap="square" stroke-miterlimit="4" transform="translate(0.5 0.5)" x="165" y="411" width="68" height="20"/>
		<rect fill="silver" x="169" y="521" width="59" height="21"/>
		<rect fill="white" x="165" y="517" width="59" height="21"/>
		<rect fill="white" x="170" y="544" width="118" height="108"/>
		<text fill="gray" font-size="9" font-family="Segoe UI" x="170, 172.39502, 175.21191, 177.67725, 181.49609, 186.20264, 189.25244, 191.71777, 194.76758, 200.04102, 202.50635, 205.55615, 208.68506, 213.77832, 218.48486, 220.9502, 224, 229.09326, " y="554, ">
				If set to true the
		</text>
		<text fill="gray" font-size="9" font-family="Segoe UI" x="170, 174.15723, 179.43066, 182.55957, 185.68848, 190.39502, 194.21387, 199.50488, 204.77832, 209.87158, 215.17139, 217.35107, 222.44434, 227.74414, 230.20947, 235.50049, 238.62939, 243.90283, 249.19385, 253.90039, 257.0293, 260.0791, 264.43408, 266.89941, 273.40332, 277.98242, " y="566, ">
				corresponding property was
		</text>
		<text fill="gray" font-size="9" font-family="Segoe UI" x="170, 174.5791, 179.87891, 185.17871, 189.88525, 195.18506, 197.65039, 200.7002, 205.97363, 208.43896, 211.48877, 216.58203, 221.28857, 223.75391, 229.92822, 234.77979, 237.24512, 239.64014, 242.68994, 247.39648, 255.14844, 257.61377, 260.43066, 265.7041, 268.83301, 271.29834, " y="578, ">
				added to the G2 Item for a
		</text>
		<text fill="gray" font-size="9" font-family="Segoe UI" x="170, 173.81885, 179.10986, 183.81641, 187.97363, 190.15332, 192.97021, 195.1499, 199.30713, 201.77246, 205.92969, 211.02295, 214.8418, 217.8916, 223.16504, 230.91699, 235.62354, 238.75244, 241.21777, 246.49121, 249.62012, 252.08545, 257.38525, 260.51416, 265.7876, 270.88086, 276.17188, 278.63721, 283.91064, " y="590, ">
				specific customer or group of
		</text>
		<text fill="gray" font-size="9" font-family="Segoe UI" x="170, 174.15723, 179.25049, 183.06934, 186.11914, 191.39258, 199.14453, 203.85107, 206.97998, 210.79883, 213.26416, 218.5376, 223.63086, 225.81055, 230.16553, 232.1167, 234.58203, 239.29736, 244.39062, 249.09717, 251.5625, 256.8623, 261.56885, 264.38574, 268.96484, 274.05811, 276.23779, " y="602, ">
				customers only. The default
		</text>
		<text fill="gray" font-size="9" font-family="Segoe UI" x="170, 174.31104, 178.89014, 181.06982, 186.16309, 190.86963, 193.33496, 198.6084, 201.42529, 203.89062, 206.94043, 212.03369, 214.21338, 218.03223, 220.49756, 225.78857, 228.91748, 234.19092, 239.48193, 244.18848, 247.31738, 250.36719, 254.72217, 257.1875, 259.36719, 263.18604, 265.65137, 268.46826, 273.04736, 275.22705, 279.0459, " y="614, ">
				value of this property is false
		</text>
		<text fill="gray" font-size="9" font-family="Segoe UI" x="170, 176.50391, 181.59717, 183.77686, 187.93408, 193.02734, 195.49268, 200.07178, 205.36279, 210.65381, 212.8335, 215.01318, 219.71973, 223.53857, 226.00391, 232.50781, 237.60107, 242.30762, 247.40088, 249.86621, 252.91602, 258.00928, 260.18896, " y="626, ">
				which applies when this
		</text>
		<text fill="gray" font-size="9" font-family="Segoe UI" x="170, 174.5791, 177.62891, 180.67871, 183.80762, 185.9873, 191.27832, 196.37158, 199.42139, 204.12793, 206.59326, 208.77295, 212.5918, 215.05713, 220.15039, 225.42383, 228.47363, 230.93896, 236.03223, 239.85107, 244.55762, 249.85742, 252.32275, 258.82666, 261.00635, 264.05615, 269.14941, 271.61475, 274.66455, 279.75781, " y="638, ">
				attribute is not used with the
		</text>
		<text fill="gray" font-size="9" font-family="Segoe UI" x="170, 175.29102, 178.41992, 183.69336, 188.98438, 193.69092, 196.81982, 199.86963, 204.22461, " y="650, ">
				property.
		</text>
		<rect fill="white" x="174" y="519" width="43" height="16"/>
		<text font-size="12" font-weight="600" font-family="Segoe UI" x="174, 179.75977, 187.01953, 192.29883, 196.92188, 204.25781, " y="532, ">
				custom
		</text>
		<rect fill="none" stroke="black" stroke-width="1" stroke-linecap="square" stroke-miterlimit="4" transform="translate(0.5 0.5)" x="165" y="517" width="58" height="20"/>
		<rect fill="silver" x="169" y="663" width="52" height="21"/>
		<rect fill="white" x="165" y="659" width="52" height="21"/>
		<rect fill="white" x="170" y="686" width="118" height="48"/>
		<text fill="gray" font-size="9" font-family="Segoe UI" x="170, 172.39502, 177.48828, 182.78809, 184.96777, 189.125, 193.7041, 196.75391, 201.46045, 205.2793, 207.74463, 213.03564, 217.39062, 219.85596, 226.35986, 231.45312, 233.63281, 237.79004, 242.8833, 245.34863, 253.10059, 257.80713, 262.38623, 267.47949, 271.29834, 273.76367, 276.81348, 281.90674, " y="696, ">
				Indicates by which means the
		</text>
		<text fill="gray" font-size="9" font-family="Segoe UI" x="170, 174.31104, 178.89014, 181.06982, 186.16309, 190.86963, 193.33496, 199.83887, 204.41797, 208.23682, 210.70215, 215.40869, 219.53955, 222.58936, 225.71826, 230.29736, 234.45459, 237.50439, 242.21094, 247.51074, 249.97607, 252.79297, 255.92188, 261.19531, 268.94727, 271.4126, 274.4624, 279.55566, " y="708, ">
				value was extracted from the
		</text>
		<text fill="gray" font-size="9" font-family="Segoe UI" x="170, 174.15723, 179.43066, 184.52393, 187.57373, 192.28027, 197.37354, 200.42334, 202.88867, 206.48779, 208.95312, 213.65967, 217.79053, 223.08154, 226.21045, 230.91699, 234.73584, 238.55469, 243.26123, 248.56104, 251.02637, 256.31738, 260.67236, 263.1377, " y="720, ">
				content - expressed by a
		</text>
		<text fill="gray" font-size="9" font-family="Segoe UI" x="170, 176.78516, 182.35742, 187.63086, 192.93066, " y="732, ">
				QCode
		</text>
		<rect fill="white" x="174" y="661" width="36" height="16"/>
		<text font-size="12" font-weight="600" font-family="Segoe UI" x="174, 181.22461, 188.56055, " y="674, ">
				how
		</text>
		<rect fill="none" stroke="black" stroke-width="1" stroke-linecap="square" stroke-miterlimit="4" transform="translate(0.5 0.5)" x="165" y="659" width="51" height="20"/>
		<rect fill="silver" x="169" y="745" width="57" height="21"/>
		<rect fill="white" x="165" y="741" width="57" height="21"/>
		<rect fill="white" x="170" y="768" width="118" height="36"/>
		<text fill="gray" font-size="9" font-family="Segoe UI" x="170, 172.39502, 177.48828, 182.78809, 184.96777, 189.125, 193.7041, 196.75391, 201.46045, 205.2793, 207.74463, 213.03564, 217.39062, 219.85596, 226.35986, 231.45312, 233.63281, 237.79004, 242.8833, 245.34863, 253.10059, 257.80713, 262.38623, 267.47949, 271.29834, 273.76367, 276.81348, 281.90674, " y="778, ">
				Indicates by which means the
		</text>
		<text fill="gray" font-size="9" font-family="Segoe UI" x="170, 174.31104, 178.89014, 181.06982, 186.16309, 190.86963, 193.33496, 199.83887, 204.41797, 208.23682, 210.70215, 215.40869, 219.53955, 222.58936, 225.71826, 230.29736, 234.45459, 237.50439, 242.21094, 247.51074, 249.97607, 252.79297, 255.92188, 261.19531, 268.94727, 271.4126, 274.4624, 279.55566, " y="790, ">
				value was extracted from the
		</text>
		<text fill="gray" font-size="9" font-family="Segoe UI" x="170, 174.15723, 179.43066, 184.52393, 187.57373, 192.28027, 197.37354, 200.42334, 202.88867, 206.48779, 208.95312, 213.65967, 217.79053, 223.08154, 226.21045, 230.91699, 234.73584, 238.55469, 243.26123, 248.56104, 251.02637, 256.31738, 260.67236, 263.1377, 267.7168, 270.18213, 276.36523, 281.74854, " y="802, ">
				content - expressed by a URI
		</text>
		<rect fill="white" x="174" y="743" width="41" height="16"/>
		<text font-size="12" font-weight="600" font-family="Segoe UI" x="174, 181.22461, 188.56055, 198.12891, 205.38867, 210.21094, " y="756, ">
				howuri
		</text>
		<rect fill="none" stroke="black" stroke-width="1" stroke-linecap="square" stroke-miterlimit="4" transform="translate(0.5 0.5)" x="165" y="741" width="56" height="20"/>
		<rect fill="silver" x="169" y="815" width="52" height="21"/>
		<rect fill="white" x="165" y="811" width="52" height="21"/>
		<rect fill="white" x="170" y="838" width="113" height="36"/>
		<text fill="gray" font-size="9" font-family="Segoe UI" x="170, 178.40674, 183.5, 187.85498, 190.32031, 193.37012, 198.46338, 203.16992, 205.63525, 213.38721, 218.09375, 221.14355, 225.72266, 231.02246, 235.60156, 238.65137, 243.23047, 245.6958, 250.78906, 255.36816, 259.18701, 261.65234, 266.94336, 271.6499, 276.35645, " y="848, ">
				Why the metadata has been
		</text>
		<text fill="gray" font-size="9" font-family="Segoe UI" x="170, 172.17969, 177.27295, 181.43018, 183.60986, 188.70312, 194.00293, 198.70947, 204.00928, 206.47461, 210.07373, 212.53906, 217.24561, 221.37646, 226.66748, 229.79639, 234.50293, 238.32178, 242.14062, 246.84717, 252.14697, 254.6123, 259.90332, 264.2583, 266.72363, " y="860, ">
				included - expressed by a
		</text>
		<text fill="gray" font-size="9" font-family="Segoe UI" x="170, 176.78516, 182.35742, 187.63086, 192.93066, " y="872, ">
				QCode
		</text>
		<rect fill="white" x="174" y="813" width="36" height="16"/>
		<text font-size="12" font-weight="600" font-family="Segoe UI" x="174, 183.56836, 190.79297, " y="826, ">
				why
		</text>
		<rect fill="none" stroke="black" stroke-width="1" stroke-linecap="square" stroke-miterlimit="4" transform="translate(0.5 0.5)" x="165" y="811" width="51" height="20"/>
		<rect fill="silver" x="169" y="885" width="56" height="21"/>
		<rect fill="white" x="165" y="881" width="56" height="21"/>
		<rect fill="white" x="170" y="908" width="119" height="24"/>
		<text fill="gray" font-size="9" font-family="Segoe UI" x="170, 178.40674, 183.5, 187.85498, 190.32031, 193.37012, 198.46338, 203.16992, 205.63525, 213.38721, 218.09375, 221.14355, 225.72266, 231.02246, 235.60156, 238.65137, 243.23047, 245.6958, 250.78906, 255.36816, 259.18701, 261.65234, 266.94336, 271.6499, 276.35645, " y="918, ">
				Why the metadata has been
		</text>
		<text fill="gray" font-size="9" font-family="Segoe UI" x="170, 172.17969, 177.27295, 181.43018, 183.60986, 188.70312, 194.00293, 198.70947, 204.00928, 206.47461, 210.07373, 212.53906, 217.24561, 221.37646, 226.66748, 229.79639, 234.50293, 238.32178, 242.14062, 246.84717, 252.14697, 254.6123, 259.90332, 264.2583, 266.72363, 271.30273, 273.76807, 279.95117, 285.33447, " y="930, ">
				included - expressed by a URI
		</text>
		<rect fill="white" x="174" y="883" width="40" height="16"/>
		<text font-size="12" font-weight="600" font-family="Segoe UI" x="174, 183.56836, 190.79297, 197.25, 204.50977, 209.33203, " y="896, ">
				whyuri
		</text>
		<rect fill="none" stroke="black" stroke-width="1" stroke-linecap="square" stroke-miterlimit="4" transform="translate(0.5 0.5)" x="165" y="881" width="55" height="20"/>
		<rect fill="silver" x="169" y="943" width="97" height="21"/>
		<rect fill="white" x="165" y="939" width="97" height="21"/>
		<rect fill="white" x="170" y="966" width="117" height="72"/>
		<text fill="gray" font-size="9" font-family="Segoe UI" x="170, 176.78516, 181.87842, 186.58496, 189.05029, 194.32373, 197.45264, 199.91797, 207.66992, 212.24902, 217.34229, 221.69727, 224.1626, 228.31982, 233.59326, 238.68652, 242.50537, 245.55518, 248.68408, 253.26318, 255.44287, 260.53613, 263.58594, 267.40479, 269.87012, 272.91992, 278.01318, 282.59229, " y="976, ">
				One or many constraints that
		</text>
		<text fill="gray" font-size="9" font-family="Segoe UI" x="170, 174.5791, 179.87012, 185.16113, 187.34082, 191.6958, 194.16113, 197.21094, 202.48438, 204.94971, 210.24072, 215.33398, 220.625, 222.80469, 224.98438, 228.80322, 233.89648, 236.07617, 241.16943, 246.46924, 248.93457, 251.98438, 257.07764, 261.78418, 264.24951, 268.56055, 273.13965, 275.31934, 280.4126, " y="988, ">
				apply to publishing the value
		</text>
		<text fill="gray" font-size="9" font-family="Segoe UI" x="170, 175.27344, 178.09033, 180.55566, 183.60547, 188.69873, 193.40527, 195.87061, 201.16162, 204.29053, 209.56396, 214.85498, 219.56152, 222.69043, 225.74023, 230.09521, 232.56055, 236.15967, 238.625, 243.33154, 247.4624, 252.75342, 255.88232, 260.58887, 264.40771, 268.22656, 272.93311, " y="1000, ">
				of the property - expressed
		</text>
		<text fill="gray" font-size="9" font-family="Segoe UI" x="170, 175.29102, 179.646, 182.11133, 186.69043, 189.15576, 195.94092, 201.51318, 206.78662, 212.08643, 216.79297, 218.74414, 221.20947, 225.76221, 230.34131, 234.49854, 239.5918, 242.05713, 246.21436, 251.48779, 256.58105, 260.3999, 263.44971, 266.57861, 271.15771, 273.3374, 278.43066, " y="1012, ">
				by a QCode. Each constraint
		</text>
		<text fill="gray" font-size="9" font-family="Segoe UI" x="170, 174.5791, 179.87012, 185.16113, 187.34082, 189.52051, 194.22705, 198.0459, 200.51123, 203.56104, 208.83447, 211.2998, 215.87891, 218.05859, 220.23828, 222.70361, 228.00342, 232.70996, 236.52881, 240.68604, 245.39258, 250.48584, 255.78564, 260.36475, 265.45801, " y="1024, ">
				applies to all descendant
		</text>
		<text fill="gray" font-size="9" font-family="Segoe UI" x="170, 174.70654, 176.88623, 181.59277, 189.34473, 194.05127, 199.14453, 202.19434, 206.01318, " y="1036, ">
				elements.
		</text>
		<rect fill="white" x="174" y="941" width="81" height="16"/>
		<text font-size="12" font-weight="600" font-family="Segoe UI" x="174, 181.44141, 188.70117, 196.14258, 201.90234, 209.23828, 216.49805, 221.77734, 226.44727, 231.22266, 237.67969, 241.08984, 248.34961, " y="954, ">
				pubconstraint
		</text>
		<rect fill="none" stroke="black" stroke-width="1" stroke-linecap="square" stroke-miterlimit="4" transform="translate(0.5 0.5)" x="165" y="939" width="96" height="20"/>
		<rect fill="silver" x="169" y="1049" width="112" height="21"/>
		<rect fill="white" x="165" y="1045" width="112" height="21"/>
		<rect fill="white" x="170" y="1072" width="117" height="72"/>
		<text fill="gray" font-size="9" font-family="Segoe UI" x="170, 176.78516, 181.87842, 186.58496, 189.05029, 194.32373, 197.45264, 199.91797, 207.66992, 212.24902, 217.34229, 221.69727, 224.1626, 228.31982, 233.59326, 238.68652, 242.50537, 245.55518, 248.68408, 253.26318, 255.44287, 260.53613, 263.58594, 267.40479, 269.87012, 272.91992, 278.01318, 282.59229, " y="1082, ">
				One or many constraints that
		</text>
		<text fill="gray" font-size="9" font-family="Segoe UI" x="170, 174.5791, 179.87012, 185.16113, 187.34082, 191.6958, 194.16113, 197.21094, 202.48438, 204.94971, 210.24072, 215.33398, 220.625, 222.80469, 224.98438, 228.80322, 233.89648, 236.07617, 241.16943, 246.46924, 248.93457, 251.98438, 257.07764, 261.78418, 264.24951, 268.56055, 273.13965, 275.31934, 280.4126, " y="1094, ">
				apply to publishing the value
		</text>
		<text fill="gray" font-size="9" font-family="Segoe UI" x="170, 175.27344, 178.09033, 180.55566, 183.60547, 188.69873, 193.40527, 195.87061, 201.16162, 204.29053, 209.56396, 214.85498, 219.56152, 222.69043, 225.74023, 230.09521, 232.56055, 236.15967, 238.625, 243.33154, 247.4624, 252.75342, 255.88232, 260.58887, 264.40771, 268.22656, 272.93311, " y="1106, ">
				of the property - expressed
		</text>
		<text fill="gray" font-size="9" font-family="Segoe UI" x="170, 175.29102, 179.646, 182.11133, 186.69043, 189.15576, 195.33887, 200.72217, 203.11719, 205.06836, 207.53369, 212.08643, 216.66553, 220.82275, 225.91602, 228.38135, 232.53857, 237.81201, 242.90527, 246.72412, 249.77393, 252.90283, 257.48193, 259.66162, 264.75488, " y="1118, ">
				by a URI. Each constraint
		</text>
		<text fill="gray" font-size="9" font-family="Segoe UI" x="170, 174.5791, 179.87012, 185.16113, 187.34082, 189.52051, 194.22705, 198.0459, 200.51123, 203.56104, 208.83447, 211.2998, 215.87891, 218.05859, 220.23828, 222.70361, 228.00342, 232.70996, 236.52881, 240.68604, 245.39258, 250.48584, 255.78564, 260.36475, 265.45801, " y="1130, ">
				applies to all descendant
		</text>
		<text fill="gray" font-size="9" font-family="Segoe UI" x="170, 174.70654, 176.88623, 181.59277, 189.34473, 194.05127, 199.14453, 202.19434, 206.01318, " y="1142, ">
				elements.
		</text>
		<rect fill="white" x="174" y="1047" width="96" height="16"/>
		<text font-size="12" font-weight="600" font-family="Segoe UI" x="174, 181.44141, 188.70117, 196.14258, 201.90234, 209.23828, 216.49805, 221.77734, 226.44727, 231.22266, 237.67969, 241.08984, 248.34961, 253.01953, 260.2793, 265.10156, " y="1060, ">
				pubconstrainturi
		</text>
		<rect fill="none" stroke="black" stroke-width="1" stroke-linecap="square" stroke-miterlimit="4" transform="translate(0.5 0.5)" x="165" y="1045" width="111" height="20"/>
		<path fill="white" d="M288 1227L288 1208L157 1208L157 1227L157 1412L298 1412L298 1227L288 1227Z"/>
		<rect fill="white" x="162" y="1415" width="110" height="36"/>
		<text fill="gray" font-size="9" font-family="Segoe UI" x="162, 167.80518, 170.27051, 175.57031, 178.69922, 183.97266, 189.06592, 194.35693, 196.82227, 202.0957, 204.9126, 207.37793, 211.95703, 215.00684, 218.05664, 221.18555, 223.36523, 228.65625, 233.74951, 236.79932, 241.50586, 245.32471, 247.79004, 250.60693, 255.88037, " y="1425, ">
				A group of attributes for
		</text>
		<text fill="gray" font-size="9" font-family="Segoe UI" x="162, 164.17969, 168.75879, 173.85205, 179.15186, 184.24512, 188.82422, 194.12402, 198.83057, 201.2959, 205.875, 210.96826, 216.26807, 218.7334, 222.55225, 226.70947, 229.83838, 232.01807, 237.30908, 240.35889, 242.82422, 245.95312, 250.65967, 252.83936, 257.41846, 260.46826, 265.1748, " y="1437, ">
				language and script related
		</text>
		<text fill="gray" font-size="9" font-family="Segoe UI" x="162, 164.17969, 169.27295, 172.08984, 177.36328, 180.49219, 188.24414, 192.82324, 195.87305, 198.05273, 203.32617, " y="1449, ">
				information
		</text>
		<rect fill="white" x="199" y="1210" width="83" height="16"/>
		<text font-size="12" font-weight="600" font-family="Segoe UI" x="199, 202.41016, 209.3125, 216.21484, 223.47461, 231.67188, 236.3418, 241.01172, 245.83398, 249.24414, 256.68555, 263.94531, 268.56836, 275.06055, " y="1223, ">
				i18nAttributes
		</text>
		<rect fill="white" x="177" y="1210" width="20" height="16"/>
		<text fill="gray" font-size="12" font-family="Segoe UI" x="177, 184.06641, 188.23828, " y="1223, ">
				grp
		</text>
		<path fill="none" stroke="gray" stroke-width="1" stroke-linecap="square" stroke-miterlimit="4" transform="translate(0.5 0.5)" d="M157 1227L157 1412L298 1412L298 1227L288 1227"/>
		<path fill="none" stroke="black" stroke-width="1" stroke-linecap="square" stroke-miterlimit="4" transform="translate(0.5 0.5)" d="M288 1227L288 1208L157 1208L157 1227"/>
		<rect x="162" y="1213" width="11" height="11"/>
		<rect fill="white" x="163" y="1214" width="9" height="9"/>
		<rect x="164" y="1218" width="7" height="1"/>
		<rect fill="silver" x="169" y="1241" width="66" height="21"/>
		<rect fill="white" x="165" y="1237" width="66" height="21"/>
		<rect fill="white" x="170" y="1264" width="121" height="84"/>
		<text fill="gray" font-size="9" font-family="Segoe UI" x="170, 174.78125, 180.07227, 184.77881, 188.93604, 191.11572, 193.93262, 196.1123, 200.81885, 204.6377, 207.10303, 210.15283, 215.24609, 219.95264, 222.41797, 224.59766, 229.17676, 234.27002, 239.56982, 244.66309, 249.24219, 254.54199, 259.24854, 261.71387, 266.9873, 269.8042, 272.26953, 275.31934, 280.4126, 282.59229, " y="1274, ">
				Specifies the language of this
		</text>
		<text fill="gray" font-size="9" font-family="Segoe UI" x="170, 175.29102, 178.41992, 183.69336, 188.98438, 193.69092, 196.81982, 199.86963, 204.22461, 206.68994, 211.26904, 216.3623, 221.66211, 224.12744, 229.41846, 234.69189, 237.7417, 242.44824, 247.5415, 250.59131, 252.771, 257.3501, 259.52979, 261.70947, 266.06445, 268.52979, 273.10889, 275.28857, " y="1286, ">
				property and potentially all
		</text>
		<text fill="gray" font-size="9" font-family="Segoe UI" x="170, 175.2998, 180.00635, 183.8252, 187.98242, 192.68896, 197.78223, 203.08203, 207.66113, 212.75439, 215.8042, 218.26953, 223.56055, 226.68945, 231.96289, 237.25391, 241.96045, 245.08936, 248.13916, 250.31885, 255.02539, 258.84424, " y="1298, ">
				descendant properties.
		</text>
		<text fill="gray" font-size="9" font-family="Segoe UI" x="170, 174.13086, 181.88281, 184.0625, 186.01367, 188.19336, 192.77246, 197.86572, 203.16553, 205.63086, 209.94189, 214.521, 216.70068, 221.79395, 226.50049, 230.31934, 232.78467, 238.05811, 240.875, 243.34033, 248.64014, 253.34668, 257.16553, 261.32275, 266.0293, 271.12256, 276.42236, 281.00146, 286.09473, " y="1310, ">
				xml:lang values of descendant
		</text>
		<text fill="gray" font-size="9" font-family="Segoe UI" x="170, 175.29102, 178.41992, 183.69336, 188.98438, 193.69092, 196.81982, 199.86963, 202.04932, 206.75586, 210.57471, 213.04004, 218.31348, 222.62451, 227.33105, 230.45996, 233.58887, 235.76855, 241.06836, 245.7749, 248.24023, 251.29004, 256.3833, 258.56299, 262.38184, 264.84717, 269.1582, 273.7373, 275.91699, 281.01025, 285.7168, " y="1322, ">
				properties override this value.
		</text>
		<text fill="gray" font-size="9" font-family="Segoe UI" x="170, 174.93066, 179.50977, 181.68945, 186.78271, 191.48926, 195.30811, 197.77344, 202.35254, 205.48145, 210.18799, 212.65332, 217.95312, 222.65967, 225.70947, 230.41602, 233.54492, 241.29688, 243.47656, 248.56982, 253.27637, 258.57617, 261.0415, 266.33252, " y="1334, ">
				Values are determined by
		</text>
		<text fill="gray" font-size="9" font-family="Segoe UI" x="170, 172.39502, 177.48828, 180.53809, 185.24463, 188.37354, 193.4668, 198.17334, 201.22314, 203.68848, 208.84766, 214.41992, 219.46045, 221.92578, 226.77734, 231.62891, " y="1346, ">
				Internet BCP 47.
		</text>
		<rect fill="white" x="174" y="1239" width="50" height="16"/>
		<text font-size="12" font-weight="600" font-family="Segoe UI" x="174, 180.62695, 191.61914, 195.0293, 198.28125, 201.69141, 208.14844, 215.4082, " y="1252, ">
				xml:lang
		</text>
		<path fill="none" stroke="black" stroke-width="2" stroke-miterlimit="4" transform="translate(0.5 0.5)" d="M167 1255L171 1251"/>
		<path fill="none" stroke="black" stroke-width="1" stroke-linecap="square" stroke-miterlimit="4" transform="translate(0.5 0.5)" d="M168 1251L171 1251L171 1254"/>
		<rect fill="none" stroke="black" stroke-width="1" stroke-linecap="square" stroke-miterlimit="4" transform="translate(0.5 0.5)" x="165" y="1237" width="65" height="20"/>
		<rect fill="silver" x="169" y="1359" width="52" height="21"/>
		<rect fill="white" x="165" y="1355" width="52" height="21"/>
		<rect fill="white" x="170" y="1382" width="116" height="24"/>
		<text fill="gray" font-size="9" font-family="Segoe UI" x="170, 174.71533, 179.80859, 184.51514, 186.98047, 192.28027, 194.45996, 197.58887, 202.29541, 206.45264, 209.50244, 211.68213, 216.95557, 222.04883, 226.62793, 228.80762, 230.9873, 234.03711, 238.39209, 240.85742, 246.13086, 248.94775, 251.41309, 254.46289, 259.16943, 263.30029, 266.3501, 271.44336, 276.02246, " y="1392, ">
				The directionality of textual
		</text>
		<text fill="gray" font-size="9" font-family="Segoe UI" x="170, 174.15723, 179.43066, 184.52393, 187.57373, 192.28027, 197.37354, 200.42334, 202.88867, 205.60449, 210.31104, 215.4043, 220.49756, 228.24951, 232.95605, 236.08496, 240.66406, 243.71387, 245.89355, 251.16699, 256.26025, 258.21143, 260.67676, 262.85645, 265.90625, 269.03516, 270.98633, 273.45166, 276.58057, 279.63037, 281.81006, " y="1404, ">
				content (enumeration: ltr, rtl)
		</text>
		<rect fill="white" x="174" y="1357" width="36" height="16"/>
		<text font-size="12" font-weight="600" font-family="Segoe UI" x="174, 181.42969, 184.83984, " y="1370, ">
				dir
		</text>
		<rect fill="none" stroke="black" stroke-width="1" stroke-linecap="square" stroke-miterlimit="4" transform="translate(0.5 0.5)" x="165" y="1355" width="51" height="20"/>
		<rect fill="silver" x="161" y="1462" width="52" height="21"/>
		<rect fill="white" x="157" y="1458" width="52" height="21"/>
		<rect fill="white" x="162" y="1485" width="102" height="24"/>
		<text fill="gray" font-size="9" font-family="Segoe UI" x="162, 167.80518, 172.89844, 175.36377, 180.07031, 185.37012, 190.46338, 192.64307, 196.9541, 201.5332, 203.71289, 208.41943, 213.5127, 216.5625, 219.02783, 224.30127, 227.11816, 229.5835, 232.6333, 237.72656, 242.43311, 244.89844, 249.9917, 253.0415, 260.79346, " y="1495, ">
				An equivalent of the html
		</text>
		<text fill="gray" font-size="9" font-family="Segoe UI" x="162, 166.15723, 168.33691, 172.91602, 176.73486, 180.55371, 183.01904, 187.59814, 190.64795, 193.69775, 196.82666, 199.00635, 204.29736, 209.39062, 212.44043, " y="1507, ">
				class attribute
		</text>
		<rect fill="white" x="166" y="1460" width="36" height="16"/>
		<text font-size="12" font-weight="600" font-family="Segoe UI" x="166, 171.75977, 175.16992, 181.62695, 186.90625, " y="1473, ">
				class
		</text>
		<rect fill="none" stroke="black" stroke-width="1" stroke-linecap="square" stroke-miterlimit="4" transform="translate(0.5 0.5)" x="157" y="1458" width="51" height="20"/>
		<rect fill="silver" x="161" y="1520" width="52" height="21"/>
		<rect fill="white" x="157" y="1516" width="52" height="21"/>
		<rect fill="white" x="162" y="1543" width="121" height="24"/>
		<text fill="gray" font-size="9" font-family="Segoe UI" x="162, 167.80518, 172.89844, 175.36377, 180.07031, 185.37012, 190.46338, 192.64307, 196.9541, 201.5332, 203.71289, 208.41943, 213.5127, 216.5625, 219.02783, 224.30127, 227.11816, 229.5835, 232.6333, 237.72656, 242.43311, 244.89844, 249.9917, 253.0415, 260.79346, 262.97314, 265.43848, 270.53174, 273.66064, 278.36719, " y="1553, ">
				An equivalent of the html href
		</text>
		<text fill="gray" font-size="9" font-family="Segoe UI" x="162, 166.5791, 169.62891, 172.67871, 175.80762, 177.9873, 183.27832, 188.37158, 191.42139, " y="1565, ">
				attribute
		</text>
		<rect fill="white" x="166" y="1518" width="36" height="16"/>
		<text font-size="12" font-weight="600" font-family="Segoe UI" x="166, 173.22461, 177.95312, 184.44531, " y="1531, ">
				href
		</text>
		<rect fill="none" stroke="black" stroke-width="1" stroke-linecap="square" stroke-miterlimit="4" transform="translate(0.5 0.5)" x="157" y="1516" width="51" height="20"/>
		<rect fill="silver" x="161" y="1578" width="65" height="21"/>
		<rect fill="white" x="157" y="1574" width="65" height="21"/>
		<rect fill="white" x="162" y="1601" width="102" height="24"/>
		<text fill="gray" font-size="9" font-family="Segoe UI" x="162, 167.80518, 172.89844, 175.36377, 180.07031, 185.37012, 190.46338, 192.64307, 196.9541, 201.5332, 203.71289, 208.41943, 213.5127, 216.5625, 219.02783, 224.30127, 227.11816, 229.5835, 232.6333, 237.72656, 242.43311, 244.89844, 249.9917, 253.0415, 260.79346, " y="1611, ">
				An equivalent of the html
		</text>
		<text fill="gray" font-size="9" font-family="Segoe UI" x="162, 167.09326, 170.22217, 174.92871, 177.74561, 179.92529, 184.50439, 189.59766, 194.89746, 197.36279, 201.94189, 204.9917, 208.0415, 211.17041, 213.3501, 218.64111, 223.73438, 226.78418, " y="1623, ">
				hreflang attribute
		</text>
		<rect fill="white" x="166" y="1576" width="49" height="16"/>
		<text font-size="12" font-weight="600" font-family="Segoe UI" x="166, 173.22461, 177.95312, 184.44531, 189.10352, 192.51367, 198.9707, 206.23047, " y="1589, ">
				hreflang
		</text>
		<rect fill="none" stroke="black" stroke-width="1" stroke-linecap="square" stroke-miterlimit="4" transform="translate(0.5 0.5)" x="157" y="1574" width="64" height="20"/>
		<rect fill="silver" x="161" y="1636" width="52" height="21"/>
		<rect fill="white" x="157" y="1632" width="52" height="21"/>
		<rect fill="white" x="162" y="1659" width="115" height="24"/>
		<text fill="gray" font-size="9" font-family="Segoe UI" x="162, 167.80518, 172.89844, 175.36377, 180.07031, 185.37012, 190.46338, 192.64307, 196.9541, 201.5332, 203.71289, 208.41943, 213.5127, 216.5625, 219.02783, 224.30127, 227.11816, 229.5835, 232.6333, 237.72656, 242.43311, 244.89844, 249.9917, 253.0415, 260.79346, 262.97314, 265.43848, 268.56738, 273.27393, " y="1669, ">
				An equivalent of the html rel
		</text>
		<text fill="gray" font-size="9" font-family="Segoe UI" x="162, 166.5791, 169.62891, 172.67871, 175.80762, 177.9873, 183.27832, 188.37158, 191.42139, " y="1681, ">
				attribute
		</text>
		<rect fill="white" x="166" y="1634" width="36" height="16"/>
		<text font-size="12" font-weight="600" font-family="Segoe UI" x="166, 170.72852, 177.2207, " y="1647, ">
				rel
		</text>
		<rect fill="none" stroke="black" stroke-width="1" stroke-linecap="square" stroke-miterlimit="4" transform="translate(0.5 0.5)" x="157" y="1632" width="51" height="20"/>
		<rect fill="silver" x="161" y="1694" width="52" height="21"/>
		<rect fill="white" x="157" y="1690" width="52" height="21"/>
		<rect fill="white" x="162" y="1717" width="117" height="24"/>
		<text fill="gray" font-size="9" font-family="Segoe UI" x="162, 167.80518, 172.89844, 175.36377, 180.07031, 185.37012, 190.46338, 192.64307, 196.9541, 201.5332, 203.71289, 208.41943, 213.5127, 216.5625, 219.02783, 224.30127, 227.11816, 229.5835, 232.6333, 237.72656, 242.43311, 244.89844, 249.9917, 253.0415, 260.79346, 262.97314, 265.43848, 268.56738, 273.27393, " y="1727, ">
				An equivalent of the html rev
		</text>
		<text fill="gray" font-size="9" font-family="Segoe UI" x="162, 166.5791, 169.62891, 172.67871, 175.80762, 177.9873, 183.27832, 188.37158, 191.42139, " y="1739, ">
				attribute
		</text>
		<rect fill="white" x="166" y="1692" width="36" height="16"/>
		<text font-size="12" font-weight="600" font-family="Segoe UI" x="166, 170.72852, 177.2207, " y="1705, ">
				rev
		</text>
		<rect fill="none" stroke="black" stroke-width="1" stroke-linecap="square" stroke-miterlimit="4" transform="translate(0.5 0.5)" x="157" y="1690" width="51" height="20"/>
		<path fill="silver" d="M161 1757L166 1752L234 1752L239 1757L239 1768L234 1773L166 1773L161 1768L161 1757Z"/>
		<path fill="white" d="M157 1753L162 1748L230 1748L235 1753L235 1764L230 1769L162 1769L157 1764L157 1753Z"/>
		<rect fill="white" x="184" y="1750" width="46" height="16"/>
		<text font-size="12" font-weight="600" font-family="Segoe UI" x="184, 191.10742, 198.21484, 205.55078, 210.2207, 217.44531, 223.9375, " y="1763, ">
				##other
		</text>
		<rect fill="white" x="162" y="1750" width="20" height="16"/>
		<text fill="gray" font-size="12" font-family="Segoe UI" x="162, 168.10547, 174.89648, " y="1763, ">
				any
		</text>
		<path fill="none" stroke="black" stroke-width="1" stroke-linecap="square" stroke-miterlimit="4" transform="translate(0.5 0.5)" d="M157 1753L162 1748L229 1748L234 1753L234 1763L229 1768L162 1768L157 1763L157 1753Z"/>
		<rect x="148" y="5" width="11" height="11"/>
		<rect fill="white" x="149" y="6" width="9" height="9"/>
		<rect x="150" y="10" width="7" height="1"/>
		<path fill="none" stroke="black" stroke-width="1" stroke-linecap="square" stroke-miterlimit="4" transform="translate(0.5 0.5)" d="M188 1908L196 1908"/>
		<path fill="none" stroke="black" stroke-width="1" stroke-linecap="square" stroke-miterlimit="4" transform="translate(0.5 0.5)" d="M197 1908L197 1803"/>
		<path fill="none" stroke="black" stroke-width="1" stroke-linecap="square" stroke-miterlimit="4" transform="translate(0.5 0.5)" d="M197 1908L197 1939"/>
		<path transform="translate(0.5 0.5)" d="M197.5 1940L197.5 1942L197.5 1942.5L196.5 1942.5L196.5 1942L196.5 1939.5L197.5 1939.5L197.5 1940ZM197.5 1946L197.5 1948L197.5 1948.5L196.5 1948.5L196.5 1948L196.5 1945.5L197.5 1945.5L197.5 1946ZM197.5 1952L197.5 1954L197.5 1954.5L196.5 1954.5L196.5 1954L196.5 1951.5L197.5 1951.5L197.5 1952ZM197.5 1958L197.5 1960L197.5 1960.5L196.5 1960.5L196.5 1960L196.5 1957.5L197.5 1957.5L197.5 1958ZM197.5 1964L197.5 1966L197.5 1966.5L196.5 1966.5L196.5 1966L196.5 1963.5L197.5 1963.5L197.5 1964ZM197.5 1970L197.5 1972L197.5 1972.5L196.5 1972.5L196.5 1972L196.5 1969.5L197.5 1969.5L197.5 1970ZM197.5 1976L197.5 1978L197.5 1978.5L196.5 1978.5L196.5 1978L196.5 1975.5L197.5 1975.5L197.5 1976ZM197.5 1982L197.5 1984L197.5 1984.5L196.5 1984.5L196.5 1984L196.5 1981.5L197.5 1981.5L197.5 1982ZM197.5 1988L197.5 1990L197.5 1990.5L196.5 1990.5L196.5 1990L196.5 1987.5L197.5 1987.5L197.5 1988ZM197.5 1994L197.5 1996L197.5 1996.5L196.5 1996.5L196.5 1996L196.5 1993.5L197.5 1993.5L197.5 1994ZM197.5 2000L197.5 2002L197.5 2002.5L196.5 2002.5L196.5 2002L196.5 1999.5L197.5 1999.5L197.5 2000ZM197.5 2006L197.5 2008L197.5 2008.5L196.5 2008.5L196.5 2008L196.5 2005.5L197.5 2005.5L197.5 2006ZM197.5 2012L197.5 2014.5L196.5 2014.5L196.5 2011.5L197.5 2011.5L197.5 2012Z"/>
		<path fill="none" stroke="black" stroke-width="1" stroke-linecap="square" stroke-miterlimit="4" transform="translate(0.5 0.5)" d="M197 1802L211 1802"/>
		<path fill="none" stroke="black" stroke-width="1" stroke-linecap="square" stroke-miterlimit="4" transform="translate(0.5 0.5)" d="M197 1865L211 1865"/>
		<path fill="none" stroke="black" stroke-width="1" stroke-linecap="square" stroke-miterlimit="4" transform="translate(0.5 0.5)" d="M197 1940L211 1940"/>
		<path transform="translate(0.5 0.5)" d="M197 2014.5L199 2014.5L199.5 2014.5L199.5 2015.5L199 2015.5L196.5 2015.5L196.5 2014.5L197 2014.5ZM203 2014.5L205 2014.5L205.5 2014.5L205.5 2015.5L205 2015.5L202.5 2015.5L202.5 2014.5L203 2014.5ZM209 2014.5L211.5 2014.5L211.5 2015.5L208.5 2015.5L208.5 2014.5L209 2014.5Z"/>
		<path fill="silver" d="M150 1910L155 1905L180 1905L185 1910L185 1921L180 1926L155 1926L150 1921L150 1910Z"/>
		<path fill="white" d="M146 1906L151 1901L175 1901L180 1906L180 1916L175 1921L151 1921L146 1916L146 1906Z"/>
		<path transform="translate(0.5 0.5)" d="M149.889 1901.4L150.793 1900.5L151.929 1900.5L152.429 1900.5L152.429 1901.5L151.929 1901.5L151 1901.5L151 1901L151.354 1901.35L150.243 1902.46L149.536 1901.76L149.889 1901.4ZM155.929 1900.5L157.929 1900.5L158.429 1900.5L158.429 1901.5L157.929 1901.5L155.429 1901.5L155.429 1900.5L155.929 1900.5ZM161.929 1900.5L163.929 1900.5L164.429 1900.5L164.429 1901.5L163.929 1901.5L161.429 1901.5L161.429 1900.5L161.929 1900.5ZM167.929 1900.5L169.929 1900.5L170.429 1900.5L170.429 1901.5L169.929 1901.5L167.429 1901.5L167.429 1900.5L167.929 1900.5ZM173.929 1900.5L175.207 1900.5L176.01 1901.3L176.364 1901.66L175.657 1902.36L175.303 1902.01L174.646 1901.35L175 1901L175 1901.5L173.429 1901.5L173.429 1900.5L173.929 1900.5ZM178.839 1904.13L180.253 1905.55L180.607 1905.9L179.899 1906.61L179.546 1906.25L177.778 1904.49L178.485 1903.78L178.839 1904.13ZM180.5 1909.86L180.5 1911.86L180.5 1912.36L179.5 1912.36L179.5 1911.86L179.5 1909.36L180.5 1909.36L180.5 1909.86ZM180.5 1915.86L180.5 1916.21L179.04 1917.67L178.686 1918.02L177.979 1917.31L178.333 1916.96L179.646 1915.65L180 1916L179.5 1916L179.5 1915.36L180.5 1915.36L180.5 1915.86ZM176.211 1920.5L175.207 1921.5L174.213 1921.5L173.713 1921.5L173.713 1920.5L174.213 1920.5L175 1920.5L175 1921L174.646 1920.65L175.858 1919.44L176.565 1920.14L176.211 1920.5ZM170.213 1921.5L168.213 1921.5L167.713 1921.5L167.713 1920.5L168.213 1920.5L170.713 1920.5L170.713 1921.5L170.213 1921.5ZM164.213 1921.5L162.213 1921.5L161.713 1921.5L161.713 1920.5L162.213 1920.5L164.713 1920.5L164.713 1921.5L164.213 1921.5ZM158.213 1921.5L156.213 1921.5L155.713 1921.5L155.713 1920.5L156.213 1920.5L158.713 1920.5L158.713 1921.5L158.213 1921.5ZM152.213 1921.5L150.793 1921.5L150.09 1920.8L149.737 1920.44L150.444 1919.74L150.797 1920.09L151.354 1920.65L151 1921L151 1920.5L152.713 1920.5L152.713 1921.5L152.213 1921.5ZM147.262 1917.97L145.847 1916.55L145.494 1916.2L146.201 1915.49L146.555 1915.85L148.322 1917.62L147.615 1918.32L147.262 1917.97ZM145.5 1912.28L145.5 1910.28L145.5 1909.78L146.5 1909.78L146.5 1910.28L146.5 1912.78L145.5 1912.78L145.5 1912.28ZM145.5 1906.28L145.5 1905.79L147.414 1903.88L148.121 1904.59L146.354 1906.35L146 1906L146.5 1906L146.5 1906.78L145.5 1906.78L145.5 1906.28Z"/>
		<path fill="white" d="M143 1903L148 1898L173 1898L178 1903L178 1914L173 1919L148 1919L143 1914L143 1903Z"/>
		<path fill="none" stroke="black" stroke-width="1" stroke-linecap="square" stroke-miterlimit="4" transform="translate(0.5 0.5)" d="M162 1919L168 1925L171 1922"/>
		<path fill="none" stroke="black" stroke-width="1" stroke-linecap="square" stroke-miterlimit="4" transform="translate(0.5 0.5)" d="M148 1908L153 1908L157 1904"/>
		<path fill="none" stroke="black" stroke-width="1" stroke-linecap="square" stroke-miterlimit="4" transform="translate(0.5 0.5)" d="M163 1908L171 1908"/>
		<path fill="none" stroke="black" stroke-width="1" stroke-linecap="square" stroke-miterlimit="4" transform="translate(0.5 0.5)" d="M163 1904L167 1904L167 1912L163 1912"/>
		<rect x="159" y="1903" width="3" height="3"/>
		<rect x="159" y="1907" width="3" height="3"/>
		<rect x="159" y="1911" width="3" height="3"/>
		<text font-size="12" font-family="Segoe UI" x="147.76562, " y="1938, ">
				0
		</text>
		<text font-size="12" font-family="Symbol" x="162.72266, " y="1937, ">
				
		</text>
		<text font-size="12" font-family="Segoe UI" x="155.89844, 158.5, " y="1938, ">
				..
		</text>
		<path transform="translate(0.5 0.5)" d="M146.889 1898.4L147.793 1897.5L148.929 1897.5L149.429 1897.5L149.429 1898.5L148.929 1898.5L148 1898.5L148 1898L148.354 1898.35L147.243 1899.46L146.536 1898.76L146.889 1898.4ZM152.929 1897.5L154.929 1897.5L155.429 1897.5L155.429 1898.5L154.929 1898.5L152.429 1898.5L152.429 1897.5L152.929 1897.5ZM158.929 1897.5L160.929 1897.5L161.429 1897.5L161.429 1898.5L160.929 1898.5L158.429 1898.5L158.429 1897.5L158.929 1897.5ZM164.929 1897.5L166.929 1897.5L167.429 1897.5L167.429 1898.5L166.929 1898.5L164.429 1898.5L164.429 1897.5L164.929 1897.5ZM170.929 1897.5L172.207 1897.5L173.01 1898.3L173.364 1898.66L172.657 1899.36L172.303 1899.01L171.646 1898.35L172 1898L172 1898.5L170.429 1898.5L170.429 1897.5L170.929 1897.5ZM175.839 1901.13L177.253 1902.55L177.607 1902.9L176.899 1903.61L176.546 1903.25L174.778 1901.49L175.485 1900.78L175.839 1901.13ZM177.5 1906.86L177.5 1908.86L177.5 1909.36L176.5 1909.36L176.5 1908.86L176.5 1906.36L177.5 1906.36L177.5 1906.86ZM177.5 1912.86L177.5 1913.21L176.04 1914.67L175.686 1915.02L174.979 1914.31L175.333 1913.96L176.646 1912.65L177 1913L176.5 1913L176.5 1912.36L177.5 1912.36L177.5 1912.86ZM173.211 1917.5L172.207 1918.5L171.213 1918.5L170.713 1918.5L170.713 1917.5L171.213 1917.5L172 1917.5L172 1918L171.646 1917.65L172.858 1916.44L173.565 1917.14L173.211 1917.5ZM167.213 1918.5L165.213 1918.5L164.713 1918.5L164.713 1917.5L165.213 1917.5L167.713 1917.5L167.713 1918.5L167.213 1918.5ZM161.213 1918.5L159.213 1918.5L158.713 1918.5L158.713 1917.5L159.213 1917.5L161.713 1917.5L161.713 1918.5L161.213 1918.5ZM155.213 1918.5L153.213 1918.5L152.713 1918.5L152.713 1917.5L153.213 1917.5L155.713 1917.5L155.713 1918.5L155.213 1918.5ZM149.213 1918.5L147.793 1918.5L147.09 1917.8L146.737 1917.44L147.444 1916.74L147.797 1917.09L148.354 1917.65L148 1918L148 1917.5L149.713 1917.5L149.713 1918.5L149.213 1918.5ZM144.262 1914.97L142.847 1913.55L142.494 1913.2L143.201 1912.49L143.555 1912.85L145.322 1914.62L144.615 1915.32L144.262 1914.97ZM142.5 1909.28L142.5 1907.28L142.5 1906.78L143.5 1906.78L143.5 1907.28L143.5 1909.78L142.5 1909.78L142.5 1909.28ZM142.5 1903.28L142.5 1902.79L144.414 1900.88L145.121 1901.59L143.354 1903.35L143 1903L143.5 1903L143.5 1903.78L142.5 1903.78L142.5 1903.28Z"/>
		<rect fill="silver" x="216" y="1796" width="54" height="21"/>
		<rect fill="white" x="212" y="1792" width="54" height="21"/>
		<rect fill="white" x="217" y="1819" width="108" height="24"/>
		<text fill="gray" font-size="9" font-family="Segoe UI" x="217, 222.80518, 227.89844, 230.36377, 232.54346, 237.63672, 239.81641, 241.99609, 247.08936, 251.7959, 254.26123, 262.01318, 266.59229, 269.72119, 274.19482, 279.28809, 284.5791, 287.04443, 290.09424, 294.67334, 299.97314, 302.43848, 305.48828, 310.76172, 313.22705, 318.51807, " y="1829, ">
				An inline markup tag to be
		</text>
		<text fill="gray" font-size="9" font-family="Segoe UI" x="217, 222.09326, 225.91211, 230.61865, 235.91846, 238.38379, 244.8877, 247.06738, 250.11719, 255.21045, 257.67578, 262.25488, 267.34814, 271.70312, 274.16846, 278.32568, 283.59912, 288.69238, 292.84961, 297.55615, 302.84717, " y="1841, ">
				used with any concept
		</text>
		<rect fill="white" x="221" y="1794" width="33" height="16"/>
		<text font-size="12" font-weight="600" font-family="Segoe UI" x="221, 224.41016, 231.66992, 235.08008, 238.49023, 245.75, " y="1807, ">
				inline
		</text>
		<path fill="none" stroke="black" stroke-width="1" stroke-linecap="square" stroke-miterlimit="4" transform="translate(0.5 0.5)" d="M214 1794L219 1794"/>
		<path fill="none" stroke="black" stroke-width="1" stroke-linecap="square" stroke-miterlimit="4" transform="translate(0.5 0.5)" d="M214 1796L218 1796"/>
		<path fill="none" stroke="black" stroke-width="1" stroke-linecap="square" stroke-miterlimit="4" transform="translate(0.5 0.5)" d="M214 1798L218 1798"/>
		<path fill="none" stroke="black" stroke-width="2" stroke-miterlimit="4" transform="translate(0.5 0.5)" d="M214 1810L218 1806"/>
		<path fill="none" stroke="black" stroke-width="1" stroke-linecap="square" stroke-miterlimit="4" transform="translate(0.5 0.5)" d="M215 1806L218 1806L218 1809"/>
		<rect fill="none" stroke="black" stroke-width="1" stroke-linecap="square" stroke-miterlimit="4" transform="translate(0.5 0.5)" x="212" y="1792" width="53" height="20"/>
		<rect x="260" y="1797" width="11" height="11"/>
		<rect fill="white" x="261" y="1798" width="9" height="9"/>
		<rect x="262" y="1802" width="7" height="1"/>
		<rect x="265" y="1799" width="1" height="7"/>
		<rect fill="silver" x="216" y="1859" width="52" height="21"/>
		<rect fill="white" x="212" y="1855" width="52" height="21"/>
		<rect fill="white" x="217" y="1882" width="113" height="36"/>
		<text fill="gray" font-size="9" font-family="Segoe UI" x="217, 222.80518, 225.27051, 230.57031, 235.27686, 240.37012, 245.07666, 248.20557, 250.38525, 254.54248, 257.00781, 264.75977, 269.46631, 273.62354, 278.7168, 283.2959, 288.38916, 290.56885, 294.3877, 302.13965, 304.60498, 307.42188, 312.69531, " y="1892, ">
				A generic mechanism for
		</text>
		<text fill="gray" font-size="9" font-family="Segoe UI" x="217, 221.5791, 226.87891, 232.17871, 234.3584, 239.45166, 244.75146, 247.2168, 249.39648, 254.48975, 256.66943, 258.84912, 263.94238, 268.64893, 271.11426, 273.29395, 278.38721, 281.2041, 286.47754, 289.60645, 297.3584, 301.9375, 304.9873, 307.16699, 312.44043, 317.53369, 319.99902, 323.04883, " y="1904, ">
				adding inline information to
		</text>
		<text fill="gray" font-size="9" font-family="Segoe UI" x="217, 222.29102, 226.87012, 229.99902, 233.04883, 236.86768, 239.33301, 244.60645, 247.42334, 249.88867, 252.93848, 258.03174, 262.73828, 265.20361, 268.25342, 272.95996, 277.09082, 280.14062, 285.23389, 289.81299, 291.99268, 294.45801, 298.61523, 303.88867, 308.98193, 312.03174, 316.73828, 321.83154, " y="1916, ">
				parts of the textual content
		</text>
		<rect fill="white" x="221" y="1857" width="31" height="16"/>
		<text font-size="12" font-weight="600" font-family="Segoe UI" x="221, 226.2793, 233.60352, 240.06055, " y="1870, ">
				span
		</text>
		<path fill="none" stroke="black" stroke-width="1" stroke-linecap="square" stroke-miterlimit="4" transform="translate(0.5 0.5)" d="M214 1857L219 1857"/>
		<path fill="none" stroke="black" stroke-width="1" stroke-linecap="square" stroke-miterlimit="4" transform="translate(0.5 0.5)" d="M214 1859L218 1859"/>
		<path fill="none" stroke="black" stroke-width="1" stroke-linecap="square" stroke-miterlimit="4" transform="translate(0.5 0.5)" d="M214 1861L218 1861"/>
		<path fill="none" stroke="black" stroke-width="2" stroke-miterlimit="4" transform="translate(0.5 0.5)" d="M214 1873L218 1869"/>
		<path fill="none" stroke="black" stroke-width="1" stroke-linecap="square" stroke-miterlimit="4" transform="translate(0.5 0.5)" d="M215 1869L218 1869L218 1872"/>
		<rect fill="none" stroke="black" stroke-width="1" stroke-linecap="square" stroke-miterlimit="4" transform="translate(0.5 0.5)" x="212" y="1855" width="51" height="20"/>
		<rect x="258" y="1860" width="11" height="11"/>
		<rect fill="white" x="259" y="1861" width="9" height="9"/>
		<rect x="260" y="1865" width="7" height="1"/>
		<rect x="263" y="1862" width="1" height="7"/>
		<rect fill="silver" x="216" y="1934" width="52" height="21"/>
		<rect fill="white" x="212" y="1930" width="52" height="21"/>
		<rect fill="white" x="217" y="1957" width="119" height="36"/>
		<text fill="gray" font-size="9" font-family="Segoe UI" x="217, 221.78125, 223.96094, 231.71289, 237.00391, 239.18359, 243.89014, 246.35547, 254.76221, 259.61377, 265.18604, 267.65137, 273.03467, 278.12793, 283.41895, 287.77393, 290.23926, 296.04443, 301.1377, 306.23096, 311.50439, 314.5542, 319.1333, 322.18311, 324.36279, 329.63623, " y="1967, ">
				Simple W3C Ruby Annotation
		</text>
		<text fill="gray" font-size="9" font-family="Segoe UI" x="217, 220.59912, 223.06445, 226.8833, 231.58984, 236.29639, 238.76172, 243.85498, 246.90479, 249.95459, 255.24561, 257.19678, 260.70361, 264.21045, 270.71436, 277.21826, 283.72217, 285.67334, 292.17725, 297.02881, 298.97998, 304.25342, 307.38232, 312.68213, 316.18896, 320.9043, 326.2876, " y="1979, ">
				- see http://www.w3.org/TR/
		</text>
		<text fill="gray" font-size="9" font-family="Segoe UI" x="217, 220.12891, 225.22217, 230.51318, 234.86816, 238.375, 243.69238, 247.51123, 249.69092, 257.44287, 262.73389, 264.91357, 269.62012, 273.21924, 276.34814, 281.44141, 286.73242, 291.0874, " y="1991, ">
				ruby/#simple-ruby1
		</text>
		<rect fill="white" x="221" y="1932" width="31" height="16"/>
		<text font-size="12" font-weight="600" font-family="Segoe UI" x="221, 225.81055, 233.07031, 240.51172, " y="1945, ">
				ruby
		</text>
		<path fill="none" stroke="black" stroke-width="2" stroke-miterlimit="4" transform="translate(0.5 0.5)" d="M214 1948L218 1944"/>
		<path fill="none" stroke="black" stroke-width="1" stroke-linecap="square" stroke-miterlimit="4" transform="translate(0.5 0.5)" d="M215 1944L218 1944L218 1947"/>
		<rect fill="none" stroke="black" stroke-width="1" stroke-linecap="square" stroke-miterlimit="4" transform="translate(0.5 0.5)" x="212" y="1930" width="51" height="20"/>
		<rect x="258" y="1935" width="11" height="11"/>
		<rect fill="white" x="259" y="1936" width="9" height="9"/>
		<rect x="260" y="1940" width="7" height="1"/>
		<rect x="263" y="1937" width="1" height="7"/>
		<path fill="silver" d="M219 2017L224 2012L292 2012L297 2017L297 2028L292 2033L224 2033L219 2028L219 2017Z"/>
		<path fill="white" d="M215 2013L220 2008L287 2008L292 2013L292 2023L287 2028L220 2028L215 2023L215 2013Z"/>
		<path transform="translate(0.5 0.5)" d="M218.889 2008.4L219.793 2007.5L220.929 2007.5L221.429 2007.5L221.429 2008.5L220.929 2008.5L220 2008.5L220 2008L220.354 2008.35L219.243 2009.46L218.536 2008.76L218.889 2008.4ZM224.929 2007.5L226.929 2007.5L227.429 2007.5L227.429 2008.5L226.929 2008.5L224.429 2008.5L224.429 2007.5L224.929 2007.5ZM230.929 2007.5L232.929 2007.5L233.429 2007.5L233.429 2008.5L232.929 2008.5L230.429 2008.5L230.429 2007.5L230.929 2007.5ZM236.929 2007.5L238.929 2007.5L239.429 2007.5L239.429 2008.5L238.929 2008.5L236.429 2008.5L236.429 2007.5L236.929 2007.5ZM242.929 2007.5L244.929 2007.5L245.429 2007.5L245.429 2008.5L244.929 2008.5L242.429 2008.5L242.429 2007.5L242.929 2007.5ZM248.929 2007.5L250.929 2007.5L251.429 2007.5L251.429 2008.5L250.929 2008.5L248.429 2008.5L248.429 2007.5L248.929 2007.5ZM254.929 2007.5L256.929 2007.5L257.429 2007.5L257.429 2008.5L256.929 2008.5L254.429 2008.5L254.429 2007.5L254.929 2007.5ZM260.929 2007.5L262.929 2007.5L263.429 2007.5L263.429 2008.5L262.929 2008.5L260.429 2008.5L260.429 2007.5L260.929 2007.5ZM266.929 2007.5L268.929 2007.5L269.429 2007.5L269.429 2008.5L268.929 2008.5L266.429 2008.5L266.429 2007.5L266.929 2007.5ZM272.929 2007.5L274.929 2007.5L275.429 2007.5L275.429 2008.5L274.929 2008.5L272.429 2008.5L272.429 2007.5L272.929 2007.5ZM278.929 2007.5L280.929 2007.5L281.429 2007.5L281.429 2008.5L280.929 2008.5L278.429 2008.5L278.429 2007.5L278.929 2007.5ZM284.929 2007.5L286.929 2007.5L287.429 2007.5L287.429 2008.5L286.929 2008.5L284.429 2008.5L284.429 2007.5L284.929 2007.5ZM290.132 2010.42L291.546 2011.84L291.899 2012.19L291.192 2012.9L290.839 2012.55L289.071 2010.78L289.778 2010.07L290.132 2010.42ZM292.5 2015.86L292.5 2017.86L292.5 2018.36L291.5 2018.36L291.5 2017.86L291.5 2015.36L292.5 2015.36L292.5 2015.86ZM292.5 2021.86L292.5 2023.21L291.747 2023.96L291.393 2024.31L290.686 2023.61L291.04 2023.25L291.646 2022.65L292 2023L291.5 2023L291.5 2021.36L292.5 2021.36L292.5 2021.86ZM288.919 2026.79L287.504 2028.2L287.151 2028.56L286.444 2027.85L286.797 2027.5L288.565 2025.73L289.272 2026.44L288.919 2026.79ZM283.213 2028.5L281.213 2028.5L280.713 2028.5L280.713 2027.5L281.213 2027.5L283.713 2027.5L283.713 2028.5L283.213 2028.5ZM277.213 2028.5L275.213 2028.5L274.713 2028.5L274.713 2027.5L275.213 2027.5L277.713 2027.5L277.713 2028.5L277.213 2028.5ZM271.213 2028.5L269.213 2028.5L268.713 2028.5L268.713 2027.5L269.213 2027.5L271.713 2027.5L271.713 2028.5L271.213 2028.5ZM265.213 2028.5L263.213 2028.5L262.713 2028.5L262.713 2027.5L263.213 2027.5L265.713 2027.5L265.713 2028.5L265.213 2028.5ZM259.213 2028.5L257.213 2028.5L256.713 2028.5L256.713 2027.5L257.213 2027.5L259.713 2027.5L259.713 2028.5L259.213 2028.5ZM253.213 2028.5L251.213 2028.5L250.713 2028.5L250.713 2027.5L251.213 2027.5L253.713 2027.5L253.713 2028.5L253.213 2028.5ZM247.213 2028.5L245.213 2028.5L244.713 2028.5L244.713 2027.5L245.213 2027.5L247.713 2027.5L247.713 2028.5L247.213 2028.5ZM241.213 2028.5L239.213 2028.5L238.713 2028.5L238.713 2027.5L239.213 2027.5L241.713 2027.5L241.713 2028.5L241.213 2028.5ZM235.213 2028.5L233.213 2028.5L232.713 2028.5L232.713 2027.5L233.213 2027.5L235.713 2027.5L235.713 2028.5L235.213 2028.5ZM229.213 2028.5L227.213 2028.5L226.713 2028.5L226.713 2027.5L227.213 2027.5L229.713 2027.5L229.713 2028.5L229.213 2028.5ZM223.213 2028.5L221.213 2028.5L220.713 2028.5L220.713 2027.5L221.213 2027.5L223.713 2027.5L223.713 2028.5L223.213 2028.5ZM217.676 2026.38L216.262 2024.97L215.908 2024.62L216.615 2023.91L216.969 2024.26L218.737 2026.03L218.029 2026.74L217.676 2026.38ZM214.5 2021.28L214.5 2019.28L214.5 2018.78L215.5 2018.78L215.5 2019.28L215.5 2021.78L214.5 2021.78L214.5 2021.28ZM214.5 2015.28L214.5 2013.28L214.5 2012.78L215.5 2012.78L215.5 2013.28L215.5 2015.78L214.5 2015.78L214.5 2015.28ZM214.646 2012.65L216.414 2010.88L217.121 2011.59L215 2013.71L214.293 2013L214.646 2012.65Z"/>
		<path fill="white" d="M212 2010L217 2005L285 2005L290 2010L290 2021L285 2026L217 2026L212 2021L212 2010Z"/>
		<path fill="none" stroke="black" stroke-width="1" stroke-linecap="square" stroke-miterlimit="4" transform="translate(0.5 0.5)" d="M274 2026L280 2032L283 2029"/>
		<rect fill="white" x="217" y="2051" width="120" height="36"/>
		<text fill="gray" font-size="9" font-family="Segoe UI" x="217, 221.55273, 225.68359, 228.7334, 233.43994, 238.5332, 242.35205, 244.53174, 249.80518, 254.89844, 257.36377, 262.65479, 267.92822, 270.10791, 275.20117, 278.25098, 280.71631, 283.5332, 288.80664, 291.93555, 294.40088, 299.69189, 302.8208, 308.09424, 312.40527, 314.58496, 319.88477, 324.59131, 327.72021, " y="2061, ">
				Extension point for provider-
		</text>
		<text fill="gray" font-size="9" font-family="Segoe UI" x="217, 222.2998, 227.00635, 229.82324, 232.00293, 237.09619, 241.80273, 247.10254, 249.56787, 254.85889, 257.98779, 263.26123, 268.55225, 273.25879, 276.3877, 279.4375, 281.61719, 286.32373, 290.14258, 292.60791, 295.4248, 298.55371, 303.82715, 311.5791, 314.04443, 319.31787, 322.36768, 327.46094, 332.16748, " y="2073, ">
				defined properties from other
		</text>
		<text fill="gray" font-size="9" font-family="Segoe UI" x="217, 222.09326, 226.67236, 234.42432, 239.13086, 242.94971, 248.24072, 252.81982, 256.97705, 261.68359, " y="2085, ">
				namespaces
		</text>
		<rect fill="white" x="239" y="2007" width="46" height="16"/>
		<text font-size="12" font-weight="600" font-family="Segoe UI" x="239, 246.10742, 253.21484, 260.55078, 265.2207, 272.44531, 278.9375, " y="2020, ">
				##other
		</text>
		<rect fill="white" x="217" y="2007" width="20" height="16"/>
		<text fill="gray" font-size="12" font-family="Segoe UI" x="217, 223.10547, 229.89648, " y="2020, ">
				any
		</text>
		<text font-size="12" font-family="Segoe UI" x="259.76562, " y="2045, ">
				0
		</text>
		<text font-size="12" font-family="Symbol" x="274.72266, " y="2044, ">
				
		</text>
		<text font-size="12" font-family="Segoe UI" x="267.89844, 270.5, " y="2045, ">
				..
		</text>
		<path transform="translate(0.5 0.5)" d="M215.889 2005.4L216.793 2004.5L217.929 2004.5L218.429 2004.5L218.429 2005.5L217.929 2005.5L217 2005.5L217 2005L217.354 2005.35L216.243 2006.46L215.536 2005.76L215.889 2005.4ZM221.929 2004.5L223.929 2004.5L224.429 2004.5L224.429 2005.5L223.929 2005.5L221.429 2005.5L221.429 2004.5L221.929 2004.5ZM227.929 2004.5L229.929 2004.5L230.429 2004.5L230.429 2005.5L229.929 2005.5L227.429 2005.5L227.429 2004.5L227.929 2004.5ZM233.929 2004.5L235.929 2004.5L236.429 2004.5L236.429 2005.5L235.929 2005.5L233.429 2005.5L233.429 2004.5L233.929 2004.5ZM239.929 2004.5L241.929 2004.5L242.429 2004.5L242.429 2005.5L241.929 2005.5L239.429 2005.5L239.429 2004.5L239.929 2004.5ZM245.929 2004.5L247.929 2004.5L248.429 2004.5L248.429 2005.5L247.929 2005.5L245.429 2005.5L245.429 2004.5L245.929 2004.5ZM251.929 2004.5L253.929 2004.5L254.429 2004.5L254.429 2005.5L253.929 2005.5L251.429 2005.5L251.429 2004.5L251.929 2004.5ZM257.929 2004.5L259.929 2004.5L260.429 2004.5L260.429 2005.5L259.929 2005.5L257.429 2005.5L257.429 2004.5L257.929 2004.5ZM263.929 2004.5L265.929 2004.5L266.429 2004.5L266.429 2005.5L265.929 2005.5L263.429 2005.5L263.429 2004.5L263.929 2004.5ZM269.929 2004.5L271.929 2004.5L272.429 2004.5L272.429 2005.5L271.929 2005.5L269.429 2005.5L269.429 2004.5L269.929 2004.5ZM275.929 2004.5L277.929 2004.5L278.429 2004.5L278.429 2005.5L277.929 2005.5L275.429 2005.5L275.429 2004.5L275.929 2004.5ZM281.929 2004.5L283.929 2004.5L284.429 2004.5L284.429 2005.5L283.929 2005.5L281.429 2005.5L281.429 2004.5L281.929 2004.5ZM287.132 2007.42L288.546 2008.84L288.899 2009.19L288.192 2009.9L287.839 2009.55L286.071 2007.78L286.778 2007.07L287.132 2007.42ZM289.5 2012.86L289.5 2014.86L289.5 2015.36L288.5 2015.36L288.5 2014.86L288.5 2012.36L289.5 2012.36L289.5 2012.86ZM289.5 2018.86L289.5 2020.21L288.747 2020.96L288.393 2021.31L287.686 2020.61L288.04 2020.25L288.646 2019.65L289 2020L288.5 2020L288.5 2018.36L289.5 2018.36L289.5 2018.86ZM285.919 2023.79L284.504 2025.2L284.151 2025.56L283.444 2024.85L283.797 2024.5L285.565 2022.73L286.272 2023.44L285.919 2023.79ZM280.213 2025.5L278.213 2025.5L277.713 2025.5L277.713 2024.5L278.213 2024.5L280.713 2024.5L280.713 2025.5L280.213 2025.5ZM274.213 2025.5L272.213 2025.5L271.713 2025.5L271.713 2024.5L272.213 2024.5L274.713 2024.5L274.713 2025.5L274.213 2025.5ZM268.213 2025.5L266.213 2025.5L265.713 2025.5L265.713 2024.5L266.213 2024.5L268.713 2024.5L268.713 2025.5L268.213 2025.5ZM262.213 2025.5L260.213 2025.5L259.713 2025.5L259.713 2024.5L260.213 2024.5L262.713 2024.5L262.713 2025.5L262.213 2025.5ZM256.213 2025.5L254.213 2025.5L253.713 2025.5L253.713 2024.5L254.213 2024.5L256.713 2024.5L256.713 2025.5L256.213 2025.5ZM250.213 2025.5L248.213 2025.5L247.713 2025.5L247.713 2024.5L248.213 2024.5L250.713 2024.5L250.713 2025.5L250.213 2025.5ZM244.213 2025.5L242.213 2025.5L241.713 2025.5L241.713 2024.5L242.213 2024.5L244.713 2024.5L244.713 2025.5L244.213 2025.5ZM238.213 2025.5L236.213 2025.5L235.713 2025.5L235.713 2024.5L236.213 2024.5L238.713 2024.5L238.713 2025.5L238.213 2025.5ZM232.213 2025.5L230.213 2025.5L229.713 2025.5L229.713 2024.5L230.213 2024.5L232.713 2024.5L232.713 2025.5L232.213 2025.5ZM226.213 2025.5L224.213 2025.5L223.713 2025.5L223.713 2024.5L224.213 2024.5L226.713 2024.5L226.713 2025.5L226.213 2025.5ZM220.213 2025.5L218.213 2025.5L217.713 2025.5L217.713 2024.5L218.213 2024.5L220.713 2024.5L220.713 2025.5L220.213 2025.5ZM214.676 2023.38L213.262 2021.97L212.908 2021.62L213.615 2020.91L213.969 2021.26L215.737 2023.03L215.029 2023.74L214.676 2023.38ZM211.5 2018.28L211.5 2016.28L211.5 2015.78L212.5 2015.78L212.5 2016.28L212.5 2018.78L211.5 2018.78L211.5 2018.28ZM211.5 2012.28L211.5 2010.28L211.5 2009.78L212.5 2009.78L212.5 2010.28L212.5 2012.78L211.5 2012.78L211.5 2012.28ZM211.646 2009.65L213.414 2007.88L214.121 2008.59L212 2010.71L211.293 2010L211.646 2009.65Z"/>
		<rect x="177" y="1903" width="11" height="11"/>
		<rect fill="white" x="178" y="1904" width="9" height="9"/>
		<rect x="179" y="1908" width="7" height="1"/>
		<rect x="46" y="1394" width="11" height="11"/>
		<rect fill="white" x="47" y="1395" width="9" height="9"/>
		<rect x="48" y="1399" width="7" height="1"/>
	</g>
</svg>
