<?xml version="1.0" encoding="utf-8" ?>
<svg xmlns="http://www.w3.org/2000/svg" xmlns:xlink="http://www.w3.org/1999/xlink" width="369" height="1356">
	<clipPath id="cl_465">
		<rect x="-10" y="-5" width="369" height="1356"/>
	</clipPath>
	<g clip-path="url(#cl_465)">
		<path fill="none" stroke="black" stroke-width="1" stroke-linecap="square" stroke-miterlimit="4" transform="translate(0.5 0.5)" d="M64 941L119 941"/>
		<path fill="none" stroke="black" stroke-width="1" stroke-linecap="square" stroke-miterlimit="4" transform="translate(0.5 0.5)" d="M120 941L120 621"/>
		<path fill="none" stroke="black" stroke-width="1" stroke-linecap="square" stroke-miterlimit="4" transform="translate(0.5 0.5)" d="M120 941L120 1261"/>
		<path fill="none" stroke="black" stroke-width="1" stroke-linecap="square" stroke-miterlimit="4" transform="translate(0.5 0.5)" d="M120 1262L134 1262"/>
		<path fill="none" stroke="black" stroke-width="1" stroke-linecap="square" stroke-miterlimit="4" transform="translate(0.5 0.5)" d="M120 620L134 620"/>
		<rect fill="silver" x="4" y="935" width="59" height="21"/>
		<rect fill="white" y="931" width="59" height="21"/>
		<rect fill="white" x="5" y="958" width="101" height="24"/>
		<text fill="gray" font-size="9" font-family="Segoe UI" x="5, 10.805176, 13.270508, 19.774414, 22.90332, 27.482422, 32.773438, 38.064453, 42.770996, 45.899902, 48.365234, 51.182129, 56.455566, 59.584473, 62.049805, 66.756348, 71.067383, 75.773926, 80.867188, 83.916992, 87.73584, 90.201172, 92.380859, 97.474121, 99.939453, " y="968, ">
				A wrapper for events in a
		</text>
		<text fill="gray" font-size="9" font-family="Segoe UI" x="5, 11.732422, 16.438965, 22.942871, 26.761719, 29.227051, 31.62207, 34.671875, 39.378418, 47.130371, " y="980, ">
				News Item.
		</text>
		<rect fill="white" x="9" y="933" width="38" height="16"/>
		<text font-size="12" font-weight="600" font-family="Segoe UI" x="9, 15.492188, 21.878906, 28.371094, 35.630859, 40.300781, " y="946, ">
				events
		</text>
		<rect fill="none" stroke="black" stroke-width="1" stroke-linecap="square" stroke-miterlimit="4" transform="translate(0.5 0.5)" y="931" width="58" height="20"/>
		<path fill="white" d="M212 19L212 0L135 0L135 19L135 1239L348 1239L348 19L212 19Z"/>
		<rect fill="white" x="155" y="2" width="51" height="16"/>
		<text font-size="12" font-style="italic" font-family="Segoe UI" x="155, 161.50391, 165.38281, 169.26172, 173.5332, 176.63867, 183.14258, 189.83984, 193.73047, 199.57227, " y="15, ">
				attributes
		</text>
		<path fill="none" stroke="black" stroke-width="1" stroke-linecap="square" stroke-miterlimit="4" transform="translate(0.5 0.5)" d="M212 19L212 0L135 0L135 19L135 1239L348 1239L348 19L212 19Z"/>
		<path fill="white" d="M340 47L340 28L149 28L149 47L149 1150L340 1150L340 47Z"/>
		<rect fill="white" x="154" y="1153" width="179" height="48"/>
		<text fill="gray" font-size="9" font-family="Segoe UI" x="154, 159.80518, 162.27051, 167.57031, 170.69922, 175.97266, 181.06592, 186.35693, 188.82227, 194.0957, 196.9126, 199.37793, 203.95703, 207.00684, 210.05664, 213.18555, 215.36523, 220.65625, 225.74951, 228.79932, 233.50586, 237.32471, 239.79004, 242.60693, 247.88037, 251.00928, 253.47461, 258.05371, 260.2334, 262.41309, 264.87842, 269.58496, 271.76465, 276.47119, 284.22314, 288.92969, 294.02295, 297.07275, 300.8916, 303.35693, 308.63037, 311.44727, 313.9126, 318.4917, 320.95703, 327.13135, " y="1163, ">
				A group of attributes for all elements of a G2
		</text>
		<text fill="gray" font-size="9" font-family="Segoe UI" x="154, 156.39502, 159.44482, 164.15137, 171.90332, 174.36865, 179.0752, 183.20605, 187.36328, 192.06982, 197.36084, 200.41064, 202.87598, 205.05566, 208.10547, 211.92432, 214.38965, 217.51855, 222.79199, 228.06543, 231.11523, 233.58057, 238.28711, 240.4668, 245.17334, 252.92529, 257.63184, 262.7251, 265.7749, 267.72607, 270.19141, 273.24121, 278.33447, 283.04102, 285.50635, 287.68604, 290.73584, 295.44238, 303.19434, 311.27588, 315.98242, 319.03223, " y="1175, ">
				Item except its root element, the itemMeta
		</text>
		<text fill="gray" font-size="9" font-family="Segoe UI" x="154, 158.70654, 160.88623, 165.59277, 173.34473, 178.05127, 183.14453, 186.19434, 188.65967, 193.23877, 198.33203, 203.63184, 206.09717, 210.67627, 212.85596, 215.03564, 217.50098, 222.77441, 225.59131, 228.05664, 230.23633, 233.28613, 237.10498, 239.57031, 243.72754, 248.8208, 251.00049, 253.18018, 258.47998, 261.60889, 266.31543, 271.40869, 273.87402, 280.37793, 285.47119, 287.65088, 291.80811, 296.90137, 299.3667, 303.9458, 307.07471, " y="1187, ">
				element and all of its children which are
		</text>
		<text fill="gray" font-size="9" font-family="Segoe UI" x="154, 161.75195, 166.33105, 171.42432, 176.72412, 181.30322, 184.35303, 189.62646, 192.75537, 197.11035, " y="1199, ">
				mandatory.
		</text>
		<rect fill="white" x="191" y="30" width="143" height="16"/>
		<text font-size="12" font-weight="600" font-family="Segoe UI" x="191, 196.75977, 204.0957, 215.08789, 226.08008, 233.41602, 240.67578, 247.68945, 255.02539, 264.53516, 271.02734, 275.80273, 284, 288.66992, 293.33984, 298.16211, 301.57227, 309.01367, 316.27344, 320.89648, 327.38867, " y="43, ">
				commonPowerAttributes
		</text>
		<rect fill="white" x="169" y="30" width="20" height="16"/>
		<text fill="gray" font-size="12" font-family="Segoe UI" x="169, 176.06641, 180.23828, " y="43, ">
				grp
		</text>
		<path fill="none" stroke="gray" stroke-width="1" stroke-linecap="square" stroke-miterlimit="4" transform="translate(0.5 0.5)" d="M149 47L149 1150L340 1150L340 47L340 47"/>
		<path fill="none" stroke="black" stroke-width="1" stroke-linecap="square" stroke-miterlimit="4" transform="translate(0.5 0.5)" d="M340 47L340 28L149 28L149 47"/>
		<rect x="154" y="33" width="11" height="11"/>
		<rect fill="white" x="155" y="34" width="9" height="9"/>
		<rect x="156" y="38" width="7" height="1"/>
		<rect fill="silver" x="161" y="61" width="52" height="21"/>
		<rect fill="white" x="157" y="57" width="52" height="21"/>
		<rect fill="white" x="162" y="84" width="101" height="24"/>
		<text fill="gray" font-size="9" font-family="Segoe UI" x="162, 166.71533, 171.80859, 176.51514, 178.98047, 181.16016, 186.43359, 190.59082, 195.16992, 197.34961, 199.81494, 201.99463, 207.29443, 212.00098, 217.09424, 220.14404, 222.32373, 225.14062, 227.32031, 232.02686, 235.15576, 237.62109, 242.89453, 245.71143, 248.17676, 251.22656, 256.31982, " y="94, ">
				The local identifier of the
		</text>
		<text fill="gray" font-size="9" font-family="Segoe UI" x="162, 167.29102, 170.41992, 175.69336, 180.98438, 185.69092, 188.81982, 191.86963, 196.22461, " y="106, ">
				property.
		</text>
		<rect fill="white" x="166" y="59" width="36" height="16"/>
		<text font-size="12" font-weight="600" font-family="Segoe UI" x="166, 169.41016, " y="72, ">
				id
		</text>
		<rect fill="none" stroke="black" stroke-width="1" stroke-linecap="square" stroke-miterlimit="4" transform="translate(0.5 0.5)" x="157" y="57" width="51" height="20"/>
		<rect fill="silver" x="161" y="119" width="58" height="21"/>
		<rect fill="white" x="157" y="115" width="58" height="21"/>
		<rect fill="white" x="162" y="142" width="121" height="120"/>
		<text fill="gray" font-size="9" font-family="Segoe UI" x="162, 164.39502, 167.21191, 169.67725, 172.72705, 177.82031, 182.52686, 184.99219, 190.2832, 193.41211, 198.68555, 203.97656, 208.68311, 211.81201, 214.86182, 219.2168, 221.68213, 225.99316, 230.57227, 232.75195, 237.84521, 242.55176, 245.01709, 247.19678, 251.01562, 253.48096, 258.57422, 263.84766, " y="152, ">
				If the property value is not
		</text>
		<text fill="gray" font-size="9" font-family="Segoe UI" x="162, 167.2998, 172.00635, 174.82324, 177.00293, 182.09619, 186.80273, 192.10254, 194.05371, 196.51904, 200.33789, 205.62891, 210.33545, 214.49268, 216.67236, 219.48926, 221.66895, 226.37549, 230.19434, 232.65967, 239.16357, 244.25684, 246.43652, 250.59375, 255.68701, 258.15234, 262.85889, 267.95215, 271.00195, 273.18164, 276.23145, " y="164, ">
				defined, specifies which entity
		</text>
		<text fill="gray" font-size="9" font-family="Segoe UI" x="162, 164.71582, 170.00684, 174.71338, 177.84229, 181.66113, 186.93457, 192.02783, 193.979, 196.44434, 201.71777, 204.84668, 210.14648, 214.72559, 219.81885, 221.99854, 225.81738, 230.39648, 233.44629, 235.62598, 240.89941, 245.99268, 248.45801, 253.73145, " y="176, ">
				(person, organisation or
		</text>
		<text fill="gray" font-size="9" font-family="Segoe UI" x="162, 165.81885, 170.17383, 173.99268, 177.04248, 181.74902, 189.50098, 192.2168, 194.68213, 201.18604, 203.36572, 205.54541, 207.7251, 210.19043, 214.89697, 220.19678, 222.37646, 225.42627, 227.8916, 230.94141, 236.03467, 240.74121, 243.20654, 248.49756, 251.62646, 256.8999, 262.19092, 266.89746, 270.02637, 273.07617, " y="188, ">
				system) will edit the property
		</text>
		<text fill="gray" font-size="9" font-family="Segoe UI" x="162, 166.31104, 170.89014, 173.06982, 178.16309, 182.86963, 185.33496, 188.93408, 191.39941, 196.10596, 200.23682, 205.52783, 208.65674, 213.36328, 217.18213, 221.00098, 225.70752, 231.00732, 233.47266, 238.76367, 243.11865, 245.58398, 250.16309, 252.62842, 259.41357, 264.98584, 270.25928, 275.55908, 280.26562, " y="200, ">
				value - expressed by a QCode.
		</text>
		<text fill="gray" font-size="9" font-family="Segoe UI" x="162, 164.39502, 167.21191, 169.67725, 172.72705, 177.82031, 182.52686, 184.99219, 190.2832, 193.41211, 198.68555, 203.97656, 208.68311, 211.81201, 214.86182, 219.2168, 221.68213, 225.99316, 230.57227, 232.75195, 237.84521, 242.55176, 245.01709, 247.19678, " y="212, ">
				If the property value is
		</text>
		<text fill="gray" font-size="9" font-family="Segoe UI" x="162, 167.2998, 172.00635, 174.82324, 177.00293, 182.09619, 186.80273, 192.10254, 194.05371, 196.51904, 200.33789, 205.62891, 210.33545, 214.49268, 216.67236, 219.48926, 221.66895, 226.37549, 230.19434, 232.65967, 239.16357, 244.25684, 246.43652, 250.59375, 255.68701, 258.15234, 262.85889, 267.95215, 271.00195, 273.18164, 276.23145, " y="224, ">
				defined, specifies which entity
		</text>
		<text fill="gray" font-size="9" font-family="Segoe UI" x="162, 164.71582, 170.00684, 174.71338, 177.84229, 181.66113, 186.93457, 192.02783, 193.979, 196.44434, 201.71777, 204.84668, 210.14648, 214.72559, 219.81885, 221.99854, 225.81738, 230.39648, 233.44629, 235.62598, 240.89941, 245.99268, 248.45801, 253.73145, " y="236, ">
				(person, organisation or
		</text>
		<text fill="gray" font-size="9" font-family="Segoe UI" x="162, 165.81885, 170.17383, 173.99268, 177.04248, 181.74902, 189.50098, 192.2168, 194.68213, 199.77539, 204.35449, 208.17334, 210.63867, 215.34521, 220.64502, 222.82471, 225.87451, 230.58105, 235.88086, 238.34619, 241.396, 246.48926, " y="248, ">
				system) has edited the
		</text>
		<text fill="gray" font-size="9" font-family="Segoe UI" x="162, 167.29102, 170.41992, 175.69336, 180.98438, 185.69092, 188.81982, 191.86963, 196.22461, 198.68994, 203.00098, 207.58008, 209.75977, 214.85303, 219.55957, " y="260, ">
				property value.
		</text>
		<rect fill="white" x="166" y="117" width="42" height="16"/>
		<text font-size="12" font-weight="600" font-family="Segoe UI" x="166, 171.75977, 176.48828, 182.98047, 189.4375, 194.06055, 201.39648, " y="130, ">
				creator
		</text>
		<rect fill="none" stroke="black" stroke-width="1" stroke-linecap="square" stroke-miterlimit="4" transform="translate(0.5 0.5)" x="157" y="115" width="57" height="20"/>
		<rect fill="silver" x="161" y="273" width="73" height="21"/>
		<rect fill="white" x="157" y="269" width="73" height="21"/>
		<rect fill="white" x="162" y="296" width="120" height="108"/>
		<text fill="gray" font-size="9" font-family="Segoe UI" x="162, 164.39502, 167.21191, 169.67725, 172.72705, 177.82031, 182.52686, 184.99219, 190.2832, 193.41211, 198.68555, 203.97656, 208.68311, 211.81201, 214.86182, 219.2168, 221.68213, 225.99316, 230.57227, 232.75195, 237.84521, 242.55176, 245.01709, 247.19678, 251.01562, 253.48096, 258.57422, 263.84766, " y="306, ">
				If the property value is not
		</text>
		<text fill="gray" font-size="9" font-family="Segoe UI" x="162, 167.2998, 172.00635, 174.82324, 177.00293, 182.09619, 186.80273, 192.10254, 194.05371, 196.51904, 200.33789, 205.62891, 210.33545, 214.49268, 216.67236, 219.48926, 221.66895, 226.37549, 230.19434, 232.65967, 239.16357, 244.25684, 246.43652, 250.59375, 255.68701, 258.15234, 262.85889, 267.95215, 271.00195, 273.18164, 276.23145, " y="318, ">
				defined, specifies which entity
		</text>
		<text fill="gray" font-size="9" font-family="Segoe UI" x="162, 164.71582, 170.00684, 174.71338, 177.84229, 181.66113, 186.93457, 192.02783, 193.979, 196.44434, 201.71777, 204.84668, 210.14648, 214.72559, 219.81885, 221.99854, 225.81738, 230.39648, 233.44629, 235.62598, 240.89941, 245.99268, 248.45801, 253.73145, " y="330, ">
				(person, organisation or
		</text>
		<text fill="gray" font-size="9" font-family="Segoe UI" x="162, 165.81885, 170.17383, 173.99268, 177.04248, 181.74902, 189.50098, 192.2168, 194.68213, 201.18604, 203.36572, 205.54541, 207.7251, 210.19043, 214.89697, 220.19678, 222.37646, 225.42627, 227.8916, 230.94141, 236.03467, 240.74121, 243.20654, 248.49756, 251.62646, 256.8999, 262.19092, 266.89746, 270.02637, 273.07617, " y="342, ">
				system) will edit the property
		</text>
		<text fill="gray" font-size="9" font-family="Segoe UI" x="162, 165.59912, 168.06445, 172.771, 176.90186, 182.19287, 185.32178, 190.02832, 193.84717, 197.66602, 202.37256, 207.67236, 210.1377, 215.42871, 219.78369, 222.24902, 226.82812, 229.29346, 235.47656, 240.85986, 243.25488, 245.20605, 247.67139, 250.06641, 252.8833, 255.34863, 258.39844, 263.4917, " y="354, ">
				- expressed by a URI. If the
		</text>
		<text fill="gray" font-size="9" font-family="Segoe UI" x="162, 167.29102, 170.41992, 175.69336, 180.98438, 185.69092, 188.81982, 191.86963, 196.22461, 198.68994, 203.00098, 207.58008, 209.75977, 214.85303, 219.55957, 222.0249, 224.20459, 228.02344, 230.48877, 235.78857, 240.49512, 243.31201, 245.4917, 250.58496, 255.2915, 260.59131, " y="366, ">
				property value is defined,
		</text>
		<text fill="gray" font-size="9" font-family="Segoe UI" x="162, 165.81885, 171.10986, 175.81641, 179.97363, 182.15332, 184.97021, 187.1499, 191.85645, 195.67529, 198.14062, 204.64453, 209.73779, 211.91748, 216.07471, 221.16797, 223.6333, 228.33984, 233.43311, 236.48291, 238.6626, 241.7124, 246.06738, 248.53271, 251.24854, 256.53955, 261.24609, 264.375, 268.19385, 273.46729, 278.56055, " y="378, ">
				specifies which entity (person,
		</text>
		<text fill="gray" font-size="9" font-family="Segoe UI" x="162, 167.27344, 170.40234, 175.70215, 180.28125, 185.37451, 187.5542, 191.37305, 195.95215, 199.00195, 201.18164, 206.45508, 211.54834, 214.01367, 219.28711, 222.41602, 224.88135, 228.7002, 233.05518, 236.87402, 239.92383, 244.63037, 252.38232, 255.09814, 257.56348, 262.65674, 267.23584, " y="390, ">
				organisation or system) has
		</text>
		<text fill="gray" font-size="9" font-family="Segoe UI" x="162, 166.70654, 172.00635, 174.18604, 177.23584, 181.94238, 187.24219, 189.70752, 192.75732, 197.85059, 202.55713, 205.02246, 210.31348, 213.44238, 218.71582, 224.00684, 228.71338, 231.84229, 234.89209, 239.24707, " y="402, ">
				edited the property.
		</text>
		<rect fill="white" x="166" y="271" width="57" height="16"/>
		<text font-size="12" font-weight="600" font-family="Segoe UI" x="166, 171.75977, 176.48828, 182.98047, 189.4375, 194.06055, 201.39648, 206.20703, 213.4668, 218.28906, " y="284, ">
				creatoruri
		</text>
		<rect fill="none" stroke="black" stroke-width="1" stroke-linecap="square" stroke-miterlimit="4" transform="translate(0.5 0.5)" x="157" y="269" width="72" height="20"/>
		<rect fill="silver" x="161" y="415" width="69" height="21"/>
		<rect fill="white" x="157" y="411" width="69" height="21"/>
		<rect fill="white" x="162" y="438" width="119" height="72"/>
		<text fill="gray" font-size="9" font-family="Segoe UI" x="162, 166.71533, 171.80859, 176.51514, 178.98047, 184.28027, 188.85938, 191.90918, 196.61572, 199.08105, 201.79688, 206.37598, 211.46924, 216.76904, 218.72021, 221.18555, 226.45898, 231.75, 234.7998, 236.97949, 242.25293, 247.34619, 251.92529, 254.10498, 256.28467, 260.63965, 262.59082, 265.05615, 268.10596, 273.19922, " y="448, ">
				The date (and, optionally, the
		</text>
		<text fill="gray" font-size="9" font-family="Segoe UI" x="162, 165.0498, 167.22949, 174.98145, 179.68799, 182.40381, 184.86914, 191.37305, 196.46631, 201.17285, 206.26611, 208.73145, 211.78125, 216.87451, 221.58105, 224.04639, 229.3374, 232.46631, 237.73975, 243.03076, 247.7373, 250.86621, 253.91602, 258.271, 260.73633, 267.24023, 271.81934, " y="460, ">
				time) when the property was
		</text>
		<text fill="gray" font-size="9" font-family="Segoe UI" x="162, 164.17969, 168.75879, 172.57764, 175.62744, 178.09277, 185.84473, 191.11816, 196.41797, 198.59766, 201.41455, 203.59424, 208.30078, 213.60059, 215.55176, 218.01709, 222.73242, 227.82568, 232.53223, 234.99756, 237.17725, 242.27051, 244.4502, 247.5, 249.67969, 254.25879, 256.43848, 258.90381, 263.21484, 267.79395, 269.97363, 275.06689, " y="472, ">
				last modified. The initial value
		</text>
		<text fill="gray" font-size="9" font-family="Segoe UI" x="162, 164.17969, 167.99854, 170.46387, 173.51367, 178.60693, 183.31348, 185.77881, 191.07861, 195.65771, 198.70752, 203.41406, 205.87939, 208.59521, 213.17432, 218.26758, 223.56738, 225.51855, 227.98389, 233.25732, 238.54834, 241.59814, 243.77783, 249.05127, 254.14453, 258.72363, 260.90332, 263.08301, 267.43799, " y="484, ">
				is the date (and, optionally,
		</text>
		<text fill="gray" font-size="9" font-family="Segoe UI" x="162, 165.0498, 170.14307, 174.84961, 177.31494, 180.36475, 182.54443, 190.29639, 195.00293, 197.71875, 200.18408, 205.45752, 208.27441, 210.73975, 214.89697, 218.02588, 222.73242, 227.31152, 230.36133, 232.54102, 237.81445, 242.90771, 245.37305, 250.64648, 253.46338, 255.92871, 258.97852, 264.07178, " y="496, ">
				the time) of creation of the
		</text>
		<text fill="gray" font-size="9" font-family="Segoe UI" x="162, 167.29102, 170.41992, 175.69336, 180.98438, 185.69092, 188.81982, 191.86963, 196.22461, " y="508, ">
				property.
		</text>
		<rect fill="white" x="166" y="413" width="53" height="16"/>
		<text font-size="12" font-weight="600" font-family="Segoe UI" x="166, 176.99219, 184.32812, 191.75781, 195.16797, 199.76758, 203.17773, 209.66992, " y="426, ">
				modified
		</text>
		<rect fill="none" stroke="black" stroke-width="1" stroke-linecap="square" stroke-miterlimit="4" transform="translate(0.5 0.5)" x="157" y="411" width="68" height="20"/>
		<rect fill="silver" x="161" y="521" width="59" height="21"/>
		<rect fill="white" x="157" y="517" width="59" height="21"/>
		<rect fill="white" x="162" y="544" width="118" height="108"/>
		<text fill="gray" font-size="9" font-family="Segoe UI" x="162, 164.39502, 167.21191, 169.67725, 173.49609, 178.20264, 181.25244, 183.71777, 186.76758, 192.04102, 194.50635, 197.55615, 200.68506, 205.77832, 210.48486, 212.9502, 216, 221.09326, " y="554, ">
				If set to true the
		</text>
		<text fill="gray" font-size="9" font-family="Segoe UI" x="162, 166.15723, 171.43066, 174.55957, 177.68848, 182.39502, 186.21387, 191.50488, 196.77832, 201.87158, 207.17139, 209.35107, 214.44434, 219.74414, 222.20947, 227.50049, 230.62939, 235.90283, 241.19385, 245.90039, 249.0293, 252.0791, 256.43408, 258.89941, 265.40332, 269.98242, " y="566, ">
				corresponding property was
		</text>
		<text fill="gray" font-size="9" font-family="Segoe UI" x="162, 166.5791, 171.87891, 177.17871, 181.88525, 187.18506, 189.65039, 192.7002, 197.97363, 200.43896, 203.48877, 208.58203, 213.28857, 215.75391, 221.92822, 226.77979, 229.24512, 231.64014, 234.68994, 239.39648, 247.14844, 249.61377, 252.43066, 257.7041, 260.83301, 263.29834, " y="578, ">
				added to the G2 Item for a
		</text>
		<text fill="gray" font-size="9" font-family="Segoe UI" x="162, 165.81885, 171.10986, 175.81641, 179.97363, 182.15332, 184.97021, 187.1499, 191.30713, 193.77246, 197.92969, 203.02295, 206.8418, 209.8916, 215.16504, 222.91699, 227.62354, 230.75244, 233.21777, 238.49121, 241.62012, 244.08545, 249.38525, 252.51416, 257.7876, 262.88086, 268.17188, 270.63721, 275.91064, " y="590, ">
				specific customer or group of
		</text>
		<text fill="gray" font-size="9" font-family="Segoe UI" x="162, 166.15723, 171.25049, 175.06934, 178.11914, 183.39258, 191.14453, 195.85107, 198.97998, 202.79883, 205.26416, 210.5376, 215.63086, 217.81055, 222.16553, 224.1167, 226.58203, 231.29736, 236.39062, 241.09717, 243.5625, 248.8623, 253.56885, 256.38574, 260.96484, 266.05811, 268.23779, " y="602, ">
				customers only. The default
		</text>
		<text fill="gray" font-size="9" font-family="Segoe UI" x="162, 166.31104, 170.89014, 173.06982, 178.16309, 182.86963, 185.33496, 190.6084, 193.42529, 195.89062, 198.94043, 204.03369, 206.21338, 210.03223, 212.49756, 217.78857, 220.91748, 226.19092, 231.48193, 236.18848, 239.31738, 242.36719, 246.72217, 249.1875, 251.36719, 255.18604, 257.65137, 260.46826, 265.04736, 267.22705, 271.0459, " y="614, ">
				value of this property is false
		</text>
		<text fill="gray" font-size="9" font-family="Segoe UI" x="162, 168.50391, 173.59717, 175.77686, 179.93408, 185.02734, 187.49268, 192.07178, 197.36279, 202.65381, 204.8335, 207.01318, 211.71973, 215.53857, 218.00391, 224.50781, 229.60107, 234.30762, 239.40088, 241.86621, 244.91602, 250.00928, 252.18896, " y="626, ">
				which applies when this
		</text>
		<text fill="gray" font-size="9" font-family="Segoe UI" x="162, 166.5791, 169.62891, 172.67871, 175.80762, 177.9873, 183.27832, 188.37158, 191.42139, 196.12793, 198.59326, 200.77295, 204.5918, 207.05713, 212.15039, 217.42383, 220.47363, 222.93896, 228.03223, 231.85107, 236.55762, 241.85742, 244.32275, 250.82666, 253.00635, 256.05615, 261.14941, 263.61475, 266.66455, 271.75781, " y="638, ">
				attribute is not used with the
		</text>
		<text fill="gray" font-size="9" font-family="Segoe UI" x="162, 167.29102, 170.41992, 175.69336, 180.98438, 185.69092, 188.81982, 191.86963, 196.22461, " y="650, ">
				property.
		</text>
		<rect fill="white" x="166" y="519" width="43" height="16"/>
		<text font-size="12" font-weight="600" font-family="Segoe UI" x="166, 171.75977, 179.01953, 184.29883, 188.92188, 196.25781, " y="532, ">
				custom
		</text>
		<rect fill="none" stroke="black" stroke-width="1" stroke-linecap="square" stroke-miterlimit="4" transform="translate(0.5 0.5)" x="157" y="517" width="58" height="20"/>
		<rect fill="silver" x="161" y="663" width="52" height="21"/>
		<rect fill="white" x="157" y="659" width="52" height="21"/>
		<rect fill="white" x="162" y="686" width="118" height="48"/>
		<text fill="gray" font-size="9" font-family="Segoe UI" x="162, 164.39502, 169.48828, 174.78809, 176.96777, 181.125, 185.7041, 188.75391, 193.46045, 197.2793, 199.74463, 205.03564, 209.39062, 211.85596, 218.35986, 223.45312, 225.63281, 229.79004, 234.8833, 237.34863, 245.10059, 249.80713, 254.38623, 259.47949, 263.29834, 265.76367, 268.81348, 273.90674, " y="696, ">
				Indicates by which means the
		</text>
		<text fill="gray" font-size="9" font-family="Segoe UI" x="162, 166.31104, 170.89014, 173.06982, 178.16309, 182.86963, 185.33496, 191.83887, 196.41797, 200.23682, 202.70215, 207.40869, 211.53955, 214.58936, 217.71826, 222.29736, 226.45459, 229.50439, 234.21094, 239.51074, 241.97607, 244.79297, 247.92188, 253.19531, 260.94727, 263.4126, 266.4624, 271.55566, " y="708, ">
				value was extracted from the
		</text>
		<text fill="gray" font-size="9" font-family="Segoe UI" x="162, 166.15723, 171.43066, 176.52393, 179.57373, 184.28027, 189.37354, 192.42334, 194.88867, 198.48779, 200.95312, 205.65967, 209.79053, 215.08154, 218.21045, 222.91699, 226.73584, 230.55469, 235.26123, 240.56104, 243.02637, 248.31738, 252.67236, 255.1377, " y="720, ">
				content - expressed by a
		</text>
		<text fill="gray" font-size="9" font-family="Segoe UI" x="162, 168.78516, 174.35742, 179.63086, 184.93066, " y="732, ">
				QCode
		</text>
		<rect fill="white" x="166" y="661" width="36" height="16"/>
		<text font-size="12" font-weight="600" font-family="Segoe UI" x="166, 173.22461, 180.56055, " y="674, ">
				how
		</text>
		<rect fill="none" stroke="black" stroke-width="1" stroke-linecap="square" stroke-miterlimit="4" transform="translate(0.5 0.5)" x="157" y="659" width="51" height="20"/>
		<rect fill="silver" x="161" y="745" width="57" height="21"/>
		<rect fill="white" x="157" y="741" width="57" height="21"/>
		<rect fill="white" x="162" y="768" width="118" height="36"/>
		<text fill="gray" font-size="9" font-family="Segoe UI" x="162, 164.39502, 169.48828, 174.78809, 176.96777, 181.125, 185.7041, 188.75391, 193.46045, 197.2793, 199.74463, 205.03564, 209.39062, 211.85596, 218.35986, 223.45312, 225.63281, 229.79004, 234.8833, 237.34863, 245.10059, 249.80713, 254.38623, 259.47949, 263.29834, 265.76367, 268.81348, 273.90674, " y="778, ">
				Indicates by which means the
		</text>
		<text fill="gray" font-size="9" font-family="Segoe UI" x="162, 166.31104, 170.89014, 173.06982, 178.16309, 182.86963, 185.33496, 191.83887, 196.41797, 200.23682, 202.70215, 207.40869, 211.53955, 214.58936, 217.71826, 222.29736, 226.45459, 229.50439, 234.21094, 239.51074, 241.97607, 244.79297, 247.92188, 253.19531, 260.94727, 263.4126, 266.4624, 271.55566, " y="790, ">
				value was extracted from the
		</text>
		<text fill="gray" font-size="9" font-family="Segoe UI" x="162, 166.15723, 171.43066, 176.52393, 179.57373, 184.28027, 189.37354, 192.42334, 194.88867, 198.48779, 200.95312, 205.65967, 209.79053, 215.08154, 218.21045, 222.91699, 226.73584, 230.55469, 235.26123, 240.56104, 243.02637, 248.31738, 252.67236, 255.1377, 259.7168, 262.18213, 268.36523, 273.74854, " y="802, ">
				content - expressed by a URI
		</text>
		<rect fill="white" x="166" y="743" width="41" height="16"/>
		<text font-size="12" font-weight="600" font-family="Segoe UI" x="166, 173.22461, 180.56055, 190.12891, 197.38867, 202.21094, " y="756, ">
				howuri
		</text>
		<rect fill="none" stroke="black" stroke-width="1" stroke-linecap="square" stroke-miterlimit="4" transform="translate(0.5 0.5)" x="157" y="741" width="56" height="20"/>
		<rect fill="silver" x="161" y="815" width="52" height="21"/>
		<rect fill="white" x="157" y="811" width="52" height="21"/>
		<rect fill="white" x="162" y="838" width="113" height="36"/>
		<text fill="gray" font-size="9" font-family="Segoe UI" x="162, 170.40674, 175.5, 179.85498, 182.32031, 185.37012, 190.46338, 195.16992, 197.63525, 205.38721, 210.09375, 213.14355, 217.72266, 223.02246, 227.60156, 230.65137, 235.23047, 237.6958, 242.78906, 247.36816, 251.18701, 253.65234, 258.94336, 263.6499, 268.35645, " y="848, ">
				Why the metadata has been
		</text>
		<text fill="gray" font-size="9" font-family="Segoe UI" x="162, 164.17969, 169.27295, 173.43018, 175.60986, 180.70312, 186.00293, 190.70947, 196.00928, 198.47461, 202.07373, 204.53906, 209.24561, 213.37646, 218.66748, 221.79639, 226.50293, 230.32178, 234.14062, 238.84717, 244.14697, 246.6123, 251.90332, 256.2583, 258.72363, " y="860, ">
				included - expressed by a
		</text>
		<text fill="gray" font-size="9" font-family="Segoe UI" x="162, 168.78516, 174.35742, 179.63086, 184.93066, " y="872, ">
				QCode
		</text>
		<rect fill="white" x="166" y="813" width="36" height="16"/>
		<text font-size="12" font-weight="600" font-family="Segoe UI" x="166, 175.56836, 182.79297, " y="826, ">
				why
		</text>
		<rect fill="none" stroke="black" stroke-width="1" stroke-linecap="square" stroke-miterlimit="4" transform="translate(0.5 0.5)" x="157" y="811" width="51" height="20"/>
		<rect fill="silver" x="161" y="885" width="56" height="21"/>
		<rect fill="white" x="157" y="881" width="56" height="21"/>
		<rect fill="white" x="162" y="908" width="119" height="24"/>
		<text fill="gray" font-size="9" font-family="Segoe UI" x="162, 170.40674, 175.5, 179.85498, 182.32031, 185.37012, 190.46338, 195.16992, 197.63525, 205.38721, 210.09375, 213.14355, 217.72266, 223.02246, 227.60156, 230.65137, 235.23047, 237.6958, 242.78906, 247.36816, 251.18701, 253.65234, 258.94336, 263.6499, 268.35645, " y="918, ">
				Why the metadata has been
		</text>
		<text fill="gray" font-size="9" font-family="Segoe UI" x="162, 164.17969, 169.27295, 173.43018, 175.60986, 180.70312, 186.00293, 190.70947, 196.00928, 198.47461, 202.07373, 204.53906, 209.24561, 213.37646, 218.66748, 221.79639, 226.50293, 230.32178, 234.14062, 238.84717, 244.14697, 246.6123, 251.90332, 256.2583, 258.72363, 263.30273, 265.76807, 271.95117, 277.33447, " y="930, ">
				included - expressed by a URI
		</text>
		<rect fill="white" x="166" y="883" width="40" height="16"/>
		<text font-size="12" font-weight="600" font-family="Segoe UI" x="166, 175.56836, 182.79297, 189.25, 196.50977, 201.33203, " y="896, ">
				whyuri
		</text>
		<rect fill="none" stroke="black" stroke-width="1" stroke-linecap="square" stroke-miterlimit="4" transform="translate(0.5 0.5)" x="157" y="881" width="55" height="20"/>
		<rect fill="silver" x="161" y="943" width="97" height="21"/>
		<rect fill="white" x="157" y="939" width="97" height="21"/>
		<rect fill="white" x="162" y="966" width="117" height="72"/>
		<text fill="gray" font-size="9" font-family="Segoe UI" x="162, 168.78516, 173.87842, 178.58496, 181.05029, 186.32373, 189.45264, 191.91797, 199.66992, 204.24902, 209.34229, 213.69727, 216.1626, 220.31982, 225.59326, 230.68652, 234.50537, 237.55518, 240.68408, 245.26318, 247.44287, 252.53613, 255.58594, 259.40479, 261.87012, 264.91992, 270.01318, 274.59229, " y="976, ">
				One or many constraints that
		</text>
		<text fill="gray" font-size="9" font-family="Segoe UI" x="162, 166.5791, 171.87012, 177.16113, 179.34082, 183.6958, 186.16113, 189.21094, 194.48438, 196.94971, 202.24072, 207.33398, 212.625, 214.80469, 216.98438, 220.80322, 225.89648, 228.07617, 233.16943, 238.46924, 240.93457, 243.98438, 249.07764, 253.78418, 256.24951, 260.56055, 265.13965, 267.31934, 272.4126, " y="988, ">
				apply to publishing the value
		</text>
		<text fill="gray" font-size="9" font-family="Segoe UI" x="162, 167.27344, 170.09033, 172.55566, 175.60547, 180.69873, 185.40527, 187.87061, 193.16162, 196.29053, 201.56396, 206.85498, 211.56152, 214.69043, 217.74023, 222.09521, 224.56055, 228.15967, 230.625, 235.33154, 239.4624, 244.75342, 247.88232, 252.58887, 256.40771, 260.22656, 264.93311, " y="1000, ">
				of the property - expressed
		</text>
		<text fill="gray" font-size="9" font-family="Segoe UI" x="162, 167.29102, 171.646, 174.11133, 178.69043, 181.15576, 187.94092, 193.51318, 198.78662, 204.08643, 208.79297, 210.74414, 213.20947, 217.76221, 222.34131, 226.49854, 231.5918, 234.05713, 238.21436, 243.48779, 248.58105, 252.3999, 255.44971, 258.57861, 263.15771, 265.3374, 270.43066, " y="1012, ">
				by a QCode. Each constraint
		</text>
		<text fill="gray" font-size="9" font-family="Segoe UI" x="162, 166.5791, 171.87012, 177.16113, 179.34082, 181.52051, 186.22705, 190.0459, 192.51123, 195.56104, 200.83447, 203.2998, 207.87891, 210.05859, 212.23828, 214.70361, 220.00342, 224.70996, 228.52881, 232.68604, 237.39258, 242.48584, 247.78564, 252.36475, 257.45801, " y="1024, ">
				applies to all descendant
		</text>
		<text fill="gray" font-size="9" font-family="Segoe UI" x="162, 166.70654, 168.88623, 173.59277, 181.34473, 186.05127, 191.14453, 194.19434, 198.01318, " y="1036, ">
				elements.
		</text>
		<rect fill="white" x="166" y="941" width="81" height="16"/>
		<text font-size="12" font-weight="600" font-family="Segoe UI" x="166, 173.44141, 180.70117, 188.14258, 193.90234, 201.23828, 208.49805, 213.77734, 218.44727, 223.22266, 229.67969, 233.08984, 240.34961, " y="954, ">
				pubconstraint
		</text>
		<rect fill="none" stroke="black" stroke-width="1" stroke-linecap="square" stroke-miterlimit="4" transform="translate(0.5 0.5)" x="157" y="939" width="96" height="20"/>
		<rect fill="silver" x="161" y="1049" width="112" height="21"/>
		<rect fill="white" x="157" y="1045" width="112" height="21"/>
		<rect fill="white" x="162" y="1072" width="117" height="72"/>
		<text fill="gray" font-size="9" font-family="Segoe UI" x="162, 168.78516, 173.87842, 178.58496, 181.05029, 186.32373, 189.45264, 191.91797, 199.66992, 204.24902, 209.34229, 213.69727, 216.1626, 220.31982, 225.59326, 230.68652, 234.50537, 237.55518, 240.68408, 245.26318, 247.44287, 252.53613, 255.58594, 259.40479, 261.87012, 264.91992, 270.01318, 274.59229, " y="1082, ">
				One or many constraints that
		</text>
		<text fill="gray" font-size="9" font-family="Segoe UI" x="162, 166.5791, 171.87012, 177.16113, 179.34082, 183.6958, 186.16113, 189.21094, 194.48438, 196.94971, 202.24072, 207.33398, 212.625, 214.80469, 216.98438, 220.80322, 225.89648, 228.07617, 233.16943, 238.46924, 240.93457, 243.98438, 249.07764, 253.78418, 256.24951, 260.56055, 265.13965, 267.31934, 272.4126, " y="1094, ">
				apply to publishing the value
		</text>
		<text fill="gray" font-size="9" font-family="Segoe UI" x="162, 167.27344, 170.09033, 172.55566, 175.60547, 180.69873, 185.40527, 187.87061, 193.16162, 196.29053, 201.56396, 206.85498, 211.56152, 214.69043, 217.74023, 222.09521, 224.56055, 228.15967, 230.625, 235.33154, 239.4624, 244.75342, 247.88232, 252.58887, 256.40771, 260.22656, 264.93311, " y="1106, ">
				of the property - expressed
		</text>
		<text fill="gray" font-size="9" font-family="Segoe UI" x="162, 167.29102, 171.646, 174.11133, 178.69043, 181.15576, 187.33887, 192.72217, 195.11719, 197.06836, 199.53369, 204.08643, 208.66553, 212.82275, 217.91602, 220.38135, 224.53857, 229.81201, 234.90527, 238.72412, 241.77393, 244.90283, 249.48193, 251.66162, 256.75488, " y="1118, ">
				by a URI. Each constraint
		</text>
		<text fill="gray" font-size="9" font-family="Segoe UI" x="162, 166.5791, 171.87012, 177.16113, 179.34082, 181.52051, 186.22705, 190.0459, 192.51123, 195.56104, 200.83447, 203.2998, 207.87891, 210.05859, 212.23828, 214.70361, 220.00342, 224.70996, 228.52881, 232.68604, 237.39258, 242.48584, 247.78564, 252.36475, 257.45801, " y="1130, ">
				applies to all descendant
		</text>
		<text fill="gray" font-size="9" font-family="Segoe UI" x="162, 166.70654, 168.88623, 173.59277, 181.34473, 186.05127, 191.14453, 194.19434, 198.01318, " y="1142, ">
				elements.
		</text>
		<rect fill="white" x="166" y="1047" width="96" height="16"/>
		<text font-size="12" font-weight="600" font-family="Segoe UI" x="166, 173.44141, 180.70117, 188.14258, 193.90234, 201.23828, 208.49805, 213.77734, 218.44727, 223.22266, 229.67969, 233.08984, 240.34961, 245.01953, 252.2793, 257.10156, " y="1060, ">
				pubconstrainturi
		</text>
		<rect fill="none" stroke="black" stroke-width="1" stroke-linecap="square" stroke-miterlimit="4" transform="translate(0.5 0.5)" x="157" y="1045" width="111" height="20"/>
		<path fill="silver" d="M153 1217L158 1212L226 1212L231 1217L231 1228L226 1233L158 1233L153 1228L153 1217Z"/>
		<path fill="white" d="M149 1213L154 1208L222 1208L227 1213L227 1224L222 1229L154 1229L149 1224L149 1213Z"/>
		<rect fill="white" x="176" y="1210" width="46" height="16"/>
		<text font-size="12" font-weight="600" font-family="Segoe UI" x="176, 183.10742, 190.21484, 197.55078, 202.2207, 209.44531, 215.9375, " y="1223, ">
				##other
		</text>
		<rect fill="white" x="154" y="1210" width="20" height="16"/>
		<text fill="gray" font-size="12" font-family="Segoe UI" x="154, 160.10547, 166.89648, " y="1223, ">
				any
		</text>
		<path fill="none" stroke="black" stroke-width="1" stroke-linecap="square" stroke-miterlimit="4" transform="translate(0.5 0.5)" d="M149 1213L154 1208L221 1208L226 1213L226 1223L221 1228L154 1228L149 1223L149 1213Z"/>
		<rect x="140" y="5" width="11" height="11"/>
		<rect fill="white" x="141" y="6" width="9" height="9"/>
		<rect x="142" y="10" width="7" height="1"/>
		<path fill="none" stroke="black" stroke-width="1" stroke-linecap="square" stroke-miterlimit="4" transform="translate(0.5 0.5)" d="M180 1262L189 1262"/>
		<path fill="silver" d="M139 1261L144 1256L169 1256L174 1261L174 1272L169 1277L144 1277L139 1272L139 1261Z"/>
		<path fill="white" d="M135 1257L140 1252L165 1252L170 1257L170 1268L165 1273L140 1273L135 1268L135 1257Z"/>
		<path fill="none" stroke="black" stroke-width="1" stroke-linecap="square" stroke-miterlimit="4" transform="translate(0.5 0.5)" d="M140 1262L164 1262"/>
		<rect x="146" y="1261" width="3" height="3"/>
		<rect x="151" y="1261" width="3" height="3"/>
		<rect x="156" y="1261" width="3" height="3"/>
		<path fill="none" stroke="black" stroke-width="1" stroke-linecap="square" stroke-miterlimit="4" transform="translate(0.5 0.5)" d="M135 1257L140 1252L164 1252L169 1257L169 1267L164 1272L140 1272L135 1267L135 1257Z"/>
		<rect fill="silver" x="197" y="1259" width="54" height="21"/>
		<rect fill="white" x="193" y="1255" width="54" height="21"/>
		<rect fill="none" stroke="black" stroke-width="1" stroke-linecap="square" stroke-miterlimit="4" transform="translate(0.5 0.5)" x="193" y="1255" width="53" height="20"/>
		<rect fill="white" x="190" y="1252" width="54" height="21"/>
		<path fill="none" stroke="black" stroke-width="1" stroke-linecap="square" stroke-miterlimit="4" transform="translate(0.5 0.5)" d="M229 1273L235 1279L238 1276"/>
		<rect fill="white" x="195" y="1298" width="117" height="48"/>
		<text fill="gray" font-size="9" font-family="Segoe UI" x="195, 199.49121, 202.54102, 205.66992, 210.76318, 214.92041, 217.97021, 223.06348, 226.19238, 230.89893, 236.19873, 238.66406, 240.84375, 245.93701, 248.75391, 254.02734, 257.15625, 264.9082, 269.4873, 272.53711, 274.7168, 279.99023, 285.0835, 287.54883, 292.12793, 297.41895, 302.69238, 307.78564, " y="1308, ">
				Structured information about
		</text>
		<text fill="gray" font-size="9" font-family="Segoe UI" x="195, 199.5791, 204.67236, 207.1377, 211.84424, 216.15527, 220.86182, 225.95508, 229.00488, 231.47021, 237.97412, 240.15381, 243.20361, 248.29688, 253.57031, 258.66357, 261.71338, 264.17871, 268.75781, 271.22314, 275.38037, 280.65381, 285.74707, 289.9043, 294.61084, 299.90186, " y="1320, ">
				an event without a concept
		</text>
		<text fill="gray" font-size="9" font-family="Segoe UI" x="195, 197.17969, 202.47949, 207.18604, 212.2793, 215.3291, 217.50879, 220.32568, 222.50537, 227.21191, 230.34082, 232.29199, 234.75732, 237.80713, 243.08057, 245.5459, 250.83691, 255.54346, 258.00879, 263.10205, 266.9209, 271.62744, 276.92725, 279.39258, 284.66602, 289.75928, 291.93896, " y="1332, ">
				identifier, to be used only
		</text>
		<text fill="gray" font-size="9" font-family="Segoe UI" x="195, 201.50391, 203.68359, 206.7334, 211.82666, 214.29199, 221.02441, 225.73096, 232.23486, 236.05371, 238.51904, 240.91406, 243.96387, 248.67041, 256.42236, " y="1344, ">
				with News Items
		</text>
		<rect fill="white" x="199" y="1254" width="33" height="16"/>
		<text font-size="12" font-weight="600" font-family="Segoe UI" x="199, 205.49219, 211.87891, 218.37109, 225.63086, " y="1267, ">
				event
		</text>
		<path fill="none" stroke="black" stroke-width="2" stroke-miterlimit="4" transform="translate(0.5 0.5)" d="M192 1270L196 1266"/>
		<path fill="none" stroke="black" stroke-width="1" stroke-linecap="square" stroke-miterlimit="4" transform="translate(0.5 0.5)" d="M193 1266L196 1266L196 1269"/>
		<text font-size="12" font-family="Segoe UI" x="214.76562, " y="1292, ">
				1
		</text>
		<text font-size="12" font-family="Symbol" x="229.72266, " y="1291, ">
				¥
		</text>
		<text font-size="12" font-family="Segoe UI" x="222.89844, 225.5, " y="1292, ">
				..
		</text>
		<rect fill="none" stroke="black" stroke-width="1" stroke-linecap="square" stroke-miterlimit="4" transform="translate(0.5 0.5)" x="190" y="1252" width="53" height="20"/>
		<rect x="238" y="1257" width="11" height="11"/>
		<rect fill="white" x="239" y="1258" width="9" height="9"/>
		<rect x="240" y="1262" width="7" height="1"/>
		<rect x="243" y="1259" width="1" height="7"/>
		<rect x="169" y="1257" width="11" height="11"/>
		<rect fill="white" x="170" y="1258" width="9" height="9"/>
		<rect x="171" y="1262" width="7" height="1"/>
		<rect x="53" y="936" width="11" height="11"/>
		<rect fill="white" x="54" y="937" width="9" height="9"/>
		<rect x="55" y="941" width="7" height="1"/>
	</g>
</svg>
