<?xml version="1.0" encoding="utf-8" ?>
<svg xmlns="http://www.w3.org/2000/svg" xmlns:xlink="http://www.w3.org/1999/xlink" width="462" height="2640">
	<clipPath id="cl_424">
		<rect x="-10" y="-5" width="462" height="2640"/>
	</clipPath>
	<g clip-path="url(#cl_424)">
		<path fill="none" stroke="black" stroke-width="1" stroke-linecap="square" stroke-miterlimit="4" transform="translate(0.5 0.5)" d="M99 1704L123 1704"/>
		<path fill="none" stroke="black" stroke-width="1" stroke-linecap="square" stroke-miterlimit="4" transform="translate(0.5 0.5)" d="M124 1704L124 1008"/>
		<path fill="none" stroke="black" stroke-width="1" stroke-linecap="square" stroke-miterlimit="4" transform="translate(0.5 0.5)" d="M124 1704L124 2401"/>
		<path fill="none" stroke="black" stroke-width="1" stroke-linecap="square" stroke-miterlimit="4" transform="translate(0.5 0.5)" d="M124 2402L138 2402"/>
		<path fill="none" stroke="black" stroke-width="1" stroke-linecap="square" stroke-miterlimit="4" transform="translate(0.5 0.5)" d="M124 1007L138 1007"/>
		<rect fill="silver" x="4" y="1698" width="94" height="21"/>
		<rect fill="white" y="1694" width="94" height="21"/>
		<rect fill="white" x="5" y="1721" width="105" height="36"/>
		<text fill="gray" font-size="9" font-family="Segoe UI" x="5, 13.081543, 17.788086, 20.837891, 25.416992, 30.716797, 35.295898, 38.345703, 42.924805, 45.390137, 49.969238, 55.260254, 60.533691, 65.626953, 68.676758, 71.14209, 75.721191, 78.186523, 82.005371, 86.162598, 91.255859, 95.962402, 103.71436, " y="1731, ">
				Metadata about a scheme
		</text>
		<text fill="gray" font-size="9" font-family="Segoe UI" x="5, 9.1572266, 14.430664, 19.523926, 23.834961, 28.541504, 32.896484, 37.603027, 42.902832, 45.368164, 50.65918, 55.01416, 57.479492, 62.058594, 64.523926, 69.744629, 74.837891, 80.111328, 86.615234, 88.794922, 93.501465, 98.80127, 104.10107, " y="1743, ">
				conveyed by a Knowledge
		</text>
		<text fill="gray" font-size="9" font-family="Segoe UI" x="5, 7.3950195, 10.444824, 15.151367, " y="1755, ">
				Item
		</text>
		<rect fill="white" x="9" y="1696" width="73" height="16"/>
		<text font-size="12" font-weight="600" font-family="Segoe UI" x="9, 14.279297, 20.039062, 27.263672, 33.755859, 44.748047, 51.240234, 62.724609, 69.216797, 73.886719, " y="1709, ">
				schemeMeta
		</text>
		<rect fill="none" stroke="black" stroke-width="1" stroke-linecap="square" stroke-miterlimit="4" transform="translate(0.5 0.5)" y="1694" width="93" height="20"/>
		<path fill="white" d="M216 19L216 0L139 0L139 19L139 2013L352 2013L352 19L216 19Z"/>
		<rect fill="white" x="159" y="2" width="51" height="16"/>
		<text font-size="12" font-style="italic" font-family="Segoe UI" x="159, 165.50391, 169.38281, 173.26172, 177.5332, 180.63867, 187.14258, 193.83984, 197.73047, 203.57227, " y="15, ">
				attributes
		</text>
		<path fill="none" stroke="black" stroke-width="1" stroke-linecap="square" stroke-miterlimit="4" transform="translate(0.5 0.5)" d="M216 19L216 0L139 0L139 19L139 2013L352 2013L352 19L216 19Z"/>
		<path fill="white" d="M344 47L344 28L153 28L153 47L153 1150L344 1150L344 47Z"/>
		<rect fill="white" x="158" y="1153" width="179" height="48"/>
		<text fill="gray" font-size="9" font-family="Segoe UI" x="158, 163.80518, 166.27051, 171.57031, 174.69922, 179.97266, 185.06592, 190.35693, 192.82227, 198.0957, 200.9126, 203.37793, 207.95703, 211.00684, 214.05664, 217.18555, 219.36523, 224.65625, 229.74951, 232.79932, 237.50586, 241.32471, 243.79004, 246.60693, 251.88037, 255.00928, 257.47461, 262.05371, 264.2334, 266.41309, 268.87842, 273.58496, 275.76465, 280.47119, 288.22314, 292.92969, 298.02295, 301.07275, 304.8916, 307.35693, 312.63037, 315.44727, 317.9126, 322.4917, 324.95703, 331.13135, " y="1163, ">
				A group of attributes for all elements of a G2
		</text>
		<text fill="gray" font-size="9" font-family="Segoe UI" x="158, 160.39502, 163.44482, 168.15137, 175.90332, 178.36865, 183.0752, 187.20605, 191.36328, 196.06982, 201.36084, 204.41064, 206.87598, 209.05566, 212.10547, 215.92432, 218.38965, 221.51855, 226.79199, 232.06543, 235.11523, 237.58057, 242.28711, 244.4668, 249.17334, 256.92529, 261.63184, 266.7251, 269.7749, 271.72607, 274.19141, 277.24121, 282.33447, 287.04102, 289.50635, 291.68604, 294.73584, 299.44238, 307.19434, 315.27588, 319.98242, 323.03223, " y="1175, ">
				Item except its root element, the itemMeta
		</text>
		<text fill="gray" font-size="9" font-family="Segoe UI" x="158, 162.70654, 164.88623, 169.59277, 177.34473, 182.05127, 187.14453, 190.19434, 192.65967, 197.23877, 202.33203, 207.63184, 210.09717, 214.67627, 216.85596, 219.03564, 221.50098, 226.77441, 229.59131, 232.05664, 234.23633, 237.28613, 241.10498, 243.57031, 247.72754, 252.8208, 255.00049, 257.18018, 262.47998, 265.60889, 270.31543, 275.40869, 277.87402, 284.37793, 289.47119, 291.65088, 295.80811, 300.90137, 303.3667, 307.9458, 311.07471, " y="1187, ">
				element and all of its children which are
		</text>
		<text fill="gray" font-size="9" font-family="Segoe UI" x="158, 165.75195, 170.33105, 175.42432, 180.72412, 185.30322, 188.35303, 193.62646, 196.75537, 201.11035, " y="1199, ">
				mandatory.
		</text>
		<rect fill="white" x="195" y="30" width="143" height="16"/>
		<text font-size="12" font-weight="600" font-family="Segoe UI" x="195, 200.75977, 208.0957, 219.08789, 230.08008, 237.41602, 244.67578, 251.68945, 259.02539, 268.53516, 275.02734, 279.80273, 288, 292.66992, 297.33984, 302.16211, 305.57227, 313.01367, 320.27344, 324.89648, 331.38867, " y="43, ">
				commonPowerAttributes
		</text>
		<rect fill="white" x="173" y="30" width="20" height="16"/>
		<text fill="gray" font-size="12" font-family="Segoe UI" x="173, 180.06641, 184.23828, " y="43, ">
				grp
		</text>
		<path fill="none" stroke="gray" stroke-width="1" stroke-linecap="square" stroke-miterlimit="4" transform="translate(0.5 0.5)" d="M153 47L153 1150L344 1150L344 47L344 47"/>
		<path fill="none" stroke="black" stroke-width="1" stroke-linecap="square" stroke-miterlimit="4" transform="translate(0.5 0.5)" d="M344 47L344 28L153 28L153 47"/>
		<rect x="158" y="33" width="11" height="11"/>
		<rect fill="white" x="159" y="34" width="9" height="9"/>
		<rect x="160" y="38" width="7" height="1"/>
		<rect fill="silver" x="165" y="61" width="52" height="21"/>
		<rect fill="white" x="161" y="57" width="52" height="21"/>
		<rect fill="white" x="166" y="84" width="101" height="24"/>
		<text fill="gray" font-size="9" font-family="Segoe UI" x="166, 170.71533, 175.80859, 180.51514, 182.98047, 185.16016, 190.43359, 194.59082, 199.16992, 201.34961, 203.81494, 205.99463, 211.29443, 216.00098, 221.09424, 224.14404, 226.32373, 229.14062, 231.32031, 236.02686, 239.15576, 241.62109, 246.89453, 249.71143, 252.17676, 255.22656, 260.31982, " y="94, ">
				The local identifier of the
		</text>
		<text fill="gray" font-size="9" font-family="Segoe UI" x="166, 171.29102, 174.41992, 179.69336, 184.98438, 189.69092, 192.81982, 195.86963, 200.22461, " y="106, ">
				property.
		</text>
		<rect fill="white" x="170" y="59" width="36" height="16"/>
		<text font-size="12" font-weight="600" font-family="Segoe UI" x="170, 173.41016, " y="72, ">
				id
		</text>
		<rect fill="none" stroke="black" stroke-width="1" stroke-linecap="square" stroke-miterlimit="4" transform="translate(0.5 0.5)" x="161" y="57" width="51" height="20"/>
		<rect fill="silver" x="165" y="119" width="58" height="21"/>
		<rect fill="white" x="161" y="115" width="58" height="21"/>
		<rect fill="white" x="166" y="142" width="121" height="120"/>
		<text fill="gray" font-size="9" font-family="Segoe UI" x="166, 168.39502, 171.21191, 173.67725, 176.72705, 181.82031, 186.52686, 188.99219, 194.2832, 197.41211, 202.68555, 207.97656, 212.68311, 215.81201, 218.86182, 223.2168, 225.68213, 229.99316, 234.57227, 236.75195, 241.84521, 246.55176, 249.01709, 251.19678, 255.01562, 257.48096, 262.57422, 267.84766, " y="152, ">
				If the property value is not
		</text>
		<text fill="gray" font-size="9" font-family="Segoe UI" x="166, 171.2998, 176.00635, 178.82324, 181.00293, 186.09619, 190.80273, 196.10254, 198.05371, 200.51904, 204.33789, 209.62891, 214.33545, 218.49268, 220.67236, 223.48926, 225.66895, 230.37549, 234.19434, 236.65967, 243.16357, 248.25684, 250.43652, 254.59375, 259.68701, 262.15234, 266.85889, 271.95215, 275.00195, 277.18164, 280.23145, " y="164, ">
				defined, specifies which entity
		</text>
		<text fill="gray" font-size="9" font-family="Segoe UI" x="166, 168.71582, 174.00684, 178.71338, 181.84229, 185.66113, 190.93457, 196.02783, 197.979, 200.44434, 205.71777, 208.84668, 214.14648, 218.72559, 223.81885, 225.99854, 229.81738, 234.39648, 237.44629, 239.62598, 244.89941, 249.99268, 252.45801, 257.73145, " y="176, ">
				(person, organisation or
		</text>
		<text fill="gray" font-size="9" font-family="Segoe UI" x="166, 169.81885, 174.17383, 177.99268, 181.04248, 185.74902, 193.50098, 196.2168, 198.68213, 205.18604, 207.36572, 209.54541, 211.7251, 214.19043, 218.89697, 224.19678, 226.37646, 229.42627, 231.8916, 234.94141, 240.03467, 244.74121, 247.20654, 252.49756, 255.62646, 260.8999, 266.19092, 270.89746, 274.02637, 277.07617, " y="188, ">
				system) will edit the property
		</text>
		<text fill="gray" font-size="9" font-family="Segoe UI" x="166, 170.31104, 174.89014, 177.06982, 182.16309, 186.86963, 189.33496, 192.93408, 195.39941, 200.10596, 204.23682, 209.52783, 212.65674, 217.36328, 221.18213, 225.00098, 229.70752, 235.00732, 237.47266, 242.76367, 247.11865, 249.58398, 254.16309, 256.62842, 263.41357, 268.98584, 274.25928, 279.55908, 284.26562, " y="200, ">
				value - expressed by a QCode.
		</text>
		<text fill="gray" font-size="9" font-family="Segoe UI" x="166, 168.39502, 171.21191, 173.67725, 176.72705, 181.82031, 186.52686, 188.99219, 194.2832, 197.41211, 202.68555, 207.97656, 212.68311, 215.81201, 218.86182, 223.2168, 225.68213, 229.99316, 234.57227, 236.75195, 241.84521, 246.55176, 249.01709, 251.19678, " y="212, ">
				If the property value is
		</text>
		<text fill="gray" font-size="9" font-family="Segoe UI" x="166, 171.2998, 176.00635, 178.82324, 181.00293, 186.09619, 190.80273, 196.10254, 198.05371, 200.51904, 204.33789, 209.62891, 214.33545, 218.49268, 220.67236, 223.48926, 225.66895, 230.37549, 234.19434, 236.65967, 243.16357, 248.25684, 250.43652, 254.59375, 259.68701, 262.15234, 266.85889, 271.95215, 275.00195, 277.18164, 280.23145, " y="224, ">
				defined, specifies which entity
		</text>
		<text fill="gray" font-size="9" font-family="Segoe UI" x="166, 168.71582, 174.00684, 178.71338, 181.84229, 185.66113, 190.93457, 196.02783, 197.979, 200.44434, 205.71777, 208.84668, 214.14648, 218.72559, 223.81885, 225.99854, 229.81738, 234.39648, 237.44629, 239.62598, 244.89941, 249.99268, 252.45801, 257.73145, " y="236, ">
				(person, organisation or
		</text>
		<text fill="gray" font-size="9" font-family="Segoe UI" x="166, 169.81885, 174.17383, 177.99268, 181.04248, 185.74902, 193.50098, 196.2168, 198.68213, 203.77539, 208.35449, 212.17334, 214.63867, 219.34521, 224.64502, 226.82471, 229.87451, 234.58105, 239.88086, 242.34619, 245.396, 250.48926, " y="248, ">
				system) has edited the
		</text>
		<text fill="gray" font-size="9" font-family="Segoe UI" x="166, 171.29102, 174.41992, 179.69336, 184.98438, 189.69092, 192.81982, 195.86963, 200.22461, 202.68994, 207.00098, 211.58008, 213.75977, 218.85303, 223.55957, " y="260, ">
				property value.
		</text>
		<rect fill="white" x="170" y="117" width="42" height="16"/>
		<text font-size="12" font-weight="600" font-family="Segoe UI" x="170, 175.75977, 180.48828, 186.98047, 193.4375, 198.06055, 205.39648, " y="130, ">
				creator
		</text>
		<rect fill="none" stroke="black" stroke-width="1" stroke-linecap="square" stroke-miterlimit="4" transform="translate(0.5 0.5)" x="161" y="115" width="57" height="20"/>
		<rect fill="silver" x="165" y="273" width="73" height="21"/>
		<rect fill="white" x="161" y="269" width="73" height="21"/>
		<rect fill="white" x="166" y="296" width="120" height="108"/>
		<text fill="gray" font-size="9" font-family="Segoe UI" x="166, 168.39502, 171.21191, 173.67725, 176.72705, 181.82031, 186.52686, 188.99219, 194.2832, 197.41211, 202.68555, 207.97656, 212.68311, 215.81201, 218.86182, 223.2168, 225.68213, 229.99316, 234.57227, 236.75195, 241.84521, 246.55176, 249.01709, 251.19678, 255.01562, 257.48096, 262.57422, 267.84766, " y="306, ">
				If the property value is not
		</text>
		<text fill="gray" font-size="9" font-family="Segoe UI" x="166, 171.2998, 176.00635, 178.82324, 181.00293, 186.09619, 190.80273, 196.10254, 198.05371, 200.51904, 204.33789, 209.62891, 214.33545, 218.49268, 220.67236, 223.48926, 225.66895, 230.37549, 234.19434, 236.65967, 243.16357, 248.25684, 250.43652, 254.59375, 259.68701, 262.15234, 266.85889, 271.95215, 275.00195, 277.18164, 280.23145, " y="318, ">
				defined, specifies which entity
		</text>
		<text fill="gray" font-size="9" font-family="Segoe UI" x="166, 168.71582, 174.00684, 178.71338, 181.84229, 185.66113, 190.93457, 196.02783, 197.979, 200.44434, 205.71777, 208.84668, 214.14648, 218.72559, 223.81885, 225.99854, 229.81738, 234.39648, 237.44629, 239.62598, 244.89941, 249.99268, 252.45801, 257.73145, " y="330, ">
				(person, organisation or
		</text>
		<text fill="gray" font-size="9" font-family="Segoe UI" x="166, 169.81885, 174.17383, 177.99268, 181.04248, 185.74902, 193.50098, 196.2168, 198.68213, 205.18604, 207.36572, 209.54541, 211.7251, 214.19043, 218.89697, 224.19678, 226.37646, 229.42627, 231.8916, 234.94141, 240.03467, 244.74121, 247.20654, 252.49756, 255.62646, 260.8999, 266.19092, 270.89746, 274.02637, 277.07617, " y="342, ">
				system) will edit the property
		</text>
		<text fill="gray" font-size="9" font-family="Segoe UI" x="166, 169.59912, 172.06445, 176.771, 180.90186, 186.19287, 189.32178, 194.02832, 197.84717, 201.66602, 206.37256, 211.67236, 214.1377, 219.42871, 223.78369, 226.24902, 230.82812, 233.29346, 239.47656, 244.85986, 247.25488, 249.20605, 251.67139, 254.06641, 256.8833, 259.34863, 262.39844, 267.4917, " y="354, ">
				- expressed by a URI. If the
		</text>
		<text fill="gray" font-size="9" font-family="Segoe UI" x="166, 171.29102, 174.41992, 179.69336, 184.98438, 189.69092, 192.81982, 195.86963, 200.22461, 202.68994, 207.00098, 211.58008, 213.75977, 218.85303, 223.55957, 226.0249, 228.20459, 232.02344, 234.48877, 239.78857, 244.49512, 247.31201, 249.4917, 254.58496, 259.2915, 264.59131, " y="366, ">
				property value is defined,
		</text>
		<text fill="gray" font-size="9" font-family="Segoe UI" x="166, 169.81885, 175.10986, 179.81641, 183.97363, 186.15332, 188.97021, 191.1499, 195.85645, 199.67529, 202.14062, 208.64453, 213.73779, 215.91748, 220.07471, 225.16797, 227.6333, 232.33984, 237.43311, 240.48291, 242.6626, 245.7124, 250.06738, 252.53271, 255.24854, 260.53955, 265.24609, 268.375, 272.19385, 277.46729, 282.56055, " y="378, ">
				specifies which entity (person,
		</text>
		<text fill="gray" font-size="9" font-family="Segoe UI" x="166, 171.27344, 174.40234, 179.70215, 184.28125, 189.37451, 191.5542, 195.37305, 199.95215, 203.00195, 205.18164, 210.45508, 215.54834, 218.01367, 223.28711, 226.41602, 228.88135, 232.7002, 237.05518, 240.87402, 243.92383, 248.63037, 256.38232, 259.09814, 261.56348, 266.65674, 271.23584, " y="390, ">
				organisation or system) has
		</text>
		<text fill="gray" font-size="9" font-family="Segoe UI" x="166, 170.70654, 176.00635, 178.18604, 181.23584, 185.94238, 191.24219, 193.70752, 196.75732, 201.85059, 206.55713, 209.02246, 214.31348, 217.44238, 222.71582, 228.00684, 232.71338, 235.84229, 238.89209, 243.24707, " y="402, ">
				edited the property.
		</text>
		<rect fill="white" x="170" y="271" width="57" height="16"/>
		<text font-size="12" font-weight="600" font-family="Segoe UI" x="170, 175.75977, 180.48828, 186.98047, 193.4375, 198.06055, 205.39648, 210.20703, 217.4668, 222.28906, " y="284, ">
				creatoruri
		</text>
		<rect fill="none" stroke="black" stroke-width="1" stroke-linecap="square" stroke-miterlimit="4" transform="translate(0.5 0.5)" x="161" y="269" width="72" height="20"/>
		<rect fill="silver" x="165" y="415" width="69" height="21"/>
		<rect fill="white" x="161" y="411" width="69" height="21"/>
		<rect fill="white" x="166" y="438" width="119" height="72"/>
		<text fill="gray" font-size="9" font-family="Segoe UI" x="166, 170.71533, 175.80859, 180.51514, 182.98047, 188.28027, 192.85938, 195.90918, 200.61572, 203.08105, 205.79688, 210.37598, 215.46924, 220.76904, 222.72021, 225.18555, 230.45898, 235.75, 238.7998, 240.97949, 246.25293, 251.34619, 255.92529, 258.10498, 260.28467, 264.63965, 266.59082, 269.05615, 272.10596, 277.19922, " y="448, ">
				The date (and, optionally, the
		</text>
		<text fill="gray" font-size="9" font-family="Segoe UI" x="166, 169.0498, 171.22949, 178.98145, 183.68799, 186.40381, 188.86914, 195.37305, 200.46631, 205.17285, 210.26611, 212.73145, 215.78125, 220.87451, 225.58105, 228.04639, 233.3374, 236.46631, 241.73975, 247.03076, 251.7373, 254.86621, 257.91602, 262.271, 264.73633, 271.24023, 275.81934, " y="460, ">
				time) when the property was
		</text>
		<text fill="gray" font-size="9" font-family="Segoe UI" x="166, 168.17969, 172.75879, 176.57764, 179.62744, 182.09277, 189.84473, 195.11816, 200.41797, 202.59766, 205.41455, 207.59424, 212.30078, 217.60059, 219.55176, 222.01709, 226.73242, 231.82568, 236.53223, 238.99756, 241.17725, 246.27051, 248.4502, 251.5, 253.67969, 258.25879, 260.43848, 262.90381, 267.21484, 271.79395, 273.97363, 279.06689, " y="472, ">
				last modified. The initial value
		</text>
		<text fill="gray" font-size="9" font-family="Segoe UI" x="166, 168.17969, 171.99854, 174.46387, 177.51367, 182.60693, 187.31348, 189.77881, 195.07861, 199.65771, 202.70752, 207.41406, 209.87939, 212.59521, 217.17432, 222.26758, 227.56738, 229.51855, 231.98389, 237.25732, 242.54834, 245.59814, 247.77783, 253.05127, 258.14453, 262.72363, 264.90332, 267.08301, 271.43799, " y="484, ">
				is the date (and, optionally,
		</text>
		<text fill="gray" font-size="9" font-family="Segoe UI" x="166, 169.0498, 174.14307, 178.84961, 181.31494, 184.36475, 186.54443, 194.29639, 199.00293, 201.71875, 204.18408, 209.45752, 212.27441, 214.73975, 218.89697, 222.02588, 226.73242, 231.31152, 234.36133, 236.54102, 241.81445, 246.90771, 249.37305, 254.64648, 257.46338, 259.92871, 262.97852, 268.07178, " y="496, ">
				the time) of creation of the
		</text>
		<text fill="gray" font-size="9" font-family="Segoe UI" x="166, 171.29102, 174.41992, 179.69336, 184.98438, 189.69092, 192.81982, 195.86963, 200.22461, " y="508, ">
				property.
		</text>
		<rect fill="white" x="170" y="413" width="53" height="16"/>
		<text font-size="12" font-weight="600" font-family="Segoe UI" x="170, 180.99219, 188.32812, 195.75781, 199.16797, 203.76758, 207.17773, 213.66992, " y="426, ">
				modified
		</text>
		<rect fill="none" stroke="black" stroke-width="1" stroke-linecap="square" stroke-miterlimit="4" transform="translate(0.5 0.5)" x="161" y="411" width="68" height="20"/>
		<rect fill="silver" x="165" y="521" width="59" height="21"/>
		<rect fill="white" x="161" y="517" width="59" height="21"/>
		<rect fill="white" x="166" y="544" width="118" height="108"/>
		<text fill="gray" font-size="9" font-family="Segoe UI" x="166, 168.39502, 171.21191, 173.67725, 177.49609, 182.20264, 185.25244, 187.71777, 190.76758, 196.04102, 198.50635, 201.55615, 204.68506, 209.77832, 214.48486, 216.9502, 220, 225.09326, " y="554, ">
				If set to true the
		</text>
		<text fill="gray" font-size="9" font-family="Segoe UI" x="166, 170.15723, 175.43066, 178.55957, 181.68848, 186.39502, 190.21387, 195.50488, 200.77832, 205.87158, 211.17139, 213.35107, 218.44434, 223.74414, 226.20947, 231.50049, 234.62939, 239.90283, 245.19385, 249.90039, 253.0293, 256.0791, 260.43408, 262.89941, 269.40332, 273.98242, " y="566, ">
				corresponding property was
		</text>
		<text fill="gray" font-size="9" font-family="Segoe UI" x="166, 170.5791, 175.87891, 181.17871, 185.88525, 191.18506, 193.65039, 196.7002, 201.97363, 204.43896, 207.48877, 212.58203, 217.28857, 219.75391, 225.92822, 230.77979, 233.24512, 235.64014, 238.68994, 243.39648, 251.14844, 253.61377, 256.43066, 261.7041, 264.83301, 267.29834, " y="578, ">
				added to the G2 Item for a
		</text>
		<text fill="gray" font-size="9" font-family="Segoe UI" x="166, 169.81885, 175.10986, 179.81641, 183.97363, 186.15332, 188.97021, 191.1499, 195.30713, 197.77246, 201.92969, 207.02295, 210.8418, 213.8916, 219.16504, 226.91699, 231.62354, 234.75244, 237.21777, 242.49121, 245.62012, 248.08545, 253.38525, 256.51416, 261.7876, 266.88086, 272.17188, 274.63721, 279.91064, " y="590, ">
				specific customer or group of
		</text>
		<text fill="gray" font-size="9" font-family="Segoe UI" x="166, 170.15723, 175.25049, 179.06934, 182.11914, 187.39258, 195.14453, 199.85107, 202.97998, 206.79883, 209.26416, 214.5376, 219.63086, 221.81055, 226.16553, 228.1167, 230.58203, 235.29736, 240.39062, 245.09717, 247.5625, 252.8623, 257.56885, 260.38574, 264.96484, 270.05811, 272.23779, " y="602, ">
				customers only. The default
		</text>
		<text fill="gray" font-size="9" font-family="Segoe UI" x="166, 170.31104, 174.89014, 177.06982, 182.16309, 186.86963, 189.33496, 194.6084, 197.42529, 199.89062, 202.94043, 208.03369, 210.21338, 214.03223, 216.49756, 221.78857, 224.91748, 230.19092, 235.48193, 240.18848, 243.31738, 246.36719, 250.72217, 253.1875, 255.36719, 259.18604, 261.65137, 264.46826, 269.04736, 271.22705, 275.0459, " y="614, ">
				value of this property is false
		</text>
		<text fill="gray" font-size="9" font-family="Segoe UI" x="166, 172.50391, 177.59717, 179.77686, 183.93408, 189.02734, 191.49268, 196.07178, 201.36279, 206.65381, 208.8335, 211.01318, 215.71973, 219.53857, 222.00391, 228.50781, 233.60107, 238.30762, 243.40088, 245.86621, 248.91602, 254.00928, 256.18896, " y="626, ">
				which applies when this
		</text>
		<text fill="gray" font-size="9" font-family="Segoe UI" x="166, 170.5791, 173.62891, 176.67871, 179.80762, 181.9873, 187.27832, 192.37158, 195.42139, 200.12793, 202.59326, 204.77295, 208.5918, 211.05713, 216.15039, 221.42383, 224.47363, 226.93896, 232.03223, 235.85107, 240.55762, 245.85742, 248.32275, 254.82666, 257.00635, 260.05615, 265.14941, 267.61475, 270.66455, 275.75781, " y="638, ">
				attribute is not used with the
		</text>
		<text fill="gray" font-size="9" font-family="Segoe UI" x="166, 171.29102, 174.41992, 179.69336, 184.98438, 189.69092, 192.81982, 195.86963, 200.22461, " y="650, ">
				property.
		</text>
		<rect fill="white" x="170" y="519" width="43" height="16"/>
		<text font-size="12" font-weight="600" font-family="Segoe UI" x="170, 175.75977, 183.01953, 188.29883, 192.92188, 200.25781, " y="532, ">
				custom
		</text>
		<rect fill="none" stroke="black" stroke-width="1" stroke-linecap="square" stroke-miterlimit="4" transform="translate(0.5 0.5)" x="161" y="517" width="58" height="20"/>
		<rect fill="silver" x="165" y="663" width="52" height="21"/>
		<rect fill="white" x="161" y="659" width="52" height="21"/>
		<rect fill="white" x="166" y="686" width="118" height="48"/>
		<text fill="gray" font-size="9" font-family="Segoe UI" x="166, 168.39502, 173.48828, 178.78809, 180.96777, 185.125, 189.7041, 192.75391, 197.46045, 201.2793, 203.74463, 209.03564, 213.39062, 215.85596, 222.35986, 227.45312, 229.63281, 233.79004, 238.8833, 241.34863, 249.10059, 253.80713, 258.38623, 263.47949, 267.29834, 269.76367, 272.81348, 277.90674, " y="696, ">
				Indicates by which means the
		</text>
		<text fill="gray" font-size="9" font-family="Segoe UI" x="166, 170.31104, 174.89014, 177.06982, 182.16309, 186.86963, 189.33496, 195.83887, 200.41797, 204.23682, 206.70215, 211.40869, 215.53955, 218.58936, 221.71826, 226.29736, 230.45459, 233.50439, 238.21094, 243.51074, 245.97607, 248.79297, 251.92188, 257.19531, 264.94727, 267.4126, 270.4624, 275.55566, " y="708, ">
				value was extracted from the
		</text>
		<text fill="gray" font-size="9" font-family="Segoe UI" x="166, 170.15723, 175.43066, 180.52393, 183.57373, 188.28027, 193.37354, 196.42334, 198.88867, 202.48779, 204.95312, 209.65967, 213.79053, 219.08154, 222.21045, 226.91699, 230.73584, 234.55469, 239.26123, 244.56104, 247.02637, 252.31738, 256.67236, 259.1377, " y="720, ">
				content - expressed by a
		</text>
		<text fill="gray" font-size="9" font-family="Segoe UI" x="166, 172.78516, 178.35742, 183.63086, 188.93066, " y="732, ">
				QCode
		</text>
		<rect fill="white" x="170" y="661" width="36" height="16"/>
		<text font-size="12" font-weight="600" font-family="Segoe UI" x="170, 177.22461, 184.56055, " y="674, ">
				how
		</text>
		<rect fill="none" stroke="black" stroke-width="1" stroke-linecap="square" stroke-miterlimit="4" transform="translate(0.5 0.5)" x="161" y="659" width="51" height="20"/>
		<rect fill="silver" x="165" y="745" width="57" height="21"/>
		<rect fill="white" x="161" y="741" width="57" height="21"/>
		<rect fill="white" x="166" y="768" width="118" height="36"/>
		<text fill="gray" font-size="9" font-family="Segoe UI" x="166, 168.39502, 173.48828, 178.78809, 180.96777, 185.125, 189.7041, 192.75391, 197.46045, 201.2793, 203.74463, 209.03564, 213.39062, 215.85596, 222.35986, 227.45312, 229.63281, 233.79004, 238.8833, 241.34863, 249.10059, 253.80713, 258.38623, 263.47949, 267.29834, 269.76367, 272.81348, 277.90674, " y="778, ">
				Indicates by which means the
		</text>
		<text fill="gray" font-size="9" font-family="Segoe UI" x="166, 170.31104, 174.89014, 177.06982, 182.16309, 186.86963, 189.33496, 195.83887, 200.41797, 204.23682, 206.70215, 211.40869, 215.53955, 218.58936, 221.71826, 226.29736, 230.45459, 233.50439, 238.21094, 243.51074, 245.97607, 248.79297, 251.92188, 257.19531, 264.94727, 267.4126, 270.4624, 275.55566, " y="790, ">
				value was extracted from the
		</text>
		<text fill="gray" font-size="9" font-family="Segoe UI" x="166, 170.15723, 175.43066, 180.52393, 183.57373, 188.28027, 193.37354, 196.42334, 198.88867, 202.48779, 204.95312, 209.65967, 213.79053, 219.08154, 222.21045, 226.91699, 230.73584, 234.55469, 239.26123, 244.56104, 247.02637, 252.31738, 256.67236, 259.1377, 263.7168, 266.18213, 272.36523, 277.74854, " y="802, ">
				content - expressed by a URI
		</text>
		<rect fill="white" x="170" y="743" width="41" height="16"/>
		<text font-size="12" font-weight="600" font-family="Segoe UI" x="170, 177.22461, 184.56055, 194.12891, 201.38867, 206.21094, " y="756, ">
				howuri
		</text>
		<rect fill="none" stroke="black" stroke-width="1" stroke-linecap="square" stroke-miterlimit="4" transform="translate(0.5 0.5)" x="161" y="741" width="56" height="20"/>
		<rect fill="silver" x="165" y="815" width="52" height="21"/>
		<rect fill="white" x="161" y="811" width="52" height="21"/>
		<rect fill="white" x="166" y="838" width="113" height="36"/>
		<text fill="gray" font-size="9" font-family="Segoe UI" x="166, 174.40674, 179.5, 183.85498, 186.32031, 189.37012, 194.46338, 199.16992, 201.63525, 209.38721, 214.09375, 217.14355, 221.72266, 227.02246, 231.60156, 234.65137, 239.23047, 241.6958, 246.78906, 251.36816, 255.18701, 257.65234, 262.94336, 267.6499, 272.35645, " y="848, ">
				Why the metadata has been
		</text>
		<text fill="gray" font-size="9" font-family="Segoe UI" x="166, 168.17969, 173.27295, 177.43018, 179.60986, 184.70312, 190.00293, 194.70947, 200.00928, 202.47461, 206.07373, 208.53906, 213.24561, 217.37646, 222.66748, 225.79639, 230.50293, 234.32178, 238.14062, 242.84717, 248.14697, 250.6123, 255.90332, 260.2583, 262.72363, " y="860, ">
				included - expressed by a
		</text>
		<text fill="gray" font-size="9" font-family="Segoe UI" x="166, 172.78516, 178.35742, 183.63086, 188.93066, " y="872, ">
				QCode
		</text>
		<rect fill="white" x="170" y="813" width="36" height="16"/>
		<text font-size="12" font-weight="600" font-family="Segoe UI" x="170, 179.56836, 186.79297, " y="826, ">
				why
		</text>
		<rect fill="none" stroke="black" stroke-width="1" stroke-linecap="square" stroke-miterlimit="4" transform="translate(0.5 0.5)" x="161" y="811" width="51" height="20"/>
		<rect fill="silver" x="165" y="885" width="56" height="21"/>
		<rect fill="white" x="161" y="881" width="56" height="21"/>
		<rect fill="white" x="166" y="908" width="119" height="24"/>
		<text fill="gray" font-size="9" font-family="Segoe UI" x="166, 174.40674, 179.5, 183.85498, 186.32031, 189.37012, 194.46338, 199.16992, 201.63525, 209.38721, 214.09375, 217.14355, 221.72266, 227.02246, 231.60156, 234.65137, 239.23047, 241.6958, 246.78906, 251.36816, 255.18701, 257.65234, 262.94336, 267.6499, 272.35645, " y="918, ">
				Why the metadata has been
		</text>
		<text fill="gray" font-size="9" font-family="Segoe UI" x="166, 168.17969, 173.27295, 177.43018, 179.60986, 184.70312, 190.00293, 194.70947, 200.00928, 202.47461, 206.07373, 208.53906, 213.24561, 217.37646, 222.66748, 225.79639, 230.50293, 234.32178, 238.14062, 242.84717, 248.14697, 250.6123, 255.90332, 260.2583, 262.72363, 267.30273, 269.76807, 275.95117, 281.33447, " y="930, ">
				included - expressed by a URI
		</text>
		<rect fill="white" x="170" y="883" width="40" height="16"/>
		<text font-size="12" font-weight="600" font-family="Segoe UI" x="170, 179.56836, 186.79297, 193.25, 200.50977, 205.33203, " y="896, ">
				whyuri
		</text>
		<rect fill="none" stroke="black" stroke-width="1" stroke-linecap="square" stroke-miterlimit="4" transform="translate(0.5 0.5)" x="161" y="881" width="55" height="20"/>
		<rect fill="silver" x="165" y="943" width="97" height="21"/>
		<rect fill="white" x="161" y="939" width="97" height="21"/>
		<rect fill="white" x="166" y="966" width="117" height="72"/>
		<text fill="gray" font-size="9" font-family="Segoe UI" x="166, 172.78516, 177.87842, 182.58496, 185.05029, 190.32373, 193.45264, 195.91797, 203.66992, 208.24902, 213.34229, 217.69727, 220.1626, 224.31982, 229.59326, 234.68652, 238.50537, 241.55518, 244.68408, 249.26318, 251.44287, 256.53613, 259.58594, 263.40479, 265.87012, 268.91992, 274.01318, 278.59229, " y="976, ">
				One or many constraints that
		</text>
		<text fill="gray" font-size="9" font-family="Segoe UI" x="166, 170.5791, 175.87012, 181.16113, 183.34082, 187.6958, 190.16113, 193.21094, 198.48438, 200.94971, 206.24072, 211.33398, 216.625, 218.80469, 220.98438, 224.80322, 229.89648, 232.07617, 237.16943, 242.46924, 244.93457, 247.98438, 253.07764, 257.78418, 260.24951, 264.56055, 269.13965, 271.31934, 276.4126, " y="988, ">
				apply to publishing the value
		</text>
		<text fill="gray" font-size="9" font-family="Segoe UI" x="166, 171.27344, 174.09033, 176.55566, 179.60547, 184.69873, 189.40527, 191.87061, 197.16162, 200.29053, 205.56396, 210.85498, 215.56152, 218.69043, 221.74023, 226.09521, 228.56055, 232.15967, 234.625, 239.33154, 243.4624, 248.75342, 251.88232, 256.58887, 260.40771, 264.22656, 268.93311, " y="1000, ">
				of the property - expressed
		</text>
		<text fill="gray" font-size="9" font-family="Segoe UI" x="166, 171.29102, 175.646, 178.11133, 182.69043, 185.15576, 191.94092, 197.51318, 202.78662, 208.08643, 212.79297, 214.74414, 217.20947, 221.76221, 226.34131, 230.49854, 235.5918, 238.05713, 242.21436, 247.48779, 252.58105, 256.3999, 259.44971, 262.57861, 267.15771, 269.3374, 274.43066, " y="1012, ">
				by a QCode. Each constraint
		</text>
		<text fill="gray" font-size="9" font-family="Segoe UI" x="166, 170.5791, 175.87012, 181.16113, 183.34082, 185.52051, 190.22705, 194.0459, 196.51123, 199.56104, 204.83447, 207.2998, 211.87891, 214.05859, 216.23828, 218.70361, 224.00342, 228.70996, 232.52881, 236.68604, 241.39258, 246.48584, 251.78564, 256.36475, 261.45801, " y="1024, ">
				applies to all descendant
		</text>
		<text fill="gray" font-size="9" font-family="Segoe UI" x="166, 170.70654, 172.88623, 177.59277, 185.34473, 190.05127, 195.14453, 198.19434, 202.01318, " y="1036, ">
				elements.
		</text>
		<rect fill="white" x="170" y="941" width="81" height="16"/>
		<text font-size="12" font-weight="600" font-family="Segoe UI" x="170, 177.44141, 184.70117, 192.14258, 197.90234, 205.23828, 212.49805, 217.77734, 222.44727, 227.22266, 233.67969, 237.08984, 244.34961, " y="954, ">
				pubconstraint
		</text>
		<rect fill="none" stroke="black" stroke-width="1" stroke-linecap="square" stroke-miterlimit="4" transform="translate(0.5 0.5)" x="161" y="939" width="96" height="20"/>
		<rect fill="silver" x="165" y="1049" width="112" height="21"/>
		<rect fill="white" x="161" y="1045" width="112" height="21"/>
		<rect fill="white" x="166" y="1072" width="117" height="72"/>
		<text fill="gray" font-size="9" font-family="Segoe UI" x="166, 172.78516, 177.87842, 182.58496, 185.05029, 190.32373, 193.45264, 195.91797, 203.66992, 208.24902, 213.34229, 217.69727, 220.1626, 224.31982, 229.59326, 234.68652, 238.50537, 241.55518, 244.68408, 249.26318, 251.44287, 256.53613, 259.58594, 263.40479, 265.87012, 268.91992, 274.01318, 278.59229, " y="1082, ">
				One or many constraints that
		</text>
		<text fill="gray" font-size="9" font-family="Segoe UI" x="166, 170.5791, 175.87012, 181.16113, 183.34082, 187.6958, 190.16113, 193.21094, 198.48438, 200.94971, 206.24072, 211.33398, 216.625, 218.80469, 220.98438, 224.80322, 229.89648, 232.07617, 237.16943, 242.46924, 244.93457, 247.98438, 253.07764, 257.78418, 260.24951, 264.56055, 269.13965, 271.31934, 276.4126, " y="1094, ">
				apply to publishing the value
		</text>
		<text fill="gray" font-size="9" font-family="Segoe UI" x="166, 171.27344, 174.09033, 176.55566, 179.60547, 184.69873, 189.40527, 191.87061, 197.16162, 200.29053, 205.56396, 210.85498, 215.56152, 218.69043, 221.74023, 226.09521, 228.56055, 232.15967, 234.625, 239.33154, 243.4624, 248.75342, 251.88232, 256.58887, 260.40771, 264.22656, 268.93311, " y="1106, ">
				of the property - expressed
		</text>
		<text fill="gray" font-size="9" font-family="Segoe UI" x="166, 171.29102, 175.646, 178.11133, 182.69043, 185.15576, 191.33887, 196.72217, 199.11719, 201.06836, 203.53369, 208.08643, 212.66553, 216.82275, 221.91602, 224.38135, 228.53857, 233.81201, 238.90527, 242.72412, 245.77393, 248.90283, 253.48193, 255.66162, 260.75488, " y="1118, ">
				by a URI. Each constraint
		</text>
		<text fill="gray" font-size="9" font-family="Segoe UI" x="166, 170.5791, 175.87012, 181.16113, 183.34082, 185.52051, 190.22705, 194.0459, 196.51123, 199.56104, 204.83447, 207.2998, 211.87891, 214.05859, 216.23828, 218.70361, 224.00342, 228.70996, 232.52881, 236.68604, 241.39258, 246.48584, 251.78564, 256.36475, 261.45801, " y="1130, ">
				applies to all descendant
		</text>
		<text fill="gray" font-size="9" font-family="Segoe UI" x="166, 170.70654, 172.88623, 177.59277, 185.34473, 190.05127, 195.14453, 198.19434, 202.01318, " y="1142, ">
				elements.
		</text>
		<rect fill="white" x="170" y="1047" width="96" height="16"/>
		<text font-size="12" font-weight="600" font-family="Segoe UI" x="170, 177.44141, 184.70117, 192.14258, 197.90234, 205.23828, 212.49805, 217.77734, 222.44727, 227.22266, 233.67969, 237.08984, 244.34961, 249.01953, 256.2793, 261.10156, " y="1060, ">
				pubconstrainturi
		</text>
		<rect fill="none" stroke="black" stroke-width="1" stroke-linecap="square" stroke-miterlimit="4" transform="translate(0.5 0.5)" x="161" y="1045" width="111" height="20"/>
		<rect fill="silver" x="157" y="1212" width="52" height="21"/>
		<rect fill="white" x="153" y="1208" width="52" height="21"/>
		<rect fill="white" x="158" y="1235" width="112" height="24"/>
		<text fill="gray" font-size="9" font-family="Segoe UI" x="158, 162.71533, 167.80859, 172.51514, 174.98047, 181.16357, 186.54688, 188.94189, 191.40723, 197.91113, 203.00439, 205.18408, 209.34131, 214.43457, 216.8999, 219.07959, 224.37939, 229.08594, 234.1792, 237.229, 239.40869, 242.22559, 244.40527, 249.11182, 252.93066, 255.396, 258.4458, 263.53906, " y="1245, ">
				The URI which identifies the
		</text>
		<text fill="gray" font-size="9" font-family="Segoe UI" x="158, 161.81885, 165.97607, 171.06934, 175.77588, 183.52783, " y="1257, ">
				scheme
		</text>
		<rect fill="white" x="162" y="1210" width="36" height="16"/>
		<text font-size="12" font-weight="600" font-family="Segoe UI" x="162, 169.25977, 174.08203, " y="1223, ">
				uri
		</text>
		<rect fill="none" stroke="black" stroke-width="1" stroke-linecap="square" stroke-miterlimit="4" transform="translate(0.5 0.5)" x="153" y="1208" width="51" height="20"/>
		<rect fill="silver" x="157" y="1270" width="96" height="21"/>
		<rect fill="white" x="153" y="1266" width="96" height="21"/>
		<rect fill="white" x="158" y="1293" width="103" height="24"/>
		<text fill="gray" font-size="9" font-family="Segoe UI" x="158, 162.71533, 167.80859, 172.51514, 174.98047, 179.55957, 181.73926, 183.91895, 188.49805, 192.31689, 194.78223, 200.07324, 203.20215, 207.90869, 210.72559, 215.43213, 218.56104, 221.68994, 226.39648, 231.69629, 234.16162, 239.45264, 243.80762, 246.27295, 249.32275, 254.41602, " y="1303, ">
				The alias preferred by the
		</text>
		<text fill="gray" font-size="9" font-family="Segoe UI" x="158, 161.81885, 165.97607, 171.06934, 175.77588, 183.52783, 188.10693, 190.57227, 195.15137, 200.24463, 203.29443, 208.3877, 213.66113, 216.79004, 218.96973, 222.01953, " y="1315, ">
				schema authority
		</text>
		<rect fill="white" x="162" y="1268" width="80" height="16"/>
		<text font-size="12" font-weight="600" font-family="Segoe UI" x="162, 169.44141, 174.16992, 180.66211, 185.26172, 191.75391, 196.5293, 201.25781, 207.75, 215.17969, 221.63672, 225.04688, 228.45703, 234.91406, " y="1281, ">
				preferredalias
		</text>
		<rect fill="none" stroke="black" stroke-width="1" stroke-linecap="square" stroke-miterlimit="4" transform="translate(0.5 0.5)" x="153" y="1266" width="95" height="20"/>
		<path fill="white" d="M312 1343L312 1324L153 1324L153 1343L153 1550L312 1550L312 1343Z"/>
		<rect fill="white" x="195" y="1326" width="111" height="16"/>
		<text font-size="12" font-weight="600" font-family="Segoe UI" x="195, 201.45703, 208.7168, 213.38672, 220.61133, 227.94727, 232.76953, 236.17969, 240.84961, 247.30664, 255.50391, 260.17383, 264.84375, 269.66602, 273.07617, 280.51758, 287.77734, 292.40039, 298.89258, " y="1339, ">
				authorityAttributes
		</text>
		<rect fill="white" x="173" y="1326" width="20" height="16"/>
		<text fill="gray" font-size="12" font-family="Segoe UI" x="173, 180.06641, 184.23828, " y="1339, ">
				grp
		</text>
		<path fill="none" stroke="gray" stroke-width="1" stroke-linecap="square" stroke-miterlimit="4" transform="translate(0.5 0.5)" d="M153 1343L153 1550L312 1550L312 1343L312 1343"/>
		<path fill="none" stroke="black" stroke-width="1" stroke-linecap="square" stroke-miterlimit="4" transform="translate(0.5 0.5)" d="M312 1343L312 1324L153 1324L153 1343"/>
		<rect x="158" y="1329" width="11" height="11"/>
		<rect fill="white" x="159" y="1330" width="9" height="9"/>
		<rect x="160" y="1334" width="7" height="1"/>
		<rect fill="silver" x="165" y="1357" width="70" height="21"/>
		<rect fill="white" x="161" y="1353" width="70" height="21"/>
		<rect fill="white" x="166" y="1380" width="93" height="24"/>
		<text fill="gray" font-size="9" font-family="Segoe UI" x="166, 172.31055, 177.01709, 179.83398, 182.01367, 187.10693, 191.81348, 195.63232, 198.09766, 201.14746, 206.24072, 210.94727, 213.4126, 217.9917, 223.08496, 226.13477, 231.22803, 236.50146, 239.63037, 241.81006, 244.85986, " y="1390, ">
				Defines the authority
		</text>
		<text fill="gray" font-size="9" font-family="Segoe UI" x="166, 170.15723, 175.43066, 180.52393, 183.57373, 186.70264, 191.97607, 194.15576, 196.33545, 198.51514, 203.6084, 208.9082, 211.37354, 214.42334, 219.5166, 221.69629, 225.51514, 227.98047, 232.1377, 236.7168, 239.7666, 244.3457, 246.52539, 251.79883, " y="1402, ">
				controlling this catalog
		</text>
		<rect fill="white" x="170" y="1355" width="54" height="16"/>
		<text font-size="12" font-weight="600" font-family="Segoe UI" x="170, 176.45703, 183.7168, 188.38672, 195.61133, 202.94727, 207.76953, 211.17969, 215.84961, " y="1368, ">
				authority
		</text>
		<rect fill="none" stroke="black" stroke-width="1" stroke-linecap="square" stroke-miterlimit="4" transform="translate(0.5 0.5)" x="161" y="1353" width="69" height="20"/>
		<rect fill="silver" x="165" y="1415" width="103" height="21"/>
		<rect fill="white" x="161" y="1411" width="103" height="21"/>
		<rect fill="white" x="166" y="1438" width="117" height="36"/>
		<text fill="gray" font-size="9" font-family="Segoe UI" x="166, 170.71533, 175.80859, 180.51514, 182.98047, 186.79932, 189.84912, 194.42822, 197.47803, 202.57129, 206.39014, 208.85547, 214.12891, 216.9458, 219.41113, 222.46094, 227.5542, 232.26074, 234.72607, 240.53125, 245.62451, 248.67432, 253.76758, 259.04102, 262.16992, 264.34961, 267.39941, " y="1448, ">
				The status of the Authority
		</text>
		<text fill="gray" font-size="9" font-family="Segoe UI" x="166, 170.5791, 174.39795, 178.2168, 183.49023, 187.64746, 189.82715, 194.40625, 197.45605, 202.1626, 207.4624, 209.92773, 216.43164, 218.61133, 221.66113, 226.75439, 229.21973, 232.26953, 237.36279, 242.06934, 244.53467, 249.31592, 253.47314, 258.56641, 263.27295, 271.0249, 275.73145, 278.19678, " y="1460, ">
				associated with the Scheme -
		</text>
		<text fill="gray" font-size="9" font-family="Segoe UI" x="166, 170.70654, 174.8374, 180.12842, 183.25732, 187.96387, 191.78271, 195.60156, 200.30811, 205.60791, 208.07324, 212.65234, 216.47119, 218.93652, 223.51562, 225.98096, 232.76611, 238.33838, 243.61182, 248.91162, 253.61816, " y="1472, ">
				expressed as a QCode.
		</text>
		<rect fill="white" x="170" y="1413" width="87" height="16"/>
		<text font-size="12" font-weight="600" font-family="Segoe UI" x="170, 176.45703, 183.7168, 188.38672, 195.61133, 202.94727, 207.76953, 211.17969, 215.84961, 222.30664, 227.58594, 232.25586, 238.71289, 243.38281, 250.64258, " y="1426, ">
				authoritystatus
		</text>
		<rect fill="none" stroke="black" stroke-width="1" stroke-linecap="square" stroke-miterlimit="4" transform="translate(0.5 0.5)" x="161" y="1411" width="102" height="20"/>
		<rect fill="silver" x="165" y="1485" width="119" height="21"/>
		<rect fill="white" x="161" y="1481" width="119" height="21"/>
		<rect fill="white" x="166" y="1508" width="117" height="36"/>
		<text fill="gray" font-size="9" font-family="Segoe UI" x="166, 170.71533, 175.80859, 180.51514, 182.98047, 186.79932, 189.84912, 194.42822, 197.47803, 202.57129, 206.39014, 208.85547, 214.12891, 216.9458, 219.41113, 222.46094, 227.5542, 232.26074, 234.72607, 240.53125, 245.62451, 248.67432, 253.76758, 259.04102, 262.16992, 264.34961, 267.39941, " y="1518, ">
				The status of the Authority
		</text>
		<text fill="gray" font-size="9" font-family="Segoe UI" x="166, 170.5791, 174.39795, 178.2168, 183.49023, 187.64746, 189.82715, 194.40625, 197.45605, 202.1626, 207.4624, 209.92773, 216.43164, 218.61133, 221.66113, 226.75439, 229.21973, 232.26953, 237.36279, 242.06934, 244.53467, 249.31592, 253.47314, 258.56641, 263.27295, 271.0249, 275.73145, 278.19678, " y="1530, ">
				associated with the Scheme -
		</text>
		<text fill="gray" font-size="9" font-family="Segoe UI" x="166, 170.70654, 174.8374, 180.12842, 183.25732, 187.96387, 191.78271, 195.60156, 200.30811, 205.60791, 208.07324, 212.65234, 216.47119, 218.93652, 223.51562, 225.98096, 232.16406, 237.54736, 239.94238, " y="1542, ">
				expressed as a URI.
		</text>
		<rect fill="white" x="170" y="1483" width="103" height="16"/>
		<text font-size="12" font-weight="600" font-family="Segoe UI" x="170, 176.45703, 183.7168, 188.38672, 195.61133, 202.94727, 207.76953, 211.17969, 215.84961, 222.30664, 227.58594, 232.25586, 238.71289, 243.38281, 250.64258, 255.92188, 263.18164, 268.00391, " y="1496, ">
				authoritystatusuri
		</text>
		<rect fill="none" stroke="black" stroke-width="1" stroke-linecap="square" stroke-miterlimit="4" transform="translate(0.5 0.5)" x="161" y="1481" width="118" height="20"/>
		<rect fill="silver" x="157" y="1562" width="87" height="21"/>
		<rect fill="white" x="153" y="1558" width="87" height="21"/>
		<rect fill="white" x="158" y="1585" width="116" height="24"/>
		<text fill="gray" font-size="9" font-family="Segoe UI" x="158, 162.23633, 164.41602, 168.23486, 171.28467, 173.75, 179.02344, 181.84033, 184.30566, 188.88477, 191.06445, 193.24414, 195.70947, 199.8667, 205.14014, 210.2334, 214.39062, 219.09717, 224.38818, 227.43799, 229.90332, 232.95312, 237.30811, 242.59912, 247.30566, 251.12451, 253.58984, 258.68311, 262.50195, 267.2085, " y="1595, ">
				List of all concept types used
		</text>
		<text fill="gray" font-size="9" font-family="Segoe UI" x="158, 164.50391, 166.68359, 169.7334, 174.82666, 177.00635, 182.09961, 184.56494, 187.61475, 192.70801, 194.8877, 198.70654, 201.17188, 206.39258, 211.48584, 216.75928, 223.26318, 225.44287, 230.14941, 235.44922, 240.74902, 245.45557, 247.9209, 250.31592, 253.36572, 258.07227, " y="1607, ">
				within this Knowledge Item
		</text>
		<rect fill="white" x="162" y="1560" width="71" height="16"/>
		<text font-size="12" font-weight="600" font-family="Segoe UI" x="162, 167.75977, 175.0957, 182.35547, 188.11523, 194.60742, 202.04883, 206.71875, 211.38867, 217.8457, 225.28711, " y="1573, ">
				concepttype
		</text>
		<rect fill="none" stroke="black" stroke-width="1" stroke-linecap="square" stroke-miterlimit="4" transform="translate(0.5 0.5)" x="153" y="1558" width="86" height="20"/>
		<rect fill="silver" x="157" y="1620" width="102" height="21"/>
		<rect fill="white" x="153" y="1616" width="102" height="21"/>
		<rect fill="white" x="158" y="1643" width="118" height="84"/>
		<text fill="gray" font-size="9" font-family="Segoe UI" x="158, 162.71533, 167.80859, 172.51514, 174.98047, 180.28027, 184.85938, 187.90918, 192.61572, 195.08105, 197.79688, 202.37598, 207.46924, 212.76904, 214.72021, 217.18555, 222.45898, 227.75, 230.7998, 232.97949, 238.25293, 243.34619, 247.92529, 250.10498, 252.28467, 256.63965, 258.59082, 261.05615, 264.10596, 269.19922, " y="1653, ">
				The date (and, optionally, the
		</text>
		<text fill="gray" font-size="9" font-family="Segoe UI" x="158, 161.0498, 163.22949, 170.98145, 175.68799, 178.40381, 180.86914, 187.37305, 192.46631, 197.17285, 202.26611, 204.73145, 207.78125, 212.87451, 217.58105, 220.04639, 223.86523, 228.02246, 233.11572, 237.82227, 245.57422, 250.28076, 252.74609, 259.25, 263.8291, " y="1665, ">
				time) when the scheme was
		</text>
		<text fill="gray" font-size="9" font-family="Segoe UI" x="158, 162.15723, 165.28613, 169.99268, 174.57178, 177.62158, 182.32812, 187.62793, 189.5791, 192.04443, 196.75977, 201.85303, 204.03271, 207.85156, 210.31689, 218.06885, 223.16211, 226.98096, 230.03076, 232.49609, 237.58936, 242.86279, 245.9126, 248.37793, 253.66895, " y="1677, ">
				created. This must not be
		</text>
		<text fill="gray" font-size="9" font-family="Segoe UI" x="158, 160.17969, 164.75879, 167.80859, 172.51514, 175.64404, 178.10938, 181.15918, 186.25244, 190.83154, 195.9248, 198.39014, 201.43994, 206.5332, 211.23975, 213.70508, 217.8623, 220.99121, 225.69775, 230.27686, 233.32666, 235.50635, 240.77979, " y="1689, ">
				later than the creation
		</text>
		<text fill="gray" font-size="9" font-family="Segoe UI" x="158, 161.0498, 163.22949, 170.98145, 175.68799, 179.50684, 182.55664, 187.13574, 194.8877, 200.17871, 202.64404, 207.91748, 210.73438, 213.19971, 217.77881, 222.87207, 227.22705, 229.69238, 233.84961, 239.12305, 244.21631, 248.37354, 253.08008, 258.37109, 261.4209, 265.23975, 267.70508, 269.88477, " y="1701, ">
				timestamp of any concepts in
		</text>
		<text fill="gray" font-size="9" font-family="Segoe UI" x="158, 161.0498, 166.14307, 170.84961, 173.31494, 177.13379, 181.29102, 186.38428, 191.09082, 198.84277, 203.54932, 206.01465, 208.73047, 210.91016, 216.20996, 220.9165, 226.00977, 229.05957, 231.23926, 234.05615, 236.23584, 240.94238, 246.24219, 248.70752, 253.99854, 258.35352, 260.81885, 263.86865, 268.96191, " y="1713, ">
				the scheme (identified by the
		</text>
		<text fill="gray" font-size="9" font-family="Segoe UI" x="158, 161.81885, 165.97607, 171.06934, 175.77588, 183.52783, 188.23438, 196.31592, 201.02246, 204.07227, 208.65137, 211.1167, 219.7124, 224.80566, 227.93457, 230.11426, 232.83008, " y="1725, ">
				schemeMeta @uri).
		</text>
		<rect fill="white" x="162" y="1618" width="86" height="16"/>
		<text font-size="12" font-weight="600" font-family="Segoe UI" x="162, 167.2793, 173.03906, 180.26367, 186.75586, 197.74805, 204.24023, 210, 214.72852, 221.2207, 227.67773, 232.30078, 238.79297, " y="1631, ">
				schemecreated
		</text>
		<rect fill="none" stroke="black" stroke-width="1" stroke-linecap="square" stroke-miterlimit="4" transform="translate(0.5 0.5)" x="153" y="1616" width="101" height="20"/>
		<rect fill="silver" x="157" y="1738" width="111" height="21"/>
		<rect fill="white" x="153" y="1734" width="111" height="21"/>
		<rect fill="white" x="158" y="1761" width="119" height="84"/>
		<text fill="gray" font-size="9" font-family="Segoe UI" x="158, 162.71533, 167.80859, 172.51514, 174.98047, 180.28027, 184.85938, 187.90918, 192.61572, 195.08105, 197.79688, 202.37598, 207.46924, 212.76904, 214.72021, 217.18555, 222.45898, 227.75, 230.7998, 232.97949, 238.25293, 243.34619, 247.92529, 250.10498, 252.28467, 256.63965, 258.59082, 261.05615, 264.10596, 269.19922, " y="1771, ">
				The date (and, optionally, the
		</text>
		<text fill="gray" font-size="9" font-family="Segoe UI" x="158, 161.0498, 163.22949, 170.98145, 175.68799, 178.40381, 180.86914, 187.37305, 192.46631, 197.17285, 202.26611, 204.73145, 207.78125, 212.87451, 217.58105, 220.04639, 223.86523, 228.02246, 233.11572, 237.82227, 245.57422, 250.28076, 252.74609, 259.25, 263.8291, " y="1783, ">
				time) when the scheme was
		</text>
		<text fill="gray" font-size="9" font-family="Segoe UI" x="158, 160.17969, 164.75879, 168.57764, 171.62744, 174.09277, 181.84473, 187.11816, 192.41797, 194.59766, 197.41455, 199.59424, 204.30078, 209.60059, 211.55176, 214.01709, 218.73242, 223.82568, 228.53223, 230.99756, 233.17725, 238.27051, 240.4502, 243.5, 245.67969, 250.25879, 252.43848, 254.90381, 259.21484, 263.79395, 265.97363, 271.06689, " y="1795, ">
				last modified. The initial value
		</text>
		<text fill="gray" font-size="9" font-family="Segoe UI" x="158, 160.17969, 163.99854, 166.46387, 169.51367, 174.60693, 179.31348, 181.77881, 187.07861, 191.65771, 194.70752, 199.41406, 201.87939, 204.59521, 209.17432, 214.26758, 219.56738, 221.51855, 223.98389, 229.25732, 234.54834, 237.59814, 239.77783, 245.05127, 250.14453, 254.72363, 256.90332, 259.08301, 263.43799, " y="1807, ">
				is the date (and, optionally,
		</text>
		<text fill="gray" font-size="9" font-family="Segoe UI" x="158, 161.0498, 166.14307, 170.84961, 173.31494, 176.36475, 178.54443, 186.29639, 191.00293, 193.71875, 196.18408, 201.45752, 204.27441, 206.73975, 210.89697, 214.02588, 218.73242, 223.31152, 226.36133, 228.54102, 233.81445, 238.90771, 241.37305, 246.64648, 249.46338, 251.92871, 254.97852, 260.07178, " y="1819, ">
				the time) of creation of the
		</text>
		<text fill="gray" font-size="9" font-family="Segoe UI" x="158, 161.81885, 165.97607, 171.06934, 175.77588, 183.52783, 188.23438, 190.69971, 193.41553, 195.59521, 200.89502, 205.60156, 210.69482, 213.74463, 215.92432, 218.74121, 220.9209, 225.62744, 230.92725, 233.39258, 238.68359, 243.03857, 245.50391, 248.55371, 253.64697, " y="1831, ">
				scheme (identified by the
		</text>
		<text fill="gray" font-size="9" font-family="Segoe UI" x="158, 161.81885, 165.97607, 171.06934, 175.77588, 183.52783, 188.23438, 196.31592, 201.02246, 204.07227, 208.65137, 211.1167, 219.7124, 224.80566, 227.93457, 230.11426, 232.83008, " y="1843, ">
				schemeMeta @uri).
		</text>
		<rect fill="white" x="162" y="1736" width="95" height="16"/>
		<text font-size="12" font-weight="600" font-family="Segoe UI" x="162, 167.2793, 173.03906, 180.26367, 186.75586, 197.74805, 204.24023, 215.23242, 222.56836, 229.99805, 233.4082, 238.00781, 241.41797, 247.91016, " y="1749, ">
				schememodified
		</text>
		<rect fill="none" stroke="black" stroke-width="1" stroke-linecap="square" stroke-miterlimit="4" transform="translate(0.5 0.5)" x="153" y="1734" width="110" height="20"/>
		<rect fill="silver" x="157" y="1856" width="98" height="21"/>
		<rect fill="white" x="153" y="1852" width="98" height="21"/>
		<rect fill="white" x="158" y="1879" width="120" height="96"/>
		<text fill="gray" font-size="9" font-family="Segoe UI" x="158, 162.71533, 167.80859, 172.51514, 174.98047, 180.28027, 184.85938, 187.90918, 192.61572, 195.08105, 197.79688, 202.37598, 207.46924, 212.76904, 214.72021, 217.18555, 222.45898, 227.75, 230.7998, 232.97949, 238.25293, 243.34619, 247.92529, 250.10498, 252.28467, 256.63965, 258.59082, 261.05615, 264.10596, 269.19922, " y="1889, ">
				The date (and, optionally, the
		</text>
		<text fill="gray" font-size="9" font-family="Segoe UI" x="158, 161.0498, 163.22949, 170.98145, 175.68799, 178.40381, 180.86914, 185.44824, 188.26514, 191.31494, 196.02148, 199.15039, 201.61572, 208.11963, 213.21289, 215.39258, 219.5498, 224.64307, 227.1084, 230.1582, 235.25146, 239.95801, 242.42334, 246.24219, 250.39941, 255.49268, 260.19922, 267.95117, " y="1901, ">
				time) after which the scheme
		</text>
		<text fill="gray" font-size="9" font-family="Segoe UI" x="158, 161.81885, 166.91211, 172.18555, 177.27881, 179.4585, 184.7583, 187.22363, 192.31689, 197.59033, 200.64014, 203.10547, 208.39648, 213.10303, 215.56836, 220.66162, 224.48047, 229.18701, 234.48682, 236.95215, 241.53125, 246.62451, 250.97949, 258.73145, 264.00488, 267.13379, 271.84033, " y="1913, ">
				should not be used anymore.
		</text>
		<text fill="gray" font-size="9" font-family="Segoe UI" x="158, 160.39502, 163.21191, 165.67725, 170.25635, 172.72168, 176.54053, 180.69775, 185.79102, 190.49756, 198.24951, 202.95605, 205.42139, 207.60107, 211.41992, 213.88525, 221.63721, 226.21631, 229.34521, 233.81885, 238.52539, 243.8252, 246.29053, 250.86963, " y="1925, ">
				If a scheme is marked as
		</text>
		<text fill="gray" font-size="9" font-family="Segoe UI" x="158, 161.12891, 165.83545, 168.88525, 171.06494, 174.19385, 178.90039, 184.2002, 186.15137, 188.6167, 191.6665, 196.75977, 201.46631, 206.55957, 209.0249, 213.604, 215.78369, 217.96338, 220.42871, 224.58594, 229.85938, 234.95264, 239.10986, 243.81641, 249.10742, 252.15723, 255.97607, 258.44141, 260.62109, " y="1937, ">
				retired, then all concepts in
		</text>
		<text fill="gray" font-size="9" font-family="Segoe UI" x="158, 161.0498, 166.14307, 170.72217, 173.77197, 176.2373, 180.05615, 184.21338, 189.30664, 194.01318, 201.76514, 206.47168, 208.93701, 211.65283, 213.83252, 219.13232, 223.83887, 228.93213, 231.98193, 234.16162, 236.97852, 239.1582, 243.86475, 249.16455, 251.62988, 256.9209, 261.27588, 263.74121, 266.79102, 271.88428, " y="1949, ">
				that scheme (identified by the
		</text>
		<text fill="gray" font-size="9" font-family="Segoe UI" x="158, 161.81885, 165.97607, 171.06934, 175.77588, 183.52783, 188.23438, 196.31592, 201.02246, 204.07227, 208.65137, 211.1167, 219.7124, 224.80566, 227.93457, 230.11426, 232.83008, 235.29541, 243.04736, 248.14062, 251.95947, 255.00928, 257.47461, 262.05371, 264.2334, 268.05225, " y="1961, ">
				schemeMeta @uri) must also
		</text>
		<text fill="gray" font-size="9" font-family="Segoe UI" x="158, 163.29102, 167.99756, 170.46289, 173.5918, 178.29834, 181.34814, 183.52783, 186.65674, 191.36328, 196.66309, " y="1973, ">
				be retired.
		</text>
		<rect fill="white" x="162" y="1854" width="82" height="16"/>
		<text font-size="12" font-weight="600" font-family="Segoe UI" x="162, 167.2793, 173.03906, 180.26367, 186.75586, 197.74805, 204.24023, 208.96875, 215.46094, 220.13086, 223.54102, 228.26953, 234.76172, " y="1867, ">
				schemeretired
		</text>
		<rect fill="none" stroke="black" stroke-width="1" stroke-linecap="square" stroke-miterlimit="4" transform="translate(0.5 0.5)" x="153" y="1852" width="97" height="20"/>
		<path fill="silver" d="M157 1991L162 1986L230 1986L235 1991L235 2002L230 2007L162 2007L157 2002L157 1991Z"/>
		<path fill="white" d="M153 1987L158 1982L226 1982L231 1987L231 1998L226 2003L158 2003L153 1998L153 1987Z"/>
		<rect fill="white" x="180" y="1984" width="46" height="16"/>
		<text font-size="12" font-weight="600" font-family="Segoe UI" x="180, 187.10742, 194.21484, 201.55078, 206.2207, 213.44531, 219.9375, " y="1997, ">
				##other
		</text>
		<rect fill="white" x="158" y="1984" width="20" height="16"/>
		<text fill="gray" font-size="12" font-family="Segoe UI" x="158, 164.10547, 170.89648, " y="1997, ">
				any
		</text>
		<path fill="none" stroke="black" stroke-width="1" stroke-linecap="square" stroke-miterlimit="4" transform="translate(0.5 0.5)" d="M153 1987L158 1982L225 1982L230 1987L230 1997L225 2002L158 2002L153 1997L153 1987Z"/>
		<rect x="144" y="5" width="11" height="11"/>
		<rect fill="white" x="145" y="6" width="9" height="9"/>
		<rect x="146" y="10" width="7" height="1"/>
		<path transform="translate(0.5 0.5)" d="M184 2401.5L186 2401.5L186.5 2401.5L186.5 2402.5L186 2402.5L183.5 2402.5L183.5 2401.5L184 2401.5ZM190 2401.5L192.5 2401.5L192.5 2402.5L189.5 2402.5L189.5 2401.5L190 2401.5Z"/>
		<path transform="translate(0.5 0.5)" d="M192.5 2402L192.5 2400L192.5 2399.5L193.5 2399.5L193.5 2400L193.5 2402.5L192.5 2402.5L192.5 2402ZM192.5 2396L192.5 2394L192.5 2393.5L193.5 2393.5L193.5 2394L193.5 2396.5L192.5 2396.5L192.5 2396ZM192.5 2390L192.5 2388L192.5 2387.5L193.5 2387.5L193.5 2388L193.5 2390.5L192.5 2390.5L192.5 2390ZM192.5 2384L192.5 2382L192.5 2381.5L193.5 2381.5L193.5 2382L193.5 2384.5L192.5 2384.5L192.5 2384ZM192.5 2378L192.5 2376L192.5 2375.5L193.5 2375.5L193.5 2376L193.5 2378.5L192.5 2378.5L192.5 2378ZM192.5 2372L192.5 2370L192.5 2369.5L193.5 2369.5L193.5 2370L193.5 2372.5L192.5 2372.5L192.5 2372ZM192.5 2366L192.5 2364L192.5 2363.5L193.5 2363.5L193.5 2364L193.5 2366.5L192.5 2366.5L192.5 2366ZM192.5 2360L192.5 2358L192.5 2357.5L193.5 2357.5L193.5 2358L193.5 2360.5L192.5 2360.5L192.5 2360ZM192.5 2354L192.5 2352L192.5 2351.5L193.5 2351.5L193.5 2352L193.5 2354.5L192.5 2354.5L192.5 2354ZM192.5 2348L192.5 2346L192.5 2345.5L193.5 2345.5L193.5 2346L193.5 2348.5L192.5 2348.5L192.5 2348ZM192.5 2342L192.5 2340L192.5 2339.5L193.5 2339.5L193.5 2340L193.5 2342.5L192.5 2342.5L192.5 2342ZM192.5 2336L192.5 2334L192.5 2333.5L193.5 2333.5L193.5 2334L193.5 2336.5L192.5 2336.5L192.5 2336ZM192.5 2330L192.5 2328L192.5 2327.5L193.5 2327.5L193.5 2328L193.5 2330.5L192.5 2330.5L192.5 2330ZM192.5 2324L192.5 2322L192.5 2321.5L193.5 2321.5L193.5 2322L193.5 2324.5L192.5 2324.5L192.5 2324ZM192.5 2318L192.5 2316L192.5 2315.5L193.5 2315.5L193.5 2316L193.5 2318.5L192.5 2318.5L192.5 2318ZM192.5 2312L192.5 2310L192.5 2309.5L193.5 2309.5L193.5 2310L193.5 2312.5L192.5 2312.5L192.5 2312ZM192.5 2306L192.5 2304L192.5 2303.5L193.5 2303.5L193.5 2304L193.5 2306.5L192.5 2306.5L192.5 2306ZM192.5 2300L192.5 2298L192.5 2297.5L193.5 2297.5L193.5 2298L193.5 2300.5L192.5 2300.5L192.5 2300ZM192.5 2294L192.5 2292L192.5 2291.5L193.5 2291.5L193.5 2292L193.5 2294.5L192.5 2294.5L192.5 2294ZM192.5 2288L192.5 2286L192.5 2285.5L193.5 2285.5L193.5 2286L193.5 2288.5L192.5 2288.5L192.5 2288ZM192.5 2282L192.5 2280L192.5 2279.5L193.5 2279.5L193.5 2280L193.5 2282.5L192.5 2282.5L192.5 2282ZM192.5 2276L192.5 2274L192.5 2273.5L193.5 2273.5L193.5 2274L193.5 2276.5L192.5 2276.5L192.5 2276ZM192.5 2270L192.5 2268L192.5 2267.5L193.5 2267.5L193.5 2268L193.5 2270.5L192.5 2270.5L192.5 2270ZM192.5 2264L192.5 2262L192.5 2261.5L193.5 2261.5L193.5 2262L193.5 2264.5L192.5 2264.5L192.5 2264ZM192.5 2258L192.5 2256L192.5 2255.5L193.5 2255.5L193.5 2256L193.5 2258.5L192.5 2258.5L192.5 2258ZM192.5 2252L192.5 2249.5L193.5 2249.5L193.5 2252.5L192.5 2252.5L192.5 2252Z"/>
		<path transform="translate(0.5 0.5)" d="M193.5 2402L193.5 2404L193.5 2404.5L192.5 2404.5L192.5 2404L192.5 2401.5L193.5 2401.5L193.5 2402ZM193.5 2408L193.5 2410L193.5 2410.5L192.5 2410.5L192.5 2410L192.5 2407.5L193.5 2407.5L193.5 2408ZM193.5 2414L193.5 2416L193.5 2416.5L192.5 2416.5L192.5 2416L192.5 2413.5L193.5 2413.5L193.5 2414ZM193.5 2420L193.5 2422L193.5 2422.5L192.5 2422.5L192.5 2422L192.5 2419.5L193.5 2419.5L193.5 2420ZM193.5 2426L193.5 2428L193.5 2428.5L192.5 2428.5L192.5 2428L192.5 2425.5L193.5 2425.5L193.5 2426ZM193.5 2432L193.5 2434L193.5 2434.5L192.5 2434.5L192.5 2434L192.5 2431.5L193.5 2431.5L193.5 2432ZM193.5 2438L193.5 2440L193.5 2440.5L192.5 2440.5L192.5 2440L192.5 2437.5L193.5 2437.5L193.5 2438ZM193.5 2444L193.5 2446L193.5 2446.5L192.5 2446.5L192.5 2446L192.5 2443.5L193.5 2443.5L193.5 2444ZM193.5 2450L193.5 2452L193.5 2452.5L192.5 2452.5L192.5 2452L192.5 2449.5L193.5 2449.5L193.5 2450ZM193.5 2456L193.5 2458L193.5 2458.5L192.5 2458.5L192.5 2458L192.5 2455.5L193.5 2455.5L193.5 2456ZM193.5 2462L193.5 2464L193.5 2464.5L192.5 2464.5L192.5 2464L192.5 2461.5L193.5 2461.5L193.5 2462ZM193.5 2468L193.5 2470L193.5 2470.5L192.5 2470.5L192.5 2470L192.5 2467.5L193.5 2467.5L193.5 2468ZM193.5 2474L193.5 2476L193.5 2476.5L192.5 2476.5L192.5 2476L192.5 2473.5L193.5 2473.5L193.5 2474ZM193.5 2480L193.5 2482L193.5 2482.5L192.5 2482.5L192.5 2482L192.5 2479.5L193.5 2479.5L193.5 2480ZM193.5 2486L193.5 2488L193.5 2488.5L192.5 2488.5L192.5 2488L192.5 2485.5L193.5 2485.5L193.5 2486ZM193.5 2492L193.5 2494L193.5 2494.5L192.5 2494.5L192.5 2494L192.5 2491.5L193.5 2491.5L193.5 2492ZM193.5 2498L193.5 2500L193.5 2500.5L192.5 2500.5L192.5 2500L192.5 2497.5L193.5 2497.5L193.5 2498ZM193.5 2504L193.5 2506L193.5 2506.5L192.5 2506.5L192.5 2506L192.5 2503.5L193.5 2503.5L193.5 2504ZM193.5 2510L193.5 2512L193.5 2512.5L192.5 2512.5L192.5 2512L192.5 2509.5L193.5 2509.5L193.5 2510ZM193.5 2516L193.5 2518L193.5 2518.5L192.5 2518.5L192.5 2518L192.5 2515.5L193.5 2515.5L193.5 2516ZM193.5 2522L193.5 2524L193.5 2524.5L192.5 2524.5L192.5 2524L192.5 2521.5L193.5 2521.5L193.5 2522ZM193.5 2528L193.5 2530L193.5 2530.5L192.5 2530.5L192.5 2530L192.5 2527.5L193.5 2527.5L193.5 2528ZM193.5 2534L193.5 2536L193.5 2536.5L192.5 2536.5L192.5 2536L192.5 2533.5L193.5 2533.5L193.5 2534ZM193.5 2540L193.5 2542L193.5 2542.5L192.5 2542.5L192.5 2542L192.5 2539.5L193.5 2539.5L193.5 2540ZM193.5 2546L193.5 2548L193.5 2548.5L192.5 2548.5L192.5 2548L192.5 2545.5L193.5 2545.5L193.5 2546ZM193.5 2552L193.5 2554.5L192.5 2554.5L192.5 2551.5L193.5 2551.5L193.5 2552Z"/>
		<path transform="translate(0.5 0.5)" d="M193 2246.5L195 2246.5L195.5 2246.5L195.5 2247.5L195 2247.5L192.5 2247.5L192.5 2246.5L193 2246.5ZM199 2246.5L201 2246.5L201.5 2246.5L201.5 2247.5L201 2247.5L198.5 2247.5L198.5 2246.5L199 2246.5ZM205 2246.5L207.5 2246.5L207.5 2247.5L204.5 2247.5L204.5 2246.5L205 2246.5Z"/>
		<path transform="translate(0.5 0.5)" d="M193 2557.5L195 2557.5L195.5 2557.5L195.5 2558.5L195 2558.5L192.5 2558.5L192.5 2557.5L193 2557.5ZM199 2557.5L201 2557.5L201.5 2557.5L201.5 2558.5L201 2558.5L198.5 2558.5L198.5 2557.5L199 2557.5ZM205 2557.5L207.5 2557.5L207.5 2558.5L204.5 2558.5L204.5 2557.5L205 2557.5Z"/>
		<path fill="silver" d="M143 2401L148 2396L173 2396L178 2401L178 2412L173 2417L148 2417L143 2412L143 2401Z"/>
		<path fill="white" d="M139 2397L144 2392L169 2392L174 2397L174 2408L169 2413L144 2413L139 2408L139 2397Z"/>
		<path fill="none" stroke="black" stroke-width="1" stroke-linecap="square" stroke-miterlimit="4" transform="translate(0.5 0.5)" d="M144 2402L168 2402"/>
		<rect x="150" y="2401" width="3" height="3"/>
		<rect x="155" y="2401" width="3" height="3"/>
		<rect x="160" y="2401" width="3" height="3"/>
		<path fill="none" stroke="black" stroke-width="1" stroke-linecap="square" stroke-miterlimit="4" transform="translate(0.5 0.5)" d="M139 2397L144 2392L168 2392L173 2397L173 2407L168 2412L144 2412L139 2407L139 2397Z"/>
		<path fill="none" stroke="black" stroke-width="1" stroke-linecap="square" stroke-miterlimit="4" transform="translate(0.5 0.5)" d="M253 2247L261 2247"/>
		<path fill="none" stroke="black" stroke-width="1" stroke-linecap="square" stroke-miterlimit="4" transform="translate(0.5 0.5)" d="M262 2247L262 2037"/>
		<path fill="none" stroke="black" stroke-width="1" stroke-linecap="square" stroke-miterlimit="4" transform="translate(0.5 0.5)" d="M262 2247L262 2458"/>
		<path fill="none" stroke="black" stroke-width="1" stroke-linecap="square" stroke-miterlimit="4" transform="translate(0.5 0.5)" d="M262 2036L276 2036"/>
		<path fill="none" stroke="black" stroke-width="1" stroke-linecap="square" stroke-miterlimit="4" transform="translate(0.5 0.5)" d="M262 2135L276 2135"/>
		<path fill="none" stroke="black" stroke-width="1" stroke-linecap="square" stroke-miterlimit="4" transform="translate(0.5 0.5)" d="M262 2198L276 2198"/>
		<path fill="none" stroke="black" stroke-width="1" stroke-linecap="square" stroke-miterlimit="4" transform="translate(0.5 0.5)" d="M262 2297L276 2297"/>
		<path fill="none" stroke="black" stroke-width="1" stroke-linecap="square" stroke-miterlimit="4" transform="translate(0.5 0.5)" d="M262 2372L276 2372"/>
		<path fill="none" stroke="black" stroke-width="1" stroke-linecap="square" stroke-miterlimit="4" transform="translate(0.5 0.5)" d="M262 2459L276 2459"/>
		<path fill="silver" d="M215 2249L220 2244L245 2244L250 2249L250 2260L245 2265L220 2265L215 2260L215 2249Z"/>
		<path fill="white" d="M211 2245L216 2240L240 2240L245 2245L245 2255L240 2260L216 2260L211 2255L211 2245Z"/>
		<path transform="translate(0.5 0.5)" d="M214.889 2240.4L215.793 2239.5L216.929 2239.5L217.429 2239.5L217.429 2240.5L216.929 2240.5L216 2240.5L216 2240L216.354 2240.35L215.243 2241.46L214.536 2240.76L214.889 2240.4ZM220.929 2239.5L222.929 2239.5L223.429 2239.5L223.429 2240.5L222.929 2240.5L220.429 2240.5L220.429 2239.5L220.929 2239.5ZM226.929 2239.5L228.929 2239.5L229.429 2239.5L229.429 2240.5L228.929 2240.5L226.429 2240.5L226.429 2239.5L226.929 2239.5ZM232.929 2239.5L234.929 2239.5L235.429 2239.5L235.429 2240.5L234.929 2240.5L232.429 2240.5L232.429 2239.5L232.929 2239.5ZM238.929 2239.5L240.207 2239.5L241.01 2240.3L241.364 2240.66L240.657 2241.36L240.303 2241.01L239.646 2240.35L240 2240L240 2240.5L238.429 2240.5L238.429 2239.5L238.929 2239.5ZM243.839 2243.13L245.253 2244.55L245.607 2244.9L244.9 2245.61L244.546 2245.25L242.778 2243.49L243.485 2242.78L243.839 2243.13ZM245.5 2248.86L245.5 2250.86L245.5 2251.36L244.5 2251.36L244.5 2250.86L244.5 2248.36L245.5 2248.36L245.5 2248.86ZM245.5 2254.86L245.5 2255.21L244.04 2256.67L243.686 2257.02L242.979 2256.31L243.333 2255.96L244.646 2254.65L245 2255L244.5 2255L244.5 2254.36L245.5 2254.36L245.5 2254.86ZM241.211 2259.5L240.207 2260.5L239.213 2260.5L238.713 2260.5L238.713 2259.5L239.213 2259.5L240 2259.5L240 2260L239.646 2259.65L240.858 2258.44L241.565 2259.14L241.211 2259.5ZM235.213 2260.5L233.213 2260.5L232.713 2260.5L232.713 2259.5L233.213 2259.5L235.713 2259.5L235.713 2260.5L235.213 2260.5ZM229.213 2260.5L227.213 2260.5L226.713 2260.5L226.713 2259.5L227.213 2259.5L229.713 2259.5L229.713 2260.5L229.213 2260.5ZM223.213 2260.5L221.213 2260.5L220.713 2260.5L220.713 2259.5L221.213 2259.5L223.713 2259.5L223.713 2260.5L223.213 2260.5ZM217.213 2260.5L215.793 2260.5L215.09 2259.8L214.737 2259.44L215.444 2258.74L215.797 2259.09L216.354 2259.65L216 2260L216 2259.5L217.713 2259.5L217.713 2260.5L217.213 2260.5ZM212.262 2256.97L210.847 2255.55L210.494 2255.2L211.201 2254.49L211.555 2254.85L213.322 2256.62L212.615 2257.32L212.262 2256.97ZM210.5 2251.28L210.5 2249.28L210.5 2248.78L211.5 2248.78L211.5 2249.28L211.5 2251.78L210.5 2251.78L210.5 2251.28ZM210.5 2245.28L210.5 2244.79L212.414 2242.88L213.121 2243.59L211.354 2245.35L211 2245L211.5 2245L211.5 2245.78L210.5 2245.78L210.5 2245.28Z"/>
		<path fill="white" d="M208 2242L213 2237L238 2237L243 2242L243 2253L238 2258L213 2258L208 2253L208 2242Z"/>
		<path fill="none" stroke="black" stroke-width="1" stroke-linecap="square" stroke-miterlimit="4" transform="translate(0.5 0.5)" d="M227 2258L233 2264L236 2261"/>
		<path fill="none" stroke="black" stroke-width="1" stroke-linecap="square" stroke-miterlimit="4" transform="translate(0.5 0.5)" d="M213 2247L218 2247L222 2243"/>
		<path fill="none" stroke="black" stroke-width="1" stroke-linecap="square" stroke-miterlimit="4" transform="translate(0.5 0.5)" d="M228 2247L236 2247"/>
		<path fill="none" stroke="black" stroke-width="1" stroke-linecap="square" stroke-miterlimit="4" transform="translate(0.5 0.5)" d="M228 2243L232 2243L232 2251L228 2251"/>
		<rect x="224" y="2242" width="3" height="3"/>
		<rect x="224" y="2246" width="3" height="3"/>
		<rect x="224" y="2250" width="3" height="3"/>
		<text font-size="12" font-family="Segoe UI" x="212.76562, " y="2277, ">
				0
		</text>
		<text font-size="12" font-family="Symbol" x="227.72266, " y="2276, ">
				
		</text>
		<text font-size="12" font-family="Segoe UI" x="220.89844, 223.5, " y="2277, ">
				..
		</text>
		<path transform="translate(0.5 0.5)" d="M211.889 2237.4L212.793 2236.5L213.929 2236.5L214.429 2236.5L214.429 2237.5L213.929 2237.5L213 2237.5L213 2237L213.354 2237.35L212.243 2238.46L211.536 2237.76L211.889 2237.4ZM217.929 2236.5L219.929 2236.5L220.429 2236.5L220.429 2237.5L219.929 2237.5L217.429 2237.5L217.429 2236.5L217.929 2236.5ZM223.929 2236.5L225.929 2236.5L226.429 2236.5L226.429 2237.5L225.929 2237.5L223.429 2237.5L223.429 2236.5L223.929 2236.5ZM229.929 2236.5L231.929 2236.5L232.429 2236.5L232.429 2237.5L231.929 2237.5L229.429 2237.5L229.429 2236.5L229.929 2236.5ZM235.929 2236.5L237.207 2236.5L238.01 2237.3L238.364 2237.66L237.657 2238.36L237.303 2238.01L236.646 2237.35L237 2237L237 2237.5L235.429 2237.5L235.429 2236.5L235.929 2236.5ZM240.839 2240.13L242.253 2241.55L242.607 2241.9L241.9 2242.61L241.546 2242.25L239.778 2240.49L240.485 2239.78L240.839 2240.13ZM242.5 2245.86L242.5 2247.86L242.5 2248.36L241.5 2248.36L241.5 2247.86L241.5 2245.36L242.5 2245.36L242.5 2245.86ZM242.5 2251.86L242.5 2252.21L241.04 2253.67L240.686 2254.02L239.979 2253.31L240.333 2252.96L241.646 2251.65L242 2252L241.5 2252L241.5 2251.36L242.5 2251.36L242.5 2251.86ZM238.211 2256.5L237.207 2257.5L236.213 2257.5L235.713 2257.5L235.713 2256.5L236.213 2256.5L237 2256.5L237 2257L236.646 2256.65L237.858 2255.44L238.565 2256.14L238.211 2256.5ZM232.213 2257.5L230.213 2257.5L229.713 2257.5L229.713 2256.5L230.213 2256.5L232.713 2256.5L232.713 2257.5L232.213 2257.5ZM226.213 2257.5L224.213 2257.5L223.713 2257.5L223.713 2256.5L224.213 2256.5L226.713 2256.5L226.713 2257.5L226.213 2257.5ZM220.213 2257.5L218.213 2257.5L217.713 2257.5L217.713 2256.5L218.213 2256.5L220.713 2256.5L220.713 2257.5L220.213 2257.5ZM214.213 2257.5L212.793 2257.5L212.09 2256.8L211.737 2256.44L212.444 2255.74L212.797 2256.09L213.354 2256.65L213 2257L213 2256.5L214.713 2256.5L214.713 2257.5L214.213 2257.5ZM209.262 2253.97L207.847 2252.55L207.494 2252.2L208.201 2251.49L208.555 2251.85L210.322 2253.62L209.615 2254.32L209.262 2253.97ZM207.5 2248.28L207.5 2246.28L207.5 2245.78L208.5 2245.78L208.5 2246.28L208.5 2248.78L207.5 2248.78L207.5 2248.28ZM207.5 2242.28L207.5 2241.79L209.414 2239.88L210.121 2240.59L208.354 2242.35L208 2242L208.5 2242L208.5 2242.78L207.5 2242.78L207.5 2242.28Z"/>
		<rect fill="silver" x="281" y="2030" width="109" height="21"/>
		<rect fill="white" x="277" y="2026" width="109" height="21"/>
		<rect fill="white" x="282" y="2053" width="121" height="60"/>
		<text fill="gray" font-size="9" font-family="Segoe UI" x="282, 287.80518, 290.27051, 296.45361, 301.83691, 304.23193, 306.69727, 313.20117, 318.29443, 320.47412, 324.63135, 329.72461, 332.18994, 334.36963, 339.66943, 344.37598, 349.46924, 352.51904, 354.69873, 357.51562, 359.69531, 364.40186, 368.2207, 370.68604, 375.26514, 380.3584, 385.63184, 388.68164, 393.7749, 398.48145, " y="2063, ">
				A URI which identifies another
		</text>
		<text fill="gray" font-size="9" font-family="Segoe UI" x="282, 285.81885, 289.97607, 295.06934, 299.77588, 307.52783, 312.23438, 314.69971, 321.20361, 323.3833, 326.43311, 331.52637, 333.9917, 338.14893, 343.42236, 348.51562, 352.67285, 357.37939, 362.67041, 365.72021, 369.53906, 372.00439, 375.0542, 380.14746, 384.72656, " y="2075, ">
				scheme with concepts that
		</text>
		<text fill="gray" font-size="9" font-family="Segoe UI" x="282, 287.09326, 290.91211, 295.61865, 298.08398, 301.13379, 306.22705, 310.93359, 313.39893, 317.21777, 321.79688, 329.54883, 334.25537, 336.7207, 340.87793, 346.15137, 351.45117, 356.15771, 359.97656, 362.44189, 367.021, 372.11426, 377.41406, 379.87939, 384.4585, 387.5874, " y="2087, ">
				use the same codes and are
		</text>
		<text fill="gray" font-size="9" font-family="Segoe UI" x="282, 285.81885, 290.52539, 298.27734, 302.85645, 307.94971, 310.99951, 313.1792, 317.33643, 321.91553, 324.09521, 326.2749, 330.62988, 333.09521, 337.80176, 343.10156, 348.19482, 350.37451, 354.68555, 359.26465, 361.44434, 366.15088, 371.24414, 374.29395, 376.75928, 379.80908, 385.08252, 387.54785, 390.59766, 395.69092, " y="2099, ">
				semantically equivalent to the
		</text>
		<text fill="gray" font-size="9" font-family="Segoe UI" x="282, 286.15723, 291.43066, 296.52393, 300.68115, 305.3877, 310.67871, 313.72852, 317.54736, 320.0127, 325.28613, 328.10303, 330.56836, 333.61816, 338.71143, 340.89111, 344.70996, 347.17529, 350.99414, 355.15137, 360.24463, 364.95117, 372.70312, " y="2111, ">
				concepts of this scheme
		</text>
		<rect fill="white" x="286" y="2028" width="88" height="16"/>
		<text font-size="12" font-weight="600" font-family="Segoe UI" x="286, 291.2793, 297.73633, 308.72852, 315.2207, 323.6582, 328.9375, 335.66406, 341.42383, 348.64844, 355.14062, 366.13281, " y="2041, ">
				sameAsScheme
		</text>
		<path fill="none" stroke="black" stroke-width="1" stroke-linecap="square" stroke-miterlimit="4" transform="translate(0.5 0.5)" d="M279 2028L284 2028"/>
		<path fill="none" stroke="black" stroke-width="1" stroke-linecap="square" stroke-miterlimit="4" transform="translate(0.5 0.5)" d="M279 2030L283 2030"/>
		<path fill="none" stroke="black" stroke-width="1" stroke-linecap="square" stroke-miterlimit="4" transform="translate(0.5 0.5)" d="M279 2032L283 2032"/>
		<path fill="none" stroke="black" stroke-width="2" stroke-miterlimit="4" transform="translate(0.5 0.5)" d="M279 2044L283 2040"/>
		<path fill="none" stroke="black" stroke-width="1" stroke-linecap="square" stroke-miterlimit="4" transform="translate(0.5 0.5)" d="M280 2040L283 2040L283 2043"/>
		<rect fill="none" stroke="black" stroke-width="1" stroke-linecap="square" stroke-miterlimit="4" transform="translate(0.5 0.5)" x="277" y="2026" width="108" height="20"/>
		<rect x="380" y="2031" width="11" height="11"/>
		<rect fill="white" x="381" y="2032" width="9" height="9"/>
		<rect x="382" y="2036" width="7" height="1"/>
		<rect x="385" y="2033" width="1" height="7"/>
		<rect fill="silver" x="281" y="2129" width="54" height="21"/>
		<rect fill="white" x="277" y="2125" width="54" height="21"/>
		<rect fill="white" x="282" y="2152" width="115" height="24"/>
		<text fill="gray" font-size="9" font-family="Segoe UI" x="282, 287.80518, 290.27051, 295.36377, 299.94287, 302.99268, 308.08594, 311.21484, 315.79395, 317.97363, 320.43896, 322.61865, 327.19775, 332.29102, 337.59082, 342.68408, 347.26318, 352.56299, 357.26953, 359.73486, 364.82812, 369.40723, 377.15918, 381.86572, 384.33105, 387.14795, 392.42139, " y="2162, ">
				A natural language name for
		</text>
		<text fill="gray" font-size="9" font-family="Segoe UI" x="282, 285.0498, 290.14307, 294.84961, 297.31494, 301.47217, 306.74561, 311.83887, 315.99609, 320.70264, 325.99365, 329.04346, " y="2174, ">
				the concept.
		</text>
		<rect fill="white" x="286" y="2127" width="33" height="16"/>
		<text font-size="12" font-weight="600" font-family="Segoe UI" x="286, 293.25977, 299.7168, 310.70898, " y="2140, ">
				name
		</text>
		<path fill="none" stroke="black" stroke-width="1" stroke-linecap="square" stroke-miterlimit="4" transform="translate(0.5 0.5)" d="M279 2127L284 2127"/>
		<path fill="none" stroke="black" stroke-width="1" stroke-linecap="square" stroke-miterlimit="4" transform="translate(0.5 0.5)" d="M279 2129L283 2129"/>
		<path fill="none" stroke="black" stroke-width="1" stroke-linecap="square" stroke-miterlimit="4" transform="translate(0.5 0.5)" d="M279 2131L283 2131"/>
		<path fill="none" stroke="black" stroke-width="2" stroke-miterlimit="4" transform="translate(0.5 0.5)" d="M279 2143L283 2139"/>
		<path fill="none" stroke="black" stroke-width="1" stroke-linecap="square" stroke-miterlimit="4" transform="translate(0.5 0.5)" d="M280 2139L283 2139L283 2142"/>
		<rect fill="none" stroke="black" stroke-width="1" stroke-linecap="square" stroke-miterlimit="4" transform="translate(0.5 0.5)" x="277" y="2125" width="53" height="20"/>
		<rect x="325" y="2130" width="11" height="11"/>
		<rect fill="white" x="326" y="2131" width="9" height="9"/>
		<rect x="327" y="2135" width="7" height="1"/>
		<rect x="330" y="2132" width="1" height="7"/>
		<rect fill="silver" x="281" y="2192" width="78" height="21"/>
		<rect fill="white" x="277" y="2188" width="78" height="21"/>
		<rect fill="white" x="282" y="2215" width="117" height="60"/>
		<text fill="gray" font-size="9" font-family="Segoe UI" x="282, 287.80518, 290.27051, 295.36377, 299.94287, 302.99268, 308.08594, 311.21484, 315.79395, 317.97363, 320.43896, 322.61865, 327.19775, 332.29102, 337.59082, 342.68408, 347.26318, 352.56299, 357.26953, 359.73486, 365.03467, 369.74121, 372.55811, 374.73779, 379.83105, 382.01074, 385.06055, 387.24023, 392.51367, " y="2225, ">
				A natural language definition
		</text>
		<text fill="gray" font-size="9" font-family="Segoe UI" x="282, 287.27344, 290.09033, 292.55566, 295.60547, 300.69873, 305.40527, 307.87061, 311.68945, 316.396, 324.14795, 328.72705, 333.82031, 336.87012, 339.0498, 343.20703, 347.02588, 349.49121, 354.76465, 357.58154, 360.04688, 363.09668, 368.18994, " y="2237, ">
				of the semantics of the
		</text>
		<text fill="gray" font-size="9" font-family="Segoe UI" x="282, 286.15723, 291.43066, 296.52393, 300.68115, 305.3877, 310.67871, 313.72852, 315.67969, 318.14502, 322.86035, 327.95361, 330.1333, 333.95215, 336.41748, 341.71729, 346.42383, 349.24072, 351.42041, 356.51367, 358.69336, 361.74316, 363.92285, 369.19629, 374.28955, 376.75488, 378.93457, " y="2249, ">
				concept. This definition is
		</text>
		<text fill="gray" font-size="9" font-family="Segoe UI" x="282, 287.09326, 292.3667, 295.49561, 303.24756, 307.82666, 310.87646, 313.05615, 317.36719, 322.07373, 324.53906, 329.8125, 334.90576, 337.08545, 341.44043, 343.90576, 346.72266, 351.99609, 355.125, 357.59033, 360.64014, 365.7334, 370.43994, 372.90527, 376.72412, 380.88135, 386.15479, 391.4458, " y="2261, ">
				normative only for the scope
		</text>
		<text fill="gray" font-size="9" font-family="Segoe UI" x="282, 287.27344, 290.09033, 292.55566, 295.60547, 300.69873, 305.40527, 307.87061, 312.96387, 316.78271, 321.48926, 323.95459, 329.22803, 332.04492, 334.51025, 337.56006, 342.65332, 344.83301, 348.65186, 351.11719, 355.27441, 360.54785, 365.64111, 369.79834, 374.50488, 379.7959, 382.8457, " y="2273, ">
				of the use of this concept.
		</text>
		<rect fill="white" x="286" y="2190" width="57" height="16"/>
		<text font-size="12" font-weight="600" font-family="Segoe UI" x="286, 293.42969, 299.92188, 304.52148, 307.93164, 315.19141, 318.60156, 323.27148, 326.68164, 334.01758, " y="2203, ">
				definition
		</text>
		<path fill="none" stroke="black" stroke-width="1" stroke-linecap="square" stroke-miterlimit="4" transform="translate(0.5 0.5)" d="M279 2190L284 2190"/>
		<path fill="none" stroke="black" stroke-width="1" stroke-linecap="square" stroke-miterlimit="4" transform="translate(0.5 0.5)" d="M279 2192L283 2192"/>
		<path fill="none" stroke="black" stroke-width="1" stroke-linecap="square" stroke-miterlimit="4" transform="translate(0.5 0.5)" d="M279 2194L283 2194"/>
		<path fill="none" stroke="black" stroke-width="2" stroke-miterlimit="4" transform="translate(0.5 0.5)" d="M279 2206L283 2202"/>
		<path fill="none" stroke="black" stroke-width="1" stroke-linecap="square" stroke-miterlimit="4" transform="translate(0.5 0.5)" d="M280 2202L283 2202L283 2205"/>
		<rect fill="none" stroke="black" stroke-width="1" stroke-linecap="square" stroke-miterlimit="4" transform="translate(0.5 0.5)" x="277" y="2188" width="77" height="20"/>
		<rect x="349" y="2193" width="11" height="11"/>
		<rect fill="white" x="350" y="2194" width="9" height="9"/>
		<rect x="351" y="2198" width="7" height="1"/>
		<rect x="354" y="2195" width="1" height="7"/>
		<rect fill="silver" x="281" y="2291" width="52" height="21"/>
		<rect fill="white" x="277" y="2287" width="52" height="21"/>
		<rect fill="white" x="282" y="2314" width="112" height="36"/>
		<text fill="gray" font-size="9" font-family="Segoe UI" x="282, 287.80518, 293.10498, 298.40479, 300.58447, 303.63428, 305.81396, 311.0874, 316.18066, 320.75977, 322.93945, 325.40479, 330.49805, 335.07715, 338.12695, 343.22021, 346.34912, 350.92822, 353.10791, 355.57324, 357.75293, 362.33203, 367.42529, 372.7251, 377.81836, 382.39746, 387.69727, " y="2324, ">
				Additional natural language
		</text>
		<text fill="gray" font-size="9" font-family="Segoe UI" x="282, 284.17969, 289.27295, 292.08984, 297.36328, 300.49219, 308.24414, 312.82324, 315.87305, 318.05273, 323.32617, 328.41943, 330.88477, 335.46387, 340.75488, 346.02832, 351.12158, 354.17139, 356.63672, 359.68652, 364.77979, " y="2336, ">
				information about the
		</text>
		<text fill="gray" font-size="9" font-family="Segoe UI" x="282, 286.15723, 291.43066, 296.52393, 300.68115, 305.3877, 310.67871, 313.72852, " y="2348, ">
				concept.
		</text>
		<rect fill="white" x="286" y="2289" width="31" height="16"/>
		<text font-size="12" font-weight="600" font-family="Segoe UI" x="286, 293.25977, 300.5957, 305.21875, " y="2302, ">
				note
		</text>
		<path fill="none" stroke="black" stroke-width="1" stroke-linecap="square" stroke-miterlimit="4" transform="translate(0.5 0.5)" d="M279 2289L284 2289"/>
		<path fill="none" stroke="black" stroke-width="1" stroke-linecap="square" stroke-miterlimit="4" transform="translate(0.5 0.5)" d="M279 2291L283 2291"/>
		<path fill="none" stroke="black" stroke-width="1" stroke-linecap="square" stroke-miterlimit="4" transform="translate(0.5 0.5)" d="M279 2293L283 2293"/>
		<path fill="none" stroke="black" stroke-width="2" stroke-miterlimit="4" transform="translate(0.5 0.5)" d="M279 2305L283 2301"/>
		<path fill="none" stroke="black" stroke-width="1" stroke-linecap="square" stroke-miterlimit="4" transform="translate(0.5 0.5)" d="M280 2301L283 2301L283 2304"/>
		<rect fill="none" stroke="black" stroke-width="1" stroke-linecap="square" stroke-miterlimit="4" transform="translate(0.5 0.5)" x="277" y="2287" width="51" height="20"/>
		<rect x="323" y="2292" width="11" height="11"/>
		<rect fill="white" x="324" y="2293" width="9" height="9"/>
		<rect x="325" y="2297" width="7" height="1"/>
		<rect x="328" y="2294" width="1" height="7"/>
		<rect fill="silver" x="281" y="2366" width="62" height="21"/>
		<rect fill="white" x="277" y="2362" width="62" height="21"/>
		<rect fill="white" x="282" y="2389" width="115" height="48"/>
		<text fill="gray" font-size="9" font-family="Segoe UI" x="282, 287.80518, 290.27051, 293.39941, 298.10596, 300.28564, 304.86475, 307.91455, 312.62109, 317.9209, 320.38623, 324.54346, 329.81689, 334.91016, 339.06738, 343.77393, 349.06494, 352.11475, 354.06592, 356.53125, 363.03516, 368.12842, 372.83496, 375.96387, 380.67041, 383.13574, 386.18555, 391.27881, " y="2399, ">
				A related concept, where the
		</text>
		<text fill="gray" font-size="9" font-family="Segoe UI" x="282, 285.12891, 289.83545, 292.01514, 296.59424, 299.64404, 301.82373, 307.09717, 312.19043, 316.00928, 321.10254, 323.28223, 328.57324, 331.03857, 333.21826, 337.03711, 339.50244, 344.80225, 346.98193, 349.79883, 352.61572, 357.32227, 360.45117, 365.15771, 370.25098, 373.30078, 375.76611, 378.58301, 381.71191, 386.98535, " y="2411, ">
				relationship is different from
		</text>
		<text fill="gray" font-size="9" font-family="Segoe UI" x="282, 284.06982, 287.88867, 292.46777, 300.21973, 304.92627, 310.73145, 314.55029, 316.62012, 318.57129, 321.03662, 323.10645, 328.39746, 331.52637, 336.7998, 341.37891, 346.67871, 351.38525, 354.51416, 356.58398, 359.04932, 364.32275, " y="2423, ">
				&apos;sameAs&apos;, &apos;broader&apos; or
		</text>
		<text fill="gray" font-size="9" font-family="Segoe UI" x="282, 284.06982, 289.16309, 293.74219, 296.87109, 300, 305.27344, 311.77734, 316.48389, 319.61279, 321.68262, " y="2435, ">
				&apos;narrower&apos;.
		</text>
		<rect fill="white" x="286" y="2364" width="41" height="16"/>
		<text font-size="12" font-weight="600" font-family="Segoe UI" x="286, 290.72852, 297.2207, 300.63086, 307.08789, 311.71094, 318.20312, " y="2377, ">
				related
		</text>
		<path fill="none" stroke="black" stroke-width="2" stroke-miterlimit="4" transform="translate(0.5 0.5)" d="M279 2380L283 2376"/>
		<path fill="none" stroke="black" stroke-width="1" stroke-linecap="square" stroke-miterlimit="4" transform="translate(0.5 0.5)" d="M280 2376L283 2376L283 2379"/>
		<rect fill="none" stroke="black" stroke-width="1" stroke-linecap="square" stroke-miterlimit="4" transform="translate(0.5 0.5)" x="277" y="2362" width="61" height="20"/>
		<rect x="333" y="2367" width="11" height="11"/>
		<rect fill="white" x="334" y="2368" width="9" height="9"/>
		<rect x="335" y="2372" width="7" height="1"/>
		<rect x="338" y="2369" width="1" height="7"/>
		<rect fill="silver" x="281" y="2453" width="161" height="21"/>
		<rect fill="white" x="277" y="2449" width="161" height="21"/>
		<rect fill="white" x="282" y="2476" width="150" height="60"/>
		<text fill="gray" font-size="9" font-family="Segoe UI" x="282, 286.55273, 290.68359, 293.7334, 298.43994, 303.5332, 307.35205, 309.53174, 314.80518, 319.89844, 322.36377, 327.4043, 330.5332, 335.80664, 341.09766, 345.8042, 348.93311, 351.98291, 356.33789, 358.28906, 360.75439, 363.8042, 368.89746, 373.604, 376.06934, 379.88818, 384.59473, 392.34668, 396.92578, 402.01904, 405.06885, 407.24854, 411.40576, 415.22461, 417.68994, 422.26904, 425.39795, " y="2486, ">
				Extension Property; the semantics are
		</text>
		<text fill="gray" font-size="9" font-family="Segoe UI" x="282, 287.2998, 292.00635, 294.82324, 297.00293, 302.09619, 306.80273, 312.10254, 314.56787, 319.85889, 324.21387, 326.6792, 329.729, 334.82227, 339.52881, 341.99414, 346.15137, 351.4248, 356.51807, 360.67529, 365.38184, 370.67285, 373.72266, 376.18799, 379.31689, 384.02344, 386.84033, 391.54688, 394.67578, 399.38232, 404.47559, 408.63281, 413.33936, 418.63916, 421.10449, 426.39551, " y="2498, ">
				defined by the concept referenced by
		</text>
		<text fill="gray" font-size="9" font-family="Segoe UI" x="282, 285.0498, 290.14307, 294.84961, 297.31494, 300.44385, 305.15039, 307.33008, 309.79541, 314.37451, 317.42432, 320.47412, 323.60303, 325.78271, 331.07373, 336.16699, 339.2168, 343.92334, 345.87451, 348.33984, 353.05518, 358.14844, 362.85498, 365.32031, 369.13916, 373.8457, 381.59766, 386.17676, 391.27002, 394.31982, 396.49951, 400.65674, 404.47559, 406.94092, 412.21436, 415.03125, 417.49658, 420.54639, 425.63965, " y="2510, ">
				the rel attribute. The semantics of the
		</text>
		<text fill="gray" font-size="9" font-family="Segoe UI" x="282, 286.55273, 290.68359, 293.7334, 298.43994, 303.5332, 307.35205, 309.53174, 314.80518, 319.89844, 322.36377, 327.4043, 330.5332, 335.80664, 341.09766, 345.8042, 348.93311, 351.98291, 356.33789, 358.80322, 366.55518, 371.64844, 375.46729, 378.51709, 380.98242, 386.07568, 390.65479, 394.96582, 399.67236, 402.1377, 405.1875, 410.28076, " y="2522, ">
				Extension Property must have the
		</text>
		<text fill="gray" font-size="9" font-family="Segoe UI" x="282, 285.81885, 290.39795, 298.1499, 302.85645, 305.32178, 309.14062, 313.29785, 318.57129, 323.8623, 328.56885, 331.03418, 335.61328, 339.43213, 341.89746, 344.94727, 350.04053, 354.74707, 357.2124, 362.50342, 367.08252, 370.21143, 374.91797, 380.01123, 383.06104, 385.52637, 390.81738, 393.94629, 399.21973, 404.51074, 409.21729, 412.34619, 415.396, 419.75098, " y="2534, ">
				same scope as the parent property.
		</text>
		<rect fill="white" x="286" y="2451" width="140" height="16"/>
		<text font-size="12" font-weight="600" font-family="Segoe UI" x="286, 291.2793, 297.03906, 304.26367, 310.75586, 321.74805, 328.24023, 339.72461, 346.2168, 350.88672, 357.34375, 363.73047, 370.35742, 375.02734, 382.39844, 387.12695, 394.46289, 401.9043, 408.39648, 413.51758, 418.1875, " y="2464, ">
				schemeMetaExtProperty
		</text>
		<rect fill="none" stroke="black" stroke-width="1" stroke-linecap="square" stroke-miterlimit="4" transform="translate(0.5 0.5)" x="277" y="2449" width="160" height="20"/>
		<rect x="432" y="2454" width="11" height="11"/>
		<rect fill="white" x="433" y="2455" width="9" height="9"/>
		<rect x="434" y="2459" width="7" height="1"/>
		<rect x="437" y="2456" width="1" height="7"/>
		<rect x="242" y="2242" width="11" height="11"/>
		<rect fill="white" x="243" y="2243" width="9" height="9"/>
		<rect x="244" y="2247" width="7" height="1"/>
		<path fill="silver" d="M215 2560L220 2555L288 2555L293 2560L293 2571L288 2576L220 2576L215 2571L215 2560Z"/>
		<path fill="white" d="M211 2556L216 2551L283 2551L288 2556L288 2566L283 2571L216 2571L211 2566L211 2556Z"/>
		<path transform="translate(0.5 0.5)" d="M214.889 2551.4L215.793 2550.5L216.929 2550.5L217.429 2550.5L217.429 2551.5L216.929 2551.5L216 2551.5L216 2551L216.354 2551.35L215.243 2552.46L214.536 2551.76L214.889 2551.4ZM220.929 2550.5L222.929 2550.5L223.429 2550.5L223.429 2551.5L222.929 2551.5L220.429 2551.5L220.429 2550.5L220.929 2550.5ZM226.929 2550.5L228.929 2550.5L229.429 2550.5L229.429 2551.5L228.929 2551.5L226.429 2551.5L226.429 2550.5L226.929 2550.5ZM232.929 2550.5L234.929 2550.5L235.429 2550.5L235.429 2551.5L234.929 2551.5L232.429 2551.5L232.429 2550.5L232.929 2550.5ZM238.929 2550.5L240.929 2550.5L241.429 2550.5L241.429 2551.5L240.929 2551.5L238.429 2551.5L238.429 2550.5L238.929 2550.5ZM244.929 2550.5L246.929 2550.5L247.429 2550.5L247.429 2551.5L246.929 2551.5L244.429 2551.5L244.429 2550.5L244.929 2550.5ZM250.929 2550.5L252.929 2550.5L253.429 2550.5L253.429 2551.5L252.929 2551.5L250.429 2551.5L250.429 2550.5L250.929 2550.5ZM256.929 2550.5L258.929 2550.5L259.429 2550.5L259.429 2551.5L258.929 2551.5L256.429 2551.5L256.429 2550.5L256.929 2550.5ZM262.929 2550.5L264.929 2550.5L265.429 2550.5L265.429 2551.5L264.929 2551.5L262.429 2551.5L262.429 2550.5L262.929 2550.5ZM268.929 2550.5L270.929 2550.5L271.429 2550.5L271.429 2551.5L270.929 2551.5L268.429 2551.5L268.429 2550.5L268.929 2550.5ZM274.929 2550.5L276.929 2550.5L277.429 2550.5L277.429 2551.5L276.929 2551.5L274.429 2551.5L274.429 2550.5L274.929 2550.5ZM280.929 2550.5L282.929 2550.5L283.429 2550.5L283.429 2551.5L282.929 2551.5L280.429 2551.5L280.429 2550.5L280.929 2550.5ZM286.132 2553.42L287.546 2554.84L287.9 2555.19L287.192 2555.9L286.839 2555.55L285.071 2553.78L285.778 2553.07L286.132 2553.42ZM288.5 2558.86L288.5 2560.86L288.5 2561.36L287.5 2561.36L287.5 2560.86L287.5 2558.36L288.5 2558.36L288.5 2558.86ZM288.5 2564.86L288.5 2566.21L287.747 2566.96L287.393 2567.31L286.686 2566.61L287.04 2566.25L287.646 2565.65L288 2566L287.5 2566L287.5 2564.36L288.5 2564.36L288.5 2564.86ZM284.919 2569.79L283.504 2571.2L283.151 2571.56L282.444 2570.85L282.797 2570.5L284.565 2568.73L285.272 2569.44L284.919 2569.79ZM279.213 2571.5L277.213 2571.5L276.713 2571.5L276.713 2570.5L277.213 2570.5L279.713 2570.5L279.713 2571.5L279.213 2571.5ZM273.213 2571.5L271.213 2571.5L270.713 2571.5L270.713 2570.5L271.213 2570.5L273.713 2570.5L273.713 2571.5L273.213 2571.5ZM267.213 2571.5L265.213 2571.5L264.713 2571.5L264.713 2570.5L265.213 2570.5L267.713 2570.5L267.713 2571.5L267.213 2571.5ZM261.213 2571.5L259.213 2571.5L258.713 2571.5L258.713 2570.5L259.213 2570.5L261.713 2570.5L261.713 2571.5L261.213 2571.5ZM255.213 2571.5L253.213 2571.5L252.713 2571.5L252.713 2570.5L253.213 2570.5L255.713 2570.5L255.713 2571.5L255.213 2571.5ZM249.213 2571.5L247.213 2571.5L246.713 2571.5L246.713 2570.5L247.213 2570.5L249.713 2570.5L249.713 2571.5L249.213 2571.5ZM243.213 2571.5L241.213 2571.5L240.713 2571.5L240.713 2570.5L241.213 2570.5L243.713 2570.5L243.713 2571.5L243.213 2571.5ZM237.213 2571.5L235.213 2571.5L234.713 2571.5L234.713 2570.5L235.213 2570.5L237.713 2570.5L237.713 2571.5L237.213 2571.5ZM231.213 2571.5L229.213 2571.5L228.713 2571.5L228.713 2570.5L229.213 2570.5L231.713 2570.5L231.713 2571.5L231.213 2571.5ZM225.213 2571.5L223.213 2571.5L222.713 2571.5L222.713 2570.5L223.213 2570.5L225.713 2570.5L225.713 2571.5L225.213 2571.5ZM219.213 2571.5L217.213 2571.5L216.713 2571.5L216.713 2570.5L217.213 2570.5L219.713 2570.5L219.713 2571.5L219.213 2571.5ZM213.676 2569.38L212.262 2567.97L211.908 2567.62L212.615 2566.91L212.969 2567.26L214.737 2569.03L214.029 2569.74L213.676 2569.38ZM210.5 2564.28L210.5 2562.28L210.5 2561.78L211.5 2561.78L211.5 2562.28L211.5 2564.78L210.5 2564.78L210.5 2564.28ZM210.5 2558.28L210.5 2556.28L210.5 2555.78L211.5 2555.78L211.5 2556.28L211.5 2558.78L210.5 2558.78L210.5 2558.28ZM210.646 2555.65L212.414 2553.88L213.121 2554.59L211 2556.71L210.293 2556L210.646 2555.65Z"/>
		<path fill="white" d="M208 2553L213 2548L281 2548L286 2553L286 2564L281 2569L213 2569L208 2564L208 2553Z"/>
		<path fill="none" stroke="black" stroke-width="1" stroke-linecap="square" stroke-miterlimit="4" transform="translate(0.5 0.5)" d="M270 2569L276 2575L279 2572"/>
		<rect fill="white" x="213" y="2594" width="120" height="36"/>
		<text fill="gray" font-size="9" font-family="Segoe UI" x="213, 217.55273, 221.68359, 224.7334, 229.43994, 234.5332, 238.35205, 240.53174, 245.80518, 250.89844, 253.36377, 258.65479, 263.92822, 266.10791, 271.20117, 274.25098, 276.71631, 279.5332, 284.80664, 287.93555, 290.40088, 295.69189, 298.8208, 304.09424, 308.40527, 310.58496, 315.88477, 320.59131, 323.72021, " y="2604, ">
				Extension point for provider-
		</text>
		<text fill="gray" font-size="9" font-family="Segoe UI" x="213, 218.2998, 223.00635, 225.82324, 228.00293, 233.09619, 237.80273, 243.10254, 245.56787, 250.85889, 253.98779, 259.26123, 264.55225, 269.25879, 272.3877, 275.4375, 277.61719, 282.32373, 286.14258, 288.60791, 291.4248, 294.55371, 299.82715, 307.5791, 310.04443, 315.31787, 318.36768, 323.46094, 328.16748, " y="2616, ">
				defined properties from other
		</text>
		<text fill="gray" font-size="9" font-family="Segoe UI" x="213, 218.09326, 222.67236, 230.42432, 235.13086, 238.94971, 244.24072, 248.81982, 252.97705, 257.68359, " y="2628, ">
				namespaces
		</text>
		<rect fill="white" x="235" y="2550" width="46" height="16"/>
		<text font-size="12" font-weight="600" font-family="Segoe UI" x="235, 242.10742, 249.21484, 256.55078, 261.2207, 268.44531, 274.9375, " y="2563, ">
				##other
		</text>
		<rect fill="white" x="213" y="2550" width="20" height="16"/>
		<text fill="gray" font-size="12" font-family="Segoe UI" x="213, 219.10547, 225.89648, " y="2563, ">
				any
		</text>
		<text font-size="12" font-family="Segoe UI" x="255.76562, " y="2588, ">
				0
		</text>
		<text font-size="12" font-family="Symbol" x="270.72266, " y="2587, ">
				
		</text>
		<text font-size="12" font-family="Segoe UI" x="263.89844, 266.5, " y="2588, ">
				..
		</text>
		<path transform="translate(0.5 0.5)" d="M211.889 2548.4L212.793 2547.5L213.929 2547.5L214.429 2547.5L214.429 2548.5L213.929 2548.5L213 2548.5L213 2548L213.354 2548.35L212.243 2549.46L211.536 2548.76L211.889 2548.4ZM217.929 2547.5L219.929 2547.5L220.429 2547.5L220.429 2548.5L219.929 2548.5L217.429 2548.5L217.429 2547.5L217.929 2547.5ZM223.929 2547.5L225.929 2547.5L226.429 2547.5L226.429 2548.5L225.929 2548.5L223.429 2548.5L223.429 2547.5L223.929 2547.5ZM229.929 2547.5L231.929 2547.5L232.429 2547.5L232.429 2548.5L231.929 2548.5L229.429 2548.5L229.429 2547.5L229.929 2547.5ZM235.929 2547.5L237.929 2547.5L238.429 2547.5L238.429 2548.5L237.929 2548.5L235.429 2548.5L235.429 2547.5L235.929 2547.5ZM241.929 2547.5L243.929 2547.5L244.429 2547.5L244.429 2548.5L243.929 2548.5L241.429 2548.5L241.429 2547.5L241.929 2547.5ZM247.929 2547.5L249.929 2547.5L250.429 2547.5L250.429 2548.5L249.929 2548.5L247.429 2548.5L247.429 2547.5L247.929 2547.5ZM253.929 2547.5L255.929 2547.5L256.429 2547.5L256.429 2548.5L255.929 2548.5L253.429 2548.5L253.429 2547.5L253.929 2547.5ZM259.929 2547.5L261.929 2547.5L262.429 2547.5L262.429 2548.5L261.929 2548.5L259.429 2548.5L259.429 2547.5L259.929 2547.5ZM265.929 2547.5L267.929 2547.5L268.429 2547.5L268.429 2548.5L267.929 2548.5L265.429 2548.5L265.429 2547.5L265.929 2547.5ZM271.929 2547.5L273.929 2547.5L274.429 2547.5L274.429 2548.5L273.929 2548.5L271.429 2548.5L271.429 2547.5L271.929 2547.5ZM277.929 2547.5L279.929 2547.5L280.429 2547.5L280.429 2548.5L279.929 2548.5L277.429 2548.5L277.429 2547.5L277.929 2547.5ZM283.132 2550.42L284.546 2551.84L284.9 2552.19L284.192 2552.9L283.839 2552.55L282.071 2550.78L282.778 2550.07L283.132 2550.42ZM285.5 2555.86L285.5 2557.86L285.5 2558.36L284.5 2558.36L284.5 2557.86L284.5 2555.36L285.5 2555.36L285.5 2555.86ZM285.5 2561.86L285.5 2563.21L284.747 2563.96L284.393 2564.31L283.686 2563.61L284.04 2563.25L284.646 2562.65L285 2563L284.5 2563L284.5 2561.36L285.5 2561.36L285.5 2561.86ZM281.919 2566.79L280.504 2568.2L280.151 2568.56L279.444 2567.85L279.797 2567.5L281.565 2565.73L282.272 2566.44L281.919 2566.79ZM276.213 2568.5L274.213 2568.5L273.713 2568.5L273.713 2567.5L274.213 2567.5L276.713 2567.5L276.713 2568.5L276.213 2568.5ZM270.213 2568.5L268.213 2568.5L267.713 2568.5L267.713 2567.5L268.213 2567.5L270.713 2567.5L270.713 2568.5L270.213 2568.5ZM264.213 2568.5L262.213 2568.5L261.713 2568.5L261.713 2567.5L262.213 2567.5L264.713 2567.5L264.713 2568.5L264.213 2568.5ZM258.213 2568.5L256.213 2568.5L255.713 2568.5L255.713 2567.5L256.213 2567.5L258.713 2567.5L258.713 2568.5L258.213 2568.5ZM252.213 2568.5L250.213 2568.5L249.713 2568.5L249.713 2567.5L250.213 2567.5L252.713 2567.5L252.713 2568.5L252.213 2568.5ZM246.213 2568.5L244.213 2568.5L243.713 2568.5L243.713 2567.5L244.213 2567.5L246.713 2567.5L246.713 2568.5L246.213 2568.5ZM240.213 2568.5L238.213 2568.5L237.713 2568.5L237.713 2567.5L238.213 2567.5L240.713 2567.5L240.713 2568.5L240.213 2568.5ZM234.213 2568.5L232.213 2568.5L231.713 2568.5L231.713 2567.5L232.213 2567.5L234.713 2567.5L234.713 2568.5L234.213 2568.5ZM228.213 2568.5L226.213 2568.5L225.713 2568.5L225.713 2567.5L226.213 2567.5L228.713 2567.5L228.713 2568.5L228.213 2568.5ZM222.213 2568.5L220.213 2568.5L219.713 2568.5L219.713 2567.5L220.213 2567.5L222.713 2567.5L222.713 2568.5L222.213 2568.5ZM216.213 2568.5L214.213 2568.5L213.713 2568.5L213.713 2567.5L214.213 2567.5L216.713 2567.5L216.713 2568.5L216.213 2568.5ZM210.676 2566.38L209.262 2564.97L208.908 2564.62L209.615 2563.91L209.969 2564.26L211.737 2566.03L211.029 2566.74L210.676 2566.38ZM207.5 2561.28L207.5 2559.28L207.5 2558.78L208.5 2558.78L208.5 2559.28L208.5 2561.78L207.5 2561.78L207.5 2561.28ZM207.5 2555.28L207.5 2553.28L207.5 2552.78L208.5 2552.78L208.5 2553.28L208.5 2555.78L207.5 2555.78L207.5 2555.28ZM207.646 2552.65L209.414 2550.88L210.121 2551.59L208 2553.71L207.293 2553L207.646 2552.65Z"/>
		<rect x="173" y="2397" width="11" height="11"/>
		<rect fill="white" x="174" y="2398" width="9" height="9"/>
		<rect x="175" y="2402" width="7" height="1"/>
		<rect x="88" y="1699" width="11" height="11"/>
		<rect fill="white" x="89" y="1700" width="9" height="9"/>
		<rect x="90" y="1704" width="7" height="1"/>
	</g>
</svg>
