<?xml version="1.0" encoding="utf-8" ?>
<svg xmlns="http://www.w3.org/2000/svg" xmlns:xlink="http://www.w3.org/1999/xlink" width="324" height="1816">
	<clipPath id="cl_48d">
		<rect x="-10" y="-5" width="324" height="1816"/>
	</clipPath>
	<g clip-path="url(#cl_48d)">
		<rect fill="#FFFFC0" x="135" width="162" height="1794"/>
		<rect fill="none" stroke="gray" stroke-width="1" stroke-linecap="square" stroke-miterlimit="4" transform="translate(0.5 0.5)" x="135" width="161" height="1793"/>
		<path fill="none" stroke="black" stroke-width="1" stroke-linecap="square" stroke-miterlimit="4" transform="translate(0.5 0.5)" d="M59 909L141 909"/>
		<rect fill="silver" x="4" y="903" width="54" height="21"/>
		<rect fill="white" y="899" width="54" height="21"/>
		<rect fill="#FFFFC0" x="143" y="8" width="108" height="16"/>
		<text fill="gray" font-size="12" font-weight="600" font-family="Segoe UI" x="143, 150.48828, 157.82422, 165.08398, 170.84375, 177.33594, 184.77734, 189.44727, 198.92773, 205.38477, 216.37695, 222.86914, 229.36133, 235.81836, 243.25977, " y="21, ">
				ConceptNameType
		</text>
		<rect fill="white" x="5" y="926" width="115" height="24"/>
		<text fill="gray" font-size="9" font-family="Segoe UI" x="5, 10.805176, 13.270508, 18.36377, 22.942871, 25.992676, 31.085938, 34.214844, 38.793945, 40.973633, 43.438965, 45.618652, 50.197754, 55.291016, 60.59082, 65.684082, 70.263184, 75.562988, 80.269531, 82.734863, 87.828125, 92.407227, 100.15918, 104.86572, 107.33105, 110.14795, 115.42139, " y="936, ">
				A natural language name for
		</text>
		<text fill="gray" font-size="9" font-family="Segoe UI" x="5, 8.0498047, 13.143066, 17.849609, 20.314941, 24.472168, 29.745605, 34.838867, 38.996094, 43.702637, 48.993652, 52.043457, " y="948, ">
				the concept.
		</text>
		<rect fill="white" x="9" y="901" width="33" height="16"/>
		<text font-size="12" font-weight="600" font-family="Segoe UI" x="9, 16.259766, 22.716797, 33.708984, " y="914, ">
				name
		</text>
		<path fill="none" stroke="black" stroke-width="1" stroke-linecap="square" stroke-miterlimit="4" transform="translate(0.5 0.5)" d="M2 901L7 901"/>
		<path fill="none" stroke="black" stroke-width="1" stroke-linecap="square" stroke-miterlimit="4" transform="translate(0.5 0.5)" d="M2 903L6 903"/>
		<path fill="none" stroke="black" stroke-width="1" stroke-linecap="square" stroke-miterlimit="4" transform="translate(0.5 0.5)" d="M2 905L6 905"/>
		<rect fill="none" stroke="black" stroke-width="1" stroke-linecap="square" stroke-miterlimit="4" transform="translate(0.5 0.5)" y="899" width="53" height="20"/>
		<path fill="white" d="M219 55L219 36L142 36L142 55L142 1781L289 1781L289 55L219 55Z"/>
		<rect fill="white" x="162" y="38" width="51" height="16"/>
		<text font-size="12" font-style="italic" font-family="Segoe UI" x="162, 168.50391, 172.38281, 176.26172, 180.5332, 183.63867, 190.14258, 196.83984, 200.73047, 206.57227, " y="51, ">
				attributes
		</text>
		<path fill="none" stroke="black" stroke-width="1" stroke-linecap="square" stroke-miterlimit="4" transform="translate(0.5 0.5)" d="M219 55L219 36L142 36L142 55L142 1781L289 1781L289 55L219 55Z"/>
		<rect fill="silver" x="160" y="68" width="52" height="21"/>
		<rect fill="white" x="156" y="64" width="52" height="21"/>
		<rect fill="white" x="161" y="91" width="101" height="24"/>
		<text fill="gray" font-size="9" font-family="Segoe UI" x="161, 165.71533, 170.80859, 175.51514, 177.98047, 180.16016, 185.43359, 189.59082, 194.16992, 196.34961, 198.81494, 200.99463, 206.29443, 211.00098, 216.09424, 219.14404, 221.32373, 224.14062, 226.32031, 231.02686, 234.15576, 236.62109, 241.89453, 244.71143, 247.17676, 250.22656, 255.31982, " y="101, ">
				The local identifier of the
		</text>
		<text fill="gray" font-size="9" font-family="Segoe UI" x="161, 166.29102, 169.41992, 174.69336, 179.98438, 184.69092, 187.81982, 190.86963, 195.22461, " y="113, ">
				property.
		</text>
		<rect fill="white" x="165" y="66" width="36" height="16"/>
		<text font-size="12" font-weight="600" font-family="Segoe UI" x="165, 168.41016, " y="79, ">
				id
		</text>
		<rect fill="none" stroke="black" stroke-width="1" stroke-linecap="square" stroke-miterlimit="4" transform="translate(0.5 0.5)" x="156" y="64" width="51" height="20"/>
		<rect fill="silver" x="160" y="126" width="58" height="21"/>
		<rect fill="white" x="156" y="122" width="58" height="21"/>
		<rect fill="white" x="161" y="149" width="121" height="120"/>
		<text fill="gray" font-size="9" font-family="Segoe UI" x="161, 163.39502, 166.21191, 168.67725, 171.72705, 176.82031, 181.52686, 183.99219, 189.2832, 192.41211, 197.68555, 202.97656, 207.68311, 210.81201, 213.86182, 218.2168, 220.68213, 224.99316, 229.57227, 231.75195, 236.84521, 241.55176, 244.01709, 246.19678, 250.01562, 252.48096, 257.57422, 262.84766, " y="159, ">
				If the property value is not
		</text>
		<text fill="gray" font-size="9" font-family="Segoe UI" x="161, 166.2998, 171.00635, 173.82324, 176.00293, 181.09619, 185.80273, 191.10254, 193.05371, 195.51904, 199.33789, 204.62891, 209.33545, 213.49268, 215.67236, 218.48926, 220.66895, 225.37549, 229.19434, 231.65967, 238.16357, 243.25684, 245.43652, 249.59375, 254.68701, 257.15234, 261.85889, 266.95215, 270.00195, 272.18164, 275.23145, " y="171, ">
				defined, specifies which entity
		</text>
		<text fill="gray" font-size="9" font-family="Segoe UI" x="161, 163.71582, 169.00684, 173.71338, 176.84229, 180.66113, 185.93457, 191.02783, 192.979, 195.44434, 200.71777, 203.84668, 209.14648, 213.72559, 218.81885, 220.99854, 224.81738, 229.39648, 232.44629, 234.62598, 239.89941, 244.99268, 247.45801, 252.73145, " y="183, ">
				(person, organisation or
		</text>
		<text fill="gray" font-size="9" font-family="Segoe UI" x="161, 164.81885, 169.17383, 172.99268, 176.04248, 180.74902, 188.50098, 191.2168, 193.68213, 200.18604, 202.36572, 204.54541, 206.7251, 209.19043, 213.89697, 219.19678, 221.37646, 224.42627, 226.8916, 229.94141, 235.03467, 239.74121, 242.20654, 247.49756, 250.62646, 255.8999, 261.19092, 265.89746, 269.02637, 272.07617, " y="195, ">
				system) will edit the property
		</text>
		<text fill="gray" font-size="9" font-family="Segoe UI" x="161, 165.31104, 169.89014, 172.06982, 177.16309, 181.86963, 184.33496, 187.93408, 190.39941, 195.10596, 199.23682, 204.52783, 207.65674, 212.36328, 216.18213, 220.00098, 224.70752, 230.00732, 232.47266, 237.76367, 242.11865, 244.58398, 249.16309, 251.62842, 258.41357, 263.98584, 269.25928, 274.55908, 279.26562, " y="207, ">
				value - expressed by a QCode.
		</text>
		<text fill="gray" font-size="9" font-family="Segoe UI" x="161, 163.39502, 166.21191, 168.67725, 171.72705, 176.82031, 181.52686, 183.99219, 189.2832, 192.41211, 197.68555, 202.97656, 207.68311, 210.81201, 213.86182, 218.2168, 220.68213, 224.99316, 229.57227, 231.75195, 236.84521, 241.55176, 244.01709, 246.19678, " y="219, ">
				If the property value is
		</text>
		<text fill="gray" font-size="9" font-family="Segoe UI" x="161, 166.2998, 171.00635, 173.82324, 176.00293, 181.09619, 185.80273, 191.10254, 193.05371, 195.51904, 199.33789, 204.62891, 209.33545, 213.49268, 215.67236, 218.48926, 220.66895, 225.37549, 229.19434, 231.65967, 238.16357, 243.25684, 245.43652, 249.59375, 254.68701, 257.15234, 261.85889, 266.95215, 270.00195, 272.18164, 275.23145, " y="231, ">
				defined, specifies which entity
		</text>
		<text fill="gray" font-size="9" font-family="Segoe UI" x="161, 163.71582, 169.00684, 173.71338, 176.84229, 180.66113, 185.93457, 191.02783, 192.979, 195.44434, 200.71777, 203.84668, 209.14648, 213.72559, 218.81885, 220.99854, 224.81738, 229.39648, 232.44629, 234.62598, 239.89941, 244.99268, 247.45801, 252.73145, " y="243, ">
				(person, organisation or
		</text>
		<text fill="gray" font-size="9" font-family="Segoe UI" x="161, 164.81885, 169.17383, 172.99268, 176.04248, 180.74902, 188.50098, 191.2168, 193.68213, 198.77539, 203.35449, 207.17334, 209.63867, 214.34521, 219.64502, 221.82471, 224.87451, 229.58105, 234.88086, 237.34619, 240.396, 245.48926, " y="255, ">
				system) has edited the
		</text>
		<text fill="gray" font-size="9" font-family="Segoe UI" x="161, 166.29102, 169.41992, 174.69336, 179.98438, 184.69092, 187.81982, 190.86963, 195.22461, 197.68994, 202.00098, 206.58008, 208.75977, 213.85303, 218.55957, " y="267, ">
				property value.
		</text>
		<rect fill="white" x="165" y="124" width="42" height="16"/>
		<text font-size="12" font-weight="600" font-family="Segoe UI" x="165, 170.75977, 175.48828, 181.98047, 188.4375, 193.06055, 200.39648, " y="137, ">
				creator
		</text>
		<rect fill="none" stroke="black" stroke-width="1" stroke-linecap="square" stroke-miterlimit="4" transform="translate(0.5 0.5)" x="156" y="122" width="57" height="20"/>
		<rect fill="silver" x="160" y="280" width="73" height="21"/>
		<rect fill="white" x="156" y="276" width="73" height="21"/>
		<rect fill="white" x="161" y="303" width="120" height="108"/>
		<text fill="gray" font-size="9" font-family="Segoe UI" x="161, 163.39502, 166.21191, 168.67725, 171.72705, 176.82031, 181.52686, 183.99219, 189.2832, 192.41211, 197.68555, 202.97656, 207.68311, 210.81201, 213.86182, 218.2168, 220.68213, 224.99316, 229.57227, 231.75195, 236.84521, 241.55176, 244.01709, 246.19678, 250.01562, 252.48096, 257.57422, 262.84766, " y="313, ">
				If the property value is not
		</text>
		<text fill="gray" font-size="9" font-family="Segoe UI" x="161, 166.2998, 171.00635, 173.82324, 176.00293, 181.09619, 185.80273, 191.10254, 193.05371, 195.51904, 199.33789, 204.62891, 209.33545, 213.49268, 215.67236, 218.48926, 220.66895, 225.37549, 229.19434, 231.65967, 238.16357, 243.25684, 245.43652, 249.59375, 254.68701, 257.15234, 261.85889, 266.95215, 270.00195, 272.18164, 275.23145, " y="325, ">
				defined, specifies which entity
		</text>
		<text fill="gray" font-size="9" font-family="Segoe UI" x="161, 163.71582, 169.00684, 173.71338, 176.84229, 180.66113, 185.93457, 191.02783, 192.979, 195.44434, 200.71777, 203.84668, 209.14648, 213.72559, 218.81885, 220.99854, 224.81738, 229.39648, 232.44629, 234.62598, 239.89941, 244.99268, 247.45801, 252.73145, " y="337, ">
				(person, organisation or
		</text>
		<text fill="gray" font-size="9" font-family="Segoe UI" x="161, 164.81885, 169.17383, 172.99268, 176.04248, 180.74902, 188.50098, 191.2168, 193.68213, 200.18604, 202.36572, 204.54541, 206.7251, 209.19043, 213.89697, 219.19678, 221.37646, 224.42627, 226.8916, 229.94141, 235.03467, 239.74121, 242.20654, 247.49756, 250.62646, 255.8999, 261.19092, 265.89746, 269.02637, 272.07617, " y="349, ">
				system) will edit the property
		</text>
		<text fill="gray" font-size="9" font-family="Segoe UI" x="161, 164.59912, 167.06445, 171.771, 175.90186, 181.19287, 184.32178, 189.02832, 192.84717, 196.66602, 201.37256, 206.67236, 209.1377, 214.42871, 218.78369, 221.24902, 225.82812, 228.29346, 234.47656, 239.85986, 242.25488, 244.20605, 246.67139, 249.06641, 251.8833, 254.34863, 257.39844, 262.4917, " y="361, ">
				- expressed by a URI. If the
		</text>
		<text fill="gray" font-size="9" font-family="Segoe UI" x="161, 166.29102, 169.41992, 174.69336, 179.98438, 184.69092, 187.81982, 190.86963, 195.22461, 197.68994, 202.00098, 206.58008, 208.75977, 213.85303, 218.55957, 221.0249, 223.20459, 227.02344, 229.48877, 234.78857, 239.49512, 242.31201, 244.4917, 249.58496, 254.2915, 259.59131, " y="373, ">
				property value is defined,
		</text>
		<text fill="gray" font-size="9" font-family="Segoe UI" x="161, 164.81885, 170.10986, 174.81641, 178.97363, 181.15332, 183.97021, 186.1499, 190.85645, 194.67529, 197.14062, 203.64453, 208.73779, 210.91748, 215.07471, 220.16797, 222.6333, 227.33984, 232.43311, 235.48291, 237.6626, 240.7124, 245.06738, 247.53271, 250.24854, 255.53955, 260.24609, 263.375, 267.19385, 272.46729, 277.56055, " y="385, ">
				specifies which entity (person,
		</text>
		<text fill="gray" font-size="9" font-family="Segoe UI" x="161, 166.27344, 169.40234, 174.70215, 179.28125, 184.37451, 186.5542, 190.37305, 194.95215, 198.00195, 200.18164, 205.45508, 210.54834, 213.01367, 218.28711, 221.41602, 223.88135, 227.7002, 232.05518, 235.87402, 238.92383, 243.63037, 251.38232, 254.09814, 256.56348, 261.65674, 266.23584, " y="397, ">
				organisation or system) has
		</text>
		<text fill="gray" font-size="9" font-family="Segoe UI" x="161, 165.70654, 171.00635, 173.18604, 176.23584, 180.94238, 186.24219, 188.70752, 191.75732, 196.85059, 201.55713, 204.02246, 209.31348, 212.44238, 217.71582, 223.00684, 227.71338, 230.84229, 233.89209, 238.24707, " y="409, ">
				edited the property.
		</text>
		<rect fill="white" x="165" y="278" width="57" height="16"/>
		<text font-size="12" font-weight="600" font-family="Segoe UI" x="165, 170.75977, 175.48828, 181.98047, 188.4375, 193.06055, 200.39648, 205.20703, 212.4668, 217.28906, " y="291, ">
				creatoruri
		</text>
		<rect fill="none" stroke="black" stroke-width="1" stroke-linecap="square" stroke-miterlimit="4" transform="translate(0.5 0.5)" x="156" y="276" width="72" height="20"/>
		<rect fill="silver" x="160" y="422" width="69" height="21"/>
		<rect fill="white" x="156" y="418" width="69" height="21"/>
		<rect fill="white" x="161" y="445" width="119" height="72"/>
		<text fill="gray" font-size="9" font-family="Segoe UI" x="161, 165.71533, 170.80859, 175.51514, 177.98047, 183.28027, 187.85938, 190.90918, 195.61572, 198.08105, 200.79688, 205.37598, 210.46924, 215.76904, 217.72021, 220.18555, 225.45898, 230.75, 233.7998, 235.97949, 241.25293, 246.34619, 250.92529, 253.10498, 255.28467, 259.63965, 261.59082, 264.05615, 267.10596, 272.19922, " y="455, ">
				The date (and, optionally, the
		</text>
		<text fill="gray" font-size="9" font-family="Segoe UI" x="161, 164.0498, 166.22949, 173.98145, 178.68799, 181.40381, 183.86914, 190.37305, 195.46631, 200.17285, 205.26611, 207.73145, 210.78125, 215.87451, 220.58105, 223.04639, 228.3374, 231.46631, 236.73975, 242.03076, 246.7373, 249.86621, 252.91602, 257.271, 259.73633, 266.24023, 270.81934, " y="467, ">
				time) when the property was
		</text>
		<text fill="gray" font-size="9" font-family="Segoe UI" x="161, 163.17969, 167.75879, 171.57764, 174.62744, 177.09277, 184.84473, 190.11816, 195.41797, 197.59766, 200.41455, 202.59424, 207.30078, 212.60059, 214.55176, 217.01709, 221.73242, 226.82568, 231.53223, 233.99756, 236.17725, 241.27051, 243.4502, 246.5, 248.67969, 253.25879, 255.43848, 257.90381, 262.21484, 266.79395, 268.97363, 274.06689, " y="479, ">
				last modified. The initial value
		</text>
		<text fill="gray" font-size="9" font-family="Segoe UI" x="161, 163.17969, 166.99854, 169.46387, 172.51367, 177.60693, 182.31348, 184.77881, 190.07861, 194.65771, 197.70752, 202.41406, 204.87939, 207.59521, 212.17432, 217.26758, 222.56738, 224.51855, 226.98389, 232.25732, 237.54834, 240.59814, 242.77783, 248.05127, 253.14453, 257.72363, 259.90332, 262.08301, 266.43799, " y="491, ">
				is the date (and, optionally,
		</text>
		<text fill="gray" font-size="9" font-family="Segoe UI" x="161, 164.0498, 169.14307, 173.84961, 176.31494, 179.36475, 181.54443, 189.29639, 194.00293, 196.71875, 199.18408, 204.45752, 207.27441, 209.73975, 213.89697, 217.02588, 221.73242, 226.31152, 229.36133, 231.54102, 236.81445, 241.90771, 244.37305, 249.64648, 252.46338, 254.92871, 257.97852, 263.07178, " y="503, ">
				the time) of creation of the
		</text>
		<text fill="gray" font-size="9" font-family="Segoe UI" x="161, 166.29102, 169.41992, 174.69336, 179.98438, 184.69092, 187.81982, 190.86963, 195.22461, " y="515, ">
				property.
		</text>
		<rect fill="white" x="165" y="420" width="53" height="16"/>
		<text font-size="12" font-weight="600" font-family="Segoe UI" x="165, 175.99219, 183.32812, 190.75781, 194.16797, 198.76758, 202.17773, 208.66992, " y="433, ">
				modified
		</text>
		<rect fill="none" stroke="black" stroke-width="1" stroke-linecap="square" stroke-miterlimit="4" transform="translate(0.5 0.5)" x="156" y="418" width="68" height="20"/>
		<rect fill="silver" x="160" y="528" width="59" height="21"/>
		<rect fill="white" x="156" y="524" width="59" height="21"/>
		<rect fill="white" x="161" y="551" width="118" height="108"/>
		<text fill="gray" font-size="9" font-family="Segoe UI" x="161, 163.39502, 166.21191, 168.67725, 172.49609, 177.20264, 180.25244, 182.71777, 185.76758, 191.04102, 193.50635, 196.55615, 199.68506, 204.77832, 209.48486, 211.9502, 215, 220.09326, " y="561, ">
				If set to true the
		</text>
		<text fill="gray" font-size="9" font-family="Segoe UI" x="161, 165.15723, 170.43066, 173.55957, 176.68848, 181.39502, 185.21387, 190.50488, 195.77832, 200.87158, 206.17139, 208.35107, 213.44434, 218.74414, 221.20947, 226.50049, 229.62939, 234.90283, 240.19385, 244.90039, 248.0293, 251.0791, 255.43408, 257.89941, 264.40332, 268.98242, " y="573, ">
				corresponding property was
		</text>
		<text fill="gray" font-size="9" font-family="Segoe UI" x="161, 165.5791, 170.87891, 176.17871, 180.88525, 186.18506, 188.65039, 191.7002, 196.97363, 199.43896, 202.48877, 207.58203, 212.28857, 214.75391, 220.92822, 225.77979, 228.24512, 230.64014, 233.68994, 238.39648, 246.14844, 248.61377, 251.43066, 256.7041, 259.83301, 262.29834, " y="585, ">
				added to the G2 Item for a
		</text>
		<text fill="gray" font-size="9" font-family="Segoe UI" x="161, 164.81885, 170.10986, 174.81641, 178.97363, 181.15332, 183.97021, 186.1499, 190.30713, 192.77246, 196.92969, 202.02295, 205.8418, 208.8916, 214.16504, 221.91699, 226.62354, 229.75244, 232.21777, 237.49121, 240.62012, 243.08545, 248.38525, 251.51416, 256.7876, 261.88086, 267.17188, 269.63721, 274.91064, " y="597, ">
				specific customer or group of
		</text>
		<text fill="gray" font-size="9" font-family="Segoe UI" x="161, 165.15723, 170.25049, 174.06934, 177.11914, 182.39258, 190.14453, 194.85107, 197.97998, 201.79883, 204.26416, 209.5376, 214.63086, 216.81055, 221.16553, 223.1167, 225.58203, 230.29736, 235.39062, 240.09717, 242.5625, 247.8623, 252.56885, 255.38574, 259.96484, 265.05811, 267.23779, " y="609, ">
				customers only. The default
		</text>
		<text fill="gray" font-size="9" font-family="Segoe UI" x="161, 165.31104, 169.89014, 172.06982, 177.16309, 181.86963, 184.33496, 189.6084, 192.42529, 194.89062, 197.94043, 203.03369, 205.21338, 209.03223, 211.49756, 216.78857, 219.91748, 225.19092, 230.48193, 235.18848, 238.31738, 241.36719, 245.72217, 248.1875, 250.36719, 254.18604, 256.65137, 259.46826, 264.04736, 266.22705, 270.0459, " y="621, ">
				value of this property is false
		</text>
		<text fill="gray" font-size="9" font-family="Segoe UI" x="161, 167.50391, 172.59717, 174.77686, 178.93408, 184.02734, 186.49268, 191.07178, 196.36279, 201.65381, 203.8335, 206.01318, 210.71973, 214.53857, 217.00391, 223.50781, 228.60107, 233.30762, 238.40088, 240.86621, 243.91602, 249.00928, 251.18896, " y="633, ">
				which applies when this
		</text>
		<text fill="gray" font-size="9" font-family="Segoe UI" x="161, 165.5791, 168.62891, 171.67871, 174.80762, 176.9873, 182.27832, 187.37158, 190.42139, 195.12793, 197.59326, 199.77295, 203.5918, 206.05713, 211.15039, 216.42383, 219.47363, 221.93896, 227.03223, 230.85107, 235.55762, 240.85742, 243.32275, 249.82666, 252.00635, 255.05615, 260.14941, 262.61475, 265.66455, 270.75781, " y="645, ">
				attribute is not used with the
		</text>
		<text fill="gray" font-size="9" font-family="Segoe UI" x="161, 166.29102, 169.41992, 174.69336, 179.98438, 184.69092, 187.81982, 190.86963, 195.22461, " y="657, ">
				property.
		</text>
		<rect fill="white" x="165" y="526" width="43" height="16"/>
		<text font-size="12" font-weight="600" font-family="Segoe UI" x="165, 170.75977, 178.01953, 183.29883, 187.92188, 195.25781, " y="539, ">
				custom
		</text>
		<rect fill="none" stroke="black" stroke-width="1" stroke-linecap="square" stroke-miterlimit="4" transform="translate(0.5 0.5)" x="156" y="524" width="58" height="20"/>
		<rect fill="silver" x="160" y="670" width="52" height="21"/>
		<rect fill="white" x="156" y="666" width="52" height="21"/>
		<rect fill="white" x="161" y="693" width="118" height="48"/>
		<text fill="gray" font-size="9" font-family="Segoe UI" x="161, 163.39502, 168.48828, 173.78809, 175.96777, 180.125, 184.7041, 187.75391, 192.46045, 196.2793, 198.74463, 204.03564, 208.39062, 210.85596, 217.35986, 222.45312, 224.63281, 228.79004, 233.8833, 236.34863, 244.10059, 248.80713, 253.38623, 258.47949, 262.29834, 264.76367, 267.81348, 272.90674, " y="703, ">
				Indicates by which means the
		</text>
		<text fill="gray" font-size="9" font-family="Segoe UI" x="161, 165.31104, 169.89014, 172.06982, 177.16309, 181.86963, 184.33496, 190.83887, 195.41797, 199.23682, 201.70215, 206.40869, 210.53955, 213.58936, 216.71826, 221.29736, 225.45459, 228.50439, 233.21094, 238.51074, 240.97607, 243.79297, 246.92188, 252.19531, 259.94727, 262.4126, 265.4624, 270.55566, " y="715, ">
				value was extracted from the
		</text>
		<text fill="gray" font-size="9" font-family="Segoe UI" x="161, 165.15723, 170.43066, 175.52393, 178.57373, 183.28027, 188.37354, 191.42334, 193.88867, 197.48779, 199.95312, 204.65967, 208.79053, 214.08154, 217.21045, 221.91699, 225.73584, 229.55469, 234.26123, 239.56104, 242.02637, 247.31738, 251.67236, 254.1377, " y="727, ">
				content - expressed by a
		</text>
		<text fill="gray" font-size="9" font-family="Segoe UI" x="161, 167.78516, 173.35742, 178.63086, 183.93066, " y="739, ">
				QCode
		</text>
		<rect fill="white" x="165" y="668" width="36" height="16"/>
		<text font-size="12" font-weight="600" font-family="Segoe UI" x="165, 172.22461, 179.56055, " y="681, ">
				how
		</text>
		<rect fill="none" stroke="black" stroke-width="1" stroke-linecap="square" stroke-miterlimit="4" transform="translate(0.5 0.5)" x="156" y="666" width="51" height="20"/>
		<rect fill="silver" x="160" y="752" width="57" height="21"/>
		<rect fill="white" x="156" y="748" width="57" height="21"/>
		<rect fill="white" x="161" y="775" width="118" height="36"/>
		<text fill="gray" font-size="9" font-family="Segoe UI" x="161, 163.39502, 168.48828, 173.78809, 175.96777, 180.125, 184.7041, 187.75391, 192.46045, 196.2793, 198.74463, 204.03564, 208.39062, 210.85596, 217.35986, 222.45312, 224.63281, 228.79004, 233.8833, 236.34863, 244.10059, 248.80713, 253.38623, 258.47949, 262.29834, 264.76367, 267.81348, 272.90674, " y="785, ">
				Indicates by which means the
		</text>
		<text fill="gray" font-size="9" font-family="Segoe UI" x="161, 165.31104, 169.89014, 172.06982, 177.16309, 181.86963, 184.33496, 190.83887, 195.41797, 199.23682, 201.70215, 206.40869, 210.53955, 213.58936, 216.71826, 221.29736, 225.45459, 228.50439, 233.21094, 238.51074, 240.97607, 243.79297, 246.92188, 252.19531, 259.94727, 262.4126, 265.4624, 270.55566, " y="797, ">
				value was extracted from the
		</text>
		<text fill="gray" font-size="9" font-family="Segoe UI" x="161, 165.15723, 170.43066, 175.52393, 178.57373, 183.28027, 188.37354, 191.42334, 193.88867, 197.48779, 199.95312, 204.65967, 208.79053, 214.08154, 217.21045, 221.91699, 225.73584, 229.55469, 234.26123, 239.56104, 242.02637, 247.31738, 251.67236, 254.1377, 258.7168, 261.18213, 267.36523, 272.74854, " y="809, ">
				content - expressed by a URI
		</text>
		<rect fill="white" x="165" y="750" width="41" height="16"/>
		<text font-size="12" font-weight="600" font-family="Segoe UI" x="165, 172.22461, 179.56055, 189.12891, 196.38867, 201.21094, " y="763, ">
				howuri
		</text>
		<rect fill="none" stroke="black" stroke-width="1" stroke-linecap="square" stroke-miterlimit="4" transform="translate(0.5 0.5)" x="156" y="748" width="56" height="20"/>
		<rect fill="silver" x="160" y="822" width="52" height="21"/>
		<rect fill="white" x="156" y="818" width="52" height="21"/>
		<rect fill="white" x="161" y="845" width="113" height="36"/>
		<text fill="gray" font-size="9" font-family="Segoe UI" x="161, 169.40674, 174.5, 178.85498, 181.32031, 184.37012, 189.46338, 194.16992, 196.63525, 204.38721, 209.09375, 212.14355, 216.72266, 222.02246, 226.60156, 229.65137, 234.23047, 236.6958, 241.78906, 246.36816, 250.18701, 252.65234, 257.94336, 262.6499, 267.35645, " y="855, ">
				Why the metadata has been
		</text>
		<text fill="gray" font-size="9" font-family="Segoe UI" x="161, 163.17969, 168.27295, 172.43018, 174.60986, 179.70312, 185.00293, 189.70947, 195.00928, 197.47461, 201.07373, 203.53906, 208.24561, 212.37646, 217.66748, 220.79639, 225.50293, 229.32178, 233.14062, 237.84717, 243.14697, 245.6123, 250.90332, 255.2583, 257.72363, " y="867, ">
				included - expressed by a
		</text>
		<text fill="gray" font-size="9" font-family="Segoe UI" x="161, 167.78516, 173.35742, 178.63086, 183.93066, " y="879, ">
				QCode
		</text>
		<rect fill="white" x="165" y="820" width="36" height="16"/>
		<text font-size="12" font-weight="600" font-family="Segoe UI" x="165, 174.56836, 181.79297, " y="833, ">
				why
		</text>
		<rect fill="none" stroke="black" stroke-width="1" stroke-linecap="square" stroke-miterlimit="4" transform="translate(0.5 0.5)" x="156" y="818" width="51" height="20"/>
		<rect fill="silver" x="160" y="892" width="56" height="21"/>
		<rect fill="white" x="156" y="888" width="56" height="21"/>
		<rect fill="white" x="161" y="915" width="119" height="24"/>
		<text fill="gray" font-size="9" font-family="Segoe UI" x="161, 169.40674, 174.5, 178.85498, 181.32031, 184.37012, 189.46338, 194.16992, 196.63525, 204.38721, 209.09375, 212.14355, 216.72266, 222.02246, 226.60156, 229.65137, 234.23047, 236.6958, 241.78906, 246.36816, 250.18701, 252.65234, 257.94336, 262.6499, 267.35645, " y="925, ">
				Why the metadata has been
		</text>
		<text fill="gray" font-size="9" font-family="Segoe UI" x="161, 163.17969, 168.27295, 172.43018, 174.60986, 179.70312, 185.00293, 189.70947, 195.00928, 197.47461, 201.07373, 203.53906, 208.24561, 212.37646, 217.66748, 220.79639, 225.50293, 229.32178, 233.14062, 237.84717, 243.14697, 245.6123, 250.90332, 255.2583, 257.72363, 262.30273, 264.76807, 270.95117, 276.33447, " y="937, ">
				included - expressed by a URI
		</text>
		<rect fill="white" x="165" y="890" width="40" height="16"/>
		<text font-size="12" font-weight="600" font-family="Segoe UI" x="165, 174.56836, 181.79297, 188.25, 195.50977, 200.33203, " y="903, ">
				whyuri
		</text>
		<rect fill="none" stroke="black" stroke-width="1" stroke-linecap="square" stroke-miterlimit="4" transform="translate(0.5 0.5)" x="156" y="888" width="55" height="20"/>
		<rect fill="silver" x="160" y="950" width="97" height="21"/>
		<rect fill="white" x="156" y="946" width="97" height="21"/>
		<rect fill="white" x="161" y="973" width="117" height="72"/>
		<text fill="gray" font-size="9" font-family="Segoe UI" x="161, 167.78516, 172.87842, 177.58496, 180.05029, 185.32373, 188.45264, 190.91797, 198.66992, 203.24902, 208.34229, 212.69727, 215.1626, 219.31982, 224.59326, 229.68652, 233.50537, 236.55518, 239.68408, 244.26318, 246.44287, 251.53613, 254.58594, 258.40479, 260.87012, 263.91992, 269.01318, 273.59229, " y="983, ">
				One or many constraints that
		</text>
		<text fill="gray" font-size="9" font-family="Segoe UI" x="161, 165.5791, 170.87012, 176.16113, 178.34082, 182.6958, 185.16113, 188.21094, 193.48438, 195.94971, 201.24072, 206.33398, 211.625, 213.80469, 215.98438, 219.80322, 224.89648, 227.07617, 232.16943, 237.46924, 239.93457, 242.98438, 248.07764, 252.78418, 255.24951, 259.56055, 264.13965, 266.31934, 271.4126, " y="995, ">
				apply to publishing the value
		</text>
		<text fill="gray" font-size="9" font-family="Segoe UI" x="161, 166.27344, 169.09033, 171.55566, 174.60547, 179.69873, 184.40527, 186.87061, 192.16162, 195.29053, 200.56396, 205.85498, 210.56152, 213.69043, 216.74023, 221.09521, 223.56055, 227.15967, 229.625, 234.33154, 238.4624, 243.75342, 246.88232, 251.58887, 255.40771, 259.22656, 263.93311, " y="1007, ">
				of the property - expressed
		</text>
		<text fill="gray" font-size="9" font-family="Segoe UI" x="161, 166.29102, 170.646, 173.11133, 177.69043, 180.15576, 186.94092, 192.51318, 197.78662, 203.08643, 207.79297, 209.74414, 212.20947, 216.76221, 221.34131, 225.49854, 230.5918, 233.05713, 237.21436, 242.48779, 247.58105, 251.3999, 254.44971, 257.57861, 262.15771, 264.3374, 269.43066, " y="1019, ">
				by a QCode. Each constraint
		</text>
		<text fill="gray" font-size="9" font-family="Segoe UI" x="161, 165.5791, 170.87012, 176.16113, 178.34082, 180.52051, 185.22705, 189.0459, 191.51123, 194.56104, 199.83447, 202.2998, 206.87891, 209.05859, 211.23828, 213.70361, 219.00342, 223.70996, 227.52881, 231.68604, 236.39258, 241.48584, 246.78564, 251.36475, 256.45801, " y="1031, ">
				applies to all descendant
		</text>
		<text fill="gray" font-size="9" font-family="Segoe UI" x="161, 165.70654, 167.88623, 172.59277, 180.34473, 185.05127, 190.14453, 193.19434, 197.01318, " y="1043, ">
				elements.
		</text>
		<rect fill="white" x="165" y="948" width="81" height="16"/>
		<text font-size="12" font-weight="600" font-family="Segoe UI" x="165, 172.44141, 179.70117, 187.14258, 192.90234, 200.23828, 207.49805, 212.77734, 217.44727, 222.22266, 228.67969, 232.08984, 239.34961, " y="961, ">
				pubconstraint
		</text>
		<rect fill="none" stroke="black" stroke-width="1" stroke-linecap="square" stroke-miterlimit="4" transform="translate(0.5 0.5)" x="156" y="946" width="96" height="20"/>
		<rect fill="silver" x="160" y="1056" width="112" height="21"/>
		<rect fill="white" x="156" y="1052" width="112" height="21"/>
		<rect fill="white" x="161" y="1079" width="117" height="72"/>
		<text fill="gray" font-size="9" font-family="Segoe UI" x="161, 167.78516, 172.87842, 177.58496, 180.05029, 185.32373, 188.45264, 190.91797, 198.66992, 203.24902, 208.34229, 212.69727, 215.1626, 219.31982, 224.59326, 229.68652, 233.50537, 236.55518, 239.68408, 244.26318, 246.44287, 251.53613, 254.58594, 258.40479, 260.87012, 263.91992, 269.01318, 273.59229, " y="1089, ">
				One or many constraints that
		</text>
		<text fill="gray" font-size="9" font-family="Segoe UI" x="161, 165.5791, 170.87012, 176.16113, 178.34082, 182.6958, 185.16113, 188.21094, 193.48438, 195.94971, 201.24072, 206.33398, 211.625, 213.80469, 215.98438, 219.80322, 224.89648, 227.07617, 232.16943, 237.46924, 239.93457, 242.98438, 248.07764, 252.78418, 255.24951, 259.56055, 264.13965, 266.31934, 271.4126, " y="1101, ">
				apply to publishing the value
		</text>
		<text fill="gray" font-size="9" font-family="Segoe UI" x="161, 166.27344, 169.09033, 171.55566, 174.60547, 179.69873, 184.40527, 186.87061, 192.16162, 195.29053, 200.56396, 205.85498, 210.56152, 213.69043, 216.74023, 221.09521, 223.56055, 227.15967, 229.625, 234.33154, 238.4624, 243.75342, 246.88232, 251.58887, 255.40771, 259.22656, 263.93311, " y="1113, ">
				of the property - expressed
		</text>
		<text fill="gray" font-size="9" font-family="Segoe UI" x="161, 166.29102, 170.646, 173.11133, 177.69043, 180.15576, 186.33887, 191.72217, 194.11719, 196.06836, 198.53369, 203.08643, 207.66553, 211.82275, 216.91602, 219.38135, 223.53857, 228.81201, 233.90527, 237.72412, 240.77393, 243.90283, 248.48193, 250.66162, 255.75488, " y="1125, ">
				by a URI. Each constraint
		</text>
		<text fill="gray" font-size="9" font-family="Segoe UI" x="161, 165.5791, 170.87012, 176.16113, 178.34082, 180.52051, 185.22705, 189.0459, 191.51123, 194.56104, 199.83447, 202.2998, 206.87891, 209.05859, 211.23828, 213.70361, 219.00342, 223.70996, 227.52881, 231.68604, 236.39258, 241.48584, 246.78564, 251.36475, 256.45801, " y="1137, ">
				applies to all descendant
		</text>
		<text fill="gray" font-size="9" font-family="Segoe UI" x="161, 165.70654, 167.88623, 172.59277, 180.34473, 185.05127, 190.14453, 193.19434, 197.01318, " y="1149, ">
				elements.
		</text>
		<rect fill="white" x="165" y="1054" width="96" height="16"/>
		<text font-size="12" font-weight="600" font-family="Segoe UI" x="165, 172.44141, 179.70117, 187.14258, 192.90234, 200.23828, 207.49805, 212.77734, 217.44727, 222.22266, 228.67969, 232.08984, 239.34961, 244.01953, 251.2793, 256.10156, " y="1067, ">
				pubconstrainturi
		</text>
		<rect fill="none" stroke="black" stroke-width="1" stroke-linecap="square" stroke-miterlimit="4" transform="translate(0.5 0.5)" x="156" y="1052" width="111" height="20"/>
		<rect fill="silver" x="160" y="1162" width="66" height="21"/>
		<rect fill="white" x="156" y="1158" width="66" height="21"/>
		<rect fill="white" x="161" y="1185" width="121" height="84"/>
		<text fill="gray" font-size="9" font-family="Segoe UI" x="161, 165.78125, 171.07227, 175.77881, 179.93604, 182.11572, 184.93262, 187.1123, 191.81885, 195.6377, 198.10303, 201.15283, 206.24609, 210.95264, 213.41797, 215.59766, 220.17676, 225.27002, 230.56982, 235.66309, 240.24219, 245.54199, 250.24854, 252.71387, 257.9873, 260.8042, 263.26953, 266.31934, 271.4126, 273.59229, " y="1195, ">
				Specifies the language of this
		</text>
		<text fill="gray" font-size="9" font-family="Segoe UI" x="161, 166.29102, 169.41992, 174.69336, 179.98438, 184.69092, 187.81982, 190.86963, 195.22461, 197.68994, 202.26904, 207.3623, 212.66211, 215.12744, 220.41846, 225.69189, 228.7417, 233.44824, 238.5415, 241.59131, 243.771, 248.3501, 250.52979, 252.70947, 257.06445, 259.52979, 264.10889, 266.28857, " y="1207, ">
				property and potentially all
		</text>
		<text fill="gray" font-size="9" font-family="Segoe UI" x="161, 166.2998, 171.00635, 174.8252, 178.98242, 183.68896, 188.78223, 194.08203, 198.66113, 203.75439, 206.8042, 209.26953, 214.56055, 217.68945, 222.96289, 228.25391, 232.96045, 236.08936, 239.13916, 241.31885, 246.02539, 249.84424, " y="1219, ">
				descendant properties.
		</text>
		<text fill="gray" font-size="9" font-family="Segoe UI" x="161, 165.13086, 172.88281, 175.0625, 177.01367, 179.19336, 183.77246, 188.86572, 194.16553, 196.63086, 200.94189, 205.521, 207.70068, 212.79395, 217.50049, 221.31934, 223.78467, 229.05811, 231.875, 234.34033, 239.64014, 244.34668, 248.16553, 252.32275, 257.0293, 262.12256, 267.42236, 272.00146, 277.09473, " y="1231, ">
				xml:lang values of descendant
		</text>
		<text fill="gray" font-size="9" font-family="Segoe UI" x="161, 166.29102, 169.41992, 174.69336, 179.98438, 184.69092, 187.81982, 190.86963, 193.04932, 197.75586, 201.57471, 204.04004, 209.31348, 213.62451, 218.33105, 221.45996, 224.58887, 226.76855, 232.06836, 236.7749, 239.24023, 242.29004, 247.3833, 249.56299, 253.38184, 255.84717, 260.1582, 264.7373, 266.91699, 272.01025, 276.7168, " y="1243, ">
				properties override this value.
		</text>
		<text fill="gray" font-size="9" font-family="Segoe UI" x="161, 165.93066, 170.50977, 172.68945, 177.78271, 182.48926, 186.30811, 188.77344, 193.35254, 196.48145, 201.18799, 203.65332, 208.95312, 213.65967, 216.70947, 221.41602, 224.54492, 232.29688, 234.47656, 239.56982, 244.27637, 249.57617, 252.0415, 257.33252, " y="1255, ">
				Values are determined by
		</text>
		<text fill="gray" font-size="9" font-family="Segoe UI" x="161, 163.39502, 168.48828, 171.53809, 176.24463, 179.37354, 184.4668, 189.17334, 192.22314, 194.68848, 199.84766, 205.41992, 210.46045, 212.92578, 217.77734, 222.62891, " y="1267, ">
				Internet BCP 47.
		</text>
		<rect fill="white" x="165" y="1160" width="50" height="16"/>
		<text font-size="12" font-weight="600" font-family="Segoe UI" x="165, 171.62695, 182.61914, 186.0293, 189.28125, 192.69141, 199.14844, 206.4082, " y="1173, ">
				xml:lang
		</text>
		<path fill="none" stroke="black" stroke-width="2" stroke-miterlimit="4" transform="translate(0.5 0.5)" d="M158 1176L162 1172"/>
		<path fill="none" stroke="black" stroke-width="1" stroke-linecap="square" stroke-miterlimit="4" transform="translate(0.5 0.5)" d="M159 1172L162 1172L162 1175"/>
		<rect fill="none" stroke="black" stroke-width="1" stroke-linecap="square" stroke-miterlimit="4" transform="translate(0.5 0.5)" x="156" y="1158" width="65" height="20"/>
		<rect fill="silver" x="160" y="1280" width="52" height="21"/>
		<rect fill="white" x="156" y="1276" width="52" height="21"/>
		<rect fill="white" x="161" y="1303" width="116" height="24"/>
		<text fill="gray" font-size="9" font-family="Segoe UI" x="161, 165.71533, 170.80859, 175.51514, 177.98047, 183.28027, 185.45996, 188.58887, 193.29541, 197.45264, 200.50244, 202.68213, 207.95557, 213.04883, 217.62793, 219.80762, 221.9873, 225.03711, 229.39209, 231.85742, 237.13086, 239.94775, 242.41309, 245.46289, 250.16943, 254.30029, 257.3501, 262.44336, 267.02246, " y="1313, ">
				The directionality of textual
		</text>
		<text fill="gray" font-size="9" font-family="Segoe UI" x="161, 165.15723, 170.43066, 175.52393, 178.57373, 183.28027, 188.37354, 191.42334, 193.88867, 196.60449, 201.31104, 206.4043, 211.49756, 219.24951, 223.95605, 227.08496, 231.66406, 234.71387, 236.89355, 242.16699, 247.26025, 249.21143, 251.67676, 253.85645, 256.90625, 260.03516, 261.98633, 264.45166, 267.58057, 270.63037, 272.81006, " y="1325, ">
				content (enumeration: ltr, rtl)
		</text>
		<rect fill="white" x="165" y="1278" width="36" height="16"/>
		<text font-size="12" font-weight="600" font-family="Segoe UI" x="165, 172.42969, 175.83984, " y="1291, ">
				dir
		</text>
		<rect fill="none" stroke="black" stroke-width="1" stroke-linecap="square" stroke-miterlimit="4" transform="translate(0.5 0.5)" x="156" y="1276" width="51" height="20"/>
		<path fill="silver" d="M160 1343L165 1338L233 1338L238 1343L238 1354L233 1359L165 1359L160 1354L160 1343Z"/>
		<path fill="white" d="M156 1339L161 1334L229 1334L234 1339L234 1350L229 1355L161 1355L156 1350L156 1339Z"/>
		<rect fill="white" x="183" y="1336" width="46" height="16"/>
		<text font-size="12" font-weight="600" font-family="Segoe UI" x="183, 190.10742, 197.21484, 204.55078, 209.2207, 216.44531, 222.9375, " y="1349, ">
				##other
		</text>
		<rect fill="white" x="161" y="1336" width="20" height="16"/>
		<text fill="gray" font-size="12" font-family="Segoe UI" x="161, 167.10547, 173.89648, " y="1349, ">
				any
		</text>
		<path fill="none" stroke="black" stroke-width="1" stroke-linecap="square" stroke-miterlimit="4" transform="translate(0.5 0.5)" d="M156 1339L161 1334L228 1334L233 1339L233 1349L228 1354L161 1354L156 1349L156 1339Z"/>
		<rect fill="silver" x="160" y="1366" width="52" height="21"/>
		<rect fill="white" x="156" y="1362" width="52" height="21"/>
		<rect fill="white" x="161" y="1389" width="120" height="36"/>
		<text fill="gray" font-size="9" font-family="Segoe UI" x="161, 166.80518, 169.27051, 172.39941, 177.10596, 179.92285, 182.10254, 187.1958, 191.90234, 199.6543, 204.36084, 209.4541, 212.50391, 214.96924, 220.24268, 223.05957, 225.5249, 228.57471, 233.66797, 238.37451, 240.83984, 244.65869, 249.36523, 257.11719, 261.69629, 266.78955, 269.83936, 272.01904, 276.17627, " y="1399, ">
				A refinement of the semantics
		</text>
		<text fill="gray" font-size="9" font-family="Segoe UI" x="161, 166.27344, 169.09033, 171.55566, 174.60547, 179.69873, 184.40527, 186.87061, 191.96387, 196.54297, 204.29492, 209.00146, 211.4668, 215.06592, 217.53125, 222.23779, 226.36865, 231.65967, 234.78857, 239.49512, 243.31396, 247.13281, 251.83936, 257.13916, 259.60449, 264.89551, 269.25049, 271.71582, " y="1411, ">
				of the name - expressed by a
		</text>
		<text fill="gray" font-size="9" font-family="Segoe UI" x="161, 167.78516, 173.35742, 178.63086, 183.93066, " y="1423, ">
				QCode
		</text>
		<rect fill="white" x="165" y="1364" width="36" height="16"/>
		<text font-size="12" font-weight="600" font-family="Segoe UI" x="165, 169.72852, 177.06445, 180.47461, " y="1377, ">
				role
		</text>
		<rect fill="none" stroke="black" stroke-width="1" stroke-linecap="square" stroke-miterlimit="4" transform="translate(0.5 0.5)" x="156" y="1362" width="51" height="20"/>
		<rect fill="silver" x="160" y="1436" width="55" height="21"/>
		<rect fill="white" x="156" y="1432" width="55" height="21"/>
		<rect fill="white" x="161" y="1459" width="120" height="36"/>
		<text fill="gray" font-size="9" font-family="Segoe UI" x="161, 166.80518, 169.27051, 172.39941, 177.10596, 179.92285, 182.10254, 187.1958, 191.90234, 199.6543, 204.36084, 209.4541, 212.50391, 214.96924, 220.24268, 223.05957, 225.5249, 228.57471, 233.66797, 238.37451, 240.83984, 244.65869, 249.36523, 257.11719, 261.69629, 266.78955, 269.83936, 272.01904, 276.17627, " y="1469, ">
				A refinement of the semantics
		</text>
		<text fill="gray" font-size="9" font-family="Segoe UI" x="161, 166.27344, 169.09033, 171.55566, 174.60547, 179.69873, 184.40527, 186.87061, 191.96387, 196.54297, 204.29492, 209.00146, 211.4668, 215.06592, 217.53125, 222.23779, 226.36865, 231.65967, 234.78857, 239.49512, 243.31396, 247.13281, 251.83936, 257.13916, 259.60449, 264.89551, 269.25049, 271.71582, " y="1481, ">
				of the name - expressed by a
		</text>
		<text fill="gray" font-size="9" font-family="Segoe UI" x="161, 167.18311, 172.56641, " y="1493, ">
				URI
		</text>
		<rect fill="white" x="165" y="1434" width="39" height="16"/>
		<text font-size="12" font-weight="600" font-family="Segoe UI" x="165, 169.72852, 177.06445, 180.47461, 186.9668, 194.22656, 199.04883, " y="1447, ">
				roleuri
		</text>
		<rect fill="none" stroke="black" stroke-width="1" stroke-linecap="square" stroke-miterlimit="4" transform="translate(0.5 0.5)" x="156" y="1432" width="54" height="20"/>
		<rect fill="silver" x="160" y="1506" width="52" height="21"/>
		<rect fill="white" x="156" y="1502" width="52" height="21"/>
		<rect fill="white" x="161" y="1529" width="119" height="36"/>
		<text fill="gray" font-size="9" font-family="Segoe UI" x="161, 165.78125, 171.07227, 175.77881, 179.93604, 182.11572, 184.93262, 187.1123, 191.81885, 195.6377, 198.10303, 204.60693, 209.7002, 211.87988, 216.03711, 221.13037, 223.5957, 228.88672, 233.46582, 236.59473, 239.64453, 242.10986, 247.3833, 250.2002, 252.66553, 257.24463, 259.70996, 262.52686, 267.62012, 269.7998, " y="1539, ">
				Specifies which part of a full
		</text>
		<text fill="gray" font-size="9" font-family="Segoe UI" x="161, 166.09326, 170.67236, 178.42432, 183.13086, 185.59619, 188.646, 193.73926, 195.91895, 199.73779, 202.20312, 207.49414, 210.62305, 215.89648, 221.1875, 225.89404, 229.02295, 232.07275, 236.42773, 238.89307, 244.18408, 247.31299, 252.58643, 256.89746, 259.07715, 264.37695, 269.0835, 272.90234, 275.36768, " y="1551, ">
				name this property provides -
		</text>
		<text fill="gray" font-size="9" font-family="Segoe UI" x="161, 165.70654, 169.8374, 175.12842, 178.25732, 182.96387, 186.78271, 190.60156, 195.30811, 200.60791, 203.07324, 208.36426, 212.71924, 215.18457, 219.76367, 222.229, 229.01416, 234.58643, 239.85986, 245.15967, " y="1563, ">
				expressed by a QCode
		</text>
		<rect fill="white" x="165" y="1504" width="36" height="16"/>
		<text font-size="12" font-weight="600" font-family="Segoe UI" x="165, 172.32422, 178.78125, 183.90234, " y="1517, ">
				part
		</text>
		<rect fill="none" stroke="black" stroke-width="1" stroke-linecap="square" stroke-miterlimit="4" transform="translate(0.5 0.5)" x="156" y="1502" width="51" height="20"/>
		<rect fill="silver" x="160" y="1576" width="57" height="21"/>
		<rect fill="white" x="156" y="1572" width="57" height="21"/>
		<rect fill="white" x="161" y="1599" width="119" height="36"/>
		<text fill="gray" font-size="9" font-family="Segoe UI" x="161, 165.78125, 171.07227, 175.77881, 179.93604, 182.11572, 184.93262, 187.1123, 191.81885, 195.6377, 198.10303, 204.60693, 209.7002, 211.87988, 216.03711, 221.13037, 223.5957, 228.88672, 233.46582, 236.59473, 239.64453, 242.10986, 247.3833, 250.2002, 252.66553, 257.24463, 259.70996, 262.52686, 267.62012, 269.7998, " y="1609, ">
				Specifies which part of a full
		</text>
		<text fill="gray" font-size="9" font-family="Segoe UI" x="161, 166.09326, 170.67236, 178.42432, 183.13086, 185.59619, 188.646, 193.73926, 195.91895, 199.73779, 202.20312, 207.49414, 210.62305, 215.89648, 221.1875, 225.89404, 229.02295, 232.07275, 236.42773, 238.89307, 244.18408, 247.31299, 252.58643, 256.89746, 259.07715, 264.37695, 269.0835, 272.90234, 275.36768, " y="1621, ">
				name this property provides -
		</text>
		<text fill="gray" font-size="9" font-family="Segoe UI" x="161, 165.70654, 169.8374, 175.12842, 178.25732, 182.96387, 186.78271, 190.60156, 195.30811, 200.60791, 203.07324, 208.36426, 212.71924, 215.18457, 219.76367, 222.229, 228.41211, 233.79541, " y="1633, ">
				expressed by a URI
		</text>
		<rect fill="white" x="165" y="1574" width="41" height="16"/>
		<text font-size="12" font-weight="600" font-family="Segoe UI" x="165, 172.32422, 178.78125, 183.90234, 188.57227, 195.83203, 200.6543, " y="1587, ">
				parturi
		</text>
		<rect fill="none" stroke="black" stroke-width="1" stroke-linecap="square" stroke-miterlimit="4" transform="translate(0.5 0.5)" x="156" y="1572" width="56" height="20"/>
		<rect fill="silver" x="160" y="1646" width="72" height="21"/>
		<rect fill="white" x="156" y="1642" width="72" height="21"/>
		<rect fill="white" x="161" y="1669" width="117" height="36"/>
		<text fill="gray" font-size="9" font-family="Segoe UI" x="161, 165.71533, 170.80859, 175.51514, 177.98047, 183.28027, 187.85938, 190.90918, 195.61572, 198.08105, 200.79688, 205.37598, 210.46924, 215.76904, 217.72021, 220.18555, 225.45898, 230.75, 233.7998, 235.97949, 241.25293, 246.34619, 250.92529, 253.10498, 255.28467, 259.63965, 261.59082, 264.05615, 267.10596, 272.19922, " y="1679, ">
				The date (and, optionally, the
		</text>
		<text fill="gray" font-size="9" font-family="Segoe UI" x="161, 164.0498, 166.22949, 173.98145, 178.68799, 181.40381, 183.86914, 189.16016, 193.8667, 196.68359, 201.95703, 205.08594, 209.79248, 212.25781, 218.76172, 223.85498, 226.03467, 230.19189, 235.28516, 237.75049, " y="1691, ">
				time) before which a
		</text>
		<text fill="gray" font-size="9" font-family="Segoe UI" x="161, 164.12891, 168.83545, 171.01514, 175.59424, 178.64404, 180.82373, 186.09717, 191.19043, 195.00928, 200.10254, 202.28223, 207.57324, 210.03857, 212.21826, 216.03711, 218.50244, 223.5957, 228.86914, 231.91895, 234.38428, 238.69531, 243.27441, 245.4541, 247.63379, 252.93359, " y="1703, ">
				relationship is not valid.
		</text>
		<rect fill="white" x="165" y="1644" width="56" height="16"/>
		<text font-size="12" font-weight="600" font-family="Segoe UI" x="165, 171.32227, 177.7793, 181.18945, 184.59961, 192.0293, 196.62891, 201.35742, 208.69336, " y="1657, ">
				validfrom
		</text>
		<rect fill="none" stroke="black" stroke-width="1" stroke-linecap="square" stroke-miterlimit="4" transform="translate(0.5 0.5)" x="156" y="1642" width="71" height="20"/>
		<rect fill="silver" x="160" y="1716" width="56" height="21"/>
		<rect fill="white" x="156" y="1712" width="56" height="21"/>
		<rect fill="white" x="161" y="1739" width="117" height="36"/>
		<text fill="gray" font-size="9" font-family="Segoe UI" x="161, 165.71533, 170.80859, 175.51514, 177.98047, 183.28027, 187.85938, 190.90918, 195.61572, 198.08105, 200.79688, 205.37598, 210.46924, 215.76904, 217.72021, 220.18555, 225.45898, 230.75, 233.7998, 235.97949, 241.25293, 246.34619, 250.92529, 253.10498, 255.28467, 259.63965, 261.59082, 264.05615, 267.10596, 272.19922, " y="1749, ">
				The date (and, optionally, the
		</text>
		<text fill="gray" font-size="9" font-family="Segoe UI" x="161, 164.0498, 166.22949, 173.98145, 178.68799, 181.40381, 183.86914, 188.44824, 191.26514, 194.31494, 199.02148, 202.15039, 204.61572, 211.11963, 216.21289, 218.39258, 222.5498, 227.64307, 230.1084, " y="1761, ">
				time) after which a
		</text>
		<text fill="gray" font-size="9" font-family="Segoe UI" x="161, 164.12891, 168.83545, 171.01514, 175.59424, 178.64404, 180.82373, 186.09717, 191.19043, 195.00928, 200.10254, 202.28223, 207.57324, 210.03857, 212.21826, 216.03711, 218.50244, 223.5957, 228.86914, 231.91895, 234.38428, 238.69531, 243.27441, 245.4541, 247.63379, 252.93359, " y="1773, ">
				relationship is not valid.
		</text>
		<rect fill="white" x="165" y="1714" width="40" height="16"/>
		<text font-size="12" font-weight="600" font-family="Segoe UI" x="165, 171.32227, 177.7793, 181.18945, 184.59961, 192.0293, 196.65234, " y="1727, ">
				validto
		</text>
		<rect fill="none" stroke="black" stroke-width="1" stroke-linecap="square" stroke-miterlimit="4" transform="translate(0.5 0.5)" x="156" y="1712" width="55" height="20"/>
		<rect x="147" y="41" width="11" height="11"/>
		<rect fill="white" x="148" y="42" width="9" height="9"/>
		<rect x="149" y="46" width="7" height="1"/>
		<rect x="48" y="904" width="11" height="11"/>
		<rect fill="white" x="49" y="905" width="9" height="9"/>
		<rect x="50" y="909" width="7" height="1"/>
	</g>
</svg>
