<?xml version="1.0" encoding="utf-8" ?>
<svg xmlns="http://www.w3.org/2000/svg" xmlns:xlink="http://www.w3.org/1999/xlink" width="455" height="1851">
	<clipPath id="cl_5c2">
		<rect x="-10" y="-5" width="455" height="1851"/>
	</clipPath>
	<g clip-path="url(#cl_5c2)">
		<rect fill="#FFFFC0" x="130" width="305" height="1841"/>
		<rect fill="none" stroke="gray" stroke-width="1" stroke-linecap="square" stroke-miterlimit="4" transform="translate(0.5 0.5)" x="130" width="304" height="1840"/>
		<path fill="none" stroke="black" stroke-width="1" stroke-linecap="square" stroke-miterlimit="4" transform="translate(0.5 0.5)" d="M92 1161L142 1161"/>
		<path fill="none" stroke="black" stroke-width="1" stroke-linecap="square" stroke-miterlimit="4" transform="translate(0.5 0.5)" d="M143 1161L143 684"/>
		<path fill="none" stroke="black" stroke-width="1" stroke-linecap="square" stroke-miterlimit="4" transform="translate(0.5 0.5)" d="M143 1161L143 1639"/>
		<path fill="none" stroke="black" stroke-width="1" stroke-linecap="square" stroke-miterlimit="4" transform="translate(0.5 0.5)" d="M143 1640L157 1640"/>
		<path fill="none" stroke="black" stroke-width="1" stroke-linecap="square" stroke-miterlimit="4" transform="translate(0.5 0.5)" d="M143 683L157 683"/>
		<rect fill="silver" x="4" y="1155" width="87" height="21"/>
		<rect fill="white" y="1151" width="87" height="21"/>
		<rect fill="#FFFFC0" x="138" y="8" width="95" height="16"/>
		<text fill="gray" font-size="12" font-weight="600" font-family="Segoe UI" x="138, 145.48828, 152.82422, 160.08398, 164.75391, 171.21094, 176.9707, 181.64062, 185.44336, 192.70312, 197.30273, 204.63867, 211.13086, 217.58789, 225.0293, " y="21, ">
				ContactInfoType
		</text>
		<rect fill="white" x="5" y="1178" width="110" height="24"/>
		<text fill="gray" font-size="9" font-family="Segoe UI" x="5, 7.3950195, 12.488281, 15.305176, 20.578613, 23.70752, 31.459473, 36.038574, 39.088379, 41.268066, 46.541504, 51.634766, 54.100098, 59.193359, 64.466797, 70.970703, 73.436035, 76.48584, 81.759277, 84.224609, 88.381836, 93.655273, 98.748535, 101.79834, 106.37744, 110.53467, " y="1188, ">
				Information how to contact
		</text>
		<text fill="gray" font-size="9" font-family="Segoe UI" x="5, 8.0498047, 13.143066, 17.849609, 20.314941, 25.605957, 30.879395, 33.059082, 38.152344, 41.202148, 43.66748, 48.940918, 51.757812, 54.223145, 56.402832, 61.496094, 64.545898, 69.252441, 72.381348, 77.087891, 80.906738, 83.956543, " y="1200, ">
				the point of interest.
		</text>
		<rect fill="white" x="9" y="1153" width="66" height="16"/>
		<text font-size="12" font-weight="600" font-family="Segoe UI" x="9, 14.759766, 22.095703, 29.355469, 34.025391, 40.482422, 46.242188, 50.912109, 54.714844, 61.974609, 66.574219, " y="1166, ">
				contactInfo
		</text>
		<rect fill="none" stroke="black" stroke-width="1" stroke-linecap="square" stroke-miterlimit="4" transform="translate(0.5 0.5)" y="1151" width="86" height="20"/>
		<path fill="white" d="M235 55L235 36L158 36L158 55L158 1329L305 1329L305 55L235 55Z"/>
		<rect fill="white" x="178" y="38" width="51" height="16"/>
		<text font-size="12" font-style="italic" font-family="Segoe UI" x="178, 184.50391, 188.38281, 192.26172, 196.5332, 199.63867, 206.14258, 212.83984, 216.73047, 222.57227, " y="51, ">
				attributes
		</text>
		<path fill="none" stroke="black" stroke-width="1" stroke-linecap="square" stroke-miterlimit="4" transform="translate(0.5 0.5)" d="M235 55L235 36L158 36L158 55L158 1329L305 1329L305 55L235 55Z"/>
		<rect fill="silver" x="176" y="68" width="52" height="21"/>
		<rect fill="white" x="172" y="64" width="52" height="21"/>
		<rect fill="white" x="177" y="91" width="101" height="24"/>
		<text fill="gray" font-size="9" font-family="Segoe UI" x="177, 181.71533, 186.80859, 191.51514, 193.98047, 196.16016, 201.43359, 205.59082, 210.16992, 212.34961, 214.81494, 216.99463, 222.29443, 227.00098, 232.09424, 235.14404, 237.32373, 240.14062, 242.32031, 247.02686, 250.15576, 252.62109, 257.89453, 260.71143, 263.17676, 266.22656, 271.31982, " y="101, ">
				The local identifier of the
		</text>
		<text fill="gray" font-size="9" font-family="Segoe UI" x="177, 182.29102, 185.41992, 190.69336, 195.98438, 200.69092, 203.81982, 206.86963, 211.22461, " y="113, ">
				property.
		</text>
		<rect fill="white" x="181" y="66" width="36" height="16"/>
		<text font-size="12" font-weight="600" font-family="Segoe UI" x="181, 184.41016, " y="79, ">
				id
		</text>
		<rect fill="none" stroke="black" stroke-width="1" stroke-linecap="square" stroke-miterlimit="4" transform="translate(0.5 0.5)" x="172" y="64" width="51" height="20"/>
		<rect fill="silver" x="176" y="126" width="58" height="21"/>
		<rect fill="white" x="172" y="122" width="58" height="21"/>
		<rect fill="white" x="177" y="149" width="121" height="120"/>
		<text fill="gray" font-size="9" font-family="Segoe UI" x="177, 179.39502, 182.21191, 184.67725, 187.72705, 192.82031, 197.52686, 199.99219, 205.2832, 208.41211, 213.68555, 218.97656, 223.68311, 226.81201, 229.86182, 234.2168, 236.68213, 240.99316, 245.57227, 247.75195, 252.84521, 257.55176, 260.01709, 262.19678, 266.01562, 268.48096, 273.57422, 278.84766, " y="159, ">
				If the property value is not
		</text>
		<text fill="gray" font-size="9" font-family="Segoe UI" x="177, 182.2998, 187.00635, 189.82324, 192.00293, 197.09619, 201.80273, 207.10254, 209.05371, 211.51904, 215.33789, 220.62891, 225.33545, 229.49268, 231.67236, 234.48926, 236.66895, 241.37549, 245.19434, 247.65967, 254.16357, 259.25684, 261.43652, 265.59375, 270.68701, 273.15234, 277.85889, 282.95215, 286.00195, 288.18164, 291.23145, " y="171, ">
				defined, specifies which entity
		</text>
		<text fill="gray" font-size="9" font-family="Segoe UI" x="177, 179.71582, 185.00684, 189.71338, 192.84229, 196.66113, 201.93457, 207.02783, 208.979, 211.44434, 216.71777, 219.84668, 225.14648, 229.72559, 234.81885, 236.99854, 240.81738, 245.39648, 248.44629, 250.62598, 255.89941, 260.99268, 263.45801, 268.73145, " y="183, ">
				(person, organisation or
		</text>
		<text fill="gray" font-size="9" font-family="Segoe UI" x="177, 180.81885, 185.17383, 188.99268, 192.04248, 196.74902, 204.50098, 207.2168, 209.68213, 216.18604, 218.36572, 220.54541, 222.7251, 225.19043, 229.89697, 235.19678, 237.37646, 240.42627, 242.8916, 245.94141, 251.03467, 255.74121, 258.20654, 263.49756, 266.62646, 271.8999, 277.19092, 281.89746, 285.02637, 288.07617, " y="195, ">
				system) will edit the property
		</text>
		<text fill="gray" font-size="9" font-family="Segoe UI" x="177, 181.31104, 185.89014, 188.06982, 193.16309, 197.86963, 200.33496, 203.93408, 206.39941, 211.10596, 215.23682, 220.52783, 223.65674, 228.36328, 232.18213, 236.00098, 240.70752, 246.00732, 248.47266, 253.76367, 258.11865, 260.58398, 265.16309, 267.62842, 274.41357, 279.98584, 285.25928, 290.55908, 295.26562, " y="207, ">
				value - expressed by a QCode.
		</text>
		<text fill="gray" font-size="9" font-family="Segoe UI" x="177, 179.39502, 182.21191, 184.67725, 187.72705, 192.82031, 197.52686, 199.99219, 205.2832, 208.41211, 213.68555, 218.97656, 223.68311, 226.81201, 229.86182, 234.2168, 236.68213, 240.99316, 245.57227, 247.75195, 252.84521, 257.55176, 260.01709, 262.19678, " y="219, ">
				If the property value is
		</text>
		<text fill="gray" font-size="9" font-family="Segoe UI" x="177, 182.2998, 187.00635, 189.82324, 192.00293, 197.09619, 201.80273, 207.10254, 209.05371, 211.51904, 215.33789, 220.62891, 225.33545, 229.49268, 231.67236, 234.48926, 236.66895, 241.37549, 245.19434, 247.65967, 254.16357, 259.25684, 261.43652, 265.59375, 270.68701, 273.15234, 277.85889, 282.95215, 286.00195, 288.18164, 291.23145, " y="231, ">
				defined, specifies which entity
		</text>
		<text fill="gray" font-size="9" font-family="Segoe UI" x="177, 179.71582, 185.00684, 189.71338, 192.84229, 196.66113, 201.93457, 207.02783, 208.979, 211.44434, 216.71777, 219.84668, 225.14648, 229.72559, 234.81885, 236.99854, 240.81738, 245.39648, 248.44629, 250.62598, 255.89941, 260.99268, 263.45801, 268.73145, " y="243, ">
				(person, organisation or
		</text>
		<text fill="gray" font-size="9" font-family="Segoe UI" x="177, 180.81885, 185.17383, 188.99268, 192.04248, 196.74902, 204.50098, 207.2168, 209.68213, 214.77539, 219.35449, 223.17334, 225.63867, 230.34521, 235.64502, 237.82471, 240.87451, 245.58105, 250.88086, 253.34619, 256.396, 261.48926, " y="255, ">
				system) has edited the
		</text>
		<text fill="gray" font-size="9" font-family="Segoe UI" x="177, 182.29102, 185.41992, 190.69336, 195.98438, 200.69092, 203.81982, 206.86963, 211.22461, 213.68994, 218.00098, 222.58008, 224.75977, 229.85303, 234.55957, " y="267, ">
				property value.
		</text>
		<rect fill="white" x="181" y="124" width="42" height="16"/>
		<text font-size="12" font-weight="600" font-family="Segoe UI" x="181, 186.75977, 191.48828, 197.98047, 204.4375, 209.06055, 216.39648, " y="137, ">
				creator
		</text>
		<rect fill="none" stroke="black" stroke-width="1" stroke-linecap="square" stroke-miterlimit="4" transform="translate(0.5 0.5)" x="172" y="122" width="57" height="20"/>
		<rect fill="silver" x="176" y="280" width="73" height="21"/>
		<rect fill="white" x="172" y="276" width="73" height="21"/>
		<rect fill="white" x="177" y="303" width="120" height="108"/>
		<text fill="gray" font-size="9" font-family="Segoe UI" x="177, 179.39502, 182.21191, 184.67725, 187.72705, 192.82031, 197.52686, 199.99219, 205.2832, 208.41211, 213.68555, 218.97656, 223.68311, 226.81201, 229.86182, 234.2168, 236.68213, 240.99316, 245.57227, 247.75195, 252.84521, 257.55176, 260.01709, 262.19678, 266.01562, 268.48096, 273.57422, 278.84766, " y="313, ">
				If the property value is not
		</text>
		<text fill="gray" font-size="9" font-family="Segoe UI" x="177, 182.2998, 187.00635, 189.82324, 192.00293, 197.09619, 201.80273, 207.10254, 209.05371, 211.51904, 215.33789, 220.62891, 225.33545, 229.49268, 231.67236, 234.48926, 236.66895, 241.37549, 245.19434, 247.65967, 254.16357, 259.25684, 261.43652, 265.59375, 270.68701, 273.15234, 277.85889, 282.95215, 286.00195, 288.18164, 291.23145, " y="325, ">
				defined, specifies which entity
		</text>
		<text fill="gray" font-size="9" font-family="Segoe UI" x="177, 179.71582, 185.00684, 189.71338, 192.84229, 196.66113, 201.93457, 207.02783, 208.979, 211.44434, 216.71777, 219.84668, 225.14648, 229.72559, 234.81885, 236.99854, 240.81738, 245.39648, 248.44629, 250.62598, 255.89941, 260.99268, 263.45801, 268.73145, " y="337, ">
				(person, organisation or
		</text>
		<text fill="gray" font-size="9" font-family="Segoe UI" x="177, 180.81885, 185.17383, 188.99268, 192.04248, 196.74902, 204.50098, 207.2168, 209.68213, 216.18604, 218.36572, 220.54541, 222.7251, 225.19043, 229.89697, 235.19678, 237.37646, 240.42627, 242.8916, 245.94141, 251.03467, 255.74121, 258.20654, 263.49756, 266.62646, 271.8999, 277.19092, 281.89746, 285.02637, 288.07617, " y="349, ">
				system) will edit the property
		</text>
		<text fill="gray" font-size="9" font-family="Segoe UI" x="177, 180.59912, 183.06445, 187.771, 191.90186, 197.19287, 200.32178, 205.02832, 208.84717, 212.66602, 217.37256, 222.67236, 225.1377, 230.42871, 234.78369, 237.24902, 241.82812, 244.29346, 250.47656, 255.85986, 258.25488, 260.20605, 262.67139, 265.06641, 267.8833, 270.34863, 273.39844, 278.4917, " y="361, ">
				- expressed by a URI. If the
		</text>
		<text fill="gray" font-size="9" font-family="Segoe UI" x="177, 182.29102, 185.41992, 190.69336, 195.98438, 200.69092, 203.81982, 206.86963, 211.22461, 213.68994, 218.00098, 222.58008, 224.75977, 229.85303, 234.55957, 237.0249, 239.20459, 243.02344, 245.48877, 250.78857, 255.49512, 258.31201, 260.4917, 265.58496, 270.2915, 275.59131, " y="373, ">
				property value is defined,
		</text>
		<text fill="gray" font-size="9" font-family="Segoe UI" x="177, 180.81885, 186.10986, 190.81641, 194.97363, 197.15332, 199.97021, 202.1499, 206.85645, 210.67529, 213.14062, 219.64453, 224.73779, 226.91748, 231.07471, 236.16797, 238.6333, 243.33984, 248.43311, 251.48291, 253.6626, 256.7124, 261.06738, 263.53271, 266.24854, 271.53955, 276.24609, 279.375, 283.19385, 288.46729, 293.56055, " y="385, ">
				specifies which entity (person,
		</text>
		<text fill="gray" font-size="9" font-family="Segoe UI" x="177, 182.27344, 185.40234, 190.70215, 195.28125, 200.37451, 202.5542, 206.37305, 210.95215, 214.00195, 216.18164, 221.45508, 226.54834, 229.01367, 234.28711, 237.41602, 239.88135, 243.7002, 248.05518, 251.87402, 254.92383, 259.63037, 267.38232, 270.09814, 272.56348, 277.65674, 282.23584, " y="397, ">
				organisation or system) has
		</text>
		<text fill="gray" font-size="9" font-family="Segoe UI" x="177, 181.70654, 187.00635, 189.18604, 192.23584, 196.94238, 202.24219, 204.70752, 207.75732, 212.85059, 217.55713, 220.02246, 225.31348, 228.44238, 233.71582, 239.00684, 243.71338, 246.84229, 249.89209, 254.24707, " y="409, ">
				edited the property.
		</text>
		<rect fill="white" x="181" y="278" width="57" height="16"/>
		<text font-size="12" font-weight="600" font-family="Segoe UI" x="181, 186.75977, 191.48828, 197.98047, 204.4375, 209.06055, 216.39648, 221.20703, 228.4668, 233.28906, " y="291, ">
				creatoruri
		</text>
		<rect fill="none" stroke="black" stroke-width="1" stroke-linecap="square" stroke-miterlimit="4" transform="translate(0.5 0.5)" x="172" y="276" width="72" height="20"/>
		<rect fill="silver" x="176" y="422" width="69" height="21"/>
		<rect fill="white" x="172" y="418" width="69" height="21"/>
		<rect fill="white" x="177" y="445" width="119" height="72"/>
		<text fill="gray" font-size="9" font-family="Segoe UI" x="177, 181.71533, 186.80859, 191.51514, 193.98047, 199.28027, 203.85938, 206.90918, 211.61572, 214.08105, 216.79688, 221.37598, 226.46924, 231.76904, 233.72021, 236.18555, 241.45898, 246.75, 249.7998, 251.97949, 257.25293, 262.34619, 266.92529, 269.10498, 271.28467, 275.63965, 277.59082, 280.05615, 283.10596, 288.19922, " y="455, ">
				The date (and, optionally, the
		</text>
		<text fill="gray" font-size="9" font-family="Segoe UI" x="177, 180.0498, 182.22949, 189.98145, 194.68799, 197.40381, 199.86914, 206.37305, 211.46631, 216.17285, 221.26611, 223.73145, 226.78125, 231.87451, 236.58105, 239.04639, 244.3374, 247.46631, 252.73975, 258.03076, 262.7373, 265.86621, 268.91602, 273.271, 275.73633, 282.24023, 286.81934, " y="467, ">
				time) when the property was
		</text>
		<text fill="gray" font-size="9" font-family="Segoe UI" x="177, 179.17969, 183.75879, 187.57764, 190.62744, 193.09277, 200.84473, 206.11816, 211.41797, 213.59766, 216.41455, 218.59424, 223.30078, 228.60059, 230.55176, 233.01709, 237.73242, 242.82568, 247.53223, 249.99756, 252.17725, 257.27051, 259.4502, 262.5, 264.67969, 269.25879, 271.43848, 273.90381, 278.21484, 282.79395, 284.97363, 290.06689, " y="479, ">
				last modified. The initial value
		</text>
		<text fill="gray" font-size="9" font-family="Segoe UI" x="177, 179.17969, 182.99854, 185.46387, 188.51367, 193.60693, 198.31348, 200.77881, 206.07861, 210.65771, 213.70752, 218.41406, 220.87939, 223.59521, 228.17432, 233.26758, 238.56738, 240.51855, 242.98389, 248.25732, 253.54834, 256.59814, 258.77783, 264.05127, 269.14453, 273.72363, 275.90332, 278.08301, 282.43799, " y="491, ">
				is the date (and, optionally,
		</text>
		<text fill="gray" font-size="9" font-family="Segoe UI" x="177, 180.0498, 185.14307, 189.84961, 192.31494, 195.36475, 197.54443, 205.29639, 210.00293, 212.71875, 215.18408, 220.45752, 223.27441, 225.73975, 229.89697, 233.02588, 237.73242, 242.31152, 245.36133, 247.54102, 252.81445, 257.90771, 260.37305, 265.64648, 268.46338, 270.92871, 273.97852, 279.07178, " y="503, ">
				the time) of creation of the
		</text>
		<text fill="gray" font-size="9" font-family="Segoe UI" x="177, 182.29102, 185.41992, 190.69336, 195.98438, 200.69092, 203.81982, 206.86963, 211.22461, " y="515, ">
				property.
		</text>
		<rect fill="white" x="181" y="420" width="53" height="16"/>
		<text font-size="12" font-weight="600" font-family="Segoe UI" x="181, 191.99219, 199.32812, 206.75781, 210.16797, 214.76758, 218.17773, 224.66992, " y="433, ">
				modified
		</text>
		<rect fill="none" stroke="black" stroke-width="1" stroke-linecap="square" stroke-miterlimit="4" transform="translate(0.5 0.5)" x="172" y="418" width="68" height="20"/>
		<rect fill="silver" x="176" y="528" width="59" height="21"/>
		<rect fill="white" x="172" y="524" width="59" height="21"/>
		<rect fill="white" x="177" y="551" width="118" height="108"/>
		<text fill="gray" font-size="9" font-family="Segoe UI" x="177, 179.39502, 182.21191, 184.67725, 188.49609, 193.20264, 196.25244, 198.71777, 201.76758, 207.04102, 209.50635, 212.55615, 215.68506, 220.77832, 225.48486, 227.9502, 231, 236.09326, " y="561, ">
				If set to true the
		</text>
		<text fill="gray" font-size="9" font-family="Segoe UI" x="177, 181.15723, 186.43066, 189.55957, 192.68848, 197.39502, 201.21387, 206.50488, 211.77832, 216.87158, 222.17139, 224.35107, 229.44434, 234.74414, 237.20947, 242.50049, 245.62939, 250.90283, 256.19385, 260.90039, 264.0293, 267.0791, 271.43408, 273.89941, 280.40332, 284.98242, " y="573, ">
				corresponding property was
		</text>
		<text fill="gray" font-size="9" font-family="Segoe UI" x="177, 181.5791, 186.87891, 192.17871, 196.88525, 202.18506, 204.65039, 207.7002, 212.97363, 215.43896, 218.48877, 223.58203, 228.28857, 230.75391, 236.92822, 241.77979, 244.24512, 246.64014, 249.68994, 254.39648, 262.14844, 264.61377, 267.43066, 272.7041, 275.83301, 278.29834, " y="585, ">
				added to the G2 Item for a
		</text>
		<text fill="gray" font-size="9" font-family="Segoe UI" x="177, 180.81885, 186.10986, 190.81641, 194.97363, 197.15332, 199.97021, 202.1499, 206.30713, 208.77246, 212.92969, 218.02295, 221.8418, 224.8916, 230.16504, 237.91699, 242.62354, 245.75244, 248.21777, 253.49121, 256.62012, 259.08545, 264.38525, 267.51416, 272.7876, 277.88086, 283.17188, 285.63721, 290.91064, " y="597, ">
				specific customer or group of
		</text>
		<text fill="gray" font-size="9" font-family="Segoe UI" x="177, 181.15723, 186.25049, 190.06934, 193.11914, 198.39258, 206.14453, 210.85107, 213.97998, 217.79883, 220.26416, 225.5376, 230.63086, 232.81055, 237.16553, 239.1167, 241.58203, 246.29736, 251.39062, 256.09717, 258.5625, 263.8623, 268.56885, 271.38574, 275.96484, 281.05811, 283.23779, " y="609, ">
				customers only. The default
		</text>
		<text fill="gray" font-size="9" font-family="Segoe UI" x="177, 181.31104, 185.89014, 188.06982, 193.16309, 197.86963, 200.33496, 205.6084, 208.42529, 210.89062, 213.94043, 219.03369, 221.21338, 225.03223, 227.49756, 232.78857, 235.91748, 241.19092, 246.48193, 251.18848, 254.31738, 257.36719, 261.72217, 264.1875, 266.36719, 270.18604, 272.65137, 275.46826, 280.04736, 282.22705, 286.0459, " y="621, ">
				value of this property is false
		</text>
		<text fill="gray" font-size="9" font-family="Segoe UI" x="177, 183.50391, 188.59717, 190.77686, 194.93408, 200.02734, 202.49268, 207.07178, 212.36279, 217.65381, 219.8335, 222.01318, 226.71973, 230.53857, 233.00391, 239.50781, 244.60107, 249.30762, 254.40088, 256.86621, 259.91602, 265.00928, 267.18896, " y="633, ">
				which applies when this
		</text>
		<text fill="gray" font-size="9" font-family="Segoe UI" x="177, 181.5791, 184.62891, 187.67871, 190.80762, 192.9873, 198.27832, 203.37158, 206.42139, 211.12793, 213.59326, 215.77295, 219.5918, 222.05713, 227.15039, 232.42383, 235.47363, 237.93896, 243.03223, 246.85107, 251.55762, 256.85742, 259.32275, 265.82666, 268.00635, 271.05615, 276.14941, 278.61475, 281.66455, 286.75781, " y="645, ">
				attribute is not used with the
		</text>
		<text fill="gray" font-size="9" font-family="Segoe UI" x="177, 182.29102, 185.41992, 190.69336, 195.98438, 200.69092, 203.81982, 206.86963, 211.22461, " y="657, ">
				property.
		</text>
		<rect fill="white" x="181" y="526" width="43" height="16"/>
		<text font-size="12" font-weight="600" font-family="Segoe UI" x="181, 186.75977, 194.01953, 199.29883, 203.92188, 211.25781, " y="539, ">
				custom
		</text>
		<rect fill="none" stroke="black" stroke-width="1" stroke-linecap="square" stroke-miterlimit="4" transform="translate(0.5 0.5)" x="172" y="524" width="58" height="20"/>
		<rect fill="silver" x="176" y="670" width="52" height="21"/>
		<rect fill="white" x="172" y="666" width="52" height="21"/>
		<rect fill="white" x="177" y="693" width="118" height="48"/>
		<text fill="gray" font-size="9" font-family="Segoe UI" x="177, 179.39502, 184.48828, 189.78809, 191.96777, 196.125, 200.7041, 203.75391, 208.46045, 212.2793, 214.74463, 220.03564, 224.39062, 226.85596, 233.35986, 238.45312, 240.63281, 244.79004, 249.8833, 252.34863, 260.10059, 264.80713, 269.38623, 274.47949, 278.29834, 280.76367, 283.81348, 288.90674, " y="703, ">
				Indicates by which means the
		</text>
		<text fill="gray" font-size="9" font-family="Segoe UI" x="177, 181.31104, 185.89014, 188.06982, 193.16309, 197.86963, 200.33496, 206.83887, 211.41797, 215.23682, 217.70215, 222.40869, 226.53955, 229.58936, 232.71826, 237.29736, 241.45459, 244.50439, 249.21094, 254.51074, 256.97607, 259.79297, 262.92188, 268.19531, 275.94727, 278.4126, 281.4624, 286.55566, " y="715, ">
				value was extracted from the
		</text>
		<text fill="gray" font-size="9" font-family="Segoe UI" x="177, 181.15723, 186.43066, 191.52393, 194.57373, 199.28027, 204.37354, 207.42334, 209.88867, 213.48779, 215.95312, 220.65967, 224.79053, 230.08154, 233.21045, 237.91699, 241.73584, 245.55469, 250.26123, 255.56104, 258.02637, 263.31738, 267.67236, 270.1377, " y="727, ">
				content - expressed by a
		</text>
		<text fill="gray" font-size="9" font-family="Segoe UI" x="177, 183.78516, 189.35742, 194.63086, 199.93066, " y="739, ">
				QCode
		</text>
		<rect fill="white" x="181" y="668" width="36" height="16"/>
		<text font-size="12" font-weight="600" font-family="Segoe UI" x="181, 188.22461, 195.56055, " y="681, ">
				how
		</text>
		<rect fill="none" stroke="black" stroke-width="1" stroke-linecap="square" stroke-miterlimit="4" transform="translate(0.5 0.5)" x="172" y="666" width="51" height="20"/>
		<rect fill="silver" x="176" y="752" width="57" height="21"/>
		<rect fill="white" x="172" y="748" width="57" height="21"/>
		<rect fill="white" x="177" y="775" width="118" height="36"/>
		<text fill="gray" font-size="9" font-family="Segoe UI" x="177, 179.39502, 184.48828, 189.78809, 191.96777, 196.125, 200.7041, 203.75391, 208.46045, 212.2793, 214.74463, 220.03564, 224.39062, 226.85596, 233.35986, 238.45312, 240.63281, 244.79004, 249.8833, 252.34863, 260.10059, 264.80713, 269.38623, 274.47949, 278.29834, 280.76367, 283.81348, 288.90674, " y="785, ">
				Indicates by which means the
		</text>
		<text fill="gray" font-size="9" font-family="Segoe UI" x="177, 181.31104, 185.89014, 188.06982, 193.16309, 197.86963, 200.33496, 206.83887, 211.41797, 215.23682, 217.70215, 222.40869, 226.53955, 229.58936, 232.71826, 237.29736, 241.45459, 244.50439, 249.21094, 254.51074, 256.97607, 259.79297, 262.92188, 268.19531, 275.94727, 278.4126, 281.4624, 286.55566, " y="797, ">
				value was extracted from the
		</text>
		<text fill="gray" font-size="9" font-family="Segoe UI" x="177, 181.15723, 186.43066, 191.52393, 194.57373, 199.28027, 204.37354, 207.42334, 209.88867, 213.48779, 215.95312, 220.65967, 224.79053, 230.08154, 233.21045, 237.91699, 241.73584, 245.55469, 250.26123, 255.56104, 258.02637, 263.31738, 267.67236, 270.1377, 274.7168, 277.18213, 283.36523, 288.74854, " y="809, ">
				content - expressed by a URI
		</text>
		<rect fill="white" x="181" y="750" width="41" height="16"/>
		<text font-size="12" font-weight="600" font-family="Segoe UI" x="181, 188.22461, 195.56055, 205.12891, 212.38867, 217.21094, " y="763, ">
				howuri
		</text>
		<rect fill="none" stroke="black" stroke-width="1" stroke-linecap="square" stroke-miterlimit="4" transform="translate(0.5 0.5)" x="172" y="748" width="56" height="20"/>
		<rect fill="silver" x="176" y="822" width="52" height="21"/>
		<rect fill="white" x="172" y="818" width="52" height="21"/>
		<rect fill="white" x="177" y="845" width="113" height="36"/>
		<text fill="gray" font-size="9" font-family="Segoe UI" x="177, 185.40674, 190.5, 194.85498, 197.32031, 200.37012, 205.46338, 210.16992, 212.63525, 220.38721, 225.09375, 228.14355, 232.72266, 238.02246, 242.60156, 245.65137, 250.23047, 252.6958, 257.78906, 262.36816, 266.18701, 268.65234, 273.94336, 278.6499, 283.35645, " y="855, ">
				Why the metadata has been
		</text>
		<text fill="gray" font-size="9" font-family="Segoe UI" x="177, 179.17969, 184.27295, 188.43018, 190.60986, 195.70312, 201.00293, 205.70947, 211.00928, 213.47461, 217.07373, 219.53906, 224.24561, 228.37646, 233.66748, 236.79639, 241.50293, 245.32178, 249.14062, 253.84717, 259.14697, 261.6123, 266.90332, 271.2583, 273.72363, " y="867, ">
				included - expressed by a
		</text>
		<text fill="gray" font-size="9" font-family="Segoe UI" x="177, 183.78516, 189.35742, 194.63086, 199.93066, " y="879, ">
				QCode
		</text>
		<rect fill="white" x="181" y="820" width="36" height="16"/>
		<text font-size="12" font-weight="600" font-family="Segoe UI" x="181, 190.56836, 197.79297, " y="833, ">
				why
		</text>
		<rect fill="none" stroke="black" stroke-width="1" stroke-linecap="square" stroke-miterlimit="4" transform="translate(0.5 0.5)" x="172" y="818" width="51" height="20"/>
		<rect fill="silver" x="176" y="892" width="56" height="21"/>
		<rect fill="white" x="172" y="888" width="56" height="21"/>
		<rect fill="white" x="177" y="915" width="119" height="24"/>
		<text fill="gray" font-size="9" font-family="Segoe UI" x="177, 185.40674, 190.5, 194.85498, 197.32031, 200.37012, 205.46338, 210.16992, 212.63525, 220.38721, 225.09375, 228.14355, 232.72266, 238.02246, 242.60156, 245.65137, 250.23047, 252.6958, 257.78906, 262.36816, 266.18701, 268.65234, 273.94336, 278.6499, 283.35645, " y="925, ">
				Why the metadata has been
		</text>
		<text fill="gray" font-size="9" font-family="Segoe UI" x="177, 179.17969, 184.27295, 188.43018, 190.60986, 195.70312, 201.00293, 205.70947, 211.00928, 213.47461, 217.07373, 219.53906, 224.24561, 228.37646, 233.66748, 236.79639, 241.50293, 245.32178, 249.14062, 253.84717, 259.14697, 261.6123, 266.90332, 271.2583, 273.72363, 278.30273, 280.76807, 286.95117, 292.33447, " y="937, ">
				included - expressed by a URI
		</text>
		<rect fill="white" x="181" y="890" width="40" height="16"/>
		<text font-size="12" font-weight="600" font-family="Segoe UI" x="181, 190.56836, 197.79297, 204.25, 211.50977, 216.33203, " y="903, ">
				whyuri
		</text>
		<rect fill="none" stroke="black" stroke-width="1" stroke-linecap="square" stroke-miterlimit="4" transform="translate(0.5 0.5)" x="172" y="888" width="55" height="20"/>
		<rect fill="silver" x="176" y="950" width="97" height="21"/>
		<rect fill="white" x="172" y="946" width="97" height="21"/>
		<rect fill="white" x="177" y="973" width="117" height="72"/>
		<text fill="gray" font-size="9" font-family="Segoe UI" x="177, 183.78516, 188.87842, 193.58496, 196.05029, 201.32373, 204.45264, 206.91797, 214.66992, 219.24902, 224.34229, 228.69727, 231.1626, 235.31982, 240.59326, 245.68652, 249.50537, 252.55518, 255.68408, 260.26318, 262.44287, 267.53613, 270.58594, 274.40479, 276.87012, 279.91992, 285.01318, 289.59229, " y="983, ">
				One or many constraints that
		</text>
		<text fill="gray" font-size="9" font-family="Segoe UI" x="177, 181.5791, 186.87012, 192.16113, 194.34082, 198.6958, 201.16113, 204.21094, 209.48438, 211.94971, 217.24072, 222.33398, 227.625, 229.80469, 231.98438, 235.80322, 240.89648, 243.07617, 248.16943, 253.46924, 255.93457, 258.98438, 264.07764, 268.78418, 271.24951, 275.56055, 280.13965, 282.31934, 287.4126, " y="995, ">
				apply to publishing the value
		</text>
		<text fill="gray" font-size="9" font-family="Segoe UI" x="177, 182.27344, 185.09033, 187.55566, 190.60547, 195.69873, 200.40527, 202.87061, 208.16162, 211.29053, 216.56396, 221.85498, 226.56152, 229.69043, 232.74023, 237.09521, 239.56055, 243.15967, 245.625, 250.33154, 254.4624, 259.75342, 262.88232, 267.58887, 271.40771, 275.22656, 279.93311, " y="1007, ">
				of the property - expressed
		</text>
		<text fill="gray" font-size="9" font-family="Segoe UI" x="177, 182.29102, 186.646, 189.11133, 193.69043, 196.15576, 202.94092, 208.51318, 213.78662, 219.08643, 223.79297, 225.74414, 228.20947, 232.76221, 237.34131, 241.49854, 246.5918, 249.05713, 253.21436, 258.48779, 263.58105, 267.3999, 270.44971, 273.57861, 278.15771, 280.3374, 285.43066, " y="1019, ">
				by a QCode. Each constraint
		</text>
		<text fill="gray" font-size="9" font-family="Segoe UI" x="177, 181.5791, 186.87012, 192.16113, 194.34082, 196.52051, 201.22705, 205.0459, 207.51123, 210.56104, 215.83447, 218.2998, 222.87891, 225.05859, 227.23828, 229.70361, 235.00342, 239.70996, 243.52881, 247.68604, 252.39258, 257.48584, 262.78564, 267.36475, 272.45801, " y="1031, ">
				applies to all descendant
		</text>
		<text fill="gray" font-size="9" font-family="Segoe UI" x="177, 181.70654, 183.88623, 188.59277, 196.34473, 201.05127, 206.14453, 209.19434, 213.01318, " y="1043, ">
				elements.
		</text>
		<rect fill="white" x="181" y="948" width="81" height="16"/>
		<text font-size="12" font-weight="600" font-family="Segoe UI" x="181, 188.44141, 195.70117, 203.14258, 208.90234, 216.23828, 223.49805, 228.77734, 233.44727, 238.22266, 244.67969, 248.08984, 255.34961, " y="961, ">
				pubconstraint
		</text>
		<rect fill="none" stroke="black" stroke-width="1" stroke-linecap="square" stroke-miterlimit="4" transform="translate(0.5 0.5)" x="172" y="946" width="96" height="20"/>
		<rect fill="silver" x="176" y="1056" width="112" height="21"/>
		<rect fill="white" x="172" y="1052" width="112" height="21"/>
		<rect fill="white" x="177" y="1079" width="117" height="72"/>
		<text fill="gray" font-size="9" font-family="Segoe UI" x="177, 183.78516, 188.87842, 193.58496, 196.05029, 201.32373, 204.45264, 206.91797, 214.66992, 219.24902, 224.34229, 228.69727, 231.1626, 235.31982, 240.59326, 245.68652, 249.50537, 252.55518, 255.68408, 260.26318, 262.44287, 267.53613, 270.58594, 274.40479, 276.87012, 279.91992, 285.01318, 289.59229, " y="1089, ">
				One or many constraints that
		</text>
		<text fill="gray" font-size="9" font-family="Segoe UI" x="177, 181.5791, 186.87012, 192.16113, 194.34082, 198.6958, 201.16113, 204.21094, 209.48438, 211.94971, 217.24072, 222.33398, 227.625, 229.80469, 231.98438, 235.80322, 240.89648, 243.07617, 248.16943, 253.46924, 255.93457, 258.98438, 264.07764, 268.78418, 271.24951, 275.56055, 280.13965, 282.31934, 287.4126, " y="1101, ">
				apply to publishing the value
		</text>
		<text fill="gray" font-size="9" font-family="Segoe UI" x="177, 182.27344, 185.09033, 187.55566, 190.60547, 195.69873, 200.40527, 202.87061, 208.16162, 211.29053, 216.56396, 221.85498, 226.56152, 229.69043, 232.74023, 237.09521, 239.56055, 243.15967, 245.625, 250.33154, 254.4624, 259.75342, 262.88232, 267.58887, 271.40771, 275.22656, 279.93311, " y="1113, ">
				of the property - expressed
		</text>
		<text fill="gray" font-size="9" font-family="Segoe UI" x="177, 182.29102, 186.646, 189.11133, 193.69043, 196.15576, 202.33887, 207.72217, 210.11719, 212.06836, 214.53369, 219.08643, 223.66553, 227.82275, 232.91602, 235.38135, 239.53857, 244.81201, 249.90527, 253.72412, 256.77393, 259.90283, 264.48193, 266.66162, 271.75488, " y="1125, ">
				by a URI. Each constraint
		</text>
		<text fill="gray" font-size="9" font-family="Segoe UI" x="177, 181.5791, 186.87012, 192.16113, 194.34082, 196.52051, 201.22705, 205.0459, 207.51123, 210.56104, 215.83447, 218.2998, 222.87891, 225.05859, 227.23828, 229.70361, 235.00342, 239.70996, 243.52881, 247.68604, 252.39258, 257.48584, 262.78564, 267.36475, 272.45801, " y="1137, ">
				applies to all descendant
		</text>
		<text fill="gray" font-size="9" font-family="Segoe UI" x="177, 181.70654, 183.88623, 188.59277, 196.34473, 201.05127, 206.14453, 209.19434, 213.01318, " y="1149, ">
				elements.
		</text>
		<rect fill="white" x="181" y="1054" width="96" height="16"/>
		<text font-size="12" font-weight="600" font-family="Segoe UI" x="181, 188.44141, 195.70117, 203.14258, 208.90234, 216.23828, 223.49805, 228.77734, 233.44727, 238.22266, 244.67969, 248.08984, 255.34961, 260.01953, 267.2793, 272.10156, " y="1067, ">
				pubconstrainturi
		</text>
		<rect fill="none" stroke="black" stroke-width="1" stroke-linecap="square" stroke-miterlimit="4" transform="translate(0.5 0.5)" x="172" y="1052" width="111" height="20"/>
		<rect fill="silver" x="176" y="1162" width="52" height="21"/>
		<rect fill="white" x="172" y="1158" width="52" height="21"/>
		<rect fill="white" x="177" y="1185" width="120" height="36"/>
		<text fill="gray" font-size="9" font-family="Segoe UI" x="177, 182.80518, 185.27051, 188.39941, 193.10596, 195.92285, 198.10254, 203.1958, 207.90234, 215.6543, 220.36084, 225.4541, 228.50391, 230.96924, 236.24268, 239.05957, 241.5249, 244.57471, 249.66797, 254.37451, 256.83984, 260.65869, 265.36523, 273.11719, 277.69629, 282.78955, 285.83936, 288.01904, 292.17627, " y="1195, ">
				A refinement of the semantics
		</text>
		<text fill="gray" font-size="9" font-family="Segoe UI" x="177, 182.27344, 185.09033, 187.55566, 192.13477, 194.6001, 198.75732, 204.03076, 209.12402, 212.17383, 216.75293, 220.91016, 223.95996, 226.42529, 228.60498, 233.69824, 236.51514, 241.78857, 244.91748, 252.66943, 257.24854, 260.29834, 262.47803, 267.75146, 272.84473, 275.31006, " y="1207, ">
				of a contact information -
		</text>
		<text fill="gray" font-size="9" font-family="Segoe UI" x="177, 181.70654, 185.8374, 191.12842, 194.25732, 198.96387, 202.78271, 206.60156, 211.30811, 216.60791, 219.07324, 224.36426, 228.71924, 231.18457, 235.76367, 238.229, 245.01416, 250.58643, 255.85986, 261.15967, " y="1219, ">
				expressed by a QCode
		</text>
		<rect fill="white" x="181" y="1160" width="36" height="16"/>
		<text font-size="12" font-weight="600" font-family="Segoe UI" x="181, 185.72852, 193.06445, 196.47461, " y="1173, ">
				role
		</text>
		<rect fill="none" stroke="black" stroke-width="1" stroke-linecap="square" stroke-miterlimit="4" transform="translate(0.5 0.5)" x="172" y="1158" width="51" height="20"/>
		<rect fill="silver" x="176" y="1232" width="55" height="21"/>
		<rect fill="white" x="172" y="1228" width="55" height="21"/>
		<rect fill="white" x="177" y="1255" width="120" height="36"/>
		<text fill="gray" font-size="9" font-family="Segoe UI" x="177, 182.80518, 185.27051, 188.39941, 193.10596, 195.92285, 198.10254, 203.1958, 207.90234, 215.6543, 220.36084, 225.4541, 228.50391, 230.96924, 236.24268, 239.05957, 241.5249, 244.57471, 249.66797, 254.37451, 256.83984, 260.65869, 265.36523, 273.11719, 277.69629, 282.78955, 285.83936, 288.01904, 292.17627, " y="1265, ">
				A refinement of the semantics
		</text>
		<text fill="gray" font-size="9" font-family="Segoe UI" x="177, 182.27344, 185.09033, 187.55566, 192.13477, 194.6001, 198.75732, 204.03076, 209.12402, 212.17383, 216.75293, 220.91016, 223.95996, 226.42529, 228.60498, 233.69824, 236.51514, 241.78857, 244.91748, 252.66943, 257.24854, 260.29834, 262.47803, 267.75146, 272.84473, 275.31006, " y="1277, ">
				of a contact information -
		</text>
		<text fill="gray" font-size="9" font-family="Segoe UI" x="177, 181.70654, 185.8374, 191.12842, 194.25732, 198.96387, 202.78271, 206.60156, 211.30811, 216.60791, 219.07324, 224.36426, 228.71924, 231.18457, 235.76367, 238.229, 244.41211, 249.79541, " y="1289, ">
				expressed by a URI
		</text>
		<rect fill="white" x="181" y="1230" width="39" height="16"/>
		<text font-size="12" font-weight="600" font-family="Segoe UI" x="181, 185.72852, 193.06445, 196.47461, 202.9668, 210.22656, 215.04883, " y="1243, ">
				roleuri
		</text>
		<rect fill="none" stroke="black" stroke-width="1" stroke-linecap="square" stroke-miterlimit="4" transform="translate(0.5 0.5)" x="172" y="1228" width="54" height="20"/>
		<path fill="silver" d="M176 1307L181 1302L249 1302L254 1307L254 1318L249 1323L181 1323L176 1318L176 1307Z"/>
		<path fill="white" d="M172 1303L177 1298L245 1298L250 1303L250 1314L245 1319L177 1319L172 1314L172 1303Z"/>
		<rect fill="white" x="199" y="1300" width="46" height="16"/>
		<text font-size="12" font-weight="600" font-family="Segoe UI" x="199, 206.10742, 213.21484, 220.55078, 225.2207, 232.44531, 238.9375, " y="1313, ">
				##other
		</text>
		<rect fill="white" x="177" y="1300" width="20" height="16"/>
		<text fill="gray" font-size="12" font-family="Segoe UI" x="177, 183.10547, 189.89648, " y="1313, ">
				any
		</text>
		<path fill="none" stroke="black" stroke-width="1" stroke-linecap="square" stroke-miterlimit="4" transform="translate(0.5 0.5)" d="M172 1303L177 1298L244 1298L249 1303L249 1313L244 1318L177 1318L172 1313L172 1303Z"/>
		<rect x="163" y="41" width="11" height="11"/>
		<rect fill="white" x="164" y="42" width="9" height="9"/>
		<rect x="165" y="46" width="7" height="1"/>
		<path transform="translate(0.5 0.5)" d="M203 1639.5L205 1639.5L205.5 1639.5L205.5 1640.5L205 1640.5L202.5 1640.5L202.5 1639.5L203 1639.5ZM209 1639.5L211.5 1639.5L211.5 1640.5L208.5 1640.5L208.5 1639.5L209 1639.5Z"/>
		<path transform="translate(0.5 0.5)" d="M211.5 1640L211.5 1638L211.5 1637.5L212.5 1637.5L212.5 1638L212.5 1640.5L211.5 1640.5L211.5 1640ZM211.5 1634L211.5 1632L211.5 1631.5L212.5 1631.5L212.5 1632L212.5 1634.5L211.5 1634.5L211.5 1634ZM211.5 1628L211.5 1626L211.5 1625.5L212.5 1625.5L212.5 1626L212.5 1628.5L211.5 1628.5L211.5 1628ZM211.5 1622L211.5 1620L211.5 1619.5L212.5 1619.5L212.5 1620L212.5 1622.5L211.5 1622.5L211.5 1622ZM211.5 1616L211.5 1614L211.5 1613.5L212.5 1613.5L212.5 1614L212.5 1616.5L211.5 1616.5L211.5 1616ZM211.5 1610L211.5 1608L211.5 1607.5L212.5 1607.5L212.5 1608L212.5 1610.5L211.5 1610.5L211.5 1610ZM211.5 1604L211.5 1602L211.5 1601.5L212.5 1601.5L212.5 1602L212.5 1604.5L211.5 1604.5L211.5 1604ZM211.5 1598L211.5 1596L211.5 1595.5L212.5 1595.5L212.5 1596L212.5 1598.5L211.5 1598.5L211.5 1598ZM211.5 1592L211.5 1590L211.5 1589.5L212.5 1589.5L212.5 1590L212.5 1592.5L211.5 1592.5L211.5 1592ZM211.5 1586L211.5 1584L211.5 1583.5L212.5 1583.5L212.5 1584L212.5 1586.5L211.5 1586.5L211.5 1586ZM211.5 1580L211.5 1578L211.5 1577.5L212.5 1577.5L212.5 1578L212.5 1580.5L211.5 1580.5L211.5 1580ZM211.5 1574L211.5 1572L211.5 1571.5L212.5 1571.5L212.5 1572L212.5 1574.5L211.5 1574.5L211.5 1574ZM211.5 1568L211.5 1566L211.5 1565.5L212.5 1565.5L212.5 1566L212.5 1568.5L211.5 1568.5L211.5 1568ZM211.5 1562L211.5 1560L211.5 1559.5L212.5 1559.5L212.5 1560L212.5 1562.5L211.5 1562.5L211.5 1562ZM211.5 1556L211.5 1554L211.5 1553.5L212.5 1553.5L212.5 1554L212.5 1556.5L211.5 1556.5L211.5 1556ZM211.5 1550L211.5 1548L211.5 1547.5L212.5 1547.5L212.5 1548L212.5 1550.5L211.5 1550.5L211.5 1550ZM211.5 1544L211.5 1542L211.5 1541.5L212.5 1541.5L212.5 1542L212.5 1544.5L211.5 1544.5L211.5 1544ZM211.5 1538L211.5 1536L211.5 1535.5L212.5 1535.5L212.5 1536L212.5 1538.5L211.5 1538.5L211.5 1538ZM211.5 1532L211.5 1530L211.5 1529.5L212.5 1529.5L212.5 1530L212.5 1532.5L211.5 1532.5L211.5 1532ZM211.5 1526L211.5 1523.5L212.5 1523.5L212.5 1526.5L211.5 1526.5L211.5 1526Z"/>
		<path transform="translate(0.5 0.5)" d="M212.5 1640L212.5 1642L212.5 1642.5L211.5 1642.5L211.5 1642L211.5 1639.5L212.5 1639.5L212.5 1640ZM212.5 1646L212.5 1648L212.5 1648.5L211.5 1648.5L211.5 1648L211.5 1645.5L212.5 1645.5L212.5 1646ZM212.5 1652L212.5 1654L212.5 1654.5L211.5 1654.5L211.5 1654L211.5 1651.5L212.5 1651.5L212.5 1652ZM212.5 1658L212.5 1660L212.5 1660.5L211.5 1660.5L211.5 1660L211.5 1657.5L212.5 1657.5L212.5 1658ZM212.5 1664L212.5 1666L212.5 1666.5L211.5 1666.5L211.5 1666L211.5 1663.5L212.5 1663.5L212.5 1664ZM212.5 1670L212.5 1672L212.5 1672.5L211.5 1672.5L211.5 1672L211.5 1669.5L212.5 1669.5L212.5 1670ZM212.5 1676L212.5 1678L212.5 1678.5L211.5 1678.5L211.5 1678L211.5 1675.5L212.5 1675.5L212.5 1676ZM212.5 1682L212.5 1684L212.5 1684.5L211.5 1684.5L211.5 1684L211.5 1681.5L212.5 1681.5L212.5 1682ZM212.5 1688L212.5 1690L212.5 1690.5L211.5 1690.5L211.5 1690L211.5 1687.5L212.5 1687.5L212.5 1688ZM212.5 1694L212.5 1696L212.5 1696.5L211.5 1696.5L211.5 1696L211.5 1693.5L212.5 1693.5L212.5 1694ZM212.5 1700L212.5 1702L212.5 1702.5L211.5 1702.5L211.5 1702L211.5 1699.5L212.5 1699.5L212.5 1700ZM212.5 1706L212.5 1708L212.5 1708.5L211.5 1708.5L211.5 1708L211.5 1705.5L212.5 1705.5L212.5 1706ZM212.5 1712L212.5 1714L212.5 1714.5L211.5 1714.5L211.5 1714L211.5 1711.5L212.5 1711.5L212.5 1712ZM212.5 1718L212.5 1720L212.5 1720.5L211.5 1720.5L211.5 1720L211.5 1717.5L212.5 1717.5L212.5 1718ZM212.5 1724L212.5 1726L212.5 1726.5L211.5 1726.5L211.5 1726L211.5 1723.5L212.5 1723.5L212.5 1724ZM212.5 1730L212.5 1732L212.5 1732.5L211.5 1732.5L211.5 1732L211.5 1729.5L212.5 1729.5L212.5 1730ZM212.5 1736L212.5 1738L212.5 1738.5L211.5 1738.5L211.5 1738L211.5 1735.5L212.5 1735.5L212.5 1736ZM212.5 1742L212.5 1744L212.5 1744.5L211.5 1744.5L211.5 1744L211.5 1741.5L212.5 1741.5L212.5 1742ZM212.5 1748L212.5 1750L212.5 1750.5L211.5 1750.5L211.5 1750L211.5 1747.5L212.5 1747.5L212.5 1748ZM212.5 1754L212.5 1756.5L211.5 1756.5L211.5 1753.5L212.5 1753.5L212.5 1754Z"/>
		<path transform="translate(0.5 0.5)" d="M212 1522.5L214 1522.5L214.5 1522.5L214.5 1523.5L214 1523.5L211.5 1523.5L211.5 1522.5L212 1522.5ZM218 1522.5L220 1522.5L220.5 1522.5L220.5 1523.5L220 1523.5L217.5 1523.5L217.5 1522.5L218 1522.5ZM224 1522.5L226.5 1522.5L226.5 1523.5L223.5 1523.5L223.5 1522.5L224 1522.5Z"/>
		<path transform="translate(0.5 0.5)" d="M212 1756.5L214 1756.5L214.5 1756.5L214.5 1757.5L214 1757.5L211.5 1757.5L211.5 1756.5L212 1756.5ZM218 1756.5L220 1756.5L220.5 1756.5L220.5 1757.5L220 1757.5L217.5 1757.5L217.5 1756.5L218 1756.5ZM224 1756.5L226.5 1756.5L226.5 1757.5L223.5 1757.5L223.5 1756.5L224 1756.5Z"/>
		<path fill="silver" d="M162 1639L167 1634L192 1634L197 1639L197 1650L192 1655L167 1655L162 1650L162 1639Z"/>
		<path fill="white" d="M158 1635L163 1630L188 1630L193 1635L193 1646L188 1651L163 1651L158 1646L158 1635Z"/>
		<path fill="none" stroke="black" stroke-width="1" stroke-linecap="square" stroke-miterlimit="4" transform="translate(0.5 0.5)" d="M163 1640L187 1640"/>
		<rect x="169" y="1639" width="3" height="3"/>
		<rect x="174" y="1639" width="3" height="3"/>
		<rect x="179" y="1639" width="3" height="3"/>
		<path fill="none" stroke="black" stroke-width="1" stroke-linecap="square" stroke-miterlimit="4" transform="translate(0.5 0.5)" d="M158 1635L163 1630L187 1630L192 1635L192 1645L187 1650L163 1650L158 1645L158 1635Z"/>
		<path fill="none" stroke="black" stroke-width="1" stroke-linecap="square" stroke-miterlimit="4" transform="translate(0.5 0.5)" d="M272 1523L280 1523"/>
		<path fill="none" stroke="black" stroke-width="1" stroke-linecap="square" stroke-miterlimit="4" transform="translate(0.5 0.5)" d="M281 1523L281 1353"/>
		<path fill="none" stroke="black" stroke-width="1" stroke-linecap="square" stroke-miterlimit="4" transform="translate(0.5 0.5)" d="M281 1523L281 1693"/>
		<path fill="none" stroke="black" stroke-width="1" stroke-linecap="square" stroke-miterlimit="4" transform="translate(0.5 0.5)" d="M281 1352L295 1352"/>
		<path fill="none" stroke="black" stroke-width="1" stroke-linecap="square" stroke-miterlimit="4" transform="translate(0.5 0.5)" d="M281 1403L295 1403"/>
		<path fill="none" stroke="black" stroke-width="1" stroke-linecap="square" stroke-miterlimit="4" transform="translate(0.5 0.5)" d="M281 1466L295 1466"/>
		<path fill="none" stroke="black" stroke-width="1" stroke-linecap="square" stroke-miterlimit="4" transform="translate(0.5 0.5)" d="M281 1529L295 1529"/>
		<path fill="none" stroke="black" stroke-width="1" stroke-linecap="square" stroke-miterlimit="4" transform="translate(0.5 0.5)" d="M281 1592L295 1592"/>
		<path fill="none" stroke="black" stroke-width="1" stroke-linecap="square" stroke-miterlimit="4" transform="translate(0.5 0.5)" d="M281 1643L295 1643"/>
		<path fill="none" stroke="black" stroke-width="1" stroke-linecap="square" stroke-miterlimit="4" transform="translate(0.5 0.5)" d="M281 1694L295 1694"/>
		<path fill="silver" d="M234 1525L239 1520L264 1520L269 1525L269 1536L264 1541L239 1541L234 1536L234 1525Z"/>
		<path fill="white" d="M230 1521L235 1516L259 1516L264 1521L264 1531L259 1536L235 1536L230 1531L230 1521Z"/>
		<path transform="translate(0.5 0.5)" d="M233.889 1516.4L234.793 1515.5L235.929 1515.5L236.429 1515.5L236.429 1516.5L235.929 1516.5L235 1516.5L235 1516L235.354 1516.35L234.243 1517.46L233.536 1516.76L233.889 1516.4ZM239.929 1515.5L241.929 1515.5L242.429 1515.5L242.429 1516.5L241.929 1516.5L239.429 1516.5L239.429 1515.5L239.929 1515.5ZM245.929 1515.5L247.929 1515.5L248.429 1515.5L248.429 1516.5L247.929 1516.5L245.429 1516.5L245.429 1515.5L245.929 1515.5ZM251.929 1515.5L253.929 1515.5L254.429 1515.5L254.429 1516.5L253.929 1516.5L251.429 1516.5L251.429 1515.5L251.929 1515.5ZM257.929 1515.5L259.207 1515.5L260.01 1516.3L260.364 1516.66L259.657 1517.36L259.303 1517.01L258.646 1516.35L259 1516L259 1516.5L257.429 1516.5L257.429 1515.5L257.929 1515.5ZM262.839 1519.13L264.253 1520.55L264.607 1520.9L263.899 1521.61L263.546 1521.25L261.778 1519.49L262.485 1518.78L262.839 1519.13ZM264.5 1524.86L264.5 1526.86L264.5 1527.36L263.5 1527.36L263.5 1526.86L263.5 1524.36L264.5 1524.36L264.5 1524.86ZM264.5 1530.86L264.5 1531.21L263.04 1532.67L262.686 1533.02L261.979 1532.31L262.333 1531.96L263.646 1530.65L264 1531L263.5 1531L263.5 1530.36L264.5 1530.36L264.5 1530.86ZM260.211 1535.5L259.207 1536.5L258.213 1536.5L257.713 1536.5L257.713 1535.5L258.213 1535.5L259 1535.5L259 1536L258.646 1535.65L259.858 1534.44L260.565 1535.14L260.211 1535.5ZM254.213 1536.5L252.213 1536.5L251.713 1536.5L251.713 1535.5L252.213 1535.5L254.713 1535.5L254.713 1536.5L254.213 1536.5ZM248.213 1536.5L246.213 1536.5L245.713 1536.5L245.713 1535.5L246.213 1535.5L248.713 1535.5L248.713 1536.5L248.213 1536.5ZM242.213 1536.5L240.213 1536.5L239.713 1536.5L239.713 1535.5L240.213 1535.5L242.713 1535.5L242.713 1536.5L242.213 1536.5ZM236.213 1536.5L234.793 1536.5L234.09 1535.8L233.737 1535.44L234.444 1534.74L234.797 1535.09L235.354 1535.65L235 1536L235 1535.5L236.713 1535.5L236.713 1536.5L236.213 1536.5ZM231.262 1532.97L229.847 1531.55L229.494 1531.2L230.201 1530.49L230.555 1530.85L232.322 1532.62L231.615 1533.32L231.262 1532.97ZM229.5 1527.28L229.5 1525.28L229.5 1524.78L230.5 1524.78L230.5 1525.28L230.5 1527.78L229.5 1527.78L229.5 1527.28ZM229.5 1521.28L229.5 1520.79L231.414 1518.88L232.121 1519.59L230.354 1521.35L230 1521L230.5 1521L230.5 1521.78L229.5 1521.78L229.5 1521.28Z"/>
		<path fill="white" d="M227 1518L232 1513L257 1513L262 1518L262 1529L257 1534L232 1534L227 1529L227 1518Z"/>
		<path fill="none" stroke="black" stroke-width="1" stroke-linecap="square" stroke-miterlimit="4" transform="translate(0.5 0.5)" d="M246 1534L252 1540L255 1537"/>
		<path fill="none" stroke="black" stroke-width="1" stroke-linecap="square" stroke-miterlimit="4" transform="translate(0.5 0.5)" d="M232 1523L237 1523L241 1519"/>
		<path fill="none" stroke="black" stroke-width="1" stroke-linecap="square" stroke-miterlimit="4" transform="translate(0.5 0.5)" d="M247 1523L255 1523"/>
		<path fill="none" stroke="black" stroke-width="1" stroke-linecap="square" stroke-miterlimit="4" transform="translate(0.5 0.5)" d="M247 1519L251 1519L251 1527L247 1527"/>
		<rect x="243" y="1518" width="3" height="3"/>
		<rect x="243" y="1522" width="3" height="3"/>
		<rect x="243" y="1526" width="3" height="3"/>
		<text font-size="12" font-family="Segoe UI" x="231.76562, " y="1553, ">
				0
		</text>
		<text font-size="12" font-family="Symbol" x="246.72266, " y="1552, ">
				¥
		</text>
		<text font-size="12" font-family="Segoe UI" x="239.89844, 242.5, " y="1553, ">
				..
		</text>
		<path transform="translate(0.5 0.5)" d="M230.889 1513.4L231.793 1512.5L232.929 1512.5L233.429 1512.5L233.429 1513.5L232.929 1513.5L232 1513.5L232 1513L232.354 1513.35L231.243 1514.46L230.536 1513.76L230.889 1513.4ZM236.929 1512.5L238.929 1512.5L239.429 1512.5L239.429 1513.5L238.929 1513.5L236.429 1513.5L236.429 1512.5L236.929 1512.5ZM242.929 1512.5L244.929 1512.5L245.429 1512.5L245.429 1513.5L244.929 1513.5L242.429 1513.5L242.429 1512.5L242.929 1512.5ZM248.929 1512.5L250.929 1512.5L251.429 1512.5L251.429 1513.5L250.929 1513.5L248.429 1513.5L248.429 1512.5L248.929 1512.5ZM254.929 1512.5L256.207 1512.5L257.01 1513.3L257.364 1513.66L256.657 1514.36L256.303 1514.01L255.646 1513.35L256 1513L256 1513.5L254.429 1513.5L254.429 1512.5L254.929 1512.5ZM259.839 1516.13L261.253 1517.55L261.607 1517.9L260.899 1518.61L260.546 1518.25L258.778 1516.49L259.485 1515.78L259.839 1516.13ZM261.5 1521.86L261.5 1523.86L261.5 1524.36L260.5 1524.36L260.5 1523.86L260.5 1521.36L261.5 1521.36L261.5 1521.86ZM261.5 1527.86L261.5 1528.21L260.04 1529.67L259.686 1530.02L258.979 1529.31L259.333 1528.96L260.646 1527.65L261 1528L260.5 1528L260.5 1527.36L261.5 1527.36L261.5 1527.86ZM257.211 1532.5L256.207 1533.5L255.213 1533.5L254.713 1533.5L254.713 1532.5L255.213 1532.5L256 1532.5L256 1533L255.646 1532.65L256.858 1531.44L257.565 1532.14L257.211 1532.5ZM251.213 1533.5L249.213 1533.5L248.713 1533.5L248.713 1532.5L249.213 1532.5L251.713 1532.5L251.713 1533.5L251.213 1533.5ZM245.213 1533.5L243.213 1533.5L242.713 1533.5L242.713 1532.5L243.213 1532.5L245.713 1532.5L245.713 1533.5L245.213 1533.5ZM239.213 1533.5L237.213 1533.5L236.713 1533.5L236.713 1532.5L237.213 1532.5L239.713 1532.5L239.713 1533.5L239.213 1533.5ZM233.213 1533.5L231.793 1533.5L231.09 1532.8L230.737 1532.44L231.444 1531.74L231.797 1532.09L232.354 1532.65L232 1533L232 1532.5L233.713 1532.5L233.713 1533.5L233.213 1533.5ZM228.262 1529.97L226.847 1528.55L226.494 1528.2L227.201 1527.49L227.555 1527.85L229.322 1529.62L228.615 1530.32L228.262 1529.97ZM226.5 1524.28L226.5 1522.28L226.5 1521.78L227.5 1521.78L227.5 1522.28L227.5 1524.78L226.5 1524.78L226.5 1524.28ZM226.5 1518.28L226.5 1517.79L228.414 1515.88L229.121 1516.59L227.354 1518.35L227 1518L227.5 1518L227.5 1518.78L226.5 1518.78L226.5 1518.28Z"/>
		<rect fill="silver" x="300" y="1346" width="53" height="21"/>
		<rect fill="white" x="296" y="1342" width="53" height="21"/>
		<rect fill="#FFFFC0" x="301" y="1369" width="71" height="12"/>
		<text fill="gray" font-size="9" font-family="Segoe UI" x="301, 306.80518, 311.89844, 314.36377, 319.07031, 326.82227, 331.40137, 333.58105, 335.76074, 338.22607, 342.80518, 348.10498, 353.40479, 356.53369, 361.24023, 365.05908, 368.87793, " y="1379, ">
				An email address.
		</text>
		<rect fill="white" x="305" y="1344" width="32" height="16"/>
		<text font-size="12" font-weight="600" font-family="Segoe UI" x="305, 311.49219, 322.48438, 328.94141, 332.35156, " y="1357, ">
				email
		</text>
		<path fill="none" stroke="black" stroke-width="1" stroke-linecap="square" stroke-miterlimit="4" transform="translate(0.5 0.5)" d="M298 1344L303 1344"/>
		<path fill="none" stroke="black" stroke-width="1" stroke-linecap="square" stroke-miterlimit="4" transform="translate(0.5 0.5)" d="M298 1346L302 1346"/>
		<path fill="none" stroke="black" stroke-width="1" stroke-linecap="square" stroke-miterlimit="4" transform="translate(0.5 0.5)" d="M298 1348L302 1348"/>
		<rect fill="none" stroke="black" stroke-width="1" stroke-linecap="square" stroke-miterlimit="4" transform="translate(0.5 0.5)" x="296" y="1342" width="52" height="20"/>
		<rect x="343" y="1347" width="11" height="11"/>
		<rect fill="white" x="344" y="1348" width="9" height="9"/>
		<rect x="345" y="1352" width="7" height="1"/>
		<rect x="348" y="1349" width="1" height="7"/>
		<rect fill="silver" x="300" y="1397" width="52" height="21"/>
		<rect fill="white" x="296" y="1393" width="52" height="21"/>
		<rect fill="#FFFFC0" x="301" y="1420" width="87" height="24"/>
		<text fill="gray" font-size="9" font-family="Segoe UI" x="301, 306.80518, 311.89844, 314.36377, 316.54346, 321.63672, 325.45557, 328.50537, 333.08447, 338.17773, 341.22754, 343.69287, 351.44482, 356.15137, 359.97021, 363.78906, 368.36816, 373.66797, 375.84766, 380.94092, " y="1430, ">
				An instant messaging
		</text>
		<text fill="gray" font-size="9" font-family="Segoe UI" x="301, 305.5791, 310.87891, 316.17871, 319.30762, 324.01416, 327.83301, 331.65186, " y="1442, ">
				address.
		</text>
		<rect fill="white" x="305" y="1395" width="31" height="16"/>
		<text font-size="12" font-weight="600" font-family="Segoe UI" x="305, 308.41016, " y="1408, ">
				im
		</text>
		<path fill="none" stroke="black" stroke-width="1" stroke-linecap="square" stroke-miterlimit="4" transform="translate(0.5 0.5)" d="M298 1395L303 1395"/>
		<path fill="none" stroke="black" stroke-width="1" stroke-linecap="square" stroke-miterlimit="4" transform="translate(0.5 0.5)" d="M298 1397L302 1397"/>
		<path fill="none" stroke="black" stroke-width="1" stroke-linecap="square" stroke-miterlimit="4" transform="translate(0.5 0.5)" d="M298 1399L302 1399"/>
		<rect fill="none" stroke="black" stroke-width="1" stroke-linecap="square" stroke-miterlimit="4" transform="translate(0.5 0.5)" x="296" y="1393" width="51" height="20"/>
		<rect x="342" y="1398" width="11" height="11"/>
		<rect fill="white" x="343" y="1399" width="9" height="9"/>
		<rect x="344" y="1403" width="7" height="1"/>
		<rect x="347" y="1400" width="1" height="7"/>
		<rect fill="silver" x="300" y="1460" width="58" height="21"/>
		<rect fill="white" x="296" y="1456" width="58" height="21"/>
		<rect fill="#FFFFC0" x="301" y="1483" width="120" height="24"/>
		<text fill="gray" font-size="9" font-family="Segoe UI" x="301, 306.80518, 309.27051, 314.56152, 319.65479, 324.92822, 330.02148, 334.72803, 337.19336, 342.28662, 347.37988, 355.13184, 360.42285, 365.12939, 368.2583, 370.20947, 372.6748, 377.96582, 381.09473, 385.80127, 388.61816, 393.32471, 396.45361, 399.58252, 404.28906, 409.58887, 412.0542, 414.23389, " y="1493, ">
				A phone number, preferred in
		</text>
		<text fill="gray" font-size="9" font-family="Segoe UI" x="301, 305.5791, 310.67236, 313.1377, 315.31738, 320.41064, 323.46045, 328.16699, 331.2959, 336.38916, 340.96826, 344.01807, 346.19775, 351.47119, 356.56445, 361.14355, 363.32324, 365.78857, 368.60547, 373.87891, 377.00781, 384.75977, 389.33887, 392.38867, " y="1505, ">
				an international format.
		</text>
		<rect fill="white" x="305" y="1458" width="37" height="16"/>
		<text font-size="12" font-weight="600" font-family="Segoe UI" x="305, 312.44141, 319.66602, 327.00195, 334.26172, " y="1471, ">
				phone
		</text>
		<path fill="none" stroke="black" stroke-width="1" stroke-linecap="square" stroke-miterlimit="4" transform="translate(0.5 0.5)" d="M298 1458L303 1458"/>
		<path fill="none" stroke="black" stroke-width="1" stroke-linecap="square" stroke-miterlimit="4" transform="translate(0.5 0.5)" d="M298 1460L302 1460"/>
		<path fill="none" stroke="black" stroke-width="1" stroke-linecap="square" stroke-miterlimit="4" transform="translate(0.5 0.5)" d="M298 1462L302 1462"/>
		<rect fill="none" stroke="black" stroke-width="1" stroke-linecap="square" stroke-miterlimit="4" transform="translate(0.5 0.5)" x="296" y="1456" width="57" height="20"/>
		<rect x="348" y="1461" width="11" height="11"/>
		<rect fill="white" x="349" y="1462" width="9" height="9"/>
		<rect x="350" y="1466" width="7" height="1"/>
		<rect x="353" y="1463" width="1" height="7"/>
		<rect fill="silver" x="300" y="1523" width="52" height="21"/>
		<rect fill="white" x="296" y="1519" width="52" height="21"/>
		<rect fill="#FFFFC0" x="301" y="1546" width="118" height="24"/>
		<text fill="gray" font-size="9" font-family="Segoe UI" x="301, 306.80518, 309.27051, 312.0874, 316.6665, 320.79736, 323.2627, 328.35596, 333.44922, 341.20117, 346.49219, 351.19873, 354.32764, 356.27881, 358.74414, 364.03516, 367.16406, 371.87061, 374.6875, 379.39404, 382.52295, 385.65186, 390.3584, 395.6582, 398.12354, 400.30322, 405.39648, 407.86182, 412.44092, " y="1556, ">
				A fax number, preferred in an
		</text>
		<text fill="gray" font-size="9" font-family="Segoe UI" x="301, 303.17969, 308.27295, 311.32275, 316.0293, 319.1582, 324.25146, 328.83057, 331.88037, 334.06006, 339.3335, 344.42676, 349.00586, 351.18555, 353.65088, 356.46777, 361.74121, 364.87012, 372.62207, 377.20117, 380.25098, " y="1568, ">
				international format.
		</text>
		<rect fill="white" x="305" y="1521" width="31" height="16"/>
		<text font-size="12" font-weight="600" font-family="Segoe UI" x="305, 309.59961, 316.05664, " y="1534, ">
				fax
		</text>
		<path fill="none" stroke="black" stroke-width="1" stroke-linecap="square" stroke-miterlimit="4" transform="translate(0.5 0.5)" d="M298 1521L303 1521"/>
		<path fill="none" stroke="black" stroke-width="1" stroke-linecap="square" stroke-miterlimit="4" transform="translate(0.5 0.5)" d="M298 1523L302 1523"/>
		<path fill="none" stroke="black" stroke-width="1" stroke-linecap="square" stroke-miterlimit="4" transform="translate(0.5 0.5)" d="M298 1525L302 1525"/>
		<rect fill="none" stroke="black" stroke-width="1" stroke-linecap="square" stroke-miterlimit="4" transform="translate(0.5 0.5)" x="296" y="1519" width="51" height="20"/>
		<rect x="342" y="1524" width="11" height="11"/>
		<rect fill="white" x="343" y="1525" width="9" height="9"/>
		<rect x="344" y="1529" width="7" height="1"/>
		<rect x="347" y="1526" width="1" height="7"/>
		<rect fill="silver" x="300" y="1586" width="52" height="21"/>
		<rect fill="white" x="296" y="1582" width="52" height="21"/>
		<rect fill="#FFFFC0" x="301" y="1609" width="61" height="12"/>
		<text fill="gray" font-size="9" font-family="Segoe UI" x="301, 306.80518, 309.27051, 315.77441, 320.48096, 325.77197, 328.2373, 332.81641, 338.11621, 343.41602, 346.54492, 351.25146, 355.07031, 358.88916, " y="1619, ">
				A web address.
		</text>
		<rect fill="white" x="305" y="1584" width="31" height="16"/>
		<text font-size="12" font-weight="600" font-family="Segoe UI" x="305, 314.50977, 321.00195, " y="1597, ">
				web
		</text>
		<path fill="none" stroke="black" stroke-width="1" stroke-linecap="square" stroke-miterlimit="4" transform="translate(0.5 0.5)" d="M298 1584L303 1584"/>
		<path fill="none" stroke="black" stroke-width="1" stroke-linecap="square" stroke-miterlimit="4" transform="translate(0.5 0.5)" d="M298 1586L302 1586"/>
		<path fill="none" stroke="black" stroke-width="1" stroke-linecap="square" stroke-miterlimit="4" transform="translate(0.5 0.5)" d="M298 1588L302 1588"/>
		<rect fill="none" stroke="black" stroke-width="1" stroke-linecap="square" stroke-miterlimit="4" transform="translate(0.5 0.5)" x="296" y="1582" width="51" height="20"/>
		<rect x="342" y="1587" width="11" height="11"/>
		<rect fill="white" x="343" y="1588" width="9" height="9"/>
		<rect x="344" y="1592" width="7" height="1"/>
		<rect x="347" y="1589" width="1" height="7"/>
		<rect fill="silver" x="300" y="1637" width="66" height="21"/>
		<rect fill="white" x="296" y="1633" width="66" height="21"/>
		<rect fill="#FFFFC0" x="301" y="1660" width="69" height="12"/>
		<text fill="gray" font-size="9" font-family="Segoe UI" x="301, 306.80518, 309.27051, 314.56152, 319.83496, 323.65381, 326.70361, 331.28271, 333.4624, 335.92773, 340.50684, 345.80664, 351.10645, 354.23535, 358.94189, 362.76074, 366.57959, " y="1670, ">
				A postal address.
		</text>
		<rect fill="white" x="305" y="1635" width="45" height="16"/>
		<text font-size="12" font-weight="600" font-family="Segoe UI" x="305, 311.45703, 318.88672, 326.31641, 331.04492, 337.53711, 342.81641, " y="1648, ">
				address
		</text>
		<rect fill="none" stroke="black" stroke-width="1" stroke-linecap="square" stroke-miterlimit="4" transform="translate(0.5 0.5)" x="296" y="1633" width="65" height="20"/>
		<rect x="356" y="1638" width="11" height="11"/>
		<rect fill="white" x="357" y="1639" width="9" height="9"/>
		<rect x="358" y="1643" width="7" height="1"/>
		<rect x="361" y="1640" width="1" height="7"/>
		<rect fill="silver" x="300" y="1688" width="52" height="21"/>
		<rect fill="white" x="296" y="1684" width="52" height="21"/>
		<rect fill="#FFFFC0" x="301" y="1711" width="112" height="24"/>
		<text fill="gray" font-size="9" font-family="Segoe UI" x="301, 306.80518, 312.10498, 317.40479, 319.58447, 322.63428, 324.81396, 330.0874, 335.18066, 339.75977, 341.93945, 344.40479, 349.49805, 354.07715, 357.12695, 362.22021, 365.34912, 369.92822, 372.10791, 374.57324, 376.75293, 381.33203, 386.42529, 391.7251, 396.81836, 401.39746, 406.69727, " y="1721, ">
				Additional natural language
		</text>
		<text fill="gray" font-size="9" font-family="Segoe UI" x="301, 303.17969, 308.27295, 311.08984, 316.36328, 319.49219, 327.24414, 331.82324, 334.87305, 337.05273, 342.32617, 347.41943, " y="1733, ">
				information.
		</text>
		<rect fill="white" x="305" y="1686" width="31" height="16"/>
		<text font-size="12" font-weight="600" font-family="Segoe UI" x="305, 312.25977, 319.5957, 324.21875, " y="1699, ">
				note
		</text>
		<path fill="none" stroke="black" stroke-width="1" stroke-linecap="square" stroke-miterlimit="4" transform="translate(0.5 0.5)" d="M298 1686L303 1686"/>
		<path fill="none" stroke="black" stroke-width="1" stroke-linecap="square" stroke-miterlimit="4" transform="translate(0.5 0.5)" d="M298 1688L302 1688"/>
		<path fill="none" stroke="black" stroke-width="1" stroke-linecap="square" stroke-miterlimit="4" transform="translate(0.5 0.5)" d="M298 1690L302 1690"/>
		<path fill="none" stroke="black" stroke-width="2" stroke-miterlimit="4" transform="translate(0.5 0.5)" d="M298 1702L302 1698"/>
		<path fill="none" stroke="black" stroke-width="1" stroke-linecap="square" stroke-miterlimit="4" transform="translate(0.5 0.5)" d="M299 1698L302 1698L302 1701"/>
		<rect fill="none" stroke="black" stroke-width="1" stroke-linecap="square" stroke-miterlimit="4" transform="translate(0.5 0.5)" x="296" y="1684" width="51" height="20"/>
		<rect x="342" y="1689" width="11" height="11"/>
		<rect fill="white" x="343" y="1690" width="9" height="9"/>
		<rect x="344" y="1694" width="7" height="1"/>
		<rect x="347" y="1691" width="1" height="7"/>
		<rect x="261" y="1518" width="11" height="11"/>
		<rect fill="white" x="262" y="1519" width="9" height="9"/>
		<rect x="263" y="1523" width="7" height="1"/>
		<path fill="silver" d="M234 1759L239 1754L307 1754L312 1759L312 1770L307 1775L239 1775L234 1770L234 1759Z"/>
		<path fill="white" d="M230 1755L235 1750L302 1750L307 1755L307 1765L302 1770L235 1770L230 1765L230 1755Z"/>
		<path transform="translate(0.5 0.5)" d="M233.889 1750.4L234.793 1749.5L235.929 1749.5L236.429 1749.5L236.429 1750.5L235.929 1750.5L235 1750.5L235 1750L235.354 1750.35L234.243 1751.46L233.536 1750.76L233.889 1750.4ZM239.929 1749.5L241.929 1749.5L242.429 1749.5L242.429 1750.5L241.929 1750.5L239.429 1750.5L239.429 1749.5L239.929 1749.5ZM245.929 1749.5L247.929 1749.5L248.429 1749.5L248.429 1750.5L247.929 1750.5L245.429 1750.5L245.429 1749.5L245.929 1749.5ZM251.929 1749.5L253.929 1749.5L254.429 1749.5L254.429 1750.5L253.929 1750.5L251.429 1750.5L251.429 1749.5L251.929 1749.5ZM257.929 1749.5L259.929 1749.5L260.429 1749.5L260.429 1750.5L259.929 1750.5L257.429 1750.5L257.429 1749.5L257.929 1749.5ZM263.929 1749.5L265.929 1749.5L266.429 1749.5L266.429 1750.5L265.929 1750.5L263.429 1750.5L263.429 1749.5L263.929 1749.5ZM269.929 1749.5L271.929 1749.5L272.429 1749.5L272.429 1750.5L271.929 1750.5L269.429 1750.5L269.429 1749.5L269.929 1749.5ZM275.929 1749.5L277.929 1749.5L278.429 1749.5L278.429 1750.5L277.929 1750.5L275.429 1750.5L275.429 1749.5L275.929 1749.5ZM281.929 1749.5L283.929 1749.5L284.429 1749.5L284.429 1750.5L283.929 1750.5L281.429 1750.5L281.429 1749.5L281.929 1749.5ZM287.929 1749.5L289.929 1749.5L290.429 1749.5L290.429 1750.5L289.929 1750.5L287.429 1750.5L287.429 1749.5L287.929 1749.5ZM293.929 1749.5L295.929 1749.5L296.429 1749.5L296.429 1750.5L295.929 1750.5L293.429 1750.5L293.429 1749.5L293.929 1749.5ZM299.929 1749.5L301.929 1749.5L302.429 1749.5L302.429 1750.5L301.929 1750.5L299.429 1750.5L299.429 1749.5L299.929 1749.5ZM305.132 1752.42L306.546 1753.84L306.899 1754.19L306.192 1754.9L305.839 1754.55L304.071 1752.78L304.778 1752.07L305.132 1752.42ZM307.5 1757.86L307.5 1759.86L307.5 1760.36L306.5 1760.36L306.5 1759.86L306.5 1757.36L307.5 1757.36L307.5 1757.86ZM307.5 1763.86L307.5 1765.21L306.747 1765.96L306.393 1766.31L305.686 1765.61L306.04 1765.25L306.646 1764.65L307 1765L306.5 1765L306.5 1763.36L307.5 1763.36L307.5 1763.86ZM303.919 1768.79L302.504 1770.2L302.151 1770.56L301.444 1769.85L301.797 1769.5L303.565 1767.73L304.272 1768.44L303.919 1768.79ZM298.213 1770.5L296.213 1770.5L295.713 1770.5L295.713 1769.5L296.213 1769.5L298.713 1769.5L298.713 1770.5L298.213 1770.5ZM292.213 1770.5L290.213 1770.5L289.713 1770.5L289.713 1769.5L290.213 1769.5L292.713 1769.5L292.713 1770.5L292.213 1770.5ZM286.213 1770.5L284.213 1770.5L283.713 1770.5L283.713 1769.5L284.213 1769.5L286.713 1769.5L286.713 1770.5L286.213 1770.5ZM280.213 1770.5L278.213 1770.5L277.713 1770.5L277.713 1769.5L278.213 1769.5L280.713 1769.5L280.713 1770.5L280.213 1770.5ZM274.213 1770.5L272.213 1770.5L271.713 1770.5L271.713 1769.5L272.213 1769.5L274.713 1769.5L274.713 1770.5L274.213 1770.5ZM268.213 1770.5L266.213 1770.5L265.713 1770.5L265.713 1769.5L266.213 1769.5L268.713 1769.5L268.713 1770.5L268.213 1770.5ZM262.213 1770.5L260.213 1770.5L259.713 1770.5L259.713 1769.5L260.213 1769.5L262.713 1769.5L262.713 1770.5L262.213 1770.5ZM256.213 1770.5L254.213 1770.5L253.713 1770.5L253.713 1769.5L254.213 1769.5L256.713 1769.5L256.713 1770.5L256.213 1770.5ZM250.213 1770.5L248.213 1770.5L247.713 1770.5L247.713 1769.5L248.213 1769.5L250.713 1769.5L250.713 1770.5L250.213 1770.5ZM244.213 1770.5L242.213 1770.5L241.713 1770.5L241.713 1769.5L242.213 1769.5L244.713 1769.5L244.713 1770.5L244.213 1770.5ZM238.213 1770.5L236.213 1770.5L235.713 1770.5L235.713 1769.5L236.213 1769.5L238.713 1769.5L238.713 1770.5L238.213 1770.5ZM232.676 1768.38L231.262 1766.97L230.908 1766.62L231.615 1765.91L231.969 1766.26L233.737 1768.03L233.029 1768.74L232.676 1768.38ZM229.5 1763.28L229.5 1761.28L229.5 1760.78L230.5 1760.78L230.5 1761.28L230.5 1763.78L229.5 1763.78L229.5 1763.28ZM229.5 1757.28L229.5 1755.28L229.5 1754.78L230.5 1754.78L230.5 1755.28L230.5 1757.78L229.5 1757.78L229.5 1757.28ZM229.646 1754.65L231.414 1752.88L232.121 1753.59L230 1755.71L229.293 1755L229.646 1754.65Z"/>
		<path fill="white" d="M227 1752L232 1747L300 1747L305 1752L305 1763L300 1768L232 1768L227 1763L227 1752Z"/>
		<path fill="none" stroke="black" stroke-width="1" stroke-linecap="square" stroke-miterlimit="4" transform="translate(0.5 0.5)" d="M289 1768L295 1774L298 1771"/>
		<rect fill="#FFFFC0" x="232" y="1793" width="120" height="36"/>
		<text fill="gray" font-size="9" font-family="Segoe UI" x="232, 236.55273, 240.68359, 243.7334, 248.43994, 253.5332, 257.35205, 259.53174, 264.80518, 269.89844, 272.36377, 277.65479, 282.92822, 285.10791, 290.20117, 293.25098, 295.71631, 298.5332, 303.80664, 306.93555, 309.40088, 314.69189, 317.8208, 323.09424, 327.40527, 329.58496, 334.88477, 339.59131, 342.72021, " y="1803, ">
				Extension point for provider-
		</text>
		<text fill="gray" font-size="9" font-family="Segoe UI" x="232, 237.2998, 242.00635, 244.82324, 247.00293, 252.09619, 256.80273, 262.10254, 264.56787, 269.85889, 272.98779, 278.26123, 283.55225, 288.25879, 291.3877, 294.4375, 296.61719, 301.32373, 305.14258, 307.60791, 310.4248, 313.55371, 318.82715, 326.5791, 329.04443, 334.31787, 337.36768, 342.46094, 347.16748, " y="1815, ">
				defined properties from other
		</text>
		<text fill="gray" font-size="9" font-family="Segoe UI" x="232, 237.09326, 241.67236, 249.42432, 254.13086, 257.94971, 263.24072, 267.81982, 271.97705, 276.68359, " y="1827, ">
				namespaces
		</text>
		<rect fill="white" x="254" y="1749" width="46" height="16"/>
		<text font-size="12" font-weight="600" font-family="Segoe UI" x="254, 261.10742, 268.21484, 275.55078, 280.2207, 287.44531, 293.9375, " y="1762, ">
				##other
		</text>
		<rect fill="white" x="232" y="1749" width="20" height="16"/>
		<text fill="gray" font-size="12" font-family="Segoe UI" x="232, 238.10547, 244.89648, " y="1762, ">
				any
		</text>
		<text font-size="12" font-family="Segoe UI" x="274.76562, " y="1787, ">
				0
		</text>
		<text font-size="12" font-family="Symbol" x="289.72266, " y="1786, ">
				¥
		</text>
		<text font-size="12" font-family="Segoe UI" x="282.89844, 285.5, " y="1787, ">
				..
		</text>
		<path transform="translate(0.5 0.5)" d="M230.889 1747.4L231.793 1746.5L232.929 1746.5L233.429 1746.5L233.429 1747.5L232.929 1747.5L232 1747.5L232 1747L232.354 1747.35L231.243 1748.46L230.536 1747.76L230.889 1747.4ZM236.929 1746.5L238.929 1746.5L239.429 1746.5L239.429 1747.5L238.929 1747.5L236.429 1747.5L236.429 1746.5L236.929 1746.5ZM242.929 1746.5L244.929 1746.5L245.429 1746.5L245.429 1747.5L244.929 1747.5L242.429 1747.5L242.429 1746.5L242.929 1746.5ZM248.929 1746.5L250.929 1746.5L251.429 1746.5L251.429 1747.5L250.929 1747.5L248.429 1747.5L248.429 1746.5L248.929 1746.5ZM254.929 1746.5L256.929 1746.5L257.429 1746.5L257.429 1747.5L256.929 1747.5L254.429 1747.5L254.429 1746.5L254.929 1746.5ZM260.929 1746.5L262.929 1746.5L263.429 1746.5L263.429 1747.5L262.929 1747.5L260.429 1747.5L260.429 1746.5L260.929 1746.5ZM266.929 1746.5L268.929 1746.5L269.429 1746.5L269.429 1747.5L268.929 1747.5L266.429 1747.5L266.429 1746.5L266.929 1746.5ZM272.929 1746.5L274.929 1746.5L275.429 1746.5L275.429 1747.5L274.929 1747.5L272.429 1747.5L272.429 1746.5L272.929 1746.5ZM278.929 1746.5L280.929 1746.5L281.429 1746.5L281.429 1747.5L280.929 1747.5L278.429 1747.5L278.429 1746.5L278.929 1746.5ZM284.929 1746.5L286.929 1746.5L287.429 1746.5L287.429 1747.5L286.929 1747.5L284.429 1747.5L284.429 1746.5L284.929 1746.5ZM290.929 1746.5L292.929 1746.5L293.429 1746.5L293.429 1747.5L292.929 1747.5L290.429 1747.5L290.429 1746.5L290.929 1746.5ZM296.929 1746.5L298.929 1746.5L299.429 1746.5L299.429 1747.5L298.929 1747.5L296.429 1747.5L296.429 1746.5L296.929 1746.5ZM302.132 1749.42L303.546 1750.84L303.899 1751.19L303.192 1751.9L302.839 1751.55L301.071 1749.78L301.778 1749.07L302.132 1749.42ZM304.5 1754.86L304.5 1756.86L304.5 1757.36L303.5 1757.36L303.5 1756.86L303.5 1754.36L304.5 1754.36L304.5 1754.86ZM304.5 1760.86L304.5 1762.21L303.747 1762.96L303.393 1763.31L302.686 1762.61L303.04 1762.25L303.646 1761.65L304 1762L303.5 1762L303.5 1760.36L304.5 1760.36L304.5 1760.86ZM300.919 1765.79L299.504 1767.2L299.151 1767.56L298.444 1766.85L298.797 1766.5L300.565 1764.73L301.272 1765.44L300.919 1765.79ZM295.213 1767.5L293.213 1767.5L292.713 1767.5L292.713 1766.5L293.213 1766.5L295.713 1766.5L295.713 1767.5L295.213 1767.5ZM289.213 1767.5L287.213 1767.5L286.713 1767.5L286.713 1766.5L287.213 1766.5L289.713 1766.5L289.713 1767.5L289.213 1767.5ZM283.213 1767.5L281.213 1767.5L280.713 1767.5L280.713 1766.5L281.213 1766.5L283.713 1766.5L283.713 1767.5L283.213 1767.5ZM277.213 1767.5L275.213 1767.5L274.713 1767.5L274.713 1766.5L275.213 1766.5L277.713 1766.5L277.713 1767.5L277.213 1767.5ZM271.213 1767.5L269.213 1767.5L268.713 1767.5L268.713 1766.5L269.213 1766.5L271.713 1766.5L271.713 1767.5L271.213 1767.5ZM265.213 1767.5L263.213 1767.5L262.713 1767.5L262.713 1766.5L263.213 1766.5L265.713 1766.5L265.713 1767.5L265.213 1767.5ZM259.213 1767.5L257.213 1767.5L256.713 1767.5L256.713 1766.5L257.213 1766.5L259.713 1766.5L259.713 1767.5L259.213 1767.5ZM253.213 1767.5L251.213 1767.5L250.713 1767.5L250.713 1766.5L251.213 1766.5L253.713 1766.5L253.713 1767.5L253.213 1767.5ZM247.213 1767.5L245.213 1767.5L244.713 1767.5L244.713 1766.5L245.213 1766.5L247.713 1766.5L247.713 1767.5L247.213 1767.5ZM241.213 1767.5L239.213 1767.5L238.713 1767.5L238.713 1766.5L239.213 1766.5L241.713 1766.5L241.713 1767.5L241.213 1767.5ZM235.213 1767.5L233.213 1767.5L232.713 1767.5L232.713 1766.5L233.213 1766.5L235.713 1766.5L235.713 1767.5L235.213 1767.5ZM229.676 1765.38L228.262 1763.97L227.908 1763.62L228.615 1762.91L228.969 1763.26L230.737 1765.03L230.029 1765.74L229.676 1765.38ZM226.5 1760.28L226.5 1758.28L226.5 1757.78L227.5 1757.78L227.5 1758.28L227.5 1760.78L226.5 1760.78L226.5 1760.28ZM226.5 1754.28L226.5 1752.28L226.5 1751.78L227.5 1751.78L227.5 1752.28L227.5 1754.78L226.5 1754.78L226.5 1754.28ZM226.646 1751.65L228.414 1749.88L229.121 1750.59L227 1752.71L226.293 1752L226.646 1751.65Z"/>
		<rect x="192" y="1635" width="11" height="11"/>
		<rect fill="white" x="193" y="1636" width="9" height="9"/>
		<rect x="194" y="1640" width="7" height="1"/>
		<rect x="81" y="1156" width="11" height="11"/>
		<rect fill="white" x="82" y="1157" width="9" height="9"/>
		<rect x="83" y="1161" width="7" height="1"/>
	</g>
</svg>
