<?xml version="1.0" encoding="utf-8" ?>
<svg xmlns="http://www.w3.org/2000/svg" xmlns:xlink="http://www.w3.org/1999/xlink" width="413" height="2275">
	<clipPath id="cl_621">
		<rect x="-10" y="-5" width="413" height="2275"/>
	</clipPath>
	<g clip-path="url(#cl_621)">
		<rect fill="#FFFFC0" x="156" width="237" height="1977"/>
		<rect fill="none" stroke="gray" stroke-width="1" stroke-linecap="square" stroke-miterlimit="4" transform="translate(0.5 0.5)" x="156" width="236" height="1976"/>
		<path fill="none" stroke="black" stroke-width="1" stroke-linecap="square" stroke-miterlimit="4" transform="translate(0.5 0.5)" d="M142 1359L168 1359"/>
		<path fill="none" stroke="black" stroke-width="1" stroke-linecap="square" stroke-miterlimit="4" transform="translate(0.5 0.5)" d="M169 1359L169 883"/>
		<path fill="none" stroke="black" stroke-width="1" stroke-linecap="square" stroke-miterlimit="4" transform="translate(0.5 0.5)" d="M169 1359L169 2120"/>
		<path transform="translate(0.5 0.5)" d="M169 1836.5L171 1836.5L171.5 1836.5L171.5 1837.5L171 1837.5L168.5 1837.5L168.5 1836.5L169 1836.5ZM175 1836.5L177 1836.5L177.5 1836.5L177.5 1837.5L177 1837.5L174.5 1837.5L174.5 1836.5L175 1836.5ZM181 1836.5L183.5 1836.5L183.5 1837.5L180.5 1837.5L180.5 1836.5L181 1836.5Z"/>
		<path fill="none" stroke="black" stroke-width="1" stroke-linecap="square" stroke-miterlimit="4" transform="translate(0.5 0.5)" d="M169 2121L183 2121"/>
		<path fill="none" stroke="black" stroke-width="1" stroke-linecap="square" stroke-miterlimit="4" transform="translate(0.5 0.5)" d="M169 882L183 882"/>
		<path fill="silver" d="M4 1358L9 1353L142 1353L142 1375L9 1375L4 1370L4 1358Z"/>
		<path fill="white" d="M0 1354L5 1349L138 1349L138 1371L5 1371L0 1366L0 1354Z"/>
		<rect fill="#FFFFC0" x="164" y="8" width="85" height="16"/>
		<text fill="gray" font-size="12" font-weight="600" font-family="Segoe UI" x="164, 170.24023, 173.65039, 180.14258, 186.76953, 194.14062, 198.86914, 206.20508, 213.64648, 220.54883, 227.04102, 233.49805, 240.93945, " y="21, ">
				FlexProp2Type
		</text>
		<rect fill="white" x="5" y="1376" width="118" height="36"/>
		<text fill="gray" font-size="9" font-family="Segoe UI" x="5, 9.3945312, 11.574219, 16.280762, 20.411621, 22.591309, 27.882324, 30.062012, 34.768555, 37.233887, 42.533691, 47.240234, 52.333496, 57.040039, 60.168945, 62.348633, 66.505859, 68.971191, 72.020996, 76.375977, 81.666992, 86.373535, 88.838867, 91.655762, 96.929199, 100.05811, 102.52344, 107.81445, 113.08789, 116.1377, " y="1386, ">
				Flexible generic type for both
		</text>
		<text fill="gray" font-size="9" font-family="Segoe UI" x="5, 9.1572266, 14.430664, 19.523926, 22.57373, 25.702637, 30.976074, 33.155762, 35.335449, 40.041992, 45.341797, 47.807129, 52.38623, 57.479492, 62.779297, 65.244629, 70.337891, 75.431152, 79.588379, 84.861816, 89.955078, 93.004883, 96.133789, 101.40723, 103.58691, 105.7666, 110.47314, " y="1398, ">
				controlled and uncontrolled
		</text>
		<text fill="gray" font-size="9" font-family="Segoe UI" x="5, 9.3110352, 13.890137, 16.069824, 21.163086, 25.869629, 29.688477, 32.153809, 37.427246, 40.244141, 42.709473, 47.288574, 49.753906, 52.882812, 57.589355, 59.769043, 64.348145, 67.397949, 72.104492, 77.404297, 79.869629, 84.026855, 89.300293, 94.393555, 98.550781, 103.25732, 108.54834, " y="1410, ">
				values of a related concept
		</text>
		<rect fill="white" x="5" y="1351" width="120" height="16"/>
		<text font-size="12" font-weight="600" font-family="Segoe UI" x="5, 11.240234, 14.650391, 21.142578, 27.769531, 35.304688, 41.796875, 45.207031, 51.664062, 56.287109, 62.779297, 70.208984, 77.580078, 82.308594, 89.644531, 97.085938, 103.57812, 110.03516, 117.47656, " y="1364, ">
				FlexRelatedPropType
		</text>
		<rect fill="#FFFFC0" x="253" y="8" width="59" height="16"/>
		<text fill="gray" font-size="12" font-family="Segoe UI" x="253, 256.62109, 262.89648, 268.4043, 272.4707, 278.74609, 285.53711, 290.62891, 293.53516, 300.56641, 307.35742, " y="21, ">
				(extension)
		</text>
		<path fill="none" stroke="black" stroke-width="1" stroke-linecap="square" stroke-miterlimit="4" transform="translate(0.5 0.5)" d="M0 1354L5 1349L137 1349L137 1370L5 1370L0 1365L0 1354Z"/>
		<path fill="white" d="M261 55L261 36L184 36L184 55L184 1727L331 1727L331 55L261 55Z"/>
		<rect fill="white" x="204" y="38" width="51" height="16"/>
		<text font-size="12" font-style="italic" font-family="Segoe UI" x="204, 210.50391, 214.38281, 218.26172, 222.5332, 225.63867, 232.14258, 238.83984, 242.73047, 248.57227, " y="51, ">
				attributes
		</text>
		<path fill="none" stroke="black" stroke-width="1" stroke-linecap="square" stroke-miterlimit="4" transform="translate(0.5 0.5)" d="M261 55L261 36L184 36L184 55L184 1727L331 1727L331 55L261 55Z"/>
		<rect fill="silver" x="202" y="68" width="52" height="21"/>
		<rect fill="white" x="198" y="64" width="52" height="21"/>
		<rect fill="white" x="203" y="91" width="101" height="24"/>
		<text fill="gray" font-size="9" font-family="Segoe UI" x="203, 207.71533, 212.80859, 217.51514, 219.98047, 222.16016, 227.43359, 231.59082, 236.16992, 238.34961, 240.81494, 242.99463, 248.29443, 253.00098, 258.09424, 261.14404, 263.32373, 266.14062, 268.32031, 273.02686, 276.15576, 278.62109, 283.89453, 286.71143, 289.17676, 292.22656, 297.31982, " y="101, ">
				The local identifier of the
		</text>
		<text fill="gray" font-size="9" font-family="Segoe UI" x="203, 208.29102, 211.41992, 216.69336, 221.98438, 226.69092, 229.81982, 232.86963, 237.22461, " y="113, ">
				property.
		</text>
		<rect fill="white" x="207" y="66" width="36" height="16"/>
		<text font-size="12" font-weight="600" font-family="Segoe UI" x="207, 210.41016, " y="79, ">
				id
		</text>
		<rect fill="none" stroke="black" stroke-width="1" stroke-linecap="square" stroke-miterlimit="4" transform="translate(0.5 0.5)" x="198" y="64" width="51" height="20"/>
		<rect fill="silver" x="202" y="126" width="58" height="21"/>
		<rect fill="white" x="198" y="122" width="58" height="21"/>
		<rect fill="white" x="203" y="149" width="121" height="120"/>
		<text fill="gray" font-size="9" font-family="Segoe UI" x="203, 205.39502, 208.21191, 210.67725, 213.72705, 218.82031, 223.52686, 225.99219, 231.2832, 234.41211, 239.68555, 244.97656, 249.68311, 252.81201, 255.86182, 260.2168, 262.68213, 266.99316, 271.57227, 273.75195, 278.84521, 283.55176, 286.01709, 288.19678, 292.01562, 294.48096, 299.57422, 304.84766, " y="159, ">
				If the property value is not
		</text>
		<text fill="gray" font-size="9" font-family="Segoe UI" x="203, 208.2998, 213.00635, 215.82324, 218.00293, 223.09619, 227.80273, 233.10254, 235.05371, 237.51904, 241.33789, 246.62891, 251.33545, 255.49268, 257.67236, 260.48926, 262.66895, 267.37549, 271.19434, 273.65967, 280.16357, 285.25684, 287.43652, 291.59375, 296.68701, 299.15234, 303.85889, 308.95215, 312.00195, 314.18164, 317.23145, " y="171, ">
				defined, specifies which entity
		</text>
		<text fill="gray" font-size="9" font-family="Segoe UI" x="203, 205.71582, 211.00684, 215.71338, 218.84229, 222.66113, 227.93457, 233.02783, 234.979, 237.44434, 242.71777, 245.84668, 251.14648, 255.72559, 260.81885, 262.99854, 266.81738, 271.39648, 274.44629, 276.62598, 281.89941, 286.99268, 289.45801, 294.73145, " y="183, ">
				(person, organisation or
		</text>
		<text fill="gray" font-size="9" font-family="Segoe UI" x="203, 206.81885, 211.17383, 214.99268, 218.04248, 222.74902, 230.50098, 233.2168, 235.68213, 242.18604, 244.36572, 246.54541, 248.7251, 251.19043, 255.89697, 261.19678, 263.37646, 266.42627, 268.8916, 271.94141, 277.03467, 281.74121, 284.20654, 289.49756, 292.62646, 297.8999, 303.19092, 307.89746, 311.02637, 314.07617, " y="195, ">
				system) will edit the property
		</text>
		<text fill="gray" font-size="9" font-family="Segoe UI" x="203, 207.31104, 211.89014, 214.06982, 219.16309, 223.86963, 226.33496, 229.93408, 232.39941, 237.10596, 241.23682, 246.52783, 249.65674, 254.36328, 258.18213, 262.00098, 266.70752, 272.00732, 274.47266, 279.76367, 284.11865, 286.58398, 291.16309, 293.62842, 300.41357, 305.98584, 311.25928, 316.55908, 321.26562, " y="207, ">
				value - expressed by a QCode.
		</text>
		<text fill="gray" font-size="9" font-family="Segoe UI" x="203, 205.39502, 208.21191, 210.67725, 213.72705, 218.82031, 223.52686, 225.99219, 231.2832, 234.41211, 239.68555, 244.97656, 249.68311, 252.81201, 255.86182, 260.2168, 262.68213, 266.99316, 271.57227, 273.75195, 278.84521, 283.55176, 286.01709, 288.19678, " y="219, ">
				If the property value is
		</text>
		<text fill="gray" font-size="9" font-family="Segoe UI" x="203, 208.2998, 213.00635, 215.82324, 218.00293, 223.09619, 227.80273, 233.10254, 235.05371, 237.51904, 241.33789, 246.62891, 251.33545, 255.49268, 257.67236, 260.48926, 262.66895, 267.37549, 271.19434, 273.65967, 280.16357, 285.25684, 287.43652, 291.59375, 296.68701, 299.15234, 303.85889, 308.95215, 312.00195, 314.18164, 317.23145, " y="231, ">
				defined, specifies which entity
		</text>
		<text fill="gray" font-size="9" font-family="Segoe UI" x="203, 205.71582, 211.00684, 215.71338, 218.84229, 222.66113, 227.93457, 233.02783, 234.979, 237.44434, 242.71777, 245.84668, 251.14648, 255.72559, 260.81885, 262.99854, 266.81738, 271.39648, 274.44629, 276.62598, 281.89941, 286.99268, 289.45801, 294.73145, " y="243, ">
				(person, organisation or
		</text>
		<text fill="gray" font-size="9" font-family="Segoe UI" x="203, 206.81885, 211.17383, 214.99268, 218.04248, 222.74902, 230.50098, 233.2168, 235.68213, 240.77539, 245.35449, 249.17334, 251.63867, 256.34521, 261.64502, 263.82471, 266.87451, 271.58105, 276.88086, 279.34619, 282.396, 287.48926, " y="255, ">
				system) has edited the
		</text>
		<text fill="gray" font-size="9" font-family="Segoe UI" x="203, 208.29102, 211.41992, 216.69336, 221.98438, 226.69092, 229.81982, 232.86963, 237.22461, 239.68994, 244.00098, 248.58008, 250.75977, 255.85303, 260.55957, " y="267, ">
				property value.
		</text>
		<rect fill="white" x="207" y="124" width="42" height="16"/>
		<text font-size="12" font-weight="600" font-family="Segoe UI" x="207, 212.75977, 217.48828, 223.98047, 230.4375, 235.06055, 242.39648, " y="137, ">
				creator
		</text>
		<rect fill="none" stroke="black" stroke-width="1" stroke-linecap="square" stroke-miterlimit="4" transform="translate(0.5 0.5)" x="198" y="122" width="57" height="20"/>
		<rect fill="silver" x="202" y="280" width="73" height="21"/>
		<rect fill="white" x="198" y="276" width="73" height="21"/>
		<rect fill="white" x="203" y="303" width="120" height="108"/>
		<text fill="gray" font-size="9" font-family="Segoe UI" x="203, 205.39502, 208.21191, 210.67725, 213.72705, 218.82031, 223.52686, 225.99219, 231.2832, 234.41211, 239.68555, 244.97656, 249.68311, 252.81201, 255.86182, 260.2168, 262.68213, 266.99316, 271.57227, 273.75195, 278.84521, 283.55176, 286.01709, 288.19678, 292.01562, 294.48096, 299.57422, 304.84766, " y="313, ">
				If the property value is not
		</text>
		<text fill="gray" font-size="9" font-family="Segoe UI" x="203, 208.2998, 213.00635, 215.82324, 218.00293, 223.09619, 227.80273, 233.10254, 235.05371, 237.51904, 241.33789, 246.62891, 251.33545, 255.49268, 257.67236, 260.48926, 262.66895, 267.37549, 271.19434, 273.65967, 280.16357, 285.25684, 287.43652, 291.59375, 296.68701, 299.15234, 303.85889, 308.95215, 312.00195, 314.18164, 317.23145, " y="325, ">
				defined, specifies which entity
		</text>
		<text fill="gray" font-size="9" font-family="Segoe UI" x="203, 205.71582, 211.00684, 215.71338, 218.84229, 222.66113, 227.93457, 233.02783, 234.979, 237.44434, 242.71777, 245.84668, 251.14648, 255.72559, 260.81885, 262.99854, 266.81738, 271.39648, 274.44629, 276.62598, 281.89941, 286.99268, 289.45801, 294.73145, " y="337, ">
				(person, organisation or
		</text>
		<text fill="gray" font-size="9" font-family="Segoe UI" x="203, 206.81885, 211.17383, 214.99268, 218.04248, 222.74902, 230.50098, 233.2168, 235.68213, 242.18604, 244.36572, 246.54541, 248.7251, 251.19043, 255.89697, 261.19678, 263.37646, 266.42627, 268.8916, 271.94141, 277.03467, 281.74121, 284.20654, 289.49756, 292.62646, 297.8999, 303.19092, 307.89746, 311.02637, 314.07617, " y="349, ">
				system) will edit the property
		</text>
		<text fill="gray" font-size="9" font-family="Segoe UI" x="203, 206.59912, 209.06445, 213.771, 217.90186, 223.19287, 226.32178, 231.02832, 234.84717, 238.66602, 243.37256, 248.67236, 251.1377, 256.42871, 260.78369, 263.24902, 267.82812, 270.29346, 276.47656, 281.85986, 284.25488, 286.20605, 288.67139, 291.06641, 293.8833, 296.34863, 299.39844, 304.4917, " y="361, ">
				- expressed by a URI. If the
		</text>
		<text fill="gray" font-size="9" font-family="Segoe UI" x="203, 208.29102, 211.41992, 216.69336, 221.98438, 226.69092, 229.81982, 232.86963, 237.22461, 239.68994, 244.00098, 248.58008, 250.75977, 255.85303, 260.55957, 263.0249, 265.20459, 269.02344, 271.48877, 276.78857, 281.49512, 284.31201, 286.4917, 291.58496, 296.2915, 301.59131, " y="373, ">
				property value is defined,
		</text>
		<text fill="gray" font-size="9" font-family="Segoe UI" x="203, 206.81885, 212.10986, 216.81641, 220.97363, 223.15332, 225.97021, 228.1499, 232.85645, 236.67529, 239.14062, 245.64453, 250.73779, 252.91748, 257.07471, 262.16797, 264.6333, 269.33984, 274.43311, 277.48291, 279.6626, 282.7124, 287.06738, 289.53271, 292.24854, 297.53955, 302.24609, 305.375, 309.19385, 314.46729, 319.56055, " y="385, ">
				specifies which entity (person,
		</text>
		<text fill="gray" font-size="9" font-family="Segoe UI" x="203, 208.27344, 211.40234, 216.70215, 221.28125, 226.37451, 228.5542, 232.37305, 236.95215, 240.00195, 242.18164, 247.45508, 252.54834, 255.01367, 260.28711, 263.41602, 265.88135, 269.7002, 274.05518, 277.87402, 280.92383, 285.63037, 293.38232, 296.09814, 298.56348, 303.65674, 308.23584, " y="397, ">
				organisation or system) has
		</text>
		<text fill="gray" font-size="9" font-family="Segoe UI" x="203, 207.70654, 213.00635, 215.18604, 218.23584, 222.94238, 228.24219, 230.70752, 233.75732, 238.85059, 243.55713, 246.02246, 251.31348, 254.44238, 259.71582, 265.00684, 269.71338, 272.84229, 275.89209, 280.24707, " y="409, ">
				edited the property.
		</text>
		<rect fill="white" x="207" y="278" width="57" height="16"/>
		<text font-size="12" font-weight="600" font-family="Segoe UI" x="207, 212.75977, 217.48828, 223.98047, 230.4375, 235.06055, 242.39648, 247.20703, 254.4668, 259.28906, " y="291, ">
				creatoruri
		</text>
		<rect fill="none" stroke="black" stroke-width="1" stroke-linecap="square" stroke-miterlimit="4" transform="translate(0.5 0.5)" x="198" y="276" width="72" height="20"/>
		<rect fill="silver" x="202" y="422" width="69" height="21"/>
		<rect fill="white" x="198" y="418" width="69" height="21"/>
		<rect fill="white" x="203" y="445" width="119" height="72"/>
		<text fill="gray" font-size="9" font-family="Segoe UI" x="203, 207.71533, 212.80859, 217.51514, 219.98047, 225.28027, 229.85938, 232.90918, 237.61572, 240.08105, 242.79688, 247.37598, 252.46924, 257.76904, 259.72021, 262.18555, 267.45898, 272.75, 275.7998, 277.97949, 283.25293, 288.34619, 292.92529, 295.10498, 297.28467, 301.63965, 303.59082, 306.05615, 309.10596, 314.19922, " y="455, ">
				The date (and, optionally, the
		</text>
		<text fill="gray" font-size="9" font-family="Segoe UI" x="203, 206.0498, 208.22949, 215.98145, 220.68799, 223.40381, 225.86914, 232.37305, 237.46631, 242.17285, 247.26611, 249.73145, 252.78125, 257.87451, 262.58105, 265.04639, 270.3374, 273.46631, 278.73975, 284.03076, 288.7373, 291.86621, 294.91602, 299.271, 301.73633, 308.24023, 312.81934, " y="467, ">
				time) when the property was
		</text>
		<text fill="gray" font-size="9" font-family="Segoe UI" x="203, 205.17969, 209.75879, 213.57764, 216.62744, 219.09277, 226.84473, 232.11816, 237.41797, 239.59766, 242.41455, 244.59424, 249.30078, 254.60059, 256.55176, 259.01709, 263.73242, 268.82568, 273.53223, 275.99756, 278.17725, 283.27051, 285.4502, 288.5, 290.67969, 295.25879, 297.43848, 299.90381, 304.21484, 308.79395, 310.97363, 316.06689, " y="479, ">
				last modified. The initial value
		</text>
		<text fill="gray" font-size="9" font-family="Segoe UI" x="203, 205.17969, 208.99854, 211.46387, 214.51367, 219.60693, 224.31348, 226.77881, 232.07861, 236.65771, 239.70752, 244.41406, 246.87939, 249.59521, 254.17432, 259.26758, 264.56738, 266.51855, 268.98389, 274.25732, 279.54834, 282.59814, 284.77783, 290.05127, 295.14453, 299.72363, 301.90332, 304.08301, 308.43799, " y="491, ">
				is the date (and, optionally,
		</text>
		<text fill="gray" font-size="9" font-family="Segoe UI" x="203, 206.0498, 211.14307, 215.84961, 218.31494, 221.36475, 223.54443, 231.29639, 236.00293, 238.71875, 241.18408, 246.45752, 249.27441, 251.73975, 255.89697, 259.02588, 263.73242, 268.31152, 271.36133, 273.54102, 278.81445, 283.90771, 286.37305, 291.64648, 294.46338, 296.92871, 299.97852, 305.07178, " y="503, ">
				the time) of creation of the
		</text>
		<text fill="gray" font-size="9" font-family="Segoe UI" x="203, 208.29102, 211.41992, 216.69336, 221.98438, 226.69092, 229.81982, 232.86963, 237.22461, " y="515, ">
				property.
		</text>
		<rect fill="white" x="207" y="420" width="53" height="16"/>
		<text font-size="12" font-weight="600" font-family="Segoe UI" x="207, 217.99219, 225.32812, 232.75781, 236.16797, 240.76758, 244.17773, 250.66992, " y="433, ">
				modified
		</text>
		<rect fill="none" stroke="black" stroke-width="1" stroke-linecap="square" stroke-miterlimit="4" transform="translate(0.5 0.5)" x="198" y="418" width="68" height="20"/>
		<rect fill="silver" x="202" y="528" width="59" height="21"/>
		<rect fill="white" x="198" y="524" width="59" height="21"/>
		<rect fill="white" x="203" y="551" width="118" height="108"/>
		<text fill="gray" font-size="9" font-family="Segoe UI" x="203, 205.39502, 208.21191, 210.67725, 214.49609, 219.20264, 222.25244, 224.71777, 227.76758, 233.04102, 235.50635, 238.55615, 241.68506, 246.77832, 251.48486, 253.9502, 257, 262.09326, " y="561, ">
				If set to true the
		</text>
		<text fill="gray" font-size="9" font-family="Segoe UI" x="203, 207.15723, 212.43066, 215.55957, 218.68848, 223.39502, 227.21387, 232.50488, 237.77832, 242.87158, 248.17139, 250.35107, 255.44434, 260.74414, 263.20947, 268.50049, 271.62939, 276.90283, 282.19385, 286.90039, 290.0293, 293.0791, 297.43408, 299.89941, 306.40332, 310.98242, " y="573, ">
				corresponding property was
		</text>
		<text fill="gray" font-size="9" font-family="Segoe UI" x="203, 207.5791, 212.87891, 218.17871, 222.88525, 228.18506, 230.65039, 233.7002, 238.97363, 241.43896, 244.48877, 249.58203, 254.28857, 256.75391, 262.92822, 267.77979, 270.24512, 272.64014, 275.68994, 280.39648, 288.14844, 290.61377, 293.43066, 298.7041, 301.83301, 304.29834, " y="585, ">
				added to the G2 Item for a
		</text>
		<text fill="gray" font-size="9" font-family="Segoe UI" x="203, 206.81885, 212.10986, 216.81641, 220.97363, 223.15332, 225.97021, 228.1499, 232.30713, 234.77246, 238.92969, 244.02295, 247.8418, 250.8916, 256.16504, 263.91699, 268.62354, 271.75244, 274.21777, 279.49121, 282.62012, 285.08545, 290.38525, 293.51416, 298.7876, 303.88086, 309.17188, 311.63721, 316.91064, " y="597, ">
				specific customer or group of
		</text>
		<text fill="gray" font-size="9" font-family="Segoe UI" x="203, 207.15723, 212.25049, 216.06934, 219.11914, 224.39258, 232.14453, 236.85107, 239.97998, 243.79883, 246.26416, 251.5376, 256.63086, 258.81055, 263.16553, 265.1167, 267.58203, 272.29736, 277.39062, 282.09717, 284.5625, 289.8623, 294.56885, 297.38574, 301.96484, 307.05811, 309.23779, " y="609, ">
				customers only. The default
		</text>
		<text fill="gray" font-size="9" font-family="Segoe UI" x="203, 207.31104, 211.89014, 214.06982, 219.16309, 223.86963, 226.33496, 231.6084, 234.42529, 236.89062, 239.94043, 245.03369, 247.21338, 251.03223, 253.49756, 258.78857, 261.91748, 267.19092, 272.48193, 277.18848, 280.31738, 283.36719, 287.72217, 290.1875, 292.36719, 296.18604, 298.65137, 301.46826, 306.04736, 308.22705, 312.0459, " y="621, ">
				value of this property is false
		</text>
		<text fill="gray" font-size="9" font-family="Segoe UI" x="203, 209.50391, 214.59717, 216.77686, 220.93408, 226.02734, 228.49268, 233.07178, 238.36279, 243.65381, 245.8335, 248.01318, 252.71973, 256.53857, 259.00391, 265.50781, 270.60107, 275.30762, 280.40088, 282.86621, 285.91602, 291.00928, 293.18896, " y="633, ">
				which applies when this
		</text>
		<text fill="gray" font-size="9" font-family="Segoe UI" x="203, 207.5791, 210.62891, 213.67871, 216.80762, 218.9873, 224.27832, 229.37158, 232.42139, 237.12793, 239.59326, 241.77295, 245.5918, 248.05713, 253.15039, 258.42383, 261.47363, 263.93896, 269.03223, 272.85107, 277.55762, 282.85742, 285.32275, 291.82666, 294.00635, 297.05615, 302.14941, 304.61475, 307.66455, 312.75781, " y="645, ">
				attribute is not used with the
		</text>
		<text fill="gray" font-size="9" font-family="Segoe UI" x="203, 208.29102, 211.41992, 216.69336, 221.98438, 226.69092, 229.81982, 232.86963, 237.22461, " y="657, ">
				property.
		</text>
		<rect fill="white" x="207" y="526" width="43" height="16"/>
		<text font-size="12" font-weight="600" font-family="Segoe UI" x="207, 212.75977, 220.01953, 225.29883, 229.92188, 237.25781, " y="539, ">
				custom
		</text>
		<rect fill="none" stroke="black" stroke-width="1" stroke-linecap="square" stroke-miterlimit="4" transform="translate(0.5 0.5)" x="198" y="524" width="58" height="20"/>
		<rect fill="silver" x="202" y="670" width="52" height="21"/>
		<rect fill="white" x="198" y="666" width="52" height="21"/>
		<rect fill="white" x="203" y="693" width="118" height="48"/>
		<text fill="gray" font-size="9" font-family="Segoe UI" x="203, 205.39502, 210.48828, 215.78809, 217.96777, 222.125, 226.7041, 229.75391, 234.46045, 238.2793, 240.74463, 246.03564, 250.39062, 252.85596, 259.35986, 264.45312, 266.63281, 270.79004, 275.8833, 278.34863, 286.10059, 290.80713, 295.38623, 300.47949, 304.29834, 306.76367, 309.81348, 314.90674, " y="703, ">
				Indicates by which means the
		</text>
		<text fill="gray" font-size="9" font-family="Segoe UI" x="203, 207.31104, 211.89014, 214.06982, 219.16309, 223.86963, 226.33496, 232.83887, 237.41797, 241.23682, 243.70215, 248.40869, 252.53955, 255.58936, 258.71826, 263.29736, 267.45459, 270.50439, 275.21094, 280.51074, 282.97607, 285.79297, 288.92188, 294.19531, 301.94727, 304.4126, 307.4624, 312.55566, " y="715, ">
				value was extracted from the
		</text>
		<text fill="gray" font-size="9" font-family="Segoe UI" x="203, 207.15723, 212.43066, 217.52393, 220.57373, 225.28027, 230.37354, 233.42334, 235.88867, 239.48779, 241.95312, 246.65967, 250.79053, 256.08154, 259.21045, 263.91699, 267.73584, 271.55469, 276.26123, 281.56104, 284.02637, 289.31738, 293.67236, 296.1377, " y="727, ">
				content - expressed by a
		</text>
		<text fill="gray" font-size="9" font-family="Segoe UI" x="203, 209.78516, 215.35742, 220.63086, 225.93066, " y="739, ">
				QCode
		</text>
		<rect fill="white" x="207" y="668" width="36" height="16"/>
		<text font-size="12" font-weight="600" font-family="Segoe UI" x="207, 214.22461, 221.56055, " y="681, ">
				how
		</text>
		<rect fill="none" stroke="black" stroke-width="1" stroke-linecap="square" stroke-miterlimit="4" transform="translate(0.5 0.5)" x="198" y="666" width="51" height="20"/>
		<rect fill="silver" x="202" y="752" width="57" height="21"/>
		<rect fill="white" x="198" y="748" width="57" height="21"/>
		<rect fill="white" x="203" y="775" width="118" height="36"/>
		<text fill="gray" font-size="9" font-family="Segoe UI" x="203, 205.39502, 210.48828, 215.78809, 217.96777, 222.125, 226.7041, 229.75391, 234.46045, 238.2793, 240.74463, 246.03564, 250.39062, 252.85596, 259.35986, 264.45312, 266.63281, 270.79004, 275.8833, 278.34863, 286.10059, 290.80713, 295.38623, 300.47949, 304.29834, 306.76367, 309.81348, 314.90674, " y="785, ">
				Indicates by which means the
		</text>
		<text fill="gray" font-size="9" font-family="Segoe UI" x="203, 207.31104, 211.89014, 214.06982, 219.16309, 223.86963, 226.33496, 232.83887, 237.41797, 241.23682, 243.70215, 248.40869, 252.53955, 255.58936, 258.71826, 263.29736, 267.45459, 270.50439, 275.21094, 280.51074, 282.97607, 285.79297, 288.92188, 294.19531, 301.94727, 304.4126, 307.4624, 312.55566, " y="797, ">
				value was extracted from the
		</text>
		<text fill="gray" font-size="9" font-family="Segoe UI" x="203, 207.15723, 212.43066, 217.52393, 220.57373, 225.28027, 230.37354, 233.42334, 235.88867, 239.48779, 241.95312, 246.65967, 250.79053, 256.08154, 259.21045, 263.91699, 267.73584, 271.55469, 276.26123, 281.56104, 284.02637, 289.31738, 293.67236, 296.1377, 300.7168, 303.18213, 309.36523, 314.74854, " y="809, ">
				content - expressed by a URI
		</text>
		<rect fill="white" x="207" y="750" width="41" height="16"/>
		<text font-size="12" font-weight="600" font-family="Segoe UI" x="207, 214.22461, 221.56055, 231.12891, 238.38867, 243.21094, " y="763, ">
				howuri
		</text>
		<rect fill="none" stroke="black" stroke-width="1" stroke-linecap="square" stroke-miterlimit="4" transform="translate(0.5 0.5)" x="198" y="748" width="56" height="20"/>
		<rect fill="silver" x="202" y="822" width="52" height="21"/>
		<rect fill="white" x="198" y="818" width="52" height="21"/>
		<rect fill="white" x="203" y="845" width="113" height="36"/>
		<text fill="gray" font-size="9" font-family="Segoe UI" x="203, 211.40674, 216.5, 220.85498, 223.32031, 226.37012, 231.46338, 236.16992, 238.63525, 246.38721, 251.09375, 254.14355, 258.72266, 264.02246, 268.60156, 271.65137, 276.23047, 278.6958, 283.78906, 288.36816, 292.18701, 294.65234, 299.94336, 304.6499, 309.35645, " y="855, ">
				Why the metadata has been
		</text>
		<text fill="gray" font-size="9" font-family="Segoe UI" x="203, 205.17969, 210.27295, 214.43018, 216.60986, 221.70312, 227.00293, 231.70947, 237.00928, 239.47461, 243.07373, 245.53906, 250.24561, 254.37646, 259.66748, 262.79639, 267.50293, 271.32178, 275.14062, 279.84717, 285.14697, 287.6123, 292.90332, 297.2583, 299.72363, " y="867, ">
				included - expressed by a
		</text>
		<text fill="gray" font-size="9" font-family="Segoe UI" x="203, 209.78516, 215.35742, 220.63086, 225.93066, " y="879, ">
				QCode
		</text>
		<rect fill="white" x="207" y="820" width="36" height="16"/>
		<text font-size="12" font-weight="600" font-family="Segoe UI" x="207, 216.56836, 223.79297, " y="833, ">
				why
		</text>
		<rect fill="none" stroke="black" stroke-width="1" stroke-linecap="square" stroke-miterlimit="4" transform="translate(0.5 0.5)" x="198" y="818" width="51" height="20"/>
		<rect fill="silver" x="202" y="892" width="56" height="21"/>
		<rect fill="white" x="198" y="888" width="56" height="21"/>
		<rect fill="white" x="203" y="915" width="119" height="24"/>
		<text fill="gray" font-size="9" font-family="Segoe UI" x="203, 211.40674, 216.5, 220.85498, 223.32031, 226.37012, 231.46338, 236.16992, 238.63525, 246.38721, 251.09375, 254.14355, 258.72266, 264.02246, 268.60156, 271.65137, 276.23047, 278.6958, 283.78906, 288.36816, 292.18701, 294.65234, 299.94336, 304.6499, 309.35645, " y="925, ">
				Why the metadata has been
		</text>
		<text fill="gray" font-size="9" font-family="Segoe UI" x="203, 205.17969, 210.27295, 214.43018, 216.60986, 221.70312, 227.00293, 231.70947, 237.00928, 239.47461, 243.07373, 245.53906, 250.24561, 254.37646, 259.66748, 262.79639, 267.50293, 271.32178, 275.14062, 279.84717, 285.14697, 287.6123, 292.90332, 297.2583, 299.72363, 304.30273, 306.76807, 312.95117, 318.33447, " y="937, ">
				included - expressed by a URI
		</text>
		<rect fill="white" x="207" y="890" width="40" height="16"/>
		<text font-size="12" font-weight="600" font-family="Segoe UI" x="207, 216.56836, 223.79297, 230.25, 237.50977, 242.33203, " y="903, ">
				whyuri
		</text>
		<rect fill="none" stroke="black" stroke-width="1" stroke-linecap="square" stroke-miterlimit="4" transform="translate(0.5 0.5)" x="198" y="888" width="55" height="20"/>
		<rect fill="silver" x="202" y="950" width="97" height="21"/>
		<rect fill="white" x="198" y="946" width="97" height="21"/>
		<rect fill="white" x="203" y="973" width="117" height="72"/>
		<text fill="gray" font-size="9" font-family="Segoe UI" x="203, 209.78516, 214.87842, 219.58496, 222.05029, 227.32373, 230.45264, 232.91797, 240.66992, 245.24902, 250.34229, 254.69727, 257.1626, 261.31982, 266.59326, 271.68652, 275.50537, 278.55518, 281.68408, 286.26318, 288.44287, 293.53613, 296.58594, 300.40479, 302.87012, 305.91992, 311.01318, 315.59229, " y="983, ">
				One or many constraints that
		</text>
		<text fill="gray" font-size="9" font-family="Segoe UI" x="203, 207.5791, 212.87012, 218.16113, 220.34082, 224.6958, 227.16113, 230.21094, 235.48438, 237.94971, 243.24072, 248.33398, 253.625, 255.80469, 257.98438, 261.80322, 266.89648, 269.07617, 274.16943, 279.46924, 281.93457, 284.98438, 290.07764, 294.78418, 297.24951, 301.56055, 306.13965, 308.31934, 313.4126, " y="995, ">
				apply to publishing the value
		</text>
		<text fill="gray" font-size="9" font-family="Segoe UI" x="203, 208.27344, 211.09033, 213.55566, 216.60547, 221.69873, 226.40527, 228.87061, 234.16162, 237.29053, 242.56396, 247.85498, 252.56152, 255.69043, 258.74023, 263.09521, 265.56055, 269.15967, 271.625, 276.33154, 280.4624, 285.75342, 288.88232, 293.58887, 297.40771, 301.22656, 305.93311, " y="1007, ">
				of the property - expressed
		</text>
		<text fill="gray" font-size="9" font-family="Segoe UI" x="203, 208.29102, 212.646, 215.11133, 219.69043, 222.15576, 228.94092, 234.51318, 239.78662, 245.08643, 249.79297, 251.74414, 254.20947, 258.76221, 263.34131, 267.49854, 272.5918, 275.05713, 279.21436, 284.48779, 289.58105, 293.3999, 296.44971, 299.57861, 304.15771, 306.3374, 311.43066, " y="1019, ">
				by a QCode. Each constraint
		</text>
		<text fill="gray" font-size="9" font-family="Segoe UI" x="203, 207.5791, 212.87012, 218.16113, 220.34082, 222.52051, 227.22705, 231.0459, 233.51123, 236.56104, 241.83447, 244.2998, 248.87891, 251.05859, 253.23828, 255.70361, 261.00342, 265.70996, 269.52881, 273.68604, 278.39258, 283.48584, 288.78564, 293.36475, 298.45801, " y="1031, ">
				applies to all descendant
		</text>
		<text fill="gray" font-size="9" font-family="Segoe UI" x="203, 207.70654, 209.88623, 214.59277, 222.34473, 227.05127, 232.14453, 235.19434, 239.01318, " y="1043, ">
				elements.
		</text>
		<rect fill="white" x="207" y="948" width="81" height="16"/>
		<text font-size="12" font-weight="600" font-family="Segoe UI" x="207, 214.44141, 221.70117, 229.14258, 234.90234, 242.23828, 249.49805, 254.77734, 259.44727, 264.22266, 270.67969, 274.08984, 281.34961, " y="961, ">
				pubconstraint
		</text>
		<rect fill="none" stroke="black" stroke-width="1" stroke-linecap="square" stroke-miterlimit="4" transform="translate(0.5 0.5)" x="198" y="946" width="96" height="20"/>
		<rect fill="silver" x="202" y="1056" width="112" height="21"/>
		<rect fill="white" x="198" y="1052" width="112" height="21"/>
		<rect fill="white" x="203" y="1079" width="117" height="72"/>
		<text fill="gray" font-size="9" font-family="Segoe UI" x="203, 209.78516, 214.87842, 219.58496, 222.05029, 227.32373, 230.45264, 232.91797, 240.66992, 245.24902, 250.34229, 254.69727, 257.1626, 261.31982, 266.59326, 271.68652, 275.50537, 278.55518, 281.68408, 286.26318, 288.44287, 293.53613, 296.58594, 300.40479, 302.87012, 305.91992, 311.01318, 315.59229, " y="1089, ">
				One or many constraints that
		</text>
		<text fill="gray" font-size="9" font-family="Segoe UI" x="203, 207.5791, 212.87012, 218.16113, 220.34082, 224.6958, 227.16113, 230.21094, 235.48438, 237.94971, 243.24072, 248.33398, 253.625, 255.80469, 257.98438, 261.80322, 266.89648, 269.07617, 274.16943, 279.46924, 281.93457, 284.98438, 290.07764, 294.78418, 297.24951, 301.56055, 306.13965, 308.31934, 313.4126, " y="1101, ">
				apply to publishing the value
		</text>
		<text fill="gray" font-size="9" font-family="Segoe UI" x="203, 208.27344, 211.09033, 213.55566, 216.60547, 221.69873, 226.40527, 228.87061, 234.16162, 237.29053, 242.56396, 247.85498, 252.56152, 255.69043, 258.74023, 263.09521, 265.56055, 269.15967, 271.625, 276.33154, 280.4624, 285.75342, 288.88232, 293.58887, 297.40771, 301.22656, 305.93311, " y="1113, ">
				of the property - expressed
		</text>
		<text fill="gray" font-size="9" font-family="Segoe UI" x="203, 208.29102, 212.646, 215.11133, 219.69043, 222.15576, 228.33887, 233.72217, 236.11719, 238.06836, 240.53369, 245.08643, 249.66553, 253.82275, 258.91602, 261.38135, 265.53857, 270.81201, 275.90527, 279.72412, 282.77393, 285.90283, 290.48193, 292.66162, 297.75488, " y="1125, ">
				by a URI. Each constraint
		</text>
		<text fill="gray" font-size="9" font-family="Segoe UI" x="203, 207.5791, 212.87012, 218.16113, 220.34082, 222.52051, 227.22705, 231.0459, 233.51123, 236.56104, 241.83447, 244.2998, 248.87891, 251.05859, 253.23828, 255.70361, 261.00342, 265.70996, 269.52881, 273.68604, 278.39258, 283.48584, 288.78564, 293.36475, 298.45801, " y="1137, ">
				applies to all descendant
		</text>
		<text fill="gray" font-size="9" font-family="Segoe UI" x="203, 207.70654, 209.88623, 214.59277, 222.34473, 227.05127, 232.14453, 235.19434, 239.01318, " y="1149, ">
				elements.
		</text>
		<rect fill="white" x="207" y="1054" width="96" height="16"/>
		<text font-size="12" font-weight="600" font-family="Segoe UI" x="207, 214.44141, 221.70117, 229.14258, 234.90234, 242.23828, 249.49805, 254.77734, 259.44727, 264.22266, 270.67969, 274.08984, 281.34961, 286.01953, 293.2793, 298.10156, " y="1067, ">
				pubconstrainturi
		</text>
		<rect fill="none" stroke="black" stroke-width="1" stroke-linecap="square" stroke-miterlimit="4" transform="translate(0.5 0.5)" x="198" y="1052" width="111" height="20"/>
		<rect fill="silver" x="202" y="1162" width="52" height="21"/>
		<rect fill="white" x="198" y="1158" width="52" height="21"/>
		<rect fill="white" x="203" y="1185" width="121" height="48"/>
		<text fill="gray" font-size="9" font-family="Segoe UI" x="203, 208.80518, 211.27051, 215.42773, 220.70117, 225.79443, 229.95166, 234.6582, 239.94922, 242.99902, 245.46436, 247.64404, 252.94385, 257.65039, 262.74365, 265.79346, 267.97314, 270.79004, 272.96973, 277.67627, 280.80518, 283.27051, 287.97705, 292.10791, 297.39893, 300.52783, 305.23438, 309.05322, 312.87207, 317.57861, " y="1195, ">
				A concept identifier expressed
		</text>
		<text fill="gray" font-size="9" font-family="Segoe UI" x="203, 207.5791, 211.39795, 213.86328, 218.44238, 220.90771, 224.72656, 227.77637, 230.90527, 233.08496, 238.17822, 243.47803, 245.94336, 251.2168, 254.03369, 256.49902, 259.54883, 264.64209, 269.34863, 271.81396, 274.63086, 279.9043, 283.0332, 290.78516, 293.25049, 297.06934, 300.88818, 304.70703, 306.6582, 310.81543, 314.97266, 319.12988, " y="1207, ">
				as a string of the form sss:ccc,
		</text>
		<text fill="gray" font-size="9" font-family="Segoe UI" x="203, 209.50391, 214.59717, 219.30371, 222.43262, 227.13916, 229.60449, 233.42334, 237.24219, 241.06104, 243.52637, 245.70605, 249.5249, 251.99023, 256.56934, 259.03467, 262.85352, 267.01074, 272.104, 276.81055, 284.5625, 289.26904, 291.73438, 296.31348, 298.49316, 300.67285, 305.25195, " y="1219, ">
				where sss is a scheme alias
		</text>
		<text fill="gray" font-size="9" font-family="Segoe UI" x="203, 207.5791, 212.67236, 217.97217, 220.4375, 224.59473, 228.75195, 232.90918, 235.37451, 237.5542, 241.37305, 243.83838, 248.41748, 250.88281, 255.04004, 260.31348, 265.61328, " y="1231, ">
				and ccc is a code
		</text>
		<rect fill="white" x="207" y="1160" width="36" height="16"/>
		<text font-size="12" font-weight="600" font-family="Segoe UI" x="207, 214.42969, 220.18945, 227.52539, 234.95508, " y="1173, ">
				qcode
		</text>
		<rect fill="none" stroke="black" stroke-width="1" stroke-linecap="square" stroke-miterlimit="4" transform="translate(0.5 0.5)" x="198" y="1158" width="51" height="20"/>
		<rect fill="silver" x="202" y="1244" width="52" height="21"/>
		<rect fill="white" x="198" y="1240" width="52" height="21"/>
		<rect fill="white" x="203" y="1267" width="95" height="24"/>
		<text fill="gray" font-size="9" font-family="Segoe UI" x="203, 208.80518, 211.27051, 217.45361, 222.83691, 225.23193, 227.69727, 234.20117, 239.29443, 241.47412, 245.63135, 250.72461, 253.18994, 255.36963, 260.66943, 265.37598, 270.46924, 273.51904, 275.69873, 278.51562, 280.69531, 285.40186, 289.2207, 291.68604, " y="1277, ">
				A URI which identifies a
		</text>
		<text fill="gray" font-size="9" font-family="Segoe UI" x="203, 207.15723, 212.43066, 217.52393, 221.68115, 226.3877, 231.67871, 234.72852, " y="1289, ">
				concept.
		</text>
		<rect fill="white" x="207" y="1242" width="36" height="16"/>
		<text font-size="12" font-weight="600" font-family="Segoe UI" x="207, 214.25977, 219.08203, " y="1255, ">
				uri
		</text>
		<rect fill="none" stroke="black" stroke-width="1" stroke-linecap="square" stroke-miterlimit="4" transform="translate(0.5 0.5)" x="198" y="1240" width="51" height="20"/>
		<rect fill="silver" x="202" y="1302" width="52" height="21"/>
		<rect fill="white" x="198" y="1298" width="52" height="21"/>
		<rect fill="white" x="203" y="1325" width="121" height="24"/>
		<text fill="gray" font-size="9" font-family="Segoe UI" x="203, 208.80518, 211.27051, 215.42773, 220.70117, 225.79443, 229.95166, 234.6582, 239.94922, 242.99902, 245.46436, 247.64404, 252.94385, 257.65039, 262.74365, 265.79346, 267.97314, 270.79004, 272.96973, 277.67627, 280.80518, 283.27051, 287.97705, 292.10791, 297.39893, 300.52783, 305.23438, 309.05322, 312.87207, 317.57861, " y="1335, ">
				A concept identifier expressed
		</text>
		<text fill="gray" font-size="9" font-family="Segoe UI" x="203, 207.5791, 211.39795, 213.86328, 218.44238, 220.90771, 223.72461, 226.85352, 231.56006, 236.2666, 238.73193, 241.78174, 246.48828, 250.61914, 253.66895, 256.13428, 259.95312, 263.00293, 266.13184, 268.31152, 273.40479, " y="1347, ">
				as a free text string
		</text>
		<rect fill="white" x="207" y="1300" width="36" height="16"/>
		<text font-size="12" font-weight="600" font-family="Segoe UI" x="207, 210.41016, 213.82031, 218.44336, 224.93555, 229.71094, 236.16797, " y="1313, ">
				literal
		</text>
		<rect fill="none" stroke="black" stroke-width="1" stroke-linecap="square" stroke-miterlimit="4" transform="translate(0.5 0.5)" x="198" y="1298" width="51" height="20"/>
		<rect fill="silver" x="202" y="1360" width="52" height="21"/>
		<rect fill="white" x="198" y="1356" width="52" height="21"/>
		<rect fill="white" x="203" y="1383" width="119" height="48"/>
		<text fill="gray" font-size="9" font-family="Segoe UI" x="203, 207.71533, 212.80859, 217.51514, 219.98047, 223.03027, 227.38525, 232.67627, 237.38281, 239.84814, 245.12158, 247.93848, 250.40381, 253.45361, 258.54688, 263.25342, 265.71875, 269.87598, 275.14941, 280.24268, 284.3999, 289.10645, 294.39746, " y="1393, ">
				The type of the concept
		</text>
		<text fill="gray" font-size="9" font-family="Segoe UI" x="203, 207.5791, 211.39795, 215.2168, 217.39648, 222.69629, 227.78955, 232.49609, 237.7959, 240.26123, 244.84033, 248.65918, 251.12451, 255.28174, 260.55518, 265.64844, 268.69824, 271.82715, 277.10059, 279.28027, 281.45996, 286.1665, " y="1405, ">
				assigned as controlled
		</text>
		<text fill="gray" font-size="9" font-family="Segoe UI" x="203, 208.29102, 211.41992, 216.69336, 221.98438, 226.69092, 229.81982, 232.86963, 237.22461, 239.68994, 244.00098, 248.58008, 250.75977, 255.85303, 260.55957, 263.0249, 266.62402, 269.08936, 273.7959, 277.92676, 283.21777, 286.34668, 291.05322, 294.87207, 298.69092, 303.39746, 308.69727, 311.1626, 316.45361, " y="1417, ">
				property value - expressed by
		</text>
		<text fill="gray" font-size="9" font-family="Segoe UI" x="203, 207.5791, 210.04443, 216.82959, 222.40186, 227.67529, 232.9751, " y="1429, ">
				a QCode
		</text>
		<rect fill="white" x="207" y="1358" width="36" height="16"/>
		<text font-size="12" font-weight="600" font-family="Segoe UI" x="207, 211.66992, 218.12695, 225.56836, " y="1371, ">
				type
		</text>
		<rect fill="none" stroke="black" stroke-width="1" stroke-linecap="square" stroke-miterlimit="4" transform="translate(0.5 0.5)" x="198" y="1356" width="51" height="20"/>
		<rect fill="silver" x="202" y="1442" width="58" height="21"/>
		<rect fill="white" x="198" y="1438" width="58" height="21"/>
		<rect fill="white" x="203" y="1465" width="119" height="48"/>
		<text fill="gray" font-size="9" font-family="Segoe UI" x="203, 207.71533, 212.80859, 217.51514, 219.98047, 223.03027, 227.38525, 232.67627, 237.38281, 239.84814, 245.12158, 247.93848, 250.40381, 253.45361, 258.54688, 263.25342, 265.71875, 269.87598, 275.14941, 280.24268, 284.3999, 289.10645, 294.39746, " y="1475, ">
				The type of the concept
		</text>
		<text fill="gray" font-size="9" font-family="Segoe UI" x="203, 207.5791, 211.39795, 215.2168, 217.39648, 222.69629, 227.78955, 232.49609, 237.7959, 240.26123, 244.84033, 248.65918, 251.12451, 255.28174, 260.55518, 265.64844, 268.69824, 271.82715, 277.10059, 279.28027, 281.45996, 286.1665, " y="1487, ">
				assigned as controlled
		</text>
		<text fill="gray" font-size="9" font-family="Segoe UI" x="203, 208.29102, 211.41992, 216.69336, 221.98438, 226.69092, 229.81982, 232.86963, 237.22461, 239.68994, 244.00098, 248.58008, 250.75977, 255.85303, 260.55957, 263.0249, 266.62402, 269.08936, 273.7959, 277.92676, 283.21777, 286.34668, 291.05322, 294.87207, 298.69092, 303.39746, 308.69727, 311.1626, 316.45361, " y="1499, ">
				property value - expressed by
		</text>
		<text fill="gray" font-size="9" font-family="Segoe UI" x="203, 207.5791, 210.04443, 216.22754, 221.61084, " y="1511, ">
				a URI
		</text>
		<rect fill="white" x="207" y="1440" width="42" height="16"/>
		<text font-size="12" font-weight="600" font-family="Segoe UI" x="207, 211.66992, 218.12695, 225.56836, 232.06055, 239.32031, 244.14258, " y="1453, ">
				typeuri
		</text>
		<rect fill="none" stroke="black" stroke-width="1" stroke-linecap="square" stroke-miterlimit="4" transform="translate(0.5 0.5)" x="198" y="1438" width="57" height="20"/>
		<rect fill="silver" x="202" y="1524" width="66" height="21"/>
		<rect fill="white" x="198" y="1520" width="66" height="21"/>
		<rect fill="white" x="203" y="1547" width="121" height="84"/>
		<text fill="gray" font-size="9" font-family="Segoe UI" x="203, 207.78125, 213.07227, 217.77881, 221.93604, 224.11572, 226.93262, 229.1123, 233.81885, 237.6377, 240.10303, 243.15283, 248.24609, 252.95264, 255.41797, 257.59766, 262.17676, 267.27002, 272.56982, 277.66309, 282.24219, 287.54199, 292.24854, 294.71387, 299.9873, 302.8042, 305.26953, 308.31934, 313.4126, 315.59229, " y="1557, ">
				Specifies the language of this
		</text>
		<text fill="gray" font-size="9" font-family="Segoe UI" x="203, 208.29102, 211.41992, 216.69336, 221.98438, 226.69092, 229.81982, 232.86963, 237.22461, 239.68994, 244.26904, 249.3623, 254.66211, 257.12744, 262.41846, 267.69189, 270.7417, 275.44824, 280.5415, 283.59131, 285.771, 290.3501, 292.52979, 294.70947, 299.06445, 301.52979, 306.10889, 308.28857, " y="1569, ">
				property and potentially all
		</text>
		<text fill="gray" font-size="9" font-family="Segoe UI" x="203, 208.2998, 213.00635, 216.8252, 220.98242, 225.68896, 230.78223, 236.08203, 240.66113, 245.75439, 248.8042, 251.26953, 256.56055, 259.68945, 264.96289, 270.25391, 274.96045, 278.08936, 281.13916, 283.31885, 288.02539, 291.84424, " y="1581, ">
				descendant properties.
		</text>
		<text fill="gray" font-size="9" font-family="Segoe UI" x="203, 207.13086, 214.88281, 217.0625, 219.01367, 221.19336, 225.77246, 230.86572, 236.16553, 238.63086, 242.94189, 247.521, 249.70068, 254.79395, 259.50049, 263.31934, 265.78467, 271.05811, 273.875, 276.34033, 281.64014, 286.34668, 290.16553, 294.32275, 299.0293, 304.12256, 309.42236, 314.00146, 319.09473, " y="1593, ">
				xml:lang values of descendant
		</text>
		<text fill="gray" font-size="9" font-family="Segoe UI" x="203, 208.29102, 211.41992, 216.69336, 221.98438, 226.69092, 229.81982, 232.86963, 235.04932, 239.75586, 243.57471, 246.04004, 251.31348, 255.62451, 260.33105, 263.45996, 266.58887, 268.76855, 274.06836, 278.7749, 281.24023, 284.29004, 289.3833, 291.56299, 295.38184, 297.84717, 302.1582, 306.7373, 308.91699, 314.01025, 318.7168, " y="1605, ">
				properties override this value.
		</text>
		<text fill="gray" font-size="9" font-family="Segoe UI" x="203, 207.93066, 212.50977, 214.68945, 219.78271, 224.48926, 228.30811, 230.77344, 235.35254, 238.48145, 243.18799, 245.65332, 250.95312, 255.65967, 258.70947, 263.41602, 266.54492, 274.29688, 276.47656, 281.56982, 286.27637, 291.57617, 294.0415, 299.33252, " y="1617, ">
				Values are determined by
		</text>
		<text fill="gray" font-size="9" font-family="Segoe UI" x="203, 205.39502, 210.48828, 213.53809, 218.24463, 221.37354, 226.4668, 231.17334, 234.22314, 236.68848, 241.84766, 247.41992, 252.46045, 254.92578, 259.77734, 264.62891, " y="1629, ">
				Internet BCP 47.
		</text>
		<rect fill="white" x="207" y="1522" width="50" height="16"/>
		<text font-size="12" font-weight="600" font-family="Segoe UI" x="207, 213.62695, 224.61914, 228.0293, 231.28125, 234.69141, 241.14844, 248.4082, " y="1535, ">
				xml:lang
		</text>
		<path fill="none" stroke="black" stroke-width="2" stroke-miterlimit="4" transform="translate(0.5 0.5)" d="M200 1538L204 1534"/>
		<path fill="none" stroke="black" stroke-width="1" stroke-linecap="square" stroke-miterlimit="4" transform="translate(0.5 0.5)" d="M201 1534L204 1534L204 1537"/>
		<rect fill="none" stroke="black" stroke-width="1" stroke-linecap="square" stroke-miterlimit="4" transform="translate(0.5 0.5)" x="198" y="1520" width="65" height="20"/>
		<rect fill="silver" x="202" y="1642" width="52" height="21"/>
		<rect fill="white" x="198" y="1638" width="52" height="21"/>
		<rect fill="white" x="203" y="1665" width="116" height="24"/>
		<text fill="gray" font-size="9" font-family="Segoe UI" x="203, 207.71533, 212.80859, 217.51514, 219.98047, 225.28027, 227.45996, 230.58887, 235.29541, 239.45264, 242.50244, 244.68213, 249.95557, 255.04883, 259.62793, 261.80762, 263.9873, 267.03711, 271.39209, 273.85742, 279.13086, 281.94775, 284.41309, 287.46289, 292.16943, 296.30029, 299.3501, 304.44336, 309.02246, " y="1675, ">
				The directionality of textual
		</text>
		<text fill="gray" font-size="9" font-family="Segoe UI" x="203, 207.15723, 212.43066, 217.52393, 220.57373, 225.28027, 230.37354, 233.42334, 235.88867, 238.60449, 243.31104, 248.4043, 253.49756, 261.24951, 265.95605, 269.08496, 273.66406, 276.71387, 278.89355, 284.16699, 289.26025, 291.21143, 293.67676, 295.85645, 298.90625, 302.03516, 303.98633, 306.45166, 309.58057, 312.63037, 314.81006, " y="1687, ">
				content (enumeration: ltr, rtl)
		</text>
		<rect fill="white" x="207" y="1640" width="36" height="16"/>
		<text font-size="12" font-weight="600" font-family="Segoe UI" x="207, 214.42969, 217.83984, " y="1653, ">
				dir
		</text>
		<rect fill="none" stroke="black" stroke-width="1" stroke-linecap="square" stroke-miterlimit="4" transform="translate(0.5 0.5)" x="198" y="1638" width="51" height="20"/>
		<path fill="silver" d="M202 1705L207 1700L275 1700L280 1705L280 1716L275 1721L207 1721L202 1716L202 1705Z"/>
		<path fill="white" d="M198 1701L203 1696L271 1696L276 1701L276 1712L271 1717L203 1717L198 1712L198 1701Z"/>
		<rect fill="white" x="225" y="1698" width="46" height="16"/>
		<text font-size="12" font-weight="600" font-family="Segoe UI" x="225, 232.10742, 239.21484, 246.55078, 251.2207, 258.44531, 264.9375, " y="1711, ">
				##other
		</text>
		<rect fill="white" x="203" y="1698" width="20" height="16"/>
		<text fill="gray" font-size="12" font-family="Segoe UI" x="203, 209.10547, 215.89648, " y="1711, ">
				any
		</text>
		<path fill="none" stroke="black" stroke-width="1" stroke-linecap="square" stroke-miterlimit="4" transform="translate(0.5 0.5)" d="M198 1701L203 1696L270 1696L275 1701L275 1711L270 1716L203 1716L198 1711L198 1701Z"/>
		<rect x="189" y="41" width="11" height="11"/>
		<rect fill="white" x="190" y="42" width="9" height="9"/>
		<rect x="191" y="46" width="7" height="1"/>
		<path fill="none" stroke="black" stroke-width="1" stroke-linecap="square" stroke-miterlimit="4" transform="translate(0.5 0.5)" d="M229 1837L237 1837"/>
		<path fill="none" stroke="black" stroke-width="1" stroke-linecap="square" stroke-miterlimit="4" transform="translate(0.5 0.5)" d="M238 1837L238 1751"/>
		<path fill="none" stroke="black" stroke-width="1" stroke-linecap="square" stroke-miterlimit="4" transform="translate(0.5 0.5)" d="M238 1837L238 1923"/>
		<path fill="none" stroke="black" stroke-width="1" stroke-linecap="square" stroke-miterlimit="4" transform="translate(0.5 0.5)" d="M238 1750L252 1750"/>
		<path fill="none" stroke="black" stroke-width="1" stroke-linecap="square" stroke-miterlimit="4" transform="translate(0.5 0.5)" d="M238 1813L252 1813"/>
		<path fill="none" stroke="black" stroke-width="1" stroke-linecap="square" stroke-miterlimit="4" transform="translate(0.5 0.5)" d="M238 1924L252 1924"/>
		<path fill="silver" d="M191 1839L196 1834L221 1834L226 1839L226 1850L221 1855L196 1855L191 1850L191 1839Z"/>
		<path fill="white" d="M187 1835L192 1830L216 1830L221 1835L221 1845L216 1850L192 1850L187 1845L187 1835Z"/>
		<path transform="translate(0.5 0.5)" d="M190.889 1830.4L191.793 1829.5L192.929 1829.5L193.429 1829.5L193.429 1830.5L192.929 1830.5L192 1830.5L192 1830L192.354 1830.35L191.243 1831.46L190.536 1830.76L190.889 1830.4ZM196.929 1829.5L198.929 1829.5L199.429 1829.5L199.429 1830.5L198.929 1830.5L196.429 1830.5L196.429 1829.5L196.929 1829.5ZM202.929 1829.5L204.929 1829.5L205.429 1829.5L205.429 1830.5L204.929 1830.5L202.429 1830.5L202.429 1829.5L202.929 1829.5ZM208.929 1829.5L210.929 1829.5L211.429 1829.5L211.429 1830.5L210.929 1830.5L208.429 1830.5L208.429 1829.5L208.929 1829.5ZM214.929 1829.5L216.207 1829.5L217.01 1830.3L217.364 1830.66L216.657 1831.36L216.303 1831.01L215.646 1830.35L216 1830L216 1830.5L214.429 1830.5L214.429 1829.5L214.929 1829.5ZM219.839 1833.13L221.253 1834.55L221.607 1834.9L220.899 1835.61L220.546 1835.25L218.778 1833.49L219.485 1832.78L219.839 1833.13ZM221.5 1838.86L221.5 1840.86L221.5 1841.36L220.5 1841.36L220.5 1840.86L220.5 1838.36L221.5 1838.36L221.5 1838.86ZM221.5 1844.86L221.5 1845.21L220.04 1846.67L219.686 1847.02L218.979 1846.31L219.333 1845.96L220.646 1844.65L221 1845L220.5 1845L220.5 1844.36L221.5 1844.36L221.5 1844.86ZM217.211 1849.5L216.207 1850.5L215.213 1850.5L214.713 1850.5L214.713 1849.5L215.213 1849.5L216 1849.5L216 1850L215.646 1849.65L216.858 1848.44L217.565 1849.14L217.211 1849.5ZM211.213 1850.5L209.213 1850.5L208.713 1850.5L208.713 1849.5L209.213 1849.5L211.713 1849.5L211.713 1850.5L211.213 1850.5ZM205.213 1850.5L203.213 1850.5L202.713 1850.5L202.713 1849.5L203.213 1849.5L205.713 1849.5L205.713 1850.5L205.213 1850.5ZM199.213 1850.5L197.213 1850.5L196.713 1850.5L196.713 1849.5L197.213 1849.5L199.713 1849.5L199.713 1850.5L199.213 1850.5ZM193.213 1850.5L191.793 1850.5L191.09 1849.8L190.737 1849.44L191.444 1848.74L191.797 1849.09L192.354 1849.65L192 1850L192 1849.5L193.713 1849.5L193.713 1850.5L193.213 1850.5ZM188.262 1846.97L186.847 1845.55L186.494 1845.2L187.201 1844.49L187.555 1844.85L189.322 1846.62L188.615 1847.32L188.262 1846.97ZM186.5 1841.28L186.5 1839.28L186.5 1838.78L187.5 1838.78L187.5 1839.28L187.5 1841.78L186.5 1841.78L186.5 1841.28ZM186.5 1835.28L186.5 1834.79L188.414 1832.88L189.121 1833.59L187.354 1835.35L187 1835L187.5 1835L187.5 1835.78L186.5 1835.78L186.5 1835.28Z"/>
		<path fill="white" d="M184 1832L189 1827L214 1827L219 1832L219 1843L214 1848L189 1848L184 1843L184 1832Z"/>
		<path fill="none" stroke="black" stroke-width="1" stroke-linecap="square" stroke-miterlimit="4" transform="translate(0.5 0.5)" d="M203 1848L209 1854L212 1851"/>
		<path fill="none" stroke="black" stroke-width="1" stroke-linecap="square" stroke-miterlimit="4" transform="translate(0.5 0.5)" d="M189 1837L194 1837L198 1833"/>
		<path fill="none" stroke="black" stroke-width="1" stroke-linecap="square" stroke-miterlimit="4" transform="translate(0.5 0.5)" d="M204 1837L212 1837"/>
		<path fill="none" stroke="black" stroke-width="1" stroke-linecap="square" stroke-miterlimit="4" transform="translate(0.5 0.5)" d="M204 1833L208 1833L208 1841L204 1841"/>
		<rect x="200" y="1832" width="3" height="3"/>
		<rect x="200" y="1836" width="3" height="3"/>
		<rect x="200" y="1840" width="3" height="3"/>
		<text font-size="12" font-family="Segoe UI" x="188.76562, " y="1867, ">
				0
		</text>
		<text font-size="12" font-family="Symbol" x="203.72266, " y="1866, ">
				
		</text>
		<text font-size="12" font-family="Segoe UI" x="196.89844, 199.5, " y="1867, ">
				..
		</text>
		<path transform="translate(0.5 0.5)" d="M187.889 1827.4L188.793 1826.5L189.929 1826.5L190.429 1826.5L190.429 1827.5L189.929 1827.5L189 1827.5L189 1827L189.354 1827.35L188.243 1828.46L187.536 1827.76L187.889 1827.4ZM193.929 1826.5L195.929 1826.5L196.429 1826.5L196.429 1827.5L195.929 1827.5L193.429 1827.5L193.429 1826.5L193.929 1826.5ZM199.929 1826.5L201.929 1826.5L202.429 1826.5L202.429 1827.5L201.929 1827.5L199.429 1827.5L199.429 1826.5L199.929 1826.5ZM205.929 1826.5L207.929 1826.5L208.429 1826.5L208.429 1827.5L207.929 1827.5L205.429 1827.5L205.429 1826.5L205.929 1826.5ZM211.929 1826.5L213.207 1826.5L214.01 1827.3L214.364 1827.66L213.657 1828.36L213.303 1828.01L212.646 1827.35L213 1827L213 1827.5L211.429 1827.5L211.429 1826.5L211.929 1826.5ZM216.839 1830.13L218.253 1831.55L218.607 1831.9L217.899 1832.61L217.546 1832.25L215.778 1830.49L216.485 1829.78L216.839 1830.13ZM218.5 1835.86L218.5 1837.86L218.5 1838.36L217.5 1838.36L217.5 1837.86L217.5 1835.36L218.5 1835.36L218.5 1835.86ZM218.5 1841.86L218.5 1842.21L217.04 1843.67L216.686 1844.02L215.979 1843.31L216.333 1842.96L217.646 1841.65L218 1842L217.5 1842L217.5 1841.36L218.5 1841.36L218.5 1841.86ZM214.211 1846.5L213.207 1847.5L212.213 1847.5L211.713 1847.5L211.713 1846.5L212.213 1846.5L213 1846.5L213 1847L212.646 1846.65L213.858 1845.44L214.565 1846.14L214.211 1846.5ZM208.213 1847.5L206.213 1847.5L205.713 1847.5L205.713 1846.5L206.213 1846.5L208.713 1846.5L208.713 1847.5L208.213 1847.5ZM202.213 1847.5L200.213 1847.5L199.713 1847.5L199.713 1846.5L200.213 1846.5L202.713 1846.5L202.713 1847.5L202.213 1847.5ZM196.213 1847.5L194.213 1847.5L193.713 1847.5L193.713 1846.5L194.213 1846.5L196.713 1846.5L196.713 1847.5L196.213 1847.5ZM190.213 1847.5L188.793 1847.5L188.09 1846.8L187.737 1846.44L188.444 1845.74L188.797 1846.09L189.354 1846.65L189 1847L189 1846.5L190.713 1846.5L190.713 1847.5L190.213 1847.5ZM185.262 1843.97L183.847 1842.55L183.494 1842.2L184.201 1841.49L184.555 1841.85L186.322 1843.62L185.615 1844.32L185.262 1843.97ZM183.5 1838.28L183.5 1836.28L183.5 1835.78L184.5 1835.78L184.5 1836.28L184.5 1838.78L183.5 1838.78L183.5 1838.28ZM183.5 1832.28L183.5 1831.79L185.414 1829.88L186.121 1830.59L184.354 1832.35L184 1832L184.5 1832L184.5 1832.78L183.5 1832.78L183.5 1832.28Z"/>
		<rect fill="silver" x="257" y="1744" width="54" height="21"/>
		<rect fill="white" x="253" y="1740" width="54" height="21"/>
		<rect fill="#FFFFC0" x="258" y="1767" width="115" height="24"/>
		<text fill="gray" font-size="9" font-family="Segoe UI" x="258, 263.80518, 266.27051, 271.36377, 275.94287, 278.99268, 284.08594, 287.21484, 291.79395, 293.97363, 296.43896, 298.61865, 303.19775, 308.29102, 313.59082, 318.68408, 323.26318, 328.56299, 333.26953, 335.73486, 340.82812, 345.40723, 353.15918, 357.86572, 360.33105, 363.14795, 368.42139, " y="1777, ">
				A natural language name for
		</text>
		<text fill="gray" font-size="9" font-family="Segoe UI" x="258, 261.0498, 266.14307, 270.84961, 273.31494, 277.47217, 282.74561, 287.83887, 291.99609, 296.70264, 301.99365, 305.04346, " y="1789, ">
				the concept.
		</text>
		<rect fill="white" x="262" y="1742" width="33" height="16"/>
		<text font-size="12" font-weight="600" font-family="Segoe UI" x="262, 269.25977, 275.7168, 286.70898, " y="1755, ">
				name
		</text>
		<path fill="none" stroke="black" stroke-width="1" stroke-linecap="square" stroke-miterlimit="4" transform="translate(0.5 0.5)" d="M255 1742L260 1742"/>
		<path fill="none" stroke="black" stroke-width="1" stroke-linecap="square" stroke-miterlimit="4" transform="translate(0.5 0.5)" d="M255 1744L259 1744"/>
		<path fill="none" stroke="black" stroke-width="1" stroke-linecap="square" stroke-miterlimit="4" transform="translate(0.5 0.5)" d="M255 1746L259 1746"/>
		<path fill="none" stroke="black" stroke-width="2" stroke-miterlimit="4" transform="translate(0.5 0.5)" d="M255 1758L259 1754"/>
		<path fill="none" stroke="black" stroke-width="1" stroke-linecap="square" stroke-miterlimit="4" transform="translate(0.5 0.5)" d="M256 1754L259 1754L259 1757"/>
		<rect fill="none" stroke="black" stroke-width="1" stroke-linecap="square" stroke-miterlimit="4" transform="translate(0.5 0.5)" x="253" y="1740" width="53" height="20"/>
		<rect x="301" y="1745" width="11" height="11"/>
		<rect fill="white" x="302" y="1746" width="9" height="9"/>
		<rect x="303" y="1750" width="7" height="1"/>
		<rect x="306" y="1747" width="1" height="7"/>
		<rect fill="silver" x="257" y="1807" width="98" height="21"/>
		<rect fill="white" x="253" y="1803" width="98" height="21"/>
		<rect fill="#FFFFC0" x="258" y="1830" width="121" height="72"/>
		<text fill="gray" font-size="9" font-family="Segoe UI" x="258, 263.11963, 267.82617, 273.11719, 276.24609, 280.95264, 284.77148, 289.47803, 294.57129, 297.62109, 301.43994, 303.90527, 306.95508, 312.04834, 316.75488, 319.22021, 324.51123, 329.78467, 333.60352, 335.7832, 338.83301, 341.0127, 346.28613, 351.37939, 353.84473, 359.11816, 361.93506, 364.40039, " y="1840, ">
				Represents the position of a
		</text>
		<text fill="gray" font-size="9" font-family="Segoe UI" x="258, 262.15723, 267.43066, 272.52393, 276.68115, 281.3877, 286.67871, 289.72852, 292.19385, 294.37354, 299.4668, 301.93213, 306.51123, 308.97656, 314.06982, 316.24951, 320.95605, 324.08496, 328.66406, 331.79297, 335.9502, 341.04346, 343.22314, 347.38037, 351.95947, " y="1852, ">
				concept in a hierarchical
		</text>
		<text fill="gray" font-size="9" font-family="Segoe UI" x="258, 261.0498, 265.62891, 269.75977, 275.0332, 280.12646, 285.3999, 293.15186, 297.50684, 299.97217, 303.02197, 306.15088, 310.85742, 315.56396, 318.0293, 323.32031, 327.67529, 330.14062, 334.71973, 337.18506, 341.00391, 345.71045, 351.01025, 356.10352, 360.81006, 365.90332, 370.06055, " y="1864, ">
				taxonomy tree by a sequence
		</text>
		<text fill="gray" font-size="9" font-family="Segoe UI" x="258, 263.27344, 266.09033, 268.55566, 275.34082, 280.91309, 286.18652, 291.48633, 296.19287, 298.6582, 301.70801, 306.98145, 311.45508, 316.16162, 321.25488, 325.07373, 327.53906, 330.66797, 335.37451, 340.66553, 343.79443, 348.50098, 352.31982, 357.02637, 362.11963, 365.16943, 367.34912, 372.44238, " y="1876, ">
				of QCode tokens representing
		</text>
		<text fill="gray" font-size="9" font-family="Segoe UI" x="258, 261.0498, 266.14307, 270.84961, 273.31494, 277.89404, 282.9873, 287.14453, 291.85107, 295.66992, 298.71973, 303.99316, 307.12207, 309.5874, 313.74463, 319.01807, 324.11133, 328.26855, 332.9751, 338.26611, 341.31592, 345.13477, 347.6001, 352.1792, 357.27246, " y="1888, ">
				the ancestor concepts and
		</text>
		<text fill="gray" font-size="9" font-family="Segoe UI" x="258, 261.0498, 266.14307, 268.32275, 272.1416, 274.60693, 278.76416, 284.0376, 289.13086, 293.28809, 297.99463, 303.28564, " y="1900, ">
				this concept
		</text>
		<rect fill="white" x="262" y="1805" width="77" height="16"/>
		<text font-size="12" font-weight="600" font-family="Segoe UI" x="262, 269.22461, 272.63477, 279.12695, 283.90234, 290.35938, 295.08789, 300.84766, 308.07227, 314.5293, 318.33203, 325.5918, 330.19141, " y="1818, ">
				hierarchyInfo
		</text>
		<path fill="none" stroke="black" stroke-width="1" stroke-linecap="square" stroke-miterlimit="4" transform="translate(0.5 0.5)" d="M255 1805L260 1805"/>
		<path fill="none" stroke="black" stroke-width="1" stroke-linecap="square" stroke-miterlimit="4" transform="translate(0.5 0.5)" d="M255 1807L259 1807"/>
		<path fill="none" stroke="black" stroke-width="1" stroke-linecap="square" stroke-miterlimit="4" transform="translate(0.5 0.5)" d="M255 1809L259 1809"/>
		<path fill="none" stroke="black" stroke-width="2" stroke-miterlimit="4" transform="translate(0.5 0.5)" d="M255 1821L259 1817"/>
		<path fill="none" stroke="black" stroke-width="1" stroke-linecap="square" stroke-miterlimit="4" transform="translate(0.5 0.5)" d="M256 1817L259 1817L259 1820"/>
		<rect fill="none" stroke="black" stroke-width="1" stroke-linecap="square" stroke-miterlimit="4" transform="translate(0.5 0.5)" x="253" y="1803" width="97" height="20"/>
		<rect x="345" y="1808" width="11" height="11"/>
		<rect fill="white" x="346" y="1809" width="9" height="9"/>
		<rect x="347" y="1813" width="7" height="1"/>
		<rect x="350" y="1810" width="1" height="7"/>
		<rect fill="silver" x="257" y="1918" width="65" height="21"/>
		<rect fill="white" x="253" y="1914" width="65" height="21"/>
		<rect fill="#FFFFC0" x="258" y="1941" width="121" height="24"/>
		<text fill="gray" font-size="9" font-family="Segoe UI" x="258, 263.80518, 268.89844, 271.36377, 273.54346, 278.84326, 283.5498, 288.64307, 291.69287, 293.87256, 296.68945, 298.86914, 303.57568, 306.70459, 309.16992, 314.44336, 317.26025, 319.72559, 324.30469, 326.77002, 330.92725, 336.20068, 341.29395, 345.45117, 350.15771, 355.44873, 358.49854, 360.96387, 367.46777, 369.64746, 372.69727, " y="1951, ">
				An identifier of a concept with
		</text>
		<text fill="gray" font-size="9" font-family="Segoe UI" x="258, 262.70654, 268.00635, 273.09961, 275.2793, 279.59033, 284.16943, 286.34912, 291.05566, 296.14893, 299.19873, 301.66406, 305.48291, 310.18945, 317.94141, 322.52051, 327.61377, 330.66357, 332.84326, 337.00049, " y="1963, ">
				equivalent semantics
		</text>
		<rect fill="white" x="262" y="1916" width="44" height="16"/>
		<text font-size="12" font-weight="600" font-family="Segoe UI" x="262, 267.2793, 273.73633, 284.72852, 291.2207, 299.6582, " y="1929, ">
				sameAs
		</text>
		<path fill="none" stroke="black" stroke-width="2" stroke-miterlimit="4" transform="translate(0.5 0.5)" d="M255 1932L259 1928"/>
		<path fill="none" stroke="black" stroke-width="1" stroke-linecap="square" stroke-miterlimit="4" transform="translate(0.5 0.5)" d="M256 1928L259 1928L259 1931"/>
		<rect fill="none" stroke="black" stroke-width="1" stroke-linecap="square" stroke-miterlimit="4" transform="translate(0.5 0.5)" x="253" y="1914" width="64" height="20"/>
		<rect x="312" y="1919" width="11" height="11"/>
		<rect fill="white" x="313" y="1920" width="9" height="9"/>
		<rect x="314" y="1924" width="7" height="1"/>
		<rect x="317" y="1921" width="1" height="7"/>
		<rect x="218" y="1832" width="11" height="11"/>
		<rect fill="white" x="219" y="1833" width="9" height="9"/>
		<rect x="220" y="1837" width="7" height="1"/>
		<path fill="white" d="M261 2008L261 1989L184 1989L184 2008L184 2252L330 2252L330 2008L261 2008Z"/>
		<rect fill="white" x="204" y="1991" width="51" height="16"/>
		<text font-size="12" font-style="italic" font-family="Segoe UI" x="204, 210.50391, 214.38281, 218.26172, 222.5332, 225.63867, 232.14258, 238.83984, 242.73047, 248.57227, " y="2004, ">
				attributes
		</text>
		<path fill="none" stroke="black" stroke-width="1" stroke-linecap="square" stroke-miterlimit="4" transform="translate(0.5 0.5)" d="M261 2008L261 1989L184 1989L184 2008L184 2252L330 2252L330 2008L261 2008Z"/>
		<rect fill="silver" x="202" y="2021" width="52" height="21"/>
		<rect fill="white" x="198" y="2017" width="52" height="21"/>
		<rect fill="white" x="203" y="2044" width="120" height="84"/>
		<text fill="gray" font-size="9" font-family="Segoe UI" x="203, 207.71533, 212.80859, 217.51514, 219.98047, 222.16016, 227.45996, 232.1665, 237.25977, 240.30957, 242.48926, 245.30615, 247.48584, 252.19238, 255.32129, 257.78662, 263.06006, 265.87695, 268.34229, 271.39209, 276.48535, " y="2054, ">
				The identifier of the
		</text>
		<text fill="gray" font-size="9" font-family="Segoe UI" x="203, 206.12891, 210.83545, 213.01514, 217.59424, 220.64404, 222.82373, 228.09717, 233.19043, 237.00928, 242.10254, 244.28223, 249.57324, 252.03857, 257.32959, 262.03613, 265.08594, 271.58984, 276.29639, 281.00293, 286.09619, 288.56152, 291.61133, 296.70459, " y="2066, ">
				relationship between the
		</text>
		<text fill="gray" font-size="9" font-family="Segoe UI" x="203, 207.15723, 212.43066, 217.52393, 221.68115, 226.3877, 231.67871, 234.72852, 237.19385, 241.35107, 246.62451, 251.71777, 254.76758, 259.34668, 261.52637, 266.61963, 268.79932, 273.89258, 279.19238, 281.65771, 284.70752, 289.80078, " y="2078, ">
				concept containing the
		</text>
		<text fill="gray" font-size="9" font-family="Segoe UI" x="203, 206.12891, 210.83545, 213.01514, 217.59424, 220.64404, 225.35059, 230.65039, 233.11572, 238.40674, 241.53564, 246.80908, 252.1001, 256.80664, 259.93555, 262.98535, 267.34033, 269.80566, 274.38477, 279.47803, 284.77783, 287.24316, 290.29297, 295.38623, " y="2090, ">
				related property and the
		</text>
		<text fill="gray" font-size="9" font-family="Segoe UI" x="203, 207.15723, 212.43066, 217.52393, 221.68115, 226.3877, 231.67871, 234.72852, 237.19385, 239.37354, 244.67334, 249.37988, 254.47314, 257.52295, 259.70264, 262.51953, 264.69922, 269.40576, 274.70557, 277.1709, 282.46191, 286.81689, 289.28223, 292.33203, 297.42529, " y="2102, ">
				concept identified by the
		</text>
		<text fill="gray" font-size="9" font-family="Segoe UI" x="203, 206.12891, 210.83545, 213.01514, 217.59424, 220.64404, 225.35059, 230.65039, 233.11572, 237.42676, 242.00586, 244.18555, 249.27881, 253.98535, 256.45068, 260.0498, 262.51514, 267.22168, 271.35254, 276.64355, 279.77246, 284.479, 288.29785, 292.1167, 296.82324, 302.12305, 304.58838, 309.87939, 314.23438, 316.69971, " y="2114, ">
				related value - expressed by a
		</text>
		<text fill="gray" font-size="9" font-family="Segoe UI" x="203, 209.78516, 215.35742, 220.63086, 225.93066, " y="2126, ">
				QCode
		</text>
		<rect fill="white" x="207" y="2019" width="36" height="16"/>
		<text font-size="12" font-weight="600" font-family="Segoe UI" x="207, 211.72852, 218.2207, " y="2032, ">
				rel
		</text>
		<rect fill="none" stroke="black" stroke-width="1" stroke-linecap="square" stroke-miterlimit="4" transform="translate(0.5 0.5)" x="198" y="2017" width="51" height="20"/>
		<rect fill="silver" x="202" y="2139" width="52" height="21"/>
		<rect fill="white" x="198" y="2135" width="52" height="21"/>
		<rect fill="white" x="203" y="2162" width="120" height="84"/>
		<text fill="gray" font-size="9" font-family="Segoe UI" x="203, 207.71533, 212.80859, 217.51514, 219.98047, 222.16016, 227.45996, 232.1665, 237.25977, 240.30957, 242.48926, 245.30615, 247.48584, 252.19238, 255.32129, 257.78662, 263.06006, 265.87695, 268.34229, 271.39209, 276.48535, " y="2172, ">
				The identifier of the
		</text>
		<text fill="gray" font-size="9" font-family="Segoe UI" x="203, 206.12891, 210.83545, 213.01514, 217.59424, 220.64404, 222.82373, 228.09717, 233.19043, 237.00928, 242.10254, 244.28223, 249.57324, 252.03857, 257.32959, 262.03613, 265.08594, 271.58984, 276.29639, 281.00293, 286.09619, 288.56152, 291.61133, 296.70459, " y="2184, ">
				relationship between the
		</text>
		<text fill="gray" font-size="9" font-family="Segoe UI" x="203, 207.15723, 212.43066, 217.52393, 221.68115, 226.3877, 231.67871, 234.72852, 237.19385, 241.35107, 246.62451, 251.71777, 254.76758, 259.34668, 261.52637, 266.61963, 268.79932, 273.89258, 279.19238, 281.65771, 284.70752, 289.80078, " y="2196, ">
				concept containing the
		</text>
		<text fill="gray" font-size="9" font-family="Segoe UI" x="203, 206.12891, 210.83545, 213.01514, 217.59424, 220.64404, 225.35059, 230.65039, 233.11572, 238.40674, 241.53564, 246.80908, 252.1001, 256.80664, 259.93555, 262.98535, 267.34033, 269.80566, 274.38477, 279.47803, 284.77783, 287.24316, 290.29297, 295.38623, " y="2208, ">
				related property and the
		</text>
		<text fill="gray" font-size="9" font-family="Segoe UI" x="203, 207.15723, 212.43066, 217.52393, 221.68115, 226.3877, 231.67871, 234.72852, 237.19385, 239.37354, 244.67334, 249.37988, 254.47314, 257.52295, 259.70264, 262.51953, 264.69922, 269.40576, 274.70557, 277.1709, 282.46191, 286.81689, 289.28223, 292.33203, 297.42529, " y="2220, ">
				concept identified by the
		</text>
		<text fill="gray" font-size="9" font-family="Segoe UI" x="203, 206.12891, 210.83545, 213.01514, 217.59424, 220.64404, 225.35059, 230.65039, 233.11572, 237.42676, 242.00586, 244.18555, 249.27881, 253.98535, 256.45068, 260.0498, 262.51514, 267.22168, 271.35254, 276.64355, 279.77246, 284.479, 288.29785, 292.1167, 296.82324, 302.12305, 304.58838, 309.87939, 314.23438, 316.69971, " y="2232, ">
				related value - expressed by a
		</text>
		<text fill="gray" font-size="9" font-family="Segoe UI" x="203, 209.18311, 214.56641, " y="2244, ">
				URI
		</text>
		<rect fill="white" x="207" y="2137" width="36" height="16"/>
		<text font-size="12" font-weight="600" font-family="Segoe UI" x="207, 211.72852, 218.2207, 221.63086, 228.89062, 233.71289, " y="2150, ">
				reluri
		</text>
		<rect fill="none" stroke="black" stroke-width="1" stroke-linecap="square" stroke-miterlimit="4" transform="translate(0.5 0.5)" x="198" y="2135" width="51" height="20"/>
		<rect x="189" y="1994" width="11" height="11"/>
		<rect fill="white" x="190" y="1995" width="9" height="9"/>
		<rect x="191" y="1999" width="7" height="1"/>
		<rect x="132" y="1354" width="11" height="11"/>
		<rect fill="white" x="133" y="1355" width="9" height="9"/>
		<rect x="134" y="1359" width="7" height="1"/>
	</g>
</svg>
