<?xml version="1.0" encoding="utf-8" ?>
<svg xmlns="http://www.w3.org/2000/svg" xmlns:xlink="http://www.w3.org/1999/xlink" width="383" height="1898">
	<clipPath id="cl_534">
		<rect x="-10" y="-5" width="383" height="1898"/>
	</clipPath>
	<g clip-path="url(#cl_534)">
		<rect fill="#FFFFC0" x="134" width="183" height="1202"/>
		<rect fill="none" stroke="gray" stroke-width="1" stroke-linecap="square" stroke-miterlimit="4" transform="translate(0.5 0.5)" x="134" width="182" height="1201"/>
		<path fill="none" stroke="black" stroke-width="1" stroke-linecap="square" stroke-miterlimit="4" transform="translate(0.5 0.5)" d="M71 613L146 613"/>
		<path fill="none" stroke="black" stroke-width="1" stroke-linecap="square" stroke-miterlimit="4" transform="translate(0.5 0.5)" d="M147 613L147 1544"/>
		<path fill="none" stroke="black" stroke-width="1" stroke-linecap="square" stroke-miterlimit="4" transform="translate(0.5 0.5)" d="M147 1545L161 1545"/>
		<path fill="none" stroke="black" stroke-width="1" stroke-linecap="square" stroke-miterlimit="4" transform="translate(0.5 0.5)" d="M147 613L161 613"/>
		<rect fill="silver" x="4" y="607" width="66" height="21"/>
		<rect fill="white" y="603" width="66" height="21"/>
		<rect fill="#FFFFC0" x="142" y="8" width="62" height="16"/>
		<text fill="gray" font-size="12" font-weight="600" font-family="Segoe UI" x="142, 148.42773, 153.09766, 157.91992, 161.33008, 168.58984, 176.01953, 182.51172, 188.96875, 196.41016, " y="21, ">
				StringType
		</text>
		<rect fill="white" x="5" y="630" width="114" height="24"/>
		<text fill="gray" font-size="9" font-family="Segoe UI" x="5, 10.805176, 13.270508, 16.320312, 19.449219, 24.02832, 29.121582, 32.94043, 40.692383, 42.87207, 46.690918, 50.509766, 52.689453, 57.962891, 63.056152, 65.521484, 69.678711, 74.771973, 79.351074, 84.444336, 89.537598, 94.244141, 96.423828, 98.88916, 103.98242, 107.80127, 112.50781, " y="640, ">
				A transmission channel used
		</text>
		<text fill="gray" font-size="9" font-family="Segoe UI" x="5, 10.291016, 14.645996, 17.111328, 20.161133, 25.254395, 29.960938, 32.42627, 40.178223, 44.884766, 48.703613, 52.522461, 57.101562, 62.401367, " y="652, ">
				by the message
		</text>
		<rect fill="white" x="9" y="605" width="45" height="16"/>
		<text font-size="12" font-weight="600" font-family="Segoe UI" x="9, 14.759766, 21.984375, 28.441406, 35.701172, 42.960938, 49.453125, " y="618, ">
				channel
		</text>
		<path fill="none" stroke="black" stroke-width="1" stroke-linecap="square" stroke-miterlimit="4" transform="translate(0.5 0.5)" d="M2 605L7 605"/>
		<path fill="none" stroke="black" stroke-width="1" stroke-linecap="square" stroke-miterlimit="4" transform="translate(0.5 0.5)" d="M2 607L6 607"/>
		<path fill="none" stroke="black" stroke-width="1" stroke-linecap="square" stroke-miterlimit="4" transform="translate(0.5 0.5)" d="M2 609L6 609"/>
		<rect fill="#FFFFC0" x="208" y="8" width="59" height="16"/>
		<text fill="gray" font-size="12" font-family="Segoe UI" x="208, 211.62109, 217.89648, 223.4043, 227.4707, 233.74609, 240.53711, 245.62891, 248.53516, 255.56641, 262.35742, " y="21, ">
				(extension)
		</text>
		<rect fill="none" stroke="black" stroke-width="1" stroke-linecap="square" stroke-miterlimit="4" transform="translate(0.5 0.5)" y="603" width="65" height="20"/>
		<path fill="white" d="M239 55L239 36L162 36L162 55L162 1189L309 1189L309 55L239 55Z"/>
		<rect fill="white" x="182" y="38" width="51" height="16"/>
		<text font-size="12" font-style="italic" font-family="Segoe UI" x="182, 188.50391, 192.38281, 196.26172, 200.5332, 203.63867, 210.14258, 216.83984, 220.73047, 226.57227, " y="51, ">
				attributes
		</text>
		<path fill="none" stroke="black" stroke-width="1" stroke-linecap="square" stroke-miterlimit="4" transform="translate(0.5 0.5)" d="M239 55L239 36L162 36L162 55L162 1189L309 1189L309 55L239 55Z"/>
		<rect fill="silver" x="180" y="68" width="52" height="21"/>
		<rect fill="white" x="176" y="64" width="52" height="21"/>
		<rect fill="white" x="181" y="91" width="101" height="24"/>
		<text fill="gray" font-size="9" font-family="Segoe UI" x="181, 185.71533, 190.80859, 195.51514, 197.98047, 200.16016, 205.43359, 209.59082, 214.16992, 216.34961, 218.81494, 220.99463, 226.29443, 231.00098, 236.09424, 239.14404, 241.32373, 244.14062, 246.32031, 251.02686, 254.15576, 256.62109, 261.89453, 264.71143, 267.17676, 270.22656, 275.31982, " y="101, ">
				The local identifier of the
		</text>
		<text fill="gray" font-size="9" font-family="Segoe UI" x="181, 186.29102, 189.41992, 194.69336, 199.98438, 204.69092, 207.81982, 210.86963, 215.22461, " y="113, ">
				property.
		</text>
		<rect fill="white" x="185" y="66" width="36" height="16"/>
		<text font-size="12" font-weight="600" font-family="Segoe UI" x="185, 188.41016, " y="79, ">
				id
		</text>
		<rect fill="none" stroke="black" stroke-width="1" stroke-linecap="square" stroke-miterlimit="4" transform="translate(0.5 0.5)" x="176" y="64" width="51" height="20"/>
		<rect fill="silver" x="180" y="126" width="58" height="21"/>
		<rect fill="white" x="176" y="122" width="58" height="21"/>
		<rect fill="white" x="181" y="149" width="121" height="120"/>
		<text fill="gray" font-size="9" font-family="Segoe UI" x="181, 183.39502, 186.21191, 188.67725, 191.72705, 196.82031, 201.52686, 203.99219, 209.2832, 212.41211, 217.68555, 222.97656, 227.68311, 230.81201, 233.86182, 238.2168, 240.68213, 244.99316, 249.57227, 251.75195, 256.84521, 261.55176, 264.01709, 266.19678, 270.01562, 272.48096, 277.57422, 282.84766, " y="159, ">
				If the property value is not
		</text>
		<text fill="gray" font-size="9" font-family="Segoe UI" x="181, 186.2998, 191.00635, 193.82324, 196.00293, 201.09619, 205.80273, 211.10254, 213.05371, 215.51904, 219.33789, 224.62891, 229.33545, 233.49268, 235.67236, 238.48926, 240.66895, 245.37549, 249.19434, 251.65967, 258.16357, 263.25684, 265.43652, 269.59375, 274.68701, 277.15234, 281.85889, 286.95215, 290.00195, 292.18164, 295.23145, " y="171, ">
				defined, specifies which entity
		</text>
		<text fill="gray" font-size="9" font-family="Segoe UI" x="181, 183.71582, 189.00684, 193.71338, 196.84229, 200.66113, 205.93457, 211.02783, 212.979, 215.44434, 220.71777, 223.84668, 229.14648, 233.72559, 238.81885, 240.99854, 244.81738, 249.39648, 252.44629, 254.62598, 259.89941, 264.99268, 267.45801, 272.73145, " y="183, ">
				(person, organisation or
		</text>
		<text fill="gray" font-size="9" font-family="Segoe UI" x="181, 184.81885, 189.17383, 192.99268, 196.04248, 200.74902, 208.50098, 211.2168, 213.68213, 220.18604, 222.36572, 224.54541, 226.7251, 229.19043, 233.89697, 239.19678, 241.37646, 244.42627, 246.8916, 249.94141, 255.03467, 259.74121, 262.20654, 267.49756, 270.62646, 275.8999, 281.19092, 285.89746, 289.02637, 292.07617, " y="195, ">
				system) will edit the property
		</text>
		<text fill="gray" font-size="9" font-family="Segoe UI" x="181, 185.31104, 189.89014, 192.06982, 197.16309, 201.86963, 204.33496, 207.93408, 210.39941, 215.10596, 219.23682, 224.52783, 227.65674, 232.36328, 236.18213, 240.00098, 244.70752, 250.00732, 252.47266, 257.76367, 262.11865, 264.58398, 269.16309, 271.62842, 278.41357, 283.98584, 289.25928, 294.55908, 299.26562, " y="207, ">
				value - expressed by a QCode.
		</text>
		<text fill="gray" font-size="9" font-family="Segoe UI" x="181, 183.39502, 186.21191, 188.67725, 191.72705, 196.82031, 201.52686, 203.99219, 209.2832, 212.41211, 217.68555, 222.97656, 227.68311, 230.81201, 233.86182, 238.2168, 240.68213, 244.99316, 249.57227, 251.75195, 256.84521, 261.55176, 264.01709, 266.19678, " y="219, ">
				If the property value is
		</text>
		<text fill="gray" font-size="9" font-family="Segoe UI" x="181, 186.2998, 191.00635, 193.82324, 196.00293, 201.09619, 205.80273, 211.10254, 213.05371, 215.51904, 219.33789, 224.62891, 229.33545, 233.49268, 235.67236, 238.48926, 240.66895, 245.37549, 249.19434, 251.65967, 258.16357, 263.25684, 265.43652, 269.59375, 274.68701, 277.15234, 281.85889, 286.95215, 290.00195, 292.18164, 295.23145, " y="231, ">
				defined, specifies which entity
		</text>
		<text fill="gray" font-size="9" font-family="Segoe UI" x="181, 183.71582, 189.00684, 193.71338, 196.84229, 200.66113, 205.93457, 211.02783, 212.979, 215.44434, 220.71777, 223.84668, 229.14648, 233.72559, 238.81885, 240.99854, 244.81738, 249.39648, 252.44629, 254.62598, 259.89941, 264.99268, 267.45801, 272.73145, " y="243, ">
				(person, organisation or
		</text>
		<text fill="gray" font-size="9" font-family="Segoe UI" x="181, 184.81885, 189.17383, 192.99268, 196.04248, 200.74902, 208.50098, 211.2168, 213.68213, 218.77539, 223.35449, 227.17334, 229.63867, 234.34521, 239.64502, 241.82471, 244.87451, 249.58105, 254.88086, 257.34619, 260.396, 265.48926, " y="255, ">
				system) has edited the
		</text>
		<text fill="gray" font-size="9" font-family="Segoe UI" x="181, 186.29102, 189.41992, 194.69336, 199.98438, 204.69092, 207.81982, 210.86963, 215.22461, 217.68994, 222.00098, 226.58008, 228.75977, 233.85303, 238.55957, " y="267, ">
				property value.
		</text>
		<rect fill="white" x="185" y="124" width="42" height="16"/>
		<text font-size="12" font-weight="600" font-family="Segoe UI" x="185, 190.75977, 195.48828, 201.98047, 208.4375, 213.06055, 220.39648, " y="137, ">
				creator
		</text>
		<rect fill="none" stroke="black" stroke-width="1" stroke-linecap="square" stroke-miterlimit="4" transform="translate(0.5 0.5)" x="176" y="122" width="57" height="20"/>
		<rect fill="silver" x="180" y="280" width="73" height="21"/>
		<rect fill="white" x="176" y="276" width="73" height="21"/>
		<rect fill="white" x="181" y="303" width="120" height="108"/>
		<text fill="gray" font-size="9" font-family="Segoe UI" x="181, 183.39502, 186.21191, 188.67725, 191.72705, 196.82031, 201.52686, 203.99219, 209.2832, 212.41211, 217.68555, 222.97656, 227.68311, 230.81201, 233.86182, 238.2168, 240.68213, 244.99316, 249.57227, 251.75195, 256.84521, 261.55176, 264.01709, 266.19678, 270.01562, 272.48096, 277.57422, 282.84766, " y="313, ">
				If the property value is not
		</text>
		<text fill="gray" font-size="9" font-family="Segoe UI" x="181, 186.2998, 191.00635, 193.82324, 196.00293, 201.09619, 205.80273, 211.10254, 213.05371, 215.51904, 219.33789, 224.62891, 229.33545, 233.49268, 235.67236, 238.48926, 240.66895, 245.37549, 249.19434, 251.65967, 258.16357, 263.25684, 265.43652, 269.59375, 274.68701, 277.15234, 281.85889, 286.95215, 290.00195, 292.18164, 295.23145, " y="325, ">
				defined, specifies which entity
		</text>
		<text fill="gray" font-size="9" font-family="Segoe UI" x="181, 183.71582, 189.00684, 193.71338, 196.84229, 200.66113, 205.93457, 211.02783, 212.979, 215.44434, 220.71777, 223.84668, 229.14648, 233.72559, 238.81885, 240.99854, 244.81738, 249.39648, 252.44629, 254.62598, 259.89941, 264.99268, 267.45801, 272.73145, " y="337, ">
				(person, organisation or
		</text>
		<text fill="gray" font-size="9" font-family="Segoe UI" x="181, 184.81885, 189.17383, 192.99268, 196.04248, 200.74902, 208.50098, 211.2168, 213.68213, 220.18604, 222.36572, 224.54541, 226.7251, 229.19043, 233.89697, 239.19678, 241.37646, 244.42627, 246.8916, 249.94141, 255.03467, 259.74121, 262.20654, 267.49756, 270.62646, 275.8999, 281.19092, 285.89746, 289.02637, 292.07617, " y="349, ">
				system) will edit the property
		</text>
		<text fill="gray" font-size="9" font-family="Segoe UI" x="181, 184.59912, 187.06445, 191.771, 195.90186, 201.19287, 204.32178, 209.02832, 212.84717, 216.66602, 221.37256, 226.67236, 229.1377, 234.42871, 238.78369, 241.24902, 245.82812, 248.29346, 254.47656, 259.85986, 262.25488, 264.20605, 266.67139, 269.06641, 271.8833, 274.34863, 277.39844, 282.4917, " y="361, ">
				- expressed by a URI. If the
		</text>
		<text fill="gray" font-size="9" font-family="Segoe UI" x="181, 186.29102, 189.41992, 194.69336, 199.98438, 204.69092, 207.81982, 210.86963, 215.22461, 217.68994, 222.00098, 226.58008, 228.75977, 233.85303, 238.55957, 241.0249, 243.20459, 247.02344, 249.48877, 254.78857, 259.49512, 262.31201, 264.4917, 269.58496, 274.2915, 279.59131, " y="373, ">
				property value is defined,
		</text>
		<text fill="gray" font-size="9" font-family="Segoe UI" x="181, 184.81885, 190.10986, 194.81641, 198.97363, 201.15332, 203.97021, 206.1499, 210.85645, 214.67529, 217.14062, 223.64453, 228.73779, 230.91748, 235.07471, 240.16797, 242.6333, 247.33984, 252.43311, 255.48291, 257.6626, 260.7124, 265.06738, 267.53271, 270.24854, 275.53955, 280.24609, 283.375, 287.19385, 292.46729, 297.56055, " y="385, ">
				specifies which entity (person,
		</text>
		<text fill="gray" font-size="9" font-family="Segoe UI" x="181, 186.27344, 189.40234, 194.70215, 199.28125, 204.37451, 206.5542, 210.37305, 214.95215, 218.00195, 220.18164, 225.45508, 230.54834, 233.01367, 238.28711, 241.41602, 243.88135, 247.7002, 252.05518, 255.87402, 258.92383, 263.63037, 271.38232, 274.09814, 276.56348, 281.65674, 286.23584, " y="397, ">
				organisation or system) has
		</text>
		<text fill="gray" font-size="9" font-family="Segoe UI" x="181, 185.70654, 191.00635, 193.18604, 196.23584, 200.94238, 206.24219, 208.70752, 211.75732, 216.85059, 221.55713, 224.02246, 229.31348, 232.44238, 237.71582, 243.00684, 247.71338, 250.84229, 253.89209, 258.24707, " y="409, ">
				edited the property.
		</text>
		<rect fill="white" x="185" y="278" width="57" height="16"/>
		<text font-size="12" font-weight="600" font-family="Segoe UI" x="185, 190.75977, 195.48828, 201.98047, 208.4375, 213.06055, 220.39648, 225.20703, 232.4668, 237.28906, " y="291, ">
				creatoruri
		</text>
		<rect fill="none" stroke="black" stroke-width="1" stroke-linecap="square" stroke-miterlimit="4" transform="translate(0.5 0.5)" x="176" y="276" width="72" height="20"/>
		<rect fill="silver" x="180" y="422" width="69" height="21"/>
		<rect fill="white" x="176" y="418" width="69" height="21"/>
		<rect fill="white" x="181" y="445" width="119" height="72"/>
		<text fill="gray" font-size="9" font-family="Segoe UI" x="181, 185.71533, 190.80859, 195.51514, 197.98047, 203.28027, 207.85938, 210.90918, 215.61572, 218.08105, 220.79688, 225.37598, 230.46924, 235.76904, 237.72021, 240.18555, 245.45898, 250.75, 253.7998, 255.97949, 261.25293, 266.34619, 270.92529, 273.10498, 275.28467, 279.63965, 281.59082, 284.05615, 287.10596, 292.19922, " y="455, ">
				The date (and, optionally, the
		</text>
		<text fill="gray" font-size="9" font-family="Segoe UI" x="181, 184.0498, 186.22949, 193.98145, 198.68799, 201.40381, 203.86914, 210.37305, 215.46631, 220.17285, 225.26611, 227.73145, 230.78125, 235.87451, 240.58105, 243.04639, 248.3374, 251.46631, 256.73975, 262.03076, 266.7373, 269.86621, 272.91602, 277.271, 279.73633, 286.24023, 290.81934, " y="467, ">
				time) when the property was
		</text>
		<text fill="gray" font-size="9" font-family="Segoe UI" x="181, 183.17969, 187.75879, 191.57764, 194.62744, 197.09277, 204.84473, 210.11816, 215.41797, 217.59766, 220.41455, 222.59424, 227.30078, 232.60059, 234.55176, 237.01709, 241.73242, 246.82568, 251.53223, 253.99756, 256.17725, 261.27051, 263.4502, 266.5, 268.67969, 273.25879, 275.43848, 277.90381, 282.21484, 286.79395, 288.97363, 294.06689, " y="479, ">
				last modified. The initial value
		</text>
		<text fill="gray" font-size="9" font-family="Segoe UI" x="181, 183.17969, 186.99854, 189.46387, 192.51367, 197.60693, 202.31348, 204.77881, 210.07861, 214.65771, 217.70752, 222.41406, 224.87939, 227.59521, 232.17432, 237.26758, 242.56738, 244.51855, 246.98389, 252.25732, 257.54834, 260.59814, 262.77783, 268.05127, 273.14453, 277.72363, 279.90332, 282.08301, 286.43799, " y="491, ">
				is the date (and, optionally,
		</text>
		<text fill="gray" font-size="9" font-family="Segoe UI" x="181, 184.0498, 189.14307, 193.84961, 196.31494, 199.36475, 201.54443, 209.29639, 214.00293, 216.71875, 219.18408, 224.45752, 227.27441, 229.73975, 233.89697, 237.02588, 241.73242, 246.31152, 249.36133, 251.54102, 256.81445, 261.90771, 264.37305, 269.64648, 272.46338, 274.92871, 277.97852, 283.07178, " y="503, ">
				the time) of creation of the
		</text>
		<text fill="gray" font-size="9" font-family="Segoe UI" x="181, 186.29102, 189.41992, 194.69336, 199.98438, 204.69092, 207.81982, 210.86963, 215.22461, " y="515, ">
				property.
		</text>
		<rect fill="white" x="185" y="420" width="53" height="16"/>
		<text font-size="12" font-weight="600" font-family="Segoe UI" x="185, 195.99219, 203.32812, 210.75781, 214.16797, 218.76758, 222.17773, 228.66992, " y="433, ">
				modified
		</text>
		<rect fill="none" stroke="black" stroke-width="1" stroke-linecap="square" stroke-miterlimit="4" transform="translate(0.5 0.5)" x="176" y="418" width="68" height="20"/>
		<rect fill="silver" x="180" y="528" width="59" height="21"/>
		<rect fill="white" x="176" y="524" width="59" height="21"/>
		<rect fill="white" x="181" y="551" width="118" height="108"/>
		<text fill="gray" font-size="9" font-family="Segoe UI" x="181, 183.39502, 186.21191, 188.67725, 192.49609, 197.20264, 200.25244, 202.71777, 205.76758, 211.04102, 213.50635, 216.55615, 219.68506, 224.77832, 229.48486, 231.9502, 235, 240.09326, " y="561, ">
				If set to true the
		</text>
		<text fill="gray" font-size="9" font-family="Segoe UI" x="181, 185.15723, 190.43066, 193.55957, 196.68848, 201.39502, 205.21387, 210.50488, 215.77832, 220.87158, 226.17139, 228.35107, 233.44434, 238.74414, 241.20947, 246.50049, 249.62939, 254.90283, 260.19385, 264.90039, 268.0293, 271.0791, 275.43408, 277.89941, 284.40332, 288.98242, " y="573, ">
				corresponding property was
		</text>
		<text fill="gray" font-size="9" font-family="Segoe UI" x="181, 185.5791, 190.87891, 196.17871, 200.88525, 206.18506, 208.65039, 211.7002, 216.97363, 219.43896, 222.48877, 227.58203, 232.28857, 234.75391, 240.92822, 245.77979, 248.24512, 250.64014, 253.68994, 258.39648, 266.14844, 268.61377, 271.43066, 276.7041, 279.83301, 282.29834, " y="585, ">
				added to the G2 Item for a
		</text>
		<text fill="gray" font-size="9" font-family="Segoe UI" x="181, 184.81885, 190.10986, 194.81641, 198.97363, 201.15332, 203.97021, 206.1499, 210.30713, 212.77246, 216.92969, 222.02295, 225.8418, 228.8916, 234.16504, 241.91699, 246.62354, 249.75244, 252.21777, 257.49121, 260.62012, 263.08545, 268.38525, 271.51416, 276.7876, 281.88086, 287.17188, 289.63721, 294.91064, " y="597, ">
				specific customer or group of
		</text>
		<text fill="gray" font-size="9" font-family="Segoe UI" x="181, 185.15723, 190.25049, 194.06934, 197.11914, 202.39258, 210.14453, 214.85107, 217.97998, 221.79883, 224.26416, 229.5376, 234.63086, 236.81055, 241.16553, 243.1167, 245.58203, 250.29736, 255.39062, 260.09717, 262.5625, 267.8623, 272.56885, 275.38574, 279.96484, 285.05811, 287.23779, " y="609, ">
				customers only. The default
		</text>
		<text fill="gray" font-size="9" font-family="Segoe UI" x="181, 185.31104, 189.89014, 192.06982, 197.16309, 201.86963, 204.33496, 209.6084, 212.42529, 214.89062, 217.94043, 223.03369, 225.21338, 229.03223, 231.49756, 236.78857, 239.91748, 245.19092, 250.48193, 255.18848, 258.31738, 261.36719, 265.72217, 268.1875, 270.36719, 274.18604, 276.65137, 279.46826, 284.04736, 286.22705, 290.0459, " y="621, ">
				value of this property is false
		</text>
		<text fill="gray" font-size="9" font-family="Segoe UI" x="181, 187.50391, 192.59717, 194.77686, 198.93408, 204.02734, 206.49268, 211.07178, 216.36279, 221.65381, 223.8335, 226.01318, 230.71973, 234.53857, 237.00391, 243.50781, 248.60107, 253.30762, 258.40088, 260.86621, 263.91602, 269.00928, 271.18896, " y="633, ">
				which applies when this
		</text>
		<text fill="gray" font-size="9" font-family="Segoe UI" x="181, 185.5791, 188.62891, 191.67871, 194.80762, 196.9873, 202.27832, 207.37158, 210.42139, 215.12793, 217.59326, 219.77295, 223.5918, 226.05713, 231.15039, 236.42383, 239.47363, 241.93896, 247.03223, 250.85107, 255.55762, 260.85742, 263.32275, 269.82666, 272.00635, 275.05615, 280.14941, 282.61475, 285.66455, 290.75781, " y="645, ">
				attribute is not used with the
		</text>
		<text fill="gray" font-size="9" font-family="Segoe UI" x="181, 186.29102, 189.41992, 194.69336, 199.98438, 204.69092, 207.81982, 210.86963, 215.22461, " y="657, ">
				property.
		</text>
		<rect fill="white" x="185" y="526" width="43" height="16"/>
		<text font-size="12" font-weight="600" font-family="Segoe UI" x="185, 190.75977, 198.01953, 203.29883, 207.92188, 215.25781, " y="539, ">
				custom
		</text>
		<rect fill="none" stroke="black" stroke-width="1" stroke-linecap="square" stroke-miterlimit="4" transform="translate(0.5 0.5)" x="176" y="524" width="58" height="20"/>
		<rect fill="silver" x="180" y="670" width="52" height="21"/>
		<rect fill="white" x="176" y="666" width="52" height="21"/>
		<rect fill="white" x="181" y="693" width="118" height="48"/>
		<text fill="gray" font-size="9" font-family="Segoe UI" x="181, 183.39502, 188.48828, 193.78809, 195.96777, 200.125, 204.7041, 207.75391, 212.46045, 216.2793, 218.74463, 224.03564, 228.39062, 230.85596, 237.35986, 242.45312, 244.63281, 248.79004, 253.8833, 256.34863, 264.10059, 268.80713, 273.38623, 278.47949, 282.29834, 284.76367, 287.81348, 292.90674, " y="703, ">
				Indicates by which means the
		</text>
		<text fill="gray" font-size="9" font-family="Segoe UI" x="181, 185.31104, 189.89014, 192.06982, 197.16309, 201.86963, 204.33496, 210.83887, 215.41797, 219.23682, 221.70215, 226.40869, 230.53955, 233.58936, 236.71826, 241.29736, 245.45459, 248.50439, 253.21094, 258.51074, 260.97607, 263.79297, 266.92188, 272.19531, 279.94727, 282.4126, 285.4624, 290.55566, " y="715, ">
				value was extracted from the
		</text>
		<text fill="gray" font-size="9" font-family="Segoe UI" x="181, 185.15723, 190.43066, 195.52393, 198.57373, 203.28027, 208.37354, 211.42334, 213.88867, 217.48779, 219.95312, 224.65967, 228.79053, 234.08154, 237.21045, 241.91699, 245.73584, 249.55469, 254.26123, 259.56104, 262.02637, 267.31738, 271.67236, 274.1377, " y="727, ">
				content - expressed by a
		</text>
		<text fill="gray" font-size="9" font-family="Segoe UI" x="181, 187.78516, 193.35742, 198.63086, 203.93066, " y="739, ">
				QCode
		</text>
		<rect fill="white" x="185" y="668" width="36" height="16"/>
		<text font-size="12" font-weight="600" font-family="Segoe UI" x="185, 192.22461, 199.56055, " y="681, ">
				how
		</text>
		<rect fill="none" stroke="black" stroke-width="1" stroke-linecap="square" stroke-miterlimit="4" transform="translate(0.5 0.5)" x="176" y="666" width="51" height="20"/>
		<rect fill="silver" x="180" y="752" width="57" height="21"/>
		<rect fill="white" x="176" y="748" width="57" height="21"/>
		<rect fill="white" x="181" y="775" width="118" height="36"/>
		<text fill="gray" font-size="9" font-family="Segoe UI" x="181, 183.39502, 188.48828, 193.78809, 195.96777, 200.125, 204.7041, 207.75391, 212.46045, 216.2793, 218.74463, 224.03564, 228.39062, 230.85596, 237.35986, 242.45312, 244.63281, 248.79004, 253.8833, 256.34863, 264.10059, 268.80713, 273.38623, 278.47949, 282.29834, 284.76367, 287.81348, 292.90674, " y="785, ">
				Indicates by which means the
		</text>
		<text fill="gray" font-size="9" font-family="Segoe UI" x="181, 185.31104, 189.89014, 192.06982, 197.16309, 201.86963, 204.33496, 210.83887, 215.41797, 219.23682, 221.70215, 226.40869, 230.53955, 233.58936, 236.71826, 241.29736, 245.45459, 248.50439, 253.21094, 258.51074, 260.97607, 263.79297, 266.92188, 272.19531, 279.94727, 282.4126, 285.4624, 290.55566, " y="797, ">
				value was extracted from the
		</text>
		<text fill="gray" font-size="9" font-family="Segoe UI" x="181, 185.15723, 190.43066, 195.52393, 198.57373, 203.28027, 208.37354, 211.42334, 213.88867, 217.48779, 219.95312, 224.65967, 228.79053, 234.08154, 237.21045, 241.91699, 245.73584, 249.55469, 254.26123, 259.56104, 262.02637, 267.31738, 271.67236, 274.1377, 278.7168, 281.18213, 287.36523, 292.74854, " y="809, ">
				content - expressed by a URI
		</text>
		<rect fill="white" x="185" y="750" width="41" height="16"/>
		<text font-size="12" font-weight="600" font-family="Segoe UI" x="185, 192.22461, 199.56055, 209.12891, 216.38867, 221.21094, " y="763, ">
				howuri
		</text>
		<rect fill="none" stroke="black" stroke-width="1" stroke-linecap="square" stroke-miterlimit="4" transform="translate(0.5 0.5)" x="176" y="748" width="56" height="20"/>
		<rect fill="silver" x="180" y="822" width="52" height="21"/>
		<rect fill="white" x="176" y="818" width="52" height="21"/>
		<rect fill="white" x="181" y="845" width="113" height="36"/>
		<text fill="gray" font-size="9" font-family="Segoe UI" x="181, 189.40674, 194.5, 198.85498, 201.32031, 204.37012, 209.46338, 214.16992, 216.63525, 224.38721, 229.09375, 232.14355, 236.72266, 242.02246, 246.60156, 249.65137, 254.23047, 256.6958, 261.78906, 266.36816, 270.18701, 272.65234, 277.94336, 282.6499, 287.35645, " y="855, ">
				Why the metadata has been
		</text>
		<text fill="gray" font-size="9" font-family="Segoe UI" x="181, 183.17969, 188.27295, 192.43018, 194.60986, 199.70312, 205.00293, 209.70947, 215.00928, 217.47461, 221.07373, 223.53906, 228.24561, 232.37646, 237.66748, 240.79639, 245.50293, 249.32178, 253.14062, 257.84717, 263.14697, 265.6123, 270.90332, 275.2583, 277.72363, " y="867, ">
				included - expressed by a
		</text>
		<text fill="gray" font-size="9" font-family="Segoe UI" x="181, 187.78516, 193.35742, 198.63086, 203.93066, " y="879, ">
				QCode
		</text>
		<rect fill="white" x="185" y="820" width="36" height="16"/>
		<text font-size="12" font-weight="600" font-family="Segoe UI" x="185, 194.56836, 201.79297, " y="833, ">
				why
		</text>
		<rect fill="none" stroke="black" stroke-width="1" stroke-linecap="square" stroke-miterlimit="4" transform="translate(0.5 0.5)" x="176" y="818" width="51" height="20"/>
		<rect fill="silver" x="180" y="892" width="56" height="21"/>
		<rect fill="white" x="176" y="888" width="56" height="21"/>
		<rect fill="white" x="181" y="915" width="119" height="24"/>
		<text fill="gray" font-size="9" font-family="Segoe UI" x="181, 189.40674, 194.5, 198.85498, 201.32031, 204.37012, 209.46338, 214.16992, 216.63525, 224.38721, 229.09375, 232.14355, 236.72266, 242.02246, 246.60156, 249.65137, 254.23047, 256.6958, 261.78906, 266.36816, 270.18701, 272.65234, 277.94336, 282.6499, 287.35645, " y="925, ">
				Why the metadata has been
		</text>
		<text fill="gray" font-size="9" font-family="Segoe UI" x="181, 183.17969, 188.27295, 192.43018, 194.60986, 199.70312, 205.00293, 209.70947, 215.00928, 217.47461, 221.07373, 223.53906, 228.24561, 232.37646, 237.66748, 240.79639, 245.50293, 249.32178, 253.14062, 257.84717, 263.14697, 265.6123, 270.90332, 275.2583, 277.72363, 282.30273, 284.76807, 290.95117, 296.33447, " y="937, ">
				included - expressed by a URI
		</text>
		<rect fill="white" x="185" y="890" width="40" height="16"/>
		<text font-size="12" font-weight="600" font-family="Segoe UI" x="185, 194.56836, 201.79297, 208.25, 215.50977, 220.33203, " y="903, ">
				whyuri
		</text>
		<rect fill="none" stroke="black" stroke-width="1" stroke-linecap="square" stroke-miterlimit="4" transform="translate(0.5 0.5)" x="176" y="888" width="55" height="20"/>
		<rect fill="silver" x="180" y="950" width="97" height="21"/>
		<rect fill="white" x="176" y="946" width="97" height="21"/>
		<rect fill="white" x="181" y="973" width="117" height="72"/>
		<text fill="gray" font-size="9" font-family="Segoe UI" x="181, 187.78516, 192.87842, 197.58496, 200.05029, 205.32373, 208.45264, 210.91797, 218.66992, 223.24902, 228.34229, 232.69727, 235.1626, 239.31982, 244.59326, 249.68652, 253.50537, 256.55518, 259.68408, 264.26318, 266.44287, 271.53613, 274.58594, 278.40479, 280.87012, 283.91992, 289.01318, 293.59229, " y="983, ">
				One or many constraints that
		</text>
		<text fill="gray" font-size="9" font-family="Segoe UI" x="181, 185.5791, 190.87012, 196.16113, 198.34082, 202.6958, 205.16113, 208.21094, 213.48438, 215.94971, 221.24072, 226.33398, 231.625, 233.80469, 235.98438, 239.80322, 244.89648, 247.07617, 252.16943, 257.46924, 259.93457, 262.98438, 268.07764, 272.78418, 275.24951, 279.56055, 284.13965, 286.31934, 291.4126, " y="995, ">
				apply to publishing the value
		</text>
		<text fill="gray" font-size="9" font-family="Segoe UI" x="181, 186.27344, 189.09033, 191.55566, 194.60547, 199.69873, 204.40527, 206.87061, 212.16162, 215.29053, 220.56396, 225.85498, 230.56152, 233.69043, 236.74023, 241.09521, 243.56055, 247.15967, 249.625, 254.33154, 258.4624, 263.75342, 266.88232, 271.58887, 275.40771, 279.22656, 283.93311, " y="1007, ">
				of the property - expressed
		</text>
		<text fill="gray" font-size="9" font-family="Segoe UI" x="181, 186.29102, 190.646, 193.11133, 197.69043, 200.15576, 206.94092, 212.51318, 217.78662, 223.08643, 227.79297, 229.74414, 232.20947, 236.76221, 241.34131, 245.49854, 250.5918, 253.05713, 257.21436, 262.48779, 267.58105, 271.3999, 274.44971, 277.57861, 282.15771, 284.3374, 289.43066, " y="1019, ">
				by a QCode. Each constraint
		</text>
		<text fill="gray" font-size="9" font-family="Segoe UI" x="181, 185.5791, 190.87012, 196.16113, 198.34082, 200.52051, 205.22705, 209.0459, 211.51123, 214.56104, 219.83447, 222.2998, 226.87891, 229.05859, 231.23828, 233.70361, 239.00342, 243.70996, 247.52881, 251.68604, 256.39258, 261.48584, 266.78564, 271.36475, 276.45801, " y="1031, ">
				applies to all descendant
		</text>
		<text fill="gray" font-size="9" font-family="Segoe UI" x="181, 185.70654, 187.88623, 192.59277, 200.34473, 205.05127, 210.14453, 213.19434, 217.01318, " y="1043, ">
				elements.
		</text>
		<rect fill="white" x="185" y="948" width="81" height="16"/>
		<text font-size="12" font-weight="600" font-family="Segoe UI" x="185, 192.44141, 199.70117, 207.14258, 212.90234, 220.23828, 227.49805, 232.77734, 237.44727, 242.22266, 248.67969, 252.08984, 259.34961, " y="961, ">
				pubconstraint
		</text>
		<rect fill="none" stroke="black" stroke-width="1" stroke-linecap="square" stroke-miterlimit="4" transform="translate(0.5 0.5)" x="176" y="946" width="96" height="20"/>
		<rect fill="silver" x="180" y="1056" width="112" height="21"/>
		<rect fill="white" x="176" y="1052" width="112" height="21"/>
		<rect fill="white" x="181" y="1079" width="117" height="72"/>
		<text fill="gray" font-size="9" font-family="Segoe UI" x="181, 187.78516, 192.87842, 197.58496, 200.05029, 205.32373, 208.45264, 210.91797, 218.66992, 223.24902, 228.34229, 232.69727, 235.1626, 239.31982, 244.59326, 249.68652, 253.50537, 256.55518, 259.68408, 264.26318, 266.44287, 271.53613, 274.58594, 278.40479, 280.87012, 283.91992, 289.01318, 293.59229, " y="1089, ">
				One or many constraints that
		</text>
		<text fill="gray" font-size="9" font-family="Segoe UI" x="181, 185.5791, 190.87012, 196.16113, 198.34082, 202.6958, 205.16113, 208.21094, 213.48438, 215.94971, 221.24072, 226.33398, 231.625, 233.80469, 235.98438, 239.80322, 244.89648, 247.07617, 252.16943, 257.46924, 259.93457, 262.98438, 268.07764, 272.78418, 275.24951, 279.56055, 284.13965, 286.31934, 291.4126, " y="1101, ">
				apply to publishing the value
		</text>
		<text fill="gray" font-size="9" font-family="Segoe UI" x="181, 186.27344, 189.09033, 191.55566, 194.60547, 199.69873, 204.40527, 206.87061, 212.16162, 215.29053, 220.56396, 225.85498, 230.56152, 233.69043, 236.74023, 241.09521, 243.56055, 247.15967, 249.625, 254.33154, 258.4624, 263.75342, 266.88232, 271.58887, 275.40771, 279.22656, 283.93311, " y="1113, ">
				of the property - expressed
		</text>
		<text fill="gray" font-size="9" font-family="Segoe UI" x="181, 186.29102, 190.646, 193.11133, 197.69043, 200.15576, 206.33887, 211.72217, 214.11719, 216.06836, 218.53369, 223.08643, 227.66553, 231.82275, 236.91602, 239.38135, 243.53857, 248.81201, 253.90527, 257.72412, 260.77393, 263.90283, 268.48193, 270.66162, 275.75488, " y="1125, ">
				by a URI. Each constraint
		</text>
		<text fill="gray" font-size="9" font-family="Segoe UI" x="181, 185.5791, 190.87012, 196.16113, 198.34082, 200.52051, 205.22705, 209.0459, 211.51123, 214.56104, 219.83447, 222.2998, 226.87891, 229.05859, 231.23828, 233.70361, 239.00342, 243.70996, 247.52881, 251.68604, 256.39258, 261.48584, 266.78564, 271.36475, 276.45801, " y="1137, ">
				applies to all descendant
		</text>
		<text fill="gray" font-size="9" font-family="Segoe UI" x="181, 185.70654, 187.88623, 192.59277, 200.34473, 205.05127, 210.14453, 213.19434, 217.01318, " y="1149, ">
				elements.
		</text>
		<rect fill="white" x="185" y="1054" width="96" height="16"/>
		<text font-size="12" font-weight="600" font-family="Segoe UI" x="185, 192.44141, 199.70117, 207.14258, 212.90234, 220.23828, 227.49805, 232.77734, 237.44727, 242.22266, 248.67969, 252.08984, 259.34961, 264.01953, 271.2793, 276.10156, " y="1067, ">
				pubconstrainturi
		</text>
		<rect fill="none" stroke="black" stroke-width="1" stroke-linecap="square" stroke-miterlimit="4" transform="translate(0.5 0.5)" x="176" y="1052" width="111" height="20"/>
		<path fill="silver" d="M180 1167L185 1162L253 1162L258 1167L258 1178L253 1183L185 1183L180 1178L180 1167Z"/>
		<path fill="white" d="M176 1163L181 1158L249 1158L254 1163L254 1174L249 1179L181 1179L176 1174L176 1163Z"/>
		<rect fill="white" x="203" y="1160" width="46" height="16"/>
		<text font-size="12" font-weight="600" font-family="Segoe UI" x="203, 210.10742, 217.21484, 224.55078, 229.2207, 236.44531, 242.9375, " y="1173, ">
				##other
		</text>
		<rect fill="white" x="181" y="1160" width="20" height="16"/>
		<text fill="gray" font-size="12" font-family="Segoe UI" x="181, 187.10547, 193.89648, " y="1173, ">
				any
		</text>
		<path fill="none" stroke="black" stroke-width="1" stroke-linecap="square" stroke-miterlimit="4" transform="translate(0.5 0.5)" d="M176 1163L181 1158L248 1158L253 1163L253 1173L248 1178L181 1178L176 1173L176 1163Z"/>
		<rect x="167" y="41" width="11" height="11"/>
		<rect fill="white" x="168" y="42" width="9" height="9"/>
		<rect x="169" y="46" width="7" height="1"/>
		<path fill="white" d="M239 1233L239 1214L162 1214L162 1233L162 1875L348 1875L348 1233L239 1233Z"/>
		<rect fill="white" x="182" y="1216" width="51" height="16"/>
		<text font-size="12" font-style="italic" font-family="Segoe UI" x="182, 188.50391, 192.38281, 196.26172, 200.5332, 203.63867, 210.14258, 216.83984, 220.73047, 226.57227, " y="1229, ">
				attributes
		</text>
		<path fill="none" stroke="black" stroke-width="1" stroke-linecap="square" stroke-miterlimit="4" transform="translate(0.5 0.5)" d="M239 1233L239 1214L162 1214L162 1233L162 1875L348 1875L348 1233L239 1233Z"/>
		<path fill="white" d="M340 1261L340 1242L176 1242L176 1261L176 1772L340 1772L340 1261Z"/>
		<rect fill="white" x="181" y="1775" width="143" height="24"/>
		<text fill="gray" font-size="9" font-family="Segoe UI" x="183.46533, 189.27051, 191.73584, 197.03564, 200.16455, 205.43799, 210.53125, 215.82227, 218.2876, 223.56104, 226.37793, 228.84326, 233.42236, 236.47217, 239.52197, 242.65088, 244.83057, 250.12158, 255.21484, 258.26465, 262.97119, 266.79004, 269.25537, 274.34863, 278.16748, 282.87402, 288.17383, 290.63916, 293.45605, 298.72949, 301.8584, 304.32373, " y="1785, ">
				A group of attributes used for a
		</text>
		<text fill="gray" font-size="9" font-family="Segoe UI" x="181, 186.2998, 191.39307, 195.97217, 198.15186, 200.33154, 203.14844, 205.32812, 210.03467, 215.33447, 217.7998, 222.50635, 226.63721, 231.92822, 235.05713, 239.76367, 243.58252, 247.40137, 249.58105, 254.85449, 259.94775, 262.41309, 267.68652, 270.50342, 272.96875, 276.01855, 281.11182, 285.81836, 288.28369, 293.57471, 296.70361, 301.97705, 307.26807, 311.97461, 315.10352, 318.15332, " y="1797, ">
				qualified expression of the property
		</text>
		<rect fill="white" x="218" y="1244" width="116" height="16"/>
		<text font-size="12" font-weight="600" font-family="Segoe UI" x="218, 225.42969, 232.68945, 239.14648, 242.55664, 245.9668, 250.80664, 257.26367, 260.67383, 267.93359, 275.36328, 283.56055, 288.23047, 292.90039, 297.72266, 301.13281, 308.57422, 315.83398, 320.45703, 326.94922, " y="1257, ">
				qualifyingAttributes
		</text>
		<rect fill="white" x="196" y="1244" width="20" height="16"/>
		<text fill="gray" font-size="12" font-family="Segoe UI" x="196, 203.06641, 207.23828, " y="1257, ">
				grp
		</text>
		<path fill="none" stroke="gray" stroke-width="1" stroke-linecap="square" stroke-miterlimit="4" transform="translate(0.5 0.5)" d="M176 1261L176 1772L340 1772L340 1261L340 1261"/>
		<path fill="none" stroke="black" stroke-width="1" stroke-linecap="square" stroke-miterlimit="4" transform="translate(0.5 0.5)" d="M340 1261L340 1242L176 1242L176 1261"/>
		<rect x="181" y="1247" width="11" height="11"/>
		<rect fill="white" x="182" y="1248" width="9" height="9"/>
		<rect x="183" y="1252" width="7" height="1"/>
		<rect fill="silver" x="188" y="1275" width="52" height="21"/>
		<rect fill="white" x="184" y="1271" width="52" height="21"/>
		<rect fill="white" x="189" y="1298" width="121" height="48"/>
		<text fill="gray" font-size="9" font-family="Segoe UI" x="189, 194.80518, 197.27051, 201.42773, 206.70117, 211.79443, 215.95166, 220.6582, 225.94922, 228.99902, 231.46436, 233.64404, 238.94385, 243.65039, 248.74365, 251.79346, 253.97314, 256.79004, 258.96973, 263.67627, 266.80518, 269.27051, 273.97705, 278.10791, 283.39893, 286.52783, 291.23438, 295.05322, 298.87207, 303.57861, " y="1308, ">
				A concept identifier expressed
		</text>
		<text fill="gray" font-size="9" font-family="Segoe UI" x="189, 193.5791, 197.39795, 199.86328, 204.44238, 206.90771, 210.72656, 213.77637, 216.90527, 219.08496, 224.17822, 229.47803, 231.94336, 237.2168, 240.03369, 242.49902, 245.54883, 250.64209, 255.34863, 257.81396, 260.63086, 265.9043, 269.0332, 276.78516, 279.25049, 283.06934, 286.88818, 290.70703, 292.6582, 296.81543, 300.97266, 305.12988, " y="1320, ">
				as a string of the form sss:ccc,
		</text>
		<text fill="gray" font-size="9" font-family="Segoe UI" x="189, 195.50391, 200.59717, 205.30371, 208.43262, 213.13916, 215.60449, 219.42334, 223.24219, 227.06104, 229.52637, 231.70605, 235.5249, 237.99023, 242.56934, 245.03467, 248.85352, 253.01074, 258.104, 262.81055, 270.5625, 275.26904, 277.73438, 282.31348, 284.49316, 286.67285, 291.25195, " y="1332, ">
				where sss is a scheme alias
		</text>
		<text fill="gray" font-size="9" font-family="Segoe UI" x="189, 193.5791, 198.67236, 203.97217, 206.4375, 210.59473, 214.75195, 218.90918, 221.37451, 223.5542, 227.37305, 229.83838, 234.41748, 236.88281, 241.04004, 246.31348, 251.61328, " y="1344, ">
				and ccc is a code
		</text>
		<rect fill="white" x="193" y="1273" width="36" height="16"/>
		<text font-size="12" font-weight="600" font-family="Segoe UI" x="193, 200.42969, 206.18945, 213.52539, 220.95508, " y="1286, ">
				qcode
		</text>
		<rect fill="none" stroke="black" stroke-width="1" stroke-linecap="square" stroke-miterlimit="4" transform="translate(0.5 0.5)" x="184" y="1271" width="51" height="20"/>
		<rect fill="silver" x="188" y="1357" width="52" height="21"/>
		<rect fill="white" x="184" y="1353" width="52" height="21"/>
		<rect fill="white" x="189" y="1380" width="95" height="24"/>
		<text fill="gray" font-size="9" font-family="Segoe UI" x="189, 194.80518, 197.27051, 203.45361, 208.83691, 211.23193, 213.69727, 220.20117, 225.29443, 227.47412, 231.63135, 236.72461, 239.18994, 241.36963, 246.66943, 251.37598, 256.46924, 259.51904, 261.69873, 264.51562, 266.69531, 271.40186, 275.2207, 277.68604, " y="1390, ">
				A URI which identifies a
		</text>
		<text fill="gray" font-size="9" font-family="Segoe UI" x="189, 193.15723, 198.43066, 203.52393, 207.68115, 212.3877, 217.67871, 220.72852, " y="1402, ">
				concept.
		</text>
		<rect fill="white" x="193" y="1355" width="36" height="16"/>
		<text font-size="12" font-weight="600" font-family="Segoe UI" x="193, 200.25977, 205.08203, " y="1368, ">
				uri
		</text>
		<rect fill="none" stroke="black" stroke-width="1" stroke-linecap="square" stroke-miterlimit="4" transform="translate(0.5 0.5)" x="184" y="1353" width="51" height="20"/>
		<rect fill="silver" x="188" y="1415" width="52" height="21"/>
		<rect fill="white" x="184" y="1411" width="52" height="21"/>
		<rect fill="white" x="189" y="1438" width="121" height="24"/>
		<text fill="gray" font-size="9" font-family="Segoe UI" x="189, 194.80518, 197.27051, 201.42773, 206.70117, 211.79443, 215.95166, 220.6582, 225.94922, 228.99902, 231.46436, 233.64404, 238.94385, 243.65039, 248.74365, 251.79346, 253.97314, 256.79004, 258.96973, 263.67627, 266.80518, 269.27051, 273.97705, 278.10791, 283.39893, 286.52783, 291.23438, 295.05322, 298.87207, 303.57861, " y="1448, ">
				A concept identifier expressed
		</text>
		<text fill="gray" font-size="9" font-family="Segoe UI" x="189, 193.5791, 197.39795, 199.86328, 204.44238, 206.90771, 209.72461, 212.85352, 217.56006, 222.2666, 224.73193, 227.78174, 232.48828, 236.61914, 239.66895, 242.13428, 245.95312, 249.00293, 252.13184, 254.31152, 259.40479, " y="1460, ">
				as a free text string
		</text>
		<rect fill="white" x="193" y="1413" width="36" height="16"/>
		<text font-size="12" font-weight="600" font-family="Segoe UI" x="193, 196.41016, 199.82031, 204.44336, 210.93555, 215.71094, 222.16797, " y="1426, ">
				literal
		</text>
		<rect fill="none" stroke="black" stroke-width="1" stroke-linecap="square" stroke-miterlimit="4" transform="translate(0.5 0.5)" x="184" y="1411" width="51" height="20"/>
		<rect fill="silver" x="188" y="1473" width="52" height="21"/>
		<rect fill="white" x="184" y="1469" width="52" height="21"/>
		<rect fill="white" x="189" y="1496" width="120" height="48"/>
		<text fill="gray" font-size="9" font-family="Segoe UI" x="189, 193.71533, 198.80859, 203.51514, 205.98047, 209.03027, 213.38525, 218.67627, 223.38281, 225.84814, 231.12158, 233.93848, 236.40381, 239.45361, 244.54688, 249.25342, 251.71875, 255.87598, 261.14941, 266.24268, 270.3999, 275.10645, 280.39746, " y="1506, ">
				The type of the concept
		</text>
		<text fill="gray" font-size="9" font-family="Segoe UI" x="189, 193.5791, 197.39795, 201.2168, 203.39648, 208.69629, 213.78955, 218.49609, 223.7959, 226.26123, 230.84033, 234.65918, 237.12451, 241.70361, 244.16895, 248.32617, 253.59961, 258.69287, 261.74268, 264.87158, 270.14502, 272.32471, 274.50439, 279.21094, 284.51074, 286.97607, 292.24951, 295.37842, 297.84375, 302.42285, " y="1518, ">
				assigned as a controlled or an
		</text>
		<text fill="gray" font-size="9" font-family="Segoe UI" x="189, 194.09326, 199.18652, 203.34375, 208.61719, 213.71045, 216.76025, 219.88916, 225.1626, 227.34229, 229.52197, 234.22852, 239.52832, 241.99365, 247.28467, 250.41357, 255.68701, 260.97803, 265.68457, 268.81348, 271.86328, 276.21826, 278.68359, 282.99463, 287.57373, 289.75342, 294.84668, 299.55322, 302.01855, " y="1530, ">
				uncontrolled property value -
		</text>
		<text fill="gray" font-size="9" font-family="Segoe UI" x="189, 193.70654, 197.8374, 203.12842, 206.25732, 210.96387, 214.78271, 218.60156, 223.30811, 228.60791, 231.07324, 236.36426, 240.71924, 243.18457, 247.76367, 250.229, 257.01416, 262.58643, 267.85986, 273.15967, " y="1542, ">
				expressed by a QCode
		</text>
		<rect fill="white" x="193" y="1471" width="36" height="16"/>
		<text font-size="12" font-weight="600" font-family="Segoe UI" x="193, 197.66992, 204.12695, 211.56836, " y="1484, ">
				type
		</text>
		<rect fill="none" stroke="black" stroke-width="1" stroke-linecap="square" stroke-miterlimit="4" transform="translate(0.5 0.5)" x="184" y="1469" width="51" height="20"/>
		<rect fill="silver" x="188" y="1555" width="58" height="21"/>
		<rect fill="white" x="184" y="1551" width="58" height="21"/>
		<rect fill="white" x="189" y="1578" width="120" height="48"/>
		<text fill="gray" font-size="9" font-family="Segoe UI" x="189, 193.71533, 198.80859, 203.51514, 205.98047, 209.03027, 213.38525, 218.67627, 223.38281, 225.84814, 231.12158, 233.93848, 236.40381, 239.45361, 244.54688, 249.25342, 251.71875, 255.87598, 261.14941, 266.24268, 270.3999, 275.10645, 280.39746, " y="1588, ">
				The type of the concept
		</text>
		<text fill="gray" font-size="9" font-family="Segoe UI" x="189, 193.5791, 197.39795, 201.2168, 203.39648, 208.69629, 213.78955, 218.49609, 223.7959, 226.26123, 230.84033, 234.65918, 237.12451, 241.70361, 244.16895, 248.32617, 253.59961, 258.69287, 261.74268, 264.87158, 270.14502, 272.32471, 274.50439, 279.21094, 284.51074, 286.97607, 292.24951, 295.37842, 297.84375, 302.42285, " y="1600, ">
				assigned as a controlled or an
		</text>
		<text fill="gray" font-size="9" font-family="Segoe UI" x="189, 194.09326, 199.18652, 203.34375, 208.61719, 213.71045, 216.76025, 219.88916, 225.1626, 227.34229, 229.52197, 234.22852, 239.52832, 241.99365, 247.28467, 250.41357, 255.68701, 260.97803, 265.68457, 268.81348, 271.86328, 276.21826, 278.68359, 282.99463, 287.57373, 289.75342, 294.84668, 299.55322, 302.01855, " y="1612, ">
				uncontrolled property value -
		</text>
		<text fill="gray" font-size="9" font-family="Segoe UI" x="189, 193.70654, 197.8374, 203.12842, 206.25732, 210.96387, 214.78271, 218.60156, 223.30811, 228.60791, 231.07324, 236.36426, 240.71924, 243.18457, 247.76367, 250.229, 256.41211, 261.79541, " y="1624, ">
				expressed by a URI
		</text>
		<rect fill="white" x="193" y="1553" width="42" height="16"/>
		<text font-size="12" font-weight="600" font-family="Segoe UI" x="193, 197.66992, 204.12695, 211.56836, 218.06055, 225.32031, 230.14258, " y="1566, ">
				typeuri
		</text>
		<rect fill="none" stroke="black" stroke-width="1" stroke-linecap="square" stroke-miterlimit="4" transform="translate(0.5 0.5)" x="184" y="1551" width="57" height="20"/>
		<rect fill="silver" x="188" y="1637" width="52" height="21"/>
		<rect fill="white" x="184" y="1633" width="52" height="21"/>
		<rect fill="white" x="189" y="1660" width="120" height="36"/>
		<text fill="gray" font-size="9" font-family="Segoe UI" x="189, 194.80518, 197.27051, 200.39941, 205.10596, 207.92285, 210.10254, 215.1958, 219.90234, 227.6543, 232.36084, 237.4541, 240.50391, 242.96924, 248.24268, 251.05957, 253.5249, 256.57471, 261.66797, 266.37451, 268.83984, 272.65869, 277.36523, 285.11719, 289.69629, 294.78955, 297.83936, 300.01904, 304.17627, " y="1670, ">
				A refinement of the semantics
		</text>
		<text fill="gray" font-size="9" font-family="Segoe UI" x="189, 194.27344, 197.09033, 199.55566, 202.60547, 207.69873, 212.40527, 214.87061, 220.16162, 223.29053, 228.56396, 233.85498, 238.56152, 241.69043, 244.74023, 249.09521, 251.56055, 255.15967, 257.625, 262.33154, 266.4624, 271.75342, 274.88232, 279.58887, 283.40771, 287.22656, 291.93311, " y="1682, ">
				of the property - expressed
		</text>
		<text fill="gray" font-size="9" font-family="Segoe UI" x="189, 194.29102, 198.646, 201.11133, 205.69043, 208.15576, 214.94092, 220.51318, 225.78662, 231.08643, " y="1694, ">
				by a QCode
		</text>
		<rect fill="white" x="193" y="1635" width="36" height="16"/>
		<text font-size="12" font-weight="600" font-family="Segoe UI" x="193, 197.72852, 205.06445, 208.47461, " y="1648, ">
				role
		</text>
		<rect fill="none" stroke="black" stroke-width="1" stroke-linecap="square" stroke-miterlimit="4" transform="translate(0.5 0.5)" x="184" y="1633" width="51" height="20"/>
		<rect fill="silver" x="188" y="1707" width="55" height="21"/>
		<rect fill="white" x="184" y="1703" width="55" height="21"/>
		<rect fill="white" x="189" y="1730" width="120" height="36"/>
		<text fill="gray" font-size="9" font-family="Segoe UI" x="189, 194.80518, 197.27051, 200.39941, 205.10596, 207.92285, 210.10254, 215.1958, 219.90234, 227.6543, 232.36084, 237.4541, 240.50391, 242.96924, 248.24268, 251.05957, 253.5249, 256.57471, 261.66797, 266.37451, 268.83984, 272.65869, 277.36523, 285.11719, 289.69629, 294.78955, 297.83936, 300.01904, 304.17627, " y="1740, ">
				A refinement of the semantics
		</text>
		<text fill="gray" font-size="9" font-family="Segoe UI" x="189, 194.27344, 197.09033, 199.55566, 202.60547, 207.69873, 212.40527, 214.87061, 220.16162, 223.29053, 228.56396, 233.85498, 238.56152, 241.69043, 244.74023, 249.09521, 251.56055, 255.15967, 257.625, 262.33154, 266.4624, 271.75342, 274.88232, 279.58887, 283.40771, 287.22656, 291.93311, " y="1752, ">
				of the property - expressed
		</text>
		<text fill="gray" font-size="9" font-family="Segoe UI" x="189, 194.29102, 198.646, 201.11133, 205.69043, 208.15576, 214.33887, 219.72217, " y="1764, ">
				by a URI
		</text>
		<rect fill="white" x="193" y="1705" width="39" height="16"/>
		<text font-size="12" font-weight="600" font-family="Segoe UI" x="193, 197.72852, 205.06445, 208.47461, 214.9668, 222.22656, 227.04883, " y="1718, ">
				roleuri
		</text>
		<rect fill="none" stroke="black" stroke-width="1" stroke-linecap="square" stroke-miterlimit="4" transform="translate(0.5 0.5)" x="184" y="1703" width="54" height="20"/>
		<rect fill="silver" x="180" y="1810" width="54" height="21"/>
		<rect fill="white" x="176" y="1806" width="54" height="21"/>
		<rect fill="white" x="181" y="1833" width="112" height="36"/>
		<text fill="gray" font-size="9" font-family="Segoe UI" x="181, 187.31055, 194.0957, 196.56104, 203.29346, 209.67432, 214.38965, 216.85498, 223.03809, 227.81934, 232.37207, 234.8374, 237.88721, 242.98047, 245.16016, 248.979, 251.44434, 256.02344, 259.07324, 262.12305, 265.25195, 267.43164, 272.72266, 277.81592, 280.86572, 285.57227, " y="1843, ">
				DO NOT USE this attribute,
		</text>
		<text fill="gray" font-size="9" font-family="Segoe UI" x="181, 183.81689, 189.09033, 192.21924, 194.68457, 200.85889, 205.71045, 208.17578, 210.35547, 215.44873, 218.49854, 223.20508, 226.33398, 231.42725, 236.00635, 238.18604, 240.65137, 248.40332, 252.98242, 255.16211, 260.25537, 263.30518, 268.01172, 273.10498, 277.68408, 282.77734, 286.93457, " y="1855, ">
				for G2 internal maintenance
		</text>
		<text fill="gray" font-size="9" font-family="Segoe UI" x="181, 186.29102, 191.38428, 194.51318, 199.8042, 205.07764, 208.89648, 213.60303, 217.42188, 219.88721, 225.16064, 230.25391, 232.43359, 236.78857, " y="1867, ">
				purposes only.
		</text>
		<rect fill="white" x="185" y="1808" width="38" height="16"/>
		<text font-size="12" font-weight="600" font-family="Segoe UI" x="185, 192.42969, 199.33203, 203.99023, 207.40039, 213.85742, " y="1821, ">
				g2flag
		</text>
		<rect fill="none" stroke="black" stroke-width="1" stroke-linecap="square" stroke-miterlimit="4" transform="translate(0.5 0.5)" x="176" y="1806" width="53" height="20"/>
		<rect x="167" y="1219" width="11" height="11"/>
		<rect fill="white" x="168" y="1220" width="9" height="9"/>
		<rect x="169" y="1224" width="7" height="1"/>
		<rect x="60" y="608" width="11" height="11"/>
		<rect fill="white" x="61" y="609" width="9" height="9"/>
		<rect x="62" y="613" width="7" height="1"/>
	</g>
</svg>
