<?xml version="1.0" encoding="utf-8" ?>
<svg xmlns="http://www.w3.org/2000/svg" xmlns:xlink="http://www.w3.org/1999/xlink" width="484" height="472">
	<clipPath id="cl_5eb">
		<rect x="-10" y="-5" width="484" height="472"/>
	</clipPath>
	<g clip-path="url(#cl_5eb)">
		<path fill="none" stroke="black" stroke-width="1" stroke-linecap="square" stroke-miterlimit="4" transform="translate(0.5 0.5)" d="M200 209L213 209"/>
		<path fill="silver" d="M4 208L9 203L189 203L194 208L194 219L189 224L9 224L4 219L4 208Z"/>
		<path fill="white" d="M0 204L5 199L185 199L190 204L190 215L185 220L5 220L0 215L0 204Z"/>
		<rect fill="white" x="5" y="226" width="186" height="24"/>
		<text fill="gray" font-size="9" font-family="Segoe UI" x="5, 10.805176, 13.270508, 18.570312, 21.699219, 26.972656, 32.065918, 37.356934, 39.822266, 45.095703, 47.912598, 50.37793, 55.668945, 58.797852, 64.071289, 69.362305, 74.068848, 77.197754, 80.247559, 82.427246, 87.133789, 90.952637, 93.417969, 97.99707, 101.81592, 105.63477, 110.9082, 115.06543, 117.24512, 121.82422, 124.87402, 129.58057, 134.88037, 137.3457, 143.84961, 146.0293, 149.0791, 154.17236, 156.6377, 159.6875, 164.78076, 169.4873, 171.95264, 176.10986, 181.3833, 184.51221, " y="236, ">
				A group of properties associated with the core
		</text>
		<text fill="gray" font-size="9" font-family="Segoe UI" x="5, 10.299805, 15.006348, 18.825195, 22.982422, 26.111328, 28.291016, 33.582031, 36.631836, 38.811523, 43.122559, 47.829102, 50.294434, 53.111328, 57.69043, 61.847656, 66.554199, 69.604004, 72.069336, 77.342773, 80.159668, 82.625, 87.924805, 90.104492, 92.921387, 95.738281, 100.44482, 103.57373, 108.28027, 113.37354, 116.42334, 118.88867, 121.93848, 126.29346, 131.58447, 136.29102, 140.10986, 142.5752, 147.84863, 150.66553, 153.13086, 157.28809, 162.56152, 167.65479, 170.70459, 175.41113, 180.50439, 183.5542, " y="248, ">
				descriptive facet of different types of content.
		</text>
		<rect fill="white" x="5" y="201" width="180" height="16"/>
		<text font-size="12" font-weight="600" font-family="Segoe UI" x="5, 13.847656, 20.339844, 25.619141, 31.378906, 36.201172, 39.611328, 47.052734, 51.722656, 55.132812, 61.519531, 68.011719, 79.496094, 85.988281, 90.658203, 97.115234, 104.54492, 111.00195, 115.67188, 122.12891, 129.61719, 136.95312, 141.68164, 148.17383, 156.70508, 161.43359, 168.76953, 176.0293, " y="214, ">
				DescriptiveMetadataCoreGroup
		</text>
		<path fill="none" stroke="black" stroke-width="1" stroke-linecap="square" stroke-miterlimit="4" transform="translate(0.5 0.5)" d="M0 204L5 199L184 199L189 204L189 214L184 219L5 219L0 214L0 204Z"/>
		<path transform="translate(0.5 0.5)" d="M259 208.5L261 208.5L261.5 208.5L261.5 209.5L261 209.5L258.5 209.5L258.5 208.5L259 208.5ZM265 208.5L267.5 208.5L267.5 209.5L264.5 209.5L264.5 208.5L265 208.5Z"/>
		<path fill="silver" d="M218 208L223 203L248 203L253 208L253 219L248 224L223 224L218 219L218 208Z"/>
		<path fill="white" d="M214 204L219 199L244 199L249 204L249 215L244 220L219 220L214 215L214 204Z"/>
		<path fill="none" stroke="black" stroke-width="1" stroke-linecap="square" stroke-miterlimit="4" transform="translate(0.5 0.5)" d="M219 209L243 209"/>
		<rect x="225" y="208" width="3" height="3"/>
		<rect x="230" y="208" width="3" height="3"/>
		<rect x="235" y="208" width="3" height="3"/>
		<path fill="none" stroke="black" stroke-width="1" stroke-linecap="square" stroke-miterlimit="4" transform="translate(0.5 0.5)" d="M214 204L219 199L243 199L248 204L248 214L243 219L219 219L214 214L214 204Z"/>
		<path fill="none" stroke="black" stroke-width="1" stroke-linecap="square" stroke-miterlimit="4" transform="translate(0.5 0.5)" d="M314 209L322 209"/>
		<path fill="none" stroke="black" stroke-width="1" stroke-linecap="square" stroke-miterlimit="4" transform="translate(0.5 0.5)" d="M323 209L323 11"/>
		<path fill="none" stroke="black" stroke-width="1" stroke-linecap="square" stroke-miterlimit="4" transform="translate(0.5 0.5)" d="M323 209L323 408"/>
		<path fill="none" stroke="black" stroke-width="1" stroke-linecap="square" stroke-miterlimit="4" transform="translate(0.5 0.5)" d="M323 10L337 10"/>
		<path fill="none" stroke="black" stroke-width="1" stroke-linecap="square" stroke-miterlimit="4" transform="translate(0.5 0.5)" d="M323 73L337 73"/>
		<path fill="none" stroke="black" stroke-width="1" stroke-linecap="square" stroke-miterlimit="4" transform="translate(0.5 0.5)" d="M323 160L337 160"/>
		<path fill="none" stroke="black" stroke-width="1" stroke-linecap="square" stroke-miterlimit="4" transform="translate(0.5 0.5)" d="M323 235L337 235"/>
		<path fill="none" stroke="black" stroke-width="1" stroke-linecap="square" stroke-miterlimit="4" transform="translate(0.5 0.5)" d="M323 322L337 322"/>
		<path fill="none" stroke="black" stroke-width="1" stroke-linecap="square" stroke-miterlimit="4" transform="translate(0.5 0.5)" d="M323 409L337 409"/>
		<path fill="silver" d="M276 211L281 206L306 206L311 211L311 222L306 227L281 227L276 222L276 211Z"/>
		<path fill="white" d="M272 207L277 202L301 202L306 207L306 217L301 222L277 222L272 217L272 207Z"/>
		<path transform="translate(0.5 0.5)" d="M275.889 202.404L276.793 201.5L277.929 201.5L278.429 201.5L278.429 202.5L277.929 202.5L277 202.5L277 202L277.354 202.354L276.243 203.464L275.536 202.757L275.889 202.404ZM281.929 201.5L283.929 201.5L284.429 201.5L284.429 202.5L283.929 202.5L281.429 202.5L281.429 201.5L281.929 201.5ZM287.929 201.5L289.929 201.5L290.429 201.5L290.429 202.5L289.929 202.5L287.429 202.5L287.429 201.5L287.929 201.5ZM293.929 201.5L295.929 201.5L296.429 201.5L296.429 202.5L295.929 202.5L293.429 202.5L293.429 201.5L293.929 201.5ZM299.929 201.5L301.207 201.5L302.01 202.303L302.364 202.657L301.657 203.364L301.303 203.01L300.646 202.354L301 202L301 202.5L299.429 202.5L299.429 201.5L299.929 201.5ZM304.839 205.132L306.253 206.546L306.607 206.899L305.9 207.607L305.546 207.253L303.778 205.485L304.485 204.778L304.839 205.132ZM306.5 210.858L306.5 212.858L306.5 213.358L305.5 213.358L305.5 212.858L305.5 210.358L306.5 210.358L306.5 210.858ZM306.5 216.858L306.5 217.207L305.04 218.667L304.686 219.021L303.979 218.314L304.333 217.96L305.646 216.646L306 217L305.5 217L305.5 216.358L306.5 216.358L306.5 216.858ZM302.211 221.496L301.207 222.5L300.213 222.5L299.713 222.5L299.713 221.5L300.213 221.5L301 221.5L301 222L300.646 221.646L301.858 220.435L302.565 221.142L302.211 221.496ZM296.213 222.5L294.213 222.5L293.713 222.5L293.713 221.5L294.213 221.5L296.713 221.5L296.713 222.5L296.213 222.5ZM290.213 222.5L288.213 222.5L287.713 222.5L287.713 221.5L288.213 221.5L290.713 221.5L290.713 222.5L290.213 222.5ZM284.213 222.5L282.213 222.5L281.713 222.5L281.713 221.5L282.213 221.5L284.713 221.5L284.713 222.5L284.213 222.5ZM278.213 222.5L276.793 222.5L276.09 221.797L275.737 221.444L276.444 220.737L276.797 221.09L277.354 221.646L277 222L277 221.5L278.713 221.5L278.713 222.5L278.213 222.5ZM273.262 218.969L271.847 217.555L271.494 217.201L272.201 216.494L272.555 216.847L274.322 218.615L273.615 219.322L273.262 218.969ZM271.5 213.284L271.5 211.284L271.5 210.784L272.5 210.784L272.5 211.284L272.5 213.784L271.5 213.784L271.5 213.284ZM271.5 207.284L271.5 206.793L273.414 204.879L274.121 205.586L272.354 207.354L272 207L272.5 207L272.5 207.784L271.5 207.784L271.5 207.284Z"/>
		<path fill="white" d="M269 204L274 199L299 199L304 204L304 215L299 220L274 220L269 215L269 204Z"/>
		<path fill="none" stroke="black" stroke-width="1" stroke-linecap="square" stroke-miterlimit="4" transform="translate(0.5 0.5)" d="M288 220L294 226L297 223"/>
		<path fill="none" stroke="black" stroke-width="1" stroke-linecap="square" stroke-miterlimit="4" transform="translate(0.5 0.5)" d="M274 209L279 209L283 205"/>
		<path fill="none" stroke="black" stroke-width="1" stroke-linecap="square" stroke-miterlimit="4" transform="translate(0.5 0.5)" d="M289 209L297 209"/>
		<path fill="none" stroke="black" stroke-width="1" stroke-linecap="square" stroke-miterlimit="4" transform="translate(0.5 0.5)" d="M289 205L293 205L293 213L289 213"/>
		<rect x="285" y="204" width="3" height="3"/>
		<rect x="285" y="208" width="3" height="3"/>
		<rect x="285" y="212" width="3" height="3"/>
		<text font-size="12" font-family="Segoe UI" x="273.76562, " y="239, ">
				0
		</text>
		<text font-size="12" font-family="Symbol" x="288.72266, " y="238, ">
				¥
		</text>
		<text font-size="12" font-family="Segoe UI" x="281.89844, 284.5, " y="239, ">
				..
		</text>
		<path transform="translate(0.5 0.5)" d="M272.889 199.404L273.793 198.5L274.929 198.5L275.429 198.5L275.429 199.5L274.929 199.5L274 199.5L274 199L274.354 199.354L273.243 200.464L272.536 199.757L272.889 199.404ZM278.929 198.5L280.929 198.5L281.429 198.5L281.429 199.5L280.929 199.5L278.429 199.5L278.429 198.5L278.929 198.5ZM284.929 198.5L286.929 198.5L287.429 198.5L287.429 199.5L286.929 199.5L284.429 199.5L284.429 198.5L284.929 198.5ZM290.929 198.5L292.929 198.5L293.429 198.5L293.429 199.5L292.929 199.5L290.429 199.5L290.429 198.5L290.929 198.5ZM296.929 198.5L298.207 198.5L299.01 199.303L299.364 199.657L298.657 200.364L298.303 200.01L297.646 199.354L298 199L298 199.5L296.429 199.5L296.429 198.5L296.929 198.5ZM301.839 202.132L303.253 203.546L303.607 203.899L302.9 204.607L302.546 204.253L300.778 202.485L301.485 201.778L301.839 202.132ZM303.5 207.858L303.5 209.858L303.5 210.358L302.5 210.358L302.5 209.858L302.5 207.358L303.5 207.358L303.5 207.858ZM303.5 213.858L303.5 214.207L302.04 215.667L301.686 216.021L300.979 215.314L301.333 214.96L302.646 213.646L303 214L302.5 214L302.5 213.358L303.5 213.358L303.5 213.858ZM299.211 218.496L298.207 219.5L297.213 219.5L296.713 219.5L296.713 218.5L297.213 218.5L298 218.5L298 219L297.646 218.646L298.858 217.435L299.565 218.142L299.211 218.496ZM293.213 219.5L291.213 219.5L290.713 219.5L290.713 218.5L291.213 218.5L293.713 218.5L293.713 219.5L293.213 219.5ZM287.213 219.5L285.213 219.5L284.713 219.5L284.713 218.5L285.213 218.5L287.713 218.5L287.713 219.5L287.213 219.5ZM281.213 219.5L279.213 219.5L278.713 219.5L278.713 218.5L279.213 218.5L281.713 218.5L281.713 219.5L281.213 219.5ZM275.213 219.5L273.793 219.5L273.09 218.797L272.737 218.444L273.444 217.737L273.797 218.09L274.354 218.646L274 219L274 218.5L275.713 218.5L275.713 219.5L275.213 219.5ZM270.262 215.969L268.847 214.555L268.494 214.201L269.201 213.494L269.555 213.847L271.322 215.615L270.615 216.322L270.262 215.969ZM268.5 210.284L268.5 208.284L268.5 207.784L269.5 207.784L269.5 208.284L269.5 210.784L268.5 210.784L268.5 210.284ZM268.5 204.284L268.5 203.793L270.414 201.879L271.121 202.586L269.354 204.354L269 204L269.5 204L269.5 204.784L268.5 204.784L268.5 204.284Z"/>
		<rect fill="silver" x="342" y="4" width="75" height="21"/>
		<rect fill="white" x="338" width="75" height="21"/>
		<rect fill="white" x="343" y="27" width="118" height="24"/>
		<text fill="gray" font-size="9" font-family="Segoe UI" x="343, 348.80518, 351.27051, 353.4502, 358.0293, 363.12256, 368.42236, 373.51562, 378.09473, 383.39453, 388.10107, 390.56641, 395.65967, 399.47852, 404.18506, 409.48486, 411.9502, 417.24121, 421.59619, 424.06152, 427.11133, 432.20459, 436.91113, 439.37646, 444.46973, 449.17627, 455.68018, " y="37, ">
				A language used by the news
		</text>
		<text fill="gray" font-size="9" font-family="Segoe UI" x="343, 347.15723, 352.43066, 357.52393, 360.57373, 365.28027, 370.37354, " y="49, ">
				content
		</text>
		<rect fill="white" x="347" y="2" width="54" height="16"/>
		<text font-size="12" font-weight="600" font-family="Segoe UI" x="347, 350.41016, 356.86719, 364.12695, 371.55664, 378.81641, 385.27344, 392.70312, " y="15, ">
				language
		</text>
		<path fill="none" stroke="black" stroke-width="2" stroke-miterlimit="4" transform="translate(0.5 0.5)" d="M340 18L344 14"/>
		<path fill="none" stroke="black" stroke-width="1" stroke-linecap="square" stroke-miterlimit="4" transform="translate(0.5 0.5)" d="M341 14L344 14L344 17"/>
		<rect fill="none" stroke="black" stroke-width="1" stroke-linecap="square" stroke-miterlimit="4" transform="translate(0.5 0.5)" x="338" width="74" height="20"/>
		<rect x="407" y="5" width="11" height="11"/>
		<rect fill="white" x="408" y="6" width="9" height="9"/>
		<rect x="409" y="10" width="7" height="1"/>
		<rect x="412" y="7" width="1" height="7"/>
		<rect fill="silver" x="342" y="67" width="71" height="21"/>
		<rect fill="white" x="338" y="63" width="71" height="21"/>
		<rect fill="white" x="343" y="90" width="116" height="48"/>
		<text fill="gray" font-size="9" font-family="Segoe UI" x="343, 347.39453, 350.52344, 355.22998, 359.93652, 363.53564, 366.58545, 371.29199, 375.42285, 378.47266, 380.93799, 383.98779, 388.69434, 391.82324, 399.5752, 402.04053, 405.09033, 410.36377, 412.8291, 418.12012, 422.82666, 425.29199, 430.38525, 434.2041, 438.91064, 444.21045, 446.67578, 449.49268, 454.76611, " y="100, ">
				Free-text term to be used for
		</text>
		<text fill="gray" font-size="9" font-family="Segoe UI" x="343, 345.17969, 350.27295, 355.57275, 360.2793, 364.41016, 366.58984, 371.68311, 376.98291, 379.44824, 384.72168, 387.85059, 390.31592, 393.13281, 395.3125, 400.40576, 405.70557, 407.88525, 412.97852, 418.27832, 420.74365, 423.79346, 428.88672, " y="112, ">
				indexing or finding the
		</text>
		<text fill="gray" font-size="9" font-family="Segoe UI" x="343, 347.15723, 352.43066, 357.52393, 360.57373, 365.28027, 370.37354, 373.42334, 375.88867, 381.16211, 383.979, 386.44434, 389.49414, 394.20068, 398.33154, 401.38135, 404.98047, 410.27148, 414.85059, 418.66943, 423.37598, 428.67578, 431.14111, 434.95996, 439.6665, 444.24561, 447.37451, 451.53174, " y="124, ">
				content of text-based search
		</text>
		<text fill="gray" font-size="9" font-family="Segoe UI" x="343, 347.70654, 352.7998, 358.09961, 360.2793, 365.37256, 370.0791, " y="136, ">
				engines
		</text>
		<rect fill="white" x="347" y="65" width="50" height="16"/>
		<text font-size="12" font-weight="600" font-family="Segoe UI" x="347, 353.53906, 360.03125, 366.48828, 375.99805, 383.33398, 388.0625, " y="78, ">
				keyword
		</text>
		<path fill="none" stroke="black" stroke-width="1" stroke-linecap="square" stroke-miterlimit="4" transform="translate(0.5 0.5)" d="M340 65L345 65"/>
		<path fill="none" stroke="black" stroke-width="1" stroke-linecap="square" stroke-miterlimit="4" transform="translate(0.5 0.5)" d="M340 67L344 67"/>
		<path fill="none" stroke="black" stroke-width="1" stroke-linecap="square" stroke-miterlimit="4" transform="translate(0.5 0.5)" d="M340 69L344 69"/>
		<path fill="none" stroke="black" stroke-width="2" stroke-miterlimit="4" transform="translate(0.5 0.5)" d="M340 81L344 77"/>
		<path fill="none" stroke="black" stroke-width="1" stroke-linecap="square" stroke-miterlimit="4" transform="translate(0.5 0.5)" d="M341 77L344 77L344 80"/>
		<rect fill="none" stroke="black" stroke-width="1" stroke-linecap="square" stroke-miterlimit="4" transform="translate(0.5 0.5)" x="338" y="63" width="70" height="20"/>
		<rect x="403" y="68" width="11" height="11"/>
		<rect fill="white" x="404" y="69" width="9" height="9"/>
		<rect x="405" y="73" width="7" height="1"/>
		<rect x="408" y="70" width="1" height="7"/>
		<rect fill="silver" x="342" y="154" width="63" height="21"/>
		<rect fill="white" x="338" y="150" width="63" height="21"/>
		<rect fill="white" x="343" y="177" width="112" height="36"/>
		<text fill="gray" font-size="9" font-family="Segoe UI" x="343, 348.80518, 353.89844, 356.36377, 358.54346, 366.29541, 371.58643, 376.85986, 379.98877, 383.03857, 387.61768, 392.71094, 395.76074, 398.22607, 401.27588, 406.54932, 411.84033, 414.02002, 418.17725, 420.64258, 425.91602, 428.73291, 431.19824, 434.24805, 439.34131, " y="187, ">
				An important topic of the
		</text>
		<text fill="gray" font-size="9" font-family="Segoe UI" x="343, 347.15723, 352.43066, 357.52393, 360.57373, 365.28027, 370.37354, 373.42334, 375.37451, 377.83984, 384.34375, 389.43701, 394.01611, 397.06592, 399.53125, 402.58105, 407.67432, 412.38086, 414.84619, 419.00342, 424.27686, 429.37012, 432.41992, 437.12646, 442.21973, 445.26953, 447.73486, 449.91455, " y="199, ">
				content; what the content is
		</text>
		<text fill="gray" font-size="9" font-family="Segoe UI" x="343, 347.5791, 352.87012, 358.14355, 363.23682, " y="211, ">
				about
		</text>
		<rect fill="white" x="347" y="152" width="42" height="16"/>
		<text font-size="12" font-weight="600" font-family="Segoe UI" x="347, 352.2793, 359.53906, 366.98047, 370.39062, 376.88281, 382.64258, " y="165, ">
				subject
		</text>
		<path fill="none" stroke="black" stroke-width="2" stroke-miterlimit="4" transform="translate(0.5 0.5)" d="M340 168L344 164"/>
		<path fill="none" stroke="black" stroke-width="1" stroke-linecap="square" stroke-miterlimit="4" transform="translate(0.5 0.5)" d="M341 164L344 164L344 167"/>
		<rect fill="none" stroke="black" stroke-width="1" stroke-linecap="square" stroke-miterlimit="4" transform="translate(0.5 0.5)" x="338" y="150" width="62" height="20"/>
		<rect x="395" y="155" width="11" height="11"/>
		<rect fill="white" x="396" y="156" width="9" height="9"/>
		<rect x="397" y="160" width="7" height="1"/>
		<rect x="400" y="157" width="1" height="7"/>
		<rect fill="silver" x="342" y="229" width="66" height="21"/>
		<rect fill="white" x="338" y="225" width="66" height="21"/>
		<rect fill="white" x="343" y="252" width="117" height="48"/>
		<text fill="gray" font-size="9" font-family="Segoe UI" x="343, 348.80518, 351.27051, 355.08936, 359.7959, 365.0957, 370.18896, 374.89551, 379.98877, 384.146, 388.85254, 391.31787, 396.59131, 399.4082, 401.87354, 404.92334, 410.19678, 414.67041, 419.37695, 424.47021, " y="262, ">
				A sequence of tokens
		</text>
		<text fill="gray" font-size="9" font-family="Segoe UI" x="343, 347.5791, 351.39795, 355.2168, 360.49023, 364.64746, 366.82715, 371.40625, 374.45605, 379.1626, 384.4624, 386.92773, 393.43164, 395.61133, 398.66113, 403.75439, 406.21973, 409.26953, 414.36279, 419.06934, 421.53467, 425.69189, 430.96533, 436.05859, 439.1084, 443.81494, 448.9082, 451.95801, " y="274, ">
				associated with the content.
		</text>
		<text fill="gray" font-size="9" font-family="Segoe UI" x="343, 347.71533, 352.80859, 357.51514, 359.98047, 362.16016, 367.25342, 370.30322, 375.00977, 378.13867, 383.42969, 386.55859, 391.26514, 394.31494, 398.89404, 401.94385, 404.12354, 409.39697, 414.49023, 416.95557, 419.13525, 422.9541, 425.41943, 430.71045, 433.83936, 439.11279, 443.42383, 445.60352, 450.90332, 455.60986, " y="286, ">
				The interpretation is provider
		</text>
		<text fill="gray" font-size="9" font-family="Segoe UI" x="343, 346.81885, 352.10986, 356.81641, 360.97363, 363.15332, 365.97021, 368.1499, " y="298, ">
				specific
		</text>
		<rect fill="white" x="347" y="227" width="45" height="16"/>
		<text font-size="12" font-weight="600" font-family="Segoe UI" x="347, 352.2793, 355.68945, 362.94922, 370.37891, 373.78906, 377.19922, 384.45898, " y="240, ">
				slugline
		</text>
		<path fill="none" stroke="black" stroke-width="1" stroke-linecap="square" stroke-miterlimit="4" transform="translate(0.5 0.5)" d="M340 227L345 227"/>
		<path fill="none" stroke="black" stroke-width="1" stroke-linecap="square" stroke-miterlimit="4" transform="translate(0.5 0.5)" d="M340 229L344 229"/>
		<path fill="none" stroke="black" stroke-width="1" stroke-linecap="square" stroke-miterlimit="4" transform="translate(0.5 0.5)" d="M340 231L344 231"/>
		<path fill="none" stroke="black" stroke-width="2" stroke-miterlimit="4" transform="translate(0.5 0.5)" d="M340 243L344 239"/>
		<path fill="none" stroke="black" stroke-width="1" stroke-linecap="square" stroke-miterlimit="4" transform="translate(0.5 0.5)" d="M341 239L344 239L344 242"/>
		<rect fill="none" stroke="black" stroke-width="1" stroke-linecap="square" stroke-miterlimit="4" transform="translate(0.5 0.5)" x="338" y="225" width="65" height="20"/>
		<rect x="398" y="230" width="11" height="11"/>
		<rect fill="white" x="399" y="231" width="9" height="9"/>
		<rect x="400" y="235" width="7" height="1"/>
		<rect x="403" y="232" width="1" height="7"/>
		<rect fill="silver" x="342" y="316" width="71" height="21"/>
		<rect fill="white" x="338" y="312" width="71" height="21"/>
		<rect fill="white" x="343" y="339" width="121" height="48"/>
		<text fill="gray" font-size="9" font-family="Segoe UI" x="343, 348.80518, 351.27051, 356.56152, 359.69043, 361.87012, 366.57666, 369.39355, 371.85889, 376.43799, 381.53125, 386.83105, 389.29639, 393.11523, 398.2085, 402.7876, 408.07861, 413.36963, " y="349, ">
				A brief and snappy
		</text>
		<text fill="gray" font-size="9" font-family="Segoe UI" x="343, 345.17969, 350.27295, 353.32275, 356.45166, 361.7251, 367.0249, 372.11816, 376.27539, 379.3252, 381.50488, 386.77832, 391.87158, 394.33691, 397.38672, 402.66016, 405.12549, 408.17529, 413.26855, 417.9751, 420.44043, 424.59766, 429.87109, 434.96436, 438.01416, 442.7207, 447.81396, 450.86377, " y="361, ">
				introduction to the content,
		</text>
		<text fill="gray" font-size="9" font-family="Segoe UI" x="343, 348.2998, 353.00635, 356.8252, 359.00488, 364.30469, 369.39795, 374.10449, 379.4043, 381.86963, 384.91943, 390.19287, 392.6582, 396.81543, 401.39453, 404.44434, 408.60156, 413.69482, 416.16016, 419.20996, 424.30322, 429.00977, 431.4751, 434.604, 439.31055, 443.88965, 449.18945, 453.896, 457.0249, 459.09473, " y="373, ">
				designed to catch the reader&apos;s
		</text>
		<text fill="gray" font-size="9" font-family="Segoe UI" x="343, 347.5791, 350.62891, 353.67871, 358.38525, 363.47852, 366.52832, 368.70801, 373.98145, " y="385, ">
				attention
		</text>
		<rect fill="white" x="347" y="314" width="50" height="16"/>
		<text font-size="12" font-weight="600" font-family="Segoe UI" x="347, 354.22461, 360.7168, 367.17383, 374.60352, 378.01367, 381.42383, 388.68359, " y="327, ">
				headline
		</text>
		<path fill="none" stroke="black" stroke-width="1" stroke-linecap="square" stroke-miterlimit="4" transform="translate(0.5 0.5)" d="M340 314L345 314"/>
		<path fill="none" stroke="black" stroke-width="1" stroke-linecap="square" stroke-miterlimit="4" transform="translate(0.5 0.5)" d="M340 316L344 316"/>
		<path fill="none" stroke="black" stroke-width="1" stroke-linecap="square" stroke-miterlimit="4" transform="translate(0.5 0.5)" d="M340 318L344 318"/>
		<path fill="none" stroke="black" stroke-width="2" stroke-miterlimit="4" transform="translate(0.5 0.5)" d="M340 330L344 326"/>
		<path fill="none" stroke="black" stroke-width="1" stroke-linecap="square" stroke-miterlimit="4" transform="translate(0.5 0.5)" d="M341 326L344 326L344 329"/>
		<rect fill="none" stroke="black" stroke-width="1" stroke-linecap="square" stroke-miterlimit="4" transform="translate(0.5 0.5)" x="338" y="312" width="70" height="20"/>
		<rect x="403" y="317" width="11" height="11"/>
		<rect fill="white" x="404" y="318" width="9" height="9"/>
		<rect x="405" y="322" width="7" height="1"/>
		<rect x="408" y="319" width="1" height="7"/>
		<rect fill="silver" x="342" y="403" width="86" height="21"/>
		<rect fill="white" x="338" y="399" width="86" height="21"/>
		<rect fill="white" x="343" y="426" width="115" height="36"/>
		<text fill="gray" font-size="9" font-family="Segoe UI" x="343, 348.80518, 351.27051, 354.0874, 357.21631, 361.92285, 366.62939, 370.22852, 373.04541, 378.31885, 381.44775, 389.19971, 391.66504, 394.71484, 399.42139, 403.55225, 406.60205, 411.69531, 416.27441, " y="436, ">
				A free-form textual
		</text>
		<text fill="gray" font-size="9" font-family="Segoe UI" x="343, 348.2998, 353.00635, 356.8252, 360.98242, 364.11133, 366.29102, 371.58203, 374.63184, 376.81152, 382.08496, 387.17822, 389.64355, 394.91699, 397.73389, 400.19922, 403.24902, 408.34229, 413.04883, 415.51416, 419.67139, 424.94482, 430.03809, 433.08789, 437.79443, 442.8877, 445.9375, 448.40283, 453.67627, " y="448, ">
				description of the content of
		</text>
		<text fill="gray" font-size="9" font-family="Segoe UI" x="343, 346.0498, 351.14307, 355.84961, 358.31494, 360.49463, 363.54443, 368.25098, " y="460, ">
				the item
		</text>
		<rect fill="white" x="347" y="401" width="65" height="16"/>
		<text font-size="12" font-weight="600" font-family="Segoe UI" x="347, 354.42969, 360.92188, 366.20117, 371.96094, 376.7832, 380.19336, 387.63477, 392.30469, 395.71484, 403.05078, " y="414, ">
				description
		</text>
		<path fill="none" stroke="black" stroke-width="1" stroke-linecap="square" stroke-miterlimit="4" transform="translate(0.5 0.5)" d="M340 401L345 401"/>
		<path fill="none" stroke="black" stroke-width="1" stroke-linecap="square" stroke-miterlimit="4" transform="translate(0.5 0.5)" d="M340 403L344 403"/>
		<path fill="none" stroke="black" stroke-width="1" stroke-linecap="square" stroke-miterlimit="4" transform="translate(0.5 0.5)" d="M340 405L344 405"/>
		<path fill="none" stroke="black" stroke-width="2" stroke-miterlimit="4" transform="translate(0.5 0.5)" d="M340 417L344 413"/>
		<path fill="none" stroke="black" stroke-width="1" stroke-linecap="square" stroke-miterlimit="4" transform="translate(0.5 0.5)" d="M341 413L344 413L344 416"/>
		<rect fill="none" stroke="black" stroke-width="1" stroke-linecap="square" stroke-miterlimit="4" transform="translate(0.5 0.5)" x="338" y="399" width="85" height="20"/>
		<rect x="418" y="404" width="11" height="11"/>
		<rect fill="white" x="419" y="405" width="9" height="9"/>
		<rect x="420" y="409" width="7" height="1"/>
		<rect x="423" y="406" width="1" height="7"/>
		<rect x="303" y="204" width="11" height="11"/>
		<rect fill="white" x="304" y="205" width="9" height="9"/>
		<rect x="305" y="209" width="7" height="1"/>
		<rect x="248" y="204" width="11" height="11"/>
		<rect fill="white" x="249" y="205" width="9" height="9"/>
		<rect x="250" y="209" width="7" height="1"/>
		<rect x="189" y="204" width="11" height="11"/>
		<rect fill="white" x="190" y="205" width="9" height="9"/>
		<rect x="191" y="209" width="7" height="1"/>
	</g>
</svg>
