<?xml version="1.0" encoding="utf-8" ?>
<svg xmlns="http://www.w3.org/2000/svg" xmlns:xlink="http://www.w3.org/1999/xlink" width="396" height="2157">
	<clipPath id="cl_543">
		<rect x="-10" y="-5" width="396" height="2157"/>
	</clipPath>
	<g clip-path="url(#cl_543)">
		<rect fill="#FFFFC0" x="140" width="236" height="1963"/>
		<rect fill="none" stroke="gray" stroke-width="1" stroke-linecap="square" stroke-miterlimit="4" transform="translate(0.5 0.5)" x="140" width="235" height="1962"/>
		<path fill="none" stroke="black" stroke-width="1" stroke-linecap="square" stroke-miterlimit="4" transform="translate(0.5 0.5)" d="M57 1289L152 1289"/>
		<path fill="none" stroke="black" stroke-width="1" stroke-linecap="square" stroke-miterlimit="4" transform="translate(0.5 0.5)" d="M153 1289L153 819"/>
		<path fill="none" stroke="black" stroke-width="1" stroke-linecap="square" stroke-miterlimit="4" transform="translate(0.5 0.5)" d="M153 1289L153 2054"/>
		<path transform="translate(0.5 0.5)" d="M153 1759.5L155 1759.5L155.5 1759.5L155.5 1760.5L155 1760.5L152.5 1760.5L152.5 1759.5L153 1759.5ZM159 1759.5L161 1759.5L161.5 1759.5L161.5 1760.5L161 1760.5L158.5 1760.5L158.5 1759.5L159 1759.5ZM165 1759.5L167.5 1759.5L167.5 1760.5L164.5 1760.5L164.5 1759.5L165 1759.5Z"/>
		<path fill="none" stroke="black" stroke-width="1" stroke-linecap="square" stroke-miterlimit="4" transform="translate(0.5 0.5)" d="M153 2055L167 2055"/>
		<path fill="none" stroke="black" stroke-width="1" stroke-linecap="square" stroke-miterlimit="4" transform="translate(0.5 0.5)" d="M153 818L167 818"/>
		<rect fill="silver" x="4" y="1283" width="52" height="21"/>
		<rect fill="white" y="1279" width="52" height="21"/>
		<rect fill="#FFFFC0" x="148" y="8" width="65" height="16"/>
		<text fill="gray" font-size="12" font-weight="600" font-family="Segoe UI" x="148, 154.13477, 160.5918, 168.0332, 174.52539, 177.93555, 184.83789, 191.33008, 197.78711, 205.22852, " y="21, ">
				Label1Type
		</text>
		<rect fill="white" x="5" y="1306" width="120" height="48"/>
		<text fill="gray" font-size="9" font-family="Segoe UI" x="5, 10.805176, 13.270508, 18.36377, 22.942871, 25.992676, 31.085938, 34.214844, 38.793945, 40.973633, 44.572754, 46.752441, 51.331543, 56.424805, 61.724609, 66.817871, 71.396973, 76.696777, 81.40332, 83.868652, 87.6875, 90.737305, 95.316406, 98.366211, 103.07275, 110.82471, 115.53125, 120.62451, " y="1316, ">
				A natural-language statement
		</text>
		<text fill="gray" font-size="9" font-family="Segoe UI" x="5, 9.5791016, 14.870117, 20.143555, 25.236816, 28.286621, 30.751953, 33.801758, 38.89502, 43.601562, 46.066895, 50.224121, 53.353027, 58.05957, 62.638672, 65.688477, 70.961914, 74.09082, 76.556152, 79.271973, 83.851074, 88.944336, 91.994141, 97.087402, 102.36084, 105.48975, " y="1328, ">
				about the creator (author,
		</text>
		<text fill="gray" font-size="9" font-family="Segoe UI" x="5, 10.291016, 15.384277, 20.657715, 23.70752, 28.980957, 34.280762, 37.409668, 41.98877, 47.279785, 52.373047, 57.07959, 60.208496, 62.673828, 67.380371, 70.430176, 74.587402, 76.538574, 79.254395, 81.719727, 86.993164, 89.810059, 92.275391, 95.325195, 100.41846, " y="1340, ">
				photographer etc.) of the
		</text>
		<text fill="gray" font-size="9" font-family="Segoe UI" x="5, 9.1572266, 14.430664, 19.523926, 22.57373, 27.280273, 32.373535, " y="1352, ">
				content
		</text>
		<rect fill="white" x="9" y="1281" width="31" height="16"/>
		<text font-size="12" font-weight="600" font-family="Segoe UI" x="9, 16.441406, " y="1294, ">
				by
		</text>
		<path fill="none" stroke="black" stroke-width="1" stroke-linecap="square" stroke-miterlimit="4" transform="translate(0.5 0.5)" d="M2 1281L7 1281"/>
		<path fill="none" stroke="black" stroke-width="1" stroke-linecap="square" stroke-miterlimit="4" transform="translate(0.5 0.5)" d="M2 1283L6 1283"/>
		<path fill="none" stroke="black" stroke-width="1" stroke-linecap="square" stroke-miterlimit="4" transform="translate(0.5 0.5)" d="M2 1285L6 1285"/>
		<rect fill="#FFFFC0" x="217" y="8" width="59" height="16"/>
		<text fill="gray" font-size="12" font-family="Segoe UI" x="217, 220.62109, 226.89648, 232.4043, 236.4707, 242.74609, 249.53711, 254.62891, 257.53516, 264.56641, 271.35742, " y="21, ">
				(extension)
		</text>
		<rect fill="none" stroke="black" stroke-width="1" stroke-linecap="square" stroke-miterlimit="4" transform="translate(0.5 0.5)" y="1279" width="51" height="20"/>
		<path fill="white" d="M245 55L245 36L168 36L168 55L168 1599L315 1599L315 55L245 55Z"/>
		<rect fill="white" x="188" y="38" width="51" height="16"/>
		<text font-size="12" font-style="italic" font-family="Segoe UI" x="188, 194.50391, 198.38281, 202.26172, 206.5332, 209.63867, 216.14258, 222.83984, 226.73047, 232.57227, " y="51, ">
				attributes
		</text>
		<path fill="none" stroke="black" stroke-width="1" stroke-linecap="square" stroke-miterlimit="4" transform="translate(0.5 0.5)" d="M245 55L245 36L168 36L168 55L168 1599L315 1599L315 55L245 55Z"/>
		<rect fill="silver" x="186" y="68" width="52" height="21"/>
		<rect fill="white" x="182" y="64" width="52" height="21"/>
		<rect fill="white" x="187" y="91" width="101" height="24"/>
		<text fill="gray" font-size="9" font-family="Segoe UI" x="187, 191.71533, 196.80859, 201.51514, 203.98047, 206.16016, 211.43359, 215.59082, 220.16992, 222.34961, 224.81494, 226.99463, 232.29443, 237.00098, 242.09424, 245.14404, 247.32373, 250.14062, 252.32031, 257.02686, 260.15576, 262.62109, 267.89453, 270.71143, 273.17676, 276.22656, 281.31982, " y="101, ">
				The local identifier of the
		</text>
		<text fill="gray" font-size="9" font-family="Segoe UI" x="187, 192.29102, 195.41992, 200.69336, 205.98438, 210.69092, 213.81982, 216.86963, 221.22461, " y="113, ">
				property.
		</text>
		<rect fill="white" x="191" y="66" width="36" height="16"/>
		<text font-size="12" font-weight="600" font-family="Segoe UI" x="191, 194.41016, " y="79, ">
				id
		</text>
		<rect fill="none" stroke="black" stroke-width="1" stroke-linecap="square" stroke-miterlimit="4" transform="translate(0.5 0.5)" x="182" y="64" width="51" height="20"/>
		<rect fill="silver" x="186" y="126" width="58" height="21"/>
		<rect fill="white" x="182" y="122" width="58" height="21"/>
		<rect fill="white" x="187" y="149" width="121" height="120"/>
		<text fill="gray" font-size="9" font-family="Segoe UI" x="187, 189.39502, 192.21191, 194.67725, 197.72705, 202.82031, 207.52686, 209.99219, 215.2832, 218.41211, 223.68555, 228.97656, 233.68311, 236.81201, 239.86182, 244.2168, 246.68213, 250.99316, 255.57227, 257.75195, 262.84521, 267.55176, 270.01709, 272.19678, 276.01562, 278.48096, 283.57422, 288.84766, " y="159, ">
				If the property value is not
		</text>
		<text fill="gray" font-size="9" font-family="Segoe UI" x="187, 192.2998, 197.00635, 199.82324, 202.00293, 207.09619, 211.80273, 217.10254, 219.05371, 221.51904, 225.33789, 230.62891, 235.33545, 239.49268, 241.67236, 244.48926, 246.66895, 251.37549, 255.19434, 257.65967, 264.16357, 269.25684, 271.43652, 275.59375, 280.68701, 283.15234, 287.85889, 292.95215, 296.00195, 298.18164, 301.23145, " y="171, ">
				defined, specifies which entity
		</text>
		<text fill="gray" font-size="9" font-family="Segoe UI" x="187, 189.71582, 195.00684, 199.71338, 202.84229, 206.66113, 211.93457, 217.02783, 218.979, 221.44434, 226.71777, 229.84668, 235.14648, 239.72559, 244.81885, 246.99854, 250.81738, 255.39648, 258.44629, 260.62598, 265.89941, 270.99268, 273.45801, 278.73145, " y="183, ">
				(person, organisation or
		</text>
		<text fill="gray" font-size="9" font-family="Segoe UI" x="187, 190.81885, 195.17383, 198.99268, 202.04248, 206.74902, 214.50098, 217.2168, 219.68213, 226.18604, 228.36572, 230.54541, 232.7251, 235.19043, 239.89697, 245.19678, 247.37646, 250.42627, 252.8916, 255.94141, 261.03467, 265.74121, 268.20654, 273.49756, 276.62646, 281.8999, 287.19092, 291.89746, 295.02637, 298.07617, " y="195, ">
				system) will edit the property
		</text>
		<text fill="gray" font-size="9" font-family="Segoe UI" x="187, 191.31104, 195.89014, 198.06982, 203.16309, 207.86963, 210.33496, 213.93408, 216.39941, 221.10596, 225.23682, 230.52783, 233.65674, 238.36328, 242.18213, 246.00098, 250.70752, 256.00732, 258.47266, 263.76367, 268.11865, 270.58398, 275.16309, 277.62842, 284.41357, 289.98584, 295.25928, 300.55908, 305.26562, " y="207, ">
				value - expressed by a QCode.
		</text>
		<text fill="gray" font-size="9" font-family="Segoe UI" x="187, 189.39502, 192.21191, 194.67725, 197.72705, 202.82031, 207.52686, 209.99219, 215.2832, 218.41211, 223.68555, 228.97656, 233.68311, 236.81201, 239.86182, 244.2168, 246.68213, 250.99316, 255.57227, 257.75195, 262.84521, 267.55176, 270.01709, 272.19678, " y="219, ">
				If the property value is
		</text>
		<text fill="gray" font-size="9" font-family="Segoe UI" x="187, 192.2998, 197.00635, 199.82324, 202.00293, 207.09619, 211.80273, 217.10254, 219.05371, 221.51904, 225.33789, 230.62891, 235.33545, 239.49268, 241.67236, 244.48926, 246.66895, 251.37549, 255.19434, 257.65967, 264.16357, 269.25684, 271.43652, 275.59375, 280.68701, 283.15234, 287.85889, 292.95215, 296.00195, 298.18164, 301.23145, " y="231, ">
				defined, specifies which entity
		</text>
		<text fill="gray" font-size="9" font-family="Segoe UI" x="187, 189.71582, 195.00684, 199.71338, 202.84229, 206.66113, 211.93457, 217.02783, 218.979, 221.44434, 226.71777, 229.84668, 235.14648, 239.72559, 244.81885, 246.99854, 250.81738, 255.39648, 258.44629, 260.62598, 265.89941, 270.99268, 273.45801, 278.73145, " y="243, ">
				(person, organisation or
		</text>
		<text fill="gray" font-size="9" font-family="Segoe UI" x="187, 190.81885, 195.17383, 198.99268, 202.04248, 206.74902, 214.50098, 217.2168, 219.68213, 224.77539, 229.35449, 233.17334, 235.63867, 240.34521, 245.64502, 247.82471, 250.87451, 255.58105, 260.88086, 263.34619, 266.396, 271.48926, " y="255, ">
				system) has edited the
		</text>
		<text fill="gray" font-size="9" font-family="Segoe UI" x="187, 192.29102, 195.41992, 200.69336, 205.98438, 210.69092, 213.81982, 216.86963, 221.22461, 223.68994, 228.00098, 232.58008, 234.75977, 239.85303, 244.55957, " y="267, ">
				property value.
		</text>
		<rect fill="white" x="191" y="124" width="42" height="16"/>
		<text font-size="12" font-weight="600" font-family="Segoe UI" x="191, 196.75977, 201.48828, 207.98047, 214.4375, 219.06055, 226.39648, " y="137, ">
				creator
		</text>
		<rect fill="none" stroke="black" stroke-width="1" stroke-linecap="square" stroke-miterlimit="4" transform="translate(0.5 0.5)" x="182" y="122" width="57" height="20"/>
		<rect fill="silver" x="186" y="280" width="73" height="21"/>
		<rect fill="white" x="182" y="276" width="73" height="21"/>
		<rect fill="white" x="187" y="303" width="120" height="108"/>
		<text fill="gray" font-size="9" font-family="Segoe UI" x="187, 189.39502, 192.21191, 194.67725, 197.72705, 202.82031, 207.52686, 209.99219, 215.2832, 218.41211, 223.68555, 228.97656, 233.68311, 236.81201, 239.86182, 244.2168, 246.68213, 250.99316, 255.57227, 257.75195, 262.84521, 267.55176, 270.01709, 272.19678, 276.01562, 278.48096, 283.57422, 288.84766, " y="313, ">
				If the property value is not
		</text>
		<text fill="gray" font-size="9" font-family="Segoe UI" x="187, 192.2998, 197.00635, 199.82324, 202.00293, 207.09619, 211.80273, 217.10254, 219.05371, 221.51904, 225.33789, 230.62891, 235.33545, 239.49268, 241.67236, 244.48926, 246.66895, 251.37549, 255.19434, 257.65967, 264.16357, 269.25684, 271.43652, 275.59375, 280.68701, 283.15234, 287.85889, 292.95215, 296.00195, 298.18164, 301.23145, " y="325, ">
				defined, specifies which entity
		</text>
		<text fill="gray" font-size="9" font-family="Segoe UI" x="187, 189.71582, 195.00684, 199.71338, 202.84229, 206.66113, 211.93457, 217.02783, 218.979, 221.44434, 226.71777, 229.84668, 235.14648, 239.72559, 244.81885, 246.99854, 250.81738, 255.39648, 258.44629, 260.62598, 265.89941, 270.99268, 273.45801, 278.73145, " y="337, ">
				(person, organisation or
		</text>
		<text fill="gray" font-size="9" font-family="Segoe UI" x="187, 190.81885, 195.17383, 198.99268, 202.04248, 206.74902, 214.50098, 217.2168, 219.68213, 226.18604, 228.36572, 230.54541, 232.7251, 235.19043, 239.89697, 245.19678, 247.37646, 250.42627, 252.8916, 255.94141, 261.03467, 265.74121, 268.20654, 273.49756, 276.62646, 281.8999, 287.19092, 291.89746, 295.02637, 298.07617, " y="349, ">
				system) will edit the property
		</text>
		<text fill="gray" font-size="9" font-family="Segoe UI" x="187, 190.59912, 193.06445, 197.771, 201.90186, 207.19287, 210.32178, 215.02832, 218.84717, 222.66602, 227.37256, 232.67236, 235.1377, 240.42871, 244.78369, 247.24902, 251.82812, 254.29346, 260.47656, 265.85986, 268.25488, 270.20605, 272.67139, 275.06641, 277.8833, 280.34863, 283.39844, 288.4917, " y="361, ">
				- expressed by a URI. If the
		</text>
		<text fill="gray" font-size="9" font-family="Segoe UI" x="187, 192.29102, 195.41992, 200.69336, 205.98438, 210.69092, 213.81982, 216.86963, 221.22461, 223.68994, 228.00098, 232.58008, 234.75977, 239.85303, 244.55957, 247.0249, 249.20459, 253.02344, 255.48877, 260.78857, 265.49512, 268.31201, 270.4917, 275.58496, 280.2915, 285.59131, " y="373, ">
				property value is defined,
		</text>
		<text fill="gray" font-size="9" font-family="Segoe UI" x="187, 190.81885, 196.10986, 200.81641, 204.97363, 207.15332, 209.97021, 212.1499, 216.85645, 220.67529, 223.14062, 229.64453, 234.73779, 236.91748, 241.07471, 246.16797, 248.6333, 253.33984, 258.43311, 261.48291, 263.6626, 266.7124, 271.06738, 273.53271, 276.24854, 281.53955, 286.24609, 289.375, 293.19385, 298.46729, 303.56055, " y="385, ">
				specifies which entity (person,
		</text>
		<text fill="gray" font-size="9" font-family="Segoe UI" x="187, 192.27344, 195.40234, 200.70215, 205.28125, 210.37451, 212.5542, 216.37305, 220.95215, 224.00195, 226.18164, 231.45508, 236.54834, 239.01367, 244.28711, 247.41602, 249.88135, 253.7002, 258.05518, 261.87402, 264.92383, 269.63037, 277.38232, 280.09814, 282.56348, 287.65674, 292.23584, " y="397, ">
				organisation or system) has
		</text>
		<text fill="gray" font-size="9" font-family="Segoe UI" x="187, 191.70654, 197.00635, 199.18604, 202.23584, 206.94238, 212.24219, 214.70752, 217.75732, 222.85059, 227.55713, 230.02246, 235.31348, 238.44238, 243.71582, 249.00684, 253.71338, 256.84229, 259.89209, 264.24707, " y="409, ">
				edited the property.
		</text>
		<rect fill="white" x="191" y="278" width="57" height="16"/>
		<text font-size="12" font-weight="600" font-family="Segoe UI" x="191, 196.75977, 201.48828, 207.98047, 214.4375, 219.06055, 226.39648, 231.20703, 238.4668, 243.28906, " y="291, ">
				creatoruri
		</text>
		<rect fill="none" stroke="black" stroke-width="1" stroke-linecap="square" stroke-miterlimit="4" transform="translate(0.5 0.5)" x="182" y="276" width="72" height="20"/>
		<rect fill="silver" x="186" y="422" width="69" height="21"/>
		<rect fill="white" x="182" y="418" width="69" height="21"/>
		<rect fill="white" x="187" y="445" width="119" height="72"/>
		<text fill="gray" font-size="9" font-family="Segoe UI" x="187, 191.71533, 196.80859, 201.51514, 203.98047, 209.28027, 213.85938, 216.90918, 221.61572, 224.08105, 226.79688, 231.37598, 236.46924, 241.76904, 243.72021, 246.18555, 251.45898, 256.75, 259.7998, 261.97949, 267.25293, 272.34619, 276.92529, 279.10498, 281.28467, 285.63965, 287.59082, 290.05615, 293.10596, 298.19922, " y="455, ">
				The date (and, optionally, the
		</text>
		<text fill="gray" font-size="9" font-family="Segoe UI" x="187, 190.0498, 192.22949, 199.98145, 204.68799, 207.40381, 209.86914, 216.37305, 221.46631, 226.17285, 231.26611, 233.73145, 236.78125, 241.87451, 246.58105, 249.04639, 254.3374, 257.46631, 262.73975, 268.03076, 272.7373, 275.86621, 278.91602, 283.271, 285.73633, 292.24023, 296.81934, " y="467, ">
				time) when the property was
		</text>
		<text fill="gray" font-size="9" font-family="Segoe UI" x="187, 189.17969, 193.75879, 197.57764, 200.62744, 203.09277, 210.84473, 216.11816, 221.41797, 223.59766, 226.41455, 228.59424, 233.30078, 238.60059, 240.55176, 243.01709, 247.73242, 252.82568, 257.53223, 259.99756, 262.17725, 267.27051, 269.4502, 272.5, 274.67969, 279.25879, 281.43848, 283.90381, 288.21484, 292.79395, 294.97363, 300.06689, " y="479, ">
				last modified. The initial value
		</text>
		<text fill="gray" font-size="9" font-family="Segoe UI" x="187, 189.17969, 192.99854, 195.46387, 198.51367, 203.60693, 208.31348, 210.77881, 216.07861, 220.65771, 223.70752, 228.41406, 230.87939, 233.59521, 238.17432, 243.26758, 248.56738, 250.51855, 252.98389, 258.25732, 263.54834, 266.59814, 268.77783, 274.05127, 279.14453, 283.72363, 285.90332, 288.08301, 292.43799, " y="491, ">
				is the date (and, optionally,
		</text>
		<text fill="gray" font-size="9" font-family="Segoe UI" x="187, 190.0498, 195.14307, 199.84961, 202.31494, 205.36475, 207.54443, 215.29639, 220.00293, 222.71875, 225.18408, 230.45752, 233.27441, 235.73975, 239.89697, 243.02588, 247.73242, 252.31152, 255.36133, 257.54102, 262.81445, 267.90771, 270.37305, 275.64648, 278.46338, 280.92871, 283.97852, 289.07178, " y="503, ">
				the time) of creation of the
		</text>
		<text fill="gray" font-size="9" font-family="Segoe UI" x="187, 192.29102, 195.41992, 200.69336, 205.98438, 210.69092, 213.81982, 216.86963, 221.22461, " y="515, ">
				property.
		</text>
		<rect fill="white" x="191" y="420" width="53" height="16"/>
		<text font-size="12" font-weight="600" font-family="Segoe UI" x="191, 201.99219, 209.32812, 216.75781, 220.16797, 224.76758, 228.17773, 234.66992, " y="433, ">
				modified
		</text>
		<rect fill="none" stroke="black" stroke-width="1" stroke-linecap="square" stroke-miterlimit="4" transform="translate(0.5 0.5)" x="182" y="418" width="68" height="20"/>
		<rect fill="silver" x="186" y="528" width="59" height="21"/>
		<rect fill="white" x="182" y="524" width="59" height="21"/>
		<rect fill="white" x="187" y="551" width="118" height="108"/>
		<text fill="gray" font-size="9" font-family="Segoe UI" x="187, 189.39502, 192.21191, 194.67725, 198.49609, 203.20264, 206.25244, 208.71777, 211.76758, 217.04102, 219.50635, 222.55615, 225.68506, 230.77832, 235.48486, 237.9502, 241, 246.09326, " y="561, ">
				If set to true the
		</text>
		<text fill="gray" font-size="9" font-family="Segoe UI" x="187, 191.15723, 196.43066, 199.55957, 202.68848, 207.39502, 211.21387, 216.50488, 221.77832, 226.87158, 232.17139, 234.35107, 239.44434, 244.74414, 247.20947, 252.50049, 255.62939, 260.90283, 266.19385, 270.90039, 274.0293, 277.0791, 281.43408, 283.89941, 290.40332, 294.98242, " y="573, ">
				corresponding property was
		</text>
		<text fill="gray" font-size="9" font-family="Segoe UI" x="187, 191.5791, 196.87891, 202.17871, 206.88525, 212.18506, 214.65039, 217.7002, 222.97363, 225.43896, 228.48877, 233.58203, 238.28857, 240.75391, 246.92822, 251.77979, 254.24512, 256.64014, 259.68994, 264.39648, 272.14844, 274.61377, 277.43066, 282.7041, 285.83301, 288.29834, " y="585, ">
				added to the G2 Item for a
		</text>
		<text fill="gray" font-size="9" font-family="Segoe UI" x="187, 190.81885, 196.10986, 200.81641, 204.97363, 207.15332, 209.97021, 212.1499, 216.30713, 218.77246, 222.92969, 228.02295, 231.8418, 234.8916, 240.16504, 247.91699, 252.62354, 255.75244, 258.21777, 263.49121, 266.62012, 269.08545, 274.38525, 277.51416, 282.7876, 287.88086, 293.17188, 295.63721, 300.91064, " y="597, ">
				specific customer or group of
		</text>
		<text fill="gray" font-size="9" font-family="Segoe UI" x="187, 191.15723, 196.25049, 200.06934, 203.11914, 208.39258, 216.14453, 220.85107, 223.97998, 227.79883, 230.26416, 235.5376, 240.63086, 242.81055, 247.16553, 249.1167, 251.58203, 256.29736, 261.39062, 266.09717, 268.5625, 273.8623, 278.56885, 281.38574, 285.96484, 291.05811, 293.23779, " y="609, ">
				customers only. The default
		</text>
		<text fill="gray" font-size="9" font-family="Segoe UI" x="187, 191.31104, 195.89014, 198.06982, 203.16309, 207.86963, 210.33496, 215.6084, 218.42529, 220.89062, 223.94043, 229.03369, 231.21338, 235.03223, 237.49756, 242.78857, 245.91748, 251.19092, 256.48193, 261.18848, 264.31738, 267.36719, 271.72217, 274.1875, 276.36719, 280.18604, 282.65137, 285.46826, 290.04736, 292.22705, 296.0459, " y="621, ">
				value of this property is false
		</text>
		<text fill="gray" font-size="9" font-family="Segoe UI" x="187, 193.50391, 198.59717, 200.77686, 204.93408, 210.02734, 212.49268, 217.07178, 222.36279, 227.65381, 229.8335, 232.01318, 236.71973, 240.53857, 243.00391, 249.50781, 254.60107, 259.30762, 264.40088, 266.86621, 269.91602, 275.00928, 277.18896, " y="633, ">
				which applies when this
		</text>
		<text fill="gray" font-size="9" font-family="Segoe UI" x="187, 191.5791, 194.62891, 197.67871, 200.80762, 202.9873, 208.27832, 213.37158, 216.42139, 221.12793, 223.59326, 225.77295, 229.5918, 232.05713, 237.15039, 242.42383, 245.47363, 247.93896, 253.03223, 256.85107, 261.55762, 266.85742, 269.32275, 275.82666, 278.00635, 281.05615, 286.14941, 288.61475, 291.66455, 296.75781, " y="645, ">
				attribute is not used with the
		</text>
		<text fill="gray" font-size="9" font-family="Segoe UI" x="187, 192.29102, 195.41992, 200.69336, 205.98438, 210.69092, 213.81982, 216.86963, 221.22461, " y="657, ">
				property.
		</text>
		<rect fill="white" x="191" y="526" width="43" height="16"/>
		<text font-size="12" font-weight="600" font-family="Segoe UI" x="191, 196.75977, 204.01953, 209.29883, 213.92188, 221.25781, " y="539, ">
				custom
		</text>
		<rect fill="none" stroke="black" stroke-width="1" stroke-linecap="square" stroke-miterlimit="4" transform="translate(0.5 0.5)" x="182" y="524" width="58" height="20"/>
		<rect fill="silver" x="186" y="670" width="52" height="21"/>
		<rect fill="white" x="182" y="666" width="52" height="21"/>
		<rect fill="white" x="187" y="693" width="118" height="48"/>
		<text fill="gray" font-size="9" font-family="Segoe UI" x="187, 189.39502, 194.48828, 199.78809, 201.96777, 206.125, 210.7041, 213.75391, 218.46045, 222.2793, 224.74463, 230.03564, 234.39062, 236.85596, 243.35986, 248.45312, 250.63281, 254.79004, 259.8833, 262.34863, 270.10059, 274.80713, 279.38623, 284.47949, 288.29834, 290.76367, 293.81348, 298.90674, " y="703, ">
				Indicates by which means the
		</text>
		<text fill="gray" font-size="9" font-family="Segoe UI" x="187, 191.31104, 195.89014, 198.06982, 203.16309, 207.86963, 210.33496, 216.83887, 221.41797, 225.23682, 227.70215, 232.40869, 236.53955, 239.58936, 242.71826, 247.29736, 251.45459, 254.50439, 259.21094, 264.51074, 266.97607, 269.79297, 272.92188, 278.19531, 285.94727, 288.4126, 291.4624, 296.55566, " y="715, ">
				value was extracted from the
		</text>
		<text fill="gray" font-size="9" font-family="Segoe UI" x="187, 191.15723, 196.43066, 201.52393, 204.57373, 209.28027, 214.37354, 217.42334, 219.88867, 223.48779, 225.95312, 230.65967, 234.79053, 240.08154, 243.21045, 247.91699, 251.73584, 255.55469, 260.26123, 265.56104, 268.02637, 273.31738, 277.67236, 280.1377, " y="727, ">
				content - expressed by a
		</text>
		<text fill="gray" font-size="9" font-family="Segoe UI" x="187, 193.78516, 199.35742, 204.63086, 209.93066, " y="739, ">
				QCode
		</text>
		<rect fill="white" x="191" y="668" width="36" height="16"/>
		<text font-size="12" font-weight="600" font-family="Segoe UI" x="191, 198.22461, 205.56055, " y="681, ">
				how
		</text>
		<rect fill="none" stroke="black" stroke-width="1" stroke-linecap="square" stroke-miterlimit="4" transform="translate(0.5 0.5)" x="182" y="666" width="51" height="20"/>
		<rect fill="silver" x="186" y="752" width="57" height="21"/>
		<rect fill="white" x="182" y="748" width="57" height="21"/>
		<rect fill="white" x="187" y="775" width="118" height="36"/>
		<text fill="gray" font-size="9" font-family="Segoe UI" x="187, 189.39502, 194.48828, 199.78809, 201.96777, 206.125, 210.7041, 213.75391, 218.46045, 222.2793, 224.74463, 230.03564, 234.39062, 236.85596, 243.35986, 248.45312, 250.63281, 254.79004, 259.8833, 262.34863, 270.10059, 274.80713, 279.38623, 284.47949, 288.29834, 290.76367, 293.81348, 298.90674, " y="785, ">
				Indicates by which means the
		</text>
		<text fill="gray" font-size="9" font-family="Segoe UI" x="187, 191.31104, 195.89014, 198.06982, 203.16309, 207.86963, 210.33496, 216.83887, 221.41797, 225.23682, 227.70215, 232.40869, 236.53955, 239.58936, 242.71826, 247.29736, 251.45459, 254.50439, 259.21094, 264.51074, 266.97607, 269.79297, 272.92188, 278.19531, 285.94727, 288.4126, 291.4624, 296.55566, " y="797, ">
				value was extracted from the
		</text>
		<text fill="gray" font-size="9" font-family="Segoe UI" x="187, 191.15723, 196.43066, 201.52393, 204.57373, 209.28027, 214.37354, 217.42334, 219.88867, 223.48779, 225.95312, 230.65967, 234.79053, 240.08154, 243.21045, 247.91699, 251.73584, 255.55469, 260.26123, 265.56104, 268.02637, 273.31738, 277.67236, 280.1377, 284.7168, 287.18213, 293.36523, 298.74854, " y="809, ">
				content - expressed by a URI
		</text>
		<rect fill="white" x="191" y="750" width="41" height="16"/>
		<text font-size="12" font-weight="600" font-family="Segoe UI" x="191, 198.22461, 205.56055, 215.12891, 222.38867, 227.21094, " y="763, ">
				howuri
		</text>
		<rect fill="none" stroke="black" stroke-width="1" stroke-linecap="square" stroke-miterlimit="4" transform="translate(0.5 0.5)" x="182" y="748" width="56" height="20"/>
		<rect fill="silver" x="186" y="822" width="52" height="21"/>
		<rect fill="white" x="182" y="818" width="52" height="21"/>
		<rect fill="white" x="187" y="845" width="113" height="36"/>
		<text fill="gray" font-size="9" font-family="Segoe UI" x="187, 195.40674, 200.5, 204.85498, 207.32031, 210.37012, 215.46338, 220.16992, 222.63525, 230.38721, 235.09375, 238.14355, 242.72266, 248.02246, 252.60156, 255.65137, 260.23047, 262.6958, 267.78906, 272.36816, 276.18701, 278.65234, 283.94336, 288.6499, 293.35645, " y="855, ">
				Why the metadata has been
		</text>
		<text fill="gray" font-size="9" font-family="Segoe UI" x="187, 189.17969, 194.27295, 198.43018, 200.60986, 205.70312, 211.00293, 215.70947, 221.00928, 223.47461, 227.07373, 229.53906, 234.24561, 238.37646, 243.66748, 246.79639, 251.50293, 255.32178, 259.14062, 263.84717, 269.14697, 271.6123, 276.90332, 281.2583, 283.72363, " y="867, ">
				included - expressed by a
		</text>
		<text fill="gray" font-size="9" font-family="Segoe UI" x="187, 193.78516, 199.35742, 204.63086, 209.93066, " y="879, ">
				QCode
		</text>
		<rect fill="white" x="191" y="820" width="36" height="16"/>
		<text font-size="12" font-weight="600" font-family="Segoe UI" x="191, 200.56836, 207.79297, " y="833, ">
				why
		</text>
		<rect fill="none" stroke="black" stroke-width="1" stroke-linecap="square" stroke-miterlimit="4" transform="translate(0.5 0.5)" x="182" y="818" width="51" height="20"/>
		<rect fill="silver" x="186" y="892" width="56" height="21"/>
		<rect fill="white" x="182" y="888" width="56" height="21"/>
		<rect fill="white" x="187" y="915" width="119" height="24"/>
		<text fill="gray" font-size="9" font-family="Segoe UI" x="187, 195.40674, 200.5, 204.85498, 207.32031, 210.37012, 215.46338, 220.16992, 222.63525, 230.38721, 235.09375, 238.14355, 242.72266, 248.02246, 252.60156, 255.65137, 260.23047, 262.6958, 267.78906, 272.36816, 276.18701, 278.65234, 283.94336, 288.6499, 293.35645, " y="925, ">
				Why the metadata has been
		</text>
		<text fill="gray" font-size="9" font-family="Segoe UI" x="187, 189.17969, 194.27295, 198.43018, 200.60986, 205.70312, 211.00293, 215.70947, 221.00928, 223.47461, 227.07373, 229.53906, 234.24561, 238.37646, 243.66748, 246.79639, 251.50293, 255.32178, 259.14062, 263.84717, 269.14697, 271.6123, 276.90332, 281.2583, 283.72363, 288.30273, 290.76807, 296.95117, 302.33447, " y="937, ">
				included - expressed by a URI
		</text>
		<rect fill="white" x="191" y="890" width="40" height="16"/>
		<text font-size="12" font-weight="600" font-family="Segoe UI" x="191, 200.56836, 207.79297, 214.25, 221.50977, 226.33203, " y="903, ">
				whyuri
		</text>
		<rect fill="none" stroke="black" stroke-width="1" stroke-linecap="square" stroke-miterlimit="4" transform="translate(0.5 0.5)" x="182" y="888" width="55" height="20"/>
		<rect fill="silver" x="186" y="950" width="97" height="21"/>
		<rect fill="white" x="182" y="946" width="97" height="21"/>
		<rect fill="white" x="187" y="973" width="117" height="72"/>
		<text fill="gray" font-size="9" font-family="Segoe UI" x="187, 193.78516, 198.87842, 203.58496, 206.05029, 211.32373, 214.45264, 216.91797, 224.66992, 229.24902, 234.34229, 238.69727, 241.1626, 245.31982, 250.59326, 255.68652, 259.50537, 262.55518, 265.68408, 270.26318, 272.44287, 277.53613, 280.58594, 284.40479, 286.87012, 289.91992, 295.01318, 299.59229, " y="983, ">
				One or many constraints that
		</text>
		<text fill="gray" font-size="9" font-family="Segoe UI" x="187, 191.5791, 196.87012, 202.16113, 204.34082, 208.6958, 211.16113, 214.21094, 219.48438, 221.94971, 227.24072, 232.33398, 237.625, 239.80469, 241.98438, 245.80322, 250.89648, 253.07617, 258.16943, 263.46924, 265.93457, 268.98438, 274.07764, 278.78418, 281.24951, 285.56055, 290.13965, 292.31934, 297.4126, " y="995, ">
				apply to publishing the value
		</text>
		<text fill="gray" font-size="9" font-family="Segoe UI" x="187, 192.27344, 195.09033, 197.55566, 200.60547, 205.69873, 210.40527, 212.87061, 218.16162, 221.29053, 226.56396, 231.85498, 236.56152, 239.69043, 242.74023, 247.09521, 249.56055, 253.15967, 255.625, 260.33154, 264.4624, 269.75342, 272.88232, 277.58887, 281.40771, 285.22656, 289.93311, " y="1007, ">
				of the property - expressed
		</text>
		<text fill="gray" font-size="9" font-family="Segoe UI" x="187, 192.29102, 196.646, 199.11133, 203.69043, 206.15576, 212.94092, 218.51318, 223.78662, 229.08643, 233.79297, 235.74414, 238.20947, 242.76221, 247.34131, 251.49854, 256.5918, 259.05713, 263.21436, 268.48779, 273.58105, 277.3999, 280.44971, 283.57861, 288.15771, 290.3374, 295.43066, " y="1019, ">
				by a QCode. Each constraint
		</text>
		<text fill="gray" font-size="9" font-family="Segoe UI" x="187, 191.5791, 196.87012, 202.16113, 204.34082, 206.52051, 211.22705, 215.0459, 217.51123, 220.56104, 225.83447, 228.2998, 232.87891, 235.05859, 237.23828, 239.70361, 245.00342, 249.70996, 253.52881, 257.68604, 262.39258, 267.48584, 272.78564, 277.36475, 282.45801, " y="1031, ">
				applies to all descendant
		</text>
		<text fill="gray" font-size="9" font-family="Segoe UI" x="187, 191.70654, 193.88623, 198.59277, 206.34473, 211.05127, 216.14453, 219.19434, 223.01318, " y="1043, ">
				elements.
		</text>
		<rect fill="white" x="191" y="948" width="81" height="16"/>
		<text font-size="12" font-weight="600" font-family="Segoe UI" x="191, 198.44141, 205.70117, 213.14258, 218.90234, 226.23828, 233.49805, 238.77734, 243.44727, 248.22266, 254.67969, 258.08984, 265.34961, " y="961, ">
				pubconstraint
		</text>
		<rect fill="none" stroke="black" stroke-width="1" stroke-linecap="square" stroke-miterlimit="4" transform="translate(0.5 0.5)" x="182" y="946" width="96" height="20"/>
		<rect fill="silver" x="186" y="1056" width="112" height="21"/>
		<rect fill="white" x="182" y="1052" width="112" height="21"/>
		<rect fill="white" x="187" y="1079" width="117" height="72"/>
		<text fill="gray" font-size="9" font-family="Segoe UI" x="187, 193.78516, 198.87842, 203.58496, 206.05029, 211.32373, 214.45264, 216.91797, 224.66992, 229.24902, 234.34229, 238.69727, 241.1626, 245.31982, 250.59326, 255.68652, 259.50537, 262.55518, 265.68408, 270.26318, 272.44287, 277.53613, 280.58594, 284.40479, 286.87012, 289.91992, 295.01318, 299.59229, " y="1089, ">
				One or many constraints that
		</text>
		<text fill="gray" font-size="9" font-family="Segoe UI" x="187, 191.5791, 196.87012, 202.16113, 204.34082, 208.6958, 211.16113, 214.21094, 219.48438, 221.94971, 227.24072, 232.33398, 237.625, 239.80469, 241.98438, 245.80322, 250.89648, 253.07617, 258.16943, 263.46924, 265.93457, 268.98438, 274.07764, 278.78418, 281.24951, 285.56055, 290.13965, 292.31934, 297.4126, " y="1101, ">
				apply to publishing the value
		</text>
		<text fill="gray" font-size="9" font-family="Segoe UI" x="187, 192.27344, 195.09033, 197.55566, 200.60547, 205.69873, 210.40527, 212.87061, 218.16162, 221.29053, 226.56396, 231.85498, 236.56152, 239.69043, 242.74023, 247.09521, 249.56055, 253.15967, 255.625, 260.33154, 264.4624, 269.75342, 272.88232, 277.58887, 281.40771, 285.22656, 289.93311, " y="1113, ">
				of the property - expressed
		</text>
		<text fill="gray" font-size="9" font-family="Segoe UI" x="187, 192.29102, 196.646, 199.11133, 203.69043, 206.15576, 212.33887, 217.72217, 220.11719, 222.06836, 224.53369, 229.08643, 233.66553, 237.82275, 242.91602, 245.38135, 249.53857, 254.81201, 259.90527, 263.72412, 266.77393, 269.90283, 274.48193, 276.66162, 281.75488, " y="1125, ">
				by a URI. Each constraint
		</text>
		<text fill="gray" font-size="9" font-family="Segoe UI" x="187, 191.5791, 196.87012, 202.16113, 204.34082, 206.52051, 211.22705, 215.0459, 217.51123, 220.56104, 225.83447, 228.2998, 232.87891, 235.05859, 237.23828, 239.70361, 245.00342, 249.70996, 253.52881, 257.68604, 262.39258, 267.48584, 272.78564, 277.36475, 282.45801, " y="1137, ">
				applies to all descendant
		</text>
		<text fill="gray" font-size="9" font-family="Segoe UI" x="187, 191.70654, 193.88623, 198.59277, 206.34473, 211.05127, 216.14453, 219.19434, 223.01318, " y="1149, ">
				elements.
		</text>
		<rect fill="white" x="191" y="1054" width="96" height="16"/>
		<text font-size="12" font-weight="600" font-family="Segoe UI" x="191, 198.44141, 205.70117, 213.14258, 218.90234, 226.23828, 233.49805, 238.77734, 243.44727, 248.22266, 254.67969, 258.08984, 265.34961, 270.01953, 277.2793, 282.10156, " y="1067, ">
				pubconstrainturi
		</text>
		<rect fill="none" stroke="black" stroke-width="1" stroke-linecap="square" stroke-miterlimit="4" transform="translate(0.5 0.5)" x="182" y="1052" width="111" height="20"/>
		<rect fill="silver" x="186" y="1162" width="66" height="21"/>
		<rect fill="white" x="182" y="1158" width="66" height="21"/>
		<rect fill="white" x="187" y="1185" width="121" height="84"/>
		<text fill="gray" font-size="9" font-family="Segoe UI" x="187, 191.78125, 197.07227, 201.77881, 205.93604, 208.11572, 210.93262, 213.1123, 217.81885, 221.6377, 224.10303, 227.15283, 232.24609, 236.95264, 239.41797, 241.59766, 246.17676, 251.27002, 256.56982, 261.66309, 266.24219, 271.54199, 276.24854, 278.71387, 283.9873, 286.8042, 289.26953, 292.31934, 297.4126, 299.59229, " y="1195, ">
				Specifies the language of this
		</text>
		<text fill="gray" font-size="9" font-family="Segoe UI" x="187, 192.29102, 195.41992, 200.69336, 205.98438, 210.69092, 213.81982, 216.86963, 221.22461, 223.68994, 228.26904, 233.3623, 238.66211, 241.12744, 246.41846, 251.69189, 254.7417, 259.44824, 264.5415, 267.59131, 269.771, 274.3501, 276.52979, 278.70947, 283.06445, 285.52979, 290.10889, 292.28857, " y="1207, ">
				property and potentially all
		</text>
		<text fill="gray" font-size="9" font-family="Segoe UI" x="187, 192.2998, 197.00635, 200.8252, 204.98242, 209.68896, 214.78223, 220.08203, 224.66113, 229.75439, 232.8042, 235.26953, 240.56055, 243.68945, 248.96289, 254.25391, 258.96045, 262.08936, 265.13916, 267.31885, 272.02539, 275.84424, " y="1219, ">
				descendant properties.
		</text>
		<text fill="gray" font-size="9" font-family="Segoe UI" x="187, 191.13086, 198.88281, 201.0625, 203.01367, 205.19336, 209.77246, 214.86572, 220.16553, 222.63086, 226.94189, 231.521, 233.70068, 238.79395, 243.50049, 247.31934, 249.78467, 255.05811, 257.875, 260.34033, 265.64014, 270.34668, 274.16553, 278.32275, 283.0293, 288.12256, 293.42236, 298.00146, 303.09473, " y="1231, ">
				xml:lang values of descendant
		</text>
		<text fill="gray" font-size="9" font-family="Segoe UI" x="187, 192.29102, 195.41992, 200.69336, 205.98438, 210.69092, 213.81982, 216.86963, 219.04932, 223.75586, 227.57471, 230.04004, 235.31348, 239.62451, 244.33105, 247.45996, 250.58887, 252.76855, 258.06836, 262.7749, 265.24023, 268.29004, 273.3833, 275.56299, 279.38184, 281.84717, 286.1582, 290.7373, 292.91699, 298.01025, 302.7168, " y="1243, ">
				properties override this value.
		</text>
		<text fill="gray" font-size="9" font-family="Segoe UI" x="187, 191.93066, 196.50977, 198.68945, 203.78271, 208.48926, 212.30811, 214.77344, 219.35254, 222.48145, 227.18799, 229.65332, 234.95312, 239.65967, 242.70947, 247.41602, 250.54492, 258.29688, 260.47656, 265.56982, 270.27637, 275.57617, 278.0415, 283.33252, " y="1255, ">
				Values are determined by
		</text>
		<text fill="gray" font-size="9" font-family="Segoe UI" x="187, 189.39502, 194.48828, 197.53809, 202.24463, 205.37354, 210.4668, 215.17334, 218.22314, 220.68848, 225.84766, 231.41992, 236.46045, 238.92578, 243.77734, 248.62891, " y="1267, ">
				Internet BCP 47.
		</text>
		<rect fill="white" x="191" y="1160" width="50" height="16"/>
		<text font-size="12" font-weight="600" font-family="Segoe UI" x="191, 197.62695, 208.61914, 212.0293, 215.28125, 218.69141, 225.14844, 232.4082, " y="1173, ">
				xml:lang
		</text>
		<path fill="none" stroke="black" stroke-width="2" stroke-miterlimit="4" transform="translate(0.5 0.5)" d="M184 1176L188 1172"/>
		<path fill="none" stroke="black" stroke-width="1" stroke-linecap="square" stroke-miterlimit="4" transform="translate(0.5 0.5)" d="M185 1172L188 1172L188 1175"/>
		<rect fill="none" stroke="black" stroke-width="1" stroke-linecap="square" stroke-miterlimit="4" transform="translate(0.5 0.5)" x="182" y="1158" width="65" height="20"/>
		<rect fill="silver" x="186" y="1280" width="52" height="21"/>
		<rect fill="white" x="182" y="1276" width="52" height="21"/>
		<rect fill="white" x="187" y="1303" width="116" height="24"/>
		<text fill="gray" font-size="9" font-family="Segoe UI" x="187, 191.71533, 196.80859, 201.51514, 203.98047, 209.28027, 211.45996, 214.58887, 219.29541, 223.45264, 226.50244, 228.68213, 233.95557, 239.04883, 243.62793, 245.80762, 247.9873, 251.03711, 255.39209, 257.85742, 263.13086, 265.94775, 268.41309, 271.46289, 276.16943, 280.30029, 283.3501, 288.44336, 293.02246, " y="1313, ">
				The directionality of textual
		</text>
		<text fill="gray" font-size="9" font-family="Segoe UI" x="187, 191.15723, 196.43066, 201.52393, 204.57373, 209.28027, 214.37354, 217.42334, 219.88867, 222.60449, 227.31104, 232.4043, 237.49756, 245.24951, 249.95605, 253.08496, 257.66406, 260.71387, 262.89355, 268.16699, 273.26025, 275.21143, 277.67676, 279.85645, 282.90625, 286.03516, 287.98633, 290.45166, 293.58057, 296.63037, 298.81006, " y="1325, ">
				content (enumeration: ltr, rtl)
		</text>
		<rect fill="white" x="191" y="1278" width="36" height="16"/>
		<text font-size="12" font-weight="600" font-family="Segoe UI" x="191, 198.42969, 201.83984, " y="1291, ">
				dir
		</text>
		<rect fill="none" stroke="black" stroke-width="1" stroke-linecap="square" stroke-miterlimit="4" transform="translate(0.5 0.5)" x="182" y="1276" width="51" height="20"/>
		<rect fill="silver" x="186" y="1338" width="52" height="21"/>
		<rect fill="white" x="182" y="1334" width="52" height="21"/>
		<rect fill="white" x="187" y="1361" width="120" height="36"/>
		<text fill="gray" font-size="9" font-family="Segoe UI" x="187, 192.80518, 195.27051, 198.39941, 203.10596, 205.92285, 208.10254, 213.1958, 217.90234, 225.6543, 230.36084, 235.4541, 238.50391, 240.96924, 246.24268, 249.05957, 251.5249, 254.57471, 259.66797, 264.37451, 266.83984, 270.65869, 275.36523, 283.11719, 287.69629, 292.78955, 295.83936, 298.01904, 302.17627, " y="1371, ">
				A refinement of the semantics
		</text>
		<text fill="gray" font-size="9" font-family="Segoe UI" x="187, 192.27344, 195.09033, 197.55566, 200.60547, 205.69873, 210.40527, 212.87061, 215.05029, 219.62939, 224.92041, 229.62695, 231.80664, 234.27197, 237.87109, 240.33643, 245.04297, 249.17383, 254.46484, 257.59375, 262.30029, 266.11914, 269.93799, 274.64453, 279.94434, 282.40967, 287.70068, 292.05566, 294.521, " y="1383, ">
				of the label - expressed by a
		</text>
		<text fill="gray" font-size="9" font-family="Segoe UI" x="187, 193.78516, 199.35742, 204.63086, 209.93066, " y="1395, ">
				QCode
		</text>
		<rect fill="white" x="191" y="1336" width="36" height="16"/>
		<text font-size="12" font-weight="600" font-family="Segoe UI" x="191, 195.72852, 203.06445, 206.47461, " y="1349, ">
				role
		</text>
		<rect fill="none" stroke="black" stroke-width="1" stroke-linecap="square" stroke-miterlimit="4" transform="translate(0.5 0.5)" x="182" y="1334" width="51" height="20"/>
		<rect fill="silver" x="186" y="1408" width="55" height="21"/>
		<rect fill="white" x="182" y="1404" width="55" height="21"/>
		<rect fill="white" x="187" y="1431" width="120" height="36"/>
		<text fill="gray" font-size="9" font-family="Segoe UI" x="187, 192.80518, 195.27051, 198.39941, 203.10596, 205.92285, 208.10254, 213.1958, 217.90234, 225.6543, 230.36084, 235.4541, 238.50391, 240.96924, 246.24268, 249.05957, 251.5249, 254.57471, 259.66797, 264.37451, 266.83984, 270.65869, 275.36523, 283.11719, 287.69629, 292.78955, 295.83936, 298.01904, 302.17627, " y="1441, ">
				A refinement of the semantics
		</text>
		<text fill="gray" font-size="9" font-family="Segoe UI" x="187, 192.27344, 195.09033, 197.55566, 200.60547, 205.69873, 210.40527, 212.87061, 215.05029, 219.62939, 224.92041, 229.62695, 231.80664, 234.27197, 237.87109, 240.33643, 245.04297, 249.17383, 254.46484, 257.59375, 262.30029, 266.11914, 269.93799, 274.64453, 279.94434, 282.40967, 287.70068, 292.05566, 294.521, " y="1453, ">
				of the label - expressed by a
		</text>
		<text fill="gray" font-size="9" font-family="Segoe UI" x="187, 193.18311, 198.56641, " y="1465, ">
				URI
		</text>
		<rect fill="white" x="191" y="1406" width="39" height="16"/>
		<text font-size="12" font-weight="600" font-family="Segoe UI" x="191, 195.72852, 203.06445, 206.47461, 212.9668, 220.22656, 225.04883, " y="1419, ">
				roleuri
		</text>
		<rect fill="none" stroke="black" stroke-width="1" stroke-linecap="square" stroke-miterlimit="4" transform="translate(0.5 0.5)" x="182" y="1404" width="54" height="20"/>
		<rect fill="silver" x="186" y="1478" width="52" height="21"/>
		<rect fill="white" x="182" y="1474" width="52" height="21"/>
		<rect fill="white" x="187" y="1501" width="106" height="60"/>
		<text fill="gray" font-size="9" font-family="Segoe UI" x="187, 192.80518, 197.89844, 200.36377, 202.54346, 207.63672, 212.93652, 215.11621, 219.27344, 223.85254, 226.90234, 229.08203, 234.35547, 239.44873, 241.91406, 247.1875, 250.00439, 252.46973, 255.51953, 260.61279, 265.31934, 267.78467, 270.83447, 275.41357, 278.54248, 283.84229, 288.54883, " y="1511, ">
				An indication of the target
		</text>
		<text fill="gray" font-size="9" font-family="Segoe UI" x="187, 194.75195, 199.4585, 204.7583, 206.93799, 211.51709, 213.98242, 217.03223, 221.38721, 226.67822, 231.38477, 234.10059, 237.91943, 240.63525, 242.58643, 245.05176, 249.36279, 253.94189, 256.12158, 261.21484, 265.92139, 269.74023, 272.20557, 276.78467, " y="1523, ">
				media type(s), values as
		</text>
		<text fill="gray" font-size="9" font-family="Segoe UI" x="187, 192.2998, 197.00635, 199.82324, 202.00293, 207.09619, 211.80273, 217.10254, 219.56787, 224.85889, 229.21387, 231.6792, 234.729, 239.82227, 244.52881, 246.99414, 252.56641, 257.14551, 260.96436, 265.12158, 269.70068, 275.00049, 277.18018, 282.27344, " y="1535, ">
				defined by the Cascading
		</text>
		<text fill="gray" font-size="9" font-family="Segoe UI" x="187, 191.49121, 194.54102, 198.896, 201.07568, 205.78223, 208.24756, 213.02881, 218.12207, 222.82861, 227.53516, 230.58496, 234.40381, 236.86914, 240.68799, 245.979, 250.68555, 254.84277, 257.02246, 259.83936, 262.01904, 266.17627, 270.75537, 273.80518, 275.98486, 281.2583, " y="1547, ">
				Style Sheets specification
		</text>
		<text fill="gray" font-size="9" font-family="Segoe UI" x="187, 189.71582, 195.28809, 200.06934, 204.85059, 207.56641, " y="1559, ">
				[CSS].
		</text>
		<rect fill="white" x="191" y="1476" width="36" height="16"/>
		<text font-size="12" font-weight="600" font-family="Segoe UI" x="191, 201.99219, 208.48438, 215.91406, 219.32422, " y="1489, ">
				media
		</text>
		<rect fill="none" stroke="black" stroke-width="1" stroke-linecap="square" stroke-miterlimit="4" transform="translate(0.5 0.5)" x="182" y="1474" width="51" height="20"/>
		<path fill="silver" d="M186 1577L191 1572L259 1572L264 1577L264 1588L259 1593L191 1593L186 1588L186 1577Z"/>
		<path fill="white" d="M182 1573L187 1568L255 1568L260 1573L260 1584L255 1589L187 1589L182 1584L182 1573Z"/>
		<rect fill="white" x="209" y="1570" width="46" height="16"/>
		<text font-size="12" font-weight="600" font-family="Segoe UI" x="209, 216.10742, 223.21484, 230.55078, 235.2207, 242.44531, 248.9375, " y="1583, ">
				##other
		</text>
		<rect fill="white" x="187" y="1570" width="20" height="16"/>
		<text fill="gray" font-size="12" font-family="Segoe UI" x="187, 193.10547, 199.89648, " y="1583, ">
				any
		</text>
		<path fill="none" stroke="black" stroke-width="1" stroke-linecap="square" stroke-miterlimit="4" transform="translate(0.5 0.5)" d="M182 1573L187 1568L254 1568L259 1573L259 1583L254 1588L187 1588L182 1583L182 1573Z"/>
		<rect x="173" y="41" width="11" height="11"/>
		<rect fill="white" x="174" y="42" width="9" height="9"/>
		<rect x="175" y="46" width="7" height="1"/>
		<path fill="none" stroke="black" stroke-width="1" stroke-linecap="square" stroke-miterlimit="4" transform="translate(0.5 0.5)" d="M213 1760L221 1760"/>
		<path fill="none" stroke="black" stroke-width="1" stroke-linecap="square" stroke-miterlimit="4" transform="translate(0.5 0.5)" d="M222 1760L222 1623"/>
		<path fill="none" stroke="black" stroke-width="1" stroke-linecap="square" stroke-miterlimit="4" transform="translate(0.5 0.5)" d="M222 1760L222 1897"/>
		<path fill="none" stroke="black" stroke-width="1" stroke-linecap="square" stroke-miterlimit="4" transform="translate(0.5 0.5)" d="M222 1622L236 1622"/>
		<path fill="none" stroke="black" stroke-width="1" stroke-linecap="square" stroke-miterlimit="4" transform="translate(0.5 0.5)" d="M222 1685L236 1685"/>
		<path fill="none" stroke="black" stroke-width="1" stroke-linecap="square" stroke-miterlimit="4" transform="translate(0.5 0.5)" d="M222 1760L236 1760"/>
		<path fill="none" stroke="black" stroke-width="1" stroke-linecap="square" stroke-miterlimit="4" transform="translate(0.5 0.5)" d="M222 1835L236 1835"/>
		<path fill="none" stroke="black" stroke-width="1" stroke-linecap="square" stroke-miterlimit="4" transform="translate(0.5 0.5)" d="M222 1898L236 1898"/>
		<path fill="silver" d="M175 1762L180 1757L205 1757L210 1762L210 1773L205 1778L180 1778L175 1773L175 1762Z"/>
		<path fill="white" d="M171 1758L176 1753L200 1753L205 1758L205 1768L200 1773L176 1773L171 1768L171 1758Z"/>
		<path transform="translate(0.5 0.5)" d="M174.889 1753.4L175.793 1752.5L176.929 1752.5L177.429 1752.5L177.429 1753.5L176.929 1753.5L176 1753.5L176 1753L176.354 1753.35L175.243 1754.46L174.536 1753.76L174.889 1753.4ZM180.929 1752.5L182.929 1752.5L183.429 1752.5L183.429 1753.5L182.929 1753.5L180.429 1753.5L180.429 1752.5L180.929 1752.5ZM186.929 1752.5L188.929 1752.5L189.429 1752.5L189.429 1753.5L188.929 1753.5L186.429 1753.5L186.429 1752.5L186.929 1752.5ZM192.929 1752.5L194.929 1752.5L195.429 1752.5L195.429 1753.5L194.929 1753.5L192.429 1753.5L192.429 1752.5L192.929 1752.5ZM198.929 1752.5L200.207 1752.5L201.01 1753.3L201.364 1753.66L200.657 1754.36L200.303 1754.01L199.646 1753.35L200 1753L200 1753.5L198.429 1753.5L198.429 1752.5L198.929 1752.5ZM203.839 1756.13L205.253 1757.55L205.607 1757.9L204.899 1758.61L204.546 1758.25L202.778 1756.49L203.485 1755.78L203.839 1756.13ZM205.5 1761.86L205.5 1763.86L205.5 1764.36L204.5 1764.36L204.5 1763.86L204.5 1761.36L205.5 1761.36L205.5 1761.86ZM205.5 1767.86L205.5 1768.21L204.04 1769.67L203.686 1770.02L202.979 1769.31L203.333 1768.96L204.646 1767.65L205 1768L204.5 1768L204.5 1767.36L205.5 1767.36L205.5 1767.86ZM201.211 1772.5L200.207 1773.5L199.213 1773.5L198.713 1773.5L198.713 1772.5L199.213 1772.5L200 1772.5L200 1773L199.646 1772.65L200.858 1771.44L201.565 1772.14L201.211 1772.5ZM195.213 1773.5L193.213 1773.5L192.713 1773.5L192.713 1772.5L193.213 1772.5L195.713 1772.5L195.713 1773.5L195.213 1773.5ZM189.213 1773.5L187.213 1773.5L186.713 1773.5L186.713 1772.5L187.213 1772.5L189.713 1772.5L189.713 1773.5L189.213 1773.5ZM183.213 1773.5L181.213 1773.5L180.713 1773.5L180.713 1772.5L181.213 1772.5L183.713 1772.5L183.713 1773.5L183.213 1773.5ZM177.213 1773.5L175.793 1773.5L175.09 1772.8L174.737 1772.44L175.444 1771.74L175.797 1772.09L176.354 1772.65L176 1773L176 1772.5L177.713 1772.5L177.713 1773.5L177.213 1773.5ZM172.262 1769.97L170.847 1768.55L170.494 1768.2L171.201 1767.49L171.555 1767.85L173.322 1769.62L172.615 1770.32L172.262 1769.97ZM170.5 1764.28L170.5 1762.28L170.5 1761.78L171.5 1761.78L171.5 1762.28L171.5 1764.78L170.5 1764.78L170.5 1764.28ZM170.5 1758.28L170.5 1757.79L172.414 1755.88L173.121 1756.59L171.354 1758.35L171 1758L171.5 1758L171.5 1758.78L170.5 1758.78L170.5 1758.28Z"/>
		<path fill="white" d="M168 1755L173 1750L198 1750L203 1755L203 1766L198 1771L173 1771L168 1766L168 1755Z"/>
		<path fill="none" stroke="black" stroke-width="1" stroke-linecap="square" stroke-miterlimit="4" transform="translate(0.5 0.5)" d="M187 1771L193 1777L196 1774"/>
		<path fill="none" stroke="black" stroke-width="1" stroke-linecap="square" stroke-miterlimit="4" transform="translate(0.5 0.5)" d="M173 1760L178 1760L182 1756"/>
		<path fill="none" stroke="black" stroke-width="1" stroke-linecap="square" stroke-miterlimit="4" transform="translate(0.5 0.5)" d="M188 1760L196 1760"/>
		<path fill="none" stroke="black" stroke-width="1" stroke-linecap="square" stroke-miterlimit="4" transform="translate(0.5 0.5)" d="M188 1756L192 1756L192 1764L188 1764"/>
		<rect x="184" y="1755" width="3" height="3"/>
		<rect x="184" y="1759" width="3" height="3"/>
		<rect x="184" y="1763" width="3" height="3"/>
		<text font-size="12" font-family="Segoe UI" x="172.76562, " y="1790, ">
				0
		</text>
		<text font-size="12" font-family="Symbol" x="187.72266, " y="1789, ">
				
		</text>
		<text font-size="12" font-family="Segoe UI" x="180.89844, 183.5, " y="1790, ">
				..
		</text>
		<path transform="translate(0.5 0.5)" d="M171.889 1750.4L172.793 1749.5L173.929 1749.5L174.429 1749.5L174.429 1750.5L173.929 1750.5L173 1750.5L173 1750L173.354 1750.35L172.243 1751.46L171.536 1750.76L171.889 1750.4ZM177.929 1749.5L179.929 1749.5L180.429 1749.5L180.429 1750.5L179.929 1750.5L177.429 1750.5L177.429 1749.5L177.929 1749.5ZM183.929 1749.5L185.929 1749.5L186.429 1749.5L186.429 1750.5L185.929 1750.5L183.429 1750.5L183.429 1749.5L183.929 1749.5ZM189.929 1749.5L191.929 1749.5L192.429 1749.5L192.429 1750.5L191.929 1750.5L189.429 1750.5L189.429 1749.5L189.929 1749.5ZM195.929 1749.5L197.207 1749.5L198.01 1750.3L198.364 1750.66L197.657 1751.36L197.303 1751.01L196.646 1750.35L197 1750L197 1750.5L195.429 1750.5L195.429 1749.5L195.929 1749.5ZM200.839 1753.13L202.253 1754.55L202.607 1754.9L201.899 1755.61L201.546 1755.25L199.778 1753.49L200.485 1752.78L200.839 1753.13ZM202.5 1758.86L202.5 1760.86L202.5 1761.36L201.5 1761.36L201.5 1760.86L201.5 1758.36L202.5 1758.36L202.5 1758.86ZM202.5 1764.86L202.5 1765.21L201.04 1766.67L200.686 1767.02L199.979 1766.31L200.333 1765.96L201.646 1764.65L202 1765L201.5 1765L201.5 1764.36L202.5 1764.36L202.5 1764.86ZM198.211 1769.5L197.207 1770.5L196.213 1770.5L195.713 1770.5L195.713 1769.5L196.213 1769.5L197 1769.5L197 1770L196.646 1769.65L197.858 1768.44L198.565 1769.14L198.211 1769.5ZM192.213 1770.5L190.213 1770.5L189.713 1770.5L189.713 1769.5L190.213 1769.5L192.713 1769.5L192.713 1770.5L192.213 1770.5ZM186.213 1770.5L184.213 1770.5L183.713 1770.5L183.713 1769.5L184.213 1769.5L186.713 1769.5L186.713 1770.5L186.213 1770.5ZM180.213 1770.5L178.213 1770.5L177.713 1770.5L177.713 1769.5L178.213 1769.5L180.713 1769.5L180.713 1770.5L180.213 1770.5ZM174.213 1770.5L172.793 1770.5L172.09 1769.8L171.737 1769.44L172.444 1768.74L172.797 1769.09L173.354 1769.65L173 1770L173 1769.5L174.713 1769.5L174.713 1770.5L174.213 1770.5ZM169.262 1766.97L167.847 1765.55L167.494 1765.2L168.201 1764.49L168.555 1764.85L170.322 1766.62L169.615 1767.32L169.262 1766.97ZM167.5 1761.28L167.5 1759.28L167.5 1758.78L168.5 1758.78L168.5 1759.28L168.5 1761.78L167.5 1761.78L167.5 1761.28ZM167.5 1755.28L167.5 1754.79L169.414 1752.88L170.121 1753.59L168.354 1755.35L168 1755L168.5 1755L168.5 1755.78L167.5 1755.78L167.5 1755.28Z"/>
		<rect fill="silver" x="241" y="1616" width="52" height="21"/>
		<rect fill="white" x="237" y="1612" width="52" height="21"/>
		<rect fill="#FFFFC0" x="242" y="1639" width="109" height="24"/>
		<text fill="gray" font-size="9" font-family="Segoe UI" x="242, 247.80518, 252.89844, 255.36377, 259.94287, 265.03613, 269.19336, 274.28662, 279.56006, 282.68896, 285.1543, 287.97119, 293.24463, 296.37354, 298.83887, 301.01855, 306.11182, 308.2915, 310.47119, 315.56445, 320.271, 322.73633, 324.91602, 327.0957, 332.18896, 336.6626, 338.84229, 343.93555, " y="1649, ">
				An anchor for inline linking
		</text>
		<text fill="gray" font-size="9" font-family="Segoe UI" x="242, 244.17969, 246.35938, 250.83301, 255.53955, 258.00488, 260.18457, 265.27783, 267.74316, 274.13281, 278.84814, 286.92969, " y="1661, ">
				like in HTML
		</text>
		<rect fill="white" x="246" y="1614" width="31" height="16"/>
		<text font-size="12" font-weight="600" font-family="Segoe UI" x="246, " y="1627, ">
				a
		</text>
		<path fill="none" stroke="black" stroke-width="1" stroke-linecap="square" stroke-miterlimit="4" transform="translate(0.5 0.5)" d="M239 1614L244 1614"/>
		<path fill="none" stroke="black" stroke-width="1" stroke-linecap="square" stroke-miterlimit="4" transform="translate(0.5 0.5)" d="M239 1616L243 1616"/>
		<path fill="none" stroke="black" stroke-width="1" stroke-linecap="square" stroke-miterlimit="4" transform="translate(0.5 0.5)" d="M239 1618L243 1618"/>
		<path fill="none" stroke="black" stroke-width="2" stroke-miterlimit="4" transform="translate(0.5 0.5)" d="M239 1630L243 1626"/>
		<path fill="none" stroke="black" stroke-width="1" stroke-linecap="square" stroke-miterlimit="4" transform="translate(0.5 0.5)" d="M240 1626L243 1626L243 1629"/>
		<rect fill="none" stroke="black" stroke-width="1" stroke-linecap="square" stroke-miterlimit="4" transform="translate(0.5 0.5)" x="237" y="1612" width="51" height="20"/>
		<rect x="283" y="1617" width="11" height="11"/>
		<rect fill="white" x="284" y="1618" width="9" height="9"/>
		<rect x="285" y="1622" width="7" height="1"/>
		<rect x="288" y="1619" width="1" height="7"/>
		<rect fill="silver" x="241" y="1679" width="52" height="21"/>
		<rect fill="white" x="237" y="1675" width="52" height="21"/>
		<rect fill="#FFFFC0" x="242" y="1702" width="113" height="36"/>
		<text fill="gray" font-size="9" font-family="Segoe UI" x="242, 247.80518, 250.27051, 255.57031, 260.27686, 265.37012, 270.07666, 273.20557, 275.38525, 279.54248, 282.00781, 289.75977, 294.46631, 298.62354, 303.7168, 308.2959, 313.38916, 315.56885, 319.3877, 327.13965, 329.60498, 332.42188, 337.69531, " y="1712, ">
				A generic mechanism for
		</text>
		<text fill="gray" font-size="9" font-family="Segoe UI" x="242, 246.5791, 251.87891, 257.17871, 259.3584, 264.45166, 269.75146, 272.2168, 274.39648, 279.48975, 281.66943, 283.84912, 288.94238, 293.64893, 296.11426, 298.29395, 303.38721, 306.2041, 311.47754, 314.60645, 322.3584, 326.9375, 329.9873, 332.16699, 337.44043, 342.53369, 344.99902, 348.04883, " y="1724, ">
				adding inline information to
		</text>
		<text fill="gray" font-size="9" font-family="Segoe UI" x="242, 247.29102, 251.87012, 254.99902, 258.04883, 261.86768, 264.33301, 269.60645, 272.42334, 274.88867, 277.93848, 283.03174, 287.73828, 290.20361, 293.25342, 297.95996, 302.09082, 305.14062, 310.23389, 314.81299, 316.99268, 319.45801, 323.61523, 328.88867, 333.98193, 337.03174, 341.73828, 346.83154, " y="1736, ">
				parts of the textual content
		</text>
		<rect fill="white" x="246" y="1677" width="31" height="16"/>
		<text font-size="12" font-weight="600" font-family="Segoe UI" x="246, 251.2793, 258.60352, 265.06055, " y="1690, ">
				span
		</text>
		<path fill="none" stroke="black" stroke-width="1" stroke-linecap="square" stroke-miterlimit="4" transform="translate(0.5 0.5)" d="M239 1677L244 1677"/>
		<path fill="none" stroke="black" stroke-width="1" stroke-linecap="square" stroke-miterlimit="4" transform="translate(0.5 0.5)" d="M239 1679L243 1679"/>
		<path fill="none" stroke="black" stroke-width="1" stroke-linecap="square" stroke-miterlimit="4" transform="translate(0.5 0.5)" d="M239 1681L243 1681"/>
		<path fill="none" stroke="black" stroke-width="2" stroke-miterlimit="4" transform="translate(0.5 0.5)" d="M239 1693L243 1689"/>
		<path fill="none" stroke="black" stroke-width="1" stroke-linecap="square" stroke-miterlimit="4" transform="translate(0.5 0.5)" d="M240 1689L243 1689L243 1692"/>
		<rect fill="none" stroke="black" stroke-width="1" stroke-linecap="square" stroke-miterlimit="4" transform="translate(0.5 0.5)" x="237" y="1675" width="51" height="20"/>
		<rect x="283" y="1680" width="11" height="11"/>
		<rect fill="white" x="284" y="1681" width="9" height="9"/>
		<rect x="285" y="1685" width="7" height="1"/>
		<rect x="288" y="1682" width="1" height="7"/>
		<rect fill="silver" x="241" y="1754" width="52" height="21"/>
		<rect fill="white" x="237" y="1750" width="52" height="21"/>
		<rect fill="#FFFFC0" x="242" y="1777" width="119" height="36"/>
		<text fill="gray" font-size="9" font-family="Segoe UI" x="242, 246.78125, 248.96094, 256.71289, 262.00391, 264.18359, 268.89014, 271.35547, 279.76221, 284.61377, 290.18604, 292.65137, 298.03467, 303.12793, 308.41895, 312.77393, 315.23926, 321.04443, 326.1377, 331.23096, 336.50439, 339.5542, 344.1333, 347.18311, 349.36279, 354.63623, " y="1787, ">
				Simple W3C Ruby Annotation
		</text>
		<text fill="gray" font-size="9" font-family="Segoe UI" x="242, 245.59912, 248.06445, 251.8833, 256.58984, 261.29639, 263.76172, 268.85498, 271.90479, 274.95459, 280.24561, 282.19678, 285.70361, 289.21045, 295.71436, 302.21826, 308.72217, 310.67334, 317.17725, 322.02881, 323.97998, 329.25342, 332.38232, 337.68213, 341.18896, 345.9043, 351.2876, " y="1799, ">
				- see http://www.w3.org/TR/
		</text>
		<text fill="gray" font-size="9" font-family="Segoe UI" x="242, 245.12891, 250.22217, 255.51318, 259.86816, 263.375, 268.69238, 272.51123, 274.69092, 282.44287, 287.73389, 289.91357, 294.62012, 298.21924, 301.34814, 306.44141, 311.73242, 316.0874, " y="1811, ">
				ruby/#simple-ruby1
		</text>
		<rect fill="white" x="246" y="1752" width="31" height="16"/>
		<text font-size="12" font-weight="600" font-family="Segoe UI" x="246, 250.81055, 258.07031, 265.51172, " y="1765, ">
				ruby
		</text>
		<path fill="none" stroke="black" stroke-width="2" stroke-miterlimit="4" transform="translate(0.5 0.5)" d="M239 1768L243 1764"/>
		<path fill="none" stroke="black" stroke-width="1" stroke-linecap="square" stroke-miterlimit="4" transform="translate(0.5 0.5)" d="M240 1764L243 1764L243 1767"/>
		<rect fill="none" stroke="black" stroke-width="1" stroke-linecap="square" stroke-miterlimit="4" transform="translate(0.5 0.5)" x="237" y="1750" width="51" height="20"/>
		<rect x="283" y="1755" width="11" height="11"/>
		<rect fill="white" x="284" y="1756" width="9" height="9"/>
		<rect x="285" y="1760" width="7" height="1"/>
		<rect x="288" y="1757" width="1" height="7"/>
		<rect fill="silver" x="241" y="1829" width="54" height="21"/>
		<rect fill="white" x="237" y="1825" width="54" height="21"/>
		<rect fill="#FFFFC0" x="242" y="1852" width="108" height="24"/>
		<text fill="gray" font-size="9" font-family="Segoe UI" x="242, 247.80518, 252.89844, 255.36377, 257.54346, 262.63672, 264.81641, 266.99609, 272.08936, 276.7959, 279.26123, 287.01318, 291.59229, 294.72119, 299.19482, 304.28809, 309.5791, 312.04443, 315.09424, 319.67334, 324.97314, 327.43848, 330.48828, 335.76172, 338.22705, 343.51807, " y="1862, ">
				An inline markup tag to be
		</text>
		<text fill="gray" font-size="9" font-family="Segoe UI" x="242, 247.09326, 250.91211, 255.61865, 260.91846, 263.38379, 269.8877, 272.06738, 275.11719, 280.21045, 282.67578, 287.25488, 292.34814, 296.70312, 299.16846, 303.32568, 308.59912, 313.69238, 317.84961, 322.55615, 327.84717, " y="1874, ">
				used with any concept
		</text>
		<rect fill="white" x="246" y="1827" width="33" height="16"/>
		<text font-size="12" font-weight="600" font-family="Segoe UI" x="246, 249.41016, 256.66992, 260.08008, 263.49023, 270.75, " y="1840, ">
				inline
		</text>
		<path fill="none" stroke="black" stroke-width="1" stroke-linecap="square" stroke-miterlimit="4" transform="translate(0.5 0.5)" d="M239 1827L244 1827"/>
		<path fill="none" stroke="black" stroke-width="1" stroke-linecap="square" stroke-miterlimit="4" transform="translate(0.5 0.5)" d="M239 1829L243 1829"/>
		<path fill="none" stroke="black" stroke-width="1" stroke-linecap="square" stroke-miterlimit="4" transform="translate(0.5 0.5)" d="M239 1831L243 1831"/>
		<path fill="none" stroke="black" stroke-width="2" stroke-miterlimit="4" transform="translate(0.5 0.5)" d="M239 1843L243 1839"/>
		<path fill="none" stroke="black" stroke-width="1" stroke-linecap="square" stroke-miterlimit="4" transform="translate(0.5 0.5)" d="M240 1839L243 1839L243 1842"/>
		<rect fill="none" stroke="black" stroke-width="1" stroke-linecap="square" stroke-miterlimit="4" transform="translate(0.5 0.5)" x="237" y="1825" width="53" height="20"/>
		<rect x="285" y="1830" width="11" height="11"/>
		<rect fill="white" x="286" y="1831" width="9" height="9"/>
		<rect x="287" y="1835" width="7" height="1"/>
		<rect x="290" y="1832" width="1" height="7"/>
		<path fill="silver" d="M241 1897L246 1892L314 1892L319 1897L319 1908L314 1913L246 1913L241 1908L241 1897Z"/>
		<path fill="white" d="M237 1893L242 1888L310 1888L315 1893L315 1904L310 1909L242 1909L237 1904L237 1893Z"/>
		<rect fill="#FFFFC0" x="242" y="1915" width="120" height="36"/>
		<text fill="gray" font-size="9" font-family="Segoe UI" x="242, 246.55273, 250.68359, 253.7334, 258.43994, 263.5332, 267.35205, 269.53174, 274.80518, 279.89844, 282.36377, 287.65479, 292.92822, 295.10791, 300.20117, 303.25098, 305.71631, 308.5332, 313.80664, 316.93555, 319.40088, 324.69189, 327.8208, 333.09424, 337.40527, 339.58496, 344.88477, 349.59131, 352.72021, " y="1925, ">
				Extension point for provider-
		</text>
		<text fill="gray" font-size="9" font-family="Segoe UI" x="242, 247.2998, 252.00635, 254.82324, 257.00293, 262.09619, 266.80273, 272.10254, 274.56787, 279.85889, 282.98779, 288.26123, 293.55225, 298.25879, 301.3877, 304.4375, 306.61719, 311.32373, 315.14258, 317.60791, 320.4248, 323.55371, 328.82715, 336.5791, 339.04443, 344.31787, 347.36768, 352.46094, 357.16748, " y="1937, ">
				defined properties from other
		</text>
		<text fill="gray" font-size="9" font-family="Segoe UI" x="242, 247.09326, 251.67236, 259.42432, 264.13086, 267.94971, 273.24072, 277.81982, 281.97705, 286.68359, " y="1949, ">
				namespaces
		</text>
		<rect fill="white" x="264" y="1890" width="46" height="16"/>
		<text font-size="12" font-weight="600" font-family="Segoe UI" x="264, 271.10742, 278.21484, 285.55078, 290.2207, 297.44531, 303.9375, " y="1903, ">
				##other
		</text>
		<rect fill="white" x="242" y="1890" width="20" height="16"/>
		<text fill="gray" font-size="12" font-family="Segoe UI" x="242, 248.10547, 254.89648, " y="1903, ">
				any
		</text>
		<path fill="none" stroke="black" stroke-width="1" stroke-linecap="square" stroke-miterlimit="4" transform="translate(0.5 0.5)" d="M237 1893L242 1888L309 1888L314 1893L314 1903L309 1908L242 1908L237 1903L237 1893Z"/>
		<rect x="202" y="1755" width="11" height="11"/>
		<rect fill="white" x="203" y="1756" width="9" height="9"/>
		<rect x="204" y="1760" width="7" height="1"/>
		<path fill="white" d="M245 1994L245 1975L168 1975L168 1994L168 2134L340 2134L340 1994L245 1994Z"/>
		<rect fill="white" x="188" y="1977" width="51" height="16"/>
		<text font-size="12" font-style="italic" font-family="Segoe UI" x="188, 194.50391, 198.38281, 202.26172, 206.5332, 209.63867, 216.14258, 222.83984, 226.73047, 232.57227, " y="1990, ">
				attributes
		</text>
		<path fill="none" stroke="black" stroke-width="1" stroke-linecap="square" stroke-miterlimit="4" transform="translate(0.5 0.5)" d="M245 1994L245 1975L168 1975L168 1994L168 2134L340 2134L340 1994L245 1994Z"/>
		<path fill="white" d="M332 2022L332 2003L182 2003L182 2022L182 2101L332 2101L332 2022Z"/>
		<rect fill="white" x="187" y="2104" width="131" height="24"/>
		<text fill="gray" font-size="9" font-family="Segoe UI" x="187, 192.80518, 195.27051, 200.57031, 203.69922, 208.97266, 214.06592, 219.35693, 221.82227, 227.0957, 229.9126, 232.37793, 236.95703, 240.00684, 243.05664, 246.18555, 248.36523, 253.65625, 258.74951, 261.79932, 266.50586, 270.32471, 272.79004, 275.60693, 280.88037, 284.00928, 286.47461, 289.60352, 294.18262, 299.27588, 303.74951, 305.9292, 311.02246, " y="2114, ">
				A group of attributes for ranking
		</text>
		<text fill="gray" font-size="9" font-family="Segoe UI" x="187, 192.29102, 195.41992, 200.69336, 205.98438, 210.69092, 213.81982, 216.86963, 219.04932, 223.75586, 227.57471, 230.04004, 235.31348, 238.13037, 240.5957, 243.64551, 248.73877, 253.44531, 255.91064, 259.72949, 264.30859, 272.06055, 276.76709, 279.23242, 284.32568, 288.90479, 296.65674, " y="2126, ">
				properties of the same name
		</text>
		<rect fill="white" x="224" y="2005" width="102" height="16"/>
		<text font-size="12" font-weight="600" font-family="Segoe UI" x="224, 228.77539, 235.23242, 242.49219, 249.20117, 252.61133, 259.87109, 267.30078, 275.49805, 280.16797, 284.83789, 289.66016, 293.07031, 300.51172, 307.77148, 312.39453, 318.88672, " y="2018, ">
				rankingAttributes
		</text>
		<rect fill="white" x="202" y="2005" width="20" height="16"/>
		<text fill="gray" font-size="12" font-family="Segoe UI" x="202, 209.06641, 213.23828, " y="2018, ">
				grp
		</text>
		<path fill="none" stroke="gray" stroke-width="1" stroke-linecap="square" stroke-miterlimit="4" transform="translate(0.5 0.5)" d="M182 2022L182 2101L332 2101L332 2022L332 2022"/>
		<path fill="none" stroke="black" stroke-width="1" stroke-linecap="square" stroke-miterlimit="4" transform="translate(0.5 0.5)" d="M332 2022L332 2003L182 2003L182 2022"/>
		<rect x="187" y="2008" width="11" height="11"/>
		<rect fill="white" x="188" y="2009" width="9" height="9"/>
		<rect x="189" y="2013" width="7" height="1"/>
		<rect fill="silver" x="194" y="2036" width="52" height="21"/>
		<rect fill="white" x="190" y="2032" width="52" height="21"/>
		<rect fill="white" x="195" y="2059" width="117" height="36"/>
		<text fill="gray" font-size="9" font-family="Segoe UI" x="195, 197.39502, 202.48828, 207.78809, 209.96777, 214.125, 218.7041, 221.75391, 226.46045, 230.2793, 232.74463, 235.79443, 240.8877, 245.59424, 248.05957, 251.18848, 255.89502, 258.07471, 262.65381, 265.70361, 267.8833, 272.19434, " y="2069, ">
				Indicates the relative
		</text>
		<text fill="gray" font-size="9" font-family="Segoe UI" x="195, 197.17969, 204.93164, 210.22266, 215.49609, 218.625, 221.6748, 226.25391, 231.34717, 235.50439, 240.21094, 242.67627, 247.94971, 250.7666, 253.23193, 258.52295, 261.65186, 266.92529, 272.21631, 276.92285, 280.05176, 283.10156, 285.28125, 289.98779, 293.80664, 296.27197, 298.45166, 303.54492, 306.01025, " y="2081, ">
				importance of properties in a
		</text>
		<text fill="gray" font-size="9" font-family="Segoe UI" x="195, 197.17969, 199.35938, 203.17822, 206.22803, " y="2093, ">
				list.
		</text>
		<rect fill="white" x="199" y="2034" width="36" height="16"/>
		<text font-size="12" font-weight="600" font-family="Segoe UI" x="199, 203.77539, 210.23242, 217.49219, " y="2047, ">
				rank
		</text>
		<rect fill="none" stroke="black" stroke-width="1" stroke-linecap="square" stroke-miterlimit="4" transform="translate(0.5 0.5)" x="190" y="2032" width="51" height="20"/>
		<rect x="173" y="1980" width="11" height="11"/>
		<rect fill="white" x="174" y="1981" width="9" height="9"/>
		<rect x="175" y="1985" width="7" height="1"/>
		<rect x="46" y="1284" width="11" height="11"/>
		<rect fill="white" x="47" y="1285" width="9" height="9"/>
		<rect x="48" y="1289" width="7" height="1"/>
	</g>
</svg>
