<?xml version="1.0" encoding="utf-8" ?>
<svg xmlns="http://www.w3.org/2000/svg" xmlns:xlink="http://www.w3.org/1999/xlink" width="358" height="1250">
	<clipPath id="cl_537">
		<rect x="-10" y="-5" width="358" height="1250"/>
	</clipPath>
	<g clip-path="url(#cl_537)">
		<path fill="none" stroke="black" stroke-width="1" stroke-linecap="square" stroke-miterlimit="4" transform="translate(0.5 0.5)" d="M84 620L123 620"/>
		<path fill="silver" d="M4 619L9 614L84 614L84 636L9 636L4 631L4 619Z"/>
		<path fill="white" d="M0 615L5 610L80 610L80 632L5 632L0 627L0 615Z"/>
		<rect fill="white" x="5" y="637" width="104" height="36"/>
		<text fill="gray" font-size="9" font-family="Segoe UI" x="5, 9.715332, 14.808594, 19.515137, 21.980469, 25.030273, 29.385254, 34.67627, 39.382812, 41.848145, 47.121582, 49.938477, 52.403809, 56.98291, 59.448242, 63.26709, 66.316895, 69.445801, 71.625488, 76.71875, 82.018555, 84.483887, 88.794922, 93.374023, 95.553711, 100.64697, 105.35352, " y="647, ">
				The type of a string value.
		</text>
		<text fill="gray" font-size="9" font-family="Segoe UI" x="5, 9.21875, 13.57373, 18.864746, 23.571289, 26.036621, 31.336426, 36.042969, 38.859863, 41.039551, 46.132812, 50.839355, 56.13916, 58.604492, 60.78418, 65.877441, 68.342773, 71.392578, 76.48584, 78.665527, 82.484375, 84.949707, 90.258301, 98.339844, " y="659, ">
				Type defined in this XML
		</text>
		<text fill="gray" font-size="9" font-family="Segoe UI" x="5, 9.78125, 13.938477, 19.031738, 23.738281, 31.490234, 36.069336, 38.534668, 43.808105, 48.901367, 51.081055, " y="671, ">
				Schema only
		</text>
		<rect fill="white" x="5" y="612" width="62" height="16"/>
		<text font-size="12" font-weight="600" font-family="Segoe UI" x="5, 11.427734, 16.097656, 20.919922, 24.330078, 31.589844, 39.019531, 45.511719, 51.96875, 59.410156, " y="625, ">
				StringType
		</text>
		<path fill="none" stroke="black" stroke-width="1" stroke-linecap="square" stroke-miterlimit="4" transform="translate(0.5 0.5)" d="M0 615L5 610L79 610L79 631L5 631L0 626L0 615Z"/>
		<path fill="white" d="M201 19L201 0L124 0L124 19L124 1239L337 1239L337 19L201 19Z"/>
		<rect fill="white" x="144" y="2" width="51" height="16"/>
		<text font-size="12" font-style="italic" font-family="Segoe UI" x="144, 150.50391, 154.38281, 158.26172, 162.5332, 165.63867, 172.14258, 178.83984, 182.73047, 188.57227, " y="15, ">
				attributes
		</text>
		<path fill="none" stroke="black" stroke-width="1" stroke-linecap="square" stroke-miterlimit="4" transform="translate(0.5 0.5)" d="M201 19L201 0L124 0L124 19L124 1239L337 1239L337 19L201 19Z"/>
		<path fill="white" d="M329 47L329 28L138 28L138 47L138 1150L329 1150L329 47Z"/>
		<rect fill="white" x="143" y="1153" width="179" height="48"/>
		<text fill="gray" font-size="9" font-family="Segoe UI" x="143, 148.80518, 151.27051, 156.57031, 159.69922, 164.97266, 170.06592, 175.35693, 177.82227, 183.0957, 185.9126, 188.37793, 192.95703, 196.00684, 199.05664, 202.18555, 204.36523, 209.65625, 214.74951, 217.79932, 222.50586, 226.32471, 228.79004, 231.60693, 236.88037, 240.00928, 242.47461, 247.05371, 249.2334, 251.41309, 253.87842, 258.58496, 260.76465, 265.47119, 273.22314, 277.92969, 283.02295, 286.07275, 289.8916, 292.35693, 297.63037, 300.44727, 302.9126, 307.4917, 309.95703, 316.13135, " y="1163, ">
				A group of attributes for all elements of a G2
		</text>
		<text fill="gray" font-size="9" font-family="Segoe UI" x="143, 145.39502, 148.44482, 153.15137, 160.90332, 163.36865, 168.0752, 172.20605, 176.36328, 181.06982, 186.36084, 189.41064, 191.87598, 194.05566, 197.10547, 200.92432, 203.38965, 206.51855, 211.79199, 217.06543, 220.11523, 222.58057, 227.28711, 229.4668, 234.17334, 241.92529, 246.63184, 251.7251, 254.7749, 256.72607, 259.19141, 262.24121, 267.33447, 272.04102, 274.50635, 276.68604, 279.73584, 284.44238, 292.19434, 300.27588, 304.98242, 308.03223, " y="1175, ">
				Item except its root element, the itemMeta
		</text>
		<text fill="gray" font-size="9" font-family="Segoe UI" x="143, 147.70654, 149.88623, 154.59277, 162.34473, 167.05127, 172.14453, 175.19434, 177.65967, 182.23877, 187.33203, 192.63184, 195.09717, 199.67627, 201.85596, 204.03564, 206.50098, 211.77441, 214.59131, 217.05664, 219.23633, 222.28613, 226.10498, 228.57031, 232.72754, 237.8208, 240.00049, 242.18018, 247.47998, 250.60889, 255.31543, 260.40869, 262.87402, 269.37793, 274.47119, 276.65088, 280.80811, 285.90137, 288.3667, 292.9458, 296.07471, " y="1187, ">
				element and all of its children which are
		</text>
		<text fill="gray" font-size="9" font-family="Segoe UI" x="143, 150.75195, 155.33105, 160.42432, 165.72412, 170.30322, 173.35303, 178.62646, 181.75537, 186.11035, " y="1199, ">
				mandatory.
		</text>
		<rect fill="white" x="180" y="30" width="143" height="16"/>
		<text font-size="12" font-weight="600" font-family="Segoe UI" x="180, 185.75977, 193.0957, 204.08789, 215.08008, 222.41602, 229.67578, 236.68945, 244.02539, 253.53516, 260.02734, 264.80273, 273, 277.66992, 282.33984, 287.16211, 290.57227, 298.01367, 305.27344, 309.89648, 316.38867, " y="43, ">
				commonPowerAttributes
		</text>
		<rect fill="white" x="158" y="30" width="20" height="16"/>
		<text fill="gray" font-size="12" font-family="Segoe UI" x="158, 165.06641, 169.23828, " y="43, ">
				grp
		</text>
		<path fill="none" stroke="gray" stroke-width="1" stroke-linecap="square" stroke-miterlimit="4" transform="translate(0.5 0.5)" d="M138 47L138 1150L329 1150L329 47L329 47"/>
		<path fill="none" stroke="black" stroke-width="1" stroke-linecap="square" stroke-miterlimit="4" transform="translate(0.5 0.5)" d="M329 47L329 28L138 28L138 47"/>
		<rect x="143" y="33" width="11" height="11"/>
		<rect fill="white" x="144" y="34" width="9" height="9"/>
		<rect x="145" y="38" width="7" height="1"/>
		<rect fill="silver" x="150" y="61" width="52" height="21"/>
		<rect fill="white" x="146" y="57" width="52" height="21"/>
		<rect fill="white" x="151" y="84" width="101" height="24"/>
		<text fill="gray" font-size="9" font-family="Segoe UI" x="151, 155.71533, 160.80859, 165.51514, 167.98047, 170.16016, 175.43359, 179.59082, 184.16992, 186.34961, 188.81494, 190.99463, 196.29443, 201.00098, 206.09424, 209.14404, 211.32373, 214.14062, 216.32031, 221.02686, 224.15576, 226.62109, 231.89453, 234.71143, 237.17676, 240.22656, 245.31982, " y="94, ">
				The local identifier of the
		</text>
		<text fill="gray" font-size="9" font-family="Segoe UI" x="151, 156.29102, 159.41992, 164.69336, 169.98438, 174.69092, 177.81982, 180.86963, 185.22461, " y="106, ">
				property.
		</text>
		<rect fill="white" x="155" y="59" width="36" height="16"/>
		<text font-size="12" font-weight="600" font-family="Segoe UI" x="155, 158.41016, " y="72, ">
				id
		</text>
		<rect fill="none" stroke="black" stroke-width="1" stroke-linecap="square" stroke-miterlimit="4" transform="translate(0.5 0.5)" x="146" y="57" width="51" height="20"/>
		<rect fill="silver" x="150" y="119" width="58" height="21"/>
		<rect fill="white" x="146" y="115" width="58" height="21"/>
		<rect fill="white" x="151" y="142" width="121" height="120"/>
		<text fill="gray" font-size="9" font-family="Segoe UI" x="151, 153.39502, 156.21191, 158.67725, 161.72705, 166.82031, 171.52686, 173.99219, 179.2832, 182.41211, 187.68555, 192.97656, 197.68311, 200.81201, 203.86182, 208.2168, 210.68213, 214.99316, 219.57227, 221.75195, 226.84521, 231.55176, 234.01709, 236.19678, 240.01562, 242.48096, 247.57422, 252.84766, " y="152, ">
				If the property value is not
		</text>
		<text fill="gray" font-size="9" font-family="Segoe UI" x="151, 156.2998, 161.00635, 163.82324, 166.00293, 171.09619, 175.80273, 181.10254, 183.05371, 185.51904, 189.33789, 194.62891, 199.33545, 203.49268, 205.67236, 208.48926, 210.66895, 215.37549, 219.19434, 221.65967, 228.16357, 233.25684, 235.43652, 239.59375, 244.68701, 247.15234, 251.85889, 256.95215, 260.00195, 262.18164, 265.23145, " y="164, ">
				defined, specifies which entity
		</text>
		<text fill="gray" font-size="9" font-family="Segoe UI" x="151, 153.71582, 159.00684, 163.71338, 166.84229, 170.66113, 175.93457, 181.02783, 182.979, 185.44434, 190.71777, 193.84668, 199.14648, 203.72559, 208.81885, 210.99854, 214.81738, 219.39648, 222.44629, 224.62598, 229.89941, 234.99268, 237.45801, 242.73145, " y="176, ">
				(person, organisation or
		</text>
		<text fill="gray" font-size="9" font-family="Segoe UI" x="151, 154.81885, 159.17383, 162.99268, 166.04248, 170.74902, 178.50098, 181.2168, 183.68213, 190.18604, 192.36572, 194.54541, 196.7251, 199.19043, 203.89697, 209.19678, 211.37646, 214.42627, 216.8916, 219.94141, 225.03467, 229.74121, 232.20654, 237.49756, 240.62646, 245.8999, 251.19092, 255.89746, 259.02637, 262.07617, " y="188, ">
				system) will edit the property
		</text>
		<text fill="gray" font-size="9" font-family="Segoe UI" x="151, 155.31104, 159.89014, 162.06982, 167.16309, 171.86963, 174.33496, 177.93408, 180.39941, 185.10596, 189.23682, 194.52783, 197.65674, 202.36328, 206.18213, 210.00098, 214.70752, 220.00732, 222.47266, 227.76367, 232.11865, 234.58398, 239.16309, 241.62842, 248.41357, 253.98584, 259.25928, 264.55908, 269.26562, " y="200, ">
				value - expressed by a QCode.
		</text>
		<text fill="gray" font-size="9" font-family="Segoe UI" x="151, 153.39502, 156.21191, 158.67725, 161.72705, 166.82031, 171.52686, 173.99219, 179.2832, 182.41211, 187.68555, 192.97656, 197.68311, 200.81201, 203.86182, 208.2168, 210.68213, 214.99316, 219.57227, 221.75195, 226.84521, 231.55176, 234.01709, 236.19678, " y="212, ">
				If the property value is
		</text>
		<text fill="gray" font-size="9" font-family="Segoe UI" x="151, 156.2998, 161.00635, 163.82324, 166.00293, 171.09619, 175.80273, 181.10254, 183.05371, 185.51904, 189.33789, 194.62891, 199.33545, 203.49268, 205.67236, 208.48926, 210.66895, 215.37549, 219.19434, 221.65967, 228.16357, 233.25684, 235.43652, 239.59375, 244.68701, 247.15234, 251.85889, 256.95215, 260.00195, 262.18164, 265.23145, " y="224, ">
				defined, specifies which entity
		</text>
		<text fill="gray" font-size="9" font-family="Segoe UI" x="151, 153.71582, 159.00684, 163.71338, 166.84229, 170.66113, 175.93457, 181.02783, 182.979, 185.44434, 190.71777, 193.84668, 199.14648, 203.72559, 208.81885, 210.99854, 214.81738, 219.39648, 222.44629, 224.62598, 229.89941, 234.99268, 237.45801, 242.73145, " y="236, ">
				(person, organisation or
		</text>
		<text fill="gray" font-size="9" font-family="Segoe UI" x="151, 154.81885, 159.17383, 162.99268, 166.04248, 170.74902, 178.50098, 181.2168, 183.68213, 188.77539, 193.35449, 197.17334, 199.63867, 204.34521, 209.64502, 211.82471, 214.87451, 219.58105, 224.88086, 227.34619, 230.396, 235.48926, " y="248, ">
				system) has edited the
		</text>
		<text fill="gray" font-size="9" font-family="Segoe UI" x="151, 156.29102, 159.41992, 164.69336, 169.98438, 174.69092, 177.81982, 180.86963, 185.22461, 187.68994, 192.00098, 196.58008, 198.75977, 203.85303, 208.55957, " y="260, ">
				property value.
		</text>
		<rect fill="white" x="155" y="117" width="42" height="16"/>
		<text font-size="12" font-weight="600" font-family="Segoe UI" x="155, 160.75977, 165.48828, 171.98047, 178.4375, 183.06055, 190.39648, " y="130, ">
				creator
		</text>
		<rect fill="none" stroke="black" stroke-width="1" stroke-linecap="square" stroke-miterlimit="4" transform="translate(0.5 0.5)" x="146" y="115" width="57" height="20"/>
		<rect fill="silver" x="150" y="273" width="73" height="21"/>
		<rect fill="white" x="146" y="269" width="73" height="21"/>
		<rect fill="white" x="151" y="296" width="120" height="108"/>
		<text fill="gray" font-size="9" font-family="Segoe UI" x="151, 153.39502, 156.21191, 158.67725, 161.72705, 166.82031, 171.52686, 173.99219, 179.2832, 182.41211, 187.68555, 192.97656, 197.68311, 200.81201, 203.86182, 208.2168, 210.68213, 214.99316, 219.57227, 221.75195, 226.84521, 231.55176, 234.01709, 236.19678, 240.01562, 242.48096, 247.57422, 252.84766, " y="306, ">
				If the property value is not
		</text>
		<text fill="gray" font-size="9" font-family="Segoe UI" x="151, 156.2998, 161.00635, 163.82324, 166.00293, 171.09619, 175.80273, 181.10254, 183.05371, 185.51904, 189.33789, 194.62891, 199.33545, 203.49268, 205.67236, 208.48926, 210.66895, 215.37549, 219.19434, 221.65967, 228.16357, 233.25684, 235.43652, 239.59375, 244.68701, 247.15234, 251.85889, 256.95215, 260.00195, 262.18164, 265.23145, " y="318, ">
				defined, specifies which entity
		</text>
		<text fill="gray" font-size="9" font-family="Segoe UI" x="151, 153.71582, 159.00684, 163.71338, 166.84229, 170.66113, 175.93457, 181.02783, 182.979, 185.44434, 190.71777, 193.84668, 199.14648, 203.72559, 208.81885, 210.99854, 214.81738, 219.39648, 222.44629, 224.62598, 229.89941, 234.99268, 237.45801, 242.73145, " y="330, ">
				(person, organisation or
		</text>
		<text fill="gray" font-size="9" font-family="Segoe UI" x="151, 154.81885, 159.17383, 162.99268, 166.04248, 170.74902, 178.50098, 181.2168, 183.68213, 190.18604, 192.36572, 194.54541, 196.7251, 199.19043, 203.89697, 209.19678, 211.37646, 214.42627, 216.8916, 219.94141, 225.03467, 229.74121, 232.20654, 237.49756, 240.62646, 245.8999, 251.19092, 255.89746, 259.02637, 262.07617, " y="342, ">
				system) will edit the property
		</text>
		<text fill="gray" font-size="9" font-family="Segoe UI" x="151, 154.59912, 157.06445, 161.771, 165.90186, 171.19287, 174.32178, 179.02832, 182.84717, 186.66602, 191.37256, 196.67236, 199.1377, 204.42871, 208.78369, 211.24902, 215.82812, 218.29346, 224.47656, 229.85986, 232.25488, 234.20605, 236.67139, 239.06641, 241.8833, 244.34863, 247.39844, 252.4917, " y="354, ">
				- expressed by a URI. If the
		</text>
		<text fill="gray" font-size="9" font-family="Segoe UI" x="151, 156.29102, 159.41992, 164.69336, 169.98438, 174.69092, 177.81982, 180.86963, 185.22461, 187.68994, 192.00098, 196.58008, 198.75977, 203.85303, 208.55957, 211.0249, 213.20459, 217.02344, 219.48877, 224.78857, 229.49512, 232.31201, 234.4917, 239.58496, 244.2915, 249.59131, " y="366, ">
				property value is defined,
		</text>
		<text fill="gray" font-size="9" font-family="Segoe UI" x="151, 154.81885, 160.10986, 164.81641, 168.97363, 171.15332, 173.97021, 176.1499, 180.85645, 184.67529, 187.14062, 193.64453, 198.73779, 200.91748, 205.07471, 210.16797, 212.6333, 217.33984, 222.43311, 225.48291, 227.6626, 230.7124, 235.06738, 237.53271, 240.24854, 245.53955, 250.24609, 253.375, 257.19385, 262.46729, 267.56055, " y="378, ">
				specifies which entity (person,
		</text>
		<text fill="gray" font-size="9" font-family="Segoe UI" x="151, 156.27344, 159.40234, 164.70215, 169.28125, 174.37451, 176.5542, 180.37305, 184.95215, 188.00195, 190.18164, 195.45508, 200.54834, 203.01367, 208.28711, 211.41602, 213.88135, 217.7002, 222.05518, 225.87402, 228.92383, 233.63037, 241.38232, 244.09814, 246.56348, 251.65674, 256.23584, " y="390, ">
				organisation or system) has
		</text>
		<text fill="gray" font-size="9" font-family="Segoe UI" x="151, 155.70654, 161.00635, 163.18604, 166.23584, 170.94238, 176.24219, 178.70752, 181.75732, 186.85059, 191.55713, 194.02246, 199.31348, 202.44238, 207.71582, 213.00684, 217.71338, 220.84229, 223.89209, 228.24707, " y="402, ">
				edited the property.
		</text>
		<rect fill="white" x="155" y="271" width="57" height="16"/>
		<text font-size="12" font-weight="600" font-family="Segoe UI" x="155, 160.75977, 165.48828, 171.98047, 178.4375, 183.06055, 190.39648, 195.20703, 202.4668, 207.28906, " y="284, ">
				creatoruri
		</text>
		<rect fill="none" stroke="black" stroke-width="1" stroke-linecap="square" stroke-miterlimit="4" transform="translate(0.5 0.5)" x="146" y="269" width="72" height="20"/>
		<rect fill="silver" x="150" y="415" width="69" height="21"/>
		<rect fill="white" x="146" y="411" width="69" height="21"/>
		<rect fill="white" x="151" y="438" width="119" height="72"/>
		<text fill="gray" font-size="9" font-family="Segoe UI" x="151, 155.71533, 160.80859, 165.51514, 167.98047, 173.28027, 177.85938, 180.90918, 185.61572, 188.08105, 190.79688, 195.37598, 200.46924, 205.76904, 207.72021, 210.18555, 215.45898, 220.75, 223.7998, 225.97949, 231.25293, 236.34619, 240.92529, 243.10498, 245.28467, 249.63965, 251.59082, 254.05615, 257.10596, 262.19922, " y="448, ">
				The date (and, optionally, the
		</text>
		<text fill="gray" font-size="9" font-family="Segoe UI" x="151, 154.0498, 156.22949, 163.98145, 168.68799, 171.40381, 173.86914, 180.37305, 185.46631, 190.17285, 195.26611, 197.73145, 200.78125, 205.87451, 210.58105, 213.04639, 218.3374, 221.46631, 226.73975, 232.03076, 236.7373, 239.86621, 242.91602, 247.271, 249.73633, 256.24023, 260.81934, " y="460, ">
				time) when the property was
		</text>
		<text fill="gray" font-size="9" font-family="Segoe UI" x="151, 153.17969, 157.75879, 161.57764, 164.62744, 167.09277, 174.84473, 180.11816, 185.41797, 187.59766, 190.41455, 192.59424, 197.30078, 202.60059, 204.55176, 207.01709, 211.73242, 216.82568, 221.53223, 223.99756, 226.17725, 231.27051, 233.4502, 236.5, 238.67969, 243.25879, 245.43848, 247.90381, 252.21484, 256.79395, 258.97363, 264.06689, " y="472, ">
				last modified. The initial value
		</text>
		<text fill="gray" font-size="9" font-family="Segoe UI" x="151, 153.17969, 156.99854, 159.46387, 162.51367, 167.60693, 172.31348, 174.77881, 180.07861, 184.65771, 187.70752, 192.41406, 194.87939, 197.59521, 202.17432, 207.26758, 212.56738, 214.51855, 216.98389, 222.25732, 227.54834, 230.59814, 232.77783, 238.05127, 243.14453, 247.72363, 249.90332, 252.08301, 256.43799, " y="484, ">
				is the date (and, optionally,
		</text>
		<text fill="gray" font-size="9" font-family="Segoe UI" x="151, 154.0498, 159.14307, 163.84961, 166.31494, 169.36475, 171.54443, 179.29639, 184.00293, 186.71875, 189.18408, 194.45752, 197.27441, 199.73975, 203.89697, 207.02588, 211.73242, 216.31152, 219.36133, 221.54102, 226.81445, 231.90771, 234.37305, 239.64648, 242.46338, 244.92871, 247.97852, 253.07178, " y="496, ">
				the time) of creation of the
		</text>
		<text fill="gray" font-size="9" font-family="Segoe UI" x="151, 156.29102, 159.41992, 164.69336, 169.98438, 174.69092, 177.81982, 180.86963, 185.22461, " y="508, ">
				property.
		</text>
		<rect fill="white" x="155" y="413" width="53" height="16"/>
		<text font-size="12" font-weight="600" font-family="Segoe UI" x="155, 165.99219, 173.32812, 180.75781, 184.16797, 188.76758, 192.17773, 198.66992, " y="426, ">
				modified
		</text>
		<rect fill="none" stroke="black" stroke-width="1" stroke-linecap="square" stroke-miterlimit="4" transform="translate(0.5 0.5)" x="146" y="411" width="68" height="20"/>
		<rect fill="silver" x="150" y="521" width="59" height="21"/>
		<rect fill="white" x="146" y="517" width="59" height="21"/>
		<rect fill="white" x="151" y="544" width="118" height="108"/>
		<text fill="gray" font-size="9" font-family="Segoe UI" x="151, 153.39502, 156.21191, 158.67725, 162.49609, 167.20264, 170.25244, 172.71777, 175.76758, 181.04102, 183.50635, 186.55615, 189.68506, 194.77832, 199.48486, 201.9502, 205, 210.09326, " y="554, ">
				If set to true the
		</text>
		<text fill="gray" font-size="9" font-family="Segoe UI" x="151, 155.15723, 160.43066, 163.55957, 166.68848, 171.39502, 175.21387, 180.50488, 185.77832, 190.87158, 196.17139, 198.35107, 203.44434, 208.74414, 211.20947, 216.50049, 219.62939, 224.90283, 230.19385, 234.90039, 238.0293, 241.0791, 245.43408, 247.89941, 254.40332, 258.98242, " y="566, ">
				corresponding property was
		</text>
		<text fill="gray" font-size="9" font-family="Segoe UI" x="151, 155.5791, 160.87891, 166.17871, 170.88525, 176.18506, 178.65039, 181.7002, 186.97363, 189.43896, 192.48877, 197.58203, 202.28857, 204.75391, 210.92822, 215.77979, 218.24512, 220.64014, 223.68994, 228.39648, 236.14844, 238.61377, 241.43066, 246.7041, 249.83301, 252.29834, " y="578, ">
				added to the G2 Item for a
		</text>
		<text fill="gray" font-size="9" font-family="Segoe UI" x="151, 154.81885, 160.10986, 164.81641, 168.97363, 171.15332, 173.97021, 176.1499, 180.30713, 182.77246, 186.92969, 192.02295, 195.8418, 198.8916, 204.16504, 211.91699, 216.62354, 219.75244, 222.21777, 227.49121, 230.62012, 233.08545, 238.38525, 241.51416, 246.7876, 251.88086, 257.17188, 259.63721, 264.91064, " y="590, ">
				specific customer or group of
		</text>
		<text fill="gray" font-size="9" font-family="Segoe UI" x="151, 155.15723, 160.25049, 164.06934, 167.11914, 172.39258, 180.14453, 184.85107, 187.97998, 191.79883, 194.26416, 199.5376, 204.63086, 206.81055, 211.16553, 213.1167, 215.58203, 220.29736, 225.39062, 230.09717, 232.5625, 237.8623, 242.56885, 245.38574, 249.96484, 255.05811, 257.23779, " y="602, ">
				customers only. The default
		</text>
		<text fill="gray" font-size="9" font-family="Segoe UI" x="151, 155.31104, 159.89014, 162.06982, 167.16309, 171.86963, 174.33496, 179.6084, 182.42529, 184.89062, 187.94043, 193.03369, 195.21338, 199.03223, 201.49756, 206.78857, 209.91748, 215.19092, 220.48193, 225.18848, 228.31738, 231.36719, 235.72217, 238.1875, 240.36719, 244.18604, 246.65137, 249.46826, 254.04736, 256.22705, 260.0459, " y="614, ">
				value of this property is false
		</text>
		<text fill="gray" font-size="9" font-family="Segoe UI" x="151, 157.50391, 162.59717, 164.77686, 168.93408, 174.02734, 176.49268, 181.07178, 186.36279, 191.65381, 193.8335, 196.01318, 200.71973, 204.53857, 207.00391, 213.50781, 218.60107, 223.30762, 228.40088, 230.86621, 233.91602, 239.00928, 241.18896, " y="626, ">
				which applies when this
		</text>
		<text fill="gray" font-size="9" font-family="Segoe UI" x="151, 155.5791, 158.62891, 161.67871, 164.80762, 166.9873, 172.27832, 177.37158, 180.42139, 185.12793, 187.59326, 189.77295, 193.5918, 196.05713, 201.15039, 206.42383, 209.47363, 211.93896, 217.03223, 220.85107, 225.55762, 230.85742, 233.32275, 239.82666, 242.00635, 245.05615, 250.14941, 252.61475, 255.66455, 260.75781, " y="638, ">
				attribute is not used with the
		</text>
		<text fill="gray" font-size="9" font-family="Segoe UI" x="151, 156.29102, 159.41992, 164.69336, 169.98438, 174.69092, 177.81982, 180.86963, 185.22461, " y="650, ">
				property.
		</text>
		<rect fill="white" x="155" y="519" width="43" height="16"/>
		<text font-size="12" font-weight="600" font-family="Segoe UI" x="155, 160.75977, 168.01953, 173.29883, 177.92188, 185.25781, " y="532, ">
				custom
		</text>
		<rect fill="none" stroke="black" stroke-width="1" stroke-linecap="square" stroke-miterlimit="4" transform="translate(0.5 0.5)" x="146" y="517" width="58" height="20"/>
		<rect fill="silver" x="150" y="663" width="52" height="21"/>
		<rect fill="white" x="146" y="659" width="52" height="21"/>
		<rect fill="white" x="151" y="686" width="118" height="48"/>
		<text fill="gray" font-size="9" font-family="Segoe UI" x="151, 153.39502, 158.48828, 163.78809, 165.96777, 170.125, 174.7041, 177.75391, 182.46045, 186.2793, 188.74463, 194.03564, 198.39062, 200.85596, 207.35986, 212.45312, 214.63281, 218.79004, 223.8833, 226.34863, 234.10059, 238.80713, 243.38623, 248.47949, 252.29834, 254.76367, 257.81348, 262.90674, " y="696, ">
				Indicates by which means the
		</text>
		<text fill="gray" font-size="9" font-family="Segoe UI" x="151, 155.31104, 159.89014, 162.06982, 167.16309, 171.86963, 174.33496, 180.83887, 185.41797, 189.23682, 191.70215, 196.40869, 200.53955, 203.58936, 206.71826, 211.29736, 215.45459, 218.50439, 223.21094, 228.51074, 230.97607, 233.79297, 236.92188, 242.19531, 249.94727, 252.4126, 255.4624, 260.55566, " y="708, ">
				value was extracted from the
		</text>
		<text fill="gray" font-size="9" font-family="Segoe UI" x="151, 155.15723, 160.43066, 165.52393, 168.57373, 173.28027, 178.37354, 181.42334, 183.88867, 187.48779, 189.95312, 194.65967, 198.79053, 204.08154, 207.21045, 211.91699, 215.73584, 219.55469, 224.26123, 229.56104, 232.02637, 237.31738, 241.67236, 244.1377, " y="720, ">
				content - expressed by a
		</text>
		<text fill="gray" font-size="9" font-family="Segoe UI" x="151, 157.78516, 163.35742, 168.63086, 173.93066, " y="732, ">
				QCode
		</text>
		<rect fill="white" x="155" y="661" width="36" height="16"/>
		<text font-size="12" font-weight="600" font-family="Segoe UI" x="155, 162.22461, 169.56055, " y="674, ">
				how
		</text>
		<rect fill="none" stroke="black" stroke-width="1" stroke-linecap="square" stroke-miterlimit="4" transform="translate(0.5 0.5)" x="146" y="659" width="51" height="20"/>
		<rect fill="silver" x="150" y="745" width="57" height="21"/>
		<rect fill="white" x="146" y="741" width="57" height="21"/>
		<rect fill="white" x="151" y="768" width="118" height="36"/>
		<text fill="gray" font-size="9" font-family="Segoe UI" x="151, 153.39502, 158.48828, 163.78809, 165.96777, 170.125, 174.7041, 177.75391, 182.46045, 186.2793, 188.74463, 194.03564, 198.39062, 200.85596, 207.35986, 212.45312, 214.63281, 218.79004, 223.8833, 226.34863, 234.10059, 238.80713, 243.38623, 248.47949, 252.29834, 254.76367, 257.81348, 262.90674, " y="778, ">
				Indicates by which means the
		</text>
		<text fill="gray" font-size="9" font-family="Segoe UI" x="151, 155.31104, 159.89014, 162.06982, 167.16309, 171.86963, 174.33496, 180.83887, 185.41797, 189.23682, 191.70215, 196.40869, 200.53955, 203.58936, 206.71826, 211.29736, 215.45459, 218.50439, 223.21094, 228.51074, 230.97607, 233.79297, 236.92188, 242.19531, 249.94727, 252.4126, 255.4624, 260.55566, " y="790, ">
				value was extracted from the
		</text>
		<text fill="gray" font-size="9" font-family="Segoe UI" x="151, 155.15723, 160.43066, 165.52393, 168.57373, 173.28027, 178.37354, 181.42334, 183.88867, 187.48779, 189.95312, 194.65967, 198.79053, 204.08154, 207.21045, 211.91699, 215.73584, 219.55469, 224.26123, 229.56104, 232.02637, 237.31738, 241.67236, 244.1377, 248.7168, 251.18213, 257.36523, 262.74854, " y="802, ">
				content - expressed by a URI
		</text>
		<rect fill="white" x="155" y="743" width="41" height="16"/>
		<text font-size="12" font-weight="600" font-family="Segoe UI" x="155, 162.22461, 169.56055, 179.12891, 186.38867, 191.21094, " y="756, ">
				howuri
		</text>
		<rect fill="none" stroke="black" stroke-width="1" stroke-linecap="square" stroke-miterlimit="4" transform="translate(0.5 0.5)" x="146" y="741" width="56" height="20"/>
		<rect fill="silver" x="150" y="815" width="52" height="21"/>
		<rect fill="white" x="146" y="811" width="52" height="21"/>
		<rect fill="white" x="151" y="838" width="113" height="36"/>
		<text fill="gray" font-size="9" font-family="Segoe UI" x="151, 159.40674, 164.5, 168.85498, 171.32031, 174.37012, 179.46338, 184.16992, 186.63525, 194.38721, 199.09375, 202.14355, 206.72266, 212.02246, 216.60156, 219.65137, 224.23047, 226.6958, 231.78906, 236.36816, 240.18701, 242.65234, 247.94336, 252.6499, 257.35645, " y="848, ">
				Why the metadata has been
		</text>
		<text fill="gray" font-size="9" font-family="Segoe UI" x="151, 153.17969, 158.27295, 162.43018, 164.60986, 169.70312, 175.00293, 179.70947, 185.00928, 187.47461, 191.07373, 193.53906, 198.24561, 202.37646, 207.66748, 210.79639, 215.50293, 219.32178, 223.14062, 227.84717, 233.14697, 235.6123, 240.90332, 245.2583, 247.72363, " y="860, ">
				included - expressed by a
		</text>
		<text fill="gray" font-size="9" font-family="Segoe UI" x="151, 157.78516, 163.35742, 168.63086, 173.93066, " y="872, ">
				QCode
		</text>
		<rect fill="white" x="155" y="813" width="36" height="16"/>
		<text font-size="12" font-weight="600" font-family="Segoe UI" x="155, 164.56836, 171.79297, " y="826, ">
				why
		</text>
		<rect fill="none" stroke="black" stroke-width="1" stroke-linecap="square" stroke-miterlimit="4" transform="translate(0.5 0.5)" x="146" y="811" width="51" height="20"/>
		<rect fill="silver" x="150" y="885" width="56" height="21"/>
		<rect fill="white" x="146" y="881" width="56" height="21"/>
		<rect fill="white" x="151" y="908" width="119" height="24"/>
		<text fill="gray" font-size="9" font-family="Segoe UI" x="151, 159.40674, 164.5, 168.85498, 171.32031, 174.37012, 179.46338, 184.16992, 186.63525, 194.38721, 199.09375, 202.14355, 206.72266, 212.02246, 216.60156, 219.65137, 224.23047, 226.6958, 231.78906, 236.36816, 240.18701, 242.65234, 247.94336, 252.6499, 257.35645, " y="918, ">
				Why the metadata has been
		</text>
		<text fill="gray" font-size="9" font-family="Segoe UI" x="151, 153.17969, 158.27295, 162.43018, 164.60986, 169.70312, 175.00293, 179.70947, 185.00928, 187.47461, 191.07373, 193.53906, 198.24561, 202.37646, 207.66748, 210.79639, 215.50293, 219.32178, 223.14062, 227.84717, 233.14697, 235.6123, 240.90332, 245.2583, 247.72363, 252.30273, 254.76807, 260.95117, 266.33447, " y="930, ">
				included - expressed by a URI
		</text>
		<rect fill="white" x="155" y="883" width="40" height="16"/>
		<text font-size="12" font-weight="600" font-family="Segoe UI" x="155, 164.56836, 171.79297, 178.25, 185.50977, 190.33203, " y="896, ">
				whyuri
		</text>
		<rect fill="none" stroke="black" stroke-width="1" stroke-linecap="square" stroke-miterlimit="4" transform="translate(0.5 0.5)" x="146" y="881" width="55" height="20"/>
		<rect fill="silver" x="150" y="943" width="97" height="21"/>
		<rect fill="white" x="146" y="939" width="97" height="21"/>
		<rect fill="white" x="151" y="966" width="117" height="72"/>
		<text fill="gray" font-size="9" font-family="Segoe UI" x="151, 157.78516, 162.87842, 167.58496, 170.05029, 175.32373, 178.45264, 180.91797, 188.66992, 193.24902, 198.34229, 202.69727, 205.1626, 209.31982, 214.59326, 219.68652, 223.50537, 226.55518, 229.68408, 234.26318, 236.44287, 241.53613, 244.58594, 248.40479, 250.87012, 253.91992, 259.01318, 263.59229, " y="976, ">
				One or many constraints that
		</text>
		<text fill="gray" font-size="9" font-family="Segoe UI" x="151, 155.5791, 160.87012, 166.16113, 168.34082, 172.6958, 175.16113, 178.21094, 183.48438, 185.94971, 191.24072, 196.33398, 201.625, 203.80469, 205.98438, 209.80322, 214.89648, 217.07617, 222.16943, 227.46924, 229.93457, 232.98438, 238.07764, 242.78418, 245.24951, 249.56055, 254.13965, 256.31934, 261.4126, " y="988, ">
				apply to publishing the value
		</text>
		<text fill="gray" font-size="9" font-family="Segoe UI" x="151, 156.27344, 159.09033, 161.55566, 164.60547, 169.69873, 174.40527, 176.87061, 182.16162, 185.29053, 190.56396, 195.85498, 200.56152, 203.69043, 206.74023, 211.09521, 213.56055, 217.15967, 219.625, 224.33154, 228.4624, 233.75342, 236.88232, 241.58887, 245.40771, 249.22656, 253.93311, " y="1000, ">
				of the property - expressed
		</text>
		<text fill="gray" font-size="9" font-family="Segoe UI" x="151, 156.29102, 160.646, 163.11133, 167.69043, 170.15576, 176.94092, 182.51318, 187.78662, 193.08643, 197.79297, 199.74414, 202.20947, 206.76221, 211.34131, 215.49854, 220.5918, 223.05713, 227.21436, 232.48779, 237.58105, 241.3999, 244.44971, 247.57861, 252.15771, 254.3374, 259.43066, " y="1012, ">
				by a QCode. Each constraint
		</text>
		<text fill="gray" font-size="9" font-family="Segoe UI" x="151, 155.5791, 160.87012, 166.16113, 168.34082, 170.52051, 175.22705, 179.0459, 181.51123, 184.56104, 189.83447, 192.2998, 196.87891, 199.05859, 201.23828, 203.70361, 209.00342, 213.70996, 217.52881, 221.68604, 226.39258, 231.48584, 236.78564, 241.36475, 246.45801, " y="1024, ">
				applies to all descendant
		</text>
		<text fill="gray" font-size="9" font-family="Segoe UI" x="151, 155.70654, 157.88623, 162.59277, 170.34473, 175.05127, 180.14453, 183.19434, 187.01318, " y="1036, ">
				elements.
		</text>
		<rect fill="white" x="155" y="941" width="81" height="16"/>
		<text font-size="12" font-weight="600" font-family="Segoe UI" x="155, 162.44141, 169.70117, 177.14258, 182.90234, 190.23828, 197.49805, 202.77734, 207.44727, 212.22266, 218.67969, 222.08984, 229.34961, " y="954, ">
				pubconstraint
		</text>
		<rect fill="none" stroke="black" stroke-width="1" stroke-linecap="square" stroke-miterlimit="4" transform="translate(0.5 0.5)" x="146" y="939" width="96" height="20"/>
		<rect fill="silver" x="150" y="1049" width="112" height="21"/>
		<rect fill="white" x="146" y="1045" width="112" height="21"/>
		<rect fill="white" x="151" y="1072" width="117" height="72"/>
		<text fill="gray" font-size="9" font-family="Segoe UI" x="151, 157.78516, 162.87842, 167.58496, 170.05029, 175.32373, 178.45264, 180.91797, 188.66992, 193.24902, 198.34229, 202.69727, 205.1626, 209.31982, 214.59326, 219.68652, 223.50537, 226.55518, 229.68408, 234.26318, 236.44287, 241.53613, 244.58594, 248.40479, 250.87012, 253.91992, 259.01318, 263.59229, " y="1082, ">
				One or many constraints that
		</text>
		<text fill="gray" font-size="9" font-family="Segoe UI" x="151, 155.5791, 160.87012, 166.16113, 168.34082, 172.6958, 175.16113, 178.21094, 183.48438, 185.94971, 191.24072, 196.33398, 201.625, 203.80469, 205.98438, 209.80322, 214.89648, 217.07617, 222.16943, 227.46924, 229.93457, 232.98438, 238.07764, 242.78418, 245.24951, 249.56055, 254.13965, 256.31934, 261.4126, " y="1094, ">
				apply to publishing the value
		</text>
		<text fill="gray" font-size="9" font-family="Segoe UI" x="151, 156.27344, 159.09033, 161.55566, 164.60547, 169.69873, 174.40527, 176.87061, 182.16162, 185.29053, 190.56396, 195.85498, 200.56152, 203.69043, 206.74023, 211.09521, 213.56055, 217.15967, 219.625, 224.33154, 228.4624, 233.75342, 236.88232, 241.58887, 245.40771, 249.22656, 253.93311, " y="1106, ">
				of the property - expressed
		</text>
		<text fill="gray" font-size="9" font-family="Segoe UI" x="151, 156.29102, 160.646, 163.11133, 167.69043, 170.15576, 176.33887, 181.72217, 184.11719, 186.06836, 188.53369, 193.08643, 197.66553, 201.82275, 206.91602, 209.38135, 213.53857, 218.81201, 223.90527, 227.72412, 230.77393, 233.90283, 238.48193, 240.66162, 245.75488, " y="1118, ">
				by a URI. Each constraint
		</text>
		<text fill="gray" font-size="9" font-family="Segoe UI" x="151, 155.5791, 160.87012, 166.16113, 168.34082, 170.52051, 175.22705, 179.0459, 181.51123, 184.56104, 189.83447, 192.2998, 196.87891, 199.05859, 201.23828, 203.70361, 209.00342, 213.70996, 217.52881, 221.68604, 226.39258, 231.48584, 236.78564, 241.36475, 246.45801, " y="1130, ">
				applies to all descendant
		</text>
		<text fill="gray" font-size="9" font-family="Segoe UI" x="151, 155.70654, 157.88623, 162.59277, 170.34473, 175.05127, 180.14453, 183.19434, 187.01318, " y="1142, ">
				elements.
		</text>
		<rect fill="white" x="155" y="1047" width="96" height="16"/>
		<text font-size="12" font-weight="600" font-family="Segoe UI" x="155, 162.44141, 169.70117, 177.14258, 182.90234, 190.23828, 197.49805, 202.77734, 207.44727, 212.22266, 218.67969, 222.08984, 229.34961, 234.01953, 241.2793, 246.10156, " y="1060, ">
				pubconstrainturi
		</text>
		<rect fill="none" stroke="black" stroke-width="1" stroke-linecap="square" stroke-miterlimit="4" transform="translate(0.5 0.5)" x="146" y="1045" width="111" height="20"/>
		<path fill="silver" d="M142 1217L147 1212L215 1212L220 1217L220 1228L215 1233L147 1233L142 1228L142 1217Z"/>
		<path fill="white" d="M138 1213L143 1208L211 1208L216 1213L216 1224L211 1229L143 1229L138 1224L138 1213Z"/>
		<rect fill="white" x="165" y="1210" width="46" height="16"/>
		<text font-size="12" font-weight="600" font-family="Segoe UI" x="165, 172.10742, 179.21484, 186.55078, 191.2207, 198.44531, 204.9375, " y="1223, ">
				##other
		</text>
		<rect fill="white" x="143" y="1210" width="20" height="16"/>
		<text fill="gray" font-size="12" font-family="Segoe UI" x="143, 149.10547, 155.89648, " y="1223, ">
				any
		</text>
		<path fill="none" stroke="black" stroke-width="1" stroke-linecap="square" stroke-miterlimit="4" transform="translate(0.5 0.5)" d="M138 1213L143 1208L210 1208L215 1213L215 1223L210 1228L143 1228L138 1223L138 1213Z"/>
		<rect x="129" y="5" width="11" height="11"/>
		<rect fill="white" x="130" y="6" width="9" height="9"/>
		<rect x="131" y="10" width="7" height="1"/>
		<rect x="74" y="615" width="11" height="11"/>
		<rect fill="white" x="75" y="616" width="9" height="9"/>
		<rect x="76" y="620" width="7" height="1"/>
	</g>
</svg>
