<?xml version="1.0" encoding="utf-8" ?>
<svg xmlns="http://www.w3.org/2000/svg" xmlns:xlink="http://www.w3.org/1999/xlink" width="387" height="2110">
	<clipPath id="cl_636">
		<rect x="-10" y="-5" width="387" height="2110"/>
	</clipPath>
	<g clip-path="url(#cl_636)">
		<rect fill="#FFFFC0" x="131" width="236" height="1990"/>
		<rect fill="none" stroke="gray" stroke-width="1" stroke-linecap="square" stroke-miterlimit="4" transform="translate(0.5 0.5)" x="131" width="235" height="1989"/>
		<path fill="none" stroke="black" stroke-width="1" stroke-linecap="square" stroke-miterlimit="4" transform="translate(0.5 0.5)" d="M117 1283L143 1283"/>
		<path fill="none" stroke="black" stroke-width="1" stroke-linecap="square" stroke-miterlimit="4" transform="translate(0.5 0.5)" d="M144 1283L144 807"/>
		<path fill="none" stroke="black" stroke-width="1" stroke-linecap="square" stroke-miterlimit="4" transform="translate(0.5 0.5)" d="M144 1283L144 2044"/>
		<path transform="translate(0.5 0.5)" d="M144 1760.5L146 1760.5L146.5 1760.5L146.5 1761.5L146 1761.5L143.5 1761.5L143.5 1760.5L144 1760.5ZM150 1760.5L152 1760.5L152.5 1760.5L152.5 1761.5L152 1761.5L149.5 1761.5L149.5 1760.5L150 1760.5ZM156 1760.5L158.5 1760.5L158.5 1761.5L155.5 1761.5L155.5 1760.5L156 1760.5Z"/>
		<path fill="none" stroke="black" stroke-width="1" stroke-linecap="square" stroke-miterlimit="4" transform="translate(0.5 0.5)" d="M144 2045L158 2045"/>
		<path fill="none" stroke="black" stroke-width="1" stroke-linecap="square" stroke-miterlimit="4" transform="translate(0.5 0.5)" d="M144 806L158 806"/>
		<path fill="silver" d="M4 1282L9 1277L117 1277L117 1299L9 1299L4 1294L4 1282Z"/>
		<path fill="white" d="M0 1278L5 1273L113 1273L113 1295L5 1295L0 1290L0 1278Z"/>
		<rect fill="#FFFFC0" x="139" y="8" width="59" height="16"/>
		<text fill="gray" font-size="12" font-weight="600" font-family="Segoe UI" x="139, 146.69336, 150.10352, 157.43945, 163.19922, 169.9082, 176.40039, 182.85742, 190.29883, " y="21, ">
				BlockType
		</text>
		<rect fill="white" x="5" y="1300" width="102" height="48"/>
		<text fill="gray" font-size="9" font-family="Segoe UI" x="5, 10.805176, 15.898438, 18.36377, 23.070312, 27.201172, 32.492188, 35.621094, 40.327637, 44.146484, 47.965332, 50.14502, 55.418457, 60.511719, 62.977051, 68.250488, 71.067383, 73.532715, 76.661621, 78.841309, 84.141113, 89.234375, 92.28418, 96.103027, 98.568359, 100.74805, " y="1310, ">
				An expression of rights in
		</text>
		<text fill="gray" font-size="9" font-family="Segoe UI" x="5, 10.093262, 14.672363, 17.722168, 22.81543, 25.944336, 30.523438, 32.703125, 35.168457, 37.348145, 41.927246, 47.020508, 52.320312, 57.413574, 61.992676, 67.29248, 71.999023, 74.464355, 79.737793, 82.866699, 85.332031, 89.911133, 93.72998, 96.195312, " y="1322, ">
				natural language or as a
		</text>
		<text fill="gray" font-size="9" font-family="Segoe UI" x="5, 8.1289062, 12.835449, 15.652344, 20.358887, 23.487793, 28.194336, 33.287598, 37.444824, 42.151367, 44.616699, 47.666504, 52.939941, 55.405273, 58.53418, 63.240723, 70.992676, 76.266113, 79.315918, " y="1334, ">
				reference to remote
		</text>
		<text fill="gray" font-size="9" font-family="Segoe UI" x="5, 7.1796875, 12.272949, 15.089844, 20.363281, 23.492188, 31.244141, 35.823242, 38.873047, 41.052734, 46.326172, " y="1346, ">
				information
		</text>
		<rect fill="white" x="5" y="1275" width="95" height="16"/>
		<text font-size="12" font-weight="600" font-family="Segoe UI" x="5, 12.833984, 16.244141, 23.673828, 30.898438, 35.568359, 40.847656, 48.541016, 51.951172, 59.287109, 65.046875, 71.755859, 78.248047, 84.705078, 92.146484, " y="1288, ">
				RightsBlockType
		</text>
		<rect fill="#FFFFC0" x="202" y="8" width="59" height="16"/>
		<text fill="gray" font-size="12" font-family="Segoe UI" x="202, 205.62109, 211.89648, 217.4043, 221.4707, 227.74609, 234.53711, 239.62891, 242.53516, 249.56641, 256.35742, " y="21, ">
				(extension)
		</text>
		<path fill="none" stroke="black" stroke-width="1" stroke-linecap="square" stroke-miterlimit="4" transform="translate(0.5 0.5)" d="M0 1278L5 1273L112 1273L112 1294L5 1294L0 1289L0 1278Z"/>
		<path fill="white" d="M236 55L236 36L159 36L159 55L159 1575L306 1575L306 55L236 55Z"/>
		<rect fill="white" x="179" y="38" width="51" height="16"/>
		<text font-size="12" font-style="italic" font-family="Segoe UI" x="179, 185.50391, 189.38281, 193.26172, 197.5332, 200.63867, 207.14258, 213.83984, 217.73047, 223.57227, " y="51, ">
				attributes
		</text>
		<path fill="none" stroke="black" stroke-width="1" stroke-linecap="square" stroke-miterlimit="4" transform="translate(0.5 0.5)" d="M236 55L236 36L159 36L159 55L159 1575L306 1575L306 55L236 55Z"/>
		<rect fill="silver" x="177" y="68" width="52" height="21"/>
		<rect fill="white" x="173" y="64" width="52" height="21"/>
		<rect fill="white" x="178" y="91" width="101" height="24"/>
		<text fill="gray" font-size="9" font-family="Segoe UI" x="178, 182.71533, 187.80859, 192.51514, 194.98047, 197.16016, 202.43359, 206.59082, 211.16992, 213.34961, 215.81494, 217.99463, 223.29443, 228.00098, 233.09424, 236.14404, 238.32373, 241.14062, 243.32031, 248.02686, 251.15576, 253.62109, 258.89453, 261.71143, 264.17676, 267.22656, 272.31982, " y="101, ">
				The local identifier of the
		</text>
		<text fill="gray" font-size="9" font-family="Segoe UI" x="178, 183.29102, 186.41992, 191.69336, 196.98438, 201.69092, 204.81982, 207.86963, 212.22461, " y="113, ">
				property.
		</text>
		<rect fill="white" x="182" y="66" width="36" height="16"/>
		<text font-size="12" font-weight="600" font-family="Segoe UI" x="182, 185.41016, " y="79, ">
				id
		</text>
		<rect fill="none" stroke="black" stroke-width="1" stroke-linecap="square" stroke-miterlimit="4" transform="translate(0.5 0.5)" x="173" y="64" width="51" height="20"/>
		<rect fill="silver" x="177" y="126" width="58" height="21"/>
		<rect fill="white" x="173" y="122" width="58" height="21"/>
		<rect fill="white" x="178" y="149" width="121" height="120"/>
		<text fill="gray" font-size="9" font-family="Segoe UI" x="178, 180.39502, 183.21191, 185.67725, 188.72705, 193.82031, 198.52686, 200.99219, 206.2832, 209.41211, 214.68555, 219.97656, 224.68311, 227.81201, 230.86182, 235.2168, 237.68213, 241.99316, 246.57227, 248.75195, 253.84521, 258.55176, 261.01709, 263.19678, 267.01562, 269.48096, 274.57422, 279.84766, " y="159, ">
				If the property value is not
		</text>
		<text fill="gray" font-size="9" font-family="Segoe UI" x="178, 183.2998, 188.00635, 190.82324, 193.00293, 198.09619, 202.80273, 208.10254, 210.05371, 212.51904, 216.33789, 221.62891, 226.33545, 230.49268, 232.67236, 235.48926, 237.66895, 242.37549, 246.19434, 248.65967, 255.16357, 260.25684, 262.43652, 266.59375, 271.68701, 274.15234, 278.85889, 283.95215, 287.00195, 289.18164, 292.23145, " y="171, ">
				defined, specifies which entity
		</text>
		<text fill="gray" font-size="9" font-family="Segoe UI" x="178, 180.71582, 186.00684, 190.71338, 193.84229, 197.66113, 202.93457, 208.02783, 209.979, 212.44434, 217.71777, 220.84668, 226.14648, 230.72559, 235.81885, 237.99854, 241.81738, 246.39648, 249.44629, 251.62598, 256.89941, 261.99268, 264.45801, 269.73145, " y="183, ">
				(person, organisation or
		</text>
		<text fill="gray" font-size="9" font-family="Segoe UI" x="178, 181.81885, 186.17383, 189.99268, 193.04248, 197.74902, 205.50098, 208.2168, 210.68213, 217.18604, 219.36572, 221.54541, 223.7251, 226.19043, 230.89697, 236.19678, 238.37646, 241.42627, 243.8916, 246.94141, 252.03467, 256.74121, 259.20654, 264.49756, 267.62646, 272.8999, 278.19092, 282.89746, 286.02637, 289.07617, " y="195, ">
				system) will edit the property
		</text>
		<text fill="gray" font-size="9" font-family="Segoe UI" x="178, 182.31104, 186.89014, 189.06982, 194.16309, 198.86963, 201.33496, 204.93408, 207.39941, 212.10596, 216.23682, 221.52783, 224.65674, 229.36328, 233.18213, 237.00098, 241.70752, 247.00732, 249.47266, 254.76367, 259.11865, 261.58398, 266.16309, 268.62842, 275.41357, 280.98584, 286.25928, 291.55908, 296.26562, " y="207, ">
				value - expressed by a QCode.
		</text>
		<text fill="gray" font-size="9" font-family="Segoe UI" x="178, 180.39502, 183.21191, 185.67725, 188.72705, 193.82031, 198.52686, 200.99219, 206.2832, 209.41211, 214.68555, 219.97656, 224.68311, 227.81201, 230.86182, 235.2168, 237.68213, 241.99316, 246.57227, 248.75195, 253.84521, 258.55176, 261.01709, 263.19678, " y="219, ">
				If the property value is
		</text>
		<text fill="gray" font-size="9" font-family="Segoe UI" x="178, 183.2998, 188.00635, 190.82324, 193.00293, 198.09619, 202.80273, 208.10254, 210.05371, 212.51904, 216.33789, 221.62891, 226.33545, 230.49268, 232.67236, 235.48926, 237.66895, 242.37549, 246.19434, 248.65967, 255.16357, 260.25684, 262.43652, 266.59375, 271.68701, 274.15234, 278.85889, 283.95215, 287.00195, 289.18164, 292.23145, " y="231, ">
				defined, specifies which entity
		</text>
		<text fill="gray" font-size="9" font-family="Segoe UI" x="178, 180.71582, 186.00684, 190.71338, 193.84229, 197.66113, 202.93457, 208.02783, 209.979, 212.44434, 217.71777, 220.84668, 226.14648, 230.72559, 235.81885, 237.99854, 241.81738, 246.39648, 249.44629, 251.62598, 256.89941, 261.99268, 264.45801, 269.73145, " y="243, ">
				(person, organisation or
		</text>
		<text fill="gray" font-size="9" font-family="Segoe UI" x="178, 181.81885, 186.17383, 189.99268, 193.04248, 197.74902, 205.50098, 208.2168, 210.68213, 215.77539, 220.35449, 224.17334, 226.63867, 231.34521, 236.64502, 238.82471, 241.87451, 246.58105, 251.88086, 254.34619, 257.396, 262.48926, " y="255, ">
				system) has edited the
		</text>
		<text fill="gray" font-size="9" font-family="Segoe UI" x="178, 183.29102, 186.41992, 191.69336, 196.98438, 201.69092, 204.81982, 207.86963, 212.22461, 214.68994, 219.00098, 223.58008, 225.75977, 230.85303, 235.55957, " y="267, ">
				property value.
		</text>
		<rect fill="white" x="182" y="124" width="42" height="16"/>
		<text font-size="12" font-weight="600" font-family="Segoe UI" x="182, 187.75977, 192.48828, 198.98047, 205.4375, 210.06055, 217.39648, " y="137, ">
				creator
		</text>
		<rect fill="none" stroke="black" stroke-width="1" stroke-linecap="square" stroke-miterlimit="4" transform="translate(0.5 0.5)" x="173" y="122" width="57" height="20"/>
		<rect fill="silver" x="177" y="280" width="73" height="21"/>
		<rect fill="white" x="173" y="276" width="73" height="21"/>
		<rect fill="white" x="178" y="303" width="120" height="108"/>
		<text fill="gray" font-size="9" font-family="Segoe UI" x="178, 180.39502, 183.21191, 185.67725, 188.72705, 193.82031, 198.52686, 200.99219, 206.2832, 209.41211, 214.68555, 219.97656, 224.68311, 227.81201, 230.86182, 235.2168, 237.68213, 241.99316, 246.57227, 248.75195, 253.84521, 258.55176, 261.01709, 263.19678, 267.01562, 269.48096, 274.57422, 279.84766, " y="313, ">
				If the property value is not
		</text>
		<text fill="gray" font-size="9" font-family="Segoe UI" x="178, 183.2998, 188.00635, 190.82324, 193.00293, 198.09619, 202.80273, 208.10254, 210.05371, 212.51904, 216.33789, 221.62891, 226.33545, 230.49268, 232.67236, 235.48926, 237.66895, 242.37549, 246.19434, 248.65967, 255.16357, 260.25684, 262.43652, 266.59375, 271.68701, 274.15234, 278.85889, 283.95215, 287.00195, 289.18164, 292.23145, " y="325, ">
				defined, specifies which entity
		</text>
		<text fill="gray" font-size="9" font-family="Segoe UI" x="178, 180.71582, 186.00684, 190.71338, 193.84229, 197.66113, 202.93457, 208.02783, 209.979, 212.44434, 217.71777, 220.84668, 226.14648, 230.72559, 235.81885, 237.99854, 241.81738, 246.39648, 249.44629, 251.62598, 256.89941, 261.99268, 264.45801, 269.73145, " y="337, ">
				(person, organisation or
		</text>
		<text fill="gray" font-size="9" font-family="Segoe UI" x="178, 181.81885, 186.17383, 189.99268, 193.04248, 197.74902, 205.50098, 208.2168, 210.68213, 217.18604, 219.36572, 221.54541, 223.7251, 226.19043, 230.89697, 236.19678, 238.37646, 241.42627, 243.8916, 246.94141, 252.03467, 256.74121, 259.20654, 264.49756, 267.62646, 272.8999, 278.19092, 282.89746, 286.02637, 289.07617, " y="349, ">
				system) will edit the property
		</text>
		<text fill="gray" font-size="9" font-family="Segoe UI" x="178, 181.59912, 184.06445, 188.771, 192.90186, 198.19287, 201.32178, 206.02832, 209.84717, 213.66602, 218.37256, 223.67236, 226.1377, 231.42871, 235.78369, 238.24902, 242.82812, 245.29346, 251.47656, 256.85986, 259.25488, 261.20605, 263.67139, 266.06641, 268.8833, 271.34863, 274.39844, 279.4917, " y="361, ">
				- expressed by a URI. If the
		</text>
		<text fill="gray" font-size="9" font-family="Segoe UI" x="178, 183.29102, 186.41992, 191.69336, 196.98438, 201.69092, 204.81982, 207.86963, 212.22461, 214.68994, 219.00098, 223.58008, 225.75977, 230.85303, 235.55957, 238.0249, 240.20459, 244.02344, 246.48877, 251.78857, 256.49512, 259.31201, 261.4917, 266.58496, 271.2915, 276.59131, " y="373, ">
				property value is defined,
		</text>
		<text fill="gray" font-size="9" font-family="Segoe UI" x="178, 181.81885, 187.10986, 191.81641, 195.97363, 198.15332, 200.97021, 203.1499, 207.85645, 211.67529, 214.14062, 220.64453, 225.73779, 227.91748, 232.07471, 237.16797, 239.6333, 244.33984, 249.43311, 252.48291, 254.6626, 257.7124, 262.06738, 264.53271, 267.24854, 272.53955, 277.24609, 280.375, 284.19385, 289.46729, 294.56055, " y="385, ">
				specifies which entity (person,
		</text>
		<text fill="gray" font-size="9" font-family="Segoe UI" x="178, 183.27344, 186.40234, 191.70215, 196.28125, 201.37451, 203.5542, 207.37305, 211.95215, 215.00195, 217.18164, 222.45508, 227.54834, 230.01367, 235.28711, 238.41602, 240.88135, 244.7002, 249.05518, 252.87402, 255.92383, 260.63037, 268.38232, 271.09814, 273.56348, 278.65674, 283.23584, " y="397, ">
				organisation or system) has
		</text>
		<text fill="gray" font-size="9" font-family="Segoe UI" x="178, 182.70654, 188.00635, 190.18604, 193.23584, 197.94238, 203.24219, 205.70752, 208.75732, 213.85059, 218.55713, 221.02246, 226.31348, 229.44238, 234.71582, 240.00684, 244.71338, 247.84229, 250.89209, 255.24707, " y="409, ">
				edited the property.
		</text>
		<rect fill="white" x="182" y="278" width="57" height="16"/>
		<text font-size="12" font-weight="600" font-family="Segoe UI" x="182, 187.75977, 192.48828, 198.98047, 205.4375, 210.06055, 217.39648, 222.20703, 229.4668, 234.28906, " y="291, ">
				creatoruri
		</text>
		<rect fill="none" stroke="black" stroke-width="1" stroke-linecap="square" stroke-miterlimit="4" transform="translate(0.5 0.5)" x="173" y="276" width="72" height="20"/>
		<rect fill="silver" x="177" y="422" width="69" height="21"/>
		<rect fill="white" x="173" y="418" width="69" height="21"/>
		<rect fill="white" x="178" y="445" width="119" height="72"/>
		<text fill="gray" font-size="9" font-family="Segoe UI" x="178, 182.71533, 187.80859, 192.51514, 194.98047, 200.28027, 204.85938, 207.90918, 212.61572, 215.08105, 217.79688, 222.37598, 227.46924, 232.76904, 234.72021, 237.18555, 242.45898, 247.75, 250.7998, 252.97949, 258.25293, 263.34619, 267.92529, 270.10498, 272.28467, 276.63965, 278.59082, 281.05615, 284.10596, 289.19922, " y="455, ">
				The date (and, optionally, the
		</text>
		<text fill="gray" font-size="9" font-family="Segoe UI" x="178, 181.0498, 183.22949, 190.98145, 195.68799, 198.40381, 200.86914, 207.37305, 212.46631, 217.17285, 222.26611, 224.73145, 227.78125, 232.87451, 237.58105, 240.04639, 245.3374, 248.46631, 253.73975, 259.03076, 263.7373, 266.86621, 269.91602, 274.271, 276.73633, 283.24023, 287.81934, " y="467, ">
				time) when the property was
		</text>
		<text fill="gray" font-size="9" font-family="Segoe UI" x="178, 180.17969, 184.75879, 188.57764, 191.62744, 194.09277, 201.84473, 207.11816, 212.41797, 214.59766, 217.41455, 219.59424, 224.30078, 229.60059, 231.55176, 234.01709, 238.73242, 243.82568, 248.53223, 250.99756, 253.17725, 258.27051, 260.4502, 263.5, 265.67969, 270.25879, 272.43848, 274.90381, 279.21484, 283.79395, 285.97363, 291.06689, " y="479, ">
				last modified. The initial value
		</text>
		<text fill="gray" font-size="9" font-family="Segoe UI" x="178, 180.17969, 183.99854, 186.46387, 189.51367, 194.60693, 199.31348, 201.77881, 207.07861, 211.65771, 214.70752, 219.41406, 221.87939, 224.59521, 229.17432, 234.26758, 239.56738, 241.51855, 243.98389, 249.25732, 254.54834, 257.59814, 259.77783, 265.05127, 270.14453, 274.72363, 276.90332, 279.08301, 283.43799, " y="491, ">
				is the date (and, optionally,
		</text>
		<text fill="gray" font-size="9" font-family="Segoe UI" x="178, 181.0498, 186.14307, 190.84961, 193.31494, 196.36475, 198.54443, 206.29639, 211.00293, 213.71875, 216.18408, 221.45752, 224.27441, 226.73975, 230.89697, 234.02588, 238.73242, 243.31152, 246.36133, 248.54102, 253.81445, 258.90771, 261.37305, 266.64648, 269.46338, 271.92871, 274.97852, 280.07178, " y="503, ">
				the time) of creation of the
		</text>
		<text fill="gray" font-size="9" font-family="Segoe UI" x="178, 183.29102, 186.41992, 191.69336, 196.98438, 201.69092, 204.81982, 207.86963, 212.22461, " y="515, ">
				property.
		</text>
		<rect fill="white" x="182" y="420" width="53" height="16"/>
		<text font-size="12" font-weight="600" font-family="Segoe UI" x="182, 192.99219, 200.32812, 207.75781, 211.16797, 215.76758, 219.17773, 225.66992, " y="433, ">
				modified
		</text>
		<rect fill="none" stroke="black" stroke-width="1" stroke-linecap="square" stroke-miterlimit="4" transform="translate(0.5 0.5)" x="173" y="418" width="68" height="20"/>
		<rect fill="silver" x="177" y="528" width="59" height="21"/>
		<rect fill="white" x="173" y="524" width="59" height="21"/>
		<rect fill="white" x="178" y="551" width="118" height="108"/>
		<text fill="gray" font-size="9" font-family="Segoe UI" x="178, 180.39502, 183.21191, 185.67725, 189.49609, 194.20264, 197.25244, 199.71777, 202.76758, 208.04102, 210.50635, 213.55615, 216.68506, 221.77832, 226.48486, 228.9502, 232, 237.09326, " y="561, ">
				If set to true the
		</text>
		<text fill="gray" font-size="9" font-family="Segoe UI" x="178, 182.15723, 187.43066, 190.55957, 193.68848, 198.39502, 202.21387, 207.50488, 212.77832, 217.87158, 223.17139, 225.35107, 230.44434, 235.74414, 238.20947, 243.50049, 246.62939, 251.90283, 257.19385, 261.90039, 265.0293, 268.0791, 272.43408, 274.89941, 281.40332, 285.98242, " y="573, ">
				corresponding property was
		</text>
		<text fill="gray" font-size="9" font-family="Segoe UI" x="178, 182.5791, 187.87891, 193.17871, 197.88525, 203.18506, 205.65039, 208.7002, 213.97363, 216.43896, 219.48877, 224.58203, 229.28857, 231.75391, 237.92822, 242.77979, 245.24512, 247.64014, 250.68994, 255.39648, 263.14844, 265.61377, 268.43066, 273.7041, 276.83301, 279.29834, " y="585, ">
				added to the G2 Item for a
		</text>
		<text fill="gray" font-size="9" font-family="Segoe UI" x="178, 181.81885, 187.10986, 191.81641, 195.97363, 198.15332, 200.97021, 203.1499, 207.30713, 209.77246, 213.92969, 219.02295, 222.8418, 225.8916, 231.16504, 238.91699, 243.62354, 246.75244, 249.21777, 254.49121, 257.62012, 260.08545, 265.38525, 268.51416, 273.7876, 278.88086, 284.17188, 286.63721, 291.91064, " y="597, ">
				specific customer or group of
		</text>
		<text fill="gray" font-size="9" font-family="Segoe UI" x="178, 182.15723, 187.25049, 191.06934, 194.11914, 199.39258, 207.14453, 211.85107, 214.97998, 218.79883, 221.26416, 226.5376, 231.63086, 233.81055, 238.16553, 240.1167, 242.58203, 247.29736, 252.39062, 257.09717, 259.5625, 264.8623, 269.56885, 272.38574, 276.96484, 282.05811, 284.23779, " y="609, ">
				customers only. The default
		</text>
		<text fill="gray" font-size="9" font-family="Segoe UI" x="178, 182.31104, 186.89014, 189.06982, 194.16309, 198.86963, 201.33496, 206.6084, 209.42529, 211.89062, 214.94043, 220.03369, 222.21338, 226.03223, 228.49756, 233.78857, 236.91748, 242.19092, 247.48193, 252.18848, 255.31738, 258.36719, 262.72217, 265.1875, 267.36719, 271.18604, 273.65137, 276.46826, 281.04736, 283.22705, 287.0459, " y="621, ">
				value of this property is false
		</text>
		<text fill="gray" font-size="9" font-family="Segoe UI" x="178, 184.50391, 189.59717, 191.77686, 195.93408, 201.02734, 203.49268, 208.07178, 213.36279, 218.65381, 220.8335, 223.01318, 227.71973, 231.53857, 234.00391, 240.50781, 245.60107, 250.30762, 255.40088, 257.86621, 260.91602, 266.00928, 268.18896, " y="633, ">
				which applies when this
		</text>
		<text fill="gray" font-size="9" font-family="Segoe UI" x="178, 182.5791, 185.62891, 188.67871, 191.80762, 193.9873, 199.27832, 204.37158, 207.42139, 212.12793, 214.59326, 216.77295, 220.5918, 223.05713, 228.15039, 233.42383, 236.47363, 238.93896, 244.03223, 247.85107, 252.55762, 257.85742, 260.32275, 266.82666, 269.00635, 272.05615, 277.14941, 279.61475, 282.66455, 287.75781, " y="645, ">
				attribute is not used with the
		</text>
		<text fill="gray" font-size="9" font-family="Segoe UI" x="178, 183.29102, 186.41992, 191.69336, 196.98438, 201.69092, 204.81982, 207.86963, 212.22461, " y="657, ">
				property.
		</text>
		<rect fill="white" x="182" y="526" width="43" height="16"/>
		<text font-size="12" font-weight="600" font-family="Segoe UI" x="182, 187.75977, 195.01953, 200.29883, 204.92188, 212.25781, " y="539, ">
				custom
		</text>
		<rect fill="none" stroke="black" stroke-width="1" stroke-linecap="square" stroke-miterlimit="4" transform="translate(0.5 0.5)" x="173" y="524" width="58" height="20"/>
		<rect fill="silver" x="177" y="670" width="52" height="21"/>
		<rect fill="white" x="173" y="666" width="52" height="21"/>
		<rect fill="white" x="178" y="693" width="118" height="48"/>
		<text fill="gray" font-size="9" font-family="Segoe UI" x="178, 180.39502, 185.48828, 190.78809, 192.96777, 197.125, 201.7041, 204.75391, 209.46045, 213.2793, 215.74463, 221.03564, 225.39062, 227.85596, 234.35986, 239.45312, 241.63281, 245.79004, 250.8833, 253.34863, 261.10059, 265.80713, 270.38623, 275.47949, 279.29834, 281.76367, 284.81348, 289.90674, " y="703, ">
				Indicates by which means the
		</text>
		<text fill="gray" font-size="9" font-family="Segoe UI" x="178, 182.31104, 186.89014, 189.06982, 194.16309, 198.86963, 201.33496, 207.83887, 212.41797, 216.23682, 218.70215, 223.40869, 227.53955, 230.58936, 233.71826, 238.29736, 242.45459, 245.50439, 250.21094, 255.51074, 257.97607, 260.79297, 263.92188, 269.19531, 276.94727, 279.4126, 282.4624, 287.55566, " y="715, ">
				value was extracted from the
		</text>
		<text fill="gray" font-size="9" font-family="Segoe UI" x="178, 182.15723, 187.43066, 192.52393, 195.57373, 200.28027, 205.37354, 208.42334, 210.88867, 214.48779, 216.95312, 221.65967, 225.79053, 231.08154, 234.21045, 238.91699, 242.73584, 246.55469, 251.26123, 256.56104, 259.02637, 264.31738, 268.67236, 271.1377, " y="727, ">
				content - expressed by a
		</text>
		<text fill="gray" font-size="9" font-family="Segoe UI" x="178, 184.78516, 190.35742, 195.63086, 200.93066, " y="739, ">
				QCode
		</text>
		<rect fill="white" x="182" y="668" width="36" height="16"/>
		<text font-size="12" font-weight="600" font-family="Segoe UI" x="182, 189.22461, 196.56055, " y="681, ">
				how
		</text>
		<rect fill="none" stroke="black" stroke-width="1" stroke-linecap="square" stroke-miterlimit="4" transform="translate(0.5 0.5)" x="173" y="666" width="51" height="20"/>
		<rect fill="silver" x="177" y="752" width="57" height="21"/>
		<rect fill="white" x="173" y="748" width="57" height="21"/>
		<rect fill="white" x="178" y="775" width="118" height="36"/>
		<text fill="gray" font-size="9" font-family="Segoe UI" x="178, 180.39502, 185.48828, 190.78809, 192.96777, 197.125, 201.7041, 204.75391, 209.46045, 213.2793, 215.74463, 221.03564, 225.39062, 227.85596, 234.35986, 239.45312, 241.63281, 245.79004, 250.8833, 253.34863, 261.10059, 265.80713, 270.38623, 275.47949, 279.29834, 281.76367, 284.81348, 289.90674, " y="785, ">
				Indicates by which means the
		</text>
		<text fill="gray" font-size="9" font-family="Segoe UI" x="178, 182.31104, 186.89014, 189.06982, 194.16309, 198.86963, 201.33496, 207.83887, 212.41797, 216.23682, 218.70215, 223.40869, 227.53955, 230.58936, 233.71826, 238.29736, 242.45459, 245.50439, 250.21094, 255.51074, 257.97607, 260.79297, 263.92188, 269.19531, 276.94727, 279.4126, 282.4624, 287.55566, " y="797, ">
				value was extracted from the
		</text>
		<text fill="gray" font-size="9" font-family="Segoe UI" x="178, 182.15723, 187.43066, 192.52393, 195.57373, 200.28027, 205.37354, 208.42334, 210.88867, 214.48779, 216.95312, 221.65967, 225.79053, 231.08154, 234.21045, 238.91699, 242.73584, 246.55469, 251.26123, 256.56104, 259.02637, 264.31738, 268.67236, 271.1377, 275.7168, 278.18213, 284.36523, 289.74854, " y="809, ">
				content - expressed by a URI
		</text>
		<rect fill="white" x="182" y="750" width="41" height="16"/>
		<text font-size="12" font-weight="600" font-family="Segoe UI" x="182, 189.22461, 196.56055, 206.12891, 213.38867, 218.21094, " y="763, ">
				howuri
		</text>
		<rect fill="none" stroke="black" stroke-width="1" stroke-linecap="square" stroke-miterlimit="4" transform="translate(0.5 0.5)" x="173" y="748" width="56" height="20"/>
		<rect fill="silver" x="177" y="822" width="52" height="21"/>
		<rect fill="white" x="173" y="818" width="52" height="21"/>
		<rect fill="white" x="178" y="845" width="113" height="36"/>
		<text fill="gray" font-size="9" font-family="Segoe UI" x="178, 186.40674, 191.5, 195.85498, 198.32031, 201.37012, 206.46338, 211.16992, 213.63525, 221.38721, 226.09375, 229.14355, 233.72266, 239.02246, 243.60156, 246.65137, 251.23047, 253.6958, 258.78906, 263.36816, 267.18701, 269.65234, 274.94336, 279.6499, 284.35645, " y="855, ">
				Why the metadata has been
		</text>
		<text fill="gray" font-size="9" font-family="Segoe UI" x="178, 180.17969, 185.27295, 189.43018, 191.60986, 196.70312, 202.00293, 206.70947, 212.00928, 214.47461, 218.07373, 220.53906, 225.24561, 229.37646, 234.66748, 237.79639, 242.50293, 246.32178, 250.14062, 254.84717, 260.14697, 262.6123, 267.90332, 272.2583, 274.72363, " y="867, ">
				included - expressed by a
		</text>
		<text fill="gray" font-size="9" font-family="Segoe UI" x="178, 184.78516, 190.35742, 195.63086, 200.93066, " y="879, ">
				QCode
		</text>
		<rect fill="white" x="182" y="820" width="36" height="16"/>
		<text font-size="12" font-weight="600" font-family="Segoe UI" x="182, 191.56836, 198.79297, " y="833, ">
				why
		</text>
		<rect fill="none" stroke="black" stroke-width="1" stroke-linecap="square" stroke-miterlimit="4" transform="translate(0.5 0.5)" x="173" y="818" width="51" height="20"/>
		<rect fill="silver" x="177" y="892" width="56" height="21"/>
		<rect fill="white" x="173" y="888" width="56" height="21"/>
		<rect fill="white" x="178" y="915" width="119" height="24"/>
		<text fill="gray" font-size="9" font-family="Segoe UI" x="178, 186.40674, 191.5, 195.85498, 198.32031, 201.37012, 206.46338, 211.16992, 213.63525, 221.38721, 226.09375, 229.14355, 233.72266, 239.02246, 243.60156, 246.65137, 251.23047, 253.6958, 258.78906, 263.36816, 267.18701, 269.65234, 274.94336, 279.6499, 284.35645, " y="925, ">
				Why the metadata has been
		</text>
		<text fill="gray" font-size="9" font-family="Segoe UI" x="178, 180.17969, 185.27295, 189.43018, 191.60986, 196.70312, 202.00293, 206.70947, 212.00928, 214.47461, 218.07373, 220.53906, 225.24561, 229.37646, 234.66748, 237.79639, 242.50293, 246.32178, 250.14062, 254.84717, 260.14697, 262.6123, 267.90332, 272.2583, 274.72363, 279.30273, 281.76807, 287.95117, 293.33447, " y="937, ">
				included - expressed by a URI
		</text>
		<rect fill="white" x="182" y="890" width="40" height="16"/>
		<text font-size="12" font-weight="600" font-family="Segoe UI" x="182, 191.56836, 198.79297, 205.25, 212.50977, 217.33203, " y="903, ">
				whyuri
		</text>
		<rect fill="none" stroke="black" stroke-width="1" stroke-linecap="square" stroke-miterlimit="4" transform="translate(0.5 0.5)" x="173" y="888" width="55" height="20"/>
		<rect fill="silver" x="177" y="950" width="97" height="21"/>
		<rect fill="white" x="173" y="946" width="97" height="21"/>
		<rect fill="white" x="178" y="973" width="117" height="72"/>
		<text fill="gray" font-size="9" font-family="Segoe UI" x="178, 184.78516, 189.87842, 194.58496, 197.05029, 202.32373, 205.45264, 207.91797, 215.66992, 220.24902, 225.34229, 229.69727, 232.1626, 236.31982, 241.59326, 246.68652, 250.50537, 253.55518, 256.68408, 261.26318, 263.44287, 268.53613, 271.58594, 275.40479, 277.87012, 280.91992, 286.01318, 290.59229, " y="983, ">
				One or many constraints that
		</text>
		<text fill="gray" font-size="9" font-family="Segoe UI" x="178, 182.5791, 187.87012, 193.16113, 195.34082, 199.6958, 202.16113, 205.21094, 210.48438, 212.94971, 218.24072, 223.33398, 228.625, 230.80469, 232.98438, 236.80322, 241.89648, 244.07617, 249.16943, 254.46924, 256.93457, 259.98438, 265.07764, 269.78418, 272.24951, 276.56055, 281.13965, 283.31934, 288.4126, " y="995, ">
				apply to publishing the value
		</text>
		<text fill="gray" font-size="9" font-family="Segoe UI" x="178, 183.27344, 186.09033, 188.55566, 191.60547, 196.69873, 201.40527, 203.87061, 209.16162, 212.29053, 217.56396, 222.85498, 227.56152, 230.69043, 233.74023, 238.09521, 240.56055, 244.15967, 246.625, 251.33154, 255.4624, 260.75342, 263.88232, 268.58887, 272.40771, 276.22656, 280.93311, " y="1007, ">
				of the property - expressed
		</text>
		<text fill="gray" font-size="9" font-family="Segoe UI" x="178, 183.29102, 187.646, 190.11133, 194.69043, 197.15576, 203.94092, 209.51318, 214.78662, 220.08643, 224.79297, 226.74414, 229.20947, 233.76221, 238.34131, 242.49854, 247.5918, 250.05713, 254.21436, 259.48779, 264.58105, 268.3999, 271.44971, 274.57861, 279.15771, 281.3374, 286.43066, " y="1019, ">
				by a QCode. Each constraint
		</text>
		<text fill="gray" font-size="9" font-family="Segoe UI" x="178, 182.5791, 187.87012, 193.16113, 195.34082, 197.52051, 202.22705, 206.0459, 208.51123, 211.56104, 216.83447, 219.2998, 223.87891, 226.05859, 228.23828, 230.70361, 236.00342, 240.70996, 244.52881, 248.68604, 253.39258, 258.48584, 263.78564, 268.36475, 273.45801, " y="1031, ">
				applies to all descendant
		</text>
		<text fill="gray" font-size="9" font-family="Segoe UI" x="178, 182.70654, 184.88623, 189.59277, 197.34473, 202.05127, 207.14453, 210.19434, 214.01318, " y="1043, ">
				elements.
		</text>
		<rect fill="white" x="182" y="948" width="81" height="16"/>
		<text font-size="12" font-weight="600" font-family="Segoe UI" x="182, 189.44141, 196.70117, 204.14258, 209.90234, 217.23828, 224.49805, 229.77734, 234.44727, 239.22266, 245.67969, 249.08984, 256.34961, " y="961, ">
				pubconstraint
		</text>
		<rect fill="none" stroke="black" stroke-width="1" stroke-linecap="square" stroke-miterlimit="4" transform="translate(0.5 0.5)" x="173" y="946" width="96" height="20"/>
		<rect fill="silver" x="177" y="1056" width="112" height="21"/>
		<rect fill="white" x="173" y="1052" width="112" height="21"/>
		<rect fill="white" x="178" y="1079" width="117" height="72"/>
		<text fill="gray" font-size="9" font-family="Segoe UI" x="178, 184.78516, 189.87842, 194.58496, 197.05029, 202.32373, 205.45264, 207.91797, 215.66992, 220.24902, 225.34229, 229.69727, 232.1626, 236.31982, 241.59326, 246.68652, 250.50537, 253.55518, 256.68408, 261.26318, 263.44287, 268.53613, 271.58594, 275.40479, 277.87012, 280.91992, 286.01318, 290.59229, " y="1089, ">
				One or many constraints that
		</text>
		<text fill="gray" font-size="9" font-family="Segoe UI" x="178, 182.5791, 187.87012, 193.16113, 195.34082, 199.6958, 202.16113, 205.21094, 210.48438, 212.94971, 218.24072, 223.33398, 228.625, 230.80469, 232.98438, 236.80322, 241.89648, 244.07617, 249.16943, 254.46924, 256.93457, 259.98438, 265.07764, 269.78418, 272.24951, 276.56055, 281.13965, 283.31934, 288.4126, " y="1101, ">
				apply to publishing the value
		</text>
		<text fill="gray" font-size="9" font-family="Segoe UI" x="178, 183.27344, 186.09033, 188.55566, 191.60547, 196.69873, 201.40527, 203.87061, 209.16162, 212.29053, 217.56396, 222.85498, 227.56152, 230.69043, 233.74023, 238.09521, 240.56055, 244.15967, 246.625, 251.33154, 255.4624, 260.75342, 263.88232, 268.58887, 272.40771, 276.22656, 280.93311, " y="1113, ">
				of the property - expressed
		</text>
		<text fill="gray" font-size="9" font-family="Segoe UI" x="178, 183.29102, 187.646, 190.11133, 194.69043, 197.15576, 203.33887, 208.72217, 211.11719, 213.06836, 215.53369, 220.08643, 224.66553, 228.82275, 233.91602, 236.38135, 240.53857, 245.81201, 250.90527, 254.72412, 257.77393, 260.90283, 265.48193, 267.66162, 272.75488, " y="1125, ">
				by a URI. Each constraint
		</text>
		<text fill="gray" font-size="9" font-family="Segoe UI" x="178, 182.5791, 187.87012, 193.16113, 195.34082, 197.52051, 202.22705, 206.0459, 208.51123, 211.56104, 216.83447, 219.2998, 223.87891, 226.05859, 228.23828, 230.70361, 236.00342, 240.70996, 244.52881, 248.68604, 253.39258, 258.48584, 263.78564, 268.36475, 273.45801, " y="1137, ">
				applies to all descendant
		</text>
		<text fill="gray" font-size="9" font-family="Segoe UI" x="178, 182.70654, 184.88623, 189.59277, 197.34473, 202.05127, 207.14453, 210.19434, 214.01318, " y="1149, ">
				elements.
		</text>
		<rect fill="white" x="182" y="1054" width="96" height="16"/>
		<text font-size="12" font-weight="600" font-family="Segoe UI" x="182, 189.44141, 196.70117, 204.14258, 209.90234, 217.23828, 224.49805, 229.77734, 234.44727, 239.22266, 245.67969, 249.08984, 256.34961, 261.01953, 268.2793, 273.10156, " y="1067, ">
				pubconstrainturi
		</text>
		<rect fill="none" stroke="black" stroke-width="1" stroke-linecap="square" stroke-miterlimit="4" transform="translate(0.5 0.5)" x="173" y="1052" width="111" height="20"/>
		<rect fill="silver" x="177" y="1162" width="66" height="21"/>
		<rect fill="white" x="173" y="1158" width="66" height="21"/>
		<rect fill="white" x="178" y="1185" width="121" height="84"/>
		<text fill="gray" font-size="9" font-family="Segoe UI" x="178, 182.78125, 188.07227, 192.77881, 196.93604, 199.11572, 201.93262, 204.1123, 208.81885, 212.6377, 215.10303, 218.15283, 223.24609, 227.95264, 230.41797, 232.59766, 237.17676, 242.27002, 247.56982, 252.66309, 257.24219, 262.54199, 267.24854, 269.71387, 274.9873, 277.8042, 280.26953, 283.31934, 288.4126, 290.59229, " y="1195, ">
				Specifies the language of this
		</text>
		<text fill="gray" font-size="9" font-family="Segoe UI" x="178, 183.29102, 186.41992, 191.69336, 196.98438, 201.69092, 204.81982, 207.86963, 212.22461, 214.68994, 219.26904, 224.3623, 229.66211, 232.12744, 237.41846, 242.69189, 245.7417, 250.44824, 255.5415, 258.59131, 260.771, 265.3501, 267.52979, 269.70947, 274.06445, 276.52979, 281.10889, 283.28857, " y="1207, ">
				property and potentially all
		</text>
		<text fill="gray" font-size="9" font-family="Segoe UI" x="178, 183.2998, 188.00635, 191.8252, 195.98242, 200.68896, 205.78223, 211.08203, 215.66113, 220.75439, 223.8042, 226.26953, 231.56055, 234.68945, 239.96289, 245.25391, 249.96045, 253.08936, 256.13916, 258.31885, 263.02539, 266.84424, " y="1219, ">
				descendant properties.
		</text>
		<text fill="gray" font-size="9" font-family="Segoe UI" x="178, 182.13086, 189.88281, 192.0625, 194.01367, 196.19336, 200.77246, 205.86572, 211.16553, 213.63086, 217.94189, 222.521, 224.70068, 229.79395, 234.50049, 238.31934, 240.78467, 246.05811, 248.875, 251.34033, 256.64014, 261.34668, 265.16553, 269.32275, 274.0293, 279.12256, 284.42236, 289.00146, 294.09473, " y="1231, ">
				xml:lang values of descendant
		</text>
		<text fill="gray" font-size="9" font-family="Segoe UI" x="178, 183.29102, 186.41992, 191.69336, 196.98438, 201.69092, 204.81982, 207.86963, 210.04932, 214.75586, 218.57471, 221.04004, 226.31348, 230.62451, 235.33105, 238.45996, 241.58887, 243.76855, 249.06836, 253.7749, 256.24023, 259.29004, 264.3833, 266.56299, 270.38184, 272.84717, 277.1582, 281.7373, 283.91699, 289.01025, 293.7168, " y="1243, ">
				properties override this value.
		</text>
		<text fill="gray" font-size="9" font-family="Segoe UI" x="178, 182.93066, 187.50977, 189.68945, 194.78271, 199.48926, 203.30811, 205.77344, 210.35254, 213.48145, 218.18799, 220.65332, 225.95312, 230.65967, 233.70947, 238.41602, 241.54492, 249.29688, 251.47656, 256.56982, 261.27637, 266.57617, 269.0415, 274.33252, " y="1255, ">
				Values are determined by
		</text>
		<text fill="gray" font-size="9" font-family="Segoe UI" x="178, 180.39502, 185.48828, 188.53809, 193.24463, 196.37354, 201.4668, 206.17334, 209.22314, 211.68848, 216.84766, 222.41992, 227.46045, 229.92578, 234.77734, 239.62891, " y="1267, ">
				Internet BCP 47.
		</text>
		<rect fill="white" x="182" y="1160" width="50" height="16"/>
		<text font-size="12" font-weight="600" font-family="Segoe UI" x="182, 188.62695, 199.61914, 203.0293, 206.28125, 209.69141, 216.14844, 223.4082, " y="1173, ">
				xml:lang
		</text>
		<path fill="none" stroke="black" stroke-width="2" stroke-miterlimit="4" transform="translate(0.5 0.5)" d="M175 1176L179 1172"/>
		<path fill="none" stroke="black" stroke-width="1" stroke-linecap="square" stroke-miterlimit="4" transform="translate(0.5 0.5)" d="M176 1172L179 1172L179 1175"/>
		<rect fill="none" stroke="black" stroke-width="1" stroke-linecap="square" stroke-miterlimit="4" transform="translate(0.5 0.5)" x="173" y="1158" width="65" height="20"/>
		<rect fill="silver" x="177" y="1280" width="52" height="21"/>
		<rect fill="white" x="173" y="1276" width="52" height="21"/>
		<rect fill="white" x="178" y="1303" width="116" height="24"/>
		<text fill="gray" font-size="9" font-family="Segoe UI" x="178, 182.71533, 187.80859, 192.51514, 194.98047, 200.28027, 202.45996, 205.58887, 210.29541, 214.45264, 217.50244, 219.68213, 224.95557, 230.04883, 234.62793, 236.80762, 238.9873, 242.03711, 246.39209, 248.85742, 254.13086, 256.94775, 259.41309, 262.46289, 267.16943, 271.30029, 274.3501, 279.44336, 284.02246, " y="1313, ">
				The directionality of textual
		</text>
		<text fill="gray" font-size="9" font-family="Segoe UI" x="178, 182.15723, 187.43066, 192.52393, 195.57373, 200.28027, 205.37354, 208.42334, 210.88867, 213.60449, 218.31104, 223.4043, 228.49756, 236.24951, 240.95605, 244.08496, 248.66406, 251.71387, 253.89355, 259.16699, 264.26025, 266.21143, 268.67676, 270.85645, 273.90625, 277.03516, 278.98633, 281.45166, 284.58057, 287.63037, 289.81006, " y="1325, ">
				content (enumeration: ltr, rtl)
		</text>
		<rect fill="white" x="182" y="1278" width="36" height="16"/>
		<text font-size="12" font-weight="600" font-family="Segoe UI" x="182, 189.42969, 192.83984, " y="1291, ">
				dir
		</text>
		<rect fill="none" stroke="black" stroke-width="1" stroke-linecap="square" stroke-miterlimit="4" transform="translate(0.5 0.5)" x="173" y="1276" width="51" height="20"/>
		<rect fill="silver" x="177" y="1338" width="52" height="21"/>
		<rect fill="white" x="173" y="1334" width="52" height="21"/>
		<rect fill="white" x="178" y="1361" width="115" height="60"/>
		<text fill="gray" font-size="9" font-family="Segoe UI" x="178, 183.80518, 188.89844, 191.36377, 193.54346, 198.63672, 203.93652, 206.11621, 210.27344, 214.85254, 217.90234, 220.08203, 225.35547, 230.44873, 232.91406, 238.1875, 241.00439, 243.46973, 246.51953, 251.61279, 256.31934, 258.78467, 261.83447, 266.41357, 269.54248, 274.84229, 279.54883, " y="1371, ">
				An indication of the target
		</text>
		<text fill="gray" font-size="9" font-family="Segoe UI" x="178, 185.75195, 190.4585, 195.7583, 197.93799, 202.51709, 204.98242, 208.03223, 212.38721, 217.67822, 222.38477, 225.10059, 228.91943, " y="1383, ">
				media type(s)
		</text>
		<text fill="gray" font-size="9" font-family="Segoe UI" x="178, 182.31104, 186.89014, 189.06982, 194.16309, 198.86963, 202.68848, 205.15381, 209.73291, 213.55176, 216.01709, 221.31689, 226.02344, 228.84033, 231.02002, 236.11328, 240.81982, 246.11963, 248.58496, 253.87598, 258.23096, 260.69629, 263.74609, 268.83936, " y="1395, ">
				values as defined by the
		</text>
		<text fill="gray" font-size="9" font-family="Segoe UI" x="178, 183.57227, 188.15137, 191.97021, 196.12744, 200.70654, 206.00635, 208.18604, 213.2793, 218.5791, 221.04443, 225.53564, 228.58545, 232.94043, 235.12012, 239.82666, 242.29199, 247.07324, 252.1665, 256.87305, 261.57959, 264.62939, 268.44824, 270.91357, 273.62939, 279.20166, 283.98291, 288.76416, " y="1407, ">
				Cascading Style Sheets (CSS)
		</text>
		<text fill="gray" font-size="9" font-family="Segoe UI" x="178, 181.81885, 187.10986, 191.81641, 195.97363, 198.15332, 200.97021, 203.1499, 207.30713, 211.88623, 214.93604, 217.11572, 222.38916, 227.48242, " y="1419, ">
				specification.
		</text>
		<rect fill="white" x="182" y="1336" width="36" height="16"/>
		<text font-size="12" font-weight="600" font-family="Segoe UI" x="182, 192.99219, 199.48438, 206.91406, 210.32422, " y="1349, ">
				media
		</text>
		<rect fill="none" stroke="black" stroke-width="1" stroke-linecap="square" stroke-miterlimit="4" transform="translate(0.5 0.5)" x="173" y="1334" width="51" height="20"/>
		<rect fill="silver" x="177" y="1432" width="52" height="21"/>
		<rect fill="white" x="173" y="1428" width="52" height="21"/>
		<rect fill="white" x="178" y="1455" width="120" height="24"/>
		<text fill="gray" font-size="9" font-family="Segoe UI" x="178, 183.80518, 186.27051, 189.39941, 194.10596, 196.92285, 199.10254, 204.1958, 208.90234, 216.6543, 221.36084, 226.4541, 229.50391, 231.96924, 237.24268, 240.05957, 242.5249, 245.57471, 250.66797, 255.37451, 257.83984, 261.65869, 266.36523, 274.11719, 278.69629, 283.78955, 286.83936, 289.01904, 293.17627, " y="1465, ">
				A refinement of the semantics
		</text>
		<text fill="gray" font-size="9" font-family="Segoe UI" x="178, 183.27344, 186.09033, 188.55566, 191.60547, 196.69873, 201.40527, 203.87061, 209.16162, 211.34131, 216.61475, 220.77197, 225.24561, " y="1477, ">
				of the block.
		</text>
		<rect fill="white" x="182" y="1430" width="36" height="16"/>
		<text font-size="12" font-weight="600" font-family="Segoe UI" x="182, 186.72852, 194.06445, 197.47461, " y="1443, ">
				role
		</text>
		<rect fill="none" stroke="black" stroke-width="1" stroke-linecap="square" stroke-miterlimit="4" transform="translate(0.5 0.5)" x="173" y="1428" width="51" height="20"/>
		<rect fill="silver" x="177" y="1490" width="55" height="21"/>
		<rect fill="white" x="173" y="1486" width="55" height="21"/>
		<rect fill="white" x="178" y="1513" width="114" height="24"/>
		<text fill="gray" font-size="9" font-family="Segoe UI" x="178, 183.80518, 186.27051, 192.45361, 197.83691, 200.23193, 202.69727, 204.87695, 210.17676, 214.8833, 219.97656, 223.02637, 225.20605, 228.02295, 232.37793, 234.55762, 239.65088, 244.95068, 247.41602, 250.46582, 255.55908, 260.26562, 262.73096, 265.85986, 270.56641, 273.3833, 275.56299, 280.65625, 285.36279, " y="1523, ">
				A URI identifying the refined
		</text>
		<text fill="gray" font-size="9" font-family="Segoe UI" x="178, 181.81885, 186.52539, 194.27734, 198.85645, 203.94971, 206.99951, 209.1792, 213.33643, 217.15527, 219.62061, 224.89404, 227.71094, 230.17627, 233.22607, 238.31934, 243.02588, 245.49121, 250.79102, 255.49756, 258.31445, 260.49414, 265.5874, 267.76709, 270.81689, 272.99658, 278.27002, 283.36328, " y="1535, ">
				semantics of the definition.
		</text>
		<rect fill="white" x="182" y="1488" width="39" height="16"/>
		<text font-size="12" font-weight="600" font-family="Segoe UI" x="182, 186.72852, 194.06445, 197.47461, 203.9668, 211.22656, 216.04883, " y="1501, ">
				roleuri
		</text>
		<rect fill="none" stroke="black" stroke-width="1" stroke-linecap="square" stroke-miterlimit="4" transform="translate(0.5 0.5)" x="173" y="1486" width="54" height="20"/>
		<path fill="silver" d="M177 1553L182 1548L250 1548L255 1553L255 1564L250 1569L182 1569L177 1564L177 1553Z"/>
		<path fill="white" d="M173 1549L178 1544L246 1544L251 1549L251 1560L246 1565L178 1565L173 1560L173 1549Z"/>
		<rect fill="white" x="200" y="1546" width="46" height="16"/>
		<text font-size="12" font-weight="600" font-family="Segoe UI" x="200, 207.10742, 214.21484, 221.55078, 226.2207, 233.44531, 239.9375, " y="1559, ">
				##other
		</text>
		<rect fill="white" x="178" y="1546" width="20" height="16"/>
		<text fill="gray" font-size="12" font-family="Segoe UI" x="178, 184.10547, 190.89648, " y="1559, ">
				any
		</text>
		<path fill="none" stroke="black" stroke-width="1" stroke-linecap="square" stroke-miterlimit="4" transform="translate(0.5 0.5)" d="M173 1549L178 1544L245 1544L250 1549L250 1559L245 1564L178 1564L173 1559L173 1549Z"/>
		<rect x="164" y="41" width="11" height="11"/>
		<rect fill="white" x="165" y="42" width="9" height="9"/>
		<rect x="166" y="46" width="7" height="1"/>
		<path fill="none" stroke="black" stroke-width="1" stroke-linecap="square" stroke-miterlimit="4" transform="translate(0.5 0.5)" d="M204 1761L212 1761"/>
		<path fill="none" stroke="black" stroke-width="1" stroke-linecap="square" stroke-miterlimit="4" transform="translate(0.5 0.5)" d="M213 1761L213 1599"/>
		<path fill="none" stroke="black" stroke-width="1" stroke-linecap="square" stroke-miterlimit="4" transform="translate(0.5 0.5)" d="M213 1761L213 1924"/>
		<path fill="none" stroke="black" stroke-width="1" stroke-linecap="square" stroke-miterlimit="4" transform="translate(0.5 0.5)" d="M213 1598L227 1598"/>
		<path fill="none" stroke="black" stroke-width="1" stroke-linecap="square" stroke-miterlimit="4" transform="translate(0.5 0.5)" d="M213 1661L227 1661"/>
		<path fill="none" stroke="black" stroke-width="1" stroke-linecap="square" stroke-miterlimit="4" transform="translate(0.5 0.5)" d="M213 1736L227 1736"/>
		<path fill="none" stroke="black" stroke-width="1" stroke-linecap="square" stroke-miterlimit="4" transform="translate(0.5 0.5)" d="M213 1811L227 1811"/>
		<path fill="none" stroke="black" stroke-width="1" stroke-linecap="square" stroke-miterlimit="4" transform="translate(0.5 0.5)" d="M213 1862L227 1862"/>
		<path fill="none" stroke="black" stroke-width="1" stroke-linecap="square" stroke-miterlimit="4" transform="translate(0.5 0.5)" d="M213 1925L227 1925"/>
		<path fill="silver" d="M166 1763L171 1758L196 1758L201 1763L201 1774L196 1779L171 1779L166 1774L166 1763Z"/>
		<path fill="white" d="M162 1759L167 1754L191 1754L196 1759L196 1769L191 1774L167 1774L162 1769L162 1759Z"/>
		<path transform="translate(0.5 0.5)" d="M165.889 1754.4L166.793 1753.5L167.929 1753.5L168.429 1753.5L168.429 1754.5L167.929 1754.5L167 1754.5L167 1754L167.354 1754.35L166.243 1755.46L165.536 1754.76L165.889 1754.4ZM171.929 1753.5L173.929 1753.5L174.429 1753.5L174.429 1754.5L173.929 1754.5L171.429 1754.5L171.429 1753.5L171.929 1753.5ZM177.929 1753.5L179.929 1753.5L180.429 1753.5L180.429 1754.5L179.929 1754.5L177.429 1754.5L177.429 1753.5L177.929 1753.5ZM183.929 1753.5L185.929 1753.5L186.429 1753.5L186.429 1754.5L185.929 1754.5L183.429 1754.5L183.429 1753.5L183.929 1753.5ZM189.929 1753.5L191.207 1753.5L192.01 1754.3L192.364 1754.66L191.657 1755.36L191.303 1755.01L190.646 1754.35L191 1754L191 1754.5L189.429 1754.5L189.429 1753.5L189.929 1753.5ZM194.839 1757.13L196.253 1758.55L196.607 1758.9L195.899 1759.61L195.546 1759.25L193.778 1757.49L194.485 1756.78L194.839 1757.13ZM196.5 1762.86L196.5 1764.86L196.5 1765.36L195.5 1765.36L195.5 1764.86L195.5 1762.36L196.5 1762.36L196.5 1762.86ZM196.5 1768.86L196.5 1769.21L195.04 1770.67L194.686 1771.02L193.979 1770.31L194.333 1769.96L195.646 1768.65L196 1769L195.5 1769L195.5 1768.36L196.5 1768.36L196.5 1768.86ZM192.211 1773.5L191.207 1774.5L190.213 1774.5L189.713 1774.5L189.713 1773.5L190.213 1773.5L191 1773.5L191 1774L190.646 1773.65L191.858 1772.44L192.565 1773.14L192.211 1773.5ZM186.213 1774.5L184.213 1774.5L183.713 1774.5L183.713 1773.5L184.213 1773.5L186.713 1773.5L186.713 1774.5L186.213 1774.5ZM180.213 1774.5L178.213 1774.5L177.713 1774.5L177.713 1773.5L178.213 1773.5L180.713 1773.5L180.713 1774.5L180.213 1774.5ZM174.213 1774.5L172.213 1774.5L171.713 1774.5L171.713 1773.5L172.213 1773.5L174.713 1773.5L174.713 1774.5L174.213 1774.5ZM168.213 1774.5L166.793 1774.5L166.09 1773.8L165.737 1773.44L166.444 1772.74L166.797 1773.09L167.354 1773.65L167 1774L167 1773.5L168.713 1773.5L168.713 1774.5L168.213 1774.5ZM163.262 1770.97L161.847 1769.55L161.494 1769.2L162.201 1768.49L162.555 1768.85L164.322 1770.62L163.615 1771.32L163.262 1770.97ZM161.5 1765.28L161.5 1763.28L161.5 1762.78L162.5 1762.78L162.5 1763.28L162.5 1765.78L161.5 1765.78L161.5 1765.28ZM161.5 1759.28L161.5 1758.79L163.414 1756.88L164.121 1757.59L162.354 1759.35L162 1759L162.5 1759L162.5 1759.78L161.5 1759.78L161.5 1759.28Z"/>
		<path fill="white" d="M159 1756L164 1751L189 1751L194 1756L194 1767L189 1772L164 1772L159 1767L159 1756Z"/>
		<path fill="none" stroke="black" stroke-width="1" stroke-linecap="square" stroke-miterlimit="4" transform="translate(0.5 0.5)" d="M178 1772L184 1778L187 1775"/>
		<path fill="none" stroke="black" stroke-width="1" stroke-linecap="square" stroke-miterlimit="4" transform="translate(0.5 0.5)" d="M164 1761L169 1761L173 1757"/>
		<path fill="none" stroke="black" stroke-width="1" stroke-linecap="square" stroke-miterlimit="4" transform="translate(0.5 0.5)" d="M179 1761L187 1761"/>
		<path fill="none" stroke="black" stroke-width="1" stroke-linecap="square" stroke-miterlimit="4" transform="translate(0.5 0.5)" d="M179 1757L183 1757L183 1765L179 1765"/>
		<rect x="175" y="1756" width="3" height="3"/>
		<rect x="175" y="1760" width="3" height="3"/>
		<rect x="175" y="1764" width="3" height="3"/>
		<text font-size="12" font-family="Segoe UI" x="163.76562, " y="1791, ">
				0
		</text>
		<text font-size="12" font-family="Symbol" x="178.72266, " y="1790, ">
				¥
		</text>
		<text font-size="12" font-family="Segoe UI" x="171.89844, 174.5, " y="1791, ">
				..
		</text>
		<path transform="translate(0.5 0.5)" d="M162.889 1751.4L163.793 1750.5L164.929 1750.5L165.429 1750.5L165.429 1751.5L164.929 1751.5L164 1751.5L164 1751L164.354 1751.35L163.243 1752.46L162.536 1751.76L162.889 1751.4ZM168.929 1750.5L170.929 1750.5L171.429 1750.5L171.429 1751.5L170.929 1751.5L168.429 1751.5L168.429 1750.5L168.929 1750.5ZM174.929 1750.5L176.929 1750.5L177.429 1750.5L177.429 1751.5L176.929 1751.5L174.429 1751.5L174.429 1750.5L174.929 1750.5ZM180.929 1750.5L182.929 1750.5L183.429 1750.5L183.429 1751.5L182.929 1751.5L180.429 1751.5L180.429 1750.5L180.929 1750.5ZM186.929 1750.5L188.207 1750.5L189.01 1751.3L189.364 1751.66L188.657 1752.36L188.303 1752.01L187.646 1751.35L188 1751L188 1751.5L186.429 1751.5L186.429 1750.5L186.929 1750.5ZM191.839 1754.13L193.253 1755.55L193.607 1755.9L192.899 1756.61L192.546 1756.25L190.778 1754.49L191.485 1753.78L191.839 1754.13ZM193.5 1759.86L193.5 1761.86L193.5 1762.36L192.5 1762.36L192.5 1761.86L192.5 1759.36L193.5 1759.36L193.5 1759.86ZM193.5 1765.86L193.5 1766.21L192.04 1767.67L191.686 1768.02L190.979 1767.31L191.333 1766.96L192.646 1765.65L193 1766L192.5 1766L192.5 1765.36L193.5 1765.36L193.5 1765.86ZM189.211 1770.5L188.207 1771.5L187.213 1771.5L186.713 1771.5L186.713 1770.5L187.213 1770.5L188 1770.5L188 1771L187.646 1770.65L188.858 1769.44L189.565 1770.14L189.211 1770.5ZM183.213 1771.5L181.213 1771.5L180.713 1771.5L180.713 1770.5L181.213 1770.5L183.713 1770.5L183.713 1771.5L183.213 1771.5ZM177.213 1771.5L175.213 1771.5L174.713 1771.5L174.713 1770.5L175.213 1770.5L177.713 1770.5L177.713 1771.5L177.213 1771.5ZM171.213 1771.5L169.213 1771.5L168.713 1771.5L168.713 1770.5L169.213 1770.5L171.713 1770.5L171.713 1771.5L171.213 1771.5ZM165.213 1771.5L163.793 1771.5L163.09 1770.8L162.737 1770.44L163.444 1769.74L163.797 1770.09L164.354 1770.65L164 1771L164 1770.5L165.713 1770.5L165.713 1771.5L165.213 1771.5ZM160.262 1767.97L158.847 1766.55L158.494 1766.2L159.201 1765.49L159.555 1765.85L161.322 1767.62L160.615 1768.32L160.262 1767.97ZM158.5 1762.28L158.5 1760.28L158.5 1759.78L159.5 1759.78L159.5 1760.28L159.5 1762.78L158.5 1762.78L158.5 1762.28ZM158.5 1756.28L158.5 1755.79L160.414 1753.88L161.121 1754.59L159.354 1756.35L159 1756L159.5 1756L159.5 1756.78L158.5 1756.78L158.5 1756.28Z"/>
		<rect fill="silver" x="232" y="1592" width="52" height="21"/>
		<rect fill="white" x="228" y="1588" width="52" height="21"/>
		<rect fill="#FFFFC0" x="233" y="1615" width="109" height="24"/>
		<text fill="gray" font-size="9" font-family="Segoe UI" x="233, 238.80518, 243.89844, 246.36377, 250.94287, 256.03613, 260.19336, 265.28662, 270.56006, 273.68896, 276.1543, 278.97119, 284.24463, 287.37354, 289.83887, 292.01855, 297.11182, 299.2915, 301.47119, 306.56445, 311.271, 313.73633, 315.91602, 318.0957, 323.18896, 327.6626, 329.84229, 334.93555, " y="1625, ">
				An anchor for inline linking
		</text>
		<text fill="gray" font-size="9" font-family="Segoe UI" x="233, 235.17969, 237.35938, 241.83301, 246.53955, 249.00488, 251.18457, 256.27783, 258.74316, 265.13281, 269.84814, 277.92969, " y="1637, ">
				like in HTML
		</text>
		<rect fill="white" x="237" y="1590" width="31" height="16"/>
		<text font-size="12" font-weight="600" font-family="Segoe UI" x="237, " y="1603, ">
				a
		</text>
		<path fill="none" stroke="black" stroke-width="1" stroke-linecap="square" stroke-miterlimit="4" transform="translate(0.5 0.5)" d="M230 1590L235 1590"/>
		<path fill="none" stroke="black" stroke-width="1" stroke-linecap="square" stroke-miterlimit="4" transform="translate(0.5 0.5)" d="M230 1592L234 1592"/>
		<path fill="none" stroke="black" stroke-width="1" stroke-linecap="square" stroke-miterlimit="4" transform="translate(0.5 0.5)" d="M230 1594L234 1594"/>
		<path fill="none" stroke="black" stroke-width="2" stroke-miterlimit="4" transform="translate(0.5 0.5)" d="M230 1606L234 1602"/>
		<path fill="none" stroke="black" stroke-width="1" stroke-linecap="square" stroke-miterlimit="4" transform="translate(0.5 0.5)" d="M231 1602L234 1602L234 1605"/>
		<rect fill="none" stroke="black" stroke-width="1" stroke-linecap="square" stroke-miterlimit="4" transform="translate(0.5 0.5)" x="228" y="1588" width="51" height="20"/>
		<rect x="274" y="1593" width="11" height="11"/>
		<rect fill="white" x="275" y="1594" width="9" height="9"/>
		<rect x="276" y="1598" width="7" height="1"/>
		<rect x="279" y="1595" width="1" height="7"/>
		<rect fill="silver" x="232" y="1655" width="52" height="21"/>
		<rect fill="white" x="228" y="1651" width="52" height="21"/>
		<rect fill="#FFFFC0" x="233" y="1678" width="113" height="36"/>
		<text fill="gray" font-size="9" font-family="Segoe UI" x="233, 238.80518, 241.27051, 246.57031, 251.27686, 256.37012, 261.07666, 264.20557, 266.38525, 270.54248, 273.00781, 280.75977, 285.46631, 289.62354, 294.7168, 299.2959, 304.38916, 306.56885, 310.3877, 318.13965, 320.60498, 323.42188, 328.69531, " y="1688, ">
				A generic mechanism for
		</text>
		<text fill="gray" font-size="9" font-family="Segoe UI" x="233, 237.5791, 242.87891, 248.17871, 250.3584, 255.45166, 260.75146, 263.2168, 265.39648, 270.48975, 272.66943, 274.84912, 279.94238, 284.64893, 287.11426, 289.29395, 294.38721, 297.2041, 302.47754, 305.60645, 313.3584, 317.9375, 320.9873, 323.16699, 328.44043, 333.53369, 335.99902, 339.04883, " y="1700, ">
				adding inline information to
		</text>
		<text fill="gray" font-size="9" font-family="Segoe UI" x="233, 238.29102, 242.87012, 245.99902, 249.04883, 252.86768, 255.33301, 260.60645, 263.42334, 265.88867, 268.93848, 274.03174, 278.73828, 281.20361, 284.25342, 288.95996, 293.09082, 296.14062, 301.23389, 305.81299, 307.99268, 310.45801, 314.61523, 319.88867, 324.98193, 328.03174, 332.73828, 337.83154, " y="1712, ">
				parts of the textual content
		</text>
		<rect fill="white" x="237" y="1653" width="31" height="16"/>
		<text font-size="12" font-weight="600" font-family="Segoe UI" x="237, 242.2793, 249.60352, 256.06055, " y="1666, ">
				span
		</text>
		<path fill="none" stroke="black" stroke-width="1" stroke-linecap="square" stroke-miterlimit="4" transform="translate(0.5 0.5)" d="M230 1653L235 1653"/>
		<path fill="none" stroke="black" stroke-width="1" stroke-linecap="square" stroke-miterlimit="4" transform="translate(0.5 0.5)" d="M230 1655L234 1655"/>
		<path fill="none" stroke="black" stroke-width="1" stroke-linecap="square" stroke-miterlimit="4" transform="translate(0.5 0.5)" d="M230 1657L234 1657"/>
		<path fill="none" stroke="black" stroke-width="2" stroke-miterlimit="4" transform="translate(0.5 0.5)" d="M230 1669L234 1665"/>
		<path fill="none" stroke="black" stroke-width="1" stroke-linecap="square" stroke-miterlimit="4" transform="translate(0.5 0.5)" d="M231 1665L234 1665L234 1668"/>
		<rect fill="none" stroke="black" stroke-width="1" stroke-linecap="square" stroke-miterlimit="4" transform="translate(0.5 0.5)" x="228" y="1651" width="51" height="20"/>
		<rect x="274" y="1656" width="11" height="11"/>
		<rect fill="white" x="275" y="1657" width="9" height="9"/>
		<rect x="276" y="1661" width="7" height="1"/>
		<rect x="279" y="1658" width="1" height="7"/>
		<rect fill="silver" x="232" y="1730" width="52" height="21"/>
		<rect fill="white" x="228" y="1726" width="52" height="21"/>
		<rect fill="#FFFFC0" x="233" y="1753" width="119" height="36"/>
		<text fill="gray" font-size="9" font-family="Segoe UI" x="233, 237.78125, 239.96094, 247.71289, 253.00391, 255.18359, 259.89014, 262.35547, 270.76221, 275.61377, 281.18604, 283.65137, 289.03467, 294.12793, 299.41895, 303.77393, 306.23926, 312.04443, 317.1377, 322.23096, 327.50439, 330.5542, 335.1333, 338.18311, 340.36279, 345.63623, " y="1763, ">
				Simple W3C Ruby Annotation
		</text>
		<text fill="gray" font-size="9" font-family="Segoe UI" x="233, 236.59912, 239.06445, 242.8833, 247.58984, 252.29639, 254.76172, 259.85498, 262.90479, 265.95459, 271.24561, 273.19678, 276.70361, 280.21045, 286.71436, 293.21826, 299.72217, 301.67334, 308.17725, 313.02881, 314.97998, 320.25342, 323.38232, 328.68213, 332.18896, 336.9043, 342.2876, " y="1775, ">
				- see http://www.w3.org/TR/
		</text>
		<text fill="gray" font-size="9" font-family="Segoe UI" x="233, 236.12891, 241.22217, 246.51318, 250.86816, 254.375, 259.69238, 263.51123, 265.69092, 273.44287, 278.73389, 280.91357, 285.62012, 289.21924, 292.34814, 297.44141, 302.73242, 307.0874, " y="1787, ">
				ruby/#simple-ruby1
		</text>
		<rect fill="white" x="237" y="1728" width="31" height="16"/>
		<text font-size="12" font-weight="600" font-family="Segoe UI" x="237, 241.81055, 249.07031, 256.51172, " y="1741, ">
				ruby
		</text>
		<path fill="none" stroke="black" stroke-width="2" stroke-miterlimit="4" transform="translate(0.5 0.5)" d="M230 1744L234 1740"/>
		<path fill="none" stroke="black" stroke-width="1" stroke-linecap="square" stroke-miterlimit="4" transform="translate(0.5 0.5)" d="M231 1740L234 1740L234 1743"/>
		<rect fill="none" stroke="black" stroke-width="1" stroke-linecap="square" stroke-miterlimit="4" transform="translate(0.5 0.5)" x="228" y="1726" width="51" height="20"/>
		<rect x="274" y="1731" width="11" height="11"/>
		<rect fill="white" x="275" y="1732" width="9" height="9"/>
		<rect x="276" y="1736" width="7" height="1"/>
		<rect x="279" y="1733" width="1" height="7"/>
		<rect fill="silver" x="232" y="1805" width="52" height="21"/>
		<rect fill="white" x="228" y="1801" width="52" height="21"/>
		<rect fill="#FFFFC0" x="233" y="1828" width="49" height="12"/>
		<text fill="gray" font-size="9" font-family="Segoe UI" x="233, 238.80518, 241.27051, 243.4502, 245.62988, 250.72314, 255.42969, 257.89502, 263.18604, 266.31494, 271.02148, 275.60059, " y="1838, ">
				A line break
		</text>
		<rect fill="white" x="237" y="1803" width="31" height="16"/>
		<text font-size="12" font-weight="600" font-family="Segoe UI" x="237, 244.44141, " y="1816, ">
				br
		</text>
		<path fill="none" stroke="black" stroke-width="2" stroke-miterlimit="4" transform="translate(0.5 0.5)" d="M230 1819L234 1815"/>
		<path fill="none" stroke="black" stroke-width="1" stroke-linecap="square" stroke-miterlimit="4" transform="translate(0.5 0.5)" d="M231 1815L234 1815L234 1818"/>
		<rect fill="none" stroke="black" stroke-width="1" stroke-linecap="square" stroke-miterlimit="4" transform="translate(0.5 0.5)" x="228" y="1801" width="51" height="20"/>
		<rect x="274" y="1806" width="11" height="11"/>
		<rect fill="white" x="275" y="1807" width="9" height="9"/>
		<rect x="276" y="1811" width="7" height="1"/>
		<rect x="279" y="1808" width="1" height="7"/>
		<rect fill="silver" x="232" y="1856" width="54" height="21"/>
		<rect fill="white" x="228" y="1852" width="54" height="21"/>
		<rect fill="#FFFFC0" x="233" y="1879" width="108" height="24"/>
		<text fill="gray" font-size="9" font-family="Segoe UI" x="233, 238.80518, 243.89844, 246.36377, 248.54346, 253.63672, 255.81641, 257.99609, 263.08936, 267.7959, 270.26123, 278.01318, 282.59229, 285.72119, 290.19482, 295.28809, 300.5791, 303.04443, 306.09424, 310.67334, 315.97314, 318.43848, 321.48828, 326.76172, 329.22705, 334.51807, " y="1889, ">
				An inline markup tag to be
		</text>
		<text fill="gray" font-size="9" font-family="Segoe UI" x="233, 238.09326, 241.91211, 246.61865, 251.91846, 254.38379, 260.8877, 263.06738, 266.11719, 271.21045, 273.67578, 278.25488, 283.34814, 287.70312, 290.16846, 294.32568, 299.59912, 304.69238, 308.84961, 313.55615, 318.84717, " y="1901, ">
				used with any concept
		</text>
		<rect fill="white" x="237" y="1854" width="33" height="16"/>
		<text font-size="12" font-weight="600" font-family="Segoe UI" x="237, 240.41016, 247.66992, 251.08008, 254.49023, 261.75, " y="1867, ">
				inline
		</text>
		<path fill="none" stroke="black" stroke-width="1" stroke-linecap="square" stroke-miterlimit="4" transform="translate(0.5 0.5)" d="M230 1854L235 1854"/>
		<path fill="none" stroke="black" stroke-width="1" stroke-linecap="square" stroke-miterlimit="4" transform="translate(0.5 0.5)" d="M230 1856L234 1856"/>
		<path fill="none" stroke="black" stroke-width="1" stroke-linecap="square" stroke-miterlimit="4" transform="translate(0.5 0.5)" d="M230 1858L234 1858"/>
		<path fill="none" stroke="black" stroke-width="2" stroke-miterlimit="4" transform="translate(0.5 0.5)" d="M230 1870L234 1866"/>
		<path fill="none" stroke="black" stroke-width="1" stroke-linecap="square" stroke-miterlimit="4" transform="translate(0.5 0.5)" d="M231 1866L234 1866L234 1869"/>
		<rect fill="none" stroke="black" stroke-width="1" stroke-linecap="square" stroke-miterlimit="4" transform="translate(0.5 0.5)" x="228" y="1852" width="53" height="20"/>
		<rect x="276" y="1857" width="11" height="11"/>
		<rect fill="white" x="277" y="1858" width="9" height="9"/>
		<rect x="278" y="1862" width="7" height="1"/>
		<rect x="281" y="1859" width="1" height="7"/>
		<path fill="silver" d="M232 1924L237 1919L305 1919L310 1924L310 1935L305 1940L237 1940L232 1935L232 1924Z"/>
		<path fill="white" d="M228 1920L233 1915L301 1915L306 1920L306 1931L301 1936L233 1936L228 1931L228 1920Z"/>
		<rect fill="#FFFFC0" x="233" y="1942" width="120" height="36"/>
		<text fill="gray" font-size="9" font-family="Segoe UI" x="233, 237.55273, 241.68359, 244.7334, 249.43994, 254.5332, 258.35205, 260.53174, 265.80518, 270.89844, 273.36377, 278.65479, 283.92822, 286.10791, 291.20117, 294.25098, 296.71631, 299.5332, 304.80664, 307.93555, 310.40088, 315.69189, 318.8208, 324.09424, 328.40527, 330.58496, 335.88477, 340.59131, 343.72021, " y="1952, ">
				Extension point for provider-
		</text>
		<text fill="gray" font-size="9" font-family="Segoe UI" x="233, 238.2998, 243.00635, 245.82324, 248.00293, 253.09619, 257.80273, 263.10254, 265.56787, 270.85889, 273.98779, 279.26123, 284.55225, 289.25879, 292.3877, 295.4375, 297.61719, 302.32373, 306.14258, 308.60791, 311.4248, 314.55371, 319.82715, 327.5791, 330.04443, 335.31787, 338.36768, 343.46094, 348.16748, " y="1964, ">
				defined properties from other
		</text>
		<text fill="gray" font-size="9" font-family="Segoe UI" x="233, 238.09326, 242.67236, 250.42432, 255.13086, 258.94971, 264.24072, 268.81982, 272.97705, 277.68359, " y="1976, ">
				namespaces
		</text>
		<rect fill="white" x="255" y="1917" width="46" height="16"/>
		<text font-size="12" font-weight="600" font-family="Segoe UI" x="255, 262.10742, 269.21484, 276.55078, 281.2207, 288.44531, 294.9375, " y="1930, ">
				##other
		</text>
		<rect fill="white" x="233" y="1917" width="20" height="16"/>
		<text fill="gray" font-size="12" font-family="Segoe UI" x="233, 239.10547, 245.89648, " y="1930, ">
				any
		</text>
		<path fill="none" stroke="black" stroke-width="1" stroke-linecap="square" stroke-miterlimit="4" transform="translate(0.5 0.5)" d="M228 1920L233 1915L300 1915L305 1920L305 1930L300 1935L233 1935L228 1930L228 1920Z"/>
		<rect x="193" y="1756" width="11" height="11"/>
		<rect fill="white" x="194" y="1757" width="9" height="9"/>
		<rect x="195" y="1761" width="7" height="1"/>
		<path fill="white" d="M236 2021L236 2002L159 2002L159 2021L159 2087L280 2087L280 2021L236 2021Z"/>
		<rect fill="white" x="179" y="2004" width="51" height="16"/>
		<text font-size="12" font-style="italic" font-family="Segoe UI" x="179, 185.50391, 189.38281, 193.26172, 197.5332, 200.63867, 207.14258, 213.83984, 217.73047, 223.57227, " y="2017, ">
				attributes
		</text>
		<path fill="none" stroke="black" stroke-width="1" stroke-linecap="square" stroke-miterlimit="4" transform="translate(0.5 0.5)" d="M236 2021L236 2002L159 2002L159 2021L159 2087L280 2087L280 2021L236 2021Z"/>
		<rect fill="silver" x="177" y="2034" width="52" height="21"/>
		<rect fill="white" x="173" y="2030" width="52" height="21"/>
		<rect fill="white" x="178" y="2057" width="95" height="24"/>
		<text fill="gray" font-size="9" font-family="Segoe UI" x="178, 182.71533, 187.80859, 192.51514, 194.98047, 197.16016, 202.43359, 206.59082, 211.16992, 214.21973, 219.49316, 222.62207, 225.0874, 230.36084, 233.17773, 235.64307, 240.22217, 242.6875, 245.81641, 250.52295, 258.2749, 263.54834, 266.59814, " y="2067, ">
				The locator of a remote
		</text>
		<text fill="gray" font-size="9" font-family="Segoe UI" x="178, 182.70654, 186.8374, 192.12842, 195.25732, 199.96387, 203.78271, 207.60156, 209.78125, 215.05469, 220.14795, 222.61328, 227.88672, 230.70361, 233.16895, 236.29785, 238.47754, 243.77734, 248.87061, 251.92041, " y="2079, ">
				expression of rights
		</text>
		<rect fill="white" x="182" y="2032" width="36" height="16"/>
		<text font-size="12" font-weight="600" font-family="Segoe UI" x="182, 189.22461, 193.95312, 200.44531, " y="2045, ">
				href
		</text>
		<rect fill="none" stroke="black" stroke-width="1" stroke-linecap="square" stroke-miterlimit="4" transform="translate(0.5 0.5)" x="173" y="2030" width="51" height="20"/>
		<rect x="164" y="2007" width="11" height="11"/>
		<rect fill="white" x="165" y="2008" width="9" height="9"/>
		<rect x="166" y="2012" width="7" height="1"/>
		<rect x="107" y="1278" width="11" height="11"/>
		<rect fill="white" x="108" y="1279" width="9" height="9"/>
		<rect x="109" y="1283" width="7" height="1"/>
	</g>
</svg>
