<?xml version="1.0" encoding="utf-8" ?>
<svg xmlns="http://www.w3.org/2000/svg" xmlns:xlink="http://www.w3.org/1999/xlink" width="389" height="1828">
	<clipPath id="cl_52e">
		<rect x="-10" y="-5" width="389" height="1828"/>
	</clipPath>
	<g clip-path="url(#cl_52e)">
		<rect fill="#FFFFC0" x="140" width="183" height="1202"/>
		<rect fill="none" stroke="gray" stroke-width="1" stroke-linecap="square" stroke-miterlimit="4" transform="translate(0.5 0.5)" x="140" width="182" height="1201"/>
		<path fill="none" stroke="black" stroke-width="1" stroke-linecap="square" stroke-miterlimit="4" transform="translate(0.5 0.5)" d="M65 613L152 613"/>
		<path fill="none" stroke="black" stroke-width="1" stroke-linecap="square" stroke-miterlimit="4" transform="translate(0.5 0.5)" d="M153 613L153 1509"/>
		<path fill="none" stroke="black" stroke-width="1" stroke-linecap="square" stroke-miterlimit="4" transform="translate(0.5 0.5)" d="M153 1510L167 1510"/>
		<path fill="none" stroke="black" stroke-width="1" stroke-linecap="square" stroke-miterlimit="4" transform="translate(0.5 0.5)" d="M153 613L167 613"/>
		<rect fill="silver" x="4" y="607" width="60" height="21"/>
		<rect fill="white" y="603" width="60" height="21"/>
		<rect fill="#FFFFC0" x="148" y="8" width="62" height="16"/>
		<text fill="gray" font-size="12" font-weight="600" font-family="Segoe UI" x="148, 154.42773, 159.09766, 163.91992, 167.33008, 174.58984, 182.01953, 188.51172, 194.96875, 202.41016, " y="21, ">
				StringType
		</text>
		<rect fill="white" x="5" y="630" width="120" height="36"/>
		<text fill="gray" font-size="9" font-family="Segoe UI" x="5, 9.715332, 14.808594, 19.515137, 21.980469, 25.799316, 30.505859, 35.599121, 40.898926, 45.605469, 48.734375, 51.199707, 56.473145, 59.290039, 61.755371, 64.805176, 69.898438, 74.60498, 77.070312, 79.25, 82.299805, 87.006348, 94.758301, 98.577148, " y="640, ">
				The sender of the items,
		</text>
		<text fill="gray" font-size="9" font-family="Segoe UI" x="5, 11.503906, 16.597168, 18.776855, 22.934082, 28.027344, 30.492676, 38.244629, 42.82373, 47.178711, 49.644043, 54.935059, 59.641602, 62.106934, 66.686035, 71.779297, 74.244629, 79.518066, 82.646973, 87.946777, 92.525879, 97.619141, 99.798828, 103.61768, 108.19678, 111.24658, 113.42627, 118.69971, " y="652, ">
				which may be an organisation
		</text>
		<text fill="gray" font-size="9" font-family="Segoe UI" x="5, 10.273438, 13.402344, 15.867676, 20.446777, 22.912109, 28.203125, 32.909668, 36.038574, 39.857422, 45.130859, " y="664, ">
				or a person
		</text>
		<rect fill="white" x="9" y="605" width="39" height="16"/>
		<text font-size="12" font-weight="600" font-family="Segoe UI" x="9, 14.279297, 20.771484, 28.03125, 35.460938, 41.953125, " y="618, ">
				sender
		</text>
		<path fill="none" stroke="black" stroke-width="1" stroke-linecap="square" stroke-miterlimit="4" transform="translate(0.5 0.5)" d="M2 605L7 605"/>
		<path fill="none" stroke="black" stroke-width="1" stroke-linecap="square" stroke-miterlimit="4" transform="translate(0.5 0.5)" d="M2 607L6 607"/>
		<path fill="none" stroke="black" stroke-width="1" stroke-linecap="square" stroke-miterlimit="4" transform="translate(0.5 0.5)" d="M2 609L6 609"/>
		<rect fill="#FFFFC0" x="214" y="8" width="59" height="16"/>
		<text fill="gray" font-size="12" font-family="Segoe UI" x="214, 217.62109, 223.89648, 229.4043, 233.4707, 239.74609, 246.53711, 251.62891, 254.53516, 261.56641, 268.35742, " y="21, ">
				(extension)
		</text>
		<rect fill="none" stroke="black" stroke-width="1" stroke-linecap="square" stroke-miterlimit="4" transform="translate(0.5 0.5)" y="603" width="59" height="20"/>
		<path fill="white" d="M245 55L245 36L168 36L168 55L168 1189L315 1189L315 55L245 55Z"/>
		<rect fill="white" x="188" y="38" width="51" height="16"/>
		<text font-size="12" font-style="italic" font-family="Segoe UI" x="188, 194.50391, 198.38281, 202.26172, 206.5332, 209.63867, 216.14258, 222.83984, 226.73047, 232.57227, " y="51, ">
				attributes
		</text>
		<path fill="none" stroke="black" stroke-width="1" stroke-linecap="square" stroke-miterlimit="4" transform="translate(0.5 0.5)" d="M245 55L245 36L168 36L168 55L168 1189L315 1189L315 55L245 55Z"/>
		<rect fill="silver" x="186" y="68" width="52" height="21"/>
		<rect fill="white" x="182" y="64" width="52" height="21"/>
		<rect fill="white" x="187" y="91" width="101" height="24"/>
		<text fill="gray" font-size="9" font-family="Segoe UI" x="187, 191.71533, 196.80859, 201.51514, 203.98047, 206.16016, 211.43359, 215.59082, 220.16992, 222.34961, 224.81494, 226.99463, 232.29443, 237.00098, 242.09424, 245.14404, 247.32373, 250.14062, 252.32031, 257.02686, 260.15576, 262.62109, 267.89453, 270.71143, 273.17676, 276.22656, 281.31982, " y="101, ">
				The local identifier of the
		</text>
		<text fill="gray" font-size="9" font-family="Segoe UI" x="187, 192.29102, 195.41992, 200.69336, 205.98438, 210.69092, 213.81982, 216.86963, 221.22461, " y="113, ">
				property.
		</text>
		<rect fill="white" x="191" y="66" width="36" height="16"/>
		<text font-size="12" font-weight="600" font-family="Segoe UI" x="191, 194.41016, " y="79, ">
				id
		</text>
		<rect fill="none" stroke="black" stroke-width="1" stroke-linecap="square" stroke-miterlimit="4" transform="translate(0.5 0.5)" x="182" y="64" width="51" height="20"/>
		<rect fill="silver" x="186" y="126" width="58" height="21"/>
		<rect fill="white" x="182" y="122" width="58" height="21"/>
		<rect fill="white" x="187" y="149" width="121" height="120"/>
		<text fill="gray" font-size="9" font-family="Segoe UI" x="187, 189.39502, 192.21191, 194.67725, 197.72705, 202.82031, 207.52686, 209.99219, 215.2832, 218.41211, 223.68555, 228.97656, 233.68311, 236.81201, 239.86182, 244.2168, 246.68213, 250.99316, 255.57227, 257.75195, 262.84521, 267.55176, 270.01709, 272.19678, 276.01562, 278.48096, 283.57422, 288.84766, " y="159, ">
				If the property value is not
		</text>
		<text fill="gray" font-size="9" font-family="Segoe UI" x="187, 192.2998, 197.00635, 199.82324, 202.00293, 207.09619, 211.80273, 217.10254, 219.05371, 221.51904, 225.33789, 230.62891, 235.33545, 239.49268, 241.67236, 244.48926, 246.66895, 251.37549, 255.19434, 257.65967, 264.16357, 269.25684, 271.43652, 275.59375, 280.68701, 283.15234, 287.85889, 292.95215, 296.00195, 298.18164, 301.23145, " y="171, ">
				defined, specifies which entity
		</text>
		<text fill="gray" font-size="9" font-family="Segoe UI" x="187, 189.71582, 195.00684, 199.71338, 202.84229, 206.66113, 211.93457, 217.02783, 218.979, 221.44434, 226.71777, 229.84668, 235.14648, 239.72559, 244.81885, 246.99854, 250.81738, 255.39648, 258.44629, 260.62598, 265.89941, 270.99268, 273.45801, 278.73145, " y="183, ">
				(person, organisation or
		</text>
		<text fill="gray" font-size="9" font-family="Segoe UI" x="187, 190.81885, 195.17383, 198.99268, 202.04248, 206.74902, 214.50098, 217.2168, 219.68213, 226.18604, 228.36572, 230.54541, 232.7251, 235.19043, 239.89697, 245.19678, 247.37646, 250.42627, 252.8916, 255.94141, 261.03467, 265.74121, 268.20654, 273.49756, 276.62646, 281.8999, 287.19092, 291.89746, 295.02637, 298.07617, " y="195, ">
				system) will edit the property
		</text>
		<text fill="gray" font-size="9" font-family="Segoe UI" x="187, 191.31104, 195.89014, 198.06982, 203.16309, 207.86963, 210.33496, 213.93408, 216.39941, 221.10596, 225.23682, 230.52783, 233.65674, 238.36328, 242.18213, 246.00098, 250.70752, 256.00732, 258.47266, 263.76367, 268.11865, 270.58398, 275.16309, 277.62842, 284.41357, 289.98584, 295.25928, 300.55908, 305.26562, " y="207, ">
				value - expressed by a QCode.
		</text>
		<text fill="gray" font-size="9" font-family="Segoe UI" x="187, 189.39502, 192.21191, 194.67725, 197.72705, 202.82031, 207.52686, 209.99219, 215.2832, 218.41211, 223.68555, 228.97656, 233.68311, 236.81201, 239.86182, 244.2168, 246.68213, 250.99316, 255.57227, 257.75195, 262.84521, 267.55176, 270.01709, 272.19678, " y="219, ">
				If the property value is
		</text>
		<text fill="gray" font-size="9" font-family="Segoe UI" x="187, 192.2998, 197.00635, 199.82324, 202.00293, 207.09619, 211.80273, 217.10254, 219.05371, 221.51904, 225.33789, 230.62891, 235.33545, 239.49268, 241.67236, 244.48926, 246.66895, 251.37549, 255.19434, 257.65967, 264.16357, 269.25684, 271.43652, 275.59375, 280.68701, 283.15234, 287.85889, 292.95215, 296.00195, 298.18164, 301.23145, " y="231, ">
				defined, specifies which entity
		</text>
		<text fill="gray" font-size="9" font-family="Segoe UI" x="187, 189.71582, 195.00684, 199.71338, 202.84229, 206.66113, 211.93457, 217.02783, 218.979, 221.44434, 226.71777, 229.84668, 235.14648, 239.72559, 244.81885, 246.99854, 250.81738, 255.39648, 258.44629, 260.62598, 265.89941, 270.99268, 273.45801, 278.73145, " y="243, ">
				(person, organisation or
		</text>
		<text fill="gray" font-size="9" font-family="Segoe UI" x="187, 190.81885, 195.17383, 198.99268, 202.04248, 206.74902, 214.50098, 217.2168, 219.68213, 224.77539, 229.35449, 233.17334, 235.63867, 240.34521, 245.64502, 247.82471, 250.87451, 255.58105, 260.88086, 263.34619, 266.396, 271.48926, " y="255, ">
				system) has edited the
		</text>
		<text fill="gray" font-size="9" font-family="Segoe UI" x="187, 192.29102, 195.41992, 200.69336, 205.98438, 210.69092, 213.81982, 216.86963, 221.22461, 223.68994, 228.00098, 232.58008, 234.75977, 239.85303, 244.55957, " y="267, ">
				property value.
		</text>
		<rect fill="white" x="191" y="124" width="42" height="16"/>
		<text font-size="12" font-weight="600" font-family="Segoe UI" x="191, 196.75977, 201.48828, 207.98047, 214.4375, 219.06055, 226.39648, " y="137, ">
				creator
		</text>
		<rect fill="none" stroke="black" stroke-width="1" stroke-linecap="square" stroke-miterlimit="4" transform="translate(0.5 0.5)" x="182" y="122" width="57" height="20"/>
		<rect fill="silver" x="186" y="280" width="73" height="21"/>
		<rect fill="white" x="182" y="276" width="73" height="21"/>
		<rect fill="white" x="187" y="303" width="120" height="108"/>
		<text fill="gray" font-size="9" font-family="Segoe UI" x="187, 189.39502, 192.21191, 194.67725, 197.72705, 202.82031, 207.52686, 209.99219, 215.2832, 218.41211, 223.68555, 228.97656, 233.68311, 236.81201, 239.86182, 244.2168, 246.68213, 250.99316, 255.57227, 257.75195, 262.84521, 267.55176, 270.01709, 272.19678, 276.01562, 278.48096, 283.57422, 288.84766, " y="313, ">
				If the property value is not
		</text>
		<text fill="gray" font-size="9" font-family="Segoe UI" x="187, 192.2998, 197.00635, 199.82324, 202.00293, 207.09619, 211.80273, 217.10254, 219.05371, 221.51904, 225.33789, 230.62891, 235.33545, 239.49268, 241.67236, 244.48926, 246.66895, 251.37549, 255.19434, 257.65967, 264.16357, 269.25684, 271.43652, 275.59375, 280.68701, 283.15234, 287.85889, 292.95215, 296.00195, 298.18164, 301.23145, " y="325, ">
				defined, specifies which entity
		</text>
		<text fill="gray" font-size="9" font-family="Segoe UI" x="187, 189.71582, 195.00684, 199.71338, 202.84229, 206.66113, 211.93457, 217.02783, 218.979, 221.44434, 226.71777, 229.84668, 235.14648, 239.72559, 244.81885, 246.99854, 250.81738, 255.39648, 258.44629, 260.62598, 265.89941, 270.99268, 273.45801, 278.73145, " y="337, ">
				(person, organisation or
		</text>
		<text fill="gray" font-size="9" font-family="Segoe UI" x="187, 190.81885, 195.17383, 198.99268, 202.04248, 206.74902, 214.50098, 217.2168, 219.68213, 226.18604, 228.36572, 230.54541, 232.7251, 235.19043, 239.89697, 245.19678, 247.37646, 250.42627, 252.8916, 255.94141, 261.03467, 265.74121, 268.20654, 273.49756, 276.62646, 281.8999, 287.19092, 291.89746, 295.02637, 298.07617, " y="349, ">
				system) will edit the property
		</text>
		<text fill="gray" font-size="9" font-family="Segoe UI" x="187, 190.59912, 193.06445, 197.771, 201.90186, 207.19287, 210.32178, 215.02832, 218.84717, 222.66602, 227.37256, 232.67236, 235.1377, 240.42871, 244.78369, 247.24902, 251.82812, 254.29346, 260.47656, 265.85986, 268.25488, 270.20605, 272.67139, 275.06641, 277.8833, 280.34863, 283.39844, 288.4917, " y="361, ">
				- expressed by a URI. If the
		</text>
		<text fill="gray" font-size="9" font-family="Segoe UI" x="187, 192.29102, 195.41992, 200.69336, 205.98438, 210.69092, 213.81982, 216.86963, 221.22461, 223.68994, 228.00098, 232.58008, 234.75977, 239.85303, 244.55957, 247.0249, 249.20459, 253.02344, 255.48877, 260.78857, 265.49512, 268.31201, 270.4917, 275.58496, 280.2915, 285.59131, " y="373, ">
				property value is defined,
		</text>
		<text fill="gray" font-size="9" font-family="Segoe UI" x="187, 190.81885, 196.10986, 200.81641, 204.97363, 207.15332, 209.97021, 212.1499, 216.85645, 220.67529, 223.14062, 229.64453, 234.73779, 236.91748, 241.07471, 246.16797, 248.6333, 253.33984, 258.43311, 261.48291, 263.6626, 266.7124, 271.06738, 273.53271, 276.24854, 281.53955, 286.24609, 289.375, 293.19385, 298.46729, 303.56055, " y="385, ">
				specifies which entity (person,
		</text>
		<text fill="gray" font-size="9" font-family="Segoe UI" x="187, 192.27344, 195.40234, 200.70215, 205.28125, 210.37451, 212.5542, 216.37305, 220.95215, 224.00195, 226.18164, 231.45508, 236.54834, 239.01367, 244.28711, 247.41602, 249.88135, 253.7002, 258.05518, 261.87402, 264.92383, 269.63037, 277.38232, 280.09814, 282.56348, 287.65674, 292.23584, " y="397, ">
				organisation or system) has
		</text>
		<text fill="gray" font-size="9" font-family="Segoe UI" x="187, 191.70654, 197.00635, 199.18604, 202.23584, 206.94238, 212.24219, 214.70752, 217.75732, 222.85059, 227.55713, 230.02246, 235.31348, 238.44238, 243.71582, 249.00684, 253.71338, 256.84229, 259.89209, 264.24707, " y="409, ">
				edited the property.
		</text>
		<rect fill="white" x="191" y="278" width="57" height="16"/>
		<text font-size="12" font-weight="600" font-family="Segoe UI" x="191, 196.75977, 201.48828, 207.98047, 214.4375, 219.06055, 226.39648, 231.20703, 238.4668, 243.28906, " y="291, ">
				creatoruri
		</text>
		<rect fill="none" stroke="black" stroke-width="1" stroke-linecap="square" stroke-miterlimit="4" transform="translate(0.5 0.5)" x="182" y="276" width="72" height="20"/>
		<rect fill="silver" x="186" y="422" width="69" height="21"/>
		<rect fill="white" x="182" y="418" width="69" height="21"/>
		<rect fill="white" x="187" y="445" width="119" height="72"/>
		<text fill="gray" font-size="9" font-family="Segoe UI" x="187, 191.71533, 196.80859, 201.51514, 203.98047, 209.28027, 213.85938, 216.90918, 221.61572, 224.08105, 226.79688, 231.37598, 236.46924, 241.76904, 243.72021, 246.18555, 251.45898, 256.75, 259.7998, 261.97949, 267.25293, 272.34619, 276.92529, 279.10498, 281.28467, 285.63965, 287.59082, 290.05615, 293.10596, 298.19922, " y="455, ">
				The date (and, optionally, the
		</text>
		<text fill="gray" font-size="9" font-family="Segoe UI" x="187, 190.0498, 192.22949, 199.98145, 204.68799, 207.40381, 209.86914, 216.37305, 221.46631, 226.17285, 231.26611, 233.73145, 236.78125, 241.87451, 246.58105, 249.04639, 254.3374, 257.46631, 262.73975, 268.03076, 272.7373, 275.86621, 278.91602, 283.271, 285.73633, 292.24023, 296.81934, " y="467, ">
				time) when the property was
		</text>
		<text fill="gray" font-size="9" font-family="Segoe UI" x="187, 189.17969, 193.75879, 197.57764, 200.62744, 203.09277, 210.84473, 216.11816, 221.41797, 223.59766, 226.41455, 228.59424, 233.30078, 238.60059, 240.55176, 243.01709, 247.73242, 252.82568, 257.53223, 259.99756, 262.17725, 267.27051, 269.4502, 272.5, 274.67969, 279.25879, 281.43848, 283.90381, 288.21484, 292.79395, 294.97363, 300.06689, " y="479, ">
				last modified. The initial value
		</text>
		<text fill="gray" font-size="9" font-family="Segoe UI" x="187, 189.17969, 192.99854, 195.46387, 198.51367, 203.60693, 208.31348, 210.77881, 216.07861, 220.65771, 223.70752, 228.41406, 230.87939, 233.59521, 238.17432, 243.26758, 248.56738, 250.51855, 252.98389, 258.25732, 263.54834, 266.59814, 268.77783, 274.05127, 279.14453, 283.72363, 285.90332, 288.08301, 292.43799, " y="491, ">
				is the date (and, optionally,
		</text>
		<text fill="gray" font-size="9" font-family="Segoe UI" x="187, 190.0498, 195.14307, 199.84961, 202.31494, 205.36475, 207.54443, 215.29639, 220.00293, 222.71875, 225.18408, 230.45752, 233.27441, 235.73975, 239.89697, 243.02588, 247.73242, 252.31152, 255.36133, 257.54102, 262.81445, 267.90771, 270.37305, 275.64648, 278.46338, 280.92871, 283.97852, 289.07178, " y="503, ">
				the time) of creation of the
		</text>
		<text fill="gray" font-size="9" font-family="Segoe UI" x="187, 192.29102, 195.41992, 200.69336, 205.98438, 210.69092, 213.81982, 216.86963, 221.22461, " y="515, ">
				property.
		</text>
		<rect fill="white" x="191" y="420" width="53" height="16"/>
		<text font-size="12" font-weight="600" font-family="Segoe UI" x="191, 201.99219, 209.32812, 216.75781, 220.16797, 224.76758, 228.17773, 234.66992, " y="433, ">
				modified
		</text>
		<rect fill="none" stroke="black" stroke-width="1" stroke-linecap="square" stroke-miterlimit="4" transform="translate(0.5 0.5)" x="182" y="418" width="68" height="20"/>
		<rect fill="silver" x="186" y="528" width="59" height="21"/>
		<rect fill="white" x="182" y="524" width="59" height="21"/>
		<rect fill="white" x="187" y="551" width="118" height="108"/>
		<text fill="gray" font-size="9" font-family="Segoe UI" x="187, 189.39502, 192.21191, 194.67725, 198.49609, 203.20264, 206.25244, 208.71777, 211.76758, 217.04102, 219.50635, 222.55615, 225.68506, 230.77832, 235.48486, 237.9502, 241, 246.09326, " y="561, ">
				If set to true the
		</text>
		<text fill="gray" font-size="9" font-family="Segoe UI" x="187, 191.15723, 196.43066, 199.55957, 202.68848, 207.39502, 211.21387, 216.50488, 221.77832, 226.87158, 232.17139, 234.35107, 239.44434, 244.74414, 247.20947, 252.50049, 255.62939, 260.90283, 266.19385, 270.90039, 274.0293, 277.0791, 281.43408, 283.89941, 290.40332, 294.98242, " y="573, ">
				corresponding property was
		</text>
		<text fill="gray" font-size="9" font-family="Segoe UI" x="187, 191.5791, 196.87891, 202.17871, 206.88525, 212.18506, 214.65039, 217.7002, 222.97363, 225.43896, 228.48877, 233.58203, 238.28857, 240.75391, 246.92822, 251.77979, 254.24512, 256.64014, 259.68994, 264.39648, 272.14844, 274.61377, 277.43066, 282.7041, 285.83301, 288.29834, " y="585, ">
				added to the G2 Item for a
		</text>
		<text fill="gray" font-size="9" font-family="Segoe UI" x="187, 190.81885, 196.10986, 200.81641, 204.97363, 207.15332, 209.97021, 212.1499, 216.30713, 218.77246, 222.92969, 228.02295, 231.8418, 234.8916, 240.16504, 247.91699, 252.62354, 255.75244, 258.21777, 263.49121, 266.62012, 269.08545, 274.38525, 277.51416, 282.7876, 287.88086, 293.17188, 295.63721, 300.91064, " y="597, ">
				specific customer or group of
		</text>
		<text fill="gray" font-size="9" font-family="Segoe UI" x="187, 191.15723, 196.25049, 200.06934, 203.11914, 208.39258, 216.14453, 220.85107, 223.97998, 227.79883, 230.26416, 235.5376, 240.63086, 242.81055, 247.16553, 249.1167, 251.58203, 256.29736, 261.39062, 266.09717, 268.5625, 273.8623, 278.56885, 281.38574, 285.96484, 291.05811, 293.23779, " y="609, ">
				customers only. The default
		</text>
		<text fill="gray" font-size="9" font-family="Segoe UI" x="187, 191.31104, 195.89014, 198.06982, 203.16309, 207.86963, 210.33496, 215.6084, 218.42529, 220.89062, 223.94043, 229.03369, 231.21338, 235.03223, 237.49756, 242.78857, 245.91748, 251.19092, 256.48193, 261.18848, 264.31738, 267.36719, 271.72217, 274.1875, 276.36719, 280.18604, 282.65137, 285.46826, 290.04736, 292.22705, 296.0459, " y="621, ">
				value of this property is false
		</text>
		<text fill="gray" font-size="9" font-family="Segoe UI" x="187, 193.50391, 198.59717, 200.77686, 204.93408, 210.02734, 212.49268, 217.07178, 222.36279, 227.65381, 229.8335, 232.01318, 236.71973, 240.53857, 243.00391, 249.50781, 254.60107, 259.30762, 264.40088, 266.86621, 269.91602, 275.00928, 277.18896, " y="633, ">
				which applies when this
		</text>
		<text fill="gray" font-size="9" font-family="Segoe UI" x="187, 191.5791, 194.62891, 197.67871, 200.80762, 202.9873, 208.27832, 213.37158, 216.42139, 221.12793, 223.59326, 225.77295, 229.5918, 232.05713, 237.15039, 242.42383, 245.47363, 247.93896, 253.03223, 256.85107, 261.55762, 266.85742, 269.32275, 275.82666, 278.00635, 281.05615, 286.14941, 288.61475, 291.66455, 296.75781, " y="645, ">
				attribute is not used with the
		</text>
		<text fill="gray" font-size="9" font-family="Segoe UI" x="187, 192.29102, 195.41992, 200.69336, 205.98438, 210.69092, 213.81982, 216.86963, 221.22461, " y="657, ">
				property.
		</text>
		<rect fill="white" x="191" y="526" width="43" height="16"/>
		<text font-size="12" font-weight="600" font-family="Segoe UI" x="191, 196.75977, 204.01953, 209.29883, 213.92188, 221.25781, " y="539, ">
				custom
		</text>
		<rect fill="none" stroke="black" stroke-width="1" stroke-linecap="square" stroke-miterlimit="4" transform="translate(0.5 0.5)" x="182" y="524" width="58" height="20"/>
		<rect fill="silver" x="186" y="670" width="52" height="21"/>
		<rect fill="white" x="182" y="666" width="52" height="21"/>
		<rect fill="white" x="187" y="693" width="118" height="48"/>
		<text fill="gray" font-size="9" font-family="Segoe UI" x="187, 189.39502, 194.48828, 199.78809, 201.96777, 206.125, 210.7041, 213.75391, 218.46045, 222.2793, 224.74463, 230.03564, 234.39062, 236.85596, 243.35986, 248.45312, 250.63281, 254.79004, 259.8833, 262.34863, 270.10059, 274.80713, 279.38623, 284.47949, 288.29834, 290.76367, 293.81348, 298.90674, " y="703, ">
				Indicates by which means the
		</text>
		<text fill="gray" font-size="9" font-family="Segoe UI" x="187, 191.31104, 195.89014, 198.06982, 203.16309, 207.86963, 210.33496, 216.83887, 221.41797, 225.23682, 227.70215, 232.40869, 236.53955, 239.58936, 242.71826, 247.29736, 251.45459, 254.50439, 259.21094, 264.51074, 266.97607, 269.79297, 272.92188, 278.19531, 285.94727, 288.4126, 291.4624, 296.55566, " y="715, ">
				value was extracted from the
		</text>
		<text fill="gray" font-size="9" font-family="Segoe UI" x="187, 191.15723, 196.43066, 201.52393, 204.57373, 209.28027, 214.37354, 217.42334, 219.88867, 223.48779, 225.95312, 230.65967, 234.79053, 240.08154, 243.21045, 247.91699, 251.73584, 255.55469, 260.26123, 265.56104, 268.02637, 273.31738, 277.67236, 280.1377, " y="727, ">
				content - expressed by a
		</text>
		<text fill="gray" font-size="9" font-family="Segoe UI" x="187, 193.78516, 199.35742, 204.63086, 209.93066, " y="739, ">
				QCode
		</text>
		<rect fill="white" x="191" y="668" width="36" height="16"/>
		<text font-size="12" font-weight="600" font-family="Segoe UI" x="191, 198.22461, 205.56055, " y="681, ">
				how
		</text>
		<rect fill="none" stroke="black" stroke-width="1" stroke-linecap="square" stroke-miterlimit="4" transform="translate(0.5 0.5)" x="182" y="666" width="51" height="20"/>
		<rect fill="silver" x="186" y="752" width="57" height="21"/>
		<rect fill="white" x="182" y="748" width="57" height="21"/>
		<rect fill="white" x="187" y="775" width="118" height="36"/>
		<text fill="gray" font-size="9" font-family="Segoe UI" x="187, 189.39502, 194.48828, 199.78809, 201.96777, 206.125, 210.7041, 213.75391, 218.46045, 222.2793, 224.74463, 230.03564, 234.39062, 236.85596, 243.35986, 248.45312, 250.63281, 254.79004, 259.8833, 262.34863, 270.10059, 274.80713, 279.38623, 284.47949, 288.29834, 290.76367, 293.81348, 298.90674, " y="785, ">
				Indicates by which means the
		</text>
		<text fill="gray" font-size="9" font-family="Segoe UI" x="187, 191.31104, 195.89014, 198.06982, 203.16309, 207.86963, 210.33496, 216.83887, 221.41797, 225.23682, 227.70215, 232.40869, 236.53955, 239.58936, 242.71826, 247.29736, 251.45459, 254.50439, 259.21094, 264.51074, 266.97607, 269.79297, 272.92188, 278.19531, 285.94727, 288.4126, 291.4624, 296.55566, " y="797, ">
				value was extracted from the
		</text>
		<text fill="gray" font-size="9" font-family="Segoe UI" x="187, 191.15723, 196.43066, 201.52393, 204.57373, 209.28027, 214.37354, 217.42334, 219.88867, 223.48779, 225.95312, 230.65967, 234.79053, 240.08154, 243.21045, 247.91699, 251.73584, 255.55469, 260.26123, 265.56104, 268.02637, 273.31738, 277.67236, 280.1377, 284.7168, 287.18213, 293.36523, 298.74854, " y="809, ">
				content - expressed by a URI
		</text>
		<rect fill="white" x="191" y="750" width="41" height="16"/>
		<text font-size="12" font-weight="600" font-family="Segoe UI" x="191, 198.22461, 205.56055, 215.12891, 222.38867, 227.21094, " y="763, ">
				howuri
		</text>
		<rect fill="none" stroke="black" stroke-width="1" stroke-linecap="square" stroke-miterlimit="4" transform="translate(0.5 0.5)" x="182" y="748" width="56" height="20"/>
		<rect fill="silver" x="186" y="822" width="52" height="21"/>
		<rect fill="white" x="182" y="818" width="52" height="21"/>
		<rect fill="white" x="187" y="845" width="113" height="36"/>
		<text fill="gray" font-size="9" font-family="Segoe UI" x="187, 195.40674, 200.5, 204.85498, 207.32031, 210.37012, 215.46338, 220.16992, 222.63525, 230.38721, 235.09375, 238.14355, 242.72266, 248.02246, 252.60156, 255.65137, 260.23047, 262.6958, 267.78906, 272.36816, 276.18701, 278.65234, 283.94336, 288.6499, 293.35645, " y="855, ">
				Why the metadata has been
		</text>
		<text fill="gray" font-size="9" font-family="Segoe UI" x="187, 189.17969, 194.27295, 198.43018, 200.60986, 205.70312, 211.00293, 215.70947, 221.00928, 223.47461, 227.07373, 229.53906, 234.24561, 238.37646, 243.66748, 246.79639, 251.50293, 255.32178, 259.14062, 263.84717, 269.14697, 271.6123, 276.90332, 281.2583, 283.72363, " y="867, ">
				included - expressed by a
		</text>
		<text fill="gray" font-size="9" font-family="Segoe UI" x="187, 193.78516, 199.35742, 204.63086, 209.93066, " y="879, ">
				QCode
		</text>
		<rect fill="white" x="191" y="820" width="36" height="16"/>
		<text font-size="12" font-weight="600" font-family="Segoe UI" x="191, 200.56836, 207.79297, " y="833, ">
				why
		</text>
		<rect fill="none" stroke="black" stroke-width="1" stroke-linecap="square" stroke-miterlimit="4" transform="translate(0.5 0.5)" x="182" y="818" width="51" height="20"/>
		<rect fill="silver" x="186" y="892" width="56" height="21"/>
		<rect fill="white" x="182" y="888" width="56" height="21"/>
		<rect fill="white" x="187" y="915" width="119" height="24"/>
		<text fill="gray" font-size="9" font-family="Segoe UI" x="187, 195.40674, 200.5, 204.85498, 207.32031, 210.37012, 215.46338, 220.16992, 222.63525, 230.38721, 235.09375, 238.14355, 242.72266, 248.02246, 252.60156, 255.65137, 260.23047, 262.6958, 267.78906, 272.36816, 276.18701, 278.65234, 283.94336, 288.6499, 293.35645, " y="925, ">
				Why the metadata has been
		</text>
		<text fill="gray" font-size="9" font-family="Segoe UI" x="187, 189.17969, 194.27295, 198.43018, 200.60986, 205.70312, 211.00293, 215.70947, 221.00928, 223.47461, 227.07373, 229.53906, 234.24561, 238.37646, 243.66748, 246.79639, 251.50293, 255.32178, 259.14062, 263.84717, 269.14697, 271.6123, 276.90332, 281.2583, 283.72363, 288.30273, 290.76807, 296.95117, 302.33447, " y="937, ">
				included - expressed by a URI
		</text>
		<rect fill="white" x="191" y="890" width="40" height="16"/>
		<text font-size="12" font-weight="600" font-family="Segoe UI" x="191, 200.56836, 207.79297, 214.25, 221.50977, 226.33203, " y="903, ">
				whyuri
		</text>
		<rect fill="none" stroke="black" stroke-width="1" stroke-linecap="square" stroke-miterlimit="4" transform="translate(0.5 0.5)" x="182" y="888" width="55" height="20"/>
		<rect fill="silver" x="186" y="950" width="97" height="21"/>
		<rect fill="white" x="182" y="946" width="97" height="21"/>
		<rect fill="white" x="187" y="973" width="117" height="72"/>
		<text fill="gray" font-size="9" font-family="Segoe UI" x="187, 193.78516, 198.87842, 203.58496, 206.05029, 211.32373, 214.45264, 216.91797, 224.66992, 229.24902, 234.34229, 238.69727, 241.1626, 245.31982, 250.59326, 255.68652, 259.50537, 262.55518, 265.68408, 270.26318, 272.44287, 277.53613, 280.58594, 284.40479, 286.87012, 289.91992, 295.01318, 299.59229, " y="983, ">
				One or many constraints that
		</text>
		<text fill="gray" font-size="9" font-family="Segoe UI" x="187, 191.5791, 196.87012, 202.16113, 204.34082, 208.6958, 211.16113, 214.21094, 219.48438, 221.94971, 227.24072, 232.33398, 237.625, 239.80469, 241.98438, 245.80322, 250.89648, 253.07617, 258.16943, 263.46924, 265.93457, 268.98438, 274.07764, 278.78418, 281.24951, 285.56055, 290.13965, 292.31934, 297.4126, " y="995, ">
				apply to publishing the value
		</text>
		<text fill="gray" font-size="9" font-family="Segoe UI" x="187, 192.27344, 195.09033, 197.55566, 200.60547, 205.69873, 210.40527, 212.87061, 218.16162, 221.29053, 226.56396, 231.85498, 236.56152, 239.69043, 242.74023, 247.09521, 249.56055, 253.15967, 255.625, 260.33154, 264.4624, 269.75342, 272.88232, 277.58887, 281.40771, 285.22656, 289.93311, " y="1007, ">
				of the property - expressed
		</text>
		<text fill="gray" font-size="9" font-family="Segoe UI" x="187, 192.29102, 196.646, 199.11133, 203.69043, 206.15576, 212.94092, 218.51318, 223.78662, 229.08643, 233.79297, 235.74414, 238.20947, 242.76221, 247.34131, 251.49854, 256.5918, 259.05713, 263.21436, 268.48779, 273.58105, 277.3999, 280.44971, 283.57861, 288.15771, 290.3374, 295.43066, " y="1019, ">
				by a QCode. Each constraint
		</text>
		<text fill="gray" font-size="9" font-family="Segoe UI" x="187, 191.5791, 196.87012, 202.16113, 204.34082, 206.52051, 211.22705, 215.0459, 217.51123, 220.56104, 225.83447, 228.2998, 232.87891, 235.05859, 237.23828, 239.70361, 245.00342, 249.70996, 253.52881, 257.68604, 262.39258, 267.48584, 272.78564, 277.36475, 282.45801, " y="1031, ">
				applies to all descendant
		</text>
		<text fill="gray" font-size="9" font-family="Segoe UI" x="187, 191.70654, 193.88623, 198.59277, 206.34473, 211.05127, 216.14453, 219.19434, 223.01318, " y="1043, ">
				elements.
		</text>
		<rect fill="white" x="191" y="948" width="81" height="16"/>
		<text font-size="12" font-weight="600" font-family="Segoe UI" x="191, 198.44141, 205.70117, 213.14258, 218.90234, 226.23828, 233.49805, 238.77734, 243.44727, 248.22266, 254.67969, 258.08984, 265.34961, " y="961, ">
				pubconstraint
		</text>
		<rect fill="none" stroke="black" stroke-width="1" stroke-linecap="square" stroke-miterlimit="4" transform="translate(0.5 0.5)" x="182" y="946" width="96" height="20"/>
		<rect fill="silver" x="186" y="1056" width="112" height="21"/>
		<rect fill="white" x="182" y="1052" width="112" height="21"/>
		<rect fill="white" x="187" y="1079" width="117" height="72"/>
		<text fill="gray" font-size="9" font-family="Segoe UI" x="187, 193.78516, 198.87842, 203.58496, 206.05029, 211.32373, 214.45264, 216.91797, 224.66992, 229.24902, 234.34229, 238.69727, 241.1626, 245.31982, 250.59326, 255.68652, 259.50537, 262.55518, 265.68408, 270.26318, 272.44287, 277.53613, 280.58594, 284.40479, 286.87012, 289.91992, 295.01318, 299.59229, " y="1089, ">
				One or many constraints that
		</text>
		<text fill="gray" font-size="9" font-family="Segoe UI" x="187, 191.5791, 196.87012, 202.16113, 204.34082, 208.6958, 211.16113, 214.21094, 219.48438, 221.94971, 227.24072, 232.33398, 237.625, 239.80469, 241.98438, 245.80322, 250.89648, 253.07617, 258.16943, 263.46924, 265.93457, 268.98438, 274.07764, 278.78418, 281.24951, 285.56055, 290.13965, 292.31934, 297.4126, " y="1101, ">
				apply to publishing the value
		</text>
		<text fill="gray" font-size="9" font-family="Segoe UI" x="187, 192.27344, 195.09033, 197.55566, 200.60547, 205.69873, 210.40527, 212.87061, 218.16162, 221.29053, 226.56396, 231.85498, 236.56152, 239.69043, 242.74023, 247.09521, 249.56055, 253.15967, 255.625, 260.33154, 264.4624, 269.75342, 272.88232, 277.58887, 281.40771, 285.22656, 289.93311, " y="1113, ">
				of the property - expressed
		</text>
		<text fill="gray" font-size="9" font-family="Segoe UI" x="187, 192.29102, 196.646, 199.11133, 203.69043, 206.15576, 212.33887, 217.72217, 220.11719, 222.06836, 224.53369, 229.08643, 233.66553, 237.82275, 242.91602, 245.38135, 249.53857, 254.81201, 259.90527, 263.72412, 266.77393, 269.90283, 274.48193, 276.66162, 281.75488, " y="1125, ">
				by a URI. Each constraint
		</text>
		<text fill="gray" font-size="9" font-family="Segoe UI" x="187, 191.5791, 196.87012, 202.16113, 204.34082, 206.52051, 211.22705, 215.0459, 217.51123, 220.56104, 225.83447, 228.2998, 232.87891, 235.05859, 237.23828, 239.70361, 245.00342, 249.70996, 253.52881, 257.68604, 262.39258, 267.48584, 272.78564, 277.36475, 282.45801, " y="1137, ">
				applies to all descendant
		</text>
		<text fill="gray" font-size="9" font-family="Segoe UI" x="187, 191.70654, 193.88623, 198.59277, 206.34473, 211.05127, 216.14453, 219.19434, 223.01318, " y="1149, ">
				elements.
		</text>
		<rect fill="white" x="191" y="1054" width="96" height="16"/>
		<text font-size="12" font-weight="600" font-family="Segoe UI" x="191, 198.44141, 205.70117, 213.14258, 218.90234, 226.23828, 233.49805, 238.77734, 243.44727, 248.22266, 254.67969, 258.08984, 265.34961, 270.01953, 277.2793, 282.10156, " y="1067, ">
				pubconstrainturi
		</text>
		<rect fill="none" stroke="black" stroke-width="1" stroke-linecap="square" stroke-miterlimit="4" transform="translate(0.5 0.5)" x="182" y="1052" width="111" height="20"/>
		<path fill="silver" d="M186 1167L191 1162L259 1162L264 1167L264 1178L259 1183L191 1183L186 1178L186 1167Z"/>
		<path fill="white" d="M182 1163L187 1158L255 1158L260 1163L260 1174L255 1179L187 1179L182 1174L182 1163Z"/>
		<rect fill="white" x="209" y="1160" width="46" height="16"/>
		<text font-size="12" font-weight="600" font-family="Segoe UI" x="209, 216.10742, 223.21484, 230.55078, 235.2207, 242.44531, 248.9375, " y="1173, ">
				##other
		</text>
		<rect fill="white" x="187" y="1160" width="20" height="16"/>
		<text fill="gray" font-size="12" font-family="Segoe UI" x="187, 193.10547, 199.89648, " y="1173, ">
				any
		</text>
		<path fill="none" stroke="black" stroke-width="1" stroke-linecap="square" stroke-miterlimit="4" transform="translate(0.5 0.5)" d="M182 1163L187 1158L254 1158L259 1163L259 1173L254 1178L187 1178L182 1173L182 1163Z"/>
		<rect x="173" y="41" width="11" height="11"/>
		<rect fill="white" x="174" y="42" width="9" height="9"/>
		<rect x="175" y="46" width="7" height="1"/>
		<path fill="white" d="M245 1233L245 1214L168 1214L168 1233L168 1805L354 1805L354 1233L245 1233Z"/>
		<rect fill="white" x="188" y="1216" width="51" height="16"/>
		<text font-size="12" font-style="italic" font-family="Segoe UI" x="188, 194.50391, 198.38281, 202.26172, 206.5332, 209.63867, 216.14258, 222.83984, 226.73047, 232.57227, " y="1229, ">
				attributes
		</text>
		<path fill="none" stroke="black" stroke-width="1" stroke-linecap="square" stroke-miterlimit="4" transform="translate(0.5 0.5)" d="M245 1233L245 1214L168 1214L168 1233L168 1805L354 1805L354 1233L245 1233Z"/>
		<path fill="white" d="M346 1261L346 1242L182 1242L182 1261L182 1772L346 1772L346 1261Z"/>
		<rect fill="white" x="187" y="1775" width="143" height="24"/>
		<text fill="gray" font-size="9" font-family="Segoe UI" x="189.46533, 195.27051, 197.73584, 203.03564, 206.16455, 211.43799, 216.53125, 221.82227, 224.2876, 229.56104, 232.37793, 234.84326, 239.42236, 242.47217, 245.52197, 248.65088, 250.83057, 256.12158, 261.21484, 264.26465, 268.97119, 272.79004, 275.25537, 280.34863, 284.16748, 288.87402, 294.17383, 296.63916, 299.45605, 304.72949, 307.8584, 310.32373, " y="1785, ">
				A group of attributes used for a
		</text>
		<text fill="gray" font-size="9" font-family="Segoe UI" x="187, 192.2998, 197.39307, 201.97217, 204.15186, 206.33154, 209.14844, 211.32812, 216.03467, 221.33447, 223.7998, 228.50635, 232.63721, 237.92822, 241.05713, 245.76367, 249.58252, 253.40137, 255.58105, 260.85449, 265.94775, 268.41309, 273.68652, 276.50342, 278.96875, 282.01855, 287.11182, 291.81836, 294.28369, 299.57471, 302.70361, 307.97705, 313.26807, 317.97461, 321.10352, 324.15332, " y="1797, ">
				qualified expression of the property
		</text>
		<rect fill="white" x="224" y="1244" width="116" height="16"/>
		<text font-size="12" font-weight="600" font-family="Segoe UI" x="224, 231.42969, 238.68945, 245.14648, 248.55664, 251.9668, 256.80664, 263.26367, 266.67383, 273.93359, 281.36328, 289.56055, 294.23047, 298.90039, 303.72266, 307.13281, 314.57422, 321.83398, 326.45703, 332.94922, " y="1257, ">
				qualifyingAttributes
		</text>
		<rect fill="white" x="202" y="1244" width="20" height="16"/>
		<text fill="gray" font-size="12" font-family="Segoe UI" x="202, 209.06641, 213.23828, " y="1257, ">
				grp
		</text>
		<path fill="none" stroke="gray" stroke-width="1" stroke-linecap="square" stroke-miterlimit="4" transform="translate(0.5 0.5)" d="M182 1261L182 1772L346 1772L346 1261L346 1261"/>
		<path fill="none" stroke="black" stroke-width="1" stroke-linecap="square" stroke-miterlimit="4" transform="translate(0.5 0.5)" d="M346 1261L346 1242L182 1242L182 1261"/>
		<rect x="187" y="1247" width="11" height="11"/>
		<rect fill="white" x="188" y="1248" width="9" height="9"/>
		<rect x="189" y="1252" width="7" height="1"/>
		<rect fill="silver" x="194" y="1275" width="52" height="21"/>
		<rect fill="white" x="190" y="1271" width="52" height="21"/>
		<rect fill="white" x="195" y="1298" width="121" height="48"/>
		<text fill="gray" font-size="9" font-family="Segoe UI" x="195, 200.80518, 203.27051, 207.42773, 212.70117, 217.79443, 221.95166, 226.6582, 231.94922, 234.99902, 237.46436, 239.64404, 244.94385, 249.65039, 254.74365, 257.79346, 259.97314, 262.79004, 264.96973, 269.67627, 272.80518, 275.27051, 279.97705, 284.10791, 289.39893, 292.52783, 297.23438, 301.05322, 304.87207, 309.57861, " y="1308, ">
				A concept identifier expressed
		</text>
		<text fill="gray" font-size="9" font-family="Segoe UI" x="195, 199.5791, 203.39795, 205.86328, 210.44238, 212.90771, 216.72656, 219.77637, 222.90527, 225.08496, 230.17822, 235.47803, 237.94336, 243.2168, 246.03369, 248.49902, 251.54883, 256.64209, 261.34863, 263.81396, 266.63086, 271.9043, 275.0332, 282.78516, 285.25049, 289.06934, 292.88818, 296.70703, 298.6582, 302.81543, 306.97266, 311.12988, " y="1320, ">
				as a string of the form sss:ccc,
		</text>
		<text fill="gray" font-size="9" font-family="Segoe UI" x="195, 201.50391, 206.59717, 211.30371, 214.43262, 219.13916, 221.60449, 225.42334, 229.24219, 233.06104, 235.52637, 237.70605, 241.5249, 243.99023, 248.56934, 251.03467, 254.85352, 259.01074, 264.104, 268.81055, 276.5625, 281.26904, 283.73438, 288.31348, 290.49316, 292.67285, 297.25195, " y="1332, ">
				where sss is a scheme alias
		</text>
		<text fill="gray" font-size="9" font-family="Segoe UI" x="195, 199.5791, 204.67236, 209.97217, 212.4375, 216.59473, 220.75195, 224.90918, 227.37451, 229.5542, 233.37305, 235.83838, 240.41748, 242.88281, 247.04004, 252.31348, 257.61328, " y="1344, ">
				and ccc is a code
		</text>
		<rect fill="white" x="199" y="1273" width="36" height="16"/>
		<text font-size="12" font-weight="600" font-family="Segoe UI" x="199, 206.42969, 212.18945, 219.52539, 226.95508, " y="1286, ">
				qcode
		</text>
		<rect fill="none" stroke="black" stroke-width="1" stroke-linecap="square" stroke-miterlimit="4" transform="translate(0.5 0.5)" x="190" y="1271" width="51" height="20"/>
		<rect fill="silver" x="194" y="1357" width="52" height="21"/>
		<rect fill="white" x="190" y="1353" width="52" height="21"/>
		<rect fill="white" x="195" y="1380" width="95" height="24"/>
		<text fill="gray" font-size="9" font-family="Segoe UI" x="195, 200.80518, 203.27051, 209.45361, 214.83691, 217.23193, 219.69727, 226.20117, 231.29443, 233.47412, 237.63135, 242.72461, 245.18994, 247.36963, 252.66943, 257.37598, 262.46924, 265.51904, 267.69873, 270.51562, 272.69531, 277.40186, 281.2207, 283.68604, " y="1390, ">
				A URI which identifies a
		</text>
		<text fill="gray" font-size="9" font-family="Segoe UI" x="195, 199.15723, 204.43066, 209.52393, 213.68115, 218.3877, 223.67871, 226.72852, " y="1402, ">
				concept.
		</text>
		<rect fill="white" x="199" y="1355" width="36" height="16"/>
		<text font-size="12" font-weight="600" font-family="Segoe UI" x="199, 206.25977, 211.08203, " y="1368, ">
				uri
		</text>
		<rect fill="none" stroke="black" stroke-width="1" stroke-linecap="square" stroke-miterlimit="4" transform="translate(0.5 0.5)" x="190" y="1353" width="51" height="20"/>
		<rect fill="silver" x="194" y="1415" width="52" height="21"/>
		<rect fill="white" x="190" y="1411" width="52" height="21"/>
		<rect fill="white" x="195" y="1438" width="121" height="24"/>
		<text fill="gray" font-size="9" font-family="Segoe UI" x="195, 200.80518, 203.27051, 207.42773, 212.70117, 217.79443, 221.95166, 226.6582, 231.94922, 234.99902, 237.46436, 239.64404, 244.94385, 249.65039, 254.74365, 257.79346, 259.97314, 262.79004, 264.96973, 269.67627, 272.80518, 275.27051, 279.97705, 284.10791, 289.39893, 292.52783, 297.23438, 301.05322, 304.87207, 309.57861, " y="1448, ">
				A concept identifier expressed
		</text>
		<text fill="gray" font-size="9" font-family="Segoe UI" x="195, 199.5791, 203.39795, 205.86328, 210.44238, 212.90771, 215.72461, 218.85352, 223.56006, 228.2666, 230.73193, 233.78174, 238.48828, 242.61914, 245.66895, 248.13428, 251.95312, 255.00293, 258.13184, 260.31152, 265.40479, " y="1460, ">
				as a free text string
		</text>
		<rect fill="white" x="199" y="1413" width="36" height="16"/>
		<text font-size="12" font-weight="600" font-family="Segoe UI" x="199, 202.41016, 205.82031, 210.44336, 216.93555, 221.71094, 228.16797, " y="1426, ">
				literal
		</text>
		<rect fill="none" stroke="black" stroke-width="1" stroke-linecap="square" stroke-miterlimit="4" transform="translate(0.5 0.5)" x="190" y="1411" width="51" height="20"/>
		<rect fill="silver" x="194" y="1473" width="52" height="21"/>
		<rect fill="white" x="190" y="1469" width="52" height="21"/>
		<rect fill="white" x="195" y="1496" width="120" height="48"/>
		<text fill="gray" font-size="9" font-family="Segoe UI" x="195, 199.71533, 204.80859, 209.51514, 211.98047, 215.03027, 219.38525, 224.67627, 229.38281, 231.84814, 237.12158, 239.93848, 242.40381, 245.45361, 250.54688, 255.25342, 257.71875, 261.87598, 267.14941, 272.24268, 276.3999, 281.10645, 286.39746, " y="1506, ">
				The type of the concept
		</text>
		<text fill="gray" font-size="9" font-family="Segoe UI" x="195, 199.5791, 203.39795, 207.2168, 209.39648, 214.69629, 219.78955, 224.49609, 229.7959, 232.26123, 236.84033, 240.65918, 243.12451, 247.70361, 250.16895, 254.32617, 259.59961, 264.69287, 267.74268, 270.87158, 276.14502, 278.32471, 280.50439, 285.21094, 290.51074, 292.97607, 298.24951, 301.37842, 303.84375, 308.42285, " y="1518, ">
				assigned as a controlled or an
		</text>
		<text fill="gray" font-size="9" font-family="Segoe UI" x="195, 200.09326, 205.18652, 209.34375, 214.61719, 219.71045, 222.76025, 225.88916, 231.1626, 233.34229, 235.52197, 240.22852, 245.52832, 247.99365, 253.28467, 256.41357, 261.68701, 266.97803, 271.68457, 274.81348, 277.86328, 282.21826, 284.68359, 288.99463, 293.57373, 295.75342, 300.84668, 305.55322, 308.01855, " y="1530, ">
				uncontrolled property value -
		</text>
		<text fill="gray" font-size="9" font-family="Segoe UI" x="195, 199.70654, 203.8374, 209.12842, 212.25732, 216.96387, 220.78271, 224.60156, 229.30811, 234.60791, 237.07324, 242.36426, 246.71924, 249.18457, 253.76367, 256.229, 263.01416, 268.58643, 273.85986, 279.15967, " y="1542, ">
				expressed by a QCode
		</text>
		<rect fill="white" x="199" y="1471" width="36" height="16"/>
		<text font-size="12" font-weight="600" font-family="Segoe UI" x="199, 203.66992, 210.12695, 217.56836, " y="1484, ">
				type
		</text>
		<rect fill="none" stroke="black" stroke-width="1" stroke-linecap="square" stroke-miterlimit="4" transform="translate(0.5 0.5)" x="190" y="1469" width="51" height="20"/>
		<rect fill="silver" x="194" y="1555" width="58" height="21"/>
		<rect fill="white" x="190" y="1551" width="58" height="21"/>
		<rect fill="white" x="195" y="1578" width="120" height="48"/>
		<text fill="gray" font-size="9" font-family="Segoe UI" x="195, 199.71533, 204.80859, 209.51514, 211.98047, 215.03027, 219.38525, 224.67627, 229.38281, 231.84814, 237.12158, 239.93848, 242.40381, 245.45361, 250.54688, 255.25342, 257.71875, 261.87598, 267.14941, 272.24268, 276.3999, 281.10645, 286.39746, " y="1588, ">
				The type of the concept
		</text>
		<text fill="gray" font-size="9" font-family="Segoe UI" x="195, 199.5791, 203.39795, 207.2168, 209.39648, 214.69629, 219.78955, 224.49609, 229.7959, 232.26123, 236.84033, 240.65918, 243.12451, 247.70361, 250.16895, 254.32617, 259.59961, 264.69287, 267.74268, 270.87158, 276.14502, 278.32471, 280.50439, 285.21094, 290.51074, 292.97607, 298.24951, 301.37842, 303.84375, 308.42285, " y="1600, ">
				assigned as a controlled or an
		</text>
		<text fill="gray" font-size="9" font-family="Segoe UI" x="195, 200.09326, 205.18652, 209.34375, 214.61719, 219.71045, 222.76025, 225.88916, 231.1626, 233.34229, 235.52197, 240.22852, 245.52832, 247.99365, 253.28467, 256.41357, 261.68701, 266.97803, 271.68457, 274.81348, 277.86328, 282.21826, 284.68359, 288.99463, 293.57373, 295.75342, 300.84668, 305.55322, 308.01855, " y="1612, ">
				uncontrolled property value -
		</text>
		<text fill="gray" font-size="9" font-family="Segoe UI" x="195, 199.70654, 203.8374, 209.12842, 212.25732, 216.96387, 220.78271, 224.60156, 229.30811, 234.60791, 237.07324, 242.36426, 246.71924, 249.18457, 253.76367, 256.229, 262.41211, 267.79541, " y="1624, ">
				expressed by a URI
		</text>
		<rect fill="white" x="199" y="1553" width="42" height="16"/>
		<text font-size="12" font-weight="600" font-family="Segoe UI" x="199, 203.66992, 210.12695, 217.56836, 224.06055, 231.32031, 236.14258, " y="1566, ">
				typeuri
		</text>
		<rect fill="none" stroke="black" stroke-width="1" stroke-linecap="square" stroke-miterlimit="4" transform="translate(0.5 0.5)" x="190" y="1551" width="57" height="20"/>
		<rect fill="silver" x="194" y="1637" width="52" height="21"/>
		<rect fill="white" x="190" y="1633" width="52" height="21"/>
		<rect fill="white" x="195" y="1660" width="120" height="36"/>
		<text fill="gray" font-size="9" font-family="Segoe UI" x="195, 200.80518, 203.27051, 206.39941, 211.10596, 213.92285, 216.10254, 221.1958, 225.90234, 233.6543, 238.36084, 243.4541, 246.50391, 248.96924, 254.24268, 257.05957, 259.5249, 262.57471, 267.66797, 272.37451, 274.83984, 278.65869, 283.36523, 291.11719, 295.69629, 300.78955, 303.83936, 306.01904, 310.17627, " y="1670, ">
				A refinement of the semantics
		</text>
		<text fill="gray" font-size="9" font-family="Segoe UI" x="195, 200.27344, 203.09033, 205.55566, 208.60547, 213.69873, 218.40527, 220.87061, 226.16162, 229.29053, 234.56396, 239.85498, 244.56152, 247.69043, 250.74023, 255.09521, 257.56055, 261.15967, 263.625, 268.33154, 272.4624, 277.75342, 280.88232, 285.58887, 289.40771, 293.22656, 297.93311, " y="1682, ">
				of the property - expressed
		</text>
		<text fill="gray" font-size="9" font-family="Segoe UI" x="195, 200.29102, 204.646, 207.11133, 211.69043, 214.15576, 220.94092, 226.51318, 231.78662, 237.08643, " y="1694, ">
				by a QCode
		</text>
		<rect fill="white" x="199" y="1635" width="36" height="16"/>
		<text font-size="12" font-weight="600" font-family="Segoe UI" x="199, 203.72852, 211.06445, 214.47461, " y="1648, ">
				role
		</text>
		<rect fill="none" stroke="black" stroke-width="1" stroke-linecap="square" stroke-miterlimit="4" transform="translate(0.5 0.5)" x="190" y="1633" width="51" height="20"/>
		<rect fill="silver" x="194" y="1707" width="55" height="21"/>
		<rect fill="white" x="190" y="1703" width="55" height="21"/>
		<rect fill="white" x="195" y="1730" width="120" height="36"/>
		<text fill="gray" font-size="9" font-family="Segoe UI" x="195, 200.80518, 203.27051, 206.39941, 211.10596, 213.92285, 216.10254, 221.1958, 225.90234, 233.6543, 238.36084, 243.4541, 246.50391, 248.96924, 254.24268, 257.05957, 259.5249, 262.57471, 267.66797, 272.37451, 274.83984, 278.65869, 283.36523, 291.11719, 295.69629, 300.78955, 303.83936, 306.01904, 310.17627, " y="1740, ">
				A refinement of the semantics
		</text>
		<text fill="gray" font-size="9" font-family="Segoe UI" x="195, 200.27344, 203.09033, 205.55566, 208.60547, 213.69873, 218.40527, 220.87061, 226.16162, 229.29053, 234.56396, 239.85498, 244.56152, 247.69043, 250.74023, 255.09521, 257.56055, 261.15967, 263.625, 268.33154, 272.4624, 277.75342, 280.88232, 285.58887, 289.40771, 293.22656, 297.93311, " y="1752, ">
				of the property - expressed
		</text>
		<text fill="gray" font-size="9" font-family="Segoe UI" x="195, 200.29102, 204.646, 207.11133, 211.69043, 214.15576, 220.33887, 225.72217, " y="1764, ">
				by a URI
		</text>
		<rect fill="white" x="199" y="1705" width="39" height="16"/>
		<text font-size="12" font-weight="600" font-family="Segoe UI" x="199, 203.72852, 211.06445, 214.47461, 220.9668, 228.22656, 233.04883, " y="1718, ">
				roleuri
		</text>
		<rect fill="none" stroke="black" stroke-width="1" stroke-linecap="square" stroke-miterlimit="4" transform="translate(0.5 0.5)" x="190" y="1703" width="54" height="20"/>
		<rect x="173" y="1219" width="11" height="11"/>
		<rect fill="white" x="174" y="1220" width="9" height="9"/>
		<rect x="175" y="1224" width="7" height="1"/>
		<rect x="54" y="608" width="11" height="11"/>
		<rect fill="white" x="55" y="609" width="9" height="9"/>
		<rect x="56" y="613" width="7" height="1"/>
	</g>
</svg>
