<?xml version="1.0" encoding="utf-8" ?>
<svg xmlns="http://www.w3.org/2000/svg" xmlns:xlink="http://www.w3.org/1999/xlink" width="387" height="1828">
	<clipPath id="cl_533">
		<rect x="-10" y="-5" width="387" height="1828"/>
	</clipPath>
	<g clip-path="url(#cl_533)">
		<rect fill="#FFFFC0" x="138" width="183" height="1202"/>
		<rect fill="none" stroke="gray" stroke-width="1" stroke-linecap="square" stroke-miterlimit="4" transform="translate(0.5 0.5)" x="138" width="182" height="1201"/>
		<path fill="none" stroke="black" stroke-width="1" stroke-linecap="square" stroke-miterlimit="4" transform="translate(0.5 0.5)" d="M91 613L150 613"/>
		<path fill="none" stroke="black" stroke-width="1" stroke-linecap="square" stroke-miterlimit="4" transform="translate(0.5 0.5)" d="M151 613L151 1509"/>
		<path fill="none" stroke="black" stroke-width="1" stroke-linecap="square" stroke-miterlimit="4" transform="translate(0.5 0.5)" d="M151 1510L165 1510"/>
		<path fill="none" stroke="black" stroke-width="1" stroke-linecap="square" stroke-miterlimit="4" transform="translate(0.5 0.5)" d="M151 613L165 613"/>
		<rect fill="silver" x="4" y="607" width="86" height="21"/>
		<rect fill="white" y="603" width="86" height="21"/>
		<rect fill="#FFFFC0" x="146" y="8" width="62" height="16"/>
		<text fill="gray" font-size="12" font-weight="600" font-family="Segoe UI" x="146, 152.42773, 157.09766, 161.91992, 165.33008, 172.58984, 180.01953, 186.51172, 192.96875, 200.41016, " y="21, ">
				StringType
		</text>
		<rect fill="white" x="5" y="630" width="118" height="24"/>
		<text fill="gray" font-size="9" font-family="Segoe UI" x="5, 10.805176, 13.270508, 18.561523, 23.834961, 26.014648, 31.10791, 34.157715, 36.623047, 41.896484, 44.713379, 47.178711, 52.478516, 57.185059, 61.003906, 64.053711, 66.233398, 71.32666, 75.905762, 78.955566, 81.135254, 86.408691, 91.501953, 93.967285, 96.78418, 102.05762, 105.18652, 107.65186, 110.70166, 115.79492, 117.97461, " y="640, ">
				A point of destination for this
		</text>
		<text fill="gray" font-size="9" font-family="Segoe UI" x="5, 12.751953, 17.458496, 21.277344, 25.096191, 29.675293, 34.975098, 39.681641, " y="652, ">
				message.
		</text>
		<rect fill="white" x="9" y="605" width="65" height="16"/>
		<text font-size="12" font-weight="600" font-family="Segoe UI" x="9, 16.429688, 22.921875, 28.201172, 32.871094, 36.28125, 43.541016, 49.998047, 54.667969, 58.078125, 65.414062, " y="618, ">
				destination
		</text>
		<path fill="none" stroke="black" stroke-width="1" stroke-linecap="square" stroke-miterlimit="4" transform="translate(0.5 0.5)" d="M2 605L7 605"/>
		<path fill="none" stroke="black" stroke-width="1" stroke-linecap="square" stroke-miterlimit="4" transform="translate(0.5 0.5)" d="M2 607L6 607"/>
		<path fill="none" stroke="black" stroke-width="1" stroke-linecap="square" stroke-miterlimit="4" transform="translate(0.5 0.5)" d="M2 609L6 609"/>
		<rect fill="#FFFFC0" x="212" y="8" width="59" height="16"/>
		<text fill="gray" font-size="12" font-family="Segoe UI" x="212, 215.62109, 221.89648, 227.4043, 231.4707, 237.74609, 244.53711, 249.62891, 252.53516, 259.56641, 266.35742, " y="21, ">
				(extension)
		</text>
		<rect fill="none" stroke="black" stroke-width="1" stroke-linecap="square" stroke-miterlimit="4" transform="translate(0.5 0.5)" y="603" width="85" height="20"/>
		<path fill="white" d="M243 55L243 36L166 36L166 55L166 1189L313 1189L313 55L243 55Z"/>
		<rect fill="white" x="186" y="38" width="51" height="16"/>
		<text font-size="12" font-style="italic" font-family="Segoe UI" x="186, 192.50391, 196.38281, 200.26172, 204.5332, 207.63867, 214.14258, 220.83984, 224.73047, 230.57227, " y="51, ">
				attributes
		</text>
		<path fill="none" stroke="black" stroke-width="1" stroke-linecap="square" stroke-miterlimit="4" transform="translate(0.5 0.5)" d="M243 55L243 36L166 36L166 55L166 1189L313 1189L313 55L243 55Z"/>
		<rect fill="silver" x="184" y="68" width="52" height="21"/>
		<rect fill="white" x="180" y="64" width="52" height="21"/>
		<rect fill="white" x="185" y="91" width="101" height="24"/>
		<text fill="gray" font-size="9" font-family="Segoe UI" x="185, 189.71533, 194.80859, 199.51514, 201.98047, 204.16016, 209.43359, 213.59082, 218.16992, 220.34961, 222.81494, 224.99463, 230.29443, 235.00098, 240.09424, 243.14404, 245.32373, 248.14062, 250.32031, 255.02686, 258.15576, 260.62109, 265.89453, 268.71143, 271.17676, 274.22656, 279.31982, " y="101, ">
				The local identifier of the
		</text>
		<text fill="gray" font-size="9" font-family="Segoe UI" x="185, 190.29102, 193.41992, 198.69336, 203.98438, 208.69092, 211.81982, 214.86963, 219.22461, " y="113, ">
				property.
		</text>
		<rect fill="white" x="189" y="66" width="36" height="16"/>
		<text font-size="12" font-weight="600" font-family="Segoe UI" x="189, 192.41016, " y="79, ">
				id
		</text>
		<rect fill="none" stroke="black" stroke-width="1" stroke-linecap="square" stroke-miterlimit="4" transform="translate(0.5 0.5)" x="180" y="64" width="51" height="20"/>
		<rect fill="silver" x="184" y="126" width="58" height="21"/>
		<rect fill="white" x="180" y="122" width="58" height="21"/>
		<rect fill="white" x="185" y="149" width="121" height="120"/>
		<text fill="gray" font-size="9" font-family="Segoe UI" x="185, 187.39502, 190.21191, 192.67725, 195.72705, 200.82031, 205.52686, 207.99219, 213.2832, 216.41211, 221.68555, 226.97656, 231.68311, 234.81201, 237.86182, 242.2168, 244.68213, 248.99316, 253.57227, 255.75195, 260.84521, 265.55176, 268.01709, 270.19678, 274.01562, 276.48096, 281.57422, 286.84766, " y="159, ">
				If the property value is not
		</text>
		<text fill="gray" font-size="9" font-family="Segoe UI" x="185, 190.2998, 195.00635, 197.82324, 200.00293, 205.09619, 209.80273, 215.10254, 217.05371, 219.51904, 223.33789, 228.62891, 233.33545, 237.49268, 239.67236, 242.48926, 244.66895, 249.37549, 253.19434, 255.65967, 262.16357, 267.25684, 269.43652, 273.59375, 278.68701, 281.15234, 285.85889, 290.95215, 294.00195, 296.18164, 299.23145, " y="171, ">
				defined, specifies which entity
		</text>
		<text fill="gray" font-size="9" font-family="Segoe UI" x="185, 187.71582, 193.00684, 197.71338, 200.84229, 204.66113, 209.93457, 215.02783, 216.979, 219.44434, 224.71777, 227.84668, 233.14648, 237.72559, 242.81885, 244.99854, 248.81738, 253.39648, 256.44629, 258.62598, 263.89941, 268.99268, 271.45801, 276.73145, " y="183, ">
				(person, organisation or
		</text>
		<text fill="gray" font-size="9" font-family="Segoe UI" x="185, 188.81885, 193.17383, 196.99268, 200.04248, 204.74902, 212.50098, 215.2168, 217.68213, 224.18604, 226.36572, 228.54541, 230.7251, 233.19043, 237.89697, 243.19678, 245.37646, 248.42627, 250.8916, 253.94141, 259.03467, 263.74121, 266.20654, 271.49756, 274.62646, 279.8999, 285.19092, 289.89746, 293.02637, 296.07617, " y="195, ">
				system) will edit the property
		</text>
		<text fill="gray" font-size="9" font-family="Segoe UI" x="185, 189.31104, 193.89014, 196.06982, 201.16309, 205.86963, 208.33496, 211.93408, 214.39941, 219.10596, 223.23682, 228.52783, 231.65674, 236.36328, 240.18213, 244.00098, 248.70752, 254.00732, 256.47266, 261.76367, 266.11865, 268.58398, 273.16309, 275.62842, 282.41357, 287.98584, 293.25928, 298.55908, 303.26562, " y="207, ">
				value - expressed by a QCode.
		</text>
		<text fill="gray" font-size="9" font-family="Segoe UI" x="185, 187.39502, 190.21191, 192.67725, 195.72705, 200.82031, 205.52686, 207.99219, 213.2832, 216.41211, 221.68555, 226.97656, 231.68311, 234.81201, 237.86182, 242.2168, 244.68213, 248.99316, 253.57227, 255.75195, 260.84521, 265.55176, 268.01709, 270.19678, " y="219, ">
				If the property value is
		</text>
		<text fill="gray" font-size="9" font-family="Segoe UI" x="185, 190.2998, 195.00635, 197.82324, 200.00293, 205.09619, 209.80273, 215.10254, 217.05371, 219.51904, 223.33789, 228.62891, 233.33545, 237.49268, 239.67236, 242.48926, 244.66895, 249.37549, 253.19434, 255.65967, 262.16357, 267.25684, 269.43652, 273.59375, 278.68701, 281.15234, 285.85889, 290.95215, 294.00195, 296.18164, 299.23145, " y="231, ">
				defined, specifies which entity
		</text>
		<text fill="gray" font-size="9" font-family="Segoe UI" x="185, 187.71582, 193.00684, 197.71338, 200.84229, 204.66113, 209.93457, 215.02783, 216.979, 219.44434, 224.71777, 227.84668, 233.14648, 237.72559, 242.81885, 244.99854, 248.81738, 253.39648, 256.44629, 258.62598, 263.89941, 268.99268, 271.45801, 276.73145, " y="243, ">
				(person, organisation or
		</text>
		<text fill="gray" font-size="9" font-family="Segoe UI" x="185, 188.81885, 193.17383, 196.99268, 200.04248, 204.74902, 212.50098, 215.2168, 217.68213, 222.77539, 227.35449, 231.17334, 233.63867, 238.34521, 243.64502, 245.82471, 248.87451, 253.58105, 258.88086, 261.34619, 264.396, 269.48926, " y="255, ">
				system) has edited the
		</text>
		<text fill="gray" font-size="9" font-family="Segoe UI" x="185, 190.29102, 193.41992, 198.69336, 203.98438, 208.69092, 211.81982, 214.86963, 219.22461, 221.68994, 226.00098, 230.58008, 232.75977, 237.85303, 242.55957, " y="267, ">
				property value.
		</text>
		<rect fill="white" x="189" y="124" width="42" height="16"/>
		<text font-size="12" font-weight="600" font-family="Segoe UI" x="189, 194.75977, 199.48828, 205.98047, 212.4375, 217.06055, 224.39648, " y="137, ">
				creator
		</text>
		<rect fill="none" stroke="black" stroke-width="1" stroke-linecap="square" stroke-miterlimit="4" transform="translate(0.5 0.5)" x="180" y="122" width="57" height="20"/>
		<rect fill="silver" x="184" y="280" width="73" height="21"/>
		<rect fill="white" x="180" y="276" width="73" height="21"/>
		<rect fill="white" x="185" y="303" width="120" height="108"/>
		<text fill="gray" font-size="9" font-family="Segoe UI" x="185, 187.39502, 190.21191, 192.67725, 195.72705, 200.82031, 205.52686, 207.99219, 213.2832, 216.41211, 221.68555, 226.97656, 231.68311, 234.81201, 237.86182, 242.2168, 244.68213, 248.99316, 253.57227, 255.75195, 260.84521, 265.55176, 268.01709, 270.19678, 274.01562, 276.48096, 281.57422, 286.84766, " y="313, ">
				If the property value is not
		</text>
		<text fill="gray" font-size="9" font-family="Segoe UI" x="185, 190.2998, 195.00635, 197.82324, 200.00293, 205.09619, 209.80273, 215.10254, 217.05371, 219.51904, 223.33789, 228.62891, 233.33545, 237.49268, 239.67236, 242.48926, 244.66895, 249.37549, 253.19434, 255.65967, 262.16357, 267.25684, 269.43652, 273.59375, 278.68701, 281.15234, 285.85889, 290.95215, 294.00195, 296.18164, 299.23145, " y="325, ">
				defined, specifies which entity
		</text>
		<text fill="gray" font-size="9" font-family="Segoe UI" x="185, 187.71582, 193.00684, 197.71338, 200.84229, 204.66113, 209.93457, 215.02783, 216.979, 219.44434, 224.71777, 227.84668, 233.14648, 237.72559, 242.81885, 244.99854, 248.81738, 253.39648, 256.44629, 258.62598, 263.89941, 268.99268, 271.45801, 276.73145, " y="337, ">
				(person, organisation or
		</text>
		<text fill="gray" font-size="9" font-family="Segoe UI" x="185, 188.81885, 193.17383, 196.99268, 200.04248, 204.74902, 212.50098, 215.2168, 217.68213, 224.18604, 226.36572, 228.54541, 230.7251, 233.19043, 237.89697, 243.19678, 245.37646, 248.42627, 250.8916, 253.94141, 259.03467, 263.74121, 266.20654, 271.49756, 274.62646, 279.8999, 285.19092, 289.89746, 293.02637, 296.07617, " y="349, ">
				system) will edit the property
		</text>
		<text fill="gray" font-size="9" font-family="Segoe UI" x="185, 188.59912, 191.06445, 195.771, 199.90186, 205.19287, 208.32178, 213.02832, 216.84717, 220.66602, 225.37256, 230.67236, 233.1377, 238.42871, 242.78369, 245.24902, 249.82812, 252.29346, 258.47656, 263.85986, 266.25488, 268.20605, 270.67139, 273.06641, 275.8833, 278.34863, 281.39844, 286.4917, " y="361, ">
				- expressed by a URI. If the
		</text>
		<text fill="gray" font-size="9" font-family="Segoe UI" x="185, 190.29102, 193.41992, 198.69336, 203.98438, 208.69092, 211.81982, 214.86963, 219.22461, 221.68994, 226.00098, 230.58008, 232.75977, 237.85303, 242.55957, 245.0249, 247.20459, 251.02344, 253.48877, 258.78857, 263.49512, 266.31201, 268.4917, 273.58496, 278.2915, 283.59131, " y="373, ">
				property value is defined,
		</text>
		<text fill="gray" font-size="9" font-family="Segoe UI" x="185, 188.81885, 194.10986, 198.81641, 202.97363, 205.15332, 207.97021, 210.1499, 214.85645, 218.67529, 221.14062, 227.64453, 232.73779, 234.91748, 239.07471, 244.16797, 246.6333, 251.33984, 256.43311, 259.48291, 261.6626, 264.7124, 269.06738, 271.53271, 274.24854, 279.53955, 284.24609, 287.375, 291.19385, 296.46729, 301.56055, " y="385, ">
				specifies which entity (person,
		</text>
		<text fill="gray" font-size="9" font-family="Segoe UI" x="185, 190.27344, 193.40234, 198.70215, 203.28125, 208.37451, 210.5542, 214.37305, 218.95215, 222.00195, 224.18164, 229.45508, 234.54834, 237.01367, 242.28711, 245.41602, 247.88135, 251.7002, 256.05518, 259.87402, 262.92383, 267.63037, 275.38232, 278.09814, 280.56348, 285.65674, 290.23584, " y="397, ">
				organisation or system) has
		</text>
		<text fill="gray" font-size="9" font-family="Segoe UI" x="185, 189.70654, 195.00635, 197.18604, 200.23584, 204.94238, 210.24219, 212.70752, 215.75732, 220.85059, 225.55713, 228.02246, 233.31348, 236.44238, 241.71582, 247.00684, 251.71338, 254.84229, 257.89209, 262.24707, " y="409, ">
				edited the property.
		</text>
		<rect fill="white" x="189" y="278" width="57" height="16"/>
		<text font-size="12" font-weight="600" font-family="Segoe UI" x="189, 194.75977, 199.48828, 205.98047, 212.4375, 217.06055, 224.39648, 229.20703, 236.4668, 241.28906, " y="291, ">
				creatoruri
		</text>
		<rect fill="none" stroke="black" stroke-width="1" stroke-linecap="square" stroke-miterlimit="4" transform="translate(0.5 0.5)" x="180" y="276" width="72" height="20"/>
		<rect fill="silver" x="184" y="422" width="69" height="21"/>
		<rect fill="white" x="180" y="418" width="69" height="21"/>
		<rect fill="white" x="185" y="445" width="119" height="72"/>
		<text fill="gray" font-size="9" font-family="Segoe UI" x="185, 189.71533, 194.80859, 199.51514, 201.98047, 207.28027, 211.85938, 214.90918, 219.61572, 222.08105, 224.79688, 229.37598, 234.46924, 239.76904, 241.72021, 244.18555, 249.45898, 254.75, 257.7998, 259.97949, 265.25293, 270.34619, 274.92529, 277.10498, 279.28467, 283.63965, 285.59082, 288.05615, 291.10596, 296.19922, " y="455, ">
				The date (and, optionally, the
		</text>
		<text fill="gray" font-size="9" font-family="Segoe UI" x="185, 188.0498, 190.22949, 197.98145, 202.68799, 205.40381, 207.86914, 214.37305, 219.46631, 224.17285, 229.26611, 231.73145, 234.78125, 239.87451, 244.58105, 247.04639, 252.3374, 255.46631, 260.73975, 266.03076, 270.7373, 273.86621, 276.91602, 281.271, 283.73633, 290.24023, 294.81934, " y="467, ">
				time) when the property was
		</text>
		<text fill="gray" font-size="9" font-family="Segoe UI" x="185, 187.17969, 191.75879, 195.57764, 198.62744, 201.09277, 208.84473, 214.11816, 219.41797, 221.59766, 224.41455, 226.59424, 231.30078, 236.60059, 238.55176, 241.01709, 245.73242, 250.82568, 255.53223, 257.99756, 260.17725, 265.27051, 267.4502, 270.5, 272.67969, 277.25879, 279.43848, 281.90381, 286.21484, 290.79395, 292.97363, 298.06689, " y="479, ">
				last modified. The initial value
		</text>
		<text fill="gray" font-size="9" font-family="Segoe UI" x="185, 187.17969, 190.99854, 193.46387, 196.51367, 201.60693, 206.31348, 208.77881, 214.07861, 218.65771, 221.70752, 226.41406, 228.87939, 231.59521, 236.17432, 241.26758, 246.56738, 248.51855, 250.98389, 256.25732, 261.54834, 264.59814, 266.77783, 272.05127, 277.14453, 281.72363, 283.90332, 286.08301, 290.43799, " y="491, ">
				is the date (and, optionally,
		</text>
		<text fill="gray" font-size="9" font-family="Segoe UI" x="185, 188.0498, 193.14307, 197.84961, 200.31494, 203.36475, 205.54443, 213.29639, 218.00293, 220.71875, 223.18408, 228.45752, 231.27441, 233.73975, 237.89697, 241.02588, 245.73242, 250.31152, 253.36133, 255.54102, 260.81445, 265.90771, 268.37305, 273.64648, 276.46338, 278.92871, 281.97852, 287.07178, " y="503, ">
				the time) of creation of the
		</text>
		<text fill="gray" font-size="9" font-family="Segoe UI" x="185, 190.29102, 193.41992, 198.69336, 203.98438, 208.69092, 211.81982, 214.86963, 219.22461, " y="515, ">
				property.
		</text>
		<rect fill="white" x="189" y="420" width="53" height="16"/>
		<text font-size="12" font-weight="600" font-family="Segoe UI" x="189, 199.99219, 207.32812, 214.75781, 218.16797, 222.76758, 226.17773, 232.66992, " y="433, ">
				modified
		</text>
		<rect fill="none" stroke="black" stroke-width="1" stroke-linecap="square" stroke-miterlimit="4" transform="translate(0.5 0.5)" x="180" y="418" width="68" height="20"/>
		<rect fill="silver" x="184" y="528" width="59" height="21"/>
		<rect fill="white" x="180" y="524" width="59" height="21"/>
		<rect fill="white" x="185" y="551" width="118" height="108"/>
		<text fill="gray" font-size="9" font-family="Segoe UI" x="185, 187.39502, 190.21191, 192.67725, 196.49609, 201.20264, 204.25244, 206.71777, 209.76758, 215.04102, 217.50635, 220.55615, 223.68506, 228.77832, 233.48486, 235.9502, 239, 244.09326, " y="561, ">
				If set to true the
		</text>
		<text fill="gray" font-size="9" font-family="Segoe UI" x="185, 189.15723, 194.43066, 197.55957, 200.68848, 205.39502, 209.21387, 214.50488, 219.77832, 224.87158, 230.17139, 232.35107, 237.44434, 242.74414, 245.20947, 250.50049, 253.62939, 258.90283, 264.19385, 268.90039, 272.0293, 275.0791, 279.43408, 281.89941, 288.40332, 292.98242, " y="573, ">
				corresponding property was
		</text>
		<text fill="gray" font-size="9" font-family="Segoe UI" x="185, 189.5791, 194.87891, 200.17871, 204.88525, 210.18506, 212.65039, 215.7002, 220.97363, 223.43896, 226.48877, 231.58203, 236.28857, 238.75391, 244.92822, 249.77979, 252.24512, 254.64014, 257.68994, 262.39648, 270.14844, 272.61377, 275.43066, 280.7041, 283.83301, 286.29834, " y="585, ">
				added to the G2 Item for a
		</text>
		<text fill="gray" font-size="9" font-family="Segoe UI" x="185, 188.81885, 194.10986, 198.81641, 202.97363, 205.15332, 207.97021, 210.1499, 214.30713, 216.77246, 220.92969, 226.02295, 229.8418, 232.8916, 238.16504, 245.91699, 250.62354, 253.75244, 256.21777, 261.49121, 264.62012, 267.08545, 272.38525, 275.51416, 280.7876, 285.88086, 291.17188, 293.63721, 298.91064, " y="597, ">
				specific customer or group of
		</text>
		<text fill="gray" font-size="9" font-family="Segoe UI" x="185, 189.15723, 194.25049, 198.06934, 201.11914, 206.39258, 214.14453, 218.85107, 221.97998, 225.79883, 228.26416, 233.5376, 238.63086, 240.81055, 245.16553, 247.1167, 249.58203, 254.29736, 259.39062, 264.09717, 266.5625, 271.8623, 276.56885, 279.38574, 283.96484, 289.05811, 291.23779, " y="609, ">
				customers only. The default
		</text>
		<text fill="gray" font-size="9" font-family="Segoe UI" x="185, 189.31104, 193.89014, 196.06982, 201.16309, 205.86963, 208.33496, 213.6084, 216.42529, 218.89062, 221.94043, 227.03369, 229.21338, 233.03223, 235.49756, 240.78857, 243.91748, 249.19092, 254.48193, 259.18848, 262.31738, 265.36719, 269.72217, 272.1875, 274.36719, 278.18604, 280.65137, 283.46826, 288.04736, 290.22705, 294.0459, " y="621, ">
				value of this property is false
		</text>
		<text fill="gray" font-size="9" font-family="Segoe UI" x="185, 191.50391, 196.59717, 198.77686, 202.93408, 208.02734, 210.49268, 215.07178, 220.36279, 225.65381, 227.8335, 230.01318, 234.71973, 238.53857, 241.00391, 247.50781, 252.60107, 257.30762, 262.40088, 264.86621, 267.91602, 273.00928, 275.18896, " y="633, ">
				which applies when this
		</text>
		<text fill="gray" font-size="9" font-family="Segoe UI" x="185, 189.5791, 192.62891, 195.67871, 198.80762, 200.9873, 206.27832, 211.37158, 214.42139, 219.12793, 221.59326, 223.77295, 227.5918, 230.05713, 235.15039, 240.42383, 243.47363, 245.93896, 251.03223, 254.85107, 259.55762, 264.85742, 267.32275, 273.82666, 276.00635, 279.05615, 284.14941, 286.61475, 289.66455, 294.75781, " y="645, ">
				attribute is not used with the
		</text>
		<text fill="gray" font-size="9" font-family="Segoe UI" x="185, 190.29102, 193.41992, 198.69336, 203.98438, 208.69092, 211.81982, 214.86963, 219.22461, " y="657, ">
				property.
		</text>
		<rect fill="white" x="189" y="526" width="43" height="16"/>
		<text font-size="12" font-weight="600" font-family="Segoe UI" x="189, 194.75977, 202.01953, 207.29883, 211.92188, 219.25781, " y="539, ">
				custom
		</text>
		<rect fill="none" stroke="black" stroke-width="1" stroke-linecap="square" stroke-miterlimit="4" transform="translate(0.5 0.5)" x="180" y="524" width="58" height="20"/>
		<rect fill="silver" x="184" y="670" width="52" height="21"/>
		<rect fill="white" x="180" y="666" width="52" height="21"/>
		<rect fill="white" x="185" y="693" width="118" height="48"/>
		<text fill="gray" font-size="9" font-family="Segoe UI" x="185, 187.39502, 192.48828, 197.78809, 199.96777, 204.125, 208.7041, 211.75391, 216.46045, 220.2793, 222.74463, 228.03564, 232.39062, 234.85596, 241.35986, 246.45312, 248.63281, 252.79004, 257.8833, 260.34863, 268.10059, 272.80713, 277.38623, 282.47949, 286.29834, 288.76367, 291.81348, 296.90674, " y="703, ">
				Indicates by which means the
		</text>
		<text fill="gray" font-size="9" font-family="Segoe UI" x="185, 189.31104, 193.89014, 196.06982, 201.16309, 205.86963, 208.33496, 214.83887, 219.41797, 223.23682, 225.70215, 230.40869, 234.53955, 237.58936, 240.71826, 245.29736, 249.45459, 252.50439, 257.21094, 262.51074, 264.97607, 267.79297, 270.92188, 276.19531, 283.94727, 286.4126, 289.4624, 294.55566, " y="715, ">
				value was extracted from the
		</text>
		<text fill="gray" font-size="9" font-family="Segoe UI" x="185, 189.15723, 194.43066, 199.52393, 202.57373, 207.28027, 212.37354, 215.42334, 217.88867, 221.48779, 223.95312, 228.65967, 232.79053, 238.08154, 241.21045, 245.91699, 249.73584, 253.55469, 258.26123, 263.56104, 266.02637, 271.31738, 275.67236, 278.1377, " y="727, ">
				content - expressed by a
		</text>
		<text fill="gray" font-size="9" font-family="Segoe UI" x="185, 191.78516, 197.35742, 202.63086, 207.93066, " y="739, ">
				QCode
		</text>
		<rect fill="white" x="189" y="668" width="36" height="16"/>
		<text font-size="12" font-weight="600" font-family="Segoe UI" x="189, 196.22461, 203.56055, " y="681, ">
				how
		</text>
		<rect fill="none" stroke="black" stroke-width="1" stroke-linecap="square" stroke-miterlimit="4" transform="translate(0.5 0.5)" x="180" y="666" width="51" height="20"/>
		<rect fill="silver" x="184" y="752" width="57" height="21"/>
		<rect fill="white" x="180" y="748" width="57" height="21"/>
		<rect fill="white" x="185" y="775" width="118" height="36"/>
		<text fill="gray" font-size="9" font-family="Segoe UI" x="185, 187.39502, 192.48828, 197.78809, 199.96777, 204.125, 208.7041, 211.75391, 216.46045, 220.2793, 222.74463, 228.03564, 232.39062, 234.85596, 241.35986, 246.45312, 248.63281, 252.79004, 257.8833, 260.34863, 268.10059, 272.80713, 277.38623, 282.47949, 286.29834, 288.76367, 291.81348, 296.90674, " y="785, ">
				Indicates by which means the
		</text>
		<text fill="gray" font-size="9" font-family="Segoe UI" x="185, 189.31104, 193.89014, 196.06982, 201.16309, 205.86963, 208.33496, 214.83887, 219.41797, 223.23682, 225.70215, 230.40869, 234.53955, 237.58936, 240.71826, 245.29736, 249.45459, 252.50439, 257.21094, 262.51074, 264.97607, 267.79297, 270.92188, 276.19531, 283.94727, 286.4126, 289.4624, 294.55566, " y="797, ">
				value was extracted from the
		</text>
		<text fill="gray" font-size="9" font-family="Segoe UI" x="185, 189.15723, 194.43066, 199.52393, 202.57373, 207.28027, 212.37354, 215.42334, 217.88867, 221.48779, 223.95312, 228.65967, 232.79053, 238.08154, 241.21045, 245.91699, 249.73584, 253.55469, 258.26123, 263.56104, 266.02637, 271.31738, 275.67236, 278.1377, 282.7168, 285.18213, 291.36523, 296.74854, " y="809, ">
				content - expressed by a URI
		</text>
		<rect fill="white" x="189" y="750" width="41" height="16"/>
		<text font-size="12" font-weight="600" font-family="Segoe UI" x="189, 196.22461, 203.56055, 213.12891, 220.38867, 225.21094, " y="763, ">
				howuri
		</text>
		<rect fill="none" stroke="black" stroke-width="1" stroke-linecap="square" stroke-miterlimit="4" transform="translate(0.5 0.5)" x="180" y="748" width="56" height="20"/>
		<rect fill="silver" x="184" y="822" width="52" height="21"/>
		<rect fill="white" x="180" y="818" width="52" height="21"/>
		<rect fill="white" x="185" y="845" width="113" height="36"/>
		<text fill="gray" font-size="9" font-family="Segoe UI" x="185, 193.40674, 198.5, 202.85498, 205.32031, 208.37012, 213.46338, 218.16992, 220.63525, 228.38721, 233.09375, 236.14355, 240.72266, 246.02246, 250.60156, 253.65137, 258.23047, 260.6958, 265.78906, 270.36816, 274.18701, 276.65234, 281.94336, 286.6499, 291.35645, " y="855, ">
				Why the metadata has been
		</text>
		<text fill="gray" font-size="9" font-family="Segoe UI" x="185, 187.17969, 192.27295, 196.43018, 198.60986, 203.70312, 209.00293, 213.70947, 219.00928, 221.47461, 225.07373, 227.53906, 232.24561, 236.37646, 241.66748, 244.79639, 249.50293, 253.32178, 257.14062, 261.84717, 267.14697, 269.6123, 274.90332, 279.2583, 281.72363, " y="867, ">
				included - expressed by a
		</text>
		<text fill="gray" font-size="9" font-family="Segoe UI" x="185, 191.78516, 197.35742, 202.63086, 207.93066, " y="879, ">
				QCode
		</text>
		<rect fill="white" x="189" y="820" width="36" height="16"/>
		<text font-size="12" font-weight="600" font-family="Segoe UI" x="189, 198.56836, 205.79297, " y="833, ">
				why
		</text>
		<rect fill="none" stroke="black" stroke-width="1" stroke-linecap="square" stroke-miterlimit="4" transform="translate(0.5 0.5)" x="180" y="818" width="51" height="20"/>
		<rect fill="silver" x="184" y="892" width="56" height="21"/>
		<rect fill="white" x="180" y="888" width="56" height="21"/>
		<rect fill="white" x="185" y="915" width="119" height="24"/>
		<text fill="gray" font-size="9" font-family="Segoe UI" x="185, 193.40674, 198.5, 202.85498, 205.32031, 208.37012, 213.46338, 218.16992, 220.63525, 228.38721, 233.09375, 236.14355, 240.72266, 246.02246, 250.60156, 253.65137, 258.23047, 260.6958, 265.78906, 270.36816, 274.18701, 276.65234, 281.94336, 286.6499, 291.35645, " y="925, ">
				Why the metadata has been
		</text>
		<text fill="gray" font-size="9" font-family="Segoe UI" x="185, 187.17969, 192.27295, 196.43018, 198.60986, 203.70312, 209.00293, 213.70947, 219.00928, 221.47461, 225.07373, 227.53906, 232.24561, 236.37646, 241.66748, 244.79639, 249.50293, 253.32178, 257.14062, 261.84717, 267.14697, 269.6123, 274.90332, 279.2583, 281.72363, 286.30273, 288.76807, 294.95117, 300.33447, " y="937, ">
				included - expressed by a URI
		</text>
		<rect fill="white" x="189" y="890" width="40" height="16"/>
		<text font-size="12" font-weight="600" font-family="Segoe UI" x="189, 198.56836, 205.79297, 212.25, 219.50977, 224.33203, " y="903, ">
				whyuri
		</text>
		<rect fill="none" stroke="black" stroke-width="1" stroke-linecap="square" stroke-miterlimit="4" transform="translate(0.5 0.5)" x="180" y="888" width="55" height="20"/>
		<rect fill="silver" x="184" y="950" width="97" height="21"/>
		<rect fill="white" x="180" y="946" width="97" height="21"/>
		<rect fill="white" x="185" y="973" width="117" height="72"/>
		<text fill="gray" font-size="9" font-family="Segoe UI" x="185, 191.78516, 196.87842, 201.58496, 204.05029, 209.32373, 212.45264, 214.91797, 222.66992, 227.24902, 232.34229, 236.69727, 239.1626, 243.31982, 248.59326, 253.68652, 257.50537, 260.55518, 263.68408, 268.26318, 270.44287, 275.53613, 278.58594, 282.40479, 284.87012, 287.91992, 293.01318, 297.59229, " y="983, ">
				One or many constraints that
		</text>
		<text fill="gray" font-size="9" font-family="Segoe UI" x="185, 189.5791, 194.87012, 200.16113, 202.34082, 206.6958, 209.16113, 212.21094, 217.48438, 219.94971, 225.24072, 230.33398, 235.625, 237.80469, 239.98438, 243.80322, 248.89648, 251.07617, 256.16943, 261.46924, 263.93457, 266.98438, 272.07764, 276.78418, 279.24951, 283.56055, 288.13965, 290.31934, 295.4126, " y="995, ">
				apply to publishing the value
		</text>
		<text fill="gray" font-size="9" font-family="Segoe UI" x="185, 190.27344, 193.09033, 195.55566, 198.60547, 203.69873, 208.40527, 210.87061, 216.16162, 219.29053, 224.56396, 229.85498, 234.56152, 237.69043, 240.74023, 245.09521, 247.56055, 251.15967, 253.625, 258.33154, 262.4624, 267.75342, 270.88232, 275.58887, 279.40771, 283.22656, 287.93311, " y="1007, ">
				of the property - expressed
		</text>
		<text fill="gray" font-size="9" font-family="Segoe UI" x="185, 190.29102, 194.646, 197.11133, 201.69043, 204.15576, 210.94092, 216.51318, 221.78662, 227.08643, 231.79297, 233.74414, 236.20947, 240.76221, 245.34131, 249.49854, 254.5918, 257.05713, 261.21436, 266.48779, 271.58105, 275.3999, 278.44971, 281.57861, 286.15771, 288.3374, 293.43066, " y="1019, ">
				by a QCode. Each constraint
		</text>
		<text fill="gray" font-size="9" font-family="Segoe UI" x="185, 189.5791, 194.87012, 200.16113, 202.34082, 204.52051, 209.22705, 213.0459, 215.51123, 218.56104, 223.83447, 226.2998, 230.87891, 233.05859, 235.23828, 237.70361, 243.00342, 247.70996, 251.52881, 255.68604, 260.39258, 265.48584, 270.78564, 275.36475, 280.45801, " y="1031, ">
				applies to all descendant
		</text>
		<text fill="gray" font-size="9" font-family="Segoe UI" x="185, 189.70654, 191.88623, 196.59277, 204.34473, 209.05127, 214.14453, 217.19434, 221.01318, " y="1043, ">
				elements.
		</text>
		<rect fill="white" x="189" y="948" width="81" height="16"/>
		<text font-size="12" font-weight="600" font-family="Segoe UI" x="189, 196.44141, 203.70117, 211.14258, 216.90234, 224.23828, 231.49805, 236.77734, 241.44727, 246.22266, 252.67969, 256.08984, 263.34961, " y="961, ">
				pubconstraint
		</text>
		<rect fill="none" stroke="black" stroke-width="1" stroke-linecap="square" stroke-miterlimit="4" transform="translate(0.5 0.5)" x="180" y="946" width="96" height="20"/>
		<rect fill="silver" x="184" y="1056" width="112" height="21"/>
		<rect fill="white" x="180" y="1052" width="112" height="21"/>
		<rect fill="white" x="185" y="1079" width="117" height="72"/>
		<text fill="gray" font-size="9" font-family="Segoe UI" x="185, 191.78516, 196.87842, 201.58496, 204.05029, 209.32373, 212.45264, 214.91797, 222.66992, 227.24902, 232.34229, 236.69727, 239.1626, 243.31982, 248.59326, 253.68652, 257.50537, 260.55518, 263.68408, 268.26318, 270.44287, 275.53613, 278.58594, 282.40479, 284.87012, 287.91992, 293.01318, 297.59229, " y="1089, ">
				One or many constraints that
		</text>
		<text fill="gray" font-size="9" font-family="Segoe UI" x="185, 189.5791, 194.87012, 200.16113, 202.34082, 206.6958, 209.16113, 212.21094, 217.48438, 219.94971, 225.24072, 230.33398, 235.625, 237.80469, 239.98438, 243.80322, 248.89648, 251.07617, 256.16943, 261.46924, 263.93457, 266.98438, 272.07764, 276.78418, 279.24951, 283.56055, 288.13965, 290.31934, 295.4126, " y="1101, ">
				apply to publishing the value
		</text>
		<text fill="gray" font-size="9" font-family="Segoe UI" x="185, 190.27344, 193.09033, 195.55566, 198.60547, 203.69873, 208.40527, 210.87061, 216.16162, 219.29053, 224.56396, 229.85498, 234.56152, 237.69043, 240.74023, 245.09521, 247.56055, 251.15967, 253.625, 258.33154, 262.4624, 267.75342, 270.88232, 275.58887, 279.40771, 283.22656, 287.93311, " y="1113, ">
				of the property - expressed
		</text>
		<text fill="gray" font-size="9" font-family="Segoe UI" x="185, 190.29102, 194.646, 197.11133, 201.69043, 204.15576, 210.33887, 215.72217, 218.11719, 220.06836, 222.53369, 227.08643, 231.66553, 235.82275, 240.91602, 243.38135, 247.53857, 252.81201, 257.90527, 261.72412, 264.77393, 267.90283, 272.48193, 274.66162, 279.75488, " y="1125, ">
				by a URI. Each constraint
		</text>
		<text fill="gray" font-size="9" font-family="Segoe UI" x="185, 189.5791, 194.87012, 200.16113, 202.34082, 204.52051, 209.22705, 213.0459, 215.51123, 218.56104, 223.83447, 226.2998, 230.87891, 233.05859, 235.23828, 237.70361, 243.00342, 247.70996, 251.52881, 255.68604, 260.39258, 265.48584, 270.78564, 275.36475, 280.45801, " y="1137, ">
				applies to all descendant
		</text>
		<text fill="gray" font-size="9" font-family="Segoe UI" x="185, 189.70654, 191.88623, 196.59277, 204.34473, 209.05127, 214.14453, 217.19434, 221.01318, " y="1149, ">
				elements.
		</text>
		<rect fill="white" x="189" y="1054" width="96" height="16"/>
		<text font-size="12" font-weight="600" font-family="Segoe UI" x="189, 196.44141, 203.70117, 211.14258, 216.90234, 224.23828, 231.49805, 236.77734, 241.44727, 246.22266, 252.67969, 256.08984, 263.34961, 268.01953, 275.2793, 280.10156, " y="1067, ">
				pubconstrainturi
		</text>
		<rect fill="none" stroke="black" stroke-width="1" stroke-linecap="square" stroke-miterlimit="4" transform="translate(0.5 0.5)" x="180" y="1052" width="111" height="20"/>
		<path fill="silver" d="M184 1167L189 1162L257 1162L262 1167L262 1178L257 1183L189 1183L184 1178L184 1167Z"/>
		<path fill="white" d="M180 1163L185 1158L253 1158L258 1163L258 1174L253 1179L185 1179L180 1174L180 1163Z"/>
		<rect fill="white" x="207" y="1160" width="46" height="16"/>
		<text font-size="12" font-weight="600" font-family="Segoe UI" x="207, 214.10742, 221.21484, 228.55078, 233.2207, 240.44531, 246.9375, " y="1173, ">
				##other
		</text>
		<rect fill="white" x="185" y="1160" width="20" height="16"/>
		<text fill="gray" font-size="12" font-family="Segoe UI" x="185, 191.10547, 197.89648, " y="1173, ">
				any
		</text>
		<path fill="none" stroke="black" stroke-width="1" stroke-linecap="square" stroke-miterlimit="4" transform="translate(0.5 0.5)" d="M180 1163L185 1158L252 1158L257 1163L257 1173L252 1178L185 1178L180 1173L180 1163Z"/>
		<rect x="171" y="41" width="11" height="11"/>
		<rect fill="white" x="172" y="42" width="9" height="9"/>
		<rect x="173" y="46" width="7" height="1"/>
		<path fill="white" d="M243 1233L243 1214L166 1214L166 1233L166 1805L352 1805L352 1233L243 1233Z"/>
		<rect fill="white" x="186" y="1216" width="51" height="16"/>
		<text font-size="12" font-style="italic" font-family="Segoe UI" x="186, 192.50391, 196.38281, 200.26172, 204.5332, 207.63867, 214.14258, 220.83984, 224.73047, 230.57227, " y="1229, ">
				attributes
		</text>
		<path fill="none" stroke="black" stroke-width="1" stroke-linecap="square" stroke-miterlimit="4" transform="translate(0.5 0.5)" d="M243 1233L243 1214L166 1214L166 1233L166 1805L352 1805L352 1233L243 1233Z"/>
		<path fill="white" d="M344 1261L344 1242L180 1242L180 1261L180 1772L344 1772L344 1261Z"/>
		<rect fill="white" x="185" y="1775" width="143" height="24"/>
		<text fill="gray" font-size="9" font-family="Segoe UI" x="187.46533, 193.27051, 195.73584, 201.03564, 204.16455, 209.43799, 214.53125, 219.82227, 222.2876, 227.56104, 230.37793, 232.84326, 237.42236, 240.47217, 243.52197, 246.65088, 248.83057, 254.12158, 259.21484, 262.26465, 266.97119, 270.79004, 273.25537, 278.34863, 282.16748, 286.87402, 292.17383, 294.63916, 297.45605, 302.72949, 305.8584, 308.32373, " y="1785, ">
				A group of attributes used for a
		</text>
		<text fill="gray" font-size="9" font-family="Segoe UI" x="185, 190.2998, 195.39307, 199.97217, 202.15186, 204.33154, 207.14844, 209.32812, 214.03467, 219.33447, 221.7998, 226.50635, 230.63721, 235.92822, 239.05713, 243.76367, 247.58252, 251.40137, 253.58105, 258.85449, 263.94775, 266.41309, 271.68652, 274.50342, 276.96875, 280.01855, 285.11182, 289.81836, 292.28369, 297.57471, 300.70361, 305.97705, 311.26807, 315.97461, 319.10352, 322.15332, " y="1797, ">
				qualified expression of the property
		</text>
		<rect fill="white" x="222" y="1244" width="116" height="16"/>
		<text font-size="12" font-weight="600" font-family="Segoe UI" x="222, 229.42969, 236.68945, 243.14648, 246.55664, 249.9668, 254.80664, 261.26367, 264.67383, 271.93359, 279.36328, 287.56055, 292.23047, 296.90039, 301.72266, 305.13281, 312.57422, 319.83398, 324.45703, 330.94922, " y="1257, ">
				qualifyingAttributes
		</text>
		<rect fill="white" x="200" y="1244" width="20" height="16"/>
		<text fill="gray" font-size="12" font-family="Segoe UI" x="200, 207.06641, 211.23828, " y="1257, ">
				grp
		</text>
		<path fill="none" stroke="gray" stroke-width="1" stroke-linecap="square" stroke-miterlimit="4" transform="translate(0.5 0.5)" d="M180 1261L180 1772L344 1772L344 1261L344 1261"/>
		<path fill="none" stroke="black" stroke-width="1" stroke-linecap="square" stroke-miterlimit="4" transform="translate(0.5 0.5)" d="M344 1261L344 1242L180 1242L180 1261"/>
		<rect x="185" y="1247" width="11" height="11"/>
		<rect fill="white" x="186" y="1248" width="9" height="9"/>
		<rect x="187" y="1252" width="7" height="1"/>
		<rect fill="silver" x="192" y="1275" width="52" height="21"/>
		<rect fill="white" x="188" y="1271" width="52" height="21"/>
		<rect fill="white" x="193" y="1298" width="121" height="48"/>
		<text fill="gray" font-size="9" font-family="Segoe UI" x="193, 198.80518, 201.27051, 205.42773, 210.70117, 215.79443, 219.95166, 224.6582, 229.94922, 232.99902, 235.46436, 237.64404, 242.94385, 247.65039, 252.74365, 255.79346, 257.97314, 260.79004, 262.96973, 267.67627, 270.80518, 273.27051, 277.97705, 282.10791, 287.39893, 290.52783, 295.23438, 299.05322, 302.87207, 307.57861, " y="1308, ">
				A concept identifier expressed
		</text>
		<text fill="gray" font-size="9" font-family="Segoe UI" x="193, 197.5791, 201.39795, 203.86328, 208.44238, 210.90771, 214.72656, 217.77637, 220.90527, 223.08496, 228.17822, 233.47803, 235.94336, 241.2168, 244.03369, 246.49902, 249.54883, 254.64209, 259.34863, 261.81396, 264.63086, 269.9043, 273.0332, 280.78516, 283.25049, 287.06934, 290.88818, 294.70703, 296.6582, 300.81543, 304.97266, 309.12988, " y="1320, ">
				as a string of the form sss:ccc,
		</text>
		<text fill="gray" font-size="9" font-family="Segoe UI" x="193, 199.50391, 204.59717, 209.30371, 212.43262, 217.13916, 219.60449, 223.42334, 227.24219, 231.06104, 233.52637, 235.70605, 239.5249, 241.99023, 246.56934, 249.03467, 252.85352, 257.01074, 262.104, 266.81055, 274.5625, 279.26904, 281.73438, 286.31348, 288.49316, 290.67285, 295.25195, " y="1332, ">
				where sss is a scheme alias
		</text>
		<text fill="gray" font-size="9" font-family="Segoe UI" x="193, 197.5791, 202.67236, 207.97217, 210.4375, 214.59473, 218.75195, 222.90918, 225.37451, 227.5542, 231.37305, 233.83838, 238.41748, 240.88281, 245.04004, 250.31348, 255.61328, " y="1344, ">
				and ccc is a code
		</text>
		<rect fill="white" x="197" y="1273" width="36" height="16"/>
		<text font-size="12" font-weight="600" font-family="Segoe UI" x="197, 204.42969, 210.18945, 217.52539, 224.95508, " y="1286, ">
				qcode
		</text>
		<rect fill="none" stroke="black" stroke-width="1" stroke-linecap="square" stroke-miterlimit="4" transform="translate(0.5 0.5)" x="188" y="1271" width="51" height="20"/>
		<rect fill="silver" x="192" y="1357" width="52" height="21"/>
		<rect fill="white" x="188" y="1353" width="52" height="21"/>
		<rect fill="white" x="193" y="1380" width="95" height="24"/>
		<text fill="gray" font-size="9" font-family="Segoe UI" x="193, 198.80518, 201.27051, 207.45361, 212.83691, 215.23193, 217.69727, 224.20117, 229.29443, 231.47412, 235.63135, 240.72461, 243.18994, 245.36963, 250.66943, 255.37598, 260.46924, 263.51904, 265.69873, 268.51562, 270.69531, 275.40186, 279.2207, 281.68604, " y="1390, ">
				A URI which identifies a
		</text>
		<text fill="gray" font-size="9" font-family="Segoe UI" x="193, 197.15723, 202.43066, 207.52393, 211.68115, 216.3877, 221.67871, 224.72852, " y="1402, ">
				concept.
		</text>
		<rect fill="white" x="197" y="1355" width="36" height="16"/>
		<text font-size="12" font-weight="600" font-family="Segoe UI" x="197, 204.25977, 209.08203, " y="1368, ">
				uri
		</text>
		<rect fill="none" stroke="black" stroke-width="1" stroke-linecap="square" stroke-miterlimit="4" transform="translate(0.5 0.5)" x="188" y="1353" width="51" height="20"/>
		<rect fill="silver" x="192" y="1415" width="52" height="21"/>
		<rect fill="white" x="188" y="1411" width="52" height="21"/>
		<rect fill="white" x="193" y="1438" width="121" height="24"/>
		<text fill="gray" font-size="9" font-family="Segoe UI" x="193, 198.80518, 201.27051, 205.42773, 210.70117, 215.79443, 219.95166, 224.6582, 229.94922, 232.99902, 235.46436, 237.64404, 242.94385, 247.65039, 252.74365, 255.79346, 257.97314, 260.79004, 262.96973, 267.67627, 270.80518, 273.27051, 277.97705, 282.10791, 287.39893, 290.52783, 295.23438, 299.05322, 302.87207, 307.57861, " y="1448, ">
				A concept identifier expressed
		</text>
		<text fill="gray" font-size="9" font-family="Segoe UI" x="193, 197.5791, 201.39795, 203.86328, 208.44238, 210.90771, 213.72461, 216.85352, 221.56006, 226.2666, 228.73193, 231.78174, 236.48828, 240.61914, 243.66895, 246.13428, 249.95312, 253.00293, 256.13184, 258.31152, 263.40479, " y="1460, ">
				as a free text string
		</text>
		<rect fill="white" x="197" y="1413" width="36" height="16"/>
		<text font-size="12" font-weight="600" font-family="Segoe UI" x="197, 200.41016, 203.82031, 208.44336, 214.93555, 219.71094, 226.16797, " y="1426, ">
				literal
		</text>
		<rect fill="none" stroke="black" stroke-width="1" stroke-linecap="square" stroke-miterlimit="4" transform="translate(0.5 0.5)" x="188" y="1411" width="51" height="20"/>
		<rect fill="silver" x="192" y="1473" width="52" height="21"/>
		<rect fill="white" x="188" y="1469" width="52" height="21"/>
		<rect fill="white" x="193" y="1496" width="120" height="48"/>
		<text fill="gray" font-size="9" font-family="Segoe UI" x="193, 197.71533, 202.80859, 207.51514, 209.98047, 213.03027, 217.38525, 222.67627, 227.38281, 229.84814, 235.12158, 237.93848, 240.40381, 243.45361, 248.54688, 253.25342, 255.71875, 259.87598, 265.14941, 270.24268, 274.3999, 279.10645, 284.39746, " y="1506, ">
				The type of the concept
		</text>
		<text fill="gray" font-size="9" font-family="Segoe UI" x="193, 197.5791, 201.39795, 205.2168, 207.39648, 212.69629, 217.78955, 222.49609, 227.7959, 230.26123, 234.84033, 238.65918, 241.12451, 245.70361, 248.16895, 252.32617, 257.59961, 262.69287, 265.74268, 268.87158, 274.14502, 276.32471, 278.50439, 283.21094, 288.51074, 290.97607, 296.24951, 299.37842, 301.84375, 306.42285, " y="1518, ">
				assigned as a controlled or an
		</text>
		<text fill="gray" font-size="9" font-family="Segoe UI" x="193, 198.09326, 203.18652, 207.34375, 212.61719, 217.71045, 220.76025, 223.88916, 229.1626, 231.34229, 233.52197, 238.22852, 243.52832, 245.99365, 251.28467, 254.41357, 259.68701, 264.97803, 269.68457, 272.81348, 275.86328, 280.21826, 282.68359, 286.99463, 291.57373, 293.75342, 298.84668, 303.55322, 306.01855, " y="1530, ">
				uncontrolled property value -
		</text>
		<text fill="gray" font-size="9" font-family="Segoe UI" x="193, 197.70654, 201.8374, 207.12842, 210.25732, 214.96387, 218.78271, 222.60156, 227.30811, 232.60791, 235.07324, 240.36426, 244.71924, 247.18457, 251.76367, 254.229, 261.01416, 266.58643, 271.85986, 277.15967, " y="1542, ">
				expressed by a QCode
		</text>
		<rect fill="white" x="197" y="1471" width="36" height="16"/>
		<text font-size="12" font-weight="600" font-family="Segoe UI" x="197, 201.66992, 208.12695, 215.56836, " y="1484, ">
				type
		</text>
		<rect fill="none" stroke="black" stroke-width="1" stroke-linecap="square" stroke-miterlimit="4" transform="translate(0.5 0.5)" x="188" y="1469" width="51" height="20"/>
		<rect fill="silver" x="192" y="1555" width="58" height="21"/>
		<rect fill="white" x="188" y="1551" width="58" height="21"/>
		<rect fill="white" x="193" y="1578" width="120" height="48"/>
		<text fill="gray" font-size="9" font-family="Segoe UI" x="193, 197.71533, 202.80859, 207.51514, 209.98047, 213.03027, 217.38525, 222.67627, 227.38281, 229.84814, 235.12158, 237.93848, 240.40381, 243.45361, 248.54688, 253.25342, 255.71875, 259.87598, 265.14941, 270.24268, 274.3999, 279.10645, 284.39746, " y="1588, ">
				The type of the concept
		</text>
		<text fill="gray" font-size="9" font-family="Segoe UI" x="193, 197.5791, 201.39795, 205.2168, 207.39648, 212.69629, 217.78955, 222.49609, 227.7959, 230.26123, 234.84033, 238.65918, 241.12451, 245.70361, 248.16895, 252.32617, 257.59961, 262.69287, 265.74268, 268.87158, 274.14502, 276.32471, 278.50439, 283.21094, 288.51074, 290.97607, 296.24951, 299.37842, 301.84375, 306.42285, " y="1600, ">
				assigned as a controlled or an
		</text>
		<text fill="gray" font-size="9" font-family="Segoe UI" x="193, 198.09326, 203.18652, 207.34375, 212.61719, 217.71045, 220.76025, 223.88916, 229.1626, 231.34229, 233.52197, 238.22852, 243.52832, 245.99365, 251.28467, 254.41357, 259.68701, 264.97803, 269.68457, 272.81348, 275.86328, 280.21826, 282.68359, 286.99463, 291.57373, 293.75342, 298.84668, 303.55322, 306.01855, " y="1612, ">
				uncontrolled property value -
		</text>
		<text fill="gray" font-size="9" font-family="Segoe UI" x="193, 197.70654, 201.8374, 207.12842, 210.25732, 214.96387, 218.78271, 222.60156, 227.30811, 232.60791, 235.07324, 240.36426, 244.71924, 247.18457, 251.76367, 254.229, 260.41211, 265.79541, " y="1624, ">
				expressed by a URI
		</text>
		<rect fill="white" x="197" y="1553" width="42" height="16"/>
		<text font-size="12" font-weight="600" font-family="Segoe UI" x="197, 201.66992, 208.12695, 215.56836, 222.06055, 229.32031, 234.14258, " y="1566, ">
				typeuri
		</text>
		<rect fill="none" stroke="black" stroke-width="1" stroke-linecap="square" stroke-miterlimit="4" transform="translate(0.5 0.5)" x="188" y="1551" width="57" height="20"/>
		<rect fill="silver" x="192" y="1637" width="52" height="21"/>
		<rect fill="white" x="188" y="1633" width="52" height="21"/>
		<rect fill="white" x="193" y="1660" width="120" height="36"/>
		<text fill="gray" font-size="9" font-family="Segoe UI" x="193, 198.80518, 201.27051, 204.39941, 209.10596, 211.92285, 214.10254, 219.1958, 223.90234, 231.6543, 236.36084, 241.4541, 244.50391, 246.96924, 252.24268, 255.05957, 257.5249, 260.57471, 265.66797, 270.37451, 272.83984, 276.65869, 281.36523, 289.11719, 293.69629, 298.78955, 301.83936, 304.01904, 308.17627, " y="1670, ">
				A refinement of the semantics
		</text>
		<text fill="gray" font-size="9" font-family="Segoe UI" x="193, 198.27344, 201.09033, 203.55566, 206.60547, 211.69873, 216.40527, 218.87061, 224.16162, 227.29053, 232.56396, 237.85498, 242.56152, 245.69043, 248.74023, 253.09521, 255.56055, 259.15967, 261.625, 266.33154, 270.4624, 275.75342, 278.88232, 283.58887, 287.40771, 291.22656, 295.93311, " y="1682, ">
				of the property - expressed
		</text>
		<text fill="gray" font-size="9" font-family="Segoe UI" x="193, 198.29102, 202.646, 205.11133, 209.69043, 212.15576, 218.94092, 224.51318, 229.78662, 235.08643, " y="1694, ">
				by a QCode
		</text>
		<rect fill="white" x="197" y="1635" width="36" height="16"/>
		<text font-size="12" font-weight="600" font-family="Segoe UI" x="197, 201.72852, 209.06445, 212.47461, " y="1648, ">
				role
		</text>
		<rect fill="none" stroke="black" stroke-width="1" stroke-linecap="square" stroke-miterlimit="4" transform="translate(0.5 0.5)" x="188" y="1633" width="51" height="20"/>
		<rect fill="silver" x="192" y="1707" width="55" height="21"/>
		<rect fill="white" x="188" y="1703" width="55" height="21"/>
		<rect fill="white" x="193" y="1730" width="120" height="36"/>
		<text fill="gray" font-size="9" font-family="Segoe UI" x="193, 198.80518, 201.27051, 204.39941, 209.10596, 211.92285, 214.10254, 219.1958, 223.90234, 231.6543, 236.36084, 241.4541, 244.50391, 246.96924, 252.24268, 255.05957, 257.5249, 260.57471, 265.66797, 270.37451, 272.83984, 276.65869, 281.36523, 289.11719, 293.69629, 298.78955, 301.83936, 304.01904, 308.17627, " y="1740, ">
				A refinement of the semantics
		</text>
		<text fill="gray" font-size="9" font-family="Segoe UI" x="193, 198.27344, 201.09033, 203.55566, 206.60547, 211.69873, 216.40527, 218.87061, 224.16162, 227.29053, 232.56396, 237.85498, 242.56152, 245.69043, 248.74023, 253.09521, 255.56055, 259.15967, 261.625, 266.33154, 270.4624, 275.75342, 278.88232, 283.58887, 287.40771, 291.22656, 295.93311, " y="1752, ">
				of the property - expressed
		</text>
		<text fill="gray" font-size="9" font-family="Segoe UI" x="193, 198.29102, 202.646, 205.11133, 209.69043, 212.15576, 218.33887, 223.72217, " y="1764, ">
				by a URI
		</text>
		<rect fill="white" x="197" y="1705" width="39" height="16"/>
		<text font-size="12" font-weight="600" font-family="Segoe UI" x="197, 201.72852, 209.06445, 212.47461, 218.9668, 226.22656, 231.04883, " y="1718, ">
				roleuri
		</text>
		<rect fill="none" stroke="black" stroke-width="1" stroke-linecap="square" stroke-miterlimit="4" transform="translate(0.5 0.5)" x="188" y="1703" width="54" height="20"/>
		<rect x="171" y="1219" width="11" height="11"/>
		<rect fill="white" x="172" y="1220" width="9" height="9"/>
		<rect x="173" y="1224" width="7" height="1"/>
		<rect x="80" y="608" width="11" height="11"/>
		<rect fill="white" x="81" y="609" width="9" height="9"/>
		<rect x="82" y="613" width="7" height="1"/>
	</g>
</svg>
