<?xml version="1.0" encoding="utf-8" ?>
<svg xmlns="http://www.w3.org/2000/svg" xmlns:xlink="http://www.w3.org/1999/xlink" width="436" height="1250">
	<clipPath id="cl_639">
		<rect x="-10" y="-5" width="436" height="1250"/>
	</clipPath>
	<g clip-path="url(#cl_639)">
		<path fill="none" stroke="black" stroke-width="1" stroke-linecap="square" stroke-miterlimit="4" transform="translate(0.5 0.5)" d="M188 620L201 620"/>
		<path fill="silver" d="M4 619L9 614L188 614L188 636L9 636L4 631L4 619Z"/>
		<path fill="white" d="M0 615L5 610L184 610L184 632L5 632L0 627L0 615Z"/>
		<rect fill="white" x="5" y="637" width="177" height="36"/>
		<text fill="gray" font-size="9" font-family="Segoe UI" x="5, 9.715332, 14.808594, 19.515137, 21.980469, 25.030273, 29.385254, 34.67627, 39.382812, 41.848145, 47.121582, 49.938477, 52.403809, 56.98291, 59.448242, 63.605469, 68.18457, 70.364258, 75.070801, 80.164062, 85.463867, 90.042969, 93.171875, 95.637207, 100.93701, 105.51611, 108.56592, 113.27246, 115.73779, 122.2417, 124.42139, 127.47119, 132.56445, 135.02979, 139.60889, 144.70215, 147.16748, 152.44092, 157.73193, 160.78174, 162.96143, 168.23486, 173.32812, 177.90723, " y="647, ">
				The type of a calendar date with an optional
		</text>
		<text fill="gray" font-size="9" font-family="Segoe UI" x="5, 8.0498047, 10.229492, 17.981445, 22.687988, 25.15332, 30.444336, 35.023438, 38.152344, 41.202148, 43.66748, 50.171387, 55.264648, 57.444336, 61.601562, 66.694824, 69.160156, 76.912109, 81.491211, 85.846191, 88.311523, 93.602539, 98.309082, 100.77441, 103.82422, 106.95312, 112.04639, 117.13965, 121.29688, 125.87598, 128.92578, 133.63232, 138.93213, 141.39746, 144.21436, 147.34326, 152.6167, 160.36865, 162.83398, 165.88379, 170.97705, " y="659, ">
				time part which may be truncated from the
		</text>
		<text fill="gray" font-size="9" font-family="Segoe UI" x="5, 8.8188477, 13.525391, 17.682617, 22.956055, 28.049316, 33.349121, 37.167969, 39.633301, 44.924316, 49.503418, 52.632324, 55.682129, 58.147461, 61.197266, 66.470703, 68.936035, 71.98584, 77.079102, 81.785645, 84.250977, 92.00293, 97.276367, 102.36963, 105.41943, 110.5127, 112.97803, 118.26904, 122.84814, 125.97705, " y="671, ">
				seconds part to the month part
		</text>
		<rect fill="white" x="5" y="612" width="166" height="16"/>
		<text font-size="12" font-weight="600" font-family="Segoe UI" x="5, 11.128906, 15.939453, 23.199219, 30.458984, 36.21875, 42.675781, 47.298828, 53.791016, 61.220703, 70.068359, 76.525391, 81.148438, 87.640625, 94.671875, 98.082031, 109.07422, 115.56641, 122.9375, 127.66602, 135.00195, 142.44336, 148.93555, 155.39258, 162.83398, " y="625, ">
				TruncatedDateTimePropType
		</text>
		<path fill="none" stroke="black" stroke-width="1" stroke-linecap="square" stroke-miterlimit="4" transform="translate(0.5 0.5)" d="M0 615L5 610L183 610L183 631L5 631L0 626L0 615Z"/>
		<path fill="white" d="M279 19L279 0L202 0L202 19L202 1239L415 1239L415 19L279 19Z"/>
		<rect fill="white" x="222" y="2" width="51" height="16"/>
		<text font-size="12" font-style="italic" font-family="Segoe UI" x="222, 228.50391, 232.38281, 236.26172, 240.5332, 243.63867, 250.14258, 256.83984, 260.73047, 266.57227, " y="15, ">
				attributes
		</text>
		<path fill="none" stroke="black" stroke-width="1" stroke-linecap="square" stroke-miterlimit="4" transform="translate(0.5 0.5)" d="M279 19L279 0L202 0L202 19L202 1239L415 1239L415 19L279 19Z"/>
		<path fill="white" d="M407 47L407 28L216 28L216 47L216 1150L407 1150L407 47Z"/>
		<rect fill="white" x="221" y="1153" width="179" height="48"/>
		<text fill="gray" font-size="9" font-family="Segoe UI" x="221, 226.80518, 229.27051, 234.57031, 237.69922, 242.97266, 248.06592, 253.35693, 255.82227, 261.0957, 263.9126, 266.37793, 270.95703, 274.00684, 277.05664, 280.18555, 282.36523, 287.65625, 292.74951, 295.79932, 300.50586, 304.32471, 306.79004, 309.60693, 314.88037, 318.00928, 320.47461, 325.05371, 327.2334, 329.41309, 331.87842, 336.58496, 338.76465, 343.47119, 351.22314, 355.92969, 361.02295, 364.07275, 367.8916, 370.35693, 375.63037, 378.44727, 380.9126, 385.4917, 387.95703, 394.13135, " y="1163, ">
				A group of attributes for all elements of a G2
		</text>
		<text fill="gray" font-size="9" font-family="Segoe UI" x="221, 223.39502, 226.44482, 231.15137, 238.90332, 241.36865, 246.0752, 250.20605, 254.36328, 259.06982, 264.36084, 267.41064, 269.87598, 272.05566, 275.10547, 278.92432, 281.38965, 284.51855, 289.79199, 295.06543, 298.11523, 300.58057, 305.28711, 307.4668, 312.17334, 319.92529, 324.63184, 329.7251, 332.7749, 334.72607, 337.19141, 340.24121, 345.33447, 350.04102, 352.50635, 354.68604, 357.73584, 362.44238, 370.19434, 378.27588, 382.98242, 386.03223, " y="1175, ">
				Item except its root element, the itemMeta
		</text>
		<text fill="gray" font-size="9" font-family="Segoe UI" x="221, 225.70654, 227.88623, 232.59277, 240.34473, 245.05127, 250.14453, 253.19434, 255.65967, 260.23877, 265.33203, 270.63184, 273.09717, 277.67627, 279.85596, 282.03564, 284.50098, 289.77441, 292.59131, 295.05664, 297.23633, 300.28613, 304.10498, 306.57031, 310.72754, 315.8208, 318.00049, 320.18018, 325.47998, 328.60889, 333.31543, 338.40869, 340.87402, 347.37793, 352.47119, 354.65088, 358.80811, 363.90137, 366.3667, 370.9458, 374.07471, " y="1187, ">
				element and all of its children which are
		</text>
		<text fill="gray" font-size="9" font-family="Segoe UI" x="221, 228.75195, 233.33105, 238.42432, 243.72412, 248.30322, 251.35303, 256.62646, 259.75537, 264.11035, " y="1199, ">
				mandatory.
		</text>
		<rect fill="white" x="258" y="30" width="143" height="16"/>
		<text font-size="12" font-weight="600" font-family="Segoe UI" x="258, 263.75977, 271.0957, 282.08789, 293.08008, 300.41602, 307.67578, 314.68945, 322.02539, 331.53516, 338.02734, 342.80273, 351, 355.66992, 360.33984, 365.16211, 368.57227, 376.01367, 383.27344, 387.89648, 394.38867, " y="43, ">
				commonPowerAttributes
		</text>
		<rect fill="white" x="236" y="30" width="20" height="16"/>
		<text fill="gray" font-size="12" font-family="Segoe UI" x="236, 243.06641, 247.23828, " y="43, ">
				grp
		</text>
		<path fill="none" stroke="gray" stroke-width="1" stroke-linecap="square" stroke-miterlimit="4" transform="translate(0.5 0.5)" d="M216 47L216 1150L407 1150L407 47L407 47"/>
		<path fill="none" stroke="black" stroke-width="1" stroke-linecap="square" stroke-miterlimit="4" transform="translate(0.5 0.5)" d="M407 47L407 28L216 28L216 47"/>
		<rect x="221" y="33" width="11" height="11"/>
		<rect fill="white" x="222" y="34" width="9" height="9"/>
		<rect x="223" y="38" width="7" height="1"/>
		<rect fill="silver" x="228" y="61" width="52" height="21"/>
		<rect fill="white" x="224" y="57" width="52" height="21"/>
		<rect fill="white" x="229" y="84" width="101" height="24"/>
		<text fill="gray" font-size="9" font-family="Segoe UI" x="229, 233.71533, 238.80859, 243.51514, 245.98047, 248.16016, 253.43359, 257.59082, 262.16992, 264.34961, 266.81494, 268.99463, 274.29443, 279.00098, 284.09424, 287.14404, 289.32373, 292.14062, 294.32031, 299.02686, 302.15576, 304.62109, 309.89453, 312.71143, 315.17676, 318.22656, 323.31982, " y="94, ">
				The local identifier of the
		</text>
		<text fill="gray" font-size="9" font-family="Segoe UI" x="229, 234.29102, 237.41992, 242.69336, 247.98438, 252.69092, 255.81982, 258.86963, 263.22461, " y="106, ">
				property.
		</text>
		<rect fill="white" x="233" y="59" width="36" height="16"/>
		<text font-size="12" font-weight="600" font-family="Segoe UI" x="233, 236.41016, " y="72, ">
				id
		</text>
		<rect fill="none" stroke="black" stroke-width="1" stroke-linecap="square" stroke-miterlimit="4" transform="translate(0.5 0.5)" x="224" y="57" width="51" height="20"/>
		<rect fill="silver" x="228" y="119" width="58" height="21"/>
		<rect fill="white" x="224" y="115" width="58" height="21"/>
		<rect fill="white" x="229" y="142" width="121" height="120"/>
		<text fill="gray" font-size="9" font-family="Segoe UI" x="229, 231.39502, 234.21191, 236.67725, 239.72705, 244.82031, 249.52686, 251.99219, 257.2832, 260.41211, 265.68555, 270.97656, 275.68311, 278.81201, 281.86182, 286.2168, 288.68213, 292.99316, 297.57227, 299.75195, 304.84521, 309.55176, 312.01709, 314.19678, 318.01562, 320.48096, 325.57422, 330.84766, " y="152, ">
				If the property value is not
		</text>
		<text fill="gray" font-size="9" font-family="Segoe UI" x="229, 234.2998, 239.00635, 241.82324, 244.00293, 249.09619, 253.80273, 259.10254, 261.05371, 263.51904, 267.33789, 272.62891, 277.33545, 281.49268, 283.67236, 286.48926, 288.66895, 293.37549, 297.19434, 299.65967, 306.16357, 311.25684, 313.43652, 317.59375, 322.68701, 325.15234, 329.85889, 334.95215, 338.00195, 340.18164, 343.23145, " y="164, ">
				defined, specifies which entity
		</text>
		<text fill="gray" font-size="9" font-family="Segoe UI" x="229, 231.71582, 237.00684, 241.71338, 244.84229, 248.66113, 253.93457, 259.02783, 260.979, 263.44434, 268.71777, 271.84668, 277.14648, 281.72559, 286.81885, 288.99854, 292.81738, 297.39648, 300.44629, 302.62598, 307.89941, 312.99268, 315.45801, 320.73145, " y="176, ">
				(person, organisation or
		</text>
		<text fill="gray" font-size="9" font-family="Segoe UI" x="229, 232.81885, 237.17383, 240.99268, 244.04248, 248.74902, 256.50098, 259.2168, 261.68213, 268.18604, 270.36572, 272.54541, 274.7251, 277.19043, 281.89697, 287.19678, 289.37646, 292.42627, 294.8916, 297.94141, 303.03467, 307.74121, 310.20654, 315.49756, 318.62646, 323.8999, 329.19092, 333.89746, 337.02637, 340.07617, " y="188, ">
				system) will edit the property
		</text>
		<text fill="gray" font-size="9" font-family="Segoe UI" x="229, 233.31104, 237.89014, 240.06982, 245.16309, 249.86963, 252.33496, 255.93408, 258.39941, 263.10596, 267.23682, 272.52783, 275.65674, 280.36328, 284.18213, 288.00098, 292.70752, 298.00732, 300.47266, 305.76367, 310.11865, 312.58398, 317.16309, 319.62842, 326.41357, 331.98584, 337.25928, 342.55908, 347.26562, " y="200, ">
				value - expressed by a QCode.
		</text>
		<text fill="gray" font-size="9" font-family="Segoe UI" x="229, 231.39502, 234.21191, 236.67725, 239.72705, 244.82031, 249.52686, 251.99219, 257.2832, 260.41211, 265.68555, 270.97656, 275.68311, 278.81201, 281.86182, 286.2168, 288.68213, 292.99316, 297.57227, 299.75195, 304.84521, 309.55176, 312.01709, 314.19678, " y="212, ">
				If the property value is
		</text>
		<text fill="gray" font-size="9" font-family="Segoe UI" x="229, 234.2998, 239.00635, 241.82324, 244.00293, 249.09619, 253.80273, 259.10254, 261.05371, 263.51904, 267.33789, 272.62891, 277.33545, 281.49268, 283.67236, 286.48926, 288.66895, 293.37549, 297.19434, 299.65967, 306.16357, 311.25684, 313.43652, 317.59375, 322.68701, 325.15234, 329.85889, 334.95215, 338.00195, 340.18164, 343.23145, " y="224, ">
				defined, specifies which entity
		</text>
		<text fill="gray" font-size="9" font-family="Segoe UI" x="229, 231.71582, 237.00684, 241.71338, 244.84229, 248.66113, 253.93457, 259.02783, 260.979, 263.44434, 268.71777, 271.84668, 277.14648, 281.72559, 286.81885, 288.99854, 292.81738, 297.39648, 300.44629, 302.62598, 307.89941, 312.99268, 315.45801, 320.73145, " y="236, ">
				(person, organisation or
		</text>
		<text fill="gray" font-size="9" font-family="Segoe UI" x="229, 232.81885, 237.17383, 240.99268, 244.04248, 248.74902, 256.50098, 259.2168, 261.68213, 266.77539, 271.35449, 275.17334, 277.63867, 282.34521, 287.64502, 289.82471, 292.87451, 297.58105, 302.88086, 305.34619, 308.396, 313.48926, " y="248, ">
				system) has edited the
		</text>
		<text fill="gray" font-size="9" font-family="Segoe UI" x="229, 234.29102, 237.41992, 242.69336, 247.98438, 252.69092, 255.81982, 258.86963, 263.22461, 265.68994, 270.00098, 274.58008, 276.75977, 281.85303, 286.55957, " y="260, ">
				property value.
		</text>
		<rect fill="white" x="233" y="117" width="42" height="16"/>
		<text font-size="12" font-weight="600" font-family="Segoe UI" x="233, 238.75977, 243.48828, 249.98047, 256.4375, 261.06055, 268.39648, " y="130, ">
				creator
		</text>
		<rect fill="none" stroke="black" stroke-width="1" stroke-linecap="square" stroke-miterlimit="4" transform="translate(0.5 0.5)" x="224" y="115" width="57" height="20"/>
		<rect fill="silver" x="228" y="273" width="73" height="21"/>
		<rect fill="white" x="224" y="269" width="73" height="21"/>
		<rect fill="white" x="229" y="296" width="120" height="108"/>
		<text fill="gray" font-size="9" font-family="Segoe UI" x="229, 231.39502, 234.21191, 236.67725, 239.72705, 244.82031, 249.52686, 251.99219, 257.2832, 260.41211, 265.68555, 270.97656, 275.68311, 278.81201, 281.86182, 286.2168, 288.68213, 292.99316, 297.57227, 299.75195, 304.84521, 309.55176, 312.01709, 314.19678, 318.01562, 320.48096, 325.57422, 330.84766, " y="306, ">
				If the property value is not
		</text>
		<text fill="gray" font-size="9" font-family="Segoe UI" x="229, 234.2998, 239.00635, 241.82324, 244.00293, 249.09619, 253.80273, 259.10254, 261.05371, 263.51904, 267.33789, 272.62891, 277.33545, 281.49268, 283.67236, 286.48926, 288.66895, 293.37549, 297.19434, 299.65967, 306.16357, 311.25684, 313.43652, 317.59375, 322.68701, 325.15234, 329.85889, 334.95215, 338.00195, 340.18164, 343.23145, " y="318, ">
				defined, specifies which entity
		</text>
		<text fill="gray" font-size="9" font-family="Segoe UI" x="229, 231.71582, 237.00684, 241.71338, 244.84229, 248.66113, 253.93457, 259.02783, 260.979, 263.44434, 268.71777, 271.84668, 277.14648, 281.72559, 286.81885, 288.99854, 292.81738, 297.39648, 300.44629, 302.62598, 307.89941, 312.99268, 315.45801, 320.73145, " y="330, ">
				(person, organisation or
		</text>
		<text fill="gray" font-size="9" font-family="Segoe UI" x="229, 232.81885, 237.17383, 240.99268, 244.04248, 248.74902, 256.50098, 259.2168, 261.68213, 268.18604, 270.36572, 272.54541, 274.7251, 277.19043, 281.89697, 287.19678, 289.37646, 292.42627, 294.8916, 297.94141, 303.03467, 307.74121, 310.20654, 315.49756, 318.62646, 323.8999, 329.19092, 333.89746, 337.02637, 340.07617, " y="342, ">
				system) will edit the property
		</text>
		<text fill="gray" font-size="9" font-family="Segoe UI" x="229, 232.59912, 235.06445, 239.771, 243.90186, 249.19287, 252.32178, 257.02832, 260.84717, 264.66602, 269.37256, 274.67236, 277.1377, 282.42871, 286.78369, 289.24902, 293.82812, 296.29346, 302.47656, 307.85986, 310.25488, 312.20605, 314.67139, 317.06641, 319.8833, 322.34863, 325.39844, 330.4917, " y="354, ">
				- expressed by a URI. If the
		</text>
		<text fill="gray" font-size="9" font-family="Segoe UI" x="229, 234.29102, 237.41992, 242.69336, 247.98438, 252.69092, 255.81982, 258.86963, 263.22461, 265.68994, 270.00098, 274.58008, 276.75977, 281.85303, 286.55957, 289.0249, 291.20459, 295.02344, 297.48877, 302.78857, 307.49512, 310.31201, 312.4917, 317.58496, 322.2915, 327.59131, " y="366, ">
				property value is defined,
		</text>
		<text fill="gray" font-size="9" font-family="Segoe UI" x="229, 232.81885, 238.10986, 242.81641, 246.97363, 249.15332, 251.97021, 254.1499, 258.85645, 262.67529, 265.14062, 271.64453, 276.73779, 278.91748, 283.07471, 288.16797, 290.6333, 295.33984, 300.43311, 303.48291, 305.6626, 308.7124, 313.06738, 315.53271, 318.24854, 323.53955, 328.24609, 331.375, 335.19385, 340.46729, 345.56055, " y="378, ">
				specifies which entity (person,
		</text>
		<text fill="gray" font-size="9" font-family="Segoe UI" x="229, 234.27344, 237.40234, 242.70215, 247.28125, 252.37451, 254.5542, 258.37305, 262.95215, 266.00195, 268.18164, 273.45508, 278.54834, 281.01367, 286.28711, 289.41602, 291.88135, 295.7002, 300.05518, 303.87402, 306.92383, 311.63037, 319.38232, 322.09814, 324.56348, 329.65674, 334.23584, " y="390, ">
				organisation or system) has
		</text>
		<text fill="gray" font-size="9" font-family="Segoe UI" x="229, 233.70654, 239.00635, 241.18604, 244.23584, 248.94238, 254.24219, 256.70752, 259.75732, 264.85059, 269.55713, 272.02246, 277.31348, 280.44238, 285.71582, 291.00684, 295.71338, 298.84229, 301.89209, 306.24707, " y="402, ">
				edited the property.
		</text>
		<rect fill="white" x="233" y="271" width="57" height="16"/>
		<text font-size="12" font-weight="600" font-family="Segoe UI" x="233, 238.75977, 243.48828, 249.98047, 256.4375, 261.06055, 268.39648, 273.20703, 280.4668, 285.28906, " y="284, ">
				creatoruri
		</text>
		<rect fill="none" stroke="black" stroke-width="1" stroke-linecap="square" stroke-miterlimit="4" transform="translate(0.5 0.5)" x="224" y="269" width="72" height="20"/>
		<rect fill="silver" x="228" y="415" width="69" height="21"/>
		<rect fill="white" x="224" y="411" width="69" height="21"/>
		<rect fill="white" x="229" y="438" width="119" height="72"/>
		<text fill="gray" font-size="9" font-family="Segoe UI" x="229, 233.71533, 238.80859, 243.51514, 245.98047, 251.28027, 255.85938, 258.90918, 263.61572, 266.08105, 268.79688, 273.37598, 278.46924, 283.76904, 285.72021, 288.18555, 293.45898, 298.75, 301.7998, 303.97949, 309.25293, 314.34619, 318.92529, 321.10498, 323.28467, 327.63965, 329.59082, 332.05615, 335.10596, 340.19922, " y="448, ">
				The date (and, optionally, the
		</text>
		<text fill="gray" font-size="9" font-family="Segoe UI" x="229, 232.0498, 234.22949, 241.98145, 246.68799, 249.40381, 251.86914, 258.37305, 263.46631, 268.17285, 273.26611, 275.73145, 278.78125, 283.87451, 288.58105, 291.04639, 296.3374, 299.46631, 304.73975, 310.03076, 314.7373, 317.86621, 320.91602, 325.271, 327.73633, 334.24023, 338.81934, " y="460, ">
				time) when the property was
		</text>
		<text fill="gray" font-size="9" font-family="Segoe UI" x="229, 231.17969, 235.75879, 239.57764, 242.62744, 245.09277, 252.84473, 258.11816, 263.41797, 265.59766, 268.41455, 270.59424, 275.30078, 280.60059, 282.55176, 285.01709, 289.73242, 294.82568, 299.53223, 301.99756, 304.17725, 309.27051, 311.4502, 314.5, 316.67969, 321.25879, 323.43848, 325.90381, 330.21484, 334.79395, 336.97363, 342.06689, " y="472, ">
				last modified. The initial value
		</text>
		<text fill="gray" font-size="9" font-family="Segoe UI" x="229, 231.17969, 234.99854, 237.46387, 240.51367, 245.60693, 250.31348, 252.77881, 258.07861, 262.65771, 265.70752, 270.41406, 272.87939, 275.59521, 280.17432, 285.26758, 290.56738, 292.51855, 294.98389, 300.25732, 305.54834, 308.59814, 310.77783, 316.05127, 321.14453, 325.72363, 327.90332, 330.08301, 334.43799, " y="484, ">
				is the date (and, optionally,
		</text>
		<text fill="gray" font-size="9" font-family="Segoe UI" x="229, 232.0498, 237.14307, 241.84961, 244.31494, 247.36475, 249.54443, 257.29639, 262.00293, 264.71875, 267.18408, 272.45752, 275.27441, 277.73975, 281.89697, 285.02588, 289.73242, 294.31152, 297.36133, 299.54102, 304.81445, 309.90771, 312.37305, 317.64648, 320.46338, 322.92871, 325.97852, 331.07178, " y="496, ">
				the time) of creation of the
		</text>
		<text fill="gray" font-size="9" font-family="Segoe UI" x="229, 234.29102, 237.41992, 242.69336, 247.98438, 252.69092, 255.81982, 258.86963, 263.22461, " y="508, ">
				property.
		</text>
		<rect fill="white" x="233" y="413" width="53" height="16"/>
		<text font-size="12" font-weight="600" font-family="Segoe UI" x="233, 243.99219, 251.32812, 258.75781, 262.16797, 266.76758, 270.17773, 276.66992, " y="426, ">
				modified
		</text>
		<rect fill="none" stroke="black" stroke-width="1" stroke-linecap="square" stroke-miterlimit="4" transform="translate(0.5 0.5)" x="224" y="411" width="68" height="20"/>
		<rect fill="silver" x="228" y="521" width="59" height="21"/>
		<rect fill="white" x="224" y="517" width="59" height="21"/>
		<rect fill="white" x="229" y="544" width="118" height="108"/>
		<text fill="gray" font-size="9" font-family="Segoe UI" x="229, 231.39502, 234.21191, 236.67725, 240.49609, 245.20264, 248.25244, 250.71777, 253.76758, 259.04102, 261.50635, 264.55615, 267.68506, 272.77832, 277.48486, 279.9502, 283, 288.09326, " y="554, ">
				If set to true the
		</text>
		<text fill="gray" font-size="9" font-family="Segoe UI" x="229, 233.15723, 238.43066, 241.55957, 244.68848, 249.39502, 253.21387, 258.50488, 263.77832, 268.87158, 274.17139, 276.35107, 281.44434, 286.74414, 289.20947, 294.50049, 297.62939, 302.90283, 308.19385, 312.90039, 316.0293, 319.0791, 323.43408, 325.89941, 332.40332, 336.98242, " y="566, ">
				corresponding property was
		</text>
		<text fill="gray" font-size="9" font-family="Segoe UI" x="229, 233.5791, 238.87891, 244.17871, 248.88525, 254.18506, 256.65039, 259.7002, 264.97363, 267.43896, 270.48877, 275.58203, 280.28857, 282.75391, 288.92822, 293.77979, 296.24512, 298.64014, 301.68994, 306.39648, 314.14844, 316.61377, 319.43066, 324.7041, 327.83301, 330.29834, " y="578, ">
				added to the G2 Item for a
		</text>
		<text fill="gray" font-size="9" font-family="Segoe UI" x="229, 232.81885, 238.10986, 242.81641, 246.97363, 249.15332, 251.97021, 254.1499, 258.30713, 260.77246, 264.92969, 270.02295, 273.8418, 276.8916, 282.16504, 289.91699, 294.62354, 297.75244, 300.21777, 305.49121, 308.62012, 311.08545, 316.38525, 319.51416, 324.7876, 329.88086, 335.17188, 337.63721, 342.91064, " y="590, ">
				specific customer or group of
		</text>
		<text fill="gray" font-size="9" font-family="Segoe UI" x="229, 233.15723, 238.25049, 242.06934, 245.11914, 250.39258, 258.14453, 262.85107, 265.97998, 269.79883, 272.26416, 277.5376, 282.63086, 284.81055, 289.16553, 291.1167, 293.58203, 298.29736, 303.39062, 308.09717, 310.5625, 315.8623, 320.56885, 323.38574, 327.96484, 333.05811, 335.23779, " y="602, ">
				customers only. The default
		</text>
		<text fill="gray" font-size="9" font-family="Segoe UI" x="229, 233.31104, 237.89014, 240.06982, 245.16309, 249.86963, 252.33496, 257.6084, 260.42529, 262.89062, 265.94043, 271.03369, 273.21338, 277.03223, 279.49756, 284.78857, 287.91748, 293.19092, 298.48193, 303.18848, 306.31738, 309.36719, 313.72217, 316.1875, 318.36719, 322.18604, 324.65137, 327.46826, 332.04736, 334.22705, 338.0459, " y="614, ">
				value of this property is false
		</text>
		<text fill="gray" font-size="9" font-family="Segoe UI" x="229, 235.50391, 240.59717, 242.77686, 246.93408, 252.02734, 254.49268, 259.07178, 264.36279, 269.65381, 271.8335, 274.01318, 278.71973, 282.53857, 285.00391, 291.50781, 296.60107, 301.30762, 306.40088, 308.86621, 311.91602, 317.00928, 319.18896, " y="626, ">
				which applies when this
		</text>
		<text fill="gray" font-size="9" font-family="Segoe UI" x="229, 233.5791, 236.62891, 239.67871, 242.80762, 244.9873, 250.27832, 255.37158, 258.42139, 263.12793, 265.59326, 267.77295, 271.5918, 274.05713, 279.15039, 284.42383, 287.47363, 289.93896, 295.03223, 298.85107, 303.55762, 308.85742, 311.32275, 317.82666, 320.00635, 323.05615, 328.14941, 330.61475, 333.66455, 338.75781, " y="638, ">
				attribute is not used with the
		</text>
		<text fill="gray" font-size="9" font-family="Segoe UI" x="229, 234.29102, 237.41992, 242.69336, 247.98438, 252.69092, 255.81982, 258.86963, 263.22461, " y="650, ">
				property.
		</text>
		<rect fill="white" x="233" y="519" width="43" height="16"/>
		<text font-size="12" font-weight="600" font-family="Segoe UI" x="233, 238.75977, 246.01953, 251.29883, 255.92188, 263.25781, " y="532, ">
				custom
		</text>
		<rect fill="none" stroke="black" stroke-width="1" stroke-linecap="square" stroke-miterlimit="4" transform="translate(0.5 0.5)" x="224" y="517" width="58" height="20"/>
		<rect fill="silver" x="228" y="663" width="52" height="21"/>
		<rect fill="white" x="224" y="659" width="52" height="21"/>
		<rect fill="white" x="229" y="686" width="118" height="48"/>
		<text fill="gray" font-size="9" font-family="Segoe UI" x="229, 231.39502, 236.48828, 241.78809, 243.96777, 248.125, 252.7041, 255.75391, 260.46045, 264.2793, 266.74463, 272.03564, 276.39062, 278.85596, 285.35986, 290.45312, 292.63281, 296.79004, 301.8833, 304.34863, 312.10059, 316.80713, 321.38623, 326.47949, 330.29834, 332.76367, 335.81348, 340.90674, " y="696, ">
				Indicates by which means the
		</text>
		<text fill="gray" font-size="9" font-family="Segoe UI" x="229, 233.31104, 237.89014, 240.06982, 245.16309, 249.86963, 252.33496, 258.83887, 263.41797, 267.23682, 269.70215, 274.40869, 278.53955, 281.58936, 284.71826, 289.29736, 293.45459, 296.50439, 301.21094, 306.51074, 308.97607, 311.79297, 314.92188, 320.19531, 327.94727, 330.4126, 333.4624, 338.55566, " y="708, ">
				value was extracted from the
		</text>
		<text fill="gray" font-size="9" font-family="Segoe UI" x="229, 233.15723, 238.43066, 243.52393, 246.57373, 251.28027, 256.37354, 259.42334, 261.88867, 265.48779, 267.95312, 272.65967, 276.79053, 282.08154, 285.21045, 289.91699, 293.73584, 297.55469, 302.26123, 307.56104, 310.02637, 315.31738, 319.67236, 322.1377, " y="720, ">
				content - expressed by a
		</text>
		<text fill="gray" font-size="9" font-family="Segoe UI" x="229, 235.78516, 241.35742, 246.63086, 251.93066, " y="732, ">
				QCode
		</text>
		<rect fill="white" x="233" y="661" width="36" height="16"/>
		<text font-size="12" font-weight="600" font-family="Segoe UI" x="233, 240.22461, 247.56055, " y="674, ">
				how
		</text>
		<rect fill="none" stroke="black" stroke-width="1" stroke-linecap="square" stroke-miterlimit="4" transform="translate(0.5 0.5)" x="224" y="659" width="51" height="20"/>
		<rect fill="silver" x="228" y="745" width="57" height="21"/>
		<rect fill="white" x="224" y="741" width="57" height="21"/>
		<rect fill="white" x="229" y="768" width="118" height="36"/>
		<text fill="gray" font-size="9" font-family="Segoe UI" x="229, 231.39502, 236.48828, 241.78809, 243.96777, 248.125, 252.7041, 255.75391, 260.46045, 264.2793, 266.74463, 272.03564, 276.39062, 278.85596, 285.35986, 290.45312, 292.63281, 296.79004, 301.8833, 304.34863, 312.10059, 316.80713, 321.38623, 326.47949, 330.29834, 332.76367, 335.81348, 340.90674, " y="778, ">
				Indicates by which means the
		</text>
		<text fill="gray" font-size="9" font-family="Segoe UI" x="229, 233.31104, 237.89014, 240.06982, 245.16309, 249.86963, 252.33496, 258.83887, 263.41797, 267.23682, 269.70215, 274.40869, 278.53955, 281.58936, 284.71826, 289.29736, 293.45459, 296.50439, 301.21094, 306.51074, 308.97607, 311.79297, 314.92188, 320.19531, 327.94727, 330.4126, 333.4624, 338.55566, " y="790, ">
				value was extracted from the
		</text>
		<text fill="gray" font-size="9" font-family="Segoe UI" x="229, 233.15723, 238.43066, 243.52393, 246.57373, 251.28027, 256.37354, 259.42334, 261.88867, 265.48779, 267.95312, 272.65967, 276.79053, 282.08154, 285.21045, 289.91699, 293.73584, 297.55469, 302.26123, 307.56104, 310.02637, 315.31738, 319.67236, 322.1377, 326.7168, 329.18213, 335.36523, 340.74854, " y="802, ">
				content - expressed by a URI
		</text>
		<rect fill="white" x="233" y="743" width="41" height="16"/>
		<text font-size="12" font-weight="600" font-family="Segoe UI" x="233, 240.22461, 247.56055, 257.12891, 264.38867, 269.21094, " y="756, ">
				howuri
		</text>
		<rect fill="none" stroke="black" stroke-width="1" stroke-linecap="square" stroke-miterlimit="4" transform="translate(0.5 0.5)" x="224" y="741" width="56" height="20"/>
		<rect fill="silver" x="228" y="815" width="52" height="21"/>
		<rect fill="white" x="224" y="811" width="52" height="21"/>
		<rect fill="white" x="229" y="838" width="113" height="36"/>
		<text fill="gray" font-size="9" font-family="Segoe UI" x="229, 237.40674, 242.5, 246.85498, 249.32031, 252.37012, 257.46338, 262.16992, 264.63525, 272.38721, 277.09375, 280.14355, 284.72266, 290.02246, 294.60156, 297.65137, 302.23047, 304.6958, 309.78906, 314.36816, 318.18701, 320.65234, 325.94336, 330.6499, 335.35645, " y="848, ">
				Why the metadata has been
		</text>
		<text fill="gray" font-size="9" font-family="Segoe UI" x="229, 231.17969, 236.27295, 240.43018, 242.60986, 247.70312, 253.00293, 257.70947, 263.00928, 265.47461, 269.07373, 271.53906, 276.24561, 280.37646, 285.66748, 288.79639, 293.50293, 297.32178, 301.14062, 305.84717, 311.14697, 313.6123, 318.90332, 323.2583, 325.72363, " y="860, ">
				included - expressed by a
		</text>
		<text fill="gray" font-size="9" font-family="Segoe UI" x="229, 235.78516, 241.35742, 246.63086, 251.93066, " y="872, ">
				QCode
		</text>
		<rect fill="white" x="233" y="813" width="36" height="16"/>
		<text font-size="12" font-weight="600" font-family="Segoe UI" x="233, 242.56836, 249.79297, " y="826, ">
				why
		</text>
		<rect fill="none" stroke="black" stroke-width="1" stroke-linecap="square" stroke-miterlimit="4" transform="translate(0.5 0.5)" x="224" y="811" width="51" height="20"/>
		<rect fill="silver" x="228" y="885" width="56" height="21"/>
		<rect fill="white" x="224" y="881" width="56" height="21"/>
		<rect fill="white" x="229" y="908" width="119" height="24"/>
		<text fill="gray" font-size="9" font-family="Segoe UI" x="229, 237.40674, 242.5, 246.85498, 249.32031, 252.37012, 257.46338, 262.16992, 264.63525, 272.38721, 277.09375, 280.14355, 284.72266, 290.02246, 294.60156, 297.65137, 302.23047, 304.6958, 309.78906, 314.36816, 318.18701, 320.65234, 325.94336, 330.6499, 335.35645, " y="918, ">
				Why the metadata has been
		</text>
		<text fill="gray" font-size="9" font-family="Segoe UI" x="229, 231.17969, 236.27295, 240.43018, 242.60986, 247.70312, 253.00293, 257.70947, 263.00928, 265.47461, 269.07373, 271.53906, 276.24561, 280.37646, 285.66748, 288.79639, 293.50293, 297.32178, 301.14062, 305.84717, 311.14697, 313.6123, 318.90332, 323.2583, 325.72363, 330.30273, 332.76807, 338.95117, 344.33447, " y="930, ">
				included - expressed by a URI
		</text>
		<rect fill="white" x="233" y="883" width="40" height="16"/>
		<text font-size="12" font-weight="600" font-family="Segoe UI" x="233, 242.56836, 249.79297, 256.25, 263.50977, 268.33203, " y="896, ">
				whyuri
		</text>
		<rect fill="none" stroke="black" stroke-width="1" stroke-linecap="square" stroke-miterlimit="4" transform="translate(0.5 0.5)" x="224" y="881" width="55" height="20"/>
		<rect fill="silver" x="228" y="943" width="97" height="21"/>
		<rect fill="white" x="224" y="939" width="97" height="21"/>
		<rect fill="white" x="229" y="966" width="117" height="72"/>
		<text fill="gray" font-size="9" font-family="Segoe UI" x="229, 235.78516, 240.87842, 245.58496, 248.05029, 253.32373, 256.45264, 258.91797, 266.66992, 271.24902, 276.34229, 280.69727, 283.1626, 287.31982, 292.59326, 297.68652, 301.50537, 304.55518, 307.68408, 312.26318, 314.44287, 319.53613, 322.58594, 326.40479, 328.87012, 331.91992, 337.01318, 341.59229, " y="976, ">
				One or many constraints that
		</text>
		<text fill="gray" font-size="9" font-family="Segoe UI" x="229, 233.5791, 238.87012, 244.16113, 246.34082, 250.6958, 253.16113, 256.21094, 261.48438, 263.94971, 269.24072, 274.33398, 279.625, 281.80469, 283.98438, 287.80322, 292.89648, 295.07617, 300.16943, 305.46924, 307.93457, 310.98438, 316.07764, 320.78418, 323.24951, 327.56055, 332.13965, 334.31934, 339.4126, " y="988, ">
				apply to publishing the value
		</text>
		<text fill="gray" font-size="9" font-family="Segoe UI" x="229, 234.27344, 237.09033, 239.55566, 242.60547, 247.69873, 252.40527, 254.87061, 260.16162, 263.29053, 268.56396, 273.85498, 278.56152, 281.69043, 284.74023, 289.09521, 291.56055, 295.15967, 297.625, 302.33154, 306.4624, 311.75342, 314.88232, 319.58887, 323.40771, 327.22656, 331.93311, " y="1000, ">
				of the property - expressed
		</text>
		<text fill="gray" font-size="9" font-family="Segoe UI" x="229, 234.29102, 238.646, 241.11133, 245.69043, 248.15576, 254.94092, 260.51318, 265.78662, 271.08643, 275.79297, 277.74414, 280.20947, 284.76221, 289.34131, 293.49854, 298.5918, 301.05713, 305.21436, 310.48779, 315.58105, 319.3999, 322.44971, 325.57861, 330.15771, 332.3374, 337.43066, " y="1012, ">
				by a QCode. Each constraint
		</text>
		<text fill="gray" font-size="9" font-family="Segoe UI" x="229, 233.5791, 238.87012, 244.16113, 246.34082, 248.52051, 253.22705, 257.0459, 259.51123, 262.56104, 267.83447, 270.2998, 274.87891, 277.05859, 279.23828, 281.70361, 287.00342, 291.70996, 295.52881, 299.68604, 304.39258, 309.48584, 314.78564, 319.36475, 324.45801, " y="1024, ">
				applies to all descendant
		</text>
		<text fill="gray" font-size="9" font-family="Segoe UI" x="229, 233.70654, 235.88623, 240.59277, 248.34473, 253.05127, 258.14453, 261.19434, 265.01318, " y="1036, ">
				elements.
		</text>
		<rect fill="white" x="233" y="941" width="81" height="16"/>
		<text font-size="12" font-weight="600" font-family="Segoe UI" x="233, 240.44141, 247.70117, 255.14258, 260.90234, 268.23828, 275.49805, 280.77734, 285.44727, 290.22266, 296.67969, 300.08984, 307.34961, " y="954, ">
				pubconstraint
		</text>
		<rect fill="none" stroke="black" stroke-width="1" stroke-linecap="square" stroke-miterlimit="4" transform="translate(0.5 0.5)" x="224" y="939" width="96" height="20"/>
		<rect fill="silver" x="228" y="1049" width="112" height="21"/>
		<rect fill="white" x="224" y="1045" width="112" height="21"/>
		<rect fill="white" x="229" y="1072" width="117" height="72"/>
		<text fill="gray" font-size="9" font-family="Segoe UI" x="229, 235.78516, 240.87842, 245.58496, 248.05029, 253.32373, 256.45264, 258.91797, 266.66992, 271.24902, 276.34229, 280.69727, 283.1626, 287.31982, 292.59326, 297.68652, 301.50537, 304.55518, 307.68408, 312.26318, 314.44287, 319.53613, 322.58594, 326.40479, 328.87012, 331.91992, 337.01318, 341.59229, " y="1082, ">
				One or many constraints that
		</text>
		<text fill="gray" font-size="9" font-family="Segoe UI" x="229, 233.5791, 238.87012, 244.16113, 246.34082, 250.6958, 253.16113, 256.21094, 261.48438, 263.94971, 269.24072, 274.33398, 279.625, 281.80469, 283.98438, 287.80322, 292.89648, 295.07617, 300.16943, 305.46924, 307.93457, 310.98438, 316.07764, 320.78418, 323.24951, 327.56055, 332.13965, 334.31934, 339.4126, " y="1094, ">
				apply to publishing the value
		</text>
		<text fill="gray" font-size="9" font-family="Segoe UI" x="229, 234.27344, 237.09033, 239.55566, 242.60547, 247.69873, 252.40527, 254.87061, 260.16162, 263.29053, 268.56396, 273.85498, 278.56152, 281.69043, 284.74023, 289.09521, 291.56055, 295.15967, 297.625, 302.33154, 306.4624, 311.75342, 314.88232, 319.58887, 323.40771, 327.22656, 331.93311, " y="1106, ">
				of the property - expressed
		</text>
		<text fill="gray" font-size="9" font-family="Segoe UI" x="229, 234.29102, 238.646, 241.11133, 245.69043, 248.15576, 254.33887, 259.72217, 262.11719, 264.06836, 266.53369, 271.08643, 275.66553, 279.82275, 284.91602, 287.38135, 291.53857, 296.81201, 301.90527, 305.72412, 308.77393, 311.90283, 316.48193, 318.66162, 323.75488, " y="1118, ">
				by a URI. Each constraint
		</text>
		<text fill="gray" font-size="9" font-family="Segoe UI" x="229, 233.5791, 238.87012, 244.16113, 246.34082, 248.52051, 253.22705, 257.0459, 259.51123, 262.56104, 267.83447, 270.2998, 274.87891, 277.05859, 279.23828, 281.70361, 287.00342, 291.70996, 295.52881, 299.68604, 304.39258, 309.48584, 314.78564, 319.36475, 324.45801, " y="1130, ">
				applies to all descendant
		</text>
		<text fill="gray" font-size="9" font-family="Segoe UI" x="229, 233.70654, 235.88623, 240.59277, 248.34473, 253.05127, 258.14453, 261.19434, 265.01318, " y="1142, ">
				elements.
		</text>
		<rect fill="white" x="233" y="1047" width="96" height="16"/>
		<text font-size="12" font-weight="600" font-family="Segoe UI" x="233, 240.44141, 247.70117, 255.14258, 260.90234, 268.23828, 275.49805, 280.77734, 285.44727, 290.22266, 296.67969, 300.08984, 307.34961, 312.01953, 319.2793, 324.10156, " y="1060, ">
				pubconstrainturi
		</text>
		<rect fill="none" stroke="black" stroke-width="1" stroke-linecap="square" stroke-miterlimit="4" transform="translate(0.5 0.5)" x="224" y="1045" width="111" height="20"/>
		<path fill="silver" d="M220 1217L225 1212L293 1212L298 1217L298 1228L293 1233L225 1233L220 1228L220 1217Z"/>
		<path fill="white" d="M216 1213L221 1208L289 1208L294 1213L294 1224L289 1229L221 1229L216 1224L216 1213Z"/>
		<rect fill="white" x="243" y="1210" width="46" height="16"/>
		<text font-size="12" font-weight="600" font-family="Segoe UI" x="243, 250.10742, 257.21484, 264.55078, 269.2207, 276.44531, 282.9375, " y="1223, ">
				##other
		</text>
		<rect fill="white" x="221" y="1210" width="20" height="16"/>
		<text fill="gray" font-size="12" font-family="Segoe UI" x="221, 227.10547, 233.89648, " y="1223, ">
				any
		</text>
		<path fill="none" stroke="black" stroke-width="1" stroke-linecap="square" stroke-miterlimit="4" transform="translate(0.5 0.5)" d="M216 1213L221 1208L288 1208L293 1213L293 1223L288 1228L221 1228L216 1223L216 1213Z"/>
		<rect x="207" y="5" width="11" height="11"/>
		<rect fill="white" x="208" y="6" width="9" height="9"/>
		<rect x="209" y="10" width="7" height="1"/>
		<rect x="178" y="615" width="11" height="11"/>
		<rect fill="white" x="179" y="616" width="9" height="9"/>
		<rect x="180" y="620" width="7" height="1"/>
	</g>
</svg>
